<?xml version="1.0" encoding="utf-8" ?><svg xmlns="http://www.w3.org/2000/svg" xmlns:xlink="http://www.w3.org/1999/xlink" width="1024" height="1024" viewBox="0 0 1024 1024"><path fill="#FEFEFE" d="M0 0L1024 0L1024 1024L0 1024L0 0ZM593.805 156.047L593.604 155.665C592.994 154.48 592.543 153.34 592.117 152.078C582.653 124.05 554.667 104.096 529.195 91.5967C504.798 79.6247 473.81 71.8199 446.887 68.1839C442.644 67.6109 435.112 66.2194 431.045 67.7193C429.416 68.3203 428.736 69.7322 428.208 71.2299C428.36 72.4843 428.379 73.1745 429.364 74.1116C431.137 75.7987 435.1 75.883 437.397 76.7495C439.733 77.6308 442.055 78.8903 444.187 80.1854C454.274 86.3121 463.467 94.8231 472.445 102.46C474.224 103.973 483.696 113.244 484.812 113.412C484.684 112.149 484.591 110.907 484.029 109.748C480.681 102.834 466.269 90.9208 459.87 85.6999C455.676 82.2775 451.248 79.2872 446.618 76.4919C492.394 86.6393 533.244 99.9911 568.967 131.631C573.594 135.802 577.972 140.241 582.078 144.926C584.819 148.039 590.015 156.461 592.944 158.205C592.481 160.049 591.467 162.393 591.736 164.255C591.854 165.071 591.905 164.866 592.656 165.343C593.241 165.009 593.321 165.006 593.872 164.448C599.354 158.891 599.174 144.99 599.406 137.754C600.189 113.339 588.27 87.249 571.917 69.6064C574.799 70.6973 577.648 71.8714 580.461 73.127C599.15 81.2866 613.536 93.3751 621.079 112.642C618.217 121.707 616.178 130.471 611.697 138.97C607.718 146.519 602.335 153.546 598.875 161.29C599.263 161.063 599.648 160.831 600.03 160.594C609.161 154.872 618.305 136.896 620.647 126.616C622.912 116.676 621.626 104.967 616.053 96.3346C606.838 82.0624 581.242 66.8255 564.578 63.6156C562.853 63.2833 561.075 63.0204 559.584 64.1377C558.852 64.686 558.997 64.8722 558.85 65.6917C560.402 69.2036 566.301 71.1105 569.213 73.6054C571.738 75.7693 573.88 78.4145 575.772 81.1371C590.882 102.881 598.681 129.636 593.805 156.047ZM498.277 201.456C508.129 190.275 512.666 177.547 517.251 163.682C512.266 166.348 507.898 170.547 503.529 174.12C494.072 181.853 484.688 190.228 474.693 197.224C464.559 204.317 453.837 210.973 443.207 217.299C438.083 220.349 432.043 223.022 427.346 226.605C426.063 227.381 424.735 228.087 423.599 229.069C414.628 234.075 404.747 237.557 395.428 241.879C389.266 244.737 383.462 248.429 377.263 251.134C372.933 250.727 368.661 249.897 364.382 249.135C370.15 244.279 375.744 239.22 381.154 233.968C374.816 236.964 365.272 243.324 361.342 249.054L361.214 250.194C365.831 252.169 372.782 253.897 377.735 254.697C371.621 263.358 329.074 297.994 318.986 304.882C309.881 311.098 295.31 318.94 287.86 326.22C280.512 327.896 272.162 327.544 264.627 327.832C268.903 323.299 274.308 319.467 278.769 314.955C285.587 308.061 292.412 301.074 298.925 293.892C305.845 286.261 339.835 247.661 341.327 240.797C339.568 236.694 330.319 237.989 326.524 238.228C322.587 238.476 318.732 238.308 314.839 237.641C300.396 235.166 259.713 222.463 248.543 214.658C248.355 214.527 248.17 214.392 247.984 214.259C261.747 206.301 276.305 199.846 290.716 193.176C307.46 185.427 324.153 177.572 341.407 171.003C354.796 165.905 368.866 163.104 381.723 156.647C391.121 158.697 400.436 163.738 409.209 167.629C412.109 168.915 416.042 171.261 419.157 171.556C420.119 171.647 420.401 171.71 421.15 171.068C416.104 164.116 350.744 137.78 338.973 133.621C327.629 129.613 315.821 126.905 304.457 122.905C312.218 120.466 320.227 118.674 328.127 116.731C370.336 106.348 411.473 103.127 454.232 112.57C465.079 114.965 475.248 118.733 485.842 121.913C487.479 122.404 489.429 123.131 490.986 122.29C490.718 121.722 490.693 121.592 490.223 121.044C482.032 111.499 445.621 103.392 433.122 101.918C403.038 98.3711 371.104 99.7584 341.785 107.717C334.247 109.764 327.177 112.697 319.791 115.157C315.995 116.421 305.226 118.55 302.67 121.203C301.727 122.183 301.687 122.624 301.725 123.874C307.083 128.059 317.406 130.095 323.897 132.67C333.216 136.368 342.189 141.036 351.418 144.974C358.283 147.903 365.656 150.094 372.278 153.501C331.279 164.341 291.783 180.225 254.694 200.788C250.617 203.061 242.036 206.727 239.505 210.667C238.971 211.498 239.081 211.896 239.327 212.859C240.302 216.685 245.735 219.974 248.875 221.973C270.273 235.598 292.782 242.451 318.094 243.312C324.935 243.545 331.402 243.848 338.141 242.339C327.105 250.61 318.25 262.945 309.349 273.397C301.157 282.872 292.916 292.304 284.627 301.694C276.869 310.579 267.599 319.183 260.949 328.862C261.744 331.46 266.124 330.265 268.157 331.305C268.634 331.549 269.411 332.618 269.819 333.045C286.678 339.605 341.426 326.653 358.519 319.572C360.316 318.828 363.632 317.813 364.38 316.009L362.974 314.476C363.397 313.547 364.878 313.16 365.802 312.716C368.042 310.909 371.447 309.531 374.012 308.129L374.771 309.283C372.238 311.013 369.857 312.703 367.616 314.811C361.789 321.237 343.306 337.808 344.181 346.783C344.281 347.808 344.594 348.331 345.155 349.16C347.343 350.73 349.716 350.718 352.314 350.304C361.823 348.788 372.578 343.514 380.907 338.788C376.653 342.85 374.156 347.15 374.017 353.24C373.896 358.576 376.26 363.655 380.071 367.33C383.758 370.886 389.275 373.469 394.463 373.398C395.679 373.381 396.804 373.12 397.979 372.828C398.059 373.01 398.142 373.191 398.22 373.373C399.701 376.83 400.02 380.672 401.554 384.036C405.006 391.605 417.86 400.487 425.204 404.17C417.211 405.892 402.814 406.62 396.513 411.333C395.971 412.807 396.201 413.728 396.853 415.152C401.46 425.212 415.446 437.162 422.633 446.477C404.54 446.416 374.421 442.637 358.174 449.834C353.745 451.795 349.628 455.068 346.205 458.457C336.005 468.558 327.574 480.418 319.014 491.886C293.494 526.053 270.385 561.955 249.852 599.333C245.248 607.655 238.897 617.071 236.512 626.289C236.478 626.419 236.439 626.546 236.402 626.675C237.612 630.963 239.642 634.329 241.843 638.172C257.502 665.511 290.996 689.039 317.991 704.205C326.335 708.893 347.998 720.629 356.528 719.922L356.896 720.484C353.881 723.4 351.691 726.103 349.828 729.924C350.031 730.06 350.233 730.197 350.437 730.331C354.651 733.077 359.458 733.853 363.919 736.053C364.566 735.812 365.131 735.581 365.742 735.254C369.115 739.785 369.327 744.809 373.652 749.471C371.442 766.114 371.163 782.956 372.82 799.663C374.809 818.82 377.86 838.181 381.604 857.067C384.611 872.236 411.489 984.837 416.682 990.108C417.698 991.139 419.448 991.661 420.852 991.351C424.066 990.643 425.898 987.303 427.538 984.767C424.298 971.205 419.361 957.794 415.484 944.367C408.018 918.913 401.118 893.297 394.787 867.537C391.107 852.785 387.268 837.964 384.553 822.999C390.074 824.159 394.333 824.434 399.34 821.212C408.614 815.244 412.15 802.938 414.132 792.772C415.106 787.77 415.879 782.761 416.174 777.667C420.277 779.198 424.527 780.62 428.497 782.465C431.099 783.675 433.818 785.636 436.547 786.418C437.711 786.752 438.156 786.59 439.269 786.252C442.973 782.189 441.589 772.093 442.576 766.723C445.438 767.728 456.796 770.404 458.129 772.022C461.01 775.518 462.907 775.741 467.216 776.584C465.596 788.023 463.783 815.958 469.607 825.982C469.84 826.385 469.995 826.473 470.317 826.733C472.211 823.907 468.765 783.019 468.626 776.978C474.441 777.872 480.303 778.35 486.16 778.891C483.221 785.019 483.101 828.379 486.275 834.696C486.396 834.936 486.582 835.137 486.736 835.358C489.961 828.702 489.132 786.906 486.773 779.505C486.724 779.352 486.661 779.203 486.606 779.052C491.438 779.164 495.517 780.316 499.315 776.808C499.498 776.639 499.634 776.403 499.859 776.294C500.83 775.826 505.593 776.41 506.923 776.426C513.085 776.501 519.302 775.8 525.441 775.314C525.332 778.19 524.798 781.202 526.63 783.647C529.876 787.981 538.094 787.774 543.015 788.294C541.149 797.951 545.836 809.845 550.016 818.493C559.471 838.055 574.537 843.191 593.95 850.016C595.209 861.463 594.483 873.428 594.642 884.948C595.136 907.261 595.444 929.577 595.567 951.894C595.644 958.458 595.067 977.629 596.898 982.707C598.01 978.638 597.85 973.585 598.151 969.32C599.653 948 599.105 926.604 599.106 905.25C599.108 876.471 600.953 847.699 600.606 818.915C600.534 812.955 600.381 806.964 599.845 801.025C599.321 795.226 598.397 789.472 598.226 783.645C599.761 780.993 618.665 775.851 623.346 773.064C623.546 772.945 623.743 772.821 623.942 772.7C624.529 761.968 622.84 751.155 622.861 740.409C620.689 740.838 618.507 740.87 616.302 740.959C615.076 735.062 611.305 729.148 608.935 723.592C605.549 715.652 602.659 706.697 600.756 698.251C599.817 694.082 599.231 676.864 597.589 674.588L596.867 674.795C596.466 675.567 596.227 676.201 596.099 677.072C593.873 692.154 598.926 715.283 605.973 728.676C608.356 733.203 611.683 737.298 614.688 741.42C612.994 741.941 611.372 742.38 609.584 742.372C607.933 742.364 606.828 741.852 605.756 740.639C598.17 732.058 590.607 706.199 590.642 694.288C590.663 687.185 592.318 680.374 592.636 673.332L592.665 672.632C595.446 671.463 598.811 670.34 601.213 668.488C602.399 667.574 603.268 666.471 604.564 665.68C607.886 668.335 606.979 680.411 607.139 684.693C607.9 705.158 616.543 721.95 626.506 739.273C631.52 740.612 636.787 740.113 641.711 738.575C643.621 737.978 645.888 737.229 646.798 735.289C647.42 733.964 646.332 731.68 645.764 730.414L645.477 730.516C645.177 731.271 644.857 732.003 644.509 732.737C640.511 733.766 634.301 736.163 630.345 734.821C628.838 734.309 628.324 732.751 627.68 731.422L627.377 730.782C632.04 729.979 636.768 729.491 641.448 728.767C637.427 717.376 634.026 705.678 630.689 694.071C629.204 688.909 627.252 683.764 626.32 678.474C622.799 678.193 619.28 677.87 615.767 677.505C620.562 676.255 625.127 674.099 629.955 673.034L630.136 674.997L630.724 675.37C631.305 674.525 631.873 673.629 632.603 672.904C633.464 672.049 633.52 672.087 634.677 672.124C633.977 672.85 633.567 673.632 633.087 674.513C633.222 693.075 638.229 709.274 644.264 726.603C648.646 724.564 653.497 723.384 658.05 721.748C664.824 719.314 671.5 716.496 678.125 713.689C698.398 705.1 718.97 694.714 736.951 681.965C744.99 676.266 752.38 669.823 760.121 663.744C760.256 662.334 760.392 660.918 760.454 659.502C761.099 644.799 752.99 616.888 747.901 602.702C737.757 574.429 708.595 511.414 689.451 490.479C695.234 509.48 704.811 526.489 713.283 544.335C731.387 582.467 749.186 621.681 757.747 663.223C751.511 666.384 745.684 671.142 739.828 675.017C731.567 680.467 723.025 685.479 714.236 690.03C724.148 680.066 741.91 672.338 746.978 658.117C749.898 649.923 747.245 639.978 744.619 632.068C740.829 620.654 734.831 609.996 729.257 599.397C725.028 591.356 720.999 583.189 716.901 575.078C706.395 554.279 695.656 533.311 685.869 512.174C684.675 509.596 684.384 506.745 683.23 504.272L681.992 504.195C682.226 500.449 685.821 490.625 686.962 486.294C685.686 483.121 686.456 478.479 686.541 475.045C679.357 488.656 669.429 500.843 662.66 514.561C659.295 521.379 656.198 528.623 653.833 535.848C651.759 542.182 650.235 548.817 647.671 554.969L647.463 555.457C647.501 544.608 648.691 532.889 652.007 522.527C653.748 517.18 655.779 511.933 658.09 506.807C660.43 501.64 667.712 490.741 667.554 485.476C666.909 484.065 665.659 483.567 664.337 482.916C655.946 478.778 646.787 475.741 638.045 472.401C625.658 467.669 613.456 462.706 601.461 457.045L603.979 453.218C614.11 456.272 624.457 458.709 634.63 461.662C651.534 466.57 667.817 472.663 685.508 474.14C676.219 470.779 667.163 466.807 657.811 463.603C640.872 457.799 623.903 453.514 606.513 449.34C611.784 443.381 616.756 437.223 621.908 431.171C627.215 424.936 633.256 419.174 636.974 411.805C629.003 403.424 612.587 396.721 601.463 394.265C614.537 381.905 627.628 369.431 632.637 351.434C633.755 347.419 633.652 343.047 634.696 338.963C634.913 338.734 635.075 338.436 635.347 338.278C635.684 338.082 639.519 338.585 640.286 338.56C643.417 338.461 646.557 338.028 649.546 337.079C660.593 333.572 668.639 324.717 673.729 314.601C678.514 305.088 679.749 295.157 676.279 285.014C672.017 272.555 664.675 264.851 652.947 259.124C653.707 256.404 654.551 253.675 655.155 250.916C659.511 231.016 649.9 208.303 639.165 191.952C656.398 194.27 673.288 198.112 690.409 200.938C691.772 201.163 692.824 201.616 693.964 200.786C694.105 200.117 694.155 200.036 694.138 199.258C694.061 195.628 690.918 191.966 688.397 189.682C675.07 177.606 643.928 171.418 626.093 172.195C636.823 168.963 647.406 165.706 658.421 163.541C665.283 162.192 686.963 160.56 691.231 156.778C691.708 155.548 691.857 155.275 691.194 154.007C689.8 151.343 684.071 149.422 681.305 148.441C663.018 141.959 643.089 139.871 625.168 148.568C615.417 153.3 608.548 159.551 605.016 169.941C612.889 163.578 614.721 158.276 625.069 152.763C643.335 143.033 664.161 148.082 682.846 153.754C668.744 153.616 643.157 161.06 629.821 166.829C625.848 168.547 622.127 170.857 618.215 172.716C613.74 174.842 609.031 176.61 604.857 179.303C610.195 179.127 615.505 177.599 620.802 176.909C632.08 175.44 643.912 176.722 654.984 179.064C668.634 181.951 683.205 186.399 691.169 198.673C680.773 196.583 636.284 186.639 628.518 188.72L628.55 189.463C630.256 190.939 632.456 191.2 634.6 191.7C640.47 206.345 647.007 222.66 649.124 238.297C650.027 244.972 649.962 251.841 650.144 258.569C644.981 258.384 640.123 258.662 635.534 261.349C625.156 267.426 621.047 281.143 618.318 292.048C616.91 286.677 621.486 272.559 622.447 266.355C623.895 257 624.396 246.243 622.243 236.951C621.041 246.628 620.593 256.425 619.187 266.069C617.798 275.595 615.222 285.489 614.575 295.046C614.416 297.392 614.994 300.518 615.984 302.622C616.694 301.707 616.564 300.377 616.673 299.231L618.491 300.175C624.495 294.675 624.149 274.947 638.689 266.795C642.228 264.811 646.38 265.042 650.152 266.228C657.315 268.48 663.268 275.532 666.609 282.048C670.431 289.504 671.006 298.795 668.313 306.723C665.183 315.934 657.848 324.502 649.006 328.669C644.954 330.578 638.618 332.127 634.264 330.412C633.382 330.064 632.564 329.785 631.658 329.511C631.341 329.651 630.916 329.654 630.707 329.931C630.076 330.768 628.237 340.072 627.484 342.101C620.951 359.72 612.889 374.398 598.68 387.022C573.61 409.297 535.391 419.962 502.27 417.694C472.565 415.66 428.26 403.773 408.176 380.718C407.879 376.991 406.778 373.221 406.117 369.534C405.054 363.601 404.297 357.612 403.491 351.64C400.192 327.189 397.662 302.417 392.543 278.251C391.155 271.699 389.12 265.272 387.452 258.786C390.883 258.644 394.729 260.034 398.264 260.135C409.211 260.449 425.902 258.386 436.235 254.858C438.366 257.738 440.789 262.13 444.259 263.472C445.409 263.406 446.148 263.336 447.176 262.798C445.476 259.461 442 256.134 439.703 253.086C447.641 250.744 457.101 247.912 464.292 243.831C467.662 241.919 475.624 234.03 478.752 233.629C470.661 246.171 459.379 258.919 446.339 266.454L445.267 267.724L445.462 268.421C451.441 270.884 467.398 265.719 473.127 263.296C506.412 249.218 538.721 211.262 552.004 178C552.811 175.979 553.703 173.975 553.38 171.755C552.481 171.093 552.807 171.104 551.524 171.243C548.485 174.884 546.461 179.957 544.232 184.177C541.109 190.092 537.863 196.014 534.219 201.627C517.323 227.66 491.252 252.148 461.911 263.12C457.975 264.592 453.196 266.901 448.994 267.332C448.358 267.397 447.801 267.327 447.172 267.238C447.92 266.952 448.664 266.649 449.414 266.367C450.431 265.986 451.415 265.625 452.388 265.132C473.14 254.615 490.822 223.1 498.277 201.456ZM715.702 800.115C715.675 800.272 715.651 800.43 715.623 800.586C714.603 806.101 707.253 820.273 709.662 824.773C711.73 824.263 712.917 822.12 713.97 820.367C716.208 816.642 718.364 809.029 722.039 807.029L722.721 807.268C722.395 812.14 721.248 816.911 720.906 821.757C724.203 820.418 734.413 817.491 736.166 814.989C735.31 813.66 733.993 813.514 732.461 813.176C730.587 812.763 728.669 812.84 726.772 812.994C727.129 810.524 728.009 807.394 726.449 805.189C725.684 804.108 724.714 803.737 723.439 803.612C721.095 803.382 718.6 804.938 716.368 803.975C715.918 802.797 716.216 802.179 716.436 800.974C717.681 795.86 725.091 775.171 723.505 771.537C723.198 770.835 722.808 770.891 722.153 770.653C721.557 770.776 721.456 770.754 720.855 771.124C713.695 775.524 689.836 819.652 688.587 829.016C688.423 830.251 688.478 830.793 689.225 831.772L690.197 831.742C692.615 827.216 693.661 822.09 695.628 817.361C702.059 801.902 710.315 788.414 721.564 776.006C718.739 783.624 717.274 792.142 715.702 800.115ZM797.02 872.489C757.367 873.286 717.565 879.989 678.154 884.262C664.005 885.772 649.83 887.035 635.637 888.05C628.694 888.587 621.406 888.681 614.548 889.698C612.987 889.93 611.691 890.266 610.445 891.274C610.058 892.578 610.224 892.368 610.804 893.481C612.648 894.487 614.22 894.502 616.297 894.493C629.602 894.44 643.507 891.954 656.772 890.568C693.835 886.696 730.676 881.486 767.651 876.874C776.15 875.814 785.64 876.212 793.923 874.324C794.071 874.29 794.203 874.206 794.343 874.148C801.714 874.036 809.078 873.711 816.449 873.571C820.197 874.183 831.396 874.767 834.829 873.757C836.067 873.393 835.259 873.297 836.259 873.57L835.455 873.589L835.146 873.273C832.941 873.156 830.754 873.116 828.546 873.126C818.002 872.471 807.575 872.433 797.02 872.489ZM553.647 181.784C564.577 194.817 578.421 206.589 592.707 215.9C600.922 238.568 606.008 262.25 607.824 286.292C608.04 289.136 607.861 296.904 610.927 298.161C611.242 298.29 611.681 298.343 612.022 298.397C612.324 293.727 611.67 288.92 611.272 284.266C609.594 264.622 606.235 246.475 599.797 227.805C598.342 223.585 597.041 219.149 594.976 215.193C594.871 214.993 594.777 214.787 594.669 214.59C592.73 211.057 564.471 188.05 559.742 184.65C558.174 183.523 556.579 182.495 554.698 181.983C554.17 181.839 554.115 181.845 553.647 181.784ZM548.269 210.58C537.703 212.898 530.237 217.422 524.325 226.73C522.512 229.583 518.07 237.754 518.862 241.067C518.894 241.2 518.963 241.321 519.013 241.448C521.404 240.609 527.806 229.874 529.957 227.31C535.923 221.448 543.465 215.656 552.226 215.563C558.417 215.498 565.853 221.009 568.933 219.974C569.068 218.69 568.592 218.167 567.778 217.227C563.719 212.542 556.776 210.596 550.747 210.504C549.916 210.492 549.099 210.534 548.269 210.58ZM584.023 267.511C573.244 271.452 562.492 275.61 551.59 279.192C540.008 282.996 527.174 286.179 516.281 291.697C514.74 292.478 513.669 293.46 512.633 294.82L512.88 295.556C516.257 296.268 520.689 294.686 523.996 293.866C529.616 292.246 535.13 290.281 540.509 287.982C543.65 290.713 546.13 294.596 549.606 296.773C549.883 296.947 550.157 297.128 550.437 297.299C550.623 297.414 550.815 297.519 551.005 297.629C558.008 295.953 568.668 292.601 572.796 286.272C572.973 284.519 572.932 277.495 573.819 276.542C576.471 273.693 584.919 272.357 587.273 268.217L586.919 267.567C585.882 267.397 585.066 267.395 584.023 267.511ZM499.606 273.096C498.397 276.333 496.968 285.608 498.394 288.772C498.771 289.607 499.148 290.025 499.823 290.613C501.907 287.642 502.012 278.687 501.275 274.952C501.14 274.265 500.958 273.802 500.331 273.405C500.109 273.265 499.847 273.199 499.606 273.096ZM465.287 283.681C465.565 288.883 467.818 295.619 470.884 299.878C471.732 300.354 472.181 300.453 473.151 300.444C473.161 296.263 469.813 287.666 466.838 284.638C466.322 284.113 465.971 283.905 465.287 283.681ZM657.296 289.114C648.077 290.888 639.622 293.659 634.018 301.79C632.968 303.315 631.148 305.729 631.358 307.615C631.44 308.346 631.984 308.614 632.485 309.091C636.465 309.459 639.169 303.797 642.355 305.036C643.793 306.929 643.986 310.724 643.78 313.025C643.617 314.843 642.362 316.725 641.498 318.284C641.69 319.805 641.72 320.118 642.639 321.324C644.001 321.676 644.37 321.811 645.686 321.082C647.746 319.939 648.939 316.467 649.204 314.301C649.839 309.118 647.513 303.625 644.456 299.547C646.308 298.345 648.136 297.229 650.199 296.413C653.908 294.947 662.152 293.65 664.416 290.577C663.959 289.56 663.948 289.49 662.942 289.106C661.338 288.493 658.971 288.897 657.296 289.114ZM459.488 300.622C449.843 302.752 440.105 304.435 430.305 305.665C425.364 306.314 411.649 306.761 407.943 308.224L407.689 308.922C409.849 311.281 414.68 311.305 417.775 311.439C419.999 311.535 422.205 311.417 424.424 311.274C427.382 311.001 428.571 310.814 430.915 312.743C435.517 316.53 435.877 322.117 443.115 321.507C446.283 321.24 449.824 319.744 452.757 318.516C453.46 317.277 454.285 315.946 454.737 314.592C455.306 312.885 455.219 308.72 456.44 307.589C458.77 305.432 464.752 304.795 465.552 301.523C464.877 300.501 465.304 300.724 464.224 300.511C462.686 300.208 461.035 300.477 459.488 300.622ZM585.336 310.156C576.222 313.067 568.557 320.205 560.659 325.39C554.019 329.748 547.145 333.754 540.45 338.028C522.711 349.351 474.632 381.654 455.005 372.03C452.284 370.696 449.654 368.556 447.671 366.262C446.871 367.017 446.46 367.808 446.374 368.935C446.254 370.492 447.243 371.832 448.344 372.811C452.351 376.377 458.884 378.185 464.137 378.14C493.847 375.587 537.831 344.819 564.173 329.177C568.559 326.572 579.205 319.321 582.94 317.883C585.596 316.861 588.315 316.708 590.597 318.64C593.244 320.881 594.858 328.196 598.099 328.402C598.98 327.686 599.192 327.574 599.333 326.377C599.784 322.559 596.975 316.106 594.54 313.297C592.904 311.409 591.073 310.122 588.518 310.024C587.456 309.983 586.393 310.063 585.336 310.156ZM480.273 311.146C474.412 311.981 469.312 313.756 465.602 318.758C464.391 320.391 463.494 322.425 463.783 324.498C464.11 326.846 465.884 328.607 467.798 329.834C469.76 331.093 473.862 333.284 476.222 333.055C476.96 332.132 476.898 332.557 476.835 331.521C476.624 328.055 471.763 323.221 469.64 320.505C469.045 319.129 468.649 318.721 468.996 317.229C471.599 315.314 475.685 316.102 478.758 316.566C483.109 317.222 495.784 321.621 499.421 319.969C499.653 319.095 499.822 319.236 499.364 318.551C497.048 315.084 485.738 311.653 481.745 311.191C480.971 311.102 480.937 311.123 480.273 311.146ZM418.632 340.075C416.208 340.912 414.284 341.683 412.349 343.386C412.617 344.368 412.342 344.13 413.142 344.556C417.125 346.672 425.783 345.55 430.428 345.436C432.209 345.265 434.329 344.776 435.557 343.355C435.664 343.231 435.737 343.083 435.828 342.947C434.995 341.615 433.788 341.347 432.302 341.011C427.796 339.991 423.226 339.957 418.632 340.075ZM729.897 410.534C725.106 412.049 719.565 415.047 717.157 419.653C716.263 421.363 715.981 423.056 716.509 424.922C717.232 425.434 717.107 425.6 717.858 425.442C724.19 424.114 727.321 411.873 737.366 417.716C738.395 418.314 739.133 418.972 739.442 420.159C739.819 421.611 739.692 423.072 738.937 424.383C737.895 426.189 735.304 427.188 734.825 429.258C735.131 429.915 735.122 430.289 735.841 430.6C740.48 432.606 748.467 429.697 751.39 435.665C752.574 438.084 752.018 441.19 751.02 443.575C750.016 445.972 748.099 447.762 746.853 450.001C747.897 452.632 752 454.454 754.065 456.513C754.148 458.384 753.832 461.338 754.792 462.897C756.005 462.655 756.414 462.062 757.032 461.031C757.785 459.774 758.234 458.467 758.167 456.997C756.631 453.594 753.675 451.638 750.796 449.432C754.059 447.068 757.734 443.518 758.253 439.299C758.605 436.439 757.339 433.962 755.566 431.805C752.781 428.415 749.181 427.393 746.103 424.704C743.258 422.218 748.516 411.863 733.878 410.503C732.555 410.38 731.219 410.43 729.897 410.534ZM208.224 536.61C204.317 537.857 200.947 539.18 198.985 543.084C197.607 545.826 197.354 549.162 197.282 552.187C198.972 549.118 200.609 546.024 202.603 543.137L203.18 542.746C210.112 538.125 215.83 542.191 219.635 539.563C219.288 538.292 218.71 537.948 217.633 537.286C215.277 535.836 210.953 536.481 208.224 536.61ZM195.258 557.54C195.261 557.781 195.247 558.022 195.267 558.261C195.462 560.596 196.895 562.305 198.311 564.062L198.109 564.775C196.612 565.387 195.222 565.511 193.634 565.665C190.535 568.52 188.588 571.02 186.758 574.882L191.323 571.452C192.811 570.665 194.342 569.78 195.919 569.189C198.3 568.298 201.795 568.696 203.73 567.07C203.863 564.565 201.08 562.226 199.486 560.463C198.109 558.94 197.332 557.992 195.258 557.54ZM185.095 582.541C184.873 584.29 184.541 585.236 185.682 586.766C187.11 588.68 189.858 589.945 192.164 590.362C191.603 587.4 189.981 585.633 187.513 583.951C186.743 583.426 185.917 582.979 185.095 582.541ZM216.775 778.356C211.777 781.629 210.124 785.906 208.951 791.602C206.878 801.674 206.236 813.043 207.077 823.297C202.975 819.354 197.188 812.244 191.35 811.555C190.538 811.845 190.339 811.712 189.925 812.538C187.797 816.793 190.82 834.693 192.598 839.719C192.831 840.377 193.138 840.805 193.632 841.288L194.807 841.272C196.341 838.564 193.093 819.517 192.445 815.277C195.783 818.67 202.69 827.158 207.633 827.261C208.891 827.287 209.604 826.787 210.326 825.806C212.331 823.083 211.414 811.242 211.615 807.434C211.794 804.039 212.233 800.658 212.683 797.289C213.129 793.76 213.221 787.253 215.87 784.717C216.234 784.368 216.483 784.294 216.905 784.109L217.793 784.41C221.579 794.83 220.113 829.98 225.384 835.786C227.224 836.134 229.275 834.525 230.777 833.503C233.07 831.944 235.315 830.275 237.684 828.836C238.469 832.177 238.79 835.684 240.139 838.843L240.867 839.242C242.005 838.108 242.143 836.421 242.142 834.881C242.14 832.353 241.497 828.277 239.366 826.579C238.25 825.69 237.289 825.428 235.88 825.624C233.332 825.979 229.523 830.538 227.436 832.194C226.023 823.065 225.091 783.659 219.439 779.115C218.697 778.518 217.691 778.517 216.775 778.356ZM426.496 815.89C426.637 817.935 427.22 818.481 428.73 819.822C435.521 825.848 445.797 831.931 454.04 835.709C456.286 836.738 458.708 837.259 460.998 838.16C453.657 838.711 442.466 837.244 435.887 840.368L435.47 841.508C436.219 842.922 437.175 843.309 438.695 843.752C449.191 846.814 462.508 846.972 473.358 846.633L473.236 847.321C472.03 853.953 469.641 860.31 468.353 866.933C464.441 887.04 462.309 909.055 463.111 929.56C466.59 909.442 468.019 887.31 476.014 868.307C474.194 887.042 477.606 907.216 479.728 925.857C481.697 943.161 483.301 960.323 486.363 977.493C487.114 981.942 487.619 988.037 490.113 991.833L485.868 915.607C484.349 892.292 481.904 868.452 482.954 845.092C487.558 845.92 492.026 846.941 496.536 848.181C500.443 858.143 513.04 864.527 522.336 868.531C525.42 869.859 528.658 870.94 531.892 871.844C522.452 863.85 511.614 856.644 502.801 848.037L504.257 846.153C504.076 845.101 504.066 844.881 503.123 844.237C499.771 841.948 493.782 842.12 489.843 840.614C481.885 837.573 473.875 834.513 466.043 831.163C456.544 827.101 436.239 816.45 426.496 815.89ZM491.46 850.059C491.442 852.818 491.728 855.458 492.171 858.177C493.893 868.744 516.203 989.973 519.215 993.242C520.041 994.137 520.708 994.419 521.932 994.547C523.288 994.689 524.818 993.741 525.917 993.087C526.582 991.708 527.249 990.346 527.27 988.786C527.389 980.001 524.405 969.674 522.807 961.004C518.887 939.742 514.927 918.524 509.845 897.505C507.536 887.954 505.332 878.445 502.103 869.152C500.132 863.478 497.908 855.36 494.054 850.821C493.169 850.466 492.406 850.192 491.46 850.059ZM132.269 885.857C132.782 891.165 135.152 895.609 139.361 898.993C152.007 909.16 186.537 907.873 202.748 908.366C216.367 908.78 229.93 909.478 243.563 909.461C265.196 909.435 286.832 908.36 308.441 907.406C326.712 906.599 344.652 905.74 362.946 906.237C367.019 906.348 371.854 905.929 375.797 906.713L376.265 906.206C372.435 903.08 346.363 902.485 339.8 902.522C320.337 902.633 300.857 904.289 281.403 904.961C252.437 905.949 223.444 905.809 194.488 904.54C179.816 903.916 158.919 903.403 145.252 898.174C137.283 895.124 135.592 887.791 132.269 885.857Z"/><path fill="#231F20" d="M593.805 156.047C598.681 129.636 590.882 102.881 575.772 81.1371C573.88 78.4145 571.738 75.7693 569.213 73.6054C566.301 71.1105 560.402 69.2036 558.85 65.6917C558.997 64.8722 558.852 64.686 559.584 64.1377C561.075 63.0204 562.853 63.2833 564.578 63.6156C581.242 66.8255 606.838 82.0624 616.053 96.3346C621.626 104.967 622.912 116.676 620.647 126.616C618.305 136.896 609.161 154.872 600.03 160.594C599.648 160.831 599.263 161.063 598.875 161.29C602.335 153.546 607.718 146.519 611.697 138.97C616.178 130.471 618.217 121.707 621.079 112.642C613.536 93.3751 599.15 81.2866 580.461 73.127C577.648 71.8714 574.799 70.6973 571.917 69.6064C588.27 87.249 600.189 113.339 599.406 137.754C599.174 144.99 599.354 158.891 593.872 164.448C593.321 165.006 593.241 165.009 592.656 165.343C591.905 164.866 591.854 165.071 591.736 164.255C591.467 162.393 592.481 160.049 592.944 158.205C593.357 157.546 593.55 156.779 593.805 156.047Z"/><path fill="#231F20" d="M446.618 76.4919C451.248 79.2872 455.676 82.2775 459.87 85.6999C466.269 90.9208 480.681 102.834 484.029 109.748C484.591 110.907 484.684 112.149 484.812 113.412C483.696 113.244 474.224 103.973 472.445 102.46C463.467 94.8231 454.274 86.3121 444.187 80.1854C442.055 78.8903 439.733 77.6308 437.397 76.7495C435.1 75.883 431.137 75.7987 429.364 74.1116C428.379 73.1745 428.36 72.4843 428.208 71.2299C428.736 69.7322 429.416 68.3203 431.045 67.7193C435.112 66.2194 442.644 67.6109 446.887 68.1839C473.81 71.8199 504.798 79.6247 529.195 91.5967C554.667 104.096 582.653 124.05 592.117 152.078C592.543 153.34 592.994 154.48 593.604 155.665L593.805 156.047C593.55 156.779 593.357 157.546 592.944 158.205C590.015 156.461 584.819 148.039 582.078 144.926C577.972 140.241 573.594 135.802 568.967 131.631C533.244 99.9911 492.394 86.6393 446.618 76.4919Z"/><path fill="#231F20" d="M374.012 308.129C371.447 309.531 368.042 310.909 365.802 312.716C364.878 313.16 363.397 313.547 362.974 314.476L364.38 316.009C363.632 317.813 360.316 318.828 358.519 319.572C341.426 326.653 286.678 339.605 269.819 333.045C269.411 332.618 268.634 331.549 268.157 331.305C266.124 330.265 261.744 331.46 260.949 328.862C267.599 319.183 276.869 310.579 284.627 301.694C292.916 292.304 301.157 282.872 309.349 273.397C318.25 262.945 327.105 250.61 338.141 242.339C331.402 243.848 324.935 243.545 318.094 243.312C292.782 242.451 270.273 235.598 248.875 221.973C245.735 219.974 240.302 216.685 239.327 212.859C239.081 211.896 238.971 211.498 239.505 210.667C242.036 206.727 250.617 203.061 254.694 200.788C291.783 180.225 331.279 164.341 372.278 153.501C365.656 150.094 358.283 147.903 351.418 144.974C342.189 141.036 333.216 136.368 323.897 132.67C317.406 130.095 307.083 128.059 301.725 123.874C301.687 122.624 301.727 122.183 302.67 121.203C305.226 118.55 315.995 116.421 319.791 115.157C327.177 112.697 334.247 109.764 341.785 107.717C371.104 99.7584 403.038 98.3711 433.122 101.918C445.621 103.392 482.032 111.499 490.223 121.044C490.693 121.592 490.718 121.722 490.986 122.29C489.429 123.131 487.479 122.404 485.842 121.913C475.248 118.733 465.079 114.965 454.232 112.57C411.473 103.127 370.336 106.348 328.127 116.731C320.227 118.674 312.218 120.466 304.457 122.905C315.821 126.905 327.629 129.613 338.973 133.621C350.744 137.78 416.104 164.116 421.15 171.068C420.401 171.71 420.119 171.647 419.157 171.556C416.042 171.261 412.109 168.915 409.209 167.629C400.436 163.738 391.121 158.697 381.723 156.647C368.866 163.104 354.796 165.905 341.407 171.003C324.153 177.572 307.46 185.427 290.716 193.176C276.305 199.846 261.747 206.301 247.984 214.259C248.17 214.392 248.355 214.527 248.543 214.658C259.713 222.463 300.396 235.166 314.839 237.641C318.732 238.308 322.587 238.476 326.524 238.228C330.319 237.989 339.568 236.694 341.327 240.797C339.835 247.661 305.845 286.261 298.925 293.892C292.412 301.074 285.587 308.061 278.769 314.955C274.308 319.467 268.903 323.299 264.627 327.832C272.162 327.544 280.512 327.896 287.86 326.22C309.231 324.758 338.297 317.348 358.379 309.345C366.797 305.99 374.958 301.24 383.567 298.488C383.759 298.427 383.953 298.37 384.146 298.311C381.388 302.353 377.76 305.084 374.012 308.129Z"/><path fill="#231F20" d="M392.817 332.635C390.399 314.196 387.757 295.786 384.891 277.411C384.03 271.614 381.714 263.616 381.903 258.136L382.739 257.446C384.474 257.328 385.897 258.118 387.452 258.786C389.12 265.272 391.155 271.699 392.543 278.251C397.662 302.417 400.192 327.189 403.491 351.64C404.297 357.612 405.054 363.601 406.117 369.534C406.778 373.221 407.879 376.991 408.176 380.718C428.26 403.773 472.565 415.66 502.27 417.694C535.391 419.962 573.61 409.297 598.68 387.022C612.889 374.398 620.951 359.72 627.484 342.101C628.237 340.072 630.076 330.768 630.707 329.931C630.916 329.654 631.341 329.651 631.658 329.511C632.564 329.785 633.382 330.064 634.264 330.412C638.618 332.127 644.954 330.578 649.006 328.669C657.848 324.502 665.183 315.934 668.313 306.723C671.006 298.795 670.431 289.504 666.609 282.048C663.268 275.532 657.315 268.48 650.152 266.228C646.38 265.042 642.228 264.811 638.689 266.795C624.149 274.947 624.495 294.675 618.491 300.175C617.829 297.716 618.05 295.203 618.116 292.679L618.318 292.048C621.047 281.143 625.156 267.426 635.534 261.349C640.123 258.662 644.981 258.384 650.144 258.569C649.962 251.841 650.027 244.972 649.124 238.297C647.007 222.66 640.47 206.345 634.6 191.7C632.456 191.2 630.256 190.939 628.55 189.463L628.518 188.72C636.284 186.639 680.773 196.583 691.169 198.673C683.205 186.399 668.634 181.951 654.984 179.064C643.912 176.722 632.08 175.44 620.802 176.909C615.505 177.599 610.195 179.127 604.857 179.303C609.031 176.61 613.74 174.842 618.215 172.716C622.127 170.857 625.848 168.547 629.821 166.829C643.157 161.06 668.744 153.616 682.846 153.754C664.161 148.082 643.335 143.033 625.069 152.763C614.721 158.276 612.889 163.578 605.016 169.941C608.548 159.551 615.417 153.3 625.168 148.568C643.089 139.871 663.018 141.959 681.305 148.441C684.071 149.422 689.8 151.343 691.194 154.007C691.857 155.275 691.708 155.548 691.231 156.778C686.963 160.56 665.283 162.192 658.421 163.541C647.406 165.706 636.823 168.963 626.093 172.195C643.928 171.418 675.07 177.606 688.397 189.682C690.918 191.966 694.061 195.628 694.138 199.258C694.155 200.036 694.105 200.117 693.964 200.786C692.824 201.616 691.772 201.163 690.409 200.938C673.288 198.112 656.398 194.27 639.165 191.952C649.9 208.303 659.511 231.016 655.155 250.916C654.551 253.675 653.707 256.404 652.947 259.124C664.675 264.851 672.017 272.555 676.279 285.014C679.749 295.157 678.514 305.088 673.729 314.601C668.639 324.717 660.593 333.572 649.546 337.079C646.557 338.028 643.417 338.461 640.286 338.56C639.519 338.585 635.684 338.082 635.347 338.278C635.075 338.436 634.913 338.734 634.696 338.963C633.652 343.047 633.755 347.419 632.637 351.434C627.628 369.431 614.537 381.905 601.463 394.265C612.587 396.721 629.003 403.424 636.974 411.805C633.256 419.174 627.215 424.936 621.908 431.171C616.756 437.223 611.784 443.381 606.513 449.34C623.903 453.514 640.872 457.799 657.811 463.603C667.163 466.807 676.219 470.779 685.508 474.14C667.817 472.663 651.534 466.57 634.63 461.662C624.457 458.709 614.11 456.272 603.979 453.218L601.461 457.045C613.456 462.706 625.658 467.669 638.045 472.401C646.787 475.741 655.946 478.778 664.337 482.916C665.659 483.567 666.909 484.065 667.554 485.476C667.712 490.741 660.43 501.64 658.09 506.807C655.779 511.933 653.748 517.18 652.007 522.527C648.691 532.889 647.501 544.608 647.463 555.457L647.671 554.969C650.235 548.817 651.759 542.182 653.833 535.848C656.198 528.623 659.295 521.379 662.66 514.561C669.429 500.843 679.357 488.656 686.541 475.045C686.456 478.479 685.686 483.121 686.962 486.294C685.821 490.625 682.226 500.449 681.992 504.195L683.23 504.272C684.384 506.745 684.675 509.596 685.869 512.174C695.656 533.311 706.395 554.279 716.901 575.078C720.999 583.189 725.028 591.356 729.257 599.397C734.831 609.996 740.829 620.654 744.619 632.068C747.245 639.978 749.898 649.923 746.978 658.117C741.91 672.338 724.148 680.066 714.236 690.03C723.025 685.479 731.567 680.467 739.828 675.017C745.684 671.142 751.511 666.384 757.747 663.223C749.186 621.681 731.387 582.467 713.283 544.335C704.811 526.489 695.234 509.48 689.451 490.479C708.595 511.414 737.757 574.429 747.901 602.702C752.99 616.888 761.099 644.799 760.454 659.502C760.392 660.918 760.256 662.334 760.121 663.744C752.38 669.823 744.99 676.266 736.951 681.965C718.97 694.714 698.398 705.1 678.125 713.689C671.5 716.496 664.824 719.314 658.05 721.748C653.497 723.384 648.646 724.564 644.264 726.603C638.229 709.274 633.222 693.075 633.087 674.513C633.567 673.632 633.977 672.85 634.677 672.124C633.52 672.087 633.464 672.049 632.603 672.904C631.873 673.629 631.305 674.525 630.724 675.37L630.136 674.997L629.955 673.034C625.127 674.099 620.562 676.255 615.767 677.505C619.28 677.87 622.799 678.193 626.32 678.474C627.252 683.764 629.204 688.909 630.689 694.071C634.026 705.678 637.427 717.376 641.448 728.767C636.768 729.491 632.04 729.979 627.377 730.782L627.68 731.422C628.324 732.751 628.838 734.309 630.345 734.821C634.301 736.163 640.511 733.766 644.509 732.737C644.857 732.003 645.177 731.271 645.477 730.516L645.764 730.414C646.332 731.68 647.42 733.964 646.798 735.289C645.888 737.229 643.621 737.978 641.711 738.575C636.787 740.113 631.52 740.612 626.506 739.273C616.543 721.95 607.9 705.158 607.139 684.693C606.979 680.411 607.886 668.335 604.564 665.68C603.268 666.471 602.399 667.574 601.213 668.488C598.811 670.34 595.446 671.463 592.665 672.632L592.636 673.332C592.318 680.374 590.663 687.185 590.642 694.288C590.607 706.199 598.17 732.058 605.756 740.639C606.828 741.852 607.933 742.364 609.584 742.372C611.372 742.38 612.994 741.941 614.688 741.42L616.302 740.959C618.507 740.87 620.689 740.838 622.861 740.409C622.84 751.155 624.529 761.968 623.942 772.7C623.743 772.821 623.546 772.945 623.346 773.064C618.665 775.851 599.761 780.993 598.226 783.645C598.397 789.472 599.321 795.226 599.845 801.025C600.381 806.964 600.534 812.955 600.606 818.915C600.953 847.699 599.108 876.471 599.106 905.25C599.105 926.604 599.653 948 598.151 969.32C597.85 973.585 598.01 978.638 596.898 982.707C595.067 977.629 595.644 958.458 595.567 951.894C595.444 929.577 595.136 907.261 594.642 884.948C594.483 873.428 595.209 861.463 593.95 850.016C574.537 843.191 559.471 838.055 550.016 818.493C545.836 809.845 541.149 797.951 543.015 788.294C538.094 787.774 529.876 787.981 526.63 783.647C524.798 781.202 525.332 778.19 525.441 775.314C519.302 775.8 513.085 776.501 506.923 776.426C505.593 776.41 500.83 775.826 499.859 776.294C499.634 776.403 499.498 776.639 499.315 776.808C495.517 780.316 491.438 779.164 486.606 779.052L486.16 778.891C480.303 778.35 474.441 777.872 468.626 776.978C468.765 783.019 472.211 823.907 470.317 826.733C469.995 826.473 469.84 826.385 469.607 825.982C463.783 815.958 465.596 788.023 467.216 776.584C462.907 775.741 461.01 775.518 458.129 772.022C456.796 770.404 445.438 767.728 442.576 766.723C441.589 772.093 442.973 782.189 439.269 786.252C438.156 786.59 437.711 786.752 436.547 786.418C433.818 785.636 431.099 783.675 428.497 782.465C424.527 780.62 420.277 779.198 416.174 777.667C415.879 782.761 415.106 787.77 414.132 792.772C412.15 802.938 408.614 815.244 399.34 821.212C394.333 824.434 390.074 824.159 384.553 822.999C387.268 837.964 391.107 852.785 394.787 867.537C401.118 893.297 408.018 918.913 415.484 944.367C419.361 957.794 424.298 971.205 427.538 984.767C425.898 987.303 424.066 990.643 420.852 991.351C419.448 991.661 417.698 991.139 416.682 990.108C411.489 984.837 384.611 872.236 381.604 857.067C377.86 838.181 374.809 818.82 372.82 799.663C371.163 782.956 371.442 766.114 373.652 749.471C369.327 744.809 369.115 739.785 365.742 735.254C365.131 735.581 364.566 735.812 363.919 736.053C359.458 733.853 354.651 733.077 350.437 730.331C350.233 730.197 350.031 730.06 349.828 729.924C351.691 726.103 353.881 723.4 356.896 720.484L356.528 719.922C347.998 720.629 326.335 708.893 317.991 704.205C290.996 689.039 257.502 665.511 241.843 638.172C239.642 634.329 237.612 630.963 236.402 626.675C236.439 626.546 236.478 626.419 236.512 626.289C238.897 617.071 245.248 607.655 249.852 599.333C270.385 561.955 293.494 526.053 319.014 491.886C327.574 480.418 336.005 468.558 346.205 458.457C349.628 455.068 353.745 451.795 358.174 449.834C374.421 442.637 404.54 446.416 422.633 446.477C415.446 437.162 401.46 425.212 396.853 415.152C396.201 413.728 395.971 412.807 396.513 411.333C402.814 406.62 417.211 405.892 425.204 404.17C417.86 400.487 405.006 391.605 401.554 384.036C400.02 380.672 399.701 376.83 398.22 373.373C398.142 373.191 398.059 373.01 397.979 372.828C396.636 372.291 396.738 371.989 396.122 370.655C394.255 369.411 392.573 369.207 390.489 368.498L391.243 368.31C393.51 368.448 395.446 368.977 397.594 369.657C397.139 366.161 395.576 346.774 393.843 345.296C389.509 347.883 388.61 357.404 387.348 361.996C386.358 361.369 386.426 361.379 385.281 361.625C384.063 359.796 383.336 357.685 383.171 355.494C382.89 351.812 383.829 347.446 386.417 344.685C388.381 342.59 389.907 342.359 392.686 342.354L393.477 342.358C394.402 340.649 393.356 335.168 392.802 333.254L392.817 332.635ZM392.633 453.878C383.076 454.514 372.864 455.015 363.575 457.407C364.75 460.933 365.561 464.309 366.023 468C366.948 475.385 367.823 509.064 369.225 511.596C371.509 495.406 370.906 479.289 371.71 462.994C380.313 458.902 389.527 456.322 398.936 454.855C401.72 454.805 404.675 454.228 407.449 453.879C403.104 453.572 396.771 452.541 392.633 453.878ZM567.425 455.425C563.989 452.473 561.915 448.51 558.279 445.686C558.124 445.566 557.974 445.439 557.822 445.315C557.704 447.777 557.965 452.728 556.077 454.495C552.156 449.048 553.663 441.05 554.683 434.896C555.768 428.348 557.813 422.558 560.569 416.539C551.865 420.677 543.985 426.069 535.82 431.143C524.098 438.429 511.227 445.422 498.11 449.792C495.599 450.629 491.811 452.148 489.166 451.541C488.641 451.421 488.417 451.234 488.002 450.964C487.47 448.313 487.973 445.484 488.217 442.809C485.709 443.969 483.235 445.095 480.901 446.588C479.66 461.351 478.98 479.026 489.153 491.067C493.293 495.968 498.82 498.893 505.234 499.322C520.211 500.325 537.269 491.771 548.055 481.92C555.171 475.421 561.751 466.254 566.653 457.987C566.238 461.378 564.592 464.979 563.05 468.02C553.225 484.739 537.958 498.146 518.884 503.191C510.358 505.447 501.162 505.646 493.325 501.093C485.515 496.554 480.297 489.416 478.109 480.686C475.932 471.999 476.273 462.631 476.638 453.737C471.931 465.738 470.548 478.619 468.441 491.239C465.007 511.807 461.866 532.871 460.045 553.654C458.018 576.798 457.407 600.122 455.521 623.288C453.667 646.072 449.963 668.63 448.001 691.385C447.095 701.88 446.79 712.411 446.276 722.93C445.975 729.1 445.948 735.796 444.622 741.837C456.727 744.334 468.38 744.779 480.684 745.114C486.764 745.28 493.399 744.908 499.358 746.156C501.567 746.619 502.688 747.35 504.287 748.924C510.507 749.164 516.788 749.575 523.009 749.482C522.43 723.586 522.401 697.409 524.881 671.61C526.72 652.48 530.18 633.598 532.699 614.564C510.12 597.302 499.222 581.236 485.821 556.686C489.596 571.068 498.228 588.024 505.205 601.153C509.616 609.454 514.052 617.228 517.442 626.045C509.741 617.806 504.138 607.782 499.069 597.763C487.156 574.218 478.278 548.882 476.163 522.376L476.524 523.129C480.383 531.282 482.675 540.136 486.245 548.42C496.482 572.171 512.729 594.678 533.049 610.719C537.943 563.437 544.355 512.496 563.812 468.845C565.99 463.454 567.625 456.916 570.832 452.095L564.55 446.455C565.561 448.827 567.936 452.976 567.425 455.425ZM248.203 639.484C246.935 637.636 245.932 636.065 246.259 633.731C246.583 631.421 248.199 629.727 250.082 628.509C262.613 620.403 297.658 623.361 311.832 626.755C318.866 628.44 327.105 630.756 333.164 634.862C340.797 640.034 348.66 651.635 354.926 658.766C359.679 664.175 364.779 669.158 369.94 674.17C371.674 675.853 374.585 679.793 376.609 680.543C374.972 676.514 370.079 671.998 367.267 668.581C356.688 655.729 344.52 642.88 337.348 627.79C332.097 625.336 327.173 622.282 321.905 619.865C313.072 615.813 303.569 613.084 294.139 610.79C289.196 609.587 270.194 607.662 267.596 604.815C267.501 604.08 267.241 603.753 267.782 603.145C269.011 601.764 271.92 600.842 273.726 600.796C276.747 600.719 279.932 601.179 282.95 601.411C297.462 602.529 303.177 605.012 316.487 609.994C311.82 606.297 290.172 592.682 289.287 588.395C289.25 588.215 289.252 588.028 289.235 587.844C290.25 586.8 290.908 586.723 292.367 586.737C302.874 586.837 317.651 599.86 324.732 607.125C328.932 611.433 332.768 616.504 337.656 620.026C342.667 623.638 345.905 628.942 349.529 633.861C357.621 644.843 373.311 668.397 384.017 675.181C384.084 672.394 384.18 669.726 384.647 666.971C380.637 663.097 376.681 658.975 374.211 653.909C368.166 641.505 366.539 606.624 365.579 591.418C360.802 596.113 344.088 618.513 338.353 618.223C336.329 618.12 335.263 616.87 334.053 615.381C330.629 611.164 327.837 606.428 324.364 602.243C315.275 591.291 305.142 581.313 295.88 570.54C303.02 555.091 312.479 540.399 320.898 525.596C321.838 523.943 323.126 522.468 324.006 520.788C325.448 518.036 323.112 514.146 325.756 511.955C327.809 513.969 328.374 518.645 329.182 521.39C331.227 528.372 334.153 535.065 337.887 541.308C337.01 531.267 335.805 495.728 341.693 489.39C342.249 488.792 342.675 488.872 343.433 488.731C346.369 490.199 347.486 494.161 348.46 497.078C349.546 500.333 355.404 524.519 355.623 524.792C355.979 520.75 355.438 516.728 355.428 512.678C355.396 500.176 355.54 469.402 359.999 459.039C352.596 463.513 347.413 470.337 341.808 476.8C318.975 503.13 299.421 531.997 280.816 561.435C276.436 568.366 271.757 575.069 267.563 582.124C261.267 592.714 255.431 603.579 249.164 614.193C246.392 618.888 243.739 624.017 240.295 628.244C241.855 632.624 244.695 636.297 247.387 640.041C253.492 647.266 269.811 663.258 277.281 668.173C271.873 663.092 266.715 657.76 261.375 652.609C256.938 648.328 252.109 644.267 248.203 639.484ZM445.938 649.813C445.465 654.409 445.245 659.046 445.731 663.649L446.007 663.851C446.432 661.519 446.664 659.27 446.81 656.91C448.588 645.059 449.701 632.969 450.859 621.039C451.617 613.221 453.062 604.706 452.221 596.901C449.169 614.139 446.064 632.294 445.938 649.813ZM598.294 396.475C595.735 397.918 593.099 399.302 590.612 400.862C599.637 405.411 608.971 409.548 617.677 414.678C613.558 421.231 606.905 426.414 601.913 432.41C594.453 441.372 557.985 489.024 557.74 496.098C558.99 496.291 559.556 495.653 560.617 495.036C579.826 478.307 593.181 455.578 608.768 435.602C615.244 427.304 622.958 419.966 629.965 412.116C622.33 408.2 605.945 397.201 598.294 396.475ZM433.079 408.74C430.26 409.571 427.41 409.621 424.527 410.074C417.049 411.249 409.501 412.394 402.072 413.821C426.412 438.809 440.294 457.566 454.239 489.378C455.276 491.983 456.279 494.6 457.248 497.231C455.344 478.384 445.25 460.596 436.252 444.294C434.01 440.233 431.988 436.025 429.567 432.07C426.63 427.273 420.169 420.39 419.187 414.997C420.504 413.864 435.939 412.264 438.963 411.749C437.33 410.556 435.218 408.589 433.079 408.74ZM681.839 524.228C680.193 526.263 679.683 528.28 678.608 530.566C675.713 536.723 671.974 541.873 666.847 546.299C665.04 547.859 661.878 549.632 662.113 552.177L663.879 554.104C672.54 548.285 680.764 538.337 683.033 527.934C683.333 526.559 683.166 525.959 682.596 524.698L681.839 524.228ZM378.625 547.601C378.529 551.171 378.481 554.741 378.482 558.312C385.139 560.207 425.285 571.066 428.769 570.243C428.82 570.065 428.869 569.885 428.923 569.707C429.119 569.055 428.986 569.284 429.304 568.888C430.438 565.865 431.326 562.95 431.871 559.761C414.114 555.546 396.256 552.506 378.625 547.601ZM615.256 566.129C614.101 568.861 612.985 571.612 611.664 574.269C603.789 572.106 563.231 569.51 556.98 572.509C555.019 575.244 554.393 578.875 553.49 582.089L560.643 581.979C573.525 581.861 586.649 582.957 599.507 583.914C604.126 584.258 608.799 584.942 613.432 584.937C614.889 584.936 617.417 585.031 618.5 584.01C621.642 581.048 621.612 573.882 621.682 569.817C619.595 568.612 617.427 567.152 615.256 566.129ZM642.107 583.902C632.71 609.682 619.564 634.005 610.296 659.752C609.809 661.103 608.964 662.754 609.515 664.164C610.029 665.483 610.94 666.668 611.411 668.019C612.374 670.778 611.511 675.119 611.523 678.08C618.014 674.024 625.324 670.284 632.772 668.383C647.456 651.839 666.573 638.639 685.756 627.864C683.432 625.792 681.141 623.683 678.885 621.537C668.173 611.701 656.936 602.47 647.126 591.707C642.507 610.368 630.091 650.657 620.281 665.886C621.36 653.301 626.777 641.195 630.821 629.32C633.828 620.489 636.465 611.509 639.165 602.58C640.624 597.759 643.015 591.97 643.357 586.971C643.457 585.521 642.978 584.991 642.107 583.902ZM707.177 625.55C686.534 633.775 661.574 651.662 645.17 666.895C642.386 669.481 637.976 673.215 636.376 676.72C635.587 678.446 636.004 681.519 636.038 683.381C640.208 680.055 644.185 676.377 648.615 673.407C668.648 660.205 703.046 633.956 727.848 637.056C722.408 632.3 714.843 625.37 707.177 625.55ZM391.235 650.341C389.17 657.339 386.602 664.275 384.881 671.358C386.592 668.861 390.716 659.819 392.036 658.791C394.009 664.281 386.627 684.117 384.11 689.473C379.604 699.058 370.455 714.303 363.367 722.151C362.036 723.436 360.722 724.665 359.261 725.803C361.418 727.465 363.592 729.105 365.663 730.874C369.698 725.666 374.478 721.019 378.346 715.717C388.274 702.111 398.843 679.05 396.399 661.786C395.825 657.732 394.341 653.174 391.235 650.341ZM398.842 662.279C398.853 662.424 398.861 662.569 398.876 662.714C399.237 666.277 401.378 669.501 401.521 673.02C402.207 689.916 389.193 711.185 379.065 724.113C376.446 727.456 373.458 730.62 370.358 733.521C371.258 734.792 372.039 736.577 373.58 736.856L375.025 735.193C380.375 727.526 386.525 720.382 391.751 712.673C399.99 700.52 406.289 684.555 408.994 670.035C405.846 667.627 402.26 664.101 398.842 662.279ZM461.429 748.701C461.454 756.269 461.722 763.903 461.512 771.463C468.903 771.626 490.737 775.982 495.953 773.943L496.485 772.898C498.389 765.743 498.759 757.987 499.249 750.614C486.672 750.38 473.959 749.831 461.429 748.701ZM378.176 755.186C378.714 773.426 379.436 792.768 382.722 810.706C398.03 801.918 399.567 781.428 404.801 778.195C405.827 779.14 406.176 779.563 406.25 780.998C406.621 788.193 399.584 802.16 394.667 807.62C390.933 811.313 388.008 812.657 382.826 813.756C383.135 816.329 383.431 818.835 384.109 821.345C390.046 821.666 394.624 821.584 399.371 817.425C410.42 807.745 409.666 789.858 414.119 776.959C403.048 769.156 390.428 763.749 379.304 755.776C378.701 755.344 378.942 755.498 378.176 755.186ZM594.122 782.62C581.065 785.572 568.483 787.245 555.204 788.656C561.982 796.506 561.983 809.122 570.077 817.659C577.427 823.116 585.987 825.635 593.825 830.122C594.109 822.238 593.952 814.382 594.186 806.508C594.417 798.762 595.103 790.996 594.899 783.243L594.122 782.62ZM543.386 788.423C543.494 788.609 543.603 788.793 543.709 788.98C545.558 792.259 545.876 795.667 546.939 799.201C553.222 820.092 554.077 828.962 575.487 838.92C580.166 841.096 587.837 845.294 592.617 846.304C593.232 846.435 593.435 846.391 593.993 846.352C593.812 841.776 593.499 837.201 594.121 832.646C583.282 831.301 570.399 827.954 563.306 818.915C557.686 811.752 553.209 797.583 553.532 788.506L543.386 788.423Z"/><path fill="#B3B2B2" d="M498.277 201.456C499.634 195.065 504.352 189.182 506.544 182.872C501.144 189.323 497.226 196.653 492.082 203.245C481.471 216.842 468.592 227.272 454.059 236.396C450.403 238.691 446.592 241.334 442.544 242.842C435.905 239.115 430.489 233.509 427.346 226.605C432.043 223.022 438.083 220.349 443.207 217.299C453.837 210.973 464.559 204.317 474.693 197.224C484.688 190.228 494.072 181.853 503.529 174.12C507.898 170.547 512.266 166.348 517.251 163.682C512.666 177.547 508.129 190.275 498.277 201.456Z"/><path fill="#231F20" d="M447.172 267.238C447.801 267.327 448.358 267.397 448.994 267.332C453.196 266.901 457.975 264.592 461.911 263.12C491.252 252.148 517.323 227.66 534.219 201.627C537.863 196.014 541.109 190.092 544.232 184.177C546.461 179.957 548.485 174.884 551.524 171.243C552.807 171.104 552.481 171.093 553.38 171.755C553.703 173.975 552.811 175.979 552.004 178C538.721 211.262 506.412 249.218 473.127 263.296C467.398 265.719 451.441 270.884 445.462 268.421L445.267 267.724L446.339 266.454L447.172 267.238Z"/><path fill="#231F20" d="M592.707 215.9C578.421 206.589 564.577 194.817 553.647 181.784C554.115 181.845 554.17 181.839 554.698 181.983C556.579 182.495 558.174 183.523 559.742 184.65C564.471 188.05 592.73 211.057 594.669 214.59C594.777 214.787 594.871 214.993 594.976 215.193C597.041 219.149 598.342 223.585 599.797 227.805C606.235 246.475 609.594 264.622 611.272 284.266C611.67 288.92 612.324 293.727 612.022 298.397C611.681 298.343 611.242 298.29 610.927 298.161C607.861 296.904 608.04 289.136 607.824 286.292C606.008 262.25 600.922 238.568 592.707 215.9Z"/><path fill="#231F20" d="M506.544 182.872C504.352 189.182 499.634 195.065 498.277 201.456C490.822 223.1 473.14 254.615 452.388 265.132C451.415 265.625 450.431 265.986 449.414 266.367C448.664 266.649 447.92 266.952 447.172 267.238L446.339 266.454C459.379 258.919 470.661 246.171 478.752 233.629C484.311 226.395 489.625 216.877 492.314 208.133C488.263 213.404 484.307 218.773 479.64 223.525C469.893 233.449 452.938 245.559 439.449 248.939C436.241 245.17 433.145 240.923 430.588 236.684C432.775 242.947 435.644 247.861 439.703 253.086C442 256.134 445.476 259.461 447.176 262.798C446.148 263.336 445.409 263.406 444.259 263.472C440.789 262.13 438.366 257.738 436.235 254.858L433.038 250.628C419.296 255.465 404.468 256.94 389.954 255.979C386.131 255.726 382.259 254.737 378.453 254.698L377.735 254.697C372.782 253.897 365.831 252.169 361.214 250.194L361.342 249.054C365.272 243.324 374.816 236.964 381.154 233.968C375.744 239.22 370.15 244.279 364.382 249.135C368.661 249.897 372.933 250.727 377.263 251.134C394.528 254.353 415.123 251.639 431.872 247.115C428.347 242.301 425.282 234.808 423.599 229.069C424.735 228.087 426.063 227.381 427.346 226.605C430.489 233.509 435.905 239.115 442.544 242.842C446.592 241.334 450.403 238.691 454.059 236.396C468.592 227.272 481.471 216.842 492.082 203.245C497.226 196.653 501.144 189.323 506.544 182.872Z"/><path fill="#B3B2B2" d="M478.752 233.629C475.624 234.03 467.662 241.919 464.292 243.831C457.101 247.912 447.641 250.744 439.703 253.086C435.644 247.861 432.775 242.947 430.588 236.684C433.145 240.923 436.241 245.17 439.449 248.939C452.938 245.559 469.893 233.449 479.64 223.525C484.307 218.773 488.263 213.404 492.314 208.133C489.625 216.877 484.311 226.395 478.752 233.629Z"/><path fill="#231F20" d="M529.957 227.31C527.806 229.874 521.404 240.609 519.013 241.448C518.963 241.321 518.894 241.2 518.862 241.067C518.07 237.754 522.512 229.583 524.325 226.73C530.237 217.422 537.703 212.898 548.269 210.58C549.099 210.534 549.916 210.492 550.747 210.504C556.776 210.596 563.719 212.542 567.778 217.227C568.592 218.167 569.068 218.69 568.933 219.974C565.853 221.009 558.417 215.498 552.226 215.563C543.465 215.656 535.923 221.448 529.957 227.31Z"/><path fill="#B3B2B2" d="M377.263 251.134C383.462 248.429 389.266 244.737 395.428 241.879C404.747 237.557 414.628 234.075 423.599 229.069C425.282 234.808 428.347 242.301 431.872 247.115C415.123 251.639 394.528 254.353 377.263 251.134Z"/><path fill="#231F20" d="M622.243 236.951C624.396 246.243 623.895 257 622.447 266.355C621.486 272.559 616.91 286.677 618.318 292.048L618.116 292.679C617.496 293.035 616.888 293.157 616.646 293.88C616.139 295.396 616.461 297.643 616.673 299.231C616.564 300.377 616.694 301.707 615.984 302.622C614.994 300.518 614.416 297.392 614.575 295.046C615.222 285.489 617.798 275.595 619.187 266.069C620.593 256.425 621.041 246.628 622.243 236.951Z"/><path fill="#B3B2B2" d="M377.735 254.697L378.453 254.698C382.259 254.737 386.131 255.726 389.954 255.979C404.468 256.94 419.296 255.465 433.038 250.628L436.235 254.858C425.902 258.386 409.211 260.449 398.264 260.135C394.729 260.034 390.883 258.644 387.452 258.786C385.897 258.118 384.474 257.328 382.739 257.446L381.903 258.136C381.714 263.616 384.03 271.614 384.891 277.411C387.757 295.786 390.399 314.196 392.817 332.635C385.593 332.369 375.033 337.737 367.906 340.075C362.054 341.995 356.185 343.719 350.144 344.943C354.267 337.677 359.38 330.655 364.604 324.136C367.265 320.816 376.559 313.222 377.327 309.856L376.756 309.27L374.771 309.283L374.012 308.129C377.76 305.084 381.388 302.353 384.146 298.311C383.953 298.37 383.759 298.427 383.567 298.488C374.958 301.24 366.797 305.99 358.379 309.345C338.297 317.348 309.231 324.758 287.86 326.22C295.31 318.94 309.881 311.098 318.986 304.882C329.074 297.994 371.621 263.358 377.735 254.697Z"/><path fill="#231F20" d="M523.996 293.866C520.689 294.686 516.257 296.268 512.88 295.556L512.633 294.82C513.669 293.46 514.74 292.478 516.281 291.697C527.174 286.179 540.008 282.996 551.59 279.192C562.492 275.61 573.244 271.452 584.023 267.511C585.066 267.395 585.882 267.397 586.919 267.567L587.273 268.217C584.919 272.357 576.471 273.693 573.819 276.542C572.932 277.495 572.973 284.519 572.796 286.272C568.668 292.601 558.008 295.953 551.005 297.629C550.815 297.519 550.623 297.414 550.437 297.299C550.157 297.128 549.883 296.947 549.606 296.773C546.13 294.596 543.65 290.713 540.509 287.982C535.13 290.281 529.616 292.246 523.996 293.866Z"/><path fill="#231F20" d="M499.823 290.613C499.148 290.025 498.771 289.607 498.394 288.772C496.968 285.608 498.397 276.333 499.606 273.096C499.847 273.199 500.109 273.265 500.331 273.405C500.958 273.802 501.14 274.265 501.275 274.952C502.012 278.687 501.907 287.642 499.823 290.613Z"/><path fill="#231F20" d="M473.151 300.444C472.181 300.453 471.732 300.354 470.884 299.878C467.818 295.619 465.565 288.883 465.287 283.681C465.971 283.905 466.322 284.113 466.838 284.638C469.813 287.666 473.161 296.263 473.151 300.444Z"/><path fill="#231F20" d="M641.498 318.284C642.362 316.725 643.617 314.843 643.78 313.025C643.986 310.724 643.793 306.929 642.355 305.036C639.169 303.797 636.465 309.459 632.485 309.091C631.984 308.614 631.44 308.346 631.358 307.615C631.148 305.729 632.968 303.315 634.018 301.79C639.622 293.659 648.077 290.888 657.296 289.114C658.971 288.897 661.338 288.493 662.942 289.106C663.948 289.49 663.959 289.56 664.416 290.577C662.152 293.65 653.908 294.947 650.199 296.413C648.136 297.229 646.308 298.345 644.456 299.547C647.513 303.625 649.839 309.118 649.204 314.301C648.939 316.467 647.746 319.939 645.686 321.082C644.37 321.811 644.001 321.676 642.639 321.324C641.72 320.118 641.69 319.805 641.498 318.284Z"/><path fill="#E7E7E8" d="M616.673 299.231C616.461 297.643 616.139 295.396 616.646 293.88C616.888 293.157 617.496 293.035 618.116 292.679C618.05 295.203 617.829 297.716 618.491 300.175L616.673 299.231Z"/><path fill="#231F20" d="M424.424 311.274C422.205 311.417 419.999 311.535 417.775 311.439C414.68 311.305 409.849 311.281 407.689 308.922L407.943 308.224C411.649 306.761 425.364 306.314 430.305 305.665C440.105 304.435 449.843 302.752 459.488 300.622C461.035 300.477 462.686 300.208 464.224 300.511C465.304 300.724 464.877 300.501 465.552 301.523C464.752 304.795 458.77 305.432 456.44 307.589C455.219 308.72 455.306 312.885 454.737 314.592C454.285 315.946 453.46 317.277 452.757 318.516C449.824 319.744 446.283 321.24 443.115 321.507C435.877 322.117 435.517 316.53 430.915 312.743C428.571 310.814 427.382 311.001 424.424 311.274Z"/><path fill="#231F20" d="M374.771 309.283L376.756 309.27L377.327 309.856C376.559 313.222 367.265 320.816 364.604 324.136C359.38 330.655 354.267 337.677 350.144 344.943C356.185 343.719 362.054 341.995 367.906 340.075C375.033 337.737 385.593 332.369 392.817 332.635L392.802 333.254C387.309 336.734 382.28 341.375 380.78 347.976C379.865 352.007 379.795 357.555 382.36 361.107C382.725 361.613 383.161 361.997 383.624 362.41L384.666 362.48L385.281 361.625C386.426 361.379 386.358 361.369 387.348 361.996C387.713 365.121 389.019 366.24 391.243 368.31L390.489 368.498C392.573 369.207 394.255 369.411 396.122 370.655C396.738 371.989 396.636 372.291 397.979 372.828C396.804 373.12 395.679 373.381 394.463 373.398C389.275 373.469 383.758 370.886 380.071 367.33C376.26 363.655 373.896 358.576 374.017 353.24C374.156 347.15 376.653 342.85 380.907 338.788C372.578 343.514 361.823 348.788 352.314 350.304C349.716 350.718 347.343 350.73 345.155 349.16C344.594 348.331 344.281 347.808 344.181 346.783C343.306 337.808 361.789 321.237 367.616 314.811C369.857 312.703 372.238 311.013 374.771 309.283Z"/><path fill="#231F20" d="M464.137 378.14C458.884 378.185 452.351 376.377 448.344 372.811C447.243 371.832 446.254 370.492 446.374 368.935C446.46 367.808 446.871 367.017 447.671 366.262C449.654 368.556 452.284 370.696 455.005 372.03C474.632 381.654 522.711 349.351 540.45 338.028C547.145 333.754 554.019 329.748 560.659 325.39C568.557 320.205 576.222 313.067 585.336 310.156C586.393 310.063 587.456 309.983 588.518 310.024C591.073 310.122 592.904 311.409 594.54 313.297C596.975 316.106 599.784 322.559 599.333 326.377C599.192 327.574 598.98 327.686 598.099 328.402C594.858 328.196 593.244 320.881 590.597 318.64C588.315 316.708 585.596 316.861 582.94 317.883C579.205 319.321 568.559 326.572 564.173 329.177C537.831 344.819 493.847 375.587 464.137 378.14Z"/><path fill="#231F20" d="M469.64 320.505C471.763 323.221 476.624 328.055 476.835 331.521C476.898 332.557 476.96 332.132 476.222 333.055C473.862 333.284 469.76 331.093 467.798 329.834C465.884 328.607 464.11 326.846 463.783 324.498C463.494 322.425 464.391 320.391 465.602 318.758C469.312 313.756 474.412 311.981 480.273 311.146C480.937 311.123 480.971 311.102 481.745 311.191C485.738 311.653 497.048 315.084 499.364 318.551C499.822 319.236 499.653 319.095 499.421 319.969C495.784 321.621 483.109 317.222 478.758 316.566C475.685 316.102 471.599 315.314 468.996 317.229C468.649 318.721 469.045 319.129 469.64 320.505Z"/><path fill="#FEFEFE" d="M385.281 361.625L384.666 362.48L383.624 362.41C383.161 361.997 382.725 361.613 382.36 361.107C379.795 357.555 379.865 352.007 380.78 347.976C382.28 341.375 387.309 336.734 392.802 333.254C393.356 335.168 394.402 340.649 393.477 342.358L392.686 342.354C389.907 342.359 388.381 342.59 386.417 344.685C383.829 347.446 382.89 351.812 383.171 355.494C383.336 357.685 384.063 359.796 385.281 361.625Z"/><path fill="#231F20" d="M430.428 345.436C425.783 345.55 417.125 346.672 413.142 344.556C412.342 344.13 412.617 344.368 412.349 343.386C414.284 341.683 416.208 340.912 418.632 340.075C423.226 339.957 427.796 339.991 432.302 341.011C433.788 341.347 434.995 341.615 435.828 342.947C435.737 343.083 435.664 343.231 435.557 343.355C434.329 344.776 432.209 345.265 430.428 345.436Z"/><path fill="#FEFEFE" d="M387.348 361.996C388.61 357.404 389.509 347.883 393.843 345.296C395.576 346.774 397.139 366.161 397.594 369.657C395.446 368.977 393.51 368.448 391.243 368.31C389.019 366.24 387.713 365.121 387.348 361.996Z"/><path fill="#FEFEFE" d="M590.612 400.862C593.099 399.302 595.735 397.918 598.294 396.475C605.945 397.201 622.33 408.2 629.965 412.116C622.958 419.966 615.244 427.304 608.768 435.602C593.181 455.578 579.826 478.307 560.617 495.036C559.556 495.653 558.99 496.291 557.74 496.098C557.985 489.024 594.453 441.372 601.913 432.41C606.905 426.414 613.558 421.231 617.677 414.678C608.971 409.548 599.637 405.411 590.612 400.862Z"/><path fill="#FEFEFE" d="M402.072 413.821C409.501 412.394 417.049 411.249 424.527 410.074C427.41 409.621 430.26 409.571 433.079 408.74C435.218 408.589 437.33 410.556 438.963 411.749C435.939 412.264 420.504 413.864 419.187 414.997C420.169 420.39 426.63 427.273 429.567 432.07C431.988 436.025 434.01 440.233 436.252 444.294C445.25 460.596 455.344 478.384 457.248 497.231C456.279 494.6 455.276 491.983 454.239 489.378C440.294 457.566 426.412 438.809 402.072 413.821Z"/><path fill="#231F20" d="M746.853 450.001C748.099 447.762 750.016 445.972 751.02 443.575C752.018 441.19 752.574 438.084 751.39 435.665C748.467 429.697 740.48 432.606 735.841 430.6C735.122 430.289 735.131 429.915 734.825 429.258C735.304 427.188 737.895 426.189 738.937 424.383C739.692 423.072 739.819 421.611 739.442 420.159C739.133 418.972 738.395 418.314 737.366 417.716C727.321 411.873 724.19 424.114 717.858 425.442C717.107 425.6 717.232 425.434 716.509 424.922C715.981 423.056 716.263 421.363 717.157 419.653C719.565 415.047 725.106 412.049 729.897 410.534C731.219 410.43 732.555 410.38 733.878 410.503C748.516 411.863 743.258 422.218 746.103 424.704C749.181 427.393 752.781 428.415 755.566 431.805C757.339 433.962 758.605 436.439 758.253 439.299C757.734 443.518 754.059 447.068 750.796 449.432C753.675 451.638 756.631 453.594 758.167 456.997C758.234 458.467 757.785 459.774 757.032 461.031C756.414 462.062 756.005 462.655 754.792 462.897C753.832 461.338 754.148 458.384 754.065 456.513C752 454.454 747.897 452.632 746.853 450.001Z"/><path fill="#FEFEFE" d="M557.822 445.315C557.974 445.439 558.124 445.566 558.279 445.686C561.915 448.51 563.989 452.473 567.425 455.425C567.048 456.356 566.725 456.985 566.653 457.987C561.751 466.254 555.171 475.421 548.055 481.92C537.269 491.771 520.211 500.325 505.234 499.322C498.82 498.893 493.293 495.968 489.153 491.067C478.98 479.026 479.66 461.351 480.901 446.588C483.235 445.095 485.709 443.969 488.217 442.809C487.973 445.484 487.47 448.313 488.002 450.964C488.417 451.234 488.641 451.421 489.166 451.541C491.811 452.148 495.599 450.629 498.11 449.792C511.227 445.422 524.098 438.429 535.82 431.143C543.985 426.069 551.865 420.677 560.569 416.539C557.813 422.558 555.768 428.348 554.683 434.896C553.663 441.05 552.156 449.048 556.077 454.495C557.965 452.728 557.704 447.777 557.822 445.315Z"/><path fill="#E7E7E8" d="M567.425 455.425C567.936 452.976 565.561 448.827 564.55 446.455L570.832 452.095C567.625 456.916 565.99 463.454 563.812 468.845L563.05 468.02C564.592 464.979 566.238 461.378 566.653 457.987C566.725 456.985 567.048 456.356 567.425 455.425Z"/><path fill="#B3B2B2" d="M392.633 453.878C396.771 452.541 403.104 453.572 407.449 453.879C404.675 454.228 401.72 454.805 398.936 454.855L398.789 454.348C397.367 453.495 395.144 454.022 393.501 453.93L392.633 453.878Z"/><path fill="#FEFEFE" d="M363.575 457.407C372.864 455.015 383.076 454.514 392.633 453.878L393.501 453.93C395.144 454.022 397.367 453.495 398.789 454.348L398.936 454.855C389.527 456.322 380.313 458.902 371.71 462.994C370.906 479.289 371.509 495.406 369.225 511.596C367.823 509.064 366.948 475.385 366.023 468C365.561 464.309 364.75 460.933 363.575 457.407Z"/><path fill="#FEFEFE" d="M563.05 468.02L563.812 468.845C544.355 512.496 537.943 563.437 533.049 610.719C512.729 594.678 496.482 572.171 486.245 548.42C482.675 540.136 480.383 531.282 476.524 523.129L476.163 522.376C478.278 548.882 487.156 574.218 499.069 597.763C504.138 607.782 509.741 617.806 517.442 626.045C514.052 617.228 509.616 609.454 505.205 601.153C498.228 588.024 489.596 571.068 485.821 556.686C499.222 581.236 510.12 597.302 532.699 614.564C530.18 633.598 526.72 652.48 524.881 671.61C522.401 697.409 522.43 723.586 523.009 749.482C516.788 749.575 510.507 749.164 504.287 748.924C502.688 747.35 501.567 746.619 499.358 746.156C493.399 744.908 486.764 745.28 480.684 745.114C468.38 744.779 456.727 744.334 444.622 741.837C445.948 735.796 445.975 729.1 446.276 722.93C446.79 712.411 447.095 701.88 448.001 691.385C449.963 668.63 453.667 646.072 455.521 623.288C457.407 600.122 458.018 576.798 460.045 553.654C461.866 532.871 465.007 511.807 468.441 491.239C470.548 478.619 471.931 465.738 476.638 453.737C476.273 462.631 475.932 471.999 478.109 480.686C480.297 489.416 485.515 496.554 493.325 501.093C501.162 505.646 510.358 505.447 518.884 503.191C537.958 498.146 553.225 484.739 563.05 468.02Z"/><path fill="#FEFEFE" d="M337.348 627.79C344.52 642.88 356.688 655.729 367.267 668.581C370.079 671.998 374.972 676.514 376.609 680.543C374.585 679.793 371.674 675.853 369.94 674.17C364.779 669.158 359.679 664.175 354.926 658.766C348.66 651.635 340.797 640.034 333.164 634.862C327.105 630.756 318.866 628.44 311.832 626.755C297.658 623.361 262.613 620.403 250.082 628.509C248.199 629.727 246.583 631.421 246.259 633.731C245.932 636.065 246.935 637.636 248.203 639.484L247.387 640.041C244.695 636.297 241.855 632.624 240.295 628.244C243.739 624.017 246.392 618.888 249.164 614.193C255.431 603.579 261.267 592.714 267.563 582.124C271.757 575.069 276.436 568.366 280.816 561.435C299.421 531.997 318.975 503.13 341.808 476.8C347.413 470.337 352.596 463.513 359.999 459.039C355.54 469.402 355.396 500.176 355.428 512.678C355.438 516.728 355.979 520.75 355.623 524.792C355.404 524.519 349.546 500.333 348.46 497.078C347.486 494.161 346.369 490.199 343.433 488.731C342.675 488.872 342.249 488.792 341.693 489.39C335.805 495.728 337.01 531.267 337.887 541.308C334.153 535.065 331.227 528.372 329.182 521.39C328.374 518.645 327.809 513.969 325.756 511.955C323.112 514.146 325.448 518.036 324.006 520.788C323.126 522.468 321.838 523.943 320.898 525.596C312.479 540.399 303.02 555.091 295.88 570.54C305.142 581.313 315.275 591.291 324.364 602.243C327.837 606.428 330.629 611.164 334.053 615.381C335.263 616.87 336.329 618.12 338.353 618.223C344.088 618.513 360.802 596.113 365.579 591.418C366.539 606.624 368.166 641.505 374.211 653.909C376.681 658.975 380.637 663.097 384.647 666.971C384.18 669.726 384.084 672.394 384.017 675.181C373.311 668.397 357.621 644.843 349.529 633.861C345.905 628.942 342.667 623.638 337.656 620.026C332.768 616.504 328.932 611.433 324.732 607.125C317.651 599.86 302.874 586.837 292.367 586.737C290.908 586.723 290.25 586.8 289.235 587.844C289.252 588.028 289.25 588.215 289.287 588.395C290.172 592.682 311.82 606.297 316.487 609.994C303.177 605.012 297.462 602.529 282.95 601.411C279.932 601.179 276.747 600.719 273.726 600.796C271.92 600.842 269.011 601.764 267.782 603.145C267.241 603.753 267.501 604.08 267.596 604.815C270.194 607.662 289.196 609.587 294.139 610.79C303.569 613.084 313.072 615.813 321.905 619.865C327.173 622.282 332.097 625.336 337.348 627.79Z"/><path fill="#FEFEFE" d="M663.879 554.104L662.113 552.177C661.878 549.632 665.04 547.859 666.847 546.299C671.974 541.873 675.713 536.723 678.608 530.566C679.683 528.28 680.193 526.263 681.839 524.228L682.596 524.698C683.166 525.959 683.333 526.559 683.033 527.934C680.764 538.337 672.54 548.285 663.879 554.104Z"/><path fill="#231F20" d="M197.282 552.187C197.354 549.162 197.607 545.826 198.985 543.084C200.947 539.18 204.317 537.857 208.224 536.61C210.953 536.481 215.277 535.836 217.633 537.286C218.71 537.948 219.288 538.292 219.635 539.563C215.83 542.191 210.112 538.125 203.18 542.746L202.603 543.137C200.609 546.024 198.972 549.118 197.282 552.187Z"/><path fill="#FEFEFE" d="M378.482 558.312C378.481 554.741 378.529 551.171 378.625 547.601C396.256 552.506 414.114 555.546 431.871 559.761C431.326 562.95 430.438 565.865 429.304 568.888C428.986 569.284 429.119 569.055 428.923 569.707C428.869 569.885 428.82 570.065 428.769 570.243C425.285 571.066 385.139 560.207 378.482 558.312Z"/><path fill="#231F20" d="M193.634 565.665C195.222 565.511 196.612 565.387 198.109 564.775L198.311 564.062C196.895 562.305 195.462 560.596 195.267 558.261C195.247 558.022 195.261 557.781 195.258 557.54C197.332 557.992 198.109 558.94 199.486 560.463C201.08 562.226 203.863 564.565 203.73 567.07C201.795 568.696 198.3 568.298 195.919 569.189C194.342 569.78 192.811 570.665 191.323 571.452L186.758 574.882C188.588 571.02 190.535 568.52 193.634 565.665Z"/><path fill="#FEFEFE" d="M611.664 574.269C612.985 571.612 614.101 568.861 615.256 566.129C617.427 567.152 619.595 568.612 621.682 569.817C621.612 573.882 621.642 581.048 618.5 584.01C617.417 585.031 614.889 584.936 613.432 584.937C608.799 584.942 604.126 584.258 599.507 583.914C586.649 582.957 573.525 581.861 560.643 581.979L553.49 582.089C554.393 578.875 555.019 575.244 556.98 572.509C563.231 569.51 603.789 572.106 611.664 574.269Z"/><path fill="#231F20" d="M192.164 590.362C189.858 589.945 187.11 588.68 185.682 586.766C184.541 585.236 184.873 584.29 185.095 582.541C185.917 582.979 186.743 583.426 187.513 583.951C189.981 585.633 191.603 587.4 192.164 590.362Z"/><path fill="#FEFEFE" d="M611.523 678.08C611.511 675.119 612.374 670.778 611.411 668.019C610.94 666.668 610.029 665.483 609.515 664.164C608.964 662.754 609.809 661.103 610.296 659.752C619.564 634.005 632.71 609.682 642.107 583.902C642.978 584.991 643.457 585.521 643.357 586.971C643.015 591.97 640.624 597.759 639.165 602.58C636.465 611.509 633.828 620.489 630.821 629.32C626.777 641.195 621.36 653.301 620.281 665.886C630.091 650.657 642.507 610.368 647.126 591.707C656.936 602.47 668.173 611.701 678.885 621.537C681.141 623.683 683.432 625.792 685.756 627.864C666.573 638.639 647.456 651.839 632.772 668.383C625.324 670.284 618.014 674.024 611.523 678.08Z"/><path fill="#FEFEFE" d="M445.938 649.813C446.064 632.294 449.169 614.139 452.221 596.901C453.062 604.706 451.617 613.221 450.859 621.039C449.701 632.969 448.588 645.059 446.81 656.91C445.657 655.276 446.001 651.767 445.938 649.813Z"/><path fill="#FEFEFE" d="M636.038 683.381C636.004 681.519 635.587 678.446 636.376 676.72C637.976 673.215 642.386 669.481 645.17 666.895C661.574 651.662 686.534 633.775 707.177 625.55C714.843 625.37 722.408 632.3 727.848 637.056C703.046 633.956 668.648 660.205 648.615 673.407C644.185 676.377 640.208 680.055 636.038 683.381Z"/><path fill="#B3B2B2" d="M248.203 639.484C252.109 644.267 256.938 648.328 261.375 652.609C266.715 657.76 271.873 663.092 277.281 668.173C269.811 663.258 253.492 647.266 247.387 640.041L248.203 639.484Z"/><path fill="#FEFEFE" d="M384.881 671.358C386.602 664.275 389.17 657.339 391.235 650.341C394.341 653.174 395.825 657.732 396.399 661.786C398.843 679.05 388.274 702.111 378.346 715.717C374.478 721.019 369.698 725.666 365.663 730.874C363.592 729.105 361.418 727.465 359.261 725.803C360.722 724.665 362.036 723.436 363.367 722.151C370.455 714.303 379.604 699.058 384.11 689.473C386.627 684.117 394.009 664.281 392.036 658.791C390.716 659.819 386.592 668.861 384.881 671.358Z"/><path fill="#B3B2B2" d="M446.81 656.91C446.664 659.27 446.432 661.519 446.007 663.851L445.731 663.649C445.245 659.046 445.465 654.409 445.938 649.813C446.001 651.767 445.657 655.276 446.81 656.91Z"/><path fill="#FEFEFE" d="M370.358 733.521C373.458 730.62 376.446 727.456 379.065 724.113C389.193 711.185 402.207 689.916 401.521 673.02C401.378 669.501 399.237 666.277 398.876 662.714C398.861 662.569 398.853 662.424 398.842 662.279C402.26 664.101 405.846 667.627 408.994 670.035C406.289 684.555 399.99 700.52 391.751 712.673C386.525 720.382 380.375 727.526 375.025 735.193L373.58 736.856C372.039 736.577 371.258 734.792 370.358 733.521Z"/><path fill="#231F20" d="M614.688 741.42C611.683 737.298 608.356 733.203 605.973 728.676C598.926 715.283 593.873 692.154 596.099 677.072C596.227 676.201 596.466 675.567 596.867 674.795L597.589 674.588C599.231 676.864 599.817 694.082 600.756 698.251C602.659 706.697 605.549 715.652 608.935 723.592C611.305 729.148 615.076 735.062 616.302 740.959L614.688 741.42Z"/><path fill="#FEFEFE" d="M461.512 771.463C461.722 763.903 461.454 756.269 461.429 748.701C473.959 749.831 486.672 750.38 499.249 750.614C498.759 757.987 498.389 765.743 496.485 772.898L495.953 773.943C490.737 775.982 468.903 771.626 461.512 771.463Z"/><path fill="#FEFEFE" d="M382.722 810.706C379.436 792.768 378.714 773.426 378.176 755.186C378.942 755.498 378.701 755.344 379.304 755.776C390.428 763.749 403.048 769.156 414.119 776.959C409.666 789.858 410.42 807.745 399.371 817.425C394.624 821.584 390.046 821.666 384.109 821.345C383.431 818.835 383.135 816.329 382.826 813.756C388.008 812.657 390.933 811.313 394.667 807.62C399.584 802.16 406.621 788.193 406.25 780.998C406.176 779.563 405.827 779.14 404.801 778.195C399.567 781.428 398.03 801.918 382.722 810.706Z"/><defs><linearGradient id="gradient_0" gradientUnits="userSpaceOnUse" x1="714.13434" y1="804.51361" x2="701.7016" y2="798.73431"><stop offset="0" stop-color="#10100F"/><stop offset="1" stop-color="#2E2E2E"/></linearGradient></defs><path fill="url(#gradient_0)" d="M715.702 800.115C717.274 792.142 718.739 783.624 721.564 776.006C710.315 788.414 702.059 801.902 695.628 817.361C693.661 822.09 692.615 827.216 690.197 831.742L689.225 831.772C688.478 830.793 688.423 830.251 688.587 829.016C689.836 819.652 713.695 775.524 720.855 771.124C721.456 770.754 721.557 770.776 722.153 770.653C722.808 770.891 723.198 770.835 723.505 771.537C725.091 775.171 717.681 795.86 716.436 800.974L715.702 800.115Z"/><path fill="#231F20" d="M207.077 823.297C206.236 813.043 206.878 801.674 208.951 791.602C210.124 785.906 211.777 781.629 216.775 778.356C217.691 778.517 218.697 778.518 219.439 779.115C225.091 783.659 226.023 823.065 227.436 832.194C229.523 830.538 233.332 825.979 235.88 825.624C237.289 825.428 238.25 825.69 239.366 826.579C241.497 828.277 242.14 832.353 242.142 834.881C242.143 836.421 242.005 838.108 240.867 839.242L240.139 838.843C238.79 835.684 238.469 832.177 237.684 828.836C235.315 830.275 233.07 831.944 230.777 833.503C229.275 834.525 227.224 836.134 225.384 835.786C220.113 829.98 221.579 794.83 217.793 784.41L216.905 784.109C216.483 784.294 216.234 784.368 215.87 784.717C213.221 787.253 213.129 793.76 212.683 797.289C212.233 800.658 211.794 804.039 211.615 807.434C211.414 811.242 212.331 823.083 210.326 825.806C209.604 826.787 208.891 827.287 207.633 827.261C202.69 827.158 195.783 818.67 192.445 815.277C193.093 819.517 196.341 838.564 194.807 841.272L193.632 841.288C193.138 840.805 192.831 840.377 192.598 839.719C190.82 834.693 187.797 816.793 189.925 812.538C190.339 811.712 190.538 811.845 191.35 811.555C197.188 812.244 202.975 819.354 207.077 823.297Z"/><path fill="#231F20" d="M486.16 778.891L486.606 779.052C486.661 779.203 486.724 779.352 486.773 779.505C489.132 786.906 489.961 828.702 486.736 835.358C486.582 835.137 486.396 834.936 486.275 834.696C483.101 828.379 483.221 785.019 486.16 778.891Z"/><path fill="#FEFEFE" d="M555.204 788.656C568.483 787.245 581.065 785.572 594.122 782.62L594.899 783.243C595.103 790.996 594.417 798.762 594.186 806.508C593.952 814.382 594.109 822.238 593.825 830.122C585.987 825.635 577.427 823.116 570.077 817.659C561.983 809.122 561.982 796.506 555.204 788.656Z"/><path fill="#FEFEFE" d="M593.993 846.352C593.435 846.391 593.232 846.435 592.617 846.304C587.837 845.294 580.166 841.096 575.487 838.92C554.077 828.962 553.222 820.092 546.939 799.201C545.876 795.667 545.558 792.259 543.709 788.98C543.603 788.793 543.494 788.609 543.386 788.423L553.532 788.506C553.209 797.583 557.686 811.752 563.306 818.915C570.399 827.954 583.282 831.301 594.121 832.646C593.499 837.201 593.812 841.776 593.993 846.352Z"/><path fill="#231F20" d="M720.906 821.757C721.248 816.911 722.395 812.14 722.721 807.268L722.039 807.029C718.364 809.029 716.208 816.642 713.97 820.367C712.917 822.12 711.73 824.263 709.662 824.773C707.253 820.273 714.603 806.101 715.623 800.586C715.651 800.43 715.675 800.272 715.702 800.115L716.436 800.974C716.216 802.179 715.918 802.797 716.368 803.975C718.6 804.938 721.095 803.382 723.439 803.612C724.714 803.737 725.684 804.108 726.449 805.189C728.009 807.394 727.129 810.524 726.772 812.994C728.669 812.84 730.587 812.763 732.461 813.176C733.993 813.514 735.31 813.66 736.166 814.989C734.413 817.491 724.203 820.418 720.906 821.757Z"/><path fill="#231F20" d="M460.998 838.16C458.708 837.259 456.286 836.738 454.04 835.709C445.797 831.931 435.521 825.848 428.73 819.822C427.22 818.481 426.637 817.935 426.496 815.89C436.239 816.45 456.544 827.101 466.043 831.163C473.875 834.513 481.885 837.573 489.843 840.614C493.782 842.12 499.771 841.948 503.123 844.237C504.066 844.881 504.076 845.101 504.257 846.153L502.801 848.037C511.614 856.644 522.452 863.85 531.892 871.844C528.658 870.94 525.42 869.859 522.336 868.531C513.04 864.527 500.443 858.143 496.536 848.181C492.026 846.941 487.558 845.92 482.954 845.092C481.904 868.452 484.349 892.292 485.868 915.607L490.113 991.833C487.619 988.037 487.114 981.942 486.363 977.493C483.301 960.323 481.697 943.161 479.728 925.857C477.606 907.216 474.194 887.042 476.014 868.307C468.019 887.31 466.59 909.442 463.111 929.56C462.309 909.055 464.441 887.04 468.353 866.933C469.641 860.31 472.03 853.953 473.236 847.321L473.358 846.633C462.508 846.972 449.191 846.814 438.695 843.752C437.175 843.309 436.219 842.922 435.47 841.508L435.887 840.368C442.466 837.244 453.657 838.711 460.998 838.16Z"/><path fill="#231F20" d="M525.917 993.087C524.818 993.741 523.288 994.689 521.932 994.547C520.708 994.419 520.041 994.137 519.215 993.242C516.203 989.973 493.893 868.744 492.171 858.177C491.728 855.458 491.442 852.818 491.46 850.059C492.406 850.192 493.169 850.466 494.054 850.821C497.908 855.36 500.132 863.478 502.103 869.152C505.332 878.445 507.536 887.954 509.845 897.505C514.927 918.524 518.887 939.742 522.807 961.004C524.405 969.674 527.389 980.001 527.27 988.786C527.249 990.346 526.582 991.708 525.917 993.087Z"/><defs><linearGradient id="gradient_1" gradientUnits="userSpaceOnUse" x1="708.06403" y1="855.43567" x2="696.74152" y2="910.51038"><stop offset="0" stop-color="#302B32"/><stop offset="1" stop-color="#3D3F3A"/></linearGradient></defs><path fill="url(#gradient_1)" d="M794.343 874.148C794.203 874.206 794.071 874.29 793.923 874.324C785.64 876.212 776.15 875.814 767.651 876.874C730.676 881.486 693.835 886.696 656.772 890.568C643.507 891.954 629.602 894.44 616.297 894.493C614.22 894.502 612.648 894.487 610.804 893.481C610.224 892.368 610.058 892.578 610.445 891.274C611.691 890.266 612.987 889.93 614.548 889.698C621.406 888.681 628.694 888.587 635.637 888.05C649.83 887.035 664.005 885.772 678.154 884.262C717.565 879.989 757.367 873.286 797.02 872.489L794.474 873.081L794.109 873.695L794.343 874.148Z"/><path fill="#231F20" d="M797.02 872.489C807.575 872.433 818.002 872.471 828.546 873.126C824.528 873.346 820.437 873.096 816.449 873.571C809.078 873.711 801.714 874.036 794.343 874.148L794.109 873.695L794.474 873.081L797.02 872.489Z"/><path fill="#4C4F4F" d="M828.546 873.126C830.754 873.116 832.941 873.156 835.146 873.273L835.455 873.589L836.259 873.57C835.259 873.297 836.067 873.393 834.829 873.757C831.396 874.767 820.197 874.183 816.449 873.571C820.437 873.096 824.528 873.346 828.546 873.126Z"/><path fill="#231F20" d="M375.797 906.713C371.854 905.929 367.019 906.348 362.946 906.237C344.652 905.74 326.712 906.599 308.441 907.406C286.832 908.36 265.196 909.435 243.563 909.461C229.93 909.478 216.367 908.78 202.748 908.366C186.537 907.873 152.007 909.16 139.361 898.993C135.152 895.609 132.782 891.165 132.269 885.857C135.592 887.791 137.283 895.124 145.252 898.174C158.919 903.403 179.816 903.916 194.488 904.54C223.444 905.809 252.437 905.949 281.403 904.961C300.857 904.289 320.337 902.633 339.8 902.522C346.363 902.485 372.435 903.08 376.265 906.206L375.797 906.713Z"/></svg>