<?xml version="1.0" encoding="utf-8" ?><svg xmlns="http://www.w3.org/2000/svg" xmlns:xlink="http://www.w3.org/1999/xlink" width="1024" height="1024" viewBox="0 0 1024 1024"><path fill="#FEFEFE" d="M0 0L1024 0L1024 1024L0 1024L0 0ZM377.996 243.264C376.146 241.187 374.349 238.783 371.993 237.276C373.076 239.782 375.481 242.164 377.372 244.129C388.029 254.898 399.345 261.856 414.842 261.935C414.987 261.936 415.132 261.933 415.277 261.932C413.863 269.647 412.517 277.297 411.728 285.106C410.581 299.169 411.627 313.702 413.238 327.701C405.478 331.021 400.411 336.062 397.319 343.895C393.337 353.985 392.739 365.968 397.115 376.026C399.721 382.014 404.208 387.519 410.419 389.946C414.187 391.417 417.092 391.316 420.971 390.517C427.05 416.272 432.905 436.139 456.642 450.919C464.935 456.083 474.074 459.628 483.39 462.453C439.046 474.679 402.955 487.867 363.22 511.574C353.668 517.273 341.219 524.998 333.664 532.983C339.058 529.992 349.854 522.071 355.987 523.881C366.58 527.009 401.819 545.059 409.675 552.281C399.589 560.646 387.777 568.986 379.552 579.229C372.785 587.658 369.466 597.75 364.166 606.981C362.298 610.233 358.902 613.094 356.572 616.092C350.306 624.156 344.865 633.072 338.267 640.858C337.926 633.066 337.135 624.986 337.715 617.21C331.263 616.529 287.953 611.049 285.142 613.177C282.627 620.237 283.96 630.744 283.963 638.288L283.936 691.816C283.923 701.314 284.64 711.575 283.323 720.973C275.279 719.766 267.091 719.332 258.987 718.648C253.817 718.213 248.57 717.421 243.383 717.369C243.173 706.266 243.038 695.163 242.979 684.059C242.942 676.468 243.233 668.741 242.527 661.179C227.066 660.457 212 657.516 196.462 660.204C196.502 652.578 197.232 644.789 196.869 637.196C192.646 635.911 188.335 634.702 183.923 634.301C182.171 612.316 184.316 590.414 184.54 568.46C184.556 566.868 184.845 564.416 184.022 563.074C180.889 561.779 177.244 562.984 174.067 563.663L173.942 563.02C172.022 552.733 172.483 527.437 169.757 520.406C167.113 518.783 162.832 519.481 159.83 519.614C158.677 499.268 157.678 478.913 156.832 458.552C156.378 447.914 156.642 436.596 155.15 426.083C154.962 424.758 154.857 423.806 153.909 422.79L153.103 422.763C151.553 427.808 152.424 441.789 152.372 447.706C151.656 486.745 152.292 525.798 154.279 564.793C151.394 564.388 145.821 563.09 143.224 564.78C142.181 565.458 141.933 565.916 141.779 567.114C140.632 576.059 144.059 600.824 145.399 610.624C150.076 597.095 146.785 583.026 146.706 569.116C149.611 569.703 156.185 571.924 158.721 570.67C159.341 570.363 159.178 570.24 159.333 569.446C160.466 563.661 159.062 556.384 158.698 550.513C158.2 542.457 157.755 534.219 157.984 526.156C161.066 525.672 164.126 525.285 167.059 524.177C167.515 532.024 166.139 562.9 168.686 567.488C172.358 568.005 177.222 566.219 180.778 565.31C175.864 601.909 178.193 638.136 180.167 674.823C181.108 692.293 181.503 709.837 182.793 727.283C183.926 742.606 186.189 758.136 186.497 773.479C174.338 773.66 162.134 772.807 149.977 772.488C135.444 772.107 120.908 772.206 106.372 772.037C105.726 740.677 102.934 709.329 101.628 677.973C101.076 663.606 100.605 649.236 100.213 634.864C100.005 627.09 100.209 619.174 99.4398 611.437C109.715 612.004 139.056 615.41 146.668 611.136L146.509 610.571C137.4 606.916 107.678 607.37 98.0546 609.304L97.4219 609.819C97.7261 610.392 98.3484 611.195 98.524 611.779C99.2848 614.311 98.0422 630.598 97.8972 634.748C97.2098 654.427 97.8702 674.178 98.0139 693.866C98.203 719.76 98.0949 745.988 100.199 771.808C95.6013 771.637 79.1231 769.787 75.8349 771.703C77.9861 774.269 93.445 775.491 96.9357 775.794C98.2041 775.903 99.4735 776.001 100.744 776.088C101.286 778.128 101.625 780.063 103.021 781.709L103.879 781.827C104.928 780.601 104.926 779.538 105.112 778.016L105.23 777.088L105.297 776.483C136.014 777.314 166.779 778.499 197.503 778.879C221.66 779.177 245.853 778.723 270.016 778.968C270.065 783.843 268.956 790.768 270.316 795.405C274.213 808.694 329.019 921.614 335.465 928.245C336.332 929.137 336.702 929.323 337.928 929.22C343.091 928.786 350.638 922.043 354.648 918.888L355.157 919.375C360.646 924.7 365.128 931.36 370.144 937.163C377.225 945.355 407.523 979.048 417.326 979.323C418.983 979.37 420.363 978.833 421.537 977.638C424.244 974.882 422.623 967.003 422.257 963.387C426.368 967.865 434.746 981.122 440.908 981.355C442.097 981.4 443.2 980.92 443.965 980.005C445.821 977.784 445.425 974.009 444.917 971.396C442.062 956.716 431.678 940.673 426.197 926.55C433.719 928.86 447.906 932.969 455.517 932.945C458.887 932.934 461.548 931.049 465.119 931.277C486.886 932.668 508.855 931.703 530.604 930.396C551.905 929.116 573.481 927.521 594.441 923.419C602.595 921.823 610.151 918.999 618.142 917.075C619.057 920.561 620.181 927.422 623.532 929.4C624.24 929.818 625.426 930.035 626.26 929.817C627.371 929.527 628.147 928.974 628.57 927.882C630.313 923.378 625.042 913.924 623.892 909.357C627.054 906.695 635.302 901.141 635.532 896.788C635.75 892.694 624.942 884.55 622.086 881.318C627.554 858.048 640.49 833.848 650.33 812.076C654.967 801.816 659.052 791.139 662.673 780.483C672.412 796.483 681.294 813.138 691.454 828.86C699.542 841.171 708.433 852.936 718.068 864.078C725.676 873.016 733.835 881.841 742.931 889.293C746.08 891.873 751.127 896.949 755.097 897.873C755.301 897.921 755.513 897.926 755.72 897.952C758.146 895.997 759.609 890.295 761.365 887.441C781.616 854.543 800.18 818.764 809.854 781.164C827.435 785.072 845.725 785.16 863.67 785.588C888.918 786.19 913.966 786.024 939.213 785.588C952.494 785.359 966.998 786.498 980.016 783.82L980.269 783.352C973.28 781.055 953.124 781.578 944.932 781.271C920.954 780.373 896.956 778.903 872.964 778.612C852.198 778.36 831.285 779.263 810.547 778.465C827.418 708.523 837.645 637.145 841.091 565.28C841.377 558.705 845.209 550.895 841.577 544.762C837.886 538.529 828.854 535.498 822.476 533.086L822.397 532.237C821.874 526.277 824.55 510.048 823.15 506.004C821.965 502.581 812.698 493.394 809.893 489.962C805.88 485.05 801.925 480.093 798.311 474.877C793.927 468.55 788.042 457.826 782.518 452.948C780.323 451.009 778.223 450.597 775.34 450.888C758.908 452.546 701.147 488.173 685.222 498.986C676.939 494.274 668.811 489.213 660.403 484.729C643.682 475.943 626.181 468.732 608.124 463.188C597.131 459.888 585.361 458.452 574.66 455.156C575.762 449.025 577.009 442.884 577.946 436.727C587.448 428.586 596.292 420.852 604.687 411.502C611.181 415.558 628.308 425.756 635.851 424.582C636.441 424.141 636.771 424.111 636.907 423.318C637.569 419.446 633.789 412.652 632.244 409.122C637.696 410.706 647.493 414.857 652.986 413.172C653.447 412.625 653.865 412.465 653.732 411.686C652.933 406.985 637.035 396.091 632.834 392.909C680.953 370.587 714.879 309.806 732.49 262.134C733.185 260.253 734.123 257.507 733.144 255.591C731.481 252.338 714.535 249.772 710.215 248.717C715.824 241.455 732.913 217.524 731.137 208.234C730.943 207.222 730.482 206.081 729.503 205.6C727.664 204.696 725.484 205.352 723.702 206.084C719.115 207.969 714.773 211.177 710.582 213.835C705.037 217.351 699.478 220.771 693.769 224.016C689.628 212.868 685.147 202.178 678.745 192.086C655.612 155.616 610.69 119.388 571.564 101.601C537.463 86.0981 488.074 75.993 452.265 89.7187C431.806 97.5604 416.482 109.001 407.467 129.312C399.989 146.158 396.523 167.488 403.434 185.101C408.393 197.737 417.468 208.037 428.75 215.427C414.054 199.254 402.147 184.13 403.327 160.987C404.246 142.971 410.947 124.11 424.619 111.887C444.525 94.0906 472.95 88.102 499.036 89.721C562.32 93.6489 613.208 138.136 653.022 183.558C664.278 196.324 673.592 210.678 680.665 226.159C682.074 229.286 685.226 237.944 688.762 238.805C692.694 239.762 708.436 227.871 712.734 225.303L712.213 226.064C708.313 231.717 693.537 244.992 694.577 251.054C694.914 253.016 696.339 254.478 697.951 255.527C704.95 260.082 713.985 261.732 722.06 263.179C702.211 301.662 685.174 335.884 652.411 365.506C652.839 356.193 652.536 348.625 645.948 341.269C641.328 336.112 634.958 333.062 628.018 332.896C622.673 332.767 618.14 334.466 613.44 336.832C616.296 327.015 618.065 316.423 612.929 307.024C610.532 302.636 605.511 296.016 606.865 290.795C608.313 285.213 618.24 284.232 617.477 277.898C616.883 276.933 616.293 275.974 615.747 274.98C617.993 269.701 623.578 267.086 620.91 260.157C618.731 254.498 611.232 254.362 609.677 251.172C611.077 248.516 612.69 245.718 611.864 242.604C611.301 240.483 609.556 238.975 607.651 238.038C600.3 234.42 589.465 235.318 581.575 236.097C583.971 233.364 588.69 228.826 588.601 224.909C588.568 223.485 588.137 222.454 587.055 221.531C584.25 219.134 579.827 219.337 576.4 219.737C560.52 221.59 545.502 228.936 531.351 235.955C532.33 233.572 535.119 228.617 534.224 226.158C527.83 225.867 509.15 240.839 502.425 244.041C492.269 240.731 484.805 234.539 479.915 225.04C469.481 204.771 472.375 179.324 479.299 158.396C485.386 140 494.988 125.087 511.579 114.805C499.188 118.014 491.167 126.93 484.839 137.665C472.26 159.001 465.87 190.118 472.124 214.413C475.062 225.825 481.3 236.655 491.732 242.645C495.5 244.809 499.409 246.263 503.673 247.123C512.509 241.43 520.803 235.753 530.376 231.285C528.786 234.295 527.386 237.262 526.154 240.435C537.492 236.782 573.522 219.066 583.094 223.74C583.784 224.077 583.828 224.157 584.352 224.592C584.643 226.473 584 227.666 582.89 229.174C579.83 233.331 575.055 236.166 572.242 240.429C574.641 241.925 607.092 233.345 608.882 243.045C609.34 245.531 607.384 248.13 605.847 249.872C604.99 250.843 604.102 251.777 603.274 252.775C606.516 254.377 610.229 254.736 613.631 255.955C615.673 258.27 617.672 260.855 617.585 264.116C617.473 268.308 609.145 273.002 611.871 276.274C612.776 277.359 614.195 278.072 615.387 278.803C610.777 282.083 603.457 285.485 602.499 291.634C601.093 300.662 613.149 306.311 610.595 322.417C609.551 329.003 607.298 335.207 604.764 341.346C603.868 343.519 600.745 349.04 601.038 351.155C601.054 351.27 601.806 352.693 601.845 352.742C601.999 352.935 602.233 353.048 602.426 353.201C604.31 351.626 605.59 349.612 607.301 347.877C613.259 341.836 620.687 336.779 629.565 337.468C635.207 337.906 640.289 340.988 643.776 345.372C647.748 350.364 649.084 356.749 648.278 363.006C647.269 370.847 641.809 377.696 635.629 382.282C629.37 386.926 621.482 390.048 613.642 390.248C610.991 390.315 605.883 388.96 604.285 391.304C604.494 393.521 605.943 394.88 607.513 396.302C604.621 402.609 600.929 408.063 596.393 413.315C593.813 416.303 572.616 436.45 572.468 436.911C571.569 439.717 571.793 446.336 571.213 449.771C569.16 461.941 567.27 473.931 566.069 486.235C564.223 505.133 565.856 518.778 556.977 536.426C554.28 541.786 551.318 546.749 547.336 551.258C542.14 552.041 525.308 554.704 522.583 559C522.508 559.117 522.465 559.251 522.406 559.376C523.877 560.528 525.802 560.302 527.612 560.079C532.531 559.475 537.55 557.943 542.374 556.781C529.643 571.595 513.53 586.714 494.804 593.385C484.951 582.284 480.522 568.847 481.376 554.053C481.43 553.119 481.495 552.187 481.572 551.255C485.616 553.823 489.96 557.483 494.824 557.997L495.495 557.769C495.286 555.464 492.471 553.164 490.784 551.747C488.109 549.5 485.066 547.765 482.054 546.018C483.992 534.541 485.767 524.682 495.904 517.46C498.254 515.786 500.805 514.217 503.372 512.898C503.812 517.15 503.91 522.015 506.213 525.727L506.928 525.773C508.936 521.751 508.498 497.133 508.499 490.69C517.73 481.195 527.086 471.823 536.566 462.576C543.046 456.232 549.649 450.279 555.303 443.142L554.69 443.303C539.468 447.421 513.622 459.097 498.689 458.818C492.608 458.704 486.309 456.989 480.526 455.241C473.2 453.025 466.136 450.442 459.472 446.615C442.025 436.597 433.447 418.195 428.426 399.483C424.271 383.999 423.223 367.22 421.295 351.321C418.804 330.768 415.563 310.403 415.315 289.645C415.772 280.492 415.851 270.887 419.026 262.2C426.527 260.871 432.369 259.545 437.622 253.583C429.897 256.149 423.518 258.732 415.236 258.976C401.375 259.384 387.889 252.58 377.996 243.264ZM474.71 306.633C465.07 295.365 453.795 280.197 441.512 272.231C435.363 274.59 428.359 278.257 424.525 283.772C430.462 281.173 435.966 277.709 442.092 275.556C446.41 279.823 470.254 307.463 473.547 307.575C473.78 307.583 474.013 307.56 474.245 307.553C474.615 308.925 474.588 309.62 475.698 310.547L476.664 310.108C477.323 309.081 477.683 308.125 478.021 306.946C478.856 304.037 479.95 298.865 478.451 296.207C476.177 297.644 475.454 303.967 474.71 306.633ZM116.387 653.573C116.282 649.94 116.692 644.905 115.345 641.569C114.522 646.853 114.564 654.276 115.419 659.512C115.277 674.578 116.922 689.944 117.633 705.014C118.42 721.711 118.333 738.616 120.163 755.233C120.455 757.885 120.803 763.25 122.6 765.251C126.999 753.282 117.559 671.875 116.387 653.573ZM392.448 133.616C379.403 136.355 370.192 143.202 362.94 154.293C345.862 180.413 341.807 215.599 348.222 245.824C351.782 262.599 362.104 282.989 376.867 292.568C383.925 297.148 393.61 299.926 401.963 297.962C405.282 297.182 408.39 295.647 410.645 293.061C410.592 292.905 410.541 292.748 410.486 292.593C410.024 291.279 409.772 290.577 408.581 289.741C404.91 288.742 400.783 289.8 396.973 289.326C382.312 287.501 370.811 278.338 363.576 265.745C350.128 242.338 348.613 208.251 355.602 182.454C359.819 166.892 370.02 149.216 384.394 141.025C388.815 138.506 396.395 135.145 401.489 135.828C401.768 135.866 402.049 135.89 402.329 135.922L402.939 135.996C401.921 134.726 400.469 133.617 398.797 133.459C396.791 133.27 394.455 133.41 392.448 133.616ZM837.642 205.36C835.75 212.387 835.54 220.282 834.531 227.511C832.197 243.925 829.701 260.316 827.046 276.682C826.029 283.009 825.518 289.439 824.088 295.691C815.865 302.593 809.845 306.957 799.948 311.32C797.584 312.362 793.701 313.438 792.836 316.006C793.221 317.33 793.135 317.412 794.283 318.141C799.204 317.598 803.745 315.048 808.638 314.129C813.6 315.823 816.976 317.751 819.401 322.691C825.215 334.536 822.771 362.314 823.128 376.566C825.709 365.771 825.983 354.523 828.231 343.684C829.86 331.585 830.92 317.564 835.453 306.19C843.205 304.063 851.124 302.664 858.909 300.651C871.185 297.478 883.317 293.797 895.62 290.722C888.674 290.968 881.588 290.964 874.73 292.193C867.135 293.554 844.041 302.987 838.047 297.227C833.093 292.466 832.585 280.537 832.686 274.072C832.934 258.123 834.918 241.685 836.316 225.775C836.823 220 838.576 210.799 837.642 205.36ZM428.222 231.901C430.508 238.054 440.785 242.504 446.437 245.106C448.983 246.278 452.617 248.281 455.367 247.268C455.531 245.988 455.396 245.332 454.636 244.247C453.919 243.222 453.015 242.259 452.194 241.318C459.298 243.71 464.624 244.743 472.104 244.523C475.843 244.086 479.233 243.44 482.812 242.228C475.323 242.51 468.364 242.321 461.024 240.555C452.074 238.4 436.699 231.296 428.222 231.901ZM563.097 258.415C544.27 270.302 528.067 287.054 507.433 295.965C509.874 300.771 512.497 304.235 516.707 307.671C515.477 304.478 514.284 301.266 512.903 298.134C518.023 295.681 522.627 292.327 527.561 289.544C525.688 297.641 523.41 305.706 523.116 314.046L523.541 314.015C529.022 306.106 529.913 294.782 532.977 285.68C538.669 280.886 544.815 276.566 550.715 272.025C555.038 268.698 559.371 264.837 563.973 261.953C573.735 266.556 583.543 270.062 593.656 273.746C588.176 269.606 569.614 259.245 563.097 258.415ZM143.476 287.182C125.139 289.375 105.171 303.278 93.8929 317.493C106.194 308.373 134.477 289.168 149.571 291.571C151.613 291.896 153.521 292.793 154.639 294.609C155.301 295.684 154.98 296.974 154.553 298.073C152.481 303.403 140.921 313.192 142.345 318.445L143.502 319.542C148.258 319.405 165.124 310.061 171.897 307.934C175.027 307.133 177.628 306.703 180.58 308.376C181.586 308.946 182.364 309.736 182.718 310.857C183.48 313.271 181.569 316.545 180.315 318.48C178.151 321.819 171.943 326.384 172.475 330.267C173.233 331.268 173.378 331.544 174.524 332.01C181.133 330.197 193.191 323.283 200.143 326.9C203.029 328.402 202.812 333.111 204.9 333.329C206.073 332.694 206.751 332.316 207.243 331.01C207.895 329.277 207.607 326.946 206.715 325.351C205.654 323.453 203.868 322.797 201.856 322.348C196.405 321.134 190.038 322.15 184.508 322.61C186.875 318.493 188.952 314.613 187.71 309.707C187.04 307.064 185.805 304.778 183.35 303.437C178.783 300.941 172.303 302.516 167.616 304.064C162.604 305.72 157.728 308.033 153.092 310.545C156.368 305.79 161.379 299.864 160.344 293.718C160.021 291.8 159.032 290.116 157.416 289.012C153.751 286.51 147.749 286.757 143.476 287.182ZM423.768 302.472C423.485 305.408 424.964 307.204 426.77 309.399C432.208 316.009 440.493 321.398 448.626 323.953C448.013 333.206 447.679 345.536 454.31 353.008C455.327 354.153 456.564 355.107 458.174 355.099C460.861 355.087 463.332 352.807 464.89 350.847C464.991 350.72 465.089 350.591 465.188 350.463C467.242 344.099 467.681 338.912 467.09 332.269C466.954 330.752 466.383 328.349 466.571 326.896C466.784 325.246 468.993 325.412 469.497 323.624C468.746 322.345 467.042 321.709 465.746 321.066C456.804 316.634 447.309 313.158 438.156 309.169C433.426 307.108 428.56 304.159 423.768 302.472ZM587.927 310.209C571.633 311.926 555.284 313.127 538.98 314.78C533.703 315.315 526.97 315.249 521.92 316.692C520.893 316.985 520.465 317.433 519.791 318.252C518.931 319.297 518.091 320.845 518.222 322.226C519.235 322.833 518.715 322.771 519.801 322.502C520.487 322.332 520.9 322.167 521.551 321.858C523.328 321.018 541.786 320.939 546.055 320.597L545.51 328.088C545.339 336.125 545.587 346.448 551.497 352.698C553.129 354.424 555.118 355.474 557.511 355.537C559.322 355.585 561.921 355.094 563.215 353.758C564.811 352.11 565.942 349.989 567.513 348.287C576.847 338.179 586.477 329.323 586.116 314.415C587.714 313.468 589.256 312.694 590.414 311.212L590.294 310.369C589.352 310.16 588.908 310.085 587.927 310.209ZM309.066 345.826C302.859 366.772 300.347 391.697 296.875 413.446C295.442 422.426 294.098 431.74 291.518 440.477C280.394 445.612 268.258 451.694 259.793 460.748C266.045 458.748 271.867 455.986 277.71 453.021C285.352 456.69 289.381 462.714 292.133 470.552C298.09 487.519 296.839 507.323 298.234 525.008C298.649 521.638 299.129 518.275 299.193 514.876C300.023 498.84 299.789 461.179 312.082 450.441C321.217 442.461 342.269 439.021 354.094 434.357C340.135 434.779 327.234 437.836 313.839 441.474C308.634 437.82 305.088 433.986 303.927 427.517C300.993 411.178 304.653 382.548 306.575 365.302C306.988 361.59 309.873 348.662 309.066 345.826ZM630.476 350.562C626.268 352.011 622.982 353.771 619.442 356.461C618.46 359.514 617.425 362.547 616.765 365.69C618.945 364.648 621.093 363.243 623.579 364.032C625.352 364.592 626.786 365.908 627.496 367.627C628.238 369.395 628.395 371.505 627.63 373.287C627.253 374.165 627.204 374.223 626.307 374.499C622.927 375.538 618.093 375.937 615.974 379.219C615.421 380.075 615.282 380.709 615.134 381.693C615.699 383.608 616.07 384.495 617.756 385.696C622.577 384.825 626.378 383.74 629.323 379.44C631.469 376.307 632.073 372.42 631.243 368.739C630.58 365.802 628.564 362.178 625.966 360.524C625.204 360.039 624.356 359.713 623.532 359.351C623.319 359.258 623.109 359.158 622.897 359.063L622.513 358.896C625.039 357.218 627.387 355.555 630.284 354.588L635.668 352.757L635.869 352.301C634.246 351.192 632.365 350.955 630.476 350.562ZM491.222 357.888L490.713 358.756C486.245 366.502 484.722 371.554 478.104 378.096C476.149 377.979 474.259 377.64 472.482 378.626C471.742 379.733 471.761 379.688 471.965 381.006C473.148 382.711 474.468 383.675 476.233 384.739C477.851 385.109 479.207 385.549 480.853 385.057L481.312 384.376C480.696 383.268 480.072 382.569 479.189 381.683C479.756 380.935 480.051 380.702 480.759 380.141C485.895 376.069 491.493 366.792 491.883 360.196C491.955 358.977 491.956 358.836 491.222 357.888ZM460.338 359.799C457.411 362.219 452.395 366.222 451.569 370.025L452.102 370.791L452.838 370.881C456.551 368.338 458.799 363.664 461.515 360.135L460.338 359.799ZM565.517 364.078C562.145 364.868 558.193 366.415 556.397 369.643C555.968 370.414 556.069 370.52 556.109 371.336C557.268 371.967 557.544 371.651 558.797 371.415C562.063 369.77 565.477 367.881 567.833 365.022L567.752 364.326C566.962 364.175 566.329 364.082 565.517 364.078ZM577.362 368.407C577.402 368.618 577.434 368.831 577.483 369.04C578.409 373.01 583.696 375.777 580.653 381.117C579.217 383.638 577.064 385.227 574.263 385.88C570.146 386.839 566.109 385.678 561.983 385.605L561.626 386.219C562.349 387.489 563.154 387.955 564.362 388.68C568.09 390.209 571.449 390.524 575.253 389C578.851 387.559 582.203 384.619 583.74 381.019C584.752 378.649 585.054 375.727 584.046 373.305C583.333 371.593 581.745 369.753 579.986 369.059C579.16 368.733 578.235 368.559 577.362 368.407ZM543.802 383.977C535.826 387.153 528.197 392.603 520.685 396.825C512.205 401.591 503.127 405.843 494.932 411.041C493.79 411.766 493.105 412.01 492.479 413.22C492.71 413.829 492.92 414.508 493.212 415.088C501.989 411.821 541.253 392.075 544.571 385.231C544.341 384.748 544.213 384.333 543.802 383.977ZM877.483 405.606C871.159 406.915 854.951 414.094 851.57 419.288C850.821 420.438 850.853 420.679 851.106 421.934C852.103 422.905 852.357 423.036 853.7 423.407C862.457 421.469 868.94 411.576 880.862 411.88C884.488 414.273 882.887 423.351 888.175 422.33C896.154 420.79 897.187 409.851 906.855 413.867C912.273 417.233 918.841 421.855 925.556 420.442C928.113 419.905 930.311 418.46 931.678 416.217C933.126 413.843 933.941 409.837 933.062 407.137C932.807 406.355 932.722 406.276 932.35 405.651L931.407 405.713C929.63 407.975 928.291 412.172 925.106 412.613C919.687 413.364 912.811 408.027 907.496 406.848C905.414 406.387 903.228 406.415 901.108 406.486C897.215 408.751 893.163 411.084 889.952 414.285C888.23 410.951 886.56 407.241 882.728 405.942C881.112 405.393 879.164 405.412 877.483 405.606ZM172.648 641.858C170.471 651.604 171.087 662.737 170.426 672.74C168.458 702.522 164.303 733.659 168.758 763.395L169.836 763.661C170.777 762.41 170.822 761.079 170.92 759.529C171.821 745.243 171.387 730.827 171.891 716.515C172.511 698.947 173.01 681.447 173.084 663.864C173.113 657.057 173.785 649.533 172.824 642.835C172.777 642.507 172.707 642.183 172.648 641.858ZM136.103 652.857C135.206 658.996 135.946 665.657 135.804 671.892C135.241 696.59 134.374 720.674 137.054 745.316C137.542 749.805 137.759 756.631 140.354 760.419C141.68 745.684 139.339 725.42 138.74 710.073C138.002 691.145 138.931 671.611 136.103 652.857ZM150.627 663.344C149.827 679.256 149.36 746.75 154.428 757.846L155.457 758.354C155.702 740.743 153.871 722.91 153.081 705.302C152.632 695.301 152.953 671.632 150.627 663.344Z"/><path fill="#231F20" d="M377.372 244.129C375.481 242.164 373.076 239.782 371.993 237.276C374.349 238.783 376.146 241.187 377.996 243.264C387.889 252.58 401.375 259.384 415.236 258.976C423.518 258.732 429.897 256.149 437.622 253.583C432.369 259.545 426.527 260.871 419.026 262.2C415.851 270.887 415.772 280.492 415.315 289.645C415.563 310.403 418.804 330.768 421.295 351.321C423.223 367.22 424.271 383.999 428.426 399.483C433.447 418.195 442.025 436.597 459.472 446.615C466.136 450.442 473.2 453.025 480.526 455.241C486.309 456.989 492.608 458.704 498.689 458.818C513.622 459.097 539.468 447.421 554.69 443.303L555.303 443.142C549.649 450.279 543.046 456.232 536.566 462.576C527.086 471.823 517.73 481.195 508.499 490.69C508.498 497.133 508.936 521.751 506.928 525.773L506.213 525.727C503.91 522.015 503.812 517.15 503.372 512.898C500.805 514.217 498.254 515.786 495.904 517.46C485.767 524.682 483.992 534.541 482.054 546.018C485.066 547.765 488.109 549.5 490.784 551.747C492.471 553.164 495.286 555.464 495.495 557.769L494.824 557.997C489.96 557.483 485.616 553.823 481.572 551.255C481.495 552.187 481.43 553.119 481.376 554.053C480.522 568.847 484.951 582.284 494.804 593.385C513.53 586.714 529.643 571.595 542.374 556.781C537.55 557.943 532.531 559.475 527.612 560.079C525.802 560.302 523.877 560.528 522.406 559.376C522.465 559.251 522.508 559.117 522.583 559C525.308 554.704 542.14 552.041 547.336 551.258C551.318 546.749 554.28 541.786 556.977 536.426C565.856 518.778 564.223 505.133 566.069 486.235C567.27 473.931 569.16 461.941 571.213 449.771C571.793 446.336 571.569 439.717 572.468 436.911C572.616 436.45 593.813 416.303 596.393 413.315C600.929 408.063 604.621 402.609 607.513 396.302C605.943 394.88 604.494 393.521 604.285 391.304C605.883 388.96 610.991 390.315 613.642 390.248C621.482 390.048 629.37 386.926 635.629 382.282C641.809 377.696 647.269 370.847 648.278 363.006C649.084 356.749 647.748 350.364 643.776 345.372C640.289 340.988 635.207 337.906 629.565 337.468C620.687 336.779 613.259 341.836 607.301 347.877C605.59 349.612 604.31 351.626 602.426 353.201C602.233 353.048 601.999 352.935 601.845 352.742C601.806 352.693 601.054 351.27 601.038 351.155C600.745 349.04 603.868 343.519 604.764 341.346C607.298 335.207 609.551 329.003 610.595 322.417C613.149 306.311 601.093 300.662 602.499 291.634C603.457 285.485 610.777 282.083 615.387 278.803C614.195 278.072 612.776 277.359 611.871 276.274C609.145 273.002 617.473 268.308 617.585 264.116C617.672 260.855 615.673 258.27 613.631 255.955C610.229 254.736 606.516 254.377 603.274 252.775C604.102 251.777 604.99 250.843 605.847 249.872C607.384 248.13 609.34 245.531 608.882 243.045C607.092 233.345 574.641 241.925 572.242 240.429C575.055 236.166 579.83 233.331 582.89 229.174C584 227.666 584.643 226.473 584.352 224.592C583.828 224.157 583.784 224.077 583.094 223.74C573.522 219.066 537.492 236.782 526.154 240.435C527.386 237.262 528.786 234.295 530.376 231.285C520.803 235.753 512.509 241.43 503.673 247.123C499.409 246.263 495.5 244.809 491.732 242.645C481.3 236.655 475.062 225.825 472.124 214.413C465.87 190.118 472.26 159.001 484.839 137.665C491.167 126.93 499.188 118.014 511.579 114.805C494.988 125.087 485.386 140 479.299 158.396C472.375 179.324 469.481 204.771 479.915 225.04C484.805 234.539 492.269 240.731 502.425 244.041C509.15 240.839 527.83 225.867 534.224 226.158C535.119 228.617 532.33 233.572 531.351 235.955C545.502 228.936 560.52 221.59 576.4 219.737C579.827 219.337 584.25 219.134 587.055 221.531C588.137 222.454 588.568 223.485 588.601 224.909C588.69 228.826 583.971 233.364 581.575 236.097C589.465 235.318 600.3 234.42 607.651 238.038C609.556 238.975 611.301 240.483 611.864 242.604C612.69 245.718 611.077 248.516 609.677 251.172C611.232 254.362 618.731 254.498 620.91 260.157C623.578 267.086 617.993 269.701 615.747 274.98C616.293 275.974 616.883 276.933 617.477 277.898C618.24 284.232 608.313 285.213 606.865 290.795C605.511 296.016 610.532 302.636 612.929 307.024C618.065 316.423 616.296 327.015 613.44 336.832C618.14 334.466 622.673 332.767 628.018 332.896C634.958 333.062 641.328 336.112 645.948 341.269C652.536 348.625 652.839 356.193 652.411 365.506C685.174 335.884 702.211 301.662 722.06 263.179C713.985 261.732 704.95 260.082 697.951 255.527C696.339 254.478 694.914 253.016 694.577 251.054C693.537 244.992 708.313 231.717 712.213 226.064L712.734 225.303C708.436 227.871 692.694 239.762 688.762 238.805C685.226 237.944 682.074 229.286 680.665 226.159C673.592 210.678 664.278 196.324 653.022 183.558C613.208 138.136 562.32 93.6489 499.036 89.721C472.95 88.102 444.525 94.0906 424.619 111.887C410.947 124.11 404.246 142.971 403.327 160.987C402.147 184.13 414.054 199.254 428.75 215.427C417.468 208.037 408.393 197.737 403.434 185.101C396.523 167.488 399.989 146.158 407.467 129.312C416.482 109.001 431.806 97.5604 452.265 89.7187C488.074 75.993 537.463 86.0981 571.564 101.601C610.69 119.388 655.612 155.616 678.745 192.086C685.147 202.178 689.628 212.868 693.769 224.016C699.478 220.771 705.037 217.351 710.582 213.835C714.773 211.177 719.115 207.969 723.702 206.084C725.484 205.352 727.664 204.696 729.503 205.6C730.482 206.081 730.943 207.222 731.137 208.234C732.913 217.524 715.824 241.455 710.215 248.717C714.535 249.772 731.481 252.338 733.144 255.591C734.123 257.507 733.185 260.253 732.49 262.134C714.879 309.806 680.953 370.587 632.834 392.909C637.035 396.091 652.933 406.985 653.732 411.686C653.865 412.465 653.447 412.625 652.986 413.172C647.493 414.857 637.696 410.706 632.244 409.122C633.789 412.652 637.569 419.446 636.907 423.318C636.771 424.111 636.441 424.141 635.851 424.582C628.308 425.756 611.181 415.558 604.687 411.502C596.292 420.852 587.448 428.586 577.946 436.727C577.009 442.884 575.762 449.025 574.66 455.156C585.361 458.452 597.131 459.888 608.124 463.188C626.181 468.732 643.682 475.943 660.403 484.729C668.811 489.213 676.939 494.274 685.222 498.986C701.147 488.173 758.908 452.546 775.34 450.888C778.223 450.597 780.323 451.009 782.518 452.948C788.042 457.826 793.927 468.55 798.311 474.877C801.925 480.093 805.88 485.05 809.893 489.962C812.698 493.394 821.965 502.581 823.15 506.004C824.55 510.048 821.874 526.277 822.397 532.237L822.476 533.086C828.854 535.498 837.886 538.529 841.577 544.762C845.209 550.895 841.377 558.705 841.091 565.28C837.645 637.145 827.418 708.523 810.547 778.465C831.285 779.263 852.198 778.36 872.964 778.612C896.956 778.903 920.954 780.373 944.932 781.271C953.124 781.578 973.28 781.055 980.269 783.352L980.016 783.82C966.998 786.498 952.494 785.359 939.213 785.588C913.966 786.024 888.918 786.19 863.67 785.588C845.725 785.16 827.435 785.072 809.854 781.164C800.18 818.764 781.616 854.543 761.365 887.441C759.609 890.295 758.146 895.997 755.72 897.952C755.513 897.926 755.301 897.921 755.097 897.873C751.127 896.949 746.08 891.873 742.931 889.293C733.835 881.841 725.676 873.016 718.068 864.078C708.433 852.936 699.542 841.171 691.454 828.86C681.294 813.138 672.412 796.483 662.673 780.483C659.052 791.139 654.967 801.816 650.33 812.076C640.49 833.848 627.554 858.048 622.086 881.318C624.942 884.55 635.75 892.694 635.532 896.788C635.302 901.141 627.054 906.695 623.892 909.357C625.042 913.924 630.313 923.378 628.57 927.882C628.147 928.974 627.371 929.527 626.26 929.817C625.426 930.035 624.24 929.818 623.532 929.4C620.181 927.422 619.057 920.561 618.142 917.075C610.151 918.999 602.595 921.823 594.441 923.419C573.481 927.521 551.905 929.116 530.604 930.396C508.855 931.703 486.886 932.668 465.119 931.277C461.548 931.049 458.887 932.934 455.517 932.945C447.906 932.969 433.719 928.86 426.197 926.55C431.678 940.673 442.062 956.716 444.917 971.396C445.425 974.009 445.821 977.784 443.965 980.005C443.2 980.92 442.097 981.4 440.908 981.355C434.746 981.122 426.368 967.865 422.257 963.387C422.623 967.003 424.244 974.882 421.537 977.638C420.363 978.833 418.983 979.37 417.326 979.323C407.523 979.048 377.225 945.355 370.144 937.163C365.128 931.36 360.646 924.7 355.157 919.375L354.648 918.888C350.638 922.043 343.091 928.786 337.928 929.22C336.702 929.323 336.332 929.137 335.465 928.245C329.019 921.614 274.213 808.694 270.316 795.405C268.956 790.768 270.065 783.843 270.016 778.968C245.853 778.723 221.66 779.177 197.503 778.879C166.779 778.499 136.014 777.314 105.297 776.483L105.23 777.088L105.112 778.016C104.926 779.538 104.928 780.601 103.879 781.827L103.021 781.709C101.625 780.063 101.286 778.128 100.744 776.088C99.4735 776.001 98.2041 775.903 96.9357 775.794C93.445 775.491 77.9861 774.269 75.8349 771.703C79.1231 769.787 95.6013 771.637 100.199 771.808C98.0949 745.988 98.203 719.76 98.0139 693.866C97.8702 674.178 97.2098 654.427 97.8972 634.748C98.0422 630.598 99.2848 614.311 98.524 611.779C98.3484 611.195 97.7261 610.392 97.4219 609.819L98.0546 609.304C107.678 607.37 137.4 606.916 146.509 610.571L146.668 611.136C139.056 615.41 109.715 612.004 99.4398 611.437C100.209 619.174 100.005 627.09 100.213 634.864C100.605 649.236 101.076 663.606 101.628 677.973C102.934 709.329 105.726 740.677 106.372 772.037C120.908 772.206 135.444 772.107 149.977 772.488C162.134 772.807 174.338 773.66 186.497 773.479C186.189 758.136 183.926 742.606 182.793 727.283C181.503 709.837 181.108 692.293 180.167 674.823C178.193 638.136 175.864 601.909 180.778 565.31C177.222 566.219 172.358 568.005 168.686 567.488C166.139 562.9 167.515 532.024 167.059 524.177C164.126 525.285 161.066 525.672 157.984 526.156C157.755 534.219 158.2 542.457 158.698 550.513C159.062 556.384 160.466 563.661 159.333 569.446C159.178 570.24 159.341 570.363 158.721 570.67C156.185 571.924 149.611 569.703 146.706 569.116C146.785 583.026 150.076 597.095 145.399 610.624C144.059 600.824 140.632 576.059 141.779 567.114C141.933 565.916 142.181 565.458 143.224 564.78C145.821 563.09 151.394 564.388 154.279 564.793C152.292 525.798 151.656 486.745 152.372 447.706C152.424 441.789 151.553 427.808 153.103 422.763L153.909 422.79C154.857 423.806 154.962 424.758 155.15 426.083C156.642 436.596 156.378 447.914 156.832 458.552C157.678 478.913 158.677 499.268 159.83 519.614C162.832 519.481 167.113 518.783 169.757 520.406C172.483 527.437 172.022 552.733 173.942 563.02L174.067 563.663C177.244 562.984 180.889 561.779 184.022 563.074C184.845 564.416 184.556 566.868 184.54 568.46C184.316 590.414 182.171 612.316 183.923 634.301C188.335 634.702 192.646 635.911 196.869 637.196C197.232 644.789 196.502 652.578 196.462 660.204C212 657.516 227.066 660.457 242.527 661.179C243.233 668.741 242.942 676.468 242.979 684.059C243.038 695.163 243.173 706.266 243.383 717.369C248.57 717.421 253.817 718.213 258.987 718.648C267.091 719.332 275.279 719.766 283.323 720.973C284.64 711.575 283.923 701.314 283.936 691.816L283.963 638.288C283.96 630.744 282.627 620.237 285.142 613.177C287.953 611.049 331.263 616.529 337.715 617.21C337.135 624.986 337.926 633.066 338.267 640.858C344.865 633.072 350.306 624.156 356.572 616.092C358.902 613.094 362.298 610.233 364.166 606.981C369.466 597.75 372.785 587.658 379.552 579.229C387.777 568.986 399.589 560.646 409.675 552.281C401.819 545.059 366.58 527.009 355.987 523.881C349.854 522.071 339.058 529.992 333.664 532.983C341.219 524.998 353.668 517.273 363.22 511.574C402.955 487.867 439.046 474.679 483.39 462.453C474.074 459.628 464.935 456.083 456.642 450.919C432.905 436.139 427.05 416.272 420.971 390.517C417.092 391.316 414.187 391.417 410.419 389.946C404.208 387.519 399.721 382.014 397.115 376.026C392.739 365.968 393.337 353.985 397.319 343.895C400.411 336.062 405.478 331.021 413.238 327.701C411.627 313.702 410.581 299.169 411.728 285.106C412.517 277.297 413.863 269.647 415.277 261.932C415.132 261.933 414.987 261.936 414.842 261.935C399.345 261.856 388.029 254.898 377.372 244.129ZM416.844 363.101C416.132 363.354 415.423 363.61 414.744 363.944C407.599 367.458 413.167 372.533 411.726 376.965C411.548 376.952 411.368 376.959 411.192 376.928C409.613 376.648 408.041 375.444 407.156 374.129C406.04 372.47 405.807 370.418 406.208 368.489C406.745 365.915 408.259 363.509 410.493 362.076C412.616 360.715 414.598 360.462 417.003 361.051C416.835 359.51 416.69 357.923 416.135 356.464C415.489 354.765 411.993 350.079 413.015 348.543C413.204 348.693 413.392 348.846 413.584 348.994C414.135 349.421 414.643 349.757 415.248 350.093C416.241 344.819 414.144 337.295 413.335 331.967C405.615 340.593 400.352 349.179 401.089 361.134C401.512 367.991 404.38 377.187 409.708 381.841C411.301 383.233 414.781 385.424 416.99 385.309C418.346 385.239 418.517 385.037 419.292 384.055C419.209 380.432 417.944 365.62 416.844 363.101ZM184.034 638.257C185.043 663.753 186.911 689.21 187.588 714.715C187.576 720.793 188.271 771.23 189.438 772.883C191.355 763.42 189.55 750.629 189.208 740.934C188.948 733.562 189.157 726.162 188.833 718.8C189.101 717.065 189.173 715.43 190.314 714.017C192.138 713.064 194.369 713.442 196.368 713.528C196.908 704.668 196.077 695.52 195.696 686.65C195.029 671.112 194.298 655.505 194.477 639.952C190.949 639.527 187.491 639.102 184.034 638.257ZM777.102 457.106C761.461 460.445 745.039 471.293 730.924 478.945C716.892 486.552 702.38 493.843 689.328 503.055C683.466 507.193 677.532 511.625 672.049 516.252C669.118 518.726 666.419 521.462 663.441 523.885C658.292 528.074 652.65 531.81 647.236 535.66C643.23 538.509 623.698 550.825 622.501 552.841C622.417 552.982 622.366 553.139 622.299 553.288C622.97 554.378 623.519 554.686 624.774 555.02C637.208 558.322 651.045 551.125 661.147 544.615C669.555 539.197 677.82 533.494 686.06 527.824C690.848 524.529 696.608 519.589 702.024 517.518C703.139 518.095 703.206 518.219 703.57 519.443C705.773 526.866 689.588 569.687 686.169 578.47C690.604 580.761 699.457 585.7 701.84 590.037L701.779 591.008C700.62 591.863 699.287 591.723 697.908 591.765C696.978 595.213 724.267 690.362 727.716 701.686C729.968 685.12 732.763 668.635 734.883 652.051C735.626 646.243 736.667 640.254 737.003 634.414C738.313 621.912 742.354 600.95 738.23 589.373L737.328 589.521C730.507 590.671 719.342 596.289 713.195 592.019C710.789 590.348 708.999 587.65 708.641 584.725C708.126 580.516 712.599 541.966 714.362 538.745L715.056 538.447C716.614 540.024 716.214 544.254 716.206 546.387C716.182 554.131 716.01 561.874 715.692 569.611C715.507 574.194 714.962 579.08 715.258 583.64C715.323 584.635 715.406 585.199 716.063 585.992C717.371 586.608 718.418 586.756 719.869 586.709C725.886 586.515 732.136 584.668 738.189 584.041C742.084 583.638 747.471 584.332 751.112 583.018C751.268 582.961 751.414 582.879 751.565 582.81L751.796 582.029C749.029 581.228 745.146 582.702 742.806 580.718C744.73 577.012 766.179 568.384 771.032 566.811L771.967 566.516C768.974 562.324 765.616 558.852 761.674 555.544C758.617 555.497 755.511 555.625 752.527 554.894L752.104 554.291C758.937 549.56 766.167 545.533 772.961 540.638C780.646 535.1 788.004 527.462 796.429 523.268C790.505 531.698 783.613 540.058 775.887 546.883C775.883 551.297 776.523 567.927 774.096 570.604C773.548 571.209 772.63 571.7 771.915 572.057C770.525 574.613 769.056 577.127 767.51 579.592C785.572 574.33 803.55 566.374 820.233 557.71C817.161 539.669 817.203 523.585 818.916 505.397C804.656 493.524 794.338 480.286 784.224 464.822C782.974 462.911 780.276 457.05 777.874 456.992C777.614 456.985 777.359 457.068 777.102 457.106ZM573.734 459.62C573.146 463.753 572.239 467.939 571.877 472.087C587.408 477.243 620.637 509.499 627.925 524.079C629.306 526.843 630.111 529.666 630.687 532.692C628.88 538.804 625.572 542.65 621.244 547.131C630.945 540.44 641.101 534.009 650.114 526.406C656.037 521.89 661.667 517.094 667.488 512.466C671.206 509.51 675.189 506.857 678.757 503.72C646.028 484.939 609.315 471.949 573.734 459.62ZM494.392 465.574C473.256 473.4 451.486 479.297 430.332 487.153C405.631 496.325 382.983 507.512 359.636 519.49C386.359 527.592 419.399 548.211 432.577 573.18C437.402 582.323 441.578 594.591 443.416 604.784C435.803 586.493 429.763 572.123 415.568 557.387C405.75 565.388 395.112 574.372 387.078 584.148C378.984 593.996 374.544 606.796 367.424 617.439C363.595 623.163 359.3 628.57 355.424 634.265C322.178 683.107 289.224 732.39 273.292 790.017C278.645 797.458 283.56 808.901 287.906 817.282C300.147 840.851 311.965 864.637 323.356 888.627C329.546 877.151 335.83 863.523 345.111 854.279C349.112 850.294 353.932 846.929 358.402 843.482C364.259 838.965 370.295 834.441 376.701 830.719C372.669 822.597 354.771 791.616 349.243 786.287C347.386 784.497 344.349 783.253 341.922 782.42C332.113 779.051 322.954 779.506 312.82 780.412C324.304 774.094 330.263 771.919 343.54 771.931C334.608 768.442 327.583 765.913 317.808 767.02C325.662 762.897 334.046 760.726 342.802 763.364C349.563 765.4 354.604 770.293 359.087 775.516C368.633 761.928 379.559 754.853 390.884 743.605C395.843 737.924 400.425 731.987 405.617 726.507C397.576 689.866 392.025 652.722 389.001 615.332C388.135 605.21 386.472 593.212 387.931 583.147C390.348 597.948 391.237 613.084 393.013 627.981C398.619 675.026 405.77 725.215 423.227 769.428C415.847 760.3 412.803 747.124 408.291 736.397C407.483 756.178 406.235 775.801 406.466 795.622C406.707 816.32 408.452 837.052 408.44 857.763C412.118 854.055 418.766 845.618 424.065 845.381C424.98 845.34 424.724 845.305 425.403 846.027C428.944 849.79 441.375 877.059 444.863 883.816C451.133 895.959 457.854 907.815 464.269 919.873C470.356 920.731 476.485 921.082 482.626 921.285C482.126 902.859 480.069 884.238 478.731 865.838C477.856 853.808 477.928 841.422 476.238 829.488C475.57 824.768 472.771 820.447 471.691 815.777C467.994 799.401 464.612 782.957 461.548 766.451C456.985 741.538 454.045 715.526 452.274 690.268C450.043 658.442 448.077 587.454 461.179 559.26L460.632 558.733C454.796 553.163 424.75 530.166 424.721 522.652C424.713 520.688 427.563 518.397 428.947 517.327C434.047 513.386 440.271 510.162 445.819 506.836C464.582 495.382 484.064 485.148 504.142 476.196C503.899 473.18 504.102 469.127 501.578 466.999C499.797 465.498 496.6 465.534 494.392 465.574ZM697.417 525.507C680.781 539.573 652.575 564.755 629.831 562.775C625.471 562.395 619.627 561.195 616.813 557.513C615.966 556.405 615.577 554.911 615.788 553.533C615.945 552.513 616.415 551.716 616.91 550.836L616.425 550.563C603.937 556.911 590.973 562.02 577.893 567.048C570.874 569.746 563.955 572.745 556.651 574.605C562.573 586.929 570.223 597.33 575.484 610.333C568.319 616.181 561.52 622.839 556.581 630.728C549.441 642.134 545.149 655.864 539.79 668.209C524.897 702.472 510.936 737.133 497.922 772.153C493.63 784.003 489.431 795.886 485.326 807.802C483.274 813.792 481.63 820.003 479.18 825.842L479.258 826.425L479.577 825.903C479.58 826.05 479.571 826.199 479.587 826.345C479.683 827.253 479.685 826.991 480.1 827.916C481.468 830.966 481.597 845.54 481.931 850.063L485.867 899.764C486.451 906.949 486.645 914.274 487.485 921.421C532.323 921.335 571.247 919.399 615.764 911.651C617.079 906.708 618.921 902.173 620.989 897.509C616.17 892.513 610.335 887.527 610.497 880.084C610.518 879.119 610.665 879.509 610.245 878.878C608.404 882.972 603.452 900.296 600.491 902.019L599.439 902.105C598.512 901.123 598.308 900.664 598.334 899.287C598.619 884.295 632.51 820.671 640.874 801.654C646.814 788.151 651.331 774.615 655.997 760.647C654.9 758.182 653.905 755.567 652.577 753.221L651.878 753.055C649.707 752.519 647.75 751.851 645.749 750.85C640.491 748.221 635.762 744.768 630.656 741.898C625.662 739.09 618.717 737.545 614.729 733.391C614.088 731.515 614.231 729.973 615.133 728.186C616.043 726.386 617.494 725.43 619.394 724.915C625.213 723.338 633.886 726.409 638.9 729.476C643.218 732.117 646.356 736 649.245 740.087C655.584 749.054 660.406 759.203 665.748 768.786C674.854 785.119 684.377 801.718 695.108 817.046C711.945 841.096 730.682 862.139 754.206 879.76C776.199 842.992 787.397 801.937 799.434 761.216C807.145 735.132 815.413 709.225 821.355 682.659C825.206 665.438 827.81 647.566 829.876 630.044C830.935 621.057 832.245 611.916 832.605 602.88C834.428 586.786 834.243 570.456 835.377 554.297C818.203 565.978 787.573 581.765 767.894 587.422C760.802 589.46 753.709 590.702 746.318 590.568C748.038 599.518 749.004 610.604 753.597 618.578C773.974 618.165 796.003 606.464 813.117 595.851C819.448 591.926 825.401 587.023 832.608 584.901C820.33 600.259 782.766 626.127 763.618 628.213C757.213 628.91 750.906 628.389 744.641 626.969C743.96 638.574 741.322 650.035 739.179 661.438C736.363 676.772 733.459 692.09 730.467 707.391C726.183 729.182 723.024 751.499 717.907 773.071C717.527 774.673 717.25 776.479 716.007 777.641C714.525 778.274 713.868 778.387 712.267 778.204C710.546 777.217 709.972 776.009 709.509 774.156C706.644 762.695 710.92 742.192 715.062 731.049L714.571 731.616C707.712 739.611 703.651 756.161 700.695 766.384C700.149 768.27 700.062 770.436 699.245 772.222C698.716 773.379 698.14 773.663 697.118 774.338C696.427 774.362 695.819 774.577 695.251 774.101C692.758 772.013 692.246 764.889 692.238 761.696C692.199 746.46 702.086 718.316 712.856 707.615C714.934 705.55 717.311 704.064 719.848 702.627C715.821 688.129 712.338 673.438 708.153 658.997C701.356 635.542 693.751 612.323 686.832 588.898C677.311 603.441 666.7 617.219 657.317 631.837C648.563 645.475 640.74 659.801 632.467 673.74C623.325 689.145 613.827 704.421 605.209 720.125C597.032 735.024 589.658 750.355 582.142 765.593C576.815 776.392 571.286 787.141 566.535 798.209C561.586 809.739 557.658 821.627 553.217 833.352C553.815 824.665 557.156 815.978 560.077 807.822C576.764 761.227 603.213 718.714 628.153 676.198C646.102 645.599 663.673 615.225 683.677 585.869C682.256 584.261 680.792 582.677 679.42 581.028C682.199 568.852 685.694 556.375 690.143 544.689C692.114 539.512 696.682 530.83 697.773 526.049L697.417 525.507ZM488.568 598.572C485.048 599.912 482.988 601.419 481.465 604.956C480.097 608.134 479.824 612.001 481.192 615.23C481.995 617.123 483.735 619.035 485.716 619.719C486.866 620.117 488.251 620.014 489.456 620.002C493.373 618.007 495.82 615.589 497.098 611.276C497.926 608.479 497.999 605.104 496.515 602.504C495.518 600.759 493.772 599.376 491.827 598.848C490.78 598.564 489.645 598.578 488.568 598.572ZM318.129 631.508C318.035 635.086 318.142 638.42 318.613 641.968C321.272 641.949 323.657 641.782 326.28 641.269C326.92 638.13 326.679 634.68 326.672 631.477L318.129 631.508ZM302.521 649.606C302.333 652.53 301.022 658.72 303.254 660.95C304.219 661.914 306.794 661.579 308.065 661.524C308.133 658.62 309.238 652.423 307.116 650.277C306.129 649.28 303.844 649.567 302.521 649.606ZM323.36 652.114C323.267 655.082 322.816 658.539 323.596 661.4L324.368 662.015C325.872 661.548 326.577 660.377 327.509 659.193C329.128 656.89 330.619 654.687 331.857 652.148C329.024 652.099 326.194 652.028 323.36 652.114ZM316.378 669.208C314.421 669.283 313.317 669.072 311.657 670.16C310.311 672.526 310.685 673.899 311.397 676.484C311.669 677.47 311.541 677.132 312.123 677.985C314.151 677.564 315.518 677.377 316.757 675.544C317.554 674.365 318.265 672.781 318.074 671.313C317.948 670.345 317.55 669.889 316.821 669.303L316.378 669.208ZM205.388 672.635C204.289 676.383 204.921 681.449 204.965 685.381L211.37 685.437C211.854 681.188 211.353 676.782 211.522 672.502L205.388 672.635ZM219.935 689.003C219.9 691.796 219.916 694.59 219.668 697.374C219.488 699.396 219.749 700.722 220.891 702.43C222.305 703.476 224.283 703.135 225.969 703.077C225.923 699.091 226.99 692.77 224.497 689.478C223.01 688.723 221.548 688.935 219.935 689.003ZM197.265 720.874C197.469 722.466 197.358 723.622 198.378 724.888C211.479 727.529 225.612 727.888 238.955 729.324L265.61 732.269C269.092 732.619 272.838 733.252 276.33 733.217C278.777 733.193 281.452 732.034 283.889 731.616L284.798 730.79L284.738 729.552C283.459 728.409 281.278 728.277 279.614 728.045C265.097 726.027 250.124 725.609 235.505 724.466C222.752 723.468 210.014 721.748 197.265 720.874ZM196.388 741.945L196.657 744.516C200.769 746.773 254.806 748.576 262.162 748.489C262.186 746.758 262.414 745.791 261.546 744.267C255.335 743.041 248.268 743.424 241.912 743.201L196.388 741.945ZM371.842 782.17C370.282 783.199 368.373 784.137 367.529 785.865C367.605 786.085 367.687 786.303 367.758 786.525C368.344 788.368 368.292 789.175 367.667 790.944C367.404 791.085 367.139 791.222 366.878 791.366C365.827 791.944 366.222 791.67 365.407 792.386C367.437 797.276 371.339 802.011 374.173 806.522C380.506 816.599 386.583 826.826 393.227 836.704C394.308 838.382 395.332 840.166 396.561 841.737C396.194 822.07 395.526 802.253 396.734 782.599C388.442 782.241 380.141 781.779 371.842 782.17ZM377.154 834.261C367.177 842.674 360.735 851.956 352.382 861.734C349.676 864.901 345.579 868.247 343.689 871.955C338.6 881.943 335.877 892.939 331.995 903.395C332.969 905.315 333.902 907.273 334.984 909.135L338.867 902.248C352.309 880.173 369.191 865.022 389.546 849.504C387.383 846.997 379.116 834.912 377.154 834.261ZM422.444 854.3L421.879 854.821C416.401 859.914 400.764 880.052 394.836 880.588C393.611 880.033 393.676 880.006 393.134 878.763C393.543 874.447 397.871 870.161 400.517 866.87C393.2 866.34 387.142 865.166 380.14 862.883C367.774 874.218 359.812 886.815 351.269 901.042C368.327 919.767 383.272 940.26 400.079 959.17C405.301 965.045 410.574 971.526 416.643 976.544C415.572 970.882 410.406 957.884 411.623 952.948C408.075 944.77 382.751 914.282 382.652 909.268C383.379 908.01 383.605 907.799 384.847 907.04C386.569 906.992 387.576 907.482 388.798 908.636C390.679 910.412 392.247 912.679 393.821 914.731C400.653 923.574 429.911 971.614 438.251 974.047L438.732 973.521C437.65 968.82 435.118 964.185 433.358 959.669C425.033 938.317 414.566 917.868 405.963 896.66C408.924 890.998 412.896 886.494 418.885 883.907L419.247 884.365C422.182 888.146 424.522 892.345 427.254 896.271C433.283 904.934 440.795 913.127 449.015 919.753C451.009 921.36 453.71 923.888 456.281 924.289C457.045 923.344 457.567 923.012 457.4 921.717C456.347 913.535 439.309 884.856 434.817 876.316C431.117 869.282 427.869 861.173 423.256 854.715L422.444 854.3ZM429.272 912.681C428.755 914.207 428.398 914.454 429.098 915.962C430.944 917.594 433.759 918.001 436.112 918.584C435.833 916.909 433.917 915.562 432.56 914.583C431.522 913.834 430.475 913.132 429.272 912.681Z"/><path fill="#231F20" d="M410.645 293.061C408.39 295.647 405.282 297.182 401.963 297.962C393.61 299.926 383.925 297.148 376.867 292.568C362.104 282.989 351.782 262.599 348.222 245.824C341.807 215.599 345.862 180.413 362.94 154.293C370.192 143.202 379.403 136.355 392.448 133.616C394.455 133.41 396.791 133.27 398.797 133.459C400.469 133.617 401.921 134.726 402.939 135.996L402.329 135.922C402.049 135.89 401.768 135.866 401.489 135.828C396.395 135.145 388.815 138.506 384.394 141.025C370.02 149.216 359.819 166.892 355.602 182.454C348.613 208.251 350.128 242.338 363.576 265.745C370.811 278.338 382.312 287.501 396.973 289.326C400.783 289.8 404.91 288.742 408.581 289.741C409.772 290.577 410.024 291.279 410.486 292.593C410.541 292.748 410.592 292.905 410.645 293.061Z"/><path fill="#231F20" d="M824.088 295.691C825.518 289.439 826.029 283.009 827.046 276.682C829.701 260.316 832.197 243.925 834.531 227.511C835.54 220.282 835.75 212.387 837.642 205.36C838.576 210.799 836.823 220 836.316 225.775C834.918 241.685 832.934 258.123 832.686 274.072C832.585 280.537 833.093 292.466 838.047 297.227C844.041 302.987 867.135 293.554 874.73 292.193C881.588 290.964 888.674 290.968 895.62 290.722C883.317 293.797 871.185 297.478 858.909 300.651C851.124 302.664 843.205 304.063 835.453 306.19C830.92 317.564 829.86 331.585 828.231 343.684C825.983 354.523 825.709 365.771 823.128 376.566C822.771 362.314 825.215 334.536 819.401 322.691C816.976 317.751 813.6 315.823 808.638 314.129C803.745 315.048 799.204 317.598 794.283 318.141C793.135 317.412 793.221 317.33 792.836 316.006C793.701 313.438 797.584 312.362 799.948 311.32C809.845 306.957 815.865 302.593 824.088 295.691ZM829.266 289.25C828.802 291.08 828.55 293.224 827.902 294.975C825.478 301.534 817.678 306.692 812.097 310.339C812.647 311.12 813.12 311.277 813.945 311.685C818.207 313.796 821.522 319.484 822.932 323.827C823.825 326.575 824.237 329.578 824.668 332.427C824.908 333.596 824.841 334.732 825.793 335.494C827.808 329.864 828.307 306.169 833.831 303.693C834.63 303.335 835.619 303.158 836.472 302.953L837.014 302.145C833.938 299.314 831.801 297.087 830.434 293.002C830.021 291.769 829.82 290.421 829.266 289.25Z"/><path fill="#231F20" d="M452.194 241.318C453.015 242.259 453.919 243.222 454.636 244.247C455.396 245.332 455.531 245.988 455.367 247.268C452.617 248.281 448.983 246.278 446.437 245.106C440.785 242.504 430.508 238.054 428.222 231.901C436.699 231.296 452.074 238.4 461.024 240.555C468.364 242.321 475.323 242.51 482.812 242.228C479.233 243.44 475.843 244.086 472.104 244.523C464.624 244.743 459.298 243.71 452.194 241.318ZM435.324 235.965C440.158 239.332 445.424 242.85 451.183 244.401L448.993 240.079C444.484 238.558 439.967 237.036 435.324 235.965Z"/><path fill="#FEFEFE" d="M451.183 244.401C445.424 242.85 440.158 239.332 435.324 235.965C439.967 237.036 444.484 238.558 448.993 240.079L451.183 244.401Z"/><path fill="#231F20" d="M507.433 295.965C528.067 287.054 544.27 270.302 563.097 258.415C569.614 259.245 588.176 269.606 593.656 273.746C583.543 270.062 573.735 266.556 563.973 261.953C559.371 264.837 555.038 268.698 550.715 272.025C544.815 276.566 538.669 280.886 532.977 285.68C529.913 294.782 529.022 306.106 523.541 314.015L523.116 314.046C523.41 305.706 525.688 297.641 527.561 289.544C522.627 292.327 518.023 295.681 512.903 298.134C514.284 301.266 515.477 304.478 516.707 307.671C512.497 304.235 509.874 300.771 507.433 295.965Z"/><defs><linearGradient id="gradient_0" gradientUnits="userSpaceOnUse" x1="446.77237" y1="298.2713" x2="457.19385" y2="285.2872"><stop offset="0" stop-color="black"/><stop offset="1" stop-color="#261D1B"/></linearGradient></defs><path fill="url(#gradient_0)" d="M441.512 272.231C453.795 280.197 465.07 295.365 474.71 306.633L474.245 307.553C474.013 307.56 473.78 307.583 473.547 307.575C470.254 307.463 446.41 279.823 442.092 275.556C435.966 277.709 430.462 281.173 424.525 283.772C428.359 278.257 435.363 274.59 441.512 272.231Z"/><path fill="#231F20" d="M93.8929 317.493C105.171 303.278 125.139 289.375 143.476 287.182C147.749 286.757 153.751 286.51 157.416 289.012C159.032 290.116 160.021 291.8 160.344 293.718C161.379 299.864 156.368 305.79 153.092 310.545C157.728 308.033 162.604 305.72 167.616 304.064C172.303 302.516 178.783 300.941 183.35 303.437C185.805 304.778 187.04 307.064 187.71 309.707C188.952 314.613 186.875 318.493 184.508 322.61C190.038 322.15 196.405 321.134 201.856 322.348C203.868 322.797 205.654 323.453 206.715 325.351C207.607 326.946 207.895 329.277 207.243 331.01C206.751 332.316 206.073 332.694 204.9 333.329C202.812 333.111 203.029 328.402 200.143 326.9C193.191 323.283 181.133 330.197 174.524 332.01C173.378 331.544 173.233 331.268 172.475 330.267C171.943 326.384 178.151 321.819 180.315 318.48C181.569 316.545 183.48 313.271 182.718 310.857C182.364 309.736 181.586 308.946 180.58 308.376C177.628 306.703 175.027 307.133 171.897 307.934C165.124 310.061 148.258 319.405 143.502 319.542L142.345 318.445C140.921 313.192 152.481 303.403 154.553 298.073C154.98 296.974 155.301 295.684 154.639 294.609C153.521 292.793 151.613 291.896 149.571 291.571C134.477 289.168 106.194 308.373 93.8929 317.493Z"/><path fill="#FEFEFE" d="M824.668 332.427C824.237 329.578 823.825 326.575 822.932 323.827C821.522 319.484 818.207 313.796 813.945 311.685C813.12 311.277 812.647 311.12 812.097 310.339C817.678 306.692 825.478 301.534 827.902 294.975C828.55 293.224 828.802 291.08 829.266 289.25C829.82 290.421 830.021 291.769 830.434 293.002C831.801 297.087 833.938 299.314 837.014 302.145L836.472 302.953C835.619 303.158 834.63 303.335 833.831 303.693C828.307 306.169 827.808 329.864 825.793 335.494C824.841 334.732 824.908 333.596 824.668 332.427Z"/><path fill="#231F20" d="M474.71 306.633C475.454 303.967 476.177 297.644 478.451 296.207C479.95 298.865 478.856 304.037 478.021 306.946C477.683 308.125 477.323 309.081 476.664 310.108L475.698 310.547C474.588 309.62 474.615 308.925 474.245 307.553L474.71 306.633Z"/><path fill="#231F20" d="M448.626 323.953C440.493 321.398 432.208 316.009 426.77 309.399C424.964 307.204 423.485 305.408 423.768 302.472C428.56 304.159 433.426 307.108 438.156 309.169C447.309 313.158 456.804 316.634 465.746 321.066C467.042 321.709 468.746 322.345 469.497 323.624C468.993 325.412 466.784 325.246 466.571 326.896C466.383 328.349 466.954 330.752 467.09 332.269C467.681 338.912 467.242 344.099 465.188 350.463C465.089 350.591 464.991 350.72 464.89 350.847C463.332 352.807 460.861 355.087 458.174 355.099C456.564 355.107 455.327 354.153 454.31 353.008C447.679 345.536 448.013 333.206 448.626 323.953ZM455.953 328.181C455.041 331.142 454.013 335.431 455.681 338.305C456.069 338.975 456.054 338.843 456.746 339.248C457.958 336.23 458.687 333.079 457.35 329.954C456.979 329.085 456.694 328.775 455.953 328.181Z"/><path fill="#231F20" d="M546.055 320.597C541.786 320.939 523.328 321.018 521.551 321.858C520.9 322.167 520.487 322.332 519.801 322.502C518.715 322.771 519.235 322.833 518.222 322.226C518.091 320.845 518.931 319.297 519.791 318.252C520.465 317.433 520.893 316.985 521.92 316.692C526.97 315.249 533.703 315.315 538.98 314.78C555.284 313.127 571.633 311.926 587.927 310.209C588.908 310.085 589.352 310.16 590.294 310.369L590.414 311.212C589.256 312.694 587.714 313.468 586.116 314.415C586.477 329.323 576.847 338.179 567.513 348.287C565.942 349.989 564.811 352.11 563.215 353.758C561.921 355.094 559.322 355.585 557.511 355.537C555.118 355.474 553.129 354.424 551.497 352.698C545.587 346.448 545.339 336.125 545.51 328.088L546.055 320.597ZM580.302 316.134L568.077 318.417C569.045 323.35 570.053 328.291 570.327 333.323C570.46 335.779 569.7 338.854 570.199 341.131C573.798 336.235 583.452 323.057 582.217 316.889C582.179 316.701 582.095 316.525 582.035 316.344C580.832 315.942 581.413 315.979 580.302 316.134ZM553.026 329.355C552.961 331.84 552.362 335.711 554.249 337.623C554.799 338.18 555.475 338.196 556.203 338.381C556.544 335.49 557.296 332.635 555.832 329.962C554.868 329.456 554.102 329.422 553.026 329.355Z"/><path fill="#FEFEFE" d="M568.077 318.417L580.302 316.134C581.413 315.979 580.832 315.942 582.035 316.344C582.095 316.525 582.179 316.701 582.217 316.889C583.452 323.057 573.798 336.235 570.199 341.131C569.7 338.854 570.46 335.779 570.327 333.323C570.053 328.291 569.045 323.35 568.077 318.417Z"/><path fill="#FEFEFE" d="M456.746 339.248C456.054 338.843 456.069 338.975 455.681 338.305C454.013 335.431 455.041 331.142 455.953 328.181C456.694 328.775 456.979 329.085 457.35 329.954C458.687 333.079 457.958 336.23 456.746 339.248Z"/><path fill="#FEFEFE" d="M556.203 338.381C555.475 338.196 554.799 338.18 554.249 337.623C552.362 335.711 552.961 331.84 553.026 329.355C554.102 329.422 554.868 329.456 555.832 329.962C557.296 332.635 556.544 335.49 556.203 338.381Z"/><path fill="#FEFEFE" d="M417.003 361.051C414.598 360.462 412.616 360.715 410.493 362.076C408.259 363.509 406.745 365.915 406.208 368.489C405.807 370.418 406.04 372.47 407.156 374.129C408.041 375.444 409.613 376.648 411.192 376.928C411.368 376.959 411.548 376.952 411.726 376.965C413.167 372.533 407.599 367.458 414.744 363.944C415.423 363.61 416.132 363.354 416.844 363.101C417.944 365.62 419.209 380.432 419.292 384.055C418.517 385.037 418.346 385.239 416.99 385.309C414.781 385.424 411.301 383.233 409.708 381.841C404.38 377.187 401.512 367.991 401.089 361.134C400.352 349.179 405.615 340.593 413.335 331.967C414.144 337.295 416.241 344.819 415.248 350.093C414.643 349.757 414.135 349.421 413.584 348.994C413.392 348.846 413.204 348.693 413.015 348.543C411.993 350.079 415.489 354.765 416.135 356.464C416.69 357.923 416.835 359.51 417.003 361.051Z"/><path fill="#231F20" d="M291.518 440.477C294.098 431.74 295.442 422.426 296.875 413.446C300.347 391.697 302.859 366.772 309.066 345.826C309.873 348.662 306.988 361.59 306.575 365.302C304.653 382.548 300.993 411.178 303.927 427.517C305.088 433.986 308.634 437.82 313.839 441.474C327.234 437.836 340.135 434.779 354.094 434.357C342.269 439.021 321.217 442.461 312.082 450.441C299.789 461.179 300.023 498.84 299.193 514.876C299.129 518.275 298.649 521.638 298.234 525.008C296.839 507.323 298.09 487.519 292.133 470.552C289.381 462.714 285.352 456.69 277.71 453.021C271.867 455.986 266.045 458.748 259.793 460.748C268.258 451.694 280.394 445.612 291.518 440.477ZM298.232 428.373C297.182 432.966 296.27 437.649 294.942 442.168C291.036 445.975 285.679 448.024 280.801 450.316C289.654 455.196 292.918 461.737 296.032 471.011C296.42 472.138 296.677 473.892 297.672 474.536C298.435 471.293 298.682 468.003 299.281 464.735C300.7 456.986 305.459 451.11 309.945 444.905C304.588 440.095 300.979 436.37 298.853 429.355C298.644 428.664 298.761 428.914 298.232 428.373Z"/><path fill="#231F20" d="M619.442 356.461C622.982 353.771 626.268 352.011 630.476 350.562C632.365 350.955 634.246 351.192 635.869 352.301L635.668 352.757L630.284 354.588C627.387 355.555 625.039 357.218 622.513 358.896L622.897 359.063C623.109 359.158 623.319 359.258 623.532 359.351C624.356 359.713 625.204 360.039 625.966 360.524C628.564 362.178 630.58 365.802 631.243 368.739C632.073 372.42 631.469 376.307 629.323 379.44C626.378 383.74 622.577 384.825 617.756 385.696C616.07 384.495 615.699 383.608 615.134 381.693C615.282 380.709 615.421 380.075 615.974 379.219C618.093 375.937 622.927 375.538 626.307 374.499C627.204 374.223 627.253 374.165 627.63 373.287C628.395 371.505 628.238 369.395 627.496 367.627C626.786 365.908 625.352 364.592 623.579 364.032C621.093 363.243 618.945 364.648 616.765 365.69C617.425 362.547 618.46 359.514 619.442 356.461Z"/><defs><linearGradient id="gradient_1" gradientUnits="userSpaceOnUse" x1="492.28357" y1="359.95523" x2="475.20856" y2="382.89941"><stop offset="0" stop-color="#030300"/><stop offset="1" stop-color="#302B2C"/></linearGradient></defs><path fill="url(#gradient_1)" d="M478.104 378.096C484.722 371.554 486.245 366.502 490.713 358.756L491.222 357.888C491.956 358.836 491.955 358.977 491.883 360.196C491.493 366.792 485.895 376.069 480.759 380.141C480.051 380.702 479.756 380.935 479.189 381.683C480.072 382.569 480.696 383.268 481.312 384.376L480.853 385.057C479.207 385.549 477.851 385.109 476.233 384.739C474.468 383.675 473.148 382.711 471.965 381.006C471.761 379.688 471.742 379.733 472.482 378.626C474.259 377.64 476.149 377.979 478.104 378.096Z"/><path fill="#231F20" d="M452.838 370.881L452.102 370.791L451.569 370.025C452.395 366.222 457.411 362.219 460.338 359.799L461.515 360.135C458.799 363.664 456.551 368.338 452.838 370.881Z"/><path fill="#231F20" d="M558.797 371.415C557.544 371.651 557.268 371.967 556.109 371.336C556.069 370.52 555.968 370.414 556.397 369.643C558.193 366.415 562.145 364.868 565.517 364.078C566.329 364.082 566.962 364.175 567.752 364.326L567.833 365.022C565.477 367.881 562.063 369.77 558.797 371.415Z"/><path fill="#231F20" d="M564.362 388.68C563.154 387.955 562.349 387.489 561.626 386.219L561.983 385.605C566.109 385.678 570.146 386.839 574.263 385.88C577.064 385.227 579.217 383.638 580.653 381.117C583.696 375.777 578.409 373.01 577.483 369.04C577.434 368.831 577.402 368.618 577.362 368.407C578.235 368.559 579.16 368.733 579.986 369.059C581.745 369.753 583.333 371.593 584.046 373.305C585.054 375.727 584.752 378.649 583.74 381.019C582.203 384.619 578.851 387.559 575.253 389C571.449 390.524 568.09 390.209 564.362 388.68Z"/><path fill="#231F20" d="M493.212 415.088C492.92 414.508 492.71 413.829 492.479 413.22C493.105 412.01 493.79 411.766 494.932 411.041C503.127 405.843 512.205 401.591 520.685 396.825C528.197 392.603 535.826 387.153 543.802 383.977C544.213 384.333 544.341 384.748 544.571 385.231C541.253 392.075 501.989 411.821 493.212 415.088Z"/><path fill="#231F20" d="M906.855 413.867C897.187 409.851 896.154 420.79 888.175 422.33C882.887 423.351 884.488 414.273 880.862 411.88C868.94 411.576 862.457 421.469 853.7 423.407C852.357 423.036 852.103 422.905 851.106 421.934C850.853 420.679 850.821 420.438 851.57 419.288C854.951 414.094 871.159 406.915 877.483 405.606C879.164 405.412 881.112 405.393 882.728 405.942C886.56 407.241 888.23 410.951 889.952 414.285C893.163 411.084 897.215 408.751 901.108 406.486C903.228 406.415 905.414 406.387 907.496 406.848C912.811 408.027 919.687 413.364 925.106 412.613C928.291 412.172 929.63 407.975 931.407 405.713L932.35 405.651C932.722 406.276 932.807 406.355 933.062 407.137C933.941 409.837 933.126 413.843 931.678 416.217C930.311 418.46 928.113 419.905 925.556 420.442C918.841 421.855 912.273 417.233 906.855 413.867Z"/><path fill="#FEFEFE" d="M294.942 442.168C296.27 437.649 297.182 432.966 298.232 428.373C298.761 428.914 298.644 428.664 298.853 429.355C300.979 436.37 304.588 440.095 309.945 444.905C305.459 451.11 300.7 456.986 299.281 464.735C298.682 468.003 298.435 471.293 297.672 474.536C296.677 473.892 296.42 472.138 296.032 471.011C292.918 461.737 289.654 455.196 280.801 450.316C285.679 448.024 291.036 445.975 294.942 442.168Z"/><path fill="#FEFEFE" d="M686.169 578.47C689.588 569.687 705.773 526.866 703.57 519.443C703.206 518.219 703.139 518.095 702.024 517.518C696.608 519.589 690.848 524.529 686.06 527.824C677.82 533.494 669.555 539.197 661.147 544.615C651.045 551.125 637.208 558.322 624.774 555.02C623.519 554.686 622.97 554.378 622.299 553.288C622.366 553.139 622.417 552.982 622.501 552.841C623.698 550.825 643.23 538.509 647.236 535.66C652.65 531.81 658.292 528.074 663.441 523.885C666.419 521.462 669.118 518.726 672.049 516.252C677.532 511.625 683.466 507.193 689.328 503.055C702.38 493.843 716.892 486.552 730.924 478.945C745.039 471.293 761.461 460.445 777.102 457.106C777.359 457.068 777.614 456.985 777.874 456.992C780.276 457.05 782.974 462.911 784.224 464.822C794.338 480.286 804.656 493.524 818.916 505.397C817.203 523.585 817.161 539.669 820.233 557.71C803.55 566.374 785.572 574.33 767.51 579.592C769.056 577.127 770.525 574.613 771.915 572.057C772.63 571.7 773.548 571.209 774.096 570.604C776.523 567.927 775.883 551.297 775.887 546.883C783.613 540.058 790.505 531.698 796.429 523.268C788.004 527.462 780.646 535.1 772.961 540.638C766.167 545.533 758.937 549.56 752.104 554.291L752.527 554.894C755.511 555.625 758.617 555.497 761.674 555.544C765.616 558.852 768.974 562.324 771.967 566.516L771.032 566.811C766.179 568.384 744.73 577.012 742.806 580.718C745.146 582.702 749.029 581.228 751.796 582.029L751.565 582.81C751.414 582.879 751.268 582.961 751.112 583.018C747.471 584.332 742.084 583.638 738.189 584.041C732.136 584.668 725.886 586.515 719.869 586.709C718.418 586.756 717.371 586.608 716.063 585.992C715.406 585.199 715.323 584.635 715.258 583.64C714.962 579.08 715.507 574.194 715.692 569.611C716.01 561.874 716.182 554.131 716.206 546.387C716.214 544.254 716.614 540.024 715.056 538.447L714.362 538.745C712.599 541.966 708.126 580.516 708.641 584.725C708.999 587.65 710.789 590.348 713.195 592.019C719.342 596.289 730.507 590.671 737.328 589.521L738.23 589.373C742.354 600.95 738.313 621.912 737.003 634.414C736.667 640.254 735.626 646.243 734.883 652.051C732.763 668.635 729.968 685.12 727.716 701.686C724.267 690.362 696.978 595.213 697.908 591.765C699.287 591.723 700.62 591.863 701.779 591.008L701.84 590.037C699.457 585.7 690.604 580.761 686.169 578.47ZM729.949 554.593C730.592 558.779 733.101 575.666 736.063 577.853C736.919 578.485 739.018 577.972 739.994 577.77C739.092 571.284 736.266 560.139 731.789 555.241L729.949 554.593Z"/><path fill="#FEFEFE" d="M571.877 472.087C572.239 467.939 573.146 463.753 573.734 459.62C609.315 471.949 646.028 484.939 678.757 503.72C675.189 506.857 671.206 509.51 667.488 512.466C661.667 517.094 656.037 521.89 650.114 526.406C641.101 534.009 630.945 540.44 621.244 547.131C625.572 542.65 628.88 538.804 630.687 532.692C630.111 529.666 629.306 526.843 627.925 524.079C620.637 509.499 587.408 477.243 571.877 472.087Z"/><path fill="#FEFEFE" d="M359.636 519.49C382.983 507.512 405.631 496.325 430.332 487.153C451.486 479.297 473.256 473.4 494.392 465.574C496.6 465.534 499.797 465.498 501.578 466.999C504.102 469.127 503.899 473.18 504.142 476.196C484.064 485.148 464.582 495.382 445.819 506.836C440.271 510.162 434.047 513.386 428.947 517.327C427.563 518.397 424.713 520.688 424.721 522.652C424.75 530.166 454.796 553.163 460.632 558.733L461.179 559.26C448.077 587.454 450.043 658.442 452.274 690.268C454.045 715.526 456.985 741.538 461.548 766.451C464.612 782.957 467.994 799.401 471.691 815.777C472.771 820.447 475.57 824.768 476.238 829.488C477.928 841.422 477.856 853.808 478.731 865.838C480.069 884.238 482.126 902.859 482.626 921.285C476.485 921.082 470.356 920.731 464.269 919.873C457.854 907.815 451.133 895.959 444.863 883.816C441.375 877.059 428.944 849.79 425.403 846.027C424.724 845.305 424.98 845.34 424.065 845.381C418.766 845.618 412.118 854.055 408.44 857.763C408.452 837.052 406.707 816.32 406.466 795.622C406.235 775.801 407.483 756.178 408.291 736.397C412.803 747.124 415.847 760.3 423.227 769.428C405.77 725.215 398.619 675.026 393.013 627.981C391.237 613.084 390.348 597.948 387.931 583.147C386.472 593.212 388.135 605.21 389.001 615.332C392.025 652.722 397.576 689.866 405.617 726.507C400.425 731.987 395.843 737.924 390.884 743.605C379.559 754.853 368.633 761.928 359.087 775.516C354.604 770.293 349.563 765.4 342.802 763.364C334.046 760.726 325.662 762.897 317.808 767.02C327.583 765.913 334.608 768.442 343.54 771.931C330.263 771.919 324.304 774.094 312.82 780.412C322.954 779.506 332.113 779.051 341.922 782.42C344.349 783.253 347.386 784.497 349.243 786.287C354.771 791.616 372.669 822.597 376.701 830.719C370.295 834.441 364.259 838.965 358.402 843.482C353.932 846.929 349.112 850.294 345.111 854.279C335.83 863.523 329.546 877.151 323.356 888.627C311.965 864.637 300.147 840.851 287.906 817.282C283.56 808.901 278.645 797.458 273.292 790.017C289.224 732.39 322.178 683.107 355.424 634.265C359.3 628.57 363.595 623.163 367.424 617.439C374.544 606.796 378.984 593.996 387.078 584.148C395.112 574.372 405.75 565.388 415.568 557.387C429.763 572.123 435.803 586.493 443.416 604.784C441.578 594.591 437.402 582.323 432.577 573.18C419.399 548.211 386.359 527.592 359.636 519.49ZM424.43 629.547C424.681 624.239 425.316 590.714 424.024 588.415C423.456 589.568 423.551 590.094 423.583 591.337L423.6 591.87C421.93 602.837 422.502 614.588 422.483 625.676C422.416 664.505 425.141 702.753 429.167 741.35C431.682 765.469 433.925 790.499 440.971 813.796L440.916 813.229C439.516 799.809 436.247 786.539 434.62 773.115C428.86 725.579 424.666 677.45 424.43 629.547Z"/><path fill="#FEFEFE" d="M556.651 574.605C563.955 572.745 570.874 569.746 577.893 567.048C590.973 562.02 603.937 556.911 616.425 550.563L616.91 550.836C616.415 551.716 615.945 552.513 615.788 553.533C615.577 554.911 615.966 556.405 616.813 557.513C619.627 561.195 625.471 562.395 629.831 562.775C652.575 564.755 680.781 539.573 697.417 525.507L697.773 526.049C696.682 530.83 692.114 539.512 690.143 544.689C685.694 556.375 682.199 568.852 679.42 581.028C680.792 582.677 682.256 584.261 683.677 585.869C663.673 615.225 646.102 645.599 628.153 676.198C603.213 718.714 576.764 761.227 560.077 807.822C557.156 815.978 553.815 824.665 553.217 833.352C557.658 821.627 561.586 809.739 566.535 798.209C571.286 787.141 576.815 776.392 582.142 765.593C589.658 750.355 597.032 735.024 605.209 720.125C613.827 704.421 623.325 689.145 632.467 673.74C640.74 659.801 648.563 645.475 657.317 631.837C666.7 617.219 677.311 603.441 686.832 588.898C693.751 612.323 701.356 635.542 708.153 658.997C712.338 673.438 715.821 688.129 719.848 702.627C717.311 704.064 714.934 705.55 712.856 707.615C702.086 718.316 692.199 746.46 692.238 761.696C692.246 764.889 692.758 772.013 695.251 774.101C695.819 774.577 696.427 774.362 697.118 774.338C698.14 773.663 698.716 773.379 699.245 772.222C700.062 770.436 700.149 768.27 700.695 766.384C703.651 756.161 707.712 739.611 714.571 731.616L715.062 731.049C710.92 742.192 706.644 762.695 709.509 774.156C709.972 776.009 710.546 777.217 712.267 778.204C713.868 778.387 714.525 778.274 716.007 777.641C717.25 776.479 717.527 774.673 717.907 773.071C723.024 751.499 726.183 729.182 730.467 707.391C733.459 692.09 736.363 676.772 739.179 661.438C741.322 650.035 743.96 638.574 744.641 626.969C750.906 628.389 757.213 628.91 763.618 628.213C782.766 626.127 820.33 600.259 832.608 584.901C825.401 587.023 819.448 591.926 813.117 595.851C796.003 606.464 773.974 618.165 753.597 618.578C749.004 610.604 748.038 599.518 746.318 590.568C753.709 590.702 760.802 589.46 767.894 587.422C787.573 581.765 818.203 565.978 835.377 554.297C834.243 570.456 834.428 586.786 832.605 602.88C832.245 611.916 830.935 621.057 829.876 630.044C827.81 647.566 825.206 665.438 821.355 682.659C815.413 709.225 807.145 735.132 799.434 761.216C787.397 801.937 776.199 842.992 754.206 879.76C730.682 862.139 711.945 841.096 695.108 817.046C684.377 801.718 674.854 785.119 665.748 768.786C660.406 759.203 655.584 749.054 649.245 740.087C646.356 736 643.218 732.117 638.9 729.476C633.886 726.409 625.213 723.338 619.394 724.915C617.494 725.43 616.043 726.386 615.133 728.186C614.231 729.973 614.088 731.515 614.729 733.391C618.717 737.545 625.662 739.09 630.656 741.898C635.762 744.768 640.491 748.221 645.749 750.85C647.75 751.851 649.707 752.519 651.878 753.055L652.577 753.221C653.905 755.567 654.9 758.182 655.997 760.647C651.331 774.615 646.814 788.151 640.874 801.654C632.51 820.671 598.619 884.295 598.334 899.287C598.308 900.664 598.512 901.123 599.439 902.105L600.491 902.019C603.452 900.296 608.404 882.972 610.245 878.878C610.665 879.509 610.518 879.119 610.497 880.084C610.335 887.527 616.17 892.513 620.989 897.509C618.921 902.173 617.079 906.708 615.764 911.651C571.247 919.399 532.323 921.335 487.485 921.421C486.645 914.274 486.451 906.949 485.867 899.764L481.931 850.063C481.597 845.54 481.468 830.966 480.1 827.916C479.685 826.991 479.683 827.253 479.587 826.345C479.571 826.199 479.58 826.05 479.577 825.903L479.258 826.425L479.18 825.842C481.63 820.003 483.274 813.792 485.326 807.802C489.431 795.886 493.63 784.003 497.922 772.153C510.936 737.133 524.897 702.472 539.79 668.209C545.149 655.864 549.441 642.134 556.581 630.728C561.52 622.839 568.319 616.181 575.484 610.333C570.223 597.33 562.573 586.929 556.651 574.605ZM611.192 602.667C615.665 596.145 622.059 588.875 625.026 581.643C622.613 582.492 612.463 598.612 610.296 601.751C590.835 629.458 534.818 713.574 532.91 744.861C554.002 694.876 580.237 647.222 611.192 602.667Z"/><path fill="#231F20" d="M739.994 577.77C739.018 577.972 736.919 578.485 736.063 577.853C733.101 575.666 730.592 558.779 729.949 554.593L731.789 555.241C736.266 560.139 739.092 571.284 739.994 577.77Z"/><path fill="#231F20" d="M610.296 601.751C612.463 598.612 622.613 582.492 625.026 581.643C622.059 588.875 615.665 596.145 611.192 602.667L610.296 601.751Z"/><path fill="#5F5D61" d="M423.6 591.87L423.583 591.337C423.551 590.094 423.456 589.568 424.024 588.415C425.316 590.714 424.681 624.239 424.43 629.547C422.622 617.285 424.785 604.291 423.6 591.87Z"/><path fill="#231F20" d="M423.6 591.87C424.785 604.291 422.622 617.285 424.43 629.547C424.666 677.45 428.86 725.579 434.62 773.115C436.247 786.539 439.516 799.809 440.916 813.229L440.971 813.796C433.925 790.499 431.682 765.469 429.167 741.35C425.141 702.753 422.416 664.505 422.483 625.676C422.502 614.588 421.93 602.837 423.6 591.87Z"/><path fill="#FEFEFE" d="M489.456 620.002C488.251 620.014 486.866 620.117 485.716 619.719C483.735 619.035 481.995 617.123 481.192 615.23C479.824 612.001 480.097 608.134 481.465 604.956C482.988 601.419 485.048 599.912 488.568 598.572C489.645 598.578 490.78 598.564 491.827 598.848C493.772 599.376 495.518 600.759 496.515 602.504C497.999 605.104 497.926 608.479 497.098 611.276C495.82 615.589 493.373 618.007 489.456 620.002ZM489.917 606.296C487.746 608.428 486.555 611.261 486.619 614.348C486.644 615.577 487.051 616.338 487.731 617.322C488.938 617.889 489.146 617.889 490.479 617.747C492.325 615.867 494.318 613.223 494.4 610.454C494.437 609.195 494.123 608.112 493.156 607.243C492.252 606.43 491.06 606.391 489.917 606.296Z"/><defs><linearGradient id="gradient_2" gradientUnits="userSpaceOnUse" x1="572.65125" y1="672.23621" x2="566.83978" y2="669.10126"><stop offset="0" stop-color="black"/><stop offset="1" stop-color="#252120"/></linearGradient></defs><path fill="url(#gradient_2)" d="M610.296 601.751L611.192 602.667C580.237 647.222 554.002 694.876 532.91 744.861C534.818 713.574 590.835 629.458 610.296 601.751Z"/><path fill="#231F20" d="M490.479 617.747C489.146 617.889 488.938 617.889 487.731 617.322C487.051 616.338 486.644 615.577 486.619 614.348C486.555 611.261 487.746 608.428 489.917 606.296C491.06 606.391 492.252 606.43 493.156 607.243C494.123 608.112 494.437 609.195 494.4 610.454C494.318 613.223 492.325 615.867 490.479 617.747Z"/><path fill="#FEFEFE" d="M318.613 641.968C318.142 638.42 318.035 635.086 318.129 631.508L326.672 631.477C326.679 634.68 326.92 638.13 326.28 641.269C323.657 641.782 321.272 641.949 318.613 641.968Z"/><path fill="#FEFEFE" d="M187.588 714.715C186.911 689.21 185.043 663.753 184.034 638.257C187.491 639.102 190.949 639.527 194.477 639.952C194.298 655.505 195.029 671.112 195.696 686.65C196.077 695.52 196.908 704.668 196.368 713.528C194.369 713.442 192.138 713.064 190.314 714.017C189.173 715.43 189.101 717.065 188.833 718.8L188.321 718.651L187.588 714.715Z"/><path fill="#231F20" d="M115.419 659.512C114.564 654.276 114.522 646.853 115.345 641.569C116.692 644.905 116.282 649.94 116.387 653.573C117.559 671.875 126.999 753.282 122.6 765.251C120.803 763.25 120.455 757.885 120.163 755.233C118.333 738.616 118.42 721.711 117.633 705.014C116.922 689.944 115.277 674.578 115.419 659.512Z"/><path fill="#231F20" d="M168.758 763.395C164.303 733.659 168.458 702.522 170.426 672.74C171.087 662.737 170.471 651.604 172.648 641.858C172.707 642.183 172.777 642.507 172.824 642.835C173.785 649.533 173.113 657.057 173.084 663.864C173.01 681.447 172.511 698.947 171.891 716.515C171.387 730.827 171.821 745.243 170.92 759.529C170.822 761.079 170.777 762.41 169.836 763.661L168.758 763.395Z"/><path fill="#FEFEFE" d="M308.065 661.524C306.794 661.579 304.219 661.914 303.254 660.95C301.022 658.72 302.333 652.53 302.521 649.606C303.844 649.567 306.129 649.28 307.116 650.277C309.238 652.423 308.133 658.62 308.065 661.524Z"/><path fill="#FEFEFE" d="M327.509 659.193C326.577 660.377 325.872 661.548 324.368 662.015L323.596 661.4C322.816 658.539 323.267 655.082 323.36 652.114C326.194 652.028 329.024 652.099 331.857 652.148C330.619 654.687 329.128 656.89 327.509 659.193Z"/><defs><linearGradient id="gradient_3" gradientUnits="userSpaceOnUse" x1="142.1226" y1="707.99823" x2="133.46635" y2="708.99158"><stop offset="0" stop-color="#0A0A07"/><stop offset="1" stop-color="#2F2323"/></linearGradient></defs><path fill="url(#gradient_3)" d="M140.354 760.419C137.759 756.631 137.542 749.805 137.054 745.316C134.374 720.674 135.241 696.59 135.804 671.892C135.946 665.657 135.206 658.996 136.103 652.857C138.931 671.611 138.002 691.145 138.74 710.073C139.339 725.42 141.68 745.684 140.354 760.419Z"/><defs><linearGradient id="gradient_4" gradientUnits="userSpaceOnUse" x1="161.01921" y1="708.96606" x2="143.75491" y2="713.08783"><stop offset="0" stop-color="#000500"/><stop offset="1" stop-color="#27181C"/></linearGradient></defs><path fill="url(#gradient_4)" d="M155.457 758.354L154.428 757.846C149.36 746.75 149.827 679.256 150.627 663.344C152.953 671.632 152.632 695.301 153.081 705.302C153.871 722.91 155.702 740.743 155.457 758.354Z"/><path fill="#FEFEFE" d="M312.123 677.985C311.541 677.132 311.669 677.47 311.397 676.484C310.685 673.899 310.311 672.526 311.657 670.16C313.317 669.072 314.421 669.283 316.378 669.208L316.821 669.303C317.55 669.889 317.948 670.345 318.074 671.313C318.265 672.781 317.554 674.365 316.757 675.544C315.518 677.377 314.151 677.564 312.123 677.985Z"/><path fill="#FEFEFE" d="M204.965 685.381C204.921 681.449 204.289 676.383 205.388 672.635L211.522 672.502C211.353 676.782 211.854 681.188 211.37 685.437L204.965 685.381Z"/><path fill="#FEFEFE" d="M225.969 703.077C224.283 703.135 222.305 703.476 220.891 702.43C219.749 700.722 219.488 699.396 219.668 697.374C219.916 694.59 219.9 691.796 219.935 689.003C221.548 688.935 223.01 688.723 224.497 689.478C226.99 692.77 225.923 699.091 225.969 703.077Z"/><path fill="#B3B2B2" d="M187.588 714.715L188.321 718.651L188.833 718.8C189.157 726.162 188.948 733.562 189.208 740.934C189.55 750.629 191.355 763.42 189.438 772.883C188.271 771.23 187.576 720.793 187.588 714.715Z"/><path fill="#FEFEFE" d="M283.889 731.616C281.452 732.034 278.777 733.193 276.33 733.217C272.838 733.252 269.092 732.619 265.61 732.269L238.955 729.324C225.612 727.888 211.479 727.529 198.378 724.888C197.358 723.622 197.469 722.466 197.265 720.874C210.014 721.748 222.752 723.468 235.505 724.466C250.124 725.609 265.097 726.027 279.614 728.045C281.278 728.277 283.459 728.409 284.738 729.552L284.798 730.79L283.889 731.616Z"/><path fill="#FEFEFE" d="M262.162 748.489C254.806 748.576 200.769 746.773 196.657 744.516L196.388 741.945L241.912 743.201C248.268 743.424 255.335 743.041 261.546 744.267C262.414 745.791 262.186 746.758 262.162 748.489Z"/><path fill="#FEFEFE" d="M393.227 836.704C386.583 826.826 380.506 816.599 374.173 806.522C371.339 802.011 367.437 797.276 365.407 792.386C366.222 791.67 365.827 791.944 366.878 791.366C367.139 791.222 367.404 791.085 367.667 790.944C368.292 789.175 368.344 788.368 367.758 786.525C367.687 786.303 367.605 786.085 367.529 785.865C368.373 784.137 370.282 783.199 371.842 782.17C380.141 781.779 388.442 782.241 396.734 782.599C395.526 802.253 396.194 822.07 396.561 841.737C395.332 840.166 394.308 838.382 393.227 836.704Z"/><path fill="#FEFEFE" d="M331.995 903.395C335.877 892.939 338.6 881.943 343.689 871.955C345.579 868.247 349.676 864.901 352.382 861.734C360.735 851.956 367.177 842.674 377.154 834.261C379.116 834.912 387.383 846.997 389.546 849.504C369.191 865.022 352.309 880.173 338.867 902.248L334.984 909.135C333.902 907.273 332.969 905.315 331.995 903.395Z"/><path fill="#FEFEFE" d="M400.517 866.87C397.871 870.161 393.543 874.447 393.134 878.763C393.676 880.006 393.611 880.033 394.836 880.588C400.764 880.052 416.401 859.914 421.879 854.821L422.444 854.3L423.256 854.715C427.869 861.173 431.117 869.282 434.817 876.316C439.309 884.856 456.347 913.535 457.4 921.717C457.567 923.012 457.045 923.344 456.281 924.289C453.71 923.888 451.009 921.36 449.015 919.753C440.795 913.127 433.283 904.934 427.254 896.271C424.522 892.345 422.182 888.146 419.247 884.365L418.885 883.907C412.896 886.494 408.924 890.998 405.963 896.66C414.566 917.868 425.033 938.317 433.358 959.669C435.118 964.185 437.65 968.82 438.732 973.521L438.251 974.047C429.911 971.614 400.653 923.574 393.821 914.731C392.247 912.679 390.679 910.412 388.798 908.636C387.576 907.482 386.569 906.992 384.847 907.04C383.605 907.799 383.379 908.01 382.652 909.268C382.751 914.282 408.075 944.77 411.623 952.948C410.406 957.884 415.572 970.882 416.643 976.544C410.574 971.526 405.301 965.045 400.079 959.17C383.272 940.26 368.327 919.767 351.269 901.042C359.812 886.815 367.774 874.218 380.14 862.883C387.142 865.166 393.2 866.34 400.517 866.87Z"/><path fill="#FEFEFE" d="M436.112 918.584C433.759 918.001 430.944 917.594 429.098 915.962C428.398 914.454 428.755 914.207 429.272 912.681C430.475 913.132 431.522 913.834 432.56 914.583C433.917 915.562 435.833 916.909 436.112 918.584Z"/></svg>