<?xml version="1.0" encoding="utf-8" ?><svg xmlns="http://www.w3.org/2000/svg" xmlns:xlink="http://www.w3.org/1999/xlink" width="1024" height="1024" viewBox="0 0 1024 1024"><path fill="#FEFEFE" d="M0 0L1024 0L1024 1024L0 1024L0 0ZM391.581 121.191C389.633 122.697 388.032 124.197 386.517 126.138C379.44 135.203 373.702 145.54 367.615 155.29C358.57 169.779 348.071 184.72 341.358 200.433C347.476 207.747 354.745 213.575 362.795 218.676C365.436 220.35 368.676 221.669 371.12 223.575C372.114 224.35 372.319 224.843 372.429 226.056C368.203 232.711 362.891 238.911 358.387 245.436C359.179 246.848 359.714 248.11 361.224 248.874C362.783 248.938 363.661 248.463 364.997 247.774C366.188 247.527 367.371 247.243 368.545 246.922C370.604 246.371 374.29 245.524 375.4 243.608C372.421 242.251 366.281 245.043 363.2 246.107C365.107 241.569 374.017 230.303 373.606 226.217C372.793 218.148 352.467 204.93 345.906 199.696C347.52 193.354 351.414 187.538 354.812 182.026C360.061 173.595 365.471 165.265 371.039 157.041C378.113 146.669 388.994 133.881 392.286 121.851C397.923 119.009 404.4 116.92 410.285 114.588C428.967 107.182 448.042 99.8992 467.492 94.7921C473.587 93.1915 503.39 86.6674 505.876 84.5301L505.301 83.7485C497.62 82.0249 472.042 88.5505 463.242 90.7736C445.324 95.3 428.078 101.994 411.134 109.282C406.034 111.476 400.425 113.505 395.822 116.639C393.997 117.881 392.706 119.312 391.581 121.191ZM569.202 223.819C568.322 223.031 567.912 223.043 567.823 221.806C567.222 213.443 569.75 202.715 570.87 194.342C571.691 188.21 576.048 158.732 575.165 154.38C573.482 146.08 542.548 116.014 534.937 108.746C541.552 110.051 548.981 109.366 555.748 109.436L592.128 109.793C609.114 109.94 630.157 111.834 647.024 113.735C648.36 131.424 650.813 149.084 652.478 166.753C653.702 179.734 654.444 192.756 655.611 205.742C657.371 225.324 659.524 244.974 661.668 264.519C666.414 308.691 672.027 352.764 678.504 396.715L683.151 427.222C683.964 432.665 684.449 438.45 685.76 443.785C686.18 445.497 686.635 446.924 687.739 448.307L689.351 449.023C690.217 448.096 689.912 445.086 689.877 443.765C689.605 433.329 687.115 422.387 685.577 412.065C682.499 391.402 679.392 370.692 676.64 349.985C674.847 336.499 673.583 322.955 672.002 309.444L659.773 200.497C658.331 187.098 657.292 173.699 655.679 160.307C654.439 150.008 653.378 139.688 651.938 129.415C651.384 125.466 650.135 121.422 649.79 117.502C649.722 116.732 649.913 116.125 650.192 115.422C653.333 113.475 656.939 116.666 659.416 113.513C659.552 112.06 659.563 111.768 658.968 110.448C653.519 107.045 595.862 104.754 585.767 104.525C575.988 104.304 566.194 104.717 556.416 104.445C551.607 104.311 543.58 102.671 539.278 103.447C538.427 103.6 537.687 104.11 536.898 104.427C532.321 106.267 525.874 100.53 523.281 102.939C523.266 104.936 524.143 105.92 525.51 107.309C536.946 118.93 549.32 129.609 560.645 141.408C564.592 145.52 567.383 151.314 571.244 154.984C569.925 166.475 559.942 218.451 563.462 225.951C556.277 229.976 551.658 236.746 548.265 244.062C544.576 228.105 541.33 214.348 531.465 200.859C529.981 198.829 528.251 195.93 526.187 194.515C525.685 194.171 525.211 194.04 524.615 193.974L524.148 194.653C525.951 200.847 534.524 210.822 537.585 218.681C539.136 222.725 540.389 226.878 541.335 231.104C542.976 238.337 545.733 261.975 549.8 265.916C549.412 262.597 548.614 257.52 549.077 254.266C549.857 248.794 554.085 241.897 557.471 237.617C560.677 233.565 564.456 230.688 568.927 228.152C575.24 236.552 581.785 247.08 580.461 258.127C579.295 267.86 566.553 276.489 559.306 281.928C557.286 283.443 554.207 286.084 551.615 285.967C550.895 284.132 550.194 280.442 548.899 279.101C544.992 286.773 548.266 297.523 546.352 305.859C543.386 318.78 506.028 354.321 494.586 361.092C484.387 359.49 438.136 341.789 433.351 334.871C429.533 329.351 427.344 321.29 424.598 315.093C421.574 308.268 417.749 301.645 414.2 295.071C412.968 292.789 411.544 289.238 409.817 287.41L406.966 280.325C414.53 280.774 422.144 282.096 429.649 283.148C429.629 283.52 429.616 283.893 429.591 284.265C429.308 288.378 429.524 291.401 432.274 294.685C433.609 296.279 435.716 297.746 437.878 297.716C439.268 297.697 440.403 297.026 441.266 295.976C442.992 293.874 443.488 290.901 443.244 288.271C443.051 286.199 442.981 284.151 442.922 282.072C444.89 282.523 447.727 282.848 449.388 283.995C449.603 284.144 449.809 284.305 450.019 284.46L450.533 284.24C450.41 283.19 450.23 282.816 449.533 282.022L448.298 282.31L447.916 281.72L448.883 280.301L448.475 279.452C442.119 274.92 413.99 274.358 404.319 272.776C403.884 271.499 403.275 270.289 402.706 269.068C400.569 262.208 398.798 254.926 397.535 247.858C396.341 241.181 396.077 233.171 393.363 226.945C391.171 232.862 397.491 260.905 398.815 268.667C399.496 270.844 400.129 272.499 399.682 274.8C397 269.427 392.2 265.596 388.952 260.594C383.603 252.359 382.105 243.36 378.852 234.321C377.742 237.848 377.366 241.245 377.644 244.922C378.661 258.353 384.342 264.365 394.115 272.657L391.633 274.156C389.446 279.031 388.924 283.759 390.88 288.841C395.613 301.147 409.157 309.24 420.428 314.51C421.72 317.37 422.913 321.582 424.679 324.065C426.458 328.911 427.961 334.336 430.391 338.874C441.574 345.87 454.79 349.885 466.598 355.734C458.211 362.385 451.542 368.036 446.564 377.792C449.402 382.599 453.041 386 456.407 390.321L457.237 394.846C457.518 396.633 458.124 398.24 457.303 399.891C456.331 400.384 455.498 400.738 454.719 401.519C447.471 410.7 436.195 416.486 426.056 421.94C415.488 427.624 386.345 440.652 379.485 447.714C372.099 455.318 355.129 538.718 353.686 552.374C344.198 553.301 335.591 557.318 325.909 557.578C322.503 557.67 313.78 556.191 311.332 558.236C311.952 560.993 315.972 562.922 318.258 564.379C328.322 570.794 338.88 570.102 350.304 569.597C349.338 575.232 346.991 580.327 345.189 585.719C331.329 596.637 319.055 609.46 303.682 618.294C303.805 619.04 303.645 619.283 304.359 619.728C309.034 622.642 317.163 620.126 322.004 618.625C327.227 617.004 332.255 614.852 337.247 612.634C332.786 619.476 325.249 628.826 317.533 632.168C315.188 633.183 311.03 632.795 310.428 635.667C311.983 637.466 315.11 637.5 317.351 637.661C327.653 638.402 334.072 633.962 342.899 629.614C337.803 634.345 331.181 640.038 324.123 641.361C321.808 641.795 314.906 641.429 313.648 643.329C314.878 645.766 320.601 648.171 323.192 649.011C329.403 651.024 335.769 648.997 341.295 646.025C339.162 661.058 328.636 730.503 336.405 740.216C339.216 743.731 345.893 746.791 350.271 747.667C352.075 747.223 353.701 746.78 355.429 746.095C360.244 744.189 366.47 750.1 371.739 750.22C376.804 750.335 381.953 748.393 386.966 747.829C399.611 746.405 411.883 747.06 424.483 744.044C452.478 737.342 479.436 726.447 505.888 715.269C517.068 710.544 549.003 692.125 558.49 691.521C559.51 691.993 559.486 692.048 559.98 693.069C559.486 694.237 558.784 694.765 557.709 695.369C554.065 697.418 549.906 698.58 546.158 700.44C525.224 711.037 503.895 720.834 482.217 729.811C467.822 735.649 421.983 752.764 407.953 748.847C406.849 749.32 406.776 749.5 406.34 750.681C403.825 757.488 402.395 774.174 401.514 782.015C399.764 797.59 397.754 813.11 396.744 828.759C395.522 847.708 395.513 866.681 395.553 885.658C395.569 893.369 394.645 908.845 397.69 915.393C398.049 916.164 398.488 916.888 398.947 917.601C399.225 922.274 399.074 935.573 401.882 939.105L402.572 939.184C403.684 936.072 401.519 921.54 400.05 918.421C399.945 918.197 399.827 917.981 399.715 917.761C403.878 918.539 408.911 922.656 412.918 924.544C419.04 927.427 425.658 929.835 432.103 931.907C447.85 936.969 465.014 939.597 481.527 940.479C514.105 942.217 630.983 935.866 656.842 922.624C657.024 928.144 656.114 941.364 658.639 945.755L659.5 945.968L660.541 945.103C660.642 944.408 660.632 943.852 660.59 943.141C659.731 928.716 659.723 914.256 658.47 899.833C655.677 867.683 649.592 835.491 641.966 804.159C640.096 796.476 637.319 788.273 634.317 780.944C632.544 776.614 629.973 772.382 628.927 767.811C631.134 765.279 636.885 764.982 639.589 762.458C642.821 759.441 660.922 713.264 660.86 708.347C660.848 707.408 659.201 707.43 658.422 706.568C654.574 702.313 650.076 694.875 646.479 690.044C642.045 684.089 636.886 678.45 632.665 672.417C631.78 671.152 630.616 669.6 630.658 668.028C638.056 670.17 655.767 697.894 661.551 704.576L662.09 705.192C663.678 702.744 664.643 699.376 665.793 696.642C669.163 688.635 672.249 680.726 674.669 672.377C676.255 666.906 677.374 661.27 679.1 655.848C679.427 654.82 679.792 653.296 680.707 652.615C683.745 650.353 688.992 651.96 692.377 649.424C693.791 648.365 694.743 646.546 694.855 644.78C695.104 640.847 689.816 636.833 687.297 634.392C689.406 634.241 692.626 634.293 694.245 632.692C698.289 628.693 688.397 621.644 688.646 616.798C688.678 616.166 688.555 615.897 689.195 615.601C692.277 614.174 701.284 615.762 705.166 611.211C705.972 610.266 706.314 609.472 706.053 608.223C705.004 603.192 691.822 597.265 687.518 594.996C687.19 587.209 687.774 579.517 688.135 571.749C688.535 563.142 688.665 554.487 688.876 545.872C689.208 532.28 688.211 518.804 687.667 505.245C687.27 495.338 687.278 485.512 686.289 475.621C685.511 467.841 682.765 457.168 677.804 450.98C669.972 441.21 623.898 417.146 610.773 411.072C603.549 407.729 593.198 404.133 587.097 399.198C586.146 396.295 587.601 393.188 588.514 390.424C586.285 380.392 579.748 374.478 574.904 365.859L574.565 365.248C574.533 362.583 574.807 360.034 575.062 357.394C575.597 351.854 575.998 343.992 572.097 339.537C567.844 334.679 557.572 334.345 551.551 333.995C551.233 328.13 550.143 297.761 552.627 294.88C553.142 294.734 553.984 294.566 554.468 294.287C556.093 293.35 556.108 291.707 556.591 290.02C564.516 281.934 579.673 273.723 583.465 262.929C586.338 254.748 583.415 245.021 579.933 237.481C577.893 233.062 573.97 225.591 569.202 223.819ZM182.222 444.52C180.476 434.959 177.858 424.225 177.941 414.52C178.025 404.742 180.164 394.733 180.804 384.931C184.01 398.323 185.669 412.148 188.13 425.698C192.07 447.39 196.613 469.055 201.031 490.656C210.78 536.701 223.473 582.073 239.032 626.493C240.427 630.488 246.52 649.667 249.022 651.319L248.353 651.012L249.298 650.914C249.928 648.684 249.661 646.523 249.059 644.304C246.136 633.527 241.809 622.803 238.21 612.216C232.031 594.233 226.364 576.077 221.215 557.773C216.556 541.109 212.648 524.378 208.869 507.497C206.768 498.112 204.449 488.823 202.864 479.328C201.001 468.179 200.132 456.708 198.883 445.463L192.168 380.268C191.612 374.302 191.385 368.315 190.832 362.348C190.12 354.659 189.085 346.911 188.645 339.206C188.374 334.466 189.262 329.744 188.527 325.017L187.883 324.185C186.488 324.152 186.35 324.028 185.268 324.874C179.63 349.858 176.562 375.684 173.228 401.057C170.838 419.246 168.126 437.286 166.4 455.564C164.6 474.633 163.92 493.888 163.044 513.021C162.309 529.092 161.502 545.359 161.841 561.444C162.335 584.86 165.97 608.076 167.031 631.497C159.841 626.464 104.452 589.347 100.508 588.909C98.5715 591.058 99.4768 596.741 99.6244 599.629C100.548 617.695 107.591 642.85 112.541 660.591C118.716 682.724 124.936 704.956 133.961 726.144C138.836 737.589 144.278 749.278 150.204 760.214C152.214 763.925 154.621 767.412 156.609 771.13C159.988 777.449 161.431 786.04 167.135 790.916C167.93 791.595 168.504 791.825 169.496 792.07C171.839 791.398 172.499 790.024 173.74 788.036C173.665 787.876 173.592 787.716 173.514 787.557C171.964 784.365 169.822 781.563 167.988 778.537C165.431 774.318 163.238 769.699 161.344 765.14C153.922 747.266 148.869 728.088 143.749 709.462C138.937 691.958 133.989 674.307 129.978 656.604C126.17 639.796 123.09 622.467 118.116 605.983C121.257 607.719 124.558 609.352 127.578 611.283C130.039 627.061 136.989 647.917 141.698 663.463C151.982 697.414 188.777 815.235 211.405 837.129C211.334 836.943 211.265 836.756 211.19 836.572C209.242 831.752 205.978 827.42 203.507 822.836C199.686 815.749 196.501 808.352 193.394 800.931C175.25 756.971 159.377 712.107 145.838 666.517C140.579 648.909 135.041 631.35 131.023 613.406C135.789 616.664 140.723 619.813 145.305 623.319C147.625 634.03 151.427 644.68 154.723 655.137C166.667 693.027 179.769 727.548 195.229 764.111C208.917 796.481 223.428 828.305 241.966 858.242C247.188 866.674 252.397 875.885 259.103 883.231C258.857 890.919 256.634 912.251 261.499 917.425C263.047 919.072 265.774 919.812 267.921 920.168C276.736 921.629 296.336 920.612 306.043 920.354C316.653 920.072 328.754 918.047 339.21 919.625C340.581 921.482 341.902 923.719 343.808 925.051L344.856 924.91C345.778 922.886 343.624 920.951 344.61 919.206C351.606 918.242 359.341 918.215 366.438 917.932C369.534 917.808 372.919 918.005 375.923 917.243C377.125 916.938 378.18 916.463 378.952 915.451C379.075 915.29 379.168 915.107 379.276 914.935C378.762 913.947 379.114 914.164 378.147 913.857C373.443 912.36 347.798 914.48 340.74 914.53C332.78 901.576 323.107 889.482 314.618 876.837C303.715 860.597 293.521 843.439 283.675 826.53C280.99 821.92 275.717 814.547 274.773 809.564C273.503 802.856 280.201 765.886 281.492 756.134C285.756 725.098 289.618 694.007 293.077 662.871C297.474 616.586 301.062 570.228 303.837 523.818C307.862 458.424 306.993 392.662 307.002 327.175C307.139 293.768 307.056 260.36 306.751 226.954C306.529 214.778 305.579 202.613 305.244 190.437C304.602 167.152 304.234 143.854 302.395 120.62C317.406 120.567 338.013 116.555 353.451 114.478L374.21 111.808C377.716 111.392 381.324 111.229 384.779 110.502C386.52 110.135 388.498 109.729 389.773 108.392C390.352 107.784 390.213 107.34 390.276 106.557C389.871 105.868 389.743 105.177 388.912 104.959C384.248 103.735 311.547 114.869 301.783 116.647C301.904 114.364 302.463 111.966 300.843 110.12C300.225 109.417 300.488 109.6 299.681 109.385C297.044 111.558 298.42 115.748 296.518 117.376L295.848 117.283C294.451 117.099 293.308 116.782 292.011 117.483C291.126 118.643 290.879 118.796 290.817 120.23C292.881 121.94 296.166 120.309 297.557 121.728C301.497 180.122 301.303 238.776 301.76 297.273C301.919 328.264 301.911 359.254 301.733 390.244C301.901 424.982 301.387 459.72 300.191 494.438C298.849 525.762 296.86 557.054 294.225 588.295C291.354 626.97 287.583 665.573 282.912 704.072C280.653 722.588 276.851 741.087 275.176 759.654C263.804 738.164 255.197 715.003 246.74 692.248C227.064 640.381 211.165 587.16 199.166 532.999C194.359 511.539 192.337 489.301 186.793 467.977C185.893 460.245 183.923 452.127 182.222 444.52ZM694.748 472.054C694.429 468.9 694.178 465.459 693.028 462.496L692.699 463.419L693.284 463.431L692.658 463.916C692.55 466.693 692.825 469.301 693.159 472.052C693.179 472.224 693.201 472.396 693.218 472.569C694.213 482.559 693.793 492.673 694.857 502.671C696.515 518.258 699.655 533.499 701.523 549.002C711.065 629.062 722.881 708.834 736.957 788.223C729.981 794.559 723.545 801.44 716.704 807.914C711.046 813.268 704.886 818.257 699.448 823.814C691.968 831.34 677.677 841.735 672.815 850.41L673.386 850.544C680.221 846.487 699.946 827.99 705.616 821.601L727.14 801.653C730.483 798.612 733.586 795.389 737.215 792.67C737.685 793.15 738.059 793.286 738.064 794.017C738.101 798.649 705.527 830.012 699.82 836.627C693.467 843.991 688.143 851.801 682.371 859.599C681.124 861.284 675.627 867.664 676.36 869.34L678.173 870.224C682.052 868.81 729.464 809.803 737.86 801.31C738.798 805.743 739.602 810.203 740.271 814.684C729.461 828.514 718.28 841.77 706.629 854.892C698.835 863.67 690.576 872.203 683.245 881.365C681.908 883.037 680.651 884.336 680.397 886.54C681.608 886.652 682.429 885.788 683.32 885.022C689.421 879.775 694.72 872.658 700.149 866.655L740.874 820.777C741.276 824.615 741.578 828.462 741.782 832.315C734.597 840.565 689.632 890.76 688.128 896.838L688.641 897.33C692.687 895.548 735.152 844.545 742.212 836.974C743.009 841.517 743.647 846.166 744.804 850.632C736.526 862.407 721.203 879.338 715.529 891.832C727.858 883.187 734.721 867.95 745.049 857.096C747.35 874.491 748.822 893.327 753.382 910.26C735.162 914.07 676.001 909.315 666.659 913.741L666.531 914.634C668.102 915.487 669.792 915.576 671.54 915.694C684.313 916.557 697.437 916.048 710.249 916.189C717.694 916.272 742.905 917.648 748.637 916.001C750.59 915.439 752.736 914.425 754.78 914.517C756.182 915.315 756.149 915.479 757.691 915.094C758.664 913.967 759.174 912.946 759.035 911.443C758.723 908.067 757.179 904.734 756.576 901.361C755.476 895.206 749.512 853.978 750.53 849.565C751.511 845.314 756.217 839.213 758.895 835.715C760.38 833.776 763.185 830.92 763.108 828.371L762.269 827.438C759.964 827.817 758.677 829.644 757.364 831.467C754.395 835.59 751.466 840.199 749.062 844.677C748.298 839.306 747.591 833.927 746.941 828.541L749.395 825.203C755.39 821.104 761.038 811.449 765.608 805.694C770.175 799.944 775.015 794.385 779.475 788.554L779.106 787.868C778.343 787.669 777.878 787.4 777.09 787.649C771.997 789.256 750.414 816.663 747.99 822.003C747.68 822.225 747.287 822.299 746.929 822.431C745.805 820.317 745.737 816.577 745.29 814.137C755.043 803.058 763.878 791.195 773.582 780.08C776.768 776.43 782.168 772.515 784.77 768.767C785.226 768.11 785.274 767.361 785.37 766.595C784.834 766.038 784.899 765.799 784.16 765.932C776.306 767.345 751.087 801.363 744.958 809.258C744.232 805.116 743.216 800.999 742.315 796.891C746.502 791.067 769.809 763.17 770.848 759.381L770.191 758.301L768.927 758.074C767.642 758.619 743.284 780.262 741.401 782.342C739.268 772.274 737.93 761.992 736.265 751.837L729.132 709.626C722.659 670.431 715.929 631.254 710.927 591.832L698.727 502.582C697.247 492.438 696.678 482.119 694.748 472.054ZM218.799 478.511C217.064 459.938 213.328 441.627 211.248 423.108C207.594 390.584 205.612 358.043 203.42 325.404C202.972 318.727 202.395 311.985 202.45 305.292C202.469 303.033 203.363 299.014 202.787 297.038C202.658 296.594 202.194 296.329 201.897 295.975C201.299 296.216 200.953 296.938 200.683 297.487C196.367 306.269 206.312 414.826 208.524 431.975C209.7 441.096 211.459 450.185 213.097 459.234C214.273 465.73 215.232 472.408 216.84 478.807C216.615 480.031 219.186 489.498 219.796 491.387C220.043 486.986 219.567 482.839 218.799 478.511ZM887.245 529.466C896.438 517.421 924.753 468.405 923.175 454.273C923.025 452.932 922.536 452.214 921.678 451.21C920.307 450.57 919.36 450.338 917.903 450.939C910.572 453.961 903.229 471.641 897.809 475.126C897.778 474.794 897.753 474.462 897.714 474.131C897.442 471.829 896.345 469.464 895.529 467.299C893.15 465.309 891.451 463.888 888.188 464.185C885.114 464.464 882.743 466.819 881.007 469.178C878.338 472.806 876.35 477.615 874.452 481.702C870.967 466.089 868.914 450.287 866.349 434.514L850.76 336.827C846.789 313.119 841.973 289.49 837.357 265.899C833.978 248.633 830.871 231.332 827.356 214.086C825.053 202.552 822.615 191.046 820.042 179.569C819.032 175.061 818.331 169.738 816.682 165.461C816.175 164.146 815.19 162.797 813.953 162.078C812.491 161.228 810.641 161.007 809.027 161.586C807.333 162.193 806.357 163.641 805.83 165.277C804.276 170.108 805.488 176.901 805.564 182.012C806.712 229.571 810.088 277.05 815.68 324.294C817.031 335.218 818.578 346.257 820.314 357.125C821.6 365.178 823.238 373.176 824.008 381.302C821.382 375.988 818.776 370.892 815.311 366.059C813.072 365.099 810.869 364.104 808.528 363.417C805.549 363.839 803.445 363.867 801.494 366.475C797.518 371.789 797.053 381.213 795.865 387.632C794.5 381.813 793.467 375.892 791.982 370.108C789.882 361.927 787.29 353.898 785.678 345.593C783.981 336.848 783.488 327.847 782.102 319.031C780.085 306.204 767.472 235.154 759.864 229.941C758.923 229.296 757.93 228.926 756.78 229.213C754.978 229.662 753.721 231.248 753.021 232.883C750.191 239.5 753.014 300.465 753.797 311.288C755.969 341.311 759.416 371.114 762.419 401.051C767.196 452.889 772.818 504.646 779.283 556.301C781.896 579.419 784.82 602.5 788.053 625.539C789.803 638.388 791.024 651.928 794.455 664.437L793.94 665.525C793.867 665.79 793.799 666.056 793.72 666.319C790.559 676.882 756.035 721.236 757.737 729.148L758.675 729.751C761.361 729.002 763.468 725.122 764.772 722.795C774.494 705.442 786.026 689.342 795.922 672.126C796.745 674.061 797.536 676.071 798.561 677.908C799.56 679.699 800.86 680.874 802.896 681.344C806.09 682.083 809.463 681.833 812.176 679.897C822.352 672.635 827.854 637.038 829.679 624.375C833.035 614.578 842.117 603.488 847.799 594.7C857.436 579.795 866.274 564.475 875.332 549.218C879.264 542.594 883.891 536.431 887.245 529.466ZM908.794 733.861C895.211 745.673 883.287 759.735 870.883 772.775C855.477 788.969 840.343 805.032 825.698 821.928C820.069 828.422 814.292 834.722 809.137 841.614C818.979 834.141 827.664 824.131 835.963 815.031L854.158 795.371L909.997 735.231C918.96 725.653 929.056 716.6 937.341 706.459C932.481 709.055 914.453 728.306 908.794 733.861ZM506.371 87.6833C506.989 95.1673 508.283 102.557 508.777 110.062C510.486 136.027 509.281 170.801 495.536 193.391C495.019 194.242 495.168 193.876 495.041 194.86L495.887 194.528C499.038 190.776 501.72 187.07 503.778 182.602C512.711 163.206 513.445 131.494 511.558 110.204C511.225 106.456 509.435 90.3824 506.898 88.0643C506.738 87.9181 506.547 87.8103 506.371 87.6833ZM461.589 102.889C433.272 115.365 414.6 141.66 400.36 168.132C397.001 174.377 393.25 180.913 390.732 187.531C388.844 192.494 388.491 196.679 390.651 201.626C394.35 210.097 403.072 219.415 411.232 223.688L411.738 223.052C404.573 215.728 392.163 206.257 392.43 194.981C392.7 183.59 415.002 148.263 422.618 138.43C427.456 132.183 433.198 126.109 439.051 120.796C443.909 116.386 449.207 111.979 454.661 108.321C456.884 106.829 461.145 105.223 462.631 103.196L461.589 102.889ZM456.563 121.184C443.826 137.552 422.007 176.403 424.709 197.148C425.656 204.424 429.403 212.188 435.367 216.618C437.298 218.052 439.433 219.298 441.493 220.538L441.528 219.803C433.416 212.236 427.904 205.239 427.481 193.684C426.882 177.304 438.559 156.353 446.085 141.947C448.519 137.287 450.792 132.392 453.794 128.079C454.719 126.75 458.243 122.8 457.246 121.355L456.563 121.184ZM397.798 136.296C391.41 142.969 367.643 185.037 364.537 194.395C369.78 204.807 382.827 221.379 394.253 225.11C396.777 225.934 399.641 225.685 402.267 225.644L402.131 224.669C396.563 219.899 389.598 218.997 383.53 215.482C378.353 212.483 368.59 200.515 368.324 194.388C368.237 192.367 369.039 190.636 369.885 188.847C372.958 182.353 377.114 176.303 380.623 170.032C385.1 162.031 389.141 153.701 393.725 145.784C395.382 142.921 398.04 139.918 399.166 136.864C398.179 136.301 398.651 136.447 397.798 136.296ZM540.021 146.266C539.946 146.389 539.869 146.51 539.796 146.633C537.113 151.16 535.475 156.687 533.46 161.559C527.972 174.83 519.456 187.686 505.762 193.37C505.782 194.439 505.629 193.947 506.23 194.845C514.412 194.043 520.831 187.81 525.838 181.732C532.852 173.22 541.208 158.439 540.628 147.058L540.021 146.266ZM552.196 173.369C546.48 179.082 534.552 194.407 534.843 202.445C534.862 202.975 534.945 203.236 535.057 203.781L535.587 204.17C537.695 200.106 539.747 195.973 542.068 192.026C544.218 188.37 551.803 177.846 552.632 174.544C552.696 174.288 552.587 174.018 552.565 173.755L552.196 173.369ZM518.366 228.973C509.701 234.451 501.583 240.729 493.14 246.533C486.551 251.062 479.645 255.127 473.049 259.624C472.394 260.071 472.076 260.542 471.736 261.245C471.555 263.099 472.185 264.003 473.216 265.448C478.012 265.953 490.096 255.448 494.069 252.217C498.219 248.842 517.284 232.856 518.758 229.308L518.366 228.973ZM567.636 236.417C564.722 241.049 558.83 251.906 559.471 257.339C560.155 258.14 560.251 258.221 561.257 258.523C562.52 257.212 567.153 245.005 568.776 241.985C569.08 243.747 569.315 245.56 569.776 247.288C568.134 251.339 566.532 255.311 564.357 259.116C562.448 262.028 560.637 265.107 558.248 267.652C558.269 267.797 558.296 267.941 558.313 268.087C558.474 269.49 558.241 270.402 557.711 271.701L558.277 272.446C561.392 271.756 564.199 266.697 565.849 264.128C571.292 255.656 574.697 249.367 571.865 239.059C571.489 237.692 570.899 237.221 569.766 236.468L567.636 236.417ZM405.578 253.044C405.957 254.624 406.468 254.826 407.841 255.643C415.104 259.965 440.136 273.366 447.454 272.155C447.89 270.719 448.196 269.687 447.988 268.157C447.256 267.117 446.335 266.819 445.19 266.364C438.365 263.654 431.125 261.938 424.184 259.546C418.142 257.465 411.809 254.24 405.578 253.044ZM534.181 258.158C523.261 260.583 512.277 262.718 501.243 264.56C494.653 265.647 487.928 266.215 481.524 268.176C480.369 270.629 478.443 273.498 479.045 276.242L479.878 276.877C480.433 275.878 480.723 274.918 481.055 273.832C481.991 273.738 482.688 273.771 483.617 273.81C488.658 274.025 494.083 273.005 499.118 272.468C501.533 272.05 505.428 270.802 507.576 272.046C507.845 272.998 508.125 273.929 508.321 274.899C508.816 277.343 510.1 279.301 511.422 281.377C513.825 282.806 517.547 284.308 520.404 283.373C521.943 282.869 522.897 281.444 523.47 280.013C524.86 276.54 523.556 269.908 524.977 267.732C528.022 267.252 531.323 268.24 534.204 267.261L534.583 266.491C533.952 265.656 534.31 265.797 533.366 265.67C530.973 265.349 527.613 266.669 525.27 267.351C528.178 265.989 534.413 263.744 535.644 260.753C535.868 260.209 535.925 259.823 536.041 259.267C535.325 258.556 535.149 258.438 534.181 258.158ZM921.286 274.384C915.066 285.178 881.588 380.224 882.848 386.269C882.923 386.628 883.317 387.353 883.444 387.61C886.959 385.922 888.034 381.756 889.269 378.243C891.624 371.551 893.556 364.715 895.857 358.004C904.407 333.061 913.908 308.745 919.718 282.941C920.306 280.329 921.574 276.993 921.286 274.384ZM469.251 310.29C468.837 311.54 468.301 312.849 468.938 314.128C470.458 317.181 475.385 318.87 478.493 319.645C478.867 319.739 479.308 319.8 479.68 319.86C479.78 318.855 480.074 318.569 479.386 317.76C477.151 315.13 473.819 313.382 471.435 310.719C470.707 310.558 469.992 310.385 469.251 310.29ZM481.439 333.544L480.293 334.534L480.424 335.353C483.738 336.907 490.108 336.187 493.898 336.671L494.807 335.659C494.127 334.505 493.599 334.298 492.285 334C488.914 333.235 484.872 333.27 481.439 333.544ZM913.61 528.676C908.896 538.709 903.125 548.047 897.749 557.721C891.047 569.784 884.672 582.032 877.919 594.065C875.64 598.125 869.589 605.978 868.596 610.007C868.502 610.389 868.626 610.792 868.641 611.185L869.983 612.709C872.306 611.194 873.786 609.411 875.315 607.137C880.181 599.9 884.053 591.748 888.387 584.168C894.519 573.441 912.262 545.51 914.621 535.506C915.118 533.398 915.607 530.969 914.418 529.108L913.61 528.676ZM920.183 549.703C916.615 554.336 913.933 560.043 910.918 565.09C905.117 574.801 895.485 588.803 891.638 598.865C891.834 600.099 891.94 600.512 893.15 601.175C893.427 601.327 893.743 601.396 894.039 601.506C897.466 599.232 921.098 557.039 922.274 551.557C921.644 550.465 921.295 550.34 920.183 549.703ZM75.5558 789.736C74.9029 791.019 74.0202 792.091 74.4825 793.605C75.3441 796.427 79.6831 800.262 81.6638 802.684C108.587 835.394 137.65 866.283 168.66 895.148C171.426 897.679 176.285 903.226 179.672 904.534C180.171 904.727 180.776 904.781 181.307 904.827L182.509 903.193C181.851 900.314 167.83 888.739 164.808 885.828C143.212 865.023 122.83 843.541 102.835 821.204C96.5047 814.132 90.5098 806.744 84.4178 799.466C82.0318 796.616 79.2496 792.362 76.3 790.171C76.0693 790 75.8039 789.881 75.5558 789.736Z"/><path fill="#4C4040" d="M391.581 121.191C392.706 119.312 393.997 117.881 395.822 116.639C400.425 113.505 406.034 111.476 411.134 109.282C428.078 101.994 445.324 95.3 463.242 90.7736C472.042 88.5505 497.62 82.0249 505.301 83.7485L505.876 84.5301C503.39 86.6674 473.587 93.1915 467.492 94.7921C448.042 99.8992 428.967 107.182 410.285 114.588C404.4 116.92 397.923 119.009 392.286 121.851L391.581 121.191Z"/><path fill="#231F20" d="M495.887 194.528L495.041 194.86C495.168 193.876 495.019 194.242 495.536 193.391C509.281 170.801 510.486 136.027 508.777 110.062C508.283 102.557 506.989 95.1673 506.371 87.6833C506.547 87.8103 506.738 87.9181 506.898 88.0643C509.435 90.3824 511.225 106.456 511.558 110.204C513.445 131.494 512.711 163.206 503.778 182.602C501.72 187.07 499.038 190.776 495.887 194.528Z"/><path fill="#231F20" d="M534.937 108.746C542.548 116.014 573.482 146.08 575.165 154.38C576.048 158.732 571.691 188.21 570.87 194.342C569.75 202.715 567.222 213.443 567.823 221.806C567.912 223.043 568.322 223.031 569.202 223.819C567.617 225.169 565.535 225.854 563.462 225.951C559.942 218.451 569.925 166.475 571.244 154.984C567.383 151.314 564.592 145.52 560.645 141.408C549.32 129.609 536.946 118.93 525.51 107.309C524.143 105.92 523.266 104.936 523.281 102.939C525.874 100.53 532.321 106.267 536.898 104.427C537.687 104.11 538.427 103.6 539.278 103.447C543.58 102.671 551.607 104.311 556.416 104.445C566.194 104.717 575.988 104.304 585.767 104.525C595.862 104.754 653.519 107.045 658.968 110.448C659.563 111.768 659.552 112.06 659.416 113.513C656.939 116.666 653.333 113.475 650.192 115.422C649.913 116.125 649.722 116.732 649.79 117.502C650.135 121.422 651.384 125.466 651.938 129.415C653.378 139.688 654.439 150.008 655.679 160.307C657.292 173.699 658.331 187.098 659.773 200.497L672.002 309.444C673.583 322.955 674.847 336.499 676.64 349.985C679.392 370.692 682.499 391.402 685.577 412.065C687.115 422.387 689.605 433.329 689.877 443.765C689.912 445.086 690.217 448.096 689.351 449.023L687.739 448.307C686.635 446.924 686.18 445.497 685.76 443.785C684.449 438.45 683.964 432.665 683.151 427.222L678.504 396.715C672.027 352.764 666.414 308.691 661.668 264.519C659.524 244.974 657.371 225.324 655.611 205.742C654.444 192.756 653.702 179.734 652.478 166.753C650.813 149.084 648.36 131.424 647.024 113.735C630.157 111.834 609.114 109.94 592.128 109.793L555.748 109.436C548.981 109.366 541.552 110.051 534.937 108.746Z"/><path fill="#4C4040" d="M411.232 223.688C403.072 219.415 394.35 210.097 390.651 201.626C388.491 196.679 388.844 192.494 390.732 187.531C393.25 180.913 397.001 174.377 400.36 168.132C414.6 141.66 433.272 115.365 461.589 102.889L462.631 103.196C461.145 105.223 456.884 106.829 454.661 108.321C449.207 111.979 443.909 116.386 439.051 120.796C433.198 126.109 427.456 132.183 422.618 138.43C415.002 148.263 392.7 183.59 392.43 194.981C392.163 206.257 404.573 215.728 411.738 223.052L411.232 223.688Z"/><path fill="#4C4040" d="M178.379 442.093L176.306 425.354C175.722 434.293 173.107 451.978 173.815 460.012C174.332 465.873 178.002 471.787 179.319 477.625C184.087 498.759 187.547 520.167 192.214 541.303C192.695 543.483 194.405 547.861 192.95 549.658C191.739 549.177 191.617 549.082 191.071 547.794C187.997 540.548 185.546 522.275 183.818 513.77C180.528 498.31 176.853 482.934 172.798 467.657C171.947 477.033 170.578 487.043 170.986 496.45C171.275 503.093 173.141 509.756 174.441 516.257C176.599 527.044 178.83 537.753 182.078 548.281C186.936 564.026 193.158 579.485 197.592 595.339C207.167 629.579 213.123 664.864 223.995 698.764C229.284 715.256 236.132 731.35 242.987 747.247C246.873 756.259 250.627 765.416 254.897 774.252C259.351 783.47 264.659 792.277 269.072 801.504C271.855 789.227 271.817 776.394 274.805 764.226C260.453 740.645 251.195 714.732 241.608 688.944C225.804 646.428 210.624 601.274 200.91 556.899C196.326 535.958 192.776 514.813 188.51 493.81C186.637 484.59 184.932 475.13 182.344 466.094C183.483 465.344 183.883 464.81 185.298 464.838L185.374 465.274C185.558 466.28 185.639 467.051 186.337 467.849L186.793 467.977C192.337 489.301 194.359 511.539 199.166 532.999C211.165 587.16 227.064 640.381 246.74 692.248C255.197 715.003 263.804 738.164 275.176 759.654C276.851 741.087 280.653 722.588 282.912 704.072C287.583 665.573 291.354 626.97 294.225 588.295C296.86 557.054 298.849 525.762 300.191 494.438C301.387 459.72 301.901 424.982 301.733 390.244C301.911 359.254 301.919 328.264 301.76 297.273C301.303 238.776 301.497 180.122 297.557 121.728C296.166 120.309 292.881 121.94 290.817 120.23C290.879 118.796 291.126 118.643 292.011 117.483C293.308 116.782 294.451 117.099 295.848 117.283L296.518 117.376C298.42 115.748 297.044 111.558 299.681 109.385C300.488 109.6 300.225 109.417 300.843 110.12C302.463 111.966 301.904 114.364 301.783 116.647C311.547 114.869 384.248 103.735 388.912 104.959C389.743 105.177 389.871 105.868 390.276 106.557C390.213 107.34 390.352 107.784 389.773 108.392C388.498 109.729 386.52 110.135 384.779 110.502C381.324 111.229 377.716 111.392 374.21 111.808L353.451 114.478C338.013 116.555 317.406 120.567 302.395 120.62C304.234 143.854 304.602 167.152 305.244 190.437C305.579 202.613 306.529 214.778 306.751 226.954C307.056 260.36 307.139 293.768 307.002 327.175C306.993 392.662 307.862 458.424 303.837 523.818C301.062 570.228 297.474 616.586 293.077 662.871C289.618 694.007 285.756 725.098 281.492 756.134C280.201 765.886 273.503 802.856 274.773 809.564C275.717 814.547 280.99 821.92 283.675 826.53C293.521 843.439 303.715 860.597 314.618 876.837C323.107 889.482 332.78 901.576 340.74 914.53C347.798 914.48 373.443 912.36 378.147 913.857C379.114 914.164 378.762 913.947 379.276 914.935C379.168 915.107 379.075 915.29 378.952 915.451C378.18 916.463 377.125 916.938 375.923 917.243C372.919 918.005 369.534 917.808 366.438 917.932C359.341 918.215 351.606 918.242 344.61 919.206C343.624 920.951 345.778 922.886 344.856 924.91L343.808 925.051C341.902 923.719 340.581 921.482 339.21 919.625C328.754 918.047 316.653 920.072 306.043 920.354C296.336 920.612 276.736 921.629 267.921 920.168C265.774 919.812 263.047 919.072 261.499 917.425C256.634 912.251 258.857 890.919 259.103 883.231C252.397 875.885 247.188 866.674 241.966 858.242C223.428 828.305 208.917 796.481 195.229 764.111C179.769 727.548 166.667 693.027 154.723 655.137C151.427 644.68 147.625 634.03 145.305 623.319C140.723 619.813 135.789 616.664 131.023 613.406C135.041 631.35 140.579 648.909 145.838 666.517C159.377 712.107 175.25 756.971 193.394 800.931C196.501 808.352 199.686 815.749 203.507 822.836C205.978 827.42 209.242 831.752 211.19 836.572C211.265 836.756 211.334 836.943 211.405 837.129C188.777 815.235 151.982 697.414 141.698 663.463C136.989 647.917 130.039 627.061 127.578 611.283C124.558 609.352 121.257 607.719 118.116 605.983C123.09 622.467 126.17 639.796 129.978 656.604C133.989 674.307 138.937 691.958 143.749 709.462C148.869 728.088 153.922 747.266 161.344 765.14C163.238 769.699 165.431 774.318 167.988 778.537C169.822 781.563 171.964 784.365 173.514 787.557C173.592 787.716 173.665 787.876 173.74 788.036C172.499 790.024 171.839 791.398 169.496 792.07C168.504 791.825 167.93 791.595 167.135 790.916C161.431 786.04 159.988 777.449 156.609 771.13C154.621 767.412 152.214 763.925 150.204 760.214C144.278 749.278 138.836 737.589 133.961 726.144C124.936 704.956 118.716 682.724 112.541 660.591C107.591 642.85 100.548 617.695 99.6244 599.629C99.4768 596.741 98.5715 591.058 100.508 588.909C104.452 589.347 159.841 626.464 167.031 631.497C165.97 608.076 162.335 584.86 161.841 561.444C161.502 545.359 162.309 529.092 163.044 513.021C163.92 493.888 164.6 474.633 166.4 455.564C168.126 437.286 170.838 419.246 173.228 401.057C176.562 375.684 179.63 349.858 185.268 324.874C186.35 324.028 186.488 324.152 187.883 324.185L188.527 325.017C189.262 329.744 188.374 334.466 188.645 339.206C189.085 346.911 190.12 354.659 190.832 362.348C191.385 368.315 191.612 374.302 192.168 380.268L198.883 445.463C200.132 456.708 201.001 468.179 202.864 479.328C204.449 488.823 206.768 498.112 208.869 507.497C212.648 524.378 216.556 541.109 221.215 557.773C226.364 576.077 232.031 594.233 238.21 612.216C241.809 622.803 246.136 633.527 249.059 644.304C249.661 646.523 249.928 648.684 249.298 650.914L248.353 651.012L249.022 651.319C246.52 649.667 240.427 630.488 239.032 626.493C223.473 582.073 210.78 536.701 201.031 490.656C196.613 469.055 192.07 447.39 188.13 425.698C185.669 412.148 184.01 398.323 180.804 384.931C180.164 394.733 178.025 404.742 177.941 414.52C177.858 424.225 180.476 434.959 182.222 444.52C180.912 443.837 179.629 442.892 178.379 442.093ZM186.412 346.424C183.669 354.051 181.245 368.703 181.861 376.796C182.246 381.864 184.735 387.049 185.71 392.111C188.508 406.636 190.642 421.314 193.04 435.912C193.508 438.733 193.943 441.194 195.153 443.813L194.249 436.016C192.242 427.284 192.421 417.682 191.531 408.748C189.452 387.879 186.88 367.448 186.412 346.424ZM174.768 532.912C172.988 527.295 172.178 521.371 171.21 515.572C169.161 526.404 169.65 539.055 170.115 550.057C170.721 564.428 176.975 632.754 183.145 641.139C184.175 642.54 185.519 643.775 186.756 644.992C183.842 627.417 181.144 609.806 178.664 592.164C176.787 579.129 174.346 565.504 174.495 552.319L175.822 551.84C177.76 559.971 178.315 568.58 179.556 576.841L187.368 628.579C188.709 637.331 189.796 646.21 191.499 654.897C198.677 691.516 212.609 734.659 228.043 768.54C233.909 781.415 240.01 794.386 246.445 806.986C252.309 818.47 258.549 829.699 264.15 841.327C265.513 829.938 266.935 818.556 268.416 807.182C265.679 802.97 263.548 798.119 261.236 793.642C255.651 782.827 250.331 772.159 245.422 761.017C235.543 738.595 225.885 716.419 218.745 692.916C208.974 660.752 202.833 627.537 193.805 595.142C188.469 575.994 178.7 554.791 175.295 535.569L174.768 532.912ZM173.338 611.932C173.515 609.09 172.584 606.227 172.12 603.432C171.844 608.98 171.678 614.659 172.442 620.175L172.362 634.224C174.261 635.148 176.113 636.17 177.975 637.165C176.111 628.807 174.706 620.382 173.338 611.932ZM157.7 631.256C154.115 629.109 150.641 626.598 146.956 624.657C150.542 631.681 152.679 639.551 155.107 647.039C159.323 660.037 163.257 673.154 167.774 686.049C177.885 714.423 189.087 742.396 201.355 769.906C215.122 801.444 229.079 832.31 247.823 861.318C251.573 867.123 255.261 873.519 259.804 878.741C261.356 867.615 262.157 856.39 263.544 845.242C254.886 831.584 247.421 816.967 240.264 802.472C219.527 760.475 203.316 717.427 192.513 671.807C190.947 665.194 189.18 658.641 187.9 651.963C180.33 649.662 175.009 642.833 168.177 638.874L169.28 638.789C169.083 638.713 168.889 638.63 168.689 638.563C165.177 637.394 162.295 632.775 158.625 630.907L157.7 631.256ZM103.966 595.682C105.27 610.423 108.531 625.625 112.067 639.986C114.694 650.656 118.282 661.064 121.485 671.568C127.756 692.135 133.648 712.243 142.214 732.031C144.239 736.706 146.151 741.933 149.082 746.123C146.821 737.48 143.617 729.102 141.304 720.473C134.168 693.787 127.793 666.902 122.188 639.853C119.886 629.032 116.079 616.383 116.61 605.294C113.12 601.984 108.48 597.47 103.966 595.682ZM272.675 815.774C271.821 826.575 269.229 837.395 269.21 848.238C278.834 864.337 288.831 880.21 299.191 895.845C303.449 902.246 307.596 909.258 312.609 915.062C319.282 915.103 325.955 915.032 332.625 914.852C333.914 914.723 334.281 914.999 335.159 913.977C334.608 910.508 322.704 895.464 319.808 891.365C307.948 874.576 297.228 856.829 286.626 839.221C283.95 834.777 276.058 818.843 273.332 816.229C273.14 816.045 272.894 815.926 272.675 815.774ZM268.056 853.504C266.34 864.103 265.44 874.619 264.62 885.323C271.467 895.227 279.627 904.882 285.442 915.397C292.335 915.335 299.236 915.461 306.125 915.365L307.851 915.137L308.153 914.465C300.275 904.054 292.932 893.249 286.153 882.09C280.806 873.281 274.364 861.315 268.056 853.504ZM264.082 890.861C264.012 898.548 263.627 906.255 264.923 913.862C271.159 915.688 276.825 915.739 283.283 915.439C279.416 910.452 267.878 894.159 264.082 890.861Z"/><path fill="#4C4040" d="M341.358 200.433C348.071 184.72 358.57 169.779 367.615 155.29C373.702 145.54 379.44 135.203 386.517 126.138C388.032 124.197 389.633 122.697 391.581 121.191L392.286 121.851C388.994 133.881 378.113 146.669 371.039 157.041C365.471 165.265 360.061 173.595 354.812 182.026C351.414 187.538 347.52 193.354 345.906 199.696C352.467 204.93 372.793 218.148 373.606 226.217C374.017 230.303 365.107 241.569 363.2 246.107C363.693 247.253 363.864 247.204 364.997 247.774C363.661 248.463 362.783 248.938 361.224 248.874C359.714 248.11 359.179 246.848 358.387 245.436C362.891 238.911 368.203 232.711 372.429 226.056C372.319 224.843 372.114 224.35 371.12 223.575C368.676 221.669 365.436 220.35 362.795 218.676C354.745 213.575 347.476 207.747 341.358 200.433Z"/><path fill="#231F20" d="M441.493 220.538C439.433 219.298 437.298 218.052 435.367 216.618C429.403 212.188 425.656 204.424 424.709 197.148C422.007 176.403 443.826 137.552 456.563 121.184L457.246 121.355C458.243 122.8 454.719 126.75 453.794 128.079C450.792 132.392 448.519 137.287 446.085 141.947C438.559 156.353 426.882 177.304 427.481 193.684C427.904 205.239 433.416 212.236 441.528 219.803L441.493 220.538Z"/><path fill="#231F20" d="M364.537 194.395C367.643 185.037 391.41 142.969 397.798 136.296C398.651 136.447 398.179 136.301 399.166 136.864C398.04 139.918 395.382 142.921 393.725 145.784C389.141 153.701 385.1 162.031 380.623 170.032C377.114 176.303 372.958 182.353 369.885 188.847C369.039 190.636 368.237 192.367 368.324 194.388C368.59 200.515 378.353 212.483 383.53 215.482C389.598 218.997 396.563 219.899 402.131 224.669L402.267 225.644C399.641 225.685 396.777 225.934 394.253 225.11C382.827 221.379 369.78 204.807 364.537 194.395Z"/><path fill="#231F20" d="M506.23 194.845C505.629 193.947 505.782 194.439 505.762 193.37C519.456 187.686 527.972 174.83 533.46 161.559C535.475 156.687 537.113 151.16 539.796 146.633C539.869 146.51 539.946 146.389 540.021 146.266L540.628 147.058C541.208 158.439 532.852 173.22 525.838 181.732C520.831 187.81 514.412 194.043 506.23 194.845Z"/><path fill="#4C4040" d="M887.245 529.466C887.19 523.369 889.892 516.198 891.843 510.431C886.876 518.495 881.084 526.036 875.783 533.881C866.674 547.361 857.76 561.391 849.272 575.28C837.977 593.761 826.403 612.108 815.256 630.679C811.766 636.493 808.126 642.22 804.656 648.041C801.359 653.572 798.477 659.376 794.455 664.437C791.024 651.928 789.803 638.388 788.053 625.539C784.82 602.5 781.896 579.419 779.283 556.301C772.818 504.646 767.196 452.889 762.419 401.051C759.416 371.114 755.969 341.311 753.797 311.288C753.014 300.465 750.191 239.5 753.021 232.883C753.721 231.248 754.978 229.662 756.78 229.213C757.93 228.926 758.923 229.296 759.864 229.941C767.472 235.154 780.085 306.204 782.102 319.031C783.488 327.847 783.981 336.848 785.678 345.593C787.29 353.898 789.882 361.927 791.982 370.108C793.467 375.892 794.5 381.813 795.865 387.632C797.053 381.213 797.518 371.789 801.494 366.475C803.445 363.867 805.549 363.839 808.528 363.417C810.869 364.104 813.072 365.099 815.311 366.059C818.776 370.892 821.382 375.988 824.008 381.302C823.238 373.176 821.6 365.178 820.314 357.125C818.578 346.257 817.031 335.218 815.68 324.294C810.088 277.05 806.712 229.571 805.564 182.012C805.488 176.901 804.276 170.108 805.83 165.277C806.357 163.641 807.333 162.193 809.027 161.586C810.641 161.007 812.491 161.228 813.953 162.078C815.19 162.797 816.175 164.146 816.682 165.461C818.331 169.738 819.032 175.061 820.042 179.569C822.615 191.046 825.053 202.552 827.356 214.086C830.871 231.332 833.978 248.633 837.357 265.899C841.973 289.49 846.789 313.119 850.76 336.827L866.349 434.514C868.914 450.287 870.967 466.089 874.452 481.702C876.35 477.615 878.338 472.806 881.007 469.178C882.743 466.819 885.114 464.464 888.188 464.185C891.451 463.888 893.15 465.309 895.529 467.299C896.345 469.464 897.442 471.829 897.714 474.131C897.753 474.462 897.778 474.794 897.809 475.126C903.229 471.641 910.572 453.961 917.903 450.939C919.36 450.338 920.307 450.57 921.678 451.21C922.536 452.214 923.025 452.932 923.175 454.273C924.753 468.405 896.438 517.421 887.245 529.466Z"/><path fill="#231F20" d="M535.587 204.17L535.057 203.781C534.945 203.236 534.862 202.975 534.843 202.445C534.552 194.407 546.48 179.082 552.196 173.369L552.565 173.755C552.587 174.018 552.696 174.288 552.632 174.544C551.803 177.846 544.218 188.37 542.068 192.026C539.747 195.973 537.695 200.106 535.587 204.17Z"/><path fill="#231F20" d="M569.202 223.819C573.97 225.591 577.893 233.062 579.933 237.481C583.415 245.021 586.338 254.748 583.465 262.929C579.673 273.723 564.516 281.934 556.591 290.02C556.108 291.707 556.093 293.35 554.468 294.287C553.984 294.566 553.142 294.734 552.627 294.88C550.143 297.761 551.233 328.13 551.551 333.995C557.572 334.345 567.844 334.679 572.097 339.537C575.998 343.992 575.597 351.854 575.062 357.394C574.807 360.034 574.533 362.583 574.565 365.248L574.904 365.859C579.748 374.478 586.285 380.392 588.514 390.424C587.601 393.188 586.146 396.295 587.097 399.198C593.198 404.133 603.549 407.729 610.773 411.072C623.898 417.146 669.972 441.21 677.804 450.98C682.765 457.168 685.511 467.841 686.289 475.621C687.278 485.512 687.27 495.338 687.667 505.245C688.211 518.804 689.208 532.28 688.876 545.872C688.665 554.487 688.535 563.142 688.135 571.749C687.774 579.517 687.19 587.209 687.518 594.996C691.822 597.265 705.004 603.192 706.053 608.223C706.314 609.472 705.972 610.266 705.166 611.211C701.284 615.762 692.277 614.174 689.195 615.601C688.555 615.897 688.678 616.166 688.646 616.798C688.397 621.644 698.289 628.693 694.245 632.692C692.626 634.293 689.406 634.241 687.297 634.392C689.816 636.833 695.104 640.847 694.855 644.78C694.743 646.546 693.791 648.365 692.377 649.424C688.992 651.96 683.745 650.353 680.707 652.615C679.792 653.296 679.427 654.82 679.1 655.848C677.374 661.27 676.255 666.906 674.669 672.377C672.249 680.726 669.163 688.635 665.793 696.642C664.643 699.376 663.678 702.744 662.09 705.192L661.551 704.576C655.767 697.894 638.056 670.17 630.658 668.028C630.616 669.6 631.78 671.152 632.665 672.417C636.886 678.45 642.045 684.089 646.479 690.044C650.076 694.875 654.574 702.313 658.422 706.568C659.201 707.43 660.848 707.408 660.86 708.347C660.922 713.264 642.821 759.441 639.589 762.458C636.885 764.982 631.134 765.279 628.927 767.811C629.973 772.382 632.544 776.614 634.317 780.944C637.319 788.273 640.096 796.476 641.966 804.159C649.592 835.491 655.677 867.683 658.47 899.833C659.723 914.256 659.731 928.716 660.59 943.141C660.632 943.852 660.642 944.408 660.541 945.103L659.5 945.968L658.639 945.755C656.114 941.364 657.024 928.144 656.842 922.624C630.983 935.866 514.105 942.217 481.527 940.479C465.014 939.597 447.85 936.969 432.103 931.907C425.658 929.835 419.04 927.427 412.918 924.544C408.911 922.656 403.878 918.539 399.715 917.761L398.947 917.601C398.488 916.888 398.049 916.164 397.69 915.393C394.645 908.845 395.569 893.369 395.553 885.658C395.513 866.681 395.522 847.708 396.744 828.759C397.754 813.11 399.764 797.59 401.514 782.015C402.395 774.174 403.825 757.488 406.34 750.681C406.776 749.5 406.849 749.32 407.953 748.847C421.983 752.764 467.822 735.649 482.217 729.811C503.895 720.834 525.224 711.037 546.158 700.44C549.906 698.58 554.065 697.418 557.709 695.369C558.784 694.765 559.486 694.237 559.98 693.069C559.486 692.048 559.51 691.993 558.49 691.521C549.003 692.125 517.068 710.544 505.888 715.269C479.436 726.447 452.478 737.342 424.483 744.044C411.883 747.06 399.611 746.405 386.966 747.829C381.953 748.393 376.804 750.335 371.739 750.22C366.47 750.1 360.244 744.189 355.429 746.095C353.701 746.78 352.075 747.223 350.271 747.667C345.893 746.791 339.216 743.731 336.405 740.216C328.636 730.503 339.162 661.058 341.295 646.025C335.769 648.997 329.403 651.024 323.192 649.011C320.601 648.171 314.878 645.766 313.648 643.329C314.906 641.429 321.808 641.795 324.123 641.361C331.181 640.038 337.803 634.345 342.899 629.614C334.072 633.962 327.653 638.402 317.351 637.661C315.11 637.5 311.983 637.466 310.428 635.667C311.03 632.795 315.188 633.183 317.533 632.168C325.249 628.826 332.786 619.476 337.247 612.634C332.255 614.852 327.227 617.004 322.004 618.625C317.163 620.126 309.034 622.642 304.359 619.728C303.645 619.283 303.805 619.04 303.682 618.294C319.055 609.46 331.329 596.637 345.189 585.719C346.991 580.327 349.338 575.232 350.304 569.597C338.88 570.102 328.322 570.794 318.258 564.379C315.972 562.922 311.952 560.993 311.332 558.236C313.78 556.191 322.503 557.67 325.909 557.578C335.591 557.318 344.198 553.301 353.686 552.374C355.129 538.718 372.099 455.318 379.485 447.714C386.345 440.652 415.488 427.624 426.056 421.94C436.195 416.486 447.471 410.7 454.719 401.519C456.443 405.763 455.268 410.448 457.355 414.928C461.986 424.872 469.715 429.391 479.64 432.979C483.754 434.466 494.262 439.136 498.199 437.292L498.496 436.221L497.786 435.128C490.249 432.516 475.14 426.158 468.764 421.668C465.298 419.228 461.459 416.029 460.741 411.664C460.26 408.74 458.849 403.715 460.223 401.058C463.126 401.35 465.28 405.411 467.043 407.515C465.466 403.735 463.725 398.72 460.726 395.858C459.576 394.761 458.766 394.872 457.237 394.846L456.407 390.321C453.041 386 449.402 382.599 446.564 377.792C451.542 368.036 458.211 362.385 466.598 355.734C454.79 349.885 441.574 345.87 430.391 338.874C427.961 334.336 426.458 328.911 424.679 324.065L424.929 323.822C424.907 323.549 424.904 323.274 424.862 323.004C424.419 320.137 420.657 310.664 418.47 308.97C416.853 305.232 415.204 298.833 411.874 296.361C409.576 293.287 407.931 288.944 406.175 285.477C406.182 284.237 406.073 284.166 405.341 283.148L405.864 282.692L406.968 282.817C407.43 283.499 407.664 284.11 407.932 284.878C408.369 286.135 408.734 286.624 409.817 287.41C411.544 289.238 412.968 292.789 414.2 295.071C417.749 301.645 421.574 308.268 424.598 315.093C427.344 321.29 429.533 329.351 433.351 334.871C438.136 341.789 484.387 359.49 494.586 361.092C506.028 354.321 543.386 318.78 546.352 305.859C548.266 297.523 544.992 286.773 548.899 279.101C550.194 280.442 550.895 284.132 551.615 285.967C554.207 286.084 557.286 283.443 559.306 281.928C566.553 276.489 579.295 267.86 580.461 258.127C581.785 247.08 575.24 236.552 568.927 228.152C564.456 230.688 560.677 233.565 557.471 237.617C554.085 241.897 549.857 248.794 549.077 254.266C548.614 257.52 549.412 262.597 549.8 265.916C545.733 261.975 542.976 238.337 541.335 231.104C540.389 226.878 539.136 222.725 537.585 218.681C534.524 210.822 525.951 200.847 524.148 194.653L524.615 193.974C525.211 194.04 525.685 194.171 526.187 194.515C528.251 195.93 529.981 198.829 531.465 200.859C541.33 214.348 544.576 228.105 548.265 244.062C551.658 236.746 556.277 229.976 563.462 225.951C565.535 225.854 567.617 225.169 569.202 223.819ZM623.148 527.745C620.998 530.763 619.97 534.656 618.781 538.123C614.287 548.575 611.322 560.065 607.95 570.946C604.323 582.651 599.134 596.834 597.392 608.762C607.016 594.96 613.664 588.925 629.169 581.785C632.963 580.038 637.165 578.901 640.847 576.972C643.982 571.94 663.501 548.614 663.414 545.434C658.6 545.232 635.025 562.402 631.026 566.303C628.972 568.306 627.565 571.541 625.273 573.186C623.721 574.3 621.248 574.66 619.877 575.909C619.41 576.335 619.362 577.488 619.351 578.07L618.547 578.623L617.344 578.069C615.342 579.537 612.732 582.041 611.594 584.243C611.821 584.332 612.051 584.411 612.273 584.51C612.464 584.594 612.646 584.699 612.832 584.794C612.361 585.82 612.195 585.852 611.206 586.431C610.813 586.028 610.428 585.619 610.048 585.204L609.511 585.69L609.951 587.528C608.98 588.234 608.771 588.197 607.555 588.258L607.341 587.481C607.444 587.314 607.565 587.156 607.649 586.979C608.41 585.389 608.401 582.94 608.535 581.173C609.178 572.729 616.957 548.747 619.892 540.419C620.1 536.364 622.301 531.855 623.148 527.745ZM510.05 642.388C508.804 640.305 497.09 636.862 494.128 636.093L493.695 635.984C492.54 639.296 491.256 642.049 492.01 645.595L492.929 646.813C489.092 648.372 484.216 648.141 480.089 648.743L479.66 647.717C480.628 647.317 481.658 646.922 482.534 646.341C485.721 644.224 486.144 638.645 486.863 635.202C483.61 634.627 481.118 634.077 478.263 632.357C482.83 633.189 488.107 632.751 492.833 633.305C493.273 633.692 493.719 634.085 494.201 634.419C495.354 635.218 496.561 635.336 497.906 635.122C497.319 633.904 496.572 633.067 495.569 632.179C493.631 630.462 488.574 627.147 485.907 627.375C482.8 627.641 479.106 627.88 476.064 627.099C463.972 623.996 452.816 618.531 441.161 614.161L440.835 615.031C444.086 620.424 466.75 627.773 473.3 629.926C471.92 636.554 471.8 643.349 470.366 649.946C457.792 651.462 445.285 653.261 432.674 654.496C417.677 655.964 401.807 656.623 387.151 660.165C389.363 656.803 391.503 653.393 393.567 649.937C380.647 658.142 365.766 683.072 360.696 697.591C367.245 691.384 380.676 666.285 386.102 663.57C389.896 661.672 413.1 660.224 418.75 659.636C430.514 658.414 442.208 656.731 453.936 655.235C461.122 654.319 468.354 653.781 475.525 652.736C497.255 649.57 519.214 644.665 539.943 637.415C544.233 635.914 549.073 634.991 552.933 632.521L552.989 631.797L552.144 631.102C551.462 630.912 551.363 630.832 550.548 630.902C548.676 631.063 545.988 632.625 544.144 633.266C537.314 635.639 530.363 637.965 523.402 639.921C518.955 641.171 514.644 641.924 510.05 642.388ZM562.46 650.265C562.406 644.123 562.082 637.851 562.797 631.744C562.821 631.536 562.835 631.326 562.862 631.118C563.253 628.129 566.831 625.454 565.057 622.575C563.358 622.567 560.901 624.086 559.749 625.304C554.076 631.305 557.146 660.149 557.751 668.513C558.24 675.254 559.737 680.967 562.195 687.237C564.403 688.875 566.596 690.54 568.828 692.145C573.077 689.908 576.685 686.481 580.715 683.858L578.42 680.071C574.437 678.356 570.64 676.71 566.388 675.777C565.718 673.67 564.981 671.565 564.49 669.409C565.502 671.019 566.299 672.84 567.345 674.395L567.746 673.953L567.22 673.981L567.912 674.936C568.35 674.001 568.304 672.996 567.938 672.022C567.779 671.598 567.495 671.322 567.209 670.997L567.179 670.62C573.05 671.629 579.635 677.387 583.888 681.287C597.924 674.574 611.52 667.036 625.279 659.786C632.079 656.203 639.635 651.326 647.02 649.282C653.314 654.123 658.797 659.85 665.019 664.694C666.293 665.686 667.717 666.823 669.431 666.32C670.769 665.926 670.951 665.304 671.486 664.16C671.212 656.284 663.308 650.511 658.704 644.922L658.988 644.099C661.72 642.986 668.417 647.676 671.36 648.58C676.433 650.14 683.907 649.471 688.569 646.917C689.928 646.172 690.56 645.865 690.94 644.38C689.999 642.429 688.294 640.909 686.792 639.376C678.757 631.17 667.99 629.311 657.3 626.389C655.27 625.834 652.544 625.379 650.902 624.058L651.031 623.313C656.444 620.238 676.459 629.243 683.077 630.402C685.956 630.905 689.043 630.526 691.943 630.337C683.874 614.931 661.77 610.799 648.664 601.058C645.448 602.148 642.15 603.195 639.134 604.776C637.237 605.771 635.416 607.263 633.456 608.077C632.251 608.576 631.093 608.219 629.93 607.78L629.688 607.062C634.796 599.779 644.899 599.859 652.231 596.366C652.374 596.298 652.513 596.226 652.654 596.156C658.472 598.53 664.515 600.483 670.225 603.092C675.728 605.606 681.534 609.358 687.269 611.096C692.43 612.661 697.538 611.541 702.217 609.244C696.055 603.798 688.567 600.194 681.534 596.035C675.225 592.304 669.119 588.032 662.39 585.079C656.904 582.672 650.991 581.024 645.296 579.172C642.05 580.732 638.293 581.694 634.924 583.046C627.193 586.148 619.205 590.431 612.581 595.504C607.448 599.436 603.876 605.216 599.774 610.142C589.354 622.651 578.339 632.857 564.126 640.972C564.263 643.899 564.107 646.935 563.783 649.844L562.46 650.265ZM545.71 316.348C537.399 322.504 528.506 337.397 522.153 346.078C516.259 354.132 509.111 362.879 501.799 369.699C499.247 372.08 496.217 373.97 492.834 374.89C489.078 375.911 472.304 375.325 471.636 378.256C472.667 379.123 473.831 379.222 475.111 379.459C494.079 384.612 526.467 371.569 543.414 361.806C544.997 360.894 546.476 359.919 547.825 358.68C547.668 347.573 546.969 336.601 546.5 325.52C546.414 323.493 546.967 319.253 546.425 317.498C546.292 317.067 545.949 316.731 545.71 316.348ZM563.933 416.567C551.413 423.863 536.769 433.524 522.123 435.155C518.263 435.585 502.704 434.069 501.91 434.412L502.475 434.792C509.608 438.784 521.435 438.457 529.128 436.274C537.449 433.914 559.23 424.326 563.943 417.223C564.041 417.076 564.11 416.911 564.193 416.754L563.933 416.567ZM383.434 447.853C383.35 455.767 386.53 465.234 387.81 473.24L393.963 511.373C396.065 525.034 397.981 538.917 401.068 552.391C401.92 556.108 403.112 561.527 405.621 564.482C406.272 565.249 406.739 565.454 407.643 565.819C405.978 557.728 404.216 549.634 402.808 541.495C400.895 530.441 389.379 452.421 384.333 448.393C384.043 448.162 383.751 448.02 383.434 447.853ZM663.243 448.756C657.263 456.5 621.467 503.547 621.054 509.523L621.8 509.649C627.872 502.063 633.023 493.861 638.674 485.976C643.476 479.277 662.317 455.129 664.207 449.506C663.6 448.812 663.945 449.029 663.243 448.756ZM411.094 479.822C407.557 487 404.374 523.877 404.925 533.318L405.333 533.57C406.806 529.875 406.82 519.598 407.295 514.795C407.816 509.528 412.055 482.996 411.094 479.822ZM385.598 553.851C384.987 554.123 384.425 554.376 383.752 554.453C380.05 554.88 375.646 554.164 371.839 554.167C366.174 554.17 360.44 554.722 354.793 555.153C353.882 558.547 353.201 561.942 352.57 565.398C359.076 565.585 364.957 566.214 370.981 568.77L373.3 570.894C382.762 566.972 391.602 567.196 401.592 565.997C396.12 561.146 393.15 555.537 385.598 553.851ZM351.116 555.217C346.692 555.535 343.361 558.223 339.152 559.331C332.646 561.044 324.138 560.62 317.402 560.45C319.2 561.469 320.984 562.557 322.819 563.503C332.474 567.344 340.338 568.377 350.667 566.398C351.131 562.891 351.979 559.024 351.793 555.504L351.116 555.217ZM403.521 568.778C396.603 569.128 388.661 568.82 381.959 570.698C376.479 572.233 371.701 575.438 366.907 578.392C360.175 582.54 353.393 586.591 347.124 591.431C340.184 596.79 333.744 602.802 326.63 607.932C320.971 612.013 314.681 615.006 308.682 618.531C318.912 617.072 329.061 612.865 338.241 608.159C355.289 599.419 364.969 589.229 385.167 587.599C388.82 587.304 392.283 586.795 395.515 588.909L395.554 589.621C390.417 591.978 383.816 590.789 378.304 591.53C374.852 591.994 371.287 593.431 368.149 594.913C361.078 598.253 352.693 602.589 346.842 607.728C343.72 610.47 341.084 614.006 338.361 617.141C332.901 623.429 327.196 628.605 320.198 633.118C319.516 633.558 319.746 633.418 319.227 634.257C323.46 635.663 332.743 631.446 336.587 629.532C350.122 622.792 361.557 612.638 375.874 607.26C379.655 605.884 387.862 602.583 391.794 604.023C392.003 604.1 392.166 604.266 392.352 604.388C392.217 605.315 392.425 605.058 391.726 605.621C388.916 607.886 382.542 608.161 379.005 609.258C372.53 611.265 365.446 615.03 359.589 618.39C357.315 619.695 354.657 621.049 352.673 622.77C350.254 624.868 348.153 627.802 346.016 630.214C340.048 636.95 332.784 642.12 324.231 644.988C323.902 645.098 323.58 645.225 323.256 645.346L323.343 646.033C332.723 648.247 347.511 638.613 355.208 633.844C361.342 630.044 380.832 617.643 387.065 617.36L387.36 618.03C384.788 621.707 381.536 623.263 377.841 625.512C384.297 636.233 393.858 644.885 403.714 652.379C408.293 652.923 429.471 652.326 432.814 650.086C436.483 647.627 441.298 628.381 441.421 623.688C441.463 622.074 441.224 621.97 440.096 620.858C439.658 620.427 439.17 620.026 438.707 619.624C437.263 614.929 435.742 610.315 433.502 605.929C431.871 602.736 410.703 569.593 410.309 569.363C408.418 568.256 405.645 569.119 403.521 568.778ZM622.852 680.864C622.79 681.405 622.615 681.944 622.665 682.486C622.89 684.93 633.048 704.997 634.838 707.298C635.054 707.575 635.327 707.844 635.566 708.094C635.735 702.949 627.548 684.689 623.608 681.344C623.381 681.151 623.104 681.024 622.852 680.864ZM506.874 726.573C507.466 727.321 507.934 727.888 508.822 728.29C521 733.795 533.843 738.344 546.282 743.244C559.972 748.637 573.612 754.461 587.496 759.323C597.293 762.754 607.566 766.321 617.759 768.359C617.981 768.279 618.2 768.191 618.424 768.118C619.586 767.735 620.083 767.764 621.241 768.108L621.392 767.008C619.632 765.034 589.599 756.153 584.079 754.247C563.983 747.31 544.377 738.747 524.366 731.505C519.58 729.773 513.472 726.585 508.422 726.443C507.828 726.426 507.49 726.497 506.874 726.573Z"/><path fill="#231F20" d="M398.815 268.667C397.491 260.905 391.171 232.862 393.363 226.945C396.077 233.171 396.341 241.181 397.535 247.858C398.798 254.926 400.569 262.208 402.706 269.068C401.428 268.863 400.105 268.793 398.815 268.667Z"/><path fill="#231F20" d="M473.216 265.448C472.185 264.003 471.555 263.099 471.736 261.245C472.076 260.542 472.394 260.071 473.049 259.624C479.645 255.127 486.551 251.062 493.14 246.533C501.583 240.729 509.701 234.451 518.366 228.973L518.758 229.308C517.284 232.856 498.219 248.842 494.069 252.217C490.096 255.448 478.012 265.953 473.216 265.448Z"/><path fill="#231F20" d="M394.115 272.657C384.342 264.365 378.661 258.353 377.644 244.922C377.366 241.245 377.742 237.848 378.852 234.321C382.105 243.36 383.603 252.359 388.952 260.594C392.2 265.596 397 269.427 399.682 274.8C397.835 274.294 395.568 273.957 394.115 272.657Z"/><path fill="#231F20" d="M568.776 241.985C567.153 245.005 562.52 257.212 561.257 258.523C560.251 258.221 560.155 258.14 559.471 257.339C558.83 251.906 564.722 241.049 567.636 236.417L569.766 236.468C570.899 237.221 571.489 237.692 571.865 239.059C574.697 249.367 571.292 255.656 565.849 264.128C564.199 266.697 561.392 271.756 558.277 272.446L557.711 271.701C558.241 270.402 558.474 269.49 558.313 268.087C558.296 267.941 558.269 267.797 558.248 267.652C560.637 265.107 562.448 262.028 564.357 259.116C566.532 255.311 568.134 251.339 569.776 247.288C569.315 245.56 569.08 243.747 568.776 241.985Z"/><path fill="#4C4040" d="M363.2 246.107C366.281 245.043 372.421 242.251 375.4 243.608C374.29 245.524 370.604 246.371 368.545 246.922C367.371 247.243 366.188 247.527 364.997 247.774C363.864 247.204 363.693 247.253 363.2 246.107Z"/><path fill="#231F20" d="M447.454 272.155C440.136 273.366 415.104 259.965 407.841 255.643C406.468 254.826 405.957 254.624 405.578 253.044C411.809 254.24 418.142 257.465 424.184 259.546C431.125 261.938 438.365 263.654 445.19 266.364C446.335 266.819 447.256 267.117 447.988 268.157C448.196 269.687 447.89 270.719 447.454 272.155Z"/><path fill="#4C4040" d="M481.524 268.176C487.928 266.215 494.653 265.647 501.243 264.56C512.277 262.718 523.261 260.583 534.181 258.158C535.149 258.438 535.325 258.556 536.041 259.267C535.925 259.823 535.868 260.209 535.644 260.753C534.413 263.744 528.178 265.989 525.27 267.351C527.613 266.669 530.973 265.349 533.366 265.67C534.31 265.797 533.952 265.656 534.583 266.491L534.204 267.261C531.323 268.24 528.022 267.252 524.977 267.732C523.556 269.908 524.86 276.54 523.47 280.013C522.897 281.444 521.943 282.869 520.404 283.373C517.547 284.308 513.825 282.806 511.422 281.377C510.1 279.301 508.816 277.343 508.321 274.899C508.125 273.929 507.845 272.998 507.576 272.046C505.428 270.802 501.533 272.05 499.118 272.468C494.083 273.005 488.658 274.025 483.617 273.81C482.688 273.771 481.991 273.738 481.055 273.832C480.723 274.918 480.433 275.878 479.878 276.877L479.045 276.242C478.443 273.498 480.369 270.629 481.524 268.176Z"/><path fill="#231F20" d="M398.815 268.667C400.105 268.793 401.428 268.863 402.706 269.068C403.275 270.289 403.884 271.499 404.319 272.776C413.99 274.358 442.119 274.92 448.475 279.452L448.883 280.301L447.916 281.72L448.298 282.31L449.533 282.022C450.23 282.816 450.41 283.19 450.533 284.24L450.019 284.46C449.809 284.305 449.603 284.144 449.388 283.995C447.727 282.848 444.89 282.523 442.922 282.072C442.981 284.151 443.051 286.199 443.244 288.271C443.488 290.901 442.992 293.874 441.266 295.976C440.403 297.026 439.268 297.697 437.878 297.716C435.716 297.746 433.609 296.279 432.274 294.685C429.524 291.401 429.308 288.378 429.591 284.265C429.616 283.893 429.629 283.52 429.649 283.148C422.144 282.096 414.53 280.774 406.966 280.325L409.817 287.41C408.734 286.624 408.369 286.135 407.932 284.878C407.664 284.11 407.43 283.499 406.968 282.817L405.864 282.692L405.341 283.148C406.073 284.166 406.182 284.237 406.175 285.477C405.287 284.579 404.246 283.826 403.259 283.038L401.844 281.267C401.237 279.751 401.021 278.345 399.659 277.405L399.682 274.8C400.129 272.499 399.496 270.844 398.815 268.667Z"/><path fill="#231F20" d="M391.633 274.156L394.115 272.657C395.568 273.957 397.835 274.294 399.682 274.8L399.659 277.405C398.031 277.496 396.335 277.458 394.784 277.976C393.388 277.05 392.56 275.519 391.633 274.156Z"/><path fill="#4C4040" d="M420.428 314.51C409.157 309.24 395.613 301.147 390.88 288.841C388.924 283.759 389.446 279.031 391.633 274.156C392.56 275.519 393.388 277.05 394.784 277.976C393.306 282.133 393.584 284.918 395.446 288.945C398.989 296.605 408.219 304.358 415.756 307.801L417.308 309.151L418.47 308.97C420.657 310.664 424.419 320.137 424.862 323.004C424.904 323.274 424.907 323.549 424.929 323.822L424.679 324.065C422.913 321.582 421.72 317.37 420.428 314.51Z"/><path fill="#4C4040" d="M883.444 387.61C883.317 387.353 882.923 386.628 882.848 386.269C881.588 380.224 915.066 285.178 921.286 274.384C921.574 276.993 920.306 280.329 919.718 282.941C913.908 308.745 904.407 333.061 895.857 358.004C893.556 364.715 891.624 371.551 889.269 378.243C888.034 381.756 886.959 385.922 883.444 387.61Z"/><path fill="#FEFEFE" d="M399.659 277.405C401.021 278.345 401.237 279.751 401.844 281.267C400.381 281.88 399.762 281.923 399.177 283.521C398.736 284.726 398.945 287.008 398.919 288.311C401.913 294.046 414.961 304.985 415.756 307.801C408.219 304.358 398.989 296.605 395.446 288.945C393.584 284.918 393.306 282.133 394.784 277.976C396.335 277.458 398.031 277.496 399.659 277.405Z"/><path fill="#4C4040" d="M398.919 288.311C398.945 287.008 398.736 284.726 399.177 283.521C399.762 281.923 400.381 281.88 401.844 281.267L403.259 283.038C402.471 284.47 402.012 284.792 402.573 286.426C404.314 291.505 411.238 299.419 415.009 303.217L411.874 296.361C415.204 298.833 416.853 305.232 418.47 308.97L417.308 309.151L415.756 307.801C414.961 304.985 401.913 294.046 398.919 288.311Z"/><path fill="#FEFEFE" d="M415.009 303.217C411.238 299.419 404.314 291.505 402.573 286.426C402.012 284.792 402.471 284.47 403.259 283.038C404.246 283.826 405.287 284.579 406.175 285.477C407.931 288.944 409.576 293.287 411.874 296.361L415.009 303.217Z"/><path fill="#4C4040" d="M218.799 478.511L216.84 478.807C215.232 472.408 214.273 465.73 213.097 459.234C211.459 450.185 209.7 441.096 208.524 431.975C206.312 414.826 196.367 306.269 200.683 297.487C200.953 296.938 201.299 296.216 201.897 295.975C202.194 296.329 202.658 296.594 202.787 297.038C203.363 299.014 202.469 303.033 202.45 305.292C202.395 311.985 202.972 318.727 203.42 325.404C205.612 358.043 207.594 390.584 211.248 423.108C213.328 441.627 217.064 459.938 218.799 478.511Z"/><path fill="#231F20" d="M479.68 319.86C479.308 319.8 478.867 319.739 478.493 319.645C475.385 318.87 470.458 317.181 468.938 314.128C468.301 312.849 468.837 311.54 469.251 310.29C469.992 310.385 470.707 310.558 471.435 310.719C473.819 313.382 477.151 315.13 479.386 317.76C480.074 318.569 479.78 318.855 479.68 319.86Z"/><path fill="#FEFEFE" d="M475.111 379.459C473.831 379.222 472.667 379.123 471.636 378.256C472.304 375.325 489.078 375.911 492.834 374.89C496.217 373.97 499.247 372.08 501.799 369.699C509.111 362.879 516.259 354.132 522.153 346.078C528.506 337.397 537.399 322.504 545.71 316.348C545.949 316.731 546.292 317.067 546.425 317.498C546.967 319.253 546.414 323.493 546.5 325.52C546.969 336.601 547.668 347.573 547.825 358.68C546.476 359.919 544.997 360.894 543.414 361.806C526.467 371.569 494.079 384.612 475.111 379.459Z"/><path fill="#231F20" d="M493.898 336.671C490.108 336.187 483.738 336.907 480.424 335.353L480.293 334.534L481.439 333.544C484.872 333.27 488.914 333.235 492.285 334C493.599 334.298 494.127 334.505 494.807 335.659L493.898 336.671Z"/><path fill="#FEFEFE" d="M193.04 435.912C190.642 421.314 188.508 406.636 185.71 392.111C184.735 387.049 182.246 381.864 181.861 376.796C181.245 368.703 183.669 354.051 186.412 346.424C186.88 367.448 189.452 387.879 191.531 408.748C192.421 417.682 192.242 427.284 194.249 436.016L193.04 435.912Z"/><path fill="#231F20" d="M457.237 394.846C458.766 394.872 459.576 394.761 460.726 395.858C463.725 398.72 465.466 403.735 467.043 407.515C465.28 405.411 463.126 401.35 460.223 401.058C458.849 403.715 460.26 408.74 460.741 411.664C461.459 416.029 465.298 419.228 468.764 421.668C475.14 426.158 490.249 432.516 497.786 435.128L498.496 436.221L498.199 437.292C494.262 439.136 483.754 434.466 479.64 432.979C469.715 429.391 461.986 424.872 457.355 414.928C455.268 410.448 456.443 405.763 454.719 401.519C455.498 400.738 456.331 400.384 457.303 399.891C458.124 398.24 457.518 396.633 457.237 394.846Z"/><path fill="#FEFEFE" d="M502.475 434.792L501.91 434.412C502.704 434.069 518.263 435.585 522.123 435.155C536.769 433.524 551.413 423.863 563.933 416.567L564.193 416.754C564.11 416.911 564.041 417.076 563.943 417.223C559.23 424.326 537.449 433.914 529.128 436.274C521.435 438.457 509.608 438.784 502.475 434.792Z"/><path fill="#FEFEFE" d="M176.306 425.354L178.379 442.093C178.763 450.025 180.875 458.281 182.344 466.094C184.932 475.13 186.637 484.59 188.51 493.81C192.776 514.813 196.326 535.958 200.91 556.899C210.624 601.274 225.804 646.428 241.608 688.944C251.195 714.732 260.453 740.645 274.805 764.226C271.817 776.394 271.855 789.227 269.072 801.504C264.659 792.277 259.351 783.47 254.897 774.252C250.627 765.416 246.873 756.259 242.987 747.247C236.132 731.35 229.284 715.256 223.995 698.764C213.123 664.864 207.167 629.579 197.592 595.339C193.158 579.485 186.936 564.026 182.078 548.281C178.83 537.753 176.599 527.044 174.441 516.257C173.141 509.756 171.275 503.093 170.986 496.45C170.578 487.043 171.947 477.033 172.798 467.657C176.853 482.934 180.528 498.31 183.818 513.77C185.546 522.275 187.997 540.548 191.071 547.794C191.617 549.082 191.739 549.177 192.95 549.658C194.405 547.861 192.695 543.483 192.214 541.303C187.547 520.167 184.087 498.759 179.319 477.625C178.002 471.787 174.332 465.873 173.815 460.012C173.107 451.978 175.722 434.293 176.306 425.354Z"/><path fill="#B3B2B2" d="M193.04 435.912L194.249 436.016L195.153 443.813C193.943 441.194 193.508 438.733 193.04 435.912Z"/><path fill="#4C4040" d="M178.379 442.093C179.629 442.892 180.912 443.837 182.222 444.52C183.923 452.127 185.893 460.245 186.793 467.977L186.337 467.849C185.639 467.051 185.558 466.28 185.374 465.274L185.298 464.838C183.883 464.81 183.483 465.344 182.344 466.094C180.875 458.281 178.763 450.025 178.379 442.093Z"/><path fill="#FEFEFE" d="M407.643 565.819C406.739 565.454 406.272 565.249 405.621 564.482C403.112 561.527 401.92 556.108 401.068 552.391C397.981 538.917 396.065 525.034 393.963 511.373L387.81 473.24C386.53 465.234 383.35 455.767 383.434 447.853C383.751 448.02 384.043 448.162 384.333 448.393C389.379 452.421 400.895 530.441 402.808 541.495C404.216 549.634 405.978 557.728 407.643 565.819Z"/><path fill="#FEFEFE" d="M621.8 509.649L621.054 509.523C621.467 503.547 657.263 456.5 663.243 448.756C663.945 449.029 663.6 448.812 664.207 449.506C662.317 455.129 643.476 479.277 638.674 485.976C633.023 493.861 627.872 502.063 621.8 509.649Z"/><path fill="#231F20" d="M693.159 472.052C692.825 469.301 692.55 466.693 692.658 463.916L693.284 463.431L692.699 463.419L693.028 462.496C694.178 465.459 694.429 468.9 694.748 472.054L693.159 472.052Z"/><path fill="#231F20" d="M693.159 472.052L694.748 472.054C696.678 482.119 697.247 492.438 698.727 502.582L710.927 591.832C715.929 631.254 722.659 670.431 729.132 709.626L736.265 751.837C737.93 761.992 739.268 772.274 741.401 782.342C743.284 780.262 767.642 758.619 768.927 758.074L770.191 758.301L770.848 759.381C769.809 763.17 746.502 791.067 742.315 796.891C743.216 800.999 744.232 805.116 744.958 809.258C751.087 801.363 776.306 767.345 784.16 765.932C784.899 765.799 784.834 766.038 785.37 766.595C785.274 767.361 785.226 768.11 784.77 768.767C782.168 772.515 776.768 776.43 773.582 780.08C763.878 791.195 755.043 803.058 745.29 814.137C745.737 816.577 745.805 820.317 746.929 822.431C747.287 822.299 747.68 822.225 747.99 822.003L748.576 822.196C747.911 823.371 746.891 824.41 747.233 825.746C748.246 825.846 748.488 825.604 749.395 825.203L746.941 828.541C747.591 833.927 748.298 839.306 749.062 844.677C751.466 840.199 754.395 835.59 757.364 831.467C758.677 829.644 759.964 827.817 762.269 827.438L763.108 828.371C763.185 830.92 760.38 833.776 758.895 835.715C756.217 839.213 751.511 845.314 750.53 849.565C749.512 853.978 755.476 895.206 756.576 901.361C757.179 904.734 758.723 908.067 759.035 911.443C759.174 912.946 758.664 913.967 757.691 915.094C756.149 915.479 756.182 915.315 754.78 914.517C752.736 914.425 750.59 915.439 748.637 916.001C742.905 917.648 717.694 916.272 710.249 916.189C697.437 916.048 684.313 916.557 671.54 915.694C669.792 915.576 668.102 915.487 666.531 914.634L666.659 913.741C676.001 909.315 735.162 914.07 753.382 910.26C748.822 893.327 747.35 874.491 745.049 857.096C734.721 867.95 727.858 883.187 715.529 891.832C721.203 879.338 736.526 862.407 744.804 850.632C743.647 846.166 743.009 841.517 742.212 836.974C735.152 844.545 692.687 895.548 688.641 897.33L688.128 896.838C689.632 890.76 734.597 840.565 741.782 832.315C741.578 828.462 741.276 824.615 740.874 820.777L700.149 866.655C694.72 872.658 689.421 879.775 683.32 885.022C682.429 885.788 681.608 886.652 680.397 886.54C680.651 884.336 681.908 883.037 683.245 881.365C690.576 872.203 698.835 863.67 706.629 854.892C718.28 841.77 729.461 828.514 740.271 814.684C739.602 810.203 738.798 805.743 737.86 801.31C729.464 809.803 682.052 868.81 678.173 870.224L676.36 869.34C675.627 867.664 681.124 861.284 682.371 859.599C688.143 851.801 693.467 843.991 699.82 836.627C705.527 830.012 738.101 798.649 738.064 794.017C738.059 793.286 737.685 793.15 737.215 792.67C733.586 795.389 730.483 798.612 727.14 801.653L705.616 821.601L704.815 821.467C704.583 821.682 704.353 821.9 704.118 822.112C702.52 823.551 701.551 823.939 699.448 823.814C704.886 818.257 711.046 813.268 716.704 807.914C723.545 801.44 729.981 794.559 736.957 788.223C722.881 708.834 711.065 629.062 701.523 549.002C699.655 533.499 696.515 518.258 694.857 502.671C693.793 492.673 694.213 482.559 693.218 472.569C693.201 472.396 693.179 472.224 693.159 472.052ZM752.603 776.621C749.064 778.899 742.61 783.381 741.83 787.791C741.618 788.99 741.861 789.731 742.392 790.786C745.656 786.08 748.799 781.228 752.886 777.185L752.603 776.621Z"/><path fill="#231F20" d="M216.84 478.807L218.799 478.511C219.567 482.839 220.043 486.986 219.796 491.387C219.186 489.498 216.615 480.031 216.84 478.807Z"/><path fill="#FEFEFE" d="M405.333 533.57L404.925 533.318C404.374 523.877 407.557 487 411.094 479.822C412.055 482.996 407.816 509.528 407.295 514.795C406.82 519.598 406.806 529.875 405.333 533.57Z"/><path fill="#231F20" d="M891.843 510.431C889.892 516.198 887.19 523.369 887.245 529.466C883.891 536.431 879.264 542.594 875.332 549.218C866.274 564.475 857.436 579.795 847.799 594.7C842.117 603.488 833.035 614.578 829.679 624.375C824.047 627.71 804.053 661.192 797.621 669.46C797.453 669.427 797.277 669.421 797.117 669.362C795.745 668.855 794.7 666.7 793.94 665.525L794.455 664.437C798.477 659.376 801.359 653.572 804.656 648.041C808.126 642.22 811.766 636.493 815.256 630.679C826.403 612.108 837.977 593.761 849.272 575.28C857.76 561.391 866.674 547.361 875.783 533.881C881.084 526.036 886.876 518.495 891.843 510.431Z"/><path fill="#FEFEFE" d="M171.21 515.572C172.178 521.371 172.988 527.295 174.768 532.912C172.482 536.977 174.046 547.52 174.495 552.319C174.346 565.504 176.787 579.129 178.664 592.164C181.144 609.806 183.842 627.417 186.756 644.992C185.519 643.775 184.175 642.54 183.145 641.139C176.975 632.754 170.721 564.428 170.115 550.057C169.65 539.055 169.161 526.404 171.21 515.572Z"/><path fill="#FEFEFE" d="M618.781 538.123C619.97 534.656 620.998 530.763 623.148 527.745C622.301 531.855 620.1 536.364 619.892 540.419L618.781 538.123Z"/><path fill="#4C4040" d="M869.983 612.709L868.641 611.185C868.626 610.792 868.502 610.389 868.596 610.007C869.589 605.978 875.64 598.125 877.919 594.065C884.672 582.032 891.047 569.784 897.749 557.721C903.125 548.047 908.896 538.709 913.61 528.676L914.418 529.108C915.607 530.969 915.118 533.398 914.621 535.506C912.262 545.51 894.519 573.441 888.387 584.168C884.053 591.748 880.181 599.9 875.315 607.137C873.786 609.411 872.306 611.194 869.983 612.709Z"/><path fill="#7A7576" d="M174.768 532.912L175.295 535.569C173.644 538.193 175.591 548.21 175.822 551.84L174.495 552.319C174.046 547.52 172.482 536.977 174.768 532.912Z"/><path fill="#FEFEFE" d="M175.822 551.84C175.591 548.21 173.644 538.193 175.295 535.569C178.7 554.791 188.469 575.994 193.805 595.142C202.833 627.537 208.974 660.752 218.745 692.916C225.885 716.419 235.543 738.595 245.422 761.017C250.331 772.159 255.651 782.827 261.236 793.642C263.548 798.119 265.679 802.97 268.416 807.182C266.935 818.556 265.513 829.938 264.15 841.327C258.549 829.699 252.309 818.47 246.445 806.986C240.01 794.386 233.909 781.415 228.043 768.54C212.609 734.659 198.677 691.516 191.499 654.897C189.796 646.21 188.709 637.331 187.368 628.579L179.556 576.841C178.315 568.58 177.76 559.971 175.822 551.84Z"/><path fill="#FEFEFE" d="M618.781 538.123L619.892 540.419C616.957 548.747 609.178 572.729 608.535 581.173C608.401 582.94 608.41 585.389 607.649 586.979C607.565 587.156 607.444 587.314 607.341 587.481L607.555 588.258C608.771 588.197 608.98 588.234 609.951 587.528L609.511 585.69L610.048 585.204C610.428 585.619 610.813 586.028 611.206 586.431C612.195 585.852 612.361 585.82 612.832 584.794C612.646 584.699 612.464 584.594 612.273 584.51C612.051 584.411 611.821 584.332 611.594 584.243C612.732 582.041 615.342 579.537 617.344 578.069L618.547 578.623L619.351 578.07C619.362 577.488 619.41 576.335 619.877 575.909C621.248 574.66 623.721 574.3 625.273 573.186C627.565 571.541 628.972 568.306 631.026 566.303C635.025 562.402 658.6 545.232 663.414 545.434C663.501 548.614 643.982 571.94 640.847 576.972C637.165 578.901 632.963 580.038 629.169 581.785C613.664 588.925 607.016 594.96 597.392 608.762C599.134 596.834 604.323 582.651 607.95 570.946C611.322 560.065 614.287 548.575 618.781 538.123Z"/><path fill="#4C4040" d="M894.039 601.506C893.743 601.396 893.427 601.327 893.15 601.175C891.94 600.512 891.834 600.099 891.638 598.865C895.485 588.803 905.117 574.801 910.918 565.09C913.933 560.043 916.615 554.336 920.183 549.703C921.295 550.34 921.644 550.465 922.274 551.557C921.098 557.039 897.466 599.232 894.039 601.506Z"/><path fill="#FEFEFE" d="M354.793 555.153C360.44 554.722 366.174 554.17 371.839 554.167C375.646 554.164 380.05 554.88 383.752 554.453C384.425 554.376 384.987 554.123 385.598 553.851C393.15 555.537 396.12 561.146 401.592 565.997C391.602 567.196 382.762 566.972 373.3 570.894L370.981 568.77C364.957 566.214 359.076 565.585 352.57 565.398C353.201 561.942 353.882 558.547 354.793 555.153Z"/><path fill="#FEFEFE" d="M317.402 560.45C324.138 560.62 332.646 561.044 339.152 559.331C343.361 558.223 346.692 555.535 351.116 555.217L351.793 555.504C351.979 559.024 351.131 562.891 350.667 566.398C340.338 568.377 332.474 567.344 322.819 563.503C320.984 562.557 319.2 561.469 317.402 560.45Z"/><path fill="#FEFEFE" d="M308.682 618.531C314.681 615.006 320.971 612.013 326.63 607.932C333.744 602.802 340.184 596.79 347.124 591.431C353.393 586.591 360.175 582.54 366.907 578.392C371.701 575.438 376.479 572.233 381.959 570.698C388.661 568.82 396.603 569.128 403.521 568.778C405.645 569.119 408.418 568.256 410.309 569.363C410.703 569.593 431.871 602.736 433.502 605.929C435.742 610.315 437.263 614.929 438.707 619.624C439.17 620.026 439.658 620.427 440.096 620.858C441.224 621.97 441.463 622.074 441.421 623.688C441.298 628.381 436.483 647.627 432.814 650.086C429.471 652.326 408.293 652.923 403.714 652.379C393.858 644.885 384.297 636.233 377.841 625.512C381.536 623.263 384.788 621.707 387.36 618.03L387.065 617.36C380.832 617.643 361.342 630.044 355.208 633.844C347.511 638.613 332.723 648.247 323.343 646.033L323.256 645.346C323.58 645.225 323.902 645.098 324.231 644.988C332.784 642.12 340.048 636.95 346.016 630.214C348.153 627.802 350.254 624.868 352.673 622.77C354.657 621.049 357.315 619.695 359.589 618.39C365.446 615.03 372.53 611.265 379.005 609.258C382.542 608.161 388.916 607.886 391.726 605.621C392.425 605.058 392.217 605.315 392.352 604.388C392.166 604.266 392.003 604.1 391.794 604.023C387.862 602.583 379.655 605.884 375.874 607.26C361.557 612.638 350.122 622.792 336.587 629.532C332.743 631.446 323.46 635.663 319.227 634.257C319.746 633.418 319.516 633.558 320.198 633.118C327.196 628.605 332.901 623.429 338.361 617.141C341.084 614.006 343.72 610.47 346.842 607.728C352.693 602.589 361.078 598.253 368.149 594.913C371.287 593.431 374.852 591.994 378.304 591.53C383.816 590.789 390.417 591.978 395.554 589.621L395.515 588.909C392.283 586.795 388.82 587.304 385.167 587.599C364.969 589.229 355.289 599.419 338.241 608.159C329.061 612.865 318.912 617.072 308.682 618.531Z"/><path fill="#FEFEFE" d="M563.783 649.844C564.107 646.935 564.263 643.899 564.126 640.972C578.339 632.857 589.354 622.651 599.774 610.142C603.876 605.216 607.448 599.436 612.581 595.504C619.205 590.431 627.193 586.148 634.924 583.046C638.293 581.694 642.05 580.732 645.296 579.172C650.991 581.024 656.904 582.672 662.39 585.079C669.119 588.032 675.225 592.304 681.534 596.035C688.567 600.194 696.055 603.798 702.217 609.244C697.538 611.541 692.43 612.661 687.269 611.096C681.534 609.358 675.728 605.606 670.225 603.092C664.515 600.483 658.472 598.53 652.654 596.156C652.513 596.226 652.374 596.298 652.231 596.366C644.899 599.859 634.796 599.779 629.688 607.062L629.93 607.78C631.093 608.219 632.251 608.576 633.456 608.077C635.416 607.263 637.237 605.771 639.134 604.776C642.15 603.195 645.448 602.148 648.664 601.058C661.77 610.799 683.874 614.931 691.943 630.337C689.043 630.526 685.956 630.905 683.077 630.402C676.459 629.243 656.444 620.238 651.031 623.313L650.902 624.058C652.544 625.379 655.27 625.834 657.3 626.389C667.99 629.311 678.757 631.17 686.792 639.376C688.294 640.909 689.999 642.429 690.94 644.38C690.56 645.865 689.928 646.172 688.569 646.917C683.907 649.471 676.433 650.14 671.36 648.58C668.417 647.676 661.72 642.986 658.988 644.099L658.704 644.922C663.308 650.511 671.212 656.284 671.486 664.16C670.951 665.304 670.769 665.926 669.431 666.32C667.717 666.823 666.293 665.686 665.019 664.694C658.797 659.85 653.314 654.123 647.02 649.282C639.635 651.326 632.079 656.203 625.279 659.786C611.52 667.036 597.924 674.574 583.888 681.287C579.635 677.387 573.05 671.629 567.179 670.62C564.718 663.831 564.513 656.951 563.783 649.844Z"/><path fill="#FEFEFE" d="M149.082 746.123C146.151 741.933 144.239 736.706 142.214 732.031C133.648 712.243 127.756 692.135 121.485 671.568C118.282 661.064 114.694 650.656 112.067 639.986C108.531 625.625 105.27 610.423 103.966 595.682C108.48 597.47 113.12 601.984 116.61 605.294C116.079 616.383 119.886 629.032 122.188 639.853C127.793 666.902 134.168 693.787 141.304 720.473C143.617 729.102 146.821 737.48 149.082 746.123Z"/><path fill="#B3B2B2" d="M173.338 611.932C171.93 614.263 172.778 617.519 172.442 620.175C171.678 614.659 171.844 608.98 172.12 603.432C172.584 606.227 173.515 609.09 173.338 611.932Z"/><path fill="#FEFEFE" d="M172.442 620.175C172.778 617.519 171.93 614.263 173.338 611.932C174.706 620.382 176.111 628.807 177.975 637.165C176.113 636.17 174.261 635.148 172.362 634.224L172.442 620.175Z"/><path fill="#FEFEFE" d="M510.05 642.388C514.644 641.924 518.955 641.171 523.402 639.921C530.363 637.965 537.314 635.639 544.144 633.266C545.988 632.625 548.676 631.063 550.548 630.902C551.363 630.832 551.462 630.912 552.144 631.102L552.989 631.797L552.933 632.521C549.073 634.991 544.233 635.914 539.943 637.415C519.214 644.665 497.255 649.57 475.525 652.736C468.354 653.781 461.122 654.319 453.936 655.235C442.208 656.731 430.514 658.414 418.75 659.636C413.1 660.224 389.896 661.672 386.102 663.57C380.676 666.285 367.245 691.384 360.696 697.591C365.766 683.072 380.647 658.142 393.567 649.937C391.503 653.393 389.363 656.803 387.151 660.165C401.807 656.623 417.677 655.964 432.674 654.496C445.285 653.261 457.792 651.462 470.366 649.946C471.8 643.349 471.92 636.554 473.3 629.926C466.75 627.773 444.086 620.424 440.835 615.031L441.161 614.161C452.816 618.531 463.972 623.996 476.064 627.099C479.106 627.88 482.8 627.641 485.907 627.375C488.574 627.147 493.631 630.462 495.569 632.179C496.572 633.067 497.319 633.904 497.906 635.122C496.561 635.336 495.354 635.218 494.201 634.419C493.719 634.085 493.273 633.692 492.833 633.305C488.107 632.751 482.83 633.189 478.263 632.357C481.118 634.077 483.61 634.627 486.863 635.202C486.144 638.645 485.721 644.224 482.534 646.341C481.658 646.922 480.628 647.317 479.66 647.717C477.418 648.142 474.686 648.357 472.725 649.55L473.378 649.687L474.103 648.866L473.872 649.682C475.944 649.393 478.039 649.16 480.089 648.743C484.216 648.141 489.092 648.372 492.929 646.813C498.669 645.529 504.509 644.386 510.05 642.388Z"/><path fill="#FEFEFE" d="M562.195 687.237C559.737 680.967 558.24 675.254 557.751 668.513C557.146 660.149 554.076 631.305 559.749 625.304C560.901 624.086 563.358 622.567 565.057 622.575C566.831 625.454 563.253 628.129 562.862 631.118C562.835 631.326 562.821 631.536 562.797 631.744C562.082 637.851 562.406 644.123 562.46 650.265C562.797 656.246 562.488 663.756 564.49 669.409C564.981 671.565 565.718 673.67 566.388 675.777C570.64 676.71 574.437 678.356 578.42 680.071L580.715 683.858C576.685 686.481 573.077 689.908 568.828 692.145C566.596 690.54 564.403 688.875 562.195 687.237Z"/><path fill="#FEFEFE" d="M146.956 624.657C150.641 626.598 154.115 629.109 157.7 631.256C160.48 633.15 164.004 635.106 165.804 638.03C168.914 643.08 172.126 658.494 173.883 664.832C179.025 683.377 196.617 746.544 206.637 759.422C194.058 727.366 184.552 693.113 175.085 660C173.087 653.013 169.309 646.021 168.177 638.874C175.009 642.833 180.33 649.662 187.9 651.963C189.18 658.641 190.947 665.194 192.513 671.807C203.316 717.427 219.527 760.475 240.264 802.472C247.421 816.967 254.886 831.584 263.544 845.242C262.157 856.39 261.356 867.615 259.804 878.741C255.261 873.519 251.573 867.123 247.823 861.318C229.079 832.31 215.122 801.444 201.355 769.906C189.087 742.396 177.885 714.423 167.774 686.049C163.257 673.154 159.323 660.037 155.107 647.039C152.679 639.551 150.542 631.681 146.956 624.657Z"/><path fill="#4C4040" d="M797.621 669.46C804.053 661.192 824.047 627.71 829.679 624.375C827.854 637.038 822.352 672.635 812.176 679.897C809.463 681.833 806.09 682.083 802.896 681.344C800.86 680.874 799.56 679.699 798.561 677.908C797.536 676.071 796.745 674.061 795.922 672.126L797.621 669.46Z"/><path fill="#231F20" d="M157.7 631.256L158.625 630.907C162.295 632.775 165.177 637.394 168.689 638.563C168.889 638.63 169.083 638.713 169.28 638.789L168.177 638.874C169.309 646.021 173.087 653.013 175.085 660C184.552 693.113 194.058 727.366 206.637 759.422C196.617 746.544 179.025 683.377 173.883 664.832C172.126 658.494 168.914 643.08 165.804 638.03C164.004 635.106 160.48 633.15 157.7 631.256Z"/><path fill="#FEFEFE" d="M510.05 642.388C504.057 643.408 498.034 644.843 492.01 645.595C491.256 642.049 492.54 639.296 493.695 635.984L494.128 636.093C497.09 636.862 508.804 640.305 510.05 642.388Z"/><path fill="#231F20" d="M492.01 645.595C498.034 644.843 504.057 643.408 510.05 642.388C504.509 644.386 498.669 645.529 492.929 646.813L492.01 645.595Z"/><path fill="#7A7576" d="M480.089 648.743C478.039 649.16 475.944 649.393 473.872 649.682L474.103 648.866L473.378 649.687L472.725 649.55C474.686 648.357 477.418 648.142 479.66 647.717L480.089 648.743Z"/><path fill="#231F20" d="M562.46 650.265L563.783 649.844C564.513 656.951 564.718 663.831 567.179 670.62L567.209 670.997C567.495 671.322 567.779 671.598 567.938 672.022C568.304 672.996 568.35 674.001 567.912 674.936L567.22 673.981L567.746 673.953L567.345 674.395C566.299 672.84 565.502 671.019 564.49 669.409C562.488 663.756 562.797 656.246 562.46 650.265Z"/><path fill="#231F20" d="M795.922 672.126C786.026 689.342 774.494 705.442 764.772 722.795C763.468 725.122 761.361 729.002 758.675 729.751L757.737 729.148C756.035 721.236 790.559 676.882 793.72 666.319C793.799 666.056 793.867 665.79 793.94 665.525C794.7 666.7 795.745 668.855 797.117 669.362C797.277 669.421 797.453 669.427 797.621 669.46L795.922 672.126Z"/><path fill="#FEFEFE" d="M635.566 708.094C635.327 707.844 635.054 707.575 634.838 707.298C633.048 704.997 622.89 684.93 622.665 682.486C622.615 681.944 622.79 681.405 622.852 680.864C623.104 681.024 623.381 681.151 623.608 681.344C627.548 684.689 635.735 702.949 635.566 708.094Z"/><path fill="#231F20" d="M908.794 733.861C914.453 728.306 932.481 709.055 937.341 706.459C929.056 716.6 918.96 725.653 909.997 735.231L908.794 733.861Z"/><path fill="#FEFEFE" d="M621.241 768.108C620.083 767.764 619.586 767.735 618.424 768.118C618.2 768.191 617.981 768.279 617.759 768.359C607.566 766.321 597.293 762.754 587.496 759.323C573.612 754.461 559.972 748.637 546.282 743.244C533.843 738.344 521 733.795 508.822 728.29C507.934 727.888 507.466 727.321 506.874 726.573C507.49 726.497 507.828 726.426 508.422 726.443C513.472 726.585 519.58 729.773 524.366 731.505C544.377 738.747 563.983 747.31 584.079 754.247C589.599 756.153 619.632 765.034 621.392 767.008L621.241 768.108Z"/><path fill="#231F20" d="M809.137 841.614C814.292 834.722 820.069 828.422 825.698 821.928C840.343 805.032 855.477 788.969 870.883 772.775C883.287 759.735 895.211 745.673 908.794 733.861L909.997 735.231L854.158 795.371L835.963 815.031C827.664 824.131 818.979 834.141 809.137 841.614Z"/><path fill="#FEFEFE" d="M742.392 790.786C741.861 789.731 741.618 788.99 741.83 787.791C742.61 783.381 749.064 778.899 752.603 776.621L752.886 777.185C748.799 781.228 745.656 786.08 742.392 790.786Z"/><path fill="#4C4040" d="M747.99 822.003C750.414 816.663 771.997 789.256 777.09 787.649C777.878 787.4 778.343 787.669 779.106 787.868L779.475 788.554C775.015 794.385 770.175 799.944 765.608 805.694C761.038 811.449 755.39 821.104 749.395 825.203C748.488 825.604 748.246 825.846 747.233 825.746C746.891 824.41 747.911 823.371 748.576 822.196L747.99 822.003Z"/><path fill="#231F20" d="M181.307 904.827C180.776 904.781 180.171 904.727 179.672 904.534C176.285 903.226 171.426 897.679 168.66 895.148C137.65 866.283 108.587 835.394 81.6638 802.684C79.6831 800.262 75.3441 796.427 74.4825 793.605C74.0202 792.091 74.9029 791.019 75.5558 789.736C75.8039 789.881 76.0693 790 76.3 790.171C79.2496 792.362 82.0318 796.616 84.4178 799.466C90.5098 806.744 96.5047 814.132 102.835 821.204C122.83 843.541 143.212 865.023 164.808 885.828C167.83 888.739 181.851 900.314 182.509 903.193L181.307 904.827Z"/><path fill="#FEFEFE" d="M269.21 848.238C269.229 837.395 271.821 826.575 272.675 815.774C272.894 815.926 273.14 816.045 273.332 816.229C276.058 818.843 283.95 834.777 286.626 839.221C297.228 856.829 307.948 874.576 319.808 891.365C322.704 895.464 334.608 910.508 335.159 913.977C334.281 914.999 333.914 914.723 332.625 914.852C325.955 915.032 319.282 915.103 312.609 915.062C307.596 909.258 303.449 902.246 299.191 895.845C288.831 880.21 278.834 864.337 269.21 848.238Z"/><path fill="#4C4040" d="M699.448 823.814C701.551 823.939 702.52 823.551 704.118 822.112C704.353 821.9 704.583 821.682 704.815 821.467L705.616 821.601C699.946 827.99 680.221 846.487 673.386 850.544L672.815 850.41C677.677 841.735 691.968 831.34 699.448 823.814Z"/><path fill="#FEFEFE" d="M264.62 885.323C265.44 874.619 266.34 864.103 268.056 853.504C274.364 861.315 280.806 873.281 286.153 882.09C292.932 893.249 300.275 904.054 308.153 914.465L307.851 915.137L306.125 915.365C299.236 915.461 292.335 915.335 285.442 915.397C279.627 904.882 271.467 895.227 264.62 885.323Z"/><path fill="#FEFEFE" d="M264.923 913.862C263.627 906.255 264.012 898.548 264.082 890.861C267.878 894.159 279.416 910.452 283.283 915.439C276.825 915.739 271.159 915.688 264.923 913.862Z"/><path fill="#231F20" d="M398.947 917.601L399.715 917.761C399.827 917.981 399.945 918.197 400.05 918.421C401.519 921.54 403.684 936.072 402.572 939.184L401.882 939.105C399.074 935.573 399.225 922.274 398.947 917.601Z"/></svg>