<svg version="1.1" xmlns="http://www.w3.org/2000/svg" style="display: block;" viewBox="0 0 2048 2048" width="1024" height="1024">
<path transform="translate(0,0)" fill="rgb(255,255,255)" d="M 0 0 L 2048 0 L 2048 2048 L 0 2048 L 0 0 z M 765.277 166.062 C 762.991 168.165 761.896 169.593 761.176 172.653 C 757.073 190.094 755.74 209.263 753.473 227.073 C 748.989 262.623 744.686 298.195 740.565 333.789 C 737.002 364.767 732.293 395.453 728.271 426.355 L 711.481 564.474 C 707.889 594.151 706.457 625.313 700.429 654.506 C 666.689 663.845 643.05 699.467 624.219 726.39 C 606.201 724.737 588.129 723.735 570.038 723.385 C 557.474 723.206 544.464 724.077 531.978 723.031 C 531.644 722.802 531.307 722.577 530.976 722.343 C 509.639 707.338 478.592 646.587 450.27 651.229 C 446.809 651.797 443.918 653.565 441.891 656.433 C 433.483 668.328 438.135 702.929 437.971 718.259 C 437.855 725.649 437.191 733.02 435.985 740.311 C 432.207 762.44 419.647 782.042 417.514 804.466 C 416.517 814.937 419.674 825.542 420.885 835.898 C 421.585 841.879 421.19 848.004 420.918 854.004 C 416.523 854.865 409.87 855.398 407.173 859.358 C 410.317 863.393 417.476 862.415 421.053 866.409 C 420.448 868.889 421.14 867.982 419.002 869.283 C 415.121 871.644 410.588 872.709 407.685 876.343 C 407.461 878.803 407.647 878.936 408.947 881.069 C 412.414 882.121 416.075 881.316 419.607 880.871 C 416.707 899.647 413.533 918.122 408.32 936.421 C 403.77 952.393 398.43 968.168 393.167 983.917 C 387.57 1000.67 368.476 1044.31 379.895 1060.1 C 381.949 1062.94 384.712 1065.19 387.488 1067.29 C 383.863 1087.55 377.009 1114.16 389.561 1132.72 C 394.027 1139.32 399.556 1142.68 406.795 1145.63 C 409.203 1163.22 410.882 1198.65 427.044 1209.74 C 429.175 1211.21 431.754 1212.24 434.184 1213.08 C 435.685 1220.78 438.324 1229.7 437.085 1237.5 C 435.718 1246.11 431.501 1255 428.507 1263.2 C 418.677 1290.13 393.418 1348.69 407.551 1374.52 C 410.252 1379.45 414.412 1382.41 418.928 1385.53 C 420.143 1407.43 424.143 1427.91 433.263 1448 C 387.414 1448.57 327.042 1453.06 293.468 1487.77 C 290.778 1490.55 289.111 1492.8 288.401 1496.63 C 289.312 1501.7 291.945 1503.2 295.96 1505.98 L 297.084 1506.75 C 276.514 1526.74 259.093 1544.86 258.604 1575.22 C 258.435 1585.72 259.599 1599.58 267.234 1607.45 C 270.75 1611.07 274.931 1613.36 280.04 1613.36 C 282.777 1613.36 285.545 1612.99 288.262 1612.68 C 301.295 1634.75 317.241 1648.06 342.393 1654.42 C 351.369 1656.69 361.583 1655.16 370.029 1658.02 C 386.246 1663.5 398.797 1674.09 416.273 1677.36 C 434.067 1680.7 453.162 1676.47 470.381 1680.37 C 486.065 1683.91 499.245 1694.25 515.664 1696.72 C 529.146 1698.75 543.92 1698.28 557.517 1697.69 C 565.295 1697.36 573.404 1696.15 581.115 1697.3 C 582.147 1700.22 581.36 1702.36 580.81 1705.33 C 580.024 1706.35 579.915 1707.07 578.582 1707.25 C 561.071 1709.62 486.963 1699.14 478.076 1707.36 C 477.875 1710.03 477.938 1709.89 479.641 1711.98 C 493.078 1718.23 574.539 1718.32 577.366 1722.86 C 573.635 1726.33 564.562 1724.81 559.615 1724.62 C 549.364 1724.24 531.652 1721.19 522.422 1725.63 C 520.866 1727.95 520.971 1727.85 521.434 1730.62 C 525.131 1734.39 569.683 1738.2 578.074 1739.67 C 600.556 1743.63 622.84 1748.72 645.308 1752.77 C 709.871 1764.12 774.516 1775 839.236 1785.41 C 970 1806.27 1101.3 1823.8 1232.17 1843.84 C 1287.23 1853.19 1342.78 1859.71 1398.05 1867.75 L 1474.01 1878.74 C 1487.92 1880.67 1502.08 1883.19 1516.1 1883.97 C 1528.7 1876.55 1551.13 1862.14 1558.77 1850.07 L 1559.28 1835.65 C 1568.33 1836.36 1605.3 1840.89 1611.16 1835.33 C 1611.44 1835.07 1611.66 1834.75 1611.9 1834.46 C 1611.76 1833.03 1612.02 1832.35 1610.88 1831.3 C 1602.51 1823.66 1563.96 1830.47 1561.6 1822.33 C 1562.67 1820.52 1563.08 1819.3 1565.38 1818.86 C 1569.74 1818.02 1576.26 1819.14 1580.75 1819.37 C 1592.59 1819.99 1640.4 1824.44 1647.5 1820.02 C 1648.21 1817.3 1648.34 1816.96 1647.43 1814.32 C 1638.29 1806.54 1567.37 1813.51 1562.97 1807.55 C 1563.16 1804.23 1563.29 1801.49 1564.59 1798.4 C 1574.96 1792.89 1704.26 1803.68 1709.77 1798.19 C 1710.13 1797.82 1710.92 1795.61 1710.99 1795.32 C 1711.58 1792.97 1710.85 1791.34 1709.54 1789.51 C 1693.49 1786.47 1675.35 1787.45 1658.95 1787.08 L 1565.62 1785.34 L 1725.46 694.875 C 1742.08 579.548 1757.6 464.065 1772.02 348.443 C 1776.54 312.805 1781.67 277.355 1785.47 241.618 C 1786.93 227.925 1789.51 213.222 1789.06 199.482 C 1777.92 194.31 1764.93 186.891 1752.62 185.572 C 1737.36 183.938 1721.2 184.599 1705.83 184.233 L 1597.66 182.095 L 1207.5 174.685 C 1105.57 172.107 1003.62 170.049 901.662 168.511 L 810.949 166.646 C 795.871 166.34 780.282 164.849 765.277 166.062 z M 278.95 806.91 C 293.823 824.54 357.177 834.813 380.004 836.873 C 382.09 837.061 383.823 836.739 385.84 836.268 C 385.442 832.82 385.626 831.853 383.336 829.126 C 374.051 824.938 338.24 821.057 325.103 818.206 C 314.778 815.965 286.657 806.809 278.95 806.91 z M 377.496 856.884 C 356.206 865.342 334.562 872.356 312.626 878.942 C 302.35 882.027 291.255 884.213 281.271 888.045 C 278.743 889.016 276.65 890.279 274.993 892.451 L 274.757 894.322 C 277.014 896.037 277.543 895.637 280.421 895.495 C 300.35 890.679 369.548 874.721 381.989 863.213 C 382.594 861.119 382.68 861.081 381.829 859.093 C 380.437 858.274 379.076 857.259 377.496 856.884 z M 375.175 898.746 C 361.294 908.901 347.322 918.93 333.259 928.832 C 324.99 934.704 315.205 940.626 308.068 947.783 C 306.523 949.332 306.537 949.965 306.19 952.059 C 307.409 954.203 306.898 954.261 309.453 955.033 L 311.541 954.259 C 326.7 944.404 371.618 916.26 380.155 902.996 L 380.355 900.556 C 378.411 898.613 377.965 898.936 375.175 898.746 z"/>
<path transform="translate(0,0)" fill="rgb(0,0,0)" d="M 700.429 654.506 C 706.457 625.313 707.889 594.151 711.481 564.474 L 728.271 426.355 C 732.293 395.453 737.002 364.767 740.565 333.789 C 744.686 298.195 748.989 262.623 753.473 227.073 C 755.74 209.263 757.073 190.094 761.176 172.653 C 761.896 169.593 762.991 168.165 765.277 166.062 C 780.282 164.849 795.871 166.34 810.949 166.646 L 901.662 168.511 C 1003.62 170.049 1105.57 172.107 1207.5 174.685 L 1597.66 182.095 L 1705.83 184.233 C 1721.2 184.599 1737.36 183.938 1752.62 185.572 C 1764.93 186.891 1777.92 194.31 1789.06 199.482 C 1789.51 213.222 1786.93 227.925 1785.47 241.618 C 1781.67 277.355 1776.54 312.805 1772.02 348.443 C 1757.6 464.065 1742.08 579.548 1725.46 694.875 L 1565.62 1785.34 L 1658.95 1787.08 C 1675.35 1787.45 1693.49 1786.47 1709.54 1789.51 C 1710.85 1791.34 1711.58 1792.97 1710.99 1795.32 C 1710.92 1795.61 1710.13 1797.82 1709.77 1798.19 C 1704.26 1803.68 1574.96 1792.89 1564.59 1798.4 C 1563.29 1801.49 1563.16 1804.23 1562.97 1807.55 C 1567.37 1813.51 1638.29 1806.54 1647.43 1814.32 C 1648.34 1816.96 1648.21 1817.3 1647.5 1820.02 C 1640.4 1824.44 1592.59 1819.99 1580.75 1819.37 C 1576.26 1819.14 1569.74 1818.02 1565.38 1818.86 C 1563.08 1819.3 1562.67 1820.52 1561.6 1822.33 C 1563.96 1830.47 1602.51 1823.66 1610.88 1831.3 C 1612.02 1832.35 1611.76 1833.03 1611.9 1834.46 C 1611.66 1834.75 1611.44 1835.07 1611.16 1835.33 C 1605.3 1840.89 1568.33 1836.36 1559.28 1835.65 L 1558.77 1850.07 C 1551.13 1862.14 1528.7 1876.55 1516.1 1883.97 C 1502.08 1883.19 1487.92 1880.67 1474.01 1878.74 L 1398.05 1867.75 C 1342.78 1859.71 1287.23 1853.19 1232.17 1843.84 C 1101.3 1823.8 970 1806.27 839.236 1785.41 C 774.516 1775 709.871 1764.12 645.308 1752.77 C 622.84 1748.72 600.556 1743.63 578.074 1739.67 C 569.683 1738.2 525.131 1734.39 521.434 1730.62 C 520.971 1727.85 520.866 1727.95 522.422 1725.63 C 531.652 1721.19 549.364 1724.24 559.615 1724.62 C 564.562 1724.81 573.635 1726.33 577.366 1722.86 C 574.539 1718.32 493.078 1718.23 479.641 1711.98 C 477.938 1709.89 477.875 1710.03 478.076 1707.36 C 486.963 1699.14 561.071 1709.62 578.582 1707.25 C 579.915 1707.07 580.024 1706.35 580.81 1705.33 C 581.36 1702.36 582.147 1700.22 581.115 1697.3 C 573.404 1696.15 565.295 1697.36 557.517 1697.69 C 543.92 1698.28 529.146 1698.75 515.664 1696.72 C 499.245 1694.25 486.065 1683.91 470.381 1680.37 C 453.162 1676.47 434.067 1680.7 416.273 1677.36 C 398.797 1674.09 386.246 1663.5 370.029 1658.02 C 361.583 1655.16 351.369 1656.69 342.393 1654.42 C 317.241 1648.06 301.295 1634.75 288.262 1612.68 C 285.545 1612.99 282.777 1613.36 280.04 1613.36 C 274.931 1613.36 270.75 1611.07 267.234 1607.45 C 259.599 1599.58 258.435 1585.72 258.604 1575.22 C 259.093 1544.86 276.514 1526.74 297.084 1506.75 L 295.96 1505.98 C 291.945 1503.2 289.312 1501.7 288.401 1496.63 C 289.111 1492.8 290.778 1490.55 293.468 1487.77 C 327.042 1453.06 387.414 1448.57 433.263 1448 C 424.143 1427.91 420.143 1407.43 418.928 1385.53 C 414.412 1382.41 410.252 1379.45 407.551 1374.52 C 393.418 1348.69 418.677 1290.13 428.507 1263.2 C 431.501 1255 435.718 1246.11 437.085 1237.5 C 438.324 1229.7 435.685 1220.78 434.184 1213.08 C 431.754 1212.24 429.175 1211.21 427.044 1209.74 C 410.882 1198.65 409.203 1163.22 406.795 1145.63 C 399.556 1142.68 394.027 1139.32 389.561 1132.72 C 377.009 1114.16 383.863 1087.55 387.488 1067.29 C 384.712 1065.19 381.949 1062.94 379.895 1060.1 C 368.476 1044.31 387.57 1000.67 393.167 983.917 C 398.43 968.168 403.77 952.393 408.32 936.421 C 413.533 918.122 416.707 899.647 419.607 880.871 C 416.075 881.316 412.414 882.121 408.947 881.069 C 407.647 878.936 407.461 878.803 407.685 876.343 C 410.588 872.709 415.121 871.644 419.002 869.283 C 421.14 867.982 420.448 868.889 421.053 866.409 C 417.476 862.415 410.317 863.393 407.173 859.358 C 409.87 855.398 416.523 854.865 420.918 854.004 C 421.19 848.004 421.585 841.879 420.885 835.898 C 419.674 825.542 416.517 814.937 417.514 804.466 C 419.647 782.042 432.207 762.44 435.985 740.311 C 437.191 733.02 437.855 725.649 437.971 718.259 C 438.135 702.929 433.483 668.328 441.891 656.433 C 443.918 653.565 446.809 651.797 450.27 651.229 C 478.592 646.587 509.639 707.338 530.976 722.343 C 531.307 722.577 531.644 722.802 531.978 723.031 C 544.464 724.077 557.474 723.206 570.038 723.385 C 588.129 723.735 606.201 724.737 624.219 726.39 C 643.05 699.467 666.689 663.845 700.429 654.506 z M 772.453 178.725 C 756.978 286.443 746.143 395.046 732.635 503.033 L 590.797 1729.75 C 676.936 1748.55 764.84 1760.17 851.857 1774.24 C 1071.16 1808.62 1290.77 1840.98 1510.66 1871.32 C 1512.99 1854.92 1515.2 1838.41 1518.19 1822.12 L 1668.45 780.266 C 1686.34 659.49 1703.19 538.561 1718.98 417.492 L 1736.12 283.43 C 1739.79 254.722 1744.47 225.982 1746.5 197.098 L 1047.6 183.583 C 955.941 182.193 864.112 177.957 772.453 178.725 z M 451.484 665.58 C 449.023 677.14 450.696 690.092 451.015 701.891 C 451.872 733.612 446.823 755.282 435.62 784.656 C 433.304 790.729 431.455 796.647 430.895 803.176 C 430.422 808.687 433.765 845.263 435.489 850.286 C 436.992 850.646 438.431 850.871 439.947 851.144 C 441.956 851.504 442.757 852.143 444.284 853.403 L 444.401 855.444 C 441.993 858.016 438.927 858.494 435.654 859.389 C 433.986 861.247 434.259 861.391 434.31 863.928 C 438.368 866.414 441.791 863.261 444.348 868.862 C 443.553 871.199 443.42 871.705 440.973 872.793 C 438.599 873.849 435.717 874.494 433.215 875.238 C 429.061 912.505 419.153 946.567 407.541 982.061 C 402.075 998.771 395.721 1015.67 391.645 1032.78 C 390.488 1037.63 389.264 1043.22 391.591 1047.88 L 393.087 1048.52 C 397.718 1041.09 398.844 1029.87 406.172 1024.74 C 409.044 1024.38 409.36 1024.59 411.977 1025.89 C 412.335 1026.73 412.959 1027.5 413.051 1028.41 C 413.466 1032.54 410.678 1039.28 409.508 1043.27 C 402.78 1066.2 393.003 1091.69 397.371 1115.91 C 398.088 1119.88 398.637 1124.31 402.138 1126.66 C 408.245 1124.2 408.965 1111.38 416.165 1112.01 C 418.049 1114.3 419.277 1116.62 419.698 1119.58 C 420.368 1124.3 419.41 1129.23 419.618 1134 C 420.555 1155.51 423.283 1177.6 432.505 1197.23 C 435.682 1191.12 437.491 1181.5 443.505 1177.91 C 446.269 1177.74 446.618 1178.09 449.051 1179.49 C 450.843 1182.67 446.093 1233.71 455.359 1251.41 C 458.645 1251.88 462.109 1251.6 464.18 1254.62 C 469.823 1262.84 471.135 1328.84 478.935 1334.41 C 482.03 1331.73 483.585 1326.83 487.127 1325.07 C 490.241 1327.17 490.498 1329.63 491.157 1333.31 C 494.781 1353.57 492.352 1388.03 502.791 1405.11 C 505.279 1406.73 505.398 1406.77 508.399 1405.99 C 509.305 1405.75 510.673 1405.26 511.594 1404.94 C 514.13 1405.9 514.709 1406.68 515.741 1409.22 C 518.992 1417.24 519.782 1427.55 521.325 1436.06 C 524.773 1455.07 528.236 1476.16 534.926 1494.33 C 537.553 1501.47 546.573 1515.2 544.46 1522.29 C 540.211 1527.22 533.716 1526.81 527.854 1528.26 C 521.946 1535.05 519.153 1541.47 516.926 1550.06 C 544.2 1550.39 571.854 1549.82 599.078 1548.13 C 601.752 1530.03 605.56 1510.43 604.989 1492.13 C 604.792 1485.8 600.995 1479.65 600.148 1473.33 C 596.448 1445.73 593.993 1416.56 592.881 1388.75 C 591.836 1371.4 586.97 1302.65 592.469 1292.51 L 594.68 1291.36 C 596.711 1292.07 597.248 1292.04 598.218 1294.1 C 602.478 1303.14 608.822 1421.7 611.046 1443.35 C 615.517 1417.1 617.513 1390.12 620.391 1363.63 C 625.397 1319.69 630.062 1275.71 634.388 1231.69 C 641.594 1158.6 651.032 1085.75 659.205 1012.77 L 666.191 948.187 C 667.501 935.506 668.31 922.557 670.359 909.978 C 664.922 903.802 654.85 894.104 654.826 885.43 C 656.343 883.003 656.687 883.059 659.402 882.029 C 665.477 882.803 668.585 887.121 672.439 891.416 L 673.113 878.823 C 668.593 877.879 663.693 877.451 660.121 874.343 L 658.837 871.766 C 659.592 870.262 659.416 869.815 661.147 869.174 C 665.491 867.564 670.434 869.582 674.662 870.834 C 679.731 826.952 685.162 783.114 690.953 739.322 C 693.876 715.629 697.773 691.51 699.446 667.721 C 688.95 674.068 678.543 680.172 669.694 688.791 C 660.589 697.658 652.987 707.716 645.783 718.137 C 641.773 723.935 637.889 730.818 632.872 735.787 C 630.911 737.729 628.889 739.003 626.133 739.522 C 613.811 741.846 596.317 736.648 583.158 736.385 C 569.815 736.119 542.342 738.527 531.062 735.725 C 501.284 728.328 481.882 666.75 451.484 665.58 z M 443.207 1260.42 C 431.437 1293.11 415.565 1331.1 416.927 1366.33 C 420.224 1363.56 423.546 1359.99 428.215 1360.56 C 429.796 1360.76 430.816 1361.53 431.649 1362.93 C 436.069 1370.34 431.744 1386.19 432.606 1394.95 C 433.275 1401.75 435.366 1408.93 436.942 1415.58 C 446.533 1456.06 466.736 1498.56 500.597 1524.26 C 503.24 1525.79 505.119 1526.97 508.305 1526.25 C 514.945 1524.74 521.687 1517.58 528.046 1514.38 C 522.319 1498.5 517.374 1482.86 513.797 1466.33 C 511.211 1454.38 509.567 1442.05 506.505 1430.24 C 505.903 1427.91 506.068 1426 503.888 1424.89 C 494.253 1419.96 492.384 1415.53 489.252 1405.53 C 484.25 1389.54 482.467 1373.62 479.703 1357.25 C 457.15 1335.81 460.486 1299.27 453.873 1271.07 C 450.338 1267.5 446.782 1263.95 443.207 1260.42 z M 419.571 1461.42 C 380.75 1464.11 335.314 1468.81 304.18 1494.83 C 308.216 1497.28 312.652 1499.46 315.619 1503.2 C 315.857 1505.85 315.411 1506.89 313.76 1509.02 C 308.892 1515.29 301.663 1520.07 296.028 1525.66 C 282.158 1539.43 271.341 1561.12 272.985 1581.02 C 273.529 1587.6 275.359 1593.12 278.458 1598.91 C 284.411 1598.19 290.069 1596.54 295.213 1600.48 C 306.515 1609.13 307.098 1622.01 324.643 1632.04 C 345.001 1643.67 357.198 1638.42 374.27 1644.15 C 391.213 1649.83 402.205 1661.39 421.227 1664.07 C 437.813 1666.4 455.791 1662.49 471.862 1665.85 C 480.963 1667.75 489.068 1672.34 497.392 1676.28 C 512.209 1683.31 528.459 1684.21 544.625 1684.08 C 557.787 1683.5 570.703 1681.87 583.663 1679.53 C 588.661 1640.67 595.292 1600.96 597.436 1561.83 C 583.842 1562.77 498.414 1565.82 492.386 1560.51 C 490.464 1558.82 489.352 1556.41 488.152 1554.19 C 459.969 1552.64 434.558 1555.02 414.05 1531.83 C 411.099 1528.49 409.631 1526.68 409.942 1522.01 C 411.368 1519.66 411.468 1519.5 413.991 1518.42 C 422.766 1519.74 427.935 1527.94 435.581 1531.5 C 444.807 1535.79 482.243 1543.64 489.775 1538.11 C 490.058 1537.91 490.277 1537.63 490.527 1537.38 C 490.444 1534.51 487.038 1532.08 484.929 1530.08 C 464.981 1511.22 447.738 1486.89 438.633 1460.76 C 432.358 1460.94 425.795 1460.73 419.571 1461.42 z"/>
<path transform="translate(0,0)" fill="rgb(255,255,255)" d="M 590.797 1729.75 L 732.635 503.033 C 746.143 395.046 756.978 286.443 772.453 178.725 C 864.112 177.957 955.941 182.193 1047.6 183.583 L 1746.5 197.098 C 1744.47 225.982 1739.79 254.722 1736.12 283.43 L 1718.98 417.492 C 1703.19 538.561 1686.34 659.49 1668.45 780.266 L 1518.19 1822.12 C 1515.2 1838.41 1512.99 1854.92 1510.66 1871.32 C 1290.77 1840.98 1071.16 1808.62 851.857 1774.24 C 764.84 1760.17 676.936 1748.55 590.797 1729.75 z M 813.07 217.18 C 810.807 219.316 810.277 220.856 809.668 223.887 C 803.429 254.909 801.161 289.822 797.092 321.528 L 765.978 582.536 C 729.995 869.535 696.463 1156.84 665.384 1444.41 L 647.273 1601.38 C 643.84 1630.3 638.381 1660.31 637.71 1689.37 C 637.685 1690.45 637.718 1691.53 637.735 1692.61 C 655.447 1695.81 673.471 1697.66 691.286 1700.29 L 828.967 1720.36 C 943.855 1738.43 1058.86 1755.74 1173.98 1772.29 L 1365.53 1800.19 L 1424.97 1808.8 C 1437.73 1810.64 1450.6 1812.98 1463.49 1813.58 C 1470.39 1808.3 1471.74 1781.66 1473.17 1772.76 L 1546.33 1278.67 C 1553.03 1234.89 1561.09 1191.34 1567.52 1147.51 C 1601.03 921.197 1632.18 694.539 1660.98 467.576 L 1680.34 322.025 C 1683.77 296.827 1688.73 271.245 1690.9 245.973 C 1691.1 243.715 1690.72 241.846 1689.38 239.989 C 1688.31 238.509 1687.38 237.615 1685.51 237.164 C 1680.73 236.01 1673.7 236.812 1668.66 236.688 L 1615.69 235.377 C 1543.76 233.341 1471.81 231.704 1399.86 230.468 L 1037 222.069 C 987.721 220.385 938.426 219.151 889.122 218.369 C 864.269 217.787 837.741 215.196 813.07 217.18 z"/>
<path transform="translate(0,0)" fill="rgb(0,0,0)" d="M 637.735 1692.61 C 637.718 1691.53 637.685 1690.45 637.71 1689.37 C 638.381 1660.31 643.84 1630.3 647.273 1601.38 L 665.384 1444.41 C 696.463 1156.84 729.995 869.535 765.978 582.536 L 797.092 321.528 C 801.161 289.822 803.429 254.909 809.668 223.887 C 810.277 220.856 810.807 219.316 813.07 217.18 C 837.741 215.196 864.269 217.787 889.122 218.369 C 938.426 219.151 987.721 220.385 1037 222.069 L 1399.86 230.468 C 1471.81 231.704 1543.76 233.341 1615.69 235.377 L 1668.66 236.688 C 1673.7 236.812 1680.73 236.01 1685.51 237.164 C 1687.38 237.615 1688.31 238.509 1689.38 239.989 C 1690.72 241.846 1691.1 243.715 1690.9 245.973 C 1688.73 271.245 1683.77 296.827 1680.34 322.025 L 1660.98 467.576 C 1632.18 694.539 1601.03 921.197 1567.52 1147.51 C 1561.09 1191.34 1553.03 1234.89 1546.33 1278.67 L 1473.17 1772.76 C 1471.74 1781.66 1470.39 1808.3 1463.49 1813.58 C 1450.6 1812.98 1437.73 1810.64 1424.97 1808.8 L 1365.53 1800.19 L 1173.98 1772.29 C 1058.86 1755.74 943.855 1738.43 828.967 1720.36 L 691.286 1700.29 C 673.471 1697.66 655.447 1695.81 637.735 1692.61 z M 836.487 229.936 C 841.949 235.973 847.485 241.942 853.096 247.84 C 901.809 250.085 950.549 251.695 999.303 252.671 L 1281.52 259.502 L 1568.65 267.415 C 1584.89 267.867 1667.02 272.38 1675.32 269.532 L 1676.16 267.773 L 1678.96 248.588 C 1657.68 247.357 1636.31 247.305 1615 246.764 C 1571.52 245.518 1528.02 244.592 1484.52 243.984 L 1185.75 237.237 L 950.046 231.727 C 912.284 230.918 874.244 229.153 836.487 229.936 z M 821.277 232.452 C 814.037 275.969 810.172 320.462 805.021 364.29 L 778.721 583.816 C 751.336 805.327 725.258 1027 700.49 1248.82 L 672.693 1498.95 C 668.057 1543.02 662.94 1586.83 657.186 1630.76 C 654.987 1647.55 654.007 1664.9 650.666 1681.48 C 658.604 1682.37 666.664 1683.03 674.508 1684.55 C 678.268 1669.88 679.122 1653.88 680.859 1638.84 C 683.766 1613.04 686.805 1587.26 689.975 1561.49 C 702.898 1461.94 714.926 1362.29 726.059 1262.53 C 754.564 1005.52 784.538 748.667 815.982 491.997 C 825.453 414.025 832.782 335.896 843.367 258.028 C 836.671 249.069 830.122 239.438 821.277 232.452 z M 855.352 260.456 L 795.676 763.416 C 784.225 874.477 771.905 985.448 758.718 1096.32 C 806.548 1136.09 839.103 1187.13 859.101 1245.72 C 865.354 1264.04 870.634 1282.5 872.468 1301.85 C 878.768 1368.29 864.96 1459.04 821.51 1511.13 C 791.015 1547.68 747.782 1565.36 701.535 1571.49 L 700.613 1587.66 C 709.265 1587.71 724.599 1585.69 731.862 1590.36 L 733.37 1592.76 C 732.414 1594.5 732.228 1595 730.175 1595.59 C 720.744 1598.28 707.121 1592.18 698.686 1597.65 L 697.898 1599.95 C 699.004 1601.83 699.245 1602.13 701.48 1602.74 C 711.008 1605.31 733.165 1601 739.062 1609.55 L 739.283 1611.58 C 734.539 1615.16 704.563 1612.05 697.202 1611.74 L 688.739 1687.66 C 798.077 1701.14 907.051 1720.3 1016.02 1736.61 L 1457.34 1801.51 C 1461.18 1773.5 1465.19 1745.52 1469.34 1717.55 C 1472.04 1700.22 1476.2 1682.18 1477.4 1664.73 C 1461.8 1663.86 1382.54 1661.54 1375.15 1658.01 C 1374.11 1655.82 1374.16 1655.43 1374.44 1653 C 1376.58 1650.85 1377.71 1650.81 1380.7 1650.81 C 1413.48 1650.74 1446.54 1651.39 1479.03 1655.87 L 1480.98 1645.8 C 1470.89 1645.25 1429.71 1644.9 1423.72 1640.67 C 1423.12 1638.37 1423.17 1638.16 1423.98 1635.92 C 1434.33 1630.35 1469.67 1636.16 1482.48 1637.33 C 1484.82 1618.73 1487.48 1600.16 1490.46 1581.65 L 1489.13 1582.16 C 1475.43 1587.57 1464.79 1597.95 1451.54 1604.04 C 1435.45 1611.44 1417.3 1614.46 1400.35 1619.33 C 1372.89 1627.22 1347.1 1639.64 1317.95 1640.2 C 1300.58 1640.53 1286.31 1632.79 1270.71 1632.77 C 1262.36 1632.76 1254.19 1635.43 1246.2 1637.58 C 1229.43 1642.12 1212.74 1645.65 1195.28 1643.44 C 1177.27 1641.17 1162.58 1630.56 1145.28 1627.51 C 1137.48 1626.14 1128.79 1626.89 1120.87 1626.86 C 1103.93 1626.8 1086.39 1622.71 1070.87 1615.98 C 1057.9 1610.36 1046.54 1600.52 1032.83 1596.76 C 1016.14 1592.18 998.263 1594.92 981.828 1588.54 C 969.672 1583.83 964.759 1572 954.152 1566.18 C 943.915 1560.56 931.197 1560.74 921.594 1553.79 C 917.515 1550.84 914.662 1546.79 912.833 1542.13 C 911.061 1537.62 910.606 1532.93 910.138 1528.16 C 901.872 1522.93 896.245 1516.75 893.943 1506.98 C 891.856 1498.13 893.378 1488.1 898.622 1480.57 C 904.012 1472.83 908.246 1478.51 908.528 1465.99 C 908.633 1461.34 909.249 1457.23 912.756 1453.87 C 918.513 1448.36 930.152 1447.64 937.773 1448 C 941.855 1448.2 945.979 1448.91 950.017 1449.54 C 958.285 1442.76 965.989 1437.65 977.255 1439.02 C 991.62 1440.76 1004.78 1451.28 1015.98 1459.67 C 1032.48 1453.72 1043.8 1452.05 1060.24 1459.71 C 1081.83 1469.77 1096.78 1478.15 1121.33 1476.55 C 1130.53 1475.96 1140.28 1474.61 1149.4 1476.32 C 1161.81 1478.63 1171.18 1489.53 1183.69 1492.58 C 1198.56 1496.2 1214.4 1492.67 1229.47 1492.87 C 1240.25 1493.01 1250.86 1496.04 1261.61 1496.81 C 1290.17 1498.84 1323.16 1492.24 1350.11 1482.54 C 1357.96 1479.71 1371.68 1475.15 1377.81 1469.67 L 1378.52 1467.32 L 1377.35 1465.85 C 1364.48 1466.12 1348.89 1474.07 1336.46 1477.97 C 1326 1481.25 1315.34 1483.87 1304.55 1485.8 C 1288.16 1488.75 1272.77 1489.37 1256.25 1487.56 C 1247.3 1486.58 1238.08 1484.94 1229.08 1484.93 C 1212.58 1485.45 1193.3 1488.81 1178.02 1481.58 C 1169.99 1477.77 1162.73 1472.46 1154.48 1469.12 C 1154.48 1468.84 1154.49 1468.56 1154.49 1468.28 C 1154.96 1453.28 1158.61 1437.43 1160.92 1422.54 L 1174.9 1333.46 C 1177.12 1319.65 1180.43 1304.88 1180.77 1290.89 C 1180.85 1287.43 1180.61 1284.87 1179.01 1281.8 L 1176.78 1280.68 C 1175.13 1281.33 1174.76 1281.03 1174.01 1282.78 C 1172 1287.44 1168.18 1322.93 1167.01 1330.71 C 1163.76 1352.36 1159.68 1373.88 1156.33 1395.52 C 1152.67 1419.18 1149.68 1443.01 1145.24 1466.54 C 1118.06 1468.45 1100.67 1468.71 1075.11 1457.79 C 1067.5 1454.54 1059.61 1450.85 1053.38 1445.3 C 1043.02 1436.07 1041.81 1423.4 1041.31 1410.39 C 1040.65 1393.15 1042.35 1375.97 1042 1358.74 C 1023.14 1334.96 1031.73 1290.88 1034.68 1262.47 C 1026.08 1255.77 1021.1 1249 1019.75 1237.78 C 1017.54 1219.37 1024.78 1197.37 1029.11 1179.44 C 1021.95 1178.02 1017.14 1176.57 1012.82 1170.37 C 1003.55 1157.07 1008.69 1132.29 1010.84 1117.16 C 1011.14 1115.08 1012.56 1110.87 1010.14 1110.11 C 1009.52 1109.91 1008.86 1109.87 1008.22 1109.75 C 1004.6 1109.06 1000.59 1108.46 998.197 1105.3 C 993.064 1098.5 995.763 1085.25 997.81 1077.59 C 1002.37 1060.52 1009.95 1043.88 1017.77 1028.05 C 1013.64 1027.63 1007.63 1027.77 1004.78 1024.27 C 1001.93 1020.79 1002.66 1015.52 1003.51 1011.48 C 1006.46 997.535 1013.87 983.498 1019.72 970.533 C 1032.28 942.7 1046.51 914.752 1055.85 885.636 C 1059.56 874.06 1061.45 861.746 1063.89 849.84 L 1078.19 778.017 C 1083.65 751.482 1092.09 725.658 1099.87 699.744 C 1101.15 695.505 1103.28 690.004 1103.16 685.532 C 1102.85 674.333 1090.09 641.91 1102.66 634.946 C 1107.15 632.46 1112.82 633.436 1117.29 635.347 C 1142.69 646.189 1160.72 677.528 1174.19 700.211 C 1204.93 699.242 1233.18 701.558 1263.47 706.826 C 1278.04 685.464 1305.45 649.252 1331.84 643.571 C 1334.3 643.04 1337.05 643.111 1339.14 644.709 C 1343.19 647.811 1343.77 654.392 1343.9 659.055 C 1344.76 689.951 1335.33 734.59 1342.84 763.448 C 1346.35 776.945 1354.34 790.376 1363.03 801.166 C 1366.66 805.686 1371.23 810.106 1374.26 815.04 C 1375.65 817.304 1376.01 818.647 1375.7 821.244 C 1372.9 822.869 1369.89 822.844 1366.75 821.989 C 1362.51 820.836 1358.35 817.719 1354.57 815.493 C 1358.62 823.669 1373.63 843.228 1373.29 850.64 C 1371.75 852.543 1371.22 853.24 1368.52 853.269 C 1365.07 853.306 1360.7 850.799 1357.6 849.401 L 1357.93 851.027 C 1360.12 861.655 1370.17 876.668 1367.83 887.006 C 1366.19 888.616 1365.6 889.123 1363.07 888.799 C 1359.39 888.328 1355.35 884.911 1352.37 882.821 C 1356.22 892.566 1361.97 902.885 1362.21 913.519 L 1361.25 915.491 C 1357.8 915.457 1355.31 912.695 1353.06 910.369 C 1347.02 904.138 1342.43 896.683 1336.61 890.255 C 1339.66 900.019 1342.26 909.262 1343.22 919.502 C 1346.37 953.087 1338.08 987.575 1352.88 1019.42 C 1363.93 1043.21 1385.99 1061.58 1405.52 1078.43 C 1480.18 1142.84 1507.1 1176.37 1535.19 1272.79 C 1545.72 1223.87 1552.25 1169.01 1559.26 1119.08 L 1584.86 940.069 C 1589.42 906.242 1595.11 872.58 1599.89 838.785 C 1613.6 743.139 1626.36 647.36 1638.18 551.462 L 1662.9 363.832 C 1666.37 337.157 1672.39 309.451 1673.18 282.613 C 1640.29 279.713 1606.52 280.724 1573.48 279.594 L 1324 272.701 L 997.268 264.508 C 949.995 263.304 902.633 260.677 855.352 260.456 z M 1315.83 678.934 C 1309.15 685.255 1298.84 694.105 1298.53 703.97 C 1298.44 706.677 1299.44 708.423 1300.71 710.678 C 1306.82 708.542 1308.79 705.801 1311.64 700.031 C 1313.75 695.769 1317.76 684.913 1316.41 680.178 C 1316.28 679.739 1316.03 679.349 1315.83 678.934 z M 1130.67 769.01 C 1125.42 773.259 1123.17 777.586 1122.57 784.393 C 1122.2 788.65 1122.93 793.43 1126.21 796.479 C 1128.65 798.743 1131.46 799.158 1134.65 798.804 C 1134.93 798.773 1135.2 798.71 1135.48 798.663 C 1140.49 794.617 1143.64 790.346 1144.39 783.759 C 1144.81 780.072 1143.77 776.078 1141.29 773.268 C 1138.38 769.958 1134.83 769.504 1130.67 769.01 z M 1225.05 783.923 C 1219.33 787.457 1216.74 790.857 1215.3 797.508 C 1214.54 801.007 1214.35 805.09 1216.13 808.342 C 1217.48 810.73 1219.85 812.363 1222.55 812.765 C 1223.01 812.831 1223.47 812.816 1223.93 812.841 C 1229.55 808.361 1235 802.061 1235.56 794.518 C 1235.78 791.54 1234.95 788.467 1232.61 786.448 C 1230.4 784.531 1227.8 784.256 1225.05 783.923 z M 1173.74 807.811 C 1171.44 809.809 1169.87 810.957 1169.23 814.105 C 1169.7 816.616 1170.27 818.877 1171.06 821.307 C 1171.74 823.402 1172.05 824.53 1171.41 826.727 C 1168.89 830.354 1165.47 832.505 1161.07 833.231 C 1148.54 835.294 1141.16 824.169 1134.14 824.393 C 1134.33 829.046 1137.09 832.917 1140.52 835.906 C 1145.18 839.96 1150.98 841.368 1157.05 840.728 C 1163.3 840.07 1169.27 837.527 1174.92 834.886 C 1177.61 837.558 1180.22 840.256 1183.24 842.564 C 1192.93 848.59 1202.09 851.447 1213.56 848.789 C 1217.45 847.887 1221.92 846.535 1224.22 842.914 C 1224.81 841.988 1224.78 841.77 1224.98 840.836 C 1222.84 839.539 1221.37 839.831 1218.99 840.372 C 1209.18 842.609 1203.39 846.584 1193.35 841.354 C 1185.4 837.209 1179.85 830.643 1174.81 823.423 C 1178.97 820.612 1181.89 817.949 1183.01 812.916 C 1182.24 810.247 1181.97 810.212 1179.71 808.532 C 1177.72 808.25 1175.75 807.942 1173.74 807.811 z M 756.377 1110.46 C 749.798 1182.27 740.004 1255.09 731.687 1326.82 C 722.732 1404.04 714.889 1481.86 703.157 1558.7 C 731.226 1553.73 755.074 1544.72 779.325 1529.69 C 790.953 1521.37 802.608 1512.91 812.169 1502.17 C 837.532 1473.68 848.837 1429.99 854.933 1393.06 C 860.196 1361.17 862.503 1326.2 858.02 1294.16 C 852.155 1252.24 825.8 1194.08 800.99 1159.73 C 792.494 1147.96 768.317 1116.25 756.377 1110.46 z"/>
<path transform="translate(0,0)" fill="rgb(255,255,255)" d="M 853.096 247.84 C 847.485 241.942 841.949 235.973 836.487 229.936 C 874.244 229.153 912.284 230.918 950.046 231.727 L 1185.75 237.237 L 1484.52 243.984 C 1528.02 244.592 1571.52 245.518 1615 246.764 C 1636.31 247.305 1657.68 247.357 1678.96 248.588 L 1676.16 267.773 L 1675.32 269.532 C 1667.02 272.38 1584.89 267.867 1568.65 267.415 L 1281.52 259.502 L 999.303 252.671 C 950.549 251.695 901.809 250.085 853.096 247.84 z"/>
<path transform="translate(0,0)" fill="rgb(255,255,255)" d="M 650.666 1681.48 C 654.007 1664.9 654.987 1647.55 657.186 1630.76 C 662.94 1586.83 668.057 1543.02 672.693 1498.95 L 700.49 1248.82 C 725.258 1027 751.336 805.327 778.721 583.816 L 805.021 364.29 C 810.172 320.462 814.037 275.969 821.277 232.452 C 830.122 239.438 836.671 249.069 843.367 258.028 C 832.782 335.896 825.453 414.025 815.982 491.997 C 784.538 748.667 754.564 1005.52 726.059 1262.53 C 714.926 1362.29 702.898 1461.94 689.975 1561.49 C 686.805 1587.26 683.766 1613.04 680.859 1638.84 C 679.122 1653.88 678.268 1669.88 674.508 1684.55 C 666.664 1683.03 658.604 1682.37 650.666 1681.48 z"/>
<path transform="translate(0,0)" fill="rgb(255,255,255)" d="M 758.718 1096.32 C 771.905 985.448 784.225 874.477 795.676 763.416 L 855.352 260.456 C 902.633 260.677 949.995 263.304 997.268 264.508 L 1324 272.701 L 1573.48 279.594 C 1606.52 280.724 1640.29 279.713 1673.18 282.613 C 1672.39 309.451 1666.37 337.157 1662.9 363.832 L 1638.18 551.462 C 1626.36 647.36 1613.6 743.139 1599.89 838.785 C 1595.11 872.58 1589.42 906.242 1584.86 940.069 L 1559.26 1119.08 C 1552.25 1169.01 1545.72 1223.87 1535.19 1272.79 C 1507.1 1176.37 1480.18 1142.84 1405.52 1078.43 C 1385.99 1061.58 1363.93 1043.21 1352.88 1019.42 C 1338.08 987.575 1346.37 953.087 1343.22 919.502 C 1342.26 909.262 1339.66 900.019 1336.61 890.255 C 1342.43 896.683 1347.02 904.138 1353.06 910.369 C 1355.31 912.695 1357.8 915.457 1361.25 915.491 L 1362.21 913.519 C 1361.97 902.885 1356.22 892.566 1352.37 882.821 C 1355.35 884.911 1359.39 888.328 1363.07 888.799 C 1365.6 889.123 1366.19 888.616 1367.83 887.006 C 1370.17 876.668 1360.12 861.655 1357.93 851.027 L 1357.6 849.401 C 1360.7 850.799 1365.07 853.306 1368.52 853.269 C 1371.22 853.24 1371.75 852.543 1373.29 850.64 C 1373.63 843.228 1358.62 823.669 1354.57 815.493 C 1358.35 817.719 1362.51 820.836 1366.75 821.989 C 1369.89 822.844 1372.9 822.869 1375.7 821.244 C 1376.01 818.647 1375.65 817.304 1374.26 815.04 C 1371.23 810.106 1366.66 805.686 1363.03 801.166 C 1354.34 790.376 1346.35 776.945 1342.84 763.448 C 1335.33 734.59 1344.76 689.951 1343.9 659.055 C 1343.77 654.392 1343.19 647.811 1339.14 644.709 C 1337.05 643.111 1334.3 643.04 1331.84 643.571 C 1305.45 649.252 1278.04 685.464 1263.47 706.826 C 1233.18 701.558 1204.93 699.242 1174.19 700.211 C 1160.72 677.528 1142.69 646.189 1117.29 635.347 C 1112.82 633.436 1107.15 632.46 1102.66 634.946 C 1090.09 641.91 1102.85 674.333 1103.16 685.532 C 1103.28 690.004 1101.15 695.505 1099.87 699.744 C 1092.09 725.658 1083.65 751.482 1078.19 778.017 L 1063.89 849.84 C 1061.45 861.746 1059.56 874.06 1055.85 885.636 C 1046.51 914.752 1032.28 942.7 1019.72 970.533 C 1013.87 983.498 1006.46 997.535 1003.51 1011.48 C 1002.66 1015.52 1001.93 1020.79 1004.78 1024.27 C 1007.63 1027.77 1013.64 1027.63 1017.77 1028.05 C 1009.95 1043.88 1002.37 1060.52 997.81 1077.59 C 995.763 1085.25 993.064 1098.5 998.197 1105.3 C 1000.59 1108.46 1004.6 1109.06 1008.22 1109.75 C 1008.86 1109.87 1009.52 1109.91 1010.14 1110.11 C 1012.56 1110.87 1011.14 1115.08 1010.84 1117.16 C 1008.69 1132.29 1003.55 1157.07 1012.82 1170.37 C 1017.14 1176.57 1021.95 1178.02 1029.11 1179.44 C 1024.78 1197.37 1017.54 1219.37 1019.75 1237.78 C 1021.1 1249 1026.08 1255.77 1034.68 1262.47 C 1031.73 1290.88 1023.14 1334.96 1042 1358.74 C 1042.35 1375.97 1040.65 1393.15 1041.31 1410.39 C 1041.81 1423.4 1043.02 1436.07 1053.38 1445.3 C 1059.61 1450.85 1067.5 1454.54 1075.11 1457.79 C 1100.67 1468.71 1118.06 1468.45 1145.24 1466.54 C 1149.68 1443.01 1152.67 1419.18 1156.33 1395.52 C 1159.68 1373.88 1163.76 1352.36 1167.01 1330.71 C 1168.18 1322.93 1172 1287.44 1174.01 1282.78 C 1174.76 1281.03 1175.13 1281.33 1176.78 1280.68 L 1179.01 1281.8 C 1180.61 1284.87 1180.85 1287.43 1180.77 1290.89 C 1180.43 1304.88 1177.12 1319.65 1174.9 1333.46 L 1160.92 1422.54 C 1158.61 1437.43 1154.96 1453.28 1154.49 1468.28 C 1154.49 1468.56 1154.48 1468.84 1154.48 1469.12 C 1162.73 1472.46 1169.99 1477.77 1178.02 1481.58 C 1193.3 1488.81 1212.58 1485.45 1229.08 1484.93 C 1238.08 1484.94 1247.3 1486.58 1256.25 1487.56 C 1272.77 1489.37 1288.16 1488.75 1304.55 1485.8 C 1315.34 1483.87 1326 1481.25 1336.46 1477.97 C 1348.89 1474.07 1364.48 1466.12 1377.35 1465.85 L 1378.52 1467.32 L 1377.81 1469.67 C 1371.68 1475.15 1357.96 1479.71 1350.11 1482.54 C 1323.16 1492.24 1290.17 1498.84 1261.61 1496.81 C 1250.86 1496.04 1240.25 1493.01 1229.47 1492.87 C 1214.4 1492.67 1198.56 1496.2 1183.69 1492.58 C 1171.18 1489.53 1161.81 1478.63 1149.4 1476.32 C 1140.28 1474.61 1130.53 1475.96 1121.33 1476.55 C 1096.78 1478.15 1081.83 1469.77 1060.24 1459.71 C 1043.8 1452.05 1032.48 1453.72 1015.98 1459.67 C 1004.78 1451.28 991.62 1440.76 977.255 1439.02 C 965.989 1437.65 958.285 1442.76 950.017 1449.54 C 945.979 1448.91 941.855 1448.2 937.773 1448 C 930.152 1447.64 918.513 1448.36 912.756 1453.87 C 909.249 1457.23 908.633 1461.34 908.528 1465.99 C 908.246 1478.51 904.012 1472.83 898.622 1480.57 C 893.378 1488.1 891.856 1498.13 893.943 1506.98 C 896.245 1516.75 901.872 1522.93 910.138 1528.16 C 910.606 1532.93 911.061 1537.62 912.833 1542.13 C 914.662 1546.79 917.515 1550.84 921.594 1553.79 C 931.197 1560.74 943.915 1560.56 954.152 1566.18 C 964.759 1572 969.672 1583.83 981.828 1588.54 C 998.263 1594.92 1016.14 1592.18 1032.83 1596.76 C 1046.54 1600.52 1057.9 1610.36 1070.87 1615.98 C 1086.39 1622.71 1103.93 1626.8 1120.87 1626.86 C 1128.79 1626.89 1137.48 1626.14 1145.28 1627.51 C 1162.58 1630.56 1177.27 1641.17 1195.28 1643.44 C 1212.74 1645.65 1229.43 1642.12 1246.2 1637.58 C 1254.19 1635.43 1262.36 1632.76 1270.71 1632.77 C 1286.31 1632.79 1300.58 1640.53 1317.95 1640.2 C 1347.1 1639.64 1372.89 1627.22 1400.35 1619.33 C 1417.3 1614.46 1435.45 1611.44 1451.54 1604.04 C 1464.79 1597.95 1475.43 1587.57 1489.13 1582.16 L 1490.46 1581.65 C 1487.48 1600.16 1484.82 1618.73 1482.48 1637.33 C 1469.67 1636.16 1434.33 1630.35 1423.98 1635.92 C 1423.17 1638.16 1423.12 1638.37 1423.72 1640.67 C 1429.71 1644.9 1470.89 1645.25 1480.98 1645.8 L 1479.03 1655.87 C 1446.54 1651.39 1413.48 1650.74 1380.7 1650.81 C 1377.71 1650.81 1376.58 1650.85 1374.44 1653 C 1374.16 1655.43 1374.11 1655.82 1375.15 1658.01 C 1382.54 1661.54 1461.8 1663.86 1477.4 1664.73 C 1476.2 1682.18 1472.04 1700.22 1469.34 1717.55 C 1465.19 1745.52 1461.18 1773.5 1457.34 1801.51 L 1016.02 1736.61 C 907.051 1720.3 798.077 1701.14 688.739 1687.66 L 697.202 1611.74 C 704.563 1612.05 734.539 1615.16 739.283 1611.58 L 739.062 1609.55 C 733.165 1601 711.008 1605.31 701.48 1602.74 C 699.245 1602.13 699.004 1601.83 697.898 1599.95 L 698.686 1597.65 C 707.121 1592.18 720.744 1598.28 730.175 1595.59 C 732.228 1595 732.414 1594.5 733.37 1592.76 L 731.862 1590.36 C 724.599 1585.69 709.265 1587.71 700.613 1587.66 L 701.535 1571.49 C 747.782 1565.36 791.015 1547.68 821.51 1511.13 C 864.96 1459.04 878.768 1368.29 872.468 1301.85 C 870.634 1282.5 865.354 1264.04 859.101 1245.72 C 839.103 1187.13 806.548 1136.09 758.718 1096.32 z M 1035.99 341.563 C 1025.9 390.484 1013.51 440.434 968.804 469.497 C 962.297 473.784 955.274 477.23 947.903 479.754 C 940.445 482.225 928.932 479.872 923.632 486.055 C 927.777 497.27 976.623 505.39 980.656 551.011 C 982.964 577.13 975.046 604.827 973.235 630.892 C 974.759 633.94 974.765 634.086 977.824 635.544 C 979.253 635.172 980.368 635.254 981.286 633.953 C 985.144 628.482 984.413 611.782 985.482 604.443 C 987.268 592.185 990.098 578.703 995.414 567.441 C 1004.65 547.884 1025.57 525.846 1046.89 520.026 C 1052.36 518.535 1071.71 518.417 1074.75 516.361 C 1075.1 514.213 1075.7 512.696 1074.11 510.837 C 1071.07 507.266 1065.82 505.901 1062.43 502.177 C 1043.79 481.7 1037.85 455.053 1035.83 428.117 C 1034.2 406.513 1035.52 382.439 1041.05 361.433 C 1042.64 355.431 1046.79 348.352 1043.18 342.717 C 1040.47 341.602 1038.85 341.512 1035.99 341.563 z M 1508.65 434.443 C 1503.94 444.258 1502.58 455.872 1499.21 466.245 C 1490.28 493.804 1470.34 521.052 1442.34 531.316 C 1438.8 532.614 1433.8 532.654 1430.92 534.913 C 1431.15 536.904 1431.2 537.428 1432.81 538.833 C 1437.03 542.51 1443.62 544.819 1448.4 547.925 C 1462 556.763 1466.22 574.151 1467.98 589.335 C 1469.96 606.415 1467.32 623.497 1462.94 640.018 C 1461.39 645.884 1458.8 652.013 1457.89 657.973 C 1457.53 660.341 1457.87 661.952 1458.99 664.027 C 1461.35 665.556 1462.8 665.45 1465.51 665.488 C 1476.01 629.664 1489.09 579.463 1524.53 560.401 C 1530.21 557.348 1543.25 554.099 1547.26 549.796 C 1546.89 547.275 1546.98 546.304 1544.75 544.679 C 1543.13 543.498 1540.25 542.797 1538.35 542.136 C 1528.51 538.719 1521.29 530.257 1516.9 521.065 C 1508.52 503.504 1507.76 481.787 1511.87 463.003 C 1513.35 456.25 1516.14 449.38 1516.37 442.436 C 1516.47 439.21 1515.93 437.894 1513.83 435.487 C 1512.1 435.086 1510.42 434.684 1508.65 434.443 z M 933.242 717.25 C 925.922 731.04 924.218 750.304 910.939 759.708 C 907.248 762.323 898.213 766.294 898.364 771.168 C 900.981 774.094 904.592 775.415 908.086 777.045 C 910.25 780.536 912.383 783.93 913.345 787.974 C 915.09 795.311 912.715 813.521 917.998 817.649 L 921.627 817.073 C 924.218 807.2 926.221 786.988 935.498 781.333 C 940.849 778.071 946.743 775.426 952.375 772.678 C 952.618 770.979 952.919 771.307 951.93 770.026 C 945.985 762.331 932.146 760.33 932.682 748.139 C 933.058 739.604 940.451 726.25 936.264 718.691 L 933.242 717.25 z M 973.27 745.535 C 973.146 748.494 972.624 750.366 974.092 752.983 C 982.741 758.017 1045.37 786.322 1053.67 785.57 C 1054.43 783.092 1055.27 782.161 1054.22 779.67 C 1044.15 773.583 983.169 746.256 973.27 745.535 z M 1035.66 797.368 C 1018.47 799.745 983.615 802.069 969.127 809.059 L 969.046 811.872 C 975.61 814.272 978.865 814.205 985.764 813.037 C 995.022 811.756 1043.97 806.444 1048.75 802.262 C 1048.82 799.627 1048.86 799.528 1047.3 797.421 C 1043.54 795.886 1039.58 796.876 1035.66 797.368 z M 1046.89 822.886 C 1032.19 829.506 981.296 858.008 973.088 869.362 C 972.787 871.191 972.417 871.051 973.591 872.673 C 974.767 874.299 974.254 873.675 975.551 875.028 C 984.687 871.747 1043.89 834.59 1048.45 827.728 C 1048.7 825.696 1049.15 824.784 1047.52 823.224 C 1047.35 823.06 1047.1 822.999 1046.89 822.886 z M 1504.59 940.512 L 1504.11 941.485 C 1497.24 955.657 1493.63 969.952 1483.17 982.29 C 1477.18 989.357 1469.88 995.166 1463.85 1002.09 C 1474.94 1022.22 1477.53 1027.83 1478.82 1051.1 C 1479.03 1054.97 1478.41 1057.59 1482.49 1058.99 L 1487.1 1058.15 L 1489.34 1048.61 C 1491.72 1038.36 1497.83 1028.7 1506.96 1023.15 C 1512.3 1019.9 1520.11 1018.83 1523.51 1013.33 C 1517.88 1004.88 1510.74 996.457 1507.29 986.821 C 1502.84 974.384 1513.23 952.013 1510.4 943.633 C 1509.56 941.157 1507.85 941.062 1505.58 940.629 C 1505.25 940.567 1504.92 940.551 1504.59 940.512 z M 753.462 1587.07 C 751.637 1589.12 750.405 1589.85 749.973 1592.65 C 751.667 1594.71 754.573 1594.6 757.174 1594.81 C 779.132 1596.56 801.178 1597.29 823.15 1599.03 C 825.087 1596.73 825.509 1596.72 825.423 1593.76 C 822.634 1590.29 817.48 1589.94 813.311 1589.45 C 793.973 1587.18 772.929 1586.88 753.462 1587.07 z M 966.154 1603.24 C 965.302 1605.89 964.888 1606.69 965.441 1609.37 C 971.638 1615.03 1025.9 1612.86 1037.35 1612.99 C 1037.75 1610.26 1038.34 1608.11 1036.94 1605.55 C 1031.6 1601.35 975.143 1602.56 966.154 1603.24 z M 996.114 1616.62 C 995.834 1619.79 995.264 1621.34 996.779 1624.19 C 1005.22 1627.91 1039.7 1627.52 1049.77 1626.35 C 1050.1 1623.59 1050.18 1622.93 1049.16 1620.38 C 1040.85 1614.17 1007.56 1616.98 996.114 1616.62 z"/>
<path transform="translate(0,0)" fill="rgb(0,0,0)" d="M 973.235 630.892 C 975.046 604.827 982.964 577.13 980.656 551.011 C 976.623 505.39 927.777 497.27 923.632 486.055 C 928.932 479.872 940.445 482.225 947.903 479.754 C 955.274 477.23 962.297 473.784 968.804 469.497 C 1013.51 440.434 1025.9 390.484 1035.99 341.563 C 1038.85 341.512 1040.47 341.602 1043.18 342.717 C 1046.79 348.352 1042.64 355.431 1041.05 361.433 C 1035.52 382.439 1034.2 406.513 1035.83 428.117 C 1037.85 455.053 1043.79 481.7 1062.43 502.177 C 1065.82 505.901 1071.07 507.266 1074.11 510.837 C 1075.7 512.696 1075.1 514.213 1074.75 516.361 C 1071.71 518.417 1052.36 518.535 1046.89 520.026 C 1025.57 525.846 1004.65 547.884 995.414 567.441 C 990.098 578.703 987.268 592.185 985.482 604.443 C 984.413 611.782 985.144 628.482 981.286 633.953 C 980.368 635.254 979.253 635.172 977.824 635.544 C 974.765 634.086 974.759 633.94 973.235 630.892 z M 1024.64 413.877 C 1011.79 446.165 988.093 472.864 955.843 486.646 C 952.698 487.99 949.477 489.168 946.262 490.335 C 964.082 500.722 982.866 518.229 988.007 539 C 988.534 541.126 988.898 543.293 989.248 545.453 C 989.624 549.714 990.054 553.977 990.266 558.25 C 1005.72 530.792 1025.64 516.494 1055.69 507.77 C 1036.48 486.524 1029.01 460.2 1026.84 432.057 C 1026.47 427.136 1027 417.987 1024.64 413.877 z"/>
<path transform="translate(0,0)" fill="rgb(255,255,255)" d="M 946.262 490.335 C 949.477 489.168 952.698 487.99 955.843 486.646 C 988.093 472.864 1011.79 446.165 1024.64 413.877 C 1027 417.987 1026.47 427.136 1026.84 432.057 C 1029.01 460.2 1036.48 486.524 1055.69 507.77 C 1025.64 516.494 1005.72 530.792 990.266 558.25 C 990.054 553.977 989.624 549.714 989.248 545.453 C 988.898 543.293 988.534 541.126 988.007 539 C 982.866 518.229 964.082 500.722 946.262 490.335 z"/>
<path transform="translate(0,0)" fill="rgb(0,0,0)" d="M 1465.51 665.488 C 1462.8 665.45 1461.35 665.556 1458.99 664.027 C 1457.87 661.952 1457.53 660.341 1457.89 657.973 C 1458.8 652.013 1461.39 645.884 1462.94 640.018 C 1467.32 623.497 1469.96 606.415 1467.98 589.335 C 1466.22 574.151 1462 556.763 1448.4 547.925 C 1443.62 544.819 1437.03 542.51 1432.81 538.833 C 1431.2 537.428 1431.15 536.904 1430.92 534.913 C 1433.8 532.654 1438.8 532.614 1442.34 531.316 C 1470.34 521.052 1490.28 493.804 1499.21 466.245 C 1502.58 455.872 1503.94 444.258 1508.65 434.443 C 1510.42 434.684 1512.1 435.086 1513.83 435.487 C 1515.93 437.894 1516.47 439.21 1516.37 442.436 C 1516.14 449.38 1513.35 456.25 1511.87 463.003 C 1507.76 481.787 1508.52 503.504 1516.9 521.065 C 1521.29 530.257 1528.51 538.719 1538.35 542.136 C 1540.25 542.797 1543.13 543.498 1544.75 544.679 C 1546.98 546.304 1546.89 547.275 1547.26 549.796 C 1543.25 554.099 1530.21 557.348 1524.53 560.401 C 1489.09 579.463 1476.01 629.664 1465.51 665.488 z"/>
<path transform="translate(0,0)" fill="rgb(255,255,255)" d="M 433.215 875.238 C 435.717 874.494 438.599 873.849 440.973 872.793 C 443.42 871.705 443.553 871.199 444.348 868.862 C 441.791 863.261 438.368 866.414 434.31 863.928 C 434.259 861.391 433.986 861.247 435.654 859.389 C 438.927 858.494 441.993 858.016 444.401 855.444 L 444.284 853.403 C 442.757 852.143 441.956 851.504 439.947 851.144 C 438.431 850.871 436.992 850.646 435.489 850.286 C 433.765 845.263 430.422 808.687 430.895 803.176 C 431.455 796.647 433.304 790.729 435.62 784.656 C 446.823 755.282 451.872 733.612 451.015 701.891 C 450.696 690.092 449.023 677.14 451.484 665.58 C 481.882 666.75 501.284 728.328 531.062 735.725 C 542.342 738.527 569.815 736.119 583.158 736.385 C 596.317 736.648 613.811 741.846 626.133 739.522 C 628.889 739.003 630.911 737.729 632.872 735.787 C 637.889 730.818 641.773 723.935 645.783 718.137 C 652.987 707.716 660.589 697.658 669.694 688.791 C 678.543 680.172 688.95 674.068 699.446 667.721 C 697.773 691.51 693.876 715.629 690.953 739.322 C 685.162 783.114 679.731 826.952 674.662 870.834 C 670.434 869.582 665.491 867.564 661.147 869.174 C 659.416 869.815 659.592 870.262 658.837 871.766 L 660.121 874.343 C 663.693 877.451 668.593 877.879 673.113 878.823 L 672.439 891.416 C 668.585 887.121 665.477 882.803 659.402 882.029 C 656.687 883.059 656.343 883.003 654.826 885.43 C 654.85 894.104 664.922 903.802 670.359 909.978 C 668.31 922.557 667.501 935.506 666.191 948.187 L 659.205 1012.77 C 651.032 1085.75 641.594 1158.6 634.388 1231.69 C 630.062 1275.71 625.397 1319.69 620.391 1363.63 C 617.513 1390.12 615.517 1417.1 611.046 1443.35 C 608.822 1421.7 602.478 1303.14 598.218 1294.1 C 597.248 1292.04 596.711 1292.07 594.68 1291.36 L 592.469 1292.51 C 586.97 1302.65 591.836 1371.4 592.881 1388.75 C 593.993 1416.56 596.448 1445.73 600.148 1473.33 C 600.995 1479.65 604.792 1485.8 604.989 1492.13 C 605.56 1510.43 601.752 1530.03 599.078 1548.13 C 571.854 1549.82 544.2 1550.39 516.926 1550.06 C 519.153 1541.47 521.946 1535.05 527.854 1528.26 C 533.716 1526.81 540.211 1527.22 544.46 1522.29 C 546.573 1515.2 537.553 1501.47 534.926 1494.33 C 528.236 1476.16 524.773 1455.07 521.325 1436.06 C 519.782 1427.55 518.992 1417.24 515.741 1409.22 C 514.709 1406.68 514.13 1405.9 511.594 1404.94 C 510.673 1405.26 509.305 1405.75 508.399 1405.99 C 505.398 1406.77 505.279 1406.73 502.791 1405.11 C 492.352 1388.03 494.781 1353.57 491.157 1333.31 C 490.498 1329.63 490.241 1327.17 487.127 1325.07 C 483.585 1326.83 482.03 1331.73 478.935 1334.41 C 471.135 1328.84 469.823 1262.84 464.18 1254.62 C 462.109 1251.6 458.645 1251.88 455.359 1251.41 C 446.093 1233.71 450.843 1182.67 449.051 1179.49 C 446.618 1178.09 446.269 1177.74 443.505 1177.91 C 437.491 1181.5 435.682 1191.12 432.505 1197.23 C 423.283 1177.6 420.555 1155.51 419.618 1134 C 419.41 1129.23 420.368 1124.3 419.698 1119.58 C 419.277 1116.62 418.049 1114.3 416.165 1112.01 C 408.965 1111.38 408.245 1124.2 402.138 1126.66 C 398.637 1124.31 398.088 1119.88 397.371 1115.91 C 393.003 1091.69 402.78 1066.2 409.508 1043.27 C 410.678 1039.28 413.466 1032.54 413.051 1028.41 C 412.959 1027.5 412.335 1026.73 411.977 1025.89 C 409.36 1024.59 409.044 1024.38 406.172 1024.74 C 398.844 1029.87 397.718 1041.09 393.087 1048.52 L 391.591 1047.88 C 389.264 1043.22 390.488 1037.63 391.645 1032.78 C 395.721 1015.67 402.075 998.771 407.541 982.061 C 419.153 946.567 429.061 912.505 433.215 875.238 z M 465.711 693.205 C 463.988 701.3 466.512 715.23 471.27 722.212 C 472.139 723.487 473.198 724.244 474.482 725.05 C 476.67 725.299 478.594 725.43 480.789 725.223 C 481.058 716.608 477.274 702.99 471.524 696.424 C 469.879 694.546 468.121 693.748 465.711 693.205 z M 683.697 696.593 C 675.643 705.481 658.207 725.276 657.289 736.997 C 658.181 739.365 658.314 740.025 660.721 741.188 C 661.332 741.483 662.067 741.629 662.726 741.787 C 672.001 735.482 685.558 715.009 688.265 703.993 C 688.938 701.254 688.673 700.135 687.303 697.748 L 683.697 696.593 z M 499.022 797.866 C 493.47 801.886 489.118 806.568 488.187 813.657 C 487.6 818.131 488.822 822.383 491.839 825.773 C 495.776 830.197 501.637 831.697 507.375 831.833 C 507.923 831.846 508.471 831.842 509.02 831.847 C 513.458 830.229 517.093 828.463 519.115 823.927 C 521.188 819.275 520.573 813.794 518.446 809.283 C 516.282 804.691 511.926 800.041 507.039 798.352 C 504.548 797.491 501.602 797.533 499.022 797.866 z M 615.455 808.105 C 607.804 812.934 602.483 819.195 600.495 828.25 C 599.793 831.449 600.098 833.567 601.316 836.558 C 603.285 838.6 604.523 839.514 607.425 839.816 C 610.233 840.109 613.426 839.14 616.086 838.36 C 623.023 834.755 629.123 831.166 631.518 823.266 C 632.507 820.003 632.501 816.456 630.659 813.488 C 628.879 810.621 624.154 808.353 620.823 807.914 C 618.929 807.665 617.326 807.835 615.455 808.105 z M 542.21 838.165 C 539.62 838.945 536.482 839.649 534.895 842.064 C 533.604 844.031 533.772 845.664 534.516 847.815 C 536.172 852.607 543.13 857.065 546.84 860.461 L 546.931 880.612 C 535.213 882.969 522.04 890.414 510.565 883.243 C 505.585 880.13 503.537 873.449 498.788 870.979 L 497.356 871.75 C 496.538 875.533 496.393 878.179 498.228 881.716 C 501.257 887.556 510.817 890.366 516.684 891.62 C 528.316 894.106 539.629 891.032 549.966 885.73 C 553.273 888.039 556.452 890.2 560.064 892.003 C 574.631 898.536 586.267 899.153 601.163 893.213 C 605.662 891.418 608.269 888.806 610.656 884.69 L 610.46 882.681 C 608.216 881.797 606.77 881.616 604.425 882.497 C 592.385 887.018 584.312 895.058 570.348 889.823 C 564.149 887.499 559.089 884.019 554.736 879.066 L 554.931 860.085 C 559.732 858.148 567.513 855.945 569.491 850.592 C 570.409 848.11 569.934 846.243 568.61 844.057 C 566.359 840.341 559.274 838.224 555.25 837.834 C 551.037 837.426 546.408 837.766 542.21 838.165 z M 652.601 903.333 C 650.238 906.029 649.129 907.678 649.407 911.502 C 649.696 915.489 651.892 918.932 654.955 921.433 C 656.925 923.041 659.659 923.616 662.065 924.27 C 663.833 921.27 664.91 919.35 664.059 915.717 C 663.08 911.542 659.801 906.719 656.02 904.548 C 654.964 903.941 653.761 903.654 652.601 903.333 z M 489.55 1000.56 C 484.317 1007.85 479.126 1019.34 479.776 1028.42 C 480.762 1030.07 481.427 1030.58 483.133 1031.44 C 487.389 1024.81 493.738 1011.06 492.714 1003.12 C 491.611 1001.95 490.993 1001.32 489.55 1000.56 z M 602.961 1003.31 C 600.462 1011.11 601.766 1023.98 605.577 1031.27 C 606.832 1033.66 607.747 1033.73 610.154 1034.73 C 611.674 1027.98 610.561 1012.09 606.902 1005.96 C 605.892 1004.27 604.684 1004.13 602.961 1003.31 z M 540.469 1048.19 C 539.258 1055.73 537.302 1066.14 541.581 1072.89 C 542.924 1073.66 544.054 1074.28 545.523 1074.79 C 546.209 1067.97 549.119 1055.81 544.939 1050.12 C 543.443 1049.39 542.045 1048.72 540.469 1048.19 z M 476.676 1091.51 C 472.527 1098.66 475.722 1111.71 477.789 1119.41 C 478.984 1123.87 481.064 1131.89 484.933 1134.51 C 485.491 1134.88 486.532 1135.24 487.158 1135.47 C 487.616 1134.45 488.353 1133.51 488.533 1132.41 C 489.209 1128.26 483.009 1100.45 481.097 1095.73 C 480.176 1093.45 478.862 1092.59 476.676 1091.51 z M 602.045 1098.38 C 599.231 1102.48 598.914 1105.03 599.774 1109.91 C 600.651 1114.89 602.901 1121.34 605.562 1125.67 C 608.193 1122.82 608.419 1121.51 608.337 1117.66 C 608.215 1111.85 607.267 1104.39 603.975 1099.51 L 602.045 1098.38 z M 555.277 1163.27 C 554.272 1172.42 557.235 1192.25 563.081 1199.63 L 566.033 1200.71 C 568.24 1192.23 565.597 1173.76 560.94 1166.18 C 560.137 1164.87 559.509 1164.24 558.014 1163.73 C 557.331 1163.5 556.022 1163.37 555.277 1163.27 z M 505.776 1205.24 C 502.428 1213.94 506.385 1224.42 509.947 1232.62 C 511.354 1235.85 512.418 1237.55 515.732 1239.18 C 519.107 1231.22 515.318 1219.74 512.217 1212.01 C 511.4 1209.97 510.466 1208.34 509.145 1206.59 L 505.776 1205.24 z"/>
<path transform="translate(0,0)" fill="rgb(255,255,255)" d="M 1300.71 710.678 C 1299.44 708.423 1298.44 706.677 1298.53 703.97 C 1298.84 694.105 1309.15 685.255 1315.83 678.934 C 1316.03 679.349 1316.28 679.739 1316.41 680.178 C 1317.76 684.913 1313.75 695.769 1311.64 700.031 C 1308.79 705.801 1306.82 708.542 1300.71 710.678 z"/>
<path transform="translate(0,0)" fill="rgb(0,0,0)" d="M 480.789 725.223 C 478.594 725.43 476.67 725.299 474.482 725.05 C 473.198 724.244 472.139 723.487 471.27 722.212 C 466.512 715.23 463.988 701.3 465.711 693.205 C 468.121 693.748 469.879 694.546 471.524 696.424 C 477.274 702.99 481.058 716.608 480.789 725.223 z"/>
<path transform="translate(0,0)" fill="rgb(0,0,0)" d="M 662.726 741.787 C 662.067 741.629 661.332 741.483 660.721 741.188 C 658.314 740.025 658.181 739.365 657.289 736.997 C 658.207 725.276 675.643 705.481 683.697 696.593 L 687.303 697.748 C 688.673 700.135 688.938 701.254 688.265 703.993 C 685.558 715.009 672.001 735.482 662.726 741.787 z"/>
<path transform="translate(0,0)" fill="rgb(0,0,0)" d="M 908.086 777.045 C 904.592 775.415 900.981 774.094 898.364 771.168 C 898.213 766.294 907.248 762.323 910.939 759.708 C 924.218 750.304 925.922 731.04 933.242 717.25 L 936.264 718.691 C 940.451 726.25 933.058 739.604 932.682 748.139 C 932.146 760.33 945.985 762.331 951.93 770.026 C 952.919 771.307 952.618 770.979 952.375 772.678 C 946.743 775.426 940.849 778.071 935.498 781.333 C 926.221 786.988 924.218 807.2 921.627 817.073 L 917.998 817.649 C 912.715 813.521 915.09 795.311 913.345 787.974 C 912.383 783.93 910.25 780.536 908.086 777.045 z M 925.637 756.807 C 921.805 762.257 918.043 766.009 912.703 770.029 C 916.373 773.677 919.335 777.495 922.35 781.668 L 923.384 781.455 C 927.863 777.356 932.523 774.115 937.581 770.793 C 932.777 766.445 929.3 762.195 925.637 756.807 z"/>
<path transform="translate(0,0)" fill="rgb(0,0,0)" d="M 1053.67 785.57 C 1045.37 786.322 982.741 758.017 974.092 752.983 C 972.624 750.366 973.146 748.494 973.27 745.535 C 983.169 746.256 1044.15 773.583 1054.22 779.67 C 1055.27 782.161 1054.43 783.092 1053.67 785.57 z"/>
<path transform="translate(0,0)" fill="rgb(255,255,255)" d="M 912.703 770.029 C 918.043 766.009 921.805 762.257 925.637 756.807 C 929.3 762.195 932.777 766.445 937.581 770.793 C 932.523 774.115 927.863 777.356 923.384 781.455 L 922.35 781.668 C 919.335 777.495 916.373 773.677 912.703 770.029 z"/>
<path transform="translate(0,0)" fill="rgb(255,255,255)" d="M 1135.48 798.663 C 1135.2 798.71 1134.93 798.773 1134.65 798.804 C 1131.46 799.158 1128.65 798.743 1126.21 796.479 C 1122.93 793.43 1122.2 788.65 1122.57 784.393 C 1123.17 777.586 1125.42 773.259 1130.67 769.01 C 1134.83 769.504 1138.38 769.958 1141.29 773.268 C 1143.77 776.078 1144.81 780.072 1144.39 783.759 C 1143.64 790.346 1140.49 794.617 1135.48 798.663 z"/>
<path transform="translate(0,0)" fill="rgb(255,255,255)" d="M 1223.93 812.841 C 1223.47 812.816 1223.01 812.831 1222.55 812.765 C 1219.85 812.363 1217.48 810.73 1216.13 808.342 C 1214.35 805.09 1214.54 801.007 1215.3 797.508 C 1216.74 790.857 1219.33 787.457 1225.05 783.923 C 1227.8 784.256 1230.4 784.531 1232.61 786.448 C 1234.95 788.467 1235.78 791.54 1235.56 794.518 C 1235 802.061 1229.55 808.361 1223.93 812.841 z"/>
<path transform="translate(0,0)" fill="rgb(0,0,0)" d="M 985.764 813.037 C 978.865 814.205 975.61 814.272 969.046 811.872 L 969.127 809.059 C 983.615 802.069 1018.47 799.745 1035.66 797.368 C 1039.58 796.876 1043.54 795.886 1047.3 797.421 C 1048.86 799.528 1048.82 799.627 1048.75 802.262 C 1043.97 806.444 995.022 811.756 985.764 813.037 z"/>
<path transform="translate(0,0)" fill="rgb(0,0,0)" d="M 509.02 831.847 C 508.471 831.842 507.923 831.846 507.375 831.833 C 501.637 831.697 495.776 830.197 491.839 825.773 C 488.822 822.383 487.6 818.131 488.187 813.657 C 489.118 806.568 493.47 801.886 499.022 797.866 C 501.602 797.533 504.548 797.491 507.039 798.352 C 511.926 800.041 516.282 804.691 518.446 809.283 C 520.573 813.794 521.188 819.275 519.115 823.927 C 517.093 828.463 513.458 830.229 509.02 831.847 z"/>
<path transform="translate(0,0)" fill="rgb(0,0,0)" d="M 385.84 836.268 C 383.823 836.739 382.09 837.061 380.004 836.873 C 357.177 834.813 293.823 824.54 278.95 806.91 C 286.657 806.809 314.778 815.965 325.103 818.206 C 338.24 821.057 374.051 824.938 383.336 829.126 C 385.626 831.853 385.442 832.82 385.84 836.268 z"/>
<path transform="translate(0,0)" fill="rgb(0,0,0)" d="M 616.086 838.36 C 613.426 839.14 610.233 840.109 607.425 839.816 C 604.523 839.514 603.285 838.6 601.316 836.558 C 600.098 833.567 599.793 831.449 600.495 828.25 C 602.483 819.195 607.804 812.934 615.455 808.105 C 617.326 807.835 618.929 807.665 620.823 807.914 C 624.154 808.353 628.879 810.621 630.659 813.488 C 632.501 816.456 632.507 820.003 631.518 823.266 C 629.123 831.166 623.023 834.755 616.086 838.36 z"/>
<path transform="translate(0,0)" fill="rgb(255,255,255)" d="M 1174.92 834.886 C 1169.27 837.527 1163.3 840.07 1157.05 840.728 C 1150.98 841.368 1145.18 839.96 1140.52 835.906 C 1137.09 832.917 1134.33 829.046 1134.14 824.393 C 1141.16 824.169 1148.54 835.294 1161.07 833.231 C 1165.47 832.505 1168.89 830.354 1171.41 826.727 C 1172.05 824.53 1171.74 823.402 1171.06 821.307 C 1170.27 818.877 1169.7 816.616 1169.23 814.105 C 1169.87 810.957 1171.44 809.809 1173.74 807.811 C 1175.75 807.942 1177.72 808.25 1179.71 808.532 C 1181.97 810.212 1182.24 810.247 1183.01 812.916 C 1181.89 817.949 1178.97 820.612 1174.81 823.423 C 1179.85 830.643 1185.4 837.209 1193.35 841.354 C 1203.39 846.584 1209.18 842.609 1218.99 840.372 C 1221.37 839.831 1222.84 839.539 1224.98 840.836 C 1224.78 841.77 1224.81 841.988 1224.22 842.914 C 1221.92 846.535 1217.45 847.887 1213.56 848.789 C 1202.09 851.447 1192.93 848.59 1183.24 842.564 C 1180.22 840.256 1177.61 837.558 1174.92 834.886 z"/>
<path transform="translate(0,0)" fill="rgb(0,0,0)" d="M 975.551 875.028 C 974.254 873.675 974.767 874.299 973.591 872.673 C 972.417 871.051 972.787 871.191 973.088 869.362 C 981.296 858.008 1032.19 829.506 1046.89 822.886 C 1047.1 822.999 1047.35 823.06 1047.52 823.224 C 1049.15 824.784 1048.7 825.696 1048.45 827.728 C 1043.89 834.59 984.687 871.747 975.551 875.028 z"/>
<path transform="translate(0,0)" fill="rgb(0,0,0)" d="M 546.84 860.461 C 543.13 857.065 536.172 852.607 534.516 847.815 C 533.772 845.664 533.604 844.031 534.895 842.064 C 536.482 839.649 539.62 838.945 542.21 838.165 C 546.408 837.766 551.037 837.426 555.25 837.834 C 559.274 838.224 566.359 840.341 568.61 844.057 C 569.934 846.243 570.409 848.11 569.491 850.592 C 567.513 855.945 559.732 858.148 554.931 860.085 L 554.736 879.066 C 559.089 884.019 564.149 887.499 570.348 889.823 C 584.312 895.058 592.385 887.018 604.425 882.497 C 606.77 881.616 608.216 881.797 610.46 882.681 L 610.656 884.69 C 608.269 888.806 605.662 891.418 601.163 893.213 C 586.267 899.153 574.631 898.536 560.064 892.003 C 556.452 890.2 553.273 888.039 549.966 885.73 C 539.629 891.032 528.316 894.106 516.684 891.62 C 510.817 890.366 501.257 887.556 498.228 881.716 C 496.393 878.179 496.538 875.533 497.356 871.75 L 498.788 870.979 C 503.537 873.449 505.585 880.13 510.565 883.243 C 522.04 890.414 535.213 882.969 546.931 880.612 L 546.84 860.461 z"/>
<path transform="translate(0,0)" fill="rgb(0,0,0)" d="M 280.421 895.495 C 277.543 895.637 277.014 896.037 274.757 894.322 L 274.993 892.451 C 276.65 890.279 278.743 889.016 281.271 888.045 C 291.255 884.213 302.35 882.027 312.626 878.942 C 334.562 872.356 356.206 865.342 377.496 856.884 C 379.076 857.259 380.437 858.274 381.829 859.093 C 382.68 861.081 382.594 861.119 381.989 863.213 C 369.548 874.721 300.35 890.679 280.421 895.495 z"/>
<path transform="translate(0,0)" fill="rgb(0,0,0)" d="M 311.541 954.259 L 309.453 955.033 C 306.898 954.261 307.409 954.203 306.19 952.059 C 306.537 949.965 306.523 949.332 308.068 947.783 C 315.205 940.626 324.99 934.704 333.259 928.832 C 347.322 918.93 361.294 908.901 375.175 898.746 C 377.965 898.936 378.411 898.613 380.355 900.556 L 380.155 902.996 C 371.618 916.26 326.7 944.404 311.541 954.259 z"/>
<path transform="translate(0,0)" fill="rgb(0,0,0)" d="M 662.065 924.27 C 659.659 923.616 656.925 923.041 654.955 921.433 C 651.892 918.932 649.696 915.489 649.407 911.502 C 649.129 907.678 650.238 906.029 652.601 903.333 C 653.761 903.654 654.964 903.941 656.02 904.548 C 659.801 906.719 663.08 911.542 664.059 915.717 C 664.91 919.35 663.833 921.27 662.065 924.27 z"/>
<path transform="translate(0,0)" fill="rgb(0,0,0)" d="M 1463.85 1002.09 C 1469.88 995.166 1477.18 989.357 1483.17 982.29 C 1493.63 969.952 1497.24 955.657 1504.11 941.485 L 1504.59 940.512 C 1504.92 940.551 1505.25 940.567 1505.58 940.629 C 1507.85 941.062 1509.56 941.157 1510.4 943.633 C 1513.23 952.013 1502.84 974.384 1507.29 986.821 C 1510.74 996.457 1517.88 1004.88 1523.51 1013.33 C 1520.11 1018.83 1512.3 1019.9 1506.96 1023.15 C 1497.83 1028.7 1491.72 1038.36 1489.34 1048.61 L 1487.1 1058.15 L 1482.49 1058.99 C 1478.41 1057.59 1479.03 1054.97 1478.82 1051.1 C 1477.53 1027.83 1474.94 1022.22 1463.85 1002.09 z M 1497.7 979.874 C 1490.71 987.797 1483.81 995.515 1475.93 1002.59 C 1479.72 1011.34 1483.78 1020.04 1485.81 1029.41 L 1487.12 1029.31 C 1494.66 1021.71 1501.82 1015.92 1511.13 1010.61 C 1508.15 1005.7 1505.07 1000.75 1502.83 995.452 C 1501 991.148 1500.15 983.232 1497.7 979.874 z"/>
<path transform="translate(0,0)" fill="rgb(255,255,255)" d="M 1475.93 1002.59 C 1483.81 995.515 1490.71 987.797 1497.7 979.874 C 1500.15 983.232 1501 991.148 1502.83 995.452 C 1505.07 1000.75 1508.15 1005.7 1511.13 1010.61 C 1501.82 1015.92 1494.66 1021.71 1487.12 1029.31 L 1485.81 1029.41 C 1483.78 1020.04 1479.72 1011.34 1475.93 1002.59 z"/>
<path transform="translate(0,0)" fill="rgb(0,0,0)" d="M 483.133 1031.44 C 481.427 1030.58 480.762 1030.07 479.776 1028.42 C 479.126 1019.34 484.317 1007.85 489.55 1000.56 C 490.993 1001.32 491.611 1001.95 492.714 1003.12 C 493.738 1011.06 487.389 1024.81 483.133 1031.44 z"/>
<path transform="translate(0,0)" fill="rgb(0,0,0)" d="M 610.154 1034.73 C 607.747 1033.73 606.832 1033.66 605.577 1031.27 C 601.766 1023.98 600.462 1011.11 602.961 1003.31 C 604.684 1004.13 605.892 1004.27 606.902 1005.96 C 610.561 1012.09 611.674 1027.98 610.154 1034.73 z"/>
<path transform="translate(0,0)" fill="rgb(0,0,0)" d="M 545.523 1074.79 C 544.054 1074.28 542.924 1073.66 541.581 1072.89 C 537.302 1066.14 539.258 1055.73 540.469 1048.19 C 542.045 1048.72 543.443 1049.39 544.939 1050.12 C 549.119 1055.81 546.209 1067.97 545.523 1074.79 z"/>
<path transform="translate(0,0)" fill="rgb(0,0,0)" d="M 487.158 1135.47 C 486.532 1135.24 485.491 1134.88 484.933 1134.51 C 481.064 1131.89 478.984 1123.87 477.789 1119.41 C 475.722 1111.71 472.527 1098.66 476.676 1091.51 C 478.862 1092.59 480.176 1093.45 481.097 1095.73 C 483.009 1100.45 489.209 1128.26 488.533 1132.41 C 488.353 1133.51 487.616 1134.45 487.158 1135.47 z"/>
<path transform="translate(0,0)" fill="rgb(0,0,0)" d="M 605.562 1125.67 C 602.901 1121.34 600.651 1114.89 599.774 1109.91 C 598.914 1105.03 599.231 1102.48 602.045 1098.38 L 603.975 1099.51 C 607.267 1104.39 608.215 1111.85 608.337 1117.66 C 608.419 1121.51 608.193 1122.82 605.562 1125.67 z"/>
<path transform="translate(0,0)" fill="rgb(255,255,255)" d="M 703.157 1558.7 C 714.889 1481.86 722.732 1404.04 731.687 1326.82 C 740.004 1255.09 749.798 1182.27 756.377 1110.46 C 768.317 1116.25 792.494 1147.96 800.99 1159.73 C 825.8 1194.08 852.155 1252.24 858.02 1294.16 C 862.503 1326.2 860.196 1361.17 854.933 1393.06 C 848.837 1429.99 837.532 1473.68 812.169 1502.17 C 802.608 1512.91 790.953 1521.37 779.325 1529.69 C 755.074 1544.72 731.226 1553.73 703.157 1558.7 z"/>
<path transform="translate(0,0)" fill="rgb(0,0,0)" d="M 566.033 1200.71 L 563.081 1199.63 C 557.235 1192.25 554.272 1172.42 555.277 1163.27 C 556.022 1163.37 557.331 1163.5 558.014 1163.73 C 559.509 1164.24 560.137 1164.87 560.94 1166.18 C 565.597 1173.76 568.24 1192.23 566.033 1200.71 z"/>
<path transform="translate(0,0)" fill="rgb(0,0,0)" d="M 515.732 1239.18 C 512.418 1237.55 511.354 1235.85 509.947 1232.62 C 506.385 1224.42 502.428 1213.94 505.776 1205.24 L 509.145 1206.59 C 510.466 1208.34 511.4 1209.97 512.217 1212.01 C 515.318 1219.74 519.107 1231.22 515.732 1239.18 z"/>
<path transform="translate(0,0)" fill="rgb(255,255,255)" d="M 416.927 1366.33 C 415.565 1331.1 431.437 1293.11 443.207 1260.42 C 446.782 1263.95 450.338 1267.5 453.873 1271.07 C 460.486 1299.27 457.15 1335.81 479.703 1357.25 C 482.467 1373.62 484.25 1389.54 489.252 1405.53 C 492.384 1415.53 494.253 1419.96 503.888 1424.89 C 506.068 1426 505.903 1427.91 506.505 1430.24 C 509.567 1442.05 511.211 1454.38 513.797 1466.33 C 517.374 1482.86 522.319 1498.5 528.046 1514.38 C 521.687 1517.58 514.945 1524.74 508.305 1526.25 C 505.119 1526.97 503.24 1525.79 500.597 1524.26 C 466.736 1498.56 446.533 1456.06 436.942 1415.58 C 435.366 1408.93 433.275 1401.75 432.606 1394.95 C 431.744 1386.19 436.069 1370.34 431.649 1362.93 C 430.816 1361.53 429.796 1360.76 428.215 1360.56 C 423.546 1359.99 420.224 1363.56 416.927 1366.33 z"/>
<path transform="translate(0,0)" fill="rgb(255,255,255)" d="M 304.18 1494.83 C 335.314 1468.81 380.75 1464.11 419.571 1461.42 C 425.795 1460.73 432.358 1460.94 438.633 1460.76 C 447.738 1486.89 464.981 1511.22 484.929 1530.08 C 487.038 1532.08 490.444 1534.51 490.527 1537.38 C 490.277 1537.63 490.058 1537.91 489.775 1538.11 C 482.243 1543.64 444.807 1535.79 435.581 1531.5 C 427.935 1527.94 422.766 1519.74 413.991 1518.42 C 411.468 1519.5 411.368 1519.66 409.942 1522.01 C 409.631 1526.68 411.099 1528.49 414.05 1531.83 C 434.558 1555.02 459.969 1552.64 488.152 1554.19 C 489.352 1556.41 490.464 1558.82 492.386 1560.51 C 498.414 1565.82 583.842 1562.77 597.436 1561.83 C 595.292 1600.96 588.661 1640.67 583.663 1679.53 C 570.703 1681.87 557.787 1683.5 544.625 1684.08 C 528.459 1684.21 512.209 1683.31 497.392 1676.28 C 489.068 1672.34 480.963 1667.75 471.862 1665.85 C 455.791 1662.49 437.813 1666.4 421.227 1664.07 C 402.205 1661.39 391.213 1649.83 374.27 1644.15 C 357.198 1638.42 345.001 1643.67 324.643 1632.04 C 307.098 1622.01 306.515 1609.13 295.213 1600.48 C 290.069 1596.54 284.411 1598.19 278.458 1598.91 C 275.359 1593.12 273.529 1587.6 272.985 1581.02 C 271.341 1561.12 282.158 1539.43 296.028 1525.66 C 301.663 1520.07 308.892 1515.29 313.76 1509.02 C 315.411 1506.89 315.857 1505.85 315.619 1503.2 C 312.652 1499.46 308.216 1497.28 304.18 1494.83 z"/>
<path transform="translate(0,0)" fill="rgb(0,0,0)" d="M 823.15 1599.03 C 801.178 1597.29 779.132 1596.56 757.174 1594.81 C 754.573 1594.6 751.667 1594.71 749.973 1592.65 C 750.405 1589.85 751.637 1589.12 753.462 1587.07 C 772.929 1586.88 793.973 1587.18 813.311 1589.45 C 817.48 1589.94 822.634 1590.29 825.423 1593.76 C 825.509 1596.72 825.087 1596.73 823.15 1599.03 z"/>
<path transform="translate(0,0)" fill="rgb(0,0,0)" d="M 1037.35 1612.99 C 1025.9 1612.86 971.638 1615.03 965.441 1609.37 C 964.888 1606.69 965.302 1605.89 966.154 1603.24 C 975.143 1602.56 1031.6 1601.35 1036.94 1605.55 C 1038.34 1608.11 1037.75 1610.26 1037.35 1612.99 z"/>
<path transform="translate(0,0)" fill="rgb(0,0,0)" d="M 1049.77 1626.35 C 1039.7 1627.52 1005.22 1627.91 996.779 1624.19 C 995.264 1621.34 995.834 1619.79 996.114 1616.62 C 1007.56 1616.98 1040.85 1614.17 1049.16 1620.38 C 1050.18 1622.93 1050.1 1623.59 1049.77 1626.35 z"/>
</svg>