<svg version="1.1" xmlns="http://www.w3.org/2000/svg" style="display: block;" viewBox="0 0 2048 2048" width="1024" height="1024">
<path transform="translate(0,0)" fill="rgb(254,254,254)" d="M 0 0 L 2048 0 L 2048 2048 L 0 2048 L 0 0 z M 1698.25 167.423 C 1680.09 168.592 1661.74 168.245 1643.54 168.592 C 1610.84 169.23 1578.15 170.167 1545.47 171.402 C 1500.43 173.245 1095.74 194.748 1087.06 203.513 C 1085.5 205.086 1084.79 206.84 1084.44 208.982 C 1083.07 217.237 1082.97 226.222 1082.06 234.595 L 1074.93 299.262 L 1051.2 510.854 L 961.581 1359.33 L 933.436 1631.9 L 924.733 1713.27 C 923.149 1728.08 920.108 1744.29 921.088 1759.16 C 921.166 1760.34 921.323 1761.51 921.476 1762.68 C 937.824 1770.44 1133.01 1783.09 1163.39 1785.4 C 1206.26 1788.67 1249.26 1793.79 1292.25 1795.06 L 1470.08 1806.88 C 1500.2 1809.18 1530.34 1811.15 1560.51 1812.78 C 1572.27 1813.44 1584.23 1814.73 1595.98 1814.9 C 1599.26 1814.95 1602.45 1814.96 1605.51 1813.66 C 1613.17 1805.41 1612.53 1788.81 1615.4 1778.25 C 1660.02 1777.51 1931.3 1777.45 1948.57 1757.11 C 1949.57 1755.94 1949.17 1756.1 1949.03 1754.24 C 1938.72 1743.27 1895.11 1741.09 1879.28 1739.56 C 1875.98 1712.35 1874.76 1684.84 1872.45 1657.53 L 1859.72 1518.11 L 1817.31 1061.48 L 1796.7 841.638 C 1794.69 820.393 1792.06 799.2 1789.95 777.964 C 1789 768.448 1787.38 758.417 1787.63 748.854 C 1788.19 728.127 1794.6 705.851 1797.99 685.316 L 1825.12 525.011 L 1865.17 295.13 C 1871.74 258.057 1881.14 220.79 1885.4 183.394 C 1885.96 178.469 1886.79 174.53 1884.07 170.231 C 1881.43 168.665 1878.47 168.643 1875.48 168.47 C 1860.83 167.623 1845.9 168.108 1831.2 167.978 L 1760.63 167.119 C 1741.81 167.038 1716.18 165.168 1698.25 167.423 z M 875.273 463.73 C 865.064 477.929 874.171 517.801 849.666 538.3 C 833.987 551.416 792.134 546.922 790.361 562.395 C 791.547 564.761 791.77 565.799 794.437 566.774 C 797.287 567.816 801.935 567.266 804.956 567.156 C 824.057 566.462 842.176 565.829 854.11 583.813 C 862.775 596.871 867.222 615.715 868.747 631.155 C 869.238 636.127 868.545 641.77 869.73 646.594 C 870.365 649.176 871.807 651.538 874.55 652.158 C 877.347 652.79 879.467 652.128 882.137 651.21 C 887.003 641.653 886.807 629.082 888.392 618.533 C 891.375 598.677 901.365 577.311 921.744 570.603 C 934.097 566.537 960.488 567.848 968.984 560.087 C 970.071 557.473 970.058 557.185 969.508 554.4 C 958.259 541.493 922.836 554.579 903.521 527.265 C 899.534 521.627 895.737 515.015 893.464 508.487 C 889.49 497.074 889.425 475.838 883.17 466.577 C 881.881 464.669 880.378 463.99 878.09 463.82 C 877.153 463.751 876.213 463.751 875.273 463.73 z M 575.217 664.453 C 533.969 666.028 490.786 675.594 461.547 707.041 C 453.007 716.225 446.645 727.43 437.9 736.31 C 425.491 748.911 397.919 758.796 395.556 778.931 C 397.111 782.744 401.313 784.416 404.754 786.302 C 399.988 791.267 388.521 800.726 388.872 808.029 C 388.992 810.528 390.442 812.932 392.578 814.229 C 394.867 815.619 397.853 816.492 400.374 817.361 C 397.097 823.173 389.802 833.063 391.52 839.811 C 392.195 842.465 393.847 844.091 396.216 845.272 C 398.266 846.293 400.408 847.152 402.526 848.022 C 398.728 865.146 393.089 881.732 388.605 898.671 C 374.595 951.592 365.383 1009.39 396.488 1058.07 C 401.495 1065.91 407.214 1072.98 413.695 1079.63 C 384.169 1162.3 361.572 1254.19 309.961 1326.58 C 301.015 1339.13 290.635 1351.56 278.834 1361.54 C 269.529 1369.4 258.719 1375.64 248.614 1382.44 C 236.044 1390.9 223.951 1400.04 212.389 1409.84 C 189.49 1429.42 167.968 1453.96 153.729 1480.65 C 147.382 1492.54 142.918 1505.76 139.022 1518.65 C 119.271 1584.01 129.218 1649.48 158.104 1710.49 C 168.845 1733.18 181.387 1748.52 192.943 1769.02 C 177.887 1773.7 165.875 1778.86 157.918 1793.53 C 151.361 1805.61 150.433 1818.5 154.551 1831.54 C 154.766 1832.22 154.992 1832.89 155.228 1833.56 C 142.286 1835.17 106.903 1837.79 98.9557 1848.23 C 98.3413 1849.04 98.108 1849.51 97.5562 1850.44 C 98.0512 1853.19 100.346 1855.32 102.57 1856.85 C 116.18 1866.18 139.505 1867.45 155.502 1869.65 C 214.214 1877.75 272.333 1880.29 331.504 1880.52 C 363.302 1880.65 396.11 1880.72 427.758 1877.34 C 447.068 1875.09 467.275 1873.02 485.949 1867.38 C 495.213 1864.58 503.189 1859.41 512.893 1857.94 C 523.21 1856.37 534.068 1856.47 544.49 1856.03 C 582 1854.45 622.816 1855.57 657.986 1841.18 C 660.326 1836.28 662.612 1831.86 665.842 1827.46 L 667.194 1827.17 C 696.227 1821.08 772.032 1826.41 789.123 1801.13 C 792.686 1795.86 793.269 1789.94 791.891 1783.83 C 788.872 1770.44 778.429 1758.3 766.969 1751.22 C 755.312 1744.01 741.826 1741.29 728.561 1738.73 C 731.644 1714.91 735.949 1691.24 739.379 1667.46 L 765.237 1481.55 C 771.004 1438.9 778.38 1395.89 779.696 1352.83 C 785.458 1356.41 791.881 1360.79 799.015 1358.82 C 802.419 1357.87 804.796 1355.6 806.44 1352.52 C 813.967 1338.46 807.931 1301.01 805.284 1285.28 C 808.725 1288.45 811.475 1290.95 816.415 1290.53 C 817.878 1290.4 819.146 1289.56 820.105 1288.45 C 827.574 1279.85 822.6 1257.69 820.538 1247.69 C 813.758 1214.81 802.625 1183.6 791.707 1151.95 C 776.77 1108.66 761.089 1065.42 748.109 1021.49 C 796.28 1013.78 836.99 994.807 866.24 954.605 C 882.623 932.089 895.138 901.332 890.223 872.964 C 888.176 861.148 881.898 850.571 871.998 843.703 C 848.754 827.576 793.97 825.463 783.963 817.045 C 775.367 809.813 774.177 788.736 770.507 778.29 C 749.485 718.456 711.216 685.719 649.853 671.594 C 625.728 666.041 599.999 663.674 575.217 664.453 z M 245.552 1146.44 C 237.067 1153.96 242.444 1168.28 233.291 1176.53 C 225.099 1183.93 208.812 1178.23 201.856 1186.05 C 202.343 1188.47 202.518 1188.94 204.868 1190.29 C 215.192 1196.21 226.358 1192.19 231.712 1205.83 C 234.34 1212.53 234.995 1231.14 241.65 1234 C 242.715 1234.45 243.438 1234.64 244.609 1235.02 C 255.551 1225.6 249.114 1204.78 262.964 1195.93 C 268.635 1192.31 275.841 1191.06 281.999 1188.45 C 284.657 1187.33 286.532 1186.16 287.735 1183.43 C 287.143 1180.99 286.937 1180.59 284.632 1179.18 C 276.62 1174.29 260.431 1177.45 256.414 1166.94 C 253.826 1160.17 255.736 1151.39 248.067 1147.52 C 247.252 1147.11 246.397 1146.78 245.552 1146.44 z M 165.601 1408.67 C 147.222 1419.4 116.278 1455.93 111.05 1476.42 C 110.199 1479.76 110.258 1481.81 112.005 1484.9 C 113.76 1486.19 115.323 1487.32 117.303 1488.25 C 128.078 1479.13 140.88 1452.19 151.536 1439.1 C 156.637 1432.84 170.924 1423.07 171.895 1415.02 C 172.145 1412.95 171.508 1412.54 170.543 1410.82 C 168.797 1409.84 167.565 1409.15 165.601 1408.67 z M 145.718 1463.8 C 127.633 1480.3 110.18 1528.1 108.893 1552.12 C 108.65 1556.66 108.74 1560.53 111.928 1564.06 C 113.789 1564.88 115.371 1565.48 117.379 1565.82 C 123.733 1557.64 124.585 1541.49 127.288 1531.37 C 129.502 1523.08 132.052 1514.62 135.252 1506.65 C 139.152 1496.94 153.373 1477.92 152.852 1468.51 C 152.716 1466.05 151.754 1465.61 149.976 1464.27 L 145.718 1463.8 z"/>
<path transform="translate(0,0)" fill="rgb(0,0,0)" d="M 1292.25 1795.06 C 1249.26 1793.79 1206.26 1788.67 1163.39 1785.4 C 1133.01 1783.09 937.824 1770.44 921.476 1762.68 C 921.323 1761.51 921.166 1760.34 921.088 1759.16 C 920.108 1744.29 923.149 1728.08 924.733 1713.27 L 933.436 1631.9 L 961.581 1359.33 L 1051.2 510.854 L 1074.93 299.262 L 1082.06 234.595 C 1082.97 226.222 1083.07 217.237 1084.44 208.982 C 1084.79 206.84 1085.5 205.086 1087.06 203.513 C 1095.74 194.748 1500.43 173.245 1545.47 171.402 C 1578.15 170.167 1610.84 169.23 1643.54 168.592 C 1661.74 168.245 1680.09 168.592 1698.25 167.423 C 1716.18 165.168 1741.81 167.038 1760.63 167.119 L 1831.2 167.978 C 1845.9 168.108 1860.83 167.623 1875.48 168.47 C 1878.47 168.643 1881.43 168.665 1884.07 170.231 C 1886.79 174.53 1885.96 178.469 1885.4 183.394 C 1881.14 220.79 1871.74 258.057 1865.17 295.13 L 1825.12 525.011 L 1797.99 685.316 C 1794.6 705.851 1788.19 728.127 1787.63 748.854 C 1787.38 758.417 1789 768.448 1789.95 777.964 C 1792.06 799.2 1794.69 820.393 1796.7 841.638 L 1817.31 1061.48 L 1859.72 1518.11 L 1872.45 1657.53 C 1874.76 1684.84 1875.98 1712.35 1879.28 1739.56 C 1895.11 1741.09 1938.72 1743.27 1949.03 1754.24 C 1949.17 1756.1 1949.57 1755.94 1948.57 1757.11 C 1931.3 1777.45 1660.02 1777.51 1615.4 1778.25 C 1612.53 1788.81 1613.17 1805.41 1605.51 1813.66 C 1602.45 1814.96 1599.26 1814.95 1595.98 1814.9 C 1584.23 1814.73 1572.27 1813.44 1560.51 1812.78 C 1530.34 1811.15 1500.2 1809.18 1470.08 1806.88 L 1292.25 1795.06 z M 1705.42 181.558 C 1558.13 184.607 1410.94 191.798 1264.05 203.122 L 1153.55 211.537 C 1136.42 212.776 1118.37 212.468 1101.45 215.045 C 1098.6 228.967 1097.26 243.236 1095.52 257.332 C 1092.23 284.002 1089.21 310.705 1086.46 337.436 C 1078.62 404.283 1071.23 471.182 1064.3 538.128 L 996.817 1179.94 L 952.044 1598.8 C 948.922 1631.29 945.516 1663.76 941.826 1696.19 C 939.862 1714.34 936.653 1733.58 936.655 1751.81 C 987.56 1757.17 1038.75 1760.45 1089.76 1764.75 C 1194.43 1773.06 1299.16 1780.64 1403.95 1787.49 C 1455.54 1790.87 1507.53 1795.28 1559.21 1796.31 C 1591.92 1574.62 1627.79 1353.41 1666.8 1132.74 L 1748.76 648.918 L 1810.04 303.38 L 1822.55 231.279 C 1825.1 216.705 1829.91 200.475 1829.06 185.671 C 1824.97 181.326 1816.63 181.233 1810.89 181.053 C 1790.64 180.418 1770.21 181 1749.95 181.077 C 1735.22 181.133 1720.09 180.456 1705.42 181.558 z M 1776.62 808.685 C 1770.56 850.867 1763.12 892.904 1756.66 935.035 C 1753.85 953.36 1749.45 972.451 1748.91 990.965 C 1748.1 1019.17 1754.9 1056.63 1757.83 1085.6 L 1778.36 1287.28 C 1783.12 1334.89 1787.61 1382.53 1791.82 1430.2 L 1822.83 1750.71 C 1826.48 1750.51 1830.09 1750.27 1833.75 1750.41 C 1843.92 1750.16 1854.39 1750.44 1864.5 1749.39 C 1859.48 1705.39 1856.49 1661.13 1852.49 1617.03 L 1832.83 1405.15 L 1802.56 1091.95 L 1783.56 891.358 C 1780.96 864.249 1781.49 835.373 1776.62 808.685 z M 1738.19 1047.7 C 1731.87 1073.46 1728.66 1100.77 1724.14 1126.96 L 1696.97 1286.37 L 1621.48 1732.94 C 1644.87 1733.37 1668.24 1733.09 1691.63 1733.2 C 1726.12 1732.62 1771.43 1732.2 1805.34 1736.36 C 1804.6 1721.18 1802.59 1706.05 1801.2 1690.92 L 1793.19 1604.96 L 1765.16 1320.19 L 1745.61 1125.94 L 1740.12 1068.38 C 1739.49 1061.86 1739.71 1053.94 1738.19 1047.7 z"/>
<path transform="translate(0,0)" fill="rgb(254,254,254)" d="M 1101.45 215.045 C 1118.37 212.468 1136.42 212.776 1153.55 211.537 L 1264.05 203.122 C 1410.94 191.798 1558.13 184.607 1705.42 181.558 C 1720.09 180.456 1735.22 181.133 1749.95 181.077 C 1770.21 181 1790.64 180.418 1810.89 181.053 C 1816.63 181.233 1824.97 181.326 1829.06 185.671 C 1829.91 200.475 1825.1 216.705 1822.55 231.279 L 1810.04 303.38 L 1748.76 648.918 L 1666.8 1132.74 C 1627.79 1353.41 1591.92 1574.62 1559.21 1796.31 C 1507.53 1795.28 1455.54 1790.87 1403.95 1787.49 C 1299.16 1780.64 1194.43 1773.06 1089.76 1764.75 C 1038.75 1760.45 987.56 1757.17 936.655 1751.81 C 936.653 1733.58 939.862 1714.34 941.826 1696.19 C 945.516 1663.76 948.922 1631.29 952.044 1598.8 L 996.817 1179.94 L 1064.3 538.128 C 1071.23 471.182 1078.62 404.283 1086.46 337.436 C 1089.21 310.705 1092.23 284.002 1095.52 257.332 C 1097.26 243.236 1098.6 228.967 1101.45 215.045 z M 1613.68 233.567 C 1497.23 238.871 1380.9 246.71 1264.79 257.077 L 1180.46 264.033 C 1168.44 265.067 1156.02 265.538 1144.11 267.288 C 1140.86 267.767 1132.6 268.843 1130.64 271.327 C 1126.69 276.333 1102.05 561.815 1098.9 593.889 L 1036.12 1223.45 L 995.629 1599.23 C 994.134 1613.19 983.442 1694.79 985.119 1701.08 C 985.76 1703.48 988.574 1705.88 990.86 1706.62 C 1000.81 1709.82 1019.87 1708.33 1031.08 1709.1 C 1075.66 1711.97 1120.22 1715.24 1164.75 1718.9 C 1195.63 1720.26 1226.3 1723.11 1257.11 1725.22 L 1403.35 1734.98 C 1430.59 1737.09 1457.85 1738.87 1485.13 1740.34 C 1497.37 1740.97 1510.11 1742.18 1522.35 1741.73 C 1524.88 1741.64 1527.69 1741.81 1529.59 1739.93 C 1532.49 1737.08 1533.89 1733.12 1534.8 1729.26 C 1542.5 1696.89 1546.75 1659.24 1552.03 1626.18 L 1583.62 1429.72 L 1721.96 573.453 L 1762.21 329.623 C 1765.19 311.199 1776.06 260.901 1775.3 245.344 C 1775.15 242.273 1774.77 239.793 1773.11 237.145 C 1760.08 230.476 1634.44 232.056 1613.68 233.567 z"/>
<path transform="translate(0,0)" fill="rgb(0,0,0)" d="M 1164.75 1718.9 C 1120.22 1715.24 1075.66 1711.97 1031.08 1709.1 C 1019.87 1708.33 1000.81 1709.82 990.86 1706.62 C 988.574 1705.88 985.76 1703.48 985.119 1701.08 C 983.442 1694.79 994.134 1613.19 995.629 1599.23 L 1036.12 1223.45 L 1098.9 593.889 C 1102.05 561.815 1126.69 276.333 1130.64 271.327 C 1132.6 268.843 1140.86 267.767 1144.11 267.288 C 1156.02 265.538 1168.44 265.067 1180.46 264.033 L 1264.79 257.077 C 1380.9 246.71 1497.23 238.871 1613.68 233.567 C 1634.44 232.056 1760.08 230.476 1773.11 237.145 C 1774.77 239.793 1775.15 242.273 1775.3 245.344 C 1776.06 260.901 1765.19 311.199 1762.21 329.623 L 1721.96 573.453 L 1583.62 1429.72 L 1552.03 1626.18 C 1546.75 1659.24 1542.5 1696.89 1534.8 1729.26 C 1533.89 1733.12 1532.49 1737.08 1529.59 1739.93 C 1527.69 1741.81 1524.88 1741.64 1522.35 1741.73 C 1510.11 1742.18 1497.37 1740.97 1485.13 1740.34 C 1457.85 1738.87 1430.59 1737.09 1403.35 1734.98 L 1257.11 1725.22 C 1226.3 1723.11 1195.63 1720.26 1164.75 1718.9 z M 1337.48 1214.45 C 1332.45 1209.67 1333.28 1206.05 1332.88 1199.3 C 1332.5 1192.82 1333.13 1185.93 1334.85 1179.67 C 1338.54 1166.22 1345.06 1153.02 1350.9 1140.37 C 1365.75 1108.19 1382.99 1077.21 1398.17 1045.17 C 1377.53 1044.1 1355.62 1038.35 1341.32 1022.37 C 1330.85 1010.67 1326.27 993.772 1327.57 978.242 C 1330.77 940.002 1370.95 898.695 1389.56 864.954 C 1399.5 847.295 1406.23 828.011 1409.44 808 C 1414.06 778.936 1408.13 739.417 1433.91 718.884 C 1444.89 710.142 1457.85 711.259 1469.95 705.86 C 1483.54 699.792 1495.47 690.465 1508.8 683.87 C 1548.25 664.362 1594.02 660.562 1637.12 666.599 C 1654.25 669 1674.02 672.726 1688.97 681.904 C 1692.7 655.427 1697.68 629.13 1701.96 602.736 C 1710.86 545.017 1720.43 487.403 1730.67 429.906 C 1741.04 369.61 1749.55 309.028 1762.24 249.148 C 1668.36 242.253 1573.6 249.366 1479.89 256.041 C 1402.46 260.927 1325.1 266.839 1247.83 273.775 C 1228.49 275.443 1209.13 276.959 1189.77 278.324 C 1174.98 279.392 1158.47 279.293 1144.26 283.557 C 1133.4 377.716 1126.55 472.386 1117.76 566.749 L 1076.35 981.974 L 1029 1438.14 L 1015.83 1560.85 C 1010.82 1604.4 1005.2 1648.1 1001.85 1691.82 C 1058.44 1696.93 1115.33 1700.34 1172.02 1704.07 C 1209.09 1706.52 1246.9 1710.42 1284.02 1710.16 C 1281.7 1691.91 1286.26 1671.82 1297.66 1657.09 C 1308.45 1643.16 1324.76 1634.64 1342.17 1632.69 C 1356.91 1631.04 1373.2 1633.77 1387.46 1637.4 L 1375.41 1493.92 C 1373.59 1471.63 1373.8 1447.93 1369.54 1426.01 C 1344.92 1455.46 1322.58 1486.78 1299.94 1517.76 C 1273.96 1553.56 1247.51 1589.02 1220.61 1624.13 C 1208.79 1639.53 1198.13 1656.68 1185.34 1671.21 C 1182.42 1674.52 1179.31 1677.94 1174.76 1678.59 C 1172.87 1677.09 1172.97 1677.02 1172.79 1674.7 C 1172.61 1672.33 1173.51 1670.43 1174.72 1668.48 C 1179.11 1661.4 1184.94 1654.9 1189.89 1648.17 C 1202.48 1631.01 1215.2 1613.95 1228.06 1597 C 1253.3 1563.74 1277.31 1529.54 1302.58 1496.33 C 1324.45 1467.58 1348.27 1439.32 1368.36 1409.33 C 1364.01 1359.88 1359.34 1310.53 1356.63 1260.95 L 1184.86 1486.1 L 1113.53 1580.35 C 1097.52 1601.52 1081.68 1623.5 1064.66 1643.83 C 1062.64 1646.23 1060.98 1648.1 1058.2 1649.61 C 1055.84 1648.78 1055.92 1648.26 1054.52 1646.31 C 1053.81 1641.54 1055.94 1638.55 1058.64 1634.88 C 1062.01 1630.29 1066.03 1626.18 1069.47 1621.63 L 1136.9 1533.07 C 1175.74 1480.76 1214.9 1428.69 1254.39 1376.86 C 1271.1 1355.17 1287.56 1333.09 1304.63 1311.69 C 1317.28 1295.82 1332.11 1279.82 1342.8 1262.58 L 1333.05 1256.32 C 1329.31 1246 1328.55 1237.72 1333.38 1227.42 C 1335.26 1223.41 1337.45 1219.6 1339.85 1215.88 C 1342.1 1212.79 1344.13 1209.61 1346.15 1206.36 L 1345.64 1204.73 L 1347 1203.65 C 1342.83 1206 1340.28 1210.67 1337.48 1214.45 z M 1569.7 735.863 C 1569.5 736.161 1569.3 736.455 1569.1 736.755 C 1563.91 744.578 1559.99 753.559 1555.84 761.974 C 1543.05 787.925 1530.94 815.378 1510.79 836.612 C 1475.6 873.69 1431.89 855.075 1403.2 911.344 C 1396.13 925.222 1393.31 939.521 1396.67 954.976 C 1397.96 960.936 1400.19 966.448 1402.92 971.892 C 1419.54 971.459 1437.67 969.748 1449.76 956.77 C 1457.56 948.394 1458.89 939.143 1459.65 928.266 C 1450.42 923.696 1439.75 916.952 1436.29 906.689 C 1434.6 901.691 1435.26 896.513 1437.69 891.875 C 1441.37 884.849 1448.31 880.237 1455.81 878.117 C 1467.65 874.769 1484.52 875.702 1495.23 882.174 C 1501.25 885.816 1505.25 891.575 1506.53 898.499 C 1507.75 905.025 1507.2 912.469 1503.12 917.935 C 1495.19 928.552 1479.88 928.148 1468.19 930.542 C 1465.73 941.032 1463.61 949.4 1469.72 959.256 C 1475.83 969.119 1487.65 974.905 1498.71 977.33 C 1517.4 981.427 1538.04 973.529 1553.49 963.249 C 1561.45 957.925 1568.66 951.54 1574.9 944.27 C 1577.37 941.372 1579.58 937.562 1582.44 935.112 C 1584.01 933.774 1584.21 933.657 1586.32 933.748 C 1587.32 935.742 1587.63 936.145 1586.97 938.413 C 1582.96 952.221 1555.29 971.178 1542.69 977.362 C 1526.35 985.381 1507.67 989.07 1490.07 982.812 C 1477.49 978.339 1466.29 968.031 1458.87 957.042 C 1448.21 971.002 1434.73 976.324 1417.83 978.555 C 1414.04 979.051 1410.23 979.438 1406.41 979.716 C 1410.93 991.914 1417.21 1002.39 1423.31 1013.79 C 1407.06 1052.41 1387 1089.94 1368.53 1127.58 C 1360.21 1144.53 1345.25 1170.63 1341.71 1188.41 C 1342.84 1190.73 1343.41 1191.61 1345.69 1192.86 C 1351.81 1193.77 1357.46 1189.63 1362.17 1186.15 C 1381.27 1172.03 1396.37 1150.06 1410.68 1131.3 C 1415.1 1125.5 1419.72 1117.89 1425.1 1113.09 C 1427.84 1113.59 1428.17 1114.02 1430.25 1115.92 C 1430.95 1118.89 1430.41 1120.18 1428.88 1122.83 C 1425.25 1129.12 1419.84 1134.96 1415.31 1140.64 C 1406.4 1151.97 1397.18 1163.05 1387.66 1173.87 C 1368.07 1195.7 1345.43 1214.86 1338.27 1244.67 C 1340.4 1248.04 1342.43 1251.56 1344.83 1254.74 C 1345.22 1254.5 1345.61 1254.25 1345.99 1254 C 1366.68 1240.37 1379.83 1209.63 1397.2 1197.52 C 1399.73 1198.87 1399.66 1198.73 1400.54 1201.45 C 1399.59 1208.71 1372.05 1241.77 1366.02 1249.46 C 1366.99 1258.26 1367.03 1267.14 1367.69 1275.96 C 1370.69 1316.49 1372.21 1359.5 1378.15 1399.58 C 1392.69 1384.55 1461.07 1294.97 1469.41 1292.11 L 1471.81 1292.52 C 1473.18 1294.64 1473.84 1296 1473.3 1298.6 C 1471.85 1305.51 1387.67 1406.22 1378.87 1415.92 C 1381.38 1429.55 1382.03 1443.69 1383.17 1457.51 C 1384.8 1476.58 1386.31 1495.66 1387.68 1514.75 C 1388.81 1529.09 1399.38 1636.36 1397.84 1640.73 C 1397.58 1641.46 1396.3 1643.14 1395.9 1643.59 C 1393.83 1645.93 1390.33 1647.26 1387.29 1647.07 C 1379.74 1646.61 1372.47 1643.39 1365 1642.28 C 1348.2 1639.78 1327.6 1643.33 1314.42 1654.31 C 1302.08 1664.6 1294.5 1681.11 1293.56 1697.06 C 1293.29 1701.64 1293.56 1706.06 1294 1710.61 C 1306.84 1713.42 1320.59 1713.49 1333.7 1714.45 L 1415.16 1719.63 C 1410.93 1704.99 1410.76 1689.67 1418.65 1676.06 C 1425.51 1664.21 1437.45 1657.53 1450.44 1654.41 C 1461.79 1651.69 1472.61 1651.92 1484.13 1653.19 C 1491.59 1595.1 1497.04 1536.6 1503.25 1478.36 L 1509.91 1413.69 C 1511.32 1399.89 1513.28 1386.09 1513.32 1372.2 C 1512.93 1372.08 1512.54 1371.96 1512.15 1371.84 C 1501.9 1368.52 1486.5 1356.02 1481.34 1346.35 C 1479.92 1343.69 1479.64 1341.87 1480.29 1338.88 L 1481.71 1337.6 C 1493.67 1338.66 1501.73 1362.77 1514.81 1360.59 C 1519.7 1356.27 1514.62 1350.01 1522.38 1348.73 C 1523.52 1349.2 1525.14 1349.44 1525.69 1350.64 C 1527.24 1354.02 1497.17 1654.63 1492.97 1663.29 C 1492.68 1663.9 1492.25 1664.43 1491.9 1665 C 1484.81 1665.4 1477.69 1662.94 1470.66 1662.08 C 1457.56 1660.48 1440.93 1665.12 1431.88 1674.82 C 1424.95 1682.25 1422.55 1692 1423.07 1701.97 C 1423.41 1708.37 1424.48 1714.67 1425.79 1720.93 C 1456.79 1722.29 1488.61 1723.98 1519.42 1727.78 C 1523.37 1706.78 1525.9 1685.57 1529.34 1664.49 L 1549.95 1539.29 L 1594.69 1267 L 1614.56 1145.69 C 1618.62 1120.79 1621.99 1095.88 1627.03 1071.14 C 1611.74 1058.06 1604.64 1043.78 1603.08 1023.73 C 1601.2 999.578 1609.23 974.934 1619.21 953.257 C 1623 945.024 1627.8 936.812 1629.89 927.962 C 1630 927.533 1630.11 927.108 1630.21 926.679 C 1630.27 926.422 1630.32 926.162 1630.38 925.904 C 1630.19 925.565 1630.02 925.224 1629.83 924.887 C 1624.93 916.044 1618.07 907.985 1612.04 899.882 C 1596.59 879.14 1577.49 853.651 1571.1 828.225 C 1565.79 807.101 1567.82 781.955 1569.33 760.267 C 1569.79 753.671 1571.4 745.391 1570.77 738.903 C 1570.65 737.677 1570.44 736.816 1569.7 735.863 z M 1482.6 783.928 C 1478.08 786.938 1476.23 789.158 1475.17 794.567 C 1474.39 798.524 1474.74 803.093 1477.47 806.29 C 1479.22 808.336 1481.63 809.079 1484.23 809.006 C 1489.29 805.911 1492.06 802.951 1493.32 796.995 C 1494.01 793.753 1493.33 790.026 1491.18 787.428 C 1489 784.79 1485.75 784.375 1482.6 783.928 z M 1623.83 785.997 C 1619.88 787.6 1617.31 789.273 1615.54 793.298 C 1613.88 797.085 1613.99 801.112 1615.48 804.938 C 1616.85 808.444 1619.31 811.299 1622.74 812.873 C 1623.18 813.072 1623.63 813.219 1624.08 813.391 C 1628.81 811.461 1631.26 809.181 1633.13 804.346 C 1634.61 800.543 1634.77 796.481 1633.14 792.694 C 1631.96 789.956 1630.13 787.781 1627.2 786.842 C 1626.1 786.488 1624.96 786.24 1623.83 785.997 z"/>
<path transform="translate(0,0)" fill="rgb(254,254,254)" d="M 1398.17 1045.17 C 1382.99 1077.21 1365.75 1108.19 1350.9 1140.37 C 1345.06 1153.02 1338.54 1166.22 1334.85 1179.67 C 1333.13 1185.93 1332.5 1192.82 1332.88 1199.3 C 1333.28 1206.05 1332.45 1209.67 1337.48 1214.45 L 1339.85 1215.88 C 1337.45 1219.6 1335.26 1223.41 1333.38 1227.42 C 1328.55 1237.72 1329.31 1246 1333.05 1256.32 L 1342.8 1262.58 C 1332.11 1279.82 1317.28 1295.82 1304.63 1311.69 C 1287.56 1333.09 1271.1 1355.17 1254.39 1376.86 C 1214.9 1428.69 1175.74 1480.76 1136.9 1533.07 L 1069.47 1621.63 C 1066.03 1626.18 1062.01 1630.29 1058.64 1634.88 C 1055.94 1638.55 1053.81 1641.54 1054.52 1646.31 C 1055.92 1648.26 1055.84 1648.78 1058.2 1649.61 C 1060.98 1648.1 1062.64 1646.23 1064.66 1643.83 C 1081.68 1623.5 1097.52 1601.52 1113.53 1580.35 L 1184.86 1486.1 L 1356.63 1260.95 C 1359.34 1310.53 1364.01 1359.88 1368.36 1409.33 C 1348.27 1439.32 1324.45 1467.58 1302.58 1496.33 C 1277.31 1529.54 1253.3 1563.74 1228.06 1597 C 1215.2 1613.95 1202.48 1631.01 1189.89 1648.17 C 1184.94 1654.9 1179.11 1661.4 1174.72 1668.48 C 1173.51 1670.43 1172.61 1672.33 1172.79 1674.7 C 1172.97 1677.02 1172.87 1677.09 1174.76 1678.59 C 1179.31 1677.94 1182.42 1674.52 1185.34 1671.21 C 1198.13 1656.68 1208.79 1639.53 1220.61 1624.13 C 1247.51 1589.02 1273.96 1553.56 1299.94 1517.76 C 1322.58 1486.78 1344.92 1455.46 1369.54 1426.01 C 1373.8 1447.93 1373.59 1471.63 1375.41 1493.92 L 1387.46 1637.4 C 1373.2 1633.77 1356.91 1631.04 1342.17 1632.69 C 1324.76 1634.64 1308.45 1643.16 1297.66 1657.09 C 1286.26 1671.82 1281.7 1691.91 1284.02 1710.16 C 1246.9 1710.42 1209.09 1706.52 1172.02 1704.07 C 1115.33 1700.34 1058.44 1696.93 1001.85 1691.82 C 1005.2 1648.1 1010.82 1604.4 1015.83 1560.85 L 1029 1438.14 L 1076.35 981.974 L 1117.76 566.749 C 1126.55 472.386 1133.4 377.716 1144.26 283.557 C 1158.47 279.293 1174.98 279.392 1189.77 278.324 C 1209.13 276.959 1228.49 275.443 1247.83 273.775 C 1325.1 266.839 1402.46 260.927 1479.89 256.041 C 1573.6 249.366 1668.36 242.253 1762.24 249.148 C 1749.55 309.028 1741.04 369.61 1730.67 429.906 C 1720.43 487.403 1710.86 545.017 1701.96 602.736 C 1697.68 629.13 1692.7 655.427 1688.97 681.904 C 1674.02 672.726 1654.25 669 1637.12 666.599 C 1594.02 660.562 1548.25 664.362 1508.8 683.87 C 1495.47 690.465 1483.54 699.792 1469.95 705.86 C 1457.85 711.259 1444.89 710.142 1433.91 718.884 C 1408.13 739.417 1414.06 778.936 1409.44 808 C 1406.23 828.011 1399.5 847.295 1389.56 864.954 C 1370.95 898.695 1330.77 940.002 1327.57 978.242 C 1326.27 993.772 1330.85 1010.67 1341.32 1022.37 C 1355.62 1038.35 1377.53 1044.1 1398.17 1045.17 z M 1352.78 284.602 C 1340.94 299.79 1331.39 318.553 1320.82 334.802 C 1288.79 384.064 1257.76 433.859 1226.52 483.612 C 1209.86 510.14 1192.34 536.079 1176.24 562.964 C 1172.2 569.702 1166.19 577.691 1163.97 585.104 C 1164.57 587.544 1165.13 588.87 1167.4 590.212 C 1168.97 591.133 1170.86 591.736 1172.56 592.367 C 1180.98 582.661 1188.54 567.621 1195.55 556.587 C 1215.03 526.427 1234.11 496.005 1252.77 465.331 C 1286.57 410.485 1322.94 357.175 1356.35 302.141 C 1358.93 297.9 1361.1 295.124 1360.96 290.069 C 1359.3 286.983 1357.24 285.817 1353.99 284.886 C 1353.59 284.773 1353.18 284.697 1352.78 284.602 z M 1282.27 291.531 C 1254.14 335.463 1224.87 378.612 1196.45 422.338 C 1186.7 437.33 1175.01 453.11 1166.16 468.439 C 1165.39 469.776 1165.22 470.896 1165.21 472.415 C 1166.71 473.83 1166.46 473.854 1168.7 474.33 C 1174.15 468.193 1178.75 461.382 1183.32 454.584 C 1195.91 435.859 1207.65 416.574 1219.98 397.679 C 1240.88 365.637 1262.29 333.628 1282.58 301.23 C 1283.84 299.225 1285.37 296.886 1285.48 294.452 C 1285.54 293.325 1285.46 293.51 1284.59 292.801 C 1283.35 291.785 1283.87 292.131 1282.27 291.531 z M 1528.01 328.385 C 1456.25 426.239 1385.25 524.653 1315.02 623.617 L 1216.94 759.265 C 1204.14 777.098 1190.34 794.629 1178.17 812.86 C 1176.17 815.843 1174.21 818.691 1174.16 822.385 C 1175.41 824.149 1175.73 824.424 1178.05 824.616 C 1178.31 824.638 1178.57 824.559 1178.83 824.531 L 1466.45 424.187 C 1486.37 396.258 1508.32 369.464 1527.78 341.274 C 1529.91 338.188 1531.79 335.265 1532.46 331.524 L 1531.42 329.422 L 1528.01 328.385 z M 1441.59 339.439 C 1380.66 422.845 1323.23 509.05 1264.78 594.209 C 1235.09 637.471 1205 680.409 1175.9 724.065 C 1168.44 735.253 1160.03 746.071 1152.94 757.443 C 1151.13 760.333 1149.55 763.044 1149.11 766.472 L 1150.23 768.596 L 1153.45 769.56 C 1162.1 758.331 1169.49 745.948 1177.28 734.106 C 1188.16 717.618 1199.24 701.264 1210.52 685.047 C 1267.97 600.223 1326.13 515.889 1385 432.053 C 1393.54 420.094 1444.82 348.966 1445.45 341.658 C 1443.99 339.832 1443.91 339.914 1441.59 339.439 z M 1619.67 348.623 C 1602.89 368.731 1588.21 390.541 1572.62 411.573 L 1479.15 538.605 L 1233.97 869.002 C 1224.54 881.496 1173.89 944.339 1171.35 953.603 C 1171.85 956.421 1171.9 956.488 1174.02 958.412 C 1175.51 958.686 1177 959.036 1178.51 959.152 C 1191.57 946.804 1202.02 929.428 1212.78 914.924 L 1268.62 840.605 L 1515.1 506.775 L 1604.02 386.478 C 1609.78 378.536 1616.35 371.114 1621.91 363.048 C 1623.9 360.171 1625.51 357.346 1626.26 353.923 C 1625.76 351.61 1625.74 350.715 1623.47 349.468 C 1622.57 348.975 1620.61 348.786 1619.67 348.623 z M 1279.36 1157.6 C 1270.74 1166.65 1263.57 1177.51 1256.18 1187.59 L 1220.72 1236.16 L 1162.83 1316.51 C 1152.9 1330.25 1142.06 1343.82 1132.74 1357.96 C 1130.89 1360.78 1129.73 1363.15 1129.43 1366.52 C 1130.74 1369.12 1131.05 1368.99 1133.78 1370.15 C 1148.54 1353.77 1160.29 1333.45 1173.18 1315.47 L 1250.66 1209.39 C 1256.22 1201.87 1283.24 1168.16 1284.82 1161.53 C 1283.86 1159.3 1283.42 1158.55 1280.88 1157.78 C 1280.39 1157.64 1279.86 1157.66 1279.36 1157.6 z M 1306.07 1215.39 C 1287.56 1240.59 1267.72 1264.72 1248.43 1289.31 L 1134.23 1435.61 C 1123.91 1449.03 1097.23 1478.71 1091.23 1492.52 C 1091.79 1494.97 1092.24 1495.21 1094.5 1496.6 C 1095.23 1497.04 1096.19 1497.46 1096.99 1497.82 C 1140.73 1440.86 1184.95 1384.27 1229.65 1328.06 C 1246.11 1307.27 1262.05 1286.11 1278.38 1265.22 C 1287.72 1253.28 1298.11 1241.64 1306.76 1229.22 C 1308.9 1226.15 1310.34 1223.35 1311.07 1219.7 L 1310.34 1217.37 C 1308.92 1216.64 1307.58 1215.92 1306.07 1215.39 z M 1056.97 1482.86 C 1053.46 1487.23 1050.47 1491.22 1050.11 1496.97 C 1051.07 1499.37 1051.45 1500.48 1053.95 1501.69 C 1054.6 1502.01 1055.29 1502.01 1055.98 1502.07 C 1059.58 1497.59 1063.53 1492.67 1064.1 1486.77 C 1063.69 1485.56 1063.58 1484.03 1062.38 1483.39 C 1060.68 1482.49 1058.84 1482.8 1056.97 1482.86 z"/>
<path transform="translate(0,0)" fill="rgb(0,0,0)" d="M 1172.56 592.367 C 1170.86 591.736 1168.97 591.133 1167.4 590.212 C 1165.13 588.87 1164.57 587.544 1163.97 585.104 C 1166.19 577.691 1172.2 569.702 1176.24 562.964 C 1192.34 536.079 1209.86 510.14 1226.52 483.612 C 1257.76 433.859 1288.79 384.064 1320.82 334.802 C 1331.39 318.553 1340.94 299.79 1352.78 284.602 C 1353.18 284.697 1353.59 284.773 1353.99 284.886 C 1357.24 285.817 1359.3 286.983 1360.96 290.069 C 1361.1 295.124 1358.93 297.9 1356.35 302.141 C 1322.94 357.175 1286.57 410.485 1252.77 465.331 C 1234.11 496.005 1215.03 526.427 1195.55 556.587 C 1188.54 567.621 1180.98 582.661 1172.56 592.367 z"/>
<path transform="translate(0,0)" fill="rgb(0,0,0)" d="M 1168.7 474.33 C 1166.46 473.854 1166.71 473.83 1165.21 472.415 C 1165.22 470.896 1165.39 469.776 1166.16 468.439 C 1175.01 453.11 1186.7 437.33 1196.45 422.338 C 1224.87 378.612 1254.14 335.463 1282.27 291.531 C 1283.87 292.131 1283.35 291.785 1284.59 292.801 C 1285.46 293.51 1285.54 293.325 1285.48 294.452 C 1285.37 296.886 1283.84 299.225 1282.58 301.23 C 1262.29 333.628 1240.88 365.637 1219.98 397.679 C 1207.65 416.574 1195.91 435.859 1183.32 454.584 C 1178.75 461.382 1174.15 468.193 1168.7 474.33 z"/>
<path transform="translate(0,0)" fill="rgb(0,0,0)" d="M 1178.83 824.531 C 1178.57 824.559 1178.31 824.638 1178.05 824.616 C 1175.73 824.424 1175.41 824.149 1174.16 822.385 C 1174.21 818.691 1176.17 815.843 1178.17 812.86 C 1190.34 794.629 1204.14 777.098 1216.94 759.265 L 1315.02 623.617 C 1385.25 524.653 1456.25 426.239 1528.01 328.385 L 1531.42 329.422 L 1532.46 331.524 C 1531.79 335.265 1529.91 338.188 1527.78 341.274 C 1508.32 369.464 1486.37 396.258 1466.45 424.187 L 1178.83 824.531 z"/>
<path transform="translate(0,0)" fill="rgb(0,0,0)" d="M 1153.45 769.56 L 1150.23 768.596 L 1149.11 766.472 C 1149.55 763.044 1151.13 760.333 1152.94 757.443 C 1160.03 746.071 1168.44 735.253 1175.9 724.065 C 1205 680.409 1235.09 637.471 1264.78 594.209 C 1323.23 509.05 1380.66 422.845 1441.59 339.439 C 1443.91 339.914 1443.99 339.832 1445.45 341.658 C 1444.82 348.966 1393.54 420.094 1385 432.053 C 1326.13 515.889 1267.97 600.223 1210.52 685.047 C 1199.24 701.264 1188.16 717.618 1177.28 734.106 C 1169.49 745.948 1162.1 758.331 1153.45 769.56 z"/>
<path transform="translate(0,0)" fill="rgb(0,0,0)" d="M 1178.51 959.152 C 1177 959.036 1175.51 958.686 1174.02 958.412 C 1171.9 956.488 1171.85 956.421 1171.35 953.603 C 1173.89 944.339 1224.54 881.496 1233.97 869.002 L 1479.15 538.605 L 1572.62 411.573 C 1588.21 390.541 1602.89 368.731 1619.67 348.623 C 1620.61 348.786 1622.57 348.975 1623.47 349.468 C 1625.74 350.715 1625.76 351.61 1626.26 353.923 C 1625.51 357.346 1623.9 360.171 1621.91 363.048 C 1616.35 371.114 1609.78 378.536 1604.02 386.478 L 1515.1 506.775 L 1268.62 840.605 L 1212.78 914.924 C 1202.02 929.428 1191.57 946.804 1178.51 959.152 z"/>
<path transform="translate(0,0)" fill="rgb(0,0,0)" d="M 882.137 651.21 C 879.467 652.128 877.347 652.79 874.55 652.158 C 871.807 651.538 870.365 649.176 869.73 646.594 C 868.545 641.77 869.238 636.127 868.747 631.155 C 867.222 615.715 862.775 596.871 854.11 583.813 C 842.176 565.829 824.057 566.462 804.956 567.156 C 801.935 567.266 797.287 567.816 794.437 566.774 C 791.77 565.799 791.547 564.761 790.361 562.395 C 792.134 546.922 833.987 551.416 849.666 538.3 C 874.171 517.801 865.064 477.929 875.273 463.73 C 876.213 463.751 877.153 463.751 878.09 463.82 C 880.378 463.99 881.881 464.669 883.17 466.577 C 889.425 475.838 889.49 497.074 893.464 508.487 C 895.737 515.015 899.534 521.627 903.521 527.265 C 922.836 554.579 958.259 541.493 969.508 554.4 C 970.058 557.185 970.071 557.473 968.984 560.087 C 960.488 567.848 934.097 566.537 921.744 570.603 C 901.365 577.311 891.375 598.677 888.392 618.533 C 886.807 629.082 887.003 641.653 882.137 651.21 z M 880.321 505.721 C 874.372 524.4 870.156 541.572 851.076 551.668 C 847.077 553.785 842.924 555.606 838.838 557.547 C 861.107 568.421 866.972 578.423 874.779 601.016 C 875.549 603.245 876.028 604.881 877.549 606.777 C 878.368 604.28 879.257 601.801 879.802 599.227 C 885.985 583.319 898.22 566.395 914.425 559.603 C 918.222 558.012 922.157 556.896 926.146 555.909 C 909.866 551.735 898.011 545.395 889.25 530.332 C 885.019 523.057 881.817 513.974 880.321 505.721 z"/>
<path transform="translate(0,0)" fill="rgb(254,254,254)" d="M 838.838 557.547 C 842.924 555.606 847.077 553.785 851.076 551.668 C 870.156 541.572 874.372 524.4 880.321 505.721 C 881.817 513.974 885.019 523.057 889.25 530.332 C 898.011 545.395 909.866 551.735 926.146 555.909 C 922.157 556.896 918.222 558.012 914.425 559.603 C 898.22 566.395 885.985 583.319 879.802 599.227 C 879.257 601.801 878.368 604.28 877.549 606.777 C 876.028 604.881 875.549 603.245 874.779 601.016 C 866.972 578.423 861.107 568.421 838.838 557.547 z"/>
<path transform="translate(0,0)" fill="rgb(0,0,0)" d="M 404.754 786.302 C 401.313 784.416 397.111 782.744 395.556 778.931 C 397.919 758.796 425.491 748.911 437.9 736.31 C 446.645 727.43 453.007 716.225 461.547 707.041 C 490.786 675.594 533.969 666.028 575.217 664.453 C 599.999 663.674 625.728 666.041 649.853 671.594 C 711.216 685.719 749.485 718.456 770.507 778.29 C 774.177 788.736 775.367 809.813 783.963 817.045 C 793.97 825.463 848.754 827.576 871.998 843.703 C 881.898 850.571 888.176 861.148 890.223 872.964 C 895.138 901.332 882.623 932.089 866.24 954.605 C 836.99 994.807 796.28 1013.78 748.109 1021.49 C 761.089 1065.42 776.77 1108.66 791.707 1151.95 C 802.625 1183.6 813.758 1214.81 820.538 1247.69 C 822.6 1257.69 827.574 1279.85 820.105 1288.45 C 819.146 1289.56 817.878 1290.4 816.415 1290.53 C 811.475 1290.95 808.725 1288.45 805.284 1285.28 C 807.931 1301.01 813.967 1338.46 806.44 1352.52 C 804.796 1355.6 802.419 1357.87 799.015 1358.82 C 791.881 1360.79 785.458 1356.41 779.696 1352.83 C 778.38 1395.89 771.004 1438.9 765.237 1481.55 L 739.379 1667.46 C 735.949 1691.24 731.644 1714.91 728.561 1738.73 C 741.826 1741.29 755.312 1744.01 766.969 1751.22 C 778.429 1758.3 788.872 1770.44 791.891 1783.83 C 793.269 1789.94 792.686 1795.86 789.123 1801.13 C 772.032 1826.41 696.227 1821.08 667.194 1827.17 L 665.842 1827.46 C 662.612 1831.86 660.326 1836.28 657.986 1841.18 C 622.816 1855.57 582 1854.45 544.49 1856.03 C 534.068 1856.47 523.21 1856.37 512.893 1857.94 C 503.189 1859.41 495.213 1864.58 485.949 1867.38 C 467.275 1873.02 447.068 1875.09 427.758 1877.34 C 396.11 1880.72 363.302 1880.65 331.504 1880.52 C 272.333 1880.29 214.214 1877.75 155.502 1869.65 C 139.505 1867.45 116.18 1866.18 102.57 1856.85 C 100.346 1855.32 98.0512 1853.19 97.5562 1850.44 C 98.108 1849.51 98.3413 1849.04 98.9557 1848.23 C 106.903 1837.79 142.286 1835.17 155.228 1833.56 C 154.992 1832.89 154.766 1832.22 154.551 1831.54 C 150.433 1818.5 151.361 1805.61 157.918 1793.53 C 165.875 1778.86 177.887 1773.7 192.943 1769.02 C 181.387 1748.52 168.845 1733.18 158.104 1710.49 C 129.218 1649.48 119.271 1584.01 139.022 1518.65 C 142.918 1505.76 147.382 1492.54 153.729 1480.65 C 167.968 1453.96 189.49 1429.42 212.389 1409.84 C 223.951 1400.04 236.044 1390.9 248.614 1382.44 C 258.719 1375.64 269.529 1369.4 278.834 1361.54 C 290.635 1351.56 301.015 1339.13 309.961 1326.58 C 361.572 1254.19 384.169 1162.3 413.695 1079.63 C 407.214 1072.98 401.495 1065.91 396.488 1058.07 C 365.383 1009.39 374.595 951.592 388.605 898.671 C 393.089 881.732 398.728 865.146 402.526 848.022 C 400.408 847.152 398.266 846.293 396.216 845.272 C 393.847 844.091 392.195 842.465 391.52 839.811 C 389.802 833.063 397.097 823.173 400.374 817.361 C 397.853 816.492 394.867 815.619 392.578 814.229 C 390.442 812.932 388.992 810.528 388.872 808.029 C 388.521 800.726 399.988 791.267 404.754 786.302 z M 683.635 755.81 C 684.745 760.891 686.276 764.183 690.365 767.495 L 693.241 767.977 C 693.278 764.399 692.733 761.822 690.13 759.18 C 688.158 757.179 686.294 756.512 683.635 755.81 z M 734.355 766.96 C 728.887 771.767 727.081 779.035 726.603 786.151 C 726.221 791.848 727.2 798.898 731.15 803.315 C 734.024 806.53 737.431 807.081 741.58 807.355 C 746.117 803.367 748.583 799.624 749.089 793.486 C 749.767 785.253 747.362 776.843 741.667 770.72 C 739.582 768.479 737.234 767.74 734.355 766.96 z M 697.769 788.295 C 698.477 793.71 698.42 798.177 703.019 801.875 L 706.604 802.629 C 705.812 797.081 705.47 793.133 701.372 789.106 L 697.769 788.295 z M 767.084 819.693 C 758.821 839.357 751.84 855.67 736.039 870.541 C 748.495 916.119 754.083 961.964 738.723 1007.67 C 783.06 1003.72 811.539 987.852 845.422 960.147 C 826.998 960.199 811.826 959.147 796.022 948.573 C 787.074 941.475 772.405 929.726 771.009 917.526 C 770.711 914.922 771.082 913.22 772.539 911.013 C 774.913 910.206 776.078 909.981 778.441 911.076 C 782.627 913.016 786.698 919.026 789.78 922.536 C 812.562 948.477 822.333 943.139 852.509 947.8 C 864.149 931.19 871.875 915.112 875.634 895.061 C 861.807 895.062 849.377 890.123 839.4 880.325 C 833.059 874.098 828.682 866.521 828.826 857.443 C 828.9 852.742 832.697 848.243 834.812 844.091 C 830.948 842.14 825.438 841.814 821.165 841.008 C 802.224 837.432 780.98 834.201 767.084 819.693 z M 705.358 828.857 C 706.715 834.792 707.513 844.46 712.89 847.967 L 716.275 848.206 C 715.386 842.098 715.318 835.364 712.016 830.053 C 709.305 828.587 708.367 828.782 705.358 828.857 z M 719.112 886.273 C 718.736 892.835 719.111 898.659 721.459 904.848 C 722.622 905.915 723.274 906.448 724.737 907.126 C 725.471 900.815 726.009 894.434 724.137 888.29 C 722.266 886.512 721.711 886.65 719.112 886.273 z M 721.909 926.16 C 720.817 931.582 718.809 944.512 721.907 949.252 C 722.689 950.448 724.467 950.296 725.774 950.532 C 726.479 944.419 728.917 933.294 725.254 927.99 C 724.387 926.733 723.268 926.657 721.909 926.16 z M 716.31 975.312 C 713.448 981.347 705.428 996.143 706.834 1002.49 L 709.337 1005.11 C 713.441 997.303 720.067 986.599 718.985 977.526 C 718.017 976.215 717.876 975.991 716.31 975.312 z M 687.965 1023.59 C 683.781 1027.57 674.706 1034.26 674.196 1039.92 C 674.908 1040.41 675.701 1041.08 676.499 1041.4 C 680.988 1037.57 689.263 1032.1 690.223 1025.99 C 689.402 1024.54 689.564 1024.3 687.965 1023.59 z M 585.764 1038.13 C 584.897 1041.16 584.59 1041.15 586.038 1043.9 C 589.785 1046.79 595.448 1047.84 600.085 1048.4 C 599.985 1046.71 600.398 1044.88 599.115 1043.63 C 595.997 1040.6 589.785 1039.81 585.764 1038.13 z M 639.048 1045.47 C 634.108 1045.46 627.887 1044.71 623.268 1046.52 L 622.374 1047.8 C 623.09 1050.06 623.026 1050.29 624.954 1051.63 L 627.248 1051.58 C 632.719 1051.48 637.528 1051.55 642.647 1049.29 L 643.955 1047.89 L 643.592 1045.93 C 641.91 1045.4 640.79 1045.44 639.048 1045.47 z M 522.581 1063.85 C 518.097 1067.03 512.073 1069.65 508.529 1073.79 L 508.571 1075.56 C 509.586 1076.21 510.477 1076.92 511.645 1077.24 C 516.637 1074.54 523.94 1071.73 525.97 1066.15 C 524.818 1064.08 524.705 1064.51 522.581 1063.85 z M 438.853 1079.08 C 440.409 1082.28 441.406 1084.34 445.042 1085.58 C 447.832 1086.53 450.636 1086.67 453.555 1086.67 C 452.902 1083.54 453.099 1082.16 449.907 1080.47 C 446.918 1078.89 442.138 1079.21 438.853 1079.08 z M 476.537 1082.57 C 474.614 1083.19 473.592 1083.13 472.297 1084.74 L 473.11 1086.93 C 477.434 1088.71 479.503 1088.32 484.093 1087.49 C 486.393 1086.41 487.592 1086.13 489.089 1084.03 C 487.451 1082.23 485.98 1081.82 483.558 1081.81 C 481.248 1081.81 478.825 1082.25 476.537 1082.57 z M 786.345 1185.7 C 780.604 1199.61 760.287 1238.1 746.315 1243.98 C 744.46 1244.76 743.46 1244.84 741.52 1244.6 C 736.886 1242.11 735.809 1235.87 734.412 1231.22 C 733.916 1229.57 733.443 1227.91 732.933 1226.27 C 724.754 1248.03 693.887 1329.23 674.084 1337.21 C 671.808 1338.12 669.85 1338.47 667.565 1337.42 C 663.641 1335.6 661.606 1324.74 660.093 1320.74 C 656.406 1332.2 652.334 1343.44 647.209 1354.35 C 639.98 1369.75 615.5 1414.55 600.295 1421.35 C 597.994 1422.38 596.389 1422.72 593.947 1422.19 C 591.948 1419.97 590.322 1417.83 588.681 1415.33 C 584.043 1430.64 581.073 1447.08 575.865 1462.06 C 568.014 1484.64 543.368 1500.01 526.131 1515.05 C 539.19 1525.18 549.981 1537.71 561.098 1549.86 C 564.618 1531.94 582.903 1461.01 594.549 1451.23 C 597.487 1451.06 598.17 1451.44 600.861 1452.73 C 602.356 1454.81 602.973 1455.16 602.581 1457.82 C 601.506 1465.1 597.384 1473.15 594.906 1480.14 C 590.518 1492.82 586.362 1505.58 582.437 1518.41 C 578.007 1533.34 576.319 1548.9 570.971 1563.58 L 578.133 1573.91 L 579.259 1572.99 C 579.232 1572.36 579.185 1571.74 579.179 1571.12 C 579.113 1563.6 592.211 1521.7 597.035 1516.95 C 598.098 1515.9 599.439 1515.14 600.984 1515.02 C 603.588 1514.83 604.59 1515.76 606.345 1517.34 C 606.997 1519.02 607.079 1519.98 606.737 1521.75 C 604.69 1532.39 600.408 1542.77 597.897 1553.35 C 594.485 1567.73 593.578 1583.1 588.626 1596.99 C 588.433 1597.54 588.258 1598.08 588.069 1598.63 L 587.72 1599.6 C 590.716 1605.87 593.066 1612.42 595.53 1618.91 C 596.657 1609.51 596.762 1592.93 604.236 1586.6 C 606.33 1586.06 607.602 1585.6 609.638 1586.85 C 611.929 1588.26 612.467 1589.79 612.554 1592.37 C 612.908 1602.74 607.471 1631.82 600.415 1638.81 C 600.002 1639.22 599.607 1639.65 599.203 1640.07 C 602.292 1661.97 603.321 1682.52 600.669 1704.6 C 597.972 1720.55 592.948 1737.87 592.422 1753.9 C 594.887 1757.08 598.531 1757.95 602.372 1758.42 C 607.011 1758.98 611.788 1758.98 616.458 1759.09 C 614.865 1740.23 607.086 1673.5 617.666 1661.87 C 618.802 1660.62 620.101 1660 621.599 1659.28 C 623.959 1659.32 623.675 1659.62 625.317 1661.11 C 629.363 1671.01 626.86 1688.03 627.262 1698.96 C 628.028 1719.71 627.99 1742.49 631.261 1762.87 C 647.524 1770.23 658.913 1777.16 665.426 1794.74 C 666.409 1797.4 667.186 1800.07 667.806 1802.83 C 682.402 1804.59 723.381 1807.45 736.179 1805.09 C 741.76 1799.16 736.953 1786.51 744.032 1782.2 C 747.266 1782.95 750.386 1785.88 751.826 1788.87 C 753.886 1793.15 753.135 1799.53 752.989 1804.2 C 759.104 1802.3 772.95 1799.08 775.799 1792.61 C 777.499 1788.74 775.132 1783.02 773.393 1779.51 C 767.925 1768.47 756.008 1761.07 744.517 1757.53 C 736.554 1755.07 718.813 1755.16 713.808 1749.65 C 712.137 1732.22 723.63 1672.56 726.612 1651.74 L 755.903 1441.76 C 759.36 1416.89 762.957 1391.3 764.218 1366.22 C 764.726 1356.12 761.858 1338.72 765.896 1329.88 C 767.975 1328.25 768.368 1327.86 771.173 1328.25 C 778.059 1329.19 789.273 1344.13 793.59 1343.21 C 797.523 1328.35 793.527 1303.86 790.424 1288.85 C 788.998 1281.95 786.672 1275.07 785.906 1268.06 C 785.549 1264.8 785.426 1261.14 787.267 1258.3 C 789.458 1257.43 789.709 1257.22 791.98 1258.24 C 797.044 1260.52 803.604 1269.6 809.471 1273.6 C 807.042 1256.07 795.852 1197.57 786.345 1185.7 z M 561.405 1574.81 C 546.312 1608.81 520.843 1635.66 490.596 1656.96 C 483.794 1661.75 476.317 1667.28 468.433 1670.14 C 466.058 1671 464.292 1671.3 461.754 1670.9 C 459.59 1669.37 459.146 1668.97 458.457 1666.24 C 456.6 1658.88 463.88 1648.79 460.136 1642.08 C 452.822 1647.22 447.827 1657.92 442.511 1665.14 C 429.404 1682.95 379.568 1751.2 359.245 1750.51 C 356.796 1750.43 355.408 1749.26 354.199 1747.24 C 350.672 1741.32 354.003 1730.13 354.689 1723.68 C 337.97 1748.21 317.148 1773.68 290.615 1788.03 C 324.433 1800.84 359.183 1814.34 396.001 1808.65 C 405.419 1807.2 419.269 1797.93 427.23 1805.17 C 428.31 1807.94 428.288 1808.31 427.699 1811.24 C 422.002 1818.65 401.352 1822.85 392.103 1824.1 C 366.933 1827.49 340.797 1820.33 317.14 1812.35 C 281.62 1800.38 202.126 1757.41 172.859 1796.42 C 167.594 1803.44 165.659 1812.45 167.041 1821.07 C 168.336 1829.16 173.139 1835.34 179.744 1839.96 C 220.074 1868.16 334.254 1869.5 383.75 1865.17 C 410.718 1865.01 488.472 1859.55 507.459 1841 C 510.745 1837.79 512.708 1833.75 512.528 1829.1 C 512.355 1824.63 510.808 1818.2 506.973 1815.39 C 503.22 1812.64 499.201 1812.64 494.816 1813.62 C 483.878 1816.07 452.291 1833.48 443.329 1828.21 C 441.724 1827.27 440.74 1825.21 440.485 1823.41 C 440.154 1821.08 440.336 1820.46 441.349 1818.46 C 448.829 1814.87 456.909 1813.19 464.646 1810.29 C 478.291 1805.17 495.338 1794.14 510.278 1799.32 C 516.108 1801.34 520.56 1806.04 522.992 1811.64 C 525.599 1817.65 527.16 1823.86 527.474 1830.39 C 542.403 1831.15 608.374 1833.9 618.004 1828.02 C 620.609 1824.85 620.871 1822.18 620.493 1818.25 C 619.951 1812.62 617.433 1806.58 618.399 1800.98 C 619.979 1799.03 620.973 1798.44 623.597 1798.44 C 626.015 1798.45 628.329 1799.04 630.008 1800.9 C 636.563 1808.14 629.081 1828.36 633.743 1829.11 C 638.688 1829.91 645.767 1827.93 650.464 1826.49 C 653.431 1815.87 654.422 1804.17 648.993 1794.12 C 643.572 1784.07 632.341 1777.4 621.539 1774.67 C 592.755 1767.4 558.525 1773.5 528.76 1768.72 C 526.639 1766.32 524.439 1764.01 522.631 1761.37 L 523.922 1759.96 C 544.682 1737.09 554.852 1696.57 553.094 1666.21 C 552.65 1658.54 547.053 1639.56 550.377 1634.04 C 552.654 1632.78 553.777 1632.19 556.524 1632.65 C 559.066 1633.08 560.604 1634.9 561.819 1637 C 563.817 1640.46 564.376 1645.72 565.07 1649.64 C 569.754 1676.01 565.906 1702.89 557.153 1728.01 C 553.835 1737.54 549.522 1746.61 544.865 1755.54 L 573.31 1756.36 C 594.258 1698.06 592.098 1637.82 565.544 1581.8 C 564.341 1579.26 563.257 1576.96 561.405 1574.81 z M 260.846 1760.9 C 256.391 1763.47 251.125 1765.78 247.99 1769.95 L 248.005 1771.61 L 250.543 1773.31 C 253.689 1774.33 255.383 1775.35 258.648 1774.59 C 260.879 1771.07 261.083 1765.12 260.846 1760.9 z"/>
<path transform="translate(0,0)" fill="rgb(254,254,254)" d="M 1402.92 971.892 C 1400.19 966.448 1397.96 960.936 1396.67 954.976 C 1393.31 939.521 1396.13 925.222 1403.2 911.344 C 1431.89 855.075 1475.6 873.69 1510.79 836.612 C 1530.94 815.378 1543.05 787.925 1555.84 761.974 C 1559.99 753.559 1563.91 744.578 1569.1 736.755 C 1569.3 736.455 1569.5 736.161 1569.7 735.863 C 1570.44 736.816 1570.65 737.677 1570.77 738.903 C 1571.4 745.391 1569.79 753.671 1569.33 760.267 C 1567.82 781.955 1565.79 807.101 1571.1 828.225 C 1577.49 853.651 1596.59 879.14 1612.04 899.882 C 1618.07 907.985 1624.93 916.044 1629.83 924.887 C 1630.02 925.224 1630.19 925.565 1630.38 925.904 C 1630.32 926.162 1630.27 926.422 1630.21 926.679 C 1630.11 927.108 1630 927.533 1629.89 927.962 C 1627.8 936.812 1623 945.024 1619.21 953.257 C 1609.23 974.934 1601.2 999.578 1603.08 1023.73 C 1604.64 1043.78 1611.74 1058.06 1627.03 1071.14 C 1621.99 1095.88 1618.62 1120.79 1614.56 1145.69 L 1594.69 1267 L 1549.95 1539.29 L 1529.34 1664.49 C 1525.9 1685.57 1523.37 1706.78 1519.42 1727.78 C 1488.61 1723.98 1456.79 1722.29 1425.79 1720.93 C 1424.48 1714.67 1423.41 1708.37 1423.07 1701.97 C 1422.55 1692 1424.95 1682.25 1431.88 1674.82 C 1440.93 1665.12 1457.56 1660.48 1470.66 1662.08 C 1477.69 1662.94 1484.81 1665.4 1491.9 1665 C 1492.25 1664.43 1492.68 1663.9 1492.97 1663.29 C 1497.17 1654.63 1527.24 1354.02 1525.69 1350.64 C 1525.14 1349.44 1523.52 1349.2 1522.38 1348.73 C 1514.62 1350.01 1519.7 1356.27 1514.81 1360.59 C 1501.73 1362.77 1493.67 1338.66 1481.71 1337.6 L 1480.29 1338.88 C 1479.64 1341.87 1479.92 1343.69 1481.34 1346.35 C 1486.5 1356.02 1501.9 1368.52 1512.15 1371.84 C 1512.54 1371.96 1512.93 1372.08 1513.32 1372.2 C 1513.28 1386.09 1511.32 1399.89 1509.91 1413.69 L 1503.25 1478.36 C 1497.04 1536.6 1491.59 1595.1 1484.13 1653.19 C 1472.61 1651.92 1461.79 1651.69 1450.44 1654.41 C 1437.45 1657.53 1425.51 1664.21 1418.65 1676.06 C 1410.76 1689.67 1410.93 1704.99 1415.16 1719.63 L 1333.7 1714.45 C 1320.59 1713.49 1306.84 1713.42 1294 1710.61 C 1293.56 1706.06 1293.29 1701.64 1293.56 1697.06 C 1294.5 1681.11 1302.08 1664.6 1314.42 1654.31 C 1327.6 1643.33 1348.2 1639.78 1365 1642.28 C 1372.47 1643.39 1379.74 1646.61 1387.29 1647.07 C 1390.33 1647.26 1393.83 1645.93 1395.9 1643.59 C 1396.3 1643.14 1397.58 1641.46 1397.84 1640.73 C 1399.38 1636.36 1388.81 1529.09 1387.68 1514.75 C 1386.31 1495.66 1384.8 1476.58 1383.17 1457.51 C 1382.03 1443.69 1381.38 1429.55 1378.87 1415.92 C 1387.67 1406.22 1471.85 1305.51 1473.3 1298.6 C 1473.84 1296 1473.18 1294.64 1471.81 1292.52 L 1469.41 1292.11 C 1461.07 1294.97 1392.69 1384.55 1378.15 1399.58 C 1372.21 1359.5 1370.69 1316.49 1367.69 1275.96 C 1367.03 1267.14 1366.99 1258.26 1366.02 1249.46 C 1372.05 1241.77 1399.59 1208.71 1400.54 1201.45 C 1399.66 1198.73 1399.73 1198.87 1397.2 1197.52 C 1379.83 1209.63 1366.68 1240.37 1345.99 1254 C 1345.61 1254.25 1345.22 1254.5 1344.83 1254.74 C 1342.43 1251.56 1340.4 1248.04 1338.27 1244.67 C 1345.43 1214.86 1368.07 1195.7 1387.66 1173.87 C 1397.18 1163.05 1406.4 1151.97 1415.31 1140.64 C 1419.84 1134.96 1425.25 1129.12 1428.88 1122.83 C 1430.41 1120.18 1430.95 1118.89 1430.25 1115.92 C 1428.17 1114.02 1427.84 1113.59 1425.1 1113.09 C 1419.72 1117.89 1415.1 1125.5 1410.68 1131.3 C 1396.37 1150.06 1381.27 1172.03 1362.17 1186.15 C 1357.46 1189.63 1351.81 1193.77 1345.69 1192.86 C 1343.41 1191.61 1342.84 1190.73 1341.71 1188.41 C 1345.25 1170.63 1360.21 1144.53 1368.53 1127.58 C 1387 1089.94 1407.06 1052.41 1423.31 1013.79 C 1417.21 1002.39 1410.93 991.914 1406.41 979.716 C 1410.23 979.438 1414.04 979.051 1417.83 978.555 C 1434.73 976.324 1448.21 971.002 1458.87 957.042 C 1466.29 968.031 1477.49 978.339 1490.07 982.812 C 1507.67 989.07 1526.35 985.381 1542.69 977.362 C 1555.29 971.178 1582.96 952.221 1586.97 938.413 C 1587.63 936.145 1587.32 935.742 1586.32 933.748 C 1584.21 933.657 1584.01 933.774 1582.44 935.112 C 1579.58 937.562 1577.37 941.372 1574.9 944.27 C 1568.66 951.54 1561.45 957.925 1553.49 963.249 C 1538.04 973.529 1517.4 981.427 1498.71 977.33 C 1487.65 974.905 1475.83 969.119 1469.72 959.256 C 1463.61 949.4 1465.73 941.032 1468.19 930.542 C 1479.88 928.148 1495.19 928.552 1503.12 917.935 C 1507.2 912.469 1507.75 905.025 1506.53 898.499 C 1505.25 891.575 1501.25 885.816 1495.23 882.174 C 1484.52 875.702 1467.65 874.769 1455.81 878.117 C 1448.31 880.237 1441.37 884.849 1437.69 891.875 C 1435.26 896.513 1434.6 901.691 1436.29 906.689 C 1439.75 916.952 1450.42 923.696 1459.65 928.266 C 1458.89 939.143 1457.56 948.394 1449.76 956.77 C 1437.67 969.748 1419.54 971.459 1402.92 971.892 z M 1330.92 1673.38 C 1326.47 1679.21 1323.27 1688.43 1324.09 1695.83 C 1324.33 1697.97 1325.02 1700.44 1326.68 1701.93 C 1328.02 1703.13 1330.14 1703.58 1331.81 1704.08 C 1336.02 1697.3 1336.76 1684.67 1337.01 1676.77 C 1336.22 1675.23 1336.35 1674.55 1334.62 1673.97 C 1333.26 1673.51 1332.33 1673.4 1330.92 1673.38 z M 1458.05 1687.51 C 1455.24 1693.29 1451.55 1704.29 1454.03 1710.56 C 1454.8 1712.49 1455.72 1713.31 1457.27 1714.59 L 1461.23 1715.62 C 1464.43 1709.48 1467.29 1697.12 1464.79 1690.41 C 1464.29 1689.06 1463.46 1688.42 1462.1 1687.92 C 1461.08 1687.54 1459.06 1687.57 1458.05 1687.51 z"/>
<path transform="translate(0,0)" fill="rgb(254,254,254)" d="M 693.241 767.977 L 690.365 767.495 C 686.276 764.183 684.745 760.891 683.635 755.81 C 686.294 756.512 688.158 757.179 690.13 759.18 C 692.733 761.822 693.278 764.399 693.241 767.977 z"/>
<path transform="translate(0,0)" fill="rgb(254,254,254)" d="M 741.58 807.355 C 737.431 807.081 734.024 806.53 731.15 803.315 C 727.2 798.898 726.221 791.848 726.603 786.151 C 727.081 779.035 728.887 771.767 734.355 766.96 C 737.234 767.74 739.582 768.479 741.667 770.72 C 747.362 776.843 749.767 785.253 749.089 793.486 C 748.583 799.624 746.117 803.367 741.58 807.355 z"/>
<path transform="translate(0,0)" fill="rgb(254,254,254)" d="M 1484.23 809.006 C 1481.63 809.079 1479.22 808.336 1477.47 806.29 C 1474.74 803.093 1474.39 798.524 1475.17 794.567 C 1476.23 789.158 1478.08 786.938 1482.6 783.928 C 1485.75 784.375 1489 784.79 1491.18 787.428 C 1493.33 790.026 1494.01 793.753 1493.32 796.995 C 1492.06 802.951 1489.29 805.911 1484.23 809.006 z"/>
<path transform="translate(0,0)" fill="rgb(254,254,254)" d="M 1624.08 813.391 C 1623.63 813.219 1623.18 813.072 1622.74 812.873 C 1619.31 811.299 1616.85 808.444 1615.48 804.938 C 1613.99 801.112 1613.88 797.085 1615.54 793.298 C 1617.31 789.273 1619.88 787.6 1623.83 785.997 C 1624.96 786.24 1626.1 786.488 1627.2 786.842 C 1630.13 787.781 1631.96 789.956 1633.14 792.694 C 1634.77 796.481 1634.61 800.543 1633.13 804.346 C 1631.26 809.181 1628.81 811.461 1624.08 813.391 z"/>
<path transform="translate(0,0)" fill="rgb(254,254,254)" d="M 706.604 802.629 L 703.019 801.875 C 698.42 798.177 698.477 793.71 697.769 788.295 L 701.372 789.106 C 705.47 793.133 705.812 797.081 706.604 802.629 z"/>
<path transform="translate(0,0)" fill="rgb(254,254,254)" d="M 1822.83 1750.71 L 1791.82 1430.2 C 1787.61 1382.53 1783.12 1334.89 1778.36 1287.28 L 1757.83 1085.6 C 1754.9 1056.63 1748.1 1019.17 1748.91 990.965 C 1749.45 972.451 1753.85 953.36 1756.66 935.035 C 1763.12 892.904 1770.56 850.867 1776.62 808.685 C 1781.49 835.373 1780.96 864.249 1783.56 891.358 L 1802.56 1091.95 L 1832.83 1405.15 L 1852.49 1617.03 C 1856.49 1661.13 1859.48 1705.39 1864.5 1749.39 C 1854.39 1750.44 1843.92 1750.16 1833.75 1750.41 C 1830.09 1750.27 1826.48 1750.51 1822.83 1750.71 z"/>
<path transform="translate(0,0)" fill="rgb(254,254,254)" d="M 736.039 870.541 C 751.84 855.67 758.821 839.357 767.084 819.693 C 780.98 834.201 802.224 837.432 821.165 841.008 C 825.438 841.814 830.948 842.14 834.812 844.091 C 832.697 848.243 828.9 852.742 828.826 857.443 C 828.682 866.521 833.059 874.098 839.4 880.325 C 849.377 890.123 861.807 895.062 875.634 895.061 C 871.875 915.112 864.149 931.19 852.509 947.8 C 822.333 943.139 812.562 948.477 789.78 922.536 C 786.698 919.026 782.627 913.016 778.441 911.076 C 776.078 909.981 774.913 910.206 772.539 911.013 C 771.082 913.22 770.711 914.922 771.009 917.526 C 772.405 929.726 787.074 941.475 796.022 948.573 C 811.826 959.147 826.998 960.199 845.422 960.147 C 811.539 987.852 783.06 1003.72 738.723 1007.67 C 754.083 961.964 748.495 916.119 736.039 870.541 z"/>
<path transform="translate(0,0)" fill="rgb(254,254,254)" d="M 716.275 848.206 L 712.89 847.967 C 707.513 844.46 706.715 834.792 705.358 828.857 C 708.367 828.782 709.305 828.587 712.016 830.053 C 715.318 835.364 715.386 842.098 716.275 848.206 z"/>
<path transform="translate(0,0)" fill="rgb(254,254,254)" d="M 724.737 907.126 C 723.274 906.448 722.622 905.915 721.459 904.848 C 719.111 898.659 718.736 892.835 719.112 886.273 C 721.711 886.65 722.266 886.512 724.137 888.29 C 726.009 894.434 725.471 900.815 724.737 907.126 z"/>
<path transform="translate(0,0)" fill="rgb(254,254,254)" d="M 725.774 950.532 C 724.467 950.296 722.689 950.448 721.907 949.252 C 718.809 944.512 720.817 931.582 721.909 926.16 C 723.268 926.657 724.387 926.733 725.254 927.99 C 728.917 933.294 726.479 944.419 725.774 950.532 z"/>
<path transform="translate(0,0)" fill="rgb(254,254,254)" d="M 709.337 1005.11 L 706.834 1002.49 C 705.428 996.143 713.448 981.347 716.31 975.312 C 717.876 975.991 718.017 976.215 718.985 977.526 C 720.067 986.599 713.441 997.303 709.337 1005.11 z"/>
<path transform="translate(0,0)" fill="rgb(254,254,254)" d="M 676.499 1041.4 C 675.701 1041.08 674.908 1040.41 674.196 1039.92 C 674.706 1034.26 683.781 1027.57 687.965 1023.59 C 689.564 1024.3 689.402 1024.54 690.223 1025.99 C 689.263 1032.1 680.988 1037.57 676.499 1041.4 z"/>
<path transform="translate(0,0)" fill="rgb(254,254,254)" d="M 600.085 1048.4 C 595.448 1047.84 589.785 1046.79 586.038 1043.9 C 584.59 1041.15 584.897 1041.16 585.764 1038.13 C 589.785 1039.81 595.997 1040.6 599.115 1043.63 C 600.398 1044.88 599.985 1046.71 600.085 1048.4 z"/>
<path transform="translate(0,0)" fill="rgb(254,254,254)" d="M 627.248 1051.58 L 624.954 1051.63 C 623.026 1050.29 623.09 1050.06 622.374 1047.8 L 623.268 1046.52 C 627.887 1044.71 634.108 1045.46 639.048 1045.47 C 640.79 1045.44 641.91 1045.4 643.592 1045.93 L 643.955 1047.89 L 642.647 1049.29 C 637.528 1051.55 632.719 1051.48 627.248 1051.58 z"/>
<path transform="translate(0,0)" fill="rgb(254,254,254)" d="M 1621.48 1732.94 L 1696.97 1286.37 L 1724.14 1126.96 C 1728.66 1100.77 1731.87 1073.46 1738.19 1047.7 C 1739.71 1053.94 1739.49 1061.86 1740.12 1068.38 L 1745.61 1125.94 L 1765.16 1320.19 L 1793.19 1604.96 L 1801.2 1690.92 C 1802.59 1706.05 1804.6 1721.18 1805.34 1736.36 C 1771.43 1732.2 1726.12 1732.62 1691.63 1733.2 C 1668.24 1733.09 1644.87 1733.37 1621.48 1732.94 z"/>
<path transform="translate(0,0)" fill="rgb(254,254,254)" d="M 511.645 1077.24 C 510.477 1076.92 509.586 1076.21 508.571 1075.56 L 508.529 1073.79 C 512.073 1069.65 518.097 1067.03 522.581 1063.85 C 524.705 1064.51 524.818 1064.08 525.97 1066.15 C 523.94 1071.73 516.637 1074.54 511.645 1077.24 z"/>
<path transform="translate(0,0)" fill="rgb(254,254,254)" d="M 453.555 1086.67 C 450.636 1086.67 447.832 1086.53 445.042 1085.58 C 441.406 1084.34 440.409 1082.28 438.853 1079.08 C 442.138 1079.21 446.918 1078.89 449.907 1080.47 C 453.099 1082.16 452.902 1083.54 453.555 1086.67 z"/>
<path transform="translate(0,0)" fill="rgb(254,254,254)" d="M 484.093 1087.49 C 479.503 1088.32 477.434 1088.71 473.11 1086.93 L 472.297 1084.74 C 473.592 1083.13 474.614 1083.19 476.537 1082.57 C 478.825 1082.25 481.248 1081.81 483.558 1081.81 C 485.98 1081.82 487.451 1082.23 489.089 1084.03 C 487.592 1086.13 486.393 1086.41 484.093 1087.49 z"/>
<path transform="translate(0,0)" fill="rgb(0,0,0)" d="M 244.609 1235.02 C 243.438 1234.64 242.715 1234.45 241.65 1234 C 234.995 1231.14 234.34 1212.53 231.712 1205.83 C 226.358 1192.19 215.192 1196.21 204.868 1190.29 C 202.518 1188.94 202.343 1188.47 201.856 1186.05 C 208.812 1178.23 225.099 1183.93 233.291 1176.53 C 242.444 1168.28 237.067 1153.96 245.552 1146.44 C 246.397 1146.78 247.252 1147.11 248.067 1147.52 C 255.736 1151.39 253.826 1160.17 256.414 1166.94 C 260.431 1177.45 276.62 1174.29 284.632 1179.18 C 286.937 1180.59 287.143 1180.99 287.735 1183.43 C 286.532 1186.16 284.657 1187.33 281.999 1188.45 C 275.841 1191.06 268.635 1192.31 262.964 1195.93 C 249.114 1204.78 255.551 1225.6 244.609 1235.02 z M 247.124 1175.73 C 243.078 1180.76 238.814 1184.88 233.926 1189.09 C 238.552 1192.09 241.373 1195.94 244.652 1200.25 L 245.777 1199.81 L 246.16 1198.45 C 250.893 1192.17 255.606 1188.34 262.446 1184.61 C 257.307 1181.71 252.114 1178.88 247.124 1175.73 z"/>
<path transform="translate(0,0)" fill="rgb(0,0,0)" d="M 1133.78 1370.15 C 1131.05 1368.99 1130.74 1369.12 1129.43 1366.52 C 1129.73 1363.15 1130.89 1360.78 1132.74 1357.96 C 1142.06 1343.82 1152.9 1330.25 1162.83 1316.51 L 1220.72 1236.16 L 1256.18 1187.59 C 1263.57 1177.51 1270.74 1166.65 1279.36 1157.6 C 1279.86 1157.66 1280.39 1157.64 1280.88 1157.78 C 1283.42 1158.55 1283.86 1159.3 1284.82 1161.53 C 1283.24 1168.16 1256.22 1201.87 1250.66 1209.39 L 1173.18 1315.47 C 1160.29 1333.45 1148.54 1353.77 1133.78 1370.15 z"/>
<path transform="translate(0,0)" fill="rgb(254,254,254)" d="M 233.926 1189.09 C 238.814 1184.88 243.078 1180.76 247.124 1175.73 C 252.114 1178.88 257.307 1181.71 262.446 1184.61 C 255.606 1188.34 250.893 1192.17 246.16 1198.45 L 245.777 1199.81 L 244.652 1200.25 C 241.373 1195.94 238.552 1192.09 233.926 1189.09 z"/>
<path transform="translate(0,0)" fill="rgb(254,254,254)" d="M 732.933 1226.27 C 733.443 1227.91 733.916 1229.57 734.412 1231.22 C 735.809 1235.87 736.886 1242.11 741.52 1244.6 C 743.46 1244.84 744.46 1244.76 746.315 1243.98 C 760.287 1238.1 780.604 1199.61 786.345 1185.7 C 795.852 1197.57 807.042 1256.07 809.471 1273.6 C 803.604 1269.6 797.044 1260.52 791.98 1258.24 C 789.709 1257.22 789.458 1257.43 787.267 1258.3 C 785.426 1261.14 785.549 1264.8 785.906 1268.06 C 786.672 1275.07 788.998 1281.95 790.424 1288.85 C 793.527 1303.86 797.523 1328.35 793.59 1343.21 C 789.273 1344.13 778.059 1329.19 771.173 1328.25 C 768.368 1327.86 767.975 1328.25 765.896 1329.88 C 761.858 1338.72 764.726 1356.12 764.218 1366.22 C 762.957 1391.3 759.36 1416.89 755.903 1441.76 L 726.612 1651.74 C 723.63 1672.56 712.137 1732.22 713.808 1749.65 C 718.813 1755.16 736.554 1755.07 744.517 1757.53 C 756.008 1761.07 767.925 1768.47 773.393 1779.51 C 775.132 1783.02 777.499 1788.74 775.799 1792.61 C 772.95 1799.08 759.104 1802.3 752.989 1804.2 C 753.135 1799.53 753.886 1793.15 751.826 1788.87 C 750.386 1785.88 747.266 1782.95 744.032 1782.2 C 736.953 1786.51 741.76 1799.16 736.179 1805.09 C 723.381 1807.45 682.402 1804.59 667.806 1802.83 C 667.186 1800.07 666.409 1797.4 665.426 1794.74 C 658.913 1777.16 647.524 1770.23 631.261 1762.87 C 627.99 1742.49 628.028 1719.71 627.262 1698.96 C 626.86 1688.03 629.363 1671.01 625.317 1661.11 C 623.675 1659.62 623.959 1659.32 621.599 1659.28 C 620.101 1660 618.802 1660.62 617.666 1661.87 C 607.086 1673.5 614.865 1740.23 616.458 1759.09 C 611.788 1758.98 607.011 1758.98 602.372 1758.42 C 598.531 1757.95 594.887 1757.08 592.422 1753.9 C 592.948 1737.87 597.972 1720.55 600.669 1704.6 C 603.321 1682.52 602.292 1661.97 599.203 1640.07 C 599.607 1639.65 600.002 1639.22 600.415 1638.81 C 607.471 1631.82 612.908 1602.74 612.554 1592.37 C 612.467 1589.79 611.929 1588.26 609.638 1586.85 C 607.602 1585.6 606.33 1586.06 604.236 1586.6 C 596.762 1592.93 596.657 1609.51 595.53 1618.91 C 593.066 1612.42 590.716 1605.87 587.72 1599.6 L 588.069 1598.63 C 588.258 1598.08 588.433 1597.54 588.626 1596.99 C 593.578 1583.1 594.485 1567.73 597.897 1553.35 C 600.408 1542.77 604.69 1532.39 606.737 1521.75 C 607.079 1519.98 606.997 1519.02 606.345 1517.34 C 604.59 1515.76 603.588 1514.83 600.984 1515.02 C 599.439 1515.14 598.098 1515.9 597.035 1516.95 C 592.211 1521.7 579.113 1563.6 579.179 1571.12 C 579.185 1571.74 579.232 1572.36 579.259 1572.99 L 578.133 1573.91 L 570.971 1563.58 C 576.319 1548.9 578.007 1533.34 582.437 1518.41 C 586.362 1505.58 590.518 1492.82 594.906 1480.14 C 597.384 1473.15 601.506 1465.1 602.581 1457.82 C 602.973 1455.16 602.356 1454.81 600.861 1452.73 C 598.17 1451.44 597.487 1451.06 594.549 1451.23 C 582.903 1461.01 564.618 1531.94 561.098 1549.86 C 549.981 1537.71 539.19 1525.18 526.131 1515.05 C 543.368 1500.01 568.014 1484.64 575.865 1462.06 C 581.073 1447.08 584.043 1430.64 588.681 1415.33 C 590.322 1417.83 591.948 1419.97 593.947 1422.19 C 596.389 1422.72 597.994 1422.38 600.295 1421.35 C 615.5 1414.55 639.98 1369.75 647.209 1354.35 C 652.334 1343.44 656.406 1332.2 660.093 1320.74 C 661.606 1324.74 663.641 1335.6 667.565 1337.42 C 669.85 1338.47 671.808 1338.12 674.084 1337.21 C 693.887 1329.23 724.754 1248.03 732.933 1226.27 z"/>
<path transform="translate(0,0)" fill="rgb(242,242,242)" d="M 1337.48 1214.45 C 1340.28 1210.67 1342.83 1206 1347 1203.65 L 1345.64 1204.73 L 1346.15 1206.36 C 1344.13 1209.61 1342.1 1212.79 1339.85 1215.88 L 1337.48 1214.45 z"/>
<path transform="translate(0,0)" fill="rgb(0,0,0)" d="M 1096.99 1497.82 C 1096.19 1497.46 1095.23 1497.04 1094.5 1496.6 C 1092.24 1495.21 1091.79 1494.97 1091.23 1492.52 C 1097.23 1478.71 1123.91 1449.03 1134.23 1435.61 L 1248.43 1289.31 C 1267.72 1264.72 1287.56 1240.59 1306.07 1215.39 C 1307.58 1215.92 1308.92 1216.64 1310.34 1217.37 L 1311.07 1219.7 C 1310.34 1223.35 1308.9 1226.15 1306.76 1229.22 C 1298.11 1241.64 1287.72 1253.28 1278.38 1265.22 C 1262.05 1286.11 1246.11 1307.27 1229.65 1328.06 C 1184.95 1384.27 1140.73 1440.86 1096.99 1497.82 z"/>
<path transform="translate(0,0)" fill="rgb(0,0,0)" d="M 117.303 1488.25 C 115.323 1487.32 113.76 1486.19 112.005 1484.9 C 110.258 1481.81 110.199 1479.76 111.05 1476.42 C 116.278 1455.93 147.222 1419.4 165.601 1408.67 C 167.565 1409.15 168.797 1409.84 170.543 1410.82 C 171.508 1412.54 172.145 1412.95 171.895 1415.02 C 170.924 1423.07 156.637 1432.84 151.536 1439.1 C 140.88 1452.19 128.078 1479.13 117.303 1488.25 z"/>
<path transform="translate(0,0)" fill="rgb(0,0,0)" d="M 117.379 1565.82 C 115.371 1565.48 113.789 1564.88 111.928 1564.06 C 108.74 1560.53 108.65 1556.66 108.893 1552.12 C 110.18 1528.1 127.633 1480.3 145.718 1463.8 L 149.976 1464.27 C 151.754 1465.61 152.716 1466.05 152.852 1468.51 C 153.373 1477.92 139.152 1496.94 135.252 1506.65 C 132.052 1514.62 129.502 1523.08 127.288 1531.37 C 124.585 1541.49 123.733 1557.64 117.379 1565.82 z"/>
<path transform="translate(0,0)" fill="rgb(0,0,0)" d="M 1055.98 1502.07 C 1055.29 1502.01 1054.6 1502.01 1053.95 1501.69 C 1051.45 1500.48 1051.07 1499.37 1050.11 1496.97 C 1050.47 1491.22 1053.46 1487.23 1056.97 1482.86 C 1058.84 1482.8 1060.68 1482.49 1062.38 1483.39 C 1063.58 1484.03 1063.69 1485.56 1064.1 1486.77 C 1063.53 1492.67 1059.58 1497.59 1055.98 1502.07 z"/>
<path transform="translate(0,0)" fill="rgb(254,254,254)" d="M 354.689 1723.68 C 354.003 1730.13 350.672 1741.32 354.199 1747.24 C 355.408 1749.26 356.796 1750.43 359.245 1750.51 C 379.568 1751.2 429.404 1682.95 442.511 1665.14 C 447.827 1657.92 452.822 1647.22 460.136 1642.08 C 463.88 1648.79 456.6 1658.88 458.457 1666.24 C 459.146 1668.97 459.59 1669.37 461.754 1670.9 C 464.292 1671.3 466.058 1671 468.433 1670.14 C 476.317 1667.28 483.794 1661.75 490.596 1656.96 C 520.843 1635.66 546.312 1608.81 561.405 1574.81 C 563.257 1576.96 564.341 1579.26 565.544 1581.8 C 592.098 1637.82 594.258 1698.06 573.31 1756.36 L 544.865 1755.54 C 549.522 1746.61 553.835 1737.54 557.153 1728.01 C 565.906 1702.89 569.754 1676.01 565.07 1649.64 C 564.376 1645.72 563.817 1640.46 561.819 1637 C 560.604 1634.9 559.066 1633.08 556.524 1632.65 C 553.777 1632.19 552.654 1632.78 550.377 1634.04 C 547.053 1639.56 552.65 1658.54 553.094 1666.21 C 554.852 1696.57 544.682 1737.09 523.922 1759.96 L 522.631 1761.37 C 524.439 1764.01 526.639 1766.32 528.76 1768.72 C 558.525 1773.5 592.755 1767.4 621.539 1774.67 C 632.341 1777.4 643.572 1784.07 648.993 1794.12 C 654.422 1804.17 653.431 1815.87 650.464 1826.49 C 645.767 1827.93 638.688 1829.91 633.743 1829.11 C 629.081 1828.36 636.563 1808.14 630.008 1800.9 C 628.329 1799.04 626.015 1798.45 623.597 1798.44 C 620.973 1798.44 619.979 1799.03 618.399 1800.98 C 617.433 1806.58 619.951 1812.62 620.493 1818.25 C 620.871 1822.18 620.609 1824.85 618.004 1828.02 C 608.374 1833.9 542.403 1831.15 527.474 1830.39 C 527.16 1823.86 525.599 1817.65 522.992 1811.64 C 520.56 1806.04 516.108 1801.34 510.278 1799.32 C 495.338 1794.14 478.291 1805.17 464.646 1810.29 C 456.909 1813.19 448.829 1814.87 441.349 1818.46 C 440.336 1820.46 440.154 1821.08 440.485 1823.41 C 440.74 1825.21 441.724 1827.27 443.329 1828.21 C 452.291 1833.48 483.878 1816.07 494.816 1813.62 C 499.201 1812.64 503.22 1812.64 506.973 1815.39 C 510.808 1818.2 512.355 1824.63 512.528 1829.1 C 512.708 1833.75 510.745 1837.79 507.459 1841 C 488.472 1859.55 410.718 1865.01 383.75 1865.17 C 334.254 1869.5 220.074 1868.16 179.744 1839.96 C 173.139 1835.34 168.336 1829.16 167.041 1821.07 C 165.659 1812.45 167.594 1803.44 172.859 1796.42 C 202.126 1757.41 281.62 1800.38 317.14 1812.35 C 340.797 1820.33 366.933 1827.49 392.103 1824.1 C 401.352 1822.85 422.002 1818.65 427.699 1811.24 C 428.288 1808.31 428.31 1807.94 427.23 1805.17 C 419.269 1797.93 405.419 1807.2 396.001 1808.65 C 359.183 1814.34 324.433 1800.84 290.615 1788.03 C 317.148 1773.68 337.97 1748.21 354.689 1723.68 z"/>
<path transform="translate(0,0)" fill="rgb(0,0,0)" d="M 1331.81 1704.08 C 1330.14 1703.58 1328.02 1703.13 1326.68 1701.93 C 1325.02 1700.44 1324.33 1697.97 1324.09 1695.83 C 1323.27 1688.43 1326.47 1679.21 1330.92 1673.38 C 1332.33 1673.4 1333.26 1673.51 1334.62 1673.97 C 1336.35 1674.55 1336.22 1675.23 1337.01 1676.77 C 1336.76 1684.67 1336.02 1697.3 1331.81 1704.08 z"/>
<path transform="translate(0,0)" fill="rgb(0,0,0)" d="M 1461.23 1715.62 L 1457.27 1714.59 C 1455.72 1713.31 1454.8 1712.49 1454.03 1710.56 C 1451.55 1704.29 1455.24 1693.29 1458.05 1687.51 C 1459.06 1687.57 1461.08 1687.54 1462.1 1687.92 C 1463.46 1688.42 1464.29 1689.06 1464.79 1690.41 C 1467.29 1697.12 1464.43 1709.48 1461.23 1715.62 z"/>
<path transform="translate(0,0)" fill="rgb(254,254,254)" d="M 250.543 1773.31 L 248.005 1771.61 L 247.99 1769.95 C 251.125 1765.78 256.391 1763.47 260.846 1760.9 C 261.083 1765.12 260.879 1771.07 258.648 1774.59 C 255.383 1775.35 253.689 1774.33 250.543 1773.31 z"/>
</svg>