<svg version="1.1" xmlns="http://www.w3.org/2000/svg" style="display: block;" viewBox="0 0 2048 2048" width="1024" height="1024">
<path transform="translate(0,0)" fill="rgb(254,254,254)" d="M 0 0 L 2048 0 L 2048 2048 L 0 2048 L 0 0 z M 1078.17 353.496 C 1068.6 354.786 1060.08 356.815 1053.97 365.057 C 1049 371.761 1046.92 380.708 1045.59 388.822 C 1041.3 414.938 1041.61 442.591 1040.23 469.023 L 1032.85 611.972 C 1022.36 817.222 1009.91 1022.37 995.508 1227.38 L 985.171 1377.04 C 983.719 1397.77 978.186 1441.42 981.705 1460.08 C 983.073 1467.34 985.721 1473.02 991.928 1477.27 C 998.231 1481.58 1005.77 1482.71 1013.07 1484.35 C 1192.13 1523.76 1371.46 1561.9 1551.06 1598.77 L 1723.01 1635.73 C 1743.04 1640.29 1763.11 1644.64 1783.22 1648.78 C 1792.49 1650.67 1802.46 1653.5 1811.89 1653.87 C 1813.61 1652.51 1813.79 1652.06 1814.63 1650.02 C 1815.9 1651.07 1816.94 1652.6 1818.69 1652.52 C 1828.44 1652.03 1852.65 1631.22 1861.14 1624.61 C 1862.61 1623.13 1864.19 1621.67 1864.66 1619.55 C 1866.97 1609.14 1867.01 1596.58 1868.22 1585.89 C 1873.21 1541.65 1875.88 1497 1879.3 1452.61 L 1905.61 1114.02 L 1935.46 695.611 C 1939.74 643.329 1943.47 591.004 1946.67 538.644 C 1948.16 514.92 1950.73 490.6 1950.62 466.852 C 1950.6 461.938 1950.64 455.758 1948.93 451.182 C 1945.66 442.415 1921.23 412.362 1913.8 405.186 C 1900.85 392.694 1295.45 363.77 1223.64 360.197 L 1132.36 355.396 C 1115.88 354.529 1098.65 352.856 1082.17 353.312 C 1080.84 353.346 1079.5 353.407 1078.17 353.496 z M 523.807 483.349 C 492.124 488.047 463.758 503.616 444.378 529.484 C 441.414 533.44 438.855 537.697 436.304 541.925 C 416.798 539.179 399.062 545.657 383.581 557.442 C 365.191 571.441 355.326 588.872 352.423 611.771 C 348.379 643.667 359.281 643.81 363.141 668.193 C 363.208 668.616 363.298 669.034 363.372 669.456 C 363.416 669.709 363.454 669.963 363.496 670.216 C 363.329 670.638 363.167 671.06 362.996 671.48 C 359.653 679.672 354.204 686.5 349.43 693.89 C 338.138 711.368 333.98 731.013 342.04 750.913 C 353.466 779.127 379.041 796.107 378.517 828.987 C 378.386 837.23 377.094 845.46 373.863 853.088 C 369.222 864.046 362.356 868.209 358.329 876.031 C 357.387 877.862 357.711 878.55 358.136 880.45 C 360.085 882.398 361.659 883.38 364.448 883.485 C 373.33 883.82 382.407 877.608 390.638 874.85 C 390.303 888.076 394.979 900.745 404.335 910.261 C 408.818 914.822 418.202 921.348 424.97 920.894 C 426.41 920.798 426.576 920.673 427.793 920.273 C 429.339 918.167 429.853 917.071 429.515 914.389 C 428.262 904.425 421.516 892.009 426.378 882.221 L 427.694 882.121 C 432.111 886.083 435.355 891.096 439.735 894.956 C 443.905 898.631 450.768 902.06 453.805 906.637 C 455.239 908.798 456.233 911.275 456.379 913.885 C 457.073 926.335 441.456 934.749 442.964 945.211 C 448.017 949.619 459.524 948.71 466.082 948.241 C 482.757 947.05 494.39 939.508 508.986 932.25 C 506.519 944.517 503.39 956.946 499.441 968.824 C 419.327 984.99 320.968 992.425 271.306 1067.03 C 257.216 1088.19 246.621 1111.93 234.114 1134.06 C 215.474 1167.05 197.894 1200.5 179.673 1233.71 C 160.931 1267.86 142.997 1301.82 126.326 1337.05 C 115.017 1360.95 103.46 1385.73 96.5737 1411.33 C 92.9083 1424.96 92.9296 1437.02 95.7316 1450.82 C 108.195 1512.2 157.057 1562.46 203.951 1600.58 C 214.189 1608.9 224.425 1617.8 235.492 1624.98 C 239.95 1627.87 245.785 1631.18 251.304 1630.58 C 252.229 1630.48 252.534 1630.28 253.285 1629.92 C 254.292 1628.04 254.448 1627.79 253.703 1625.64 C 250.521 1616.46 234.836 1607.79 227.336 1601.5 C 181.046 1562.7 127.701 1519.4 109.888 1459.05 C 107.538 1451.09 104.458 1441.26 104.745 1432.89 C 105.419 1413.24 115.697 1390.77 123.469 1372.95 C 154.629 1301.51 194.924 1233.98 232.913 1166.06 C 253.133 1129.91 270.153 1089.78 297.515 1058.36 C 311.72 1042.05 333.602 1027.53 353.731 1019.58 C 379.644 1009.35 407.708 1002.28 435.082 997.379 C 452.333 994.011 469.583 990.463 486.894 987.424 C 492.447 986.449 501.272 986.397 506.337 984.34 C 507.993 983.667 509.468 981.617 510.407 980.181 C 517.217 969.769 519.562 953.423 521.593 941.338 C 538.513 940.955 551.995 938.638 564.338 925.827 C 574.069 915.727 579.658 902.486 585.593 889.984 C 592.234 903.971 605.398 914.333 619.905 919.363 C 628.683 922.407 641.63 924.852 650.117 920.125 C 651.163 919.543 651.219 919.425 651.974 918.726 C 650.766 906.165 629.365 906.894 645.411 886.992 C 650.58 880.58 664.368 869.049 672.702 868.225 C 674.833 868.014 674.853 868.133 676.583 869.558 C 677.291 873.927 674.007 878.342 671.563 881.687 C 668.844 885.407 665.794 888.062 661.962 890.574 C 658.2 906.261 654.877 984.275 657.106 998.62 C 660.822 1003.88 697.655 1014.39 706.18 1017.85 C 751.214 1036.12 829.451 1070.08 857.086 1109.86 C 866.734 1123.75 871.515 1144.86 874.892 1161.28 C 884.266 1206.85 888.238 1253.46 893.768 1299.59 L 917.681 1500.15 C 924.468 1560.87 929.812 1622.2 940.464 1682.36 C 941.368 1687.47 940.375 1691.79 946.3 1693.32 C 948.651 1692.13 949.472 1691.35 950.341 1688.78 C 952.471 1682.49 951.144 1673.46 950.606 1666.9 C 943.64 1581.99 931.372 1497.34 922.041 1412.65 L 906.62 1272.17 C 903.212 1240.29 900.543 1207.98 895.502 1176.32 C 891.92 1153.82 887.989 1125.73 876.833 1105.82 C 850.283 1058.43 754.631 1017.55 704.477 998.809 C 693.105 994.559 681.426 991.229 670.006 987.139 C 669.77 963.74 669.783 940.338 670.047 916.939 C 686.176 914.276 701.154 911.14 711.439 897.014 C 734.638 865.151 734.606 758.52 732.704 717.159 C 732.485 712.392 729.344 685.863 730.593 684.557 C 730.937 684.197 733.537 683.62 733.749 683.602 C 741.133 682.992 744.748 689.318 752.399 684.715 C 752.616 682.746 752.791 682.387 751.356 680.816 C 746.468 675.458 741.052 673.596 735.764 666.423 C 727.067 610.656 768.131 557.918 711.018 515.771 C 700.228 507.901 688.096 502.057 675.215 498.526 C 652.736 492.314 627.84 491.826 604.678 489.417 C 577.945 486.637 550.753 480.76 523.807 483.349 z M 497.196 1076.36 C 487.25 1090.57 487.377 1115.33 485.676 1132.24 C 482.747 1161.34 480.024 1190.55 480.034 1219.82 C 480.047 1256.76 483.951 1293.3 488.237 1329.94 C 494.066 1379.56 501.346 1429 510.068 1478.2 C 513.065 1495.25 526.931 1576.79 534.489 1587.55 C 537.014 1585.89 538.508 1585.42 539.03 1582.18 C 540.108 1575.49 522.125 1490.99 519.38 1475.93 C 514.348 1448.33 509.843 1420.45 505.495 1392.73 C 499.098 1351.93 493.675 1310.01 491.205 1268.79 C 489.983 1248.4 488.843 1227.45 489.133 1207.01 C 489.408 1187.74 491.159 1168.25 492.433 1149.01 C 493.388 1134.6 502.452 1087.54 500.502 1078.12 C 499.053 1076.68 499.024 1076.84 497.196 1076.36 z M 277.126 1212.69 C 272.196 1228.38 292.779 1334.81 298.515 1355.56 C 287.746 1370.75 278.496 1386.95 268.561 1402.68 C 258.728 1418.25 248.208 1433.24 239.764 1449.65 C 231.835 1444.99 220.767 1436.1 211.454 1436.02 C 209.031 1437.23 209.111 1437.35 208.02 1439.86 C 208.846 1444.27 210.402 1445.76 214.044 1448.26 C 229.969 1459.43 244.85 1472.01 258.503 1485.86 C 276.941 1504.34 292.033 1525.87 309.073 1545.59 C 319.179 1557.25 329.407 1568.81 339.756 1580.26 C 348.918 1590.31 360.96 1600.68 367.417 1612.73 C 371.742 1620.8 374.085 1644.24 382.021 1648.19 C 383.75 1649.05 385.794 1648.79 387.645 1648.7 C 389.898 1647.31 390.626 1647.05 391.384 1644.34 C 393.172 1637.96 387.569 1624.75 385.704 1618.56 C 416.046 1632.64 447.822 1643.4 480.477 1650.66 C 538.208 1663.07 597.041 1664.93 655.88 1665.07 C 686.832 1665.14 718.054 1665.25 748.742 1660.64 C 762.429 1658.59 775.886 1655.22 788.925 1650.58 C 793.124 1649.07 797.299 1647.5 801.45 1645.87 C 803.804 1655.45 805.879 1673.2 812.97 1679.9 C 814.918 1680.53 816.083 1680.91 817.971 1679.53 C 820.697 1677.53 821.176 1674.43 821.019 1671.28 C 820.716 1665.22 818.293 1658.98 816.961 1653.07 C 815.089 1644.75 813.852 1636.21 812.431 1627.8 C 806.953 1596.59 801.244 1565.41 795.304 1534.27 C 790.688 1508.9 786.804 1483.33 780.896 1458.22 L 759.622 1337.6 C 757.606 1326.65 756.05 1308.19 752.533 1298.65 C 751.813 1296.69 750.666 1295.3 748.94 1294.12 C 747.447 1293.1 747.294 1293.47 745.677 1293.73 C 740.797 1300.37 749.341 1343.89 750.855 1353.79 C 761.185 1417.46 772.065 1481.03 783.494 1544.51 C 788.112 1567.82 792.474 1591.19 796.579 1614.6 C 797.639 1620.5 800.469 1629.16 800.318 1634.99 C 800.303 1635.57 799.482 1636.72 799.227 1637.02 C 794.529 1642.59 779.536 1644.37 772.657 1645.6 C 732.338 1652.81 691.494 1653.97 650.616 1654.19 C 620.334 1654.36 590.212 1654.07 559.991 1651.93 C 511.175 1648.36 463.095 1638 417.133 1621.17 C 411.924 1619.24 390.909 1608.72 386.891 1611 C 385.093 1612.02 385.827 1611.63 383.962 1612.48 C 377.506 1600.6 368.308 1558.01 363.695 1541.85 C 342.03 1465.94 318.725 1390.7 302.373 1313.38 C 295.77 1282.15 291.595 1250.72 286.708 1219.23 C 286.197 1215.93 285.344 1214.29 282.078 1213.24 C 280.632 1212.77 278.653 1212.8 277.126 1212.69 z M 416.612 1256.49 C 410.241 1266.05 402.612 1304.2 396.822 1318.92 C 393.817 1326.55 383.334 1342.78 382.481 1349.59 C 384.197 1351.41 385.682 1352.28 387.921 1353.37 C 394.053 1346.59 398.833 1339.66 403.031 1331.53 C 410.721 1316.63 423.254 1280.02 422.829 1263.31 C 422.768 1260.92 422.401 1259.49 420.897 1257.57 L 416.612 1256.49 z M 555.635 1283.34 C 551.84 1290.34 555.449 1301.92 557.652 1309.24 C 562.956 1326.87 580.784 1367.57 598.157 1376.07 C 598.53 1376.26 598.915 1376.41 599.294 1376.58 C 600.394 1373.53 601.254 1372.77 599.63 1369.66 C 597.061 1364.74 593.28 1360.04 590.329 1355.29 C 585.64 1347.69 581.415 1339.81 577.68 1331.7 C 573.547 1322.76 569.77 1313.48 566.967 1304.03 C 565.384 1298.69 564.472 1292.17 562.04 1287.19 C 561.178 1285.43 560.737 1284.78 559.075 1283.84 L 555.635 1283.34 z"/>
<path transform="translate(0,0)" fill="rgb(4,4,2)" d="M 1861.14 1624.61 C 1852.65 1631.22 1828.44 1652.03 1818.69 1652.52 C 1816.94 1652.6 1815.9 1651.07 1814.63 1650.02 C 1813.79 1652.06 1813.61 1652.51 1811.89 1653.87 C 1802.46 1653.5 1792.49 1650.67 1783.22 1648.78 C 1763.11 1644.64 1743.04 1640.29 1723.01 1635.73 L 1551.06 1598.77 C 1371.46 1561.9 1192.13 1523.76 1013.07 1484.35 C 1005.77 1482.71 998.231 1481.58 991.928 1477.27 C 985.721 1473.02 983.073 1467.34 981.705 1460.08 C 978.186 1441.42 983.719 1397.77 985.171 1377.04 L 995.508 1227.38 C 1009.91 1022.37 1022.36 817.222 1032.85 611.972 L 1040.23 469.023 C 1041.61 442.591 1041.3 414.938 1045.59 388.822 C 1046.92 380.708 1049 371.761 1053.97 365.057 C 1060.08 356.815 1068.6 354.786 1078.17 353.496 C 1079.5 353.407 1080.84 353.346 1082.17 353.312 C 1098.65 352.856 1115.88 354.529 1132.36 355.396 L 1223.64 360.197 C 1295.45 363.77 1900.85 392.694 1913.8 405.186 C 1921.23 412.362 1945.66 442.415 1948.93 451.182 C 1950.64 455.758 1950.6 461.938 1950.62 466.852 C 1950.73 490.6 1948.16 514.92 1946.67 538.644 C 1943.47 591.004 1939.74 643.329 1935.46 695.611 L 1905.61 1114.02 L 1879.3 1452.61 C 1875.88 1497 1873.21 1541.65 1868.22 1585.89 C 1867.01 1596.58 1866.97 1609.14 1864.66 1619.55 C 1864.19 1621.67 1862.61 1623.13 1861.14 1624.61 z M 1856.42 1077.89 C 1857.63 1052.35 1860.23 1026.94 1861.99 1001.45 L 1883.01 721.777 C 1887.6 646.736 1892.88 571.738 1898.85 496.793 C 1901.26 469.429 1902.33 441.394 1906.61 414.273 C 1846.2 406.946 1785.3 403.728 1724.62 399.527 C 1613.02 391.948 1501.35 385.421 1389.63 379.946 C 1334.98 377.26 1280.23 375.17 1225.63 371.902 C 1181.12 369.237 1136.06 364.98 1091.48 364.828 C 1085.31 364.807 1070.85 364.563 1065.76 368.109 C 1057.77 373.672 1056.62 395.671 1055.93 404.464 C 1053.06 440.951 1052.14 477.788 1050.58 514.352 L 1045.16 623.806 L 1025.33 978.97 L 1001.96 1336.6 C 1000.65 1359.64 999.065 1382.67 997.19 1405.67 C 995.795 1421.64 993.367 1438.08 993.265 1454.09 C 993.241 1457.95 992.672 1464.56 995.363 1467.51 C 996.946 1469.24 998.833 1469.99 1001.05 1470.6 C 1027.83 1477.9 1056.05 1482.6 1083.25 1488.46 C 1137.97 1500.54 1192.77 1512.22 1247.66 1523.5 C 1378.52 1550.51 1509.22 1578.28 1639.76 1606.82 C 1681.17 1615.48 1722.62 1623.64 1763.95 1632.71 C 1777.41 1635.66 1796.01 1638.32 1808.32 1642.2 C 1811.15 1643.09 1812.61 1645.59 1814.15 1647.93 C 1816.03 1645.5 1815.72 1638.45 1815.99 1635.1 L 1844.98 1235.92 C 1848.57 1187.2 1851.26 1138.45 1855.71 1089.8 C 1858.72 1088.58 1861.29 1088.83 1863.4 1086.21 C 1862.35 1082.74 1859.01 1080.41 1856.42 1077.89 z M 1916.57 426.654 C 1913.11 454.782 1913.59 483.475 1911.19 511.74 C 1904.51 590.452 1900.18 669.189 1894.91 747.989 C 1894.23 758.213 1892.54 768.337 1891.76 778.552 L 1885.99 860.733 C 1876.24 980.633 1867.72 1100.63 1860.44 1220.71 C 1860.14 1225.07 1858.55 1229.32 1858 1233.66 C 1857.46 1237.88 1857.93 1242.34 1857.55 1246.64 C 1856.33 1260.35 1854.81 1274.03 1853.71 1287.75 L 1839.59 1486.09 L 1833.95 1567.66 C 1832.23 1590.31 1829.84 1612.88 1828.67 1635.57 L 1840.78 1625.76 C 1845.83 1622.29 1853.5 1618.72 1854.53 1612.15 C 1855.87 1603.57 1855.8 1594.43 1856.25 1585.75 C 1857.18 1568.07 1857.9 1550.35 1859.07 1532.68 C 1859.48 1526.53 1860.56 1520.48 1861.11 1514.35 L 1870.91 1392.12 C 1888.29 1168.54 1904.23 944.853 1918.72 721.07 C 1921.77 675.055 1926.22 629.027 1928.73 583.005 L 1934.08 493.473 C 1934.99 480.119 1934.87 466.699 1937.27 453.495 C 1932.02 445.58 1924.16 432.201 1916.57 426.654 z"/>
<path transform="translate(0,0)" fill="rgb(254,254,254)" d="M 1906.61 414.273 C 1902.33 441.394 1901.26 469.429 1898.85 496.793 C 1892.88 571.738 1887.6 646.736 1883.01 721.777 L 1861.99 1001.45 C 1860.23 1026.94 1857.63 1052.35 1856.42 1077.89 C 1856.15 1081.86 1855.83 1085.83 1855.71 1089.8 C 1851.26 1138.45 1848.57 1187.2 1844.98 1235.92 L 1815.99 1635.1 C 1815.72 1638.45 1816.03 1645.5 1814.15 1647.93 C 1812.61 1645.59 1811.15 1643.09 1808.32 1642.2 C 1796.01 1638.32 1777.41 1635.66 1763.95 1632.71 C 1722.62 1623.64 1681.17 1615.48 1639.76 1606.82 C 1509.22 1578.28 1378.52 1550.51 1247.66 1523.5 C 1192.77 1512.22 1137.97 1500.54 1083.25 1488.46 C 1056.05 1482.6 1027.83 1477.9 1001.05 1470.6 C 998.833 1469.99 996.946 1469.24 995.363 1467.51 C 992.672 1464.56 993.241 1457.95 993.265 1454.09 C 993.367 1438.08 995.795 1421.64 997.19 1405.67 C 999.065 1382.67 1000.65 1359.64 1001.96 1336.6 L 1025.33 978.97 L 1045.16 623.806 L 1050.58 514.352 C 1052.14 477.788 1053.06 440.951 1055.93 404.464 C 1056.62 395.671 1057.77 373.672 1065.76 368.109 C 1070.85 364.563 1085.31 364.807 1091.48 364.828 C 1136.06 364.98 1181.12 369.237 1225.63 371.902 C 1280.23 375.17 1334.98 377.26 1389.63 379.946 C 1501.35 385.421 1613.02 391.948 1724.62 399.527 C 1785.3 403.728 1846.2 406.946 1906.61 414.273 z M 1118.47 426.136 C 1116.84 428.776 1115.97 430.819 1115.64 433.931 C 1114.08 448.688 1114.41 464.059 1113.49 478.936 L 1106.38 608.525 C 1102.9 669.942 1098.96 731.332 1094.55 792.69 L 1062.19 1241.2 L 1055.7 1337.42 C 1054.52 1353.36 1048.76 1401.69 1051.52 1414.57 C 1052.53 1419.3 1054.62 1423.72 1058.77 1426.47 C 1064.1 1429.99 1071.85 1431.69 1078.04 1433.13 C 1152.83 1450.49 1228.31 1465.45 1303.43 1481.37 L 1615.12 1547.94 L 1696.77 1565.24 C 1710.4 1568.2 1743.59 1577.75 1756.38 1576.66 C 1760.5 1573.65 1761.91 1569.22 1762.69 1564.32 C 1763.64 1558.38 1763.97 1552.23 1764.47 1546.24 C 1767.31 1518.36 1767.69 1490.15 1769.56 1462.2 L 1784.79 1233.95 L 1838.16 492.631 C 1838.65 484.893 1841.19 466.166 1836.72 460.155 C 1811.27 457.037 1785.3 457.534 1759.74 456.114 L 1568 446.127 L 1316.53 434.396 L 1181.01 428.652 C 1160.16 427.839 1139.36 426.111 1118.47 426.136 z"/>
<path transform="translate(0,0)" fill="rgb(4,4,2)" d="M 1764.47 1546.24 C 1763.97 1552.23 1763.64 1558.38 1762.69 1564.32 C 1761.91 1569.22 1760.5 1573.65 1756.38 1576.66 C 1743.59 1577.75 1710.4 1568.2 1696.77 1565.24 L 1615.12 1547.94 L 1303.43 1481.37 C 1228.31 1465.45 1152.83 1450.49 1078.04 1433.13 C 1071.85 1431.69 1064.1 1429.99 1058.77 1426.47 C 1054.62 1423.72 1052.53 1419.3 1051.52 1414.57 C 1048.76 1401.69 1054.52 1353.36 1055.7 1337.42 L 1062.19 1241.2 L 1094.55 792.69 C 1098.96 731.332 1102.9 669.942 1106.38 608.525 L 1113.49 478.936 C 1114.41 464.059 1114.08 448.688 1115.64 433.931 C 1115.97 430.819 1116.84 428.776 1118.47 426.136 C 1139.36 426.111 1160.16 427.839 1181.01 428.652 L 1316.53 434.396 L 1568 446.127 L 1759.74 456.114 C 1785.3 457.534 1811.27 457.037 1836.72 460.155 C 1841.19 466.166 1838.65 484.893 1838.16 492.631 L 1784.79 1233.95 L 1769.56 1462.2 C 1767.69 1490.15 1767.31 1518.36 1764.47 1546.24 z M 1125.53 437.704 C 1125.64 438.087 1125.76 438.469 1125.87 438.854 C 1126.64 441.494 1127.3 444.047 1127.33 446.812 C 1127.45 462.257 1125.33 478.335 1124.44 493.817 L 1119.6 585.602 C 1114.38 688.863 1108.02 792.063 1100.53 895.184 L 1079.42 1180.88 C 1075.41 1241.78 1070.26 1302.57 1066.72 1363.52 C 1065.93 1377.01 1064 1390.46 1063.84 1403.99 C 1063.78 1408.81 1064.07 1413.53 1067.52 1417.16 C 1083.09 1422.37 1100.35 1425 1116.42 1428.5 L 1227.82 1452.11 L 1571.69 1526.26 L 1688.79 1551.04 C 1709.76 1555.45 1731.06 1559.07 1751.81 1564.38 C 1750.16 1557.53 1750.54 1551.21 1751.17 1544.27 L 1280.49 1442.13 C 1223.31 1429.62 1165.86 1418.87 1108.97 1404.97 C 1105.58 1404.14 1099.4 1403.07 1097.26 1400.23 C 1096.95 1397.54 1097 1397.2 1098.19 1394.76 C 1102.05 1392.52 1105.99 1393.12 1110.24 1393.83 C 1129.36 1397.03 1148.46 1402.76 1167.52 1406.7 C 1222.01 1417.44 1276.33 1429.03 1330.46 1441.47 C 1420.41 1461.5 1511 1478.64 1600.7 1499.92 C 1618.1 1477.72 1737.89 1338.09 1752.99 1329.58 C 1754.61 1331.53 1755.15 1332.79 1755.02 1335.38 C 1754.81 1339.58 1751.38 1344.34 1748.95 1347.52 C 1735.1 1365.66 1717.21 1382.21 1701.77 1399.16 C 1679.45 1423.67 1658.23 1449.14 1635.74 1473.5 C 1627.11 1482.85 1617.1 1491.33 1609.15 1501.23 C 1639.24 1509.2 1670.02 1514.82 1700.49 1521.24 C 1717.61 1524.84 1734.92 1527.91 1751.58 1533.37 C 1752.99 1512.8 1752.83 1490.61 1756.24 1470.36 C 1740.8 1485.44 1720.88 1507.8 1702.96 1519.01 C 1700.3 1518.74 1700.23 1518.99 1698.55 1516.96 C 1699.17 1507.46 1746.13 1465.31 1756 1456.5 C 1756.57 1442.59 1758.41 1428.74 1759.3 1414.84 L 1770.68 1247.42 C 1772.77 1217.73 1775.78 1187.81 1776.68 1158.07 C 1766.12 1141.53 1754.34 1125.72 1743.02 1109.69 C 1717.06 1072.92 1671.64 1007.94 1634.98 983.169 C 1599.83 959.424 1510.6 953.376 1485.27 929.99 C 1480.67 925.744 1478.77 918.834 1475.08 913.817 C 1474.88 898.233 1474.97 882.594 1476.34 867.056 C 1461.53 886.62 1443.53 895.499 1419.38 898.941 C 1405.56 900.912 1392.85 900.107 1379.07 898.729 C 1378.9 903.309 1379.95 934.634 1378.13 936.294 C 1376.79 937.524 1293.7 965.458 1283.62 969.211 C 1258.44 978.586 1235.66 991.641 1217.6 1011.99 C 1173.18 1062.05 1133.95 1205.43 1112.37 1273.6 C 1109.11 1281.54 1105.41 1289.62 1103.19 1297.91 C 1097.94 1317.54 1097.9 1341.6 1096.8 1361.96 C 1096.48 1367.71 1097.25 1385.6 1093.73 1389.54 C 1091.03 1390.22 1088.79 1389.74 1086.11 1389.3 C 1084.21 1387.78 1084.11 1387.35 1083.77 1384.83 C 1081.7 1369.47 1088.12 1318.21 1089.66 1299.99 C 1092.5 1266.24 1094.1 1232.28 1096.67 1198.48 C 1110.16 1036.3 1121.64 873.95 1131.13 711.481 L 1141.69 529.672 C 1142.49 515.574 1142.04 473.201 1145.83 463.159 C 1148.21 461.433 1148.58 461.384 1151.53 461.215 C 1153.81 462.429 1155.04 463.257 1155.96 465.786 C 1158.89 473.908 1149.89 594.136 1148.72 612.811 C 1146.47 648.824 1145.71 684.942 1143.73 720.974 C 1142.32 746.631 1139.64 772.318 1137.99 797.983 L 1125.11 999.236 L 1113.18 1155.01 C 1111.03 1181.43 1107.39 1207.93 1106.66 1234.44 C 1102.92 1239.75 1106.42 1244.54 1104.3 1252.13 C 1102.83 1257.36 1103.81 1264.4 1103.26 1269.93 C 1106.7 1264.85 1114.8 1232.23 1117.6 1223.25 C 1140.19 1150.71 1174.42 1018.67 1241.84 977.431 C 1278.25 955.161 1331.64 946.852 1370.12 929.28 C 1369.77 918.471 1369.29 907.666 1368.69 896.868 C 1356.06 894.265 1344.68 885.891 1337.49 875.295 C 1320.55 850.324 1325.22 819.035 1328.44 791.018 C 1330.48 773.184 1332.83 755.611 1336.53 738.036 C 1338.88 726.888 1342.87 716.517 1346.9 705.9 C 1338.04 708.635 1322.05 715.123 1313.43 710.374 C 1310.13 708.553 1306.22 703.545 1305.83 699.701 C 1305.63 697.678 1306.11 696.94 1307.55 695.675 C 1311.76 691.97 1317.66 690.865 1322.62 688.5 C 1331.81 684.117 1336.35 671.326 1337.19 661.873 C 1338.74 644.476 1335.78 625.64 1350.79 612.721 C 1358.64 605.965 1370.45 602.504 1380.71 603.543 L 1387.1 604.23 C 1386.75 596.389 1385.11 588.563 1391.13 582.424 C 1399.24 574.153 1414.45 572.519 1425.57 572.717 C 1449.17 573.138 1458.84 588.803 1479.18 594.829 C 1513.72 605.058 1550.81 593.191 1579.21 622.437 C 1588.63 632.134 1594.46 645.584 1593.87 659.193 C 1593.21 674.333 1583.35 685.08 1594.98 698.953 C 1605.27 711.217 1612.53 716.994 1611.39 734.558 C 1609.63 761.862 1587.58 779.378 1578.66 803.922 C 1580.91 814.733 1583.39 822.949 1593.29 829.247 C 1599.02 832.888 1605.32 834.986 1611.71 837.117 C 1605.58 844.745 1599.55 849.332 1589.46 850.523 C 1585.57 850.947 1581.66 851.036 1577.76 850.788 C 1581.64 865.926 1584.15 877.878 1575.66 892.117 C 1570.61 900.597 1562.99 909.686 1556.2 916.849 C 1558.54 908.267 1560.71 899.592 1563.41 891.119 C 1560.82 882.446 1558.7 877.425 1551 872.085 C 1540.39 877.278 1534.67 883.588 1530.79 895.065 C 1528.64 901.408 1527.87 907.355 1527.54 914.038 C 1524.08 908.861 1519.62 900.267 1514.47 896.81 C 1510.87 896.228 1508.29 895.991 1505.19 898.423 C 1499.06 903.23 1498.47 911.835 1488.8 918.345 C 1488.8 920.376 1489.74 921.637 1491.08 923.113 C 1504.77 938.198 1612.17 955.468 1642.31 975.961 C 1687.3 1006.56 1748.1 1095.89 1779.21 1141.72 C 1778.56 1116.4 1781.81 1090.13 1783.64 1064.89 L 1792.71 937.849 C 1804.68 782.552 1815.86 627.196 1826.25 471.786 C 1793.57 468.733 1760.41 468.081 1727.63 466.254 L 1483.99 453.558 L 1232.84 442.444 L 1169.39 439.669 C 1154.83 438.9 1140.1 437.59 1125.53 437.704 z M 1396.42 638.952 C 1372 651.684 1358.3 699.011 1350.32 724.252 C 1343.13 746.99 1342.06 770.182 1338.08 793.473 L 1346.79 787.419 C 1352.73 791.636 1358.75 797.796 1365.26 800.876 C 1379.32 807.536 1407.59 809.292 1423.19 808.578 C 1437.42 807.927 1450.88 804.454 1464.78 809.537 C 1469.95 812.71 1471.12 816.109 1473.27 821.586 C 1487.47 808.363 1513.77 742.572 1518.57 722.181 C 1510.32 706.257 1497.54 698.12 1480.83 692.728 C 1456.83 684.987 1423.9 687.823 1410.52 661.248 C 1407.19 654.635 1405.66 644.499 1400.76 639.225 C 1399.32 639.129 1397.86 638.984 1396.42 638.952 z M 1525.56 771.285 C 1521.63 771.969 1517.17 772.141 1514.95 775.972 C 1514.03 777.559 1513.91 778.974 1513.79 780.746 C 1516.49 781.199 1521.02 776.909 1524.17 775.799 C 1530.74 774.33 1536.95 774.316 1543.53 773.425 C 1537.38 772.047 1531.91 771.132 1525.56 771.285 z M 1534.95 778.022 C 1526.64 780.455 1518.92 784.471 1511.14 788.204 C 1508.54 798.512 1497.01 818.452 1496.43 823.639 C 1500.18 825.26 1505.91 823.505 1509.75 822.443 C 1527.12 816.504 1538.88 807.828 1547.87 791.733 C 1546.61 787.626 1545.46 780.878 1541.23 778.814 C 1539.33 777.887 1537.01 778.009 1534.95 778.022 z M 1341.72 806.359 C 1339.21 816.516 1342.66 825.19 1347.89 833.928 C 1356.17 847.788 1365.29 860.846 1381.77 865.061 C 1401.31 870.055 1420.98 864.465 1437.72 854.018 C 1438.23 853.699 1438.73 853.369 1439.24 853.044 C 1445.55 849.101 1449.52 846.204 1451.21 838.559 C 1452.3 833.614 1454.45 823.656 1451.61 819.237 C 1450.14 816.948 1448.06 816.315 1445.51 816.116 C 1437.9 815.523 1429.67 816.779 1422.01 816.981 C 1399.14 817.581 1362.04 817.188 1341.72 806.359 z"/>
<path transform="translate(0,0)" fill="rgb(254,254,254)" d="M 1828.67 1635.57 C 1829.84 1612.88 1832.23 1590.31 1833.95 1567.66 L 1839.59 1486.09 L 1853.71 1287.75 C 1854.81 1274.03 1856.33 1260.35 1857.55 1246.64 C 1857.93 1242.34 1857.46 1237.88 1858 1233.66 C 1858.55 1229.32 1860.14 1225.07 1860.44 1220.71 C 1867.72 1100.63 1876.24 980.633 1885.99 860.733 L 1891.76 778.552 C 1892.54 768.337 1894.23 758.213 1894.91 747.989 C 1900.18 669.189 1904.51 590.452 1911.19 511.74 C 1913.59 483.475 1913.11 454.782 1916.57 426.654 C 1924.16 432.201 1932.02 445.58 1937.27 453.495 C 1934.87 466.699 1934.99 480.119 1934.08 493.473 L 1928.73 583.005 C 1926.22 629.027 1921.77 675.055 1918.72 721.07 C 1904.23 944.853 1888.29 1168.54 1870.91 1392.12 L 1861.11 1514.35 C 1860.56 1520.48 1859.48 1526.53 1859.07 1532.68 C 1857.9 1550.35 1857.18 1568.07 1856.25 1585.75 C 1855.8 1594.43 1855.87 1603.57 1854.53 1612.15 C 1853.5 1618.72 1845.83 1622.29 1840.78 1625.76 L 1828.67 1635.57 z"/>
<path transform="translate(0,0)" fill="rgb(254,254,254)" d="M 1751.81 1564.38 C 1731.06 1559.07 1709.76 1555.45 1688.79 1551.04 L 1571.69 1526.26 L 1227.82 1452.11 L 1116.42 1428.5 C 1100.35 1425 1083.09 1422.37 1067.52 1417.16 C 1064.07 1413.53 1063.78 1408.81 1063.84 1403.99 C 1064 1390.46 1065.93 1377.01 1066.72 1363.52 C 1070.26 1302.57 1075.41 1241.78 1079.42 1180.88 L 1100.53 895.184 C 1108.02 792.063 1114.38 688.863 1119.6 585.602 L 1124.44 493.817 C 1125.33 478.335 1127.45 462.257 1127.33 446.812 C 1127.3 444.047 1126.64 441.494 1125.87 438.854 C 1125.76 438.469 1125.64 438.087 1125.53 437.704 C 1140.1 437.59 1154.83 438.9 1169.39 439.669 L 1232.84 442.444 L 1483.99 453.558 L 1727.63 466.254 C 1760.41 468.081 1793.57 468.733 1826.25 471.786 C 1815.86 627.196 1804.68 782.552 1792.71 937.849 L 1783.64 1064.89 C 1781.81 1090.13 1778.56 1116.4 1779.21 1141.72 C 1748.1 1095.89 1687.3 1006.56 1642.31 975.961 C 1612.17 955.468 1504.77 938.198 1491.08 923.113 C 1489.74 921.637 1488.8 920.376 1488.8 918.345 C 1498.47 911.835 1499.06 903.23 1505.19 898.423 C 1508.29 895.991 1510.87 896.228 1514.47 896.81 C 1519.62 900.267 1524.08 908.861 1527.54 914.038 C 1527.87 907.355 1528.64 901.408 1530.79 895.065 C 1534.67 883.588 1540.39 877.278 1551 872.085 C 1558.7 877.425 1560.82 882.446 1563.41 891.119 C 1560.71 899.592 1558.54 908.267 1556.2 916.849 C 1562.99 909.686 1570.61 900.597 1575.66 892.117 C 1584.15 877.878 1581.64 865.926 1577.76 850.788 C 1581.66 851.036 1585.57 850.947 1589.46 850.523 C 1599.55 849.332 1605.58 844.745 1611.71 837.117 C 1605.32 834.986 1599.02 832.888 1593.29 829.247 C 1583.39 822.949 1580.91 814.733 1578.66 803.922 C 1587.58 779.378 1609.63 761.862 1611.39 734.558 C 1612.53 716.994 1605.27 711.217 1594.98 698.953 C 1583.35 685.08 1593.21 674.333 1593.87 659.193 C 1594.46 645.584 1588.63 632.134 1579.21 622.437 C 1550.81 593.191 1513.72 605.058 1479.18 594.829 C 1458.84 588.803 1449.17 573.138 1425.57 572.717 C 1414.45 572.519 1399.24 574.153 1391.13 582.424 C 1385.11 588.563 1386.75 596.389 1387.1 604.23 L 1380.71 603.543 C 1370.45 602.504 1358.64 605.965 1350.79 612.721 C 1335.78 625.64 1338.74 644.476 1337.19 661.873 C 1336.35 671.326 1331.81 684.117 1322.62 688.5 C 1317.66 690.865 1311.76 691.97 1307.55 695.675 C 1306.11 696.94 1305.63 697.678 1305.83 699.701 C 1306.22 703.545 1310.13 708.553 1313.43 710.374 C 1322.05 715.123 1338.04 708.635 1346.9 705.9 C 1342.87 716.517 1338.88 726.888 1336.53 738.036 C 1332.83 755.611 1330.48 773.184 1328.44 791.018 C 1325.22 819.035 1320.55 850.324 1337.49 875.295 C 1344.68 885.891 1356.06 894.265 1368.69 896.868 C 1369.29 907.666 1369.77 918.471 1370.12 929.28 C 1331.64 946.852 1278.25 955.161 1241.84 977.431 C 1174.42 1018.67 1140.19 1150.71 1117.6 1223.25 C 1114.8 1232.23 1106.7 1264.85 1103.26 1269.93 C 1103.81 1264.4 1102.83 1257.36 1104.3 1252.13 C 1106.42 1244.54 1102.92 1239.75 1106.66 1234.44 C 1107.39 1207.93 1111.03 1181.43 1113.18 1155.01 L 1125.11 999.236 L 1137.99 797.983 C 1139.64 772.318 1142.32 746.631 1143.73 720.974 C 1145.71 684.942 1146.47 648.824 1148.72 612.811 C 1149.89 594.136 1158.89 473.908 1155.96 465.786 C 1155.04 463.257 1153.81 462.429 1151.53 461.215 C 1148.58 461.384 1148.21 461.433 1145.83 463.159 C 1142.04 473.201 1142.49 515.574 1141.69 529.672 L 1131.13 711.481 C 1121.64 873.95 1110.16 1036.3 1096.67 1198.48 C 1094.1 1232.28 1092.5 1266.24 1089.66 1299.99 C 1088.12 1318.21 1081.7 1369.47 1083.77 1384.83 C 1084.11 1387.35 1084.21 1387.78 1086.11 1389.3 C 1088.79 1389.74 1091.03 1390.22 1093.73 1389.54 C 1097.25 1385.6 1096.48 1367.71 1096.8 1361.96 C 1097.9 1341.6 1097.94 1317.54 1103.19 1297.91 C 1105.41 1289.62 1109.11 1281.54 1112.37 1273.6 C 1133.95 1205.43 1173.18 1062.05 1217.6 1011.99 C 1235.66 991.641 1258.44 978.586 1283.62 969.211 C 1293.7 965.458 1376.79 937.524 1378.13 936.294 C 1379.95 934.634 1378.9 903.309 1379.07 898.729 C 1392.85 900.107 1405.56 900.912 1419.38 898.941 C 1443.53 895.499 1461.53 886.62 1476.34 867.056 C 1474.97 882.594 1474.88 898.233 1475.08 913.817 C 1478.77 918.834 1480.67 925.744 1485.27 929.99 C 1510.6 953.376 1599.83 959.424 1634.98 983.169 C 1671.64 1007.94 1717.06 1072.92 1743.02 1109.69 C 1754.34 1125.72 1766.12 1141.53 1776.68 1158.07 C 1775.78 1187.81 1772.77 1217.73 1770.68 1247.42 L 1759.3 1414.84 C 1758.41 1428.74 1756.57 1442.59 1756 1456.5 C 1746.13 1465.31 1699.17 1507.46 1698.55 1516.96 C 1700.23 1518.99 1700.3 1518.74 1702.96 1519.01 C 1720.88 1507.8 1740.8 1485.44 1756.24 1470.36 C 1752.83 1490.61 1752.99 1512.8 1751.58 1533.37 C 1734.92 1527.91 1717.61 1524.84 1700.49 1521.24 C 1670.02 1514.82 1639.24 1509.2 1609.15 1501.23 C 1617.1 1491.33 1627.11 1482.85 1635.74 1473.5 C 1658.23 1449.14 1679.45 1423.67 1701.77 1399.16 C 1717.21 1382.21 1735.1 1365.66 1748.95 1347.52 C 1751.38 1344.34 1754.81 1339.58 1755.02 1335.38 C 1755.15 1332.79 1754.61 1331.53 1752.99 1329.58 C 1737.89 1338.09 1618.1 1477.72 1600.7 1499.92 C 1511 1478.64 1420.41 1461.5 1330.46 1441.47 C 1276.33 1429.03 1222.01 1417.44 1167.52 1406.7 C 1148.46 1402.76 1129.36 1397.03 1110.24 1393.83 C 1105.99 1393.12 1102.05 1392.52 1098.19 1394.76 C 1097 1397.2 1096.95 1397.54 1097.26 1400.23 C 1099.4 1403.07 1105.58 1404.14 1108.97 1404.97 C 1165.86 1418.87 1223.31 1429.62 1280.49 1442.13 L 1751.17 1544.27 C 1750.54 1551.21 1750.16 1557.53 1751.81 1564.38 z M 1278.38 481.615 C 1269.69 489.646 1174.43 594.796 1172.68 598.489 L 1172.83 601.097 C 1173.44 601.616 1174.18 602.451 1174.95 602.692 C 1203.66 572.635 1232.46 542.76 1259.46 511.126 C 1266.38 503.016 1275.37 494.212 1280.44 484.848 L 1280.2 482.966 L 1278.38 481.615 z M 1317.73 501.102 C 1303.05 515.72 1192.21 632.542 1190.68 636.131 L 1190.99 637.014 C 1205.03 623.538 1315.37 511.591 1317.73 501.102 z M 1703.27 631.6 L 1702.9 632.499 C 1696.13 649.557 1694.36 662.837 1680.26 676.206 C 1689.62 683.987 1693.93 696.054 1694.83 708.017 C 1695.04 710.73 1694.53 713.555 1696.24 715.835 L 1698.12 716.683 C 1698.42 714.721 1698.74 712.769 1699 710.801 C 1700.62 698.257 1708.11 683.78 1718.2 676.186 C 1718.62 675.87 1719.05 675.564 1719.47 675.254 C 1710.12 666.454 1704.85 657.558 1704.31 644.265 C 1704.17 640.788 1705.68 634.754 1703.72 631.999 C 1703.6 631.835 1703.42 631.733 1703.27 631.6 z M 1222.05 802.287 C 1218.59 813.901 1217.59 825.061 1210.02 835.172 C 1206.33 840.108 1198.02 844.101 1195.88 849.486 L 1196.72 850.7 C 1197.38 850.671 1198.04 850.632 1198.7 850.614 C 1201.57 850.533 1203.62 850.999 1205.75 853.026 C 1214.77 861.633 1209.97 878.605 1217.04 884.519 C 1220.68 871.795 1225.5 854.248 1238.09 847.358 C 1240.06 846.281 1242.22 845.479 1244.31 844.677 C 1234.21 838.143 1228.12 831.853 1225.59 819.537 C 1224.85 815.926 1225.55 805.159 1223.43 803.091 C 1223.05 802.72 1222.51 802.555 1222.05 802.287 z M 1712.02 873.329 C 1707.47 890.409 1702.17 904.653 1689.33 917.223 C 1696.45 924.037 1701.59 933.143 1701.83 943.213 C 1701.94 948.116 1700.08 958.73 1702.63 962.597 L 1704.08 962.652 C 1707.31 944.324 1712.5 930.702 1727.88 918.9 C 1719.47 909.537 1714.78 898.416 1714.01 885.783 C 1713.84 882.847 1714.59 878.206 1713.87 875.552 C 1713.68 874.871 1712.58 873.763 1712.02 873.329 z M 1551.53 974.572 C 1528.35 975.99 1462.39 986.83 1446.9 1004.19 C 1445.5 1005.77 1445.46 1005.92 1445.47 1008.11 C 1447.68 1009.81 1448.16 1009.8 1450.97 1010.07 C 1470.29 1000.58 1492.25 994.358 1513.26 989.79 C 1522.37 987.812 1550.87 985.009 1556.58 979.621 C 1556.96 977.237 1556.86 977.319 1555.53 975.28 C 1553.75 974.528 1553.41 973.881 1551.53 974.572 z M 1293.97 981.059 C 1291.95 982.707 1291.38 983 1290.53 985.423 C 1292.08 988.189 1293.44 989.027 1296.52 989.859 C 1307.65 992.866 1319.74 993.194 1331.09 995.374 C 1348.4 998.698 1365.32 1005.38 1381.65 1011.82 C 1383.41 1009.4 1383.79 1008.9 1384.11 1005.95 C 1382.24 1001.67 1377.36 999.681 1373.24 998.056 C 1348.68 988.353 1320.16 983.024 1293.97 981.059 z M 1236.81 1080.39 C 1226.82 1100.03 1231.1 1174.34 1233.21 1199.04 C 1234.08 1209.19 1238.01 1221.4 1236.1 1231.39 C 1233.34 1245.83 1216.5 1276.18 1209.52 1290.57 C 1200.13 1309.95 1191.77 1329.94 1182.73 1349.51 C 1176.8 1362.35 1169.46 1375.52 1164.44 1388.66 C 1163.09 1392.18 1161.51 1396.86 1162.3 1400.66 C 1162.61 1402.15 1162.76 1401.74 1164.31 1402.71 C 1166.79 1402.05 1168.68 1400.89 1170.03 1398.63 C 1174.29 1391.51 1177.03 1382.03 1180.78 1374.36 C 1189.17 1357.2 1198.01 1340.22 1206.2 1322.98 C 1214.23 1306.05 1221.34 1288.84 1230.36 1272.39 C 1234.21 1264 1237.47 1254.83 1242.05 1246.85 C 1246.62 1284.35 1252.67 1321.73 1258.23 1359.09 C 1260.6 1375.05 1261.23 1393.15 1265.81 1408.52 C 1266.39 1410.49 1266.9 1411.27 1268.46 1412.61 C 1268.83 1412.93 1269.24 1413.2 1269.62 1413.5 L 1273.02 1412.81 C 1274.22 1409.83 1274.54 1407.28 1274.31 1404.06 C 1273.04 1386.01 1268.96 1367.15 1266.38 1349.16 C 1262.26 1320.47 1258.99 1291.52 1254.21 1262.95 C 1251.75 1248.29 1247.98 1233.87 1245.86 1219.16 C 1243.26 1200.97 1241.63 1182.66 1241 1164.3 C 1240.62 1148.96 1240.21 1133.18 1241.09 1117.87 C 1241.59 1109.22 1243.23 1100.5 1243.17 1091.84 C 1243.15 1089.31 1243.2 1085.81 1241.88 1083.54 C 1240.55 1081.25 1239.16 1081.11 1236.81 1080.39 z M 1379.55 1127.35 C 1372.53 1135.12 1371.12 1183.45 1371.81 1195.4 C 1371.91 1197.14 1372.04 1198.51 1372.8 1200.11 C 1374.56 1200.96 1376.21 1201.7 1378.09 1202.26 C 1380.56 1195.93 1385.32 1138.46 1384.59 1129.48 C 1383.07 1127.81 1381.71 1127.75 1379.55 1127.35 z M 1589.54 1142.03 C 1589.78 1145.02 1589.44 1147.01 1592.17 1148.92 C 1595.45 1151.23 1599.78 1152.93 1603.36 1154.79 C 1613.54 1160.09 1622.2 1165.88 1630 1174.38 C 1617.9 1208.39 1607.18 1242.87 1597.85 1277.75 C 1588.25 1314.58 1582.87 1352.6 1576.01 1390 C 1571.38 1415.24 1564.79 1441.04 1561.83 1466.48 C 1561.39 1470.26 1561.59 1473.53 1562.61 1477.18 L 1564.23 1478.82 C 1567.13 1477.71 1568.55 1475.98 1569.86 1473.16 C 1573.83 1464.65 1579.25 1427.06 1581.3 1415.88 C 1590.73 1364.57 1598.35 1311.83 1613.17 1261.75 C 1617.68 1246.18 1622.31 1230.64 1627.05 1215.13 C 1630.1 1205.14 1634.42 1194.54 1635.62 1184.2 L 1636.36 1183.21 C 1645.14 1189.3 1662.3 1216.79 1669.4 1226.76 C 1678.82 1239.98 1740.75 1326.28 1750.45 1328.06 C 1752.47 1327.33 1752.63 1327.24 1753.87 1325.49 C 1753.76 1322.84 1753.23 1320.97 1751.88 1318.66 C 1744.76 1306.52 1733.97 1295.03 1725.58 1283.59 C 1704.08 1254.3 1682.93 1224.44 1660.61 1195.81 C 1651.18 1183.73 1641.65 1170.28 1630.33 1159.9 C 1618.37 1148.92 1606.11 1142.19 1589.54 1142.03 z M 1280.59 1192.55 C 1279.36 1195.56 1277.65 1199.05 1278.59 1202.39 C 1279.25 1204.71 1281.02 1206.56 1283.33 1207.31 C 1285.03 1207.85 1287.32 1207.57 1289.06 1207.51 C 1291.07 1205.54 1292.47 1204.02 1292.51 1200.95 C 1292.54 1198.42 1291.26 1196.29 1289.34 1194.72 C 1286.69 1192.55 1283.83 1192.64 1280.59 1192.55 z M 1493.49 1208.56 C 1489.61 1210.51 1488.02 1215.2 1489.9 1219.1 C 1491.79 1223.01 1496.47 1224.67 1500.4 1222.83 C 1502.98 1221.62 1504.72 1219.11 1504.94 1216.27 C 1505.16 1213.42 1503.83 1210.67 1501.46 1209.08 C 1499.09 1207.48 1496.05 1207.29 1493.49 1208.56 z M 1268.66 1246.28 C 1268.49 1249.79 1267.98 1252.98 1269.68 1256.19 C 1278.08 1263.72 1320.02 1266.22 1332.33 1266.03 C 1332.73 1262.57 1333.17 1261.5 1331.61 1258.3 C 1319.49 1253.99 1304.79 1254.92 1292 1252.89 C 1283.48 1251.53 1276.77 1248.56 1268.66 1246.28 z M 1556.35 1259.02 C 1530.76 1272.64 1487.12 1273.72 1458.21 1271.4 C 1449.26 1270.68 1436.78 1267.33 1428.11 1269.06 C 1425.67 1269.55 1424.74 1270.13 1423.58 1272.27 C 1426.36 1275.84 1429.69 1276.68 1434.02 1277.19 C 1434.35 1277.22 1434.69 1277.26 1435.03 1277.29 C 1466.1 1283.16 1532.23 1286.18 1558.85 1268.23 C 1560.5 1267.12 1561.35 1265.89 1562.26 1264.12 C 1561.93 1261.44 1561.41 1261.36 1559.42 1259.47 L 1556.35 1259.02 z M 1658.63 1282.75 C 1648.79 1297.2 1629.47 1340.66 1625.35 1357.55 L 1625.64 1357.8 C 1630.26 1348.08 1659.7 1288.93 1659.67 1284.05 L 1658.63 1282.75 z M 1673.1 1286.62 C 1665.78 1302.52 1655.5 1319.16 1651.14 1336.09 L 1652.06 1336.51 L 1652.34 1336.38 C 1656.24 1329.16 1674.84 1293.84 1674.85 1288.45 C 1673.62 1286.75 1674.32 1287.22 1673.1 1286.62 z M 1382.88 1384.44 C 1377 1392.19 1378.56 1405.24 1379.86 1414.47 C 1380.4 1418.29 1380.84 1422.07 1383.52 1425.03 L 1386.4 1426.41 C 1391.44 1420.13 1389.23 1408.14 1388.35 1400.29 C 1387.83 1395.61 1387.75 1388.15 1383.85 1385.02 C 1383.56 1384.79 1383.2 1384.63 1382.88 1384.44 z"/>
<path transform="translate(0,0)" fill="rgb(4,4,2)" d="M 1174.95 602.692 C 1174.18 602.451 1173.44 601.616 1172.83 601.097 L 1172.68 598.489 C 1174.43 594.796 1269.69 489.646 1278.38 481.615 L 1280.2 482.966 L 1280.44 484.848 C 1275.37 494.212 1266.38 503.016 1259.46 511.126 C 1232.46 542.76 1203.66 572.635 1174.95 602.692 z"/>
<path transform="translate(0,0)" fill="rgb(4,4,2)" d="M 436.304 541.925 C 438.855 537.697 441.414 533.44 444.378 529.484 C 463.758 503.616 492.124 488.047 523.807 483.349 C 550.753 480.76 577.945 486.637 604.678 489.417 C 627.84 491.826 652.736 492.314 675.215 498.526 C 688.096 502.057 700.228 507.901 711.018 515.771 C 768.131 557.918 727.067 610.656 735.764 666.423 C 741.052 673.596 746.468 675.458 751.356 680.816 C 752.791 682.387 752.616 682.746 752.399 684.715 C 744.748 689.318 741.133 682.992 733.749 683.602 C 733.537 683.62 730.937 684.197 730.593 684.557 C 729.344 685.863 732.485 712.392 732.704 717.159 C 734.606 758.52 734.638 865.151 711.439 897.014 C 701.154 911.14 686.176 914.276 670.047 916.939 C 669.783 940.338 669.77 963.74 670.006 987.139 C 681.426 991.229 693.105 994.559 704.477 998.809 C 754.631 1017.55 850.283 1058.43 876.833 1105.82 C 887.989 1125.73 891.92 1153.82 895.502 1176.32 C 900.543 1207.98 903.212 1240.29 906.62 1272.17 L 922.041 1412.65 C 931.372 1497.34 943.64 1581.99 950.606 1666.9 C 951.144 1673.46 952.471 1682.49 950.341 1688.78 C 949.472 1691.35 948.651 1692.13 946.3 1693.32 C 940.375 1691.79 941.368 1687.47 940.464 1682.36 C 929.812 1622.2 924.468 1560.87 917.681 1500.15 L 893.768 1299.59 C 888.238 1253.46 884.266 1206.85 874.892 1161.28 C 871.515 1144.86 866.734 1123.75 857.086 1109.86 C 829.451 1070.08 751.214 1036.12 706.18 1017.85 C 697.655 1014.39 660.822 1003.88 657.106 998.62 C 654.877 984.275 658.2 906.261 661.962 890.574 C 665.794 888.062 668.844 885.407 671.563 881.687 C 674.007 878.342 677.291 873.927 676.583 869.558 C 674.853 868.133 674.833 868.014 672.702 868.225 C 664.368 869.049 650.58 880.58 645.411 886.992 C 629.365 906.894 650.766 906.165 651.974 918.726 C 651.219 919.425 651.163 919.543 650.117 920.125 C 641.63 924.852 628.683 922.407 619.905 919.363 C 605.398 914.333 592.234 903.971 585.593 889.984 C 579.658 902.486 574.069 915.727 564.338 925.827 C 551.995 938.638 538.513 940.955 521.593 941.338 C 519.562 953.423 517.217 969.769 510.407 980.181 C 509.468 981.617 507.993 983.667 506.337 984.34 C 501.272 986.397 492.447 986.449 486.894 987.424 C 469.583 990.463 452.333 994.011 435.082 997.379 C 407.708 1002.28 379.644 1009.35 353.731 1019.58 C 333.602 1027.53 311.72 1042.05 297.515 1058.36 C 270.153 1089.78 253.133 1129.91 232.913 1166.06 C 194.924 1233.98 154.629 1301.51 123.469 1372.95 C 115.697 1390.77 105.419 1413.24 104.745 1432.89 C 104.458 1441.26 107.538 1451.09 109.888 1459.05 C 127.701 1519.4 181.046 1562.7 227.336 1601.5 C 234.836 1607.79 250.521 1616.46 253.703 1625.64 C 254.448 1627.79 254.292 1628.04 253.285 1629.92 C 252.534 1630.28 252.229 1630.48 251.304 1630.58 C 245.785 1631.18 239.95 1627.87 235.492 1624.98 C 224.425 1617.8 214.189 1608.9 203.951 1600.58 C 157.057 1562.46 108.195 1512.2 95.7316 1450.82 C 92.9296 1437.02 92.9083 1424.96 96.5737 1411.33 C 103.46 1385.73 115.017 1360.95 126.326 1337.05 C 142.997 1301.82 160.931 1267.86 179.673 1233.71 C 197.894 1200.5 215.474 1167.05 234.114 1134.06 C 246.621 1111.93 257.216 1088.19 271.306 1067.03 C 320.968 992.425 419.327 984.99 499.441 968.824 C 503.39 956.946 506.519 944.517 508.986 932.25 C 494.39 939.508 482.757 947.05 466.082 948.241 C 459.524 948.71 448.017 949.619 442.964 945.211 C 441.456 934.749 457.073 926.335 456.379 913.885 C 456.233 911.275 455.239 908.798 453.805 906.637 C 450.768 902.06 443.905 898.631 439.735 894.956 C 435.355 891.096 432.111 886.083 427.694 882.121 L 426.378 882.221 C 421.516 892.009 428.262 904.425 429.515 914.389 C 429.853 917.071 429.339 918.167 427.793 920.273 C 426.576 920.673 426.41 920.798 424.97 920.894 C 418.202 921.348 408.818 914.822 404.335 910.261 C 394.979 900.745 390.303 888.076 390.638 874.85 C 382.407 877.608 373.33 883.82 364.448 883.485 C 361.659 883.38 360.085 882.398 358.136 880.45 C 357.711 878.55 357.387 877.862 358.329 876.031 C 362.356 868.209 369.222 864.046 373.863 853.088 C 377.094 845.46 378.386 837.23 378.517 828.987 C 379.041 796.107 353.466 779.127 342.04 750.913 C 333.98 731.013 338.138 711.368 349.43 693.89 C 354.204 686.5 359.653 679.672 362.996 671.48 C 363.167 671.06 363.329 670.638 363.496 670.216 C 363.454 669.963 363.416 669.709 363.372 669.456 C 363.298 669.034 363.208 668.616 363.141 668.193 C 359.281 643.81 348.379 643.667 352.423 611.771 C 355.326 588.872 365.191 571.441 383.581 557.442 C 399.062 545.657 416.798 539.179 436.304 541.925 z M 707.533 618.988 C 705.133 625.847 702.439 632.744 700.928 639.861 C 707.755 651.496 714.647 667.049 725.479 675.418 L 729.886 674.655 C 728.934 669.25 722.584 663.561 720.473 657.798 C 716.157 646.022 714.464 629.305 707.533 618.988 z M 716.656 679.412 C 717.547 693.746 720.47 711.841 710.253 723.583 C 708.669 725.404 706.941 727.109 705.227 728.808 C 710.355 741.914 722.432 785.67 716.773 797.402 C 714.635 801.833 710.578 803.984 706.068 805.399 C 703.753 806.126 701.415 806.694 699.042 807.191 C 708.128 824.171 712.438 839.525 706.94 858.488 C 703.085 871.788 694.255 884.178 681.912 890.759 C 678.92 892.356 675.851 893.804 672.716 895.097 C 671.128 896.192 670.524 896.094 670.069 898.119 C 669.578 900.301 669.897 901.458 670.461 903.551 C 672.26 905.654 673.134 907.006 676.099 907.415 C 683.082 908.377 697.703 899.249 702.085 894.424 C 725.802 868.311 727.339 741.109 724.55 703.693 C 724.109 697.781 723.379 684.909 718.656 680.925 C 718.017 680.386 717.34 679.893 716.656 679.412 z M 682.059 729.763 C 675.557 737.136 674.754 745.388 675.361 754.916 C 676.161 767.465 680.183 789.59 690.799 797.588 C 692.243 798.676 693.376 799.102 695.094 799.539 C 690.404 787.202 676.115 754.865 681.554 742.162 C 683.188 738.346 685.342 734.869 686.681 730.915 C 684.877 729.837 684.107 729.883 682.059 729.763 z M 690.795 731.549 C 688.704 749.296 690.426 777.853 703.22 791.879 C 704.349 793.117 705.191 793.596 706.721 794.182 C 709.768 788.451 702.789 745.354 700.417 737.191 C 699.923 735.492 699.247 734.171 698.297 732.696 C 695.655 731.438 693.632 731.5 690.795 731.549 z"/>
<path transform="translate(0,0)" fill="rgb(4,4,2)" d="M 1190.99 637.014 L 1190.68 636.131 C 1192.21 632.542 1303.05 515.72 1317.73 501.102 C 1315.37 511.591 1205.03 623.538 1190.99 637.014 z"/>
<path transform="translate(0,0)" fill="rgb(254,254,254)" d="M 700.928 639.861 C 702.439 632.744 705.133 625.847 707.533 618.988 C 714.464 629.305 716.157 646.022 720.473 657.798 C 722.584 663.561 728.934 669.25 729.886 674.655 L 725.479 675.418 C 714.647 667.049 707.755 651.496 700.928 639.861 z"/>
<path transform="translate(0,0)" fill="rgb(4,4,2)" d="M 1680.26 676.206 C 1694.36 662.837 1696.13 649.557 1702.9 632.499 L 1703.27 631.6 C 1703.42 631.733 1703.6 631.835 1703.72 631.999 C 1705.68 634.754 1704.17 640.788 1704.31 644.265 C 1704.85 657.558 1710.12 666.454 1719.47 675.254 C 1719.05 675.564 1718.62 675.87 1718.2 676.186 C 1708.11 683.78 1700.62 698.257 1699 710.801 C 1698.74 712.769 1698.42 714.721 1698.12 716.683 L 1696.24 715.835 C 1694.53 713.555 1695.04 710.73 1694.83 708.017 C 1693.93 696.054 1689.62 683.987 1680.26 676.206 z M 1700.42 650.789 C 1697.17 660.427 1693.26 666.899 1686.91 674.817 C 1690.47 682.231 1693.7 690.857 1698.3 697.629 L 1699.26 697.409 C 1702.73 688.637 1706.8 682.238 1712.95 675.12 C 1707.53 668.071 1704.33 661.489 1701.48 653.099 C 1700.93 651.468 1701.24 652.138 1700.42 650.789 z"/>
<path transform="translate(0,0)" fill="rgb(254,254,254)" d="M 1338.08 793.473 C 1342.06 770.182 1343.13 746.99 1350.32 724.252 C 1358.3 699.011 1372 651.684 1396.42 638.952 C 1397.86 638.984 1399.32 639.129 1400.76 639.225 C 1405.66 644.499 1407.19 654.635 1410.52 661.248 C 1423.9 687.823 1456.83 684.987 1480.83 692.728 C 1497.54 698.12 1510.32 706.257 1518.57 722.181 C 1513.77 742.572 1487.47 808.363 1473.27 821.586 C 1471.12 816.109 1469.95 812.71 1464.78 809.537 C 1450.88 804.454 1437.42 807.927 1423.19 808.578 C 1407.59 809.292 1379.32 807.536 1365.26 800.876 C 1358.75 797.796 1352.73 791.636 1346.79 787.419 L 1338.08 793.473 z M 1372.46 691.144 C 1368.72 692.286 1363.65 693.476 1361.48 697.049 C 1360.62 698.46 1361.17 699.059 1361.54 700.531 C 1369.08 707.553 1385.89 708.261 1395.77 711.053 C 1398.78 710.718 1400.97 709.887 1403.73 708.637 C 1404.75 707.245 1405.54 706.863 1405.35 705.025 C 1404.97 701.432 1402.42 699.044 1399.65 697.021 C 1391.33 690.955 1382.28 690.592 1372.46 691.144 z M 1451.94 708.386 C 1449.53 709.693 1448.25 710.259 1447.14 712.981 C 1446.32 714.99 1446.89 717.475 1448.16 719.166 C 1452.63 725.133 1466.95 724.848 1473.9 727.04 C 1479.26 728.733 1484.24 731.439 1488.89 734.578 C 1491.06 733.089 1492.8 732.577 1493.15 729.666 C 1493.63 725.637 1491.75 720.897 1488.93 718.058 C 1480.24 709.302 1463.52 708.804 1451.94 708.386 z M 1370.64 721.93 C 1367.12 724.183 1364.3 726.321 1363.2 730.549 C 1362.52 733.185 1362.86 735.864 1364.38 738.163 C 1366.55 741.433 1369.35 742.102 1372.97 742.466 C 1373.29 742.499 1373.61 742.522 1373.94 742.55 C 1377.75 739.771 1380.76 737.873 1381.47 732.857 C 1381.86 730.061 1381.29 727.552 1379.38 725.387 C 1376.88 722.551 1374.15 722.075 1370.64 721.93 z M 1407.05 727.61 C 1403.1 741.612 1397.22 757.167 1390.29 769.945 C 1388.51 773.214 1384.21 775.685 1382.98 779.116 C 1381.84 782.296 1381.85 786.066 1383.58 789.041 C 1385.15 791.74 1387.59 794.073 1389.82 796.231 L 1391.19 796.03 C 1389.88 789.904 1386.14 783.664 1389.8 777.699 C 1391.49 774.947 1394.03 774.222 1396.89 773.147 L 1397.21 771.702 C 1399.49 761.746 1414.16 737.782 1408.7 729.214 C 1408.22 728.467 1407.71 728.13 1407.05 727.61 z M 1454.17 734.961 C 1449.81 737.565 1446.39 740.053 1444.91 745.14 C 1444.32 747.178 1444.32 749.223 1445.31 751.148 C 1446.38 753.228 1448.29 754.573 1450.55 755.064 C 1452.45 755.477 1454.48 755.616 1456.42 755.651 C 1459.81 753.732 1463.15 751.276 1464.33 747.336 C 1465.1 744.788 1465.21 742.201 1463.82 739.828 C 1461.61 736.07 1458.09 735.586 1454.17 734.961 z"/>
<path transform="translate(0,0)" fill="rgb(254,254,254)" d="M 1686.91 674.817 C 1693.26 666.899 1697.17 660.427 1700.42 650.789 C 1701.24 652.138 1700.93 651.468 1701.48 653.099 C 1704.33 661.489 1707.53 668.071 1712.95 675.12 C 1706.8 682.238 1702.73 688.637 1699.26 697.409 L 1698.3 697.629 C 1693.7 690.857 1690.47 682.231 1686.91 674.817 z"/>
<path transform="translate(0,0)" fill="rgb(254,254,254)" d="M 705.227 728.808 C 706.941 727.109 708.669 725.404 710.253 723.583 C 720.47 711.841 717.547 693.746 716.656 679.412 C 717.34 679.893 718.017 680.386 718.656 680.925 C 723.379 684.909 724.109 697.781 724.55 703.693 C 727.339 741.109 725.802 868.311 702.085 894.424 C 697.703 899.249 683.082 908.377 676.099 907.415 C 673.134 907.006 672.26 905.654 670.461 903.551 C 669.897 901.458 669.578 900.301 670.069 898.119 C 670.524 896.094 671.128 896.192 672.716 895.097 C 675.851 893.804 678.92 892.356 681.912 890.759 C 694.255 884.178 703.085 871.788 706.94 858.488 C 712.438 839.525 708.128 824.171 699.042 807.191 C 701.415 806.694 703.753 806.126 706.068 805.399 C 710.578 803.984 714.635 801.833 716.773 797.402 C 722.432 785.67 710.355 741.914 705.227 728.808 z"/>
<path transform="translate(0,0)" fill="rgb(4,4,2)" d="M 1395.77 711.053 C 1385.89 708.261 1369.08 707.553 1361.54 700.531 C 1361.17 699.059 1360.62 698.46 1361.48 697.049 C 1363.65 693.476 1368.72 692.286 1372.46 691.144 C 1382.28 690.592 1391.33 690.955 1399.65 697.021 C 1402.42 699.044 1404.97 701.432 1405.35 705.025 C 1405.54 706.863 1404.75 707.245 1403.73 708.637 C 1400.97 709.887 1398.78 710.718 1395.77 711.053 z"/>
<path transform="translate(0,0)" fill="rgb(4,4,2)" d="M 1488.89 734.578 C 1484.24 731.439 1479.26 728.733 1473.9 727.04 C 1466.95 724.848 1452.63 725.133 1448.16 719.166 C 1446.89 717.475 1446.32 714.99 1447.14 712.981 C 1448.25 710.259 1449.53 709.693 1451.94 708.386 C 1463.52 708.804 1480.24 709.302 1488.93 718.058 C 1491.75 720.897 1493.63 725.637 1493.15 729.666 C 1492.8 732.577 1491.06 733.089 1488.89 734.578 z"/>
<path transform="translate(0,0)" fill="rgb(4,4,2)" d="M 1373.94 742.55 C 1373.61 742.522 1373.29 742.499 1372.97 742.466 C 1369.35 742.102 1366.55 741.433 1364.38 738.163 C 1362.86 735.864 1362.52 733.185 1363.2 730.549 C 1364.3 726.321 1367.12 724.183 1370.64 721.93 C 1374.15 722.075 1376.88 722.551 1379.38 725.387 C 1381.29 727.552 1381.86 730.061 1381.47 732.857 C 1380.76 737.873 1377.75 739.771 1373.94 742.55 z"/>
<path transform="translate(0,0)" fill="rgb(4,4,2)" d="M 1389.82 796.231 C 1387.59 794.073 1385.15 791.74 1383.58 789.041 C 1381.85 786.066 1381.84 782.296 1382.98 779.116 C 1384.21 775.685 1388.51 773.214 1390.29 769.945 C 1397.22 757.167 1403.1 741.612 1407.05 727.61 C 1407.71 728.13 1408.22 728.467 1408.7 729.214 C 1414.16 737.782 1399.49 761.746 1397.21 771.702 L 1396.89 773.147 C 1394.03 774.222 1391.49 774.947 1389.8 777.699 C 1386.14 783.664 1389.88 789.904 1391.19 796.03 L 1389.82 796.231 z"/>
<path transform="translate(0,0)" fill="rgb(254,254,254)" d="M 695.094 799.539 C 693.376 799.102 692.243 798.676 690.799 797.588 C 680.183 789.59 676.161 767.465 675.361 754.916 C 674.754 745.388 675.557 737.136 682.059 729.763 C 684.107 729.883 684.877 729.837 686.681 730.915 C 685.342 734.869 683.188 738.346 681.554 742.162 C 676.115 754.865 690.404 787.202 695.094 799.539 z"/>
<path transform="translate(0,0)" fill="rgb(254,254,254)" d="M 706.721 794.182 C 705.191 793.596 704.349 793.117 703.22 791.879 C 690.426 777.853 688.704 749.296 690.795 731.549 C 693.632 731.5 695.655 731.438 698.297 732.696 C 699.247 734.171 699.923 735.492 700.417 737.191 C 702.789 745.354 709.768 788.451 706.721 794.182 z"/>
<path transform="translate(0,0)" fill="rgb(4,4,2)" d="M 1456.42 755.651 C 1454.48 755.616 1452.45 755.477 1450.55 755.064 C 1448.29 754.573 1446.38 753.228 1445.31 751.148 C 1444.32 749.223 1444.32 747.178 1444.91 745.14 C 1446.39 740.053 1449.81 737.565 1454.17 734.961 C 1458.09 735.586 1461.61 736.07 1463.82 739.828 C 1465.21 742.201 1465.1 744.788 1464.33 747.336 C 1463.15 751.276 1459.81 753.732 1456.42 755.651 z"/>
<path transform="translate(0,0)" fill="rgb(254,254,254)" d="M 1524.17 775.799 C 1521.02 776.909 1516.49 781.199 1513.79 780.746 C 1513.91 778.974 1514.03 777.559 1514.95 775.972 C 1517.17 772.141 1521.63 771.969 1525.56 771.285 C 1531.91 771.132 1537.38 772.047 1543.53 773.425 C 1536.95 774.316 1530.74 774.33 1524.17 775.799 z"/>
<path transform="translate(0,0)" fill="rgb(254,254,254)" d="M 1511.14 788.204 C 1518.92 784.471 1526.64 780.455 1534.95 778.022 C 1537.01 778.009 1539.33 777.887 1541.23 778.814 C 1545.46 780.878 1546.61 787.626 1547.87 791.733 C 1538.88 807.828 1527.12 816.504 1509.75 822.443 C 1505.91 823.505 1500.18 825.26 1496.43 823.639 C 1497.01 818.452 1508.54 798.512 1511.14 788.204 z"/>
<path transform="translate(0,0)" fill="rgb(4,4,2)" d="M 1217.04 884.519 C 1209.97 878.605 1214.77 861.633 1205.75 853.026 C 1203.62 850.999 1201.57 850.533 1198.7 850.614 C 1198.04 850.632 1197.38 850.671 1196.72 850.7 L 1195.88 849.486 C 1198.02 844.101 1206.33 840.108 1210.02 835.172 C 1217.59 825.061 1218.59 813.901 1222.05 802.287 C 1222.51 802.555 1223.05 802.72 1223.43 803.091 C 1225.55 805.159 1224.85 815.926 1225.59 819.537 C 1228.12 831.853 1234.21 838.143 1244.31 844.677 C 1242.22 845.479 1240.06 846.281 1238.09 847.358 C 1225.5 854.248 1220.68 871.795 1217.04 884.519 z M 1221.37 819.639 C 1217.47 830.905 1211.88 838.78 1203.52 847.133 C 1211.13 853.08 1212.49 857.767 1216.06 866.487 C 1216.54 867.673 1216.36 867.266 1217.39 868.31 C 1222.69 858.651 1227.41 851.594 1235.46 844.069 C 1227.42 837.162 1224.72 829.344 1221.37 819.639 z"/>
<path transform="translate(0,0)" fill="rgb(254,254,254)" d="M 1439.24 853.044 C 1438.73 853.369 1438.23 853.699 1437.72 854.018 C 1420.98 864.465 1401.31 870.055 1381.77 865.061 C 1365.29 860.846 1356.17 847.788 1347.89 833.928 C 1342.66 825.19 1339.21 816.516 1341.72 806.359 C 1362.04 817.188 1399.14 817.581 1422.01 816.981 C 1429.67 816.779 1437.9 815.523 1445.51 816.116 C 1448.06 816.315 1450.14 816.948 1451.61 819.237 C 1454.45 823.656 1452.3 833.614 1451.21 838.559 C 1449.52 846.204 1445.55 849.101 1439.24 853.044 z M 1368.94 823.237 C 1372.42 828.825 1378.32 830.268 1384.48 831.752 C 1394.22 834.099 1406.06 835.974 1415.78 833.128 L 1415.63 830.799 C 1410.2 827.173 1376.74 823.454 1368.94 823.237 z"/>
<path transform="translate(0,0)" fill="rgb(254,254,254)" d="M 1203.52 847.133 C 1211.88 838.78 1217.47 830.905 1221.37 819.639 C 1224.72 829.344 1227.42 837.162 1235.46 844.069 C 1227.41 851.594 1222.69 858.651 1217.39 868.31 C 1216.36 867.266 1216.54 867.673 1216.06 866.487 C 1212.49 857.767 1211.13 853.08 1203.52 847.133 z"/>
<path transform="translate(0,0)" fill="rgb(4,4,2)" d="M 1415.78 833.128 C 1406.06 835.974 1394.22 834.099 1384.48 831.752 C 1378.32 830.268 1372.42 828.825 1368.94 823.237 C 1376.74 823.454 1410.2 827.173 1415.63 830.799 L 1415.78 833.128 z"/>
<path transform="translate(0,0)" fill="rgb(4,4,2)" d="M 1689.33 917.223 C 1702.17 904.653 1707.47 890.409 1712.02 873.329 C 1712.58 873.763 1713.68 874.871 1713.87 875.552 C 1714.59 878.206 1713.84 882.847 1714.01 885.783 C 1714.78 898.416 1719.47 909.537 1727.88 918.9 C 1712.5 930.702 1707.31 944.324 1704.08 962.652 L 1702.63 962.597 C 1700.08 958.73 1701.94 948.116 1701.83 943.213 C 1701.59 933.143 1696.45 924.037 1689.33 917.223 z M 1710.29 893.661 C 1705.7 902.366 1701.4 909.558 1694.38 916.539 C 1699.3 923.659 1701.96 930.366 1704.24 938.665 C 1704.75 940.513 1704.41 939.804 1705.38 941.163 C 1709.9 932.494 1715.16 925.255 1721.44 917.791 C 1716.6 911.169 1712.98 896.648 1710.29 893.661 z"/>
<path transform="translate(0,0)" fill="rgb(254,254,254)" d="M 1694.38 916.539 C 1701.4 909.558 1705.7 902.366 1710.29 893.661 C 1712.98 896.648 1716.6 911.169 1721.44 917.791 C 1715.16 925.255 1709.9 932.494 1705.38 941.163 C 1704.41 939.804 1704.75 940.513 1704.24 938.665 C 1701.96 930.366 1699.3 923.659 1694.38 916.539 z"/>
<path transform="translate(0,0)" fill="rgb(4,4,2)" d="M 1450.97 1010.07 C 1448.16 1009.8 1447.68 1009.81 1445.47 1008.11 C 1445.46 1005.92 1445.5 1005.77 1446.9 1004.19 C 1462.39 986.83 1528.35 975.99 1551.53 974.572 C 1553.41 973.881 1553.75 974.528 1555.53 975.28 C 1556.86 977.319 1556.96 977.237 1556.58 979.621 C 1550.87 985.009 1522.37 987.812 1513.26 989.79 C 1492.25 994.358 1470.29 1000.58 1450.97 1010.07 z"/>
<path transform="translate(0,0)" fill="rgb(4,4,2)" d="M 1381.65 1011.82 C 1365.32 1005.38 1348.4 998.698 1331.09 995.374 C 1319.74 993.194 1307.65 992.866 1296.52 989.859 C 1293.44 989.027 1292.08 988.189 1290.53 985.423 C 1291.38 983 1291.95 982.707 1293.97 981.059 C 1320.16 983.024 1348.68 988.353 1373.24 998.056 C 1377.36 999.681 1382.24 1001.67 1384.11 1005.95 C 1383.79 1008.9 1383.41 1009.4 1381.65 1011.82 z"/>
<path transform="translate(0,0)" fill="rgb(4,4,2)" d="M 534.489 1587.55 C 526.931 1576.79 513.065 1495.25 510.068 1478.2 C 501.346 1429 494.066 1379.56 488.237 1329.94 C 483.951 1293.3 480.047 1256.76 480.034 1219.82 C 480.024 1190.55 482.747 1161.34 485.676 1132.24 C 487.377 1115.33 487.25 1090.57 497.196 1076.36 C 499.024 1076.84 499.053 1076.68 500.502 1078.12 C 502.452 1087.54 493.388 1134.6 492.433 1149.01 C 491.159 1168.25 489.408 1187.74 489.133 1207.01 C 488.843 1227.45 489.983 1248.4 491.205 1268.79 C 493.675 1310.01 499.098 1351.93 505.495 1392.73 C 509.843 1420.45 514.348 1448.33 519.38 1475.93 C 522.125 1490.99 540.108 1575.49 539.03 1582.18 C 538.508 1585.42 537.014 1585.89 534.489 1587.55 z"/>
<path transform="translate(0,0)" fill="rgb(33,27,21)" d="M 1856.42 1077.89 C 1859.01 1080.41 1862.35 1082.74 1863.4 1086.21 C 1861.29 1088.83 1858.72 1088.58 1855.71 1089.8 C 1855.83 1085.83 1856.15 1081.86 1856.42 1077.89 z"/>
<path transform="translate(0,0)" fill="rgb(4,4,2)" d="M 1230.36 1272.39 C 1221.34 1288.84 1214.23 1306.05 1206.2 1322.98 C 1198.01 1340.22 1189.17 1357.2 1180.78 1374.36 C 1177.03 1382.03 1174.29 1391.51 1170.03 1398.63 C 1168.68 1400.89 1166.79 1402.05 1164.31 1402.71 C 1162.76 1401.74 1162.61 1402.15 1162.3 1400.66 C 1161.51 1396.86 1163.09 1392.18 1164.44 1388.66 C 1169.46 1375.52 1176.8 1362.35 1182.73 1349.51 C 1191.77 1329.94 1200.13 1309.95 1209.52 1290.57 C 1216.5 1276.18 1233.34 1245.83 1236.1 1231.39 C 1238.01 1221.4 1234.08 1209.19 1233.21 1199.04 C 1231.1 1174.34 1226.82 1100.03 1236.81 1080.39 C 1239.16 1081.11 1240.55 1081.25 1241.88 1083.54 C 1243.2 1085.81 1243.15 1089.31 1243.17 1091.84 C 1243.23 1100.5 1241.59 1109.22 1241.09 1117.87 C 1240.21 1133.18 1240.62 1148.96 1241 1164.3 C 1241.63 1182.66 1243.26 1200.97 1245.86 1219.16 C 1247.98 1233.87 1251.75 1248.29 1254.21 1262.95 C 1258.99 1291.52 1262.26 1320.47 1266.38 1349.16 C 1268.96 1367.15 1273.04 1386.01 1274.31 1404.06 C 1274.54 1407.28 1274.22 1409.83 1273.02 1412.81 L 1269.62 1413.5 C 1269.24 1413.2 1268.83 1412.93 1268.46 1412.61 C 1266.9 1411.27 1266.39 1410.49 1265.81 1408.52 C 1261.23 1393.15 1260.6 1375.05 1258.23 1359.09 C 1252.67 1321.73 1246.62 1284.35 1242.05 1246.85 C 1237.47 1254.83 1234.21 1264 1230.36 1272.39 z"/>
<path transform="translate(0,0)" fill="rgb(4,4,2)" d="M 1378.09 1202.26 C 1376.21 1201.7 1374.56 1200.96 1372.8 1200.11 C 1372.04 1198.51 1371.91 1197.14 1371.81 1195.4 C 1371.12 1183.45 1372.53 1135.12 1379.55 1127.35 C 1381.71 1127.75 1383.07 1127.81 1384.59 1129.48 C 1385.32 1138.46 1380.56 1195.93 1378.09 1202.26 z"/>
<path transform="translate(0,0)" fill="rgb(4,4,2)" d="M 1630 1174.38 C 1622.2 1165.88 1613.54 1160.09 1603.36 1154.79 C 1599.78 1152.93 1595.45 1151.23 1592.17 1148.92 C 1589.44 1147.01 1589.78 1145.02 1589.54 1142.03 C 1606.11 1142.19 1618.37 1148.92 1630.33 1159.9 C 1641.65 1170.28 1651.18 1183.73 1660.61 1195.81 C 1682.93 1224.44 1704.08 1254.3 1725.58 1283.59 C 1733.97 1295.03 1744.76 1306.52 1751.88 1318.66 C 1753.23 1320.97 1753.76 1322.84 1753.87 1325.49 C 1752.63 1327.24 1752.47 1327.33 1750.45 1328.06 C 1740.75 1326.28 1678.82 1239.98 1669.4 1226.76 C 1662.3 1216.79 1645.14 1189.3 1636.36 1183.21 L 1635.62 1184.2 C 1634.42 1194.54 1630.1 1205.14 1627.05 1215.13 C 1622.31 1230.64 1617.68 1246.18 1613.17 1261.75 C 1598.35 1311.83 1590.73 1364.57 1581.3 1415.88 C 1579.25 1427.06 1573.83 1464.65 1569.86 1473.16 C 1568.55 1475.98 1567.13 1477.71 1564.23 1478.82 L 1562.61 1477.18 C 1561.59 1473.53 1561.39 1470.26 1561.83 1466.48 C 1564.79 1441.04 1571.38 1415.24 1576.01 1390 C 1582.87 1352.6 1588.25 1314.58 1597.85 1277.75 C 1607.18 1242.87 1617.9 1208.39 1630 1174.38 z"/>
<path transform="translate(0,0)" fill="rgb(4,4,2)" d="M 1289.06 1207.51 C 1287.32 1207.57 1285.03 1207.85 1283.33 1207.31 C 1281.02 1206.56 1279.25 1204.71 1278.59 1202.39 C 1277.65 1199.05 1279.36 1195.56 1280.59 1192.55 C 1283.83 1192.64 1286.69 1192.55 1289.34 1194.72 C 1291.26 1196.29 1292.54 1198.42 1292.51 1200.95 C 1292.47 1204.02 1291.07 1205.54 1289.06 1207.51 z"/>
<path transform="translate(0,0)" fill="rgb(4,4,2)" d="M 1500.4 1222.83 C 1496.47 1224.67 1491.79 1223.01 1489.9 1219.1 C 1488.02 1215.2 1489.61 1210.51 1493.49 1208.56 C 1496.05 1207.29 1499.09 1207.48 1501.46 1209.08 C 1503.83 1210.67 1505.16 1213.42 1504.94 1216.27 C 1504.72 1219.11 1502.98 1221.62 1500.4 1222.83 z"/>
<path transform="translate(0,0)" fill="rgb(4,4,2)" d="M 298.515 1355.56 C 292.779 1334.81 272.196 1228.38 277.126 1212.69 C 278.653 1212.8 280.632 1212.77 282.078 1213.24 C 285.344 1214.29 286.197 1215.93 286.708 1219.23 C 291.595 1250.72 295.77 1282.15 302.373 1313.38 C 318.725 1390.7 342.03 1465.94 363.695 1541.85 C 368.308 1558.01 377.506 1600.6 383.962 1612.48 C 385.827 1611.63 385.093 1612.02 386.891 1611 C 390.909 1608.72 411.924 1619.24 417.133 1621.17 C 463.095 1638 511.175 1648.36 559.991 1651.93 C 590.212 1654.07 620.334 1654.36 650.616 1654.19 C 691.494 1653.97 732.338 1652.81 772.657 1645.6 C 779.536 1644.37 794.529 1642.59 799.227 1637.02 C 799.482 1636.72 800.303 1635.57 800.318 1634.99 C 800.469 1629.16 797.639 1620.5 796.579 1614.6 C 792.474 1591.19 788.112 1567.82 783.494 1544.51 C 772.065 1481.03 761.185 1417.46 750.855 1353.79 C 749.341 1343.89 740.797 1300.37 745.677 1293.73 C 747.294 1293.47 747.447 1293.1 748.94 1294.12 C 750.666 1295.3 751.813 1296.69 752.533 1298.65 C 756.05 1308.19 757.606 1326.65 759.622 1337.6 L 780.896 1458.22 C 786.804 1483.33 790.688 1508.9 795.304 1534.27 C 801.244 1565.41 806.953 1596.59 812.431 1627.8 C 813.852 1636.21 815.089 1644.75 816.961 1653.07 C 818.293 1658.98 820.716 1665.22 821.019 1671.28 C 821.176 1674.43 820.697 1677.53 817.971 1679.53 C 816.083 1680.91 814.918 1680.53 812.97 1679.9 C 805.879 1673.2 803.804 1655.45 801.45 1645.87 C 797.299 1647.5 793.124 1649.07 788.925 1650.58 C 775.886 1655.22 762.429 1658.59 748.742 1660.64 C 718.054 1665.25 686.832 1665.14 655.88 1665.07 C 597.041 1664.93 538.208 1663.07 480.477 1650.66 C 447.822 1643.4 416.046 1632.64 385.704 1618.56 C 387.569 1624.75 393.172 1637.96 391.384 1644.34 C 390.626 1647.05 389.898 1647.31 387.645 1648.7 C 385.794 1648.79 383.75 1649.05 382.021 1648.19 C 374.085 1644.24 371.742 1620.8 367.417 1612.73 C 360.96 1600.68 348.918 1590.31 339.756 1580.26 C 329.407 1568.81 319.179 1557.25 309.073 1545.59 C 292.033 1525.87 276.941 1504.34 258.503 1485.86 C 244.85 1472.01 229.969 1459.43 214.044 1448.26 C 210.402 1445.76 208.846 1444.27 208.02 1439.86 C 209.111 1437.35 209.031 1437.23 211.454 1436.02 C 220.767 1436.1 231.835 1444.99 239.764 1449.65 C 248.208 1433.24 258.728 1418.25 268.561 1402.68 C 278.496 1386.95 287.746 1370.75 298.515 1355.56 z M 300.329 1375.56 C 291.896 1389.4 283.605 1403.37 274.948 1417.07 C 266.099 1431.07 257.576 1443.05 251.236 1458.55 C 259.329 1466.22 267.728 1473.45 275.36 1481.6 C 296.016 1503.66 314.642 1528.03 334.294 1551.04 C 342.143 1560.44 349.773 1570.45 358.613 1578.95 C 351.903 1559.58 346.677 1539.69 340.9 1520.02 C 331.324 1487.41 321.69 1454.95 313.394 1421.98 C 311.321 1413.75 304.605 1380.12 300.329 1375.56 z"/>
<path transform="translate(0,0)" fill="rgb(4,4,2)" d="M 1332.33 1266.03 C 1320.02 1266.22 1278.08 1263.72 1269.68 1256.19 C 1267.98 1252.98 1268.49 1249.79 1268.66 1246.28 C 1276.77 1248.56 1283.48 1251.53 1292 1252.89 C 1304.79 1254.92 1319.49 1253.99 1331.61 1258.3 C 1333.17 1261.5 1332.73 1262.57 1332.33 1266.03 z"/>
<path transform="translate(0,0)" fill="rgb(4,4,2)" d="M 387.921 1353.37 C 385.682 1352.28 384.197 1351.41 382.481 1349.59 C 383.334 1342.78 393.817 1326.55 396.822 1318.92 C 402.612 1304.2 410.241 1266.05 416.612 1256.49 L 420.897 1257.57 C 422.401 1259.49 422.768 1260.92 422.829 1263.31 C 423.254 1280.02 410.721 1316.63 403.031 1331.53 C 398.833 1339.66 394.053 1346.59 387.921 1353.37 z"/>
<path transform="translate(0,0)" fill="rgb(4,4,2)" d="M 1435.03 1277.29 C 1434.69 1277.26 1434.35 1277.22 1434.02 1277.19 C 1429.69 1276.68 1426.36 1275.84 1423.58 1272.27 C 1424.74 1270.13 1425.67 1269.55 1428.11 1269.06 C 1436.78 1267.33 1449.26 1270.68 1458.21 1271.4 C 1487.12 1273.72 1530.76 1272.64 1556.35 1259.02 L 1559.42 1259.47 C 1561.41 1261.36 1561.93 1261.44 1562.26 1264.12 C 1561.35 1265.89 1560.5 1267.12 1558.85 1268.23 C 1532.23 1286.18 1466.1 1283.16 1435.03 1277.29 z"/>
<path transform="translate(0,0)" fill="rgb(4,4,2)" d="M 1625.64 1357.8 L 1625.35 1357.55 C 1629.47 1340.66 1648.79 1297.2 1658.63 1282.75 L 1659.67 1284.05 C 1659.7 1288.93 1630.26 1348.08 1625.64 1357.8 z"/>
<path transform="translate(0,0)" fill="rgb(4,4,2)" d="M 599.294 1376.58 C 598.915 1376.41 598.53 1376.26 598.157 1376.07 C 580.784 1367.57 562.956 1326.87 557.652 1309.24 C 555.449 1301.92 551.84 1290.34 555.635 1283.34 L 559.075 1283.84 C 560.737 1284.78 561.178 1285.43 562.04 1287.19 C 564.472 1292.17 565.384 1298.69 566.967 1304.03 C 569.77 1313.48 573.547 1322.76 577.68 1331.7 C 581.415 1339.81 585.64 1347.69 590.329 1355.29 C 593.28 1360.04 597.061 1364.74 599.63 1369.66 C 601.254 1372.77 600.394 1373.53 599.294 1376.58 z"/>
<path transform="translate(0,0)" fill="rgb(4,4,2)" d="M 1652.34 1336.38 L 1652.06 1336.51 L 1651.14 1336.09 C 1655.5 1319.16 1665.78 1302.52 1673.1 1286.62 C 1674.32 1287.22 1673.62 1286.75 1674.85 1288.45 C 1674.84 1293.84 1656.24 1329.16 1652.34 1336.38 z"/>
<path transform="translate(0,0)" fill="rgb(254,254,254)" d="M 251.236 1458.55 C 257.576 1443.05 266.099 1431.07 274.948 1417.07 C 283.605 1403.37 291.896 1389.4 300.329 1375.56 C 304.605 1380.12 311.321 1413.75 313.394 1421.98 C 321.69 1454.95 331.324 1487.41 340.9 1520.02 C 346.677 1539.69 351.903 1559.58 358.613 1578.95 C 349.773 1570.45 342.143 1560.44 334.294 1551.04 C 314.642 1528.03 296.016 1503.66 275.36 1481.6 C 267.728 1473.45 259.329 1466.22 251.236 1458.55 z"/>
<path transform="translate(0,0)" fill="rgb(4,4,2)" d="M 1386.4 1426.41 L 1383.52 1425.03 C 1380.84 1422.07 1380.4 1418.29 1379.86 1414.47 C 1378.56 1405.24 1377 1392.19 1382.88 1384.44 C 1383.2 1384.63 1383.56 1384.79 1383.85 1385.02 C 1387.75 1388.15 1387.83 1395.61 1388.35 1400.29 C 1389.23 1408.14 1391.44 1420.13 1386.4 1426.41 z"/>
</svg>