<svg version="1.1" xmlns="http://www.w3.org/2000/svg" style="display: block;" viewBox="0 0 2048 2048" width="1024" height="1024">
<path transform="translate(0,0)" fill="rgb(254,254,254)" d="M 0 0 L 2048 0 L 2048 2048 L 0 2048 L 0 0 z M 1073.72 191.199 C 1069.49 196.754 1068.89 203.627 1067.69 210.329 C 1055.88 276.339 1047.94 343.184 1037.52 409.442 L 941.541 1032.58 C 929.946 1105.66 919.272 1178.75 906.411 1251.64 C 858.49 1204.31 810.963 1193.46 748.522 1176.77 C 729.337 1171.64 710.256 1165.33 691.056 1160.5 C 692.066 1133.94 694.259 1107.42 695.86 1080.9 C 707.325 1081.13 718.362 1081.73 727.384 1073.31 C 733.845 1067.28 738.065 1057.92 740.758 1049.58 C 747.054 1030.07 749.692 1008.33 753.562 988.126 L 777.866 855.279 C 781.884 834.144 785.309 812.38 791.022 791.635 C 800.134 785.963 809.771 781.189 818.809 775.417 C 845.136 758.605 868.535 734.601 876.003 703.419 C 880.343 685.3 877.629 666.703 867.729 650.849 C 854.851 630.227 832.211 618.224 809.041 612.978 C 800.041 611.022 790.867 609.975 781.658 609.853 C 776.643 586.668 767.738 572.758 747.686 559.811 C 697.138 527.175 597.829 525.872 539.675 538.596 C 467.997 554.278 398.023 596.595 358.075 659.212 C 340.517 686.839 328.694 717.715 323.309 750.004 C 319.003 776.071 323.458 795.226 324.881 820.866 C 326.009 841.204 324.923 861.983 323.503 882.29 C 319.168 944.276 308.797 1005.04 298.472 1066.21 C 292.987 1100.78 287.283 1135.31 281.361 1169.81 C 234.215 1183.36 182.317 1212.9 157.911 1256.62 C 100.333 1359.76 135.72 1592.53 154.137 1709.62 L 165.826 1781.13 C 167.785 1793 170.277 1805.03 171.571 1816.99 C 158.175 1817.45 93.4366 1818.55 85.3155 1827.57 C 83.5981 1829.48 83.3859 1830.88 83.2662 1833.35 C 84.6512 1835.31 85.4392 1836.19 87.9634 1836.45 C 96.7921 1837.35 127.187 1831.74 139.681 1830.85 C 176.947 1828.18 215.117 1827.35 252.474 1826.89 C 285.323 1825.44 318.271 1823.61 351.148 1823.19 C 391.349 1822.68 431.585 1823.65 471.779 1822.58 C 517.306 1821.36 562.677 1816.78 608.224 1816.54 C 642.983 1816.36 677.752 1817.54 712.512 1817.71 C 813.746 1818.46 914.986 1818.22 1016.22 1816.99 C 1040.11 1816.66 1063.97 1814.97 1087.82 1814.74 C 1099.47 1814.63 1164.89 1817.59 1169.22 1815.17 C 1170.93 1812.68 1171.36 1811.56 1171.36 1808.54 C 1170.17 1806.02 1170.11 1805.13 1167.37 1804.08 C 1160.62 1801.5 1093.3 1801.04 1081.39 1800.94 C 1070.73 1745.29 1054.16 1690.25 1040.1 1635.33 L 1547.65 1659.18 L 1722.54 1668.37 C 1762.95 1670.52 1806.37 1673.67 1846.68 1673.21 C 1850.76 1673.16 1856.29 1672.86 1859.58 1670.15 C 1860.87 1669.09 1860.55 1668.3 1860.71 1666.76 C 1859.58 1664.27 1858.94 1662.73 1856.27 1661.71 C 1850.99 1659.69 1779.11 1658.64 1766.46 1657.9 C 1796.88 1459.56 1825.51 1260.94 1852.34 1062.08 C 1868.24 948.364 1883.11 834.514 1896.97 720.537 C 1906.53 642.945 1916.97 565.568 1924.45 487.714 C 1930.34 422.272 1934.87 356.714 1938.04 291.084 C 1938.74 278.12 1944.44 224.395 1938.94 216.162 C 1937.52 214.026 1933.23 213.848 1930.7 213.445 C 1915.48 211.028 1899 211.619 1883.59 211.152 L 1804.68 208.543 L 1484.5 199.911 L 1198.87 193.164 L 1119.63 191.396 C 1104.53 191.071 1088.74 189.936 1073.72 191.199 z"/>
<path transform="translate(0,0)" fill="rgb(1,1,1)" d="M 906.411 1251.64 C 919.272 1178.75 929.946 1105.66 941.541 1032.58 L 1037.52 409.442 C 1047.94 343.184 1055.88 276.339 1067.69 210.329 C 1068.89 203.627 1069.49 196.754 1073.72 191.199 C 1088.74 189.936 1104.53 191.071 1119.63 191.396 L 1198.87 193.164 L 1484.5 199.911 L 1804.68 208.543 L 1883.59 211.152 C 1899 211.619 1915.48 211.028 1930.7 213.445 C 1933.23 213.848 1937.52 214.026 1938.94 216.162 C 1944.44 224.395 1938.74 278.12 1938.04 291.084 C 1934.87 356.714 1930.34 422.272 1924.45 487.714 C 1916.97 565.568 1906.53 642.945 1896.97 720.537 C 1883.11 834.514 1868.24 948.364 1852.34 1062.08 C 1825.51 1260.94 1796.88 1459.56 1766.46 1657.9 C 1779.11 1658.64 1850.99 1659.69 1856.27 1661.71 C 1858.94 1662.73 1859.58 1664.27 1860.71 1666.76 C 1860.55 1668.3 1860.87 1669.09 1859.58 1670.15 C 1856.29 1672.86 1850.76 1673.16 1846.68 1673.21 C 1806.37 1673.67 1762.95 1670.52 1722.54 1668.37 L 1547.65 1659.18 L 1040.1 1635.33 C 1054.16 1690.25 1070.73 1745.29 1081.39 1800.94 C 1093.3 1801.04 1160.62 1801.5 1167.37 1804.08 C 1170.11 1805.13 1170.17 1806.02 1171.36 1808.54 C 1171.36 1811.56 1170.93 1812.68 1169.22 1815.17 C 1164.89 1817.59 1099.47 1814.63 1087.82 1814.74 C 1063.97 1814.97 1040.11 1816.66 1016.22 1816.99 C 914.986 1818.22 813.746 1818.46 712.512 1817.71 C 677.752 1817.54 642.983 1816.36 608.224 1816.54 C 562.677 1816.78 517.306 1821.36 471.779 1822.58 C 431.585 1823.65 391.349 1822.68 351.148 1823.19 C 318.271 1823.61 285.323 1825.44 252.474 1826.89 C 215.117 1827.35 176.947 1828.18 139.681 1830.85 C 127.187 1831.74 96.7921 1837.35 87.9634 1836.45 C 85.4392 1836.19 84.6512 1835.31 83.2662 1833.35 C 83.3859 1830.88 83.5981 1829.48 85.3155 1827.57 C 93.4366 1818.55 158.175 1817.45 171.571 1816.99 C 170.277 1805.03 167.785 1793 165.826 1781.13 L 154.137 1709.62 C 135.72 1592.53 100.333 1359.76 157.911 1256.62 C 182.317 1212.9 234.215 1183.36 281.361 1169.81 C 287.283 1135.31 292.987 1100.78 298.472 1066.21 C 308.797 1005.04 319.168 944.276 323.503 882.29 C 324.923 861.983 326.009 841.204 324.881 820.866 C 323.458 795.226 319.003 776.071 323.309 750.004 C 328.694 717.715 340.517 686.839 358.075 659.212 C 398.023 596.595 467.997 554.278 539.675 538.596 C 597.829 525.872 697.138 527.175 747.686 559.811 C 767.738 572.758 776.643 586.668 781.658 609.853 C 790.867 609.975 800.041 611.022 809.041 612.978 C 832.211 618.224 854.851 630.227 867.729 650.849 C 877.629 666.703 880.343 685.3 876.003 703.419 C 868.535 734.601 845.136 758.605 818.809 775.417 C 809.771 781.189 800.134 785.963 791.022 791.635 C 785.309 812.38 781.884 834.144 777.866 855.279 L 753.562 988.126 C 749.692 1008.33 747.054 1030.07 740.758 1049.58 C 738.065 1057.92 733.845 1067.28 727.384 1073.31 C 718.362 1081.73 707.325 1081.13 695.86 1080.9 C 694.259 1107.42 692.066 1133.94 691.056 1160.5 C 710.256 1165.33 729.337 1171.64 748.522 1176.77 C 810.963 1193.46 858.49 1204.31 906.411 1251.64 z M 1081.37 203.161 C 1074.17 235.089 1071.63 269.088 1066.6 301.486 L 1032.47 523.64 L 917.539 1265.33 C 924.551 1276.22 931.905 1287.08 937.993 1298.53 C 943.98 1309.78 948.741 1321.6 954.576 1332.91 L 1083.09 478.729 C 1090.8 426.6 1098.88 374.525 1107.31 322.508 C 1109.34 309.56 1115.32 257.05 1120.01 248.54 C 1125.05 244.932 1222.55 250.325 1235.73 250.78 L 1677.54 263.88 L 1803.41 268.072 C 1822.2 268.734 1844.21 267.721 1862.62 270.873 C 1864.16 271.137 1864.41 271.25 1865.71 271.653 C 1867.97 276.145 1867.41 282.661 1867.06 287.639 C 1865.01 316.297 1859.86 345.181 1856.16 373.717 C 1848.33 436.683 1839.69 499.548 1830.26 562.295 L 1734.22 1205.05 L 1696.07 1460.01 C 1689.32 1505.56 1683.74 1551.65 1675.24 1596.9 C 1674.66 1599.98 1674.22 1603.5 1672.2 1605.98 C 1666.25 1608.13 1571.9 1601.32 1554.67 1600.37 L 1226.03 1583.82 L 1109.62 1576.31 C 1081.05 1574.2 1052.29 1571.23 1023.64 1570.78 C 1027.76 1588.35 1031.82 1606.33 1037.11 1623.58 L 1717.54 1655.29 C 1720.41 1625.73 1725.95 1596.33 1729.86 1566.87 C 1739.81 1488.14 1750.71 1409.53 1762.56 1331.06 L 1869.5 609.248 L 1903.09 373.061 C 1908.13 339.357 1912.82 305.6 1917.16 271.798 C 1919.09 256.458 1921.55 240.848 1922.38 225.416 C 1849.53 221.439 1776.6 220.484 1703.69 218.497 C 1607.15 214.973 1510.59 212.334 1414.01 210.58 L 1162.31 204.562 C 1135.34 204.11 1108.34 202.943 1081.37 203.161 z M 1129.48 258.919 C 1086.77 527.17 1045.93 795.713 1006.96 1064.53 L 974.883 1278.16 C 972.452 1294.64 969.826 1311.08 967.007 1327.5 C 965.581 1336 963.507 1344.9 962.882 1353.49 C 962.152 1363.53 966.338 1372.02 969.806 1381.18 L 970.515 1380.53 C 1010.61 1123.04 1049.33 865.345 1086.66 607.444 C 1102.11 511.963 1116.66 416.34 1130.34 320.589 C 1131.98 309.472 1140.62 267.707 1139.44 260.615 C 1136.72 258.277 1133 258.918 1129.48 258.919 z M 1152.01 259.937 C 1138.8 340.139 1127.23 420.79 1115.14 501.178 C 1112.33 519.922 1110.14 538.774 1107.11 557.484 C 1120.74 556.198 1134.9 553.445 1144 542.156 C 1151.86 532.419 1150.08 512.545 1157.89 506.458 C 1160.46 506.239 1160.53 506.449 1162.71 507.882 C 1166.61 518.913 1157.42 540.004 1163.96 548.933 C 1166.65 552.615 1172.6 555.301 1176.68 557.267 C 1182.37 560.005 1196.06 563.559 1198.85 569.44 C 1192.59 576.689 1171.45 571.971 1160.08 588.435 C 1153.6 597.834 1151.16 627.618 1140.91 630.257 C 1139.14 629.331 1138.64 629.162 1137.95 627.156 C 1132.7 611.981 1145.11 583.219 1123.66 571.174 C 1118.24 568.134 1111.47 567.546 1105.41 566.672 C 1097.57 624.368 1087.49 681.88 1079.01 739.509 L 1009.75 1203.89 C 1002.51 1252.85 994.904 1301.77 986.92 1350.62 C 984.296 1366.42 983.069 1387.81 977.362 1402.49 C 990.66 1454.76 1007.82 1506.34 1019.79 1558.91 C 1026.35 1559.17 1032.9 1559.36 1039.42 1560.02 C 1048.9 1515.16 1055.67 1469.3 1062.95 1424.02 C 1070.13 1379.4 1077.89 1334.94 1084.52 1290.22 C 1090.11 1252.51 1091.71 1201.39 1104.18 1166.42 C 1114.76 1136.74 1134.62 1106.13 1161.51 1088.82 C 1190.75 1070 1226.48 1068.87 1258.54 1057.2 C 1287.79 1046.56 1315.43 1030.75 1343.92 1018.12 C 1344.87 1007.15 1345.67 996.146 1346.77 985.189 C 1327.34 983.681 1308.33 981.437 1294.87 965.354 C 1293.86 964.129 1292.89 962.876 1291.95 961.596 C 1286.56 951.617 1283.64 942.217 1282.08 930.984 C 1260.77 930.031 1243.23 925.04 1228.38 908.86 C 1215.71 894.86 1209.19 876.367 1210.27 857.521 C 1211.34 836.339 1220.3 813.174 1236.23 798.854 C 1241.71 793.926 1248 789.647 1253.22 784.489 C 1226.84 762.003 1205.64 735.194 1202.69 699.341 C 1200.85 676.958 1206.39 652.672 1221.17 635.263 C 1237.83 615.643 1266.37 600.444 1289.62 590.363 C 1298.45 586.539 1310.55 584.506 1317.48 577.843 C 1339.84 556.356 1380.99 551.058 1410.65 551.872 C 1475.9 553.664 1543.81 575.004 1589.63 623.275 C 1616.34 651.42 1630.94 693.087 1629.76 731.734 C 1629.34 745.64 1625.8 757.459 1620.69 770.316 L 1621.78 771.06 C 1630.46 777.137 1638.23 791.883 1647.72 794.668 C 1649.73 794.043 1649.63 794.495 1650.73 792.485 C 1644.86 779.138 1624.59 769.083 1630.75 753.102 C 1633.26 746.585 1638.11 738.209 1642.45 732.796 C 1664.6 723.326 1689.26 726.356 1711.18 735.083 C 1739.96 746.542 1764.42 767.516 1783.97 791.215 C 1801.47 678.276 1817.75 565.152 1832.81 451.861 C 1840.35 395.306 1849.18 338.725 1855.24 281.991 L 1152.01 259.937 z M 1919.8 363.669 C 1912.85 383.65 1910.29 415.475 1907.01 437.379 C 1897.73 499.216 1890.3 561.337 1880.74 623.109 L 1775.65 1325.32 L 1746.27 1534.91 C 1741.8 1567.54 1739.51 1601.43 1732.95 1633.66 C 1736.43 1636.92 1739.83 1640.38 1743.67 1643.22 C 1747.83 1646.44 1751.86 1649.35 1756.43 1651.97 C 1759.8 1614.76 1766.04 1577.73 1771.27 1540.75 L 1808.96 1288.35 C 1839 1078.28 1866.82 867.899 1892.4 657.242 C 1900.67 585.834 1909.51 514.913 1915.34 443.231 C 1917.39 417.954 1921.59 388.896 1919.8 363.669 z M 1153.52 544.615 C 1147.4 554.521 1138.12 559.809 1127.24 563.23 C 1135.12 567.536 1140.84 571.434 1143.73 580.497 C 1145.03 584.578 1145.83 588.898 1146.73 593.086 C 1152.44 582.071 1160.58 572.674 1171.57 566.634 C 1165.14 562.067 1155.86 556.379 1154.26 548.046 C 1154.15 547.477 1154.02 546.911 1153.91 546.342 C 1153.82 545.881 1153.75 545.414 1153.65 544.955 C 1153.62 544.837 1153.56 544.728 1153.52 544.615 z M 469.39 631.695 C 453.92 645.187 413.716 683.168 411.725 702.296 C 411.534 704.136 412.234 704.556 413.398 705.929 C 413.601 706.167 413.837 706.376 414.057 706.599 C 422.767 699.404 431.095 681.029 438.656 671.442 C 444.169 664.452 470.623 641.83 471.598 635.539 C 470.928 634.006 470.495 632.975 469.39 631.695 z M 1553.75 639.816 C 1553.28 642.204 1552.8 642.863 1554.15 645.012 C 1557.98 651.08 1587.97 683.261 1592.95 684.07 C 1593.92 684.228 1594.44 684.151 1595.37 684.091 C 1595.86 678.778 1593.61 676.517 1590.37 672.626 C 1582.63 663.359 1564.84 644.296 1553.75 639.816 z M 640.934 647.787 C 638.857 652.706 636.294 657.397 637.41 662.863 C 638.505 663.888 638.933 664.254 640.378 664.805 C 642.231 660.524 644.575 656.283 644.571 651.542 C 643.424 649.371 643.031 649.103 640.934 647.787 z M 488.143 648.976 C 473.777 654.736 450.72 668.103 444.737 682.963 C 444.156 684.404 443.802 685.859 443.432 687.365 L 445.74 688.238 L 443.455 687.661 L 444.924 688.668 C 457.548 680.644 466.35 667.656 479.495 659.815 L 483.439 657.972 L 483.752 659.018 C 479.049 666.349 461.321 681.558 462.695 690.003 L 463.764 690.589 C 470.788 685.458 493.667 661.256 494.251 653.459 C 494.359 652.022 494.257 651.926 493.977 650.697 C 491.761 648.9 491.039 649.151 488.143 648.976 z M 1335.95 660.75 C 1318.01 672.536 1295.47 688.865 1290.65 711.271 C 1287.48 726.006 1289.39 744.431 1289.35 759.591 C 1289.1 791.026 1289.54 822.463 1290.68 853.878 C 1291.37 879.54 1291.81 906.177 1295.91 931.542 C 1297.27 939.903 1299.52 948.99 1304.43 956.008 C 1311.08 965.498 1324.72 968.892 1335.61 970.435 C 1363.18 974.34 1395.53 974.102 1422.28 965.723 C 1431.27 962.905 1444.76 949.773 1449.55 949.204 C 1451.9 948.926 1452.27 950.445 1453.5 951.98 C 1454.2 955.342 1453.36 958.502 1451.51 961.373 C 1443.64 973.609 1421.41 979.599 1407.92 981.968 C 1392.12 984.742 1376.09 985.37 1360.1 985.903 C 1358.21 1001.58 1355.06 1068.27 1344.13 1076.93 C 1342.78 1078 1342.46 1077.84 1340.85 1078.04 C 1338.83 1077.07 1337.37 1076.16 1336.37 1074.04 C 1333.74 1068.45 1341.32 1039.43 1342.39 1031.49 C 1314.52 1045.75 1285.31 1061.37 1255.64 1071.41 C 1236.66 1077.83 1216.9 1080.6 1197.82 1086.42 C 1156.13 1099.14 1127.49 1132.53 1114.43 1173.47 C 1106.08 1199.63 1103.93 1226.77 1100.98 1253.89 C 1099 1271.66 1096.69 1289.4 1094.03 1307.09 C 1080.51 1391.8 1066.22 1476.39 1051.15 1560.84 C 1090.47 1562.7 1129.81 1567.21 1169.15 1568.17 C 1167.66 1548.15 1165 1528.22 1163.24 1508.22 C 1159.34 1463.77 1156.48 1418.42 1156.71 1373.81 C 1156.9 1336.75 1161.71 1299.93 1164.32 1263 C 1165.14 1251.48 1163.81 1221.07 1170.62 1213.03 C 1171.81 1211.63 1171.53 1212.05 1173.54 1211.46 C 1176.75 1214.3 1177.31 1218.07 1177.59 1222.23 C 1178.27 1232.12 1176.94 1243 1176.29 1252.93 C 1174.52 1279.96 1171.38 1306.68 1168.89 1333.62 C 1166.34 1361.03 1167.08 1388.79 1168.32 1416.25 C 1171.07 1465.91 1174.31 1519.67 1180.13 1568.82 C 1221.77 1572.37 1263.64 1573.85 1305.39 1575.83 L 1462.69 1583.65 L 1593.66 1590.55 C 1616.18 1591.63 1638.99 1593.37 1661.52 1593.04 C 1654.18 1571.68 1644.58 1551.12 1636.98 1529.82 C 1620.88 1484.69 1607.63 1439.25 1595.43 1392.93 C 1575.32 1316.55 1558.79 1239.31 1536.48 1163.49 C 1530.09 1141.77 1524.17 1118.9 1516.08 1097.77 C 1502.29 1114.95 1484.81 1145.3 1466.64 1155.83 C 1448.65 1146.92 1392.79 1109.26 1386.46 1091.45 C 1385.3 1088.19 1386.48 1085.1 1387.94 1082.13 C 1394.37 1069.07 1410.67 1054.48 1420.61 1043.39 C 1431.5 1031.16 1442.27 1018.82 1452.92 1006.37 C 1456.74 1001.93 1461.53 997.31 1464.73 992.452 C 1471.42 982.295 1466.92 981.345 1478.37 970.027 C 1479.87 960.388 1482.24 954.034 1490.56 948.181 C 1492.34 946.931 1494.2 945.801 1496.07 944.681 C 1496.92 917.114 1503.16 889.234 1505.79 861.745 C 1500.83 860.528 1496.58 859.615 1493.74 855.027 C 1494.11 853.313 1493.77 853.131 1495.41 852.077 C 1500.27 848.958 1506.11 850.69 1511.47 851.489 C 1522.11 847.112 1528.84 839.34 1533.26 828.76 C 1537.59 818.397 1539.62 805.22 1535.06 794.666 C 1531.93 787.421 1525.9 781.999 1518.54 779.255 C 1512.62 777.049 1506.12 777.03 1500.41 779.839 C 1494.04 782.968 1490.6 786.445 1487.48 792.666 L 1486.5 791.419 C 1479.16 782.223 1469.27 775.571 1460.65 767.654 C 1438.26 747.091 1429.01 722.034 1420 693.755 C 1402.5 689.312 1382.75 686.239 1366.52 678.256 C 1358.99 674.555 1342.92 661.297 1335.95 660.75 z M 518.108 661.738 C 507.68 669.137 472.453 692.468 466.15 699.906 L 466.511 701.865 C 467.945 702.736 468.64 703.249 470.335 703.458 C 481.479 697.819 516.956 675.796 521.237 664.717 L 520.492 662.589 L 518.108 661.738 z M 1561.75 669.073 C 1561.21 672.28 1561.11 673.25 1562.92 675.992 C 1566.87 682.004 1573.08 688.784 1579.94 691.387 C 1582.07 690.739 1582.86 689.754 1584.3 688.108 C 1580.65 682.313 1577.02 674.606 1571.17 670.838 L 1569.79 671.079 C 1566.87 671.557 1565.46 671.968 1562.95 670.148 C 1562.52 669.832 1562.15 669.431 1561.75 669.073 z M 1544.48 674.687 C 1545.82 682.014 1557.25 694.5 1563.11 698.79 L 1565.14 698.995 C 1564.59 690.954 1556.19 682.132 1550.06 676.868 C 1548.36 675.403 1546.72 674.837 1544.48 674.687 z M 703.989 715.887 C 701.611 722.128 695.532 734.494 698.217 740.722 L 700.836 742.407 C 704.07 737.123 708.946 724.813 707.415 718.647 C 707.003 716.99 705.367 716.665 703.989 715.887 z M 1666.81 739.2 C 1662.96 740.155 1659.84 741.093 1656.39 743.073 L 1655.68 744.431 C 1665.15 750.454 1684.21 755.899 1695.83 761.503 C 1727.67 776.856 1746.33 798.745 1770.28 822.732 C 1773.2 821.934 1776.56 820.345 1778.17 817.677 C 1779.63 815.256 1778.78 811.672 1777.82 809.209 C 1768.12 784.151 1733.45 757.933 1709.3 748.098 C 1696.34 742.821 1680.93 738.584 1666.81 739.2 z M 1658.63 759.476 C 1666.76 766.912 1677.83 769.914 1687.62 774.674 C 1711.67 786.37 1743.35 809.621 1757.62 832.342 L 1759.57 832.432 C 1759.96 827.3 1756.32 823.851 1753.07 820.031 C 1729.64 792.541 1693.87 768.256 1658.63 759.476 z M 406.116 769.528 C 401.653 777.499 398.121 791.693 399.444 800.938 C 400.58 802.544 401.099 803.189 402.981 803.829 C 405.571 795.258 411.133 780.453 408.836 771.669 L 406.116 769.528 z M 616.108 778.623 C 612.316 784.231 609.323 797.063 610.657 803.829 C 610.962 805.378 612.168 806.079 613.245 807.144 C 615.988 800.646 620.138 787.433 617.942 780.584 L 616.108 778.623 z M 1675.68 782.457 C 1667.34 794.447 1655.82 804.675 1646.04 815.526 L 1593.9 874.333 C 1583.69 886.03 1572.9 897.637 1563.69 910.134 C 1584.73 918.578 1616.55 934.24 1629.51 953.468 L 1630.98 954.659 C 1637.69 949.816 1647.85 934.818 1653.88 927.653 C 1672.84 905.384 1691.56 882.914 1710.04 860.246 C 1719.28 848.909 1729.13 837.552 1737.48 825.571 C 1721.82 808.814 1697.76 789.308 1675.68 782.457 z M 718.233 831.891 C 706.444 837.676 700.848 848.529 696.726 860.438 C 688.363 884.598 693.537 909.304 704.649 931.608 C 708.641 939.619 721.178 952.618 720.307 961.16 C 719.42 962.256 719.212 963.093 717.692 963.281 C 714.196 963.714 709.557 961.455 706.261 960.27 C 703.012 973.157 702.834 988.055 701.682 1001.35 C 699.735 1023.81 697.326 1046.48 696.553 1069.01 C 710.118 1065.03 719.38 1060.65 727.162 1048.19 C 732.222 1034.86 734.354 1019.93 737.183 1005.97 C 743.045 977.05 748.1 948.074 753.15 919.006 L 761.193 872 C 763.017 861.82 765.53 851.585 766.655 841.306 C 758.184 841.278 749.751 841.238 741.291 840.714 C 742.073 847.716 745.775 865.786 741.149 870.939 C 739.932 872.294 739.023 872.918 737.411 873.667 C 734.827 872.646 734.253 871.666 733.248 869.06 C 729.303 858.834 732.909 839.21 723.442 832.503 C 721.695 832.254 719.995 831.97 718.233 831.891 z M 1739.26 842.458 C 1738.22 843.815 1735.89 845.965 1736.04 847.686 C 1736.51 853.149 1741.45 858.812 1743.16 864.144 C 1747.68 878.207 1736.73 901.165 1728.59 912.265 C 1706.23 942.733 1676.64 954.662 1640.7 961.378 C 1633.33 974.05 1630.27 1025.66 1628.82 1042.35 C 1644.1 1045.44 1659.46 1047.82 1674.87 1050.15 C 1697.27 1053.22 1720.55 1056.36 1742.58 1061.39 C 1747.79 1035.98 1750.67 1009.83 1754.62 984.171 C 1761.41 940.024 1768.57 895.756 1774.66 851.521 C 1768.82 854.301 1759.98 859.315 1753.51 856.728 C 1747.35 854.267 1745.08 844.994 1739.26 842.458 z M 491.018 881.281 C 487.715 889.007 485.63 904.221 488.176 912.396 C 489.017 913.191 489.764 914.019 490.775 914.595 C 494.808 907.685 496.796 892.371 494.586 884.732 C 494.143 883.202 493.456 882.643 492.1 881.788 C 491.763 881.576 491.378 881.45 491.018 881.281 z M 651.357 890.496 C 648.19 899.162 645.292 910.315 647.652 919.435 C 648.639 920.348 649.308 921.056 650.553 921.6 C 653.342 913.687 656.662 901.023 654.188 892.855 C 653.276 892.03 652.421 891.118 651.357 890.496 z M 1539.1 914.805 C 1535.13 917.858 1530.22 922.16 1529.33 927.323 C 1531.58 929.509 1540.27 929.319 1544.34 930.933 C 1557.77 936.255 1603.66 961.236 1604.46 976.422 C 1603.17 979.01 1602.97 979.142 1600.42 980.528 C 1594.32 979.419 1586.94 969.132 1581.69 965.191 C 1569.58 956.084 1527.59 929.315 1512.69 939.065 C 1510.9 940.236 1509.87 941.372 1509.03 943.315 C 1509.53 945.59 1509.57 945.8 1511.71 947.025 C 1518.68 951.006 1527.4 953.055 1534.77 956.454 C 1544.96 961.152 1579.24 980.46 1581.85 991.101 C 1582.57 994.044 1582 995.576 1580.69 998.206 C 1579.57 998.86 1578.82 999.739 1577.45 999.401 C 1572.42 998.152 1560.27 984.808 1555.4 981.044 C 1545.81 973.643 1510.28 951.69 1498.97 957.117 C 1495.45 958.81 1492.73 964.303 1490.69 967.527 C 1499.95 972.08 1509.83 975.161 1519.02 979.783 C 1530.38 985.494 1560.04 1004.87 1563.98 1017.13 C 1564.46 1018.6 1564.35 1018.22 1563.9 1019.61 C 1560.92 1020.78 1557.76 1019.72 1554.9 1018.58 C 1548.59 1016.05 1542.6 1009.81 1537.4 1005.49 C 1521.31 992.118 1505.21 983.395 1484.81 978.906 L 1478.6 989.128 C 1478.89 989.421 1479.18 989.719 1479.48 990.006 C 1496.77 1006.68 1527.48 1010.65 1528.5 1039.75 C 1529.09 1056.81 1525.56 1074.87 1528.02 1091.75 C 1531.55 1115.99 1544.27 1146.56 1551.4 1170.97 C 1563.31 1211.73 1573.42 1253.06 1583.84 1294.22 C 1598.6 1356.51 1613.62 1419.71 1633.35 1480.63 C 1643.51 1512.01 1656.42 1542.01 1667.55 1572.96 C 1670.45 1536.04 1678.28 1499.18 1683.58 1462.52 C 1689.03 1423.31 1694.73 1384.13 1700.66 1344.99 C 1703.23 1327.55 1705.29 1309.92 1708.34 1292.57 C 1688.75 1266.02 1615.94 1125.04 1612.47 1094.54 C 1610.18 1074.39 1614.69 1051.18 1616.82 1031.01 C 1618.94 1010.9 1620.54 990.517 1623.44 970.507 C 1620.99 966.354 1618.78 961.521 1615.7 957.821 C 1601.56 940.85 1568.53 922.027 1547.22 916.586 C 1544.56 915.905 1541.81 915.246 1539.1 914.805 z M 398.184 935.345 C 393.973 943.64 392.428 956.711 394.604 965.745 C 395.891 967.23 396.734 967.818 398.555 968.553 C 401.885 961.85 403.094 946.14 401.147 939.242 C 400.519 937.016 399.957 936.642 398.184 935.345 z M 556.949 935.204 C 555.757 944.342 552.857 958.797 556.213 967.401 L 557.923 968.696 L 559.416 968.46 C 561.835 959.18 564.732 947.078 561.583 937.773 C 560.015 936.141 559.144 935.728 556.949 935.204 z M 1473.2 1001.67 C 1449.51 1028.3 1426.68 1055.73 1403.36 1082.69 C 1422.58 1094.77 1443.64 1106.58 1460.17 1122.26 L 1473.06 1133.61 C 1486.24 1116 1499.23 1097.12 1514.48 1081.3 C 1514.8 1064.5 1514.94 1047.7 1514.87 1030.9 C 1507.58 1022.36 1483.68 1005.85 1473.2 1001.67 z M 633.039 1037.69 C 629.298 1045.32 627.745 1058.12 629.239 1066.54 L 630.67 1068.45 L 632.693 1068.57 C 636.384 1060.97 639.563 1048.17 636.965 1039.95 C 635.601 1038.98 634.611 1038.33 633.039 1037.69 z M 1627.2 1054.63 C 1626.45 1066.92 1623.02 1081.69 1625.15 1093.76 C 1628.31 1111.78 1638.98 1131.84 1646.58 1148.48 C 1666.25 1191.67 1687.57 1234.1 1710.48 1275.66 C 1712.28 1266.85 1713.84 1258 1715.18 1249.11 L 1728.62 1159.98 C 1732.74 1130.63 1736.18 1101.1 1740.98 1071.86 C 1702.99 1067.34 1665.21 1058.24 1627.2 1054.63 z M 437.878 1060.35 C 433.63 1069.42 431.089 1091.56 433.85 1101.24 L 436.498 1103.78 C 439.706 1097.21 442.569 1070.56 440.66 1063.49 C 440.136 1061.55 439.579 1061.39 437.878 1060.35 z M 536.905 1073.4 C 533.491 1079.75 530.072 1095.09 532.014 1102.04 C 532.408 1103.45 532.561 1103.55 533.25 1104.6 L 536.4 1105.65 C 539.539 1098.58 542.413 1082.74 539.705 1075.19 C 538.803 1074.59 537.879 1073.87 536.905 1073.4 z M 362.066 1088.38 C 358.697 1096.55 356.46 1116.6 359.148 1125.01 C 359.272 1125.39 359.469 1125.76 359.629 1126.13 C 360.34 1126.3 361.048 1126.63 361.778 1126.58 C 365.672 1119.16 368.192 1100.79 365.783 1092.53 C 365.205 1090.55 363.815 1089.42 362.066 1088.38 z M 1402.63 1095.97 C 1413.95 1105.76 1451.35 1137.89 1463.93 1140.3 C 1449.58 1128.31 1419.3 1101.93 1402.63 1095.97 z M 593.311 1145.49 C 590.233 1153.54 586.704 1175.9 591.155 1183.58 C 592.02 1185.07 593.64 1186.21 594.968 1187.25 C 597.6 1176.83 599.284 1158.65 596.454 1148.34 C 595.375 1147.04 594.846 1146.27 593.311 1145.49 z M 690.098 1174.48 C 688.781 1191.05 687.852 1226.8 683.955 1240.66 C 683.029 1243.95 681.381 1248.22 678.344 1250.16 C 676.256 1251.47 673.661 1251.68 671.388 1250.72 C 668.054 1249.29 666.282 1246.63 665.195 1243.3 C 662.904 1236.27 663.795 1228.5 660.983 1221.62 L 659.897 1221.61 C 655.093 1231.93 658.547 1246.46 645.075 1251.23 C 641.471 1252.5 637.283 1252.34 633.843 1250.64 C 629.779 1248.62 627.32 1244.82 626.067 1240.56 C 622.98 1230.09 627.044 1202.48 619.698 1195.45 C 617.416 1196.54 616.833 1197.76 615.954 1200.06 C 611.775 1210.97 612.985 1250.21 602.223 1254.73 C 600 1255.67 597.957 1255.45 595.975 1254.06 C 587.488 1248.13 588.109 1218.52 579.412 1217.94 C 568.03 1231.28 579.077 1265.23 555.645 1267.58 C 549.82 1268.16 542.517 1267.67 537.836 1263.74 C 532.527 1259.28 531.499 1251.7 531.141 1245.18 C 530.588 1235.12 534.1 1217.5 528.894 1209.13 L 526.975 1208.18 C 518.054 1215.98 520.76 1260.91 504.97 1258.43 C 502.445 1258.03 500.146 1256.26 498.842 1254.1 C 495.694 1248.87 496.09 1228.77 491.974 1226.64 C 487.278 1234.99 488.149 1254.14 477.859 1258.32 C 475.444 1259.3 473.154 1258.94 470.965 1257.65 C 466.447 1254.98 463.789 1250.1 462.892 1245.08 C 461.303 1236.19 465.825 1215.15 460.456 1208.8 C 458.772 1209.59 458.595 1209.72 457.966 1211.44 C 453.579 1223.41 459.291 1247.79 446.42 1255.14 C 442.763 1257.23 437.543 1256.71 433.776 1255.27 C 430.628 1254.06 426.366 1251.38 424.946 1248.17 C 422.229 1242.04 423.63 1233.96 420.435 1228.15 C 414.639 1231.63 416.751 1253.82 395.729 1248.09 C 393.004 1247.34 391.123 1245.64 389.934 1243.09 C 382.833 1227.9 397.899 1189.91 387.818 1179.87 C 385.188 1179.29 384.666 1178.99 382.318 1180.67 C 372.808 1187.49 367.308 1225.75 361.348 1234.04 C 358.622 1237.83 354.756 1239.65 350.101 1239.61 C 345.435 1239.56 340.688 1237.56 337.422 1234.22 C 331.437 1228.11 331.836 1217.53 332.196 1209.55 C 332.556 1201.57 335.573 1187.74 331.79 1180.8 L 330.179 1179.83 C 318.766 1187.67 323.7 1237.38 288.264 1230.17 C 284.23 1229.35 280.482 1227.61 278.295 1223.93 C 273.128 1215.24 277.712 1195.89 279.01 1185.93 C 250.38 1192.96 215.245 1211.47 193.814 1231.73 C 185.003 1240.06 177.687 1249.75 171.433 1260.11 C 163.576 1272.98 157.513 1286.85 153.413 1301.36 C 142.772 1338.61 141.127 1377.83 140.612 1416.32 C 139.268 1516.87 152.079 1615.53 167.987 1714.61 C 173.157 1746.81 177.678 1784.74 185.071 1816.1 L 207.376 1815.73 C 205.677 1790.52 201.844 1765.39 199.394 1740.23 C 195.471 1699.95 193.024 1659.58 188.929 1619.29 C 183.776 1568.59 177.009 1517.46 173.869 1466.62 C 173.165 1455.22 170.576 1395.29 175.986 1389.99 C 177.899 1388.11 179.435 1387.75 182.015 1387.68 C 184.73 1388.89 185.454 1389.04 186.671 1391.94 C 187.203 1393.21 185.695 1437.81 185.863 1443.68 C 186.799 1476.45 190.278 1509.26 193.706 1541.85 C 199.686 1591.77 204.708 1641.81 208.769 1691.93 C 212.219 1732.99 215.023 1774.38 220.093 1815.28 C 261.626 1814.72 303.068 1811.76 344.584 1811.04 C 390.102 1810.26 435.569 1811.52 481.091 1809.88 C 522.162 1808.4 563.112 1804.39 604.195 1803.54 C 662.875 1802.32 721.799 1804.95 780.557 1804.4 C 781.912 1764.01 785.002 1723.58 787.539 1683.24 C 788.922 1661.25 793.829 1612.83 789.39 1593.32 C 784.507 1571.84 770.586 1546.69 757.677 1529.2 C 753.792 1523.94 746.217 1517.43 743.793 1511.67 C 742.62 1508.87 743.975 1508.1 745.691 1506.2 C 748.39 1505.55 749.703 1505.48 752.233 1506.82 C 766.271 1514.24 782.661 1543.19 789.202 1557.19 C 795.894 1571.52 800.886 1587.2 806.48 1602.01 C 820.799 1640.92 834.544 1680.05 847.712 1719.37 C 856.401 1745.37 864.299 1771.57 874.638 1797 C 939.237 1797.5 1003.8 1800.6 1068.43 1800.41 C 1050.42 1714.53 1025.18 1629.8 1002.41 1545.09 C 987.642 1490.16 973.377 1435.41 955.978 1381.24 C 948.388 1357.61 941.439 1333.5 930.198 1311.28 C 914.404 1280.05 890.954 1250.64 861.453 1231.51 C 813.115 1200.16 744.578 1193.37 690.098 1174.48 z M 803.36 1632.83 C 802.93 1660.54 800.407 1688.15 798.661 1715.79 C 796.993 1742.19 796.065 1768.73 793.95 1795.09 C 813.245 1796.77 832.889 1796.31 852.25 1796.38 C 854.813 1796.22 856.826 1796.72 858.716 1794.88 C 852.713 1775.53 809.809 1639.71 803.36 1632.83 z"/>
<path transform="translate(0,0)" fill="rgb(254,254,254)" d="M 917.539 1265.33 L 1032.47 523.64 L 1066.6 301.486 C 1071.63 269.088 1074.17 235.089 1081.37 203.161 C 1108.34 202.943 1135.34 204.11 1162.31 204.562 L 1414.01 210.58 C 1510.59 212.334 1607.15 214.973 1703.69 218.497 C 1776.6 220.484 1849.53 221.439 1922.38 225.416 C 1921.55 240.848 1919.09 256.458 1917.16 271.798 C 1912.82 305.6 1908.13 339.357 1903.09 373.061 L 1869.5 609.248 L 1762.56 1331.06 C 1750.71 1409.53 1739.81 1488.14 1729.86 1566.87 C 1725.95 1596.33 1720.41 1625.73 1717.54 1655.29 L 1037.11 1623.58 C 1031.82 1606.33 1027.76 1588.35 1023.64 1570.78 C 1052.29 1571.23 1081.05 1574.2 1109.62 1576.31 L 1226.03 1583.82 L 1554.67 1600.37 C 1571.9 1601.32 1666.25 1608.13 1672.2 1605.98 C 1674.22 1603.5 1674.66 1599.98 1675.24 1596.9 C 1683.74 1551.65 1689.32 1505.56 1696.07 1460.01 L 1734.22 1205.05 L 1830.26 562.295 C 1839.69 499.548 1848.33 436.683 1856.16 373.717 C 1859.86 345.181 1865.01 316.297 1867.06 287.639 C 1867.41 282.661 1867.97 276.145 1865.71 271.653 C 1864.41 271.25 1864.16 271.137 1862.62 270.873 C 1844.21 267.721 1822.2 268.734 1803.41 268.072 L 1677.54 263.88 L 1235.73 250.78 C 1222.55 250.325 1125.05 244.932 1120.01 248.54 C 1115.32 257.05 1109.34 309.56 1107.31 322.508 C 1098.88 374.525 1090.8 426.6 1083.09 478.729 L 954.576 1332.91 C 948.741 1321.6 943.98 1309.78 937.993 1298.53 C 931.905 1287.08 924.551 1276.22 917.539 1265.33 z"/>
<path transform="translate(0,0)" fill="rgb(254,254,254)" d="M 970.515 1380.53 L 969.806 1381.18 C 966.338 1372.02 962.152 1363.53 962.882 1353.49 C 963.507 1344.9 965.581 1336 967.007 1327.5 C 969.826 1311.08 972.452 1294.64 974.883 1278.16 L 1006.96 1064.53 C 1045.93 795.713 1086.77 527.17 1129.48 258.919 C 1133 258.918 1136.72 258.277 1139.44 260.615 C 1140.62 267.707 1131.98 309.472 1130.34 320.589 C 1116.66 416.34 1102.11 511.963 1086.66 607.444 C 1049.33 865.345 1010.61 1123.04 970.515 1380.53 z"/>
<path transform="translate(0,0)" fill="rgb(254,254,254)" d="M 1107.11 557.484 C 1110.14 538.774 1112.33 519.922 1115.14 501.178 C 1127.23 420.79 1138.8 340.139 1152.01 259.937 L 1855.24 281.991 C 1849.18 338.725 1840.35 395.306 1832.81 451.861 C 1817.75 565.152 1801.47 678.276 1783.97 791.215 C 1764.42 767.516 1739.96 746.542 1711.18 735.083 C 1689.26 726.356 1664.6 723.326 1642.45 732.796 C 1638.11 738.209 1633.26 746.585 1630.75 753.102 C 1624.59 769.083 1644.86 779.138 1650.73 792.485 C 1649.63 794.495 1649.73 794.043 1647.72 794.668 C 1638.23 791.883 1630.46 777.137 1621.78 771.06 L 1620.69 770.316 C 1625.8 757.459 1629.34 745.64 1629.76 731.734 C 1630.94 693.087 1616.34 651.42 1589.63 623.275 C 1543.81 575.004 1475.9 553.664 1410.65 551.872 C 1380.99 551.058 1339.84 556.356 1317.48 577.843 C 1310.55 584.506 1298.45 586.539 1289.62 590.363 C 1266.37 600.444 1237.83 615.643 1221.17 635.263 C 1206.39 652.672 1200.85 676.958 1202.69 699.341 C 1205.64 735.194 1226.84 762.003 1253.22 784.489 C 1248 789.647 1241.71 793.926 1236.23 798.854 C 1220.3 813.174 1211.34 836.339 1210.27 857.521 C 1209.19 876.367 1215.71 894.86 1228.38 908.86 C 1243.23 925.04 1260.77 930.031 1282.08 930.984 C 1283.64 942.217 1286.56 951.617 1291.95 961.596 C 1292.89 962.876 1293.86 964.129 1294.87 965.354 C 1308.33 981.437 1327.34 983.681 1346.77 985.189 C 1345.67 996.146 1344.87 1007.15 1343.92 1018.12 C 1315.43 1030.75 1287.79 1046.56 1258.54 1057.2 C 1226.48 1068.87 1190.75 1070 1161.51 1088.82 C 1134.62 1106.13 1114.76 1136.74 1104.18 1166.42 C 1091.71 1201.39 1090.11 1252.51 1084.52 1290.22 C 1077.89 1334.94 1070.13 1379.4 1062.95 1424.02 C 1055.67 1469.3 1048.9 1515.16 1039.42 1560.02 C 1032.9 1559.36 1026.35 1559.17 1019.79 1558.91 C 1007.82 1506.34 990.66 1454.76 977.362 1402.49 C 983.069 1387.81 984.296 1366.42 986.92 1350.62 C 994.904 1301.77 1002.51 1252.85 1009.75 1203.89 L 1079.01 739.509 C 1087.49 681.88 1097.57 624.368 1105.41 566.672 C 1111.47 567.546 1118.24 568.134 1123.66 571.174 C 1145.11 583.219 1132.7 611.981 1137.95 627.156 C 1138.64 629.162 1139.14 629.331 1140.91 630.257 C 1151.16 627.618 1153.6 597.834 1160.08 588.435 C 1171.45 571.971 1192.59 576.689 1198.85 569.44 C 1196.06 563.559 1182.37 560.005 1176.68 557.267 C 1172.6 555.301 1166.65 552.615 1163.96 548.933 C 1157.42 540.004 1166.61 518.913 1162.71 507.882 C 1160.53 506.449 1160.46 506.239 1157.89 506.458 C 1150.08 512.545 1151.86 532.419 1144 542.156 C 1134.9 553.445 1120.74 556.198 1107.11 557.484 z M 1249.38 298.477 C 1244.45 304.923 1244.07 313.636 1242.84 321.438 C 1237 358.315 1229.63 387.545 1187.04 393.277 C 1178.11 394.478 1166.97 394.293 1159.27 399.34 L 1158.47 401.088 C 1159.75 404.171 1162.61 405.332 1165.54 406.539 C 1185.82 414.887 1210.21 412.452 1221.25 436.034 C 1223.92 441.731 1225.71 448.787 1226.24 455.042 C 1227.29 467.574 1224.21 490.584 1227.71 501.436 C 1228.47 503.779 1229.52 504.901 1231.88 505.72 C 1232.97 506.097 1234.68 506.14 1235.78 506.255 C 1239.48 499.902 1240.63 492.321 1242.17 485.207 C 1248.29 456.925 1254.29 431.118 1286.21 422.624 C 1292.59 420.925 1320.46 418.356 1323.46 416.154 C 1324.14 415.655 1324.42 414.773 1324.9 414.083 C 1324.46 411.286 1324.46 411.041 1322.03 409.322 C 1317.16 405.878 1310.66 404.851 1304.96 403.47 C 1280.33 397.5 1262.78 388.435 1257.3 361.424 C 1254.92 349.701 1254.9 337.879 1255.49 325.983 C 1255.8 319.539 1256.73 312.684 1256.01 306.256 C 1255.72 303.725 1255.07 300.978 1252.65 299.681 C 1251.92 299.286 1250.22 298.754 1249.38 298.477 z M 1145.36 921.752 C 1127.09 935.029 1068.22 991.901 1059.42 1008.87 C 1059.52 1010.26 1059.23 1011.67 1060.29 1012.72 C 1062.07 1014.49 1064.92 1014.97 1067.27 1015.64 C 1075.64 1007.08 1082.99 997.481 1090.83 988.439 C 1101.91 975.656 1114.22 962.909 1126.88 951.703 C 1134.24 945.18 1148.85 936.463 1152.29 927.241 C 1151.93 924.362 1151.84 924.398 1149.7 922.408 C 1148.1 921.978 1147.04 921.704 1145.36 921.752 z M 1154.87 954.584 C 1127.91 972.987 1096.3 1010.11 1076.43 1036.5 C 1071.52 1043.03 1064.38 1050.88 1062.39 1058.9 C 1062.95 1061.27 1063.31 1061.66 1065.5 1063.06 C 1066.51 1063.7 1068.03 1064.17 1069.12 1064.58 C 1078.67 1055.24 1085.9 1042.68 1094.18 1032.15 C 1109.06 1012.87 1125.59 994.923 1143.59 978.515 C 1148.06 974.369 1159.55 966.092 1160.34 960.39 C 1159.58 957.855 1158.33 956.598 1156.11 955.179 C 1155.72 954.932 1155.28 954.782 1154.87 954.584 z"/>
<path transform="translate(0,0)" fill="rgb(1,1,1)" d="M 1235.78 506.255 C 1234.68 506.14 1232.97 506.097 1231.88 505.72 C 1229.52 504.901 1228.47 503.779 1227.71 501.436 C 1224.21 490.584 1227.29 467.574 1226.24 455.042 C 1225.71 448.787 1223.92 441.731 1221.25 436.034 C 1210.21 412.452 1185.82 414.887 1165.54 406.539 C 1162.61 405.332 1159.75 404.171 1158.47 401.088 L 1159.27 399.34 C 1166.97 394.293 1178.11 394.478 1187.04 393.277 C 1229.63 387.545 1237 358.315 1242.84 321.438 C 1244.07 313.636 1244.45 304.923 1249.38 298.477 C 1250.22 298.754 1251.92 299.286 1252.65 299.681 C 1255.07 300.978 1255.72 303.725 1256.01 306.256 C 1256.73 312.684 1255.8 319.539 1255.49 325.983 C 1254.9 337.879 1254.92 349.701 1257.3 361.424 C 1262.78 388.435 1280.33 397.5 1304.96 403.47 C 1310.66 404.851 1317.16 405.878 1322.03 409.322 C 1324.46 411.041 1324.46 411.286 1324.9 414.083 C 1324.42 414.773 1324.14 415.655 1323.46 416.154 C 1320.46 418.356 1292.59 420.925 1286.21 422.624 C 1254.29 431.118 1248.29 456.925 1242.17 485.207 C 1240.63 492.321 1239.48 499.902 1235.78 506.255 z M 1245.18 356.57 C 1239.08 374.302 1230.92 387.31 1213.49 395.733 C 1207.89 398.442 1202.25 400.372 1196.24 401.953 C 1211.62 409.544 1226.58 417.247 1232.71 434.704 C 1234.43 439.576 1235.76 456.41 1238.29 459.169 C 1244.65 440.24 1252.47 426.174 1271.25 416.902 C 1276.69 414.216 1282.33 411.92 1287.93 409.604 C 1272.34 403.95 1259.98 395.898 1252.7 380.343 C 1249.06 372.55 1248.26 364.322 1245.18 356.57 z"/>
<path transform="translate(0,0)" fill="rgb(254,254,254)" d="M 1196.24 401.953 C 1202.25 400.372 1207.89 398.442 1213.49 395.733 C 1230.92 387.31 1239.08 374.302 1245.18 356.57 C 1248.26 364.322 1249.06 372.55 1252.7 380.343 C 1259.98 395.898 1272.34 403.95 1287.93 409.604 C 1282.33 411.92 1276.69 414.216 1271.25 416.902 C 1252.47 426.174 1244.65 440.24 1238.29 459.169 C 1235.76 456.41 1234.43 439.576 1232.71 434.704 C 1226.58 417.247 1211.62 409.544 1196.24 401.953 z"/>
<path transform="translate(0,0)" fill="rgb(254,254,254)" d="M 1732.95 1633.66 C 1739.51 1601.43 1741.8 1567.54 1746.27 1534.91 L 1775.65 1325.32 L 1880.74 623.109 C 1890.3 561.337 1897.73 499.216 1907.01 437.379 C 1910.29 415.475 1912.85 383.65 1919.8 363.669 C 1921.59 388.896 1917.39 417.954 1915.34 443.231 C 1909.51 514.913 1900.67 585.834 1892.4 657.242 C 1866.82 867.899 1839 1078.28 1808.96 1288.35 L 1771.27 1540.75 C 1766.04 1577.73 1759.8 1614.76 1756.43 1651.97 C 1751.86 1649.35 1747.83 1646.44 1743.67 1643.22 C 1739.83 1640.38 1736.43 1636.92 1732.95 1633.66 z"/>
<path transform="translate(0,0)" fill="rgb(254,254,254)" d="M 1127.24 563.23 C 1138.12 559.809 1147.4 554.521 1153.52 544.615 C 1153.56 544.728 1153.62 544.837 1153.65 544.955 C 1153.75 545.414 1153.82 545.881 1153.91 546.342 C 1154.02 546.911 1154.15 547.477 1154.26 548.046 C 1155.86 556.379 1165.14 562.067 1171.57 566.634 C 1160.58 572.674 1152.44 582.071 1146.73 593.086 C 1145.83 588.898 1145.03 584.578 1143.73 580.497 C 1140.84 571.434 1135.12 567.536 1127.24 563.23 z"/>
<path transform="translate(0,0)" fill="rgb(254,254,254)" d="M 414.057 706.599 C 413.837 706.376 413.601 706.167 413.398 705.929 C 412.234 704.556 411.534 704.136 411.725 702.296 C 413.716 683.168 453.92 645.187 469.39 631.695 C 470.495 632.975 470.928 634.006 471.598 635.539 C 470.623 641.83 444.169 664.452 438.656 671.442 C 431.095 681.029 422.767 699.404 414.057 706.599 z"/>
<path transform="translate(0,0)" fill="rgb(254,254,254)" d="M 1595.37 684.091 C 1594.44 684.151 1593.92 684.228 1592.95 684.07 C 1587.97 683.261 1557.98 651.08 1554.15 645.012 C 1552.8 642.863 1553.28 642.204 1553.75 639.816 C 1564.84 644.296 1582.63 663.359 1590.37 672.626 C 1593.61 676.517 1595.86 678.778 1595.37 684.091 z"/>
<path transform="translate(0,0)" fill="rgb(254,254,254)" d="M 640.378 664.805 C 638.933 664.254 638.505 663.888 637.41 662.863 C 636.294 657.397 638.857 652.706 640.934 647.787 C 643.031 649.103 643.424 649.371 644.571 651.542 C 644.575 656.283 642.231 660.524 640.378 664.805 z"/>
<path transform="translate(0,0)" fill="rgb(254,254,254)" d="M 479.495 659.815 C 466.35 667.656 457.548 680.644 444.924 688.668 L 443.455 687.661 L 445.74 688.238 L 443.432 687.365 C 443.802 685.859 444.156 684.404 444.737 682.963 C 450.72 668.103 473.777 654.736 488.143 648.976 C 491.039 649.151 491.761 648.9 493.977 650.697 C 494.257 651.926 494.359 652.022 494.251 653.459 C 493.667 661.256 470.788 685.458 463.764 690.589 L 462.695 690.003 C 461.321 681.558 479.049 666.349 483.752 659.018 L 483.439 657.972 L 479.495 659.815 z"/>
<path transform="translate(0,0)" fill="rgb(254,254,254)" d="M 1360.1 985.903 C 1376.09 985.37 1392.12 984.742 1407.92 981.968 C 1421.41 979.599 1443.64 973.609 1451.51 961.373 C 1453.36 958.502 1454.2 955.342 1453.5 951.98 C 1452.27 950.445 1451.9 948.926 1449.55 949.204 C 1444.76 949.773 1431.27 962.905 1422.28 965.723 C 1395.53 974.102 1363.18 974.34 1335.61 970.435 C 1324.72 968.892 1311.08 965.498 1304.43 956.008 C 1299.52 948.99 1297.27 939.903 1295.91 931.542 C 1291.81 906.177 1291.37 879.54 1290.68 853.878 C 1289.54 822.463 1289.1 791.026 1289.35 759.591 C 1289.39 744.431 1287.48 726.006 1290.65 711.271 C 1295.47 688.865 1318.01 672.536 1335.95 660.75 C 1342.92 661.297 1358.99 674.555 1366.52 678.256 C 1382.75 686.239 1402.5 689.312 1420 693.755 C 1429.01 722.034 1438.26 747.091 1460.65 767.654 C 1469.27 775.571 1479.16 782.223 1486.5 791.419 L 1487.48 792.666 C 1490.6 786.445 1494.04 782.968 1500.41 779.839 C 1506.12 777.03 1512.62 777.049 1518.54 779.255 C 1525.9 781.999 1531.93 787.421 1535.06 794.666 C 1539.62 805.22 1537.59 818.397 1533.26 828.76 C 1528.84 839.34 1522.11 847.112 1511.47 851.489 C 1506.11 850.69 1500.27 848.958 1495.41 852.077 C 1493.77 853.131 1494.11 853.313 1493.74 855.027 C 1496.58 859.615 1500.83 860.528 1505.79 861.745 C 1503.16 889.234 1496.92 917.114 1496.07 944.681 C 1494.2 945.801 1492.34 946.931 1490.56 948.181 C 1482.24 954.034 1479.87 960.388 1478.37 970.027 C 1466.92 981.345 1471.42 982.295 1464.73 992.452 C 1461.53 997.31 1456.74 1001.93 1452.92 1006.37 C 1442.27 1018.82 1431.5 1031.16 1420.61 1043.39 C 1410.67 1054.48 1394.37 1069.07 1387.94 1082.13 C 1386.48 1085.1 1385.3 1088.19 1386.46 1091.45 C 1392.79 1109.26 1448.65 1146.92 1466.64 1155.83 C 1484.81 1145.3 1502.29 1114.95 1516.08 1097.77 C 1524.17 1118.9 1530.09 1141.77 1536.48 1163.49 C 1558.79 1239.31 1575.32 1316.55 1595.43 1392.93 C 1607.63 1439.25 1620.88 1484.69 1636.98 1529.82 C 1644.58 1551.12 1654.18 1571.68 1661.52 1593.04 C 1638.99 1593.37 1616.18 1591.63 1593.66 1590.55 L 1462.69 1583.65 L 1305.39 1575.83 C 1263.64 1573.85 1221.77 1572.37 1180.13 1568.82 C 1174.31 1519.67 1171.07 1465.91 1168.32 1416.25 C 1167.08 1388.79 1166.34 1361.03 1168.89 1333.62 C 1171.38 1306.68 1174.52 1279.96 1176.29 1252.93 C 1176.94 1243 1178.27 1232.12 1177.59 1222.23 C 1177.31 1218.07 1176.75 1214.3 1173.54 1211.46 C 1171.53 1212.05 1171.81 1211.63 1170.62 1213.03 C 1163.81 1221.07 1165.14 1251.48 1164.32 1263 C 1161.71 1299.93 1156.9 1336.75 1156.71 1373.81 C 1156.48 1418.42 1159.34 1463.77 1163.24 1508.22 C 1165 1528.22 1167.66 1548.15 1169.15 1568.17 C 1129.81 1567.21 1090.47 1562.7 1051.15 1560.84 C 1066.22 1476.39 1080.51 1391.8 1094.03 1307.09 C 1096.69 1289.4 1099 1271.66 1100.98 1253.89 C 1103.93 1226.77 1106.08 1199.63 1114.43 1173.47 C 1127.49 1132.53 1156.13 1099.14 1197.82 1086.42 C 1216.9 1080.6 1236.66 1077.83 1255.64 1071.41 C 1285.31 1061.37 1314.52 1045.75 1342.39 1031.49 C 1341.32 1039.43 1333.74 1068.45 1336.37 1074.04 C 1337.37 1076.16 1338.83 1077.07 1340.85 1078.04 C 1342.46 1077.84 1342.78 1078 1344.13 1076.93 C 1355.06 1068.27 1358.21 1001.58 1360.1 985.903 z M 1303.92 733.006 C 1302.44 736.695 1300.11 740.74 1301.93 744.669 C 1302.66 746.247 1303.99 746.734 1305.59 747.165 C 1314.55 749.574 1338.97 749.966 1347.98 748.054 C 1350.08 745.432 1350.83 744.061 1351.51 740.773 C 1350.8 738.023 1350.69 737.208 1348.17 735.538 C 1341.02 730.813 1313.69 732.889 1303.92 733.006 z M 1390.42 733.263 C 1387.92 734.767 1385.89 735.37 1385.08 738.468 C 1384.37 741.17 1385.05 742.933 1386.4 745.212 C 1395.79 752.351 1418.28 750.019 1429.91 749.697 C 1431.69 749.043 1433.36 749.083 1434.13 747.233 C 1435.17 744.747 1435.63 742.403 1434.66 739.824 C 1433.74 737.38 1431.25 735.971 1428.89 735.183 C 1418.07 731.58 1401.87 732.881 1390.42 733.263 z M 1313.84 763.943 C 1308.47 768.602 1305.78 773.906 1305.42 781.111 C 1305.19 785.658 1306.5 790.444 1309.69 793.796 C 1312.46 796.706 1315.39 797.225 1319.18 797.178 C 1320.11 797.163 1321.03 797.131 1321.94 797.083 C 1327.12 791.123 1330.65 784.997 1329.95 776.794 C 1329.61 772.852 1327.9 769.208 1324.75 766.753 C 1321.4 764.153 1317.92 763.912 1313.84 763.943 z M 1410.2 763.979 C 1405.25 767.792 1403.09 771.189 1402.29 777.486 C 1401.68 782.247 1402.94 787.295 1406.19 790.907 C 1409.02 794.047 1412.34 794.929 1416.46 795.283 C 1421.2 791.926 1423.14 788.325 1423.99 782.549 C 1424.77 777.339 1423.84 771.641 1420.4 767.49 C 1418.71 765.455 1416.68 764.243 1414.04 763.947 C 1412.81 763.809 1411.42 763.929 1410.2 763.979 z M 1509.65 785.323 C 1502.71 786.564 1498.45 788.168 1494.22 794.154 C 1492.85 796.097 1492.66 797.611 1492.7 799.924 C 1494.04 802.682 1495.5 803.596 1498 805.145 C 1499.91 804.495 1499.27 805.101 1500.03 803.792 C 1502.37 799.767 1505.29 796.614 1509.99 795.508 C 1512.42 794.937 1515.02 795.15 1517.04 796.743 C 1519.3 798.527 1520.22 801.889 1520.27 804.662 C 1520.39 811.534 1517.08 819.033 1514.48 825.279 L 1513.77 826.657 C 1512.36 829.445 1510.75 831.766 1511.42 835.013 C 1513.37 836.983 1513.32 836.914 1516.09 837.081 C 1522.8 833.676 1526.18 826.57 1528.42 819.694 C 1530.89 812.113 1532.61 802.149 1528.99 794.701 C 1526.89 790.382 1522.8 787.531 1518.25 786.212 C 1515.41 785.387 1512.59 785.281 1509.65 785.323 z M 1350.34 795.362 C 1344.04 804.209 1334.38 828.635 1336.46 839.595 C 1337.35 844.278 1339.83 848.715 1343.83 851.404 C 1346.4 853.126 1349.51 853.912 1352.43 854.819 L 1353.53 855.17 C 1355.6 852.976 1356.4 852.459 1357.03 849.437 C 1353.05 840.329 1342.51 840.719 1347.82 827.301 C 1350.66 820.118 1358.58 807.668 1356.57 799.997 C 1355.94 797.549 1354.46 796.828 1352.25 795.959 C 1351.63 795.716 1350.98 795.561 1350.34 795.362 z M 1410.05 855.585 C 1395.01 870.313 1388.8 881.858 1364.4 881.344 C 1356.41 881.176 1342.2 874.064 1336.09 878.367 C 1335.85 880.744 1336.1 882.725 1337.77 884.641 C 1339.09 886.15 1340.91 887.181 1342.68 888.071 C 1359.16 894.002 1376.53 893.605 1392.5 885.986 C 1400.43 882.199 1413.3 873.454 1415.75 864.455 C 1416.25 862.614 1416.15 861.371 1415.86 859.527 C 1414.16 856.96 1412.81 856.616 1410.05 855.585 z M 1352.31 1273.54 C 1350.74 1275.88 1349.89 1277.71 1349.38 1280.51 C 1344.64 1306.34 1343.82 1334.17 1341.56 1360.38 C 1339.81 1380.73 1334 1429.63 1336.36 1447.59 C 1338.62 1450.14 1340.38 1450.42 1343.66 1451.2 C 1345.03 1448.86 1345.94 1447.01 1346.34 1444.31 C 1347.91 1433.7 1348.26 1422.61 1349.11 1411.91 C 1351.05 1387.19 1352.86 1362.46 1354.55 1337.72 C 1356.02 1318.78 1360.25 1296.17 1359.73 1277.73 C 1357.98 1274.98 1356.7 1274.41 1353.42 1273.73 C 1353.05 1273.65 1352.68 1273.6 1352.31 1273.54 z M 1216.36 1428.52 C 1210.15 1430.59 1206.74 1437.24 1208.69 1443.49 C 1210.64 1449.73 1217.23 1453.27 1223.51 1451.43 C 1227.68 1450.22 1230.86 1446.85 1231.84 1442.62 C 1232.82 1438.39 1231.44 1433.96 1228.23 1431.04 C 1225.02 1428.12 1220.48 1427.16 1216.36 1428.52 z M 1490.93 1428.39 C 1486.55 1429.32 1483.01 1432.53 1481.67 1436.8 C 1480.33 1441.08 1481.39 1445.74 1484.45 1449.01 C 1487.5 1452.28 1492.09 1453.65 1496.44 1452.59 C 1503.03 1450.99 1507.12 1444.39 1505.62 1437.77 C 1504.11 1431.15 1497.57 1426.97 1490.93 1428.39 z"/>
<path transform="translate(0,0)" fill="rgb(254,254,254)" d="M 470.335 703.458 C 468.64 703.249 467.945 702.736 466.511 701.865 L 466.15 699.906 C 472.453 692.468 507.68 669.137 518.108 661.738 L 520.492 662.589 L 521.237 664.717 C 516.956 675.796 481.479 697.819 470.335 703.458 z"/>
<path transform="translate(0,0)" fill="rgb(254,254,254)" d="M 1584.3 688.108 C 1582.86 689.754 1582.07 690.739 1579.94 691.387 C 1573.08 688.784 1566.87 682.004 1562.92 675.992 C 1561.11 673.25 1561.21 672.28 1561.75 669.073 C 1562.15 669.431 1562.52 669.832 1562.95 670.148 C 1565.46 671.968 1566.87 671.557 1569.79 671.079 L 1571.17 670.838 C 1577.02 674.606 1580.65 682.313 1584.3 688.108 z"/>
<path transform="translate(0,0)" fill="rgb(254,254,254)" d="M 1565.14 698.995 L 1563.11 698.79 C 1557.25 694.5 1545.82 682.014 1544.48 674.687 C 1546.72 674.837 1548.36 675.403 1550.06 676.868 C 1556.19 682.132 1564.59 690.954 1565.14 698.995 z"/>
<path transform="translate(0,0)" fill="rgb(254,254,254)" d="M 700.836 742.407 L 698.217 740.722 C 695.532 734.494 701.611 722.128 703.989 715.887 C 705.367 716.665 707.003 716.99 707.415 718.647 C 708.946 724.813 704.07 737.123 700.836 742.407 z"/>
<path transform="translate(0,0)" fill="rgb(1,1,1)" d="M 1347.98 748.054 C 1338.97 749.966 1314.55 749.574 1305.59 747.165 C 1303.99 746.734 1302.66 746.247 1301.93 744.669 C 1300.11 740.74 1302.44 736.695 1303.92 733.006 C 1313.69 732.889 1341.02 730.813 1348.17 735.538 C 1350.69 737.208 1350.8 738.023 1351.51 740.773 C 1350.83 744.061 1350.08 745.432 1347.98 748.054 z"/>
<path transform="translate(0,0)" fill="rgb(1,1,1)" d="M 1429.91 749.697 C 1418.28 750.019 1395.79 752.351 1386.4 745.212 C 1385.05 742.933 1384.37 741.17 1385.08 738.468 C 1385.89 735.37 1387.92 734.767 1390.42 733.263 C 1401.87 732.881 1418.07 731.58 1428.89 735.183 C 1431.25 735.971 1433.74 737.38 1434.66 739.824 C 1435.63 742.403 1435.17 744.747 1434.13 747.233 C 1433.36 749.083 1431.69 749.043 1429.91 749.697 z"/>
<path transform="translate(0,0)" fill="rgb(254,254,254)" d="M 1770.28 822.732 C 1746.33 798.745 1727.67 776.856 1695.83 761.503 C 1684.21 755.899 1665.15 750.454 1655.68 744.431 L 1656.39 743.073 C 1659.84 741.093 1662.96 740.155 1666.81 739.2 C 1680.93 738.584 1696.34 742.821 1709.3 748.098 C 1733.45 757.933 1768.12 784.151 1777.82 809.209 C 1778.78 811.672 1779.63 815.256 1778.17 817.677 C 1776.56 820.345 1773.2 821.934 1770.28 822.732 z"/>
<path transform="translate(0,0)" fill="rgb(254,254,254)" d="M 1759.57 832.432 L 1757.62 832.342 C 1743.35 809.621 1711.67 786.37 1687.62 774.674 C 1677.83 769.914 1666.76 766.912 1658.63 759.476 C 1693.87 768.256 1729.64 792.541 1753.07 820.031 C 1756.32 823.851 1759.96 827.3 1759.57 832.432 z"/>
<path transform="translate(0,0)" fill="rgb(1,1,1)" d="M 1321.94 797.083 C 1321.03 797.131 1320.11 797.163 1319.18 797.178 C 1315.39 797.225 1312.46 796.706 1309.69 793.796 C 1306.5 790.444 1305.19 785.658 1305.42 781.111 C 1305.78 773.906 1308.47 768.602 1313.84 763.943 C 1317.92 763.912 1321.4 764.153 1324.75 766.753 C 1327.9 769.208 1329.61 772.852 1329.95 776.794 C 1330.65 784.997 1327.12 791.123 1321.94 797.083 z"/>
<path transform="translate(0,0)" fill="rgb(1,1,1)" d="M 1416.46 795.283 C 1412.34 794.929 1409.02 794.047 1406.19 790.907 C 1402.94 787.295 1401.68 782.247 1402.29 777.486 C 1403.09 771.189 1405.25 767.792 1410.2 763.979 C 1411.42 763.929 1412.81 763.809 1414.04 763.947 C 1416.68 764.243 1418.71 765.455 1420.4 767.49 C 1423.84 771.641 1424.77 777.339 1423.99 782.549 C 1423.14 788.325 1421.2 791.926 1416.46 795.283 z"/>
<path transform="translate(0,0)" fill="rgb(254,254,254)" d="M 402.981 803.829 C 401.099 803.189 400.58 802.544 399.444 800.938 C 398.121 791.693 401.653 777.499 406.116 769.528 L 408.836 771.669 C 411.133 780.453 405.571 795.258 402.981 803.829 z"/>
<path transform="translate(0,0)" fill="rgb(254,254,254)" d="M 613.245 807.144 C 612.168 806.079 610.962 805.378 610.657 803.829 C 609.323 797.063 612.316 784.231 616.108 778.623 L 617.942 780.584 C 620.138 787.433 615.988 800.646 613.245 807.144 z"/>
<path transform="translate(0,0)" fill="rgb(254,254,254)" d="M 1563.69 910.134 C 1572.9 897.637 1583.69 886.03 1593.9 874.333 L 1646.04 815.526 C 1655.82 804.675 1667.34 794.447 1675.68 782.457 C 1697.76 789.308 1721.82 808.814 1737.48 825.571 C 1729.13 837.552 1719.28 848.909 1710.04 860.246 C 1691.56 882.914 1672.84 905.384 1653.88 927.653 C 1647.85 934.818 1637.69 949.816 1630.98 954.659 L 1629.51 953.468 C 1616.55 934.24 1584.73 918.578 1563.69 910.134 z"/>
<path transform="translate(0,0)" fill="rgb(1,1,1)" d="M 1514.48 825.279 C 1517.08 819.033 1520.39 811.534 1520.27 804.662 C 1520.22 801.889 1519.3 798.527 1517.04 796.743 C 1515.02 795.15 1512.42 794.937 1509.99 795.508 C 1505.29 796.614 1502.37 799.767 1500.03 803.792 C 1499.27 805.101 1499.91 804.495 1498 805.145 C 1495.5 803.596 1494.04 802.682 1492.7 799.924 C 1492.66 797.611 1492.85 796.097 1494.22 794.154 C 1498.45 788.168 1502.71 786.564 1509.65 785.323 C 1512.59 785.281 1515.41 785.387 1518.25 786.212 C 1522.8 787.531 1526.89 790.382 1528.99 794.701 C 1532.61 802.149 1530.89 812.113 1528.42 819.694 C 1526.18 826.57 1522.8 833.676 1516.09 837.081 C 1513.32 836.914 1513.37 836.983 1511.42 835.013 C 1510.75 831.766 1512.36 829.445 1513.77 826.657 L 1514.48 825.279 z"/>
<path transform="translate(0,0)" fill="rgb(1,1,1)" d="M 1353.53 855.17 L 1352.43 854.819 C 1349.51 853.912 1346.4 853.126 1343.83 851.404 C 1339.83 848.715 1337.35 844.278 1336.46 839.595 C 1334.38 828.635 1344.04 804.209 1350.34 795.362 C 1350.98 795.561 1351.63 795.716 1352.25 795.959 C 1354.46 796.828 1355.94 797.549 1356.57 799.997 C 1358.58 807.668 1350.66 820.118 1347.82 827.301 C 1342.51 840.719 1353.05 840.329 1357.03 849.437 C 1356.4 852.459 1355.6 852.976 1353.53 855.17 z"/>
<path transform="translate(0,0)" fill="rgb(254,254,254)" d="M 696.553 1069.01 C 697.326 1046.48 699.735 1023.81 701.682 1001.35 C 702.834 988.055 703.012 973.157 706.261 960.27 C 709.557 961.455 714.196 963.714 717.692 963.281 C 719.212 963.093 719.42 962.256 720.307 961.16 C 721.178 952.618 708.641 939.619 704.649 931.608 C 693.537 909.304 688.363 884.598 696.726 860.438 C 700.848 848.529 706.444 837.676 718.233 831.891 C 719.995 831.97 721.695 832.254 723.442 832.503 C 732.909 839.21 729.303 858.834 733.248 869.06 C 734.253 871.666 734.827 872.646 737.411 873.667 C 739.023 872.918 739.932 872.294 741.149 870.939 C 745.775 865.786 742.073 847.716 741.291 840.714 C 749.751 841.238 758.184 841.278 766.655 841.306 C 765.53 851.585 763.017 861.82 761.193 872 L 753.15 919.006 C 748.1 948.074 743.045 977.05 737.183 1005.97 C 734.354 1019.93 732.222 1034.86 727.162 1048.19 C 719.38 1060.65 710.118 1065.03 696.553 1069.01 z M 713.08 848.709 C 702.92 864.668 703.165 890.094 707.122 908.067 C 708.159 912.778 709.612 916.784 712.77 920.458 C 714.533 921.256 715.873 921.875 717.82 921.991 C 721.312 917.304 720.936 915.421 720.107 909.84 C 718.526 899.197 716.345 888.607 716.693 877.789 C 716.929 870.456 724.672 855.166 720.592 849.489 C 717.811 848.545 715.956 848.58 713.08 848.709 z"/>
<path transform="translate(0,0)" fill="rgb(254,254,254)" d="M 1640.7 961.378 C 1676.64 954.662 1706.23 942.733 1728.59 912.265 C 1736.73 901.165 1747.68 878.207 1743.16 864.144 C 1741.45 858.812 1736.51 853.149 1736.04 847.686 C 1735.89 845.965 1738.22 843.815 1739.26 842.458 C 1745.08 844.994 1747.35 854.267 1753.51 856.728 C 1759.98 859.315 1768.82 854.301 1774.66 851.521 C 1768.57 895.756 1761.41 940.024 1754.62 984.171 C 1750.67 1009.83 1747.79 1035.98 1742.58 1061.39 C 1720.55 1056.36 1697.27 1053.22 1674.87 1050.15 C 1659.46 1047.82 1644.1 1045.44 1628.82 1042.35 C 1630.27 1025.66 1633.33 974.05 1640.7 961.378 z"/>
<path transform="translate(0,0)" fill="rgb(1,1,1)" d="M 717.82 921.991 C 715.873 921.875 714.533 921.256 712.77 920.458 C 709.612 916.784 708.159 912.778 707.122 908.067 C 703.165 890.094 702.92 864.668 713.08 848.709 C 715.956 848.58 717.811 848.545 720.592 849.489 C 724.672 855.166 716.929 870.456 716.693 877.789 C 716.345 888.607 718.526 899.197 720.107 909.84 C 720.936 915.421 721.312 917.304 717.82 921.991 z"/>
<path transform="translate(0,0)" fill="rgb(1,1,1)" d="M 1342.68 888.071 C 1340.91 887.181 1339.09 886.15 1337.77 884.641 C 1336.1 882.725 1335.85 880.744 1336.09 878.367 C 1342.2 874.064 1356.41 881.176 1364.4 881.344 C 1388.8 881.858 1395.01 870.313 1410.05 855.585 C 1412.81 856.616 1414.16 856.96 1415.86 859.527 C 1416.15 861.371 1416.25 862.614 1415.75 864.455 C 1413.3 873.454 1400.43 882.199 1392.5 885.986 C 1376.53 893.605 1359.16 894.002 1342.68 888.071 z"/>
<path transform="translate(0,0)" fill="rgb(254,254,254)" d="M 490.775 914.595 C 489.764 914.019 489.017 913.191 488.176 912.396 C 485.63 904.221 487.715 889.007 491.018 881.281 C 491.378 881.45 491.763 881.576 492.1 881.788 C 493.456 882.643 494.143 883.202 494.586 884.732 C 496.796 892.371 494.808 907.685 490.775 914.595 z"/>
<path transform="translate(0,0)" fill="rgb(254,254,254)" d="M 650.553 921.6 C 649.308 921.056 648.639 920.348 647.652 919.435 C 645.292 910.315 648.19 899.162 651.357 890.496 C 652.421 891.118 653.276 892.03 654.188 892.855 C 656.662 901.023 653.342 913.687 650.553 921.6 z"/>
<path transform="translate(0,0)" fill="rgb(254,254,254)" d="M 1490.69 967.527 C 1492.73 964.303 1495.45 958.81 1498.97 957.117 C 1510.28 951.69 1545.81 973.643 1555.4 981.044 C 1560.27 984.808 1572.42 998.152 1577.45 999.401 C 1578.82 999.739 1579.57 998.86 1580.69 998.206 C 1582 995.576 1582.57 994.044 1581.85 991.101 C 1579.24 980.46 1544.96 961.152 1534.77 956.454 C 1527.4 953.055 1518.68 951.006 1511.71 947.025 C 1509.57 945.8 1509.53 945.59 1509.03 943.315 C 1509.87 941.372 1510.9 940.236 1512.69 939.065 C 1527.59 929.315 1569.58 956.084 1581.69 965.191 C 1586.94 969.132 1594.32 979.419 1600.42 980.528 C 1602.97 979.142 1603.17 979.01 1604.46 976.422 C 1603.66 961.236 1557.77 936.255 1544.34 930.933 C 1540.27 929.319 1531.58 929.509 1529.33 927.323 C 1530.22 922.16 1535.13 917.858 1539.1 914.805 C 1541.81 915.246 1544.56 915.905 1547.22 916.586 C 1568.53 922.027 1601.56 940.85 1615.7 957.821 C 1618.78 961.521 1620.99 966.354 1623.44 970.507 C 1620.54 990.517 1618.94 1010.9 1616.82 1031.01 C 1614.69 1051.18 1610.18 1074.39 1612.47 1094.54 C 1615.94 1125.04 1688.75 1266.02 1708.34 1292.57 C 1705.29 1309.92 1703.23 1327.55 1700.66 1344.99 C 1694.73 1384.13 1689.03 1423.31 1683.58 1462.52 C 1678.28 1499.18 1670.45 1536.04 1667.55 1572.96 C 1656.42 1542.01 1643.51 1512.01 1633.35 1480.63 C 1613.62 1419.71 1598.6 1356.51 1583.84 1294.22 C 1573.42 1253.06 1563.31 1211.73 1551.4 1170.97 C 1544.27 1146.56 1531.55 1115.99 1528.02 1091.75 C 1525.56 1074.87 1529.09 1056.81 1528.5 1039.75 C 1527.48 1010.65 1496.77 1006.68 1479.48 990.006 C 1479.18 989.719 1478.89 989.421 1478.6 989.128 L 1484.81 978.906 C 1505.21 983.395 1521.31 992.118 1537.4 1005.49 C 1542.6 1009.81 1548.59 1016.05 1554.9 1018.58 C 1557.76 1019.72 1560.92 1020.78 1563.9 1019.61 C 1564.35 1018.22 1564.46 1018.6 1563.98 1017.13 C 1560.04 1004.87 1530.38 985.494 1519.02 979.783 C 1509.83 975.161 1499.95 972.08 1490.69 967.527 z"/>
<path transform="translate(0,0)" fill="rgb(1,1,1)" d="M 1067.27 1015.64 C 1064.92 1014.97 1062.07 1014.49 1060.29 1012.72 C 1059.23 1011.67 1059.52 1010.26 1059.42 1008.87 C 1068.22 991.901 1127.09 935.029 1145.36 921.752 C 1147.04 921.704 1148.1 921.978 1149.7 922.408 C 1151.84 924.398 1151.93 924.362 1152.29 927.241 C 1148.85 936.463 1134.24 945.18 1126.88 951.703 C 1114.22 962.909 1101.91 975.656 1090.83 988.439 C 1082.99 997.481 1075.64 1007.08 1067.27 1015.64 z"/>
<path transform="translate(0,0)" fill="rgb(254,254,254)" d="M 398.555 968.553 C 396.734 967.818 395.891 967.23 394.604 965.745 C 392.428 956.711 393.973 943.64 398.184 935.345 C 399.957 936.642 400.519 937.016 401.147 939.242 C 403.094 946.14 401.885 961.85 398.555 968.553 z"/>
<path transform="translate(0,0)" fill="rgb(254,254,254)" d="M 559.416 968.46 L 557.923 968.696 L 556.213 967.401 C 552.857 958.797 555.757 944.342 556.949 935.204 C 559.144 935.728 560.015 936.141 561.583 937.773 C 564.732 947.078 561.835 959.18 559.416 968.46 z"/>
<path transform="translate(0,0)" fill="rgb(1,1,1)" d="M 1069.12 1064.58 C 1068.03 1064.17 1066.51 1063.7 1065.5 1063.06 C 1063.31 1061.66 1062.95 1061.27 1062.39 1058.9 C 1064.38 1050.88 1071.52 1043.03 1076.43 1036.5 C 1096.3 1010.11 1127.91 972.987 1154.87 954.584 C 1155.28 954.782 1155.72 954.932 1156.11 955.179 C 1158.33 956.598 1159.58 957.855 1160.34 960.39 C 1159.55 966.092 1148.06 974.369 1143.59 978.515 C 1125.59 994.923 1109.06 1012.87 1094.18 1032.15 C 1085.9 1042.68 1078.67 1055.24 1069.12 1064.58 z"/>
<path transform="translate(0,0)" fill="rgb(254,254,254)" d="M 1403.36 1082.69 C 1426.68 1055.73 1449.51 1028.3 1473.2 1001.67 C 1483.68 1005.85 1507.58 1022.36 1514.87 1030.9 C 1514.94 1047.7 1514.8 1064.5 1514.48 1081.3 C 1499.23 1097.12 1486.24 1116 1473.06 1133.61 L 1460.17 1122.26 C 1443.64 1106.58 1422.58 1094.77 1403.36 1082.69 z"/>
<path transform="translate(0,0)" fill="rgb(254,254,254)" d="M 632.693 1068.57 L 630.67 1068.45 L 629.239 1066.54 C 627.745 1058.12 629.298 1045.32 633.039 1037.69 C 634.611 1038.33 635.601 1038.98 636.965 1039.95 C 639.563 1048.17 636.384 1060.97 632.693 1068.57 z"/>
<path transform="translate(0,0)" fill="rgb(254,254,254)" d="M 1710.48 1275.66 C 1687.57 1234.1 1666.25 1191.67 1646.58 1148.48 C 1638.98 1131.84 1628.31 1111.78 1625.15 1093.76 C 1623.02 1081.69 1626.45 1066.92 1627.2 1054.63 C 1665.21 1058.24 1702.99 1067.34 1740.98 1071.86 C 1736.18 1101.1 1732.74 1130.63 1728.62 1159.98 L 1715.18 1249.11 C 1713.84 1258 1712.28 1266.85 1710.48 1275.66 z"/>
<path transform="translate(0,0)" fill="rgb(254,254,254)" d="M 436.498 1103.78 L 433.85 1101.24 C 431.089 1091.56 433.63 1069.42 437.878 1060.35 C 439.579 1061.39 440.136 1061.55 440.66 1063.49 C 442.569 1070.56 439.706 1097.21 436.498 1103.78 z"/>
<path transform="translate(0,0)" fill="rgb(254,254,254)" d="M 536.4 1105.65 L 533.25 1104.6 C 532.561 1103.55 532.408 1103.45 532.014 1102.04 C 530.072 1095.09 533.491 1079.75 536.905 1073.4 C 537.879 1073.87 538.803 1074.59 539.705 1075.19 C 542.413 1082.74 539.539 1098.58 536.4 1105.65 z"/>
<path transform="translate(0,0)" fill="rgb(254,254,254)" d="M 361.778 1126.58 C 361.048 1126.63 360.34 1126.3 359.629 1126.13 C 359.469 1125.76 359.272 1125.39 359.148 1125.01 C 356.46 1116.6 358.697 1096.55 362.066 1088.38 C 363.815 1089.42 365.205 1090.55 365.783 1092.53 C 368.192 1100.79 365.672 1119.16 361.778 1126.58 z"/>
<path transform="translate(0,0)" fill="rgb(254,254,254)" d="M 1463.93 1140.3 C 1451.35 1137.89 1413.95 1105.76 1402.63 1095.97 C 1419.3 1101.93 1449.58 1128.31 1463.93 1140.3 z"/>
<path transform="translate(0,0)" fill="rgb(254,254,254)" d="M 594.968 1187.25 C 593.64 1186.21 592.02 1185.07 591.155 1183.58 C 586.704 1175.9 590.233 1153.54 593.311 1145.49 C 594.846 1146.27 595.375 1147.04 596.454 1148.34 C 599.284 1158.65 597.6 1176.83 594.968 1187.25 z"/>
<path transform="translate(0,0)" fill="rgb(254,254,254)" d="M 279.01 1185.93 C 277.712 1195.89 273.128 1215.24 278.295 1223.93 C 280.482 1227.61 284.23 1229.35 288.264 1230.17 C 323.7 1237.38 318.766 1187.67 330.179 1179.83 L 331.79 1180.8 C 335.573 1187.74 332.556 1201.57 332.196 1209.55 C 331.836 1217.53 331.437 1228.11 337.422 1234.22 C 340.688 1237.56 345.435 1239.56 350.101 1239.61 C 354.756 1239.65 358.622 1237.83 361.348 1234.04 C 367.308 1225.75 372.808 1187.49 382.318 1180.67 C 384.666 1178.99 385.188 1179.29 387.818 1179.87 C 397.899 1189.91 382.833 1227.9 389.934 1243.09 C 391.123 1245.64 393.004 1247.34 395.729 1248.09 C 416.751 1253.82 414.639 1231.63 420.435 1228.15 C 423.63 1233.96 422.229 1242.04 424.946 1248.17 C 426.366 1251.38 430.628 1254.06 433.776 1255.27 C 437.543 1256.71 442.763 1257.23 446.42 1255.14 C 459.291 1247.79 453.579 1223.41 457.966 1211.44 C 458.595 1209.72 458.772 1209.59 460.456 1208.8 C 465.825 1215.15 461.303 1236.19 462.892 1245.08 C 463.789 1250.1 466.447 1254.98 470.965 1257.65 C 473.154 1258.94 475.444 1259.3 477.859 1258.32 C 488.149 1254.14 487.278 1234.99 491.974 1226.64 C 496.09 1228.77 495.694 1248.87 498.842 1254.1 C 500.146 1256.26 502.445 1258.03 504.97 1258.43 C 520.76 1260.91 518.054 1215.98 526.975 1208.18 L 528.894 1209.13 C 534.1 1217.5 530.588 1235.12 531.141 1245.18 C 531.499 1251.7 532.527 1259.28 537.836 1263.74 C 542.517 1267.67 549.82 1268.16 555.645 1267.58 C 579.077 1265.23 568.03 1231.28 579.412 1217.94 C 588.109 1218.52 587.488 1248.13 595.975 1254.06 C 597.957 1255.45 600 1255.67 602.223 1254.73 C 612.985 1250.21 611.775 1210.97 615.954 1200.06 C 616.833 1197.76 617.416 1196.54 619.698 1195.45 C 627.044 1202.48 622.98 1230.09 626.067 1240.56 C 627.32 1244.82 629.779 1248.62 633.843 1250.64 C 637.283 1252.34 641.471 1252.5 645.075 1251.23 C 658.547 1246.46 655.093 1231.93 659.897 1221.61 L 660.983 1221.62 C 663.795 1228.5 662.904 1236.27 665.195 1243.3 C 666.282 1246.63 668.054 1249.29 671.388 1250.72 C 673.661 1251.68 676.256 1251.47 678.344 1250.16 C 681.381 1248.22 683.029 1243.95 683.955 1240.66 C 687.852 1226.8 688.781 1191.05 690.098 1174.48 C 744.578 1193.37 813.115 1200.16 861.453 1231.51 C 890.954 1250.64 914.404 1280.05 930.198 1311.28 C 941.439 1333.5 948.388 1357.61 955.978 1381.24 C 973.377 1435.41 987.642 1490.16 1002.41 1545.09 C 1025.18 1629.8 1050.42 1714.53 1068.43 1800.41 C 1003.8 1800.6 939.237 1797.5 874.638 1797 C 864.299 1771.57 856.401 1745.37 847.712 1719.37 C 834.544 1680.05 820.799 1640.92 806.48 1602.01 C 800.886 1587.2 795.894 1571.52 789.202 1557.19 C 782.661 1543.19 766.271 1514.24 752.233 1506.82 C 749.703 1505.48 748.39 1505.55 745.691 1506.2 C 743.975 1508.1 742.62 1508.87 743.793 1511.67 C 746.217 1517.43 753.792 1523.94 757.677 1529.2 C 770.586 1546.69 784.507 1571.84 789.39 1593.32 C 793.829 1612.83 788.922 1661.25 787.539 1683.24 C 785.002 1723.58 781.912 1764.01 780.557 1804.4 C 721.799 1804.95 662.875 1802.32 604.195 1803.54 C 563.112 1804.39 522.162 1808.4 481.091 1809.88 C 435.569 1811.52 390.102 1810.26 344.584 1811.04 C 303.068 1811.76 261.626 1814.72 220.093 1815.28 C 215.023 1774.38 212.219 1732.99 208.769 1691.93 C 204.708 1641.81 199.686 1591.77 193.706 1541.85 C 190.278 1509.26 186.799 1476.45 185.863 1443.68 C 185.695 1437.81 187.203 1393.21 186.671 1391.94 C 185.454 1389.04 184.73 1388.89 182.015 1387.68 C 179.435 1387.75 177.899 1388.11 175.986 1389.99 C 170.576 1395.29 173.165 1455.22 173.869 1466.62 C 177.009 1517.46 183.776 1568.59 188.929 1619.29 C 193.024 1659.58 195.471 1699.95 199.394 1740.23 C 201.844 1765.39 205.677 1790.52 207.376 1815.73 L 185.071 1816.1 C 177.678 1784.74 173.157 1746.81 167.987 1714.61 C 152.079 1615.53 139.268 1516.87 140.612 1416.32 C 141.127 1377.83 142.772 1338.61 153.413 1301.36 C 157.513 1286.85 163.576 1272.98 171.433 1260.11 C 177.687 1249.75 185.003 1240.06 193.814 1231.73 C 215.245 1211.47 250.38 1192.96 279.01 1185.93 z M 430.683 1324.66 C 423.646 1334.33 423.237 1360.52 421.95 1372.89 C 417.546 1415.18 413.622 1457.68 413.099 1500.22 C 412.576 1542.68 415.434 1584.95 418.294 1627.28 L 421.054 1668.49 C 421.456 1674.53 421.262 1681.32 422.316 1687.24 C 422.808 1690 423.84 1690.85 425.943 1692.58 C 427.773 1692.9 429.601 1693.26 431.446 1693.49 C 432.625 1691.7 434.229 1689.57 434.551 1687.41 C 435.486 1681.14 434.144 1672.63 433.78 1666.22 L 429.927 1608.32 C 424.478 1527.47 425.427 1454.2 435.147 1373.67 C 436.353 1363.68 441.44 1338.25 439.469 1329.49 C 439.109 1327.89 438.087 1326.91 436.986 1325.8 C 434.82 1325.2 432.931 1324.79 430.683 1324.66 z"/>
<path transform="translate(0,0)" fill="rgb(1,1,1)" d="M 1343.66 1451.2 C 1340.38 1450.42 1338.62 1450.14 1336.36 1447.59 C 1334 1429.63 1339.81 1380.73 1341.56 1360.38 C 1343.82 1334.17 1344.64 1306.34 1349.38 1280.51 C 1349.89 1277.71 1350.74 1275.88 1352.31 1273.54 C 1352.68 1273.6 1353.05 1273.65 1353.42 1273.73 C 1356.7 1274.41 1357.98 1274.98 1359.73 1277.73 C 1360.25 1296.17 1356.02 1318.78 1354.55 1337.72 C 1352.86 1362.46 1351.05 1387.19 1349.11 1411.91 C 1348.26 1422.61 1347.91 1433.7 1346.34 1444.31 C 1345.94 1447.01 1345.03 1448.86 1343.66 1451.2 z"/>
<path transform="translate(0,0)" fill="rgb(1,1,1)" d="M 431.446 1693.49 C 429.601 1693.26 427.773 1692.9 425.943 1692.58 C 423.84 1690.85 422.808 1690 422.316 1687.24 C 421.262 1681.32 421.456 1674.53 421.054 1668.49 L 418.294 1627.28 C 415.434 1584.95 412.576 1542.68 413.099 1500.22 C 413.622 1457.68 417.546 1415.18 421.95 1372.89 C 423.237 1360.52 423.646 1334.33 430.683 1324.66 C 432.931 1324.79 434.82 1325.2 436.986 1325.8 C 438.087 1326.91 439.109 1327.89 439.469 1329.49 C 441.44 1338.25 436.353 1363.68 435.147 1373.67 C 425.427 1454.2 424.478 1527.47 429.927 1608.32 L 433.78 1666.22 C 434.144 1672.63 435.486 1681.14 434.551 1687.41 C 434.229 1689.57 432.625 1691.7 431.446 1693.49 z"/>
<path transform="translate(0,0)" fill="rgb(1,1,1)" d="M 1223.51 1451.43 C 1217.23 1453.27 1210.64 1449.73 1208.69 1443.49 C 1206.74 1437.24 1210.15 1430.59 1216.36 1428.52 C 1220.48 1427.16 1225.02 1428.12 1228.23 1431.04 C 1231.44 1433.96 1232.82 1438.39 1231.84 1442.62 C 1230.86 1446.85 1227.68 1450.22 1223.51 1451.43 z"/>
<path transform="translate(0,0)" fill="rgb(1,1,1)" d="M 1496.44 1452.59 C 1492.09 1453.65 1487.5 1452.28 1484.45 1449.01 C 1481.39 1445.74 1480.33 1441.08 1481.67 1436.8 C 1483.01 1432.53 1486.55 1429.32 1490.93 1428.39 C 1497.57 1426.97 1504.11 1431.15 1505.62 1437.77 C 1507.12 1444.39 1503.03 1450.99 1496.44 1452.59 z"/>
<path transform="translate(0,0)" fill="rgb(254,254,254)" d="M 793.95 1795.09 C 796.065 1768.73 796.993 1742.19 798.661 1715.79 C 800.407 1688.15 802.93 1660.54 803.36 1632.83 C 809.809 1639.71 852.713 1775.53 858.716 1794.88 C 856.826 1796.72 854.813 1796.22 852.25 1796.38 C 832.889 1796.31 813.245 1796.77 793.95 1795.09 z"/>
</svg>