<svg version="1.1" xmlns="http://www.w3.org/2000/svg" style="display: block;" viewBox="0 0 2048 2048" width="1024" height="1024">
<path transform="translate(0,0)" fill="rgb(254,254,254)" d="M 0 0 L 2048 0 L 2048 2048 L 0 2048 L 0 0 z M 1725.71 1444.62 C 1716.95 1445.05 1708.24 1445.91 1699.5 1444.93 L 1699.35 1444.64 L 1701.83 1445.07 L 1702.35 1443.81 C 1706.21 1443.08 1710.26 1442.85 1714.18 1442.43 C 1717.31 1441.76 1719.62 1441.79 1721.96 1439.55 C 1719.47 1436.43 1712.97 1435.72 1709.13 1435.3 C 1705.17 1434.86 1701.09 1434.92 1697.1 1434.89 C 1697.1 1358.25 1704.44 1281.55 1707.59 1205 L 1716.62 993.462 C 1718.83 939.122 1720.14 884.806 1723.31 830.493 C 1727.58 761.272 1731.05 692.004 1733.71 622.703 C 1735.05 583.607 1737.51 539.591 1733.77 500.757 C 1732.72 489.921 1729.98 479.027 1721.89 471.199 C 1711.5 461.154 1691.45 457.63 1677.64 455.971 C 1652.22 452.918 1625.68 455.207 1600.13 455.743 C 1566.9 456.44 1533.73 456.428 1500.51 457.855 C 1457 459.725 1413.68 463.628 1370.28 467.044 C 1317.86 471.169 1265.9 475.082 1213.62 481.011 C 1186.27 484.113 1148.68 485.997 1122.93 492.187 C 1115.3 494.02 1109.27 496.149 1103.77 502.025 C 1092.41 514.161 1087.83 533.513 1084.66 549.31 C 1064 652.272 1064.2 758.8 1055.19 863.122 L 1033.6 1106.59 C 1029.61 1148.67 1026.19 1190.8 1023.34 1232.97 C 1020.95 1277.21 1019.55 1321.5 1019.14 1365.81 C 1018.64 1401.78 1016.92 1438.21 1018.73 1474.14 C 1019.25 1484.33 1020.7 1492.88 1028.59 1500 C 1036.24 1506.89 1044.97 1511.12 1055.22 1512.21 C 1084.05 1515.27 1121.77 1512.51 1151.45 1512.1 L 1301 1511.25 C 1376.64 1511.3 1452.28 1510.85 1527.91 1509.9 L 1610.31 1508.97 C 1626.59 1508.82 1643.35 1509.55 1659.55 1508.36 C 1666.87 1507.83 1670.96 1499.79 1678.01 1498.07 C 1692.47 1494.54 1727.12 1497.71 1737.44 1490.52 L 1737.52 1489.15 C 1727.07 1483.07 1692.15 1488.29 1687.69 1485.92 C 1687.27 1485.7 1687.26 1485.07 1687.04 1484.65 C 1688.64 1482.2 1689.4 1480.71 1692.38 1480.1 C 1709.79 1476.57 1741.78 1483.34 1756.39 1474.9 L 1757.22 1473.38 C 1755.83 1471.22 1754.64 1470.75 1752.15 1470.12 C 1744.61 1468.2 1701.68 1470.26 1700.46 1468.88 C 1711.83 1464.29 1739.51 1466.98 1748.25 1460.06 C 1744.19 1455.94 1728.87 1456.97 1722.77 1456.92 C 1719.28 1456.92 1715.8 1456.89 1712.31 1456.84 C 1720.83 1455.8 1741.75 1455.8 1748.04 1450.55 C 1747.4 1448.94 1747.94 1449.45 1746.48 1448.8 C 1739.62 1445.79 1733.07 1445.11 1725.71 1444.62 z M 968.182 1566.22 C 975.576 1565.46 983.752 1565.4 990.632 1562.45 L 990.737 1561.16 C 978.623 1554.29 946.001 1553.99 931.483 1553.68 C 917.736 1540.46 902.309 1530.68 883.724 1525.91 C 906.2 1489.05 911.881 1454.2 901.572 1412.13 C 897.739 1396.49 891.989 1382.15 884.422 1367.98 C 896.327 1373.11 919.513 1385.54 932.556 1380.87 C 934.032 1380.34 934.998 1379.38 936.065 1378.29 C 937.474 1374.57 937.793 1369.67 940.345 1366.69 C 945.581 1364.75 952.73 1363.6 955.125 1357.87 C 963.293 1338.31 958.021 1301.03 957.334 1279.11 C 957.071 1270.75 958.356 1262.38 958.417 1254.01 C 958.481 1245.28 956.621 1236.73 954.92 1228.21 C 959.215 1229.11 965.204 1230.27 969.072 1227.54 C 972.213 1225.33 972.915 1220.74 973.141 1217.2 C 974.65 1193.51 966.11 1165.86 960.199 1142.96 C 966.075 1140.1 974.055 1137.24 976.285 1130.44 C 978.531 1123.6 975.38 1113.7 973.574 1106.94 C 966.296 1079.68 955.37 1055.36 942.649 1030.33 C 937.393 1019.98 931.49 1009.65 926.84 999.046 C 952.686 989.527 972.412 971.59 984.006 946.504 C 1001.32 909.045 998.558 861.564 984.499 823.536 C 965.701 772.384 927.045 730.99 877.297 708.741 C 867.764 704.421 858.053 700.507 848.188 697.011 C 837.852 660.783 827.162 623.444 811.412 589.149 C 779.865 520.459 719.315 452.487 653.016 415.784 C 638.994 408.021 616.696 396.761 600.317 401.761 C 594.459 403.55 589.353 407.268 586.467 412.731 C 577.85 429.039 587.193 455.135 592.649 471.243 C 593.735 474.448 594.801 477.671 595.974 480.844 C 556.029 462.123 463.77 420.589 421.611 436.323 C 413.457 439.366 406.662 444.165 403.272 452.427 C 396.879 468.004 403.505 489.719 410.076 504.355 C 432.012 553.222 489.946 598.553 536.741 623.315 C 567.833 639.767 601.683 652.745 633.977 666.771 C 658.812 677.557 683.95 685.359 705.149 702.963 C 667.734 731.34 626.758 764.513 610.706 810.379 C 606.674 821.9 604.822 834.02 603.164 846.07 C 601.985 854.636 599.763 864.897 603.384 873.039 C 605.346 874.637 605.299 874.64 607.824 874.558 C 616.316 869.462 620.276 858.596 625.839 850.732 C 619.882 877.057 614.367 907.71 629.6 932.159 C 631.585 935.345 633.929 938.293 636.279 941.213 C 633.782 957.604 630.13 972.983 622.3 987.723 C 616.452 998.505 609.402 1008.59 601.283 1017.78 C 597.377 1022.24 592.34 1026.81 589.11 1031.72 C 587.711 1033.85 588.001 1034.9 588.068 1037.38 C 589.655 1039.39 590.456 1040.17 593.091 1040.49 C 600.859 1041.41 609.514 1037.2 616.22 1033.69 C 584.167 1069.1 544.557 1088.61 507.284 1116.83 C 406.31 1193.27 355.955 1303.53 359.294 1429.81 C 343.973 1427.82 327.803 1425.23 314.545 1435.29 C 302.207 1444.66 297.313 1458.8 295.593 1473.63 C 291.112 1512.26 297.383 1565.39 322.197 1596.69 C 340.38 1619.63 372.431 1629.9 400.514 1632.91 C 437.238 1636.84 473.746 1631.9 510.441 1633.01 C 545.347 1634.06 580.151 1638.84 615.016 1640.69 C 643.051 1642.17 671.175 1640.11 699.228 1640.82 C 735.641 1641.74 771.909 1645.63 808.291 1646.78 C 829.904 1647.46 851.331 1645.62 872.906 1644.86 C 897.28 1644 963.61 1644.41 983.535 1636.74 L 984.543 1635.6 C 976.137 1630.48 896.048 1636.55 879.061 1637.02 C 887.771 1634.21 911.637 1625.2 918.829 1624.17 C 937.451 1621.52 956.952 1622.23 975.746 1620.86 C 988.379 1619.94 999.969 1617.45 1012.29 1614.89 C 1016.97 1613.92 1026.2 1613.23 1029.21 1609.32 C 1027.64 1606.69 1024.32 1605.8 1021.51 1605.07 C 1003.71 1600.46 955.053 1598.03 937.851 1602.52 L 938.37 1601.18 C 952.31 1595.31 994.46 1594.37 1002.23 1589.22 L 1002.2 1587.94 C 996.772 1586.01 987.212 1588.75 981.243 1589.11 C 974.749 1589.5 945.267 1589.59 941.361 1586.65 L 942.127 1585.3 C 959.301 1581.12 1014.01 1586.14 1024.28 1580.8 C 1023.51 1578.81 1022.93 1578.74 1021.06 1577.86 C 1014.71 1574.85 1001.92 1576.8 994.647 1576.84 C 993.371 1576.55 992.367 1576.33 991.232 1575.64 C 990.981 1575.49 990.746 1575.31 990.503 1575.15 L 989.141 1575.69 L 990.208 1575.3 L 991.085 1573.54 C 983.471 1570.1 977.462 1567.96 968.908 1568.02 L 968.182 1566.22 z M 456.997 798.408 C 446.551 814.569 457.188 859.164 449.643 880.742 C 446.862 888.695 441.704 895.281 436.458 901.736 C 432.183 906.997 428.211 912.878 421.253 914.58 C 410.391 917.236 388.303 912.465 380.361 921.062 L 380.347 923.474 C 390.554 931.772 442.182 907.145 447.942 963.108 C 449.616 979.367 447.211 1021.66 453.705 1033.53 L 455.408 1034.38 C 457.706 1032.46 458.162 1030.94 458.404 1027.95 C 458.838 1022.58 458.88 1017.13 458.887 1011.75 C 458.866 991.798 454.019 954.492 469.035 939.794 C 481.423 927.668 501.296 929.64 517.308 930.196 C 527.992 930.567 543.043 932.903 552.802 927.929 L 554.18 926.069 C 553.896 924.745 554.013 923.591 552.862 922.713 C 540.339 913.161 471.968 932.544 462.015 890.229 C 458.059 873.408 470.49 807.39 457.669 798.756 C 457.46 798.615 457.221 798.524 456.997 798.408 z"/>
<path transform="translate(0,0)" fill="rgb(1,1,1)" d="M 968.182 1566.22 C 958.682 1565.89 949.177 1565.7 939.671 1565.63 C 947.767 1569.19 960.084 1568.15 968.908 1568.02 C 977.462 1567.96 983.471 1570.1 991.085 1573.54 C 990.785 1573.59 990.486 1573.65 990.186 1573.69 C 974.75 1576.07 958.176 1573.1 942.382 1574.81 C 952.65 1578.19 982.426 1577.3 994.647 1576.84 C 1001.92 1576.8 1014.71 1574.85 1021.06 1577.86 C 1022.93 1578.74 1023.51 1578.81 1024.28 1580.8 C 1014.01 1586.14 959.301 1581.12 942.127 1585.3 L 941.361 1586.65 C 945.267 1589.59 974.749 1589.5 981.243 1589.11 C 987.212 1588.75 996.772 1586.01 1002.2 1587.94 L 1002.23 1589.22 C 994.46 1594.37 952.31 1595.31 938.37 1601.18 L 937.851 1602.52 C 955.053 1598.03 1003.71 1600.46 1021.51 1605.07 C 1024.32 1605.8 1027.64 1606.69 1029.21 1609.32 C 1026.2 1613.23 1016.97 1613.92 1012.29 1614.89 C 999.969 1617.45 988.379 1619.94 975.746 1620.86 C 956.952 1622.23 937.451 1621.52 918.829 1624.17 C 911.637 1625.2 887.771 1634.21 879.061 1637.02 C 896.048 1636.55 976.137 1630.48 984.543 1635.6 L 983.535 1636.74 C 963.61 1644.41 897.28 1644 872.906 1644.86 C 851.331 1645.62 829.904 1647.46 808.291 1646.78 C 771.909 1645.63 735.641 1641.74 699.228 1640.82 C 671.175 1640.11 643.051 1642.17 615.016 1640.69 C 580.151 1638.84 545.347 1634.06 510.441 1633.01 C 473.746 1631.9 437.238 1636.84 400.514 1632.91 C 372.431 1629.9 340.38 1619.63 322.197 1596.69 C 297.383 1565.39 291.112 1512.26 295.593 1473.63 C 297.313 1458.8 302.207 1444.66 314.545 1435.29 C 327.803 1425.23 343.973 1427.82 359.294 1429.81 C 355.955 1303.53 406.31 1193.27 507.284 1116.83 C 544.557 1088.61 584.167 1069.1 616.22 1033.69 C 609.514 1037.2 600.859 1041.41 593.091 1040.49 C 590.456 1040.17 589.655 1039.39 588.068 1037.38 C 588.001 1034.9 587.711 1033.85 589.11 1031.72 C 592.34 1026.81 597.377 1022.24 601.283 1017.78 C 609.402 1008.59 616.452 998.505 622.3 987.723 C 630.13 972.983 633.782 957.604 636.279 941.213 C 633.929 938.293 631.585 935.345 629.6 932.159 C 614.367 907.71 619.882 877.057 625.839 850.732 C 620.276 858.596 616.316 869.462 607.824 874.558 C 605.299 874.64 605.346 874.637 603.384 873.039 C 599.763 864.897 601.985 854.636 603.164 846.07 C 604.822 834.02 606.674 821.9 610.706 810.379 C 626.758 764.513 667.734 731.34 705.149 702.963 C 683.95 685.359 658.812 677.557 633.977 666.771 C 601.683 652.745 567.833 639.767 536.741 623.315 C 489.946 598.553 432.012 553.222 410.076 504.355 C 403.505 489.719 396.879 468.004 403.272 452.427 C 406.662 444.165 413.457 439.366 421.611 436.323 C 463.77 420.589 556.029 462.123 595.974 480.844 C 594.801 477.671 593.735 474.448 592.649 471.243 C 587.193 455.135 577.85 429.039 586.467 412.731 C 589.353 407.268 594.459 403.55 600.317 401.761 C 616.696 396.761 638.994 408.021 653.016 415.784 C 719.315 452.487 779.865 520.459 811.412 589.149 C 827.162 623.444 837.852 660.783 848.188 697.011 C 858.053 700.507 867.764 704.421 877.297 708.741 C 927.045 730.99 965.701 772.384 984.499 823.536 C 998.558 861.564 1001.32 909.045 984.006 946.504 C 972.412 971.59 952.686 989.527 926.84 999.046 C 931.49 1009.65 937.393 1019.98 942.649 1030.33 C 955.37 1055.36 966.296 1079.68 973.574 1106.94 C 975.38 1113.7 978.531 1123.6 976.285 1130.44 C 974.055 1137.24 966.075 1140.1 960.199 1142.96 C 966.11 1165.86 974.65 1193.51 973.141 1217.2 C 972.915 1220.74 972.213 1225.33 969.072 1227.54 C 965.204 1230.27 959.215 1229.11 954.92 1228.21 C 956.621 1236.73 958.481 1245.28 958.417 1254.01 C 958.356 1262.38 957.071 1270.75 957.334 1279.11 C 958.021 1301.03 963.293 1338.31 955.125 1357.87 C 952.73 1363.6 945.581 1364.75 940.345 1366.69 C 937.793 1369.67 937.474 1374.57 936.065 1378.29 C 934.998 1379.38 934.032 1380.34 932.556 1380.87 C 919.513 1385.54 896.327 1373.11 884.422 1367.98 C 891.989 1382.15 897.739 1396.49 901.572 1412.13 C 911.881 1454.2 906.2 1489.05 883.724 1525.91 C 902.309 1530.68 917.736 1540.46 931.483 1553.68 C 946.001 1553.99 978.623 1554.29 990.737 1561.16 L 990.632 1562.45 C 983.752 1565.4 975.576 1565.46 968.182 1566.22 z M 604.883 412.142 C 599.483 418.151 598.712 423.638 599.078 431.585 C 600.015 451.895 608.879 472.967 615.902 491.919 C 660.478 518.939 697.669 553.829 733.806 591.165 C 753.645 611.663 771.89 633.878 790.648 655.362 C 799.062 664.999 807.396 676.016 817.132 684.238 C 820.582 687.152 824.584 688.883 828.676 690.693 L 830.494 691.341 C 831.317 684.925 825.112 672.27 822.889 665.791 C 805.928 616.362 787.03 566.943 754.802 525.143 C 723.631 484.715 683.233 446.333 637.945 422.332 C 630.158 418.205 620.764 412.988 611.888 411.882 C 609.564 411.593 607.195 411.863 604.883 412.142 z M 434.271 444.56 C 427.406 446.322 421.744 449.091 418.023 455.421 C 412.655 464.552 415.013 476.539 417.847 486.165 C 432.644 536.409 494.264 586.385 539.125 610.709 C 529.384 601.994 503.171 574.783 501.36 561.672 C 501.148 560.139 501.281 560.527 502.267 559.157 C 504.569 558.959 506.21 558.734 508.181 560.135 C 515.923 565.64 524.962 582.138 532.069 590.206 C 528.976 583.163 522.121 571.422 522.998 563.803 L 524.43 562.388 C 528.355 563.209 530.34 566.711 532.414 569.844 C 545.983 590.347 550.477 608.44 571.044 624.351 C 564.446 614.234 549.461 593.621 548.964 582.316 L 550 579.803 C 552.08 579.493 552.486 579.367 554.256 580.752 C 567.999 591.511 574.474 623.14 589.696 635.058 C 592.554 637.296 596.406 638.518 599.774 639.79 C 592.261 630.546 573.098 609.083 575.034 596.255 C 575.1 595.818 575.24 595.395 575.343 594.964 L 576.964 594.233 C 584.2 597.577 594.787 617.579 600.145 624.749 C 604.865 631.065 609.88 637.281 615.403 642.918 C 619.123 646.714 623.348 649.527 627.793 652.387 C 621.617 642.969 612.336 631.904 610.028 620.784 L 610.67 618.374 C 611.769 617.74 612.26 617.045 613.592 617.437 C 616.901 618.411 638.907 648.003 646.516 654.504 C 658.329 664.596 672.844 668.287 686.209 675.596 C 697.149 681.58 706.552 689.254 716.535 696.611 C 723.409 691.39 735.135 680.675 744.059 681.297 C 745.504 681.398 745.754 682.044 746.727 682.976 C 747.176 685.678 747.225 688.038 745.531 690.376 C 739.361 698.895 724.275 705.852 715.582 712.241 C 682.007 736.919 645.489 768.586 628.462 807.414 C 623.51 818.706 620.679 830.719 617.653 842.629 C 623.397 835.529 638.183 815.473 647.941 814.631 C 649.486 814.498 649.652 815.117 650.71 816.043 C 653.226 825.403 644.703 841.371 642.133 850.876 C 637.202 869.111 633.219 889.366 637.258 908.153 C 644.496 941.811 668.796 940.819 673.444 951.803 C 674.497 954.291 673.507 954.753 672.409 956.917 C 670.314 958.528 668.513 959.01 665.897 958.719 C 659.786 958.039 654.16 954.684 649.109 951.387 C 645.077 984.394 636.564 997.887 616.098 1023.4 C 624.74 1016.9 636.262 1004.11 646.536 1001.27 C 649.3 1002.24 649.716 1002.38 651.522 1004.65 C 652.906 1012.73 645.552 1022.43 641.075 1028.76 C 612.254 1069.51 569.547 1091.38 529.914 1119.33 C 424.27 1193.83 374.635 1305.26 375.216 1432.95 C 413.856 1450.49 461.92 1488.24 477.804 1528.56 C 478.858 1531.23 478.974 1533.05 477.678 1535.72 C 476.996 1537.13 475.733 1538.34 474.211 1538.85 C 473.313 1539.15 471.545 1539.16 470.57 1539.2 C 460.847 1531.86 453.633 1517 445.963 1507.29 C 423.252 1478.54 377.659 1436.13 337.699 1441.03 C 330.409 1441.92 324.268 1444.95 319.821 1450.91 C 305.245 1470.42 310.477 1510.69 314.365 1532.91 C 318.906 1558.86 328.701 1586.54 351.2 1602.24 C 393.52 1631.77 459.227 1619.17 507.706 1619.45 C 533.342 1619.6 559.691 1622.04 585.243 1624.24 C 619.37 1627.08 653.543 1624.34 687.686 1624.82 C 719.388 1625.28 751.078 1628.37 782.783 1628.5 C 814.794 1628.63 889.565 1625.88 913.923 1604.89 C 919.819 1599.81 924.335 1592.9 924.925 1584.98 C 925.664 1575.06 920.201 1564.16 913.548 1557.01 C 903.353 1546.06 887.02 1544.02 875.508 1534.69 C 856.389 1550.11 830.24 1565.25 804.582 1562.23 C 801.815 1561.9 798.841 1561.24 797.038 1558.96 C 797.198 1556.89 797.207 1556.57 798.901 1555.15 C 805.237 1549.85 818.112 1548.29 826.063 1545.56 C 861.401 1533.43 885.085 1504.29 889.877 1467.16 C 894.209 1433.61 883.998 1388.05 863.234 1361.04 C 855.257 1350.67 843.497 1344.19 832.828 1336.91 C 810.889 1321.96 791.162 1301.71 778.983 1277.96 C 775.439 1271.04 770.996 1261.74 771.733 1253.85 C 771.958 1251.45 772.541 1250.11 774.158 1248.26 C 776.919 1247.5 777.262 1247.58 780.009 1248.44 C 786.018 1254.54 788.094 1263.51 791.904 1271.01 C 794.8 1276.58 798.151 1281.9 801.921 1286.93 C 826.336 1319.57 863.618 1344.19 900.811 1359.97 C 906.734 1362.48 914.883 1366.98 921.288 1367.15 C 922.332 1367.18 922.575 1367.1 923.694 1366.96 C 924.693 1365.88 925.249 1365.82 925.131 1364.2 C 924.53 1355.9 914.459 1346.27 917.749 1337.83 C 919.953 1336.19 920.216 1336.15 922.974 1336.02 C 929.423 1338.62 936.21 1346.82 941.2 1351.86 C 945.458 1334.81 947.725 1304.11 942.013 1287.46 C 939.64 1280.54 935.017 1273.98 931.267 1267.73 C 914.78 1240.26 901.405 1213.62 892.639 1182.63 C 891.345 1178.06 888.724 1171.02 889.736 1166.28 C 890.286 1163.7 891.075 1162.87 893.169 1161.41 C 896.231 1161.5 898.177 1162.03 900.366 1164.31 C 904.211 1168.33 905.835 1174.84 907.615 1179.99 C 917.691 1209.2 927.306 1233.93 943.929 1260.47 C 943.971 1254.53 944.044 1248.59 943.174 1242.71 C 941.758 1233.14 933.438 1213.11 940.726 1205.51 C 944.055 1204.64 946.355 1204.93 949.319 1206.59 C 952.917 1208.61 956.133 1211.52 959.281 1214.17 C 955.501 1187.22 950.353 1161.73 941.759 1135.86 C 939.813 1130 930.396 1111.12 931.013 1106.46 C 932.113 1105.29 932.488 1104.2 934.229 1104.22 C 942.008 1104.3 953.094 1115.47 959.543 1119.68 L 959.403 1118.07 C 956.651 1087.64 938.033 1054.04 923.771 1027.33 C 918.93 1018.26 912.911 1008.9 909.15 999.353 C 908.092 996.664 907.705 992.19 909.551 989.709 C 912.41 985.868 922.512 984.741 926.97 983.284 C 957.114 973.431 970.549 942.974 977.357 914.724 C 969.698 908.065 961.034 897.56 950.6 896.722 C 948.78 895.23 947.694 894.745 947.793 892.122 C 947.892 889.481 949.147 887.741 950.831 885.876 C 953.764 884.674 955.724 884.463 958.738 885.68 C 967.316 889.143 972.988 897.039 980.06 902.587 C 980.676 847.86 967.664 800.758 928.486 760.607 C 908.013 739.626 882.042 723.103 854.814 712.396 C 836.584 705.228 820.011 700.617 804.3 688.268 C 783.205 671.688 761.143 642.973 742.974 622.556 C 680.264 552.089 622.637 499.772 532.986 466.199 C 506.462 456.266 475.665 444.422 447.153 444.062 C 442.853 444.028 438.555 444.194 434.271 444.56 z M 932.814 1607.54 L 929.318 1612.22 L 929.499 1612.96 C 958.475 1606.93 986.321 1612.45 1015.51 1612.16 L 1018.85 1611.38 C 1014.26 1609.53 1008.2 1609.66 1003.23 1609.32 C 989.118 1608.35 974.982 1607.86 960.842 1607.84 C 951.928 1607.82 941.538 1608.92 932.814 1607.54 z"/>
<path transform="translate(0,0)" fill="rgb(254,254,254)" d="M 615.902 491.919 C 608.879 472.967 600.015 451.895 599.078 431.585 C 598.712 423.638 599.483 418.151 604.883 412.142 C 607.195 411.863 609.564 411.593 611.888 411.882 C 620.764 412.988 630.158 418.205 637.945 422.332 C 683.233 446.333 723.631 484.715 754.802 525.143 C 787.03 566.943 805.928 616.362 822.889 665.791 C 825.112 672.27 831.317 684.925 830.494 691.341 L 828.676 690.693 C 824.584 688.883 820.582 687.152 817.132 684.238 C 807.396 676.016 799.062 664.999 790.648 655.362 C 771.89 633.878 753.645 611.663 733.806 591.165 C 697.669 553.829 660.478 518.939 615.902 491.919 z"/>
<path transform="translate(0,0)" fill="rgb(254,254,254)" d="M 539.125 610.709 C 494.264 586.385 432.644 536.409 417.847 486.165 C 415.013 476.539 412.655 464.552 418.023 455.421 C 421.744 449.091 427.406 446.322 434.271 444.56 C 438.555 444.194 442.853 444.028 447.153 444.062 C 475.665 444.422 506.462 456.266 532.986 466.199 C 622.637 499.772 680.264 552.089 742.974 622.556 C 761.143 642.973 783.205 671.688 804.3 688.268 C 820.011 700.617 836.584 705.228 854.814 712.396 C 882.042 723.103 908.013 739.626 928.486 760.607 C 967.664 800.758 980.676 847.86 980.06 902.587 C 972.988 897.039 967.316 889.143 958.738 885.68 C 955.724 884.463 953.764 884.674 950.831 885.876 C 949.147 887.741 947.892 889.481 947.793 892.122 C 947.694 894.745 948.78 895.23 950.6 896.722 C 961.034 897.56 969.698 908.065 977.357 914.724 C 970.549 942.974 957.114 973.431 926.97 983.284 C 922.512 984.741 912.41 985.868 909.551 989.709 C 907.705 992.19 908.092 996.664 909.15 999.353 C 912.911 1008.9 918.93 1018.26 923.771 1027.33 C 938.033 1054.04 956.651 1087.64 959.403 1118.07 L 959.543 1119.68 C 953.094 1115.47 942.008 1104.3 934.229 1104.22 C 932.488 1104.2 932.113 1105.29 931.013 1106.46 C 930.396 1111.12 939.813 1130 941.759 1135.86 C 950.353 1161.73 955.501 1187.22 959.281 1214.17 C 956.133 1211.52 952.917 1208.61 949.319 1206.59 C 946.355 1204.93 944.055 1204.64 940.726 1205.51 C 933.438 1213.11 941.758 1233.14 943.174 1242.71 C 944.044 1248.59 943.971 1254.53 943.929 1260.47 C 927.306 1233.93 917.691 1209.2 907.615 1179.99 C 905.835 1174.84 904.211 1168.33 900.366 1164.31 C 898.177 1162.03 896.231 1161.5 893.169 1161.41 C 891.075 1162.87 890.286 1163.7 889.736 1166.28 C 888.724 1171.02 891.345 1178.06 892.639 1182.63 C 901.405 1213.62 914.78 1240.26 931.267 1267.73 C 935.017 1273.98 939.64 1280.54 942.013 1287.46 C 947.725 1304.11 945.458 1334.81 941.2 1351.86 C 936.21 1346.82 929.423 1338.62 922.974 1336.02 C 920.216 1336.15 919.953 1336.19 917.749 1337.83 C 914.459 1346.27 924.53 1355.9 925.131 1364.2 C 925.249 1365.82 924.693 1365.88 923.694 1366.96 C 922.575 1367.1 922.332 1367.18 921.288 1367.15 C 914.883 1366.98 906.734 1362.48 900.811 1359.97 C 863.618 1344.19 826.336 1319.57 801.921 1286.93 C 798.151 1281.9 794.8 1276.58 791.904 1271.01 C 788.094 1263.51 786.018 1254.54 780.009 1248.44 C 777.262 1247.58 776.919 1247.5 774.158 1248.26 C 772.541 1250.11 771.958 1251.45 771.733 1253.85 C 770.996 1261.74 775.439 1271.04 778.983 1277.96 C 791.162 1301.71 810.889 1321.96 832.828 1336.91 C 843.497 1344.19 855.257 1350.67 863.234 1361.04 C 883.998 1388.05 894.209 1433.61 889.877 1467.16 C 885.085 1504.29 861.401 1533.43 826.063 1545.56 C 818.112 1548.29 805.237 1549.85 798.901 1555.15 C 797.207 1556.57 797.198 1556.89 797.038 1558.96 C 798.841 1561.24 801.815 1561.9 804.582 1562.23 C 830.24 1565.25 856.389 1550.11 875.508 1534.69 C 887.02 1544.02 903.353 1546.06 913.548 1557.01 C 920.201 1564.16 925.664 1575.06 924.925 1584.98 C 924.335 1592.9 919.819 1599.81 913.923 1604.89 C 889.565 1625.88 814.794 1628.63 782.783 1628.5 C 751.078 1628.37 719.388 1625.28 687.686 1624.82 C 653.543 1624.34 619.37 1627.08 585.243 1624.24 C 559.691 1622.04 533.342 1619.6 507.706 1619.45 C 459.227 1619.17 393.52 1631.77 351.2 1602.24 C 328.701 1586.54 318.906 1558.86 314.365 1532.91 C 310.477 1510.69 305.245 1470.42 319.821 1450.91 C 324.268 1444.95 330.409 1441.92 337.699 1441.03 C 377.659 1436.13 423.252 1478.54 445.963 1507.29 C 453.633 1517 460.847 1531.86 470.57 1539.2 C 471.545 1539.16 473.313 1539.15 474.211 1538.85 C 475.733 1538.34 476.996 1537.13 477.678 1535.72 C 478.974 1533.05 478.858 1531.23 477.804 1528.56 C 461.92 1488.24 413.856 1450.49 375.216 1432.95 C 374.635 1305.26 424.27 1193.83 529.914 1119.33 C 569.547 1091.38 612.254 1069.51 641.075 1028.76 C 645.552 1022.43 652.906 1012.73 651.522 1004.65 C 649.716 1002.38 649.3 1002.24 646.536 1001.27 C 636.262 1004.11 624.74 1016.9 616.098 1023.4 C 636.564 997.887 645.077 984.394 649.109 951.387 C 654.16 954.684 659.786 958.039 665.897 958.719 C 668.513 959.01 670.314 958.528 672.409 956.917 C 673.507 954.753 674.497 954.291 673.444 951.803 C 668.796 940.819 644.496 941.811 637.258 908.153 C 633.219 889.366 637.202 869.111 642.133 850.876 C 644.703 841.371 653.226 825.403 650.71 816.043 C 649.652 815.117 649.486 814.498 647.941 814.631 C 638.183 815.473 623.397 835.529 617.653 842.629 C 620.679 830.719 623.51 818.706 628.462 807.414 C 645.489 768.586 682.007 736.919 715.582 712.241 C 724.275 705.852 739.361 698.895 745.531 690.376 C 747.225 688.038 747.176 685.678 746.727 682.976 C 745.754 682.044 745.504 681.398 744.059 681.297 C 735.135 680.675 723.409 691.39 716.535 696.611 C 706.552 689.254 697.149 681.58 686.209 675.596 C 672.844 668.287 658.329 664.596 646.516 654.504 C 638.907 648.003 616.901 618.411 613.592 617.437 C 612.26 617.045 611.769 617.74 610.67 618.374 L 610.028 620.784 C 612.336 631.904 621.617 642.969 627.793 652.387 C 623.348 649.527 619.123 646.714 615.403 642.918 C 609.88 637.281 604.865 631.065 600.145 624.749 C 594.787 617.579 584.2 597.577 576.964 594.233 L 575.343 594.964 C 575.24 595.395 575.1 595.818 575.034 596.255 C 573.098 609.083 592.261 630.546 599.774 639.79 C 596.406 638.518 592.554 637.296 589.696 635.058 C 574.474 623.14 567.999 591.511 554.256 580.752 C 552.486 579.367 552.08 579.493 550 579.803 L 548.964 582.316 C 549.461 593.621 564.446 614.234 571.044 624.351 C 550.477 608.44 545.983 590.347 532.414 569.844 C 530.34 566.711 528.355 563.209 524.43 562.388 L 522.998 563.803 C 522.121 571.422 528.976 583.163 532.069 590.206 C 524.962 582.138 515.923 565.64 508.181 560.135 C 506.21 558.734 504.569 558.959 502.267 559.157 C 501.281 560.527 501.148 560.139 501.36 561.672 C 503.171 574.783 529.384 601.994 539.125 610.709 z M 882.452 782.408 C 880.667 785.118 879.46 786.473 879.922 789.94 C 881.138 799.06 895.558 808.858 902.201 814.324 C 895.1 823.109 891.076 831.883 892.46 843.517 C 893.493 852.203 897.56 860.77 904.71 866.041 C 910.396 870.184 917.516 871.856 924.452 870.676 C 927.976 870.07 931.263 868.833 934.489 867.334 C 942.407 862.099 947.556 855.677 949.642 846.214 C 951.739 836.699 950.073 826.27 944.754 818.066 C 940.197 811.036 932.465 805.25 924.096 803.811 C 919.943 803.097 915.557 803.391 911.362 803.555 C 903.448 797.4 892.402 783.671 882.452 782.408 z M 945.869 922.738 C 945.903 926.359 945.821 930.348 948.956 932.862 C 951.767 935.116 956.324 935.31 959.76 935.48 C 959.925 932.257 960.273 929.097 958.286 926.324 C 956.348 923.622 952.711 922.904 949.592 922.757 C 948.352 922.711 947.11 922.705 945.869 922.738 z M 584.55 1154.73 C 572.869 1161.41 555.73 1178.07 552.551 1191.45 C 552.153 1193.12 552.355 1194.46 552.648 1196.13 C 554.556 1198.59 554.939 1198.81 557.863 1199.91 C 565.83 1195.39 586.468 1169.04 590.491 1160.45 C 590.293 1158.26 590.412 1157.51 588.406 1156.15 C 587.472 1155.52 585.555 1155.06 584.55 1154.73 z M 601.814 1166.8 C 595.735 1171.45 584.447 1181.18 583.416 1189.05 C 583.038 1191.93 583.457 1192.31 585.162 1194.42 C 587.205 1195.12 588.628 1195.56 590.796 1195.42 C 597.563 1189.74 607.607 1179.83 609.192 1170.91 C 608.467 1168.84 608.401 1167.82 606.088 1167.03 C 605.035 1166.68 602.835 1166.82 601.814 1166.8 z M 394.27 1360.52 C 389.24 1364.83 387.452 1369.37 386.73 1375.99 C 386.328 1379.67 387.005 1385.02 389.414 1388 C 390.788 1389.7 392.689 1390.38 394.623 1391.22 C 399.708 1386.72 401.597 1379.99 401.85 1373.29 C 401.977 1369.95 401.668 1365.39 399.429 1362.73 C 398.367 1361.47 395.908 1360.91 394.27 1360.52 z M 866.542 1442.38 C 862.175 1452.47 865.27 1466.94 863.77 1477.94 C 862.93 1484.09 858.767 1490.26 859.084 1496.38 C 860.621 1498.19 861.385 1499.14 864.024 1499.17 C 865.319 1499.18 866.927 1498.62 868.077 1498.03 C 875.977 1486.27 880.069 1467.7 877.245 1453.61 C 876.529 1450.04 874.898 1445.52 871.706 1443.44 C 870.146 1442.42 868.331 1442.37 866.542 1442.38 z M 843.073 1479.33 C 838.967 1485.79 836.288 1498.36 837.717 1505.82 C 838.16 1508.13 839.281 1509.8 841.572 1510.65 C 842.28 1510.91 843.333 1510.88 844.09 1510.89 C 848.89 1505.03 851.855 1496.25 851.253 1488.63 C 850.98 1485.17 850.138 1482.95 847.618 1480.51 C 846.089 1480.04 844.654 1479.58 843.073 1479.33 z M 505.215 1495.48 C 503.993 1507.32 509.735 1524.55 517.537 1533.66 C 519.037 1535.41 520.664 1536.45 522.967 1536.78 C 524.111 1536.94 525.609 1536.7 526.727 1536.59 C 529.349 1527.02 524.27 1514.77 519.482 1506.36 C 517.052 1502.09 514.18 1497.08 509.063 1495.86 C 507.857 1495.57 506.436 1495.56 505.215 1495.48 z"/>
<path transform="translate(0,0)" fill="rgb(1,1,1)" d="M 1714.18 1442.43 C 1710.26 1442.85 1706.21 1443.08 1702.35 1443.81 L 1701.83 1445.07 L 1699.35 1444.64 L 1699.5 1444.93 C 1708.24 1445.91 1716.95 1445.05 1725.71 1444.62 C 1733.07 1445.11 1739.62 1445.79 1746.48 1448.8 C 1747.94 1449.45 1747.4 1448.94 1748.04 1450.55 C 1741.75 1455.8 1720.83 1455.8 1712.31 1456.84 C 1715.8 1456.89 1719.28 1456.92 1722.77 1456.92 C 1728.87 1456.97 1744.19 1455.94 1748.25 1460.06 C 1739.51 1466.98 1711.83 1464.29 1700.46 1468.88 C 1701.68 1470.26 1744.61 1468.2 1752.15 1470.12 C 1754.64 1470.75 1755.83 1471.22 1757.22 1473.38 L 1756.39 1474.9 C 1741.78 1483.34 1709.79 1476.57 1692.38 1480.1 C 1689.4 1480.71 1688.64 1482.2 1687.04 1484.65 C 1687.26 1485.07 1687.27 1485.7 1687.69 1485.92 C 1692.15 1488.29 1727.07 1483.07 1737.52 1489.15 L 1737.44 1490.52 C 1727.12 1497.71 1692.47 1494.54 1678.01 1498.07 C 1670.96 1499.79 1666.87 1507.83 1659.55 1508.36 C 1643.35 1509.55 1626.59 1508.82 1610.31 1508.97 L 1527.91 1509.9 C 1452.28 1510.85 1376.64 1511.3 1301 1511.25 L 1151.45 1512.1 C 1121.77 1512.51 1084.05 1515.27 1055.22 1512.21 C 1044.97 1511.12 1036.24 1506.89 1028.59 1500 C 1020.7 1492.88 1019.25 1484.33 1018.73 1474.14 C 1016.92 1438.21 1018.64 1401.78 1019.14 1365.81 C 1019.55 1321.5 1020.95 1277.21 1023.34 1232.97 C 1026.19 1190.8 1029.61 1148.67 1033.6 1106.59 L 1055.19 863.122 C 1064.2 758.8 1064 652.272 1084.66 549.31 C 1087.83 533.513 1092.41 514.161 1103.77 502.025 C 1109.27 496.149 1115.3 494.02 1122.93 492.187 C 1148.68 485.997 1186.27 484.113 1213.62 481.011 C 1265.9 475.082 1317.86 471.169 1370.28 467.044 C 1413.68 463.628 1457 459.725 1500.51 457.855 C 1533.73 456.428 1566.9 456.44 1600.13 455.743 C 1625.68 455.207 1652.22 452.918 1677.64 455.971 C 1691.45 457.63 1711.5 461.154 1721.89 471.199 C 1729.98 479.027 1732.72 489.921 1733.77 500.757 C 1737.51 539.591 1735.05 583.607 1733.71 622.703 C 1731.05 692.004 1727.58 761.272 1723.31 830.493 C 1720.14 884.806 1718.83 939.122 1716.62 993.462 L 1707.59 1205 C 1704.44 1281.55 1697.1 1358.25 1697.1 1434.89 C 1701.09 1434.92 1705.17 1434.86 1709.13 1435.3 C 1712.97 1435.72 1719.47 1436.43 1721.96 1439.55 C 1719.62 1441.79 1717.31 1441.76 1714.18 1442.43 z M 1561.56 465.443 C 1450.74 469.698 1340.1 477.526 1229.79 488.913 L 1170.38 495.212 C 1155.91 496.766 1140.71 497.778 1126.58 501.296 C 1121.85 502.471 1117.24 503.734 1113.84 507.397 C 1101.07 521.184 1096.64 549.856 1093.53 568.027 C 1075.62 672.546 1074.59 779.009 1065.45 884.418 C 1051.99 1039.54 1036.47 1194.2 1032.47 1349.96 L 1030.31 1432.1 C 1030.01 1447.15 1029.23 1462.54 1030.1 1477.57 C 1030.61 1486.28 1032.33 1490.42 1039.03 1496.31 C 1043.18 1499.97 1047.66 1502.31 1053.07 1503.48 C 1067.52 1506.6 1083.96 1505.16 1098.69 1505.08 L 1167.5 1504.52 L 1344.41 1503.17 C 1443.65 1502.63 1543.22 1502.14 1642.33 1496.82 C 1654.22 1443.27 1656.93 1383.42 1659.44 1328.64 L 1664.4 1221.32 L 1679.39 827.853 C 1680.76 789.252 1684.44 750.991 1687.01 712.481 C 1689.2 675.618 1691.1 638.738 1692.7 601.845 C 1694.2 573.31 1696.33 544.608 1696.2 516.033 C 1696.15 503.113 1696.12 486.449 1689.18 475.027 C 1686.03 469.833 1679.79 467.846 1674.14 466.683 C 1650.43 461.8 1588.02 464.621 1561.56 465.443 z M 1703.34 474.088 C 1708.52 511.803 1706.24 549.648 1705.08 587.559 C 1703.57 631.163 1701.63 674.752 1699.27 718.318 C 1696.84 756.58 1693.38 794.652 1691.81 832.984 L 1676.42 1216.15 C 1672.53 1310.32 1672.04 1405.11 1654.86 1498.04 C 1658.58 1495.75 1662.24 1493.54 1665.63 1490.77 C 1673.28 1483.18 1680.48 1475.61 1682.21 1464.47 C 1684.42 1450.19 1683.06 1434.06 1683.24 1419.56 C 1683.46 1401 1684.49 1382.38 1685.43 1363.84 L 1698.96 1074.4 C 1700.3 1041.08 1702.87 1007.81 1704.35 974.492 C 1706.69 921.684 1708.05 868.759 1711.1 815.992 L 1718.25 709.21 C 1721.38 648.898 1723.29 588.53 1723.99 528.141 C 1724.06 513.962 1725.4 491.482 1715.09 480.513 C 1711.87 477.1 1707.74 475.414 1703.34 474.088 z"/>
<path transform="translate(0,0)" fill="rgb(254,254,254)" d="M 1167.5 1504.52 L 1098.69 1505.08 C 1083.96 1505.16 1067.52 1506.6 1053.07 1503.48 C 1047.66 1502.31 1043.18 1499.97 1039.03 1496.31 C 1032.33 1490.42 1030.61 1486.28 1030.1 1477.57 C 1029.23 1462.54 1030.01 1447.15 1030.31 1432.1 L 1032.47 1349.96 C 1036.47 1194.2 1051.99 1039.54 1065.45 884.418 C 1074.59 779.009 1075.62 672.546 1093.53 568.027 C 1096.64 549.856 1101.07 521.184 1113.84 507.397 C 1117.24 503.734 1121.85 502.471 1126.58 501.296 C 1140.71 497.778 1155.91 496.766 1170.38 495.212 L 1229.79 488.913 C 1340.1 477.526 1450.74 469.698 1561.56 465.443 C 1588.02 464.621 1650.43 461.8 1674.14 466.683 C 1679.79 467.846 1686.03 469.833 1689.18 475.027 C 1696.12 486.449 1696.15 503.113 1696.2 516.033 C 1696.33 544.608 1694.2 573.31 1692.7 601.845 C 1691.1 638.738 1689.2 675.618 1687.01 712.481 C 1684.44 750.991 1680.76 789.252 1679.39 827.853 L 1664.4 1221.32 L 1659.44 1328.64 C 1656.93 1383.42 1654.22 1443.27 1642.33 1496.82 C 1543.22 1502.14 1443.65 1502.63 1344.41 1503.17 L 1167.5 1504.52 z M 1621 486.432 C 1578 488.954 1534.63 487.953 1491.57 489.646 C 1407.3 492.866 1323.16 498.897 1239.3 507.728 C 1211.75 510.527 1176.11 512.037 1149.78 517.943 C 1142.44 519.588 1131.41 522.491 1126.5 528.444 C 1099.35 561.373 1087.79 844.281 1083.2 901.066 C 1078.33 961.287 1071.38 1021.38 1066.64 1081.62 C 1060 1171.12 1055.42 1260.76 1052.91 1350.47 L 1051.08 1436.41 C 1050.93 1448.98 1049.57 1463.04 1051.22 1475.45 C 1051.6 1478.35 1052.24 1481.36 1054.65 1483.23 C 1062.94 1489.67 1094.98 1486.39 1106.25 1486.45 C 1227.02 1487.41 1347.81 1485.68 1468.5 1481.26 L 1552.29 1478.7 C 1570.85 1478.22 1590.29 1478.38 1608.73 1476.41 C 1613.89 1475.85 1623.7 1474.66 1627.58 1471.16 C 1631.87 1467.29 1634.16 1461.12 1634.7 1455.49 C 1637.24 1429.14 1635.66 1401.75 1636.42 1375.24 L 1640.83 1261 C 1641.81 1227.94 1641.63 1194.83 1643.35 1161.79 C 1644.98 1130.65 1648.19 1099.61 1650.31 1068.5 C 1653.35 1019.08 1656.03 969.639 1658.36 920.179 C 1661.26 860.104 1661.32 799.934 1663.92 739.888 C 1665.52 703.162 1668.94 666.565 1670.67 629.864 C 1672.05 600.655 1672.01 571.147 1672.1 541.904 C 1672.14 528.645 1674.41 503.89 1664.39 493.805 C 1657.9 487.266 1649.52 485.388 1640.54 485.543 C 1634.03 485.656 1627.5 486.084 1621 486.432 z"/>
<path transform="translate(0,0)" fill="rgb(254,254,254)" d="M 1654.86 1498.04 C 1672.04 1405.11 1672.53 1310.32 1676.42 1216.15 L 1691.81 832.984 C 1693.38 794.652 1696.84 756.58 1699.27 718.318 C 1701.63 674.752 1703.57 631.163 1705.08 587.559 C 1706.24 549.648 1708.52 511.803 1703.34 474.088 C 1707.74 475.414 1711.87 477.1 1715.09 480.513 C 1725.4 491.482 1724.06 513.962 1723.99 528.141 C 1723.29 588.53 1721.38 648.898 1718.25 709.21 L 1711.1 815.992 C 1708.05 868.759 1706.69 921.684 1704.35 974.492 C 1702.87 1007.81 1700.3 1041.08 1698.96 1074.4 L 1685.43 1363.84 C 1684.49 1382.38 1683.46 1401 1683.24 1419.56 C 1683.06 1434.06 1684.42 1450.19 1682.21 1464.47 C 1680.48 1475.61 1673.28 1483.18 1665.63 1490.77 C 1662.24 1493.54 1658.58 1495.75 1654.86 1498.04 z"/>
<path transform="translate(0,0)" fill="rgb(1,1,1)" d="M 1106.25 1486.45 C 1094.98 1486.39 1062.94 1489.67 1054.65 1483.23 C 1052.24 1481.36 1051.6 1478.35 1051.22 1475.45 C 1049.57 1463.04 1050.93 1448.98 1051.08 1436.41 L 1052.91 1350.47 C 1055.42 1260.76 1060 1171.12 1066.64 1081.62 C 1071.38 1021.38 1078.33 961.287 1083.2 901.066 C 1087.79 844.281 1099.35 561.373 1126.5 528.444 C 1131.41 522.491 1142.44 519.588 1149.78 517.943 C 1176.11 512.037 1211.75 510.527 1239.3 507.728 C 1323.16 498.897 1407.3 492.866 1491.57 489.646 C 1534.63 487.953 1578 488.954 1621 486.432 C 1627.5 486.084 1634.03 485.656 1640.54 485.543 C 1649.52 485.388 1657.9 487.266 1664.39 493.805 C 1674.41 503.89 1672.14 528.645 1672.1 541.904 C 1672.01 571.147 1672.05 600.655 1670.67 629.864 C 1668.94 666.565 1665.52 703.162 1663.92 739.888 C 1661.32 799.934 1661.26 860.104 1658.36 920.179 C 1656.03 969.639 1653.35 1019.08 1650.31 1068.5 C 1648.19 1099.61 1644.98 1130.65 1643.35 1161.79 C 1641.63 1194.83 1641.81 1227.94 1640.83 1261 L 1636.42 1375.24 C 1635.66 1401.75 1637.24 1429.14 1634.7 1455.49 C 1634.16 1461.12 1631.87 1467.29 1627.58 1471.16 C 1623.7 1474.66 1613.89 1475.85 1608.73 1476.41 C 1590.29 1478.38 1570.85 1478.22 1552.29 1478.7 L 1468.5 1481.26 C 1347.81 1485.68 1227.02 1487.41 1106.25 1486.45 z M 1455.1 967.05 C 1454.07 965.806 1453.09 964.592 1451.85 963.559 C 1447.46 959.928 1442.59 957.448 1436.84 958.216 L 1436.83 960.94 C 1440.4 964.622 1447.78 964.219 1452.43 966.483 C 1453.03 966.776 1453.62 967.093 1454.21 967.399 C 1448.65 970.1 1438.56 964.089 1436.15 969.982 C 1436.7 971.354 1436.56 972.112 1438.08 972.668 C 1445.17 975.258 1458.31 970.503 1463.62 976.771 C 1458.58 980.92 1441.66 979.069 1435 979.054 C 1438.98 999.409 1445.88 1014.3 1463.5 1026.1 C 1472.15 1031.9 1481.85 1036.22 1491.72 1039.47 C 1499.73 1042.1 1521.85 1044.33 1526.95 1049.38 C 1525.71 1051.38 1524.72 1051.22 1522.46 1051.72 C 1508.55 1054.76 1491.96 1048.49 1478.58 1044.66 C 1474.39 1061.31 1469.96 1077.68 1461.7 1092.88 C 1449.44 1115.42 1433.4 1133.8 1424.87 1158.52 C 1430.27 1153.11 1437.82 1143.14 1445.97 1143.12 C 1448.74 1144.73 1449.06 1145.33 1450.67 1148.13 C 1450.66 1150.82 1449.74 1152.61 1448.53 1154.93 C 1445.43 1160.85 1441.19 1166.35 1437.77 1172.12 C 1431.45 1182.8 1425.94 1194.38 1420.92 1205.73 C 1407.32 1236.51 1400.18 1268.35 1390.08 1300.2 C 1397.06 1291.53 1406.05 1276.9 1415.81 1271.57 C 1418.12 1271.89 1419.84 1272.69 1421.36 1274.56 C 1424.93 1278.93 1404.88 1358.22 1402.94 1369.77 C 1399.8 1388.52 1397.18 1408.11 1397 1427.12 C 1400.49 1419.38 1405.06 1404.97 1413.16 1401.47 C 1415.31 1401.97 1415.73 1401.93 1416.93 1403.96 C 1421.41 1411.53 1418.12 1438.8 1418.51 1448.86 C 1418.84 1457.18 1419.71 1464.71 1421.96 1472.74 C 1457.84 1475.14 1493.23 1469.66 1528.97 1468.14 C 1551.63 1467.18 1574.76 1469.25 1597.23 1467.37 C 1603.76 1466.82 1614.56 1466.31 1619.71 1462.07 C 1623.78 1458.72 1623.38 1441.45 1623.44 1436.19 C 1623.73 1410.54 1623.08 1384.88 1623.81 1359.24 C 1624.56 1333.32 1626.77 1307.28 1626.98 1281.38 C 1616.51 1300.55 1600.77 1331.58 1577.82 1337.76 C 1571.03 1339.59 1564.05 1338.51 1558.06 1334.85 C 1549.13 1329.39 1544.23 1319.93 1539.49 1310.99 C 1528.27 1324.08 1515.08 1340.8 1496.34 1341.81 C 1488.52 1342.23 1481.35 1339.6 1475.73 1334.14 C 1458.44 1317.31 1456.65 1284.7 1456.87 1262.21 C 1456.99 1249.01 1459.67 1191.87 1468.33 1183.87 C 1469.38 1182.9 1470.77 1182.58 1472.11 1182.25 C 1474.55 1183.05 1475.04 1183.34 1476.22 1185.85 C 1478.79 1191.3 1473.98 1209.93 1473.23 1216.93 C 1470.66 1241.09 1464.55 1315.16 1489.24 1327.24 C 1493.32 1329.24 1497.89 1328.9 1502.02 1327.25 C 1514.29 1322.35 1527.98 1306.8 1535.94 1296.33 C 1534.51 1285.64 1533.78 1275.07 1533.96 1264.27 C 1534.26 1245.98 1539.72 1183.79 1549.88 1170.71 C 1550.97 1169.3 1551.96 1168.38 1553.58 1167.59 C 1555.17 1167.52 1554.3 1167.34 1555.98 1168.79 C 1559.15 1178.19 1554.8 1188.67 1553.14 1198.14 C 1547.49 1230.38 1538.4 1281.97 1555 1311.47 C 1557.74 1316.34 1561.15 1322.23 1566.28 1324.84 C 1569.13 1326.3 1572.23 1326.33 1575.21 1325.28 C 1591.57 1319.54 1604.31 1292.84 1610.79 1277.99 C 1618.76 1259.69 1625.19 1236.49 1628.49 1216.82 C 1631.81 1197 1630.72 1175.9 1632.22 1155.81 C 1635.31 1114.47 1639.95 1073.89 1640.12 1032.33 C 1628.42 1039.2 1609.3 1049.96 1595.29 1048.69 L 1593.23 1047.21 L 1593.2 1045.44 C 1596.95 1042.48 1602.56 1041.54 1607.06 1040.03 C 1619.63 1035.8 1631.78 1029.08 1641.01 1019.49 C 1641.43 1011.34 1641.77 1003.18 1642.01 995.02 C 1630.43 992.421 1618.04 990.411 1607.06 985.865 C 1612.27 985.854 1617.51 985.827 1622.71 986.341 C 1627.09 986.775 1635.24 989.157 1639.28 988.61 C 1640.23 988.482 1641.03 987.852 1641.9 987.472 C 1643.07 985.047 1643.21 984.933 1642.67 982.321 C 1635.37 978.594 1620.02 985.897 1611.53 981.41 C 1617.1 975.459 1634.71 976.396 1642.87 976.03 C 1643.39 963.595 1644.44 950.951 1646.16 938.62 C 1635.54 942.307 1620.24 949.827 1609.17 944.773 C 1603.63 942.245 1601.17 937.619 1598.66 932.378 C 1594.86 934.867 1589.02 939.815 1584.26 938.835 C 1583.91 938.764 1583.58 938.614 1583.24 938.503 C 1582.87 935.877 1583.66 934.555 1585.18 932.396 C 1596.25 916.676 1628.04 900.438 1646.88 895.616 C 1649.34 860.706 1653.35 818.334 1652.13 784.001 C 1643.7 797.472 1637.63 810.568 1632.49 825.596 C 1636.83 827.918 1644.42 830.705 1646.04 835.698 C 1646.54 837.231 1646.07 838.853 1645.26 840.239 C 1644.86 840.925 1644.08 841.496 1643.47 841.993 C 1633.85 840.433 1624.94 833.14 1614.85 830.856 C 1604.81 828.581 1594.42 828.458 1584.17 828.761 C 1551.56 829.725 1523.57 839.116 1497.02 858.453 C 1466.73 880.517 1448.81 913.905 1438.89 949.445 C 1444.69 952.729 1455.53 957.892 1458.19 964.446 C 1458.57 965.398 1458.52 965.805 1458.55 966.727 C 1456.31 967.744 1457.47 967.64 1455.1 967.05 z M 1601.09 495.495 C 1540.61 497.173 1480.41 499.815 1419.98 502.84 C 1391.61 504.26 1363.17 505.104 1334.84 507.22 C 1299.57 509.853 1264.35 513.958 1229.16 517.489 C 1202.55 520.159 1158.44 520.151 1135.75 532.26 C 1124.62 557.031 1117.65 623.632 1114.42 652.984 C 1104.91 739.28 1101.51 826.492 1094.85 913.058 C 1088.58 994.629 1080.03 1075.98 1074.78 1157.64 C 1069.99 1238.97 1066.97 1320.4 1065.72 1401.86 C 1065.46 1413.02 1062.86 1466.45 1066.12 1474.64 C 1066.28 1475.04 1066.47 1475.43 1066.65 1475.83 C 1079.2 1479.02 1126.28 1477.35 1142.18 1477.4 C 1230.29 1477.65 1318.35 1475.06 1406.44 1474.93 C 1405.57 1461.52 1404.81 1448.17 1404.65 1434.73 C 1400.97 1439.95 1398.19 1445.22 1391.59 1446.95 C 1389.06 1446.37 1388.41 1446.31 1386.88 1443.98 C 1383.47 1438.77 1384.67 1427.64 1384.87 1421.65 C 1386.26 1380.7 1393.08 1337.68 1406.03 1298.79 L 1405.05 1299.87 C 1398.41 1307.29 1391.15 1324.48 1380.69 1325.91 C 1378.47 1324.94 1377.21 1324.26 1376.43 1321.79 C 1371.81 1307.27 1396.47 1229.74 1403.9 1211.61 C 1409.09 1198.93 1417.06 1186.88 1421.3 1173.91 C 1418.08 1172.28 1414.05 1171.25 1412.2 1167.98 C 1408.97 1143.4 1443.58 1102.71 1453.79 1081.17 C 1459.94 1068.18 1462.93 1054.38 1465.33 1040.3 C 1443.7 1025.26 1427.52 1013.11 1422.96 985.51 C 1422.66 983.654 1422.44 981.787 1422.3 979.914 C 1415.91 979.928 1408.74 980.527 1402.54 978.983 L 1401.12 977.312 C 1402.26 975.144 1402.45 975.206 1404.68 974.461 C 1410.66 972.467 1417.75 974.054 1423.43 971.831 C 1422.55 969.986 1422.32 968.339 1420.34 967.538 C 1407.68 962.407 1374.57 980.497 1369.62 972.9 C 1372.21 968.61 1379.21 966.788 1383.78 965.677 C 1389.65 964.254 1420.81 961.673 1421.52 961.272 C 1422.06 960.961 1422.41 960.393 1422.86 959.954 C 1422.82 957.079 1422.77 956.487 1421.34 954.014 C 1413 948.27 1392 953.732 1389.8 943.435 C 1390.52 941.936 1390.28 941.515 1391.98 940.937 C 1399.91 938.237 1417.28 945.34 1425.4 947.829 C 1440.96 899.615 1465.82 859.045 1511.88 835.089 C 1515.43 833.24 1519.1 831.619 1522.78 830.024 C 1506.69 789.622 1491.08 748.82 1481.95 706.144 C 1436.92 760.906 1385.3 810.925 1336.8 862.631 C 1329.04 870.908 1288.71 916.664 1282.96 919.405 L 1281.24 918.795 C 1280.94 916.527 1281.04 916.209 1282.46 914.263 C 1286.45 908.788 1292.18 903.85 1296.79 898.828 C 1309.32 885.166 1321.67 871.462 1334.5 858.072 L 1420.97 766.868 C 1441.3 745.175 1462.7 723.404 1480.43 699.512 C 1475.79 675.952 1467.42 640.376 1482.14 618.925 C 1485.08 614.638 1489.2 611.152 1494.49 610.447 C 1503.19 609.286 1512.48 614.712 1518.91 620.035 C 1527.18 626.886 1533.54 635.634 1539.98 644.144 C 1559.73 622.623 1580.05 601.698 1600.25 580.607 C 1610.83 569.559 1621.06 557.75 1632.21 547.291 L 1633.96 547.29 C 1634.79 549.286 1634.92 548.516 1634.17 550.342 C 1630.87 558.441 1618.34 567.976 1612.09 574.447 L 1570.58 617.823 C 1561.22 627.534 1550.94 637.109 1542.77 647.849 C 1579.82 705.905 1581.15 755.888 1583.84 821.04 C 1587.52 821.042 1592.09 821.59 1595.49 820.066 C 1596.83 810.944 1597.8 801.554 1599.73 792.548 C 1608.31 752.596 1631.73 680.211 1658.82 649.097 C 1659.56 617.339 1660.03 585.575 1660.23 553.809 C 1660.35 540.823 1661.89 527.198 1660.65 514.311 C 1660.05 508.029 1658.79 501.464 1654.41 496.705 C 1644.81 492.355 1613.14 495.488 1601.09 495.495 z M 1531.75 651.751 C 1552.88 716.172 1556.89 755.226 1557.03 823.053 C 1563.04 822.742 1569 822.382 1574.98 821.703 C 1575.26 773.058 1568.23 727.106 1549.33 681.935 C 1545.5 672.792 1540.21 659.862 1533 652.901 C 1532.59 652.508 1532.17 652.134 1531.75 651.751 z"/>
<path transform="translate(0,0)" fill="rgb(254,254,254)" d="M 1135.75 532.26 C 1158.44 520.151 1202.55 520.159 1229.16 517.489 C 1264.35 513.958 1299.57 509.853 1334.84 507.22 C 1363.17 505.104 1391.61 504.26 1419.98 502.84 C 1480.41 499.815 1540.61 497.173 1601.09 495.495 C 1613.14 495.488 1644.81 492.355 1654.41 496.705 C 1658.79 501.464 1660.05 508.029 1660.65 514.311 C 1661.89 527.198 1660.35 540.823 1660.23 553.809 C 1660.03 585.575 1659.56 617.339 1658.82 649.097 C 1631.73 680.211 1608.31 752.596 1599.73 792.548 C 1597.8 801.554 1596.83 810.944 1595.49 820.066 C 1592.09 821.59 1587.52 821.042 1583.84 821.04 C 1581.15 755.888 1579.82 705.905 1542.77 647.849 C 1550.94 637.109 1561.22 627.534 1570.58 617.823 L 1612.09 574.447 C 1618.34 567.976 1630.87 558.441 1634.17 550.342 C 1634.92 548.516 1634.79 549.286 1633.96 547.29 L 1632.21 547.291 C 1621.06 557.75 1610.83 569.559 1600.25 580.607 C 1580.05 601.698 1559.73 622.623 1539.98 644.144 C 1533.54 635.634 1527.18 626.886 1518.91 620.035 C 1512.48 614.712 1503.19 609.286 1494.49 610.447 C 1489.2 611.152 1485.08 614.638 1482.14 618.925 C 1467.42 640.376 1475.79 675.952 1480.43 699.512 C 1462.7 723.404 1441.3 745.175 1420.97 766.868 L 1334.5 858.072 C 1321.67 871.462 1309.32 885.166 1296.79 898.828 C 1292.18 903.85 1286.45 908.788 1282.46 914.263 C 1281.04 916.209 1280.94 916.527 1281.24 918.795 L 1282.96 919.405 C 1288.71 916.664 1329.04 870.908 1336.8 862.631 C 1385.3 810.925 1436.92 760.906 1481.95 706.144 C 1491.08 748.82 1506.69 789.622 1522.78 830.024 C 1519.1 831.619 1515.43 833.24 1511.88 835.089 C 1465.82 859.045 1440.96 899.615 1425.4 947.829 C 1417.28 945.34 1399.91 938.237 1391.98 940.937 C 1390.28 941.515 1390.52 941.936 1389.8 943.435 C 1392 953.732 1413 948.27 1421.34 954.014 C 1422.77 956.487 1422.82 957.079 1422.86 959.954 C 1422.41 960.393 1422.06 960.961 1421.52 961.272 C 1420.81 961.673 1389.65 964.254 1383.78 965.677 C 1379.21 966.788 1372.21 968.61 1369.62 972.9 C 1374.57 980.497 1407.68 962.407 1420.34 967.538 C 1422.32 968.339 1422.55 969.986 1423.43 971.831 C 1417.75 974.054 1410.66 972.467 1404.68 974.461 C 1402.45 975.206 1402.26 975.144 1401.12 977.312 L 1402.54 978.983 C 1408.74 980.527 1415.91 979.928 1422.3 979.914 C 1422.44 981.787 1422.66 983.654 1422.96 985.51 C 1427.52 1013.11 1443.7 1025.26 1465.33 1040.3 C 1462.93 1054.38 1459.94 1068.18 1453.79 1081.17 C 1443.58 1102.71 1408.97 1143.4 1412.2 1167.98 C 1414.05 1171.25 1418.08 1172.28 1421.3 1173.91 C 1417.06 1186.88 1409.09 1198.93 1403.9 1211.61 C 1396.47 1229.74 1371.81 1307.27 1376.43 1321.79 C 1377.21 1324.26 1378.47 1324.94 1380.69 1325.91 C 1391.15 1324.48 1398.41 1307.29 1405.05 1299.87 L 1406.03 1298.79 C 1393.08 1337.68 1386.26 1380.7 1384.87 1421.65 C 1384.67 1427.64 1383.47 1438.77 1386.88 1443.98 C 1388.41 1446.31 1389.06 1446.37 1391.59 1446.95 C 1398.19 1445.22 1400.97 1439.95 1404.65 1434.73 C 1404.81 1448.17 1405.57 1461.52 1406.44 1474.93 C 1318.35 1475.06 1230.29 1477.65 1142.18 1477.4 C 1126.28 1477.35 1079.2 1479.02 1066.65 1475.83 C 1066.47 1475.43 1066.28 1475.04 1066.12 1474.64 C 1062.86 1466.45 1065.46 1413.02 1065.72 1401.86 C 1066.97 1320.4 1069.99 1238.97 1074.78 1157.64 C 1080.03 1075.98 1088.58 994.629 1094.85 913.058 C 1101.51 826.492 1104.91 739.28 1114.42 652.984 C 1117.65 623.632 1124.62 557.031 1135.75 532.26 z M 1436.81 570.593 C 1404.32 605.944 1371.58 641.074 1338.61 675.981 C 1324.09 691.32 1308.37 710.266 1292.22 723.428 L 1290.44 723.076 C 1287.08 716.26 1290.59 707.718 1288.28 700.8 L 1287.23 700.87 L 1288.32 701.156 L 1286.54 701.669 C 1284.7 704.872 1284.48 707.836 1284.08 711.462 C 1283.77 717.907 1282.74 724.603 1286.18 730.378 L 1288.28 731.243 C 1293.53 728.77 1297.64 724.729 1301.77 720.733 C 1314.43 708.472 1436.63 579.874 1438.4 575.323 C 1438.94 573.907 1438.86 573.843 1438.93 572.548 C 1438.26 571.842 1437.67 571.066 1436.81 570.593 z M 1274.59 749.295 C 1271.29 760.755 1270.58 772.718 1267.05 784.169 C 1263.21 787.324 1259.53 790.485 1254.81 792.23 C 1247.65 794.873 1226.19 792.358 1222.85 796.039 C 1231.24 809.468 1269.34 805.049 1275.21 828.575 C 1278.88 843.291 1275.68 861.344 1276.28 876.511 C 1276.98 879.142 1276.97 880.255 1279.02 882.129 C 1281.08 881.445 1281.5 881.326 1282.57 879.283 C 1289.06 866.842 1287.77 834.578 1291.04 818.858 L 1291.94 817.814 C 1300.47 808.182 1311.91 808.112 1321.33 800.85 C 1320.51 798.625 1319.33 797.85 1317.16 796.954 C 1305.59 792.165 1295.83 793.862 1289.3 780.831 C 1286.38 775.002 1281.85 752.017 1277.1 749.925 C 1276.5 749.659 1275.26 749.434 1274.59 749.295 z M 1234.69 896.604 C 1224.33 908.236 1214.61 920.425 1204.22 932.035 C 1187.75 950.449 1170.36 968.21 1152.92 985.715 C 1146.76 991.906 1128.82 1007.49 1126.57 1015.12 L 1127.48 1016.57 L 1128.73 1016.73 C 1141.76 1003.25 1237.25 908.218 1237.63 898.297 C 1236.62 897.581 1235.88 896.98 1234.69 896.604 z M 1308.9 1081.73 C 1284.58 1103.65 1114.86 1267.17 1111.09 1278.08 L 1111.68 1279.7 L 1113.78 1280.29 C 1158.08 1234.77 1203.13 1189.97 1248.91 1145.92 C 1267.19 1128.06 1286.04 1110.7 1303.94 1092.47 C 1306.47 1089.89 1310.12 1087.1 1310.92 1083.58 L 1308.9 1081.73 z M 1245.37 1250.72 C 1217.02 1279.68 1188.34 1308.31 1159.34 1336.61 C 1139.32 1356.13 1117.66 1375.33 1099.18 1396.25 C 1097.22 1398.47 1095.68 1400.33 1095.38 1403.37 L 1097.13 1405.12 C 1116.32 1383.94 1243.99 1264.54 1247.36 1252.35 C 1245.82 1250.85 1246.56 1251.29 1245.37 1250.72 z"/>
<path transform="translate(0,0)" fill="rgb(1,1,1)" d="M 1284.08 711.462 C 1284.48 707.836 1284.7 704.872 1286.54 701.669 L 1288.32 701.156 L 1287.23 700.87 L 1288.28 700.8 C 1290.59 707.718 1287.08 716.26 1290.44 723.076 L 1292.22 723.428 C 1308.37 710.266 1324.09 691.32 1338.61 675.981 C 1371.58 641.074 1404.32 605.944 1436.81 570.593 C 1437.67 571.066 1438.26 571.842 1438.93 572.548 C 1438.86 573.843 1438.94 573.907 1438.4 575.323 C 1436.63 579.874 1314.43 708.472 1301.77 720.733 C 1297.64 724.729 1293.53 728.77 1288.28 731.243 L 1286.18 730.378 C 1282.74 724.603 1283.77 717.907 1284.08 711.462 z"/>
<path transform="translate(0,0)" fill="rgb(254,254,254)" d="M 1557.03 823.053 C 1556.89 755.226 1552.88 716.172 1531.75 651.751 C 1532.17 652.134 1532.59 652.508 1533 652.901 C 1540.21 659.862 1545.5 672.792 1549.33 681.935 C 1568.23 727.106 1575.26 773.058 1574.98 821.703 C 1569 822.382 1563.04 822.742 1557.03 823.053 z"/>
<path transform="translate(0,0)" fill="rgb(1,1,1)" d="M 1267.05 784.169 C 1270.58 772.718 1271.29 760.755 1274.59 749.295 C 1275.26 749.434 1276.5 749.659 1277.1 749.925 C 1281.85 752.017 1286.38 775.002 1289.3 780.831 C 1295.83 793.862 1305.59 792.165 1317.16 796.954 C 1319.33 797.85 1320.51 798.625 1321.33 800.85 C 1311.91 808.112 1300.47 808.182 1291.94 817.814 L 1291.04 818.858 C 1287.77 834.578 1289.06 866.842 1282.57 879.283 C 1281.5 881.326 1281.08 881.445 1279.02 882.129 C 1276.97 880.255 1276.98 879.142 1276.28 876.511 C 1275.68 861.344 1278.88 843.291 1275.21 828.575 C 1269.34 805.049 1231.24 809.468 1222.85 796.039 C 1226.19 792.358 1247.65 794.873 1254.81 792.23 C 1259.53 790.485 1263.21 787.324 1267.05 784.169 z"/>
<path transform="translate(0,0)" fill="rgb(1,1,1)" d="M 902.201 814.324 C 895.558 808.858 881.138 799.06 879.922 789.94 C 879.46 786.473 880.667 785.118 882.452 782.408 C 892.402 783.671 903.448 797.4 911.362 803.555 C 915.557 803.391 919.943 803.097 924.096 803.811 C 932.465 805.25 940.197 811.036 944.754 818.066 C 950.073 826.27 951.739 836.699 949.642 846.214 C 947.556 855.677 942.407 862.099 934.489 867.334 C 931.263 868.833 927.976 870.07 924.452 870.676 C 917.516 871.856 910.396 870.184 904.71 866.041 C 897.56 860.77 893.493 852.203 892.46 843.517 C 891.076 831.883 895.1 823.109 902.201 814.324 z M 928.528 822.894 C 926.464 825.277 925.675 825.787 925.223 828.987 C 926.865 831.642 928.496 832.696 931.579 833.336 C 931.97 833.417 932.368 833.457 932.762 833.518 C 934.547 830.992 936.572 828.857 936.452 825.606 C 934.058 823.137 931.848 823.177 928.528 822.894 z"/>
<path transform="translate(0,0)" fill="rgb(254,254,254)" d="M 1454.21 967.399 L 1455.1 967.05 C 1457.47 967.64 1456.31 967.744 1458.55 966.727 C 1458.52 965.805 1458.57 965.398 1458.19 964.446 C 1455.53 957.892 1444.69 952.729 1438.89 949.445 C 1448.81 913.905 1466.73 880.517 1497.02 858.453 C 1523.57 839.116 1551.56 829.725 1584.17 828.761 C 1594.42 828.458 1604.81 828.581 1614.85 830.856 C 1624.94 833.14 1633.85 840.433 1643.47 841.993 C 1644.08 841.496 1644.86 840.925 1645.26 840.239 C 1646.07 838.853 1646.54 837.231 1646.04 835.698 C 1644.42 830.705 1636.83 827.918 1632.49 825.596 C 1637.63 810.568 1643.7 797.472 1652.13 784.001 C 1653.35 818.334 1649.34 860.706 1646.88 895.616 C 1628.04 900.438 1596.25 916.676 1585.18 932.396 C 1583.66 934.555 1582.87 935.877 1583.24 938.503 C 1583.58 938.614 1583.91 938.764 1584.26 938.835 C 1589.02 939.815 1594.86 934.867 1598.66 932.378 C 1601.17 937.619 1603.63 942.245 1609.17 944.773 C 1620.24 949.827 1635.54 942.307 1646.16 938.62 C 1644.44 950.951 1643.39 963.595 1642.87 976.03 C 1634.71 976.396 1617.1 975.459 1611.53 981.41 C 1620.02 985.897 1635.37 978.594 1642.67 982.321 C 1643.21 984.933 1643.07 985.047 1641.9 987.472 C 1641.03 987.852 1640.23 988.482 1639.28 988.61 C 1635.24 989.157 1627.09 986.775 1622.71 986.341 C 1617.51 985.827 1612.27 985.854 1607.06 985.865 C 1618.04 990.411 1630.43 992.421 1642.01 995.02 C 1641.77 1003.18 1641.43 1011.34 1641.01 1019.49 C 1631.78 1029.08 1619.63 1035.8 1607.06 1040.03 C 1602.56 1041.54 1596.95 1042.48 1593.2 1045.44 L 1593.23 1047.21 L 1595.29 1048.69 C 1609.3 1049.96 1628.42 1039.2 1640.12 1032.33 C 1639.95 1073.89 1635.31 1114.47 1632.22 1155.81 C 1630.72 1175.9 1631.81 1197 1628.49 1216.82 C 1625.19 1236.49 1618.76 1259.69 1610.79 1277.99 C 1604.31 1292.84 1591.57 1319.54 1575.21 1325.28 C 1572.23 1326.33 1569.13 1326.3 1566.28 1324.84 C 1561.15 1322.23 1557.74 1316.34 1555 1311.47 C 1538.4 1281.97 1547.49 1230.38 1553.14 1198.14 C 1554.8 1188.67 1559.15 1178.19 1555.98 1168.79 C 1554.3 1167.34 1555.17 1167.52 1553.58 1167.59 C 1551.96 1168.38 1550.97 1169.3 1549.88 1170.71 C 1539.72 1183.79 1534.26 1245.98 1533.96 1264.27 C 1533.78 1275.07 1534.51 1285.64 1535.94 1296.33 C 1527.98 1306.8 1514.29 1322.35 1502.02 1327.25 C 1497.89 1328.9 1493.32 1329.24 1489.24 1327.24 C 1464.55 1315.16 1470.66 1241.09 1473.23 1216.93 C 1473.98 1209.93 1478.79 1191.3 1476.22 1185.85 C 1475.04 1183.34 1474.55 1183.05 1472.11 1182.25 C 1470.77 1182.58 1469.38 1182.9 1468.33 1183.87 C 1459.67 1191.87 1456.99 1249.01 1456.87 1262.21 C 1456.65 1284.7 1458.44 1317.31 1475.73 1334.14 C 1481.35 1339.6 1488.52 1342.23 1496.34 1341.81 C 1515.08 1340.8 1528.27 1324.08 1539.49 1310.99 C 1544.23 1319.93 1549.13 1329.39 1558.06 1334.85 C 1564.05 1338.51 1571.03 1339.59 1577.82 1337.76 C 1600.77 1331.58 1616.51 1300.55 1626.98 1281.38 C 1626.77 1307.28 1624.56 1333.32 1623.81 1359.24 C 1623.08 1384.88 1623.73 1410.54 1623.44 1436.19 C 1623.38 1441.45 1623.78 1458.72 1619.71 1462.07 C 1614.56 1466.31 1603.76 1466.82 1597.23 1467.37 C 1574.76 1469.25 1551.63 1467.18 1528.97 1468.14 C 1493.23 1469.66 1457.84 1475.14 1421.96 1472.74 C 1419.71 1464.71 1418.84 1457.18 1418.51 1448.86 C 1418.12 1438.8 1421.41 1411.53 1416.93 1403.96 C 1415.73 1401.93 1415.31 1401.97 1413.16 1401.47 C 1405.06 1404.97 1400.49 1419.38 1397 1427.12 C 1397.18 1408.11 1399.8 1388.52 1402.94 1369.77 C 1404.88 1358.22 1424.93 1278.93 1421.36 1274.56 C 1419.84 1272.69 1418.12 1271.89 1415.81 1271.57 C 1406.05 1276.9 1397.06 1291.53 1390.08 1300.2 C 1400.18 1268.35 1407.32 1236.51 1420.92 1205.73 C 1425.94 1194.38 1431.45 1182.8 1437.77 1172.12 C 1441.19 1166.35 1445.43 1160.85 1448.53 1154.93 C 1449.74 1152.61 1450.66 1150.82 1450.67 1148.13 C 1449.06 1145.33 1448.74 1144.73 1445.97 1143.12 C 1437.82 1143.14 1430.27 1153.11 1424.87 1158.52 C 1433.4 1133.8 1449.44 1115.42 1461.7 1092.88 C 1469.96 1077.68 1474.39 1061.31 1478.58 1044.66 C 1491.96 1048.49 1508.55 1054.76 1522.46 1051.72 C 1524.72 1051.22 1525.71 1051.38 1526.95 1049.38 C 1521.85 1044.33 1499.73 1042.1 1491.72 1039.47 C 1481.85 1036.22 1472.15 1031.9 1463.5 1026.1 C 1445.88 1014.3 1438.98 999.409 1435 979.054 C 1441.66 979.069 1458.58 980.92 1463.62 976.771 C 1458.31 970.503 1445.17 975.258 1438.08 972.668 C 1436.56 972.112 1436.7 971.354 1436.15 969.982 C 1438.56 964.089 1448.65 970.1 1454.21 967.399 z M 1487.91 910.137 C 1477.78 912.767 1466.87 917.606 1461.18 926.924 C 1459.42 929.801 1458.11 933.21 1458.51 936.601 L 1460.15 938.078 C 1477.91 936.92 1474.84 925.857 1499.43 931.511 C 1499.85 931.69 1500.27 931.865 1500.69 932.049 C 1506.31 934.547 1519.29 945.05 1524.38 943.161 C 1525.79 938.412 1522.89 931.346 1520.65 927.127 C 1516.61 919.51 1509.83 913.698 1501.5 911.295 C 1496.94 909.981 1492.6 909.953 1487.91 910.137 z M 1547.97 957.297 C 1542.75 958.085 1535.77 958.858 1532.44 963.57 C 1530.97 965.639 1530.54 967.817 1531.32 970.255 C 1532.39 973.634 1536.84 977.574 1540.03 978.864 L 1542.25 976.876 C 1543.73 982.351 1543.98 987.455 1541.13 992.606 C 1539.2 996.116 1536.27 999.46 1534.04 1002.85 C 1524.59 1003.32 1513.86 1004.55 1506.11 997.856 C 1504.67 996.612 1503.38 995.167 1502.11 993.755 C 1501.56 990.258 1501.4 983.129 1498.7 980.852 C 1496.74 981.885 1495.08 983.78 1494.36 985.922 C 1493.33 989.055 1494 991.748 1495.7 994.437 C 1500.79 1002.47 1510.77 1007.57 1519.86 1009.28 C 1521.41 1009.57 1522.95 1009.83 1524.5 1010.07 C 1531.19 1010.23 1537.19 1011.9 1542.54 1006.95 C 1544.23 1005.39 1545.84 1003.75 1547.45 1002.12 C 1558.19 1004.6 1562.24 1011.56 1573.78 1004.74 C 1577.55 1002.51 1582.57 995.979 1583.52 991.585 C 1583.85 990.08 1583.76 989.93 1583.67 988.598 L 1582.05 987.169 C 1574.19 987.866 1565.66 1003.66 1557.86 997.512 C 1552.31 993.137 1550.79 981.795 1549.53 975.216 C 1553.84 972.398 1558.87 970.063 1560.07 964.618 C 1560.5 962.676 1559.92 962.292 1559.12 960.61 C 1555.86 958.166 1552.02 957.335 1547.97 957.297 z"/>
<path transform="translate(0,0)" fill="rgb(1,1,1)" d="M 458.887 1011.75 C 458.88 1017.13 458.838 1022.58 458.404 1027.95 C 458.162 1030.94 457.706 1032.46 455.408 1034.38 L 453.705 1033.53 C 447.211 1021.66 449.616 979.367 447.942 963.108 C 442.182 907.145 390.554 931.772 380.347 923.474 L 380.361 921.062 C 388.303 912.465 410.391 917.236 421.253 914.58 C 428.211 912.878 432.183 906.997 436.458 901.736 C 441.704 895.281 446.862 888.695 449.643 880.742 C 457.188 859.164 446.551 814.569 456.997 798.408 C 457.221 798.524 457.46 798.615 457.669 798.756 C 470.49 807.39 458.059 873.408 462.015 890.229 C 471.968 932.544 540.339 913.161 552.862 922.713 C 554.013 923.591 553.896 924.745 554.18 926.069 L 552.802 927.929 C 543.043 932.903 527.992 930.567 517.308 930.196 C 501.296 929.64 481.423 927.668 469.035 939.794 C 454.019 954.492 458.866 991.798 458.887 1011.75 z"/>
<path transform="translate(0,0)" fill="rgb(254,254,254)" d="M 932.762 833.518 C 932.368 833.457 931.97 833.417 931.579 833.336 C 928.496 832.696 926.865 831.642 925.223 828.987 C 925.675 825.787 926.464 825.277 928.528 822.894 C 931.848 823.177 934.058 823.137 936.452 825.606 C 936.572 828.857 934.547 830.992 932.762 833.518 z"/>
<path transform="translate(0,0)" fill="rgb(1,1,1)" d="M 1128.73 1016.73 L 1127.48 1016.57 L 1126.57 1015.12 C 1128.82 1007.49 1146.76 991.906 1152.92 985.715 C 1170.36 968.21 1187.75 950.449 1204.22 932.035 C 1214.61 920.425 1224.33 908.236 1234.69 896.604 C 1235.88 896.98 1236.62 897.581 1237.63 898.297 C 1237.25 908.218 1141.76 1003.25 1128.73 1016.73 z"/>
<path transform="translate(0,0)" fill="rgb(1,1,1)" d="M 1499.43 931.511 C 1474.84 925.857 1477.91 936.92 1460.15 938.078 L 1458.51 936.601 C 1458.11 933.21 1459.42 929.801 1461.18 926.924 C 1466.87 917.606 1477.78 912.767 1487.91 910.137 C 1492.6 909.953 1496.94 909.981 1501.5 911.295 C 1509.83 913.698 1516.61 919.51 1520.65 927.127 C 1522.89 931.346 1525.79 938.412 1524.38 943.161 C 1519.29 945.05 1506.31 934.547 1500.69 932.049 C 1500.27 931.865 1499.85 931.69 1499.43 931.511 z"/>
<path transform="translate(0,0)" fill="rgb(1,1,1)" d="M 959.76 935.48 C 956.324 935.31 951.767 935.116 948.956 932.862 C 945.821 930.348 945.903 926.359 945.869 922.738 C 947.11 922.705 948.352 922.711 949.592 922.757 C 952.711 922.904 956.348 923.622 958.286 926.324 C 960.273 929.097 959.925 932.257 959.76 935.48 z"/>
<path transform="translate(0,0)" fill="rgb(232,227,229)" d="M 1454.21 967.399 C 1453.62 967.093 1453.03 966.776 1452.43 966.483 C 1447.78 964.219 1440.4 964.622 1436.83 960.94 L 1436.84 958.216 C 1442.59 957.448 1447.46 959.928 1451.85 963.559 C 1453.09 964.592 1454.07 965.806 1455.1 967.05 L 1454.21 967.399 z"/>
<path transform="translate(0,0)" fill="rgb(1,1,1)" d="M 1534.04 1002.85 C 1536.27 999.46 1539.2 996.116 1541.13 992.606 C 1543.98 987.455 1543.73 982.351 1542.25 976.876 L 1540.03 978.864 C 1536.84 977.574 1532.39 973.634 1531.32 970.255 C 1530.54 967.817 1530.97 965.639 1532.44 963.57 C 1535.77 958.858 1542.75 958.085 1547.97 957.297 C 1552.02 957.335 1555.86 958.166 1559.12 960.61 C 1559.92 962.292 1560.5 962.676 1560.07 964.618 C 1558.87 970.063 1553.84 972.398 1549.53 975.216 C 1550.79 981.795 1552.31 993.137 1557.86 997.512 C 1565.66 1003.66 1574.19 987.866 1582.05 987.169 L 1583.67 988.598 C 1583.76 989.93 1583.85 990.08 1583.52 991.585 C 1582.57 995.979 1577.55 1002.51 1573.78 1004.74 C 1562.24 1011.56 1558.19 1004.6 1547.45 1002.12 C 1545.84 1003.75 1544.23 1005.39 1542.54 1006.95 C 1537.19 1011.9 1531.19 1010.23 1524.5 1010.07 C 1522.95 1009.83 1521.41 1009.57 1519.86 1009.28 C 1510.77 1007.57 1500.79 1002.47 1495.7 994.437 C 1494 991.748 1493.33 989.055 1494.36 985.922 C 1495.08 983.78 1496.74 981.885 1498.7 980.852 C 1501.4 983.129 1501.56 990.258 1502.11 993.755 C 1503.38 995.167 1504.67 996.612 1506.11 997.856 C 1513.86 1004.55 1524.59 1003.32 1534.04 1002.85 z"/>
<path transform="translate(0,0)" fill="rgb(1,1,1)" d="M 1113.78 1280.29 L 1111.68 1279.7 L 1111.09 1278.08 C 1114.86 1267.17 1284.58 1103.65 1308.9 1081.73 L 1310.92 1083.58 C 1310.12 1087.1 1306.47 1089.89 1303.94 1092.47 C 1286.04 1110.7 1267.19 1128.06 1248.91 1145.92 C 1203.13 1189.97 1158.08 1234.77 1113.78 1280.29 z"/>
<path transform="translate(0,0)" fill="rgb(1,1,1)" d="M 557.863 1199.91 C 554.939 1198.81 554.556 1198.59 552.648 1196.13 C 552.355 1194.46 552.153 1193.12 552.551 1191.45 C 555.73 1178.07 572.869 1161.41 584.55 1154.73 C 585.555 1155.06 587.472 1155.52 588.406 1156.15 C 590.412 1157.51 590.293 1158.26 590.491 1160.45 C 586.468 1169.04 565.83 1195.39 557.863 1199.91 z"/>
<path transform="translate(0,0)" fill="rgb(1,1,1)" d="M 590.796 1195.42 C 588.628 1195.56 587.205 1195.12 585.162 1194.42 C 583.457 1192.31 583.038 1191.93 583.416 1189.05 C 584.447 1181.18 595.735 1171.45 601.814 1166.8 C 602.835 1166.82 605.035 1166.68 606.088 1167.03 C 608.401 1167.82 608.467 1168.84 609.192 1170.91 C 607.607 1179.83 597.563 1189.74 590.796 1195.42 z"/>
<path transform="translate(0,0)" fill="rgb(1,1,1)" d="M 1097.13 1405.12 L 1095.38 1403.37 C 1095.68 1400.33 1097.22 1398.47 1099.18 1396.25 C 1117.66 1375.33 1139.32 1356.13 1159.34 1336.61 C 1188.34 1308.31 1217.02 1279.68 1245.37 1250.72 C 1246.56 1251.29 1245.82 1250.85 1247.36 1252.35 C 1243.99 1264.54 1116.32 1383.94 1097.13 1405.12 z"/>
<path transform="translate(0,0)" fill="rgb(1,1,1)" d="M 394.623 1391.22 C 392.689 1390.38 390.788 1389.7 389.414 1388 C 387.005 1385.02 386.328 1379.67 386.73 1375.99 C 387.452 1369.37 389.24 1364.83 394.27 1360.52 C 395.908 1360.91 398.367 1361.47 399.429 1362.73 C 401.668 1365.39 401.977 1369.95 401.85 1373.29 C 401.597 1379.99 399.708 1386.72 394.623 1391.22 z"/>
<path transform="translate(0,0)" fill="rgb(1,1,1)" d="M 868.077 1498.03 C 866.927 1498.62 865.319 1499.18 864.024 1499.17 C 861.385 1499.14 860.621 1498.19 859.084 1496.38 C 858.767 1490.26 862.93 1484.09 863.77 1477.94 C 865.27 1466.94 862.175 1452.47 866.542 1442.38 C 868.331 1442.37 870.146 1442.42 871.706 1443.44 C 874.898 1445.52 876.529 1450.04 877.245 1453.61 C 880.069 1467.7 875.977 1486.27 868.077 1498.03 z"/>
<path transform="translate(0,0)" fill="rgb(1,1,1)" d="M 844.09 1510.89 C 843.333 1510.88 842.28 1510.91 841.572 1510.65 C 839.281 1509.8 838.16 1508.13 837.717 1505.82 C 836.288 1498.36 838.967 1485.79 843.073 1479.33 C 844.654 1479.58 846.089 1480.04 847.618 1480.51 C 850.138 1482.95 850.98 1485.17 851.253 1488.63 C 851.855 1496.25 848.89 1505.03 844.09 1510.89 z"/>
<path transform="translate(0,0)" fill="rgb(1,1,1)" d="M 526.727 1536.59 C 525.609 1536.7 524.111 1536.94 522.967 1536.78 C 520.664 1536.45 519.037 1535.41 517.537 1533.66 C 509.735 1524.55 503.993 1507.32 505.215 1495.48 C 506.436 1495.56 507.857 1495.57 509.063 1495.86 C 514.18 1497.08 517.052 1502.09 519.482 1506.36 C 524.27 1514.77 529.349 1527.02 526.727 1536.59 z"/>
<path transform="translate(0,0)" fill="rgb(88,87,89)" d="M 968.908 1568.02 C 960.084 1568.15 947.767 1569.19 939.671 1565.63 C 949.177 1565.7 958.682 1565.89 968.182 1566.22 L 968.908 1568.02 z"/>
<path transform="translate(0,0)" fill="rgb(232,227,229)" d="M 991.085 1573.54 L 990.208 1575.3 L 989.141 1575.69 L 990.503 1575.15 C 990.746 1575.31 990.981 1575.49 991.232 1575.64 C 992.367 1576.33 993.371 1576.55 994.647 1576.84 C 982.426 1577.3 952.65 1578.19 942.382 1574.81 C 958.176 1573.1 974.75 1576.07 990.186 1573.69 C 990.486 1573.65 990.785 1573.59 991.085 1573.54 z"/>
<path transform="translate(0,0)" fill="rgb(232,227,229)" d="M 1015.51 1612.16 C 986.321 1612.45 958.475 1606.93 929.499 1612.96 L 929.318 1612.22 L 932.814 1607.54 C 941.538 1608.92 951.928 1607.82 960.842 1607.84 C 974.982 1607.86 989.118 1608.35 1003.23 1609.32 C 1008.2 1609.66 1014.26 1609.53 1018.85 1611.38 L 1015.51 1612.16 z"/>
</svg>