<svg version="1.1" xmlns="http://www.w3.org/2000/svg" style="display: block;" viewBox="0 0 2048 2048" width="1024" height="1024">
<path transform="translate(0,0)" fill="rgb(254,254,254)" d="M 0 0 L 2048 0 L 2048 2048 L 0 2048 L 0 0 z M 1082.47 273.355 C 1078.79 274.441 1076.49 275.41 1074.71 279.14 C 1071.98 284.848 1071.26 307.036 1070.47 314.286 C 1064.7 363.578 1059.72 412.958 1055.51 462.407 C 1036.49 646.853 1019.13 831.466 1003.43 1016.22 L 983.421 1228.16 C 974.594 1313.48 964.767 1398.6 960.778 1484.36 C 943.875 1467.35 915.256 1444.96 894.681 1432.62 C 883.277 1425.78 869.64 1420.95 859.347 1412.64 C 861.436 1373.14 855.018 1335.03 849.166 1296.18 C 847.328 1283.97 846.312 1271.65 844.266 1259.47 C 840.995 1239.99 836.856 1220.49 834.455 1200.89 C 839.961 1194.84 843.093 1187.15 846.562 1179.83 C 863.327 1144.48 869.248 1107.76 867.563 1068.76 C 866.135 1035.71 853.027 1002.72 854.686 969.525 C 855.291 957.416 860.654 947.066 864.463 935.784 C 867.912 925.566 870.26 914.758 871.706 904.078 C 882.93 821.224 838.638 740.24 778.767 685.943 C 715.456 628.527 638.733 610.135 555.189 614.39 C 482.227 618.106 413.288 637.467 354.443 682.051 C 341.759 691.661 329.824 701.259 319.112 713.123 C 312.104 720.884 306.427 729.725 300.407 738.247 C 294.709 746.313 288.561 754.361 283.564 762.883 C 259.065 804.671 245.697 856.142 242.885 904.176 C 242.359 913.174 241.095 922.283 241.627 931.296 C 241.966 937.047 243.438 942.776 243.429 948.539 C 243.42 954.26 241.603 960.06 241.88 965.729 L 247.623 1078.65 C 249.455 1110.39 254.498 1142.01 256.335 1173.84 C 258.203 1206.21 258.505 1238.61 259.463 1271 C 260.323 1300.08 261.512 1329.06 260.886 1358.17 C 260.373 1382 258.058 1405.63 256.948 1429.39 C 232.373 1439.79 193.069 1486.7 178.904 1509.34 C 168.636 1525.76 159.93 1544.47 152.616 1562.42 C 132.071 1612.84 118.653 1667.94 118.788 1722.5 C 118.808 1730.44 117.811 1741.01 121.114 1748.42 C 121.81 1749.98 122.85 1750.99 124.063 1752.15 L 126.903 1752.86 C 129.65 1751.19 130.554 1749.65 131.346 1746.52 C 133.998 1736.04 132.952 1724.26 133.806 1713.48 C 134.791 1701.03 136.84 1688.33 138.826 1676 C 147.721 1620.8 167.025 1559.13 197.751 1512.05 C 205.424 1500.3 214.913 1489.2 224.102 1478.59 C 233.945 1467.22 243.823 1456.19 255.844 1447.08 C 254.314 1468.73 243.652 1535.76 256.45 1550.38 C 261.949 1556.66 270.686 1559.97 278.138 1563.29 C 305.849 1575.6 333.191 1582.22 363.187 1585.94 C 382.075 1587.18 400.758 1587.11 419.663 1587.34 C 444.881 1587.64 469.164 1587.88 494.302 1585.02 C 517.157 1582.41 539.883 1577 562.423 1572.46 C 588.647 1567.18 615.516 1562.38 641.267 1555.08 C 654.338 1551.37 666.796 1545.71 679.913 1542.05 C 728.222 1528.54 799.773 1513.92 837.894 1480.81 C 849.753 1470.51 854.251 1454.8 856.844 1439.83 C 880.399 1455.72 904.228 1471.28 926.192 1489.35 C 997.939 1548.4 1038.8 1619.78 1079.15 1701.38 C 1084.34 1711.87 1108.95 1766.62 1119.07 1768.5 C 1121.68 1767.48 1121.68 1767.3 1123.13 1764.87 C 1123.71 1740.57 1083.25 1651.53 1070.72 1626.59 C 1064.55 1614.3 1057.24 1602.28 1050.24 1590.42 C 1040.45 1573.81 1028.5 1558.51 1017.98 1542.35 C 1078.56 1560.33 1139.5 1577 1199.96 1595.36 C 1275.59 1618.61 1350.93 1642.78 1425.98 1667.86 L 1632.18 1736.37 C 1654.1 1743.76 1676.21 1750.84 1698.03 1758.52 C 1709.33 1762.49 1720.32 1767.47 1731.88 1770.64 C 1733.83 1769.5 1734.89 1769.13 1735.23 1766.61 C 1735.39 1765.45 1735.07 1764.27 1734.99 1763.1 C 1734.39 1754.49 1744.73 1711.93 1746.56 1699.97 C 1749.94 1677.93 1751.54 1655.64 1754.31 1633.53 C 1757.6 1607.16 1761.82 1580.87 1765.34 1554.53 C 1772.46 1501.31 1777.59 1447.8 1785.25 1394.67 C 1802.57 1274.55 1824.89 1155.13 1842.37 1035.05 C 1856.89 929.189 1869.88 823.127 1881.31 716.892 L 1904.65 520.61 C 1908.73 487.03 1913.54 453.294 1916.61 419.625 C 1917.87 405.815 1926.1 305.434 1928.53 300.704 C 1929.48 298.867 1929.84 297.622 1929.25 295.542 C 1928.72 293.688 1927.47 291.211 1925.54 290.51 C 1913.26 286.058 1867.76 287.282 1851.3 286.824 L 1654.13 281.965 C 1633.38 281.658 1612.59 282.751 1591.86 282.362 C 1467.65 280.034 1343.52 275.216 1219.27 273.912 C 1173.76 273.434 1127.98 271.835 1082.47 273.355 z M 882.625 428.72 C 878.386 435.844 878.641 445.7 877.899 453.788 C 874.902 486.417 873.101 531.14 834.34 541.21 C 826.056 543.362 798.886 542.403 794.854 547.197 C 794.736 550.05 794.634 550.659 795.979 553.132 C 800.181 555.622 806.77 555.264 811.604 556.21 C 839.176 561.605 861.86 572.887 869.577 602.115 C 872.316 612.488 873.078 623.245 872.513 633.924 C 872.173 640.356 870.354 648.823 871.898 655.057 C 872.614 657.951 873.685 658.926 875.963 660.72 C 878.007 660.938 879.919 661.171 881.977 661.033 C 885.523 653.671 884.946 644.434 885.282 636.409 C 886.673 603.084 890.144 575.515 925.798 563.051 C 933.779 560.261 963.454 555.778 966.865 550.88 C 967.29 547.96 967.347 547.317 966.316 544.579 C 960.64 541.088 955.988 542.915 949.839 541.935 C 924.327 537.868 899.48 527.064 893.04 499.57 C 891.313 492.196 890.529 484.419 890.53 476.85 C 890.531 465.057 896.557 439.203 888.926 430.102 C 886.668 428.746 885.182 428.8 882.625 428.72 z M 847.478 1715.43 C 846.351 1718.23 845.533 1719.25 846.636 1722.26 C 850.279 1732.18 877.586 1759.98 887.914 1763.5 C 889.035 1763.88 890.298 1764.02 891.459 1764.2 C 892.802 1760.68 893.358 1758.95 891.749 1755.43 C 886.838 1744.71 861.34 1719.2 850.974 1715.97 C 849.815 1715.61 848.68 1715.53 847.478 1715.43 z"/>
<path transform="translate(0,0)" fill="rgb(1,1,1)" d="M 960.778 1484.36 C 964.767 1398.6 974.594 1313.48 983.421 1228.16 L 1003.43 1016.22 C 1019.13 831.466 1036.49 646.853 1055.51 462.407 C 1059.72 412.958 1064.7 363.578 1070.47 314.286 C 1071.26 307.036 1071.98 284.848 1074.71 279.14 C 1076.49 275.41 1078.79 274.441 1082.47 273.355 C 1127.98 271.835 1173.76 273.434 1219.27 273.912 C 1343.52 275.216 1467.65 280.034 1591.86 282.362 C 1612.59 282.751 1633.38 281.658 1654.13 281.965 L 1851.3 286.824 C 1867.76 287.282 1913.26 286.058 1925.54 290.51 C 1927.47 291.211 1928.72 293.688 1929.25 295.542 C 1929.84 297.622 1929.48 298.867 1928.53 300.704 C 1926.1 305.434 1917.87 405.815 1916.61 419.625 C 1913.54 453.294 1908.73 487.03 1904.65 520.61 L 1881.31 716.892 C 1869.88 823.127 1856.89 929.189 1842.37 1035.05 C 1824.89 1155.13 1802.57 1274.55 1785.25 1394.67 C 1777.59 1447.8 1772.46 1501.31 1765.34 1554.53 C 1761.82 1580.87 1757.6 1607.16 1754.31 1633.53 C 1751.54 1655.64 1749.94 1677.93 1746.56 1699.97 C 1744.73 1711.93 1734.39 1754.49 1734.99 1763.1 C 1735.07 1764.27 1735.39 1765.45 1735.23 1766.61 C 1734.89 1769.13 1733.83 1769.5 1731.88 1770.64 C 1720.32 1767.47 1709.33 1762.49 1698.03 1758.52 C 1676.21 1750.84 1654.1 1743.76 1632.18 1736.37 L 1425.98 1667.86 C 1350.93 1642.78 1275.59 1618.61 1199.96 1595.36 C 1139.5 1577 1078.56 1560.33 1017.98 1542.35 C 1028.5 1558.51 1040.45 1573.81 1050.24 1590.42 C 1057.24 1602.28 1064.55 1614.3 1070.72 1626.59 C 1083.25 1651.53 1123.71 1740.57 1123.13 1764.87 C 1121.68 1767.3 1121.68 1767.48 1119.07 1768.5 C 1108.95 1766.62 1084.34 1711.87 1079.15 1701.38 C 1038.8 1619.78 997.939 1548.4 926.192 1489.35 C 904.228 1471.28 880.399 1455.72 856.844 1439.83 C 854.251 1454.8 849.753 1470.51 837.894 1480.81 C 799.773 1513.92 728.222 1528.54 679.913 1542.05 C 666.796 1545.71 654.338 1551.37 641.267 1555.08 C 615.516 1562.38 588.647 1567.18 562.423 1572.46 C 539.883 1577 517.157 1582.41 494.302 1585.02 C 469.164 1587.88 444.881 1587.64 419.663 1587.34 C 400.758 1587.11 382.075 1587.18 363.187 1585.94 C 333.191 1582.22 305.849 1575.6 278.138 1563.29 C 270.686 1559.97 261.949 1556.66 256.45 1550.38 C 243.652 1535.76 254.314 1468.73 255.844 1447.08 C 243.823 1456.19 233.945 1467.22 224.102 1478.59 C 214.913 1489.2 205.424 1500.3 197.751 1512.05 C 167.025 1559.13 147.721 1620.8 138.826 1676 C 136.84 1688.33 134.791 1701.03 133.806 1713.48 C 132.952 1724.26 133.998 1736.04 131.346 1746.52 C 130.554 1749.65 129.65 1751.19 126.903 1752.86 L 124.063 1752.15 C 122.85 1750.99 121.81 1749.98 121.114 1748.42 C 117.811 1741.01 118.808 1730.44 118.788 1722.5 C 118.653 1667.94 132.071 1612.84 152.616 1562.42 C 159.93 1544.47 168.636 1525.76 178.904 1509.34 C 193.069 1486.7 232.373 1439.79 256.948 1429.39 C 258.058 1405.63 260.373 1382 260.886 1358.17 C 261.512 1329.06 260.323 1300.08 259.463 1271 C 258.505 1238.61 258.203 1206.21 256.335 1173.84 C 254.498 1142.01 249.455 1110.39 247.623 1078.65 L 241.88 965.729 C 241.603 960.06 243.42 954.26 243.429 948.539 C 243.438 942.776 241.966 937.047 241.627 931.296 C 241.095 922.283 242.359 913.174 242.885 904.176 C 245.697 856.142 259.065 804.671 283.564 762.883 C 288.561 754.361 294.709 746.313 300.407 738.247 C 306.427 729.725 312.104 720.884 319.112 713.123 C 329.824 701.259 341.759 691.661 354.443 682.051 C 413.288 637.467 482.227 618.106 555.189 614.39 C 638.733 610.135 715.456 628.527 778.767 685.943 C 838.638 740.24 882.93 821.224 871.706 904.078 C 870.26 914.758 867.912 925.566 864.463 935.784 C 860.654 947.066 855.291 957.416 854.686 969.525 C 853.027 1002.72 866.135 1035.71 867.563 1068.76 C 869.248 1107.76 863.327 1144.48 846.562 1179.83 C 843.093 1187.15 839.961 1194.84 834.455 1200.89 C 836.856 1220.49 840.995 1239.99 844.266 1259.47 C 846.312 1271.65 847.328 1283.97 849.166 1296.18 C 855.018 1335.03 861.436 1373.14 859.347 1412.64 C 869.64 1420.95 883.277 1425.78 894.681 1432.62 C 915.256 1444.96 943.875 1467.35 960.778 1484.36 z M 1101.26 284.563 C 1095.38 284.695 1089.43 284.679 1083.56 285.046 C 1080.12 337.346 1074.26 389.203 1069.09 441.325 L 1047.75 656.999 L 994.913 1245.69 C 992.669 1271.28 988.767 1296.78 986.28 1322.35 C 982.803 1358.12 980.834 1393.89 977.939 1429.68 C 976.823 1443.47 971.165 1484.74 974.536 1496.05 C 982.463 1504.6 990.814 1512.29 997.874 1521.64 C 1016.34 1529.51 1037.99 1532.57 1057.37 1537.9 L 1199.53 1576.66 C 1223.02 1583.21 1246.17 1591.15 1269.46 1598.38 C 1361.08 1626.86 1451.44 1658.6 1541.96 1690.37 L 1637.21 1724.74 C 1667.23 1735.31 1698.39 1744.61 1726.64 1759.5 C 1728.44 1742.74 1730.06 1725.91 1732.58 1709.25 L 1763.51 1468.4 C 1768.18 1431.49 1772.1 1394.67 1777.5 1357.82 C 1784.28 1311.57 1792.84 1265.64 1800.24 1219.5 C 1813.86 1135.66 1826.35 1051.63 1837.7 967.452 C 1847.3 896.417 1855.88 825.25 1863.45 753.97 C 1866.67 724.007 1868.84 693.873 1872.39 663.96 C 1883.73 568.339 1896.88 473.012 1906.45 377.181 C 1908.88 352.839 1912.7 328.21 1914.26 303.841 C 1897.88 302.296 1881.21 303.181 1864.77 302.606 L 1720.35 298.982 C 1697.07 298.539 1673.96 294.811 1650.69 294.139 C 1581.42 292.137 1512.03 292.248 1442.72 290.347 L 1222.02 285.708 C 1195.94 284.922 1169.86 284.407 1143.77 284.164 C 1130.22 283.961 1114.67 282.661 1101.26 284.563 z M 753.722 696.558 C 767.409 709.36 778.084 724.796 788.265 740.406 C 815.617 782.344 834.667 825.633 836.151 876.547 C 837.001 905.715 824.926 938.751 813.439 965.322 C 811.252 970.382 804.578 979.516 803.561 984.014 C 802.968 986.639 803.645 987.097 805.187 988.996 C 808.007 990.106 809.378 990.316 812.393 990.014 C 814.491 988.626 815.776 987.365 817.327 985.387 C 841.064 951.084 851.351 929.999 854.322 887.839 C 855.319 873.704 855.524 858.659 853.021 844.657 C 849.119 822.825 839.854 798.689 829.121 779.283 C 815.608 754.85 782.322 714.305 759.257 699.225 C 757.522 698.091 755.699 697.187 753.722 696.558 z M 841.209 982.725 C 834.105 994.484 825.458 1006.88 816.375 1017.18 C 818.339 1032.58 816.273 1047.76 817.229 1063.08 C 817.493 1067.31 819.335 1071.46 819.666 1075.81 C 822.066 1107.4 823.927 1138.81 829.721 1170.04 L 831.47 1178.74 L 832.759 1178.4 C 846.247 1148.79 853.341 1109.95 851.534 1077.6 C 850.373 1056.82 846.105 1035.74 843.412 1015.08 C 842.088 1004.94 843.455 992.054 841.209 982.725 z M 791.321 1031.47 C 788.334 1034.15 787.176 1034.99 786.946 1039.21 C 785.81 1059.99 788.095 1082 789.766 1102.72 C 792.797 1140.29 796.971 1178.51 803.33 1215.68 L 816.442 1290.37 C 819.826 1308.6 823.892 1326.85 826.232 1345.24 C 828.95 1366.61 829.179 1389.48 827.908 1410.97 C 827.389 1419.76 825.838 1428.65 825.733 1437.43 C 825.695 1440.58 825.669 1442.95 827.126 1445.76 C 829.363 1447.05 830.025 1447.2 832.698 1446.76 C 832.884 1446.73 833.046 1446.62 833.22 1446.55 C 843.361 1424.18 843.518 1374.62 841.984 1349.78 C 839.746 1313.53 831.519 1278.83 824.832 1243.32 C 818.125 1206.56 811.993 1169.7 806.438 1132.75 C 803.999 1116.49 797.871 1043.82 793.486 1034.23 C 792.645 1032.39 792.929 1032.96 791.321 1031.47 z M 738.012 1255.37 C 736.574 1257.47 735.658 1258.69 735.355 1261.28 C 734.203 1271.13 736.004 1283.48 736.382 1293.53 C 737.614 1326.26 740.192 1358.78 741.79 1391.47 C 742.465 1403.86 742.86 1416.27 742.974 1428.68 C 743.039 1436.21 742.281 1444.61 743.366 1452.01 C 743.685 1454.19 744.345 1455.56 745.848 1457.14 C 748.062 1457.61 749.05 1457.9 751.138 1456.6 C 751.835 1456.17 752.759 1455.2 753.36 1454.61 C 764.895 1436.77 750.575 1290.68 745.273 1266.64 C 744.504 1263.15 743.636 1258.94 740.593 1256.67 C 739.734 1256.03 738.967 1255.77 738.012 1255.37 z M 321.89 1324.33 C 311.782 1341.07 308.182 1473.9 313.183 1495.9 C 314.105 1499.96 316.504 1501.87 319.55 1504.48 C 322.479 1502.77 324.814 1501.65 326.466 1498.53 C 328.448 1480.87 324.798 1461.5 324.959 1443.5 C 325.154 1421.75 332.421 1340.48 327.313 1327.35 C 325.476 1325.46 324.445 1324.96 321.89 1324.33 z M 383.884 1340.36 C 375.738 1358.14 373.522 1490.6 379.902 1508.83 C 380.948 1511.82 382.228 1513.6 384.937 1515.31 C 387.073 1515.55 388.776 1515.28 390.503 1513.83 C 390.87 1513.52 391.118 1513.1 391.425 1512.73 C 391.964 1491.44 393.923 1349.81 387.907 1342.02 C 386.528 1341.33 385.38 1340.76 383.884 1340.36 z"/>
<path transform="translate(0,0)" fill="rgb(254,254,254)" d="M 1083.56 285.046 C 1089.43 284.679 1095.38 284.695 1101.26 284.563 C 1114.67 282.661 1130.22 283.961 1143.77 284.164 C 1169.86 284.407 1195.94 284.922 1222.02 285.708 L 1442.72 290.347 C 1512.03 292.248 1581.42 292.137 1650.69 294.139 C 1673.96 294.811 1697.07 298.539 1720.35 298.982 L 1864.77 302.606 C 1881.21 303.181 1897.88 302.296 1914.26 303.841 C 1912.7 328.21 1908.88 352.839 1906.45 377.181 C 1896.88 473.012 1883.73 568.339 1872.39 663.96 C 1868.84 693.873 1866.67 724.007 1863.45 753.97 C 1855.88 825.25 1847.3 896.417 1837.7 967.452 C 1826.35 1051.63 1813.86 1135.66 1800.24 1219.5 C 1792.84 1265.64 1784.28 1311.57 1777.5 1357.82 C 1772.1 1394.67 1768.18 1431.49 1763.51 1468.4 L 1732.58 1709.25 C 1730.06 1725.91 1728.44 1742.74 1726.64 1759.5 C 1698.39 1744.61 1667.23 1735.31 1637.21 1724.74 L 1541.96 1690.37 C 1451.44 1658.6 1361.08 1626.86 1269.46 1598.38 C 1246.17 1591.15 1223.02 1583.21 1199.53 1576.66 L 1057.37 1537.9 C 1037.99 1532.57 1016.34 1529.51 997.874 1521.64 C 990.814 1512.29 982.463 1504.6 974.536 1496.05 C 971.165 1484.74 976.823 1443.47 977.939 1429.68 C 980.834 1393.89 982.803 1358.12 986.28 1322.35 C 988.767 1296.78 992.669 1271.28 994.913 1245.69 L 1047.75 656.999 L 1069.09 441.325 C 1074.26 389.203 1080.12 337.346 1083.56 285.046 z M 1146.12 323.53 C 1140.37 323.573 1134.35 323.103 1128.87 325.036 C 1126.71 327.329 1126.48 329.014 1125.88 332.134 C 1123.98 341.94 1123.49 352.407 1122.5 362.358 C 1120.15 384.59 1118.23 406.866 1116.75 429.173 C 1113.47 472.677 1109.22 515.964 1106.91 559.543 C 1104.1 612.406 1099.34 665.233 1095.23 718.018 L 1087.55 826.472 L 1072.19 997 C 1070.07 1019.76 1066.74 1042.48 1064.59 1065.26 C 1058.62 1128.53 1055.07 1192.09 1049.93 1255.44 C 1045.69 1307.54 1039.91 1359.59 1035.23 1411.67 C 1033.6 1429.82 1029.19 1458.63 1030.26 1476.34 C 1030.3 1477.04 1030.47 1478.1 1030.57 1478.75 C 1034.11 1480.7 1036.2 1479.2 1039.67 1480.24 C 1044.46 1481.67 1049.26 1485.39 1054.38 1487.07 C 1075.9 1494.1 1098.03 1499.28 1119.79 1505.44 L 1285.63 1553.64 C 1360.17 1575.67 1433.01 1602.23 1506.95 1625.91 C 1524.12 1631.41 1663.01 1686.69 1667.93 1685.1 C 1669.93 1684.45 1670.47 1683.94 1671.76 1682.39 C 1671.59 1667.11 1673.36 1652.64 1675.35 1637.54 C 1690.11 1521.94 1709.79 1407.18 1726.5 1291.86 C 1732.73 1248.85 1737.28 1205.57 1743.35 1162.52 C 1779.16 923.31 1807.59 683.047 1828.57 442.079 C 1829.95 425.286 1838.64 360.041 1833.9 349.158 C 1818.3 337.817 1491.85 330.707 1448.04 329.413 C 1422.92 328.671 1397.81 327.099 1372.68 326.557 C 1297.16 324.93 1221.64 325.513 1146.12 323.53 z"/>
<path transform="translate(0,0)" fill="rgb(1,1,1)" d="M 1675.35 1637.54 C 1673.36 1652.64 1671.59 1667.11 1671.76 1682.39 C 1670.47 1683.94 1669.93 1684.45 1667.93 1685.1 C 1663.01 1686.69 1524.12 1631.41 1506.95 1625.91 C 1433.01 1602.23 1360.17 1575.67 1285.63 1553.64 L 1119.79 1505.44 C 1098.03 1499.28 1075.9 1494.1 1054.38 1487.07 C 1049.26 1485.39 1044.46 1481.67 1039.67 1480.24 C 1036.2 1479.2 1034.11 1480.7 1030.57 1478.75 C 1030.47 1478.1 1030.3 1477.04 1030.26 1476.34 C 1029.19 1458.63 1033.6 1429.82 1035.23 1411.67 C 1039.91 1359.59 1045.69 1307.54 1049.93 1255.44 C 1055.07 1192.09 1058.62 1128.53 1064.59 1065.26 C 1066.74 1042.48 1070.07 1019.76 1072.19 997 L 1087.55 826.472 L 1095.23 718.018 C 1099.34 665.233 1104.1 612.406 1106.91 559.543 C 1109.22 515.964 1113.47 472.677 1116.75 429.173 C 1118.23 406.866 1120.15 384.59 1122.5 362.358 C 1123.49 352.407 1123.98 341.94 1125.88 332.134 C 1126.48 329.014 1126.71 327.329 1128.87 325.036 C 1134.35 323.103 1140.37 323.573 1146.12 323.53 C 1221.64 325.513 1297.16 324.93 1372.68 326.557 C 1397.81 327.099 1422.92 328.671 1448.04 329.413 C 1491.85 330.707 1818.3 337.817 1833.9 349.158 C 1838.64 360.041 1829.95 425.286 1828.57 442.079 C 1807.59 683.047 1779.16 923.31 1743.35 1162.52 C 1737.28 1205.57 1732.73 1248.85 1726.5 1291.86 C 1709.79 1407.18 1690.11 1521.94 1675.35 1637.54 z M 1136.43 333.425 C 1125.98 436.714 1121.49 540.558 1114.46 644.098 C 1100.87 831.304 1084.95 1018.33 1066.72 1205.14 L 1049.86 1394.96 C 1047.55 1419.49 1045.99 1443.97 1042.93 1468.42 C 1042.75 1469.85 1042.79 1469.36 1043.37 1470.9 C 1057.73 1478.47 1076.94 1480.34 1092.68 1484.57 C 1092.06 1462.09 1098.61 1441.23 1103.25 1419.47 C 1123.07 1326.52 1157.89 1225.53 1224.27 1155.41 C 1231.67 1147.72 1239.19 1140.16 1246.84 1132.71 C 1236.11 1130.64 1226.58 1126.9 1220.22 1117.39 C 1212.63 1106.06 1214.14 1091.62 1216.99 1078.99 C 1224.91 1043.89 1241.64 1011.61 1257.68 979.68 C 1244.76 930.131 1251.78 912.327 1266.26 865.385 C 1269.46 855.024 1272.78 844.819 1274.85 834.157 C 1266.06 813.691 1277.42 777.863 1285.21 758.347 C 1294.81 734.336 1309.74 707.863 1329.41 690.655 C 1337.1 683.926 1346.14 678.411 1354.67 672.8 C 1366.6 664.951 1378.73 657.655 1391.89 652.014 C 1434.45 633.767 1494.57 629.215 1539.82 639.3 C 1551.27 641.853 1562.54 646.239 1573.39 650.652 C 1587 656.187 1598.47 663.471 1610.4 671.974 C 1647.11 699.974 1671.77 744.428 1678.05 790.031 C 1679.51 800.703 1679.37 811.53 1679.38 822.281 C 1679.45 887.503 1660.68 934.8 1646.36 996.404 C 1634.9 1045.74 1623.31 1122.42 1624.73 1172.61 C 1624.8 1174.74 1624.98 1176.68 1625.88 1178.64 C 1628.86 1185.12 1633.84 1191.16 1637.41 1197.43 C 1646.49 1213.36 1655.16 1229.98 1661.86 1247.06 C 1681.12 1296.15 1690.54 1351.04 1695.26 1403.36 C 1700.38 1372.69 1705.96 1342.03 1710.49 1311.27 C 1722.31 1230.98 1731.76 1150.23 1742.66 1069.8 L 1768.69 874.034 C 1773.73 836.705 1780.08 799.353 1784.06 761.907 L 1798.35 619.457 C 1800.55 597.53 1803.62 575.767 1805.5 553.793 L 1816.03 441.537 C 1818.64 413.579 1820.39 385.364 1825.19 357.676 C 1780.09 351.861 1734.29 350.119 1688.88 348.412 C 1650.42 346.966 1612.12 345.342 1573.63 344.576 C 1551.78 344.142 1530.02 342.126 1508.2 341.341 L 1362.97 337.567 C 1287.5 336.214 1211.81 338.091 1136.43 333.425 z M 1469.47 650.452 C 1429.73 652.05 1394.23 662.307 1360.87 684.302 C 1351.8 690.28 1342.75 696.59 1335.32 704.588 C 1322.65 718.231 1311.01 737.791 1305.38 755.55 C 1310.71 748.873 1315.93 742.048 1321.75 735.784 C 1331.83 725.073 1341.68 714.356 1353.16 705.1 C 1384.04 680.203 1425.7 666.159 1464.72 660.425 C 1472.1 659.339 1496.48 657.921 1501.48 655.259 C 1498.04 651.379 1490.53 651.116 1485.48 650.797 C 1480.19 650.463 1474.77 650.309 1469.47 650.452 z M 1392.82 722.907 C 1382.32 733.454 1366.7 752.642 1365.37 767.948 C 1366.02 769.694 1366.54 770.325 1368.01 771.461 C 1368.97 770.945 1370.12 770.688 1370.89 769.914 C 1374.3 766.483 1390.53 731.406 1393.49 724.589 C 1393.29 724.019 1393.23 723.352 1392.82 722.907 z M 1367.89 728.166 C 1335.57 740.489 1312.08 774.091 1298.4 804.654 C 1289.65 824.194 1283.8 846.99 1278.14 867.644 C 1268.06 904.478 1257.96 924.657 1266.3 964.09 C 1268.22 973.167 1270.18 982.462 1273.5 991.141 C 1281.18 1011.24 1296.58 1023.14 1315.84 1031.48 C 1334.65 1039.63 1355.79 1044.03 1376.03 1046.95 C 1388.26 1048.69 1400.58 1049.79 1412.93 1050.26 C 1417.94 1050.43 1423.12 1049.87 1428.1 1050.29 C 1430.67 1050.5 1431.99 1051.11 1433.82 1052.84 C 1433.77 1055.48 1433.86 1056.11 1431.72 1057.98 C 1424.46 1064.32 1380.51 1060.23 1370.08 1057.95 C 1368.7 1057.65 1367.33 1057.31 1365.98 1056.92 C 1366.13 1067.95 1366.34 1106.13 1359.41 1113.14 C 1354.78 1117.84 1348.44 1120.63 1343.71 1125.29 C 1333.04 1135.81 1325.48 1157.22 1324.95 1172.06 C 1324.6 1181.77 1327.54 1191.7 1334.32 1198.85 C 1341.91 1206.86 1352.76 1209.66 1363.51 1209.76 C 1390.66 1210.01 1417.01 1192.49 1438.62 1177.85 C 1454.87 1166.06 1464.78 1156.73 1484.48 1150.98 C 1476.11 1148.09 1465.66 1145.26 1461.32 1136.72 C 1458.69 1131.55 1460.35 1124.69 1461.61 1119.24 C 1464.01 1108.92 1467.83 1098.69 1471.03 1088.57 L 1490.49 1027.77 C 1496.29 1009.67 1501.9 991.513 1507.33 973.3 C 1509.76 964.878 1511.56 956.231 1514.24 947.89 C 1524.08 950.375 1533.34 952.784 1542.72 947.167 C 1551.11 942.141 1555.7 932.767 1557.57 923.46 C 1559.5 913.845 1558.95 901.227 1552.89 893.046 C 1550.34 889.6 1545.85 887.076 1541.58 886.657 C 1535.22 886.033 1529.61 889.644 1525.04 893.67 C 1521.09 897.148 1517.38 901.737 1512.53 903.881 L 1510.48 903.668 C 1508.92 901.717 1507.95 900.323 1508.15 897.705 C 1508.54 892.485 1514.56 884.362 1518.96 881.625 C 1520.97 880.372 1523.15 879.648 1525.39 878.936 C 1498.07 850.668 1489.77 822.417 1490.52 783.552 C 1490.7 776.467 1490.94 769.384 1491.26 762.304 C 1485.75 771.746 1473.9 804.671 1463.99 807.259 C 1449.64 811.012 1361.96 795.005 1350.97 787.041 C 1348.72 785.409 1347.92 783.024 1347.6 780.35 C 1345.89 766.077 1358.74 745.171 1366.17 733.499 C 1367.04 732.125 1369.41 729.808 1367.89 728.166 z M 1512.52 744.606 C 1500.32 771.849 1500.16 806.701 1510.65 834.66 C 1516.61 850.519 1526.87 867.685 1543.03 874.953 C 1544.52 875.625 1545.82 875.509 1547.4 875.472 L 1552.44 876.434 L 1553.43 875.346 C 1549.09 868.17 1543.64 861.582 1539.16 854.413 C 1523.48 829.295 1516.61 803.846 1517.54 774.342 C 1517.8 766.139 1520.01 749.657 1512.52 744.606 z M 1264.65 1013.47 C 1256.12 1028.15 1234.41 1075.02 1239.94 1092.09 C 1240.44 1093.64 1240.96 1094.66 1241.93 1095.93 L 1243.22 1096.24 C 1245.81 1086.82 1248.44 1077.42 1251.66 1068.2 C 1254.55 1059.94 1271.9 1022.39 1267.54 1015.91 C 1266.97 1015.07 1265.4 1014.05 1264.65 1013.47 z M 1540.86 1030.29 C 1535.36 1045.81 1529.93 1061.34 1524.59 1076.91 C 1519.43 1091.53 1512.91 1106.51 1510.55 1121.86 C 1511.77 1124.1 1512.12 1123.75 1514.45 1124.4 C 1515.67 1124.75 1515.2 1124.67 1516.49 1124.55 C 1521.51 1113.1 1549.16 1043.67 1548.12 1035.47 C 1546.62 1032.65 1544.74 1031.53 1541.73 1030.53 C 1541.45 1030.44 1541.15 1030.37 1540.86 1030.29 z M 1577.63 1039.93 C 1575.68 1041.35 1572.56 1043.19 1571.46 1045.37 C 1567.95 1052.27 1552.84 1110.48 1551.18 1120.48 C 1550.75 1123.1 1550.57 1123.58 1551.99 1125.71 L 1557.05 1127.53 C 1564.01 1120.64 1579.99 1057.84 1581.92 1045.14 C 1581.36 1042.57 1579.57 1041.49 1577.63 1039.93 z M 1276.56 1043.93 L 1276.35 1045.58 C 1274.59 1059.09 1260.3 1094.57 1268.33 1105.69 C 1269.27 1106.99 1271.04 1108.01 1272.39 1108.79 C 1275.36 1103 1283.61 1052.37 1282.68 1046.62 C 1282.59 1046.05 1282.29 1045.53 1282.09 1044.99 C 1280.18 1044.36 1278.56 1044.08 1276.56 1043.93 z M 1304.55 1118.24 C 1294.07 1122.91 1285.75 1131.25 1276.21 1137.48 C 1266.75 1143.66 1256.61 1149.22 1247.77 1156.27 C 1216.97 1180.81 1200.14 1208.66 1182.68 1243.15 C 1175.74 1256.84 1168.93 1270.31 1163.41 1284.65 C 1147.83 1325.16 1135.03 1366.55 1122.91 1408.2 C 1116.99 1428.56 1112.63 1449.66 1105.45 1469.6 C 1103.44 1475.2 1101.7 1479.62 1097.16 1483.71 C 1109.34 1490.06 1122.73 1492.48 1135.74 1496.49 C 1153.66 1501.41 1171.68 1508 1189.82 1511.75 C 1193.21 1480.01 1201.22 1449.22 1209.3 1418.44 C 1216.63 1390.51 1223.79 1362.91 1232.8 1335.45 C 1244.81 1298.84 1259.12 1263.12 1273.5 1227.39 C 1284.72 1199.54 1295.43 1171.19 1310.21 1144.94 C 1315.24 1136 1321.36 1128.44 1327.16 1120.08 C 1319.63 1119.3 1312.13 1118.51 1304.55 1118.24 z M 1498.74 1156.71 C 1489.77 1166.74 1481.11 1177.47 1475.06 1189.57 C 1456.99 1225.76 1445.09 1271.45 1432.93 1310.11 C 1411.6 1377.92 1390.87 1445.88 1367.55 1513.06 C 1362.3 1528.18 1358.79 1544.65 1352.01 1559.1 C 1400.12 1577.03 1449.86 1592.82 1499.17 1607.25 C 1509.38 1577.88 1526.13 1549.78 1540.9 1522.48 C 1551.89 1502.19 1562.2 1481.54 1572.83 1461.06 C 1582.99 1441.5 1591.07 1419.11 1601.49 1400.42 C 1603.37 1397.05 1605.65 1393.01 1609.25 1391.25 C 1610.82 1390.48 1610.46 1390.79 1612.41 1391.3 C 1613.88 1393.28 1614.98 1394.84 1614.65 1397.44 C 1612.38 1415.16 1598.76 1444.13 1590.01 1459.6 C 1570.54 1498.12 1550.47 1535.88 1529.45 1573.57 C 1522.4 1586.21 1516.09 1599.26 1508.47 1611.57 C 1527.1 1614.36 1547.09 1623.36 1564.7 1630.18 C 1596.86 1642.63 1628.78 1655.4 1659.95 1670.17 C 1662.16 1638.28 1665.05 1605.19 1670.02 1573.63 C 1673.89 1550.39 1677.42 1527.09 1680.6 1503.75 C 1682.24 1492.18 1684.59 1480.23 1684.86 1468.53 C 1685.19 1454.1 1679.43 1437.67 1677.29 1423.21 C 1675.13 1408.61 1674.22 1393.84 1672.06 1379.25 C 1670.25 1367.08 1667.43 1355.07 1665.16 1342.98 C 1660.95 1320.5 1656.79 1297.94 1649.83 1276.09 C 1643.49 1256.22 1635.28 1236.74 1627.04 1217.6 C 1620.52 1202.47 1614.32 1185.57 1603.49 1172.96 C 1567.52 1170.7 1533.28 1167.68 1498.74 1156.71 z M 1312.14 1168.57 C 1309.12 1183.13 1300.21 1197.46 1294.57 1211.3 C 1284.22 1236.68 1274.78 1262.54 1265.47 1288.32 C 1247.91 1335.79 1232.42 1384 1219.04 1432.81 C 1211.72 1459.87 1205.8 1487.34 1199.23 1514.59 C 1211.16 1518 1223.26 1520.73 1235.15 1524.24 C 1271.8 1535.06 1308.24 1546.97 1345.02 1557.29 C 1344.27 1541.25 1351.34 1521.15 1356 1505.76 C 1367.28 1472.4 1374.88 1438.06 1384.75 1404.31 C 1403.44 1340.35 1424.5 1266.97 1450.18 1205.91 C 1455.8 1192.53 1463.75 1180.62 1469.71 1167.55 C 1440.74 1193.95 1400.18 1224.03 1359 1222.4 C 1345.75 1221.88 1333.47 1216.57 1324.47 1206.76 C 1315.96 1197.48 1314.19 1183.75 1313.02 1171.68 C 1312.85 1169.83 1312.95 1170.54 1312.14 1168.57 z"/>
<path transform="translate(0,0)" fill="rgb(254,254,254)" d="M 1092.68 1484.57 C 1076.94 1480.34 1057.73 1478.47 1043.37 1470.9 C 1042.79 1469.36 1042.75 1469.85 1042.93 1468.42 C 1045.99 1443.97 1047.55 1419.49 1049.86 1394.96 L 1066.72 1205.14 C 1084.95 1018.33 1100.87 831.304 1114.46 644.098 C 1121.49 540.558 1125.98 436.714 1136.43 333.425 C 1211.81 338.091 1287.5 336.214 1362.97 337.567 L 1508.2 341.341 C 1530.02 342.126 1551.78 344.142 1573.63 344.576 C 1612.12 345.342 1650.42 346.966 1688.88 348.412 C 1734.29 350.119 1780.09 351.861 1825.19 357.676 C 1820.39 385.364 1818.64 413.579 1816.03 441.537 L 1805.5 553.793 C 1803.62 575.767 1800.55 597.53 1798.35 619.457 L 1784.06 761.907 C 1780.08 799.353 1773.73 836.705 1768.69 874.034 L 1742.66 1069.8 C 1731.76 1150.23 1722.31 1230.98 1710.49 1311.27 C 1705.96 1342.03 1700.38 1372.69 1695.26 1403.36 C 1690.54 1351.04 1681.12 1296.15 1661.86 1247.06 C 1655.16 1229.98 1646.49 1213.36 1637.41 1197.43 C 1633.84 1191.16 1628.86 1185.12 1625.88 1178.64 C 1624.98 1176.68 1624.8 1174.74 1624.73 1172.61 C 1623.31 1122.42 1634.9 1045.74 1646.36 996.404 C 1660.68 934.8 1679.45 887.503 1679.38 822.281 C 1679.37 811.53 1679.51 800.703 1678.05 790.031 C 1671.77 744.428 1647.11 699.974 1610.4 671.974 C 1598.47 663.471 1587 656.187 1573.39 650.652 C 1562.54 646.239 1551.27 641.853 1539.82 639.3 C 1494.57 629.215 1434.45 633.767 1391.89 652.014 C 1378.73 657.655 1366.6 664.951 1354.67 672.8 C 1346.14 678.411 1337.1 683.926 1329.41 690.655 C 1309.74 707.863 1294.81 734.336 1285.21 758.347 C 1277.42 777.863 1266.06 813.691 1274.85 834.157 C 1272.78 844.819 1269.46 855.024 1266.26 865.385 C 1251.78 912.327 1244.76 930.131 1257.68 979.68 C 1241.64 1011.61 1224.91 1043.89 1216.99 1078.99 C 1214.14 1091.62 1212.63 1106.06 1220.22 1117.39 C 1226.58 1126.9 1236.11 1130.64 1246.84 1132.71 C 1239.19 1140.16 1231.67 1147.72 1224.27 1155.41 C 1157.89 1225.53 1123.07 1326.52 1103.25 1419.47 C 1098.61 1441.23 1092.06 1462.09 1092.68 1484.57 z M 1373.12 380.467 C 1350.91 411.033 1331.21 443.629 1310.77 475.395 L 1238.78 586.036 C 1216.34 620.971 1192.59 654.905 1171.04 690.437 C 1165.94 698.846 1160.2 707.304 1155.53 715.932 C 1153.85 719.033 1152.72 721.78 1152.54 725.308 C 1154.28 728.057 1155.29 727.843 1158.32 728.753 C 1172.84 703.891 1187.89 679.343 1203.46 655.126 L 1357.33 416.382 C 1360.81 410.89 1377.32 388.157 1377.57 384.498 C 1377.62 383.82 1377.4 383.149 1377.32 382.475 C 1375.8 381.515 1374.87 380.944 1373.12 380.467 z M 1287.22 423.496 C 1271.33 445.768 1181.49 567.883 1180.42 583.042 C 1181.53 585.045 1182.25 585.59 1184.29 586.595 C 1197.63 570.277 1209.75 548.798 1221.75 531.102 L 1261.49 472.06 C 1270.52 458.902 1280.18 446.168 1288.96 432.84 C 1290.38 430.681 1291.57 429.184 1291.82 426.523 C 1290.36 424.896 1289.24 424.317 1287.22 423.496 z M 1712.89 438.217 C 1704.83 447.922 1706.21 465.881 1703.58 477.851 C 1696.86 508.43 1677.74 541.526 1643.61 544.453 C 1636.98 545.022 1619.19 543.242 1614.85 547.575 C 1614.76 548.924 1614.4 549.5 1615.35 550.629 C 1626.19 563.49 1682.61 549.089 1681.86 611.993 C 1681.71 625.032 1672.8 661.34 1679.89 670.513 C 1682.23 669.638 1684.47 669.432 1685.66 667.037 C 1688.27 661.771 1688.58 653.258 1689.32 647.45 C 1693.38 615.382 1696.35 588.109 1730.38 574.541 C 1739.01 571.099 1750.61 567.657 1760 568.493 C 1763.38 568.795 1769.75 571.001 1772.71 570.3 C 1774.64 569.841 1776.02 567.522 1776.82 565.866 C 1777.38 564.694 1777.57 563.598 1777.7 562.319 C 1768.57 548.288 1730.07 554.519 1719.34 514.636 C 1714.81 497.801 1715.66 481.151 1718.15 464.035 C 1718.98 458.366 1721.55 449.536 1720.4 444.1 C 1719.57 440.173 1716.43 439.154 1712.89 438.217 z"/>
<path transform="translate(0,0)" fill="rgb(1,1,1)" d="M 1158.32 728.753 C 1155.29 727.843 1154.28 728.057 1152.54 725.308 C 1152.72 721.78 1153.85 719.033 1155.53 715.932 C 1160.2 707.304 1165.94 698.846 1171.04 690.437 C 1192.59 654.905 1216.34 620.971 1238.78 586.036 L 1310.77 475.395 C 1331.21 443.629 1350.91 411.033 1373.12 380.467 C 1374.87 380.944 1375.8 381.515 1377.32 382.475 C 1377.4 383.149 1377.62 383.82 1377.57 384.498 C 1377.32 388.157 1360.81 410.89 1357.33 416.382 L 1203.46 655.126 C 1187.89 679.343 1172.84 703.891 1158.32 728.753 z"/>
<path transform="translate(0,0)" fill="rgb(1,1,1)" d="M 1184.29 586.595 C 1182.25 585.59 1181.53 585.045 1180.42 583.042 C 1181.49 567.883 1271.33 445.768 1287.22 423.496 C 1289.24 424.317 1290.36 424.896 1291.82 426.523 C 1291.57 429.184 1290.38 430.681 1288.96 432.84 C 1280.18 446.168 1270.52 458.902 1261.49 472.06 L 1221.75 531.102 C 1209.75 548.798 1197.63 570.277 1184.29 586.595 z"/>
<path transform="translate(0,0)" fill="rgb(1,1,1)" d="M 881.977 661.033 C 879.919 661.171 878.007 660.938 875.963 660.72 C 873.685 658.926 872.614 657.951 871.898 655.057 C 870.354 648.823 872.173 640.356 872.513 633.924 C 873.078 623.245 872.316 612.488 869.577 602.115 C 861.86 572.887 839.176 561.605 811.604 556.21 C 806.77 555.264 800.181 555.622 795.979 553.132 C 794.634 550.659 794.736 550.05 794.854 547.197 C 798.886 542.403 826.056 543.362 834.34 541.21 C 873.101 531.14 874.902 486.417 877.899 453.788 C 878.641 445.7 878.386 435.844 882.625 428.72 C 885.182 428.8 886.668 428.746 888.926 430.102 C 896.557 439.203 890.531 465.057 890.53 476.85 C 890.529 484.419 891.313 492.196 893.04 499.57 C 899.48 527.064 924.327 537.868 949.839 541.935 C 955.988 542.915 960.64 541.088 966.316 544.579 C 967.347 547.317 967.29 547.96 966.865 550.88 C 963.454 555.778 933.779 560.261 925.798 563.051 C 890.144 575.515 886.673 603.084 885.282 636.409 C 884.946 644.434 885.523 653.671 881.977 661.033 z M 881.937 500.553 C 878.656 516.969 869.289 533.839 855.284 543.487 C 848.598 548.092 842.517 549.995 834.628 551.031 C 855.175 560.839 869.506 572.643 878.168 594.326 L 879.489 594.463 C 897.058 561.244 900.229 567.521 927.177 549.321 C 911.117 540.831 895.82 534.151 887.807 516.582 C 885.431 511.373 884.308 505.7 881.937 500.553 z"/>
<path transform="translate(0,0)" fill="rgb(1,1,1)" d="M 1679.89 670.513 C 1672.8 661.34 1681.71 625.032 1681.86 611.993 C 1682.61 549.089 1626.19 563.49 1615.35 550.629 C 1614.4 549.5 1614.76 548.924 1614.85 547.575 C 1619.19 543.242 1636.98 545.022 1643.61 544.453 C 1677.74 541.526 1696.86 508.43 1703.58 477.851 C 1706.21 465.881 1704.83 447.922 1712.89 438.217 C 1716.43 439.154 1719.57 440.173 1720.4 444.1 C 1721.55 449.536 1718.98 458.366 1718.15 464.035 C 1715.66 481.151 1714.81 497.801 1719.34 514.636 C 1730.07 554.519 1768.57 548.288 1777.7 562.319 C 1777.57 563.598 1777.38 564.694 1776.82 565.866 C 1776.02 567.522 1774.64 569.841 1772.71 570.3 C 1769.75 571.001 1763.38 568.795 1760 568.493 C 1750.61 567.657 1739.01 571.099 1730.38 574.541 C 1696.35 588.109 1693.38 615.382 1689.32 647.45 C 1688.58 653.258 1688.27 661.771 1685.66 667.037 C 1684.47 669.432 1682.23 669.638 1679.89 670.513 z M 1704.7 505.779 C 1693.98 530.392 1679.68 541.747 1656.58 554.366 C 1668.08 558.556 1678.62 566.639 1684.14 577.823 C 1687.07 583.744 1688.63 590.803 1690.41 597.152 C 1691.74 595.244 1693.03 593.396 1694.09 591.315 C 1702.86 576.306 1719.8 566.104 1736.36 561.842 C 1740.17 560.889 1744 560.03 1747.85 559.267 C 1732.76 553.856 1721.14 543.591 1714.22 528.976 C 1710.95 522.085 1708.22 514.836 1705.86 507.593 C 1705.45 506.356 1705.66 506.815 1704.7 505.779 z"/>
<path transform="translate(0,0)" fill="rgb(254,254,254)" d="M 834.628 551.031 C 842.517 549.995 848.598 548.092 855.284 543.487 C 869.289 533.839 878.656 516.969 881.937 500.553 C 884.308 505.7 885.431 511.373 887.807 516.582 C 895.82 534.151 911.117 540.831 927.177 549.321 C 900.229 567.521 897.058 561.244 879.489 594.463 L 878.168 594.326 C 869.506 572.643 855.175 560.839 834.628 551.031 z"/>
<path transform="translate(0,0)" fill="rgb(254,254,254)" d="M 1656.58 554.366 C 1679.68 541.747 1693.98 530.392 1704.7 505.779 C 1705.66 506.815 1705.45 506.356 1705.86 507.593 C 1708.22 514.836 1710.95 522.085 1714.22 528.976 C 1721.14 543.591 1732.76 553.856 1747.85 559.267 C 1744 560.03 1740.17 560.889 1736.36 561.842 C 1719.8 566.104 1702.86 576.306 1694.09 591.315 C 1693.03 593.396 1691.74 595.244 1690.41 597.152 C 1688.63 590.803 1687.07 583.744 1684.14 577.823 C 1678.62 566.639 1668.08 558.556 1656.58 554.366 z"/>
<path transform="translate(0,0)" fill="rgb(254,254,254)" d="M 1305.38 755.55 C 1311.01 737.791 1322.65 718.231 1335.32 704.588 C 1342.75 696.59 1351.8 690.28 1360.87 684.302 C 1394.23 662.307 1429.73 652.05 1469.47 650.452 C 1474.77 650.309 1480.19 650.463 1485.48 650.797 C 1490.53 651.116 1498.04 651.379 1501.48 655.259 C 1496.48 657.921 1472.1 659.339 1464.72 660.425 C 1425.7 666.159 1384.04 680.203 1353.16 705.1 C 1341.68 714.356 1331.83 725.073 1321.75 735.784 C 1315.93 742.048 1310.71 748.873 1305.38 755.55 z"/>
<path transform="translate(0,0)" fill="rgb(254,254,254)" d="M 817.327 985.387 C 815.776 987.365 814.491 988.626 812.393 990.014 C 809.378 990.316 808.007 990.106 805.187 988.996 C 803.645 987.097 802.968 986.639 803.561 984.014 C 804.578 979.516 811.252 970.382 813.439 965.322 C 824.926 938.751 837.001 905.715 836.151 876.547 C 834.667 825.633 815.617 782.344 788.265 740.406 C 778.084 724.796 767.409 709.36 753.722 696.558 C 755.699 697.187 757.522 698.091 759.257 699.225 C 782.322 714.305 815.608 754.85 829.121 779.283 C 839.854 798.689 849.119 822.825 853.021 844.657 C 855.524 858.659 855.319 873.704 854.322 887.839 C 851.351 929.999 841.064 951.084 817.327 985.387 z"/>
<path transform="translate(0,0)" fill="rgb(254,254,254)" d="M 1368.01 771.461 C 1366.54 770.325 1366.02 769.694 1365.37 767.948 C 1366.7 752.642 1382.32 733.454 1392.82 722.907 C 1393.23 723.352 1393.29 724.019 1393.49 724.589 C 1390.53 731.406 1374.3 766.483 1370.89 769.914 C 1370.12 770.688 1368.97 770.945 1368.01 771.461 z"/>
<path transform="translate(0,0)" fill="rgb(254,254,254)" d="M 1365.98 1056.92 C 1367.33 1057.31 1368.7 1057.65 1370.08 1057.95 C 1380.51 1060.23 1424.46 1064.32 1431.72 1057.98 C 1433.86 1056.11 1433.77 1055.48 1433.82 1052.84 C 1431.99 1051.11 1430.67 1050.5 1428.1 1050.29 C 1423.12 1049.87 1417.94 1050.43 1412.93 1050.26 C 1400.58 1049.79 1388.26 1048.69 1376.03 1046.95 C 1355.79 1044.03 1334.65 1039.63 1315.84 1031.48 C 1296.58 1023.14 1281.18 1011.24 1273.5 991.141 C 1270.18 982.462 1268.22 973.167 1266.3 964.09 C 1257.96 924.657 1268.06 904.478 1278.14 867.644 C 1283.8 846.99 1289.65 824.194 1298.4 804.654 C 1312.08 774.091 1335.57 740.489 1367.89 728.166 C 1369.41 729.808 1367.04 732.125 1366.17 733.499 C 1358.74 745.171 1345.89 766.077 1347.6 780.35 C 1347.92 783.024 1348.72 785.409 1350.97 787.041 C 1361.96 795.005 1449.64 811.012 1463.99 807.259 C 1473.9 804.671 1485.75 771.746 1491.26 762.304 C 1490.94 769.384 1490.7 776.467 1490.52 783.552 C 1489.77 822.417 1498.07 850.668 1525.39 878.936 C 1523.15 879.648 1520.97 880.372 1518.96 881.625 C 1514.56 884.362 1508.54 892.485 1508.15 897.705 C 1507.95 900.323 1508.92 901.717 1510.48 903.668 L 1512.53 903.881 C 1517.38 901.737 1521.09 897.148 1525.04 893.67 C 1529.61 889.644 1535.22 886.033 1541.58 886.657 C 1545.85 887.076 1550.34 889.6 1552.89 893.046 C 1558.95 901.227 1559.5 913.845 1557.57 923.46 C 1555.7 932.767 1551.11 942.141 1542.72 947.167 C 1533.34 952.784 1524.08 950.375 1514.24 947.89 C 1511.56 956.231 1509.76 964.878 1507.33 973.3 C 1501.9 991.513 1496.29 1009.67 1490.49 1027.77 L 1471.03 1088.57 C 1467.83 1098.69 1464.01 1108.92 1461.61 1119.24 C 1460.35 1124.69 1458.69 1131.55 1461.32 1136.72 C 1465.66 1145.26 1476.11 1148.09 1484.48 1150.98 C 1464.78 1156.73 1454.87 1166.06 1438.62 1177.85 C 1417.01 1192.49 1390.66 1210.01 1363.51 1209.76 C 1352.76 1209.66 1341.91 1206.86 1334.32 1198.85 C 1327.54 1191.7 1324.6 1181.77 1324.95 1172.06 C 1325.48 1157.22 1333.04 1135.81 1343.71 1125.29 C 1348.44 1120.63 1354.78 1117.84 1359.41 1113.14 C 1366.34 1106.13 1366.13 1067.95 1365.98 1056.92 z M 1310.92 801.186 C 1308.46 802.786 1306.56 803.515 1305.22 806.168 C 1310.53 810.503 1319.38 810.837 1325.12 814.973 C 1333.83 821.253 1338.14 831.478 1346.23 838.334 C 1349.03 836.525 1350.96 836.085 1351.64 832.524 C 1352.75 826.725 1347.88 820.039 1344.32 816.037 C 1338.14 809.098 1329.11 801.215 1319.4 800.847 C 1316.58 800.74 1313.73 800.904 1310.92 801.186 z M 1461.6 822.476 C 1449.12 823.519 1409.7 834.457 1401.55 843.253 L 1401.2 845.498 C 1402.71 847.378 1404.55 848.547 1407.02 848.692 C 1408.58 848.784 1409.12 848.681 1410.57 848.537 C 1421.79 844.773 1437.13 837.813 1448.44 836.135 C 1453.71 835.352 1459.41 837.149 1464.61 835.957 C 1467.39 835.319 1469.18 833.662 1470.33 831.061 C 1471.26 828.939 1471.12 827.476 1470.31 825.408 C 1467.38 823.015 1465.42 822.239 1461.6 822.476 z M 1320.41 839.016 C 1314.91 840.317 1311.66 841.899 1308.56 846.785 C 1305.68 851.344 1304.38 857.316 1305.65 862.607 C 1306.58 866.492 1309.51 870.85 1313.12 872.724 C 1314.55 873.468 1316.22 873.58 1317.79 873.755 C 1324.63 870.138 1329.33 865.496 1331.55 857.879 C 1332.7 853.93 1332.62 849.665 1330.57 846.013 C 1328.33 842.022 1324.53 840.464 1320.41 839.016 z M 1369.99 842.529 C 1368.04 843.64 1365.89 844.835 1364.41 846.56 C 1355.94 856.466 1338.43 895.968 1334.84 909.096 C 1334.05 911.964 1333.73 913.66 1335.24 916.389 C 1335.97 917.706 1337.31 919.005 1338.31 920.139 C 1341.04 919.403 1343.76 919.048 1345.68 916.811 C 1346.08 914.14 1346.54 911.481 1346.88 908.801 C 1348.81 893.4 1375.5 857.446 1372.07 844.021 L 1369.99 842.529 z M 1416.66 858.75 C 1409.82 862.242 1405.97 866.221 1403.74 873.716 C 1402.45 878.034 1402.14 883.032 1404.35 887.118 C 1405.83 889.84 1408.46 892.081 1411.48 892.887 C 1413.84 893.518 1416.5 893.241 1418.92 893.099 C 1425.12 889.223 1429.53 884.964 1431.42 877.659 C 1432.43 873.778 1432.38 869.532 1430.27 866.013 C 1427.91 862.089 1423.23 860.036 1418.93 859.065 C 1417.83 858.815 1417.93 858.871 1416.66 858.75 z M 1298.6 908.266 C 1296.58 911.548 1295.29 914.117 1296.38 918.088 C 1299.52 929.597 1310.62 939.345 1320.8 944.628 C 1342.71 956.004 1371.15 956.846 1394.42 949.391 C 1395.05 949.188 1395.68 948.969 1396.31 948.757 C 1398.12 946.907 1399.42 945.869 1399.46 943.041 C 1399.47 942.206 1399.05 941.128 1398.78 940.337 C 1392.11 936.396 1373.1 943.282 1364.5 943.175 C 1354.89 943.055 1344.97 941.03 1335.83 938.167 C 1325.99 935.083 1313.59 930.14 1309.8 919.802 C 1308.84 917.174 1307.98 912.698 1306.3 910.589 C 1304.97 908.906 1300.64 908.555 1298.6 908.266 z"/>
<path transform="translate(0,0)" fill="rgb(254,254,254)" d="M 1547.4 875.472 C 1545.82 875.509 1544.52 875.625 1543.03 874.953 C 1526.87 867.685 1516.61 850.519 1510.65 834.66 C 1500.16 806.701 1500.32 771.849 1512.52 744.606 C 1520.01 749.657 1517.8 766.139 1517.54 774.342 C 1516.61 803.846 1523.48 829.295 1539.16 854.413 C 1543.64 861.582 1549.09 868.17 1553.43 875.346 L 1552.44 876.434 L 1547.4 875.472 z"/>
<path transform="translate(0,0)" fill="rgb(1,1,1)" d="M 1346.23 838.334 C 1338.14 831.478 1333.83 821.253 1325.12 814.973 C 1319.38 810.837 1310.53 810.503 1305.22 806.168 C 1306.56 803.515 1308.46 802.786 1310.92 801.186 C 1313.73 800.904 1316.58 800.74 1319.4 800.847 C 1329.11 801.215 1338.14 809.098 1344.32 816.037 C 1347.88 820.039 1352.75 826.725 1351.64 832.524 C 1350.96 836.085 1349.03 836.525 1346.23 838.334 z"/>
<path transform="translate(0,0)" fill="rgb(1,1,1)" d="M 1410.57 848.537 C 1409.12 848.681 1408.58 848.784 1407.02 848.692 C 1404.55 848.547 1402.71 847.378 1401.2 845.498 L 1401.55 843.253 C 1409.7 834.457 1449.12 823.519 1461.6 822.476 C 1465.42 822.239 1467.38 823.015 1470.31 825.408 C 1471.12 827.476 1471.26 828.939 1470.33 831.061 C 1469.18 833.662 1467.39 835.319 1464.61 835.957 C 1459.41 837.149 1453.71 835.352 1448.44 836.135 C 1437.13 837.813 1421.79 844.773 1410.57 848.537 z"/>
<path transform="translate(0,0)" fill="rgb(1,1,1)" d="M 1317.79 873.755 C 1316.22 873.58 1314.55 873.468 1313.12 872.724 C 1309.51 870.85 1306.58 866.492 1305.65 862.607 C 1304.38 857.316 1305.68 851.344 1308.56 846.785 C 1311.66 841.899 1314.91 840.317 1320.41 839.016 C 1324.53 840.464 1328.33 842.022 1330.57 846.013 C 1332.62 849.665 1332.7 853.93 1331.55 857.879 C 1329.33 865.496 1324.63 870.138 1317.79 873.755 z"/>
<path transform="translate(0,0)" fill="rgb(1,1,1)" d="M 1338.31 920.139 C 1337.31 919.005 1335.97 917.706 1335.24 916.389 C 1333.73 913.66 1334.05 911.964 1334.84 909.096 C 1338.43 895.968 1355.94 856.466 1364.41 846.56 C 1365.89 844.835 1368.04 843.64 1369.99 842.529 L 1372.07 844.021 C 1375.5 857.446 1348.81 893.4 1346.88 908.801 C 1346.54 911.481 1346.08 914.14 1345.68 916.811 C 1343.76 919.048 1341.04 919.403 1338.31 920.139 z"/>
<path transform="translate(0,0)" fill="rgb(1,1,1)" d="M 1418.92 893.099 C 1416.5 893.241 1413.84 893.518 1411.48 892.887 C 1408.46 892.081 1405.83 889.84 1404.35 887.118 C 1402.14 883.032 1402.45 878.034 1403.74 873.716 C 1405.97 866.221 1409.82 862.242 1416.66 858.75 C 1417.93 858.871 1417.83 858.815 1418.93 859.065 C 1423.23 860.036 1427.91 862.089 1430.27 866.013 C 1432.38 869.532 1432.43 873.778 1431.42 877.659 C 1429.53 884.964 1425.12 889.223 1418.92 893.099 z"/>
<path transform="translate(0,0)" fill="rgb(1,1,1)" d="M 1396.31 948.757 C 1395.68 948.969 1395.05 949.188 1394.42 949.391 C 1371.15 956.846 1342.71 956.004 1320.8 944.628 C 1310.62 939.345 1299.52 929.597 1296.38 918.088 C 1295.29 914.117 1296.58 911.548 1298.6 908.266 C 1300.64 908.555 1304.97 908.906 1306.3 910.589 C 1307.98 912.698 1308.84 917.174 1309.8 919.802 C 1313.59 930.14 1325.99 935.083 1335.83 938.167 C 1344.97 941.03 1354.89 943.055 1364.5 943.175 C 1373.1 943.282 1392.11 936.396 1398.78 940.337 C 1399.05 941.128 1399.47 942.206 1399.46 943.041 C 1399.42 945.869 1398.12 946.907 1396.31 948.757 z"/>
<path transform="translate(0,0)" fill="rgb(254,254,254)" d="M 816.375 1017.18 C 825.458 1006.88 834.105 994.484 841.209 982.725 C 843.455 992.054 842.088 1004.94 843.412 1015.08 C 846.105 1035.74 850.373 1056.82 851.534 1077.6 C 853.341 1109.95 846.247 1148.79 832.759 1178.4 L 831.47 1178.74 L 829.721 1170.04 C 823.927 1138.81 822.066 1107.4 819.666 1075.81 C 819.335 1071.46 817.493 1067.31 817.229 1063.08 C 816.273 1047.76 818.339 1032.58 816.375 1017.18 z"/>
<path transform="translate(0,0)" fill="rgb(254,254,254)" d="M 1243.22 1096.24 L 1241.93 1095.93 C 1240.96 1094.66 1240.44 1093.64 1239.94 1092.09 C 1234.41 1075.02 1256.12 1028.15 1264.65 1013.47 C 1265.4 1014.05 1266.97 1015.07 1267.54 1015.91 C 1271.9 1022.39 1254.55 1059.94 1251.66 1068.2 C 1248.44 1077.42 1245.81 1086.82 1243.22 1096.24 z"/>
<path transform="translate(0,0)" fill="rgb(254,254,254)" d="M 1516.49 1124.55 C 1515.2 1124.67 1515.67 1124.75 1514.45 1124.4 C 1512.12 1123.75 1511.77 1124.1 1510.55 1121.86 C 1512.91 1106.51 1519.43 1091.53 1524.59 1076.91 C 1529.93 1061.34 1535.36 1045.81 1540.86 1030.29 C 1541.15 1030.37 1541.45 1030.44 1541.73 1030.53 C 1544.74 1031.53 1546.62 1032.65 1548.12 1035.47 C 1549.16 1043.67 1521.51 1113.1 1516.49 1124.55 z"/>
<path transform="translate(0,0)" fill="rgb(254,254,254)" d="M 833.22 1446.55 C 833.046 1446.62 832.884 1446.73 832.698 1446.76 C 830.025 1447.2 829.363 1447.05 827.126 1445.76 C 825.669 1442.95 825.695 1440.58 825.733 1437.43 C 825.838 1428.65 827.389 1419.76 827.908 1410.97 C 829.179 1389.48 828.95 1366.61 826.232 1345.24 C 823.892 1326.85 819.826 1308.6 816.442 1290.37 L 803.33 1215.68 C 796.971 1178.51 792.797 1140.29 789.766 1102.72 C 788.095 1082 785.81 1059.99 786.946 1039.21 C 787.176 1034.99 788.334 1034.15 791.321 1031.47 C 792.929 1032.96 792.645 1032.39 793.486 1034.23 C 797.871 1043.82 803.999 1116.49 806.438 1132.75 C 811.993 1169.7 818.125 1206.56 824.832 1243.32 C 831.519 1278.83 839.746 1313.53 841.984 1349.78 C 843.518 1374.62 843.361 1424.18 833.22 1446.55 z"/>
<path transform="translate(0,0)" fill="rgb(254,254,254)" d="M 1557.05 1127.53 L 1551.99 1125.71 C 1550.57 1123.58 1550.75 1123.1 1551.18 1120.48 C 1552.84 1110.48 1567.95 1052.27 1571.46 1045.37 C 1572.56 1043.19 1575.68 1041.35 1577.63 1039.93 C 1579.57 1041.49 1581.36 1042.57 1581.92 1045.14 C 1579.99 1057.84 1564.01 1120.64 1557.05 1127.53 z"/>
<path transform="translate(0,0)" fill="rgb(254,254,254)" d="M 1272.39 1108.79 C 1271.04 1108.01 1269.27 1106.99 1268.33 1105.69 C 1260.3 1094.57 1274.59 1059.09 1276.35 1045.58 L 1276.56 1043.93 C 1278.56 1044.08 1280.18 1044.36 1282.09 1044.99 C 1282.29 1045.53 1282.59 1046.05 1282.68 1046.62 C 1283.61 1052.37 1275.36 1103 1272.39 1108.79 z"/>
<path transform="translate(0,0)" fill="rgb(254,254,254)" d="M 1097.16 1483.71 C 1101.7 1479.62 1103.44 1475.2 1105.45 1469.6 C 1112.63 1449.66 1116.99 1428.56 1122.91 1408.2 C 1135.03 1366.55 1147.83 1325.16 1163.41 1284.65 C 1168.93 1270.31 1175.74 1256.84 1182.68 1243.15 C 1200.14 1208.66 1216.97 1180.81 1247.77 1156.27 C 1256.61 1149.22 1266.75 1143.66 1276.21 1137.48 C 1285.75 1131.25 1294.07 1122.91 1304.55 1118.24 C 1312.13 1118.51 1319.63 1119.3 1327.16 1120.08 C 1321.36 1128.44 1315.24 1136 1310.21 1144.94 C 1295.43 1171.19 1284.72 1199.54 1273.5 1227.39 C 1259.12 1263.12 1244.81 1298.84 1232.8 1335.45 C 1223.79 1362.91 1216.63 1390.51 1209.3 1418.44 C 1201.22 1449.22 1193.21 1480.01 1189.82 1511.75 C 1171.68 1508 1153.66 1501.41 1135.74 1496.49 C 1122.73 1492.48 1109.34 1490.06 1097.16 1483.71 z"/>
<path transform="translate(0,0)" fill="rgb(254,254,254)" d="M 1352.01 1559.1 C 1358.79 1544.65 1362.3 1528.18 1367.55 1513.06 C 1390.87 1445.88 1411.6 1377.92 1432.93 1310.11 C 1445.09 1271.45 1456.99 1225.76 1475.06 1189.57 C 1481.11 1177.47 1489.77 1166.74 1498.74 1156.71 C 1533.28 1167.68 1567.52 1170.7 1603.49 1172.96 C 1614.32 1185.57 1620.52 1202.47 1627.04 1217.6 C 1635.28 1236.74 1643.49 1256.22 1649.83 1276.09 C 1656.79 1297.94 1660.95 1320.5 1665.16 1342.98 C 1667.43 1355.07 1670.25 1367.08 1672.06 1379.25 C 1674.22 1393.84 1675.13 1408.61 1677.29 1423.21 C 1679.43 1437.67 1685.19 1454.1 1684.86 1468.53 C 1684.59 1480.23 1682.24 1492.18 1680.6 1503.75 C 1677.42 1527.09 1673.89 1550.39 1670.02 1573.63 C 1665.05 1605.19 1662.16 1638.28 1659.95 1670.17 C 1628.78 1655.4 1596.86 1642.63 1564.7 1630.18 C 1547.09 1623.36 1527.1 1614.36 1508.47 1611.57 C 1516.09 1599.26 1522.4 1586.21 1529.45 1573.57 C 1550.47 1535.88 1570.54 1498.12 1590.01 1459.6 C 1598.76 1444.13 1612.38 1415.16 1614.65 1397.44 C 1614.98 1394.84 1613.88 1393.28 1612.41 1391.3 C 1610.46 1390.79 1610.82 1390.48 1609.25 1391.25 C 1605.65 1393.01 1603.37 1397.05 1601.49 1400.42 C 1591.07 1419.11 1582.99 1441.5 1572.83 1461.06 C 1562.2 1481.54 1551.89 1502.19 1540.9 1522.48 C 1526.13 1549.78 1509.38 1577.88 1499.17 1607.25 C 1449.86 1592.82 1400.12 1577.03 1352.01 1559.1 z"/>
<path transform="translate(0,0)" fill="rgb(254,254,254)" d="M 1199.23 1514.59 C 1205.8 1487.34 1211.72 1459.87 1219.04 1432.81 C 1232.42 1384 1247.91 1335.79 1265.47 1288.32 C 1274.78 1262.54 1284.22 1236.68 1294.57 1211.3 C 1300.21 1197.46 1309.12 1183.13 1312.14 1168.57 C 1312.95 1170.54 1312.85 1169.83 1313.02 1171.68 C 1314.19 1183.75 1315.96 1197.48 1324.47 1206.76 C 1333.47 1216.57 1345.75 1221.88 1359 1222.4 C 1400.18 1224.03 1440.74 1193.95 1469.71 1167.55 C 1463.75 1180.62 1455.8 1192.53 1450.18 1205.91 C 1424.5 1266.97 1403.44 1340.35 1384.75 1404.31 C 1374.88 1438.06 1367.28 1472.4 1356 1505.76 C 1351.34 1521.15 1344.27 1541.25 1345.02 1557.29 C 1308.24 1546.97 1271.8 1535.06 1235.15 1524.24 C 1223.26 1520.73 1211.16 1518 1199.23 1514.59 z"/>
<path transform="translate(0,0)" fill="rgb(254,254,254)" d="M 753.36 1454.61 C 752.759 1455.2 751.835 1456.17 751.138 1456.6 C 749.05 1457.9 748.062 1457.61 745.848 1457.14 C 744.345 1455.56 743.685 1454.19 743.366 1452.01 C 742.281 1444.61 743.039 1436.21 742.974 1428.68 C 742.86 1416.27 742.465 1403.86 741.79 1391.47 C 740.192 1358.78 737.614 1326.26 736.382 1293.53 C 736.004 1283.48 734.203 1271.13 735.355 1261.28 C 735.658 1258.69 736.574 1257.47 738.012 1255.37 C 738.967 1255.77 739.734 1256.03 740.593 1256.67 C 743.636 1258.94 744.504 1263.15 745.273 1266.64 C 750.575 1290.68 764.895 1436.77 753.36 1454.61 z"/>
<path transform="translate(0,0)" fill="rgb(254,254,254)" d="M 319.55 1504.48 C 316.504 1501.87 314.105 1499.96 313.183 1495.9 C 308.182 1473.9 311.782 1341.07 321.89 1324.33 C 324.445 1324.96 325.476 1325.46 327.313 1327.35 C 332.421 1340.48 325.154 1421.75 324.959 1443.5 C 324.798 1461.5 328.448 1480.87 326.466 1498.53 C 324.814 1501.65 322.479 1502.77 319.55 1504.48 z"/>
<path transform="translate(0,0)" fill="rgb(254,254,254)" d="M 391.425 1512.73 C 391.118 1513.1 390.87 1513.52 390.503 1513.83 C 388.776 1515.28 387.073 1515.55 384.937 1515.31 C 382.228 1513.6 380.948 1511.82 379.902 1508.83 C 373.522 1490.6 375.738 1358.14 383.884 1340.36 C 385.38 1340.76 386.528 1341.33 387.907 1342.02 C 393.923 1349.81 391.964 1491.44 391.425 1512.73 z"/>
<path transform="translate(0,0)" fill="rgb(1,1,1)" d="M 891.459 1764.2 C 890.298 1764.02 889.035 1763.88 887.914 1763.5 C 877.586 1759.98 850.279 1732.18 846.636 1722.26 C 845.533 1719.25 846.351 1718.23 847.478 1715.43 C 848.68 1715.53 849.815 1715.61 850.974 1715.97 C 861.34 1719.2 886.838 1744.71 891.749 1755.43 C 893.358 1758.95 892.802 1760.68 891.459 1764.2 z"/>
</svg>