<svg version="1.1" xmlns="http://www.w3.org/2000/svg" style="display: block;" viewBox="0 0 2048 2048" width="1024" height="1024">
<path transform="translate(0,0)" fill="rgb(254,254,254)" d="M 0 0 L 2048 0 L 2048 2048 L 0 2048 L 0 0 z M 1065.42 232.493 C 1043.79 232.795 864.413 232.501 857.787 239.526 C 852.016 245.646 849.426 259.653 847.661 267.641 C 840.965 297.951 837.626 329.153 832.84 359.813 C 827.722 393.062 822.972 426.366 818.589 459.719 C 815.109 484.503 811.052 509.429 808.497 534.324 C 794.673 524.916 780.879 515.001 765.971 507.36 C 727.664 487.725 679.804 480.725 637.135 482.529 C 621.974 483.17 606.995 486.37 591.849 486.912 C 560.111 488.048 529.834 486.314 498.281 492.286 C 409.027 509.123 330.309 561.184 279.882 636.728 C 253.431 675.802 236.039 722.892 227.183 769.154 C 220.826 801.802 216.827 834.866 215.219 868.088 C 211.81 952.625 220.719 1037.21 206.66 1121.18 C 201.395 1151.72 194.329 1181.92 185.498 1211.62 C 166.738 1274.24 143.041 1330.11 155.948 1397.53 C 160.311 1420.32 169.738 1441.4 178.804 1462.6 C 113.576 1554.01 72.2785 1675.89 91.2259 1788.68 C 92.4727 1796.1 93.7701 1808.78 99.9677 1813.69 C 102.457 1813.98 103.416 1813.92 105.435 1812.05 C 107.762 1809.89 107.678 1806.78 107.273 1803.88 C 105.272 1789.58 102.617 1775.67 101.563 1761.19 C 96.5334 1692.11 111.96 1625.46 139.246 1562.3 C 152.098 1532.56 166.84 1503.21 185.26 1476.47 C 214.023 1531.55 251.645 1585.86 313.874 1605.28 C 338.192 1612.87 360.841 1613.27 385.94 1611.25 C 416.157 1641.82 448.865 1669.02 494.002 1669.08 C 507.257 1669.1 520.377 1666.87 533.329 1664.24 C 596.159 1651.45 648.964 1615.87 693.551 1570.98 C 703.691 1560.77 712.224 1549.08 722.379 1538.99 C 715.526 1566.45 704.378 1593.86 692.292 1619.44 C 686.655 1631.36 679.762 1642.94 675.085 1655.27 C 674.306 1657.32 674.91 1657.91 675.506 1659.95 C 677.685 1662.03 679.292 1663.13 682.426 1663.05 C 689.952 1662.86 699.215 1659.35 706.529 1657.41 C 763.257 1642.38 815.78 1606.31 855.537 1563.84 C 895.189 1515.99 914.465 1472.35 925.487 1410.94 C 1030.54 1491.27 1066.29 1557.1 1113.96 1677.62 C 1121.1 1695.65 1156.36 1793.69 1163.98 1800.08 C 1166.29 1802.02 1167.49 1801.61 1170.33 1801.47 C 1172.56 1799.95 1173.28 1799.65 1173.96 1796.87 C 1174.63 1794.06 1173.38 1789.98 1172.53 1787.34 C 1169.68 1778.48 1165.11 1769.96 1161.42 1761.4 C 1156.51 1749.97 1152.1 1738.28 1147.54 1726.71 C 1129.42 1680.78 1113.13 1636.28 1092.83 1591 C 1180.85 1608.66 1269.25 1624.41 1357.96 1638.24 C 1447.17 1653.12 1536.73 1665.87 1626.56 1676.46 C 1652.58 1679.38 1678.66 1681.77 1704.77 1683.62 C 1718.07 1684.64 1732.79 1686.9 1746.08 1685.4 C 1758.23 1684.03 1770.29 1676.18 1780.26 1669.6 C 1786.9 1665.22 1796.67 1659.7 1798.63 1651.39 C 1802.98 1632.97 1804.47 1603.38 1806.74 1583.16 C 1812.1 1535.18 1817.44 1487.09 1823.53 1439.2 L 1888.07 955.686 C 1913.24 755.854 1934.84 555.588 1952.84 354.983 C 1954.16 339.173 1955.73 323.385 1957.54 307.625 C 1958.37 300.181 1960.07 292.213 1960.18 284.769 C 1960.21 282.199 1959.85 279.437 1958.53 277.184 C 1954.84 270.872 1937.96 269.498 1931.02 268.363 C 1885.62 260.929 1834.63 257.86 1788.59 254.997 C 1692.59 249.972 1596.51 246.43 1500.4 244.374 L 1375.42 240.516 C 1323.72 238.419 1272.05 235.119 1220.34 233.454 C 1168.71 231.873 1117.06 231.552 1065.42 232.493 z M 875.894 1668.75 C 864.524 1687.33 873.033 1769.38 878.309 1791.88 C 878.928 1794.52 879.804 1798.89 882.382 1800.35 C 884.387 1801.49 886.375 1801.54 888.612 1801.73 C 891.097 1798.32 891.877 1796.36 891.889 1792.13 C 891.907 1785.56 890.371 1778.92 889.606 1772.4 C 887.882 1757.73 886.072 1742.94 885.337 1728.18 C 884.952 1720.45 884.661 1712.78 885.019 1705.05 C 885.462 1695.46 887.4 1684.38 885.957 1674.96 C 885.667 1673.06 884.929 1671.03 883.167 1670.06 C 880.909 1668.82 878.404 1668.89 875.894 1668.75 z M 209.375 1699.38 C 206.375 1703.75 206.409 1705.89 207.34 1711 C 209.34 1722 212.258 1732.8 214.109 1743.83 C 216.427 1757.64 217.283 1771.44 218.158 1785.4 C 218.514 1791.08 217.855 1801.73 221.946 1805.84 C 224.691 1806.64 226.793 1806.88 229.655 1806.92 C 236.756 1793.7 225.597 1728.62 220.989 1713.66 C 219.459 1708.69 217.894 1703.31 213.552 1700.13 L 209.375 1699.38 z"/>
<path transform="translate(0,0)" fill="rgb(0,0,0)" d="M 808.497 534.324 C 811.052 509.429 815.109 484.503 818.589 459.719 C 822.972 426.366 827.722 393.062 832.84 359.813 C 837.626 329.153 840.965 297.951 847.661 267.641 C 849.426 259.653 852.016 245.646 857.787 239.526 C 864.413 232.501 1043.79 232.795 1065.42 232.493 C 1117.06 231.552 1168.71 231.873 1220.34 233.454 C 1272.05 235.119 1323.72 238.419 1375.42 240.516 L 1500.4 244.374 C 1596.51 246.43 1692.59 249.972 1788.59 254.997 C 1834.63 257.86 1885.62 260.929 1931.02 268.363 C 1937.96 269.498 1954.84 270.872 1958.53 277.184 C 1959.85 279.437 1960.21 282.199 1960.18 284.769 C 1960.07 292.213 1958.37 300.181 1957.54 307.625 C 1955.73 323.385 1954.16 339.173 1952.84 354.983 C 1934.84 555.588 1913.24 755.854 1888.07 955.686 L 1823.53 1439.2 C 1817.44 1487.09 1812.1 1535.18 1806.74 1583.16 C 1804.47 1603.38 1802.98 1632.97 1798.63 1651.39 C 1796.67 1659.7 1786.9 1665.22 1780.26 1669.6 C 1770.29 1676.18 1758.23 1684.03 1746.08 1685.4 C 1732.79 1686.9 1718.07 1684.64 1704.77 1683.62 C 1678.66 1681.77 1652.58 1679.38 1626.56 1676.46 C 1536.73 1665.87 1447.17 1653.12 1357.96 1638.24 C 1269.25 1624.41 1180.85 1608.66 1092.83 1591 C 1113.13 1636.28 1129.42 1680.78 1147.54 1726.71 C 1152.1 1738.28 1156.51 1749.97 1161.42 1761.4 C 1165.11 1769.96 1169.68 1778.48 1172.53 1787.34 C 1173.38 1789.98 1174.63 1794.06 1173.96 1796.87 C 1173.28 1799.65 1172.56 1799.95 1170.33 1801.47 C 1167.49 1801.61 1166.29 1802.02 1163.98 1800.08 C 1156.36 1793.69 1121.1 1695.65 1113.96 1677.62 C 1066.29 1557.1 1030.54 1491.27 925.487 1410.94 C 914.465 1472.35 895.189 1515.99 855.537 1563.84 C 815.78 1606.31 763.257 1642.38 706.529 1657.41 C 699.215 1659.35 689.952 1662.86 682.426 1663.05 C 679.292 1663.13 677.685 1662.03 675.506 1659.95 C 674.91 1657.91 674.306 1657.32 675.085 1655.27 C 679.762 1642.94 686.655 1631.36 692.292 1619.44 C 704.378 1593.86 715.526 1566.45 722.379 1538.99 C 712.224 1549.08 703.691 1560.77 693.551 1570.98 C 648.964 1615.87 596.159 1651.45 533.329 1664.24 C 520.377 1666.87 507.257 1669.1 494.002 1669.08 C 448.865 1669.02 416.157 1641.82 385.94 1611.25 C 360.841 1613.27 338.192 1612.87 313.874 1605.28 C 251.645 1585.86 214.023 1531.55 185.26 1476.47 C 166.84 1503.21 152.098 1532.56 139.246 1562.3 C 111.96 1625.46 96.5334 1692.11 101.563 1761.19 C 102.617 1775.67 105.272 1789.58 107.273 1803.88 C 107.678 1806.78 107.762 1809.89 105.435 1812.05 C 103.416 1813.92 102.457 1813.98 99.9677 1813.69 C 93.7701 1808.78 92.4727 1796.1 91.2259 1788.68 C 72.2785 1675.89 113.576 1554.01 178.804 1462.6 C 169.738 1441.4 160.311 1420.32 155.948 1397.53 C 143.041 1330.11 166.738 1274.24 185.498 1211.62 C 194.329 1181.92 201.395 1151.72 206.66 1121.18 C 220.719 1037.21 211.81 952.625 215.219 868.088 C 216.827 834.866 220.826 801.802 227.183 769.154 C 236.039 722.892 253.431 675.802 279.882 636.728 C 330.309 561.184 409.027 509.123 498.281 492.286 C 529.834 486.314 560.111 488.048 591.849 486.912 C 606.995 486.37 621.974 483.17 637.135 482.529 C 679.804 480.725 727.664 487.725 765.971 507.36 C 780.879 515.001 794.673 524.916 808.497 534.324 z M 914.153 1203.59 C 911.14 1145.48 908.73 1086.67 911.463 1028.52 C 916.164 928.492 931.769 806.437 907.088 709.661 C 893.16 655.047 861.804 600.831 819.887 563.194 C 804.381 549.271 787.289 535.503 769.124 525.276 C 729.282 502.844 679.502 494.29 634.274 496.873 C 621.678 497.592 609.264 500.122 596.709 500.874 C 573.719 502.25 550.984 500.435 527.919 502.808 C 449.317 510.896 372.673 547.694 320.134 607.08 C 279.58 652.92 254.376 708.483 242.541 768.268 C 240.182 780.182 237.264 792.238 237.277 804.42 C 242.503 786.28 245.961 768.12 252.165 750.171 C 283.514 659.481 338.055 595.276 421.758 548.916 C 459.975 527.749 509.586 512.593 553.43 512.258 C 568.298 512.145 583.074 515.844 597.879 515.357 C 612.134 514.888 626.229 512.438 640.445 511.452 C 669.499 509.435 698.622 513.913 726.513 521.958 C 785.214 538.889 839.781 577.793 869.433 631.86 C 886.267 662.556 895.475 695.65 901.428 729.911 C 921.542 845.676 899.495 945.498 899.134 1058.94 C 899.089 1073.24 902.757 1086.84 903.886 1101 C 906.859 1138.28 908.739 1175.59 912.295 1212.85 C 912.906 1226.19 914.551 1239.51 915.62 1252.83 C 917.709 1243.48 915.357 1214.02 914.153 1203.59 z M 1119.13 245.497 L 965.998 246.812 C 932.886 247.235 898.273 246.181 865.56 251.406 C 849.405 321.86 841.892 393.754 831.974 465.24 C 828.421 490.845 825.891 517.718 820.461 542.954 C 854.959 575.923 878.453 603.1 899.217 646.921 C 905.074 659.283 910.655 671.774 914.513 684.927 C 922.625 606.399 933.209 527.574 944.884 449.491 C 948.21 426.238 951.859 403.032 955.831 379.88 C 957.62 369.69 958.978 358.964 961.841 349.034 C 962.711 346.016 963.53 343.163 966.005 341.082 C 1001.49 328.724 1777.06 350.414 1791.54 358.726 C 1793.69 359.957 1794.42 361.98 1794.89 364.301 C 1796.14 370.426 1788.43 437.179 1787.35 448.569 C 1777.02 564.252 1765.6 679.835 1753.09 795.303 C 1730.62 985.524 1706.73 1175.58 1681.43 1365.44 L 1663.32 1506.3 C 1660.98 1523.91 1658.16 1563.55 1651.45 1578.03 C 1647 1579.85 1639.9 1578.92 1635.15 1578.46 C 1605.44 1575.62 1575.47 1569.53 1545.94 1565.02 C 1493.1 1557.28 1440.36 1548.8 1387.76 1539.59 C 1308.37 1526.41 1229.09 1512.63 1149.91 1498.24 L 1062.89 1482.47 C 1047.22 1479.62 1031.34 1475.86 1015.53 1474.09 C 1045.85 1509.27 1064.05 1536.23 1086.52 1576.54 C 1128.56 1583.85 1170.3 1592.71 1212.29 1600.23 C 1273.33 1610.87 1334.46 1620.98 1395.67 1630.56 C 1492.25 1645.93 1588.98 1660.22 1686.51 1668.16 C 1700.83 1669.33 1732.7 1674.51 1745.67 1671.16 C 1748.66 1668.32 1748.9 1664.96 1749.42 1660.94 C 1757.7 1596.37 1763.28 1531.62 1769.94 1466.89 C 1772.82 1438.88 1776.69 1411 1779.75 1383.01 C 1782.26 1359.99 1784.13 1336.86 1787.02 1313.88 C 1824.14 1038.19 1857.13 761.956 1885.97 485.276 L 1902.3 340.009 C 1904.75 319.605 1908.52 299.141 1910.46 278.72 C 1823.12 268.136 1735.33 264.72 1647.46 261.941 L 1466.29 256.355 C 1350.58 253.076 1234.89 246.287 1119.13 245.497 z M 1923.31 280.811 C 1908.63 400.138 1895.21 519.616 1883.04 639.225 L 1852.63 902.48 C 1836.56 1042.34 1816.06 1181.66 1799.89 1321.51 C 1791.29 1395.82 1784.17 1470.37 1776.45 1544.78 C 1772.35 1584.4 1768.73 1623.91 1763.15 1663.38 L 1776.61 1655.11 C 1780.14 1652.78 1783.77 1650.52 1787.22 1648.08 C 1787.33 1624.93 1791.51 1601.35 1794.19 1578.36 L 1805.61 1478.06 C 1819.96 1357.22 1835.72 1236.56 1852.89 1116.09 C 1882.79 900.884 1907.86 685.036 1928.08 468.708 L 1938.2 363.998 C 1941 337.429 1944.51 310.831 1946.62 284.206 C 1938.87 282.757 1931.15 281.694 1923.31 280.811 z M 1001.6 350.471 L 974.598 351.082 C 970.083 380.794 964.631 410.351 960.233 440.082 C 952.048 497.191 944.367 554.371 937.194 611.616 C 934.608 631.839 931.87 652.042 928.982 672.224 C 927.118 685.24 924.403 698.723 924.041 711.868 C 923.718 723.593 928.325 736.251 929.905 747.984 C 933.308 773.722 935.39 799.617 936.142 825.568 C 938.014 907.969 926.226 989.693 925.914 1072.02 C 926.084 1118.02 927.5 1164.01 930.158 1209.93 C 931.955 1243.06 934.617 1276.39 934.161 1309.58 C 933.762 1338.63 930.575 1367.32 927.176 1396.13 C 954.191 1411.22 977.687 1434.62 999.388 1456.47 C 1036.49 1465.2 1074.85 1471.02 1112.37 1477.84 L 1314.66 1513.8 C 1384.74 1526.09 1454.96 1537.51 1525.31 1548.06 C 1552.19 1552.4 1579.11 1556.4 1606.09 1560.08 C 1617.64 1561.77 1629.32 1564.3 1640.92 1565.4 C 1643.41 1551.31 1645.26 1537.11 1647.23 1522.93 C 1652.82 1474.92 1660.11 1426.98 1666.34 1379.03 L 1717.06 987.079 C 1731.39 869.568 1744.25 751.882 1755.64 634.05 L 1772.07 463.78 C 1775.09 433.565 1780.38 399.447 1781.26 369.659 C 1605.5 361.038 1429.6 355.411 1253.64 352.782 C 1196.75 351.481 1139.85 350.813 1082.95 350.778 C 1055.87 350.612 1028.67 349.947 1001.6 350.471 z M 304.104 813.171 C 296.266 832.093 294.701 865.743 302.552 884.924 C 302.94 885.872 303.409 886.784 303.866 887.701 C 308.862 882.934 309.07 854.91 309.261 846.374 C 309.483 836.414 310.383 824.733 307.224 815.235 C 306.15 814.362 305.383 813.731 304.104 813.171 z M 339.392 836.635 C 335.774 848.955 331.429 894.295 337.836 905.097 C 338.863 906.828 339.741 906.894 341.482 907.748 C 348.086 891.645 348.356 856.144 341.789 840.054 C 341.214 838.644 340.48 837.681 339.392 836.635 z M 867.201 841.523 C 859.155 854.059 855.932 887.469 859.096 901.88 C 859.55 903.947 860.161 905.851 861.002 907.788 C 864.236 905.754 865.416 904.335 866.314 900.564 C 868.712 890.496 871.815 849.642 867.201 841.523 z M 818.291 852.742 C 811.482 859.993 809.603 873.059 809.861 882.684 C 810.004 888 810.712 892.25 813.571 896.762 C 816.076 895.444 817.424 895.179 818.472 892.38 C 821.868 883.312 822.943 861.337 818.453 853.011 C 818.403 852.919 818.345 852.832 818.291 852.742 z M 829.334 924.195 C 822.032 936.874 822.277 961.782 825.707 975.754 L 828.282 978.73 C 834.252 969.799 834.724 939.229 832.838 928.412 C 832.603 927.065 832.413 926.733 831.953 925.614 L 829.334 924.195 z M 849.67 1017.43 C 843.827 1030.65 841.919 1053.79 846.98 1067.63 C 847.72 1069.65 848.964 1071.05 850.39 1072.62 C 855.896 1063.08 855.284 1032.73 852.875 1021.92 C 852.326 1019.46 851.763 1018.75 849.67 1017.43 z M 270.361 1174.4 C 265.059 1187.07 266.47 1213.44 272.082 1225.98 C 272.921 1227.86 274.285 1229.07 275.723 1230.48 C 280.22 1217.38 278.708 1188.59 272.679 1176.1 L 270.361 1174.4 z M 210.353 1254.71 C 183.576 1295.32 176.106 1358.43 185.706 1405.43 C 190.977 1431.22 201.163 1456.84 220.773 1475.14 C 223.164 1476.31 223.352 1476.87 226.085 1476.41 C 226.127 1471.23 217.463 1460.54 214.846 1455.43 C 210.845 1447.48 207.398 1439.26 204.529 1430.83 C 195.85 1405.72 192.325 1380.01 192.848 1353.49 C 193.373 1333.56 196.349 1313.78 201.709 1294.58 C 204.631 1283.85 208.364 1272.97 210.665 1262.12 C 211.194 1259.63 212 1256.92 210.353 1254.71 z M 323.224 1261.6 C 318.594 1272.59 320.85 1295.99 325.457 1307.04 C 326.16 1308.73 326.748 1310.02 328.53 1310.74 C 328.784 1310.84 329.07 1310.82 329.341 1310.87 C 333.256 1298.47 332.391 1275.85 325.892 1264.13 C 325.217 1262.91 324.411 1262.27 323.224 1261.6 z M 893.408 1328.69 L 893.151 1329.84 C 890.607 1341.6 889.351 1353.66 887.318 1365.52 C 883.735 1386.42 879.195 1407.67 872.994 1427.96 C 869.414 1439.67 848.965 1491.96 848.867 1499 C 850.331 1499.92 849.62 1499.8 850.892 1499.77 C 879.813 1460.62 901.904 1382.59 894.923 1333.73 C 894.643 1331.77 894.314 1330.47 893.408 1328.69 z M 275.892 1333.53 C 272.439 1345.41 273.252 1359.72 273.608 1372.09 C 275.259 1429.48 288.254 1497.99 316.253 1548.59 C 322.601 1560.06 330.157 1571.78 339.227 1581.31 C 339.438 1580.39 340.011 1579.48 339.859 1578.54 C 339.103 1573.88 328.732 1555.28 326.098 1549.47 C 322.087 1540.45 318.367 1531.31 314.944 1522.05 C 298.724 1478.52 289.942 1431.56 283.154 1385.7 C 281.536 1374.77 280.331 1342.35 277.434 1334.9 L 275.892 1333.53 z M 843.441 1389.44 C 838.796 1397.95 827.703 1435.72 829.864 1444.55 C 830.557 1447.37 831.073 1447.48 833.465 1448.77 C 839.237 1436.12 850.479 1404.86 846.201 1391.84 C 845.314 1391 844.484 1390.08 843.441 1389.44 z M 703.417 1426.57 C 690.675 1454.64 677.944 1482.31 663.445 1509.53 C 661.496 1513.19 649.613 1534.17 649.628 1536.02 C 649.634 1536.68 649.834 1537.33 650.064 1537.94 C 650.169 1538.22 650.431 1538.42 650.614 1538.65 C 679.911 1514.33 700.513 1469.88 704.834 1432.46 C 705.021 1430.83 704.951 1429.44 704.656 1427.84 L 703.417 1426.57 z M 569.117 1478.56 C 565.409 1488.49 563.433 1499.36 560.934 1509.66 C 555.224 1533.2 549.378 1556.78 539.088 1578.83 C 535.157 1587.25 531.088 1595.85 526.452 1603.9 C 524.353 1607.55 515.238 1618.03 515.501 1621.32 L 515.941 1621.58 C 547.863 1598.99 562.085 1556.42 568.4 1519.5 C 569.7 1511.89 574.033 1484.5 569.593 1478.97 C 569.462 1478.81 569.276 1478.7 569.117 1478.56 z M 431.712 1506.46 C 423.743 1532.85 434.642 1579.16 447.635 1603.23 C 454.994 1616.86 464.361 1630.48 477.529 1639.05 C 478.46 1630.13 464.647 1615.29 460.608 1606.68 C 451.771 1587.84 444.249 1567.55 439.685 1547.23 C 437.57 1537.81 435.165 1513.35 431.712 1506.46 z"/>
<path transform="translate(0,0)" fill="rgb(254,254,254)" d="M 865.56 251.406 C 898.273 246.181 932.886 247.235 965.998 246.812 L 1119.13 245.497 C 1234.89 246.287 1350.58 253.076 1466.29 256.355 L 1647.46 261.941 C 1735.33 264.72 1823.12 268.136 1910.46 278.72 C 1908.52 299.141 1904.75 319.605 1902.3 340.009 L 1885.97 485.276 C 1857.13 761.956 1824.14 1038.19 1787.02 1313.88 C 1784.13 1336.86 1782.26 1359.99 1779.75 1383.01 C 1776.69 1411 1772.82 1438.88 1769.94 1466.89 C 1763.28 1531.62 1757.7 1596.37 1749.42 1660.94 C 1748.9 1664.96 1748.66 1668.32 1745.67 1671.16 C 1732.7 1674.51 1700.83 1669.33 1686.51 1668.16 C 1588.98 1660.22 1492.25 1645.93 1395.67 1630.56 C 1334.46 1620.98 1273.33 1610.87 1212.29 1600.23 C 1170.3 1592.71 1128.56 1583.85 1086.52 1576.54 C 1064.05 1536.23 1045.85 1509.27 1015.53 1474.09 C 1031.34 1475.86 1047.22 1479.62 1062.89 1482.47 L 1149.91 1498.24 C 1229.09 1512.63 1308.37 1526.41 1387.76 1539.59 C 1440.36 1548.8 1493.1 1557.28 1545.94 1565.02 C 1575.47 1569.53 1605.44 1575.62 1635.15 1578.46 C 1639.9 1578.92 1647 1579.85 1651.45 1578.03 C 1658.16 1563.55 1660.98 1523.91 1663.32 1506.3 L 1681.43 1365.44 C 1706.73 1175.58 1730.62 985.524 1753.09 795.303 C 1765.6 679.835 1777.02 564.252 1787.35 448.569 C 1788.43 437.179 1796.14 370.426 1794.89 364.301 C 1794.42 361.98 1793.69 359.957 1791.54 358.726 C 1777.06 350.414 1001.49 328.724 966.005 341.082 C 963.53 343.163 962.711 346.016 961.841 349.034 C 958.978 358.964 957.62 369.69 955.831 379.88 C 951.859 403.032 948.21 426.238 944.884 449.491 C 933.209 527.574 922.625 606.399 914.513 684.927 C 910.655 671.774 905.074 659.283 899.217 646.921 C 878.453 603.1 854.959 575.923 820.461 542.954 C 825.891 517.718 828.421 490.845 831.974 465.24 C 841.892 393.754 849.405 321.86 865.56 251.406 z"/>
<path transform="translate(0,0)" fill="rgb(254,254,254)" d="M 1763.15 1663.38 C 1768.73 1623.91 1772.35 1584.4 1776.45 1544.78 C 1784.17 1470.37 1791.29 1395.82 1799.89 1321.51 C 1816.06 1181.66 1836.56 1042.34 1852.63 902.48 L 1883.04 639.225 C 1895.21 519.616 1908.63 400.138 1923.31 280.811 C 1931.15 281.694 1938.87 282.757 1946.62 284.206 C 1944.51 310.831 1941 337.429 1938.2 363.998 L 1928.08 468.708 C 1907.86 685.036 1882.79 900.884 1852.89 1116.09 C 1835.72 1236.56 1819.96 1357.22 1805.61 1478.06 L 1794.19 1578.36 C 1791.51 1601.35 1787.33 1624.93 1787.22 1648.08 C 1783.77 1650.52 1780.14 1652.78 1776.61 1655.11 L 1763.15 1663.38 z"/>
<path transform="translate(0,0)" fill="rgb(254,254,254)" d="M 974.598 351.082 L 1001.6 350.471 C 1028.67 349.947 1055.87 350.612 1082.95 350.778 C 1139.85 350.813 1196.75 351.481 1253.64 352.782 C 1429.6 355.411 1605.5 361.038 1781.26 369.659 C 1780.38 399.447 1775.09 433.565 1772.07 463.78 L 1755.64 634.05 C 1744.25 751.882 1731.39 869.568 1717.06 987.079 L 1666.34 1379.03 C 1660.11 1426.98 1652.82 1474.92 1647.23 1522.93 C 1645.26 1537.11 1643.41 1551.31 1640.92 1565.4 C 1629.32 1564.3 1617.64 1561.77 1606.09 1560.08 C 1579.11 1556.4 1552.19 1552.4 1525.31 1548.06 C 1454.96 1537.51 1384.74 1526.09 1314.66 1513.8 L 1112.37 1477.84 C 1074.85 1471.02 1036.49 1465.2 999.388 1456.47 C 977.687 1434.62 954.191 1411.22 927.176 1396.13 C 930.575 1367.32 933.762 1338.63 934.161 1309.58 C 934.617 1276.39 931.955 1243.06 930.158 1209.93 C 927.5 1164.01 926.084 1118.02 925.914 1072.02 C 926.226 989.693 938.014 907.969 936.142 825.568 C 935.39 799.617 933.308 773.722 929.905 747.984 C 928.325 736.251 923.718 723.593 924.041 711.868 C 924.403 698.723 927.118 685.24 928.982 672.224 C 931.87 652.042 934.608 631.839 937.194 611.616 C 944.367 554.371 952.048 497.191 960.233 440.082 C 964.631 410.351 970.083 380.794 974.598 351.082 z M 1187.15 384.545 C 1177.78 397.842 1169.71 412.282 1161.27 426.201 L 1108.81 513.809 C 1069.51 577.956 1031 642.58 993.279 707.668 C 986.74 719.001 979.412 729.919 973.03 741.324 C 971.504 744.05 969.925 746.774 969.634 749.936 C 970.643 751.27 971.027 751.709 972.519 752.589 L 1113.36 516.398 C 1132.73 484.788 1151.87 453.038 1170.78 421.152 C 1177.15 410.413 1185.44 399.598 1190.73 388.429 C 1189.89 386.073 1189.26 385.968 1187.15 384.545 z M 1018.2 420.081 C 1016.59 446.642 1018.36 474.084 996.453 493.331 C 991.654 497.548 988.389 499.318 981.997 500.1 L 980.579 501.533 C 982.232 504.795 987.546 507.392 990.641 509.561 C 1010.33 523.367 1016.7 540.905 1014.31 564.584 C 1016.81 565.648 1016.81 566.238 1019.52 565.329 C 1026.3 552.924 1027 529.292 1037.17 515.61 C 1041.1 510.33 1050.33 504.057 1049.31 497.162 C 1046.63 494.393 1043.47 492.099 1040.98 489.182 C 1027.49 473.397 1025.09 454.524 1023.6 434.641 C 1023.43 432.37 1023.34 421.738 1021.4 420.813 C 1020.41 420.344 1019.27 420.325 1018.2 420.081 z M 1612.31 425.498 C 1605.81 433.882 1600.99 444.119 1595.74 453.359 C 1587.71 467.404 1579.59 481.397 1571.38 495.338 C 1538.4 552.236 1505.09 608.935 1471.43 665.43 C 1465.5 675.311 1434.34 723.779 1433.51 730.427 C 1434.54 732.101 1434.69 732.274 1436.51 733.313 C 1446.6 719.822 1454.74 703.785 1463.35 689.265 L 1512.19 606.563 L 1572 503.852 C 1585.22 481.588 1599.42 459.622 1611.88 436.942 C 1613.55 433.907 1615.59 430.697 1615.27 427.132 C 1614.21 426.361 1613.58 425.88 1612.31 425.498 z M 1375.54 515.363 C 1368.98 516.178 1356.92 516.885 1352.5 522.249 C 1351.51 523.444 1351.93 524.119 1352.03 525.546 C 1356.22 530.339 1362.88 529.812 1368.88 530.236 C 1406.77 532.907 1441.3 541.044 1476.32 555.915 L 1477.94 556.645 C 1484.11 559.402 1487.14 560.294 1493.73 558.086 C 1494.92 556.789 1495.17 557.109 1495.03 555.564 C 1494.55 550.403 1487.58 545.094 1483.67 542.388 C 1457.19 524.082 1407.48 511.075 1375.54 515.363 z M 1302.28 524.426 C 1278.2 525.792 1258.52 533.162 1237.84 545.42 C 1233.9 547.754 1227.46 550.893 1224.64 554.48 C 1223.28 556.21 1222.88 557.511 1222.36 559.586 C 1222.99 561.891 1223.57 564.21 1224.09 566.541 C 1220.04 566.527 1217.03 559.439 1210.82 559.29 C 1196.52 558.947 1161.77 589.743 1151.73 599.758 C 1090.4 660.905 1066.49 726.543 1066.7 812.126 C 1066.81 854.961 1072.12 898.361 1065.71 940.914 C 1060.26 977.114 1046.88 1011.07 1038.7 1046.56 C 1022.91 1115.01 1040.27 1178.23 1090.32 1227.96 C 1090.81 1228.44 1091.3 1228.91 1091.79 1229.38 C 1094.78 1229.95 1095.76 1230.31 1098.71 1229.35 C 1099.75 1226.68 1099.61 1225.51 1098.53 1222.82 C 1095.08 1214.25 1088.53 1206.91 1084.13 1198.79 C 1068.91 1170.76 1056.95 1141.16 1054.28 1109.07 C 1049.26 1048.99 1078.86 997.551 1086.16 938.173 C 1089.85 908.182 1087.81 879.004 1086.92 848.921 C 1085.6 804.76 1086.58 747.447 1102.18 705.917 C 1122.42 652.02 1172.38 602.744 1220.63 571.907 C 1234.31 563.158 1250.8 555.192 1265.65 548.561 C 1276.88 543.549 1287.09 540.949 1299.29 539.269 C 1305.12 538.466 1312.29 538.348 1317.8 536.243 C 1320.01 535.397 1320.5 534.359 1322.01 532.616 C 1322.19 531.059 1322.73 530.273 1321.62 528.976 C 1317.42 524.068 1308.19 524.483 1302.28 524.426 z M 1677.13 526.496 L 1477.15 872.275 C 1475.43 875.305 1473.48 878.453 1473.12 881.969 C 1474.29 883.801 1473.94 883.738 1476.17 884.661 C 1508.6 834.835 1536.38 781.712 1566.19 730.305 C 1594.62 681.812 1622.68 633.113 1650.4 584.212 C 1658.84 569.17 1667.96 554.301 1675.95 539.034 C 1677.65 535.776 1679.86 532.111 1680.07 528.395 C 1679.11 527.712 1678.21 526.994 1677.13 526.496 z M 1574.98 601.521 C 1572.28 613.278 1558.66 641.44 1564.87 651.359 C 1566.52 653.997 1569.11 655.225 1571.89 656.349 C 1576.09 654.943 1578.69 653.832 1580.77 649.634 C 1586.04 638.973 1585.8 617.624 1581.65 606.461 C 1581.14 605.087 1580.41 604.122 1579.41 603.077 C 1577.94 602.527 1576.49 601.93 1574.98 601.521 z M 1235.06 634.482 C 1215.77 661.762 1199.48 691.7 1181.43 719.88 C 1162.5 749.418 1140.38 778.121 1125.86 810.193 C 1107.37 851.054 1103.95 930.008 1111.49 974.947 C 1118.81 1018.64 1135.91 1053.93 1172.79 1079.68 C 1187.34 1089.85 1204.21 1096.62 1221.08 1101.87 C 1225.5 1113.69 1229.09 1125.12 1223.68 1137.43 C 1220.52 1144.63 1206.62 1162.68 1209.31 1170.29 C 1210.08 1172.45 1211 1173.2 1212.67 1174.64 C 1215.69 1175.25 1217.46 1175.1 1220.04 1173.27 C 1231.17 1165.39 1243.49 1142.78 1245.08 1129.61 C 1246.13 1120.89 1244.48 1112.86 1242.26 1104.5 C 1248.21 1104.2 1253.87 1104.62 1258.32 1099.96 C 1258.35 1098.27 1258.71 1098.12 1257.45 1096.78 C 1254.67 1093.85 1217.97 1080.79 1210.84 1077.19 C 1197.07 1070.24 1184.64 1061.56 1174.85 1049.53 C 1144.84 1012.66 1132.03 935.606 1130.24 888.41 C 1129.96 881.143 1129.22 871.328 1133.7 865.206 L 1135.1 864.496 L 1136.51 866.022 C 1136.18 868.959 1135.49 870.207 1133.92 872.602 L 1134.37 873.561 C 1134.72 873.502 1135.07 873.439 1135.43 873.385 C 1138.68 872.887 1140.25 872.785 1143.22 874.194 C 1150.62 882.105 1145.71 897.328 1169.61 897.876 C 1174.72 897.993 1181.67 897.288 1185.3 893.214 C 1189.79 888.185 1187.86 869.079 1190.82 868.144 C 1192.82 867.517 1194.37 867.165 1195.8 865.535 C 1193.25 856.975 1171.23 851.693 1171.11 845.439 C 1175.52 843.797 1180.76 847.093 1184.86 848.974 C 1192.86 852.643 1201.23 859.116 1210.25 857.374 C 1215.3 866.296 1206.57 900.273 1203.72 910.606 C 1200.57 921.996 1192.63 939.301 1194.94 950.75 C 1198.03 955.371 1202.8 956.894 1208.09 957.97 C 1213.3 959.032 1220.69 960.22 1225.66 958.233 L 1227.45 956.335 C 1222.65 949.703 1197.78 955.056 1200.8 941.377 C 1201.83 936.707 1204.51 932.076 1205.97 927.46 C 1209.86 915.17 1212.98 901.946 1215.13 889.228 C 1216.79 875.562 1221.43 844.773 1215.97 833.377 L 1214.03 833.043 C 1211.45 835.348 1211.81 838.143 1211.6 841.539 C 1211.53 842.79 1211.47 844.042 1211.42 845.295 C 1190.83 835.452 1170.22 826.123 1149.92 815.615 C 1160.8 792.873 1173.17 770.957 1184.87 748.641 C 1199.92 719.927 1214.26 691.163 1231.18 663.443 C 1248.63 707.797 1272.81 736.726 1305.73 770.223 C 1346.44 811.635 1387.79 839.035 1399.32 901.338 C 1402.52 918.251 1403.59 935.498 1402.51 952.676 C 1398.15 1014.04 1377.1 1061.91 1400.47 1124.36 C 1402.81 1130.63 1407.25 1142.24 1413.71 1145.02 C 1414.68 1145.43 1415.41 1145.4 1416.39 1145.45 C 1418.44 1144.11 1419.57 1143.24 1420.12 1140.72 C 1421.73 1133.33 1414.39 1114.87 1412.69 1106.4 C 1410.32 1094.52 1409.72 1081.59 1409.21 1069.48 C 1406.46 1004.1 1429.44 952.821 1412.43 886.289 C 1406.81 864.29 1398.22 845.213 1384.31 827.191 C 1350.87 783.845 1304.1 753.488 1272.76 708.106 C 1262.49 693.238 1254.46 678.24 1248.62 661.045 C 1246.23 653.981 1244.7 644.203 1241.23 637.808 C 1239.75 635.083 1237.91 635.004 1235.06 634.482 z M 1620.42 724.321 C 1616.53 730.137 1609.38 741.759 1611.49 748.999 C 1612.28 751.742 1613.9 752.067 1616.24 753.155 C 1620.07 750.446 1620.74 747.454 1622.21 743.148 L 1622.81 741.436 C 1624.44 736.643 1625.94 731.293 1624.25 726.354 C 1622.76 725.061 1622.43 724.849 1620.42 724.321 z M 1328.23 798.825 C 1313.99 805.285 1252.14 834.739 1247.79 848.551 C 1246.9 851.364 1247.37 852.034 1248.54 854.561 C 1251.05 856.543 1252.28 856.922 1255.33 857.347 C 1273.28 851.067 1299.71 836.294 1315.06 824.891 C 1323.3 818.772 1330.52 811.395 1338.84 805.316 C 1335.61 802.478 1332.73 799.239 1328.23 798.825 z M 1643.78 820.21 C 1615.98 875.295 1582.99 928.17 1552.25 981.653 L 1385.74 1268.26 L 1321.27 1376.64 C 1315.73 1385.94 1300.14 1408.97 1297.41 1417.87 C 1298.64 1419.95 1299 1420.05 1301.19 1421.13 C 1320.1 1390.53 1337.65 1358.9 1356.05 1327.97 C 1409.32 1238.98 1461.78 1149.51 1513.42 1059.57 C 1548.09 1000.48 1582.34 941.15 1616.15 881.568 C 1625.16 865.541 1635.13 849.882 1643.67 833.627 C 1645.44 830.26 1647.6 826.505 1647.6 822.639 C 1646.19 820.668 1645.96 820.945 1643.78 820.21 z M 1320.5 831.687 C 1319.94 835.312 1320.02 837.244 1317.75 840.185 C 1315.35 840.451 1316.18 840.833 1314.56 839.522 C 1312.94 838.214 1311.79 836.879 1310.46 835.305 C 1309.08 836.623 1307.94 838.021 1306.76 839.522 C 1289.66 845.668 1277.32 848.296 1268.39 866.165 C 1266.82 869.299 1265.96 872.118 1265.77 875.602 L 1266.81 877.24 C 1269.31 876.896 1270.69 876.33 1272.42 874.378 C 1274.74 871.756 1276.66 868.3 1278.58 865.353 C 1282.34 872.529 1286.13 879.576 1294.53 882.018 C 1299.54 883.476 1305.37 883.096 1310.37 881.761 C 1316.83 879.231 1322.01 876.455 1324.89 869.84 C 1326.96 865.099 1327.15 860.136 1327.05 855.046 C 1330.89 858.195 1334.62 861.742 1339.19 863.747 L 1339.94 863.145 L 1339.22 860.37 L 1340.63 860.31 C 1342.35 862.948 1343.79 865.653 1346.48 867.416 L 1348.69 867.3 C 1350.2 865.489 1351.94 862.913 1351.8 860.377 C 1351.66 857.804 1350.75 856.176 1348.77 854.601 C 1347.29 853.43 1345.58 852.458 1343.98 851.47 C 1343.09 848.215 1345.84 847.07 1345.28 843.579 C 1341.02 843.103 1337.83 848.17 1334.06 843.09 C 1332.01 840.328 1335.37 835.193 1333.97 831.557 C 1330.66 833.873 1329.09 838.204 1326.25 841.139 C 1322.61 839.212 1322.24 835.176 1320.5 831.687 z M 1573.92 869.39 C 1571.93 872.847 1569.55 876.337 1570.59 880.496 C 1571.07 882.389 1572.56 883.823 1574.32 884.621 C 1575.13 884.992 1575.99 885.265 1576.84 885.567 C 1579.15 882.147 1581.43 878.736 1580.64 874.423 C 1580.31 872.589 1579.29 871.933 1578.1 870.606 L 1573.92 869.39 z M 1326.77 964.655 C 1308.75 978.631 1290.88 989.593 1267.98 993.596 C 1259.1 995.148 1245.57 992.54 1237.75 995.074 C 1235.76 995.72 1235.77 996.177 1235.2 998.118 L 1236.15 998.958 L 1235.23 997.279 C 1237.06 999.462 1237.47 999.792 1240.13 1000.78 C 1268.66 1004.27 1302.17 992.617 1324.58 975.008 C 1326.98 973.121 1329.14 971.348 1330.66 968.643 L 1330.33 966.562 C 1329.14 965.817 1328.12 965.061 1326.77 964.655 z M 1614.55 982.382 C 1605.66 993.787 1612.38 1043.14 1614.25 1058.22 C 1619.82 1102.99 1634.57 1147.9 1632.75 1193.23 C 1632.5 1201.45 1631.54 1209.62 1629.9 1217.68 C 1629.16 1221.19 1627.38 1225 1626.97 1228.48 C 1626.66 1231.16 1627.56 1231.96 1629.06 1233.95 C 1631.37 1235.06 1633.35 1235.62 1635.94 1234.9 C 1637.79 1234.39 1638.98 1233.04 1640.03 1231.54 C 1668.59 1173.53 1645.77 1107.28 1633.05 1047.98 C 1628.61 1027.26 1626.49 1004.87 1620.4 984.649 C 1618.53 982.765 1617.06 982.766 1614.55 982.382 z M 1198.98 1107.43 C 1184.68 1135.6 1168.64 1162.79 1152.84 1190.12 C 1138.72 1214.54 1125.27 1239.35 1111.06 1263.71 C 1093.37 1294.04 1074.84 1324.15 1058.26 1355.1 C 1056.83 1357.77 1054.3 1361.56 1054.66 1364.63 L 1057.55 1367.42 C 1073.28 1343.48 1085.92 1317.23 1100.42 1292.51 C 1120.53 1258.23 1139.87 1223.53 1159.62 1189.04 C 1172.55 1166.46 1186.33 1144.07 1198.54 1121.1 C 1200.41 1117.57 1202.08 1114.04 1202.62 1110.05 C 1201.32 1107.64 1201.39 1108.18 1198.98 1107.43 z M 1117.46 1159.74 C 1113.76 1163.76 1111.98 1167.51 1112.46 1173.12 C 1112.75 1176.52 1114.81 1180.2 1117.73 1182.03 C 1119.57 1183.18 1121.43 1183.34 1123.52 1183.6 C 1127.09 1180.41 1127.83 1177.98 1128.17 1173.23 C 1128.49 1168.73 1127.21 1165.83 1124.87 1162.11 C 1122.31 1160.38 1120.43 1160.09 1117.46 1159.74 z M 1197.12 1202.93 C 1196.73 1205.74 1196.24 1208.05 1197.99 1210.53 C 1202.41 1216.77 1214.72 1221.26 1221.63 1224.04 C 1261.43 1239.61 1303.37 1249.05 1346 1252 C 1347.69 1252.12 1349.34 1252.1 1351.03 1252.08 C 1351.44 1248.91 1351.95 1246.66 1350.34 1243.7 C 1343.14 1238.43 1319.2 1237.63 1309.57 1235.97 C 1278.06 1230.55 1244.41 1220.07 1214.9 1207.79 C 1209.04 1205.35 1203.65 1202.15 1197.12 1202.93 z M 1468 1202.6 C 1464.37 1205.97 1460.26 1209.72 1460.13 1215.08 C 1460.07 1217.61 1461.09 1219.53 1462.86 1221.26 C 1474.95 1233.1 1619.64 1283.32 1647.55 1295.11 C 1650.02 1293.66 1652.41 1291.98 1653.38 1289.1 C 1654.19 1286.69 1654.09 1285.17 1652.93 1282.89 C 1646.63 1270.56 1538.13 1233.81 1517.62 1225.25 C 1500.84 1218.26 1485.7 1207.23 1468 1202.6 z M 1053.93 1207.03 C 1017.12 1219.43 980.276 1257.02 963.23 1291.29 C 959.613 1298.56 952.448 1312.61 955.927 1320.63 C 956.965 1323.02 958.452 1325.01 960.996 1325.89 C 962.53 1326.43 964.639 1326.42 966.266 1326.54 C 973.572 1318.84 976.538 1307.7 981.404 1298.41 C 992.921 1276.4 1015.75 1252.59 1036.36 1238.68 C 1044.64 1233.09 1062.96 1225.9 1064.51 1215 C 1063.78 1212.1 1062.57 1208.91 1059.61 1207.56 C 1057.87 1206.77 1055.78 1206.98 1053.93 1207.03 z M 1470.21 1308.76 C 1464.98 1317.25 1464.53 1332.81 1462.27 1342.84 C 1460.48 1350.78 1458.13 1358.59 1454.8 1366.02 C 1452.49 1371.18 1449.89 1377.21 1446.44 1381.71 C 1441.7 1387.89 1432.11 1393.53 1429 1400.28 C 1442.71 1420.18 1449.63 1432.11 1450.93 1456.83 C 1451.31 1464.08 1450.82 1471.51 1451.75 1478.71 C 1454.55 1478.82 1455.05 1479.2 1457.24 1477.51 C 1460.14 1468.96 1461.11 1460.06 1462.91 1451.24 C 1466.67 1432.73 1476.31 1414.47 1490.89 1402.21 C 1475.8 1375.83 1469.19 1356.04 1472.05 1325.32 C 1472.54 1320.11 1475.59 1311.98 1470.21 1308.76 z"/>
<path transform="translate(0,0)" fill="rgb(0,0,0)" d="M 972.519 752.589 C 971.027 751.709 970.643 751.27 969.634 749.936 C 969.925 746.774 971.504 744.05 973.03 741.324 C 979.412 729.919 986.74 719.001 993.279 707.668 C 1031 642.58 1069.51 577.956 1108.81 513.809 L 1161.27 426.201 C 1169.71 412.282 1177.78 397.842 1187.15 384.545 C 1189.26 385.968 1189.89 386.073 1190.73 388.429 C 1185.44 399.598 1177.15 410.413 1170.78 421.152 C 1151.87 453.038 1132.73 484.788 1113.36 516.398 L 972.519 752.589 z"/>
<path transform="translate(0,0)" fill="rgb(0,0,0)" d="M 1014.31 564.584 C 1016.7 540.905 1010.33 523.367 990.641 509.561 C 987.546 507.392 982.232 504.795 980.579 501.533 L 981.997 500.1 C 988.389 499.318 991.654 497.548 996.453 493.331 C 1018.36 474.084 1016.59 446.642 1018.2 420.081 C 1019.27 420.325 1020.41 420.344 1021.4 420.813 C 1023.34 421.738 1023.43 432.37 1023.6 434.641 C 1025.09 454.524 1027.49 473.397 1040.98 489.182 C 1043.47 492.099 1046.63 494.393 1049.31 497.162 C 1050.33 504.057 1041.1 510.33 1037.17 515.61 C 1027 529.292 1026.3 552.924 1019.52 565.329 C 1016.81 566.238 1016.81 565.648 1014.31 564.584 z M 1019.45 462.718 C 1014.07 480.4 1007.41 492.54 991.906 503.16 C 1006.08 514.482 1013.62 523.481 1019.22 540.775 L 1020.37 542.2 C 1022.52 536.476 1024.07 530.425 1026.65 524.883 C 1030.83 515.907 1036.87 508.117 1042 499.712 C 1038.42 495.391 1034.65 491.069 1031.78 486.24 C 1028.16 480.156 1023.79 467.053 1019.45 462.718 z"/>
<path transform="translate(0,0)" fill="rgb(0,0,0)" d="M 1436.51 733.313 C 1434.69 732.274 1434.54 732.101 1433.51 730.427 C 1434.34 723.779 1465.5 675.311 1471.43 665.43 C 1505.09 608.935 1538.4 552.236 1571.38 495.338 C 1579.59 481.397 1587.71 467.404 1595.74 453.359 C 1600.99 444.119 1605.81 433.882 1612.31 425.498 C 1613.58 425.88 1614.21 426.361 1615.27 427.132 C 1615.59 430.697 1613.55 433.907 1611.88 436.942 C 1599.42 459.622 1585.22 481.588 1572 503.852 L 1512.19 606.563 L 1463.35 689.265 C 1454.74 703.785 1446.6 719.822 1436.51 733.313 z"/>
<path transform="translate(0,0)" fill="rgb(254,254,254)" d="M 991.906 503.16 C 1007.41 492.54 1014.07 480.4 1019.45 462.718 C 1023.79 467.053 1028.16 480.156 1031.78 486.24 C 1034.65 491.069 1038.42 495.391 1042 499.712 C 1036.87 508.117 1030.83 515.907 1026.65 524.883 C 1024.07 530.425 1022.52 536.476 1020.37 542.2 L 1019.22 540.775 C 1013.62 523.481 1006.08 514.482 991.906 503.16 z"/>
<path transform="translate(0,0)" fill="rgb(254,254,254)" d="M 912.295 1212.85 C 908.739 1175.59 906.859 1138.28 903.886 1101 C 902.757 1086.84 899.089 1073.24 899.134 1058.94 C 899.495 945.498 921.542 845.676 901.428 729.911 C 895.475 695.65 886.267 662.556 869.433 631.86 C 839.781 577.793 785.214 538.889 726.513 521.958 C 698.622 513.913 669.499 509.435 640.445 511.452 C 626.229 512.438 612.134 514.888 597.879 515.357 C 583.074 515.844 568.298 512.145 553.43 512.258 C 509.586 512.593 459.975 527.749 421.758 548.916 C 338.055 595.276 283.514 659.481 252.165 750.171 C 245.961 768.12 242.503 786.28 237.277 804.42 C 237.264 792.238 240.182 780.182 242.541 768.268 C 254.376 708.483 279.58 652.92 320.134 607.08 C 372.673 547.694 449.317 510.896 527.919 502.808 C 550.984 500.435 573.719 502.25 596.709 500.874 C 609.264 500.122 621.678 497.592 634.274 496.873 C 679.502 494.29 729.282 502.844 769.124 525.276 C 787.289 535.503 804.381 549.271 819.887 563.194 C 861.804 600.831 893.16 655.047 907.088 709.661 C 931.769 806.437 916.164 928.492 911.463 1028.52 C 908.73 1086.67 911.14 1145.48 914.153 1203.59 C 913.962 1206.8 914.192 1210.11 912.295 1212.85 z"/>
<path transform="translate(0,0)" fill="rgb(0,0,0)" d="M 1476.32 555.915 C 1441.3 541.044 1406.77 532.907 1368.88 530.236 C 1362.88 529.812 1356.22 530.339 1352.03 525.546 C 1351.93 524.119 1351.51 523.444 1352.5 522.249 C 1356.92 516.885 1368.98 516.178 1375.54 515.363 C 1407.48 511.075 1457.19 524.082 1483.67 542.388 C 1487.58 545.094 1494.55 550.403 1495.03 555.564 C 1495.17 557.109 1494.92 556.789 1493.73 558.086 C 1487.14 560.294 1484.11 559.402 1477.94 556.645 L 1476.32 555.915 z"/>
<path transform="translate(0,0)" fill="rgb(0,0,0)" d="M 1091.79 1229.38 C 1091.3 1228.91 1090.81 1228.44 1090.32 1227.96 C 1040.27 1178.23 1022.91 1115.01 1038.7 1046.56 C 1046.88 1011.07 1060.26 977.114 1065.71 940.914 C 1072.12 898.361 1066.81 854.961 1066.7 812.126 C 1066.49 726.543 1090.4 660.905 1151.73 599.758 C 1161.77 589.743 1196.52 558.947 1210.82 559.29 C 1217.03 559.439 1220.04 566.527 1224.09 566.541 C 1223.57 564.21 1222.99 561.891 1222.36 559.586 C 1222.88 557.511 1223.28 556.21 1224.64 554.48 C 1227.46 550.893 1233.9 547.754 1237.84 545.42 C 1258.52 533.162 1278.2 525.792 1302.28 524.426 C 1308.19 524.483 1317.42 524.068 1321.62 528.976 C 1322.73 530.273 1322.19 531.059 1322.01 532.616 C 1320.5 534.359 1320.01 535.397 1317.8 536.243 C 1312.29 538.348 1305.12 538.466 1299.29 539.269 C 1287.09 540.949 1276.88 543.549 1265.65 548.561 C 1250.8 555.192 1234.31 563.158 1220.63 571.907 C 1172.38 602.744 1122.42 652.02 1102.18 705.917 C 1086.58 747.447 1085.6 804.76 1086.92 848.921 C 1087.81 879.004 1089.85 908.182 1086.16 938.173 C 1078.86 997.551 1049.26 1048.99 1054.28 1109.07 C 1056.95 1141.16 1068.91 1170.76 1084.13 1198.79 C 1088.53 1206.91 1095.08 1214.25 1098.53 1222.82 C 1099.61 1225.51 1099.75 1226.68 1098.71 1229.35 C 1095.76 1230.31 1094.78 1229.95 1091.79 1229.38 z"/>
<path transform="translate(0,0)" fill="rgb(0,0,0)" d="M 1476.17 884.661 C 1473.94 883.738 1474.29 883.801 1473.12 881.969 C 1473.48 878.453 1475.43 875.305 1477.15 872.275 L 1677.13 526.496 C 1678.21 526.994 1679.11 527.712 1680.07 528.395 C 1679.86 532.111 1677.65 535.776 1675.95 539.034 C 1667.96 554.301 1658.84 569.17 1650.4 584.212 C 1622.68 633.113 1594.62 681.812 1566.19 730.305 C 1536.38 781.712 1508.6 834.835 1476.17 884.661 z"/>
<path transform="translate(0,0)" fill="rgb(0,0,0)" d="M 1571.89 656.349 C 1569.11 655.225 1566.52 653.997 1564.87 651.359 C 1558.66 641.44 1572.28 613.278 1574.98 601.521 C 1576.49 601.93 1577.94 602.527 1579.41 603.077 C 1580.41 604.122 1581.14 605.087 1581.65 606.461 C 1585.8 617.624 1586.04 638.973 1580.77 649.634 C 1578.69 653.832 1576.09 654.943 1571.89 656.349 z"/>
<path transform="translate(0,0)" fill="rgb(0,0,0)" d="M 1221.08 1101.87 C 1204.21 1096.62 1187.34 1089.85 1172.79 1079.68 C 1135.91 1053.93 1118.81 1018.64 1111.49 974.947 C 1103.95 930.008 1107.37 851.054 1125.86 810.193 C 1140.38 778.121 1162.5 749.418 1181.43 719.88 C 1199.48 691.7 1215.77 661.762 1235.06 634.482 C 1237.91 635.004 1239.75 635.083 1241.23 637.808 C 1244.7 644.203 1246.23 653.981 1248.62 661.045 C 1254.46 678.24 1262.49 693.238 1272.76 708.106 C 1304.1 753.488 1350.87 783.845 1384.31 827.191 C 1398.22 845.213 1406.81 864.29 1412.43 886.289 C 1429.44 952.821 1406.46 1004.1 1409.21 1069.48 C 1409.72 1081.59 1410.32 1094.52 1412.69 1106.4 C 1414.39 1114.87 1421.73 1133.33 1420.12 1140.72 C 1419.57 1143.24 1418.44 1144.11 1416.39 1145.45 C 1415.41 1145.4 1414.68 1145.43 1413.71 1145.02 C 1407.25 1142.24 1402.81 1130.63 1400.47 1124.36 C 1377.1 1061.91 1398.15 1014.04 1402.51 952.676 C 1403.59 935.498 1402.52 918.251 1399.32 901.338 C 1387.79 839.035 1346.44 811.635 1305.73 770.223 C 1272.81 736.726 1248.63 707.797 1231.18 663.443 C 1214.26 691.163 1199.92 719.927 1184.87 748.641 C 1173.17 770.957 1160.8 792.873 1149.92 815.615 C 1170.22 826.123 1190.83 835.452 1211.42 845.295 C 1211.47 844.042 1211.53 842.79 1211.6 841.539 C 1211.81 838.143 1211.45 835.348 1214.03 833.043 L 1215.97 833.377 C 1221.43 844.773 1216.79 875.562 1215.13 889.228 C 1212.98 901.946 1209.86 915.17 1205.97 927.46 C 1204.51 932.076 1201.83 936.707 1200.8 941.377 C 1197.78 955.056 1222.65 949.703 1227.45 956.335 L 1225.66 958.233 C 1220.69 960.22 1213.3 959.032 1208.09 957.97 C 1202.8 956.894 1198.03 955.371 1194.94 950.75 C 1192.63 939.301 1200.57 921.996 1203.72 910.606 C 1206.57 900.273 1215.3 866.296 1210.25 857.374 C 1201.23 859.116 1192.86 852.643 1184.86 848.974 C 1180.76 847.093 1175.52 843.797 1171.11 845.439 C 1171.23 851.693 1193.25 856.975 1195.8 865.535 C 1194.37 867.165 1192.82 867.517 1190.82 868.144 C 1187.86 869.079 1189.79 888.185 1185.3 893.214 C 1181.67 897.288 1174.72 897.993 1169.61 897.876 C 1145.71 897.328 1150.62 882.105 1143.22 874.194 C 1140.25 872.785 1138.68 872.887 1135.43 873.385 C 1135.07 873.439 1134.72 873.502 1134.37 873.561 L 1133.92 872.602 C 1135.49 870.207 1136.18 868.959 1136.51 866.022 L 1135.1 864.496 L 1133.7 865.206 C 1129.22 871.328 1129.96 881.143 1130.24 888.41 C 1132.03 935.606 1144.84 1012.66 1174.85 1049.53 C 1184.64 1061.56 1197.07 1070.24 1210.84 1077.19 C 1217.97 1080.79 1254.67 1093.85 1257.45 1096.78 C 1258.71 1098.12 1258.35 1098.27 1258.32 1099.96 C 1253.87 1104.62 1248.21 1104.2 1242.26 1104.5 C 1244.48 1112.86 1246.13 1120.89 1245.08 1129.61 C 1243.49 1142.78 1231.17 1165.39 1220.04 1173.27 C 1217.46 1175.1 1215.69 1175.25 1212.67 1174.64 C 1211 1173.2 1210.08 1172.45 1209.31 1170.29 C 1206.62 1162.68 1220.52 1144.63 1223.68 1137.43 C 1229.09 1125.12 1225.5 1113.69 1221.08 1101.87 z M 1142.05 829.275 C 1137.85 840.402 1134.3 851.332 1132.01 863.009 C 1137.03 858.43 1142.39 852.813 1149.21 851.255 C 1149.52 851.122 1149.83 850.984 1150.15 850.856 C 1153.48 849.503 1155.94 849.22 1159.5 849.107 C 1163.47 848.98 1166.78 848.532 1170.22 846.497 L 1170.48 844.828 C 1165.38 839.454 1149.29 832.244 1142.05 829.275 z"/>
<path transform="translate(0,0)" fill="rgb(0,0,0)" d="M 1616.24 753.155 C 1613.9 752.067 1612.28 751.742 1611.49 748.999 C 1609.38 741.759 1616.53 730.137 1620.42 724.321 C 1622.43 724.849 1622.76 725.061 1624.25 726.354 C 1625.94 731.293 1624.44 736.643 1622.81 741.436 L 1622.21 743.148 C 1620.74 747.454 1620.07 750.446 1616.24 753.155 z"/>
<path transform="translate(0,0)" fill="rgb(0,0,0)" d="M 1255.33 857.347 C 1252.28 856.922 1251.05 856.543 1248.54 854.561 C 1247.37 852.034 1246.9 851.364 1247.79 848.551 C 1252.14 834.739 1313.99 805.285 1328.23 798.825 C 1332.73 799.239 1335.61 802.478 1338.84 805.316 C 1330.52 811.395 1323.3 818.772 1315.06 824.891 C 1299.71 836.294 1273.28 851.067 1255.33 857.347 z"/>
<path transform="translate(0,0)" fill="rgb(254,254,254)" d="M 303.866 887.701 C 303.409 886.784 302.94 885.872 302.552 884.924 C 294.701 865.743 296.266 832.093 304.104 813.171 C 305.383 813.731 306.15 814.362 307.224 815.235 C 310.383 824.733 309.483 836.414 309.261 846.374 C 309.07 854.91 308.862 882.934 303.866 887.701 z"/>
<path transform="translate(0,0)" fill="rgb(0,0,0)" d="M 1301.19 1421.13 C 1299 1420.05 1298.64 1419.95 1297.41 1417.87 C 1300.14 1408.97 1315.73 1385.94 1321.27 1376.64 L 1385.74 1268.26 L 1552.25 981.653 C 1582.99 928.17 1615.98 875.295 1643.78 820.21 C 1645.96 820.945 1646.19 820.668 1647.6 822.639 C 1647.6 826.505 1645.44 830.26 1643.67 833.627 C 1635.13 849.882 1625.16 865.541 1616.15 881.568 C 1582.34 941.15 1548.09 1000.48 1513.42 1059.57 C 1461.78 1149.51 1409.32 1238.98 1356.05 1327.97 C 1337.65 1358.9 1320.1 1390.53 1301.19 1421.13 z"/>
<path transform="translate(0,0)" fill="rgb(254,254,254)" d="M 1132.01 863.009 C 1134.3 851.332 1137.85 840.402 1142.05 829.275 C 1149.29 832.244 1165.38 839.454 1170.48 844.828 L 1170.22 846.497 C 1166.78 848.532 1163.47 848.98 1159.5 849.107 C 1155.94 849.22 1153.48 849.503 1150.15 850.856 C 1149.83 850.984 1149.52 851.122 1149.21 851.255 C 1142.39 852.813 1137.03 858.43 1132.01 863.009 z"/>
<path transform="translate(0,0)" fill="rgb(0,0,0)" d="M 1278.58 865.353 C 1276.66 868.3 1274.74 871.756 1272.42 874.378 C 1270.69 876.33 1269.31 876.896 1266.81 877.24 L 1265.77 875.602 C 1265.96 872.118 1266.82 869.299 1268.39 866.165 C 1277.32 848.296 1289.66 845.668 1306.76 839.522 C 1307.94 838.021 1309.08 836.623 1310.46 835.305 C 1311.79 836.879 1312.94 838.214 1314.56 839.522 C 1316.18 840.833 1315.35 840.451 1317.75 840.185 C 1320.02 837.244 1319.94 835.312 1320.5 831.687 C 1322.24 835.176 1322.61 839.212 1326.25 841.139 C 1329.09 838.204 1330.66 833.873 1333.97 831.557 C 1335.37 835.193 1332.01 840.328 1334.06 843.09 C 1337.83 848.17 1341.02 843.103 1345.28 843.579 C 1345.84 847.07 1343.09 848.215 1343.98 851.47 C 1345.58 852.458 1347.29 853.43 1348.77 854.601 C 1350.75 856.176 1351.66 857.804 1351.8 860.377 C 1351.94 862.913 1350.2 865.489 1348.69 867.3 L 1346.48 867.416 C 1343.79 865.653 1342.35 862.948 1340.63 860.31 L 1339.22 860.37 L 1339.94 863.145 L 1339.19 863.747 C 1334.62 861.742 1330.89 858.195 1327.05 855.046 C 1327.15 860.136 1326.96 865.099 1324.89 869.84 C 1322.01 876.455 1316.83 879.231 1310.37 881.761 C 1305.37 883.096 1299.54 883.476 1294.53 882.018 C 1286.13 879.576 1282.34 872.529 1278.58 865.353 z"/>
<path transform="translate(0,0)" fill="rgb(254,254,254)" d="M 341.482 907.748 C 339.741 906.894 338.863 906.828 337.836 905.097 C 331.429 894.295 335.774 848.955 339.392 836.635 C 340.48 837.681 341.214 838.644 341.789 840.054 C 348.356 856.144 348.086 891.645 341.482 907.748 z"/>
<path transform="translate(0,0)" fill="rgb(254,254,254)" d="M 861.002 907.788 C 860.161 905.851 859.55 903.947 859.096 901.88 C 855.932 887.469 859.155 854.059 867.201 841.523 C 871.815 849.642 868.712 890.496 866.314 900.564 C 865.416 904.335 864.236 905.754 861.002 907.788 z"/>
<path transform="translate(0,0)" fill="rgb(254,254,254)" d="M 813.571 896.762 C 810.712 892.25 810.004 888 809.861 882.684 C 809.603 873.059 811.482 859.993 818.291 852.742 C 818.345 852.832 818.403 852.919 818.453 853.011 C 822.943 861.337 821.868 883.312 818.472 892.38 C 817.424 895.179 816.076 895.444 813.571 896.762 z"/>
<path transform="translate(0,0)" fill="rgb(0,0,0)" d="M 1576.84 885.567 C 1575.99 885.265 1575.13 884.992 1574.32 884.621 C 1572.56 883.823 1571.07 882.389 1570.59 880.496 C 1569.55 876.337 1571.93 872.847 1573.92 869.39 L 1578.1 870.606 C 1579.29 871.933 1580.31 872.589 1580.64 874.423 C 1581.43 878.736 1579.15 882.147 1576.84 885.567 z"/>
<path transform="translate(0,0)" fill="rgb(254,254,254)" d="M 828.282 978.73 L 825.707 975.754 C 822.277 961.782 822.032 936.874 829.334 924.195 L 831.953 925.614 C 832.413 926.733 832.603 927.065 832.838 928.412 C 834.724 939.229 834.252 969.799 828.282 978.73 z"/>
<path transform="translate(0,0)" fill="rgb(0,0,0)" d="M 1240.13 1000.78 C 1237.47 999.792 1237.06 999.462 1235.23 997.279 L 1236.15 998.958 L 1235.2 998.118 C 1235.77 996.177 1235.76 995.72 1237.75 995.074 C 1245.57 992.54 1259.1 995.148 1267.98 993.596 C 1290.88 989.593 1308.75 978.631 1326.77 964.655 C 1328.12 965.061 1329.14 965.817 1330.33 966.562 L 1330.66 968.643 C 1329.14 971.348 1326.98 973.121 1324.58 975.008 C 1302.17 992.617 1268.66 1004.27 1240.13 1000.78 z"/>
<path transform="translate(0,0)" fill="rgb(0,0,0)" d="M 1640.03 1231.54 C 1638.98 1233.04 1637.79 1234.39 1635.94 1234.9 C 1633.35 1235.62 1631.37 1235.06 1629.06 1233.95 C 1627.56 1231.96 1626.66 1231.16 1626.97 1228.48 C 1627.38 1225 1629.16 1221.19 1629.9 1217.68 C 1631.54 1209.62 1632.5 1201.45 1632.75 1193.23 C 1634.57 1147.9 1619.82 1102.99 1614.25 1058.22 C 1612.38 1043.14 1605.66 993.787 1614.55 982.382 C 1617.06 982.766 1618.53 982.765 1620.4 984.649 C 1626.49 1004.87 1628.61 1027.26 1633.05 1047.98 C 1645.77 1107.28 1668.59 1173.53 1640.03 1231.54 z"/>
<path transform="translate(0,0)" fill="rgb(254,254,254)" d="M 850.39 1072.62 C 848.964 1071.05 847.72 1069.65 846.98 1067.63 C 841.919 1053.79 843.827 1030.65 849.67 1017.43 C 851.763 1018.75 852.326 1019.46 852.875 1021.92 C 855.284 1032.73 855.896 1063.08 850.39 1072.62 z"/>
<path transform="translate(0,0)" fill="rgb(0,0,0)" d="M 1057.55 1367.42 L 1054.66 1364.63 C 1054.3 1361.56 1056.83 1357.77 1058.26 1355.1 C 1074.84 1324.15 1093.37 1294.04 1111.06 1263.71 C 1125.27 1239.35 1138.72 1214.54 1152.84 1190.12 C 1168.64 1162.79 1184.68 1135.6 1198.98 1107.43 C 1201.39 1108.18 1201.32 1107.64 1202.62 1110.05 C 1202.08 1114.04 1200.41 1117.57 1198.54 1121.1 C 1186.33 1144.07 1172.55 1166.46 1159.62 1189.04 C 1139.87 1223.53 1120.53 1258.23 1100.42 1292.51 C 1085.92 1317.23 1073.28 1343.48 1057.55 1367.42 z"/>
<path transform="translate(0,0)" fill="rgb(0,0,0)" d="M 1123.52 1183.6 C 1121.43 1183.34 1119.57 1183.18 1117.73 1182.03 C 1114.81 1180.2 1112.75 1176.52 1112.46 1173.12 C 1111.98 1167.51 1113.76 1163.76 1117.46 1159.74 C 1120.43 1160.09 1122.31 1160.38 1124.87 1162.11 C 1127.21 1165.83 1128.49 1168.73 1128.17 1173.23 C 1127.83 1177.98 1127.09 1180.41 1123.52 1183.6 z"/>
<path transform="translate(0,0)" fill="rgb(254,254,254)" d="M 275.723 1230.48 C 274.285 1229.07 272.921 1227.86 272.082 1225.98 C 266.47 1213.44 265.059 1187.07 270.361 1174.4 L 272.679 1176.1 C 278.708 1188.59 280.22 1217.38 275.723 1230.48 z"/>
<path transform="translate(0,0)" fill="rgb(0,0,0)" d="M 1351.03 1252.08 C 1349.34 1252.1 1347.69 1252.12 1346 1252 C 1303.37 1249.05 1261.43 1239.61 1221.63 1224.04 C 1214.72 1221.26 1202.41 1216.77 1197.99 1210.53 C 1196.24 1208.05 1196.73 1205.74 1197.12 1202.93 C 1203.65 1202.15 1209.04 1205.35 1214.9 1207.79 C 1244.41 1220.07 1278.06 1230.55 1309.57 1235.97 C 1319.2 1237.63 1343.14 1238.43 1350.34 1243.7 C 1351.95 1246.66 1351.44 1248.91 1351.03 1252.08 z"/>
<path transform="translate(0,0)" fill="rgb(0,0,0)" d="M 1647.55 1295.11 C 1619.64 1283.32 1474.95 1233.1 1462.86 1221.26 C 1461.09 1219.53 1460.07 1217.61 1460.13 1215.08 C 1460.26 1209.72 1464.37 1205.97 1468 1202.6 C 1485.7 1207.23 1500.84 1218.26 1517.62 1225.25 C 1538.13 1233.81 1646.63 1270.56 1652.93 1282.89 C 1654.09 1285.17 1654.19 1286.69 1653.38 1289.1 C 1652.41 1291.98 1650.02 1293.66 1647.55 1295.11 z"/>
<path transform="translate(0,0)" fill="rgb(183,186,191)" d="M 914.153 1203.59 C 915.357 1214.02 917.709 1243.48 915.62 1252.83 C 914.551 1239.51 912.906 1226.19 912.295 1212.85 C 914.192 1210.11 913.962 1206.8 914.153 1203.59 z"/>
<path transform="translate(0,0)" fill="rgb(0,0,0)" d="M 966.266 1326.54 C 964.639 1326.42 962.53 1326.43 960.996 1325.89 C 958.452 1325.01 956.965 1323.02 955.927 1320.63 C 952.448 1312.61 959.613 1298.56 963.23 1291.29 C 980.276 1257.02 1017.12 1219.43 1053.93 1207.03 C 1055.78 1206.98 1057.87 1206.77 1059.61 1207.56 C 1062.57 1208.91 1063.78 1212.1 1064.51 1215 C 1062.96 1225.9 1044.64 1233.09 1036.36 1238.68 C 1015.75 1252.59 992.921 1276.4 981.404 1298.41 C 976.538 1307.7 973.572 1318.84 966.266 1326.54 z"/>
<path transform="translate(0,0)" fill="rgb(254,254,254)" d="M 220.773 1475.14 C 201.163 1456.84 190.977 1431.22 185.706 1405.43 C 176.106 1358.43 183.576 1295.32 210.353 1254.71 C 212 1256.92 211.194 1259.63 210.665 1262.12 C 208.364 1272.97 204.631 1283.85 201.709 1294.58 C 196.349 1313.78 193.373 1333.56 192.848 1353.49 C 192.325 1380.01 195.85 1405.72 204.529 1430.83 C 207.398 1439.26 210.845 1447.48 214.846 1455.43 C 217.463 1460.54 226.127 1471.23 226.085 1476.41 C 223.352 1476.87 223.164 1476.31 220.773 1475.14 z"/>
<path transform="translate(0,0)" fill="rgb(254,254,254)" d="M 329.341 1310.87 C 329.07 1310.82 328.784 1310.84 328.53 1310.74 C 326.748 1310.02 326.16 1308.73 325.457 1307.04 C 320.85 1295.99 318.594 1272.59 323.224 1261.6 C 324.411 1262.27 325.217 1262.91 325.892 1264.13 C 332.391 1275.85 333.256 1298.47 329.341 1310.87 z"/>
<path transform="translate(0,0)" fill="rgb(0,0,0)" d="M 1451.75 1478.71 C 1450.82 1471.51 1451.31 1464.08 1450.93 1456.83 C 1449.63 1432.11 1442.71 1420.18 1429 1400.28 C 1432.11 1393.53 1441.7 1387.89 1446.44 1381.71 C 1449.89 1377.21 1452.49 1371.18 1454.8 1366.02 C 1458.13 1358.59 1460.48 1350.78 1462.27 1342.84 C 1464.53 1332.81 1464.98 1317.25 1470.21 1308.76 C 1475.59 1311.98 1472.54 1320.11 1472.05 1325.32 C 1469.19 1356.04 1475.8 1375.83 1490.89 1402.21 C 1476.31 1414.47 1466.67 1432.73 1462.91 1451.24 C 1461.11 1460.06 1460.14 1468.96 1457.24 1477.51 C 1455.05 1479.2 1454.55 1478.82 1451.75 1478.71 z M 1466.46 1351.73 C 1459.53 1370.7 1451.78 1387.57 1435.52 1400.27 C 1447.69 1415.91 1452.24 1431.15 1456.36 1450.26 L 1457.51 1449.97 C 1463.31 1430.28 1472.12 1416.38 1484.21 1399.91 C 1474.12 1384.32 1468.55 1370.2 1466.46 1351.73 z"/>
<path transform="translate(0,0)" fill="rgb(254,254,254)" d="M 850.892 1499.77 C 849.62 1499.8 850.331 1499.92 848.867 1499 C 848.965 1491.96 869.414 1439.67 872.994 1427.96 C 879.195 1407.67 883.735 1386.42 887.318 1365.52 C 889.351 1353.66 890.607 1341.6 893.151 1329.84 L 893.408 1328.69 C 894.314 1330.47 894.643 1331.77 894.923 1333.73 C 901.904 1382.59 879.813 1460.62 850.892 1499.77 z"/>
<path transform="translate(0,0)" fill="rgb(254,254,254)" d="M 339.227 1581.31 C 330.157 1571.78 322.601 1560.06 316.253 1548.59 C 288.254 1497.99 275.259 1429.48 273.608 1372.09 C 273.252 1359.72 272.439 1345.41 275.892 1333.53 L 277.434 1334.9 C 280.331 1342.35 281.536 1374.77 283.154 1385.7 C 289.942 1431.56 298.724 1478.52 314.944 1522.05 C 318.367 1531.31 322.087 1540.45 326.098 1549.47 C 328.732 1555.28 339.103 1573.88 339.859 1578.54 C 340.011 1579.48 339.438 1580.39 339.227 1581.31 z"/>
<path transform="translate(0,0)" fill="rgb(254,254,254)" d="M 1435.52 1400.27 C 1451.78 1387.57 1459.53 1370.7 1466.46 1351.73 C 1468.55 1370.2 1474.12 1384.32 1484.21 1399.91 C 1472.12 1416.38 1463.31 1430.28 1457.51 1449.97 L 1456.36 1450.26 C 1452.24 1431.15 1447.69 1415.91 1435.52 1400.27 z"/>
<path transform="translate(0,0)" fill="rgb(254,254,254)" d="M 833.465 1448.77 C 831.073 1447.48 830.557 1447.37 829.864 1444.55 C 827.703 1435.72 838.796 1397.95 843.441 1389.44 C 844.484 1390.08 845.314 1391 846.201 1391.84 C 850.479 1404.86 839.237 1436.12 833.465 1448.77 z"/>
<path transform="translate(0,0)" fill="rgb(254,254,254)" d="M 650.614 1538.65 C 650.431 1538.42 650.169 1538.22 650.064 1537.94 C 649.834 1537.33 649.634 1536.68 649.628 1536.02 C 649.613 1534.17 661.496 1513.19 663.445 1509.53 C 677.944 1482.31 690.675 1454.64 703.417 1426.57 L 704.656 1427.84 C 704.951 1429.44 705.021 1430.83 704.834 1432.46 C 700.513 1469.88 679.911 1514.33 650.614 1538.65 z"/>
<path transform="translate(0,0)" fill="rgb(254,254,254)" d="M 515.941 1621.58 L 515.501 1621.32 C 515.238 1618.03 524.353 1607.55 526.452 1603.9 C 531.088 1595.85 535.157 1587.25 539.088 1578.83 C 549.378 1556.78 555.224 1533.2 560.934 1509.66 C 563.433 1499.36 565.409 1488.49 569.117 1478.56 C 569.276 1478.7 569.462 1478.81 569.593 1478.97 C 574.033 1484.5 569.7 1511.89 568.4 1519.5 C 562.085 1556.42 547.863 1598.99 515.941 1621.58 z"/>
<path transform="translate(0,0)" fill="rgb(254,254,254)" d="M 477.529 1639.05 C 464.361 1630.48 454.994 1616.86 447.635 1603.23 C 434.642 1579.16 423.743 1532.85 431.712 1506.46 C 435.165 1513.35 437.57 1537.81 439.685 1547.23 C 444.249 1567.55 451.771 1587.84 460.608 1606.68 C 464.647 1615.29 478.46 1630.13 477.529 1639.05 z"/>
<path transform="translate(0,0)" fill="rgb(0,0,0)" d="M 888.612 1801.73 C 886.375 1801.54 884.387 1801.49 882.382 1800.35 C 879.804 1798.89 878.928 1794.52 878.309 1791.88 C 873.033 1769.38 864.524 1687.33 875.894 1668.75 C 878.404 1668.89 880.909 1668.82 883.167 1670.06 C 884.929 1671.03 885.667 1673.06 885.957 1674.96 C 887.4 1684.38 885.462 1695.46 885.019 1705.05 C 884.661 1712.78 884.952 1720.45 885.337 1728.18 C 886.072 1742.94 887.882 1757.73 889.606 1772.4 C 890.371 1778.92 891.907 1785.56 891.889 1792.13 C 891.877 1796.36 891.097 1798.32 888.612 1801.73 z"/>
<path transform="translate(0,0)" fill="rgb(0,0,0)" d="M 229.655 1806.92 C 226.793 1806.88 224.691 1806.64 221.946 1805.84 C 217.855 1801.73 218.514 1791.08 218.158 1785.4 C 217.283 1771.44 216.427 1757.64 214.109 1743.83 C 212.258 1732.8 209.34 1722 207.34 1711 C 206.409 1705.89 206.375 1703.75 209.375 1699.38 L 213.552 1700.13 C 217.894 1703.31 219.459 1708.69 220.989 1713.66 C 225.597 1728.62 236.756 1793.7 229.655 1806.92 z"/>
</svg>