<?xml version="1.0" encoding="utf-8" ?><svg xmlns="http://www.w3.org/2000/svg" xmlns:xlink="http://www.w3.org/1999/xlink" width="1024" height="1024" viewBox="0 0 1024 1024"><path fill="white" d="M0 0L0 1024L1024 1024L1024 0L0 0Z"/><path d="M515.177 0L524.981 0C538.939 1.58926 552.858 1.44733 566.79 3.88478C634.074 15.4347 694.844 51.1039 737.73 104.219C758.962 130.858 774.019 160.442 785.281 192.525C794.287 218.183 800.965 244.4 806.969 270.898C809.7 282.953 812.539 295.022 814.755 307.183C819.813 334.948 823.429 363.094 829.586 390.63C835.45 417.339 841.704 443.961 848.344 470.488C852.935 488.275 858.181 505.882 862.569 523.728C867.225 543.164 870.93 562.816 873.67 582.614C876.499 604.177 875.271 625.691 872.842 647.242C870.359 669.282 866.683 689.189 852.43 707.035C849.568 710.617 846.274 714.66 842.617 717.462C842.489 717.561 842.354 717.652 842.223 717.746L842.794 716.909C847.144 710.59 851.671 704.979 854.966 697.94C866.486 673.335 865.889 639.227 861.186 612.752C859.433 602.887 857.056 592.96 853.613 583.546C856.33 622.733 840.725 665.065 815.063 694.539C805.556 705.458 792.67 718.676 777.323 719.705L773.353 719.988C777.436 716.862 781.23 713.799 784.555 709.859C798.367 693.498 804.006 669.09 806.766 648.204C808.407 635.852 809.098 623.392 808.832 610.934C808.644 603.724 807.222 595.845 808.042 588.76C808.153 587.8 808.147 588.196 808.024 587.256L807.025 586.493C806.955 586.611 802.989 608.875 802.012 612.63C795.068 639.291 780.41 665.262 760.573 684.556C753.637 691.302 745.93 696.973 738.484 703.112C748.257 708.555 758.589 712.754 768.753 717.371C774.899 720.163 780.867 723.345 787.02 726.126C795.147 729.799 803.537 733.047 811.85 736.277C837.929 746.411 927.015 773.582 942.18 790.862C947.021 796.379 955.827 829.525 958.196 837.867C967.772 871.896 975.72 906.362 982.014 941.148C987.019 968.696 990.945 996.518 996.236 1024L862.545 1024C876.656 994.996 887.741 965.502 898.069 935.017C908.834 903.243 918.203 871.772 925.561 839.013C928.074 827.826 932.297 812.975 931.668 801.491C931.005 800.471 930.885 800.276 929.806 799.743C927.306 803.106 927.511 809.701 926.34 813.848C923.802 822.834 922.145 832.065 919.913 841.133C917.455 851.125 914.407 861.047 911.508 870.92C901.937 903.522 890.614 935.386 879.49 967.472C872.945 986.346 866.316 1004.78 860.841 1024L844.536 1024C850.707 985.357 853.869 945.819 856.295 906.761C857.048 894.654 858.893 879.402 858.221 867.582C856.814 873.692 856.641 880.336 855.871 886.586C854.169 899.827 852.553 913.079 851.025 926.341C847.153 958.964 842.751 991.521 837.821 1024L758.419 1024C762.574 1008.68 768.572 993.648 773.924 978.698C776.234 972.243 779.071 965.501 780.515 958.792L780.136 958.514C775.644 967.366 772.601 977.531 768.987 986.83C764.13 999.324 758.72 1011.59 753.663 1024L694.803 1024C706.725 1014.4 717.114 1004.59 727.241 993.066C743.201 974.705 758.332 955.64 772.589 935.928C776.654 930.363 782.032 924.096 784.922 917.839C785.5 916.588 785.698 915.574 785.543 914.177C785.263 911.671 783.392 909.924 781.223 908.931C774.766 905.974 765.862 905.823 758.778 904.611C749.92 903.151 741.133 901.286 732.445 899.023C720.029 895.733 708.789 890.337 697.29 884.778C670.925 872.033 650.074 859.608 626.074 842.909C628.808 832.086 632.609 821.516 635.509 810.726C643.746 780.077 650.176 749.398 653.577 717.793C654.918 705.324 656.41 691.902 655.31 679.381C654.293 667.81 649.85 656.634 647.922 645.197C659.887 652.331 669.334 664.868 677.696 675.843C683.969 684.074 689.422 692.614 694.55 701.596C707.978 725.12 719.817 749.65 732.193 773.736C738.099 785.232 743.775 796.777 749.503 808.359C752.274 813.963 755.6 819.662 757.887 825.468C758.488 826.997 759.576 829.927 759.024 831.56C756.041 840.386 692.065 863.477 679.636 871.074C682.981 873.099 686.341 874.751 689.911 876.349C694.499 874.703 699.488 873.694 704.194 872.381C711.915 870.204 719.578 867.827 727.176 865.252C736.693 862.029 746.37 858.741 755.651 854.887C765.137 850.947 774.347 846.367 783.812 842.37C769.731 823.861 758.859 802.699 747.358 782.534C738.268 766.595 727.995 751.367 718.516 735.669C702.435 709.038 688.113 682.047 667.138 658.745C659.264 649.997 650.131 643.215 641.427 635.413C644.742 646.106 647.768 657.379 649.917 668.351C653.052 684.364 650.643 704.764 648.685 720.941C639.469 797.118 613.461 871.002 582.12 940.697C569.584 968.575 554.977 998.557 538.001 1024L499.489 1024C490.246 1008.42 479.891 993.615 471.488 977.504C459.651 954.81 449.58 931.686 439.738 908.087C428.055 880.07 416.717 851.249 407.999 822.179C398.08 788.614 391.056 754.26 387.002 719.495C384.896 701.655 382.824 683.717 384.52 665.752C385.496 655.411 386.985 643.426 391.637 634.03C395.02 627.196 404.436 618.023 405.491 610.481C405.531 610.196 405.555 609.909 405.587 609.623C402.462 612.909 398.716 620.436 396.075 622.311C385.433 629.87 379.516 640.929 369.443 648.901C364.315 652.96 358.68 656.727 353.077 660.091C347.177 663.634 335.138 668.941 330.954 673.625C325.761 679.439 320.843 691.844 317.218 698.944C311.414 710.152 305.534 721.32 299.581 732.449C291.937 746.595 283.917 760.58 276.174 774.681C270.104 785.735 264.333 796.978 258.076 807.926C255.27 812.897 252.332 817.792 249.266 822.607C246.153 827.402 242.227 832.213 240.051 837.505C246.313 840.213 253.482 841.628 260.037 843.605C285.654 851.327 311.788 856.407 336.747 866.295C339.847 867.524 344.751 868.9 346.934 871.417L346.861 872.382C345.935 873.317 345.006 873.869 343.792 874.351C340.41 875.693 336.39 875.186 332.896 874.522C320.713 872.205 308.828 867.269 297.143 863.174C280.466 857.331 263.531 851.624 247.275 844.686C244.002 843.289 237.671 840.859 236.281 837.365C236.463 835.071 237.06 833.141 237.976 831.046C243.33 818.806 250.51 807.075 256.58 795.133C272.102 764.157 288.258 733.504 305.038 703.191C309.02 696.096 313.51 689.335 317.717 682.379L318.195 682.248L318.415 681.503L318.195 682.248L317.717 682.379C310.969 686.381 304.121 697.377 299.585 703.998C275.407 739.291 255.715 777.19 237.07 815.646C232.959 824.125 226.335 835.567 224.241 844.56C224.179 844.824 224.127 845.089 224.07 845.354C229.905 848.237 236.876 849.698 243.056 851.888C261.032 858.418 279.253 864.254 297.678 869.383C310.877 873.071 324.671 875.906 337.544 880.564C321.952 888.179 306.181 895.765 290.044 902.155C278.833 906.595 265.367 910.645 254.751 915.674C258.427 925.828 263.912 934.954 269.401 944.191C287.429 974.527 308.584 1000.95 335.394 1024L191.276 1024C180.942 984.154 178.121 937.87 175.996 896.691C175.507 887.248 175.095 877.802 174.762 868.354C174.588 862.399 175.263 855.518 173.823 849.78C173.213 853.14 173.486 856.98 173.409 860.427C173.221 868.886 173.093 877.303 173.23 885.765C173.98 932.121 176.964 978.148 184.119 1024L27.6454 1024C30.4897 1006.85 31.669 989.268 33.9824 972.025C39.1451 933.543 45.9185 895.616 55.9655 858.079C61.1803 838.596 67.0917 818.879 75.4157 800.476C79.3563 791.763 84.2755 778.87 91.1881 772.362C106.883 757.586 153.193 747.33 174.709 740.972C192.197 735.805 209.799 730.465 226.855 724.007C211.589 707.852 197.376 699.584 186.089 678.918C181.18 669.932 177.217 660.307 175.224 650.234C166.013 603.683 183.149 525.127 196.498 479.432C189.715 488.69 183.43 498.303 177.668 508.229C155.536 545.767 136.343 587.533 133.983 631.702C133.391 642.779 133.782 654.368 136.639 665.14C137.829 669.627 139.502 674.364 142.099 678.246C150.626 690.99 169.657 700.916 182.821 708.56L182.719 708.813C170.309 704.594 155.424 696.403 145.239 688.164C124.982 671.774 116.941 643.707 114.226 618.808C107.939 561.153 143.057 509.43 170.181 461.743C185.962 433.998 201.53 406.389 212.51 376.299C222.938 347.721 228.51 317.495 234.314 287.719C247.732 218.89 263.441 152.716 308.455 96.773C346.502 49.4899 403.245 17.1748 462.662 5.82935C473.71 3.70326 484.864 2.17162 496.076 1.24103C502.426 0.720053 508.853 0.678335 515.177 0ZM598.503 32.5025L599.5 33L600.125 33.2881C608.317 38.5651 616.761 43.326 624.829 48.8365C652.79 67.9339 676.945 91.8621 694.955 120.621C699.281 127.529 705.204 136.186 706.913 144.156C707.115 145.1 707.181 145.694 706.798 146.608C705.822 146.83 705.69 146.76 704.847 146.257C701.9 144.496 700.459 140.156 697.893 137.76L697.624 137.502L697.893 137.76L698.029 138.201C699.145 141.706 701.984 145.21 700.848 148.895L699.861 149.729C698.41 149.495 698.492 149.147 697.554 148.083C697.226 149.205 697.345 150.072 697.447 151.218C691.154 159.903 682.263 165.466 671.906 168.18C682.395 169.083 686.027 168.515 695.194 162.833C699.539 167.459 702.187 172.124 705.064 177.716C705.024 177.54 704.986 177.363 704.944 177.187C703.631 171.777 700.459 167.107 700.277 161.418C700.992 160.386 701.05 160.118 702.21 159.699C706.616 162.058 707.983 172.356 711.135 176.456L711.417 176.998L711.135 176.456C709.418 170.057 707.081 163.735 704.784 157.524C707.13 155.934 708.475 154.598 709.866 152.154L710.18 152.793C713.911 160.469 716.587 168.98 719.555 176.99C735.492 219.997 742.512 261.524 733.804 307.063C732.219 315.42 730.177 323.684 727.686 331.817C726.856 334.506 724.275 340.022 724.519 342.655C728.936 332.848 731.705 322.71 733.991 312.23C741.74 276.695 740.116 240.94 731.533 205.724C728.742 194.606 725.6 183.579 722.11 172.66C720.358 167.321 718.235 162.09 716.568 156.731C731.762 180.738 738.12 208.881 746.59 235.625C746.545 236.121 746.716 236.461 746.873 236.926C746.922 236.23 746.938 236.674 746.59 235.625C746.322 230.308 744.786 224.679 743.566 219.485C738.332 197.191 729.337 169.523 719.224 148.986C715.188 140.79 710.04 132.797 704.777 125.335C682.61 93.9088 651.439 63.0805 618.877 42.5108C613.427 39.068 606.537 34.3988 600.125 33.2881L599.5 33L598.503 32.5025ZM417.372 40.3613L416.002 40.4833L417.372 40.3613L417.998 39.5025L417.372 40.3613ZM414.967 40.7528C407.811 42.8543 400.652 46.8954 394.068 50.3859C353.728 71.7725 316.829 107.449 294.982 147.594C275.461 183.464 266.701 228.372 259.801 268.363C258.882 273.686 256.089 286.92 256.531 291.433L257.458 290.591C257.446 290.376 257.428 290.161 257.422 289.946C257.208 282.806 264.272 257.299 266.347 249.134C273.738 222.312 280.916 194.255 293.51 169.283L294.178 169.169L294.272 168.318C293.73 174.529 290.27 184.014 288.381 190.162C295.394 181.249 304.346 173.535 309.797 163.515C306.675 164.89 302.937 166.935 299.442 166.473L298.603 165.699C298.837 164.262 299.846 163.057 300.632 161.863C298.815 161.873 296.66 165.599 294.529 166.361C293.935 165.657 294.034 166.03 294.115 165.106C294.516 160.56 298.057 153.873 299.958 149.573C313.682 118.535 335.343 93.6351 361.942 72.802C371.853 65.0389 382.716 57.7708 393.831 51.8494C399.872 48.6314 409.936 44.7177 414.967 40.7528L415.497 40.5025L414.967 40.7528ZM550.595 44.0342L550.88 44.2114C550.951 44.3309 551.021 44.4513 551.093 44.5698C553.231 48.0553 556.139 51.2559 558.69 54.4541C563.76 60.8112 568.952 67.106 573.803 73.6322C591.961 98.063 609.281 123.791 623.06 150.955C624.785 154.356 629.389 161.348 629.183 164.862C628.891 164.816 628.6 164.762 628.306 164.723C627.12 164.568 627.586 164.528 626.553 164.901C626.571 165.105 626.592 165.309 626.607 165.512C626.677 166.464 626.663 166.101 626.571 167.16L625.64 167.694C622.283 164.891 611.11 135.739 606.766 129.923C606.833 134.063 616.212 154.309 618.502 159.369C619.66 161.926 621.841 165.305 622.276 168.023C621.223 168.346 620.632 168.433 619.543 168.248C617.808 165.502 616.86 162.404 614.89 159.811L614.613 159.502L614.89 159.811C615.804 163.237 617.055 166.559 618.243 169.897C603.116 179.281 583 181.473 565.669 178.518C582.356 186.124 591.502 182.907 608.735 181.639C613.19 181.311 617.444 181.707 621.877 181.832C623.161 180.88 623.249 180.631 624.82 180.683C629.4 184.489 632.236 194.865 634.329 200.355C648.196 236.736 657.573 272.521 663.989 310.946L664.372 311.498L663.989 310.946C663.616 300.751 661.254 290.16 659.258 280.171C652.649 247.106 643.651 213.999 630.982 182.711C634.909 186.953 637.548 192.056 641.232 196.472L641.618 197.215L641.913 197.498L641.618 197.215L641.232 196.472C639.087 191.199 637.535 185.817 635.653 180.459C641.479 189.129 645.567 198.729 650.039 208.132C660.372 229.952 669.895 252.147 678.589 274.67C681.103 281.153 684.725 288.514 685.826 295.36L686.276 295.501C685.957 290.249 683.218 284.624 681.666 279.569C676.588 262.849 671.164 246.237 665.397 229.742C662.761 222.351 658.812 214.908 656.886 207.343C662.196 214.297 665.942 224.223 669.745 232.116C678.716 250.737 687.506 269.334 694.927 288.647C700.681 303.621 705.329 318.913 710.696 334.012C710.555 333.065 710.394 332.121 710.213 331.18C707.941 318.948 704.189 306.631 700.932 294.612C691.961 261.515 680.62 228 665.748 197.064C658.653 182.303 649.657 167.942 640.911 154.101C621.643 123.607 603.764 97.8133 578.664 71.6733C571.842 64.5686 558.277 49.3276 550.88 44.2114L550.595 44.0342ZM475.598 61.2867C471.556 65.5087 468.399 70.9346 465.556 76.0073C450.83 102.285 443.226 137.614 443.908 167.708C444.103 176.32 444.544 185.132 445.796 193.66C449.237 217.106 456.291 240.405 464.034 262.736C468.018 274.226 472.217 286.189 477.847 296.992L478.386 297.372C478.116 294.834 476.276 292.305 475.423 289.876C473.532 284.487 471.725 278.932 470.048 273.47C463.149 251.001 459.36 227.178 457.618 203.769C457.366 200.392 456.575 196.484 456.733 193.156C460.492 208.177 470.466 250.777 478.68 262.96L478.954 263.498L478.68 262.96C476.898 254.916 473.586 246.986 471.446 238.978C467.959 225.927 465.347 212.619 462.08 199.508C460.225 192.065 457.721 185.072 456.954 177.369L457.838 178.735C459.271 180.937 464.149 189.798 466.397 190.272L466.232 188.436L466.738 187.96C471.051 189.293 474.147 193.217 478.791 194.11C480.111 193.64 480.36 192.816 481.129 191.695C485.034 190.995 488.73 189.354 492.571 188.396C502.01 186.043 510.509 185.086 518.867 179.615C515.184 180.557 511.349 180.962 507.616 181.703C500.437 183.129 492.913 185.294 485.619 185.699C474.905 186.295 464.241 178.722 456.614 171.896C453.869 142.3 455.981 112.905 465.932 84.735C468.758 76.7351 472.468 69.153 475.598 61.2867L475.877 61.0025L475.598 61.2867ZM680.588 71.5025L680.855 71.7C684.901 76.6267 689.485 81.0941 693.623 85.9443C706.502 101.039 718.612 117.247 728.44 134.513C775.383 216.973 771.772 332.96 762.741 424.809C759.641 459.227 753.611 493.317 744.717 526.71C740.948 541.217 736.887 555.967 730.938 569.752C720.985 592.816 705.558 616.643 685.967 632.683C682.249 635.727 677.433 638.731 674.248 642.231L673.889 642.58L672.71 643.188L672.408 643.594L671.221 644.167L670.884 644.586L669.742 645.2L669.385 645.578L668.263 646.183L668.009 646.419L668.263 646.183L669.385 645.578L669.742 645.2L670.884 644.586L671.221 644.167L672.408 643.594L672.71 643.188L673.889 642.58L674.248 642.231C689.167 635.352 708.189 612.33 717.486 598.36C750.514 548.734 765.466 471.184 769.69 412.379C771.847 382.352 771.694 352.008 770.836 321.938C769.907 289.368 768.174 255.873 761.724 223.881C751.494 173.144 736.236 136.406 703.701 95.8712C697.33 87.9332 689.316 77.329 680.855 71.7L680.588 71.5025ZM439.718 100.268C434.471 106.521 430.477 114.911 426.654 122.104C420.757 133.199 414.966 144.53 410.614 156.341C401.607 180.785 394.795 218.497 396.714 244.497C398.284 241.534 398.449 221.789 399.093 216.478C401.215 198.968 405.016 181.17 409.982 164.262C414.36 149.352 421.328 135.206 428.558 121.508C431.353 116.213 438.463 105.599 439.718 100.268L439.959 100.002L439.718 100.268ZM539.618 150.002L539.865 150.279C542.493 157.561 547.484 164.803 551.331 171.574C571.045 206.273 590.449 233.553 616.999 263.179C620.609 267.207 624.46 272.551 628.755 275.759L629.066 276.106C629.552 277.222 629.554 277.351 630.592 277.957C630.286 276.759 630.012 276.823 629.066 276.106L628.755 275.759C625.74 270.102 619.755 264.456 615.626 259.512C600.214 241.262 586.04 222.002 573.198 201.86C565.483 189.626 558.029 177.287 550.083 165.188C546.823 160.223 543.691 154.801 539.865 150.279L539.618 150.002ZM390.446 179.77C381.978 182.18 369.98 185.336 361.683 180.672C360.89 180.226 360.336 179.65 359.723 178.99C359.5 177.594 359.809 175.451 358.993 174.372C355.508 175.267 351.744 178.755 348.908 180.932C347.141 181.053 345.359 181.132 343.599 181.327C356.759 128.915 387.742 82.5085 434.568 54.4989C456.988 41.0876 483.687 29.9851 509.467 25.4142L509.324 25.1828C496.264 25.9845 484.212 30.1368 472.07 34.701C429.505 50.7021 394.568 75.8586 364.561 109.833C355.028 120.626 346.015 131.98 338.368 144.201C314.045 183.072 296.95 236.797 299.803 282.954C300.894 300.598 304.39 324.933 312.654 340.409L312.923 340.998L312.654 340.409C312.383 336.518 311.152 332.384 310.396 328.537C308.806 320.776 307.517 312.957 306.531 305.096C305.366 295.181 304.755 285.014 305.042 275.03C305.706 251.922 311.512 213.595 322.141 193.109C321.726 197.418 320.004 201.909 318.965 206.133C318.045 209.874 317.548 213.712 317.094 217.533C314.407 240.152 315.488 263.986 317.267 286.64C318.821 280.953 317.984 270.67 318.831 264.191C321.838 242.024 327.795 220.358 336.543 199.769C338.326 195.498 339.955 190.67 342.785 186.984L343.263 186.995C344.045 188.419 343.962 188.936 343.956 190.522L344.648 190.365L344.268 189.891L344.408 189.608L345.436 189.74L346.725 188.199C346.601 191.373 346.214 194.518 345.86 197.672C349.275 193.307 352.489 189.19 357.52 186.577C359.618 185.488 363.257 183.992 365.621 184.782C366.367 186.488 365.267 188.402 365.716 190.274L366.739 190.002C367.676 189.11 368.057 188.458 368.54 187.243C368.851 186.459 368.927 186.068 369.524 185.463C369.683 186.244 369.88 186.912 370.188 187.648C374.371 187.505 386.818 182.079 390.446 179.77L390.998 179.502L390.446 179.77ZM560.615 199.002L560.855 199.749L561.404 199.998L560.855 199.749L560.615 199.002ZM561.574 200.502L561.777 201.26L562.8 202.31L563.128 203.253L563.604 203.625L564.193 204.85L564.708 205.565C565.349 207.311 565.9 208.186 567.266 209.457L567.404 209.772C569.917 215.81 590.004 245.586 594.883 249.507C595.214 251.085 596.525 252.33 597.74 253.311L598.084 253.587L599 255L599.656 255.709L600.501 257L601.17 257.703L602.007 258.993L602.656 259.705L603.518 260.981L604.181 261.695L604.576 262.164L605.222 263.298L605.604 263.577L606.101 264.209L606.724 265.269L607.103 265.587L607.634 266.174L608.535 267.468L609.174 268.2L609.566 268.671L610.239 269.775L610.615 270.061L610.997 270.498L610.615 270.061L610.239 269.775L609.566 268.671L609.174 268.2L608.535 267.468C608.313 267.02 607.928 266.58 607.634 266.174L607.103 265.587L606.724 265.269L606.101 264.209L605.604 263.577L605.222 263.298L604.576 262.164L604.181 261.695L603.518 260.981C603.304 260.54 602.939 260.108 602.656 259.705L602.007 258.993C601.793 258.514 601.476 258.127 601.17 257.703L600.501 257C600.296 256.555 599.934 256.115 599.656 255.709L599 255C598.763 254.479 598.416 254.051 598.084 253.587L597.74 253.311C597.124 251.807 596.434 250.212 594.883 249.507C593.584 246.673 569.444 211.645 567.404 209.772L567.266 209.457C566.626 207.808 565.967 206.808 564.708 205.565L564.193 204.85L563.604 203.625L563.128 203.253L562.8 202.31L561.777 201.26L561.574 200.502ZM386.73 225.841C386.536 226.312 386.269 226.797 386.211 227.304C383.703 232.421 382.635 239.279 381.649 244.896C377.185 270.335 376.462 301.535 384.969 326.267C385.378 327.456 385.899 328.45 386.584 329.505L387.29 328.98C380.566 301.057 378.424 278.951 381.967 250.238C382.905 242.634 385.739 234.85 386.211 227.304C386.428 226.97 386.601 226.229 386.73 225.841L386.875 225.502L386.73 225.841ZM528.599 131.169C528.074 140.049 529.923 149.93 531.155 158.726C535.716 191.275 542.334 223.244 552.592 254.507C554.1 259.103 555.399 264.37 557.72 268.613L557.882 269.129L557.72 268.613C556.778 263.259 554.846 257.786 553.465 252.509C550.414 240.855 547.401 229.077 544.919 217.29C541.528 201.138 538.318 184.948 535.29 168.724C533.091 156.257 531.444 143.492 528.599 131.169ZM455.6 272.502L455.886 273.106C458 288.841 468.269 314.845 475.353 329.228C478.204 335.017 481.898 340.422 484.68 346.202C479.313 341.837 475.892 335.719 470.643 331.18C470.405 330.974 470.171 330.763 469.935 330.554C472.391 334.536 474.765 338.839 477.721 342.463C471.419 338.467 464.021 335.905 457.237 332.781C442.98 326.217 428.283 318.667 413.392 313.704C414.701 320.584 415.697 327.779 417.626 334.502C439.427 340.517 460.105 347.035 471.923 368.012C472.43 368.914 472.909 369.831 473.358 370.763C461.235 357.161 446.047 346.641 429.051 340.075C426.636 339.119 423.308 337.317 420.769 337.198C419.558 337.141 419.33 337.328 418.392 338.002C418.296 339.17 418.306 339.589 419.157 340.547C420.744 342.333 424.707 343.035 426.963 343.782C444.4 349.557 454.625 356.445 464.173 372.276C465.742 374.877 469.294 380.313 469.218 383.305C469.19 384.388 468.91 384.729 468.178 385.458C466.015 383.752 466.669 380.336 464.729 378.589C463.919 379.398 464.089 379.402 463.961 380.466C461.186 382.475 460.681 386.523 458.327 388.932C459.599 386.009 460.929 383.113 462.316 380.243C457.682 373.778 452.042 367.618 444.742 364.178C443.605 373.615 441.18 382.265 433.425 388.525C427.594 393.139 420.149 395.204 412.775 394.254C403.725 393.154 395.535 387.912 390.086 380.712C385.131 374.164 382.396 365.962 383.769 357.736C384.185 355.244 385.154 352.828 386.095 350.494C378.531 352.54 367.241 354.967 361.815 360.857C360.224 365.243 363.674 372.767 365.562 376.792C370.745 387.841 380.162 395.544 391.582 399.652C400.788 402.964 411.078 403.919 420.779 402.937C424.417 402.568 428.119 401.54 431.774 401.766C430.871 402.429 431.365 402.28 430.459 402.307C426.174 402.437 422.249 404.163 418.266 405.608L418.063 405.865C420.592 405.618 425.703 404.081 427.867 404.688C424.848 405.792 421.844 406.936 418.856 408.119L421.588 407.624C412.599 410.908 402.725 409.404 393.427 408.3C392.133 409.673 390.873 411.134 389.41 412.329C386.985 412.667 384.616 412.951 382.163 413.032C384.19 410.925 386.184 408.836 388.021 406.558C387.036 406.013 387.53 406.16 386.564 406.036L385.789 405.299L385.101 405.059L385.789 405.299L386.564 406.036L386.098 406.525C384.68 406.943 384.039 406.309 382.756 405.699C377.081 408.424 372.407 412.391 367.531 416.305C369.769 411.218 371.934 407.054 375.532 402.8C370.569 405.488 364.845 407.459 359.57 409.461C363.254 405.015 367.605 401.167 372.469 398.056C370.644 396.501 367.064 394.033 366.657 391.661C369.923 394.103 371.659 397.79 376.008 398.44L376.278 398.121C370.135 392.965 364.372 387.529 359.524 381.111C355.503 375.789 351.872 369.216 346.916 364.73C344.395 362.449 340.725 360.618 337.917 358.578C343.869 359.259 349.928 358.675 355.89 358.347C348.422 354.846 343.728 351.834 339.223 344.647C341.908 345.755 344.375 347.373 347.137 348.298C348.984 348.916 350.408 349.13 352.234 348.261C351.055 345.91 348.685 344.428 347.546 342.081C347.08 341.121 347.124 341.558 347.481 340.57C349.211 340.719 351.022 342.964 352.755 343.717C356.221 345.223 360.161 345.701 363.775 347.242C363.02 346.45 363.318 346.711 362.58 346.102C359.359 343.443 356.772 341.072 354.502 337.526C359.292 339.597 363.456 341.816 368.519 343.293L368.938 343.044C365.64 341.138 363.662 337.325 361.563 334.226C351.631 336.218 341.309 336.795 331.209 337.298C332.966 350.658 338.401 363.696 341.517 376.84C344.709 390.306 346.662 404.054 349.914 417.51C354.983 438.486 362.675 458.309 370.912 478.217C373.836 485.284 376.507 492.893 380.21 499.572C383.947 506.314 389.53 513.424 394.496 519.326C412.853 541.143 469.566 582.209 496.137 593.428C501.848 595.839 507.751 597.46 513.94 597.972C520.565 598.52 527.569 598.251 533.97 596.331C554.81 590.082 590.351 562.839 607.147 548.458C622.499 535.313 639.747 518.479 650.516 501.311C656.157 492.319 659.73 481.773 663.47 471.885C670.607 453.019 676.566 434.135 682.265 414.787C686.588 400.11 690.888 385.299 693.897 370.291C695.221 363.691 696.015 357.101 696.533 350.395C687.55 344.538 677.201 338.709 669.326 331.468C669.881 332.768 670.528 334.208 670.714 335.619C671.171 339.086 668.044 342.189 666.084 344.706C667.019 344.291 667.954 343.866 668.975 343.724C673.368 343.115 676.328 341.838 680.238 339.787C678.446 343.154 676.294 345.876 673.845 348.776L673.503 348.945L673.845 348.776C677.885 347.211 680.85 345.755 683.977 342.615C682.46 345.542 680.722 347.8 678.916 350.501C678.386 351.294 677.65 351.775 676.9 352.347C679.463 352.187 681.723 350.448 684.245 350.598L684.815 351.492C684.099 354.069 680.629 356.637 678.345 357.886C676.854 358.701 675.28 358.693 673.652 358.982L673.812 359.472C676.666 359.725 684.376 359.498 686.396 361.33C686.505 361.429 686.584 361.557 686.677 361.671C686.267 362.912 685.662 363.247 684.547 363.849C680.656 365.947 676.035 366.646 671.751 367.544C674.089 367.825 676.452 367.86 678.471 369.168L678.672 369.561L678.215 370.554L678.394 369.415L677.944 370.656C675.746 371.163 674.094 370.324 672.068 369.583C669.675 374.991 666.599 380.16 663.885 385.419C664.509 386.577 664.119 386.048 665.061 386.999L664.744 387.94C663.667 388.469 662.628 388.155 661.497 387.974C659.371 389.311 657.799 391.754 656.228 393.694C658.094 393.965 659.554 394.136 661.164 395.159C658.934 396.176 654.651 394.526 653.286 396.786C654.852 399.767 659.48 402.025 661.857 404.781C657.133 404.084 649.603 401.565 645.043 402.951C645.676 405.134 648.433 406.057 649.175 408.383C644.71 411.772 634.945 406.301 629.52 408.607C630.736 409.182 631.968 409.687 633.01 410.552C631.078 413 625.295 413.761 622.263 414.117C621.835 414.167 621.406 414.214 620.976 414.258L620.5 413.866C621.344 412.712 621.873 412.534 623.037 411.819C623.223 411.705 623.379 411.548 623.551 411.413C621.532 410.833 619.51 410.652 617.474 410.183C620.982 409.892 624.301 409.286 627.766 408.731C626.526 408.497 625.686 408.646 624.461 408.836C609.524 411.146 587.286 406.896 574.412 398.928C579.217 400.548 584.06 402.476 588.969 403.736C585.424 401.935 580.65 400.255 577.57 397.841C583.331 399.547 588.834 402.083 594.603 403.78C608.236 407.791 623.239 406.078 636.281 400.761C647.763 396.08 657.031 390.156 661.855 378.326C663.636 373.959 665.654 367.739 663.587 363.224C661.277 358.181 650.033 354.053 644.976 352.149C648.263 358.709 649.662 365.659 647.297 372.809C644.601 380.959 638.018 387.695 630.34 391.349C623.333 394.684 615.639 395.203 608.316 392.481C594.839 387.473 591.949 374.999 586.48 363.273C581.728 366.321 569.517 373.841 567.818 379.514C566.847 382.754 568.723 385.492 570.154 388.251C566.471 384.848 568.146 382.483 566.034 379.194C564.366 379.671 562.95 382.048 561.563 383.284L561.302 382.705L560.894 382.751C560.177 383.643 559.778 384.07 559.551 385.232C559.341 386.304 560.046 386.885 560.613 387.751C559.803 387.427 559.189 387.037 558.482 386.529C558.334 386.014 558.195 385.664 558.231 385.095C558.422 382.068 563.129 375.28 564.988 372.676C581.15 350.029 613.596 343.064 639.701 341.453C644.959 341.128 650.238 340.809 655.505 340.669C658.468 340.59 661.672 340.948 664.588 340.576C665.745 340.429 667.502 339.874 668.383 339.086C669.298 338.269 669.362 338.011 669.397 336.878C667.992 334.284 648.736 324.182 644.485 321.375C639.075 317.803 633.994 313.863 628.908 309.853C618.679 313.949 608.315 318.461 598.44 323.351C599.204 324.668 599.926 325.988 600.611 327.349C600.007 328.665 598.465 327.924 597.174 329.271C595.324 328.673 593.735 326.581 592.385 325.208C590.526 325.958 586.302 327.829 585.395 329.49L586.759 330.699L586.315 331.254C585.65 331.197 584.949 331.173 584.289 331.074C577.796 330.1 566.293 337.044 559.654 339.279C555.608 340.642 551.696 341.369 547.471 341.978C551.114 339.284 555.132 336.574 558.247 333.284L558.497 333.028L558.247 333.284C551.69 335.829 546.222 340.999 539.666 343.838C543.557 339.907 548.37 336.747 553.131 333.968C556.805 331.823 571.916 324.939 573.676 322.546C573.314 321.313 573.116 320.684 572.145 319.82C558.449 329.175 536.54 331.334 520.211 333.402C515.038 328.071 510.035 322.457 505.852 316.303C504.105 313.733 501.893 308.119 499.606 306.497C500.058 310.837 508.047 326.761 510.968 330.687C512.431 332.652 514.375 334.26 516.212 335.866C513.157 334.561 510.457 333.069 507.66 331.28C501.868 332.196 496.024 332.745 490.163 332.921C473.446 317.398 464.624 293.604 455.886 273.106L455.6 272.502ZM436.246 136.996C435.067 149.747 433.342 162.374 432.718 175.186C431.408 202.051 434.538 230.071 440.842 256.187C442.461 262.891 443.676 271.033 446.71 277.197L446.877 277.664L446.71 277.197C446.246 270.432 442.505 259.231 440.976 252.103C438.265 239.468 436.59 226.081 435.739 213.172C434.821 197.561 434.618 181.916 435.129 166.286C435.403 159.443 437.595 141.402 436.745 136.13L436.246 136.996ZM686.712 296.634L687 297.5L687.708 299.424L687.912 299.998L687.708 299.424L687 297.5L686.712 296.634ZM279 301L278.684 301.629C270.118 317.799 261.793 333.997 252.461 349.76C247.453 358.219 241.847 366.338 236.482 374.575C231.797 381.77 227.345 389.117 222.633 396.294C216.675 405.368 209.993 414.02 203.811 422.955C173.005 467.482 142.663 512.753 127.771 565.461C124.704 576.319 121.398 588.358 120.395 599.586L120.209 600.119L120.395 599.586C122.664 592.113 124.436 584.486 126.704 577.003C131.595 560.616 137.915 544.69 145.592 529.408C153.667 513.588 163.258 498.806 172.576 483.713C182.954 466.9 193.097 450.032 203.829 433.434C213.078 419.129 222.778 405.101 231.835 390.678C243.853 371.542 255.204 351.421 265.161 331.119C269.494 322.285 276.09 310.962 278.684 301.629L279 301L279.498 300.002L279 301ZM263 370L262.672 371.001C258.987 376.489 257.28 384.253 255.44 390.605C242.716 434.529 244.803 486.381 253.549 530.9C257.633 551.69 264.674 570.657 274.106 589.586C276.167 593.722 278.458 599.27 281.797 602.532C282.344 603.39 282.066 603.103 282.5 603.5L283.233 604.903L284 606L284.715 607.308L285.107 607.573L285.689 608.825L286.116 609.066L286.67 610.318L287.11 610.572L287.67 611.784L288.09 612.106L288.696 613.3L288.981 613.497L288.696 613.3L288.09 612.106L287.67 611.784L287.11 610.572L286.67 610.318L286.116 609.066L285.689 608.825L285.107 607.573L284.715 607.308L284 606C283.822 605.619 283.484 605.244 283.233 604.903L282.5 603.5C282.337 603.16 282.027 602.832 281.797 602.532C280.474 597.461 276.58 592.131 274.285 587.314C269.654 577.593 265.417 567.469 262.123 557.208C249.6 518.204 245.027 451.521 251.939 411.33C254.329 397.435 259.335 384.589 262.672 371.001L263 370L263.464 369.002L263 370ZM632.647 377.707L631.455 376.063C625.729 375.718 624.126 383.733 616.811 381.534C616.632 381.732 616.467 381.944 616.274 382.128C615.964 382.423 615.499 382.769 615.122 382.983L615.572 381.709C614.7 380.863 612.825 380.286 611.602 380.195C610.218 380.091 609.897 380.587 608.966 381.449C608.484 382.982 608.523 383.527 608.96 385.003L609.8 385.891L610.576 385.773L611.246 384.82L612.1 385.2L612.412 386.223C612.845 385.727 612.737 386.02 612.703 385.332C613.591 384.95 613.543 385.098 614.105 384.191C614.027 384.47 613.684 385.622 613.685 385.883C613.686 386.958 614.236 387.125 615.029 387.6C616.456 388.455 617.785 388.035 619.257 387.632C620.252 386.199 620.079 385.048 620.198 383.33L620.813 383.501C620.815 384.709 620.834 385.918 620.871 387.126C622.095 387.784 623.756 387.572 625.098 387.254C630.622 385.944 634.948 381.447 637.695 376.721C635.699 374.622 633.535 372.834 631.296 371.005C631.612 373.274 632.132 375.478 632.647 377.707ZM419.384 379.943L421.297 378.415L421.287 377.788C419.238 378.438 417.692 379.442 415.931 380.657C415.779 380.676 415.626 380.699 415.473 380.713C405.257 381.634 398.955 371.207 393.853 370.268C393.134 370.135 393.294 370.329 392.68 370.963C392.787 373.629 395.521 376.904 397.466 378.608C398.314 379.351 398.599 379.594 399.737 379.769L400.498 379.211L400.776 379.68C400.576 380.288 400.173 380.78 400.564 381.367C402.282 383.949 409.857 386.089 412.911 386.48C414.565 386.692 416.172 386.631 417.822 386.441L418.583 385.572C419.221 386.409 418.937 386.232 419.744 386.67C420.701 387.189 422.035 386.889 423.031 386.57C426.121 385.58 430.986 383.186 432.517 380.226L432.105 379.675L430.264 380.298L429.9 379.125C428.511 377.891 426.799 376.036 424.907 375.753C423.798 375.587 423.479 375.703 422.704 376.434C423.348 377.586 424.144 378.68 424.149 380.039C423.077 380.637 420.672 380.074 419.384 379.943ZM308.693 385.245L308.428 385.596L308.154 385.842C305.301 388.034 303.393 390.886 302.764 394.464C304.532 391.745 306.897 388.801 308.154 385.842L308.428 385.596L308.693 385.245C310.558 383.959 311.838 382.179 314.147 381.586C315.069 381.348 315.482 381.879 316.264 382.323L317.102 382.028C316.886 381.779 316.69 381.511 316.455 381.28C315.635 380.474 314.985 380.079 313.802 380.303C311.518 380.735 309.803 383.414 308.693 385.245ZM324.217 405.862C323.833 406.729 323.577 407.526 323.598 408.492C323.724 414.504 328.588 421.575 332.84 425.408C331.772 426.455 331.12 427.214 329.525 427.292C326.104 427.46 322.663 425.218 320.416 422.841C317.354 419.603 315.586 415.439 315.807 410.952C316.033 406.366 317.905 402.383 320.287 398.565C319.931 400.862 318.493 405.074 318.969 407.117C320.161 407.061 320.063 406.804 320.847 405.981L320.996 403.435L321.348 403.481L322.28 405.247C323.393 405.29 323.932 405.299 324.895 404.714C324.625 399.282 320.117 389.329 317.598 384.262C311.993 390.4 302.509 402.05 302.744 410.85C302.865 415.41 306.043 419.051 309.3 421.915C314.675 426.641 320.347 430.791 325.232 436.069C316.643 430.963 302.844 423.548 300.027 413.339C297.969 405.884 299.157 394.277 303.149 387.647C305.182 384.272 307.939 381.697 310.823 379.068C309.094 376.392 307.25 374.346 304.987 372.119C293.606 381.003 292.517 398.424 288.777 411.281C286.883 396.711 289.221 377.017 298.513 365.033C299.182 364.17 299.863 363.328 300.611 362.532C306.663 367.057 310.394 372.955 314.943 378.858L314.776 378.204C313.195 372.193 305.455 352.483 302.361 347.465C300.484 347.464 299.146 348.718 297.837 349.989C285.349 362.108 282.249 383.317 282.309 399.825C282.345 409.59 282.786 416.554 290.114 423.764C295.533 429.096 301.466 434.393 307.676 438.774C313.21 442.678 319.142 446.08 324.529 450.18C331.273 455.312 337.179 461.391 343.472 467.04C347.336 470.509 351.581 473.527 355.465 476.966C352.2 470.494 349.312 463.928 346.608 457.203C344.849 452.827 343.382 447.863 340.974 443.851C340.522 442.942 340.213 442.336 339.419 441.69L338.068 441.918C338.78 443.233 339.621 443.285 340.974 443.851C339.49 444.332 338.824 443.769 337.396 443.222L337.059 443.522L338.261 445.248C336.813 445.115 335.534 444.07 334.523 443.087C332.972 441.581 331.792 440.152 331.779 437.934L332.79 437.229C334.895 437.089 336.702 437.989 338.631 438.731C336.833 434.267 335.081 429.667 332.84 425.408C331.456 421.036 327.847 408.749 325.165 405.563L324.217 405.862ZM783.101 467.06C780.337 474.827 779.518 483.552 777.375 491.552C775.71 497.767 773.742 503.927 771.826 510.069C770.969 512.816 769.779 515.649 769.269 518.47L769.01 518.997L769.269 518.47C775.569 510.296 782.794 478.42 783.101 467.06L783.376 466.502L783.101 467.06ZM666 506.5C663.744 508.391 663.243 515.623 662.492 518.711C659.296 531.708 655.672 544.596 651.626 557.355C649.916 562.872 646.452 570.911 645.693 576.354C645.611 576.935 645.642 577.527 645.689 578.109C652.485 560.252 658.592 541.763 663.238 523.236C664.513 518.154 666.136 512.62 666.511 507.395L666 506.5L666.785 505.953C667.464 504.354 667.567 502.64 667.778 500.931C667.179 501.25 666.691 501.653 666.156 502.068C665.47 503.557 665.802 504.935 666 506.5ZM840.665 521.655L841 523L841.375 523.497L841 523C841.002 522.533 840.805 522.098 840.665 521.655ZM841.618 525.966L841.833 526.829C841.995 532.248 843.453 537.899 844.102 543.321C844.899 549.992 844.852 564.838 846.964 570.206C847.493 560.992 845.159 535.401 841.833 526.829L841.618 525.966ZM344.578 500.667C343.532 505.131 349.594 542.982 351.638 548.178C351.545 548.813 351.562 548.387 351.886 549.432C351.951 548.757 351.958 549.183 351.638 548.178C351.4 544.35 345.298 502.106 344.578 500.667ZM659 576L658.292 577.417L657.878 578.243L657.503 578.997L657.878 578.243L658.292 577.417L659 576L659.497 575.003L659 576ZM645 579L644.286 580.983L644.003 581.497L644.286 580.983L645 579L645.497 578.003L645 579ZM457.47 580.809C458.161 581.822 459.172 582.182 460.24 582.693L460.46 582.907L460.24 582.693C460.099 582.486 459.971 582.269 459.816 582.073C458.944 580.969 458.808 580.949 457.47 580.809ZM485.618 600.384L485.75 601.194C486.85 601.049 487.756 600.747 488.798 600.383L488.998 600.929L488.798 600.383C487.981 599.713 487.82 599.618 486.781 599.449L485.618 600.384ZM755.582 613.495C754.492 614.265 754.841 613.755 754.5 615L753.813 615.688L753.39 616.124C752.56 616.871 752.383 616.89 752 618L751.312 618.688L750.883 619.117L750.381 619.67L749.908 620.173L749.592 620.497L749.908 620.173L750.381 619.67L750.883 619.117L751.312 618.688L752 618C752.949 617.327 752.986 617.222 753.39 616.124L753.813 615.688L754.5 615C755.608 614.283 755.244 614.782 755.582 613.495C759.551 610.863 767.02 598.902 768.271 594.428C765.77 595.68 757.195 610.218 755.582 613.495ZM673.26 626.311L672.915 626.586C672.532 627.071 672.242 627.425 672 628L671.328 628.702C671.017 629.12 670.692 629.498 670.48 629.977L670.003 630.497L670.48 629.977C670.805 629.619 671.067 629.112 671.328 628.702L672 628C672.38 627.572 672.628 627.079 672.915 626.586L673.26 626.311C676.945 623.63 682.106 615.85 683.297 611.441C680.721 613.259 674.422 623.108 673.26 626.311ZM260.597 626.503L260.807 627.251L261.789 628.312L261.961 628.915C262.26 630.069 262.666 631.017 263.202 632.083C270.799 647.172 289.641 677.346 305.816 682.636C303.949 680.782 301.436 679.18 299.361 677.543C294.696 673.865 290.405 669.938 286.713 665.266C280.443 657.333 274.857 648.583 269.324 640.129C266.966 636.525 264.838 632.092 261.961 628.915L261.789 628.312L260.807 627.251L260.597 626.503ZM725.566 630.253C717.514 647.403 707.139 667.616 690.88 678.184L698.278 682.172C702.69 684.716 707.067 687.386 711.557 689.785C716.718 676.999 725.215 643.377 725.566 630.253L725.874 630.003L725.566 630.253ZM525.123 628.21L524.991 628.443L525.258 629.199C526.591 630.25 527.603 630.772 529.22 631.276L529.497 631.462L529.22 631.276C528.291 630.091 526.967 629.016 525.873 627.967L525.123 628.21ZM668.175 632.207L668.003 632.974L668.175 632.207L668.997 631.537L668.175 632.207ZM700.003 690.503L700.253 690.763C707.712 699.587 713.805 710.027 719.895 719.828C726.632 730.671 733.555 741.395 739.739 752.571C749.083 769.459 757.414 787.061 766.365 804.177C772.448 815.809 781.82 835.853 790.181 845.358C778.167 855.271 741.787 871.408 726.544 877.616C722.135 879.412 717.607 881.225 713.059 882.633C711.099 883.241 708.478 883.282 706.689 884.163C706.266 884.371 706.159 884.557 705.893 884.881C706.282 885.295 706.312 885.375 706.882 885.701C709.525 887.212 712.343 886.284 715.004 885.468C745.579 876.963 773.069 862.326 801.49 848.665C798.557 842.973 794.917 837.621 791.591 832.153L772.066 800C761.458 782.329 713.549 696.719 700.253 690.763L700.003 690.503ZM536.086 821.289C531.217 828.116 526.283 835.962 517.282 837.559C510.073 838.837 496.909 834.672 491.052 830.27C482.403 823.768 480.037 811.209 478.86 801.146C478.222 795.699 478.039 775.116 476.395 772.081C475.36 771.304 474.875 770.896 473.488 770.967C472.468 771.018 471.532 771.438 470.709 772.008C468.727 782.052 475.28 811.668 478.526 822.016C480.127 827.119 482.041 832.184 484.897 836.728C499.28 839.32 514.393 839.109 528.981 838.92C531.727 833.783 534.821 826.956 536.086 821.289L536.374 821.003L536.086 821.289ZM94.8107 784.387C94.6778 785.106 94.5686 785.77 94.5183 786.5C94.0321 793.553 95.0554 801.041 95.6042 808.092C98.9982 851.69 111.716 892.828 128.543 933.009C133.543 944.949 138.543 956.759 144.44 968.293C148.19 975.628 153.289 987.159 158.605 993.229L158.874 993.497L158.605 993.229C157.079 986.869 153.619 980.264 151.191 974.151C146.719 962.872 142.442 951.517 138.361 940.09C132.204 922.465 126.412 904.714 120.991 886.849C112.693 860.266 104.526 833.443 99.1538 806.089C98.0047 800.238 97.322 794.334 96.3828 788.451C96.118 786.793 96.2084 785.396 94.8107 784.387ZM418.636 39.25L419.245 39.25L418.636 39.25ZM605.765 128.25L606.245 128.25L605.765 128.25ZM606.213 129.25L606.65 129.25L606.213 129.25ZM698.971 146.25L699.631 146.25L698.971 146.25ZM704.66 176.75L705.02 176.75L704.66 176.75ZM425.997 181.826C416.732 216.641 412.101 239.834 411.841 276.365C411.777 285.373 411.663 294.62 412.572 303.591C429.024 309.659 444.89 315.919 460.334 324.331C463.126 325.916 465.924 327.477 468.611 329.238C463.123 322.49 457.122 316.191 452.236 308.974C432.29 279.52 426.849 244.883 425.626 210.082C425.417 204.133 427.064 185.281 425.997 181.826ZM556.201 191.25L556.557 191.25L556.201 191.25ZM558.174 194.75L558.581 194.75L558.174 194.75ZM558.757 195.75L559.233 195.75L558.757 195.75ZM559.603 197.25L560.062 197.25L559.603 197.25ZM560.2 198.25L560.598 198.25L560.2 198.25ZM561.398 227.835C562.35 234.34 564.75 240.938 566.708 247.203C573.819 269.959 582.244 293.069 593.441 314.162C599.601 311.571 605.744 308.837 612.002 306.496L620.472 303.217C601.776 287.35 590.403 274.936 576.784 254.597C574.435 251.089 562.388 228.532 561.398 227.835ZM394.212 270.959C393.216 280.371 392.892 289.818 392.569 299.272C395.233 299.912 398.046 300.433 400.64 301.298L401.026 300.767C399.305 294.276 397.761 287.74 396.394 281.165C395.694 277.884 395.327 274.089 394.212 270.959ZM611.734 271.588L612.366 272.002L611.734 271.588ZM613.584 273.75L614.032 273.75L613.584 273.75ZM447.174 278.954L447.745 279.25L447.174 278.954ZM447.674 280.454L448.245 280.75L447.674 280.454ZM569.983 292.383C572.302 301.836 575.309 311.451 579.116 320.415L584.815 318.204L585.445 317.259C584.124 314.876 570.811 293.077 569.983 292.383ZM280.097 298.25L280.537 298.25L280.097 298.25ZM478.695 298.25L479.103 298.25L478.695 298.25ZM279.695 299.25L280.12 299.25L279.695 299.25ZM479.175 299.25L479.541 299.25L479.175 299.25ZM479.675 300.25L480.061 300.25L479.675 300.25ZM480.165 301.25L480.52 301.25L480.165 301.25ZM480.653 302.25L481.033 302.25L480.653 302.25ZM392.44 304.759C392.724 309.21 393.52 328.063 396.263 330.517C398.382 332.411 409.907 333.181 413.228 333.766C409.398 325.661 405.98 317.369 402.986 308.919C399.502 307.454 395.986 306.067 392.44 304.759ZM499.169 305.75L499.601 305.75L499.169 305.75ZM371.474 308.272C371.538 314.257 372.332 322.686 375.006 328.028C375.753 328.559 376.372 328.896 377.237 329.199C375.999 324.434 373.69 312.019 371.474 308.272ZM665.124 328.266C665.903 330.038 666.426 331.543 667.991 332.749C667.271 330.851 666.885 329.437 665.124 328.266ZM374.387 333.682C372.956 333.867 371.669 333.642 370.746 334.805C371.304 336.803 373.141 337.712 374.833 338.678C376.863 339.837 378.792 340.618 381.036 341.265C382.487 341.131 383.511 341.364 384.576 340.305C384.218 337.663 381.342 335.486 379.674 333.448C377.939 333.505 376.101 333.437 374.387 333.682ZM395.967 333.575C396.633 336.152 397.178 337.646 399.611 339.011C404.395 341.696 411.727 340.991 417.107 341.058C416.366 339.383 415.658 337.761 414.672 336.215C408.494 334.987 402.216 334.336 395.967 333.575ZM382.762 334.617L383.386 335.539L384.082 335.414L383.709 334.514L382.762 334.617ZM279.107 335.25L279.583 335.25L279.107 335.25ZM387.568 335.365C386.563 336.702 386.084 337.474 385.897 339.15C386.368 340.058 386.487 340.387 387.515 340.767C389.217 341.397 391.568 341.352 393.386 341.501C394.003 340.581 393.957 341.019 393.751 339.99C393.443 338.453 391.934 336.353 390.453 335.738C389.538 335.359 388.541 335.351 387.568 335.365ZM277.836 336.53C261.021 355.03 246.854 378.638 236.19 401.199C223.522 428 215.144 455.802 206.684 484.085C193.14 529.363 178.872 576.883 181.08 624.681C181.358 630.681 181.549 637.689 183.193 643.42C184.013 640.869 182.81 622.87 182.856 618.774C182.939 610.149 183.38 601.531 184.18 592.943C187.578 559.31 196.907 524.015 207.246 491.853C219.941 452.363 234.821 414.206 253.733 377.265C258.905 367.164 264.152 356.696 270.686 347.407C272.361 345.026 277.571 339.233 277.836 336.53ZM730.983 349.978C724.626 353.09 718.871 357.058 713.063 361.068C709.184 377.029 705.363 393.013 700.727 408.774C703.805 413.681 710.58 419.659 709.064 425.918C708.124 429.8 704.564 432.669 701.216 434.492C697.223 436.667 692.707 438.021 688.144 437.644C685.426 445.099 672.97 468.197 672.749 472.145C673.718 472.605 674.32 472.495 675.365 472.366C678.517 471.654 681.403 470.947 684.24 469.312C695.123 463.04 733.025 429.013 739.823 418.678C746.325 408.793 741.987 371.527 739.168 359.42C738.486 356.49 737.123 351.876 734.172 350.429C733.178 349.941 732.061 349.972 730.983 349.978ZM396.665 352.645C394.751 353.565 393.422 354.616 392.721 356.704C392.083 358.604 392.442 360.469 393.413 362.188C395.362 365.637 398.998 367.402 402.733 368.232C403.867 368.484 404.724 368.356 405.848 368.126C408.087 366.612 410.341 364.984 410.901 362.157C411.245 360.421 410.686 358.7 409.7 357.27C408.249 355.165 405.968 353.703 403.789 352.447C401.415 352.476 399.032 352.456 396.665 352.645ZM606.155 358.642C602.944 359.178 599.73 359.174 597.539 361.864C597.201 363.23 597.012 363.957 597.71 365.251C599.616 368.782 604.054 370.438 607.484 372.013C610.883 370.162 613.771 369.589 614.83 365.454C615.229 363.897 615.105 362.224 614.197 360.858C613.416 359.682 612.125 358.802 610.732 358.549C609.252 358.28 607.639 358.499 606.155 358.642ZM350.271 365.75L350.745 365.75L350.271 365.75ZM390.986 406.708L391.133 407.008L390.986 406.708ZM318.888 408.75L319.745 408.75L318.888 408.75ZM804.589 409.25L805.002 409.25L804.589 409.25ZM318.211 411.48L318.745 411.75L318.211 411.48ZM804.811 411.578L805.271 412.014L804.811 411.578ZM804.873 413.286C810.706 448.726 818.847 483.762 824.474 519.219C828.241 542.953 830.641 567.622 831.672 591.631C831.985 598.914 832.392 606.256 832.16 613.546C832.004 618.467 831.008 624.245 831.503 629.067C831.588 629.901 831.622 630.149 832.239 630.661C836.17 595.19 833.004 551.222 827.085 516.196C823.312 493.871 818.075 471.857 813.171 449.769C810.539 437.912 808.548 425.877 805.769 414.077L804.873 413.286ZM700.774 414.806C700.382 416.696 700.159 419.784 698.959 421.282L697.376 421.16C694.275 423.83 692.061 426.549 691.657 430.724L692.054 431.777C693.096 432.196 694.034 432.395 695.142 432.57C698.099 431.909 700.661 430.761 703.206 429.129C703.862 426.442 704.588 423.762 704.987 421.023C703.695 418.856 702.503 416.661 700.774 414.806ZM328.41 423.25L329.245 423.25L328.41 423.25ZM286.769 427.233C285.854 439.837 286.158 452.187 286.464 464.794C286.746 482.389 287.616 499.97 289.074 517.507C289.58 523.636 289.525 531.158 291.327 537.03C292.03 528.638 289.906 515.593 289.404 506.686C288.365 488.266 288.032 469.814 287.454 451.375C287.321 447.124 288.442 429.706 286.769 427.233ZM732.651 445.254C730.586 467.128 727.404 492.026 722.897 513.487C721.133 521.886 715.351 534.535 715.211 542.36L715.183 543.38C718.476 541.393 722.16 524.731 723.247 520.348C725.008 513.263 726.495 506.112 727.704 498.912C728.821 492.13 734.603 449.18 732.651 445.254ZM326.065 472.729L326.067 474.251C326.377 474.258 326.701 474.322 326.998 474.231L326.942 472.745L326.065 472.729ZM326.683 477.249L326.788 478.06L327.329 477.858L327.07 477.132L326.683 477.249ZM313.44 477.801C313.486 485.51 314.569 528.125 317.781 531.73L318.739 532.023C316.617 519.561 315.798 506.734 315.018 494.128C314.701 489.017 315.077 482.996 314.065 478.021L313.44 477.801ZM686.837 481.228C686.023 485.326 680.317 510.012 681.775 512.215C681.897 512.399 682.041 512.568 682.174 512.744C682.273 511.804 682.458 511.059 682.777 510.182C684.57 505.246 688.559 486.648 687.219 481.952C687.144 481.69 686.964 481.469 686.837 481.228ZM798.755 483.289C798.504 492.579 797.644 501.843 796.181 511.02C795.532 515.088 792.707 523.407 794.111 527.001C798.251 519.245 799.357 493.798 799.556 483.957C799.02 483.285 799.333 483.438 798.755 483.289ZM668.614 488.739C667.876 492.655 666.722 496.702 666.615 500.683L667.665 502.057C668.261 498.822 670.165 492.328 669.142 489.173L668.614 488.739ZM344.277 498.75L344.745 498.75L344.277 498.75ZM840.277 520.25L840.745 520.25L840.277 520.25ZM768.266 520.981L768.588 521.25L768.266 520.981ZM767.68 522.25L768.128 522.25L767.68 522.25ZM841.277 524.75L841.745 524.75L841.277 524.75ZM381.347 530.638L381.687 531.058L381.894 531.013L381.347 530.638ZM291.062 537.706L291.258 539.316L291.913 539.721L291.867 537.985L291.062 537.706ZM291.675 542.165L291.907 543.265L292.305 543.344L292.088 542.238L291.675 542.165ZM276.089 542.75L276.5 542.75L276.089 542.75ZM276.278 544.75L276.745 544.75L276.278 544.75ZM276.193 545.182C277.226 551.862 283.071 585.75 286.885 588.784C284.418 580.246 282.265 571.62 280.43 562.924C279.339 557.71 278.727 551.823 277.113 546.781C276.91 546.148 276.576 545.713 276.193 545.182ZM385.241 552.218C383.938 553.973 384.489 556.545 384.795 558.58C386.098 567.229 392.183 595.417 397.395 601.832L398.54 600.728C396.735 594.697 394.969 588.67 393.477 582.553C392.307 577.752 388.047 556.012 386.469 553.332C386.241 552.944 385.625 552.46 385.241 552.218ZM667.927 552.193C666.368 556.501 659.606 571.448 659.66 574.271L660.057 574.638C661.904 570.263 668.761 556.591 668.602 552.79L667.927 552.193ZM425.263 556.296C428.611 577.223 435.624 628.06 431.235 647.7C442.219 661.539 455.754 673.725 469.848 684.343C477.419 690.047 493.737 696.926 498.654 704.15C505.303 713.917 506.607 727.586 510.979 738.473C514.148 729.98 519.642 711.108 524.527 704.529C527.89 699.999 543.868 693.351 549.52 689.788C566.822 678.73 582.953 665.94 597.663 651.614C599.546 649.553 601.401 647.516 603.094 645.294C599.821 617.005 605.547 588.132 609.418 560.16C606.56 567.169 604.365 574.447 602.08 581.657C601.032 584.963 600.165 588.862 598.658 591.948C592.815 603.913 559.562 628.583 546.783 634.074C539.114 637.368 531.428 635.47 524.028 632.425C505.403 624.758 477.99 600.671 461.644 587.176C449.311 576.993 436.833 567.392 425.263 556.296ZM222.349 563.245C221.185 573.671 221.001 606.643 224.853 615.928C225.065 607.036 223.203 596.051 222.871 586.686C222.717 582.336 223.665 565.519 222.349 563.245ZM598.938 567.309L598.043 567.786C598.416 567.884 598.785 568.03 599.17 568.044L599.893 567.164L598.938 567.309ZM593.684 570.685L592.085 572.867L592.451 573.609L594.221 573.88L595.225 572.323C594.81 571.233 594.713 571.267 593.684 570.685ZM598.583 575.219L596.812 576.411C597.026 577.45 597.105 577.319 597.856 577.964L599.734 575.798C599.01 575.221 599.402 575.396 598.583 575.219ZM587.932 576.234C587.468 576.459 587.163 576.92 587.137 577.435C587.11 577.951 587.367 578.44 587.806 578.711C588.245 578.983 588.797 578.993 589.247 578.739C589.912 578.363 590.158 577.527 589.803 576.85C589.448 576.173 588.62 575.9 587.932 576.234ZM657.149 579.75L657.659 579.75L657.149 579.75ZM585.444 580.81L585.239 580.954L585.533 580.923L585.751 580.722L585.444 580.81ZM656.699 580.75L657.212 580.75L656.699 580.75ZM591.196 581.457C591.992 582.413 592.525 583.566 593.954 583.459C594.378 583.428 595.21 583.124 595.63 582.983C594.146 581.889 593.009 581.658 591.196 581.457ZM656.218 581.75L656.745 581.75L656.218 581.75ZM576.88 582.754L576.167 583.341L576.96 583.292L577.631 582.589L576.88 582.754ZM583.372 581.744C582.544 582.951 581.632 583.719 581.7 585.215C582.852 585.969 583.69 586.114 585.017 586.347C585.69 584.834 585.822 584.862 585.292 583.315C584.691 582.812 584.042 582.133 583.372 581.744ZM655.744 582.75L656.245 582.75L655.744 582.75ZM643.233 583.75L643.745 583.75L643.233 583.75ZM655.255 583.75L655.745 583.75L655.255 583.75ZM464.319 585.25L465.005 585.25L464.319 585.25ZM589.593 585.157L588.283 587.027L588.483 587.78L590.737 588.898L591.624 587.452C591.259 586 590.801 585.972 589.593 585.157ZM570.642 586.206L569.637 587.624L569.927 588.489L572.389 589.506L573.194 587.768L572.847 586.988L570.642 586.206ZM579.067 587.314C577.966 588.418 577.127 588.887 576.856 590.448C577.261 590.894 577.653 591.37 578.095 591.78C579.251 590.919 579.961 590.432 580.438 588.998C580.01 587.999 579.977 587.891 579.067 587.314ZM468.206 588.541C468.327 589.745 469.349 590.219 470.238 590.994L469.719 588.637C468.67 588.186 469.175 588.178 468.206 588.541ZM592.565 588.981L592.946 589.132L592.565 588.981ZM209.132 588.787C201.668 624.903 196.158 676.559 217.432 708.701C220.866 713.888 224.993 718.839 229.253 723.376C236.093 721.076 242.8 718.399 249.344 715.358C253.68 713.545 258.156 711.871 262.376 709.81C258.046 704.932 253.404 700.307 249.348 695.195C231.486 672.679 218.027 645.178 212.946 616.78C211.894 610.9 211.035 592.551 209.132 588.787ZM286.674 589.462L287.245 589.75L286.674 589.462ZM594.996 590.313L594.143 590.778L595.201 590.797L596.044 590.253C595.694 590.259 595.332 590.214 594.996 590.313ZM584.301 590.691C583.631 591.244 583.505 592.222 584.013 592.926C584.521 593.63 585.489 593.818 586.224 593.356C586.744 593.029 587.039 592.441 586.989 591.83C586.94 591.218 586.555 590.685 585.99 590.446C585.425 590.206 584.774 590.301 584.301 590.691ZM575.11 592.245C574.73 592.583 574.565 593.103 574.682 593.598C574.799 594.093 575.178 594.484 575.67 594.616C576.161 594.748 576.685 594.6 577.035 594.23C577.543 593.692 577.538 592.848 577.022 592.317C576.507 591.785 575.664 591.754 575.11 592.245ZM562.797 592.309L560.485 593.342L560.383 593.851C561.866 593.936 563.99 593.619 564.918 594.897C565.156 595.224 565.552 595.986 565.754 596.362C567.066 595.936 567.48 595.899 568.366 594.872C567.724 593.76 567.002 593.348 565.77 592.947C564.82 592.638 563.779 592.487 562.797 592.309ZM589.855 594.16C588.99 595.37 588.217 595.96 588.27 597.474C588.829 597.96 589.338 598.429 589.972 598.818C590.725 597.315 591.38 596.615 591.125 594.926L589.855 594.16ZM611.046 594.67C610.102 607.722 609.267 621.079 610.204 634.148C612.207 623.57 611.943 612.664 612.027 601.934C617.466 607.47 621.195 613.056 620.999 621.18C620.597 637.825 607.932 651.522 596.388 662.121C582.567 674.811 566.477 687.065 549.713 695.589C542.95 699.027 534.961 701.101 528.666 705.118C529.773 708.134 532.967 711.173 534.865 713.874C537.145 717.118 539.186 720.565 541.173 723.997C549.573 738.502 556.82 753.741 564.75 768.515C572.109 782.581 582.042 795.753 587.101 810.881C592.61 804.755 598.287 798.632 603.275 792.068C615.663 775.766 625.248 757.135 633.864 738.634C636.927 732.055 640.715 725.083 642.499 718.035C644.702 709.327 645.695 684.941 645.282 675.895C644.879 667.079 635.777 650.449 632.831 641.005C629.76 631.161 628.95 619.33 625.165 610.055C623.525 606.037 620.964 602.461 617.689 599.614C615.65 597.816 613.405 596.026 611.046 594.67ZM479.069 595.945L479.32 596.885C480.537 596.96 479.991 597.093 480.978 596.569L480.247 595.853L479.069 595.945ZM580.142 595.311L579.646 596.798C580.244 597.959 580.404 598.208 581.764 598.579C582.316 598.73 583.216 598.658 583.762 598.657L584.188 597.122C583.497 596.069 582.999 595.752 581.734 595.498C581.114 595.374 580.746 595.36 580.142 595.311ZM555.567 596.629C554.731 597.636 554.113 597.963 554.102 599.323C554.831 599.843 555.371 600.173 556.206 600.534L557.382 598.165L556.998 597.176L555.567 596.629ZM571.231 596.685C570.383 597.8 569.663 598.279 569.671 599.726C570.563 600.309 571.233 600.503 572.275 600.707C573.075 599.521 573.721 599.087 573.516 597.637C572.691 597.176 572.164 596.911 571.231 596.685ZM422.793 598.922C413.841 604.489 407.563 609.491 405.069 620.305C402.713 630.521 401.547 640.844 398.446 650.909C396.872 656.018 395.088 661.06 393.099 666.021C391.197 670.81 388.545 676.007 387.712 681.105C386.454 688.803 388.102 698.001 388.914 705.734C389.833 714.491 390.213 726.087 392.231 734.499C395.102 746.465 406.541 766.843 413.305 777.559C421.84 791.082 431.226 802.95 442.07 814.664C427.166 807.669 413.766 788.073 405.712 773.804C402.177 767.54 399.218 760.821 395.385 754.752C399.914 776.135 404.608 797.863 410.824 818.816C413.369 827.394 416.648 835.79 419.595 844.236C425.294 860.568 431.03 876.692 437.521 892.732C443.272 906.946 448.88 921.089 455.829 934.777C456.414 929.681 456.902 924.553 457.645 919.479C460.592 901.394 465.012 883.579 470.859 866.214C473.533 858.286 477.252 850.455 479.456 842.428C468.537 828.492 466.776 807.255 463.844 790.26C462.684 783.543 460.978 776.981 460.847 770.133C453.179 783.831 449.448 799.65 440.15 812.467C441.208 806.526 442.022 800.561 443.892 794.805C451.536 771.274 476.764 722.989 493.441 705.349C484.402 699.184 474.812 693.904 465.831 687.61C448.83 675.696 418.112 649.724 414.223 628.939C412.853 621.617 415.16 614.959 419.256 608.952L419.261 609.66C419.297 621.881 416.307 625.229 422.945 637.41C423.164 631.715 425.281 601.717 422.793 598.922ZM563.084 599.368L560.674 601.442L560.643 602.229L562.418 603.454C563.333 602.335 564.294 601.667 564.329 600.187L563.084 599.368ZM576.707 600.584C576.077 600.767 575.595 601.275 575.445 601.913C575.295 602.551 575.5 603.221 575.981 603.665C576.463 604.11 577.146 604.261 577.77 604.061C578.717 603.757 579.245 602.749 578.954 601.798C578.663 600.847 577.662 600.306 576.707 600.584ZM545.826 600.689L544.727 602.161C545.083 602.269 545.435 602.43 545.808 602.445L546.92 602.181C546.466 601.016 546.821 601.52 545.826 600.689ZM492.434 602.453L492.976 602.647L492.434 602.453ZM550.553 602.19C550.025 602.476 549.702 603.034 549.718 603.634C549.734 604.234 550.086 604.774 550.629 605.031C551.172 605.288 551.813 605.218 552.287 604.85C552.942 604.342 553.098 603.416 552.645 602.721C552.192 602.027 551.282 601.796 550.553 602.19ZM567.009 603.221C566.44 603.624 566.14 604.309 566.23 605.001C566.32 605.693 566.785 606.278 567.439 606.522C568.092 606.767 568.827 606.63 569.349 606.167C570.096 605.503 570.195 604.37 569.573 603.587C568.951 602.804 567.826 602.643 567.009 603.221ZM581.72 603.687C581.351 603.952 581.165 604.404 581.241 604.852C581.317 605.3 581.643 605.666 582.079 605.793C582.516 605.92 582.986 605.787 583.292 605.451C583.7 605.001 583.703 604.316 583.299 603.862C582.895 603.409 582.214 603.333 581.72 603.687ZM498.527 604.667C497.968 605.042 497.665 605.699 497.744 606.368C497.822 607.038 498.268 607.607 498.899 607.843C499.53 608.079 500.24 607.943 500.738 607.49C501.435 606.856 501.525 605.793 500.944 605.051C500.364 604.31 499.309 604.142 498.527 604.667ZM538.09 604.161C538.102 605.694 538.119 606.012 538.875 607.331C540.144 607.872 540.356 607.892 541.725 607.7L541.672 606.383C540.456 605.67 539.254 604.96 538.09 604.161ZM488.277 605.079C489.269 606.088 489.645 606.818 491.074 607.108L491.348 606.943L491.556 605.8C490.429 605.336 489.475 605.22 488.277 605.079ZM557.039 605.662C556.442 605.78 555.955 606.212 555.767 606.791C555.578 607.37 555.718 608.006 556.131 608.453C556.544 608.9 557.167 609.089 557.759 608.947C558.649 608.733 559.205 607.846 559.009 606.951C558.813 606.057 557.938 605.483 557.039 605.662ZM572.98 606.493C572.084 606.607 571.445 607.417 571.543 608.314C571.64 609.211 572.438 609.865 573.336 609.785C573.933 609.731 574.454 609.36 574.699 608.813C574.945 608.267 574.876 607.631 574.519 607.15C574.162 606.668 573.574 606.417 572.98 606.493ZM507.346 606.817C506.218 607.694 505.376 607.917 505.152 609.386C505.734 610.095 506.306 610.8 506.919 611.483C507.381 610.307 507.856 609.157 508.385 608.009C508.041 607.477 507.875 607.184 507.346 606.817ZM527.421 607.144C528.003 608.396 527.995 608.427 529.231 609.029L531.328 608.84L531.437 607.492C530.132 606.61 528.964 607.033 527.421 607.144ZM546.274 607.393C545.682 607.699 545.31 608.311 545.313 608.977C545.315 609.644 545.692 610.253 546.287 610.554C546.882 610.854 547.595 610.796 548.133 610.403C548.882 609.857 549.083 608.826 548.596 608.038C548.109 607.25 547.098 606.969 546.274 607.393ZM563.095 608.76C562.471 609.04 562.059 609.648 562.03 610.332C562.001 611.015 562.361 611.656 562.959 611.987C563.557 612.319 564.292 612.284 564.856 611.897C565.627 611.369 565.867 610.339 565.41 609.523C564.952 608.708 563.948 608.377 563.095 608.76ZM496.123 609.443L496.132 610.354C497.03 610.221 496.696 610.394 497.209 610.016L497.202 609.07L496.123 609.443ZM514.746 609.596L514.461 610.164L515.128 609.909L515.509 609.337L514.746 609.596ZM520.953 609.463L521.607 609.644L520.953 609.463ZM535.892 609.316C535.295 609.598 534.91 610.193 534.897 610.852C534.883 611.512 535.244 612.122 535.829 612.427C536.414 612.733 537.121 612.681 537.655 612.294C538.381 611.767 538.586 610.774 538.129 610.002C537.672 609.23 536.703 608.933 535.892 609.316ZM576.001 609.427L576.31 611.035C577.503 611.614 577.975 611.355 579.236 611.182L579.115 609.916C577.961 609.182 577.323 609.404 576.001 609.427ZM523.862 610.748C523.013 611.029 522.536 611.928 522.78 612.788C523.023 613.648 523.901 614.164 524.771 613.958C525.368 613.816 525.84 613.359 525.999 612.766C526.158 612.173 525.979 611.541 525.532 611.119C525.086 610.698 524.444 610.555 523.862 610.748ZM552.324 611.256C551.495 611.713 551.173 612.743 551.596 613.591C552.019 614.438 553.035 614.801 553.899 614.412C554.49 614.147 554.888 613.579 554.936 612.933C554.984 612.287 554.674 611.667 554.129 611.317C553.584 610.967 552.892 610.944 552.324 611.256ZM683.146 611.25L683.745 611.25L683.146 611.25ZM570.141 612.075L570.533 612.387L570.277 612.064L570.141 612.075ZM512.1 612.622L512.083 613.712C512.952 614.281 513.678 614.449 514.688 614.662L513.428 612.528C512.378 612.301 512.805 612.18 512.1 612.622ZM542.504 613.339C541.906 613.696 541.563 614.362 541.618 615.056C541.672 615.75 542.116 616.354 542.762 616.613C543.408 616.873 544.146 616.744 544.665 616.28C545.371 615.651 545.482 614.588 544.922 613.827C544.362 613.065 543.315 612.854 542.504 613.339ZM502.492 613.419L502.358 614.594C503.098 615.29 503.797 615.771 504.676 616.278C504.942 614.995 505.128 614.916 504.444 613.823L502.492 613.419ZM529.753 614.793L529.032 615.422L529.815 616.01L530.584 615.233C530.314 615.075 530.058 614.862 529.753 614.793ZM533.103 614.826C532.425 615.003 531.898 615.539 531.732 616.221C531.567 616.902 531.789 617.62 532.311 618.089C532.832 618.558 533.569 618.702 534.23 618.465C535.189 618.12 535.708 617.081 535.406 616.107C535.105 615.133 534.09 614.569 533.103 614.826ZM559.821 614.94C559.425 615.347 559.286 615.94 559.46 616.48C559.635 617.02 560.094 617.42 560.654 617.517C561.213 617.615 561.781 617.396 562.128 616.947C562.626 616.305 562.535 615.386 561.922 614.853C561.31 614.321 560.388 614.359 559.821 614.94ZM224.708 616.145L224.955 616.929L225.266 616.913L224.864 616.175L224.708 616.145ZM519.932 615.657C519.181 616.807 518.755 617.048 518.948 618.444C519.852 619.168 520.688 619.729 521.719 620.259C522.419 619.105 522.342 619.075 522.129 617.728C521.433 616.807 520.984 616.17 519.932 615.657ZM567.956 616.843L567.703 617.442L568.116 617.339L568.765 616.592L567.956 616.843ZM547.128 616.926C547.995 618.485 548.756 620.042 550.682 620.431C551.456 620.588 552.101 620.491 552.857 620.343C552.358 619.055 552.301 618.285 550.909 617.726C549.823 617.29 548.291 617.141 547.128 616.926ZM509.777 617.9C509.452 618.249 509.346 618.748 509.5 619.199C509.654 619.649 510.044 619.979 510.515 620.055C510.985 620.132 511.459 619.944 511.749 619.565C512.168 619.018 512.083 618.238 511.556 617.793C511.03 617.348 510.246 617.395 509.777 617.9ZM557.452 619.089L557.344 620.366C557.679 620.178 558.046 620.029 558.33 619.77L558.258 618.959L557.452 619.089ZM537.097 619.426C537.56 620.958 537.597 621.655 538.811 622.738C540.03 622.708 540.774 622.51 541.89 622.023L541.837 620.827C540.487 619.593 538.883 619.35 537.097 619.426ZM524.872 620.641L524.676 621.003L524.993 620.817L525.324 620.409L524.872 620.641ZM564.624 620.609L564.641 621.021L564.995 620.992L565.007 620.555L564.624 620.609ZM242.902 620.778C243.062 643.67 254.023 688.347 266.382 707.613C271.785 705.464 277.059 703.003 282.177 700.242C284.843 698.771 287.501 697.285 290.15 695.783C273.768 678.719 260.909 659.894 250.568 638.618C247.752 632.824 245.89 626.438 242.902 620.778ZM527.235 620.632C527.42 622.141 527.273 623.198 528.302 624.35C528.822 624.331 529.378 624.352 529.89 624.26C529.848 622.703 529.987 622.469 529.011 621.291L527.235 620.632ZM546.814 621.164L545.6 622.65L545.769 623.634L548.139 625.018C548.787 623.91 548.947 623.845 548.762 622.596C548.119 622.071 547.541 621.57 546.814 621.164ZM554.997 622.287C554.58 622.572 554.358 623.067 554.424 623.568C554.489 624.068 554.83 624.49 555.306 624.658C555.783 624.826 556.313 624.713 556.678 624.364C557.184 623.883 557.235 623.093 556.795 622.55C556.356 622.007 555.573 621.893 554.997 622.287ZM515.385 622.333C515.564 623.685 515.453 624.227 516.737 624.992C517.335 625.348 518.335 625.501 519.019 625.667C518.647 624.2 518.701 623.688 517.52 622.687L515.385 622.333ZM532.819 623.919C531.964 624.06 531.377 624.857 531.497 625.715C531.616 626.574 532.399 627.18 533.26 627.081C533.836 627.014 534.33 626.641 534.552 626.106C534.774 625.571 534.689 624.957 534.329 624.503C533.969 624.049 533.391 623.826 532.819 623.919ZM260.207 625.75L260.608 625.75L260.207 625.75ZM535.271 626.955L535.549 627.123L535.271 626.955ZM542.067 627.113L542.281 627.622L542.621 627.478L542.424 626.891L542.067 627.113ZM548.433 626.29L547.771 628.311L548.155 628.879L548.987 628.632L549.549 627.739C549.002 626.55 549.394 627.018 548.433 626.29ZM551.541 626.984L551.935 627.133L551.541 626.984ZM532.468 628.371L533.202 628.894L533.773 628.633L533.373 627.875L532.468 628.371ZM538.222 628.648L538.069 629.151L538.513 628.983L538.409 628.605L538.222 628.648ZM537.757 632.639L538.216 633.406L538.74 633.373L538.304 632.549L537.757 632.639ZM543.914 632.466L544.383 632.626L543.914 632.466ZM372.755 637.25C373.492 638.343 374.035 639.45 375.334 639.922L375.788 639.811C375.173 638.774 374.608 637.901 373.437 637.419C373.22 637.33 372.982 637.306 372.755 637.25ZM495.714 709.858C493.113 715.62 489.554 720.708 486.005 725.91C492.78 732.673 498.155 738.883 502.902 747.276C503.566 748.389 503.786 749.224 504.995 749.779C506.415 749.497 506.641 749.516 507.644 748.499C507.635 742.483 498.997 715.039 495.714 709.858ZM526.684 712.369C520.802 724.214 515.361 736.731 511.59 749.425C514.906 749.63 518.488 750.47 521.747 750.144L522.882 748.923C528.139 743.261 533.372 738.325 539.664 733.793C535.191 726.709 530.847 719.641 526.684 712.369ZM638.796 743.88C627.816 764.813 620.438 780.294 603.734 797.703C597.891 803.792 591.226 809.013 585.338 815.013C576.884 805.775 566.505 783.493 560.072 771.668C553.143 795.934 544.732 819.752 534.886 842.988C537.283 848.651 539.48 854.31 541.439 860.141C555.935 855.743 571.076 849.392 584.21 841.812C589.313 838.866 594.043 834.565 599.342 832.125L599.579 832.396C587.301 843.477 571.688 853.786 558.181 863.516C555.417 865.507 546.909 870.245 545.351 872.627C547.584 881.125 549.557 889.564 550.951 898.244C560.271 893.739 568.833 888.527 577.711 883.238C570.319 890.943 560.567 897.485 551.867 903.682C556.522 925.692 559.525 948.02 560.85 970.478C568.943 957.842 578.267 934.509 584.176 920.202C591.628 902.161 599.342 884.079 605.963 865.718C616.954 835.237 625.8 803.659 633.296 772.145C635.311 763.671 639.004 752.364 638.796 743.88ZM495.993 757.205C485.706 758.074 475.889 759.977 465.955 762.763C466.082 765.738 465.868 770.558 467.354 773.16L467.948 773.003L468.11 770.853C482.197 763.675 508.713 764.799 524.122 767.665C534.043 769.409 544.734 771.202 554.208 774.664L555.547 767.05C537.207 760.46 515.515 754.933 495.993 757.205ZM487.134 843.751C477.584 865.648 470.053 895.64 465.587 919.279C463.98 927.785 463.192 936.491 461.439 944.952C463.117 947.592 464.637 950.229 466.049 953.019C468.445 944.01 468.678 933.973 470.248 924.738C474.868 897.567 480.531 871.053 490.847 845.431C489.778 844.399 488.519 844.151 487.134 843.751ZM518.925 845.246C524.762 861.163 530.549 876.92 535.182 893.256C543.374 922.143 549.289 956.21 551.269 986.285L554.071 982.468L556.23 979.149C555.436 970.592 553.271 962.195 552.036 953.688C549.23 934.352 546.792 914.798 542.625 895.697C538.861 878.438 533.553 861.728 528.862 844.739C525.509 845.217 522.309 845.299 518.925 845.246ZM502.031 845.56C501.845 860.278 502.267 874.997 503.295 889.68C503.544 893.779 503.318 898.637 504.416 902.549L504.866 901.501C506.123 887.961 506.405 874.242 506.858 860.652C507.01 856.08 507.817 850.606 507.151 846.107C505.561 845.394 503.742 845.564 502.031 845.56ZM780.592 957.75L781.012 957.75L780.592 957.75Z"/><path d="M322.141 193.109L322.406 192.502L322.141 193.109Z"/><path d="M656.886 207.343L656.61 207.002L656.886 207.343Z"/><path d="M554.285 376.221C562.516 357.46 574.948 345.784 594.108 338.368C606.805 333.453 624.006 331.008 637.405 334.078L637.539 334.413C632.14 336.303 622.002 336.809 615.656 338.27C581.68 346.094 577.785 353.708 554.285 376.221Z"/><path d="M484.68 346.202L485.066 346.658L484.68 346.202Z"/><path d="M485.066 346.658L485.383 346.998L485.066 346.658Z"/><path d="M493.745 357.25L493.158 356.954L493.745 357.25Z"/><path d="M711.201 388.694L711.655 389.002C710.966 388.431 710.678 388.026 710.199 387.29C710.278 386.46 710.415 385.785 710.749 385.013C713.426 378.832 722.667 364.362 728.808 361.91C730.1 362.819 730.734 363.432 731.224 364.979C733.955 373.594 735.25 391.503 733.873 400.32C733.437 403.111 732.356 405.687 731.022 408.157C724.916 419.46 708.567 440.338 698.398 447.855C694.421 450.795 690.594 452.538 685.871 453.938C690.38 449.591 695.716 446.086 700.464 441.988C707.941 435.536 713.729 428.454 719.802 420.735C721.171 418.859 722.505 416.958 723.804 415.033C726.592 410.854 729.671 406.297 731.073 401.419C733.485 393.022 729.825 379.052 728.07 370.405C722.175 374.77 717.369 380.623 712.474 386.041C713.963 386.839 715.451 387.638 716.75 388.729C719.969 391.43 722.539 395.59 722.828 399.846C723.066 403.342 721.579 406.825 719.11 409.285C718.157 410.235 717.628 410.499 716.31 410.429C715.052 408.588 715.56 404.732 715.271 402.439C714.678 397.743 712.765 393.142 711.201 388.694Z"/><path d="M498.315 387.461L497.062 387.431C496.309 386.487 492.414 368.871 492.502 367.42C492.724 367.646 492.967 367.854 493.169 368.099C497.382 373.213 498.846 381.05 498.315 387.461Z"/><path d="M553.919 376.606L554.285 376.221L553.919 376.606Z"/><path d="M553.615 376.998L553.919 376.606L553.615 376.998Z"/><path d="M632.647 377.707L632.87 377.998L632.647 377.707Z"/><path d="M404.009 379.25L403.621 378.963L404.009 379.25Z"/><path d="M415.931 380.657C417.156 380.566 418.207 380.271 419.384 379.943C418.78 381.087 418.573 382.062 417.375 382.63C416.685 381.975 416.263 381.558 415.931 380.657Z"/><path d="M430.113 380.998L430.264 380.298L430.113 380.998Z"/><path d="M463.961 380.466L464.498 380.914L463.961 380.466Z"/><path d="M614.105 384.191L615.122 382.983C614.793 383.471 614.577 383.829 614.105 384.191Z"/><path d="M418.583 385.572C418.107 385.237 417.663 385.109 417.498 384.534L418.252 384.786L418.583 385.572Z"/><path d="M460.513 389.779L461.119 388.256L461.61 388.088L461.563 389.111L460.513 389.779Z"/><path d="M560.613 387.751L560.997 387.901L560.613 387.751Z"/><path d="M570.154 388.251L570.578 388.632L570.154 388.251Z"/><path d="M457.788 389.651L458.327 388.932L457.788 389.651Z"/><path d="M570.578 388.632L570.997 389.363L570.578 388.632Z"/><path d="M457.559 389.984L457.788 389.651L457.559 389.984Z"/><path d="M460.002 389.875L460.513 389.779L460.002 389.875Z"/><path d="M576.242 396.831L575.503 396.621L576.242 396.831Z"/><path d="M576.242 396.831L577 397.5L576.242 396.831Z"/><path d="M577 397.5L577.57 397.841L577 397.5Z"/><path d="M650.02 421.53L650.922 420.852L650.02 421.53Z"/><path d="M649.305 422.176L650.02 421.53L649.305 422.176Z"/><path d="M649.097 422.365L649.305 422.176L649.097 422.365Z"/><path d="M645.732 425.287C646.776 423.849 647.512 423.181 649.097 422.365C648.008 423.801 647.314 424.427 645.732 425.287Z"/><path d="M645.588 425.421L645.732 425.287L645.588 425.421Z"/><path d="M607.281 457.282C610.119 453.673 642.537 426.947 645.588 425.421C641.685 430.57 613.244 454.489 607.281 457.282Z"/><path d="M427.721 430.768L428.456 430.601L427.721 430.768Z"/><path d="M654.803 430.853L655.497 430.612L654.803 430.853Z"/><path d="M426.763 431.748L427.721 430.768L426.763 431.748Z"/><path d="M654.414 431.777L654.803 430.853L654.414 431.777Z"/><path d="M426.581 431.89L426.763 431.748L426.581 431.89Z"/><path d="M653.845 432.084L654.414 431.777L653.845 432.084Z"/><path d="M392.213 460.689C395.242 454.969 419.931 434.325 426.581 431.89C421.796 436.896 415.176 440.818 409.811 445.309C405.178 449.187 396.704 458.064 392.213 460.689Z"/><path d="M653.371 432.656L653.845 432.084L653.371 432.656Z"/><path d="M653.132 432.863L653.371 432.656L653.132 432.863Z"/><path d="M627.262 457.235C629.174 454.559 651.438 433.746 653.132 432.863C650.272 437.872 632.426 454.947 627.262 457.235Z"/><path d="M406.22 437.297L406.498 437.085L406.22 437.297Z"/><path d="M436.232 437.352L436.998 437.118L436.232 437.352Z"/><path d="M379.841 461.276C383.038 454.478 399.261 440.049 406.22 437.297C402.626 440.937 398.179 443.904 394.361 447.349C390.246 451.063 384.029 458.768 379.841 461.276Z"/><path d="M436.002 437.886L436.232 437.352L436.002 437.886Z"/><path d="M435 438.5L435.498 438.094L435 438.5Z"/><path d="M433.5 439.5L435 438.5C434.508 438.858 434.048 439.232 433.5 439.5Z"/><path d="M432 440.515C432.441 440.135 433.012 439.82 433.5 439.5C433.008 439.864 432.551 440.246 432 440.515Z"/><path d="M391.496 440.503L391.998 440.115L391.496 440.503Z"/><path d="M390.734 441.116L391.496 440.503L390.734 441.116Z"/><path d="M431.692 440.822L432 440.515L431.692 440.822Z"/><path d="M390.297 441.323L390.734 441.116L390.297 441.323Z"/><path d="M400.209 471.205C404.271 463.244 423.993 444.281 431.692 440.822C428.462 444.47 424.109 447.411 420.468 450.681C414.707 455.857 409.468 461.452 404.278 467.189C402.975 468.629 401.79 470.059 400.209 471.205Z"/><path d="M378.711 451.763C380.873 447.802 386.142 443.092 390.297 441.323C386.63 444.923 382.741 448.577 378.711 451.763Z"/><path d="M378.425 452.092L378.711 451.763L378.425 452.092Z"/><path d="M377.188 453.698C377.548 453.117 377.991 452.619 378.425 452.092C378.027 452.647 377.66 453.204 377.188 453.698Z"/><path d="M376.917 454.085L377.188 453.698L376.917 454.085Z"/><path d="M376.612 454.498L376.917 454.085L376.612 454.498Z"/><path d="M606.926 457.611L607.281 457.282L606.926 457.611Z"/><path d="M626.879 457.573L627.262 457.235L626.879 457.573Z"/><path d="M606.312 458.108L606.926 457.611L606.312 458.108Z"/><path d="M626.3 458.102L626.879 457.573L626.3 458.102Z"/><path d="M606.003 458.394L606.312 458.108L606.003 458.394Z"/><path d="M626.003 458.381L626.3 458.102L626.003 458.381Z"/><path d="M391.879 461.07L392.213 460.689L391.879 461.07Z"/><path d="M379.432 461.637L379.841 461.276L379.432 461.637Z"/><path d="M391.306 461.607L391.879 461.07L391.306 461.607Z"/><path d="M379.091 461.995L379.432 461.637L379.091 461.995Z"/><path d="M390.838 462.095L391.306 461.607L390.838 462.095Z"/><path d="M390.524 462.414L390.838 462.095L390.524 462.414Z"/><path d="M502.502 479.619L502.786 480.172L503.064 481.987C501.702 480.255 500.815 478.361 500.625 476.136C500.158 470.641 503.478 465.874 506.876 461.915C505.721 466.492 503.679 470.731 501.783 475.036C504.03 476.953 506.182 478.979 508.232 481.106L508.426 481.484L508.232 481.106C507.699 479.291 506.814 478.234 505.604 476.802C507.007 476.621 509.122 477.394 510.274 478.186C512.786 479.913 513.803 483.511 516.348 485.407C517.475 484.933 519.995 483.414 521.035 483.765C520.244 485.232 518.713 485.811 517.152 486.282C516.271 486.548 516.103 486.589 515.17 486.414L514.4 484.755L513.559 484.825L513.71 486.108C511.7 485.811 509.546 484.896 507.652 484.197C507.389 484.101 507.155 483.941 506.906 483.813C505.447 482.743 504.128 481.39 502.786 480.172L502.502 479.619ZM512.614 484.25L513.182 484.25L512.614 484.25Z"/><path d="M399.887 471.572L400.209 471.205L399.887 471.572Z"/><path d="M399.383 472.18L399.887 471.572L399.383 472.18Z"/><path d="M532.264 477.339L528.876 471.292C530.711 471.604 532 472.675 533.034 474.177C534.159 475.811 534.42 477.869 533.934 479.774C533.391 481.94 531.943 483.768 529.959 484.793C527.469 486.057 525.112 485.213 522.653 484.337C521.854 484.04 521.563 483.747 521.227 482.913C520.732 481.684 520.84 480.484 521.412 479.318C522.173 477.764 524.148 476.464 525.751 475.959C528.347 475.141 530.026 476.111 532.264 477.339Z"/><path d="M398.917 472.68L399.383 472.18L398.917 472.68Z"/><path d="M398.618 472.998L398.917 472.68L398.618 472.998Z"/><path d="M503.064 481.987C503.385 482.281 503.798 482.592 504.057 482.939L503.064 481.987Z"/><path d="M504.057 482.939L504.721 483.657L504.057 482.939Z"/><path d="M504.721 483.657L505.218 484.074L504.721 483.657Z"/><path d="M505.218 484.074L506.906 483.813C507.746 484.711 507.43 484.19 507.836 485.389C506.522 485.28 506.229 484.836 505.218 484.074Z"/><path d="M529.709 526.543C518.712 527.821 508.235 526.122 497.321 526.711C494.097 526.885 482.869 528.912 480.753 528.452C479.647 528.211 479.639 528.239 479.029 527.228L479.364 526.476C488.956 522.185 496.188 514.293 504.891 508.545C511.555 508.15 523.836 507.884 529.983 509.878C533.031 510.866 555.425 526.502 559.131 529.402C553.963 529.282 548.62 527.984 543.497 527.243C538.871 526.574 534.377 526.463 529.709 526.543ZM505.573 512.815C501.14 517.219 495.886 520.464 490.559 523.668C502.761 521.61 530.283 521.344 542.377 524.139L543.975 524.325L544.083 524.05C539.759 520.968 532.748 514.991 527.25 515.071L526.662 515.611C527.615 516.474 527.915 516.269 529.152 516.37C528.793 516.425 528.432 516.476 528.07 516.51L527.86 516.224C520.657 515.802 513.079 514.793 506.16 517.333C505.469 517.587 504.979 517.609 504.254 517.527C505.35 516.31 507.742 514.634 508.046 513.164C507.13 512.746 506.57 512.752 505.573 512.815ZM522.491 513.427C522.755 513.507 523.02 513.674 523.293 513.634C522.588 513.371 522.861 513.327 522.491 513.427ZM529.038 513.897L529.573 514.409L530.15 514.127L529.463 513.697L529.038 513.897Z"/><path d="M510.877 556.042C506.319 553.146 503.144 550.744 500.037 546.221C505.325 548.165 510.773 550.517 516.45 550.898C519.938 551.132 523.689 550.767 527.125 550.175C529.196 549.818 534.661 547.769 536.256 548.311C534.912 552.574 530.08 555.85 526.17 557.775C522.701 559.483 517.931 559.576 514.312 558.288C513.505 558 512.328 557.426 511.782 556.766C511.937 556.788 512.094 556.804 512.248 556.831C513.242 557.003 512.882 556.952 513.975 557.285C517.011 558.21 521.351 558.618 524.211 556.914C524.476 556.756 524.722 556.57 524.978 556.397L525.497 556.003L524.978 556.397C522.055 556.787 519.297 557.028 516.367 556.536C515.092 556.321 513.526 555.723 512.262 555.709C511.638 555.702 511.398 555.839 510.877 556.042Z"/><path d="M510.877 556.042L511.782 556.766L510.877 556.042Z"/><path d="M503.18 681.644C500.048 679.556 497.444 674.812 495.282 671.703C483.954 655.41 474.399 638.516 465.859 620.609C463.317 615.278 460.318 609.674 458.989 603.895C462.605 607.108 499.651 673.925 503.18 681.644Z"/><path d="M345.894 1024C318.95 1000.95 297.389 972.159 276.381 943.806C271.402 937.086 264.161 928.721 260.404 921.433C268.178 918.466 275.422 914.239 282.996 910.79C319.313 894.251 350.381 878.043 383.138 855.088C390.292 850.074 397.746 845.173 404.465 839.589C403.738 837.541 403.057 835.463 402.244 833.448C393.378 841.868 383.381 848.692 373.434 855.742C367.821 859.72 362.131 864.128 356.012 867.286C339.104 864.297 286.186 842.016 276.319 828.096C276.22 827.955 276.13 827.808 276.035 827.664C277.271 820.152 280.269 812.875 282.879 805.754C287.075 794.305 291.468 783.055 296.074 771.766C305.421 748.857 314.748 726.042 324.526 703.306C327.162 697.176 331.646 683.469 335.443 678.97C340.351 673.154 348.695 668.627 354.783 663.927C365.444 655.697 375.456 646.886 384.56 636.97C382.628 644.521 380.735 652.072 379.876 659.838C377.588 680.532 380.687 704.81 383.227 725.395C388.148 764.304 396.32 802.732 407.659 840.276C415.032 863.879 424.282 887.19 433.706 910.046C445.27 938.096 458.072 966.047 473.542 992.175C479.929 1002.96 486.356 1013.72 493.537 1024L402.983 1024C377.964 1006.32 355.078 986.081 333.184 964.671C324.75 956.423 315.651 947.844 308.59 938.408C306.701 935.884 304.627 933.1 305.099 929.804C309.881 923.099 350.043 896.427 359.606 889.363C366.265 884.443 407.038 853.143 407.941 847.087C407.226 845.998 406.861 845.276 405.639 844.707C402.477 845.787 391.981 855.622 388.469 858.344C376.289 867.785 362.897 876.356 349.547 884.036C333.99 892.985 317.854 901.361 301.107 907.86C294.954 910.247 288.823 912.83 282.606 915.033C277.402 916.876 271.579 918.281 266.711 920.862L266.809 921.99C270.475 927.444 277.116 930.084 281.749 934.726C292.773 945.772 303.154 957.385 314.399 968.238C335.659 988.756 358.3 1006.9 382.362 1024L345.894 1024Z"/><path d="M841.916 718.095L842.223 717.746L841.916 718.095Z"/><path d="M841.344 718.652L841.916 718.095L841.344 718.652Z"/><path d="M840.877 719.131L841.344 718.652L840.877 719.131Z"/><path d="M840.394 719.653L840.877 719.131L840.394 719.653Z"/><path d="M840.053 719.968L840.394 719.653L840.053 719.968Z"/><path d="M667.811 1024C681.921 1011.73 695.972 999.623 709.448 986.644C723.246 973.354 736.493 959.129 749.689 945.233C758.084 936.394 767.722 927.744 774.603 917.632C764.696 918.053 754.528 918.309 744.715 916.69C721.002 912.779 681.03 893.332 660.129 880.993C647.121 873.313 634.629 864.614 621.365 857.387L624.53 848.512C645.776 868.018 700.335 896.961 728.389 905.206C733.188 906.578 738.04 907.757 742.932 908.743C749.159 909.954 769.613 912.035 774.155 915.439C774.971 916.05 775.138 917.123 775.3 918.047C775.486 919.106 775.664 920.158 775.874 921.214C769.879 930.833 762.711 939.662 755.731 948.574C735.511 974.394 710.532 1003.94 684.458 1024L667.811 1024Z"/><path d="M543.907 1024C548.15 1017.47 552.55 1010.93 556.358 1004.14C568.026 983.336 577.452 960.866 587.229 939.107C593.31 925.574 599.888 912.226 605.625 898.546C610.649 886.567 615.024 874.156 620.322 862.321C647.629 882.645 672.011 900.698 704.604 912.031C712.502 914.777 720.49 917.445 728.577 919.582C733.942 920.999 741.005 921.484 745.887 923.988C747.019 924.569 747.241 925.13 747.478 926.375C748.18 930.07 744.222 935.133 741.928 937.705C736.681 943.588 730.629 948.921 725.057 954.502C699.55 980.051 672.709 1003.74 642.742 1024L543.907 1024Z"/></svg>