<?xml version="1.0" encoding="utf-8" ?><svg xmlns="http://www.w3.org/2000/svg" xmlns:xlink="http://www.w3.org/1999/xlink" width="1024" height="1024" viewBox="0 0 1024 1024"><path fill="white" d="M0 0L0 1024L1024 1024L1024 0L0 0Z"/><path d="M861.813 655.715C866.419 646.63 870.05 637.599 872.062 627.581C877.934 598.341 872.538 554.001 863.922 525.679C864.384 532.709 865.243 539.736 865.52 546.773C867.111 587.21 860.857 626.98 833.395 658.426C821.191 672.402 803.827 682.329 785.149 683.574C783.574 683.674 781.997 683.734 780.418 683.755C785.094 682.781 790.025 682.004 794.539 680.438C807.449 675.96 817.967 665.572 825.336 654.37C840.738 630.954 848.447 591.184 846.816 562.954C838.279 602.189 817.193 642.569 782.693 664.811C766.433 675.294 744.205 682.637 724.789 678.376C722.156 677.798 719.488 677.112 717.077 675.889C729.372 677.976 739.6 676.191 750.886 670.82C772.844 660.37 784.204 643.426 792.198 621.039C790.65 623.014 788.994 624.902 787.239 626.695C775.494 638.709 744.352 655.781 727.251 655.996C747.44 649.66 766.749 634.766 776.752 615.884C777.743 613.98 778.659 612.036 779.496 610.058C766.029 625.128 747.915 645.218 728.154 651.211C720.246 653.61 711.644 654.033 703.439 654.748C718.697 650.021 732.709 643.235 740.401 628.419C741.333 626.645 742.121 624.799 742.759 622.899C728.204 637.5 704.945 650.055 683.915 650.153C680.721 650.167 677.532 649.921 674.377 649.418C681.248 654.149 687.091 661.762 692.554 668.037C701.366 678.16 709.899 688.581 718.929 698.506C734.942 716.108 752.696 731.079 771.363 745.745C777.164 750.303 782.869 755.285 788.934 759.46C796.978 764.996 806.649 769.408 815.401 773.754C828.444 780.292 841.564 786.675 854.758 792.9C879.99 804.751 904.572 817.94 928.398 832.411C940.91 839.895 953.787 846.86 964.103 857.398C981.352 875.017 987.034 905.436 991.38 928.961C993.589 941.536 995.566 954.151 997.31 966.8C969.162 983.648 933.446 1000.73 902.214 1011.1C892.873 1014.15 883.457 1016.97 873.977 1019.55C868.891 1020.96 863.216 1022 858.352 1024L647.539 1024C652.66 1017.85 659.357 1012.57 665.079 1006.96C674.577 997.636 683.849 987.654 692.593 977.623C735.819 928.035 774.096 868.068 792.264 804.406C795.392 793.446 798.636 782.21 799.641 770.811C795.805 768.848 792.014 766.799 788.271 764.665C776.621 845.817 718.163 927.751 660.338 983.731C651.104 992.701 641.524 1001.31 631.619 1009.53C625.698 1014.44 619.498 1019 613.656 1024L580.144 1024C594.391 1013.13 608.773 1002.8 622.378 991.07C636.355 978.859 649.751 965.998 662.523 952.532C668.267 946.575 674.232 940.818 679.735 934.634C724.961 883.81 761.118 822.2 774.883 755.038C770.975 751.067 766.187 747.64 762.066 743.832C760.422 750.908 759.264 758.101 757.515 765.155C753.508 780.753 748.323 796.024 742.007 810.837C720.989 860.397 690.688 898.018 653.033 935.937C630.115 959.357 605.557 981.112 579.544 1001.04C568.787 1009.11 557.594 1016.47 546.461 1024L459.023 1024C480.609 988.504 504.518 954.183 528.214 920.07C537.626 906.52 546.693 892.744 556.187 879.245C549.773 868.576 530.117 838.599 520.481 832.582C509.435 831.746 496.271 837.37 486.923 843.139C494.157 836.024 516.008 821.889 525.254 819.321C539.397 825.427 554.136 858.595 561.552 872.464C569.4 860.929 576.719 849.11 584.248 837.376L613.921 791.441C621.378 779.962 628.686 768.387 635.845 756.72C641.12 748.262 646.582 739.842 651.088 730.941C656.124 720.993 660.885 709.841 662.477 698.765C663.309 692.983 663.119 687.645 659.395 682.839C656.589 679.216 648.498 672.118 644.001 671.555L643.523 672.337C644.722 676.457 649.971 678.367 652.313 681.686C654.596 684.921 655.088 689.902 654.472 693.698C650.393 718.826 596.502 766.899 575.852 781.474C555.391 795.916 533.226 807.314 511.992 820.487C503.479 825.769 495.255 831.851 487.166 837.758C487.099 842.967 487.374 848.525 486.297 853.635C484.312 863.05 479.221 872.364 475.654 881.3C472.313 889.669 469.817 898.221 467.425 906.9C463.655 920.578 460.926 934.315 457.767 948.124C453.391 967.253 448.808 986.542 445.577 1005.9C447.738 1011.96 449.983 1018 452.31 1024L403.851 1024C398.566 1016.32 391.634 1009.63 385.932 1002.21C362.946 971.901 342.989 939.413 326.346 905.21C311.223 874.604 297.935 843.772 293.21 809.685C290.305 788.723 291.398 767.409 294.123 746.496C289.579 748.424 284.892 751.053 280.731 753.701C280.397 757.908 279.921 762.101 279.602 766.31C274.073 839.199 301.403 912.221 342.037 971.786C354.56 990.143 368.737 1007.17 383.193 1024L360.328 1024C351.612 1014.27 343.342 1004.16 335.544 993.679C286.991 927.872 254.883 842.185 267.251 759.738C262.042 762.209 256.86 764.735 251.706 767.317C248.796 778.6 247.914 790.401 247.954 802.021C248.001 815.34 249.881 828.394 252.204 841.483C262.118 895.911 282.886 947.786 313.271 994.019C320.252 1004.45 327.891 1015.14 336.804 1024L159.106 1024C153.503 1020.79 145.315 1019.22 139.059 1017.27C128.766 1014.06 118.393 1010.71 108.318 1006.87C80.1679 996.143 50.8632 981.343 24.307 967.109C30.9441 941.075 39.7945 916.098 49.7103 891.168C54.2133 879.847 58.5289 868.452 64.1992 857.648C68.6291 849.208 73.9132 839.026 81.2731 832.883C90.6031 825.095 103.303 819.956 114.233 814.757C137.261 803.967 160.837 794.386 184.863 786.052C202.951 779.778 221.404 774.459 239.203 767.345C243.304 765.706 247.229 763.598 251.25 761.769C260.021 757.778 268.8 753.859 277.413 749.528C285.421 745.501 294.105 741.713 301.656 736.905C310.128 731.51 318.809 721.987 325.792 714.712C330.865 709.426 336.112 704.321 341.131 698.978C352.501 686.873 364.365 673.079 378.375 663.977C388.906 657.136 401.022 652.377 412.965 648.653C412.925 645.921 412.628 643.207 412.375 640.488C400.894 636.401 389.277 632.994 378.266 627.687C384.955 635.737 391.129 640.063 400.679 644.302C377.775 643.459 356.817 635.043 338.848 620.961C348.611 635.811 359.134 644.733 375.902 650.716C354.843 650.194 337.291 644.454 319.174 634.072C329.78 646.736 339.778 654.752 355.992 658.785C342.666 659.417 332.283 658.867 319.159 656.242C330.375 664.102 342.844 667.904 356.096 670.66C335.494 672.035 319.252 669.386 299.934 662.348C313.527 670.906 327.073 675.025 342.938 676.756C333.144 678.472 323.239 679.965 313.299 678.652C281.114 674.397 257.257 655.649 238.004 630.454C246.917 654.97 256.029 662.321 273.413 679.777C272.881 679.582 272.819 679.57 272.225 679.286C247.651 667.525 228.824 646.65 217.649 622.004C214.44 614.927 212.144 607.388 209.46 600.097C213.12 621.786 218.121 642.87 233.463 659.546C242.258 669.107 254.156 676.586 266.638 680.248C271.058 681.545 275.66 682.176 280.076 683.481C284.259 684.717 288.866 687.602 293.179 687.673C293.322 687.675 293.466 687.668 293.609 687.665C292.404 688.076 291.503 688.319 290.225 688.113C286.561 687.523 283.166 685.576 279.515 684.876C276.977 684.389 274.307 684.464 271.737 684.184C267.325 683.692 262.959 682.857 258.677 681.685C246.274 678.293 234.965 672.311 223.938 665.844C201.462 652.664 184.898 640.804 171.631 617.528C151.089 581.489 149.756 530.867 156.974 490.844C160.081 473.618 165.177 457.291 169.519 440.399C174.449 421.216 179.039 402.037 184.339 382.942C183.888 383.778 183.469 384.631 183.084 385.499C154.491 450.756 117.089 542.79 145.456 613.503C155.346 638.156 173.095 654.206 197.215 664.576C193.259 664.539 188.645 662.657 184.987 661.237C167.17 654.32 153.526 641.983 143.443 625.913C140.724 621.578 138.836 616.246 135.79 612.227C133.26 608.888 129.824 606.164 127.041 603.026C121.764 597.074 117.298 588.457 114.169 581.22C90.0306 525.379 113.248 448.421 137.847 396.493C150.279 370.248 165.318 345.499 179.964 320.475C195.675 293.631 211.275 266.17 224.854 238.183C229.201 229.224 231.614 219.027 235.276 209.717C257.046 154.378 297.065 94.8121 343.935 57.6896C361.897 43.4632 382.43 31.595 403.421 22.4674C424.233 13.4176 463.374 2.71554 484.836 11.1482C496.802 4.32349 510.821 1.60535 524.533 1.47226C539 1.33183 553.891 4.43961 567.849 7.99685C616.962 20.2793 661.87 45.5389 697.872 81.1313C737.998 120.711 768.217 175.734 789.695 227.493C794.153 238.257 798.479 249.075 802.672 259.945C806.214 269.353 809.481 278.892 813.437 288.137C819.088 301.34 825.656 314.206 831.62 327.277C856.236 381.219 875.564 427.314 883.138 486.98C884.813 500.172 886.652 513.678 886.729 526.979C886.8 539.149 885.97 552.281 883.683 564.235C882.657 569.602 880.66 574.868 879.897 580.255C878.974 586.769 879.805 593.855 879.492 600.48C878.709 617.062 873.983 643.359 861.813 655.715ZM518.557 34.0983L518.003 34.3812L518.557 34.0983C530.711 33.6755 542.597 30.9335 554.873 30.9678C557.318 30.9747 563.859 31.7816 565.798 30.426C556.343 28.9742 527.187 30.259 518.557 34.0983ZM471.5 42.5L470.848 43.4645C463.785 49.6101 454.761 69.4076 453.222 78.8474C453.769 78.5673 455.281 78.0186 455.636 77.6123C457.209 75.8095 459.838 66.3849 460.839 63.638C463.456 56.4633 467.854 50.3725 470.848 43.4645L471.5 42.5L471.924 42.0025L471.5 42.5ZM512.222 47.5339L512.003 47.8753L512.222 47.5339L550.834 48.0234L550.903 47.7242C541.748 45.5346 520.902 43.8018 512.222 47.5339ZM522.032 51.6125C525.496 53.5694 536.84 54.3193 541.397 55.2046C551.108 57.1267 560.794 59.1753 570.451 61.3499C580.768 63.8347 591.015 66.597 601.182 69.6338C607.147 71.38 613.55 73.8733 619.692 74.7232L620.162 74.8833L619.692 74.7232C614.385 71.8651 607.435 70.2764 601.657 68.5601C587.056 64.213 572.289 60.4432 557.391 57.2594C545.757 54.6944 533.982 52.0147 522.032 51.6125ZM394.709 82.8958C382.58 88.1499 369.939 99.1717 359.433 107.148C356.926 109.052 351.105 114.179 348.429 114.986L347.845 114.519C348.49 109.593 356.661 102.929 359.889 99.1468C352.328 104.511 341.842 115.68 336.325 123.188C327.769 134.83 304.668 177.913 302.269 191.953L302.002 192.498L302.269 191.953C305.154 187.157 307.107 181.426 309.552 176.363C314.98 165.117 326.495 144.116 335.173 135.848C330.898 147.605 322.548 158.947 318.807 170.71L318.581 170.998L318.807 170.71C321.978 167.596 324.632 162.604 327.353 158.954C332.71 151.767 339.201 145.57 346.121 139.91C346.052 140.045 345.984 140.18 345.913 140.314C342.743 146.316 338.345 151.875 334.744 157.65C326.724 170.407 319.712 183.77 313.772 197.618C306.466 214.844 300.821 232.54 294.983 250.298C269.261 328.548 237.68 453.564 249.82 535.143C250.791 541.669 251.731 548.684 253.68 554.992C253.905 555.718 254.189 556.339 254.513 557.024C254.625 559.246 255.109 561.241 256.214 563.195L256.501 564.063C256.644 564.718 256.744 565.379 257 566L257.288 566.866L257 566C256.915 565.296 256.724 564.733 256.501 564.063L256.214 563.195C256.085 560.979 255.589 558.962 254.513 557.024C254.775 552.432 250.602 535.27 249.835 528.973C247.688 511.338 247.652 492.537 248.592 474.829C250.641 436.238 257.626 398.09 265.789 360.373C276.008 313.159 288.531 264.98 308.031 220.637C321.496 189.471 338.976 160.198 360.027 133.562C367.609 124.07 376.323 114.732 385.524 106.792C390.221 102.738 395.441 99.2702 400.031 95.1102L400.382 94.787L400.955 94.4626L401.481 94.0729L400.955 94.4626L400.382 94.787C383.187 102.198 367.195 119.651 352.106 130.02C351.894 130.165 351.693 130.326 351.475 130.462C350.933 130.799 350.544 130.807 349.929 130.808C349.868 127.749 353.8 123.408 354.686 120.241L354.953 120.002L354.686 120.241L354.144 120.902C349.84 126.205 347.829 131.393 341.801 135.16C343.584 130.754 346.714 126.713 349.615 122.988C363.007 105.796 378.027 96.1122 394.709 82.8958L394.998 82.6057L394.709 82.8958ZM423.953 91.7735C418.814 92.7982 412.97 96.1099 408.435 98.6899C385.391 111.801 368.403 131.017 353.839 152.797C344.056 167.426 325.314 204.035 323.948 220.96C336.692 182.383 371.3 130.924 403.032 105.021C409.446 99.7855 417.039 96.2644 423.953 91.7735L424.498 91.5101L423.953 91.7735ZM344.513 107.509L344.095 107.948L344.513 107.509L345.43 106.846L344.513 107.509ZM328.777 118.677C351.618 91.4188 378.892 60.2531 413.824 49.4984C421.037 47.2779 428.582 46.8544 435.995 45.697C432.022 43.6773 414.412 48.0197 409.759 49.517C360.463 65.3798 301.104 124.748 277.98 170.397C275.091 176.101 271.103 183.232 269.807 189.44L269.573 189.998L269.807 189.44C273.251 184.982 276.938 175.132 280.2 169.491C287.478 156.906 307.934 132.147 320.748 124.849C315.563 133.984 309.625 142.735 304.673 151.989C295.446 169.231 273.662 218.478 272.353 237.16C272.206 237.612 272.042 238.024 272 238.5L271.712 239.366L272 238.5C272.179 238.114 272.253 237.577 272.353 237.16C276.325 226.823 278.364 216.182 282.794 205.631C291.238 185.516 303.038 165.922 315.832 148.296C319.745 142.904 324.097 137.817 328.138 132.519C331.885 127.607 335.182 122.331 339.014 117.493C342.911 112.573 347.488 108.027 351.82 103.487C358.011 97.0012 365.724 92.2818 371.929 85.8531L372.523 85.2316C365.17 89.555 357.377 96.3405 351.36 102.312C344.709 108.912 337.982 117.939 329.436 122.047C333.323 118.067 337.062 114.046 340.289 109.503C337.507 110.078 332.62 116.536 329.606 118.231C329.333 118.384 329.054 118.528 328.777 118.677ZM568.511 157.502L569 158.5L569.708 159.917L570.122 160.743L570.337 161.187C572.086 166.695 575.524 172.151 578.215 177.298C590.168 200.161 602.62 223.272 618.735 243.533C620.887 246.239 623.627 250.074 626.422 252.102C626.822 252.393 627.077 252.419 627.51 252.522C628.816 254.268 629.877 255.523 631.755 256.671L631.997 256.9L631.755 256.671C630.72 254.613 629.419 253.7 627.51 252.522C626.722 250.202 622.812 246.865 621.16 244.826C616.691 239.311 612.646 233.409 608.789 227.454C599.565 213.217 590.994 198.39 582.685 183.6C579.413 177.774 574.517 165.56 570.337 161.187L570.122 160.743L569.708 159.917L569 158.5L568.511 157.502ZM640.691 158.039C647.203 165.219 652.77 173.81 658.203 181.838C683.28 218.886 696.908 250.091 710.116 293.029C712.921 302.146 717.984 318.85 718.284 328.012C719.617 324.908 717.535 317.041 716.922 313.566C711.814 283.782 703.577 254.62 692.348 226.565C684.665 207.404 673.322 189.388 661.553 172.496C630.836 128.407 603.116 100.556 552.902 79.2398C539.254 73.4459 505.783 63.1958 492.157 67.7867C494.856 68.3442 498.051 67.9793 500.847 68.212C507.764 68.7876 514.442 69.8636 521.181 71.5661C570.952 84.1408 606.535 116.815 634.123 158.838C652.154 186.305 672.467 227.169 683.878 258.136C689.594 273.647 693.493 289.78 697.813 305.715C708.634 345.626 720.209 389.463 741.284 425.283C744.052 429.987 747.508 436.85 751.706 440.295L752.076 440.604L753.038 441.96L753.715 442.655L753.972 442.992L753.715 442.655L753.038 441.96C752.794 441.49 752.392 441.032 752.076 440.604L751.706 440.295C748.991 433.856 743.807 427.627 740.418 421.386C733.025 407.607 726.643 393.309 721.322 378.604C711.748 352.676 704.184 325.986 696.93 299.333C692.433 282.813 688.352 266.055 682.846 249.836C675.538 228.309 666.598 206.602 656.278 186.362C651.378 176.752 645.582 167.624 640.691 158.039ZM617.106 158.502L617.315 159.251L618.197 160.216L618.39 160.498L618.197 160.216L617.315 159.251L617.106 158.502ZM618.584 161.002L618.788 161.766L619.797 162.806L620.068 163.743C620.894 167.175 648.158 213.354 650.714 215.715L650.938 215.998L650.714 215.715C649.536 210.842 624.068 167.045 620.068 163.743L619.797 162.806L618.788 161.766L618.584 161.002ZM582.003 164.002L582.5 165L583.208 166.417L583.471 166.998L583.208 166.417L582.5 165L582.003 164.002ZM600.102 168.502L600.311 169.252L601.286 170.312L601.413 170.72C604.808 180.324 636.257 231.63 642.307 237.937L643 239L643.398 239.498L643 239C642.843 238.632 642.535 238.268 642.307 237.937C640.839 233.847 604.118 173.879 601.413 170.72L601.286 170.312L600.311 169.252L600.102 168.502ZM559.583 172.502L560 173.5L560.721 175.63L561.194 176.828L561.497 177.498L561.194 176.828L560.721 175.63L560 173.5L559.583 172.502ZM615.589 176.002L615.84 176.272C617.518 180.504 655.989 240.783 658.813 243.475L659.5 244.5C659.817 245.018 660.099 245.542 660.5 246L661.207 247.279L661.591 247.593L662.181 248.767L662.58 249.118L663.127 250.255L663.382 250.498L663.127 250.255L662.58 249.118L662.181 248.767L661.591 247.593L661.207 247.279L660.5 246C660.231 245.453 659.857 244.992 659.5 244.5L658.813 243.475C656.055 235.83 621.758 181.781 615.84 176.272L615.589 176.002ZM561.696 178.496C561.722 179.286 561.88 179.369 562.288 180.012C569.631 207.881 596.322 244.111 615.355 265.397C619.78 270.346 625.097 276.895 630.751 280.313C630.833 280.363 630.918 280.408 631.001 280.455C631.601 281.771 632.521 282.154 633.726 282.813L634.103 283.07L634.497 283.44L634.103 283.07L633.726 282.813C632.771 281.642 632.446 280.965 631.001 280.455C627.339 275.455 621.806 271.274 617.654 266.563C606.684 254.188 596.543 241.103 587.298 227.392C581.64 218.854 576.253 209.821 571.844 200.575C568.751 194.089 566.365 185.828 562.288 180.012C562.28 178.812 562.498 179.309 561.696 178.496ZM506.449 56.1861C509.924 57.1278 513.813 57.2994 517.377 57.9092C523.889 59.0484 530.329 60.5611 536.667 62.4399C591.122 78.5075 647.023 110.202 686.499 151.202C693.202 158.164 699.348 165.924 704.982 173.77C707.75 177.624 710.358 182.415 713.635 185.804C713.846 186.022 714.062 186.235 714.276 186.451L714.615 187.219L715.5 188.5C715.814 188.988 716.124 189.561 716.5 190L717.213 191.271L717.588 191.595L718.185 192.757L718.576 193.131L719.157 194.249L719.401 194.498L719.157 194.249L718.576 193.131L718.185 192.757L717.588 191.595L717.213 191.271L716.5 190C716.23 189.453 715.857 188.992 715.5 188.5C715.271 188.02 714.938 187.639 714.615 187.219L714.276 186.451C707.826 171.556 684.899 147.38 672.826 136.258C660.842 125.229 648.017 115.15 634.468 106.112C602.898 84.9807 545.52 54.5448 506.449 56.1861ZM301.196 193.622L301.067 194.998L301.196 193.622L301.968 193.002L301.196 193.622ZM719.603 195.002L719.818 195.738L720.746 196.682L720.907 196.998L720.746 196.682L719.818 195.738L719.603 195.002ZM721.11 197.502L721.32 198.244L722.205 199.197L722.38 199.498L722.205 199.197L721.32 198.244L721.11 197.502ZM569.003 207.502L569.5 208.5L570.183 209.928L570.341 210.56C574.071 225.871 607.684 279.466 620.748 287.098C620.873 287.171 621.008 287.226 621.138 287.29L621.561 287.654L621.889 287.998L621.561 287.654L621.138 287.29C618.162 282.89 613.594 279.179 610.13 275.091C603.539 267.313 597.736 258.773 592.179 250.241C587.872 243.628 583.983 237.065 580.414 230.03C577.653 224.589 573.929 214.993 570.341 210.56L570.183 209.928L569.5 208.5L569.003 207.502ZM651.101 216.502L651.313 217.24L652.189 218.209L652.377 218.498L652.189 218.209L651.313 217.24L651.101 216.502ZM643.597 240.002L643.838 240.758L644.408 240.998L643.838 240.758L643.597 240.002ZM644.603 241.502L645.149 241.745L645.393 242.498L645.149 241.745L644.603 241.502ZM583.338 167.01C587.256 183.501 628.857 258.319 641.767 266.289L642.088 266.579L642.655 267.158L642.997 267.498L642.655 267.158L642.088 266.579L641.767 266.289C640.211 263.247 637.156 260.693 635.077 257.922C630.982 252.468 627.321 246.537 623.605 240.813C611.414 221.646 600.414 201.748 590.666 181.23C588.428 176.627 586.394 171.09 583.338 167.01ZM425.142 282.397L425.337 282.946L425.466 283.57C430.709 307.921 441.973 333.574 458.858 351.998C460.655 353.959 464.188 353.493 464.773 355.862C456.158 355.67 447.803 349.491 442.107 343.515C424.334 324.87 416.547 293.317 410.529 268.844C412.229 296.938 415.738 331.09 436.98 351.965C433.114 351.817 428.518 352.364 425.588 349.472L425.002 348.627L425.588 349.472C425.156 349.994 425.08 350.388 424.374 350.447C417.931 350.983 410.193 346.599 405.44 342.472C385.668 325.305 379.377 293.339 377.828 268.517C377.554 263.754 377.417 258.985 377.418 254.215C372.358 279.32 372.662 324.625 387.287 346.38C388.61 348.348 390.154 350.098 391.76 351.833C380.289 344.531 375.299 333.33 372.394 320.377C368.384 302.499 369.646 284.671 371.761 266.669C369.677 271.377 368.491 276.562 366.83 281.439C361.149 298.112 355.498 318.255 346.815 333.441C344.311 337.82 341.2 341.879 338.095 345.846C344.585 344.838 351.117 344.371 357.646 345.346C370.643 347.287 383.202 352.303 395.501 356.739C400.696 358.613 405.986 360.214 411.174 362.098C413.56 362.964 421.418 366.777 423.044 366.807C424.301 366.829 423.532 365.638 425.326 366.975C427.916 368.904 429.497 371.934 431.654 374.213L431.875 374.498L431.654 374.213C430.749 371.023 428.87 369.006 426.616 366.704C429.324 367.61 430.398 369.284 432.101 371.468C432.015 370.296 431.62 369.225 431.264 368.114C435.124 369.477 439.671 378.544 441.429 382.222C442.036 383.496 442.613 384.784 443.161 386.084C441.955 381.764 440.574 377.67 438.841 373.532C441.835 377.7 444.578 383.062 446.167 387.956C445.69 389.248 445.92 389.874 446.134 391.195C446.266 392.007 446.315 391.601 446.015 392.359C444.706 392.039 444.244 391.132 443.367 390.149C442.467 391.01 441.942 390.832 440.775 390.629C434.352 389.51 427.585 386.115 421.364 384C409.313 379.901 397.006 376.589 384.943 372.448C371.797 367.935 353.093 359.008 339.985 357.673C333.326 356.995 327.696 359.326 321.26 359.532L322.47 357.565C321.278 357.895 320.795 358.475 320.001 359.36L319.697 359.706L319.069 359.674C319.506 355.413 332.452 347.621 335.269 342.586C341.228 331.932 347.156 300.559 348.486 287.884C344.307 301.592 339.736 315.645 334.191 328.863C332.125 333.788 320.9 357.07 317.655 359.214C316.981 359.659 315.85 359.953 315.08 360.267C313.703 362.868 314.004 369.609 313.771 372.681C312.949 383.515 311.838 394.436 312.013 405.31C312.246 419.739 314.798 434.48 317.105 448.701C319.473 463.293 321.715 478.278 325.339 492.607C331.8 518.159 346.96 558.164 361.659 580.22C368.688 590.768 377.695 600.508 386.243 609.868C396.145 620.711 406.003 631.344 416.785 641.322C429.998 653.552 443.086 666.49 457.762 676.989C474.59 689.028 493.122 693.194 513.631 689.71C521.768 688.327 530.145 685.37 537.387 681.413C547.645 675.809 557.118 667.548 566.127 660.152C598.143 633.868 627.17 605.127 651.194 571.189C655.999 564.402 660.132 557.45 663.36 549.771C671.002 531.588 699.317 443.094 697.306 426.78C696.537 420.54 693.804 414.096 691.95 408.084C687.892 395.194 684.028 382.243 680.359 369.237C678.673 363.336 676.399 357.116 675.414 351.079C675.391 350.937 675.371 350.795 675.349 350.653C668.966 347.108 662.094 344.501 655.703 340.955C644.838 334.926 636.401 327.104 627.293 318.858L627 318.5L626.584 318.002L627 318.5L627.293 318.858C634.248 333.005 652.594 343.871 666.97 348.787C668.755 349.406 670.565 349.951 672.395 350.419C658.728 350.436 657.495 352.418 644.995 355.056C634.613 357.246 624.226 359.076 614.014 362.03C604.698 364.725 595.927 368.593 586.825 371.864C571.363 377.49 555.588 382.217 539.579 386.021C536.153 386.801 531.487 388.34 527.966 388.013C526.686 387.895 525.702 387.193 524.842 386.292C522.616 383.961 520.982 379.743 520.342 376.587C522.246 379.712 524.462 382.753 526.31 385.847C525.502 381.192 522.041 377.751 520.86 373.299C522.982 375.256 523.698 378.003 525.708 379.981L526.122 380.716L526.629 381.116L527.155 382.368L527.675 383.208L527.886 383.498L527.675 383.208L527.155 382.368L526.629 381.116L526.122 380.716L525.708 379.981C524.921 377.354 523.791 374.696 523.723 371.939L524.265 371.668C524.828 373.132 525.292 374.596 525.734 376.1C526.064 373.495 526.525 370.834 527.741 368.485C528.288 370.129 527.384 372.033 527.481 373.781C527.534 374.727 527.564 375.602 527.553 376.553C526.816 377.227 526.963 376.846 526.866 377.566C527.571 376.965 527.379 377.325 527.553 376.553C529.646 373.184 531.633 369.582 534.169 366.53C533.566 368.822 532.866 371.125 532.404 373.448L532.003 373.998L532.404 373.448C533.495 371.995 534.301 370.303 535.216 368.732C535.913 367.536 536.512 366.556 537.68 365.739C544.305 361.1 592.715 347.369 603.421 344.527C584.573 336.699 571.122 323.548 557.968 308.449L557.805 308.222L556.769 307.271L556.588 306.513L556.769 307.271L557.805 308.222L557.968 308.449C563.109 319.969 578.085 334.084 588.825 340.667C580.042 341.887 574.902 342.479 567.36 336.745C562.335 332.923 557.877 328.188 554.004 323.22C551.811 320.408 539.492 301.588 538.805 301.262C539.49 307.391 559.18 334.849 564.881 339.399C567.374 341.389 570.781 343.345 572.807 345.76L572.466 346.101L571.792 345.534C568.933 343.175 565.627 341.196 562.437 339.316C564.75 341.991 567.135 344.001 570.207 345.801C562.935 348.906 555.862 350.949 548.167 352.715C551.884 354.015 555.513 354.97 559.376 355.718C551.968 357.104 545.041 354.598 538.94 350.473C521.205 338.482 509.131 313.593 500.951 294.228C499.728 291.332 498.183 288.48 497.147 285.526C496.728 287.4 498.501 290.918 499.136 292.722C504.384 307.627 510.646 321.923 519.165 335.276C523.397 341.908 527.761 347.154 533.343 352.626C532.373 353.287 529.975 353.113 528.777 352.922C528.042 352.804 527.643 352.426 527.013 352.076C526.685 351.893 526.332 351.757 525.99 351.599L525.503 351.514L525.99 351.599L526.876 353.176C518.787 356.152 507.016 352.679 498.881 350.972C504.872 353.457 511.087 354.905 517.392 356.324L514.748 356.598C499.575 358.226 488.68 355.084 474.561 350.483C479.843 353.679 484.595 355.811 490.528 357.537C483.858 357.7 475.417 357.246 469.316 354.372C444.138 342.516 434.016 307.007 425.337 282.946L425.142 282.397ZM489.582 295.502L490 296.5L490.714 298.483L490.998 298.998L490.714 298.483L490 296.5L489.582 295.502ZM491.002 299.502L491.315 300.005C491.852 304.319 494.436 312.584 497.197 315.991L497.626 316.712L498.156 317.828L498.449 318.498L498.156 317.828L497.626 316.712L497.197 315.991C496.423 311.002 493.647 304.49 491.315 300.005L491.002 299.502ZM820.067 318.002L820.353 318.615C821.365 325.778 824.208 333.232 826.059 340.297C832.561 365.109 840.26 389.554 847.02 414.297C856.682 448.602 864.929 483.289 871.74 518.271C873.631 528.52 875.42 538.87 876.901 549.186C877.621 554.196 877.973 559.264 878.786 564.257L879.321 564.077C882.846 511.698 875.684 459.149 858.273 409.623C851.957 391.253 844.322 373.468 836.549 355.685C831.193 343.43 826.563 330.451 820.353 318.615L820.067 318.002ZM501.105 324.002L501.308 324.758L502.288 325.809L502.588 326.788L503.18 327.792C503.433 328.183 503.685 328.663 503.999 329.005L504.709 330.415L505.169 331.197L505.586 331.641L506.196 332.846L507 334L507.72 335.299L508.09 335.593L509.008 337L509.648 337.711L510.076 338.809L510.567 338.988C511.916 341.478 513.712 343.468 516.239 344.804L516.598 345.074L517.195 345.612C517.598 345.913 518.03 346.298 518.474 346.528L519.206 347.167L519.675 347.559L520.779 348.232L521.083 348.593L521.497 348.901L521.083 348.593L520.779 348.232L519.675 347.559L519.206 347.167L518.474 346.528L517.195 345.612L516.598 345.074L516.239 344.804C514.637 342.58 512.622 340.774 510.567 338.988C510.493 338.187 510.236 338.212 509.648 337.711L509.008 337C508.769 336.482 508.422 336.055 508.09 335.593L507.72 335.299L507 334C506.806 333.599 506.46 333.207 506.196 332.846L505.586 331.641L505.169 331.197L504.709 330.415L503.999 329.005C503.796 328.584 503.451 328.175 503.18 327.792L502.588 326.788L502.288 325.809L501.308 324.758L501.105 324.002ZM522.003 349.109L522.733 349.371L522.997 349.909L522.733 349.371L522.003 349.109ZM796.519 363.503L797 364.5L797.714 366.483L797.997 366.998L797.714 366.483L797 364.5L796.519 363.503ZM798.212 368.134L798.5 369L798.95 369.998L798.5 369L798.212 368.134ZM799.212 371.134L799.5 372L799.788 372.866L799.5 372L799.212 371.134ZM801.212 378.134L801.5 379L802.217 381.131L802.383 381.637C802.562 383.247 802.631 384.743 803.417 386.196L803.818 386.444C804 387.817 803.927 388.698 804.787 389.804C805.088 393.002 806.308 396.441 807.111 399.564C808.761 405.988 810.421 412.389 811.809 418.877C817.148 442.733 820.482 466.994 821.776 491.406C822.225 501.842 822.094 512.359 821.889 522.801C821.839 525.335 820.846 531.964 821.385 534.047C821.46 534.337 821.671 534.573 821.813 534.836C825.924 494.571 820.831 453.096 811.638 413.827C809.848 406.182 808.274 396.853 804.787 389.804C804.903 388.387 804.409 387.72 803.818 386.444C804.045 384.655 803.16 383.175 802.383 381.637L802.217 381.131L801.5 379L801.212 378.134ZM693.712 390.134L694 391C694.143 391.675 694.242 392.358 694.5 393L694.789 393.867C695.008 395.68 695.657 399.904 696.98 401.247C697.074 401.342 697.193 401.409 697.3 401.491C698.554 407.664 701.453 413.867 703.787 419.709C707.535 428.946 711.198 438.218 714.775 447.522C723.711 471.252 730.521 494.476 734.766 519.488C735.875 526.025 737.167 532.674 737.667 539.288C738.955 556.291 738.201 572.706 736.898 589.653C736.779 590.075 736.613 590.484 736.625 590.925C736.973 589.868 736.985 590.302 736.898 589.653C737.116 588.976 737.311 588.291 737.481 587.6C740.044 577.501 740.159 566.275 739.857 555.896C738.554 511.179 724.654 467.621 707.825 426.553C704.509 418.46 701.704 408.992 697.3 401.491C697.203 398.913 695.896 396.165 694.789 393.867L694.5 393C694.414 392.278 694.222 391.69 694 391L693.712 390.134ZM221.568 481.663C220.95 490.288 223.126 499.928 224.449 508.492C225.233 513.562 231.029 542.087 234.323 544.498C234.555 546.052 234.524 546.738 235.5 548L236.214 549.983L236.498 550.497L236.214 549.983L235.5 548C235.372 546.577 234.956 545.749 234.323 544.498C234.313 542.27 227.772 521.645 226.84 517.231C225.452 510.659 224.41 503.873 223.534 497.208C222.934 492.644 223.402 485.715 221.568 481.663ZM257.712 568.634L258 569.5L258.419 570.497L258 569.5L257.712 568.634ZM258.577 571.503L259 572.5L259.288 573.366L259 572.5L258.577 571.503ZM236.348 550.458C237.595 556.633 243.707 570.859 247.721 575.48L248.116 576.217L248.66 577.315L249.193 578.23L249.562 578.654L250.182 579.853L250.649 580.761L251.5 582C251.817 582.518 252.099 583.042 252.5 583.5L253.175 584.736L253.409 584.997L253.175 584.736L252.5 583.5C252.239 582.982 251.83 582.479 251.5 582C251.28 581.535 250.96 581.168 250.649 580.761L250.182 579.853L249.562 578.654L249.193 578.23L248.66 577.315L248.116 576.217L247.721 575.48C247.036 572.422 238.107 552.748 236.348 550.458ZM253.612 585.503L253.829 586.235L254.753 587.194L254.922 587.497L254.753 587.194L253.829 586.235L253.612 585.503ZM256.091 589.513L256.272 590.278L257.227 591.19L257.393 591.497L257.227 591.19L256.272 590.278L256.091 589.513ZM277.102 613.003L277.342 613.755L277.909 613.997L277.342 613.755L277.102 613.003ZM278.113 614.503L278.363 615.227L279.201 615.637L279.692 616.792L280.119 617.072L280.59 617.711L281.525 618.979L282.178 619.696L282.566 620.17L283.223 621.226L283.498 621.41L283.223 621.226L282.566 620.17L282.178 619.696L281.525 618.979C281.291 618.538 280.896 618.109 280.59 617.711L280.119 617.072L279.692 616.792L279.201 615.637L278.363 615.227L278.113 614.503ZM284.017 622.003L284.47 622.53L285.144 623.233L285.558 623.676C286.06 624.634 286.329 625.117 287.27 625.674L287.447 625.846C288.707 627.527 289.834 628.8 291.693 629.814L292.08 630.103L292.633 630.673L293.138 631.123L293.672 631.606L294.175 632.091L294.883 632.497L294.175 632.091L293.672 631.606L293.138 631.123L292.633 630.673L292.08 630.103L291.693 629.814C290.502 628.074 289.28 626.885 287.447 625.846L287.27 625.674C286.843 624.69 286.405 624.32 285.558 623.676L285.144 623.233L284.47 622.53L284.017 622.003ZM647.825 626.919C664.329 630.961 676.04 630.98 692.104 625.374C674.739 627.341 657.276 627.131 643.025 615.514C641.908 614.604 640.868 613.594 639.84 612.585C639.43 619.946 639.457 627.068 640.156 634.422L643.493 635.508C662.891 641.85 671.041 649.309 691.511 638.843C695.248 636.932 698.68 634.574 702.07 632.114C682.49 637.722 667.447 638.383 649.11 627.794C648.427 627.399 648.366 627.332 647.825 626.919ZM161.911 506.863C157.958 534.811 159.793 569.75 169.023 596.504C176.018 616.782 186.779 631.95 202.276 646.514C206.249 650.247 210.281 654.291 215.224 656.71L215.633 657.076L215.998 657.381L215.633 657.076L215.224 656.71C212.878 653.835 210.041 651.218 207.556 648.44C203.373 643.693 199.409 638.757 195.676 633.648C175.845 606.802 166.213 574.529 163.489 541.553C163 535.63 162.539 529.692 162.495 523.746C162.452 518.015 162.967 511.847 162.235 506.19L161.911 506.863ZM467.112 824.218C455.909 812.359 446.004 788.121 440.766 772.451C431.543 772.965 423.079 772.679 413.974 770.869C420.027 786.104 428.549 801.304 438.59 814.281C443.289 820.354 448.637 825.95 453.191 832.132C456.614 836.779 458.586 842.47 462.574 846.701C467.368 851.786 473.484 855.556 478.953 859.865C482.394 851.977 482.997 846.181 482.384 837.719C503.084 818.76 527.306 806.298 551.018 791.676C573.157 778.024 592.747 761.598 611.426 743.571C620.313 734.995 628.918 726.449 636.439 716.613C639.902 711.766 643.474 706.944 646.557 701.843C644.564 697.647 642.754 693.572 641.537 689.08C639.436 681.324 638.618 673.031 637.607 665.069C635.162 645.825 633.52 626.813 633.335 607.393C628.491 613.944 624.314 620.989 619.74 627.732C613.904 636.335 607.567 644.666 601.201 652.882C590.312 666.937 577.929 678.912 565.665 691.685C538.703 719.763 520.006 742.442 481.763 756.143C474.387 758.786 466.769 761.401 459.006 762.585C453.617 763.408 448.648 763.275 443.258 762.555C444.964 773.116 450.286 784.341 454.249 794.231C458.271 804.268 462.032 814.656 467.112 824.218ZM81.5776 867.215C81.3109 872.754 82.425 878.823 82.9928 884.352C85.3896 907.42 89.2096 930.317 94.4309 952.914C96.5126 962.004 98.5715 971.341 101.628 980.161C101.67 980.914 101.686 981.3 102 982L102.241 982.869L102 982C102.044 980.674 102.185 981.283 101.628 980.161C101.222 972.662 98.939 964.726 97.573 957.314L88.6802 908.561C87.2849 901.104 86.001 893.626 84.8289 886.131C83.9105 879.965 83.4691 873.146 81.5776 867.215ZM889.321 1006.91L889.116 1007.49L889.321 1006.91C892.024 1003.24 899.718 984.268 902.384 978.388C909.658 962.346 917.168 946.578 925.308 930.946C931.407 919.254 938.018 907.836 945.124 896.726C948.572 891.377 953.838 886.088 956.197 880.213C951.211 884.737 946.944 891.724 943.141 897.338C923.357 926.585 907.083 958.058 894.654 991.108C892.761 996.088 890.213 1001.66 889.321 1006.91ZM527.381 38.6936C520.835 39.1148 507.837 39.7249 502.367 43.2496C504.818 43.8704 515.86 41.1078 519.376 40.6978C523.64 40.3074 527.893 39.9619 532.179 39.9968C536.421 40.0313 540.475 40.4349 544.718 39.991C538.964 39.1242 533.208 38.5809 527.381 38.6936ZM505.132 56.25L505.745 56.25L505.132 56.25ZM621.379 75.25L622.245 75.25L621.379 75.25ZM622.879 75.75L623.745 75.75L622.879 75.75ZM624.38 76.25L625.245 76.25L624.38 76.25ZM625.88 76.75L626.745 76.75L625.88 76.75ZM351.053 110.399C350.226 111.325 349.2 112.02 349.291 113.372C349.305 113.575 349.384 113.767 349.431 113.965C350.229 112.921 351.275 112.087 351.149 110.694C351.14 110.591 351.085 110.497 351.053 110.399ZM355.195 119.25L355.745 119.25L355.195 119.25ZM566.658 153.454L567.245 153.75L566.658 153.454ZM567.228 154.75L567.605 154.75L567.228 154.75ZM567.704 155.75L568.042 155.75L567.704 155.75ZM568.163 156.75L568.519 156.75L568.163 156.75ZM581.214 162.25L581.541 162.25L581.214 162.25ZM581.681 163.25L582.032 163.25L581.681 163.25ZM599.708 167.75L600.071 167.75L599.708 167.75ZM558.714 169.949L559.245 170.25L558.714 169.949ZM559.221 171.453L559.745 171.75L559.221 171.453ZM318.105 171.75L318.541 171.75L318.105 171.75ZM269.233 190.988L269.504 191.25L269.233 190.988ZM268.7 192.25L269.069 192.25L268.7 192.25ZM268.241 193.487L268.511 193.75L268.241 193.487ZM300.742 195.986L301.012 196.25L300.742 195.986ZM722.695 200.25L723.062 200.25L722.695 200.25ZM723.22 201.25L723.575 201.25L723.22 201.25ZM567.22 203.25L567.554 203.25L567.22 203.25ZM567.679 204.453L568.245 204.75L567.679 204.453ZM568.247 205.75L568.654 205.75L568.247 205.75ZM568.691 206.75L569.083 206.75L568.691 206.75ZM652.647 219.25L653.021 219.25L652.647 219.25ZM653.189 220.25L653.516 220.25L653.189 220.25ZM653.704 221.25L654.033 221.25L653.704 221.25ZM271.277 240.75L271.745 240.75L271.277 240.75ZM645.756 243.25L646.245 243.25L645.756 243.25ZM663.698 251.25L664.057 251.25L663.698 251.25ZM664.245 252.25L664.639 252.25L664.245 252.25ZM665.092 253.75L665.516 253.75L665.092 253.75ZM665.675 254.75L666.01 254.75L665.675 254.75ZM213.781 272.881C206.369 288.584 198.245 304.305 189.515 319.323C184.484 327.976 178.954 336.345 173.818 344.937C165.935 358.124 158.317 371.789 151.256 385.435C144.807 397.902 139.537 411.06 134.301 424.072C129.05 437.12 123.776 450.287 119.828 463.801C109.62 498.737 105.345 540.263 117.728 575.122C120.006 581.393 122.868 587.435 126.278 593.17C128.584 596.475 130.837 599.836 133.23 603.077C129.084 590.313 126.639 577.057 125.958 563.653C124.44 530.299 134.691 487.847 146.15 456.621C152.983 438.003 161.235 419.939 169.223 401.801C172.917 393.415 176.266 384.88 179.989 376.508C185.776 363.497 193.017 350.494 197.809 337.126C201.917 325.667 204.188 312.971 207.107 301.124C208.553 295.253 214.243 277.891 213.781 272.881ZM484.731 280.75L485.063 280.75L484.731 280.75ZM485.714 283.949L486.245 284.25L485.714 283.949ZM496.77 284.75L497.233 284.75L496.77 284.75ZM486.16 285.454L486.745 285.75L486.16 285.454ZM486.563 287.213L486.933 288.254L487.414 288.303L487.061 287.251L486.563 287.213ZM487.661 289.955L488.245 290.25L487.661 289.955ZM488.159 291.454L488.745 291.75L488.159 291.454ZM488.66 292.955L489.245 293.25L488.66 292.955ZM489.182 294.453L489.745 294.75L489.182 294.453ZM538.156 300.25L538.559 300.25L538.156 300.25ZM331.589 311.25L332.001 311.25L331.589 311.25ZM331.153 311.831C326.857 326.555 320.778 340.526 316.18 355.082C315.735 356.491 315.25 357.676 315.638 359.126C318.598 351.714 332.959 317.905 331.153 311.831ZM498.708 319.25L499.105 319.25L498.708 319.25ZM499.192 320.25L499.551 320.25L499.192 320.25ZM499.704 321.25L500.089 321.25L499.704 321.25ZM500.203 322.25L500.569 322.25L500.203 322.25ZM500.728 323.25L501.142 323.25L500.728 323.25ZM429.833 350.46L430.302 350.623L429.833 350.46ZM522.356 352.454L522.851 352.619L522.356 352.454ZM794.741 358.75L795.124 358.75L794.741 358.75ZM795.702 361.25L796.068 361.25L795.702 361.25ZM796.242 362.75L796.655 362.75L796.242 362.75ZM800.168 374.681L800.497 375.005L800.168 374.681ZM800.677 376.453L801.245 376.75L800.677 376.453ZM692.735 386.447L693.245 386.75L692.735 386.447ZM693.162 388.177L693.495 388.504L693.162 388.177ZM705.919 449.25C703.375 465.133 697.855 479.419 692.345 494.443C698.626 492.055 703.566 489.593 708.57 485.084C710.954 482.763 713.454 480.515 715.426 477.822C714.482 473.943 713.402 470.058 711.735 466.417C707.678 469.084 703.985 472.24 699.954 474.912C703.213 470.805 707.005 466.903 710.845 463.33C709.35 458.847 708.152 453.37 705.919 449.25ZM311.594 456.202C308.676 468.302 312.12 476.933 318.338 487.257C318.998 488.351 320.061 490.431 321.264 490.806C321.266 489.823 321.179 489.04 320.933 488.088C318.664 479.245 316.534 470.463 315.207 461.422L314.729 468.141C313.979 465.482 313.372 457.575 311.594 456.202ZM221.008 473.797L221.07 475.42L221.632 475.735L221.666 474.09L221.008 473.797ZM821.328 535.969L821.745 536.25L821.328 535.969ZM821.121 537.965L821.51 538.25L821.121 537.965ZM259.75 574.951L260.245 575.25L259.75 574.951ZM260.215 576.25L260.544 576.25L260.215 576.25ZM261.197 579.25L261.519 579.25L261.197 579.25ZM261.734 580.75L262.069 580.75L261.734 580.75ZM262.701 583.25L263.007 583.25L262.701 583.25ZM255.27 588.25L255.745 588.25L255.27 588.25ZM264.722 588.25L265.059 588.25L264.722 588.25ZM265.165 589.25L265.509 589.25L265.165 589.25ZM266.251 591.75L266.643 591.75L266.251 591.75ZM257.752 592.25L258.208 592.25L257.752 592.25ZM266.743 592.75L267.128 592.75L266.743 592.75ZM258.746 593.75L259.185 593.75L258.746 593.75ZM267.217 593.75L267.566 593.75L267.217 593.75ZM267.698 594.75L268.046 594.75L267.698 594.75ZM640.135 596.848C639.89 601.823 639.499 606.839 639.599 611.82C652.805 619.035 665.15 620.184 679.578 616.085L681.388 615.163C678.574 614.838 675.747 615.005 672.933 614.621C663.106 613.284 652.875 608.414 645.251 602.135C643.324 600.548 641.961 598.391 640.135 596.848ZM269.237 598.25L269.601 598.25L269.237 598.25ZM269.714 599.25L270.061 599.25L269.714 599.25ZM270.162 600.25L270.509 600.25L270.162 600.25ZM270.591 601.25L271.009 601.25L270.591 601.25ZM271.275 602.75L271.745 602.75L271.275 602.75ZM271.77 603.75L272.245 603.75L271.77 603.75ZM272.257 604.75L272.692 604.75L272.257 604.75ZM272.769 605.75L273.245 605.75L272.769 605.75ZM273.618 607.25L274.041 607.25L273.618 607.25ZM274.193 608.25L274.553 608.25L274.193 608.25ZM274.756 609.25L275.209 609.25L274.756 609.25ZM275.685 610.75L276.085 610.75L275.685 610.75ZM276.607 612.25L277.077 612.25L276.607 612.25ZM410.858 672.405C401.843 678.243 390.318 685.686 387.843 696.847C380.932 728.003 391.473 787.923 397.219 819.645C399.354 831.433 401.226 843.804 404.46 855.334C406.884 847.05 414.202 824.43 421.883 820.347C423.253 819.619 424.43 819.512 425.877 820.056C428.152 820.912 430.335 823.15 432.171 824.72C439.439 831.278 446.775 837.644 454.656 843.464C448.525 831.099 437.876 822.28 430.129 811.032C424.163 802.515 418.821 793.577 414.146 784.288C403.628 762.901 391.943 727.501 393.447 703.568C393.743 698.863 394.81 694.507 396.256 690.034C400.016 686.454 405.77 683.48 410.4 681.19C410.914 678.519 411.64 675.792 411.461 673.062L410.858 672.405ZM413.713 672.271C412.915 679.649 412.117 687.042 410.744 694.339C409.929 698.668 404.73 717.579 405.595 720.389C408.955 711.396 417.061 679.957 413.713 672.271ZM426.684 831.016C417.503 834.908 413.758 842.496 410.167 851.309C408.68 855.062 407.292 858.854 406.003 862.68C411.157 888.744 418.244 914.624 425.425 940.199C430.652 958.813 435.797 977.967 442.56 996.094C443.26 992.175 443.955 988.267 444.871 984.391C447.961 969.17 451.217 953.983 454.638 938.833C457.254 926.779 459.689 914.729 463.154 902.879C467.052 889.548 472.082 876.663 477.163 863.751C469.297 858.981 431.496 831.988 426.684 831.016ZM102.775 986.75L103.245 986.75L102.775 986.75Z"/><path d="M328.35 119.068L328.777 118.677L328.35 119.068Z"/><path d="M328.003 119.389L328.35 119.068L328.003 119.389Z"/><path d="M320.748 124.849L320.998 124.621L320.748 124.849Z"/><path d="M335.471 135.489L335.88 135.002L335.471 135.489Z"/><path d="M341.601 135.462L341.801 135.16L341.601 135.462Z"/><path d="M335.173 135.848L335.471 135.489L335.173 135.848Z"/><path d="M347.126 139.209L347.382 138.502L347.126 139.209Z"/><path d="M346.277 139.632L347.126 139.209L346.277 139.632Z"/><path d="M346.121 139.91L346.277 139.632L346.121 139.91Z"/><path d="M633.549 147.952L633.124 147.502L633.549 147.952Z"/><path d="M633.549 147.952L634.149 148.726L633.549 147.952Z"/><path d="M634.149 148.726L634.558 149.183L634.149 148.726Z"/><path d="M634.558 149.183L635.186 150.221L634.558 149.183Z"/><path d="M635.186 150.221L635.566 150.648L635.186 150.221Z"/><path d="M635.566 150.648L636.242 151.774L635.566 150.648Z"/><path d="M636.242 151.774L636.597 152.087L636.242 151.774Z"/><path d="M636.597 152.087L637.083 152.723L636.597 152.087Z"/><path d="M637.083 152.723L637.679 153.705L637.083 152.723Z"/><path d="M637.679 153.705L638.059 154.165L637.679 153.705Z"/><path d="M638.059 154.165L638.713 155.226L638.059 154.165Z"/><path d="M638.713 155.226L639.073 155.627L638.713 155.226Z"/><path d="M639.073 155.627L639.716 156.752L639.073 155.627Z"/><path d="M639.716 156.752L640.077 157.116L639.716 156.752Z"/><path d="M640.077 157.116L640.691 158.039L640.077 157.116Z"/><path d="M530.294 368.986L530.376 367.222C531.118 366.57 530.767 366.689 531.274 366.567L530.975 368.51L530.294 368.986Z"/><path d="M534.169 366.53L534.497 366.115L534.169 366.53Z"/><path d="M426.616 366.704L425.966 366.586L426.616 366.704Z"/><path d="M436.247 369.813L435.502 369.589L436.247 369.813Z"/><path d="M528.234 373.02L527.977 372.285C528.178 370.754 529.238 369.996 530.294 368.986C529.788 370.343 529.409 372.105 528.234 373.02Z"/><path d="M436.247 369.813L436.594 370.769L436.247 369.813Z"/><path d="M436.594 370.769L437.096 371.15L436.594 370.769Z"/><path d="M437.096 371.15C437.434 371.585 437.785 371.984 438.032 372.477L437.096 371.15Z"/><path d="M438.032 372.477L438.478 373.017L438.032 372.477Z"/><path d="M438.478 373.017L438.841 373.532L438.478 373.017Z"/><path d="M547.774 410.696C551.642 399.493 563.184 388.79 573.599 383.646C590.506 375.295 610.199 374.139 628.551 377.07C630.861 377.439 635.544 377.779 637.539 378.824C637.748 378.933 637.921 379.1 638.112 379.238C634.788 380.095 630.953 377.525 627.796 377.817C630.067 379.516 636.819 379.9 639.79 380.446L638.4 379.958C640.178 379.772 641.418 379.969 643.142 380.419L643.455 380.744L644.052 380.809L643.922 381.121L643.568 380.974L643.055 381.316C642.884 381.294 642.713 381.266 642.542 381.25C641.715 381.169 642.02 381.185 641.084 381.374L641.861 381.89L642.218 381.185L642.845 381.246L642.908 382.351C643.548 382.504 644.236 382.62 644.852 382.849C646.887 382.269 648.997 381.504 651.116 381.372L651.671 381.927L651.625 381.344L652.376 381.595C649.998 383.041 647.016 383.505 644.296 383.952C627.361 377.378 593.286 378.523 576.633 385.881C567.921 389.73 560.368 396.028 554.18 403.196C552.112 405.591 550.116 408.623 547.774 410.696Z"/><path d="M520.342 376.587L520.099 376.066L520.342 376.587Z"/><path d="M343.806 380.268L343.525 380.051L343.806 380.268Z"/><path d="M343.806 380.268C351.178 383.106 359.263 380.494 366.943 380.366C392.777 379.936 417.255 387.256 433.392 408.334C435.464 411.041 437.764 413.971 439.367 416.976C416.707 394.65 403.652 384.34 370.306 384.458C361.17 384.491 351.047 386.037 342.256 388.564C352.381 392.333 358.295 388.296 368.261 387.625C396.905 385.695 423.174 398.155 435.296 425.006C436.37 427.386 437.443 429.894 437.529 432.531L437.151 433.342C435.424 433.841 434.182 433.196 432.701 432.383C425.018 428.167 419.65 428.281 411.388 430.662C395.131 435.346 376.273 435.048 361.102 426.763C356.102 424.032 352.175 420.117 347.455 417.075C356.97 428.737 369.574 434.478 384.493 436.085C387.18 436.375 389.986 436.641 392.689 436.597C396.592 436.533 400.947 435.183 404.636 436.864L405.327 437.744L405.149 439.003C404.625 438.647 404.099 438.294 403.582 437.928C402.571 437.213 402.036 436.939 400.747 436.888C399.204 437.407 398.768 437.984 397.836 439.21C397.703 439.386 397.565 439.558 397.432 439.734C397.353 439.84 397.277 439.948 397.199 440.055C396.359 438.937 396.025 438.167 394.55 437.817C393.296 437.521 391.754 438.173 390.821 438.929C388.379 440.905 386.928 445.956 385.77 448.875L385.825 448.197C386.055 445.582 387.368 442.747 386.907 440.227C385.699 438.867 384.601 438.903 382.863 438.478C381.276 440.857 379.76 443.558 377.934 445.742C378.421 443.679 379.263 441.499 378.077 439.556L377.152 439.67C374.804 442.003 373.776 444.57 372.421 447.521C373.08 443.597 374.072 440.337 375.728 436.745C374.571 437.567 373.47 438.07 372.167 438.593L371.948 437.994C369.288 439.298 368.036 442.289 365.85 444.216C366.23 442.291 367.438 440.488 367.596 438.62C364.098 438.832 361.697 442.146 358.431 443.074C358.914 440.778 361.271 437.956 362.314 435.702L362.567 435.145C356.978 435.958 354.667 437.029 350.537 440.846L353.434 436.979C353.684 435.248 353.317 434.768 352.638 433.195C352.78 431.665 354.398 430.182 355.377 429.02C352.171 431.102 348.445 432.332 344.891 433.7C346.663 431.98 349.663 429.512 350.514 427.256C349.653 426.75 348.658 427.234 347.697 427.436L348.38 425.749C347.258 425.53 344.236 427.978 342.786 428.398C342.467 428.491 342.145 428.569 341.824 428.654C344.356 426.443 346.746 424.22 349.014 421.736C344.848 423.196 340.814 425.022 336.762 426.767C339.601 424.274 342.716 422.143 345.273 419.34L345.402 419.097C346.438 418.668 347.792 418.429 348.326 417.431C348.188 417.394 348.054 417.324 347.911 417.32C346.641 417.285 346.166 418.246 345.402 419.097L345.273 419.34C343.047 420.512 340.794 421.635 338.518 422.708C341.251 420.083 343.973 417.975 347.165 415.958C346.642 415.219 346.116 414.344 345.492 413.692C343.8 411.925 338.335 413.466 335.85 413.394C328.134 413.172 320.419 406.216 315.301 400.848C319.591 401.742 322.08 402.922 326.686 402.491C326.274 402.353 325.864 402.21 325.456 402.063C323.708 401.43 322.521 400.953 321.701 399.229C330.773 402.265 330.051 401.568 339.321 399.483C333.5 396.1 328.386 394.188 323.385 389.342C327.354 391.138 330.211 392.546 334.541 393.512L340.106 390.561C336.049 388.316 332.624 385.771 329.296 382.542C333.469 383.796 337.276 386.047 341.387 387.536C343.337 386.816 345.917 386.305 346.915 384.391C346.492 382.626 345.052 381.501 343.806 380.268ZM342.107 391.558C340.554 392.109 338.825 392.477 337.729 393.775C338.623 394.631 339.589 394.424 340.803 394.413C340.91 394.412 341.017 394.399 341.124 394.392C342.779 394.206 343.757 394.329 345.085 393.285C344.201 392.187 343.404 392.061 342.107 391.558ZM368.332 400.061C364.449 401.17 356.335 403.689 354.029 407.022C353.796 411.766 355.498 416.038 358.66 419.574C365.284 426.981 377.627 430.535 387.249 430.777C401.285 431.13 414.354 426.64 428.256 427.121C429.083 425.527 429.765 424.199 429.233 422.348C428.39 419.413 424.44 416.46 422.397 414.176C416.181 420.795 410.416 426.461 400.734 426.941C394.136 427.269 388.092 424.988 383.258 420.509C379.405 416.939 374.176 409.644 374.147 404.249C374.142 403.222 374.322 403.142 374.819 402.315L377.663 401.794L377.811 401.195C375.285 399.355 371.315 399.976 368.332 400.061ZM385.958 403.382C384.674 404.43 383.361 405.266 382.798 406.891C383.142 408.132 383.256 408.4 384.454 409.098C385.214 409.542 386.216 409.818 387.048 410.117C388.7 409.497 388.928 409.404 389.986 408.007C390.086 406.848 390.063 405.858 389.2 404.935C388.326 404.002 387.137 403.709 385.958 403.382ZM389.512 411.214C389.996 413.289 390.425 415.272 392.33 416.513C394.086 417.657 396.247 417.486 398.228 417.312C396.978 414.841 395.626 412.638 392.826 411.76C391.768 411.428 390.61 411.335 389.512 411.214ZM405.137 413.34C403.945 414.163 402.77 414.526 402.442 415.981C402.936 416.443 403.41 416.908 403.95 417.318C405.275 416.715 406.287 416.376 407.036 415.041L406.867 414.141C406.264 413.789 405.822 413.504 405.137 413.34ZM432.047 424.293C431.512 426.118 430.479 428.176 431.241 429.962L433.152 430.727C433.893 429.402 433.707 428.648 433.321 427.161C433.057 426.148 432.644 425.148 432.047 424.293Z"/><path d="M568.086 430.822C587.95 436.129 608.249 435.919 626.386 425.527C629.075 423.986 631.112 420.381 633.962 419.463C635.881 420.46 636.944 422.517 638.248 424.184C638.44 422.822 638.571 422.542 637.647 421.396C636.532 420.014 635.329 419.71 634.91 417.9C635.516 416.648 636.681 415.535 637.997 415.01C640.03 414.2 643.13 415.517 645.016 416.349L645.438 415.979C643.429 414.089 639.869 414.87 637.724 413.113C638.732 409.861 642.049 412.828 642.106 405.6C643.055 405.85 642.964 406.147 643.442 406.957L644.042 406.317L643.594 405.346C642.5 404.985 641.731 404.831 640.671 405.478C637.642 407.328 635.384 413.01 632.86 415.908C619.941 430.737 596.969 433.573 578.501 430.697C572.031 429.689 564.603 426.76 558.115 427.078C553.749 427.293 548.289 430.415 544.193 429.785C543.456 427.976 543.646 426.799 544.37 424.998C548.259 415.331 559.635 401.182 568.189 394.956C572.132 392.086 576.722 389.713 581.241 387.892C601.17 379.862 622.773 384.852 643.54 384.587C650.773 384.494 657.598 382.752 664.732 381.929C657.692 385.886 648.619 389.584 640.565 390.188C649.658 393.463 656.913 393.757 665.886 390.058C664.384 391.723 662.871 393.452 661.12 394.86C658.564 396.916 651.779 399.619 650.561 402.351C653.221 403.412 657.507 402.341 660.293 401.908C657.473 403.097 654.623 404.24 651.83 405.489C653.267 408.426 655.202 410.248 657.101 412.815C652.46 411.004 647.835 409.108 643.091 407.582C644.961 409.038 647.881 410.738 649.051 412.762C647.438 412.992 643.774 411.617 642.746 412.176C645.743 414.692 648.271 416.141 648.622 420.389C648.674 421.027 648.646 421.102 648.586 421.652L647.459 422.399L648.506 421.933L647.863 422.456L646.623 421.819C646.106 420.036 645.773 419.097 644.033 418.131C641.741 416.858 638.58 416.36 636.04 415.711C638.14 416.843 641.113 418.043 642.723 419.747C641.89 420.427 641.193 420.755 640.226 421.2C639.714 424.193 642.933 426.046 640.759 429.089L639.739 429.264C638.724 428.137 638.343 426.935 637.839 425.539L632.399 423.563L631.993 423.793L633.918 426.004C633.333 426.926 632.619 427.402 631.743 428.035C631.246 430.125 632.765 431.896 632.495 434.113L631.943 434.399C629.006 432.732 626.288 430.833 623.537 428.878C622.11 429.825 623.166 431.755 621.684 432.251L620.588 431.013L620.027 431.301C620.439 433.882 621.801 436.555 621.617 439.141L621.02 439.689C619.575 436.744 620.961 434.131 617.538 432.503C616.32 432.692 616.086 432.796 615.107 433.549C615.12 434.874 615.259 436.08 615.457 437.385L615.064 437.847L613.979 437.349C613.635 435.817 613.781 435.393 612.474 434.443C609.723 433.874 606.959 434.73 604.241 435.252C604.731 437.134 605.537 439.257 605.287 441.208C604.1 439.652 603.779 437.354 603.298 435.48C601.388 435.534 587.8 435.255 587.58 435.453L589.202 437.939C580.903 432.381 575.425 435.189 568.086 430.822ZM590.352 394.318C589.69 396.207 588.845 398.024 589.037 400.056C589.707 400.969 589.913 401.274 591.166 401.302C591.599 401.312 592.359 401.155 592.802 401.075C593.693 399.569 594.157 398.318 594.498 396.603C594.114 395.347 594.12 395.235 593.077 394.459L590.352 394.318ZM618.143 399.842C616.354 408.849 613.692 417.199 605.524 422.498C600.789 425.571 594.936 427.307 589.349 425.861C583.653 424.387 579.027 420.099 576.191 415.057C573.985 411.136 572.964 407.047 572.431 402.594C566.817 406.046 558.897 411.367 555.939 417.458C559.011 422.889 562.918 426.72 569.111 428.385C583.767 432.324 603.427 430.873 616.575 422.91C623.634 418.635 627.945 413.119 630.053 405.086C626.148 403.091 622.292 401.276 618.143 399.842ZM605.098 400.741C604.764 402.271 604.657 402.42 605.281 403.834L607.998 405.683C608.346 404.007 608.751 403.06 608.231 401.408C607.078 400.693 606.409 400.739 605.098 400.741ZM646.4 406.138C647.792 407.971 650.167 408.528 652.318 409.25C651.684 408.033 651.43 407.067 650.024 406.533C649.042 406.16 647.46 406.201 646.4 406.138ZM585.544 409.718C585.442 411.59 585.53 413.761 586.882 415.24C588.313 416.806 589.489 417.054 591.475 417.151L592.065 417.184C592.021 415.101 591.702 413.341 590.204 411.782C588.865 410.387 587.417 409.907 585.544 409.718ZM552.359 417.369C550.198 419.538 547.677 421.93 546.965 424.998C547.441 426.299 547.435 426.232 548.677 426.86C550.16 426.71 551.589 426.489 553.051 426.202L556.705 425.963C556.287 424.507 554.108 422.012 552.946 421.102C552.792 420.203 552.88 419.767 553.189 418.914C552.95 418.325 552.83 417.81 552.359 417.369ZM637.203 418.068L636.987 418.782C637.402 418.967 637.808 419.206 638.26 419.269L638.487 418.251C637.556 417.899 637.989 417.906 637.203 418.068ZM633.987 422.032L634.385 422.89L635.404 422.525L634.609 421.863L633.987 422.032ZM627.708 424.933C628.762 425.732 629.36 426.555 630.736 426.509C630.765 426.508 630.789 426.484 630.815 426.472L630.729 425.561C629.68 425.007 628.879 424.985 627.708 424.933ZM639.256 427.089L639.779 427.508L639.256 427.089ZM626.626 426.908C628.044 428.896 629.375 431.073 631.235 432.673C631.053 431.122 630.96 429.681 629.745 428.542C628.981 427.825 627.623 427.207 626.626 426.908Z"/><path d="M446.167 387.956C447.425 388.849 448.158 389.151 448.792 390.581L448.616 391.454C447.286 390.621 446.823 389.375 446.167 387.956Z"/><path d="M522.11 436.944C518.227 428.933 519.439 420.27 522.245 412.143C524.61 405.295 527.753 399.326 532.876 394.157L533.364 393.773C527.349 407.736 519.693 421.147 522.11 436.944Z"/><path d="M315.301 400.848L315.002 400.624L315.301 400.848Z"/><path d="M440.799 400.799L440.566 400.594L440.799 400.799Z"/><path d="M440.799 400.799C451.516 409.179 457.597 425.705 459.239 438.806C459.343 439.636 459.411 440.47 459.443 441.305C455.945 435.448 454.03 427.801 451.157 421.471C447.986 414.482 443.807 407.779 440.799 400.799Z"/><path d="M547.581 410.998L547.774 410.696L547.581 410.998Z"/><path d="M439.367 416.976L440.035 417.969L439.367 416.976Z"/><path d="M440.035 417.969L440.645 418.714L440.035 417.969Z"/><path d="M440.645 418.714L440.998 419.369L440.645 418.714Z"/><path d="M341.502 428.873L341.824 428.654L341.502 428.873Z"/><path d="M568.086 430.822L567.516 430.596L568.086 430.822Z"/><path d="M410.547 436.652C408.909 435.843 408 434.679 406.834 433.301C408.654 434.154 409.378 435.037 410.547 436.652Z"/><path d="M522.11 436.944L522.387 437.498L522.11 436.944Z"/><path d="M578.973 438.47C579.165 437.895 579.172 437.371 579.691 437.028C579.49 437.545 579.377 438.08 578.973 438.47Z"/><path d="M597.561 437.663L597.104 437.448L597.561 437.663Z"/><path d="M589.202 437.939C589.972 439.002 590.12 439.147 590.186 440.44L589.45 440.013L589.202 437.939Z"/><path d="M372.002 438.998L372.167 438.593L372.002 438.998Z"/><path d="M578.568 438.998L578.973 438.47L578.568 438.998Z"/><path d="M365.613 444.498L365.85 444.216L365.613 444.498Z"/><path d="M377.623 445.998L377.934 445.742L377.623 445.998Z"/><path d="M490.878 538.589C485.113 540.527 479.346 538.536 473.879 536.335C468.9 534.33 462.928 531.418 460.893 526.091C458.938 520.974 461.087 514.169 463.184 509.359C463.638 514.886 462.777 519.834 464.499 525.343C465.775 529.423 468.185 532.308 471.968 534.29C476.268 536.542 485.166 539.513 489.874 538.026C490.733 537.754 491.391 537.551 492.308 537.512L492.218 537.963L490.878 538.589Z"/><path d="M457.529 518.033L457.919 517.549L457.529 518.033Z"/><path d="M457.131 518.557L457.529 518.033L457.131 518.557Z"/><path d="M465.674 549.229C465.03 548.767 465.312 548.893 464.59 548.658C463.197 548.204 461.75 547.838 460.584 546.905C456.416 543.567 453.829 538.162 453.285 532.911C452.766 527.907 453.847 522.464 457.131 518.557C454.876 526.926 454.282 537.133 461.345 543.515C462.707 544.746 465.616 546.343 466.33 547.973C466.622 548.64 465.824 549.669 465.507 550.291L465.674 549.229Z"/><path d="M530.397 533.695L530.497 533.003L530.397 533.695Z"/><path d="M524.548 539.271C526.58 537.502 528.475 535.582 530.397 533.695C529.393 536.272 528.581 537.534 526.022 538.699C525.539 538.918 525.053 539.11 524.548 539.271Z"/><path d="M482.518 547.432C478.75 546.459 471.68 542.738 468.244 542.731C467.605 542.729 466.675 543.568 466.032 543.574C465.218 543.581 463.644 542.348 463.21 541.655C462.496 540.514 462.674 540.024 462.865 538.769C463.863 537.414 464.773 536.627 466.484 536.326C469.002 535.883 470.73 537.096 472.698 538.488C475.755 540.622 482.742 546.05 486.661 545.763C488.358 545.638 490.318 544.864 491.798 544.043C491.88 545.04 491.115 545.641 490.529 546.426C488.018 547.657 484.71 546.081 482.518 547.432Z"/><path d="M493.629 536.678L494.998 536.557L493.629 536.678Z"/><path d="M494.25 544.682C496.426 541.557 500.66 537.22 504.448 536.415C508.877 535.473 512.206 538.565 515.706 540.683C518.108 542.136 519.19 541.273 521.715 540.634C520.696 542.091 518.315 542.359 516.675 542.655C511.055 543.669 506.55 542.083 501.309 542.547C498.979 542.754 496.545 544.129 494.25 544.682Z"/><path d="M493.002 537.491L493.629 536.678L493.002 537.491Z"/><path d="M523.772 539.595L524.548 539.271L523.772 539.595Z"/><path d="M522.678 540.169L523.772 539.595L522.678 540.169Z"/><path d="M495.888 541.008L495.682 540.667L495.888 541.008Z"/><path d="M521.715 540.634L522.678 540.169L521.715 540.634Z"/><path d="M484.386 541.02C483.294 541.247 481.735 541.895 480.753 541.381L481.363 540.429C482.388 540.258 483.176 540.204 484.115 540.761C484.222 540.825 484.296 540.934 484.386 541.02Z"/><path d="M484.386 541.02C486.216 540.863 489.684 540.081 491.194 541.191C489.307 541.561 486.472 542.516 484.777 541.346C484.638 541.249 484.517 541.128 484.386 541.02Z"/><path d="M494.069 544.929L494.25 544.682L494.069 544.929Z"/><path d="M482.518 547.432L482.498 548.497L482.518 547.432Z"/><path d="M485.636 567.31C485.152 567.027 484.702 566.626 484.257 566.282C482.142 561.416 482.574 554.425 482.318 549.152C485.211 553.104 484.717 562.324 485.636 567.31Z"/><path d="M454 591.962C458.712 585.613 467.323 576.208 475.508 575.15C479.883 574.584 483.778 577.578 488.07 577.5C492.453 577.42 496.647 575.016 500.994 575.307C513.016 576.112 530.539 593.575 542.492 598.617C548.558 601.176 551.296 597.798 555.104 599.036C556.441 600.229 556.82 601.756 556.862 603.507C556.886 604.494 556.631 604.428 555.975 605.057C553.381 605.699 550.652 605.411 548.018 605.094C547.066 606.278 545.946 608.096 544.588 608.725L544.065 608.017C544.392 607.659 544.527 607.239 544.723 606.8C544.45 606.084 544.371 605.375 543.703 604.923C541.292 603.295 525.866 601.591 522.797 602.367L522.967 603.5L521.406 602.911L520.956 603.233C522.05 604.903 523.487 606.163 524.661 607.737L523.819 607.201C522.175 606.144 520.696 604.489 518.856 603.884C522.023 608.704 527.204 612.743 528.185 618.714C522.539 613.224 522.405 607.507 514.544 602.606C517.748 606.525 524.596 613.394 524.817 618.49L524.164 618.323C524.114 618.192 524.067 618.059 524.015 617.928C522.265 613.515 518.513 607.905 514.898 604.802L514.067 604.782C514.525 608.661 521.934 613.702 521.247 617.439C518.066 613.839 515.845 608.947 512.142 605.92L511.578 605.972C513.217 611.302 519.238 615.576 521.827 620.662C517.188 617.813 514.254 610.109 509.355 606.971C510.76 609.457 512.597 611.666 514.381 613.888C516.246 616.209 517.187 618.225 518.222 620.978C514.601 616.43 511.643 611.353 507.384 607.316L506.707 607.337C506.884 613.318 511.959 617.931 513.27 623.454C512.67 622.895 512.157 622.187 511.627 621.558L511.271 621.65C511.742 623.186 512.466 624.829 512.28 626.43C510.612 625.032 506.307 610.41 504.889 607.339L504.254 607.49C503.887 612.814 510.078 621.729 507.88 626.365L507.212 626.291C506.659 620.512 504.862 613.38 502.73 607.97L502 607.705C501.036 609.806 504.59 613.174 503.882 615.97C502.361 615.741 501.29 609.134 499.826 607.537C498.293 609.527 505.632 623.951 503.594 629.149C503.278 628.859 500.238 613.5 498.535 610.243C497.919 609.065 497.542 608.607 496.272 608.265C499.087 612.992 500.59 622.195 500.067 627.653C499.955 628.825 500.187 628.434 499.444 629.05C497.242 623.92 498.923 615.139 494.452 608.226C492.832 611.847 493.631 615.621 491.678 619.011C491.604 619.14 491.526 619.266 491.45 619.393C491.56 615.607 491.796 612.099 492.793 608.416L492.507 608.002C490.145 611.264 489.827 619.339 488.616 623.658C487.608 621.969 489.166 613.775 489.736 611.486C490.147 609.836 490.694 608.197 491.269 606.598L490.853 607.133C484.637 615.283 488.265 619.663 486.124 626.161C484.916 624.798 485.385 618.089 485.544 615.975C485.804 612.539 487.119 609.852 488.732 606.863C488.601 606.969 488.47 607.073 488.341 607.181C486.463 608.755 483.859 614.646 482.855 615.126C483.715 611.051 485.233 608.608 487.574 605.28C483.557 608.298 480.39 613.452 478.88 618.278C478.573 619.259 477.922 624.329 477.362 624.352C476.483 619.637 478.491 613.17 480.944 609.049C481.414 608.259 481.879 607.98 482.526 607.346C482.642 607.233 483.167 606.616 483.334 606.421C481.619 606.712 480.261 608.124 479.267 609.494C476.529 613.269 474.817 618.676 471.736 621.949C473.366 617.158 474.8 611.808 478.45 608.1C479.152 607.386 479.671 606.769 480.204 605.903C478.59 606.583 476.776 608.266 475.832 609.751C473.679 613.133 471.047 616.273 468.734 619.564L468.539 618.956C470.402 614.242 474.574 609.921 477.221 605.514L476.866 605.453C473.048 609.11 470.791 613.748 467.106 617.408C466.987 617.526 466.865 617.642 466.745 617.759C468.554 612.979 472.554 608.797 475.126 604.341L474.927 604.516C472.862 604.785 468.126 612.488 466.481 614.494L465.851 615.254C467.065 610.997 470.914 607.286 473.172 603.479C469.627 605.455 467.127 610.544 464.553 613.635L464.268 613.972C465.396 610.261 470.658 604.769 470.498 601.825C465.347 600.577 461.988 614.308 458.687 615.485C459.036 611.766 465.98 605.01 466.211 601.458C463.205 605.047 460.98 609.03 458.095 612.648C458.002 612.765 457.907 612.879 457.813 612.994C459.098 608.74 462.292 604.815 464.31 600.826C462.01 603.049 460.258 605.843 458.406 608.442L457.931 608.194C458.28 605.686 461.113 603.687 461.942 601.122L461.491 600.436C459.37 601.13 457.748 607.051 456.638 609.129L455.902 609.295C455.761 606.368 458.335 604.022 459.335 601.359L458.946 601.061C456.63 603.11 455.088 606.861 453.605 609.585L453.202 609.533C453.373 607.154 455.683 604.135 456.846 602.02L456.507 601.495C456.104 601.627 455.884 601.664 455.535 601.985C453.399 603.954 451.862 609.004 451.37 611.768C451.331 611.987 451.299 612.207 451.263 612.426L450.824 612.272C449.886 609.369 452.867 604.819 453.9 602.019C453.042 602.469 452.904 602.685 452.412 603.567C452.081 604.158 451.884 604.566 451.435 605.104C451.321 605.241 451.194 605.367 451.074 605.499L451.632 603.158C451.223 602.586 450.99 602.263 450.41 601.847L449.887 602.587L450.849 602.534L450.475 601.892L449.486 602.685C449.547 603.692 449.697 604.564 449.877 605.553C448.695 604.479 448.67 603.046 447.015 602.587L446.319 603.463C445.474 603.296 444.624 603.108 443.812 602.818C441.061 601.833 438.865 600.795 437.608 598.092C437.607 596.741 437.575 596.69 438.406 595.636C439.343 595.301 439.814 595.215 440.826 595.395C443.425 595.858 444.513 598.105 445.778 600.136C446.988 599.066 448.207 598.008 449.437 596.961L450.123 597.378L448.529 598.559L448.575 599.367L449.279 599.621C449.998 598.797 449.924 598.424 450.123 597.378L451.801 595.412L452.492 595.383C452.602 596.527 452.854 598.415 453.741 599.178C453.471 597.555 452.657 594.916 453.544 593.535C454.606 594.131 455.176 597.429 455.856 598.71L455.971 598.458C455.673 596.488 455.332 593.472 454 591.962ZM504.913 580.777C504.794 580.6 504.663 580.432 504.557 580.248C504.012 579.305 503.967 578.552 503.83 577.493C502.953 576.59 502.423 576.049 501.226 575.572L500.555 576.076C500.16 580.616 503.319 585.654 500.938 589.665C501.106 585.858 500.707 579.44 498.287 576.312C497.801 578.674 499.807 587.69 500.938 589.665C500.408 592.803 499.933 595.942 500.142 599.13C501.501 594.327 502.957 589.461 502.752 584.415C502.654 582 501.911 579.53 502.272 577.132L502.896 577.518C503.036 580.373 504.059 583.1 503.994 585.963C503.932 588.723 502.013 593.56 502.745 595.784L503.393 595.461C504.633 591.293 505.726 585.084 504.913 580.777C507.415 584.803 505.186 590.274 505.117 594.886C506.271 593.089 506.654 590.823 506.804 588.714C506.938 586.817 506.841 584.627 508.307 583.32L507.385 584.369L508.01 583.129L508.325 583.237C508.71 585.538 507.875 587.896 507.338 590.133L507.071 590.591L507.236 591.211L507.753 590.796C508.837 587.987 511.384 583.174 511.073 580.247L510.24 580.055L509.318 581.574L509.191 579.736C508.273 578.768 508.83 579.009 507.54 578.969C507.576 579.984 507.605 580.789 507.306 581.766L507.268 581.764C507.145 581.436 506.998 581.076 506.935 580.734C506.682 579.36 506.777 578.831 505.862 577.691L504.682 577.639C504.79 578.684 504.851 579.728 504.913 580.777ZM465.612 580.959C464.865 581.681 464.157 582.313 463.607 583.203L462.918 584.007C463.256 586.624 465.455 592.183 467.465 593.914C467.61 594.039 467.786 594.124 467.946 594.229C468.085 593.23 467.805 592.624 467.512 591.68C466.627 588.833 467.595 585.075 465.214 582.923L465.612 580.959C468.107 584.842 468.044 589.804 469.29 594.132L470.159 594.047C469.514 590.448 469.382 583.356 466.942 580.671L465.612 580.959ZM471.024 591.017C471.386 590.287 471.127 590.705 471.928 589.854L472.498 589.997L471.928 589.854C471.25 586.806 470.717 583.029 469.109 580.342L468.731 580.657C468.732 583.37 469.922 588.53 471.024 591.017L470.995 593.017L471.744 593.312L471.956 591.826L471.024 591.017ZM461.828 590.576C461.859 590.796 461.879 591.017 461.921 591.235C462.256 592.956 462.831 594.631 464.32 595.654L465.295 595.498L465.877 594.706C465.379 591.336 463.087 587.739 461.747 584.556C460.292 586.985 464.68 592.46 465.295 595.498L464.32 595.654C463.753 594.026 463.35 591.351 461.828 590.576ZM473.892 584.964C475.2 588.154 475.689 591.124 476.341 594.475C477.322 595.051 477.703 595.32 478.863 595.414C479.431 592.716 480.623 585.088 479.296 582.71C479.209 582.554 479.077 582.428 478.967 582.287L479.065 581.616C479.869 581.699 479.924 581.496 480.305 582.093C482.012 584.766 480.252 592.61 479.735 595.813L480.844 596.552L481.99 596.62C484.699 593.374 484.204 583.09 486.082 578.179C482.068 578.46 483.688 593.56 480.844 596.552C481.08 593.292 483.742 579.947 483.228 578.183L482.429 577.815L481.917 579.892C481.046 578.695 480.155 577.61 478.963 576.714C477.665 575.738 476.708 575.444 475.12 575.686C474.212 576.545 474.138 577.291 473.933 578.464C473.907 578.617 473.883 578.771 473.858 578.925C473.062 578.261 473.259 578.465 472.67 577.861C472.557 577.746 472.448 577.627 472.336 577.51C471.561 579.4 473.259 583.051 473.892 584.964ZM525.158 589.14C525.04 591.531 524.087 593.877 523.794 596.296L524.775 597.06L526.041 596.938C527.133 595.61 527.437 593.628 527.874 591.981L527.506 591.655C526.976 591.777 525.667 596.092 524.775 597.06C524.87 594.54 526.321 591.99 525.816 589.509L525.158 589.14ZM495.031 597.065L494.171 596.182C494.268 590.267 497.731 583.451 494.582 577.892L493.759 577.474C493.504 580.34 494.704 582.98 494.563 585.795C494.391 589.25 492.451 593.638 493.06 596.963C494.155 597.437 493.985 597.325 495.031 597.065L496.196 596.705C496.843 593.491 497.057 590.182 498.195 587.092C498.013 589.919 497.86 592.595 498.172 595.421L498.597 595.728C499.583 591.938 499.264 588.692 498.786 584.872C498.326 582.218 498.204 579.576 496.279 577.55C495.529 579.864 497.332 582.873 497.17 585.377C496.919 589.256 495.379 593.114 495.031 597.065ZM492.131 577.817C490.606 578.827 490.69 578.857 490.323 580.619C489.453 584.8 488.293 592.931 488.912 597.053C491.232 593.708 490.892 585.819 491.183 581.757L491.828 581.75C492.433 585.267 489.867 595.996 491.57 597.755L492.199 597.254C492.183 597.076 492.163 596.899 492.151 596.721C491.697 590.243 494.553 584.275 492.131 577.817ZM469.768 578.182C471.047 582.479 474.164 588.847 473.539 593.187L474.196 594.427C475.302 589.419 472.797 583.9 471.137 579.237C470.694 578.882 470.254 578.475 469.768 578.182ZM487.382 578.201C488.541 582.822 487.765 592.698 485.776 597.005L486.964 596.911C488.121 593.951 489.864 582.148 488.649 579.254C488.405 578.672 487.89 578.515 487.382 578.201ZM486.401 579.748C484.851 585.229 485.203 591.016 483.588 596.49L483.931 596.7L484.949 596.345C485.747 593.746 487.516 582.234 486.639 580.141C486.58 580 486.48 579.879 486.401 579.748ZM512.158 580.573C510.636 584.294 508.379 590.244 509.427 594.23C509.962 593.894 510.464 591.736 510.616 591.067C511.41 587.571 512.126 584.551 513.605 581.249C512.632 585.256 512.674 590.461 511.19 594.111L512.098 594.965C513.171 591.904 513.703 586.745 515.458 584.272C516.213 587.02 512.559 593.881 514.053 594.895C515.859 593.724 516.924 586.389 517.485 584.009C515.742 582.769 514.057 581.572 512.158 580.573ZM518.332 584.198C517.742 587.141 515.435 593.099 516.594 595.704C517.506 592.592 519.803 587.487 518.439 584.384C518.41 584.318 518.368 584.26 518.332 584.198ZM460.033 587.222L459.625 588.217L460.556 588.938L460.938 587.725C460.263 587.167 460.6 587.242 460.033 587.222ZM520.288 586.323C519.398 589.082 518.321 591.858 517.993 594.747C518.23 595.086 518.462 595.511 518.772 595.782C519.256 593.907 521.416 587.985 520.493 586.515C520.443 586.436 520.356 586.387 520.288 586.323ZM521.899 586.822C522.94 588.804 523.198 590.073 522.503 592.243C522.246 593.047 521.934 593.689 521.416 594.361L521.622 589.442L521.186 589.156L520.939 590.671L520.732 591.182C520.196 592.538 519.86 593.48 519.94 594.974L520.537 595.808C521.751 595.589 522.244 595.169 522.98 594.162C523.835 592.993 524.248 591.11 524.019 589.684C523.79 588.252 523.105 587.595 521.899 586.822ZM458.019 590.224C457.513 591.788 458.42 594.441 459.157 595.946C459.559 596.765 459.357 596.506 459.981 596.996C460.562 595.199 459.094 592.329 458.479 590.568L458.019 590.224ZM459.558 590.821C460.198 592.626 460.734 595.045 462.094 596.423L462.618 596.31C462.075 594.866 461.263 591.344 459.992 590.676L459.558 590.821ZM455.158 590.687C455.949 593.058 456.439 597.176 458.787 598.363C458.182 596.882 457.692 595.454 457.277 593.908C456.843 592.295 456.594 591.608 455.158 590.687ZM507.687 592.735L507.011 593.276L507.741 593.878L508.245 593.004L507.687 592.735ZM528.418 593.759L527.44 597.116C528.355 597.659 529.235 597.829 530.266 598.057L530.24 597.082L528.991 596.893C528.724 595.608 528.816 596.335 528.774 595.191C528.738 594.237 528.824 594.659 528.418 593.759ZM537.327 597.541L537.653 598.094L538.225 597.99L537.327 597.541ZM451.197 598.728L451.295 599.509L451.587 599.445L451.557 598.622L451.197 598.728Z"/><path d="M476.901 583.724C475.563 581.896 477.208 579.991 476.218 577.241C476.897 577.688 477.225 578.161 477.721 578.794C478.143 580.603 477.481 582.013 476.901 583.724Z"/><path d="M481.695 581.813L481.374 581.899C481.119 581.748 480.846 581.625 480.611 581.445C479.686 580.741 479.212 579.277 479.093 578.2C479.38 578.19 479.651 578.377 479.879 578.551C480.662 579.151 481.497 580.871 481.695 581.813Z"/><path d="M479.039 587.601C478.232 589.584 478.044 591.888 477.406 593.967L476.79 593.785C477.116 590.084 475.86 588.064 474.76 584.622C474.001 582.25 474.073 581.113 475.204 578.884L475.662 579.422C475.514 580.176 475.338 580.943 475.374 581.719C475.457 583.526 476.265 587.471 477.54 588.704C477.501 587.106 477.096 584.623 477.977 583.25C478.675 583.909 478.855 586.555 479.039 587.601Z"/><path d="M463.607 583.203L465.214 582.923C465.171 584.83 465.977 586.714 465.721 588.609C464.894 586.829 464.213 585.07 463.607 583.203Z"/><path d="M453.312 592.702L454 591.962L453.312 592.702Z"/><path d="M452.883 593.112L453.312 592.702L452.883 593.112Z"/><path d="M452.502 593.497L452.883 593.112L452.502 593.497Z"/><path d="M460.163 619.028L459.572 618.228C459.407 614.763 466.92 604.727 469.28 601.773C469.357 601.843 469.458 601.895 469.513 601.984C469.643 602.195 469.814 602.411 469.826 602.659C469.858 603.28 460.837 615.445 460.163 619.028Z"/><path d="M446.319 603.463L446.497 603.913L446.319 603.463Z"/><path d="M522.967 603.5L523.302 603.811L522.967 603.5Z"/><path d="M530.5 604L530.003 603.545L530.5 604Z"/><path d="M523.302 603.811C525.138 604.91 527.38 606.058 528.749 607.739C525.998 607.062 524.954 606.106 523.302 603.811Z"/><path d="M530.991 606.922C529.818 606.354 528.89 606.07 528.111 604.986L528.202 604.618L529.281 604.394C530.159 605.132 530.487 605.915 530.991 606.922Z"/><path d="M530.5 604C531.92 604.342 531.981 604.382 532.919 605.503C531.711 605.191 531.301 604.958 530.5 604Z"/><path d="M534.735 604.799L534.039 604.592L534.735 604.799Z"/><path d="M534.735 604.799L535.099 605.763L534.735 604.799Z"/><path d="M544.065 608.017C543.077 607.184 542.881 607.054 542.486 605.841L542.524 605.677L543.375 605.969C543.606 606.635 543.893 607.335 544.065 608.017Z"/><path d="M449.877 605.553L451.074 605.499L450.805 606.803L450.309 607.017L449.877 605.553Z"/><path d="M532.919 605.503L533.042 606.186L532.919 605.503Z"/><path d="M535.099 605.763L535.653 606.087L535.099 605.763Z"/><path d="M533.042 606.186L533.356 606.35L533.042 606.186Z"/><path d="M535.653 606.087L535.879 606.342L535.653 606.087Z"/><path d="M543.024 609.965C541.511 609.087 540.742 607.077 540.194 605.477C541.539 606.956 542.715 607.927 543.024 609.965Z"/><path d="M530.991 606.922C533.416 607.654 534.739 610.829 535.885 612.96C534.186 611.468 531.857 609.063 530.991 606.922Z"/><path d="M533.356 606.35C535.529 607.91 536.888 609.942 537.894 612.402L537.645 613.283C536.784 612.872 537.123 613.207 536.748 612.314C535.862 610.202 534.12 608.495 533.356 606.35Z"/><path d="M535.879 606.342C537.991 607.952 539.807 610.745 540.196 613.402C538.641 611.309 536.52 608.903 535.879 606.342Z"/><path d="M541.627 610.813L541.08 611.021C539.785 610.032 539.116 608.6 538.314 607.216L539.174 607.228C540.177 608.395 540.998 609.384 541.627 610.813Z"/><path d="M524.661 607.737L524.997 607.91L524.661 607.737Z"/><path d="M528.749 607.739L529.094 608.076L528.749 607.739Z"/><path d="M525.835 608.249L525.503 608.1L525.835 608.249Z"/><path d="M529.094 608.076L530.221 608.598L529.094 608.076Z"/><path d="M525.835 608.249C528.728 609.52 530.95 612.169 532.663 614.777C530.014 613.295 527.685 610.614 525.835 608.249Z"/><path d="M530.221 608.598C532.179 609.447 533.406 612.159 534.395 613.978C532.444 612.45 531.013 610.988 530.221 608.598Z"/><path d="M515.254 620.967C512.231 617.329 508.644 613.011 507.208 608.447C510.197 610.979 514.293 617.177 515.254 620.967Z"/><path d="M456.5 611L456.998 610.003L456.5 611Z"/><path d="M494.836 629.737L494.195 629.699C492.905 625.336 493.157 614.121 494.395 609.741C497.113 614.596 494.697 624.281 494.836 629.737Z"/><path d="M543.024 609.965L543.497 610.415L543.024 609.965Z"/><path d="M454 611L454.498 610.503L454 611Z"/><path d="M453.311 612.437C453.407 611.852 453.693 611.497 454 611L454.027 612.029L453.311 612.437Z"/><path d="M455.84 612.321L456.5 611L455.84 612.321Z"/><path d="M455.539 612.497L455.84 612.321L455.539 612.497Z"/><path d="M529.274 614.282C528.164 613.683 527.562 613.622 527.021 612.426C528.316 612.809 528.428 613.201 529.274 614.282Z"/><path d="M457.337 613.682L457.813 612.994L457.337 613.682Z"/><path d="M457.01 613.997L457.337 613.682L457.01 613.997Z"/><path d="M463.843 614.678L464.268 613.972L463.843 614.678Z"/><path d="M534.395 613.978L534.67 614.28L534.395 613.978Z"/><path d="M529.274 614.282L529.583 614.583L529.274 614.282Z"/><path d="M452.324 615.244L452.112 614.503L452.324 615.244Z"/><path d="M463.379 615.121L463.843 614.678L463.379 615.121Z"/><path d="M529.583 614.583L530.846 615.149L530.953 615.986C530.075 615.461 530.131 615.596 529.583 614.583Z"/><path d="M532.663 614.777L533.055 615.147L532.663 614.777Z"/><path d="M452.324 615.244L453.259 616.216L452.324 615.244Z"/><path d="M462.842 616.366L463.379 615.121L462.842 616.366Z"/><path d="M465.426 615.654L465.851 615.254L465.426 615.654Z"/><path d="M533.055 615.147L533.63 615.962L533.055 615.147Z"/><path d="M464.861 616.776L465.426 615.654L464.861 616.776Z"/><path d="M453.259 616.216L453.399 616.439L453.259 616.216Z"/><path d="M462.502 616.968L462.842 616.366L462.502 616.968Z"/><path d="M480.255 622.794L479.871 622.625C479.525 620.814 480.2 618.328 481.107 616.737L481.746 617.183C481.361 619.103 481.039 620.987 480.255 622.794Z"/><path d="M453.399 616.439C465.046 628.614 475.213 633.255 491.951 633.668C509.079 634.091 517.387 630.339 532.733 623.916C528.236 628.288 522.075 631.885 516.578 634.815C505.286 640.835 495.624 643.005 483.187 639.118C471.866 635.581 458.98 627.205 453.399 616.439Z"/><path d="M464.592 616.997L464.861 616.776L464.592 616.997Z"/><path d="M471.342 619.298L470.752 618.778L471.71 616.325C472.046 617.815 471.971 617.892 471.342 619.298Z"/><path d="M483.279 623.472C482.241 621.403 482.706 618.907 482.836 616.653C482.953 616.804 483.086 616.944 483.186 617.107C484.334 618.958 483.634 621.479 483.279 623.472Z"/><path d="M466.431 618.098L466.745 617.759L466.431 618.098Z"/><path d="M462.925 619.009C462.73 619.013 462.605 618.787 462.458 618.659L462.925 619.009Z"/><path d="M465.837 618.979C465.928 618.637 466.224 618.385 466.431 618.098L465.837 618.979Z"/><path d="M528.185 618.714L528.414 618.997L528.185 618.714Z"/><path d="M489.676 630.192C489.557 629.559 489.443 628.925 489.372 628.284C489.081 625.663 489.812 621.485 491.45 619.393C491.592 622.588 490.411 627.044 489.676 630.192Z"/><path d="M475.002 620.003L475.498 619.503L475.002 620.003Z"/><path d="M468.245 620.779L468.442 620.003L468.245 620.779Z"/><path d="M474.502 620.997L475.002 620.003L474.502 620.997Z"/><path d="M467.19 621.8L468.245 620.779L467.19 621.8Z"/><path d="M515.254 620.967C516.598 622.074 516.783 623.411 517.141 625.027C516.121 623.778 515.236 622.666 515.254 620.967Z"/><path d="M518.222 620.978L518.657 621.675L518.222 620.978Z"/><path d="M521.827 620.662L522.05 621.137L521.827 620.662Z"/><path d="M522.05 621.137L522.497 621.997L522.05 621.137Z"/><path d="M466.921 622.791L467.19 621.8L466.921 622.791Z"/><path d="M471.402 622.73L471.736 621.949L471.402 622.73Z"/><path d="M518.657 621.675L519.098 622.143L518.657 621.675Z"/><path d="M505.761 626.765C505.635 626.651 505.502 626.546 505.384 626.425C504.184 625.19 504.061 624.276 504.141 622.663L504.868 622.772L505.761 626.765Z"/><path d="M519.098 622.143L519.497 622.922L519.098 622.143Z"/><path d="M466.502 622.997L466.921 622.791L466.502 622.997Z"/><path d="M470.855 623.832L471.402 622.73L470.855 623.832Z"/><path d="M513.27 623.454L513.497 623.997L513.27 623.454Z"/><path d="M470.656 624.509L470.855 623.832L470.656 624.509Z"/><path d="M532.733 623.916L532.997 623.61L532.733 623.916Z"/><path d="M497.105 627.667L496.394 627.39L495.963 625.326L496.807 625.787L497.105 627.667Z"/><path d="M514.745 625.75L514.175 625.457L514.745 625.75Z"/><path d="M478.561 626.75L478.155 626.491L478.561 626.75Z"/><path d="M647.825 626.919L647.503 626.628L647.825 626.919Z"/><path d="M861.429 656.129L861.813 655.715L861.429 656.129Z"/><path d="M727.003 656.38L727.251 655.996L727.003 656.38Z"/><path d="M861.118 656.497L861.429 656.129L861.118 656.497Z"/><path d="M197.215 664.576L197.498 664.875L197.215 664.576Z"/><path d="M717.077 675.889L716.503 675.618L717.077 675.889Z"/><path d="M273.413 679.777L274.154 680.172L273.413 679.777Z"/><path d="M274.154 680.172L274.425 680.397L274.154 680.172Z"/><path d="M467.112 824.218L467.389 824.497L467.112 824.218Z"/><path d="M503.953 860.708C502.98 860.631 502.338 860.449 501.448 860.047C500.415 858.918 499.887 858.08 499.783 856.516C499.5 852.29 502.304 848.176 505.051 845.267C505.911 845.348 506.571 845.557 507.377 845.865C508.53 847.122 509.155 847.994 509.188 849.807C509.266 854.04 506.669 857.728 503.953 860.708Z"/></svg>