<?xml version="1.0" encoding="utf-8" ?><svg xmlns="http://www.w3.org/2000/svg" xmlns:xlink="http://www.w3.org/1999/xlink" width="1024" height="1024" viewBox="0 0 1024 1024"><path fill="white" d="M0 0L0 1024L1024 1024L1024 0L0 0Z"/><path d="M484.132 0L536.252 0C548.967 2.34325 561.485 3.91444 574.045 7.22277C594.154 12.5195 613.816 20.7642 632.206 30.4309C672.759 51.7479 694.352 70.0746 720.425 107.936C742.105 139.417 759.437 176.536 769.521 213.408C772.824 225.483 775.17 237.884 777.336 250.21C781.686 274.974 784.502 299.941 789.783 324.555C793.561 342.163 796.709 361.368 803.484 378.037C807.929 388.972 815.099 399.562 821.564 409.416C832.192 425.403 843.838 440.69 856.428 455.183C872.803 474.343 889.288 492.104 903.579 513.057C910.139 522.676 915.747 533.137 921.026 543.506C928.559 558.305 934.494 572.665 937.591 589.069C940.256 603.186 941.573 617.856 938.923 632.071C936.986 642.465 932.515 651.456 927.19 660.49C949.839 696.511 969.912 734.658 969.588 778.332C969.522 787.191 968.886 796.079 966.924 804.737C962.15 825.8 955.844 835.711 942.194 851.607C952.024 856.288 962.408 859.644 972.509 863.68C979.642 880.228 984.399 897.402 988.949 914.808C997.982 950.831 1005.26 987.271 1010.77 1024L915.684 1024C924.623 989.103 936.917 955.593 949.722 921.965C951.759 916.616 963.517 889.04 963.072 885.393C960.133 890.622 958.015 896.301 955.373 901.696C950.219 912.221 945.02 922.751 940.635 933.626C929.03 962.407 920.77 993.575 914.774 1024L728.998 1024C732.142 1016.04 739.909 1007.37 744.336 999.631C756.728 977.962 767.638 955.199 777.534 932.288C780.858 924.594 784.723 916.665 786.908 908.571C782.204 906.86 775.92 904.98 770.95 904.808C767.945 917.525 760.011 929.8 753.649 941.154C743.14 960.264 731.994 979.017 720.23 997.382C714.38 1006.39 708.038 1015.12 701.993 1024L691.443 1024C699.49 1011.45 708.112 999.26 715.989 986.608C732.79 959.048 749.069 931.174 764.818 902.999C756.903 899.505 741.893 896.484 733.117 894.49C710.32 889.313 689.628 881.619 671.937 865.748C666.38 860.763 661.566 855.13 656.137 850.045L656.066 849.576L655.373 849.08L655.405 849.474L656.137 850.045C656.216 850.186 656.293 850.328 656.373 850.467C664.811 865.048 686.217 884.481 700.437 893.348C707.437 897.713 717.043 902.075 724.983 904.14C730.669 905.62 745.683 907.209 749.485 910.244C750.646 914.186 742.265 928.062 740.135 931.975C728.664 953.052 715.2 972.921 701.373 992.495C693.782 1003.24 686.273 1014.33 677.309 1024L578.979 1024L579.482 1023.24C590.367 1006.73 599.162 978.175 606.16 959.247C628.615 898.519 650.932 836.794 658.693 772.176C660.715 755.336 662.213 736.441 658.682 719.746C657.883 715.97 655.59 705.542 652.392 703.605C651.433 703.023 651.197 702.762 650.089 703.046C649.816 707.858 654.292 723.477 655.426 729.34C657.14 738.211 657.256 747.234 656.695 756.222C653.138 813.194 634.298 868.617 614.964 921.88C602.426 956.42 589.191 990.412 574.257 1024L568.585 1024C583.929 991.385 596.255 957.443 608.986 923.753C613.532 911.755 617.948 899.709 622.235 887.616C625.05 879.822 628.268 871.976 630.253 863.927C618.501 881.269 597.502 915.701 581.29 927.931C579.875 928.998 579.106 929.662 577.311 929.416C576.276 928.382 575.898 927.167 575.474 925.804C574.205 921.723 573.515 917.377 572.556 913.203C570.532 904.39 568.002 895.857 564.28 887.591C554.604 908.439 546.709 930.658 535.083 950.48C537.876 961.58 541.857 972.606 545.05 983.631C548.88 996.853 552.032 1010.52 554.844 1024L537.235 1024C540.057 1018.36 543.259 1012.6 544.991 1006.53C544.014 1002.07 542.578 997.696 541.557 993.232C537.011 1003.9 531.617 1014.19 525.427 1024L487.956 1024C490.924 1018.05 495.217 1012.3 498.79 1006.67C509.627 989.588 521.658 972.002 529.14 953.144C525.845 954.487 522.734 955.358 519.201 955.74C515.674 961.304 512.585 967.141 509.018 972.692C497.833 990.1 485.856 1007.07 473.968 1024L464.507 1024C465.339 1012.95 467.839 1001.9 469.911 991.027L477.364 951.33C470.19 942.663 465.584 931.646 463.266 920.682C461.836 913.916 459.999 885.703 456.729 881.495L455.895 881.392C452.048 884.753 447.651 904.465 446.579 909.932C445.545 915.205 445.137 922.39 442.825 927.142C442.2 928.428 441.821 928.803 440.499 929.291C431.151 927.967 406.79 889.578 399.067 881.044L398.374 880.29L398.117 880.003L398.374 880.29C400.792 892.172 405.083 903.587 409.239 914.943C418.53 940.331 428.847 964.644 441.955 988.35C444.764 993.498 447.735 998.557 450.861 1003.52C455.066 1010.08 460.234 1016.67 462.96 1024L457.342 1024C410.52 953.195 385.191 872.366 373.812 788.762C371.917 774.857 370.454 760.897 369.425 746.901C368.862 738.602 369.322 729.615 367.781 721.469C367.733 721.218 367.68 720.968 367.629 720.717C367.234 747.708 368.921 774.689 372.677 801.421C375.328 821.618 378.548 842.025 383.25 861.861C386.964 877.531 391.981 892.979 397.232 908.195C403.103 925.208 409.299 942.231 416.706 958.64C426.953 981.337 439.147 1002.71 451.997 1024L341.952 1024C319.258 996.842 291.281 960.541 276.965 928.057C309.512 912.644 343.529 894.272 369.045 868.406C355.76 877.862 341.837 887.516 326.749 893.887C321.194 896.233 315.151 897.16 309.596 899.558L308.925 899.853C299.291 895.756 289.424 891.877 280.09 887.135C269.444 881.726 259.226 875.08 249.308 868.453C250.124 868.485 250.95 868.443 251.767 868.429C254.494 866.919 256.649 862.464 258.177 859.788C263.454 850.545 268.005 840.794 272.95 831.363C290.351 798.178 307.073 764.572 326.991 732.808C322.594 746.53 315.378 760.591 309.52 773.779C304.07 786.048 298.369 798.172 292.767 810.369C285.841 825.446 278.995 840.864 270.03 854.867C266.324 860.655 262.454 865.533 256.873 869.574C273.273 879.665 297.053 887.548 315.237 894.456C317.041 894.081 318.833 893.627 320.627 893.207C305.015 884.636 287.585 877.313 273.456 866.453C275.846 861.253 279.568 856.292 282.487 851.324C286.555 844.248 290.276 836.978 293.635 829.539C307.674 798.9 318.702 766.954 333.917 736.841C338.168 728.427 342.474 719.571 348.052 711.942C351.989 706.557 357.053 701.669 361.953 697.151L362.578 696.744L361.953 697.151C356.246 700.228 351.121 705.227 346.281 709.507C316.082 736.214 295.533 769.476 274.853 803.569L253.332 838.262C247.165 848.305 235.179 869.516 227.306 876.839C241.03 883.598 254.581 890.816 268.623 896.91C275.985 900.105 283.919 902.235 291.173 905.529C280.223 910.61 267.303 911.956 255.479 914.051C272.061 937.143 285.236 962.635 300.564 986.575C308.925 999.634 319.099 1011.27 327.865 1024L308.585 1024C291.033 998.958 279.089 979.294 267.174 951.085C262.104 939.082 257.481 926.84 254.723 914.08C247.299 914.821 239.837 914.738 232.398 914.369C241.524 935.761 249.799 957.536 259.714 978.582C267.026 994.104 275.531 1009.06 283.953 1024L111.281 1024C109.678 1013.99 107.066 1004.11 105.274 994.114C101.828 974.892 98.8566 955.575 95.1879 936.389C93.7981 929.121 92.0202 921.925 90.524 914.677C87.8046 901.504 85.3773 883.24 80.4858 871.022C82.685 885.432 84.5669 899.888 86.1299 914.381C87.5374 927.422 88.5538 940.548 90.6664 953.499C92.9675 967.606 96.6301 981.525 100.294 995.332C102.825 1004.87 105.136 1015.08 109.439 1024L10.1702 1024C16.7076 983.875 26.2001 943.399 40.1583 905.174C45.0794 891.697 59.8991 853.701 68.8469 844.647C73.655 839.781 125.439 822.184 136.252 818.025C150.618 812.499 165.172 807.008 179.126 800.504C171.818 797.789 164.581 794.71 158.241 790.102C149.044 783.419 141.357 774.063 137.361 763.345C136.031 759.779 135.317 755.389 133.317 752.148C131.456 749.131 128.631 746.397 126.354 743.654C118.822 734.581 114.936 725.724 113.084 714.051C104.209 658.101 147.662 580.977 169.275 530.327C178.745 508.137 186.625 484.702 194.253 461.801C200.066 444.062 205.43 426.179 210.34 408.169C212.587 400.227 215.423 392.42 216.812 384.264C221.08 359.21 222.216 333.878 224.941 308.656C227.938 280.925 233.517 252.705 242.088 226.138C255.404 184.861 272.433 144.649 298.065 109.393C312.994 88.8586 331.092 68.8837 350.851 52.9108C377.062 31.7219 412.77 13.5504 445.583 5.57641C458.444 2.45114 471.171 2.04372 484.132 0ZM541.352 21.7352L541.849 21.8878C574.97 29.2769 601.083 40.0271 628.317 60.4311C634.438 65.0174 644.129 75.7388 649.703 78.7772L650.082 79.0917L650.437 79.443L650.082 79.0917L649.703 78.7772C647.862 76.0916 645.452 73.7323 643.223 71.3624C624.277 51.227 601.296 38.1934 575.36 29.1418C564.608 25.3894 553.274 22.2377 541.849 21.8878L541.352 21.7352ZM659.503 66.0821L659.766 66.6371L660.497 66.8929L659.766 66.6371L659.503 66.0821ZM661.003 67.0773L661.5 67.5C661.992 67.8584 662.451 68.2338 663 68.5L663.322 68.8132L663.938 69.486C667.065 72.8512 670.995 75.5413 674.252 78.8164C685.724 90.2018 696.282 102.472 705.829 115.513C712.087 124.164 717.841 133.049 723.45 142.129C726.374 146.863 729.639 154.028 733.294 157.933L733.586 158.736L733.902 158.998L733.586 158.736L733.294 157.933C733.081 157.201 733.109 157.222 732.86 156.595C730.714 151.18 727.362 145.848 724.395 140.836C711.152 118.461 695.136 97.1641 676.367 79.1206C672.618 75.5164 668.121 70.925 663.322 68.8132L663 68.5C662.562 68.1238 661.987 67.8141 661.5 67.5L661.003 67.0773ZM656.503 72.0619L656.963 72.538L657.266 72.8746C659.647 76.7443 663.601 80.1719 666.682 83.5243C671.271 88.5342 675.737 93.655 680.077 98.8821C683.439 102.983 694.306 118.472 697.199 120.764L697.584 121.106L697.997 121.894L697.584 121.106L697.199 120.764C692.599 108.948 667.427 81.0322 657.266 72.8746L656.963 72.538L656.503 72.0619ZM579.003 78.016L579.569 78.287L580.36 78.7923C586.021 82.3552 592.547 84.9514 598.413 88.227C614.596 97.1376 629.337 108.448 642.133 121.773C645.66 125.414 650.77 129.842 653.241 134.234C647.8 131.148 643.284 126.327 638.084 122.808C622.925 112.553 606.947 104.033 590.464 96.1576C587.422 94.7044 583.618 92.2957 580.316 91.6994L579.284 91.0951L578.319 90.7728L577.235 89.8453L576.503 89.6229L577.235 89.8453L578.319 90.7728L579.284 91.0951L580.316 91.6994C583.259 94.7596 599.749 102.197 604.838 105.233C615.774 111.755 626.433 119.517 635.898 128.033C663.315 152.699 683.532 188.472 692.039 224.272C695.826 240.212 697.458 256.653 699.494 272.888C703.366 303.41 705.034 334.172 704.486 364.935C704.033 383.384 701.663 401.736 697.416 419.695C695.119 429.153 683.972 464.576 684.188 471.675C686.002 469.36 691.891 445.549 693.252 440.869C700.873 414.662 708.398 388.721 712.408 361.646C715.388 341.525 715.234 321.268 714.699 300.989C714.252 284.009 713.491 266.952 711.437 250.084C708.773 228.215 704.07 204.909 694.933 184.794C691.6 177.455 683.72 165.473 681.859 158.866C684.286 161.259 686.391 164.471 688.406 167.225C697.981 180.308 704.995 193.874 710.961 208.924C729.404 255.443 738.557 301.428 741.179 351.362C741.614 359.665 741.423 367.997 741.653 376.309C744.154 364.274 744.01 350.633 744.135 338.361C745.18 283.445 733.566 229.026 710.193 179.321C705.66 169.585 701.053 159.802 695.48 150.611C688.488 139.078 680.363 128.302 672.689 117.226C664.303 105.122 656.285 91.8019 645.972 81.2376C625.322 60.0835 589.222 40.4961 560.344 33.3774C569.307 37.2465 578.341 40.2786 587.038 44.8319C613.816 58.8499 645.905 85.5006 661.207 111.732C657.23 108.774 652.316 102.266 648.209 98.5335C637.605 88.8982 625.27 80.1187 613.128 72.5345C590.547 58.43 552.596 43.3478 526.075 49.4065C534.11 49.5031 541.763 50.3097 549.6 52.1996C586.248 61.0374 642.985 100.332 662.764 132.894C656.321 127.684 650.828 121.293 644.56 115.854C625.945 99.6999 603.159 85.8274 579.569 78.287L579.003 78.016ZM510.502 79.0025L511.031 79.2721L511.753 79.8368C514.51 81.9604 517.768 83.6637 520.712 85.5408C526.186 89.0039 531.465 92.7638 536.528 96.8037C564.231 119.262 588.982 154.477 600.581 188.216C594.624 183.259 588.117 172.584 583.356 166.245C571.656 150.666 551.491 128.085 535.228 117.648L534.815 117.881C554.045 137.583 585.992 188.286 594.293 214.157C588.973 207.46 583.581 200.777 578.584 193.833C571.285 183.69 561.858 168.295 552.375 160.404L552.236 160.116L551.364 159.702L551.114 159.002L551.364 159.702L552.236 160.116L552.375 160.404C554.939 165.502 558.144 170.247 560.646 175.376C551.71 166.423 544.121 157.36 536.834 147.041C539.919 154.766 543.172 162.472 545.687 170.405C537.014 159.761 531.084 147.384 524.231 135.553C528.844 148.98 531.241 163.151 535.32 176.781C541.508 197.459 551.007 218.275 562.107 236.772C565.815 242.95 569.966 248.901 573.894 254.943C577.949 261.179 583.435 272.299 588.198 277.225L588.573 277.633L589.146 278.79L589.582 279.128L590.129 280.269L590.396 280.498L590.129 280.269L589.582 279.128L589.146 278.79L588.573 277.633L588.198 277.225C586.306 270.869 582.052 264.152 579.209 258.094C571.463 241.589 559.39 216.362 555.296 199.081C558.873 205.007 562.05 211.178 565.641 217.104C570.283 224.763 575.352 232.057 580.32 239.499C583.475 244.225 586.479 249.346 590.098 253.716L590.381 253.998L590.098 253.716C587.499 247.552 583.372 242.064 580.405 236.068C576.496 228.167 573.402 219.755 569.875 211.671C565.252 201.076 559.713 190.651 556.876 179.395C576.095 203.954 595.324 228.408 613.289 253.916C620.019 263.521 626.699 273.159 633.329 282.832C636.717 287.855 640.052 294.32 644.116 298.715L644.378 298.998L644.116 298.715C642.565 291.942 638.24 285.197 635.631 278.712C632.111 269.961 628.883 261.091 625.395 252.326C620.513 240.058 615.444 227.886 611.353 215.321C615.739 219.592 619.096 226.137 622.251 231.387C631.209 246.296 639.638 261.848 647.816 277.22C651.433 284.018 654.436 291.33 658.502 297.856L658.654 297.53C649.119 268.61 633.533 236.805 618.925 209.911C624.778 215.211 634.468 233.013 640.673 240.678L640.904 240.976L640.673 240.678C637.849 230.622 629.222 212.984 624.246 203.197C621.341 197.485 617.691 191.48 615.813 185.348C622.302 193.253 627.828 202.759 633.21 211.467C646.123 232.575 658.429 254.048 670.111 275.86C674.153 283.238 677.711 291.344 682.218 298.397L682.497 298.998L682.218 298.397C680.953 291.715 677.062 284.673 674.357 278.386C664.116 254.141 652.611 230.451 639.889 207.411C633.135 195.44 626.29 183.611 618.266 172.432C595.853 141.209 548.907 89.8165 511.031 79.2721L510.502 79.0025ZM339.454 88.4595L338.79 89.1656L338.385 89.6193L337.856 90.1428L337.631 90.3697C332.287 94.3936 327.905 101.175 323.939 106.583C305.102 131.944 289.643 159.646 277.948 188.993C275.984 193.797 273.123 199.488 272.424 204.612C272.387 204.882 272.362 205.154 272.331 205.425L272.099 205.998L272.331 205.425C275.49 199.636 277.753 193.02 280.468 186.976C287.267 171.841 294.032 156.939 302.357 142.57C309.464 130.196 317.173 118.178 325.454 106.557C329.197 101.281 334.625 95.9812 337.631 90.3697L337.856 90.1428L338.385 89.6193L338.79 89.1656L339.454 88.4595L340.143 87.5743L339.454 88.4595ZM382.744 104.796L382.408 105.764L382.132 105.891C374.699 109.958 368.891 118.284 362.435 123.807C355.288 129.921 347.844 132.447 341.192 139.73C342.59 134.537 344.056 129.595 346.527 124.784C359.261 99.9889 389.57 76.7055 413.344 63.037C435.772 50.1426 452.032 45.6186 477.886 44.7015L477.907 44.4753C439.802 40.1246 400.851 63.1069 372.015 85.9997C355.712 98.9427 342.446 113.04 330.195 129.891C325.195 136.769 320.61 144.382 315.319 150.967C318.174 143.912 321.824 137.138 325.344 130.397C341.806 98.8796 358.73 80.9719 386.981 60.2072C399.115 51.2889 411.329 43.2524 425.251 37.3448C440.591 30.8355 457.51 25.6791 474.357 27.088C477.679 27.3659 481.091 27.9234 484.295 28.8591C486.185 29.4113 493.165 32.7215 494.519 32.3245C480.38 23.2251 462.901 24.1399 447.015 27.5594C390.752 39.6704 350.109 80.506 320.118 127.352C306.415 148.756 292.81 170.473 282.681 193.843C267.261 229.42 258.756 266.688 250.814 304.476C234.862 378.966 227.928 455.105 230.16 531.251C230.602 546.726 230.996 562.284 232.371 577.709C236.34 622.221 244.504 666.918 254.147 710.514C254.956 714.173 260.722 735.809 262.31 737.021C261.929 732.421 259.422 727.217 258.24 722.644C255.692 712.39 253.406 702.073 251.382 691.703C248.219 675.606 245.94 659.306 243.572 643.077C238.335 607.179 234.145 570.947 233.624 534.639C233.527 527.87 232.658 519.91 233.736 513.261C236.661 571.583 247.362 660.395 293.367 701.762C299.101 706.918 310.083 715.498 317.694 717.159L317.998 717.381L317.694 717.159C313.951 713.785 309.225 711.369 305.255 708.201C291.347 697.101 281.149 684.179 272.603 668.67C245.37 619.249 238.602 559.37 236.348 503.886C235.782 489.958 235.207 476.049 235.549 462.105C236.059 441.343 238.02 420.572 239.914 399.899C242.316 373.687 245.288 347.697 250.244 321.828C254.453 299.862 260.588 278.502 266.782 257.045C265.746 264.777 264.177 272.429 263.29 280.181C257.858 327.65 256.49 375.265 256.401 422.996C256.342 455.155 256.04 487.961 259.01 519.985C261.673 546.749 266.245 573.289 272.694 599.401C276.08 613.721 282.326 637.584 289.736 649.949L290.11 650.73L290.47 651.497L290.11 650.73L289.736 649.949L289.59 649.46C286.243 638.522 281.78 628.047 278.683 616.968C265.826 572.24 258.978 526.001 258.319 479.466C257.978 463.96 257.878 448.258 259.47 432.813C260.956 436.775 260.388 456.035 260.643 461.882C261.599 483.761 262.458 505.877 264.081 527.703C265.491 546.653 268.564 565.754 272.238 584.379C272.049 579.14 271.132 573.838 270.446 568.637C268.595 554.598 266.028 540.558 265.137 526.418C264.975 523.85 264.404 520.743 264.897 518.212C266.305 521.755 266.263 527.003 266.772 530.849C268.081 540.727 269.221 550.665 271.059 560.461C272.77 569.577 275.369 578.622 277.714 587.596C286.304 620.471 297.128 651.102 313.731 680.801C316.385 685.547 319.17 691.842 322.745 695.899L323.154 696.698L323.62 697.12L324.189 698.352L325 699.5C325.316 700.02 325.593 700.545 326 701L326.658 702.308L327.094 702.592L327.626 703.782L327.908 703.997L327.626 703.782L327.094 702.592L326.658 702.308L326 701C325.738 700.482 325.331 699.979 325 699.5C324.806 699.101 324.455 698.71 324.189 698.352L323.62 697.12L323.154 696.698L322.745 695.899C320.674 690.023 316.584 683.99 313.614 678.476C308.606 669.18 303.997 659.842 299.938 650.093C280.703 603.9 270.364 552.607 265.359 502.964C258.734 432.361 260.35 361.226 270.175 290.997C273.334 268.76 276.921 246.812 283.584 225.3C291.269 200.486 303.69 174.258 320.195 154.066C317.509 161.653 312.587 168.432 309.234 175.747C297.599 201.129 287.802 228.745 285.584 256.763C289.001 246.054 291.421 235.048 294.981 224.346C303.232 199.549 314.088 179.239 327.29 156.9C325.072 169.382 320.094 181.714 316.541 193.899C311.253 212.037 306.864 231.013 303.346 249.563C297.81 278.753 295.367 314.699 295.939 344.492C296.075 349.536 296.438 354.572 297.027 359.583C297.484 363.275 298.304 367.113 298.202 370.833C298.183 371.523 298.42 371.582 298.842 372.104C299.358 366.632 297.815 360.06 297.557 354.496C296.985 342.176 296.92 329.045 297.862 316.753C301.51 269.11 322.806 195.838 347.222 155.264C354.611 142.984 362.235 130.355 370.914 118.929C374.359 114.394 379.07 110.655 382.132 105.891L382.408 105.764L382.744 104.796L383.498 104.57L382.744 104.796ZM630.061 139.002L630.295 139.733L631.288 140.091L631.594 140.641L632.157 141.135L632.379 141.364L632.961 142.184C635.796 146.117 639.48 149.669 642.652 153.352C648.149 159.679 653.124 166.441 657.528 173.573C661.626 180.33 665.79 187.111 669.323 194.185C671.899 199.342 678.48 215.665 681.184 218.953L681.439 219.498L681.184 218.953C681.041 218.197 680.869 217.446 680.669 216.703C679.397 211.834 677.166 206.937 675.173 202.313C667.089 183.553 656.856 167.551 643.414 152.116C640.219 148.449 636.592 143.787 632.379 141.364L632.157 141.135L631.594 140.641L631.288 140.091L630.295 139.733L630.061 139.002ZM728.023 169.502L728.299 170.028C730.063 175.565 732.823 180.998 735.126 186.34C739.316 196.06 743.368 205.78 746.765 215.809C760.38 256.006 771.01 297.133 786.419 336.73C789.131 343.699 791.819 352.725 795.68 358.913L795.952 359.498L795.68 358.913C794.727 351.457 791.092 343.783 788.471 336.744C786.122 330.435 783.938 324.109 781.817 317.72C767.494 274.571 755.796 230.625 737.501 188.891C734.842 182.825 732.311 175.265 728.299 170.028L728.023 169.502ZM412.252 134.609C405.778 142.348 399.24 150.161 393.203 158.245C377.131 179.763 369.483 204.126 360.019 228.85C358.839 231.934 354.339 241.416 354.714 244.03C359.271 235.659 362.695 226.304 366.883 217.69C373.298 204.494 380.707 193.454 389.184 181.57C385.536 191.406 382.323 201.398 378.643 211.213C373.702 224.391 368.164 237.299 363.773 250.683C360.167 261.675 357.557 272.987 355.132 284.289C360.233 273.99 364.327 263.105 368.917 252.563C378.811 229.838 388.818 207.28 400.258 185.278C395.15 205.742 389.102 225.92 383.811 246.316C397.776 220.096 406.277 189.594 416.518 161.826C420.08 152.169 424.584 143.073 428.692 133.663C422.112 142.28 415.408 150.844 409.008 159.594C405.047 165.009 396.877 179.359 392.382 182.695C393.288 179.133 394.985 175.531 396.276 172.077C398.51 166.098 400.472 159.908 403.066 154.076C405.984 147.518 409.409 141.209 412.252 134.609ZM353.711 245.124L353.585 246.498L353.711 245.124L354.472 244.502L353.711 245.124ZM415.227 250.309C411.5 257.987 408.103 274.215 405.663 283.12C404.427 287.632 402.558 292.397 401.862 296.998C405.128 292.029 414.335 257.481 415.227 250.309L415.385 249.838L415.227 250.309ZM503.879 199.575C506.188 216.785 512.014 249.742 520.697 264.435L520.958 264.998L520.697 264.435C518.544 251.935 516.724 239.89 516.064 227.195C514.122 189.884 517.91 152.526 513.584 115.247C510.439 133.399 509.737 151.685 505.34 169.699C504.144 160.214 502.947 150.801 502.593 141.236C502.231 131.465 502.667 121.678 502.333 111.908C499.857 122.58 496.725 132.996 494.891 143.819C492.852 155.845 491.11 168.014 489.611 180.12C488.93 185.626 488.687 191.297 487.771 196.754C485.342 180.394 484.855 163.519 483.69 147.026C481.992 157.264 481.025 167.699 478.724 177.815C477.903 163.559 478.695 149.548 480.612 135.39C476.288 148.717 471.742 162.053 469.37 175.902C462.598 215.437 472.866 255.612 490.835 290.778C491.892 292.846 492.891 295.038 494.21 296.95L494.621 297.729L494.998 298.498L494.621 297.729L494.21 296.95C492.384 290.849 489.676 285.024 487.982 278.889C483.348 262.098 478.366 229.507 479.827 212.404C485.309 248.041 500.764 284.526 519.161 315.388C522.007 320.162 525.237 326.853 529.222 330.732L529.573 331.112L530.179 332.37L530.689 333.205L530.913 333.498L530.689 333.205L530.179 332.37L529.573 331.112L529.222 330.732C527.814 326.974 525.604 323.413 523.707 319.868C507.222 289.242 499.539 254.65 501.511 219.925C501.844 213.423 501.997 205.791 503.879 199.575ZM549.626 267.502L549.913 267.734C550.391 272.753 552.213 278.182 553.422 283.102C558.896 305.38 567.426 336.846 584.145 352.971C592.923 350.377 601.242 349.707 610.375 349.401C611.453 349.449 611.666 349.477 612.668 348.967C611.777 346.798 604.28 341.803 602.047 339.975C596.388 335.353 591.111 330.282 586.267 324.812C575.899 313.357 566.959 300.687 559.642 287.08C556.45 281.037 553.914 274.237 550.368 268.461L549.913 267.734L549.626 267.502ZM490.43 80.9051C482.904 89.6398 476.075 98.9516 470.006 108.755C437.332 161.201 427.091 224.574 441.583 284.642C441.51 285.297 441.514 284.86 441.87 285.924C441.879 285.479 441.706 285.067 441.583 284.642C440.96 274.757 439.346 264.953 438.836 255.029C437.24 223.942 439.942 188.105 451.172 158.825C453.569 152.577 456.729 146.79 459.978 140.962C458.896 150.151 455.695 159.132 454.353 168.365C451.555 187.614 453.612 223.859 460.162 242.222C460.782 238.637 458.745 233.114 458.312 229.323C457.884 225.366 457.617 221.392 457.511 217.413C457.067 198.708 459.576 179.707 463.083 161.367C468.863 130.302 474.708 108.795 490.43 80.9051ZM401.5 298.5L401.181 299.364C399.165 303.29 399.37 308.184 397.724 312.429C394.873 319.781 392.136 327.373 388.379 334.319C385.886 338.929 382.708 343.128 380.162 347.688C386.029 345.48 391.883 345.065 398.109 345.1C398.177 333.483 398.582 310.207 401.181 299.364L401.5 298.5L401.788 297.634L401.5 298.5ZM623.607 325.502L624 326L624.629 326.743L625.174 327.524C626.708 332.174 633.847 342.343 637.824 345.295C635.628 340.157 629.089 331.672 625.174 327.524L624.629 326.743L624 326L623.607 325.502ZM549.576 330.502L549.823 330.772C550.328 332.931 551.28 334.861 552.295 336.819C553.993 340.094 563.933 356.666 567.139 357.682L569.211 356.499L569.992 355.686C569.099 353.308 564.155 350.335 562.171 348.073C557.448 342.69 554.16 336.401 549.823 330.772L549.576 330.502ZM423.086 353.502L423.753 354.263L424.807 354.566L425.757 355.204L426.091 355.611L426.498 355.91L426.091 355.611L425.757 355.204L424.807 354.566L423.753 354.263L423.086 353.502ZM427.002 356.098L427.736 356.35L427.998 356.928L427.736 356.35L427.002 356.098ZM452.55 356.002L452.951 356.553L453.749 357.779L454.094 358.076L454.425 358.498L454.094 358.076L453.749 357.779L452.951 356.553L452.55 356.002ZM634.086 382.549L641.472 384.518C641.903 384.725 641.967 384.768 642.484 384.949C646.587 386.388 650.096 384.916 653.806 383.201C653.672 383.135 653.543 383.058 653.404 383.004C648.94 381.239 645.549 382.989 641.472 384.518L643.722 382.398C645.46 380.747 646.679 380.184 649.13 380.321C652.318 380.499 654.797 382.555 657.013 384.655L659.576 384.412C657.274 386.356 652.616 387.461 649.733 388.528L650.438 388.704C656.459 390.158 667.988 387.466 669.139 387.973C666.39 390.369 663.002 391.653 659.9 393.509C666.052 393.461 672.214 393.332 678.364 393.488C675.508 395.101 672.605 396.985 669.608 398.299C673.741 398.56 677.841 398.54 681.979 398.496C681.593 391.711 680.959 385.127 679.087 378.569C669.155 376.159 659.114 371.033 649.933 366.612C646.289 364.858 642.563 362.723 638.735 361.444C636.64 360.745 634.44 360.595 632.245 360.589C621.178 360.56 608.997 363.122 598.108 365.156C593.773 365.966 571.885 371.372 569.481 370.916C568.776 370.781 567.694 370.026 567.034 369.654C565.58 370.207 564.982 370.967 563.981 372.106C560.183 376.425 555.979 375.204 550.675 374.9C548.3 374.764 544.369 370.736 542.98 371.295C543.51 372.158 543.967 372.891 544.36 373.826C541.129 373.83 537.895 372.617 534.703 373.03L534.588 373.633L536.227 375.753L535.946 376.248C520.546 376.339 507.983 367.86 497.444 357.373C487.237 347.215 480.535 335.661 473.358 323.384C479.132 339.664 492.473 362.433 504.19 374.724C494.032 374.095 486.358 368.754 479.717 361.318C466.312 346.31 457.538 326.117 451.423 307.12C451.821 313.993 454.059 320.381 456.293 326.82C460.809 339.841 465.677 352.087 472.612 364.05C475.121 368.378 478.029 372.474 480.636 376.749C472.214 376 467.302 373.229 461.903 366.778C461.318 366.077 460.74 365.369 460.17 364.656C460.226 366.807 460.435 368.853 459.672 370.904L458.766 371.734C451.119 370.782 443.489 368.491 435.93 366.941C425.42 364.786 414.791 363.107 404.37 360.533C402.754 364.897 402.33 369.567 401.619 374.145C400.919 369.353 400.299 364.589 399.867 359.763C390.444 358.184 380.863 356.717 371.287 356.995C367.617 360.749 364.168 364.728 360.401 368.385C352.216 376.33 343.182 383.55 334.062 390.39C333.036 407.391 332.669 424.798 335.218 441.681C338.247 461.742 344.923 481.098 351.562 500.186C355.409 511.25 359.171 522.305 363.26 533.285C367.92 545.8 372.19 559.39 379.128 570.828C383.154 577.464 388.532 583.375 393.485 589.34C399.405 596.471 405.266 603.676 411.411 610.615C425.354 626.36 440.904 639.868 456.88 653.456C465.008 660.369 473.795 668.844 483.57 673.306C489.091 675.826 496.663 676.06 502.649 676.4C535.447 678.265 541.534 675.627 565.364 654.214C587.369 634.439 606.059 616.1 625.38 593.586C631.78 586.128 638.652 578.624 643.662 570.14C655.645 549.845 663.894 524.395 670.606 501.846C675.77 484.495 681.484 466.836 682.433 448.643C683.295 432.1 682.125 415.581 681.91 399.041C673.754 404.598 666.602 405.852 656.961 406.954C657.138 407.058 657.314 407.164 657.492 407.267C663.178 410.531 669.452 409.329 674.164 411.889L673.983 412.609C667.743 416.046 659.811 413.073 657.922 415.617C658.168 417.85 659.155 418.954 660.847 420.292C663.42 422.325 666.553 423.867 669.32 425.641C666.522 425.778 656.76 424.498 655.131 425.565C657.35 429.764 661.025 433.207 663.392 437.474C659.226 435.412 655.214 433.083 651.181 430.776L648.668 432.817C650.185 435.476 651.946 438.11 652.717 441.092L652.293 441.59C649.72 440.18 647.934 437.738 645.974 435.595C643.258 436.389 640.523 437.124 637.895 438.181C640.906 442.317 641.964 446.304 642.931 451.246C642.7 450.996 642.466 450.749 642.238 450.496C639.505 447.467 637.736 442.225 633.954 440.399L632.981 440.655C632.79 443.022 635.347 446.503 636.13 448.755C636.651 450.256 636.913 451.95 637.227 453.508C634.715 448.319 632.898 443.95 627.666 440.954C625.767 441.546 623.623 442.464 621.641 442.59C622.442 445.123 623.211 447.547 623.541 450.198C622.965 448.769 622.365 447.27 621.48 445.998C620.589 444.718 618.899 443.101 617.293 442.911C616.57 442.825 616.089 442.794 615.573 443.398C614.995 444.073 615.347 444.681 615.479 445.454C615.437 445.42 615.392 445.39 615.354 445.353C611.693 441.818 599.899 441.476 594.66 440.17C591.927 439.488 589.351 438.358 586.772 437.241C591.655 438.368 596.591 439.602 601.599 440.003C604.933 440.27 609.368 439.456 612.483 440.342L612.961 441.765L613.943 441.719L613.645 440.582C614.306 439.532 626.444 435.96 628.736 434.943C639.58 430.133 647.929 423.019 652.223 411.708C653.028 409.586 653.346 407.419 652.304 405.318C650.061 400.794 640.766 396.899 636.145 395.35C636.885 398.019 637.425 400.434 637.43 403.236C637.443 410.781 635.26 418.043 629.648 423.363C624.504 428.24 616.898 431.938 609.732 431.55C603.872 431.233 598.672 428.117 594.961 423.675C588.864 416.376 587.11 406.572 587.842 397.338C579.583 401.993 573.055 409.218 570.409 418.293C571.86 422.457 571.151 426.936 574.791 429.872L575.229 430.218C574.64 430.799 573.755 430.684 572.95 430.786C571.169 430.1 569.742 428.77 568.272 427.581C567.68 425.679 567.309 423.702 566.876 421.758C566.362 422.521 565.853 423.293 565.31 424.035C564.377 425.308 563.585 426.463 561.977 426.737C561.457 425.581 561.589 424.986 561.961 423.777C563.156 419.894 564.943 415.969 566.727 412.321C572.588 400.334 578.513 395.608 589.911 389.263L590.497 389.002L589.911 389.263C589.616 389.313 589.319 389.354 589.026 389.412C584.442 390.324 580.24 393.955 575.654 395.332C576.935 393.902 579.098 393.063 580.765 392.12C590.904 386.381 601.246 382.191 613.034 381.561C621.766 381.095 631.195 383.585 639.113 379.27C619.879 373.569 599.055 376.355 581.494 385.989C575.601 389.214 570.154 393.195 565.291 397.829C563.606 399.412 562.082 401.285 560.338 402.777C565.465 391.024 576.081 382.253 587.727 377.581C607.766 369.541 627.849 370.552 647.497 378.968C642.897 380.004 638.364 380.423 634.086 382.549ZM641.208 431.228L640.609 431.95C636.73 433.564 630.67 435.592 627.549 438.203L627.003 438.448L627.549 438.203C631.709 437.352 637.869 435.366 640.609 431.95L641.208 431.228L641.997 431.032L641.208 431.228ZM331.512 477.881C322.881 472.946 313.035 463.442 309.519 453.955C306.858 446.777 307.58 434.613 311.014 427.713C311.587 426.562 311.965 426.101 313.166 425.682C314.248 427.838 312.936 434.474 312.8 437.31C312.125 451.34 319.137 462.378 328.304 472.392L328.612 472.723L328.873 472.998L328.612 472.723C326.614 464.528 321.872 456.741 319.517 448.484C316.487 437.861 315.895 426.403 313.8 415.505C309.024 429.508 304.189 443.556 302.737 458.364C307.556 468.236 316.963 477.733 325.431 484.55C328.945 487.379 332.85 489.819 336.073 492.982L336.006 493.613C334.487 494.011 333.249 493.642 331.813 493.112C317.015 487.651 308.321 475.179 301.832 461.568C301.557 464.282 301.05 466.977 300.678 469.68C300.296 472.453 299.435 475.603 301.195 477.936C308.611 485.436 333.085 514.822 342.016 515.31C343.474 515.39 343.643 515.236 344.606 514.28C345.156 512.651 345.116 511.503 344.746 509.821C343.699 505.069 341.118 500.324 339.204 495.86C336.635 489.866 334.295 483.783 331.512 477.881ZM687.324 489.206L687.117 489.498L687.324 489.206C691.014 486.774 694.405 483.449 697.772 480.575C705.447 474.025 714.143 467.837 718.468 458.428C723.182 448.173 727.467 433.876 723.142 422.923C722.032 420.112 719.64 417.15 716.823 415.962L716.061 416.451C715.473 420.988 719.071 426.796 720.116 431.367C721.023 438.177 719.891 444.883 719.049 451.644C718.221 443.141 715.225 435.58 712.491 427.554C711.422 430.674 710.21 433.74 709.016 436.815C712.534 443.999 714.929 450.237 712.059 458.247C708.849 467.206 699.955 473.98 691.566 477.787C689.768 481.439 688.346 485.265 687.324 489.206ZM781.995 354.666C782.879 360.678 786.517 367.788 788.951 373.45C793.441 383.89 798.292 394.391 804.224 404.102C810.846 414.943 818.736 425.09 826.095 435.446C832.759 444.824 839.194 454.428 846.706 463.159C856.422 474.451 867.097 484.958 877.602 495.51C882.855 500.785 887.721 506.758 893.273 511.675L893.497 511.916L893.273 511.675C890.404 506.25 885.718 500.885 881.931 496.031C863.355 472.222 840.822 452.174 823.039 427.667C815.487 417.259 809.78 406.044 803.739 394.756C799.817 387.428 795.704 380.204 791.798 372.867C788.674 367 785.927 360.544 782.246 355.033C782.164 354.909 782.079 354.788 781.995 354.666ZM205.651 521.335C205.343 522.418 205.004 523.441 204.998 524.578C204.855 525.149 204.629 525.762 204.632 526.35C198.679 541.116 199.102 583.755 199.868 600.798C200.109 606.161 201.793 616.618 200.631 621.478L201.715 621.493C202.554 619.844 202.139 618.125 201.833 616.357C201.02 611.662 201.468 606.419 201.325 601.639C200.804 584.141 200.496 566.568 202.036 549.111C202.699 541.603 204.463 533.822 204.632 526.35C204.955 525.854 204.926 525.161 204.998 524.578C205.407 523.476 205.507 522.491 205.651 521.335L205.797 520.846L205.651 521.335ZM729.346 552.688C729.226 553.101 729.037 553.573 729 554C728.809 554.666 728.59 555.312 728.5 556L728.212 556.866L728.5 556C728.775 555.329 728.871 554.711 729 554C729.178 553.626 729.249 553.094 729.346 552.688C732.096 546.072 733.397 536.541 733.576 529.335C731.565 535.528 729.853 546.127 729.346 552.688ZM354.366 566.29C354.372 568.511 354.684 570.897 355.842 572.821C356.398 588.272 375.127 625.128 386.097 635.599C386.15 635.649 386.209 635.693 386.264 635.74L386.498 635.953L386.264 635.74C383.32 628.86 374.714 619.379 370.662 611.456C367.048 604.39 363.68 596.592 361.136 589.08C359.369 583.86 358.2 578.268 356.018 573.216C355.961 573.084 355.901 572.953 355.842 572.821C356.186 570.618 355.243 568.277 354.366 566.29ZM652.5 591.5C652.397 591.88 652.174 592.46 652.167 592.847C649.516 598.323 644.52 621.452 644.388 628.179C646.032 623.304 652.015 597.882 652.167 592.847C652.332 592.556 652.425 591.837 652.5 591.5L652.788 590.634L652.5 591.5ZM144.241 598.45L144.002 598.997L144.241 598.45C146.786 595.279 148.656 590.527 150.608 586.865C154.89 578.872 159.218 570.905 163.592 562.962C169.207 552.832 175.42 543.025 181.224 533C193.901 511.102 206.053 488.75 216.128 465.515C219.024 458.836 222.776 451.251 224.088 444.073C220.552 449.196 218.589 456.627 215.887 462.346C210.21 474.365 204.02 486.255 197.899 498.056C184.353 524.173 168.58 549.053 155.207 575.271C151.436 582.665 146.73 590.557 144.241 598.45ZM742.181 597.3C739.233 603.506 737.973 611.168 735.883 617.765C732.747 627.661 728.573 637.306 724.167 646.694C723.101 648.963 719.063 655.222 719.439 657.378C719.069 658.283 718.815 658.527 718.981 659.518C719.823 659.344 719.505 659.533 720.004 659.082C728.486 651.313 741.408 609.305 742.181 597.3L742.387 596.456L742.181 597.3ZM669.824 603.52L669.289 604.877L669.017 605.498L669.289 604.877L669.824 603.52C674.402 597.036 688.766 544.347 688.28 535.688C686.912 537.896 684.519 553.561 683.381 557.925C679.514 572.754 672.91 589.001 669.824 603.52ZM698.525 610.392L698 610.5L696.628 610.841C696.581 611.019 696.543 611.201 696.486 611.377C695.558 614.204 693.571 616.634 692.731 619.57C694.449 619.068 694.965 618.642 695.842 617.082C696.792 615.395 698.509 612.445 698 610.5L698.525 610.392C698.594 610.283 698.668 610.177 698.732 610.065C702.713 603.086 705.238 595.076 707.777 587.489C713.886 569.233 718.867 551.44 721.53 532.334C722.059 528.538 723.323 522.937 722.209 519.307L720.51 520.144C719.804 520.991 719.556 521.482 719.47 522.558C719.413 523.277 719.36 523.953 719.231 524.666C718.449 528.98 718.452 533.355 717.755 537.663C716.225 547.122 713.789 556.721 711.277 565.975C709.609 572.118 707.91 578.296 705.892 584.335C703.724 590.821 697.811 603.455 697.458 609.396L698.525 610.392ZM774.228 608.85L774.378 609.345C774.235 621.057 777.261 633.322 779.139 644.859C783.277 670.283 788.238 695.578 790.293 721.276C790.687 726.201 790.593 742.458 792.351 745.97C792.997 721.837 788.868 697.368 784.882 673.655L778.038 632.864C776.698 625.178 776.599 616.8 774.378 609.345L774.228 608.85ZM875.898 603.027C875.812 603.919 875.761 604.795 875.721 605.689C876.795 607.874 878.093 610.079 880.19 611.442C881.067 612.013 882.077 612.498 883 613L883.497 613.497L883 613C882.965 612.753 882.939 612.528 882.862 612.282C882.094 609.811 878.189 604.192 875.898 603.027ZM678.925 642.511C677.546 643.542 676.905 644.183 676.219 645.775L675.925 646.091C675.585 646.547 675.229 646.964 674.991 647.483L674.503 647.997L674.991 647.483C675.344 647.081 675.633 646.541 675.925 646.091L676.219 645.775C677.687 644.729 678.158 644.142 678.925 642.511C680.515 642.016 682.544 638.634 683.589 637.254L683.433 636.64C683.21 636.514 682.924 636.577 682.668 636.573C681.404 638.274 679.257 640.435 678.925 642.511ZM673.031 649.532L672.268 650.758L672.003 650.944L672.268 650.758L673.031 649.532L673.497 649.006L673.031 649.532ZM293.002 657.003L293.5 658L294.208 659.417L294.622 660.243L295.158 661.315L295.643 662.285L296.149 663.298L296.497 663.997L296.149 663.298L295.643 662.285L295.158 661.315L294.622 660.243L294.208 659.417L293.5 658L293.002 657.003ZM842.503 658.003L842.819 658.504C843.472 661.924 844.663 665.213 845.848 668.478L846.562 668.763L846.875 667.897C845.97 664.773 844.67 661.189 842.819 658.504L842.503 658.003ZM324.701 552.697C324.666 552.897 324.607 553.094 324.596 553.296C324.344 557.908 327.519 571.925 328.428 577.278C333.52 607.265 338.165 637.803 353.305 664.659C356.133 669.676 359.462 675.382 363.754 679.275L364.092 679.585L364.611 680.193C364.982 680.687 365.344 681.248 365.77 681.693L365.998 681.912L365.77 681.693C365.435 681.147 365.02 680.685 364.611 680.193L364.092 679.585L363.754 679.275C361.931 674.947 358.159 670.948 355.776 666.806C348.977 655.23 343.633 642.86 339.864 629.975C336.976 620.341 325.654 553.863 324.701 552.697ZM303.634 509.311C303.626 509.442 303.616 509.572 303.611 509.703C303.339 516.781 303.927 524.175 304.187 531.258C305.155 557.611 308.156 583.407 310.963 609.583C312.99 628.485 313.924 647.926 317.951 666.518C318.946 671.108 320.518 677.946 323.731 681.479C323.726 682.229 323.619 681.852 324.226 682.547C324.139 681.899 324.244 682.277 323.731 681.479C322.546 676.332 319.928 671.613 318.84 666.372C315.199 648.824 314.077 630.676 312.288 612.87C310.523 595.299 308.282 577.778 306.8 560.176C306.076 550.961 305.532 541.733 305.166 532.496C304.897 525.486 305.83 515.953 303.634 509.311ZM694.718 694.774L694.418 695.085L693.843 695.656L693.397 696.158C692.269 696.977 691.804 697.489 691.205 698.751L690.923 699.093L690.503 699.497L690.923 699.093L691.205 698.751C692.397 697.914 692.88 697.587 693.397 696.158L693.843 695.656L694.418 695.085L694.718 694.774C694.875 694.672 695.038 694.579 695.187 694.467C697.943 692.399 703.494 686.196 704.007 682.826C701.742 683.74 696.026 692.251 694.718 694.774ZM328.094 704.503L328.647 704.75L328.886 705.497L328.647 704.75L328.094 704.503ZM726.762 708.972L726.377 709.713L725.814 710.525C724.366 711.825 723.789 712.699 723.148 714.52L722.751 715.11C720.666 717.019 718.846 719.18 717.756 721.808L717.415 722.085C716.582 722.841 716.377 722.878 716 723.992L715.313 724.691L714.93 725.162L714.608 725.497L714.93 725.162L715.313 724.691L716 723.992C716.974 723.316 716.935 723.112 717.415 722.085L717.756 721.808C720.052 720.079 721.616 717.729 722.751 715.11L723.148 714.52C724.481 713.218 725.109 712.244 725.814 710.525L726.377 709.713L726.762 708.972C727.152 708.615 727.219 708.573 727.606 708.1C733.225 701.234 737.064 691.144 740.806 683.075C744.392 675.344 747.938 667.675 750.611 659.563C759.456 632.718 763.026 604.567 765.178 576.502C767.428 547.161 768.327 517.247 767.398 487.822C766.176 449.108 762.31 410.486 759.465 371.872C759.425 370.659 759.282 369.457 759.161 368.25L758.884 368.342C758.96 375.079 759.571 381.769 759.917 388.497C760.801 405.675 761.891 422.8 762.401 439.999C763.145 465.094 762.53 489.931 761.78 515.009C760.31 564.155 756.845 631.835 741.044 678.142C737.292 689.139 731.513 698.524 726.762 708.972ZM220.685 714.5C220.854 716.236 221.242 717.095 222.209 718.537L222.637 719.897L223.164 721.458L223.712 722.906L223.998 723.497L223.712 722.906L223.164 721.458L222.637 719.897L222.209 718.537C221.849 716.982 221.846 715.626 220.685 714.5ZM224.581 725.503L224.703 726.873L225.484 727.497L224.703 726.873L224.581 725.503ZM765.88 683.829C766.24 694.125 771.984 728.134 775.661 737.666L775.88 738.534L775.661 737.666C775.305 729.478 772.743 720.697 771.295 712.579C769.823 704.33 768.585 691.357 765.88 683.829ZM262.511 737.503L263.33 738.128L263.452 739.497L263.33 738.128L262.511 737.503ZM230.005 739.503L230.168 740.909L230.998 741.497L230.168 740.909L230.005 739.503ZM263.502 740.003L264 741L264.714 742.983L265.119 743.715L265.471 744.497L265.119 743.715L264.714 742.983L264 741L263.502 740.003ZM265.534 745.003L266.322 745.62L266.453 746.997L266.322 745.62L265.534 745.003ZM266.511 747.503L267.344 748.126L267.468 749.497L267.344 748.126L266.511 747.503ZM267.511 750.003L268 751L268.714 752.983L268.998 753.497L268.714 752.983L268 751L267.511 750.003ZM738.06 763.098L738.307 763.342C758.304 789.978 909.246 855.126 945.3 864.19C939.996 860.236 929.293 857.315 922.888 854.488C903.232 845.813 883.462 836.989 864.068 827.747C850.275 821.174 836.685 814.138 822.955 807.428C811.575 801.867 799.995 796.687 788.776 790.803L752.082 771.12C747.608 768.675 743.313 765.837 738.756 763.562L738.307 763.342L738.06 763.098ZM206.379 702.787C206.392 703.497 206.436 704.196 206.515 704.902C208.854 725.804 216.811 759.87 233.795 773.238L234.077 773.598L234.619 774.19L234.897 774.497L234.619 774.19L234.077 773.598L233.795 773.238C232.514 770.332 229.659 767.308 227.754 764.717C223.128 758.422 219.359 752.111 216.647 744.755C213.614 736.529 211.719 727.714 210.037 719.121C209.02 713.925 208.519 707.594 206.379 702.787ZM844.013 805.046L844.318 805.207C846.927 808.221 854.101 811.835 857.909 812.731L857.716 812.083C853.428 809.744 848.894 806.892 844.318 805.207L844.013 805.046ZM465.299 855.679L465.088 855.924L465.299 855.679L465.867 855.28C475.992 848.067 491.613 846.961 498.363 841.995C488.716 843.085 479.452 846.177 469.649 847.045L465.299 855.679ZM540.677 924.297L540.089 924.964C530.49 935.951 524.937 949.571 508.532 950.772C505.651 950.983 493.691 949.965 492.242 950.861C501.592 953.018 514.804 954.669 523.405 949.488C530.886 944.982 538.479 933.123 540.584 924.769C540.623 924.613 540.646 924.454 540.677 924.297L540.902 924.003L540.677 924.297ZM658.134 65.25L658.743 65.25L658.134 65.25ZM491.193 66.4711L491.745 66.75L491.193 66.4711ZM479.287 69.0917C466.29 73.0735 453.775 78.0769 442 84.9295C408.113 104.65 373.273 141.318 354.951 175.821C330.8 221.3 321.237 285.172 320.978 336.108C320.947 342.153 320.479 358.461 322.09 363.647C322.176 363.925 322.304 364.189 322.411 364.459L322.497 364.443C321.852 340.812 322.351 317.109 326.907 293.836C329.591 280.422 333.165 267.203 337.605 254.264C349.577 220.229 383.972 144.506 408.069 119.07C424.026 102.226 443.419 86.5985 464.116 75.9883C466.248 74.8955 479.451 69.9001 479.714 69.1384L479.287 69.0917ZM578.134 77.75L578.745 77.75L578.134 77.75ZM537.217 147.75L537.581 147.75L537.217 147.75ZM734.123 159.75L734.523 159.75L734.123 159.75ZM724.142 161.25L724.527 161.25L724.142 161.25ZM724.62 162.25L725.048 162.25L724.62 162.25ZM725.099 163.25L725.516 163.25L725.099 163.25ZM725.591 164.25L726.011 164.25L725.591 164.25ZM726.768 166.75L727.245 166.75L726.768 166.75ZM727.234 167.75L727.673 167.75L727.234 167.75ZM727.7 168.75L728.131 168.75L727.7 168.75ZM384.224 245.49L384.493 245.75L384.224 245.49ZM415.711 248.175L415.887 248.513L415.711 248.175ZM422.421 276.774C418.171 299.81 413.379 323.065 407.699 345.793C419.489 347.721 429.782 347.353 441.373 351.717C445.031 352.843 448.793 353.855 452.338 355.295C449.199 350.414 445.522 345.897 442.508 340.941C434.453 327.693 429.349 312.148 425.927 297.063C424.456 290.583 424.737 282.887 422.421 276.774ZM590.754 281.25L591.245 281.25L590.754 281.25ZM659.19 299.25L659.561 299.25L659.19 299.25ZM682.739 299.75L683.09 299.75L682.739 299.75ZM659.661 300.25L660.041 300.25L659.661 300.25ZM549.196 329.75L549.598 329.75L549.196 329.75ZM772.678 341.22C773.822 352.663 780.369 389.618 784.444 399.305L785.35 399.734C785.549 399.239 785.868 398.777 785.946 398.249C786.16 396.801 774.709 345.832 773.447 342.646C773.247 342.141 772.977 341.671 772.678 341.22ZM667.436 360.288C671.002 364.742 674.374 370.051 678.193 374.182C677.43 369.955 675.948 363.968 672.074 361.528C670.685 360.653 669.029 360.495 667.436 360.288ZM298.96 373.242L299.128 374.181L299.519 374.315C299.39 373.994 299.278 373.387 298.96 373.242ZM730.266 377.355C725.211 387.379 720.974 397.43 718.077 408.317C722.616 410.399 725.404 412.958 727.212 417.786C731.596 429.495 725.946 449.975 720.711 460.84C718.918 464.562 716.847 468.043 714.212 471.231C707.794 478.996 693.019 491.654 684.302 496.77C682.422 501.219 680.587 505.66 678.931 510.199C679.381 511.362 679.527 511.493 680.765 511.978C683.714 513.132 687.87 511.764 690.545 510.463C701.508 505.135 720.673 480.707 727.277 469.722C729.513 465.988 731.313 462.009 732.642 457.864C736.795 445.204 738.072 431.376 735.208 418.307C733.946 412.544 732.118 406.715 731.507 400.853C730.71 393.214 731.705 384.845 730.266 377.355ZM620.442 396.077C621.041 397.485 621.284 398.255 622.743 398.908C625.136 399.978 628.375 399.759 630.943 400.257C630.524 398.569 630.639 397.97 629.039 396.986C627.004 395.734 622.79 395.897 620.442 396.077ZM596.175 397.127C594.622 397.786 593.776 398.312 593.074 399.903C592.522 401.157 592.428 402.436 592.908 403.732C593.42 405.116 594.358 405.943 595.66 406.56C596.914 406.531 598.165 406.521 599.415 406.418C601.078 405.747 602.25 405.546 603.01 403.719C603.565 402.388 603.809 401.063 603.143 399.706C602.573 398.545 601.779 397.914 600.754 397.169C599.174 396.875 597.769 396.992 596.175 397.127ZM624.965 410.547C621.83 414.384 618.574 417.297 613.937 419.283C611.619 418.854 608.707 418.574 606.619 417.47C603.686 415.92 601.589 410.754 597.903 411.232C597.183 412.189 597.322 411.667 597.484 412.94C597.83 415.653 598.934 417.089 600.602 419.233C604.054 422.937 607.49 424.865 612.665 424.982C618.083 425.104 623.311 422.603 627.098 418.801C628.279 417.615 629.408 416.076 629.483 414.333C629.514 413.624 629.479 412.672 628.92 412.163C627.894 411.229 626.271 410.936 624.965 410.547ZM801.786 412.329C802.838 418.317 804.77 424.239 806.365 430.108C809.413 441.323 812.474 452.502 816.047 463.565C824.286 489.078 833.36 513.521 845.813 537.338C868.002 579.773 898.042 617.527 924.624 657.196L928.372 649.658C937.62 628.345 934.879 599.226 926.461 578.07C916.46 552.933 896.89 533.516 878.985 513.843C866.424 500.042 853.843 486.258 842.163 471.69C834.835 462.55 827.452 453.605 820.965 443.826C817.98 439.341 815.102 434.785 812.334 430.162C809.933 426.09 804.681 415.073 801.786 412.329ZM625.388 438.696C623.512 438.962 621.273 439.02 619.656 440.061L619.875 440.789L620.642 441.193C622.593 440.546 624.502 439.972 626.293 438.941L626.091 438.605L625.388 438.696ZM224.699 442.25L225.049 442.25L224.699 442.25ZM798.429 449.298L797.411 449.498C797.015 453.904 801.176 461.936 802.672 466.375C810.251 488.862 818.129 511.351 828.677 532.664C834.62 544.673 841.523 556.063 848.508 567.48C849.624 566.677 850.21 566.498 850.653 565.169C848.836 561.113 846.294 557.235 844.074 553.373C839.739 545.829 835.363 538.258 831.448 530.487C821.798 511.334 814.671 490.91 807.418 470.753C806.156 467.248 800.839 450.165 798.887 449.381C798.743 449.323 798.581 449.326 798.429 449.298ZM699.818 450.454C698.578 455.659 696.014 461.7 695.447 466.913C696.347 467.144 695.889 467.164 696.816 466.784C699.113 465.379 701.181 464.369 701.892 461.559C702.735 458.229 701.561 453.785 700.085 450.768C700.024 450.644 699.907 450.558 699.818 450.454ZM770.621 456.356C770.039 473.346 778.984 503.819 785.246 520.034C796.18 548.346 809.389 575.206 826.615 600.28C835.174 612.738 844.452 624.389 853.678 636.327C873.504 661.98 893.95 687.146 913.6 712.943C926.495 729.872 944.368 753.088 953.136 772.205C957.896 782.584 959.798 792.985 961.848 804.124C962.022 792.93 957.745 778.984 952.893 769.03C942.171 747.035 926.514 727.84 912.663 707.826L862.676 634.174C851.95 618.627 841.273 603.135 830.803 587.413C825.253 579.078 819.577 570.818 814.534 562.161C794.914 529.173 780.126 493.542 770.621 456.356ZM303.588 507.968L304.02 508.25L303.588 507.968ZM733.579 528.97L733.992 529.25L733.579 528.97ZM320.824 530.469L321.245 530.75L320.824 530.469ZM321.28 533.25L321.745 533.25L321.28 533.25ZM688.278 533.75L688.745 533.75L688.278 533.75ZM321.595 534.25L321.998 534.25L321.595 534.25ZM322.109 537.466L322.575 537.75L322.109 537.466ZM322.558 540.747C322.913 541.417 322.665 541.309 323.017 541.417L322.558 540.747ZM323.279 544.25L323.745 544.25L323.279 544.25ZM323.588 545.25L323.998 545.25L323.588 545.25ZM350.971 548.256L351.207 549.221L351.522 549.32L351.229 548.361L350.971 548.256ZM324.081 548.744L324.404 549.379L324.526 549.418L324.081 548.744ZM351.347 551.299C351.756 554.997 352.265 563.693 354.867 566.359C354.258 563.543 353.013 552.407 351.347 551.299ZM727.699 558.676L727.877 559.014L727.699 558.676ZM727.254 560.484L727.544 560.75L727.254 560.484ZM780.883 568.185L781.202 568.578L781.406 568.528L781.006 568.159L780.883 568.185ZM781.37 570.688L781.697 571.08L781.903 571.03L781.495 570.661L781.37 570.688ZM189.167 579.837C187.166 586.324 184.84 592.963 183.949 599.71C180.032 629.369 188.634 680.715 197.898 709.144L199.224 711.932L198.99 710.953C197.017 702.459 196.223 693.447 195.145 684.792C192.313 661.535 190.483 638.168 189.66 614.754C189.435 607.725 190.395 584.977 189.167 579.837ZM654.203 584.68L654.382 585.015L654.203 584.68ZM272.589 585.25L273 585.25L272.589 585.25ZM653.697 586.672L653.879 587.012L653.697 586.672ZM653.188 588.672L653.369 589.012L653.188 588.672ZM155.293 592.388C139.144 624.55 109.958 691.529 121.74 727.853C122.891 731.404 124.494 734.718 126.683 737.75C128.554 740.128 130.466 742.343 132.587 744.501C127.083 713.988 137.806 682.984 143.974 653.454C146.328 642.183 147.211 630.609 149.603 619.294C150.818 613.548 155.804 596.949 155.293 592.388ZM143.705 599.75L144.077 599.75L143.705 599.75ZM143.257 600.75L143.669 600.75L143.257 600.75ZM177.793 603.86C174.044 613.995 170.533 624.13 168.518 634.779C161.923 669.62 164.419 721.749 179.331 753.987C186.319 769.093 195.489 780.092 210.683 787.165L215.63 785.226L229.173 778.511C221.586 770.908 215.203 763.2 209.68 753.915C189.349 719.739 176.94 665.346 176.906 625.762C176.901 619.266 178.767 609.667 177.793 603.86ZM773.827 605.469L774.245 605.75L773.827 605.469ZM668.736 606.487L669.007 606.75L668.736 606.487ZM774.083 606.968L774.506 607.25L774.083 606.968ZM668.227 607.75L668.603 607.75L668.227 607.75ZM406.619 613.996C409.589 633.668 410.342 654.464 410.145 674.348C410.034 685.588 409.436 696.844 409.461 708.08C420.636 729.461 449.385 764.229 466.604 781.156C471.288 785.785 476.074 790.31 480.959 794.727C485.671 798.96 490.631 802.918 494.668 807.835C498.453 812.447 503.726 819.877 503.935 826.001L503.454 827.096C500.986 826.911 499.202 824.549 497.656 822.749C495.84 820.635 494.28 818.328 492.253 816.404C486.769 820.654 482.284 824.955 478.8 831.001C501.84 836.966 510.859 836.226 533.685 829.786C531.001 824.117 526.249 818.463 520.695 815.452C517.92 819.191 511.8 829.057 507.17 829.937C507.009 829.967 506.843 829.93 506.679 829.926C506.106 826.613 511.04 819.76 512.954 817.062C521.156 805.504 533.396 797.554 543.932 788.299C555.191 778.41 565.774 768.184 576.075 757.311C587.56 745.659 610.148 723.583 617.195 709.376C615.041 681.313 616.679 651.975 618.656 623.921C614.316 632.921 613.201 639.964 612.5 649.87C612.211 653.942 612.107 658.095 610.833 662.011C608.843 668.124 604.83 674.106 601.58 679.636C590.148 699.088 571.929 727.778 549.947 735.574C540.893 738.785 532.088 737.11 523.655 733.043C496.65 720.021 445.295 672.505 427.753 647.743C423.192 641.305 410.386 616.83 406.619 613.996ZM888.613 620.707C888.121 622.654 887.901 623.112 888.949 624.95C893.381 632.717 899.661 639.718 904.648 647.2C924.078 676.355 960.476 732.34 964.201 765.983C965.315 776.049 965.544 786.926 964.272 796.968C963.588 802.374 961.668 807.511 962.041 813.006C973.456 776.933 960.515 734.554 943.705 702.152C941.633 698.123 939.426 694.164 937.087 690.283C932.234 682.388 893.745 622.584 888.812 620.786C888.745 620.761 888.679 620.734 888.613 620.707ZM201.456 622.222C201.133 628.327 202.145 634.84 202.908 640.9C205.509 661.545 210.056 680.837 215.937 700.785C216.862 703.925 218.16 710.791 220.266 713.162C220.464 713.386 220.704 713.569 220.924 713.772C213.144 689.413 206.682 665.736 203.815 640.252C203.476 637.238 203.223 624.801 202.37 623.08C202.184 622.705 201.76 622.508 201.456 622.222ZM644.275 628.25L644.745 628.25L644.275 628.25ZM800.806 629.966L801.24 630.126L800.806 629.966ZM290.726 652.25L291.142 652.25L290.726 652.25ZM291.192 653.25L291.554 653.25L291.192 653.25ZM291.674 654.25L292.067 654.25L291.674 654.25ZM292.144 655.25L292.519 655.25L292.144 655.25ZM841.657 655.75L842.094 655.75L841.657 655.75ZM292.608 656.25L293.042 656.25L292.608 656.25ZM403.294 658.877C399.52 661.612 395.151 664.305 392.372 668.092C385.635 677.274 383.894 694.751 380.413 705.85C377.92 713.797 374.519 721.196 370.883 728.662C374.523 765.806 380.193 802.723 387.867 839.248C389.823 848.276 391.284 858.397 394.75 866.948C396.801 872.009 403.803 878.648 407.3 883.191C414.194 892.146 429.466 914.971 437.309 921.25C437.706 921.568 438.112 921.876 438.529 922.167C441.614 906.561 445.9 891.864 450.805 876.731C457.386 859.033 473.416 820.009 490.801 811.877C491.174 811.704 491.549 811.536 491.927 811.373L491.396 810.806C482.752 801.667 472.12 794.296 463.165 785.352C445.409 767.621 393.329 707.525 393.645 683.227C393.714 677.872 395.578 673.206 398.511 668.808C398.327 675.184 397.038 688.786 401.311 693.901C401.404 692.524 401.319 691.444 401.13 690.078C400.274 683.915 408.17 663.334 403.294 658.877ZM622.092 660.168L622.084 667.085C627.458 673.704 634.418 681.467 633.245 690.67C629.707 718.428 554.097 788.874 530.409 806.349C528.202 807.977 525.77 809.461 523.77 811.339C525.806 812.397 527.515 813.403 529.172 815.025C542.542 828.11 565.009 874.216 572.022 892.937C575.45 902.793 578.123 912.602 580.138 922.847C598.709 902.784 614.818 879.66 627.972 855.723C630.849 850.486 633.976 845.241 636.093 839.643C641.41 825.585 646.147 800.899 648.522 785.764C650.573 772.693 652.968 758.396 652.439 745.144C652.001 734.178 648.614 722.653 646.306 711.914C643.842 700.445 642.371 688.867 638.012 677.892C636.147 673.197 633.74 668.99 629.979 665.534C627.599 663.347 624.92 661.702 622.092 660.168ZM296.772 664.75L297.245 664.75L296.772 664.75ZM622.392 673.762C622.467 676.447 626.46 690.651 627.989 692.503L628.241 691.946L629.594 685.946C628.03 681.621 626.159 676.632 622.392 673.762ZM870.959 673.897C881.142 712.213 891.537 744.37 886.522 784.773C885.026 796.824 881.762 810.101 875.637 820.682L875.263 821.322C880.365 823.827 885.675 826.21 891.034 828.117L895.012 824.384C909.263 809.09 911.697 787.068 911.004 767.014C910.755 759.811 909.805 752.703 908.555 745.614C904.404 722.071 896.153 709.259 882.848 690.317C879.397 685.404 875.2 678.002 870.959 673.897ZM143.416 674.871C137.673 694.737 133.702 716.832 135.274 737.499C135.559 741.248 135.589 745.007 137.488 748.345C138.403 749.954 139.609 751.448 139.798 753.335L138.479 753.284L137.967 753.844C140.647 767.198 150.156 780.161 161.387 787.639C167.334 791.598 174.088 794.338 180.815 796.663C183.523 797.299 186.263 797.989 188.938 796.846L189.184 796.012C187.131 792.789 181.052 789.98 177.957 787.387C172.489 782.839 167.695 777.538 163.717 771.642C148.515 749.102 144.425 721.366 143.557 694.766C143.352 688.479 144.588 680.934 143.416 674.871ZM765.825 683.469L766.245 683.75L765.825 683.469ZM324.643 683.75L325.06 683.75L324.643 683.75ZM325.178 684.75L325.56 684.75L325.178 684.75ZM325.732 685.75L326.142 685.75L325.732 685.75ZM672.643 709.356C672.771 709.602 672.892 709.851 673.026 710.093C674.747 713.214 678.709 714.765 680.482 718.027C683.724 723.991 686.514 730.292 689.512 736.387C702.222 762.228 713.499 788.717 725.109 815.059C729.089 824.248 733.212 833.373 737.478 842.432C740.599 848.984 744.172 855.498 746.869 862.229C734.998 870.382 721.571 875.653 708.694 881.957C712.062 883.451 716.1 885.518 719.81 885.748L720.195 885.264C732.496 878.366 746.429 874.174 758.905 867.583C756.595 862.616 753.693 857.943 751.167 853.083C743.749 838.813 736.173 824.469 729.501 809.837C720.225 789.552 711.183 769.162 702.378 748.669C699.983 743.226 693.796 727.534 691.059 723.513C688.171 719.269 678.985 711.896 674.332 709.739C673.77 709.478 673.25 709.423 672.643 709.356ZM199.719 713.25L200.023 713.25L199.719 713.25ZM224.181 724.455L224.745 724.75L224.181 724.455ZM876.727 727.234C879.145 746.473 881.379 766.771 878.352 786.073C877.844 789.313 875.345 796.544 875.865 799.255L876.609 799.677L877.337 799.442C881.615 779.272 882.359 759.331 879.389 738.92C878.864 735.308 878.538 730.432 876.727 727.234ZM225.701 728.454L226.245 728.75L225.701 728.454ZM226.222 729.75L226.57 729.75L226.222 729.75ZM227.198 732.451L227.745 732.75L227.198 732.451ZM227.719 733.75L228.106 733.75L227.719 733.75ZM228.711 736.25L229.077 736.25L228.711 736.25ZM704.417 735.771C708.29 747.568 716.525 761.543 722.109 772.97C732.615 794.467 742.716 816.184 753.436 837.568C758.977 848.621 766.063 860.028 769.696 871.842C760.974 880.064 743.841 885.776 732.473 889.701C739.251 891.678 746.213 893.251 752.892 895.527L756.429 896.419C766.415 890.711 777.421 886.372 787.883 881.587C777.251 851.934 759.888 824.89 745.357 797.077L729.456 766.637C726.518 760.956 723.772 754.388 720.014 749.229C717.774 746.154 707.681 737.336 704.417 735.771ZM229.158 737.454L229.745 737.75L229.158 737.454ZM229.706 738.75L230.1 738.75L229.706 738.75ZM231.226 742.25L231.584 742.25L231.226 742.25ZM231.691 743.25L232.051 743.25L231.691 743.25ZM232.161 744.454L232.745 744.75L232.161 744.454ZM232.762 745.75L233.217 745.75L232.762 745.75ZM233.204 746.75L233.562 746.75L233.204 746.75ZM233.65 747.75L234.019 747.75L233.65 747.75ZM234.773 750.25L235.245 750.25L234.773 750.25ZM235.242 751.25L235.642 751.25L235.242 751.25ZM297.423 751.07C288.432 755.111 279.743 760.097 271.024 764.7L222.74 790.13C195.591 804.217 167.709 816.478 139.438 828.127C133.657 830.509 90.3395 846.776 89.4784 847.833L89.7144 847.919C132.882 836.69 182.052 816.073 221.766 795.633C231.104 790.827 240.122 785.382 249.402 780.457C265.456 771.936 283.853 763.499 297.635 751.532L297.423 751.07ZM235.758 752.25L236.203 752.25L235.758 752.25ZM236.244 753.25L236.664 753.25L236.244 753.25ZM236.769 754.25L237.245 754.25L236.769 754.25ZM862.497 753.671L862.344 756.069L862.899 756.606L863.951 756.145L864.613 755.438C864.111 754.413 863.482 754.18 862.497 753.671ZM845.682 754.998C846.413 763.335 847.224 771.86 846.982 780.234C846.899 783.094 845.34 791.912 845.907 794.17C846.056 794.764 847.009 795.875 847.373 796.439C848.486 786.285 849.625 765.6 846.916 755.926L845.682 754.998ZM238.172 756.75L238.575 756.75L238.172 756.75ZM862.726 757.75L863.245 757.75L862.726 757.75ZM239.688 759.25L240.092 759.25L239.688 759.25ZM953.647 781.279C946.821 806.185 937.708 823.626 917.075 839.871L926.303 844.648L938.153 850.125C952.183 834.397 956.771 810.085 955.599 789.526C955.465 787.171 955.488 782.938 953.647 781.279ZM818.838 782.417C818.827 785.692 818.256 790.458 819.589 793.439C819.999 793.702 820.433 794.037 820.879 794.227C821.317 790.891 822.212 785.696 820.032 782.847L818.838 782.417ZM917.033 783.854C914.214 796.418 911.359 808.872 903.866 819.609C902.145 822.077 895.345 827.742 895.538 830.358C896.12 830.742 896.705 831.181 897.326 831.498C899.508 832.401 901.642 833.306 903.921 833.942C912.066 821.382 915.594 808.797 916.745 793.926C916.984 790.846 917.592 786.822 917.033 783.854ZM961.222 815.971L961.5 816.25L961.222 815.971ZM960.738 817.25L961.086 817.25L960.738 817.25ZM960.197 818.75L960.522 818.75L960.197 818.75ZM521.834 837.639C514.664 838.887 506.8 839.688 499.867 841.868C492.854 850.144 469.296 885.365 466.201 894.386C465.288 897.044 464.986 901.979 465.428 904.794C465.499 905.249 465.643 905.444 465.85 905.806L466.307 905.73C477.022 887.568 493.228 861.842 508.341 847.617C512.428 843.771 516.95 841.04 521.874 838.419C522.435 838.12 522.271 838.359 522.307 837.677L521.834 837.639ZM548.178 857.357C532.391 876.413 514.154 893.647 497.426 911.916C489.947 920.084 481.574 928.736 475.833 938.244C477.62 941.576 479.533 945.936 482.261 948.613C503.68 919.196 529.817 893.729 554.708 867.266C552.735 864.199 550.681 859.922 548.178 857.357Z"/><path d="M661.207 111.732L661.458 111.998L661.207 111.732Z"/><path d="M653.241 134.234L653.578 134.575L653.241 134.234Z"/><path d="M653.578 134.575L653.934 134.915L653.578 134.575Z"/><path d="M315.034 151.498L315.319 150.967L315.034 151.498Z"/><path d="M320.664 153.303L320.889 153.002L320.664 153.303Z"/><path d="M320.195 154.066L320.664 153.303L320.195 154.066Z"/><path d="M681.859 158.866L681.614 158.543L681.859 158.866Z"/><path d="M389.184 181.57L389.452 181.002L389.184 181.57Z"/><path d="M392.125 182.998L392.382 182.695L392.125 182.998Z"/><path d="M615.813 185.348L615.565 185.012L615.813 185.348Z"/><path d="M600.581 188.216L600.881 188.498L600.581 188.216Z"/><path d="M617.897 209.158L617.622 208.502L617.897 209.158Z"/><path d="M617.897 209.158L618.755 209.623L617.897 209.158Z"/><path d="M618.755 209.623L618.925 209.911L618.755 209.623Z"/><path d="M611.353 215.321L611.116 215.023L611.353 215.321Z"/><path d="M450.738 391.251C445.764 388.254 440.789 385.387 435.406 383.19C437.934 384.814 443.453 387.792 444.653 390.643C441.019 388.251 437.475 385.572 433.558 383.665C420.78 377.443 403.993 376.97 390.253 379.816C389.284 380.018 388.317 380.233 387.354 380.462L391.436 382.279C407.793 380.227 425.329 380.514 438.966 390.97C443.451 394.409 448.567 399.685 450.79 404.936C447.494 401.276 444.427 397.516 440.733 394.238C441.2 395.197 441.751 395.736 442.473 396.498C446.207 400.442 457.006 419.758 457.161 424.92C457.193 426.003 456.941 426.17 456.251 426.901C454.453 426.837 453.296 425.583 451.754 424.68C450.855 425.652 449.943 426.61 449.065 427.6C447.958 428.846 446.823 429.486 445.342 430.226C446.945 426.725 448.536 423.261 448.995 419.391C449.667 413.718 447.007 409.448 443.58 405.23C444.954 408.078 446.341 410.862 447.283 413.889C445.006 410.073 442.1 407.051 439.53 403.49C438.691 411.999 437.559 420.118 430.556 425.991C425.363 430.346 417.998 432.507 411.282 431.888C404.897 431.3 399.538 427.931 395.593 422.971C391.738 418.124 389.374 411.839 390.12 405.596C390.653 401.141 393.363 397.088 395.58 393.281C386.015 394.976 376.769 397.742 370.861 406.074C370.765 406.21 370.675 406.352 370.582 406.491C373.093 417.061 377.413 426.175 387.01 432.044C403.284 441.997 426.448 436.586 429.066 438.001C427.412 438.856 424.956 438.783 423.089 438.956C413.313 439.863 404.942 439.81 395.517 436.786C385.698 433.636 376.74 427.861 371.967 418.431C370.503 415.539 370.101 410.436 367.191 408.809L366.22 409.266C365.722 410.953 366.511 412.317 367.3 413.781C369.068 417.062 371.805 420.033 372.766 423.65C372.446 423.374 372.127 423.097 371.795 422.836C366.468 418.644 354.964 422.297 348.729 422.923C351.415 421.673 354.303 420.847 356.773 419.181C355.999 418.08 353.873 418.878 352.68 417.99C355.099 416.436 358.079 418.196 360.662 416.771C359.905 416.044 357.358 415.938 356.235 415.761C356.869 414.993 356.603 415.159 357.356 414.739C357.512 414.652 357.675 414.577 357.834 414.496L356.929 413.489L357.614 413.328C358.616 413.839 359.542 414.318 360.633 414.61C360.894 414.68 361.157 414.744 361.419 414.811L361.763 414.907C363.841 417.043 365.702 417.514 368.573 418.09C366.98 416.065 364.131 415.531 361.763 414.907L361.419 414.811C359.672 412.747 356.361 411.261 353.989 409.899C356.688 410.241 359.332 410.692 362.001 411.209L362.073 410.876C360.435 409.492 358.058 409.532 356.075 408.802C356.553 408.312 357.036 407.826 357.523 407.345C354.964 405.522 349.392 406.277 346.207 404.76C345.967 404.646 345.735 404.518 345.497 404.398C342.228 402.756 339.438 400.68 336.536 398.463C344.067 398.387 352.253 398.021 359.472 395.688C360.893 395.23 362.632 394.612 363.332 393.232C360.307 391.053 356.05 391.05 352.845 389.09L352.788 388.343C356.552 386.773 363.901 388.017 366.67 385.079C366.786 383.458 366.296 383.012 365.494 381.634L365.66 381.549L367.286 382.354L366.211 382.169L366.149 382.049C367.312 382.263 367.906 382.755 368.827 383.471C373.489 382.577 377.887 380.655 382.368 379.13C392.784 375.586 403.94 373.145 414.983 373.469C429.459 373.894 435.451 377.258 445.735 386.736C447.405 388.275 449.173 389.579 450.738 391.251ZM409.057 396.378C408.153 395.576 406.982 395.152 405.763 395.326C404.593 395.493 403.41 396.026 402.313 396.445C402.093 396.529 401.871 396.607 401.653 396.692C399.71 397.454 397.026 399.061 396.13 400.983C396.133 402.307 396.236 403.178 396.673 404.457C398.508 405.248 399.917 405.714 401.886 404.921C404.984 403.674 408.453 401.256 409.877 398.164L409.801 397.015L409.057 396.378ZM385.364 381.015C381.249 382.428 376.833 384.115 373.238 386.585L373.184 387.211C374.074 387.523 374.162 387.506 375.177 387.352C379.687 385.061 383.515 384.047 388.442 383.129C387.821 382.219 386.946 381.512 385.925 381.098C385.75 381.027 385.551 381.043 385.364 381.015ZM369.68 388.587L366.21 390.244L366.148 390.728C367.306 391.17 368.455 391.62 369.642 391.981C370.908 391.419 371.251 391.466 371.861 390.247C371.425 389.103 371.235 389.144 370.144 388.541L369.68 388.587ZM403.18 410.933L397.3 415.114C399.379 419.671 402.181 422.979 406.988 424.783C411.076 426.303 415.596 426.157 419.577 424.377C421.567 423.473 423.196 422.149 424.87 420.775C426.627 418.557 428.219 416.465 428.237 413.531L427.784 412.928C426.518 412.775 425.92 412.932 424.752 413.429C422.583 416.129 421.071 419.467 417.241 420.043C413.79 420.561 410.326 418.169 407.811 416.067C406.254 414.765 405.131 413.235 403.92 411.629C403.551 411.139 403.712 411.318 403.18 410.933Z"/><path d="M642.778 381.58L642.188 381.961L642.171 381.369L643.173 380.917L642.778 381.58Z"/><path d="M450.738 391.251L450.998 391.498L450.738 391.251Z"/><path d="M408.421 397.481C408.508 397.152 408.875 396.674 409.057 396.378C408.927 397.152 409.088 396.76 408.421 397.481Z"/><path d="M560.049 402.998L560.338 402.777L560.049 402.998Z"/><path d="M450.79 404.936L450.998 405.397L450.79 404.936Z"/><path d="M473.74 408.201L473.019 408.584C471.518 407.712 470.301 405.612 469.253 404.234C470.286 404.454 471.147 404.844 472.003 405.481C473.042 406.254 473.479 406.972 473.74 408.201Z"/><path d="M543.907 409.509L544.265 408.916L544.026 409.472L543.907 409.509Z"/><path d="M533.891 432.486C533.981 431.487 534.123 430.493 534.315 429.509C535.417 423.76 538.788 412.865 543.907 409.509C542.356 413.596 539.645 417.47 537.965 421.635C536.608 424.998 535.948 429.589 533.891 432.486Z"/><path d="M447.283 413.889L447.498 414.498L447.283 413.889Z"/><path d="M481.218 421.931C480.094 420.501 478.275 417.443 478.255 415.587L479.156 415.454C480.242 417.564 480.696 419.64 481.218 421.931Z"/><path d="M448.745 417.25L448.249 416.977L448.745 417.25Z"/><path d="M478.366 418.627L477.502 418.002L478.366 418.627Z"/><path d="M478.366 418.627L478.489 419.998L478.366 418.627Z"/><path d="M481.218 421.931L481.43 422.498L481.218 421.931Z"/><path d="M372.766 423.65L372.914 423.998L372.766 423.65Z"/><path d="M418.52 440.971C413.329 442.291 407.341 442.131 401.973 442.327C407.081 443.087 411.851 443.361 417.002 443.023C407.959 444.66 400.248 442.281 391.325 442.467L390.776 443.1C389.209 444.928 387.027 450.051 385.678 450.939C383.64 450.88 381.428 449.217 379.693 448.164C380.504 448.171 381.919 448.307 382.645 447.935C383.586 447.454 384.756 445.385 385.174 444.429C385.719 443.18 385.786 441.034 385.112 439.81C384.729 439.114 383.126 438.827 382.376 438.567C380.794 438.9 378.761 439.398 377.482 440.438C376.536 441.208 376.101 441.905 376.179 443.153C376.298 445.045 378.458 446.864 379.693 448.164C377.375 447.165 376.265 445.613 374.663 443.731C373.527 444.038 372.57 444.377 371.385 444.123C371.328 443.941 371.226 443.767 371.216 443.577C371.097 441.401 372.523 438.886 373.805 437.239C374.368 436.518 374.613 436.221 374.966 435.348C374.711 435.191 374.46 435.029 374.202 434.878C368.226 431.375 365.628 437.626 360.866 438.796C360.749 438.354 360.668 438.154 360.696 437.645C360.844 434.987 361.971 431.032 363.828 429.109C366.208 426.645 369.845 426.438 373.05 426.356C373.331 426.659 373.621 426.956 373.9 427.262C382.822 437.054 397.8 440.555 410.508 440.854C412.617 440.904 416.716 440.15 418.52 440.971Z"/><path d="M445.075 430.406L445.342 430.226L445.075 430.406Z"/><path d="M449.715 432.351L449.998 432.107L449.715 432.351Z"/><path d="M438.11 437.28C438.325 437.105 438.527 436.914 438.73 436.726C436.517 437.391 431.542 439.505 429.499 438.574L429.572 438.148C435.208 437.736 444.054 434.021 449.715 432.351C449.367 432.742 449.34 432.799 448.864 433.177C444.445 436.681 434.355 441.217 428.724 440.497C429.028 439.864 436.015 438.22 437.473 437.572C437.686 437.477 437.898 437.377 438.11 437.28Z"/><path d="M607.434 437.787C598.329 438.37 589.961 436.255 581.551 432.894C582.845 432.929 606.136 437.38 607.434 437.787Z"/><path d="M418.52 440.971C421.13 440.25 423.469 439.653 426.207 439.61L426.501 439.841C423.838 440.843 421.095 441.186 418.492 442.357L418.52 440.971Z"/><path d="M418.002 442.436L418.492 442.357L418.002 442.436Z"/><path d="M417.002 443.023L417.498 442.539L417.002 443.023Z"/><path d="M615.479 445.454C615.816 445.947 616.234 446.467 616.5 447C616.117 446.544 615.801 445.957 615.479 445.454Z"/><path d="M616.5 447L617.208 448.417L616.5 447Z"/><path d="M617.208 448.417L617.627 449.235L617.208 448.417Z"/><path d="M617.627 449.235L618.169 450.22L617.627 449.235Z"/><path d="M618.169 450.22L618.391 450.498L618.169 450.22Z"/><path d="M623.541 450.198L623.872 450.498L623.541 450.198Z"/><path d="M489.557 537.765C486.652 536.286 484.019 534.542 482.002 531.937C479.289 528.434 478.166 524.489 478.806 520.091C479.38 516.149 481.947 512.258 485.111 509.917C483.69 512.739 482.283 515.509 481.636 518.633C480.659 523.35 481.757 526.117 484.329 529.982L485.211 529.997C486.591 528.927 487.955 528.269 489.547 527.562C493.61 528.392 497.447 529.774 501.241 531.423C502.128 533.159 503.004 535.167 504.455 536.503C507.186 539.018 510.728 538.542 514.145 538.403C522.761 532.786 525.017 529.667 535.802 527.249C536.764 528.792 537.621 530.426 538.521 532.008C549.245 517.639 536.015 500.119 537.614 484.112L538.074 485.891C540.135 496.949 545.443 508.083 546.175 519.249C546.505 524.282 545.175 529.897 541.73 533.711C540 535.626 537.648 537.177 535.19 537.976C532.296 538.917 528.937 538.387 525.933 538.758C519.854 539.509 515.281 542.493 508.803 541.65C501.871 540.747 496.937 537.583 489.557 537.765Z"/><path d="M532.359 503.998L532.013 503.502L532.359 503.998Z"/><path d="M532.359 503.998C534.803 508.892 536.104 514.454 534.438 519.819C533.385 523.214 531.118 525.999 527.919 527.586C525.569 528.752 523.126 529.095 520.533 529.049L520.368 528.554C520.498 528.498 520.628 528.444 520.757 528.386C525.311 526.347 530.839 522.609 532.677 517.824C534.549 512.947 532.509 508.816 532.359 503.998Z"/><path d="M485.668 509.735L485.899 509.026L485.668 509.735Z"/><path d="M485.111 509.917L485.668 509.735L485.111 509.917Z"/><path d="M495.726 522.231C494.587 521.967 493.829 521.493 492.955 520.738C490.335 518.476 489.412 515.524 489.138 512.178C491.832 515.602 492.062 518.601 495.726 522.231Z"/><path d="M512.342 554.638C508.033 554.323 504.333 549.6 501.239 546.782C504.951 547.384 509.395 552.267 512.342 554.638Z"/><path d="M510.448 569.903C507.623 570.035 505.804 569.662 503.45 568.052C505.933 568.324 508.144 568.957 510.448 569.903Z"/><path d="M502.811 593.346C495.966 592.86 488.57 593.043 481.702 593.414C477.458 593.644 472.587 594.571 468.403 593.933C465.362 593.468 461.609 591.886 458.861 590.487C457.432 589.759 456.281 589.192 455.761 587.631C458.214 585.531 465.267 587.92 468.778 587.1C479.469 584.603 487.599 575.455 498.182 573.251C501.332 572.595 503.173 573.608 505.716 575.413C506.704 576.115 507.756 576.552 508.926 576.887C511.047 577.493 514.335 577.562 516.263 576.431L515.964 575.968C515.152 575.804 514.356 575.627 513.558 575.405C517.38 574.149 521.886 573.771 525.885 573.188C534.748 573.577 543.539 583.65 552.68 585.973C559.645 587.744 564.829 583.728 570.933 584.751C571.934 584.919 572.139 584.863 572.759 585.71C572.001 587.761 569.143 589.002 567.263 589.902C564.166 591.386 560.451 593.269 557.068 593.887C552.013 594.811 546.853 593.481 541.816 593.013C536.585 592.527 526.5 592.879 521.954 595.37L521.575 596.173L521.79 595.248L522.123 596.685L524.162 597.622C519.319 598.215 514.162 597.265 509.431 598.15C514.816 598.577 522.055 598.321 527.11 600.017L527.099 600.681C526.852 600.787 526.607 600.9 526.357 601C521.29 603.019 505.641 603.562 500.81 601.335C502.036 600.548 503.435 600.798 504.875 600.763L511.597 600.743L511.925 600.271C509.258 598.97 505.331 599.337 502.356 598.645L502.28 598.228C503.392 597.473 504.584 597.696 505.906 597.653C502.893 597.078 499.527 597.976 496.626 597.103C497.552 596.62 498.487 596.151 499.394 595.635L498.751 595.049C497.628 595.099 496.692 595.175 495.595 594.886C497.972 593.914 500.29 593.652 502.811 593.346ZM524.352 577.496C522.338 578.218 520.24 579.012 518.138 579.419C514.081 580.203 501.507 581.099 498.101 579.456C497.963 579.389 497.832 579.31 497.697 579.237C493.863 580.137 486.498 582.6 483.849 585.526C485.46 586.424 495.478 587.362 497.88 587.385C515.249 589.304 524.249 585.512 540.375 584.317C537.018 582.594 527.56 576.598 524.352 577.496ZM509.12 578.609L509.504 578.997L509.281 578.594L509.12 578.609Z"/><path d="M473.344 598.411C471.199 597.258 469.26 596.294 467.653 594.398C468.708 594.46 470.359 594.552 471.322 594.94C472.793 595.533 472.902 597.067 473.344 598.411Z"/><path d="M552.73 602.785L553.763 601.36L554.459 601.385C553.859 602.238 553.681 602.339 552.73 602.785Z"/><path d="M552.412 603.078L552.73 602.785L552.412 603.078Z"/><path d="M549.74 605.255C550.715 603.972 550.841 603.627 552.412 603.078C551.584 604.366 551.077 604.647 549.74 605.255Z"/><path d="M549.396 605.571L549.74 605.255L549.396 605.571Z"/><path d="M549.003 605.896L549.396 605.571L549.003 605.896Z"/><path d="M504.316 610.059L502.501 609.481C505.548 608.107 514.097 608.409 517.88 608.191L518.986 608.126L519.131 608.657C514.387 609.905 509.202 610.111 504.316 610.059Z"/><path d="M538.879 613.281L539.497 612.538L538.879 613.281Z"/><path d="M475.46 613.728C482.328 616.035 489.557 618.188 496.738 619.225C512.706 621.532 532.801 619.551 547.544 612.569L547.847 613.179C547.375 613.785 546.889 614.381 546.391 614.965C539.044 623.535 529.118 627.073 518.075 627.751C505.468 628.525 492.222 628.034 482.335 619.366C480.374 617.303 477.695 615.521 475.46 613.728Z"/><path d="M537.503 613.411L538.879 613.281L537.503 613.411Z"/><path d="M484.818 613.791L484.343 613.623L484.818 613.791Z"/><path d="M535.7 613.8L536.165 613.627L535.7 613.8Z"/><path d="M484.818 613.791C486.699 613.938 507.291 616.293 507.691 616.466C508.133 616.657 508.849 617.253 509.217 617.588C501.923 618.075 491.483 617.043 484.818 613.791Z"/><path d="M519.497 617.05C521.539 615.386 532.573 613.879 535.7 613.8C531.185 616.121 524.523 616.815 519.497 617.05Z"/><path d="M719.439 657.378L720.004 659.082L719.439 657.378Z"/><path d="M249.308 868.453L249.002 868.129L249.308 868.453Z"/></svg>