<?xml version="1.0" encoding="utf-8" ?><svg xmlns="http://www.w3.org/2000/svg" xmlns:xlink="http://www.w3.org/1999/xlink" width="1024" height="1024" viewBox="0 0 1024 1024"><path fill="white" d="M0 0L0 1024L1024 1024L1024 0L0 0Z"/><path d="M921.783 524.773C924.207 522.003 926.896 519.081 928.696 515.856C933.397 507.433 933.282 495.531 932.652 486.233C931.271 465.839 910.718 434.327 895.445 421.145C879.518 407.399 862.673 394.785 846.748 381.086C836.691 372.29 827 363.083 817.7 353.49C822.201 363.409 826.964 373.28 831.164 383.326C834.97 392.429 838.128 401.84 841.345 411.165C853.152 445.393 860.254 477.061 858.227 513.517C857.346 529.348 854.994 544.542 849.377 559.447C843.761 574.349 828.666 599.981 814.78 608.284C817.628 604.488 821.118 601.046 823.708 597.084C835.979 578.318 837.426 556.498 838.399 534.808C811.502 589.846 767.793 622.024 710.84 641.701C707.573 642.829 704.071 643.975 700.602 644.13C705.867 641.608 711.137 639.17 715.897 635.749C729.204 626.184 740.5 609.595 748.162 595.229C732.82 609.669 719.251 617.938 700.882 628.273C694.738 631.73 688.562 635.592 682.035 638.287C691.117 644.111 700.388 649.596 708.921 656.227C723.315 667.411 736.398 680.674 750.118 692.697C754.543 696.574 760.14 698.609 764.189 702.991C769.143 708.352 772.035 715.144 776.577 720.731C782.536 723.026 787.608 726.392 793.288 729.182C797.933 731.464 803.445 732.972 807.504 736.248C811.813 739.726 814.174 745.567 819.191 748.134C824.405 750.802 830.033 752.866 835.361 755.321C859.414 766.403 883.842 776.381 907.533 788.261C916.423 792.719 925.827 797.162 933.988 802.847C942.377 808.691 951.948 817.543 956.101 826.911C961.228 838.474 969.411 849.581 973.78 861.085C976.325 867.787 977.898 875.102 979.58 882.061C982.563 894.365 985.305 906.727 987.803 919.138C995.018 953.985 1001.69 988.944 1007.8 1024L892.122 1024C897.011 1010.01 903.295 996.344 909.028 982.678C914.227 970.286 919.067 957.754 924.126 945.305C933.404 922.472 942.395 900.128 948.907 876.308C951.491 866.857 956.888 846.48 954.906 837.477C954.177 834.162 952.249 830.994 950.578 828.07C950.548 833.678 950.509 839.28 949.714 844.844C946.99 863.921 936.753 889.465 930.57 908.327C922.929 932.297 914.956 956.16 906.654 979.91C901.382 994.701 895.37 1009.19 890.158 1024L779.94 1024C775.053 994.144 772.821 963.947 769.153 933.942C767.953 924.13 766.29 914.343 764.786 904.573C759.762 912.468 752.852 920.117 748.668 928.397C752.964 960.168 756.418 992.046 759.025 1024L671.029 1024C679.103 1011.4 688.018 999.454 696.875 987.403C722.858 952.049 752.557 915.134 774.647 877.442C788.553 853.714 807.845 816.072 812.491 789.446C814.546 777.67 814.311 764.042 811.2 752.462C807.248 737.749 796.084 737.148 784.656 730.383L783.876 729.916C784.014 732.113 784.15 734.327 784.101 736.528C783.711 753.815 777.575 771.419 771.149 787.333C744.822 852.543 700.255 906.604 655.86 960.182C642.945 976.023 629.653 991.553 615.995 1006.76C610.759 1012.57 605.705 1018.59 600.049 1024L467.596 1024C463.291 1017.25 457.815 1011.22 452.63 1005.15C447.345 998.957 442.135 992.566 436.434 986.751C429.697 979.881 422.008 973.644 414.794 967.26C403.635 957.385 392.57 947.503 381.087 937.999C369.111 928.086 356.755 918.577 344.969 908.444C333.594 898.663 322.948 887.999 312.494 877.248C293.24 857.45 263.081 820.838 252.415 795.675C247.137 783.224 244.12 769.699 241.253 756.529C238.365 743.261 235.956 730.598 236.142 716.944C229.245 720.163 211.389 730.634 206.631 735.898C202.742 740.201 204.38 754.925 204.633 760.79C205.428 779.229 206.803 792.347 213.338 809.726C219.918 827.223 230.231 842.419 240.637 857.795C256.266 880.892 272.623 902.438 291.574 922.931C299.639 931.653 308.117 940.429 317.384 947.883C325.926 954.754 335.578 960.554 344.572 966.852C358.783 976.776 372.812 986.957 386.654 997.39C397.995 1005.85 409.629 1014.44 420.068 1024L303.59 1024C299.788 997.822 300.971 971.192 298.886 944.913C294.891 941.1 291.255 936.754 287.551 932.651C286.589 963.206 288.932 993.525 290.551 1024L276.591 1024C272.788 988.713 273.734 953.02 274.134 917.592C268.543 911.452 263.425 904.589 258.453 897.932C257.453 908.439 257.982 919.286 257.754 929.851C257.117 961.235 257.374 992.631 258.524 1024L165.839 1024C155.619 981.513 143.252 938.514 126.381 898.151C112.872 865.833 96.5864 835.072 80.503 804.002C78.887 807.71 77.2402 811.387 75.9771 815.234C80.0112 825.054 85.5826 833.046 90.766 842.197C96.083 851.584 100.852 861.416 105.413 871.194C128.303 920.413 146.834 971.544 160.794 1024L17.3175 1024C20.4294 1000.96 23.9453 977.968 27.8637 955.048C33.4709 920.66 39.6409 886.117 50.1955 852.841C53.2181 843.312 56.932 833.966 60.5852 824.663C63.4544 817.356 66.0326 809.671 69.5391 802.655C72.8223 796.086 81.3815 788.565 87.661 784.783C90.9124 782.824 94.4539 781.344 97.7558 779.467C103.258 776.339 108.467 772.814 114.105 769.91C132.948 760.203 153.273 752.099 173.334 745.277C181.404 742.532 189.617 740.234 197.696 737.519C198.31 736.799 198.933 736.086 199.563 735.38C206.99 727.094 235.626 709.069 246.48 708.451C252.865 700.199 257.875 695.036 268.315 692.371C272.239 691.369 275.528 690.308 278.795 687.765C292.071 677.426 302.996 664.819 315.496 653.682C324.141 645.978 333.615 640.092 342.8 633.186C343.142 631.332 335.133 626.083 333.224 624.587C315.036 610.327 303.496 591.81 293.444 571.305L293.126 571.003L293.444 571.305C294.94 585.767 305.713 614.417 316.779 623.551C321.329 627.306 326.938 628.731 332.206 631.119C306.654 625.738 280.828 611.592 261.782 593.725C256.765 589.019 252.332 583.712 247.857 578.5C251.747 588.761 256.2 598.831 261.984 608.186C264.396 612.087 267.523 615.734 269.764 619.689C266.116 617.309 262.658 612.741 259.792 609.453C241.529 588.506 232.866 568.162 223.618 542.542C222.849 562.041 225.33 582.679 233.243 600.597C241.874 620.139 254.755 630.627 274.434 638.286C269.667 637.445 264.963 636.283 260.353 634.81C229.653 624.963 207.425 604.573 192.939 575.974C176.929 544.367 170.492 509.913 181.803 475.575C166.94 495.607 157.135 518.031 156.355 543.245C155.86 559.271 159.561 575.669 169.088 588.861C172.598 593.722 176.877 598.047 180.987 602.398C180.048 601.902 179.147 601.363 178.282 600.745C159.703 587.46 147.293 562.718 143.613 540.598C138.01 506.913 156.051 466.358 175.056 438.978C183.62 426.641 193.65 415.347 202.366 403.081C202.52 385.822 205.249 368.927 207.835 351.911C211.039 330.835 214.449 309.705 220.251 289.157C226.906 265.589 234.058 242.114 243.519 219.489C266.797 163.815 303.503 110.6 350.857 72.7547C364.917 61.6831 379.866 51.7898 395.552 43.1755C414.503 32.6018 441.589 21.6545 463.332 22.0488C470.349 22.176 476.794 23.6903 483.499 25.5965C494.733 21.7892 505.943 19.6382 517.763 18.8204C564.35 15.5972 618.679 34.5863 657.968 58.8144C672.215 67.6003 686.143 78.3764 698.704 89.4121C760.638 144.41 798.239 221.721 803.265 304.397C813.139 318.622 824.65 331.292 836.277 344.064L873.027 384.173C882.849 394.82 893.23 405.236 902.332 416.507C906.611 421.806 910.37 427.522 914.294 433.084C919.048 439.821 924.475 446.266 928.074 453.725C935.991 470.133 941.753 486.885 935.492 504.808C936.731 497.882 936.419 492.566 935.351 485.616C935.019 492.683 935 499.929 933.52 506.872C931.939 514.294 928.272 520.614 921.783 524.773ZM484.214 43.3084C476.362 45.9364 469.53 52.2087 462.298 56.2176C461.533 56.6418 461.819 56.4686 461.061 57.147C467.133 56.0003 480.111 47.8983 484.214 43.3084L484.498 43.0905L484.214 43.3084ZM485.482 50.36C479.587 51.0005 462.681 55.9094 459.08 60.2298C466.708 57.7084 478.763 54.3591 485.482 50.36L485.998 50.0413L485.482 50.36ZM458.203 63.5669L458.073 63.9975L458.203 63.5669C461.479 62.4399 464.876 60.4509 467.51 58.2232C466.207 58.5192 464.917 58.8364 463.666 59.3135C461.16 60.2685 459.311 61.036 458.203 63.5669ZM381 85.5L380.25 86.135L379.796 86.3345C366.432 91.9864 357.043 107.207 346.738 116.923C341.286 122.064 334.972 126.162 329.555 131.293C334.613 124.43 339.549 117.394 345.573 111.328C349.659 107.294 353.79 103.304 357.963 99.3594C359.46 97.9536 361.333 96.7274 362.709 95.2486L362.998 95.042L362.709 95.2486C353.391 99.5064 341.388 113.877 333.951 121.614C331.134 124.546 328.218 128.001 324.802 130.217C326.958 125.464 330.715 120.847 333.716 116.562C351.412 91.2968 372.412 72.0293 399.405 56.9639C359.563 71.1387 329.585 106.068 304.657 138.684C301.043 143.412 297.878 148.468 294.273 153.198C290.681 157.91 286.644 162.269 282.991 166.932C274.695 177.522 266.186 190.098 260.448 202.266C253.002 218.058 247.065 234.435 241.665 251.016L235.705 268.894C235.045 270.89 234.875 273.137 233.997 275.033C234.659 274.896 234.37 275.061 234.846 274.31C236.636 271.492 237.471 266.709 238.56 263.473C241.261 255.451 244.138 247.518 246.742 239.46C250.678 227.284 255.275 214.687 260.887 203.177C266.734 191.187 286.13 160.753 296.241 153.255C294.746 156.428 292.687 159.303 290.954 162.352C285.322 172.266 278.556 184.189 276.269 195.425L276.051 195.998L276.269 195.425C279.77 190.398 282.532 184.447 285.792 179.188C289.911 172.543 294.657 166.357 298.687 159.641C296.827 167.11 291.052 174.457 287.566 181.337C282.823 190.698 278.72 200.485 274.46 210.078C269.501 221.246 262.861 234.542 260.266 246.473C266.717 231.743 294.864 164.907 306.682 159.833L304.405 162.955C302.37 165.727 281.022 216.379 280.297 219.974L280.007 220.498L280.297 219.974C280.469 219.737 280.645 219.502 280.814 219.262C284.208 214.445 286.559 207.741 288.885 202.316C294.264 189.769 299.185 176.662 306.24 164.947C306.282 168.018 283.588 223.14 280.792 230.42L262.312 279.69C259.775 286.348 254.667 296.907 253.266 303.406L252.889 304.247L252.502 304.998L252.889 304.247L253.266 303.406C257.99 295.733 261.224 286.227 264.743 277.932C274.903 253.987 298.583 191.115 313.671 173.79L313.518 174.195C311.904 178.388 303.517 194.819 304.154 197.808L303.764 198.884C306.412 196.291 311.68 177.784 316.289 173.66C315.542 175.943 314.404 178.113 313.725 180.385L313.379 181.215L313.087 181.498L313.379 181.215L313.725 180.385C315.361 178.578 316.585 176.2 318.138 174.267C313.338 193.393 302.937 210.61 296.964 229.37C304.761 216.115 310.618 201.874 319.631 189.308C318.748 199.342 302.453 227.124 298.636 239.011C302.362 234.01 305.293 228.22 308.359 222.798C313.374 213.93 318.388 205.285 324.471 197.089C326.274 194.659 328.114 191.823 330.248 189.699C328.954 192.732 327.146 196.027 326.303 199.193L326.043 199.498L326.303 199.193C327.848 197.393 329.18 195.213 330.589 193.291C327.61 205.149 318.423 215.735 312.794 226.48C304.942 241.469 299.388 258.048 293.175 273.791C290.247 281.21 286.111 289.285 284.333 296.975L284.014 297.498L284.333 296.975C287.69 292.472 290.874 283.656 293.35 278.361C300.224 263.659 306.892 248.919 314.352 234.494C329.006 206.157 357.084 169.392 379.803 147.348C388.125 139.274 397.964 132.701 406.133 124.528L406.462 124.193L407.217 123.606L408.235 123.283L408.883 122.502L408.235 123.283L407.217 123.606L406.462 124.193C395.024 130.183 369.721 151.215 359.274 160.388C354.09 164.939 349.286 169.968 343.783 174.14C350.145 164.038 357.339 154.485 365.291 145.579C369.071 141.406 373.81 137.755 377.116 133.206L377.386 133.002L377.116 133.206C366.632 140.963 357.094 151.554 347.78 160.705C350.961 153.881 356.475 148.595 360.652 142.416L360.867 142.127L361.356 141.664L361.885 141.062L362.251 140.769L363.045 139.546L363.497 139.06L363.045 139.546L362.251 140.769L361.885 141.062L361.356 141.664L360.867 142.127L360.652 142.416C356.725 145.838 353.037 150.237 348.814 153.205C351.639 146.141 370.786 126.995 377.022 122.051C381.974 118.125 387.895 115.122 392.635 110.99L393.4 110.311L394 110L394.498 109.568L394 110L393.4 110.311C383.741 114.546 374.27 121.818 365.791 128.06C362.274 130.65 358.85 133.535 355.076 135.738C360.514 127.835 367.148 122.742 373.93 116.209L374.967 115.473L375.498 115.057L374.967 115.473L373.93 116.209C367.493 119.637 361.558 124.739 356.033 129.472C353.637 131.526 351.106 134.222 348.346 135.737C349.766 132.548 352.308 129.377 354.407 126.591C365.07 112.441 377.925 103.132 392.715 93.8116L392.998 93.5397L392.715 93.8116C382.732 96.7248 354.844 115.889 346.332 123.373C352.378 107.679 367.986 97.3582 379.796 86.3345L380.25 86.135L381 85.5L381.498 85.0949L381 85.5ZM603.503 116.597L604.265 116.795L605.237 117.777L605.434 117.915L606.164 118.569C615.526 126.864 626.636 133.677 636.347 142.632C642.37 148.186 648.263 153.912 653.356 160.346C670.122 181.523 682.275 211.62 694.215 235.979C691.93 223.604 686.862 211.959 683.878 199.811C691.964 207.257 706.233 233.472 712.22 243.934C708.117 231.504 703.638 218.887 698.248 206.958C694.278 198.174 687.716 187.379 681.562 179.957C669.732 165.691 622.161 124.236 605.434 117.915L605.237 117.777L604.265 116.795L603.503 116.597ZM686.003 119.572L686.782 119.76L687.704 120.75L688.164 121.043L689.274 121.686L689.628 122.078L690.781 122.681L691.118 123.085L692.302 123.701L692.596 124.087L693.547 124.68L693.859 124.965C697.254 128.028 701.032 130.701 704.538 133.65C711.501 139.509 718.707 146.278 724.662 153.193C710.553 147.674 700.109 135.767 686.502 129.174L685.522 128.483L685.003 128.096L685.522 128.483L686.502 129.174C690.555 133.155 695.477 135.811 700.201 138.878C706.703 143.1 714.9 149.755 719.148 156.227C709.538 150.931 703.42 142.137 694.302 136.448C697.16 140.154 700.853 143.298 704.165 146.598C712.977 155.377 726.792 168.59 730.017 180.832C730.072 181.042 730.135 181.25 730.191 181.46C730.225 181.586 730.257 181.712 730.289 181.838C725.441 175.889 720.469 168.943 714.318 164.283L714.036 163.967L713.745 163.738L713.059 162.674L712.636 162.242L711.987 161.511L711.521 161.002L711.987 161.511L712.636 162.242L713.059 162.674L713.745 163.738L714.036 163.967L714.318 164.283C716.599 168.447 719.258 172.082 721.042 176.53L716.767 172.634L716.325 174.246C708.304 164.851 682.923 136.656 673.421 131.953L672.756 131.831L672.134 131.002L672.756 131.831L673.421 131.953C676.321 135.431 680.266 138.333 683.602 141.416C694.181 151.192 706.872 163.141 712.005 176.922C708.238 172.507 703.973 168.827 699.932 164.696C692.753 157.356 674.7 136.533 666.931 132.883L666.617 132.74L666.211 131.851L665.503 131.609L666.211 131.851L666.617 132.74L666.931 132.883L667.221 133.217C679.819 147.461 703.041 162.576 707.709 181.455C701.679 174.105 665.966 137.932 659.429 134.618C662.772 138.867 667.437 142.372 671.328 146.152C688.06 162.407 701.566 173.46 710.716 195.594C696.087 182.665 682.555 168.417 668.048 155.289C664.349 151.942 660.084 147.155 655.805 144.72L655.412 144.4L655.03 144.012L655.412 144.4L655.805 144.72C659.025 148.753 663.02 152.287 666.665 155.953C675.065 164.405 684.262 174.146 689.846 184.7L682.651 179.986C687.319 185.977 692.796 190.053 698.16 195.24C700.611 197.609 702.678 200.461 705.176 202.726L705.436 202.998L705.176 202.726C703.736 199.037 700.658 195.647 698.266 192.505C701.694 194.818 704.397 197.689 707.081 200.8L707.464 200.998L707.081 200.8L707.21 199.248C716.526 207.041 717.778 215.783 723.684 225.047L724.233 226.349L724.417 226.998L724.233 226.349L723.684 225.047C722.312 217.562 717.993 212.201 714.893 205.518L714.712 205.119C726.758 216.817 727.284 234.442 731.446 249.648C732.679 246.708 728.613 231.22 727.723 227.06C734.336 238.442 739.464 250.394 745.724 261.904L745.965 262.498L745.724 261.904C742.295 249.05 735.421 235.936 728.897 224.355C723.155 214.162 716.706 204.076 713.897 192.581C720.345 199.63 724.931 207.605 729.766 215.775C740.121 233.275 749.157 250.876 756.733 269.777C760.399 278.923 763.19 288.711 767.226 297.649L767.5 298.5L767.788 299.366L767.5 298.5L767.226 297.649C765.713 290.066 762.918 282.556 760.5 275.215C755.293 259.728 749.79 244.342 743.993 229.065C739.612 217.708 734.595 206.622 731.166 194.918C733.41 198.554 735.206 202.48 737.668 205.98L737.992 206.498L737.668 205.98C736.563 199.469 732.435 193.427 730.41 187.114C732.442 189.409 734.414 191.769 736.756 193.759L737.092 194.091L737.619 194.683L737.913 194.998L737.619 194.683L737.092 194.091L736.756 193.759C734.541 190.012 732.024 186.568 730.497 182.461C732.75 185.849 752.048 211.016 754.75 213.269L755.092 213.588L755.726 214.783L755.997 214.978L755.726 214.783L755.092 213.588L754.75 213.269C750.418 201.408 734.521 191.847 730.82 179.279C736.206 184.92 740.476 191.938 746.189 197.214L746.569 197.649L747.191 198.753L747.434 198.998L747.191 198.753L746.569 197.649L746.189 197.214C743.585 190.712 739.347 185.048 736.887 178.359C738.102 179.884 739.332 181.343 740.682 182.751L740.938 182.998L740.682 182.751C738.262 177.648 735.28 174.314 733.821 168.599C739.607 176.556 746.198 183.91 752.169 191.734C756.237 197.064 762.152 206.608 766.75 210.959L767.14 211.684L767.634 212.119L768.18 213.29L768.597 213.594L769.182 214.779L769.589 215.106L770.16 216.237L770.399 216.498L770.16 216.237L769.589 215.106L769.182 214.779L768.597 213.594L768.18 213.29L767.634 212.119L767.14 211.684L766.75 210.959C763.165 201.757 737.915 168.859 730.57 161.151C727.724 158.163 724.156 156.027 721.206 153.161C723.155 153.415 725.871 155.576 727.623 156.574L727.397 155.824C728.732 157.053 730.073 158.227 731.507 159.34L731.646 158.387C734.782 159.108 739.078 163.876 741.216 166.181L741.408 166.498L741.216 166.181C739.651 161.803 737.368 158.113 734.854 154.228C737.6 156.217 740.112 158.446 742.658 160.679L742.89 160.979L742.658 160.679C741.478 157.999 739.312 155.395 737.739 152.903C730.727 141.798 727.082 136.83 715.996 129.065L711.1 131.548C714.56 134.012 717.907 137.675 720.257 141.21C711.486 135.844 702.74 129.207 693.547 124.68L692.596 124.087L692.302 123.701L691.118 123.085L690.781 122.681L689.628 122.078L689.274 121.686L688.164 121.043L687.704 120.75L686.782 119.76L686.003 119.572ZM675.503 125.616L676.244 125.85L676.491 126.408C681.528 132.548 689.02 137.538 694.729 143.178C698.478 146.882 703.046 153.66 707.255 156.269L707.576 156.6L708.114 157.183C708.725 158.709 709.52 159.259 710.797 160.18L710.997 160.426L710.797 160.18C709.976 158.761 709.461 158.114 708.114 157.183L707.576 156.6L707.255 156.269C703.895 148.958 684.472 130.352 676.491 126.408L676.244 125.85L675.503 125.616ZM435.093 133.29C432.109 137.165 429.877 141.891 427.75 146.296C417.748 167.004 413.505 189.054 416.493 211.988C419.771 237.149 428.832 260.358 441.869 281.998C444.44 286.265 447.177 291.487 450.736 294.968L451.136 295.687L451.635 296.119L452.2 297.307L452.612 297.572L452.903 297.998L452.612 297.572L452.2 297.307L451.635 296.119L451.136 295.687L450.736 294.968C448.704 289.577 444.488 284.045 441.693 278.9C422.812 244.151 416.336 200.062 425.411 161.594C427.693 151.918 432.214 143.176 434.971 133.721L435.093 133.29L435.378 133.002L435.093 133.29ZM367.288 134.291L366.93 135.309L366.418 135.656C366.103 136.064 365.7 136.503 365.455 136.955L365.002 137.447L365.455 136.955L366.418 135.656L366.93 135.309L367.288 134.291L367.998 134.062L367.288 134.291ZM610.616 156.502L610.858 157.181L611.631 157.447C615.137 163.116 621.354 168.968 625.731 174.257C636.646 187.45 647.978 201.057 657.12 215.539C664.796 227.698 673.123 240.27 679.045 253.349C682.389 260.825 685.601 268.36 688.68 275.949C690.489 280.373 692.077 285.605 694.573 289.643L695.873 289.805C695.954 289.05 696.012 288.524 695.868 287.77C694.717 281.738 689.364 271.669 686.914 265.575C677.059 241.053 667.86 217.528 650.611 197.045C644.749 190.084 638.07 183.678 631.735 177.139C625.517 170.722 618.901 162.563 611.631 157.447L610.858 157.181L610.616 156.502ZM393.804 163.072C389.008 168.034 384.807 173.875 380.596 179.341C359.797 206.344 337.208 242.244 328.981 275.564C328.065 279.272 326.691 283.694 326.709 287.497C326.711 287.9 326.73 288.303 326.756 288.705L326.856 288.257C329.007 278.998 336.084 256.374 342.557 249.724C342.291 255.519 339.245 262.423 337.488 267.968C334.159 278.319 330.898 288.692 327.705 299.086C318.795 328.935 311.785 364.466 310.133 395.634C310.008 397.982 309.313 402.794 310.013 404.858C310.09 405.087 310.238 405.286 310.35 405.5L310.053 405.522L310.245 406.003C310.917 402.39 310.897 398.468 311.191 394.783C311.624 388.932 312.282 383.099 313.163 377.298C317.844 344.72 327.955 295.754 342.791 266.395C348.965 254.177 356.826 242.675 364.768 231.543C368.204 226.728 373.51 221.923 375.786 216.576L376.125 215.8L376.498 215.502L376.125 215.8L375.786 216.576C373.5 218.585 371.531 221.462 369.582 223.824C372.387 216.519 377.548 210.749 380.677 203.747L380.939 203.502L380.677 203.747C372.967 210.037 368.626 220.891 359.829 226.234C360.829 224.164 362.327 222.243 363.534 220.277C367.749 213.406 372.528 206.514 376.186 199.349L376.5 199C376.903 198.543 377.184 198.019 377.5 197.5L377.929 197.002L377.5 197.5C377.142 197.992 376.768 198.452 376.5 199L376.186 199.349C372.031 203.792 369.017 209.028 365.857 214.186C366.61 210.835 368.806 207.044 370.348 203.911C374.422 195.633 378.77 187.356 383.519 179.444C386.837 173.918 390.521 168.617 393.804 163.072L394.24 162.441L393.804 163.072ZM526.017 168.057L526.283 168.314C533.97 174.992 542.259 180.952 549.98 187.59C563.534 199.24 576.284 211.94 588.633 224.854C597.176 233.788 605.447 242.991 614.118 251.801C619.828 257.602 625.962 262.999 631.523 268.945C637.068 274.874 643.386 284.268 649.3 289.215L649.575 289.607L649.904 289.998L649.575 289.607L649.3 289.215C647.195 284.511 643.04 279.994 640.164 275.647C636.25 269.73 632.721 263.515 629.113 257.406C633.568 260.843 637.721 264.282 641.332 268.625C643.75 271.533 645.913 274.78 648.511 277.518L649.186 278.22L649.407 278.498L649.186 278.22C646.434 271.552 641.357 265.752 638.285 259.118C645.63 266.022 652.253 275.395 658.056 283.707C660.224 286.814 662.242 290.725 664.786 293.444L665.089 294.232L665.683 295.254L665.925 295.498L665.683 295.254L665.089 294.232L664.786 293.444C660.264 279.272 646.992 265.547 641.911 251.279C644.113 253.465 645.979 256.107 648.211 258.192L648.418 258.498L648.211 258.192C647.258 255.776 645.778 253.55 644.789 251.099C654.748 260.473 663.514 274.122 670.283 285.997C672.619 290.095 675.681 297.756 678.755 300.963L679.102 301.724L679.666 302.823L680.139 303.782L680.482 304.498L680.139 303.782L679.666 302.823L679.102 301.724L678.755 300.963C677.449 295.405 673.6 289.032 671.199 283.777C656.639 251.909 634.527 213.191 606.732 191.278L606.503 191.002L606.732 191.278C614.988 204.046 625.207 213.251 631.129 228.202C627.456 224.852 625.1 220.474 620.743 217.801L620.533 217.544L620.743 217.801C626.368 226.021 631.585 235.101 635.667 244.194C630.797 239.975 628.016 233.639 623.31 229.247L622.923 228.878L622.503 228.09L622.923 228.878L623.31 229.247C625.552 234.986 629.336 240.462 632.511 245.732C629.217 243.37 626.152 240.794 623.07 238.162C625.296 241.59 627.582 244.34 630.637 247.038C630.089 246.797 629.551 246.542 629.007 246.295C621.361 242.828 614.579 236.513 608.019 231.298C587.302 214.83 568.24 196.422 546.689 181.02C540.281 176.441 533.462 171.585 526.283 168.314L526.017 168.057ZM661.589 186.502L661.811 187.249L662.378 187.761C666.148 196.531 671.318 204.552 674.239 213.698C671.291 210.259 668.554 205.85 665.331 202.752L665.034 202.474L664.28 201.768L664.09 201.002L664.28 201.768L665.034 202.474L665.331 202.752C670.398 213.198 676.088 223.275 683.238 232.467L683.609 233.222L684.163 234.324L684.64 235.282L684.997 235.998L684.64 235.282L684.163 234.324L683.609 233.222L683.238 232.467C681.716 228.25 678.956 224.031 676.966 219.955C680.003 222.615 682.19 225.854 684.735 228.954L684.972 229.487L684.735 228.954C682.603 219.186 669.365 195.033 662.378 187.761L661.811 187.249L661.589 186.502ZM397.734 199.252L397.602 199.831C392.249 203.338 387.671 209.907 383.611 214.779C356.246 247.617 340.623 288.869 329.832 329.751C327.747 337.648 325.507 345.57 323.865 353.573C322.794 358.794 321.519 364.332 321.47 369.665C323.588 361.384 324.935 352.923 327.078 344.64C337.458 304.511 347.798 277.858 368.847 242.099C373.966 233.403 379.211 224.666 385.048 216.427C388.362 211.751 395.512 204.578 397.602 199.831L397.734 199.252L398.498 199.033L397.734 199.252ZM411.627 220.502L411.964 220.725C411.411 228.826 414.524 248.057 418.216 254.695L418.38 255.163L418.216 254.695C417.875 249.539 416.009 243.899 415.039 238.762C413.91 232.783 413.469 226.618 411.964 220.725L411.627 220.502ZM279.5 222L278.792 223.417L278.502 223.998L278.792 223.417L279.5 222L279.987 221.002L279.5 222ZM558.581 222.002L558.799 222.749L559.347 222.948C563.171 230.244 573.816 242.261 579.179 249.605C573.422 245.955 568.741 241.162 563.209 237.342L563.003 237.088L563.209 237.342C568.178 244.458 574.87 251.307 581.027 257.413C575.295 254.122 570.114 250.68 565.091 246.377C562.646 244.283 556.899 238.003 554.252 237.222C559.803 242.916 566.065 248.883 570.615 255.397C560.414 252.059 552.086 245.077 544.27 237.929C543.544 237.264 540.755 234.197 539.961 234.423C546.121 241.63 553.421 249.354 560.847 255.23C553.266 253.391 547.46 248.744 540.826 245.037L540.449 244.83L540.288 244.569L539.227 244.34L538.619 243.502L539.227 244.34L540.288 244.569L540.449 244.83C542.143 246.836 544.172 248.396 545.907 250.323C533.009 244.611 523.843 233.306 513.085 224.666L512.698 224.36L512.503 224.088L512.698 224.36C518.651 232.863 526.822 241.296 534.325 248.447C537.992 251.941 542.472 255.366 545.65 259.268C543.113 258.224 540.942 256.689 538.478 255.549C534.408 253.666 530.146 252.75 526.319 250.28C517.077 244.314 500.557 225.758 493.632 216.459C490.549 212.319 487.994 207.856 485.447 203.377C494.69 233.358 515.997 255.913 537.044 278.075C542.085 283.383 547.56 290.812 553.835 294.565C553.97 294.646 554.114 294.711 554.253 294.783L554.593 295.081L555.159 295.651C556.185 297.152 557.109 297.957 558.713 298.808L558.961 298.998L558.713 298.808C557.711 297.372 556.849 296.288 555.159 295.651L554.593 295.081L554.253 294.783C551.094 290.722 546.982 287.257 543.488 283.46C537.213 276.639 531.464 269.018 526.395 261.265C536.963 268.434 547.395 276.902 556.858 285.5C561.09 289.345 565.164 294.357 569.769 297.639L569.997 297.908L569.769 297.639C563.718 288.169 547.825 274.349 539.102 266.983C545.712 269.802 552.788 273.21 558.409 277.753C559.478 278.617 560.567 279.456 561.648 280.305L561.927 280.498L561.648 280.305C558.018 275.699 553.708 271.714 549.872 267.286C552.684 268.564 555.29 270.168 557.936 271.753C554.577 268.406 550.659 265.286 547.592 261.709C554.009 265.552 558.152 271.906 564.308 275.71L564.572 276.107L565.183 276.618L565.497 276.917L565.183 276.618L564.572 276.107L564.308 275.71C560.122 269.862 554.785 265.464 548.85 261.51C562.122 266.625 570.094 277.559 582.218 283.672L582.65 284.076L582.997 284.38L582.65 284.076L582.218 283.672C574.549 275.263 564.419 270.091 557.478 260.747C562.925 265.455 569.55 269.069 575.67 272.853L576.187 272.386L576.183 273.132L576.843 273.097L575.979 273.034L576.992 273.332L576.969 273.4L576.057 273.08L575.988 272.204C572.664 269.293 569.408 266.254 565.673 263.872C576.916 268.024 585.901 275.417 595.358 282.521C598.629 284.979 602.204 288.115 605.95 289.766L606.665 290.148L606.997 290.497L606.665 290.148L605.95 289.766C599.784 282.775 587.411 276.775 584.404 267.727C587.385 270.485 591.164 272.837 594.718 274.793L595.106 275.078L595.696 275.607L596.402 275.998L595.696 275.607L595.106 275.078L594.718 274.793C590.907 270.806 586.866 267.054 583.284 262.854C590.314 266.537 596.709 272.03 603.131 276.71C598.614 271.485 593.182 267.13 589.021 261.628C588.589 261.056 588.138 260.497 587.702 259.928C595.22 265.776 602.678 271.701 610.074 277.702C613.801 280.7 617.636 284.3 621.704 286.801L622.111 287.075L622.646 287.657L623.175 288.088L623.497 288.395L623.175 288.088L622.646 287.657L622.111 287.075L621.704 286.801C618.672 282.547 610.178 275.165 605.954 270.769L575.507 239.493C570.338 234.132 565.14 227.541 559.347 222.948L558.799 222.749L558.581 222.002ZM498.092 247.002L498.296 247.759L499.258 248.736L499.558 249.135L499.799 249.649C502.451 255.825 512.65 270.778 517.755 274.782L518.075 275.089C518.506 276.198 518.81 276.576 519.781 277.261L519.997 277.498L519.781 277.261C519.358 276.248 518.901 275.802 518.075 275.089L517.755 274.782C516.86 272.5 502.068 251.813 499.799 249.649L499.558 249.135L499.258 248.736L498.296 247.759L498.092 247.002ZM471.437 253.608C476.068 265.131 478.86 281.397 484.66 291.929L484.965 292.498L484.66 291.929C482.2 280.562 478.604 269.489 476.8 257.974C474.277 241.877 473.772 225.884 469.735 210.005C469.754 217.811 469.619 225.616 469.331 233.417C467.976 227.011 467.554 220.478 466.292 214.09L465.601 213.821L466.116 213.371L465.763 213.111C466.243 213.403 466.119 213.207 466.248 213.611L465.626 214.372L465.36 229.555C462.051 225.3 461.433 220.462 460.184 215.379C459.853 221.339 460.686 227.298 460.462 233.274C458.034 228.715 456.834 223.818 455.528 218.849C455.508 224.753 456.572 230.539 457.051 236.406L456.693 235.729C446.882 216.931 441.037 185.763 441.534 165.005C441.596 162.401 442.951 149.263 441.754 148.228L442.188 147.683C442.084 147.377 442.159 147.473 442.043 147.346L442.203 148.386L441.583 148.907C437.16 177.86 438.558 213.009 449.205 240.431C454.335 253.642 461.543 265.861 468.403 278.22C472.717 285.992 477.017 296.08 481.938 303.109C482.266 303.577 482.34 303.644 482.672 304.015L483.137 304.702L483.651 305.832L484.156 306.757L484.404 306.998L484.156 306.757L483.651 305.832L483.137 304.702L482.672 304.015C480.512 297.667 476.709 291.315 473.841 285.21C469.057 275.028 464.851 264.771 460.971 254.214C462.558 256.952 464.159 259.376 466.218 261.783C465.885 259.452 465.388 257.139 464.939 254.828C467.964 259.214 469.975 264.7 472.806 269.317C471.764 264.212 471.852 258.804 471.437 253.608ZM380.634 278.086C375.351 285.785 371.599 295.457 367.753 303.954C359.687 321.771 349.959 340.831 345.934 360.064C363.553 352.674 378.319 355.846 395.98 360.144C403.991 362.017 411.956 364.081 419.868 366.335L419.608 365.611C417.232 359.091 413.788 353.025 411.359 346.523C403.782 326.234 400.927 305.248 400.909 283.68C400.901 274.695 402.046 265.708 401.964 256.755C401.917 251.691 401.213 246.565 400.673 241.531C392.032 255.451 386.16 270.381 379.653 285.368C374.336 297.613 368.66 309.704 363.507 322.021C361.387 327.091 359.676 332.421 357.352 337.389C358.031 333.512 359.64 329.608 360.969 325.906C364.978 314.735 369.987 303.851 374.641 292.934C376.719 288.059 379.085 283.157 380.634 278.086L380.962 277.502L380.634 278.086ZM520.503 278.035L520.657 278.762L521.497 279.39L520.657 278.762L520.503 278.035ZM497.626 278.502L497.898 278.752C504.442 302.486 523.818 360.175 546.118 372.679C549.376 374.506 553.116 375.523 556.675 376.602C552.792 377.389 548.915 378.294 544.954 378.551L542.321 378.72C543.908 379.156 546.129 379.494 547.383 380.548L546.868 381.114L546.801 380.04L546.296 381.238C540.142 381.702 533.994 381.674 527.868 380.904C513.914 379.148 495.238 366.275 484.26 357.551C481.361 355.248 478.711 352.522 475.797 350.287L475.567 350.002L475.797 350.287C479.932 359.055 497.148 374.546 505.658 380.236C509.672 382.92 514.354 384.682 518.219 387.563C509.468 385.803 501.015 380.85 493.295 376.544C469.427 363.233 450.888 347.238 434.708 325.127C430.567 319.468 427.098 313.368 423.01 307.68C429.294 323.77 434.644 339.908 444.124 354.541C447.46 359.689 452.04 363.87 455.416 368.923C455.493 369.038 455.567 369.154 455.642 369.27C452.403 367.021 449.521 363.702 446.916 360.725C427.542 338.596 413.117 300.617 407.778 271.779C405.319 304.568 409.196 336.324 421.876 366.816C430.077 369.302 438.324 371.7 446.452 374.41C454.451 377.077 462.338 380.078 470.431 382.456C470.821 384.638 471.222 386.414 472.302 388.363L472.773 388.636C472.401 387.067 471.985 385.509 471.526 383.964L472.225 383.778C473.427 384.786 473.874 385.574 473.999 387.166C474.125 388.784 473.924 389.586 473.061 390.936L472.324 391.741C471.643 392.564 471.719 392.139 471.783 392.916C472.028 392.513 472.289 392.22 472.324 391.741L473.061 390.936L474.138 390.615C474.885 388.606 474.361 386.532 475.284 384.579C476.713 385.58 477.74 387.786 478.932 389.16C477.822 391.426 476.644 393.68 475.649 395.999C472.918 397.674 470.475 396.802 467.539 396.103C460.202 394.354 452.99 391.758 445.832 389.4C449.251 393.045 456.166 399.443 455.826 404.916C455.813 405.114 455.761 405.307 455.729 405.502L455.449 404.79C452.973 398.587 444.442 390.072 438.385 387.372C431.705 384.394 423.937 383.427 416.959 381.181C393.507 373.633 370.275 361.603 345.023 362.347C342.179 370.323 338.4 379.257 337.15 387.618C347.859 394.072 358.927 395.038 371.19 394.368C362.586 391.506 356.7 388.478 351.603 380.525C360.468 385.181 367.987 389.099 378.302 388.408C375.22 385.621 371.973 383.452 368.376 381.384C394.541 382.526 422.499 382.227 444.29 399.306C448.728 402.785 452.536 406.988 456.338 411.131L458.49 413.487C440.46 399.256 426.105 389.672 402.542 387.307C393.373 386.386 383.926 385.952 374.896 384.117C383.551 387.916 392.389 387.649 401.628 388.607C425.433 391.075 440.712 399.378 454.892 418.619C457.474 422.123 460.375 425.728 462.505 429.519C461.978 430.903 460.019 434.723 460.432 435.958L461.763 436.655C456.744 437.842 450.603 435.432 445.452 435.31C437.149 435.112 428.733 436.241 420.427 436.507C412.365 436.765 404.074 435.995 396.06 437.063C394.654 437.25 393.403 437.541 392.293 438.465C392.202 439.646 392.203 439.381 392.902 440.191C393.51 440.896 393.918 441.29 394.807 441.635C397.571 441.234 398.38 437.748 401.307 439.164L401.453 439.552L399.478 440.056C399.659 440.947 399.445 440.662 400.218 441.223C403.05 443.278 408.358 442.865 411.781 443.747C404.955 444.332 398.204 443.883 391.76 441.333L390.994 441.983L389.911 442.808L389.82 444.247L389.045 444.44C388.404 443.896 387.733 443.379 387.102 442.824C385.507 441.422 384.304 441.18 382.242 440.876L381.475 440.767C382.821 440.736 384.128 440.66 385.467 440.526C383.76 438.982 382.251 437.248 380.704 435.546C382.788 436.434 385.85 437.882 386.76 440.093C386.865 440.348 386.952 440.609 387.049 440.867L387.535 441.083C389.217 439.613 390.793 438.271 392.107 436.443C391.64 435.528 391.359 435.687 390.424 435.38C389.313 435.743 388.543 436.142 387.381 435.777C386.782 434.721 386.244 433.83 385.438 432.911C384.253 433.357 384.516 433.261 383.999 434.264C385.157 435.81 387.953 436.643 389.714 437.444L389.771 438.083C388.707 438.143 389.072 438.247 388.144 437.848C386.693 437.224 384.663 435.959 383.065 435.853C381.775 435.768 381.61 436.038 380.797 436.895C380.46 438.517 380.307 438.678 381.017 440.147C379.548 440.164 378.896 439.822 377.7 439.067C377.566 438.983 377.435 438.895 377.302 438.809C375.1 438.87 372.653 440.827 370.786 441.954C373.559 438.075 377.283 435.348 380.245 431.694C377.96 431.101 374.286 434.729 371.049 434.026L370.678 433.322C372.658 432.094 376.325 430.369 377.587 428.501L376.9 427.808C374.225 428.186 372.418 430.906 370.11 432.167C367.351 433.674 363.827 434.356 360.813 435.21C364.46 432.288 367.727 429.53 370.772 425.952L370.992 425.581L370.772 425.952C367.911 426.486 363.937 425.689 361.162 424.851C359.61 424.382 357.971 423.755 357.172 422.297C358.459 421.068 360.432 420.777 362.084 420.196C363.554 419.68 364.266 419.19 364.938 417.797C364.743 415.479 362.727 413.387 361.191 411.757C360.636 411.169 360.83 411.567 360.81 410.554L362.1 409.462C363.568 413.266 366.113 415.888 369.718 417.741L370.058 418.133L370.445 418.485L370.058 418.133L369.718 417.741C368.246 415.224 364.459 411.095 362.1 409.462C361.92 409.167 338.299 393.808 336.146 392.291C334.554 405.276 336.549 417.825 338.507 430.651C339.077 434.386 340.481 438.484 340.389 442.21L339.515 441.7C339.275 441.096 339.339 441.381 339.278 440.72C338.797 435.519 337.3 430.388 336.375 425.246C335.072 417.998 334.305 410.654 333.53 403.335C333.332 404.455 333.149 405.577 332.979 406.701C329.818 427.949 336.409 461.462 342.705 481.987C346.662 494.887 351.759 507.542 356.802 520.045C364.529 539.202 372.227 557.831 384.666 574.517C399.891 594.94 419.365 613.648 439.237 629.551C446.874 635.663 455.142 641.004 462.722 647.191C475.135 657.321 486.821 672.356 503.402 674.704C509.196 675.524 515.075 675.629 520.919 675.672C537.022 675.79 545.367 673.417 558.306 663.683C573.099 652.554 586.751 639.35 600.389 626.857C613.261 615.066 626.546 602.9 637.905 589.624C662.068 561.382 678.704 525.332 686.799 489.144C690.209 473.898 692.116 458.292 694.641 442.879C696.336 432.538 697.78 422.131 699.675 411.827C702.05 398.921 704.854 386.34 706.707 373.318C699.932 370.719 693.68 366.899 686.937 364.25C680.508 361.723 673.393 360.562 666.654 359.133C672.266 362.306 678.281 363.971 683.866 366.917C672.283 365.011 661.49 364.36 649.86 366.452C636.515 368.854 623.726 374.907 610.977 379.414C598.709 383.751 586.513 387.166 574.008 390.708C570.499 391.702 563.247 394.727 559.773 393.873L559.225 392.602C558.06 393.771 557.335 394.738 555.628 394.968C551.649 395.503 544.255 395.605 540.832 393.262C541.601 391.773 544.568 393.38 546.376 392.753L546.92 390.806L547.33 390.219L547.829 389.432C549.633 386.888 551.773 383.135 554.552 381.605C558.873 379.225 564.375 378.465 568.999 376.818C587.519 370.146 606.148 363.782 624.879 357.728C594.913 355.866 568.137 340.94 544.736 323.15C556.88 337.146 569.794 349.401 586.317 358.182C589.495 359.871 592.839 361.144 596.08 362.699C565.799 357.127 533.22 330.871 515.438 306.338C511.11 300.368 507.402 293.964 503.593 287.656C501.971 284.969 500.418 281.862 498.458 279.431C498.273 279.203 498.084 278.978 497.898 278.752L497.626 278.502ZM649.61 279.002L649.855 279.741L650.408 279.998L649.855 279.741L649.61 279.002ZM283.867 299.373L283.002 299.998L283.867 299.373L283.99 298.002L283.867 299.373ZM453.099 298.502L453.338 299.254L453.919 299.498L453.338 299.254L453.099 298.502ZM258.71 341.767C254.518 345.903 251.33 352.191 247.998 357.105C243.8 363.205 239.435 369.188 234.909 375.049C222.687 390.821 209.972 406.326 197.354 421.784C189.467 431.447 180.843 440.969 174.244 451.576C168.069 461.503 163.344 472.585 158.95 483.395C156.273 489.981 153.044 497.479 151.858 504.49L152.047 504.094C160.577 485.92 166.354 465.708 177.915 449.03C186.874 436.106 200.149 425.8 210.5 413.906C223.646 398.8 234.005 381.289 244.935 364.572C248.864 358.564 256.75 348.291 258.71 341.767L258.941 341.502L258.71 341.767ZM552.265 385.744L552.06 385.998L552.265 385.744C554.08 384.267 555.824 382.776 557.52 381.16C554.701 382.236 553.513 382.963 552.265 385.744ZM550.258 389.539C549.296 390.456 548.23 391.221 547.957 392.582L548.035 392.833C549.179 392.425 549.258 392.124 549.765 391.007C549.953 390.592 550.123 389.988 550.258 389.539L550.497 389.018L550.258 389.539ZM277.843 429.22C278.019 420.269 277.569 392.372 283.087 386.608C284.064 385.588 284.401 385.582 285.723 385.487C294.087 388.67 295.352 402.711 300.008 407.711C300.187 407.904 300.381 408.084 300.567 408.271L300.874 408.498L300.567 408.271C300.594 406.201 295.529 375.851 294.754 374.645C293.829 373.206 291.316 372.563 289.743 372.341C286.955 371.946 284.179 372.18 281.886 373.947C275.185 379.111 270.636 421.454 269.723 431.527C269.486 434.147 269.311 436.91 270.207 439.426C273.822 449.567 289.261 465.188 296.632 473.956C294.169 467.817 291.665 462.89 290.74 456.211C288.748 439.55 291.856 428.381 297.359 412.904C294.582 404.967 291.186 398.016 285.646 391.664C282.216 403.991 281.661 417.02 277.843 429.22ZM380.002 426.105L380.762 426.305L381.175 426.731C382.478 428.554 383.928 429.391 385.997 430.157C384.923 428.135 383.207 427.469 381.175 426.731L380.762 426.305L380.002 426.105ZM402.662 435.302C398.891 434.254 390.648 429.884 387.347 431.709C387.069 431.863 386.796 432.028 386.521 432.187C390.112 433.419 398.692 437.407 402.201 435.61C402.366 435.526 402.508 435.405 402.662 435.302C406.449 434.777 410.846 435.924 414.726 435.949C420.395 435.985 449.54 434.04 453.883 432.23C454.827 431.836 455.222 431.513 456.278 431.679C455.174 433.491 449.606 434.533 447.542 435.15C451.671 434.907 457.307 435.062 460.534 432.158C460.93 430.713 460.833 430.712 460.184 429.342C459.985 429.306 459.784 429.274 459.585 429.234C459.286 429.174 458.989 429.104 458.689 429.042C454.06 428.092 446.153 419.026 442.356 415.393C441.596 417.595 440.73 419.614 439.264 421.453C434.307 427.668 427.062 430.078 419.501 431.089C413.708 431.072 408.246 430.002 403.575 426.363C395.962 420.43 393.581 411.593 392.389 402.505C392.575 402.257 392.765 402.011 392.947 401.76C393.615 400.837 394.42 400.086 394.248 398.941C393.685 399.571 393.253 399.989 392.562 400.5L392.211 398.928C386.604 398.57 373.483 403.97 368.485 406.805C374.255 422.975 388.697 427.834 402.662 435.302ZM309.325 435.471C309.054 449.167 314.85 458.871 323.759 468.959L323.998 469.498L323.759 468.959C322.234 463.875 318.839 458.802 316.728 453.864C314.175 447.89 312.543 441.084 309.325 435.471ZM701.387 482.226C702.689 477.759 704.638 473.512 705.969 469.059C707.769 463.038 707.739 456.62 711.088 451.088C713.721 446.737 718.189 443.858 721.399 439.992C725.356 435.228 727.685 428.212 730.168 422.575C728.171 417.471 726.129 412.384 724.041 407.316C721.535 424.599 717.155 441.122 706.011 454.983C708.587 447.216 711.302 439.961 711.762 431.724C708.645 442.326 705.857 453.191 702.02 463.553C700.035 469.337 694.03 486.997 693.786 492.052C694.445 493.215 694.433 493.152 695.714 493.558C703.568 492.193 714.279 481.782 718.738 475.421C723.068 469.242 725.851 461.461 729.279 454.72C732.133 449.11 735.566 443.669 738.144 437.937C735.819 434.006 733.704 430.135 732.113 425.845C730.916 430.584 729.455 435.171 727.16 439.507C724.133 445.225 718.863 449.418 715.542 454.921C711.508 461.606 706.039 477.573 701.387 482.226ZM352.126 598.527L352.346 598.784C353.909 607.057 358.699 614.717 362.799 621.954C366.321 620.479 369.73 618.5 373.125 616.743L377.662 614.173C368.426 610.93 359.94 604.842 352.346 598.784L352.126 598.527ZM382.365 709.695C384.048 705.632 385.7 701.556 387.321 697.468C377.476 708.451 366.244 719.354 354.301 728.005C355.409 744.083 365.494 788.025 372.006 802.459C384.295 809.421 416.53 822.802 430.064 824.96C436.284 825.952 442.73 825.857 449.009 826.342C457.257 826.979 464.578 829.065 472.253 832.057C468.736 818.098 463.348 804.789 458.74 791.179C452.327 771.923 446.194 752.574 440.343 733.139C438.042 725.382 434.807 717.341 433.294 709.409C437.715 720.3 441.01 731.837 444.831 742.957C455.786 774.838 477.009 834.954 498.798 859.709C502.092 863.451 506.272 865.918 509.893 869.23C492.575 862.178 484.07 848.107 469.216 840.895C452.299 832.682 429.737 826.832 411.522 820.865C398.498 816.598 385.932 811.295 373.307 805.991C377.152 817.422 382.134 828.593 386.728 839.745C395.938 845.606 404.618 851.995 414.115 857.473C445.075 875.331 481.849 886.825 517.808 885.961C534.09 885.57 548.25 881.895 563.511 876.519C573.072 873.15 582.913 869.91 591.973 865.316C611.562 855.384 637.128 833.941 652.371 817.894C652.714 813.106 653.367 808.325 653.92 803.556C632.109 816.439 606.135 820.51 583.318 831.151C573.27 835.837 566.97 845.501 558.334 849.66C556.554 850.517 555.252 850.853 553.371 850.184C553.147 849.382 552.989 849.215 553.23 848.37C554.482 843.983 563.481 834.194 567.587 831.845C575.28 827.443 590.242 824.394 599.152 821.787C617.911 816.296 636.887 810.32 654.346 801.423C656.788 780.123 659.943 758.739 661.617 737.368C655.925 728.543 648.25 721.33 641.379 713.465C636.302 707.67 631.818 701.381 627.994 694.693C627.999 698.933 627.956 703.199 628.222 707.432C628.384 710.016 629.557 713.333 629.148 715.785C619.755 698.297 628.964 627.401 633.561 606.723C628.258 613.771 623.503 621.334 618.348 628.515C594.007 662.416 568.519 697.162 535.389 723.066C523.761 732.158 510.157 742.105 494.551 740.055C487.192 739.088 481.604 735.5 476.348 730.47C463.876 718.534 455.04 702.167 444.744 688.3C429.631 667.946 413.584 648.351 398.25 628.159C400.119 637.461 400.317 647.239 400.603 656.698C401.334 680.888 401.678 709.708 389.097 731.145C393.669 716.264 395.69 701.462 395.402 685.917C391.211 693.351 388.172 703.488 382.365 709.695ZM633.306 904.084L633.129 904.616L633.306 904.084C642.481 885.292 648.264 846.221 651.533 824.406C636.909 839.396 619.382 855.168 600.96 865.255C589.961 871.278 578.005 875.703 566.208 879.868C550.064 885.568 534.303 889.545 517.056 889.803C471.837 890.481 426.762 873.127 390.365 847.059C394.045 857.854 422.416 923.747 427.753 929.904L428.103 930.748L428.666 931.813L429.139 932.786L429.463 933.497L429.139 932.786L428.666 931.813L428.103 930.748L427.753 929.904C425.038 920.7 418 906.792 413.854 897.614C421.519 900.222 428.953 903.632 436.595 906.356C456.532 913.463 477.965 918.705 499.12 920.246C542.967 923.439 606.61 904.617 639.9 875.993C638.421 885.439 635.523 894.785 633.306 904.084ZM250.503 713.042L250.475 713.716C249.73 734.417 257.155 772.614 265.833 791.223C269.639 799.384 274.821 806.92 279.875 814.344C303.795 849.483 334.218 880.703 366.673 908.014C383.919 922.525 402.667 935.198 419.327 950.45C430.258 960.456 438.287 972.631 448.272 983.4L448.671 984.164L448.989 984.446L448.671 984.164L448.272 983.4C446.602 979.745 443.487 976.141 441.07 972.884C429.493 957.29 417.08 944.355 402.644 931.408C385.773 916.277 367.963 902.003 351.48 886.482C341.22 876.821 331.716 866.298 322.444 855.695C293.864 823.013 270.84 789.67 262.431 746.159C260.711 737.257 257.237 720.354 260.103 712.039C261.873 706.902 265.711 702.133 268.734 697.656L261.682 700.248C256.855 703.308 253.602 708.364 250.503 713.042ZM83.7066 799.151C93.9696 819.083 105.177 838.556 115.255 858.56C124.836 877.962 133.452 897.825 141.073 918.076C148.816 938.943 155.493 960.412 161.641 981.796C164.054 990.187 165.624 998.97 168.349 1007.24L168.523 1007.75L168.873 1008L168.523 1007.75C168.269 996.737 164.58 984.592 162.124 973.886C153.514 936.35 143.001 902.503 128.148 866.932C120.729 849.163 112.862 831.988 103.242 815.288C98.8719 807.702 94.696 799.768 89.3825 792.804L86.4416 795.799L83.7066 799.151ZM593.294 1014.71L593.06 1015L593.294 1014.71C596.201 1011.85 598.709 1007.28 601.156 1003.92C605.873 997.365 610.836 990.986 616.032 984.8C641.167 954.862 666.397 924.735 689.373 893.081C697.066 882.481 704.025 871.418 711.356 860.574C731.052 831.441 748.992 802.404 762.289 769.719C764.935 763.214 767.709 756.672 769.796 749.966C773.999 736.463 774.27 728.782 767.552 716.031L764.407 710.505C764.876 719.59 764.189 728.379 762.09 737.247C753.817 772.19 734.168 803.734 715.331 833.795C696.515 863.552 676.613 892.609 655.667 920.907C646.47 933.345 636.536 945.281 627.747 958.015C621.713 966.759 616.542 975.989 611.119 985.109C606.465 992.937 595.599 1006.85 593.294 1014.71ZM514.901 52.7184L514.039 53.7316C515.008 54.3615 515.539 54.3474 516.673 54.5149L517.433 53.3022C516.556 52.8695 515.87 52.7963 514.901 52.7184ZM519.632 53.25L520.245 53.25L519.632 53.25ZM511.874 53.6458C500.134 54.9649 478.523 58.0973 467.945 61.8779C463.312 63.5337 458.542 66.0761 454.186 68.3871C454.808 68.9228 454.466 68.8082 455.169 68.8388C467.371 64.0314 478.883 60.0682 491.75 57.4339C496.911 56.3773 509.048 55.5644 513.026 53.9433L512.786 53.547L511.874 53.6458ZM398.635 57.25L399.245 57.25L398.635 57.25ZM482.376 63.0661C472.344 66.0252 461.854 67.2839 452.606 72.5289L452.564 72.9141L453.098 72.9913C458.56 71.5364 479.596 65.7942 483.334 63.2134L482.376 63.0661ZM474.372 68.5722C470.075 69.644 465.572 70.5736 461.461 72.2341C456.706 74.1552 452.376 76.7471 447.481 78.3654C452.072 77.8963 456.451 77.448 460.888 76.1137C462.048 75.7993 464.03 75.6102 464.766 74.6865C461.307 74.7281 457.977 75.5615 454.611 76.2836C459.487 74.2273 472.359 70.9442 475.352 68.6925L474.372 68.5722ZM491.884 75.2144C474.69 76.3831 458.355 82.7052 441.669 86.5529C442.276 87.1563 442.791 86.9422 443.619 86.9682C460.733 84.5809 476.78 79.0662 493.625 75.5488L493.894 75.1857L491.884 75.2144ZM463.2 78.0267C459.484 79.4426 445.442 81.934 443.615 83.7219L443.412 83.5614L443.142 84.0697L443.755 84.2386L443.935 83.9889C444.107 84.0296 444.277 84.0827 444.451 84.1111C444.504 84.1196 444.557 84.1028 444.61 84.0987C447.574 83.3231 463.47 79.7304 464.466 78.1734C463.504 77.8541 463.928 77.8283 463.2 78.0267ZM474.882 84.2055C463.605 84.7928 452.455 86.9627 441.272 88.5075L441.401 88.9345C443.561 89.6156 445.407 89.5121 447.62 89.3884C450.879 89.1061 480.281 85.0352 481.138 84.3872C479.072 83.8172 476.997 84.0847 474.882 84.2055ZM382.136 84.75L382.745 84.75L382.136 84.75ZM471.381 88.6899C463.076 89.3498 447.354 89.6913 440.169 91.669C443.056 91.9219 445.976 92.2987 448.875 92.2023C459.357 91.5215 470.446 90.8804 480.685 88.3974C477.579 88.4076 474.474 88.363 471.381 88.6899ZM395.635 92.25L396.245 92.25L395.635 92.25ZM464.872 92.124C462.265 92.4113 454.47 92.2713 452.667 93.7554L453.39 94.1708C456.738 93.9582 462.97 94.0066 465.746 92.3319L464.872 92.124ZM394.636 92.75L395.245 92.75L394.636 92.75ZM393.638 93.25L394.245 93.25L393.638 93.25ZM443.636 93.3411L443.658 93.932L444.818 93.6402L444.836 92.9827L443.636 93.3411ZM446.261 95.1955L446.287 95.9296C449.034 96.2921 451.838 96.0265 454.599 95.9043L454.208 95.2294C451.641 94.7874 448.824 94.6693 446.261 95.1955ZM440.626 98.1391L440.142 98.6867C443.505 99.92 447.85 99.5342 451.292 98.7486L452.208 98.2211C448.974 97.3474 443.997 97.988 440.626 98.1391ZM452.372 99.6049C448.955 100.183 439.701 99.8486 437.669 100.717C439.16 101.65 441.116 102.105 442.836 102.426C448.441 103.07 454.209 100.692 459.735 99.8455C457.271 99.6677 454.843 99.4432 452.372 99.6049ZM439.58 104.519C444.242 106.704 452.335 109.52 457.525 108.614C455.983 107.251 442.106 104.675 439.58 104.519ZM396.633 108.25L397.245 108.25L396.633 108.25ZM435.686 107.994C443.732 114.173 457.237 111.594 466.75 110.848L466.742 110.249C460.135 109.201 453.25 110.109 446.581 109.782C442.857 109.6 439.322 108.735 435.686 107.994ZM395.136 109.25L395.745 109.25L395.136 109.25ZM434.483 111.993C442.236 117.077 464.968 119.82 474.159 119.117L474.13 118.935L473.405 119.275L473.497 118.75C467.903 117.917 462.244 116.861 456.624 116.271C454.728 115.935 452.815 115.65 450.948 115.179C458.174 114.951 465.398 114.661 472.619 114.31L472.701 114.048C464.54 112.411 455.503 113.927 447.182 113.71C442.75 113.595 438.81 112.554 434.483 111.993ZM661.106 185.75L661.574 185.75L661.106 185.75ZM303.254 200.984L303.543 201.25L303.254 200.984ZM485.757 204.25L486.231 204.25L485.757 204.25ZM278.151 224.75L278.565 224.75L278.151 224.75ZM277.718 225.75L278.108 225.75L277.718 225.75ZM277.237 226.75L277.642 226.75L277.237 226.75ZM724.647 227.955L725.211 228.25L724.647 227.955ZM685.232 236.75L685.564 236.75L685.232 236.75ZM496.181 243.75L496.578 243.75L496.181 243.75ZM496.757 244.75L497.237 244.75L496.757 244.75ZM260.194 246.25L260.599 246.25L260.194 246.25ZM497.625 246.25L498.074 246.25L497.625 246.25ZM418.715 256.75L419.077 256.75L418.715 256.75ZM381.161 276.75L381.602 276.75L381.161 276.75ZM597.718 277.25L598.245 277.25L597.718 277.25ZM666.199 296.25L666.584 296.25L666.199 296.25ZM666.752 297.25L667.196 297.25L666.752 297.25ZM282.623 300.75L283.045 300.75L282.623 300.75ZM768.165 300.957L768.745 301.25L768.165 300.957ZM282.157 301.75L282.559 301.75L282.157 301.75ZM768.678 302.689L769.001 303.009L768.678 302.689ZM680.755 305.25L681.173 305.25L680.755 305.25ZM252.159 305.75L252.556 305.75L252.159 305.75ZM681.228 306.25L681.572 306.25L681.228 306.25ZM681.726 307.25L682.065 307.25L681.726 307.25ZM484.72 307.75L485.133 307.75L484.72 307.75ZM661.534 350.111C657.296 351.156 652.908 352.035 648.849 353.656C656.323 354.88 663.575 355.269 670.677 358.146C674.101 359.203 677.519 360.307 680.971 361.272C675.633 357.945 667.354 351.553 661.534 350.111ZM679.623 360.75L680.206 360.75L679.623 360.75ZM571.15 376.75L571.745 376.75L571.15 376.75ZM551.279 387.25L551.745 387.25L551.279 387.25ZM403.544 401.532C403.54 403.76 404.003 404.904 405.562 406.498C406.31 407.264 407.048 407.775 407.972 408.303L408.773 408.259C409.467 406.52 410.185 405.044 410.07 403.143C409.486 402.277 409.325 401.806 408.245 401.53C406.879 401.182 404.97 401.457 403.544 401.532ZM434.175 408.962L434.745 409.25L434.175 408.962ZM364.479 409.478L365.143 409.648L364.479 409.478ZM435.344 409.871C435.175 411.207 435.183 412.451 434.229 413.49C434.003 412.809 433.822 412.145 433.669 411.445C433.554 411.56 433.441 411.677 433.325 411.79C429.508 415.52 424.207 417.164 418.933 417.1C414.9 417.051 411.934 416.518 408.832 413.911L406.17 411.667L404.891 411.934C404.358 412.917 404.07 413.329 404.348 414.497C404.44 414.883 404.734 415.481 404.906 415.854C408.483 420.084 412.009 423.405 417.851 423.861C422.651 424.236 427.964 422.451 431.612 419.319C433.529 417.673 435.941 414.165 435.723 411.487C435.66 410.705 435.569 410.547 435.344 409.871ZM301.431 412.188C298.387 420.997 294.307 428.927 292.893 438.28L293.354 438.571C294.22 435.454 295.113 432.379 296.453 429.428C298.219 425.538 301.436 420.833 302.292 416.718C302.65 414.995 302.208 413.702 301.431 412.188ZM370.306 420.153C367.661 420.978 363.943 421.796 362.086 423.896C363.117 425.021 365.354 425.154 366.882 425.193C367.3 425.203 367.677 425.169 368.098 425.144C369.457 424.21 371.299 423.287 372.144 421.865L371.173 422.004C370.393 422.112 369.689 422.166 368.9 422.112C369.493 421.536 371.896 420.561 371.933 420.067C371.418 420.083 370.807 420.044 370.306 420.153ZM376.577 424.877C377.508 425.426 377.023 425.364 378.025 425.115L377.258 424.577L376.577 424.877ZM379.134 425.75L379.745 425.75L379.134 425.75ZM448.634 434.75L449.245 434.75L448.634 434.75ZM306.28 446.203C305.484 450.748 303.098 458.276 305.83 462.358C310.41 469.2 324.723 479.822 331.701 484.976L332.297 484.766C331.553 482.687 330.276 480.849 329.121 478.977C327.674 476.632 326.254 473.957 324.433 471.886C320.715 467.658 316.006 464.494 312.79 459.783C309.906 455.558 308.833 450.468 306.28 446.203ZM296.085 451.302C294.981 461.722 296.367 473.682 303.22 482.071C306.411 485.978 310.205 489.426 313.923 492.824C321.641 499.878 329.094 506.654 340.037 507.659C341.548 507.797 342.742 507.788 344.17 507.276L344.714 506.577C344.418 505.784 344.15 505.039 343.744 504.293C341.159 499.941 338.529 494.262 334.9 490.732C333.19 489.069 330.472 488.247 328.486 486.854C320.102 480.977 308.366 472.92 302.35 464.777C302.589 466.22 303.219 468.285 302.534 469.603C301.492 469.246 301.412 468.625 300.95 467.641C298.491 462.403 298.23 456.512 296.085 451.302ZM683.801 587.395C681.065 591.946 660.169 625.306 659.655 627.381C660.24 628.001 660.422 628.145 661.243 628.501L666.471 630.688C672.796 622.804 683.977 597.188 683.801 587.395ZM328.49 600.885C332.719 612.249 337.769 622.446 344.481 632.577C347.063 631.27 349.757 630.038 352.248 628.572L355.703 626.299C348.147 621.92 341.357 616.338 335.599 609.773C333.398 607.213 331.162 602.673 328.49 600.885ZM649.315 604.428C645.56 609.727 640.445 614.654 637.268 620.229L637.682 620.694C639.591 621.041 641.499 621.438 643.427 621.662C645.277 616.845 649.23 609.501 649.315 604.428ZM692.435 615.979C685.767 621.956 678.507 627.239 670.77 631.747C672.042 632.687 673.304 633.644 674.608 634.539L679.756 637.139C682.833 633.328 692.159 620.677 692.435 615.979ZM196.811 761.574C186.559 764.947 176.536 768.879 166.448 772.7C144.871 780.873 121.452 789.719 102.171 802.587C103.375 805.566 104.973 808.295 106.563 811.08L107.492 812.466C110.5 812.859 121.794 804.62 125.091 802.797C141.433 793.762 159.207 786.337 176.599 779.585C183.558 776.883 191.144 775.039 197.866 771.857C197.83 769.378 198.298 763.425 196.811 761.574ZM819.074 765.421C819.751 770.963 819.452 776.151 818.858 781.685C830.966 785.615 842.424 792.308 853.633 798.265C866.297 804.995 879.052 811.371 891.463 818.591C903.257 825.453 914.658 833.091 926.504 839.827C927.555 840.425 928.741 841.435 929.911 841.041L930.327 839.875C931.452 836.181 932.534 832.467 933.825 828.828C925.78 820.884 914.865 814.505 905.183 808.676C877.381 791.939 848.934 778.082 819.074 765.421ZM941.146 817.659C940.519 822.62 939.989 827.654 938.876 832.532C936.706 842.045 933.185 851.244 929.925 860.424C926.476 870.216 923.091 880.031 919.771 889.867C911.988 913.14 906.337 936.752 901.033 960.674C898.919 970.21 896.207 979.556 894.917 989.262L895.226 989.455C895.647 988.427 896.073 987.409 896.437 986.359C901.032 974.948 905.908 963.628 910.325 952.149C916.878 935.114 922.817 917.75 928.712 900.475C936.78 876.834 947.266 850.076 947.067 824.903C945.48 822.061 944.044 819.371 941.146 817.659ZM74.1933 819.799C59.0145 864.533 60.3199 922.371 68.1806 968.44C68.9562 972.986 70.2758 985.596 72.1344 989.267C72.1971 989.39 72.2809 989.502 72.3541 989.62C70.3237 940.315 76.3423 886.533 83.5136 837.676C81.5412 834.285 76.0385 821.507 74.1933 819.799ZM970.734 883.357C970.221 892.672 969.547 901.977 968.713 911.268C967.67 922.314 958.138 1001.78 961.538 1005.79L961.796 1005.7C963.136 995.036 965.055 984.471 966.566 973.832C969.969 949.876 972.688 924.619 971.909 900.397C971.727 894.763 971.803 888.903 970.734 883.357ZM429.719 934.25L430.097 934.25L429.719 934.25ZM430.198 935.25L430.539 935.25L430.198 935.25ZM430.684 936.25L431.059 936.25L430.684 936.25Z"/><path d="M324.592 130.498L324.802 130.217L324.592 130.498Z"/><path d="M348.107 135.97L348.346 135.737L348.107 135.97Z"/><path d="M720.257 141.21L720.612 141.577L720.257 141.21Z"/><path d="M720.612 141.577L721.179 142.101L720.612 141.577Z"/><path d="M721.179 142.101L721.434 142.416L721.179 142.101Z"/><path d="M297.051 152.059L297.43 151.547L297.051 152.059Z"/><path d="M296.488 153L297.051 152.059L296.488 153Z"/><path d="M296.241 153.255L296.488 153L296.241 153.255Z"/><path d="M348.61 153.438L348.814 153.205L348.61 153.438Z"/><path d="M724.662 153.193L724.877 153.498L724.662 153.193Z"/><path d="M734.854 154.228L734.574 154.035L734.854 154.228Z"/><path d="M719.148 156.227L719.375 156.419L719.148 156.227Z"/><path d="M307 159.5L307.545 158.928L307 159.5Z"/><path d="M298.687 159.641L298.961 159.002L298.687 159.641Z"/><path d="M306.682 159.833L307 159.5L306.682 159.833Z"/><path d="M347.426 161.126L347.78 160.705L347.426 161.126Z"/><path d="M347.109 161.498L347.426 161.126L347.109 161.498Z"/><path d="M733.821 168.599L733.598 168.034L733.821 168.599Z"/><path d="M318.642 172.128L319.498 171.502L318.642 172.128Z"/><path d="M318.52 173.498L318.642 172.128L318.52 173.498Z"/><path d="M313.671 173.79L313.908 173.502L313.671 173.79Z"/><path d="M318.138 174.267L318.424 174.002L318.138 174.267Z"/><path d="M730.82 179.279L730.597 179.002L730.82 179.279Z"/><path d="M330.699 189.28L330.893 188.504L330.699 189.28Z"/><path d="M319.631 189.308L319.868 189.002L319.631 189.308Z"/><path d="M330.248 189.699L330.699 189.28L330.248 189.699Z"/><path d="M330.589 193.291L330.869 193.002L330.589 193.291Z"/><path d="M704.5 195.5L704.003 194.613L704.5 195.5Z"/><path d="M704.5 195.5C704.859 195.992 705.236 196.449 705.5 197C705.123 196.563 704.814 195.987 704.5 195.5Z"/><path d="M705.5 197C705.86 197.492 706.238 197.948 706.5 198.5C706.123 198.063 705.813 197.487 705.5 197Z"/><path d="M706.5 198.5L707.21 199.248L706.5 198.5Z"/><path d="M683.878 199.811L683.625 199.502L683.878 199.811Z"/><path d="M714.712 205.119L714.551 204.636L714.712 205.119Z"/><path d="M365.584 214.498L365.857 214.186L365.584 214.498Z"/><path d="M364.804 215.725L365.462 215.002L364.804 215.725Z"/><path d="M364.601 216.498L364.804 215.725L364.601 216.498Z"/><path d="M359.597 226.462L359.829 226.234L359.597 226.462Z"/><path d="M631.129 228.202L631.386 228.487L631.129 228.202Z"/><path d="M635.667 244.194L636.072 244.649L635.667 244.194Z"/><path d="M636.072 244.649L636.447 245.374L636.072 244.649Z"/><path d="M342.557 249.724L342.873 249.502L342.557 249.724Z"/><path d="M545.907 250.323L546.25 250.633L545.907 250.323Z"/><path d="M644.789 251.099L644.553 250.638L644.789 251.099Z"/><path d="M641.911 251.279L641.626 251.002L641.911 251.279Z"/><path d="M471.437 253.608L471.125 253.002L471.437 253.608Z"/><path d="M464.939 254.828L464.62 254.521L464.939 254.828Z"/><path d="M560.847 255.23L561.497 255.424L560.847 255.23Z"/><path d="M638.285 259.118L638.003 258.643L638.285 259.118Z"/><path d="M545.65 259.268L545.908 259.433L545.65 259.268Z"/><path d="M526.063 260.936L525.631 260.502L526.063 260.936Z"/><path d="M526.063 260.936L526.395 261.265L526.063 260.936Z"/><path d="M549.526 266.983L549.062 266.605L549.526 266.983Z"/><path d="M549.526 266.983L549.872 267.286L549.526 266.983Z"/><path d="M584.404 267.727L584.12 267.502L584.404 267.727Z"/><path d="M357.002 337.998L357.352 337.389L357.002 337.998Z"/><path d="M356.991 339.25L356.708 338.976L356.991 339.25Z"/><path d="M356.48 340.75L356.184 340.467L356.48 340.75Z"/><path d="M596.08 362.699L596.614 362.873L596.08 362.699Z"/><path d="M455.642 369.27L456.07 369.646L455.642 369.27Z"/><path d="M456.07 369.646L456.395 369.954L456.07 369.646Z"/><path d="M673.142 384.045C648.549 382.333 602.427 382.233 583.045 398.985C579.34 402.203 575.966 405.784 572.974 409.675C571.649 411.424 570.671 413.618 569.169 415.181C571.463 406.302 579.672 397.976 587.177 393.154C607.376 380.175 650.212 379.136 673.142 384.045Z"/><path d="M673.142 384.045C676.074 384.044 679.009 384.019 681.941 384.053L681.399 384.231C674.88 386.303 667.955 386.76 661.221 385.561C660.381 385.414 659.781 385.497 658.97 385.73C660.668 386.745 663.802 386.41 665.824 386.77C668.603 387.266 671.556 386.998 674.38 387.251C671.882 387.629 669.182 387.803 666.883 388.891C670.639 390.61 675.878 388.52 679.586 390.173C676.668 392.849 667.67 392.195 663.674 392.891C669.208 393.839 677.161 393.483 682.097 395.501L682.602 396.367C681.423 400.58 672.847 405.719 669.336 408.117C671.317 408.342 673.454 408.386 675.254 409.3L675.177 410.16L674.955 410.212L674.782 409.145L674.422 410.308C673.01 410.429 670.673 410.272 669.703 411.246L669.807 412.847C668.457 414.257 666.591 414.861 664.827 415.617C665.954 416.11 667.064 416.247 668.268 416.424C668.581 417.35 668.9 418.269 669.252 419.182C666.596 420.698 663.931 417.489 660.889 420.284C661.561 420.951 661.156 420.742 662.041 420.903C663.254 421.124 664.439 421.146 665.312 422.1C663.354 423.296 659 422.933 656.61 423.322L656.546 423.788C659.161 424.261 661.734 424.649 664.216 425.634L664.468 426.231C661.453 427.689 656.296 425.315 653.752 426.811C656.616 428.535 660.17 429.339 663.366 430.318C663.214 430.32 663.062 430.325 662.909 430.325C658.106 430.338 650.643 427.636 646.786 431.576C646.57 431.797 646.379 432.041 646.175 432.273L645.503 432.413L646.175 432.273C647.05 431.929 647.975 431.497 648.862 431.197C650.067 430.79 651.419 431.121 652.515 431.689C654.081 432.5 655.674 434.046 657.061 435.152C654.44 434.413 651.982 433.485 649.463 432.464C647.734 433.114 646.012 433.802 644.268 434.408C645.195 435.695 646.114 436.7 646.145 438.36L645.426 438.502C644.384 437.582 643.747 436.658 643.018 435.499C640.559 436.355 628.448 441.5 627.422 441.439L627.249 440.813C628.893 439.471 631.73 439.051 633.725 438.252C638.324 436.411 642.873 434.448 646.972 431.644C640.992 433.464 634.98 437.12 628.943 438.22C632.097 436.483 634.745 435.209 637.422 432.733L638 432.5L639 432L639.497 431.614L639 432L638 432.5L637.422 432.733C629.242 437.176 615.391 438.423 606.445 436.295L606.734 435.795C609.357 435.234 612.188 435.609 614.859 435.633C619.901 435.677 625.077 435.268 629.955 433.938C642.658 430.476 657.077 414.459 663.464 403.477C657.177 400.658 650.03 399.245 643.357 397.613C644.271 405.428 643.32 413.233 638.692 419.839C634.868 425.297 629.118 428.725 622.567 429.776C615.784 430.864 608.576 429.555 603.011 425.41C597.102 421.009 594.861 415.49 593.929 408.459C590.834 411.288 587.116 413.24 584.641 416.753C582.652 419.576 580.635 427.978 578.05 429.484C577.379 429.022 576.615 428.415 575.865 428.106C574.84 427.682 574.089 427.657 573.055 427.982L573.724 429.204C573.733 429.859 573.651 430.269 573.41 430.882C572.882 432.226 572.469 432.989 572.716 434.485C573.502 435.263 573.741 435.502 574.895 435.65C577.56 435.99 580.531 435.036 583.232 434.929C587.564 434.758 591.867 435.179 596.16 435.704C590.182 436.292 584.25 436.523 578.248 436.685C582.853 437.241 587.844 437.465 592.162 439.241C591.197 439.3 590.339 439.123 589.384 438.99C584.012 438.245 578.516 439.027 573.282 438.241C571.727 438.007 570.156 437.274 569.373 435.828C568.882 434.921 568.826 434.453 569.226 433.564C570.164 433.552 570.937 433.481 571.847 433.248C572.536 432.174 572.418 431.435 572.389 430.205L571.849 429.939L570.197 431.221C569.879 426.293 576.963 416.032 579.953 412.189C576.336 415.301 572.879 418.592 569.246 421.693C572.162 416.218 578.214 410.18 582.723 405.9C595.283 393.98 612.401 389.12 629.041 386.243C633.011 385.556 637.161 384.68 641.185 384.527C646.383 384.329 651.862 385.38 657.122 385.521L654.657 384.97C659.188 385.092 669.237 386.533 673.142 384.045ZM657.449 415.451L657.003 415.899L657.449 415.451L658.142 414.537L657.449 415.451ZM652.473 420.479L651.803 421.184L651.605 421.382C648.923 422.837 646.611 425.406 644.78 427.811L644.395 428.071L643.815 428.619L643.131 428.998L643.815 428.619L644.395 428.071L644.78 427.811C647.469 426.417 649.931 423.875 651.605 421.382L651.803 421.184L652.473 420.479L652.939 420.002L652.473 420.479ZM652.555 388.959C653.752 390.107 654.537 390.087 656.132 390.435C655.006 389.599 654.349 388.853 652.853 388.866C652.749 388.867 652.655 388.928 652.555 388.959ZM663.788 389.483L664.052 389.628L663.788 389.483ZM658.34 389.203L658.757 391.407L659.352 391.326L660.06 390.425C659.431 389.486 659.332 389.599 658.34 389.203ZM660.922 390.179C660.859 391.057 660.761 391.666 661.477 392.354C661.679 392.548 661.942 392.664 662.174 392.819L662.454 390.452L661.821 389.967L660.922 390.179ZM663.686 390.978L663.456 391.809L664.77 391.587L664.78 390.935L663.686 390.978ZM611.31 402.321C609.946 403.214 609.023 403.758 608.325 405.309C608.411 406.499 608.376 407.063 609.46 407.832C610.382 408.486 611.727 408.758 612.817 408.988C613.841 408.179 615.009 407.344 615.235 405.953C615.403 404.913 615.087 403.973 614.249 403.303C613.441 402.656 612.317 402.389 611.31 402.321ZM636.398 408.095C631.705 412.91 626.369 417.129 619.318 417.336C612.951 417.522 609.065 412.72 605.644 412.662C605.216 413.821 605.382 415.49 605.85 416.637C606.139 417.346 606.279 417.475 606.689 418.024C610.77 422.03 615.163 424.202 621.023 424.173C624.98 424.154 628.964 423.014 631.816 420.158C634.429 417.541 636.392 412.47 636.439 408.742C636.442 408.526 636.412 408.31 636.398 408.095ZM640.128 431.25L640.745 431.25L640.128 431.25Z"/><path d="M547.829 389.432L547.33 390.219L546.92 390.806L545.738 391.551L543.709 391.091C545.486 388.375 547.795 386.091 550.012 383.737C549.295 385.639 548.568 387.538 547.829 389.432Z"/><path d="M518.219 387.563L518.497 387.87L518.219 387.563Z"/><path d="M475.649 395.999C475.87 395.789 476.094 395.582 476.312 395.369C477.732 393.975 478.596 391.552 480.275 390.594L480.588 391.129L480.505 391.429C479.311 393.339 478.183 395.493 476.621 397.12C475.76 396.382 476.045 396.786 475.649 395.999Z"/><path d="M543.518 391.401L543.709 391.091L543.518 391.401Z"/><path d="M477.849 397.511L477.786 397.067C478.617 396.284 478.256 396.539 479.136 395.998C480.854 394.942 482.12 394.01 483.461 392.5C483.529 393.653 483.274 394.433 482.905 395.519C481.62 396.796 479.566 397.071 477.849 397.511Z"/><path d="M456.191 408.416L455.741 408.469L455.224 407.676L455.797 407.554L456.191 408.416Z"/><path d="M471.785 415.4L471.332 415.169L471.785 415.4Z"/><path d="M569.003 415.497L569.169 415.181L569.003 415.497Z"/><path d="M471.785 415.4C473.509 416.865 473.794 419.122 474.321 421.227C472.341 419.668 472.215 417.751 471.785 415.4Z"/><path d="M474.321 421.227L474.498 421.497L474.321 421.227Z"/><path d="M568.9 422.101L569.246 421.693L568.9 422.101Z"/><path d="M568.419 422.714L568.9 422.101L568.419 422.714Z"/><path d="M568.115 422.998L568.419 422.714L568.115 422.998Z"/><path d="M463.409 435.677C462.623 434.934 462.482 434.995 462.231 433.879C463.043 433.501 463.621 433.204 464.286 432.584C464.454 432.427 464.61 432.257 464.772 432.094L465.047 432.327C465.1 432.713 465.182 433.096 465.077 433.488C464.766 434.658 464.428 435.115 463.409 435.677Z"/><path d="M612.996 440C612.51 439.912 612.768 440.007 612.259 439.626C615.586 438.346 620.304 438.504 623.883 438.19C624.243 438.156 623.985 438.161 624.637 438.36C621.652 439.953 616.333 439.769 612.996 440Z"/><path d="M628.375 438.333L628.943 438.22L628.375 438.333Z"/><path d="M638.568 440.942L636.469 439.646L636.344 438.813L637.972 437.643C638.174 437.805 638.404 437.939 638.579 438.13C639.381 439 639.515 439.322 639.368 440.462L638.568 440.942Z"/><path d="M616.139 441.744L616.67 441.238C620.851 440.908 624.46 439.714 628.375 438.333C628.034 438.737 627.867 438.977 627.483 439.303C624.523 441.82 619.808 441.837 616.139 441.744Z"/><path d="M607.283 440.634L606.46 440.427C606.838 440.319 606.56 440.367 607.283 440.634Z"/><path d="M390.994 441.983C391.248 442.143 391.773 442.402 391.954 442.631C391.621 442.436 391.222 442.295 390.994 441.983Z"/><path d="M341.022 443.75L340.592 443.465L341.022 443.75Z"/><path d="M290.745 459.75L290.161 459.455L290.745 459.75Z"/><path d="M701.107 482.498L701.387 482.226L701.107 482.498Z"/><path d="M479.754 523.955C482.605 515.529 486.415 509.648 492.798 503.466L493.221 503.767C489.581 508.664 485.422 513.6 482.529 518.976C481.853 536.852 496.766 540.504 497.797 543.856L496.101 545.932C495.75 545.746 495.396 545.565 495.057 545.357C486.973 540.392 482.076 533.028 479.754 523.955Z"/><path d="M539.844 509.791L539.606 509.533L539.844 509.791Z"/><path d="M550.498 525.099C549.74 518.883 547.394 514.677 544.639 509.211C545.452 509.577 546.094 510.081 546.711 510.725C550.193 514.356 552.711 518.849 552.604 524.008C552.479 530.078 548.29 538.56 543.511 542.402C540.092 545.15 536.271 546.646 533.011 549.806L532.331 550.473C531.967 550.746 532.243 550.568 531.393 550.782C533.045 548.194 533.746 545.141 535.659 542.67C536.751 541.259 538.996 540.103 540.443 539.037C545.106 535.602 548.559 530.514 550.498 525.099ZM535.137 546.25L535.745 546.25L535.137 546.25Z"/><path d="M493.14 510.833L493.294 510.346L493.14 510.833Z"/><path d="M539.844 509.791C542.024 512.01 543.507 514.275 543.508 517.492C543.508 519.666 542.456 522.669 540.82 524.134C540.491 524.43 540.228 524.564 539.838 524.808C542.299 519.008 541.492 515.627 539.844 509.791Z"/><path d="M491.989 520.53L491.723 520.086C491.657 516.864 492.066 513.875 493.14 510.833C492.883 513.95 492.706 517.074 492.609 520.2L491.989 520.53Z"/><path d="M539.422 525.114L539.838 524.808L539.422 525.114Z"/><path d="M921.394 525.085L921.783 524.773L921.394 525.085Z"/><path d="M538.5 526.5C538.749 525.94 539.04 525.587 539.422 525.114C539.133 525.654 538.926 526.052 538.5 526.5Z"/><path d="M920.809 525.607L921.394 525.085L920.809 525.607Z"/><path d="M920.503 525.898L920.809 525.607L920.503 525.898Z"/><path d="M537.813 527.188L538.5 526.5L537.813 527.188Z"/><path d="M537.374 527.608L537.813 527.188L537.374 527.608Z"/><path d="M536 528.5C536.415 528.127 536.894 527.888 537.374 527.608C536.474 528.43 536.954 528.169 536 528.5Z"/><path d="M535.503 528.997L536 528.5L535.503 528.997Z"/><path d="M542.181 535.859C536.175 541.127 522.398 544.286 514.535 544.013C509.059 543.823 496.176 541.26 492.584 537.006C491.952 536.257 491.549 535.215 491.752 534.244C492.208 532.071 494.168 531.049 495.898 529.945C497.826 530.195 499.682 530.734 501.558 531.231C505.507 535.384 510.422 541.652 516.629 541.715C523.013 541.781 529.273 534.598 533.709 530.523C535.626 530.198 537.971 529.562 539.753 530.685C541.455 531.758 541.79 534.062 542.181 535.859Z"/><path d="M490.469 578.068C494.244 576.018 497.797 574.702 501.921 573.596C506.386 573.373 510.803 575.162 515.245 575.543C524.753 576.358 532.932 573.491 542.342 577.022C538.39 577.156 534.428 577.087 530.474 577.066C526.492 577.175 522.541 577.67 518.547 577.523C507.714 577.124 501.469 575.284 490.469 578.068Z"/><path d="M543.278 594.492C534.053 594.816 525.867 598.751 516.905 599.441C508.754 600.068 499.497 597.506 491.321 596.731C484.236 596.06 476.658 596.404 469.69 595.033C467.098 594.524 462.576 593.128 460.562 591.362C461.697 590.02 465.6 590.428 467.299 590.449C471.869 590.505 476.583 590.925 481.046 589.749C484.963 588.717 488.582 586.944 492.555 586.016C498.176 585.945 507.175 591.188 514.275 591.721C522.764 592.357 529.188 586.345 537.481 586.313C546.84 586.277 557.183 593.315 566.878 591.5C567.738 591.339 567.912 590.54 568.347 589.844L569.225 589.768C570.317 590.594 570.217 590.573 570.412 591.942C570.062 593.005 569.885 593.585 569.035 594.369C566.775 596.454 547.526 594.562 543.278 594.492Z"/><path d="M180.987 602.398C181.933 602.766 181.83 602.59 182.444 603.549C181.255 603.106 181.75 603.477 180.987 602.398Z"/><path d="M182.444 603.549L182.899 603.966L182.444 603.549Z"/><path d="M814.395 608.581L814.78 608.284L814.395 608.581Z"/><path d="M813.821 609.123L814.395 608.581L813.821 609.123Z"/><path d="M813.32 609.579L813.821 609.123L813.32 609.579Z"/><path d="M813.003 609.902L813.32 609.579L813.003 609.902Z"/><path d="M547.489 622.42C538.844 628.012 529.747 630.726 519.441 631.108C504.698 631.655 489.241 627.682 478.255 617.452C498.923 621.76 533.578 622.299 553.918 617.288C551.915 619.138 549.645 620.75 547.489 622.42Z"/><path d="M269.764 619.689L270.13 620.065L269.764 619.689Z"/><path d="M270.13 620.065L270.498 620.414L270.13 620.065Z"/><path d="M700.003 644.388L700.602 644.13L700.003 644.388Z"/><path d="M604.657 670.079L604.924 669.503L604.657 670.079Z"/><path d="M540.512 840.516C540.921 832.332 544.29 823.435 546.675 815.616C559.383 773.944 576.63 733.466 594.181 693.64C597.617 685.843 600.624 677.572 604.657 670.079C602.689 678.982 598.389 687.801 595.069 696.271L578.975 738.093L548.488 817.685C545.632 825.219 543.493 833.053 540.512 840.516Z"/><path d="M432.62 706.25L432.112 705.956L432.62 706.25Z"/><path d="M433 708.5L432.712 707.634L433 708.5Z"/><path d="M433 708.5L433.294 709.409L433 708.5Z"/><path d="M381.918 710.152L382.365 709.695L381.918 710.152Z"/><path d="M381.617 710.497L381.918 710.152L381.617 710.497Z"/><path d="M509.893 869.23L510.67 869.683L509.893 869.23Z"/><path d="M510.67 869.683L510.943 869.91L510.67 869.683Z"/></svg>