<?xml version="1.0" encoding="utf-8" ?><svg xmlns="http://www.w3.org/2000/svg" xmlns:xlink="http://www.w3.org/1999/xlink" width="1024" height="1024" viewBox="0 0 1024 1024"><path fill="white" d="M0 0L0 1024L1024 1024L1024 0L0 0Z"/><path d="M172.746 691.691C159.953 683.612 151.19 661.328 147.964 647.222C137.15 599.936 149.002 551.878 161.649 506.299C166.749 487.22 172.297 468.263 178.289 449.445C183.626 432.582 189.756 415.766 193.821 398.547C196.04 389.15 196.975 379.345 198.299 369.786C200.091 357.038 202.008 344.308 204.049 331.598C213.13 274.15 226.799 211.164 253.124 159.062C257.948 149.514 263.641 140.383 269.364 131.354C299.734 83.4422 356.357 35.9597 412.566 23.4178C419.168 21.9446 425.929 20.595 432.662 19.9225C437.841 19.4053 443.225 19.4842 448.345 18.6158C453.012 17.8242 457.654 15.7851 462.152 14.294C467.688 12.497 473.363 11.1613 479.119 10.3005C531.434 2.84411 586.759 18.7085 630.775 46.7984C657 63.6714 680.493 84.4519 700.442 108.421C718.69 130.24 733.737 154.216 747.898 178.801C794.581 261.111 828.797 349.891 849.43 442.241C858.488 483.449 864.976 522.603 861.388 564.997C860.295 577.899 858.499 591.023 854.802 603.456C852.796 610.203 850.246 617.083 847.236 623.448C844.897 628.395 841.871 633.326 840.119 638.507C838.279 643.945 837.234 649.696 835.674 655.227C831.734 669.194 825.911 683.032 818.053 695.237C806.579 713.059 790.181 728.977 768.895 733.494C760.445 735.288 751.935 736.118 743.338 735.118C748.259 733.958 753.377 733.236 758.143 731.533C770.38 727.16 779.998 715.198 786.606 704.516C799.905 683.014 807.791 650.214 806.853 625.183C799.915 653.974 788.895 679.787 767.278 700.788C761.693 706.214 755.637 711.459 748.961 715.508C736.215 723.238 723.19 725.669 708.506 725.584C715.289 733.159 747.004 756.47 756.183 760.518C763.862 763.904 772.376 764.814 780.137 768.399C785.769 771 789.077 775.905 794.252 778.866C799.463 781.848 806.084 782.88 811.611 785.314C815.787 787.152 819.269 790.195 823.371 792.104C831.674 795.967 841.198 798.381 849.855 801.466C868.243 808.02 920.153 827.284 932.854 840.758C938.709 846.969 942.895 855.982 946.915 863.467C965.328 897.751 978.208 931.547 987.608 969.236C989.885 978.365 997.625 1019.19 1001.46 1024L692.394 1024C703.467 1012.08 713.023 998.556 721.834 984.907C733.297 967.148 743.532 948.686 753.806 930.227C772.567 896.52 790.138 862.66 805.341 827.198C809.889 816.59 816.267 803.215 818.084 791.961C810.39 787.372 801.174 783.916 792.696 781.051C790.266 788.789 788.344 796.699 785.938 804.45C781.874 817.546 776.935 830.795 771.565 843.418C747.746 899.414 692.869 987.276 644.068 1024L629.31 1024C638.713 1016.27 647.883 1008.51 656.396 999.795C663.837 992.176 670.551 983.99 677.313 975.776C716.626 928.022 749.748 869.702 772.726 812.276C777.466 800.43 781.292 788.157 785.462 776.095C782.673 773.676 779.759 772.212 776.402 770.782C761.106 830.834 727.455 894.327 691.57 944.578C681.575 958.574 671.558 971.991 659.778 984.564C651.605 993.305 642.923 1001.56 633.778 1009.27C627.667 1014.34 621.178 1018.92 615.076 1024L597.419 1024C615.535 1013.05 629.78 1000.54 644.718 985.648C702.021 928.536 747.149 844.64 770.001 767.327C767.048 766.457 763.949 766.041 760.919 765.508C741.912 834.744 696.937 917.811 647.58 970.197C628.876 990.049 608.075 1006.8 587.031 1024L494.844 1024C484.757 1014.9 472.494 1008.84 461.321 1001.24C444.599 989.882 428.209 977.284 412.531 964.526C364.817 926.432 324.629 879.77 294.028 826.936C288.006 816.556 281.76 806.193 276.299 795.507C271.591 786.293 267.637 776.147 262.058 767.474C261.953 767.311 261.844 767.15 261.737 766.988C259.153 767.641 256.695 768.58 254.2 769.507C260.865 787.99 271.371 805.575 281.065 822.6C289.04 836.607 297.229 850.309 306.398 863.581C338.624 910.227 385.551 960.853 431.235 994.592C446.077 1005.55 461.537 1014.48 477.268 1024L457.567 1024C406.654 994.167 365.058 952.489 327.74 907.27C317.315 894.638 306.926 882.123 297.625 868.611C276.69 838.721 259.493 806.381 246.416 772.313C244.191 773.072 242.21 774.15 240.152 775.265C243.156 783.74 247.446 792.126 251.162 800.326C260.508 820.946 270.626 841.097 282.756 860.237C289.489 870.861 297.25 880.827 304.863 890.827C330.233 924.152 358.208 956.273 389.717 983.951C400.052 992.881 410.683 1001.46 421.591 1009.68C428.142 1014.52 435.138 1018.84 441.437 1024L420.708 1024C413.188 1019.4 405.597 1014.77 398.528 1009.5C384.266 998.861 371.142 986.424 358.596 973.842C319.631 935.177 286.69 890.882 260.875 842.438C249.585 821.508 239.554 801.063 233.174 778.062C227.671 779.786 218.572 782.645 214.492 786.68C213.429 787.731 213.093 788.749 213.112 790.22C213.202 797.537 219.555 812.863 222.17 819.953C238.842 865.153 265.379 909.643 294.772 947.668C302.088 957.132 310.043 966.147 317.72 975.316C331.968 992.337 345.829 1008.74 362.048 1024L21.1863 1024L21.3491 1023.54L21.6085 1022.76C24.4428 1014.46 25.6527 1005.27 27.3425 996.661C29.8612 983.824 32.5296 971.083 35.7667 958.404C39.0915 945.381 42.4392 932.321 46.7869 919.595C53.9727 898.561 70.9911 858.742 88.012 845.032C103.199 832.799 139.142 818.085 157.846 810.491C171.848 804.806 186.612 800.356 200.332 794.056C206.535 791.208 208.864 784.074 215.034 781.183C225.661 776.205 237.179 771.223 248.216 767.243C253.393 765.376 259.011 764.476 263.989 762.108C276.16 756.316 294.24 740.857 304.188 731.325C295.12 729.044 287.234 726.039 279.466 720.719C250.88 701.139 232.779 662.655 226.688 629.144C226.18 639.781 227.704 650.993 229.379 661.496C232.472 680.882 240.113 709.639 253.613 723.712C258.004 728.289 263.392 731.246 268.465 734.929C258.721 732.413 250.289 727.187 242.825 720.521C211.81 692.818 196.779 644.517 193.404 604.046C192.058 587.904 193.021 571.753 192.174 555.612C186.958 598.102 179.01 639.422 188.085 682.062C189.684 689.573 191.402 697.092 194.155 704.275C201.759 710.227 208.077 712.824 217.252 715.568C209.219 715.538 203.323 714.155 195.882 711.137C204.69 733.979 210.596 736.906 231.355 748.169C219.268 746.647 207.211 739.215 199.482 729.963C190.958 719.759 185.956 707.329 181.406 695C156.552 627.659 171.164 554.453 182.079 485.88C183.631 476.126 184.762 466.334 186.13 456.556C187.557 446.359 189.259 436.151 190.186 425.894C186.887 434.781 184.299 444.112 181.517 453.18C170.327 489.912 161.642 527.36 155.522 565.268C150.052 600.158 147.131 642.981 162.647 675.792C165.369 681.547 169.008 686.573 172.746 691.691ZM603.355 151.577L604.04 152.462L604.497 152.917L604.04 152.462L603.355 151.577ZM605.54 154.002L606 154.5L606.652 155.233L607.526 156.479L608.165 157.206L609.016 158.485L609.666 159.206L610.5 160.5C610.814 160.987 611.124 161.562 611.5 162C611.817 162.518 612.099 163.042 612.5 163.5C612.816 164.021 613.092 164.546 613.5 165C613.679 165.293 613.927 165.814 614.176 166.04C615.528 171.023 620.356 176.463 622.964 181.037C625.639 185.727 627.854 190.768 630.154 195.657C644.005 225.097 655.066 254.944 662.601 286.668C669.147 314.229 672.146 342.222 674.777 370.375C675.16 374.473 674.999 381.408 676.911 384.974C673.324 318.945 662.215 260.154 633.749 199.968C628.465 188.795 622.604 175.228 614.176 166.04L613.5 165C613.24 164.482 612.83 163.978 612.5 163.5C612.241 162.983 611.83 162.478 611.5 162C611.231 161.453 610.857 160.992 610.5 160.5C610.298 160.054 609.941 159.614 609.666 159.206L609.016 158.485C608.798 158.008 608.476 157.626 608.165 157.206L607.526 156.479C607.312 156.047 606.938 155.623 606.652 155.233L606 154.5L605.54 154.002ZM334.676 154.716L334.428 155.793L333.89 156.131L333.279 157.294L333.072 157.398C328.301 161.238 324.194 169.66 321.107 174.992C301.726 208.468 288.229 245.927 283.953 284.479C281.585 305.82 284.252 329.715 291.416 349.91C292.947 354.226 294.741 359.186 297.722 362.749C298.084 363.181 298.205 363.281 298.634 363.71L298.88 363.998L298.634 363.71C297.107 357.98 293.625 352.144 291.591 346.469C288.041 336.563 286.928 325.396 286.224 314.951C285.703 307.219 285.225 299.381 285.564 291.63C287.124 256.049 299.78 220.306 315.164 188.528C318.424 181.793 322.266 175.368 326.199 169.011C328.454 165.364 331.131 161.661 332.905 157.776C332.962 157.651 333.016 157.524 333.072 157.398L333.279 157.294L333.89 156.131L334.428 155.793L334.676 154.716L335.498 154.08L334.676 154.716ZM330.5 228L330.212 228.866L330.5 228L330.788 227.134L330.5 228ZM362.162 235.238L361.225 236.318L361.045 236.987C358.337 240.288 356.663 245.164 355.044 249.146C346.158 270.988 343.663 292.974 346.025 316.352C346.669 322.722 354.794 361.262 354.455 363.104C353.446 363.971 352.809 364.221 351.453 364.195C346.08 364.093 340.318 358.458 337.056 354.726C338.02 356.461 339.02 358.184 339.902 359.961L338.608 359.73C338.326 360.486 338.132 361.139 337.952 361.916L337.724 361.906L338.198 364.631C337.282 365.786 337.186 365.81 335.638 365.918C335.008 365.962 334.27 365.858 333.647 365.808C332.926 367.174 333.07 368.573 333.073 370.073L332.589 370.458L331.657 370.169C330.059 372.82 329.234 376.505 328.387 379.475C323.451 396.769 324.982 412.576 329.257 429.798C334.626 451.426 343.356 471.811 352.13 492.228C361.168 513.26 370.442 535.424 383.286 554.466C401.294 581.163 448.043 617.345 476.076 634.227C494.338 645.225 514.999 654.531 536.716 649.037C543.191 647.399 549.454 644.536 555.117 641.018C581.602 624.567 628.679 576.71 644.727 549.426C670.297 505.954 668.737 447.704 667.486 398.769C660.574 396.776 655.361 397.211 648.652 399.668C653.067 400.374 654.987 401.797 658.222 404.712C656.04 404.141 653.886 403.103 651.659 402.769C646.722 402.029 639.661 404.799 634.748 405.749C640.599 401.019 645.762 396.809 652.687 393.765C657.933 394.242 662.538 395.464 667.475 397.282C667.539 391.365 667.027 385.44 666.315 379.572C659.206 384.471 651.525 387.418 645.401 393.703C646.118 390.146 646.634 386.623 647.042 383.017L646.816 382.612C642.824 375.293 637.249 373.591 629.781 371.041C631.101 377.988 632.092 385.651 628.994 392.26C625.699 399.292 618.237 405.747 610.962 408.393C604.156 410.868 595.733 410.462 589.203 407.292C580.148 402.895 577.768 394.913 574.597 386.233C572.249 389.142 569.478 391.722 567.286 394.761C565.488 397.255 564.119 399.761 564.733 402.897C565.083 404.685 565.472 405.788 566.969 406.785C566.589 406.973 566.409 407.086 565.965 407.185C564.562 407.497 562.311 406.568 561.313 405.55C560.566 404.787 560.31 403.535 560.312 402.501C560.329 395.069 569.168 383.449 574.099 378.285C584.991 366.809 599.96 360.077 615.773 359.543C621.884 359.348 627.974 360.078 634.093 359.907C618.798 356.524 603.771 354.795 588.617 360.103C570.679 366.387 560.685 381.516 552.785 397.904C554.596 388.587 558.006 380.758 563.485 372.974C571.079 362.184 582.096 355.438 595.081 353.194C608.429 350.887 626.685 352.315 639.095 358.055C644.096 360.367 648.528 363.626 653.031 366.765C650.703 367.05 648.56 367.493 646.309 368.146L646.513 368.472C652.174 368.407 657.632 367.874 663.191 366.802L663.356 367.084C661.7 368.326 659.952 369.45 658.735 371.15L659.119 371.845C659.638 371.953 660.133 372.078 660.672 372.076C661.891 372.073 663.052 371.568 663.835 370.624C667.152 366.623 662.991 345.509 662.325 339.645C654.862 339.182 647.536 337.665 640.111 336.86C628.003 335.546 613.277 336.1 601.342 338.596C595.76 339.764 590.285 341.571 584.746 342.944C577.817 344.661 570.766 345.929 563.879 347.805C559.606 348.969 554.275 351.697 549.953 351.89C548.721 351.945 548.664 352.243 547.721 352.987C549.164 349.088 551.365 346.849 553.643 343.513L552.771 342.699L551.821 342.619C551.405 342.581 550.99 342.522 550.573 342.503C550.22 342.486 549.866 342.513 549.514 342.484C540.724 341.772 523.731 323.386 518.193 316.447C514.897 312.318 512.191 307.629 508.748 303.667L508.319 303.247L508.097 302.502L508.319 303.247L508.748 303.667C514.578 318.403 533.25 336.059 547.223 343.404C547.957 343.79 547.698 343.639 548.343 344.346C544.321 344.809 542.453 343.728 538.957 341.955C535.859 343.801 513.904 351.919 509.697 352.996C507.755 353.494 506.086 353.735 504.118 353.232C499.653 352.09 495.705 349.105 492.08 346.379C477.804 335.647 466.985 322.238 458.32 306.689C451.54 294.525 446.925 281.389 442.698 268.171C445.615 288.491 456.09 312.942 467.459 329.87C470.806 334.813 474.554 339.472 478.665 343.8C481.158 346.429 484.107 348.864 486.311 351.731C486.991 352.616 487.479 353.315 487.428 354.468C486.01 355.267 485.03 355.109 483.487 354.635C467.016 349.573 455.345 331.509 448.159 316.971C433.746 287.814 428.575 248.246 427.896 215.996C427.806 211.685 427.659 207.312 427.836 203.005C427.907 201.284 428.333 199.647 428.345 197.914C427.42 198.644 427.58 199.239 427.441 200.389C426.901 204.845 427.067 209.633 427.035 214.127C426.812 245.472 432.483 286.297 445.264 314.978C449.054 323.483 453.818 332.119 459.194 339.722C462.251 344.044 465.731 348.104 468.723 352.453C469.631 353.772 470.458 354.381 469.543 355.741C467.943 356.312 466.8 355.984 465.319 355.299C461.322 353.449 458.327 350.559 455.242 347.524C456.204 350.656 457.859 355.078 457.727 358.308L456.04 356.882C455.891 356.902 455.742 356.925 455.593 356.943C454.262 357.105 453.178 357.191 452.002 356.371C448.97 354.259 448.428 346.077 447.46 342.52L447.195 341.931L447.46 342.52C448.136 347.872 448.173 351.893 447.007 357.179C436.331 355.905 402.853 351.137 394.117 352.738C393.517 353.692 393.957 354.446 394.174 355.516L393.763 355.931L392.936 355.632C392.338 354.606 391.756 353.28 390.73 352.631C390.194 352.293 389.826 352.493 389.245 352.581C388.691 353.675 389.036 353.249 388.303 353.932C387.533 353.065 387.162 352.553 385.998 352.314L385.022 353C385.221 353.788 385.29 354.169 385.222 355.001L384.088 354.859L382.928 353.222L382.187 353.228C382.244 354.203 382.376 354.505 381.944 355.411L380.981 355.296C380.409 354.358 380.086 353.833 379.226 353.122L378.428 353.418C377.889 354.381 377.69 354.888 376.756 355.515L374.765 354.449C372.783 354.771 370.752 356.201 368.995 357.162L370.022 363.231C363.641 358.754 359.509 352.864 356.161 345.914C346.47 325.796 343.479 299.859 347.304 277.857C348.501 270.972 350.702 264.205 352.84 257.562C355.011 250.818 358.508 244.58 360.745 237.9L361.045 236.987L361.225 236.318L362.162 235.238L362.385 234.502L362.162 235.238ZM546.003 263.624L546.849 264.225L547.066 265.289L547.349 265.436C548.753 268.414 550.961 271.151 553.021 273.695C563.694 286.879 595.465 319.209 611.794 320.963C608.266 317.45 601.131 314.141 596.722 311.242C590.769 307.328 585.066 302.87 579.643 298.249C571.721 291.498 564.629 283.756 557.564 276.133C554.266 272.574 551.029 268.584 547.349 265.436L547.066 265.289L546.849 264.225L546.003 263.624ZM673.329 274.798C673.429 276.809 673.635 278.152 674.623 279.922C674.613 280.183 674.599 280.443 674.594 280.703C674.534 283.971 679.053 302.81 679.953 307.852C683.086 324.759 685.229 341.834 686.371 358.991C692.665 457.142 685.216 598.878 638.695 686.281C632.984 697.011 625.305 711.224 616.733 719.838C612.413 724.18 606.465 727.272 601.298 730.512C584.744 740.891 571.831 748.464 551.487 747.999C549.528 747.954 547.572 747.751 545.625 747.544C551.036 746.309 556.632 745.844 561.904 744.069C582.31 737.2 598.494 719.373 609.665 701.596C614.638 693.683 619.216 684.792 622.029 675.859C614.668 651.046 614.272 621.592 619.907 596.338C611.922 607.344 603.465 618 594.561 628.276C589.231 634.385 583.535 640.141 578.107 646.158C569.39 655.821 560.477 666.9 549.578 674.239C544.172 677.879 537.618 680.241 531.19 681.197C516.742 683.344 505.543 677.405 494.256 668.918C485.81 662.568 478.337 655.017 470.378 648.09C452.064 632.152 433.786 616.617 417.416 598.608C418.416 619.352 419.603 641.102 415.587 661.616C431.488 679.221 451.495 696.74 476.277 697.966C481.392 698.219 486.388 697.698 491.43 696.896C479.597 701.777 466.744 703.672 454.005 702.415C449.852 701.968 445.669 700.486 441.496 700.593L441.002 700.003L441.496 700.593L441.427 700.784C439.583 702.41 434.197 701.963 431.773 701.944C437.887 710.169 444.595 718.05 451.079 725.989C460.049 736.97 468.917 747.947 478.528 758.38C495.448 776.746 515.076 793.808 527.885 815.387C533.041 803.183 546.064 792.983 555.289 783.732C562.554 776.45 569.75 769.098 576.874 761.677C579.898 758.511 584.092 754.97 586.513 751.346C587.436 749.964 587.887 748.224 588.348 746.64C588.746 745.274 592.712 745.276 594.11 744.107C599.298 739.774 604.543 732.138 608.981 726.803C608.355 729.249 607.26 731.584 606.3 733.916C624.233 717.027 637.824 693.64 647.88 671.283C680.569 598.607 688.413 509.988 689.316 431.114C689.734 394.686 688.823 358.003 683.101 321.973C681.031 308.935 679.212 291.992 674.623 279.922C674.564 277.904 674.231 276.604 673.329 274.798ZM783.572 281.002L783.79 281.614C785.97 290.347 789.709 298.999 792.615 307.539C796.216 318.12 799.29 328.967 802.324 339.724C811.14 370.975 818.229 402.535 824.935 434.286C834.949 481.699 845.228 531.836 844.6 580.459C844.508 587.536 843.851 594.606 843.319 601.66C844.184 599.281 844.92 596.831 845.71 594.424C856.062 550.119 852.728 499.81 845.289 455.238C843.892 446.872 842.586 438.472 840.562 430.231C831.966 395.245 819.526 362.548 805.426 329.49C801.358 320.076 797.242 310.684 793.078 301.312C790.16 294.719 787.413 287.853 783.79 281.614L783.572 281.002ZM268.103 318.064C267.542 319.356 266.964 320.401 267.158 321.85C261.637 337.635 257.703 365.03 255.466 382.043C253.717 395.339 251.88 408.695 250.714 422.054C246.186 473.911 245.015 547.632 260.677 597.006C262.245 601.949 263.477 607.622 265.902 612.197C266.32 612.985 266.312 612.941 266.745 613.552C266.905 615.347 267.624 616.6 268.749 617.966L269.105 618.722L269.665 619.824L270.14 620.782L270.65 621.799L271.172 622.744L271.408 622.997L271.172 622.744L270.65 621.799L270.14 620.782L269.665 619.824L269.105 618.722L268.749 617.966C268.71 617.758 268.678 617.548 268.631 617.341C268.325 615.996 267.934 614.289 266.745 613.552C266.302 608.607 261.492 596.761 260.032 590.95C255.899 574.222 253.149 557.182 251.81 540.003C247.108 485.313 250.965 428.369 258.322 374.086C259.677 364.088 261.231 354.21 263.132 344.298C264.51 337.115 266.422 329.703 267.109 322.43C267.127 322.237 267.142 322.043 267.158 321.85C268.123 320.468 267.995 319.72 268.103 318.064L268.369 317.502L268.103 318.064ZM403.892 334.178C414.684 334.123 434.809 333.562 444.667 336.733L444.882 336.941L444.667 336.733C440.111 328.41 434.067 321.147 429.858 312.497C415.583 283.16 409.168 240.598 412.072 208.254C410.673 211.41 409.56 214.683 408.391 217.929C403.753 230.329 400.484 244.993 398.887 258.127C396.241 279.882 396.684 313.438 403.892 334.178ZM329.376 230.254C327.115 240.679 323.198 250.572 321.271 261.173C317.156 283.813 316.133 308.534 321.6 331.011C322.661 335.37 324.116 340.799 326.679 344.492L326.99 344.998L326.679 344.492C326.195 341.34 324.852 338.146 323.982 335.052C322.451 329.672 321.287 324.194 320.499 318.656C317.396 296.261 319.242 272.397 324.449 250.437C326.036 243.747 328.948 237.235 330.085 230.496L329.376 230.254ZM757.127 365.963L757.357 366.817C757.467 370.942 758.791 375.434 759.637 379.493L764.329 402.132C767.723 419.128 770.406 436.431 772.716 453.604C775.022 470.745 776.601 488.664 777.359 505.934C777.728 514.328 776.983 523.197 778.028 531.486L778.72 531.582C779.403 528.608 778.801 524.139 778.776 521.028C778.421 477.363 771.893 433.309 763.078 390.603C761.597 383.428 760.383 373.272 757.357 366.817L757.127 365.963ZM285.646 426.373L285.215 424.017C284.67 421.105 284.524 418.244 284.483 415.284C284.409 409.927 285.118 399.89 289.268 396C290.264 395.066 291.515 394.599 292.88 394.762C299.229 395.521 305.596 405.477 309.097 410.225L309.376 410.498L309.097 410.225C307.212 401.219 303.173 391.148 299.358 382.771C294.904 380.421 288.876 377.282 283.746 378.976C281.492 379.721 280.305 381.301 279.378 383.394C272.514 398.896 277.003 427.605 283.31 442.809C286.814 451.257 291.73 458.542 297.138 465.858C311.99 485.946 328.239 499.713 351.399 509.214C343.991 494.083 337.974 478.304 331.886 462.608C328.2 453.105 325.101 443.729 320.107 434.778C319.804 441.499 317.43 450.605 322.351 456.094C325.092 459.153 329.503 460.652 331.808 463.936L331.728 464.84C330.308 465.456 329.489 465.585 328.013 465.012C323.147 463.122 316.595 456.847 314.83 451.977C312.789 446.345 315.872 437.42 318.265 432.219C315.827 427.492 313.21 420.459 309.528 416.671L308.802 416.458L308.542 416.077L308.802 416.458L309.528 416.671C310.457 420.027 306.874 426.044 305.812 429.469C298.234 453.921 319.096 462.633 328.631 480.901C318.433 473.124 307.6 462.319 303.091 450.027C298.37 437.156 301.818 426.539 307.373 414.663C304.124 410.034 298.307 400.977 292.544 399.723C291.618 399.937 291.126 399.914 290.396 400.567C286.23 404.293 286.148 420.566 285.646 426.373ZM342.053 584.003L342.291 584.553C349.016 609.068 380.558 643.47 402.839 656.077C403.816 656.63 404.846 657.016 405.925 657.315L406.481 657.497L405.925 657.315C402.63 653.831 397.199 651.137 393.323 648.159C384.2 641.026 375.77 633.047 368.147 624.329C361.368 616.488 355.043 607.852 349.838 598.885C347.386 594.66 345.76 588.805 342.738 585.083C342.592 584.904 342.44 584.73 342.291 584.553L342.053 584.003ZM723.5 613.5L723.165 614.847C723.303 614.403 723.496 613.967 723.5 613.5L723.726 612.63L723.5 613.5ZM264.498 501.341C262.828 514.65 266.386 541.928 268.888 555.515C273.901 582.731 284.101 613.332 301.723 634.882C304.38 638.131 307.31 641.767 310.791 644.161L310.998 644.412L310.791 644.161C309.007 641.105 306.027 638.366 303.747 635.653C299.801 630.957 296.509 626.276 293.496 620.945C279.128 595.519 270.141 564.263 267.054 535.267C265.99 525.263 266.373 511.406 264.693 502.335C264.631 502.003 264.563 501.672 264.498 501.341ZM311.591 645.003L311.824 645.223C312.753 646.541 313.262 647.077 314.697 647.809L315.081 648.098L315.497 648.411L315.081 648.098L314.697 647.809C313.821 646.499 313.184 646.022 311.824 645.223L311.591 645.003ZM367.61 657.003L367.833 657.74L368.723 658.743L369.056 659.149L369.697 660.348C370.133 661.972 370.694 662.348 371.856 663.523L372.508 664.5L372.811 664.821C375.079 670.539 382.681 679.33 387.787 682.649L387.998 682.899L387.787 682.649C385.551 678.99 375.978 667.891 372.811 664.821L372.508 664.5C372.366 664.161 372.07 663.824 371.856 663.523C371.292 662.203 370.961 661.16 369.697 660.348L369.056 659.149L368.723 658.743L367.833 657.74L367.61 657.003ZM257.023 667.002L257.303 667.548C258.615 677.333 266.008 692.741 270.978 701.283C278.817 714.754 290.674 725.485 306.015 729.561C307.296 728.477 308.508 727.297 309.741 726.158C311.024 724.615 312.165 722.938 313.347 721.316C291.118 711.334 278.594 701.56 265.114 680.759C262.329 676.462 260.055 671.864 257.303 667.548L257.023 667.002ZM739.617 681.794C731.219 692.131 722.493 701.97 712.153 710.423C708.024 713.798 702.652 716.053 698.889 719.748C699.137 720.831 698.917 720.376 699.465 721.15C701.947 722.506 703.383 722.692 706.13 721.936C717.532 718.795 729.352 703.839 734.719 693.779C736.663 690.135 738.992 685.916 739.617 681.794L739.875 681.539L739.617 681.794ZM694.09 696.517C692.008 697.49 689.042 701.288 687.846 703.295L687.433 703.636L687.093 703.997L687.433 703.636L687.846 703.295C688.113 703.142 688.391 703.006 688.649 702.837C690.329 701.738 693.709 698.513 694.09 696.517C694.264 696.389 694.441 696.265 694.611 696.133C708.062 685.637 721.325 633.598 723.101 615.817C719.801 623.606 718.041 637.241 715.691 646.109C712.297 658.92 707.893 672.118 701.907 683.954C699.747 688.223 696.493 691.889 694.282 696.138C694.217 696.264 694.154 696.391 694.09 696.517ZM311.262 552.468C310.741 562.865 318.535 594.246 321.885 605.212C332.474 639.873 348.707 664.452 372.503 691.438C376.388 695.845 381.659 703.01 386.8 705.737L387.078 706.091L387.692 706.602L387.986 706.878L387.692 706.602L387.078 706.091L386.8 705.737C382.508 699.537 374.939 692.882 369.741 686.931C355.207 670.29 341.279 650.666 332.734 630.24C327.616 618.036 323.347 605.494 319.956 592.702C318.631 587.523 312.482 554.048 311.262 552.468ZM389.92 708.499L390.487 709.012L391.192 709.683L391.636 710.1L392.193 710.588L392.98 711.176L392.193 710.588L391.636 710.1L391.192 709.683L390.487 709.012L389.92 708.499ZM619.047 738.773L618.272 739.095L617.178 739.669L616.503 739.997L617.178 739.669L618.272 739.095L619.047 738.773C624.722 737.176 633.143 731.044 637.915 727.368C665.367 706.226 681.887 674.094 692.746 641.902C696.292 631.389 699.749 619.875 701.121 608.864C699.441 612.794 698.575 617.241 697.45 621.364C695.616 628.315 693.575 635.209 691.329 642.038C681.041 672.329 665.116 702.18 640.632 723.332C634.104 728.972 626.327 732.785 619.75 738.187L619.047 738.773ZM627.277 802.714C627.348 802.585 627.417 802.455 627.489 802.326C630.975 796.112 635.971 790.728 639.651 784.595C648.358 770.086 655.379 753.356 660.942 737.417C645.898 743.035 630.268 747.042 614.227 748.408C608.371 748.907 602.388 748.483 596.575 749.156C587.407 758.83 578.995 769.354 569.467 778.67C562.442 785.475 555.309 792.167 548.069 798.744C544.146 802.328 539.898 805.812 536.287 809.705C558.158 812.568 574.328 832.077 587.063 848.574C599.666 864.421 613.367 878.674 627.133 893.46C632.87 878.528 637.564 862.905 642.044 847.547C651.058 816.641 658.524 785.672 663.116 753.772C663.774 749.199 665.935 741.28 664.684 736.871C661.719 741.017 660.761 748.091 658.926 752.952C653.192 768.379 644.845 782.705 634.251 795.302C632.197 797.783 629.883 800.802 627.277 802.714ZM96.0025 854.586L96.2324 854.819C99.9537 861.956 106.526 868.337 111.185 874.964C121.494 889.628 131.302 905.391 139.946 921.11C151.409 941.957 161.209 964.266 170.301 986.256C173.828 994.787 176.124 1004.27 180.163 1012.5L180.6 1013.37C179.802 1005.25 174.016 991.631 171.236 983.671C157.226 943.554 141.068 905.202 113.205 872.604C107.968 866.476 102.425 859.993 96.2324 854.819L96.0025 854.586ZM923.086 865.285C918.101 874.139 912.225 895.216 909.253 905.714C901.893 931.537 895.242 957.556 889.308 983.743C886.833 994.77 884.808 1005.9 882.397 1016.95C886.1 1009.72 888.559 996.156 890.966 987.749C898.272 963.044 905.11 938.204 911.477 913.24C913.757 904.155 915.576 894.953 917.804 885.852C919.12 880.475 922.669 870.243 923.086 865.285L923.382 865.003L923.086 865.285ZM428.15 195.228L428.416 195.96L428.15 195.228ZM443.184 210.665C447.466 237.065 454.178 262.791 465.015 287.302C466.366 290.358 468.163 295.808 470.846 297.744C462.454 277.681 454.564 257.809 449.226 236.666C447.981 231.739 445.506 213.476 443.184 210.665ZM331.664 224.25L332.021 224.25L331.664 224.25ZM331.262 225.482L331.55 225.75L331.262 225.482ZM363.193 232.75L363.567 232.75L363.193 232.75ZM362.661 233.75L363.035 233.75L362.661 233.75ZM530.885 246.342C532.693 254.109 536.224 261.354 539.876 268.403C550.36 288.635 563.74 307.537 582.946 320.418C588.073 319.609 593.49 319.811 598.638 320.349C598.48 320.199 598.324 320.047 598.163 319.9C594.308 316.368 588.527 313.949 584.175 310.895C574.78 304.303 565.221 294.542 557.888 285.691C551.138 277.544 544.993 268.722 539.235 259.854C536.943 256.323 533.501 248.921 530.885 246.342ZM395.222 246.864C386.125 275.401 387.61 305.992 390.706 335.377C392.341 335.198 393.979 334.992 395.62 334.885L401.177 334.405C393.34 315.942 392.617 288.472 393.698 268.521C394.078 261.498 395.845 253.805 395.222 246.864ZM442.277 267.25L442.745 267.25L442.277 267.25ZM671.777 268.75L672.245 268.75L671.777 268.75ZM672.172 270.184L672.498 270.507L672.172 270.184ZM383.891 271.789C380.286 289.431 379.926 306.83 381.519 324.727C381.856 328.52 381.935 332.734 382.8 336.431L383.358 336.62C384.84 336.087 385.97 335.96 386.948 334.698C386.557 328.781 385.192 323.04 384.622 317.16C383.753 308.198 383.86 298.848 383.889 289.842C383.899 286.511 384.973 274.052 383.891 271.789ZM672.715 273.149L673.074 274.103L673.444 274.235L673.262 273.073L672.715 273.149ZM783.179 279.952L783.745 280.25L783.179 279.952ZM470.704 298.25L471.118 298.25L470.704 298.25ZM471.194 299.25L471.544 299.25L471.194 299.25ZM471.713 300.25L472.069 300.25L471.713 300.25ZM507.716 301.75L508.111 301.75L507.716 301.75ZM327.14 345.75L327.537 345.75L327.14 345.75ZM327.659 346.954L328.245 347.25L327.659 346.954ZM754.089 352.25L754.502 352.25L754.089 352.25ZM756.658 364.173L756.993 364.502L756.658 364.173ZM664.373 377.615C661.898 378.016 659.532 378.347 657.211 379.354L656.737 380.088C657.782 380.549 657.309 380.454 658.114 380.529C660.598 379.944 663.159 379.486 665.484 378.41L665.566 377.861L664.373 377.615ZM589.737 378.387C588.254 380.041 586.808 381.365 586.893 383.74C586.929 384.737 587.231 385.397 587.745 386.249C588.855 387.134 590.051 387.631 591.498 387.531C592.215 387.481 592.946 387.204 593.619 386.985C595.016 386.107 596.667 385.246 597.252 383.591C597.652 382.456 597.627 381.384 596.94 380.362C595.924 378.85 594.266 378.451 592.59 378.384C591.641 378.347 590.686 378.371 589.737 378.387ZM583.626 385.331C582.863 388.478 582.016 392.358 583.779 395.318C585.813 398.732 592.449 400.193 596.189 400.73C601.954 401.558 610.158 401.78 615.058 398.248C617.173 396.722 618.051 394.594 618.82 392.193C618.919 390.788 619.185 390.293 618.343 389.123C615.902 388.552 613.585 390.025 611.579 391.256C607.387 393.829 603.698 397.496 598.43 396.414C592.202 395.134 589.056 388.237 583.626 385.331ZM676.228 385.698C676.3 387.738 676.057 390.463 676.976 392.299L677.455 392.697C677.345 390.414 677.596 387.624 676.228 385.698ZM206.545 504.313C205.121 512.09 204.899 520.357 204.532 528.244C203.482 550.82 203.881 573.294 206.654 595.737C207.72 593.114 206.622 587.751 206.501 584.775C205.815 564.249 205.685 543.707 206.111 523.174C206.198 519.397 207.504 507.133 206.71 504.688C206.668 504.558 206.6 504.438 206.545 504.313ZM778.001 533.801C777.965 536.499 777.559 539.94 778.256 542.516L778.748 542.628C778.999 539.905 779.78 536.068 778.001 533.801ZM340.723 580.75L341.072 580.75L340.723 580.75ZM341.148 581.75L341.512 581.75L341.148 581.75ZM341.762 583.25L342.205 583.25L341.762 583.25ZM207.083 596.468L207.506 596.75L207.083 596.468ZM726.086 597.969L726.509 598.25L726.086 597.969ZM725.269 603.25L725.709 603.25L725.269 603.25ZM702.206 603.968L702.501 604.25L702.206 603.968ZM701.589 606.75L702.001 606.75L701.589 606.75ZM701.187 608.166L701.372 608.509L701.187 608.166ZM724.222 609.75L724.529 609.75L724.222 609.75ZM271.733 623.75L272.169 623.75L271.733 623.75ZM272.639 625.25L273.08 625.25L272.639 625.25ZM273.26 626.25L273.745 626.25L273.26 626.25ZM316.517 649.458L317.145 649.638L316.517 649.458ZM366.712 655.25L367.089 655.25L366.712 655.25ZM367.212 656.25L367.589 656.25L367.212 656.25ZM397.573 673.455C396.313 675.323 395.073 677.125 394.098 679.163C401.746 685.451 408.747 691.19 418.391 694.123L419.754 694.387C419.928 693.166 419.451 692.242 418.782 691.203C418.674 691.036 399.015 674.501 397.573 673.455ZM390.787 686.674C389.526 688.35 388.459 688.871 386.626 689.791C386.193 690.009 385.768 690.246 385.34 690.475C396.177 707.269 414.28 724.86 434.374 729.134C436.489 729.591 438.633 729.9 440.791 730.061C442.388 730.048 444.46 730.281 445.864 729.493C443.916 726.155 440.821 723.018 438.464 719.899C433.879 713.833 429.673 707.724 425.726 701.218C412.02 699.619 400.924 696.53 390.787 686.674ZM425.081 694.385L429.967 698.46C433.114 698.948 436.323 699.612 439.516 699.539C434.782 698.153 429.817 695.21 425.081 694.385ZM358.111 715.832C361.729 727.148 369.961 737.3 380.621 742.737C386.014 745.488 392.175 747.448 398.24 747.85C400.83 748.021 403.415 747.874 405.983 748.294C401.462 751.027 387.218 749.716 381.929 748.396C376.475 747.035 371.309 744.685 366.285 742.206C377.131 778.149 391.949 812.97 406.703 847.449C410.664 856.632 414.671 865.795 418.724 874.938C421.334 880.853 423.75 886.971 426.916 892.607C435.287 884.497 443.331 876.056 451.03 867.306C466.861 850.404 495.252 815.779 517.731 810.05C510.301 799.313 499.714 790.517 490.744 781.083C475.827 765.392 461.304 749.031 448.071 731.891C443.193 733.518 438.369 735.152 433.289 736.041C413.164 739.566 391.854 734.121 373.866 725.126C368.407 722.396 363.211 719.177 358.111 715.832ZM408.635 721.75L409.245 721.75L408.635 721.75ZM534.707 813.721C532.883 816.246 530.805 818.493 530.792 821.761C531.458 823.036 531.574 823.331 532.984 823.893C536.009 825.1 546.845 824.01 550.625 824.04L552.781 823.811C552.846 822.779 552.714 822.684 552.043 821.93C548.038 817.427 540.559 814.166 534.707 813.721ZM514.533 815.527C509.971 817.36 505.433 821.341 502.011 824.822C505.866 824.847 509.769 824.993 513.617 824.782C517.989 824.573 522.364 824.42 526.74 824.323L526.35 823.852C523.718 820.63 522.646 816.153 517.988 815.563C516.831 815.416 515.694 815.468 514.533 815.527ZM579.542 850.79C575.723 856.69 571.383 860.624 566.21 865.284C561.918 882.88 555.547 899.563 550.681 916.932C555.132 930.917 561.382 944.661 567.359 958.059C571.818 968.053 576.636 978.012 579.21 988.703C580.942 995.896 581.44 1003.31 581.677 1010.68C583.138 1007.54 585.756 1003.38 586.295 1000.02C591.367 991.3 594.656 980.706 598.327 971.305C604.015 956.865 609.529 942.357 614.867 927.785C618.436 917.839 621.665 907.766 625.282 897.838C612.217 887.075 589.412 864.428 579.542 850.79ZM466.055 859.775C453.98 872.514 441.752 884.77 429.173 896.992L479.408 992.243C482.38 997.488 485.413 1002.7 488.505 1007.87C487.848 977.328 494.134 944.197 501.17 914.51C496.738 905.827 491.746 897.449 487.337 888.756C484.031 882.237 481.205 874.205 477.019 868.294C475.235 865.775 469.03 860.805 466.055 859.775ZM180.595 1014.22L180.935 1015.25L181.423 1015.3L181.226 1014.19L180.595 1014.22ZM181.354 1016.32C181.641 1018.12 181.642 1020.09 183.296 1021.2C183.45 1021.3 183.617 1021.39 183.778 1021.48C183.128 1019.83 182.575 1017.58 181.354 1016.32Z"/><path d="M548.235 382.937C550.475 372.879 559.545 363.682 567.976 358.334C577.34 352.395 592.97 349.116 603.95 350.187L603.507 350.946C587.092 351.933 569.396 355.261 557.974 368.165C553.851 372.823 551.801 378.235 548.235 382.937Z"/><path d="M547.608 353.433L547.721 352.987L547.608 353.433Z"/><path d="M339.902 359.961L340.77 360.663L339.902 359.961Z"/><path d="M340.77 360.663L342.224 360.896L342.967 362.029C341.633 361.714 341.594 361.747 340.77 360.663Z"/><path d="M342.967 362.029L343.716 362.646L342.967 362.029Z"/><path d="M343.716 362.646L344.522 363.128L344.604 363.505L343.716 362.646Z"/><path d="M447.614 393.454C440.717 382.633 426.048 374.73 413.721 372.003C392.883 367.393 372.696 373.405 354.404 383.289C369.176 369.976 386.065 365.272 405.69 366.326C424.097 367.315 437.707 374.47 449.792 388.073C452.48 391.099 456.338 395.382 457.292 399.41C453.42 395.395 450.705 391.204 446.279 387.565L447.614 393.454Z"/><path d="M452.014 415.459C451.188 414.939 451.039 414.566 450.677 413.716C448.122 407.719 440.528 400.921 435.323 397.175C434.771 406.645 432.71 416.205 425.427 422.924C420.35 427.607 413.1 430.061 406.235 429.662C399.766 429.286 393.623 426.664 389.309 421.759C382.177 413.65 381.377 403.437 382.238 393.153C382.27 392.738 382.31 392.323 382.36 391.909C375.146 395.309 369.369 399.492 363.117 404.394C364.359 408.527 366.088 412.268 368.619 415.779C370.462 418.336 382.689 430.116 382.856 430.834C381.576 430.729 380.334 430.582 379.065 430.382C377.278 427.478 371.083 425.746 368.336 423.198C362.895 418.15 358.59 411.173 354.29 405.16C351.395 404.212 348.437 403.319 345.601 402.21C343.568 401.414 341.559 400.142 339.467 399.582C339.23 399.519 338.992 399.461 338.755 399.401C341.575 396.941 345.95 397.459 349.294 395.993C353.592 394.108 358.095 389.887 361.963 387.127C377.01 376.555 395.619 372.344 413.752 375.408C427.53 377.822 438.811 387.616 446.542 398.845C448.913 402.29 454.632 409.843 453.523 414.22C453.295 415.123 452.782 415.084 452.014 415.459ZM398.577 388.992C395.739 390.953 394.477 392.445 393.207 395.64C395.415 398.425 397.129 400.502 400.889 400.975C401.417 401.042 401.95 401.071 402.481 401.108C404.439 400.272 406.054 399.273 406.943 397.241C407.583 395.778 407.506 394.147 406.798 392.727C405.944 391.012 404.289 389.741 402.465 389.209C401.133 388.821 399.944 388.878 398.577 388.992ZM424.064 406.326C422.493 408.021 421.2 411.161 419.36 412.386C415.557 414.918 408.829 415.348 407.456 420.467C407.619 422.031 407.94 422.558 408.859 423.76C410.375 423.956 411.695 423.913 413.214 423.772C417.86 422.225 423.946 415.919 425.999 411.518C426.328 410.813 426.219 410.959 426.265 410.039L425.195 409.754L425.493 409.075L426.706 409.686C427.073 408.475 427.339 407.76 427.211 406.467L424.064 406.326ZM410.963 408.799C410.417 409.457 410.449 410.42 411.04 411.039C411.63 411.658 412.59 411.737 413.273 411.223C413.792 410.832 414.04 410.179 413.912 409.543C413.783 408.907 413.301 408.401 412.672 408.242C412.043 408.083 411.378 408.3 410.963 408.799Z"/><path d="M548.028 383.498L548.235 382.937L548.028 383.498Z"/><path d="M447.614 393.454L447.906 393.998L447.614 393.454Z"/><path d="M645.125 393.998L645.401 393.703L645.125 393.998Z"/><path d="M457.292 399.41L457.682 400.151C457.249 399.549 457.279 399.826 457.292 399.41Z"/><path d="M658.222 404.712L658.45 404.965L658.222 404.712Z"/><path d="M623.376 426.68C621.915 423.82 620.408 420.969 619.031 418.068C618.179 416.272 617.586 415.047 618.281 413.119C621.708 410.663 628.249 411.112 632.358 410.494L630.846 408.998L631.132 408.273C632.829 407.347 634.34 406.922 636.232 406.552C643.012 405.951 646.858 409.441 651.757 413.541C646.741 412.44 641.536 411.924 636.444 411.268C640.926 413.662 644.126 416.77 647.602 420.441C646.61 420.003 645.626 419.576 644.586 419.264C639.622 417.777 635.331 415.155 630.606 413.101C633.129 414.758 635.436 416.581 637.774 418.484C633.784 417.397 630.511 415.849 627.023 413.68L626.889 414.003C629.998 417.849 633.167 421.511 636.557 425.116C634.213 423.759 631.815 422.398 629.637 420.783C627.746 419.381 623.672 414.713 621.648 414.346C621.124 417.907 622.74 423.077 623.376 426.68ZM622.179 412.343C623.985 414.395 626.631 417.552 629.147 418.677C627.226 416.334 625.266 412.946 622.179 412.343Z"/><path d="M595.115 411.382C589.837 412.113 584.985 410.528 580.172 408.541C585.075 408.687 590.182 410.729 595.115 411.382Z"/><path d="M600.623 412.253L599.637 412.257L600.623 412.253Z"/><path d="M605.5 413L604.503 412.629L605.5 413Z"/><path d="M605.5 413C605.824 413.051 606.568 413.101 606.848 413.247L605.5 413Z"/><path d="M611.878 426.61L611.548 426.666L611.048 426.079C610.307 421.626 610.929 418.24 611.624 413.837L610.623 413.147C611.814 413.057 612.336 412.97 613.474 413.41C614.832 416.348 612.006 422.381 611.891 425.902C611.883 426.138 611.883 426.374 611.878 426.61Z"/><path d="M615.689 423.523L615.005 422.926C614.952 419.513 615.43 416.086 615.779 412.694C616.08 413.011 616.474 413.362 616.675 413.771C617.955 416.369 616.727 420.996 615.689 423.523Z"/><path d="M451.502 416.498L452.014 415.459L451.502 416.498Z"/><path d="M600.878 424.584C600.859 424.487 600.831 424.391 600.82 424.292C600.532 421.607 604.719 417.382 606.348 415.416C606.384 418.525 602.723 422.154 600.878 424.584Z"/><path d="M449.273 422.913L449.445 422.617L449.273 422.913Z"/><path d="M440.156 427.615C442.763 425.466 446.155 424.131 449.273 422.913C449.157 423.081 449.054 423.261 448.924 423.418C446.879 425.891 443.256 427.262 440.156 427.615Z"/><path d="M362.45 443.597C362.628 441.464 363.548 438.286 363.067 436.28L361.772 436.013C362.512 435.283 363.343 434.755 364.202 434.175C364.594 433.174 364.741 433.303 364.361 432.208L362.496 431.903L362.655 431.456C364.752 430.45 366.871 430.201 369.144 429.848C368.877 429.328 369.017 429.398 368.41 429.151C366.352 428.311 363.195 429.238 361.21 429.983C357.455 431.391 356.853 432.97 355.333 436.38C355.116 435.877 355.079 435.846 354.95 435.222C354.616 433.603 354.792 431.703 355.956 430.451C361.654 424.319 372.055 430.231 378.562 430.383C378.73 430.387 378.898 430.382 379.065 430.382C380.592 431.721 381.317 431.577 383.255 431.765C391.218 432.54 400.808 437.122 408.896 434.181L409.276 433.663C409.533 433.698 409.788 433.742 410.045 433.768C412.445 434.014 414.74 432.591 417.246 432.732L417.274 433.19C414.358 434.395 410.843 434.931 407.702 434.894L407.454 435.393L408.137 436.613C407.05 436.737 406.572 436.564 405.519 436.308C403.71 435.869 401.773 435.39 400.022 436.265C399.124 437.797 399.742 439.188 400.172 440.851L400.498 442.083L400.103 442.505C398.27 440.434 398.874 437.521 396.717 435.759C395.868 436.486 395.823 436.663 395.47 437.672L394.907 437.339C393.406 436.464 392.204 435.855 390.51 435.475L389.995 435.844C392.583 440.229 391.687 441.02 392.054 445.773C390.148 441.812 386.338 440.826 384.618 436.954L378.596 447.643C379.677 443.268 381.353 439.553 383.72 435.733C381.876 436.476 380.532 437.383 378.991 438.64L378.461 439.079L378.166 438.983L378.405 436.38L377.758 435.931C377.628 435.989 377.49 436.031 377.367 436.104C375.078 437.459 372.822 442.18 372.317 444.71C372.24 444.619 372.146 444.54 372.086 444.437C370.663 442.001 372.508 437.266 373.266 434.708L372.793 434.153C371.568 434.457 370.844 434.719 369.572 434.464L369.727 432.924L369.215 432.845C365.972 435.991 364.304 439.562 362.45 443.597ZM386.641 436.502L387.02 436.98C387.102 437.495 387.013 437.129 387.585 437.957L387.02 436.98L386.641 436.502Z"/><path d="M428.81 429.182L428.589 428.525L428.81 429.182Z"/><path d="M428.81 429.182L429.498 429.414L428.81 429.182Z"/><path d="M361.26 432.676L361.998 432.021L361.26 432.676Z"/><path d="M360.502 432.883L361.26 432.676L360.502 432.883Z"/><path d="M358.795 441.749C358.461 441.066 358.177 440.408 358.01 439.662C357.448 437.152 357.88 435.691 359.284 433.597L359.537 433.738C359.541 433.985 359.578 434.233 359.55 434.478C359.264 436.938 358.925 439.249 358.795 441.749Z"/><path d="M409.276 433.663L409.128 433.002L409.276 433.663Z"/><path d="M372.317 444.71L372.998 444.888L372.317 444.71Z"/><path d="M392.054 445.773L392.374 445.998L392.054 445.773Z"/><path d="M528.751 515.006C527.257 515.06 525.824 515.954 524.467 515.952C523.345 515.95 523.379 515.673 522.791 514.974L522.973 513.891C524.754 511.366 526.723 509.815 529.508 508.495C530.32 508.466 531.227 508.388 532.03 508.503C533.337 508.69 534.3 509.24 535.081 510.319C535.934 511.498 535.989 512.397 535.877 513.792C535.203 514.889 534.893 515.551 533.579 515.988C532.119 516.474 530.122 515.51 528.751 515.006Z"/><path d="M538.328 515.75L539.71 511.775L540.208 511.624C540.418 512.952 540.47 513.338 539.591 514.494C539.297 514.882 538.7 515.408 538.328 515.75Z"/><path d="M509.826 519.625C506.035 519.146 501.37 519.488 497.805 518.27C496.209 517.725 495.72 517.07 495.021 515.582C495.065 513.756 495.684 512.697 496.574 511.129C498.777 511.438 507.444 517.379 510.152 518.951L509.826 519.625Z"/><path d="M538.046 515.91L538.328 515.75L538.046 515.91Z"/><path d="M468.566 562.927C468.664 561.375 468.532 560.877 469.508 559.622C471.886 559.147 475.292 560.852 477.919 560.931C484.102 561.118 490.225 559.726 496.412 559.838C502.884 559.956 509.234 561.537 515.718 561.425C521.116 561.331 525.399 558.323 530.509 557.927C537.078 557.418 543.649 560.032 550.249 559.718C555.651 559.462 560.499 556.44 565.949 555.801C566.423 557.282 566.739 557.784 566.355 559.322C565.083 560.447 564.022 560.934 562.339 561.243C555.843 562.437 548.885 562.003 542.298 562.805C531.589 564.108 521.092 568.098 510.21 567.443C505.593 567.166 500.954 566.679 496.329 566.641C489.529 566.584 480.261 567.913 473.786 566.135C471.789 565.587 470.135 564.213 468.566 562.927Z"/><path d="M467.597 563.497L468.566 562.927L467.597 563.497Z"/><path d="M545 582.501L545.497 582.063L545 582.501Z"/><path d="M544.658 582.811L545 582.501L544.658 582.811Z"/><path d="M495.092 586.712C494.137 586.014 493.607 585.689 492.934 584.704C511.278 589.895 526.617 588.903 544.658 582.811C540.328 587.622 532.329 590.819 526.127 592.173C515.468 594.585 504.287 592.618 495.092 586.712Z"/><path d="M594.829 698.715C597.852 687.256 601.571 676.321 603.628 664.58C604.693 658.498 604.298 648.242 607.004 643.026C606.918 656.985 603.381 688.367 594.829 698.715Z"/><path d="M172.746 691.691L173.126 692.076L172.746 691.691Z"/><path d="M173.126 692.076L173.486 692.429L173.126 692.076Z"/><path d="M491.43 696.896L491.998 696.553L491.43 696.896Z"/><path d="M594.586 698.997L594.829 698.715L594.586 698.997Z"/><path d="M231.355 748.169L231.998 748.391L231.355 748.169Z"/><path d="M626.918 803.111L627.277 802.714L626.918 803.111Z"/><path d="M626.615 803.497L626.918 803.111L626.615 803.497Z"/></svg>