<?xml version="1.0" encoding="utf-8" ?><svg xmlns="http://www.w3.org/2000/svg" xmlns:xlink="http://www.w3.org/1999/xlink" width="1024" height="1024" viewBox="0 0 1024 1024"><path fill="white" d="M0 0L0 1024L1024 1024L1024 0L0 0Z"/><path d="M141.945 609.229C125.454 604.662 110.698 594.364 102.202 579.352C89.3484 556.641 90.7641 533.981 97.608 509.633C100.73 498.527 105.479 488.635 109.825 478.049C112.082 472.552 113.874 466.872 116.208 461.403C121.799 448.3 128.233 435.622 134.847 423.015C138.442 416.136 142.096 409.287 145.807 402.47C148.164 398.161 150.888 393.87 152.817 389.355C145.686 320.988 234.732 178.323 277.226 125.925C282.435 119.502 287.65 112.949 293.256 106.872C329.411 67.6771 378.75 32.5468 430.764 18.5979C442.2 15.5311 454.297 13.7349 466.064 12.5293C518.503 7.15652 576.855 15.6347 624.503 38.7061C643.327 47.9769 660.986 59.4441 677.113 72.8679C718.863 106.959 746.39 155.263 768.517 203.499C770.65 208.148 772.91 212.77 774.719 217.556C776.558 222.423 777.94 227.56 780.069 232.304C783.28 239.458 787.673 246.596 791.762 253.282C808.582 280.699 826.144 307.654 844.429 334.118C877.333 381.395 918.674 428.411 924.701 488.145C927.345 514.355 924.157 542.312 907.518 563.573C906.848 582.296 900.89 603.922 886.86 617.087C882.024 621.609 876.295 625.069 870.042 627.243C883.983 618.008 889.763 607.073 893.05 590.879C893.234 589.976 893.409 589.071 893.577 588.165C890.965 593.374 888.632 598.702 885.43 603.59C873.379 621.987 853.754 635.366 833.172 642.491C852.47 631.348 865.165 615.136 871.005 593.583C882.147 552.458 872.871 508.554 856.325 470.24C858.715 479.818 861.126 489.394 862.564 499.17C863.977 508.775 864.425 518.567 864.506 528.267C864.787 562.34 857.814 591.899 840.22 621.187C833.029 633.159 818.655 652.319 805.559 657.837C829.695 636.72 840.078 607.464 844.461 576.594C845.064 572.347 846.028 567.972 846.32 563.714C846.618 559.367 846.736 555.064 847.284 550.737C847.396 549.855 847.375 550.199 847.233 549.225C846.354 551.727 846.712 554.819 846.395 557.475C845.663 563.682 844.688 569.859 843.474 575.99C835.811 613.026 814.975 651.182 779.609 668.103C767.921 673.695 756.624 676.205 743.732 676.937C748.215 674.937 752.727 672.972 756.827 670.244C770.844 660.914 780.444 645.162 786.311 629.716C790.815 617.86 793.228 605.612 795.286 593.146C791.643 601.194 788.987 609.519 784.961 617.434C775.568 635.897 755.565 660.612 735.441 667.937C735.229 668.014 735.014 668.085 734.798 668.147L735.136 667.844C738.922 664.502 743.225 661.776 746.903 658.306C761.506 644.528 771.352 625.733 777.866 606.925C774.488 611.776 771.273 616.784 767.563 621.388C753.432 638.924 733.991 656.191 713.276 665.432C704.128 669.513 694.372 672.191 684.718 674.778C690.169 681.216 695.864 687.439 701.376 693.824C704.879 697.883 708.169 702.183 711.793 706.124C730.823 704.236 752.563 697.651 768.943 710.997C774.905 715.854 780.104 724.817 785.867 728.375C789.426 730.572 793.929 731.73 797.805 733.261C802.685 735.189 807.259 737.819 812.084 739.868C821.052 743.677 829.878 744.895 835.411 753.835C851.517 760.034 875.137 776.345 882.467 792.519C884.631 797.294 885.316 802.624 886.067 807.764C901.743 816.323 916.2 825.19 930.469 835.964C934.518 839.021 938.894 841.983 942.394 845.664C956.971 860.994 972.274 903.807 978.324 924.465C984.347 945.029 989.175 966.385 993.213 987.43C995.354 998.586 996.823 1013.52 1000.32 1024L843.258 1024C844.877 1012.88 849.509 1001.64 853.247 991.074C865.64 956.026 880.354 926.458 901.018 895.553C908.65 884.139 917.014 873.253 924.871 862.001L924.587 861.862C915.37 872.414 906.379 883.301 898.356 894.795C873.261 930.743 848.653 981.155 838.527 1024L631.294 1024C640.797 1017.41 650.713 1011.48 660.146 1004.73C682.377 988.785 702.903 970.588 721.398 950.428C738.09 932.39 753.808 913.197 769.131 893.986C795.346 861.119 826.46 819.483 861.593 796.602C868.784 798.538 875.163 802.36 881.677 805.87C879.773 800.699 877.828 795.96 874.751 791.371C866.097 778.468 848.531 766.105 834.773 758.981C827.411 769.847 816.693 779.069 807.484 788.394C798.136 797.862 789.109 807.795 780.367 817.827C764.477 836.062 750.191 855.604 734.286 873.825C694.595 919.3 651.136 960.589 601.168 994.697C585.846 1005.16 569.727 1014.31 553.929 1024L522.861 1024C532.564 1017.84 542.684 1012.39 552.568 1006.53C563.232 1000.12 573.711 993.398 583.993 986.385C631.49 954.03 674.75 915.854 712.762 872.75C725.559 858.452 738.269 843.831 750.529 829.073C756.691 821.656 762.518 813.958 768.814 806.653C785.309 787.514 806.808 770.881 820.906 750.033C816.556 747.743 811.773 746.786 807.021 745.703C793.61 760.228 778.179 773.001 765.181 787.882C750.871 804.266 737.747 821.718 723.808 838.413C702.31 864.161 676.529 892.132 651.795 914.765C627.41 936.909 602.006 957.904 575.665 977.681C565.333 985.436 554.42 992.682 543.658 999.834C536.972 1004.28 529.505 1008.57 523.615 1014.05C520.67 1016.79 518.375 1020.86 515.777 1024L503.34 1024C508.378 1012.53 514.616 1001.38 520.228 990.157C532.874 964.88 545.56 939.75 557.088 913.927C522.02 924.086 475.208 925.496 440.198 914.622C442.428 924.129 445.975 933.316 449.222 942.511C455.313 960.223 462.083 977.694 469.517 994.886C473.715 1004.7 477.576 1015 483.381 1024L471.782 1024C468.565 1020.89 466.554 1016.83 463.348 1013.89C458.813 1009.73 452.413 1006.44 447.315 1002.89C436.939 995.584 426.69 988.099 416.575 980.438C380.672 953.302 347.146 923.521 320.547 887.003C298.146 856.247 266.075 804.002 258.145 766.482C256.079 756.706 255.607 746.758 257.158 736.875C253.649 738.081 246.565 740.261 244.811 743.807C241.058 751.393 246.695 776.068 249.185 784.479C256.533 809.295 271.029 835.08 284.665 856.984C333.4 935.272 383.683 980.252 464.523 1024L431.047 1024C399.577 1006.34 368.202 982.928 342.872 957.19C324.424 938.346 307.341 918.212 291.754 896.941C269.117 865.87 234.81 808.347 226.923 770.582C225.772 765.074 225.408 759.805 225.448 754.186C217.657 756.904 198.078 763.313 192.985 768.865C190.599 771.465 190.267 776.082 190.474 779.426C191.323 793.21 201.507 813.007 207.455 825.408C245.072 903.842 299.098 967.699 365.011 1024L37.044 1024C38.358 1007.47 42.0355 991.023 45.7329 974.882C53.6993 940.107 63.5287 904.663 77.8024 871.891C81.1957 864.1 84.9405 852.997 90.1463 846.519C93.4753 842.377 98.0578 839.028 102.27 835.83C127.528 816.66 157.407 802.577 186.789 791.024C185.401 786.369 184.198 781.21 184.47 776.327C184.733 771.618 186.67 766.643 190.358 763.562C197.747 757.391 214.041 753.286 223.252 748.84C228.547 746.285 233.042 742.066 238.172 739.149C254.417 729.914 272.809 721.773 290.775 716.58C295.02 715.378 299.364 714.553 303.754 714.114C310.048 713.474 317.558 714.047 323.414 711.373C331.921 707.489 343.95 694.766 351.246 688.036C323.373 680.861 300.156 663.993 281.688 642.232C277.292 637.053 273.873 631.019 269.422 625.936L268.753 625.183L268.32 624.763L268.11 624.003L268.32 624.763L268.753 625.183C277.148 648.014 300.25 678.784 322.297 688.832C323.568 689.4 324.854 689.937 326.153 690.439L325.538 690.359C317.37 689.364 309.089 689.876 300.893 688.826C274.639 685.463 249.399 672.666 232.735 651.86C228.968 647.157 225.668 640.808 221.336 636.789L221.118 636.503L221.336 636.789C224.855 649.736 240.462 671.562 249.58 680.574C253.073 684.026 258.027 686.599 261.208 690.18C258.877 689.635 256.708 688.478 254.588 687.39C212.148 665.624 186.444 636.767 169.019 592.685C165.577 583.978 162.975 574.987 160.078 566.092C162.639 595.365 167.272 632.794 184.428 657.274C188.489 663.069 194.206 668.105 199.181 673.154C192.769 670.412 186.087 664.152 180.968 659.462C146.348 627.742 139.564 600.49 137.526 555.24C122.203 540.892 116.541 525.013 112.843 504.839C106.187 525.93 103.193 549.099 109.553 570.666C112.917 582.072 120.2 594.988 129.889 602.188C133.636 604.972 137.865 606.992 141.945 609.229ZM443.134 50.2123L444 50.5L445.937 51.2082L446.497 51.4317L445.937 51.2082L444 50.5L443.134 50.2123ZM492.482 58.4147C491.257 58.8667 491.729 58.4813 491.04 59.538L490.538 59.9975L491.04 59.538C492.237 59.1191 491.75 59.4861 492.482 58.4147C496.503 56.6981 500.265 53.0357 504.138 50.8378C510.148 47.4275 517.162 45.9856 523.674 43.8572C523.088 43.8644 522.524 43.8852 521.94 43.9417C512.503 44.8558 498.608 51.0579 492.482 58.4147ZM416.125 56.3093C418.01 57.6433 428.666 57.0026 431.726 57.3315C436.823 57.8791 441.661 59.3268 446.689 60.0591L447.7 60.1993L448.796 60.6992L449.498 60.9912L448.796 60.6992L447.7 60.1993C439.048 55.5162 425.608 55.6459 416.125 56.3093ZM570.019 82.0025L571 82.5L571.587 82.8043L571.982 83.0963C579.053 88.24 586.684 92.2077 593.522 97.7837C636.463 132.797 667.044 182.869 685.994 234.398C689.767 244.657 692.981 255.16 696.144 265.624C697.206 269.137 697.974 272.76 699.154 276.227C701.178 271.887 681.759 214.632 679.148 207.464C676.702 200.756 674.06 194.121 671.226 187.568C669.534 183.556 667.462 179.46 666.284 175.27L666.837 175.803C674.439 183.196 679.583 193.891 684.615 203.153C703.524 237.952 722.333 282.07 722.622 322.3C722.67 328.859 722.6 335.447 721.882 341.972C721.426 346.128 720.316 350.289 720.195 354.46C721.4 351.306 721.576 347.746 722.391 344.457C723.569 339.7 723.8 334.498 724.185 329.609C724.96 319.779 724.978 310.085 723.906 300.267C719.082 256.076 696.396 198.289 673.037 160.516C659.35 138.383 642.209 119.467 623.742 101.327C618.47 96.1486 610.671 88.1886 604.009 85.1688L603.12 84.6116L602.854 84.0858L601.324 83.7203L601.061 83.0025L601.324 83.7203L602.854 84.0858L603.12 84.6116L604.009 85.1688C608.458 89.527 613.468 93.301 617.779 97.8023C630.851 111.452 655.829 144.087 661.109 162.204C654.393 156.427 648.188 146.103 642.361 139.065C624.475 117.46 597.958 92.936 571.587 82.8043L571 82.5L570.019 82.0025ZM693.503 142.074L694.256 142.736L694.44 143.498L694.256 142.736L693.503 142.074ZM703.054 156.502L703.252 157.278L704.227 158.202L704.402 158.498L704.227 158.202L703.252 157.278L703.054 156.502ZM331.98 158.483L331.32 159.194L331.115 159.401C325.837 163.833 321.367 170.612 317.213 176.081C291.946 209.347 273.78 251.301 270.123 293.089C268.617 310.292 268.375 328.838 270.73 345.976L271.166 346.06C271.075 333.443 270.532 321.101 271.379 308.48C274.253 265.668 290.858 227.76 310.96 190.388C314.582 183.655 318.812 177.392 323.198 171.142C325.785 167.455 329.284 163.499 331.115 159.401L331.32 159.194L331.98 158.483L332.645 157.554L331.98 158.483ZM514.035 160.002L514.312 160.532C514.416 161.019 514.448 161.229 514.635 161.748C515.818 165.032 526.595 191.657 527.848 192.654C528.255 192.977 528.792 193.09 529.265 193.308C529.435 192.794 529.599 192.408 529.607 191.84C529.663 187.925 516.995 163.818 514.312 160.532L514.035 160.002ZM709.096 166.502L709.317 167.246L710.215 168.223L710.406 168.498L710.215 168.223L709.317 167.246L709.096 166.502ZM711.108 170.002L711.35 170.754L711.901 170.998L711.35 170.754L711.108 170.002ZM712.582 172.502L712.803 173.251L713.79 174.312L714.093 175.287L714.416 175.498L714.093 175.287L713.79 174.312L712.803 173.251L712.582 172.502ZM715.601 178.002L715.822 178.744L716.782 179.815L717.091 180.785L717.671 181.798L718.131 182.78L718.407 182.998L718.131 182.78L717.671 181.798L717.091 180.785L716.782 179.815L715.822 178.744L715.601 178.002ZM624.502 178.002L625.256 178.73L625.476 179.498L625.256 178.73L624.502 178.002ZM625.538 180.002L625.758 180.766L626.779 181.776L627.083 182.084L627.663 183.358L627.997 183.498L627.663 183.358L627.083 182.084L626.779 181.776L625.758 180.766L625.538 180.002ZM721.11 188.502L721.332 189.24L721.997 189.998L721.332 189.24L721.11 188.502ZM579.625 206.041L579.879 206.266C580.419 210.957 583.671 214.626 586.702 218.011C585.59 214.196 582.552 209.168 579.879 206.266L579.625 206.041ZM733.507 214.502L733.63 215.873L734.497 216.498L733.63 215.873L733.507 214.502ZM735.028 218.002L735.149 219.371L736.355 220.262L736.497 220.998L736.355 220.262L735.149 219.371L735.028 218.002ZM736.503 221.502L737 222.5L737.691 223.925L737.904 225.312L738.284 225.514C739.111 229.268 746.7 249.416 748.708 252.034L749.14 253.397L749.665 254.958L750.154 256.432L750.66 257.942L751.157 259.438L751.66 260.94L752.213 262.415L752.497 262.998L752.213 262.415L751.66 260.94L751.157 259.438L750.66 257.942L750.154 256.432L749.665 254.958L749.14 253.397L748.708 252.034C747.676 245.519 742.171 230.88 738.284 225.514C738.275 224.297 738.48 224.823 737.691 223.925L737 222.5L736.503 221.502ZM306.376 226.74L306.125 226.962L306.376 226.74C310.675 222.903 314.59 213.278 316.125 207.692C310.507 214.473 308.294 217.931 306.376 226.74ZM410.995 186.968C410.273 206.244 416.895 239.618 427.201 255.428L427.413 255.998L427.201 255.428C426.565 251.84 425.252 248.175 424.276 244.651C422.212 237.408 420.277 230.13 418.47 222.819C415.646 211.004 414.302 198.609 410.995 186.968ZM317.299 259.699L317.126 260.164L317.299 259.699C320.317 254.031 321.699 246.845 324.048 240.792C328.277 229.896 333.085 219.18 337.437 208.321C339.303 203.665 341.774 198.581 342.651 193.641C336.271 203.232 318.756 248.528 317.299 259.699ZM409.071 157.926C406.822 168.703 405.11 179.541 404.592 190.55C403.587 211.856 407.478 229.85 417.744 248.56C420.319 253.255 423.034 258.21 426.656 262.177L426.886 262.471L426.656 262.177C425.12 256.703 421.612 251.866 419.623 246.538C414.988 234.127 411.34 215.87 410.169 202.754C409.4 194.136 408.633 185.212 408.776 176.553C408.821 173.819 410.469 155.971 409.908 154.994L409.071 157.926ZM316.5 262.5L316.125 262.998L316.5 262.5L316.788 261.634L316.5 262.5ZM753.712 267.134L754 268L754.722 270.129L755 271L755.327 271.997C756.169 277.344 758.269 282.93 759.763 288.158C762.619 298.145 765.391 308.167 768.369 318.118L769.271 318.309C769.311 315.059 757.324 274.861 755.327 271.997L755 271L754.722 270.129L754 268L753.712 267.134ZM623.012 269.502L623.5 270L624.158 271.316L624.455 271.497L624.158 271.316L623.5 270L623.012 269.502ZM624.502 272.002L625 272.5L625.708 273.917L626.122 274.743L626.642 275.096L627.149 276.377L627.646 277.26L627.997 277.498L627.646 277.26L627.149 276.377L626.642 275.096L626.122 274.743L625.708 273.917L625 272.5L624.502 272.002ZM748.55 280.502L749 281.5L749.722 283.629L750 284.5L750.721 286.63L751 287.5L751.288 288.366L751 287.5L750.721 286.63L750 284.5L749.722 283.629L749 281.5L748.55 280.502ZM433.684 189.224C433.671 189.435 433.655 189.647 433.645 189.859C432.384 216.011 442.963 248.331 455.103 271.132C457.573 275.772 460.22 281.067 463.742 284.953L464.161 285.667L464.627 286.125L464.915 286.498L464.627 286.125L464.161 285.667L463.742 284.953C461.343 278.317 457.231 272.192 454.765 265.471C451.488 256.536 449.38 247.224 446.841 238.065C443.61 226.412 440.203 215.075 437.624 203.238C436.672 198.871 435.924 193.123 433.684 189.224ZM752.212 291.634L752.5 292.5L753.221 294.629L753.394 295.134C753.537 297.574 754.014 299.605 755.509 301.578C755.177 299.234 754.473 297.232 753.394 295.134L753.221 294.629L752.5 292.5L752.212 291.634ZM449.649 198.851C449.608 199.213 449.564 199.574 449.536 199.937C447.585 225.383 457.392 258.036 468.545 280.93C470.81 285.58 473.386 291.025 476.783 294.943L477.142 295.671L477.634 296.123L478.151 297.281L478.584 297.621L479.136 298.788L479.418 298.998L479.136 298.788L478.584 297.621L478.151 297.281L477.634 296.123L477.142 295.671L476.783 294.943C475.447 290.743 472.83 286.594 471.026 282.529C468.02 275.751 465.561 268.679 463.245 261.639C458.87 248.169 455.437 234.411 452.972 220.465C451.717 213.285 451.069 205.998 449.649 198.851ZM578.358 290.54L578.357 291.666C580.522 295.086 583.095 299.265 586.244 301.808L586.584 302.086C586.87 302.629 587.083 303.044 587.5 303.5L588.171 304.202C588.429 304.66 588.643 305.111 589 305.5L589.671 306.203C589.93 306.657 590.15 307.109 590.5 307.5L591.17 308.203C591.426 308.62 591.679 309.134 592 309.5L592.688 310.187L593.109 310.625C593.527 311.683 593.589 311.832 594.5 312.5L595.178 313.197C595.681 314.801 596.49 315.33 597.777 316.278L598.083 316.583L598.651 317.162C599.268 318.558 599.588 318.778 600.819 319.715L601.076 320.087L601.659 320.655L602.128 321.129L602.617 321.665L603.101 322.169L603.589 322.685L604.084 323.186L604.677 323.973L604.084 323.186L603.589 322.685L603.101 322.169L602.617 321.665L602.128 321.129L601.659 320.655L601.076 320.087L600.819 319.715C600.229 318.467 599.767 317.968 598.651 317.162L598.083 316.583L597.777 316.278C597.005 314.754 596.607 314.131 595.178 313.197L594.5 312.5C594.137 311.362 593.963 311.375 593.109 310.625L592.688 310.187L592 309.5C591.794 309.015 591.476 308.63 591.17 308.203L590.5 307.5C590.293 307.016 589.976 306.629 589.671 306.203L589 305.5C588.801 305.053 588.444 304.611 588.171 304.202L587.5 303.5C587.268 302.975 586.918 302.55 586.584 302.086L586.244 301.808C585.474 299.381 580.554 291.772 578.358 290.54ZM405.625 303.502L405.903 303.78C408.71 317.748 415.718 339.681 421.184 352.769C425.353 355.058 429.643 357.242 433.561 359.944C431.454 359.69 429.318 359.226 427.238 359.784L426.655 360.498C427.427 367.189 447.948 383.55 454.179 388.688C439.127 384.214 427.168 373.814 417.5 361.876C411.971 361.38 406.356 361.302 400.808 360.894C405.799 371.644 413.412 378.619 421.235 387.165C411.053 383.555 399.479 369.556 393.183 360.897C375.524 359.857 354.447 359.385 336.907 360.541C328.834 381.538 321.836 395.969 302.289 408.189C304.782 418.396 306.149 428.969 308.391 439.253C315.024 469.678 323.065 499.651 335.118 528.447C341.332 543.292 349.287 557.151 359.786 569.409C383.871 597.531 446.86 641.951 480.891 655.877C497.297 662.591 507.419 663.544 523.865 656.56C540.518 649.489 556.37 638.514 570.68 627.53C608.233 598.704 640.897 564.414 658.742 519.839C664.139 506.359 669.738 490.861 672.653 476.67C676.616 457.371 678.922 397.35 671.469 379.986C665.922 376.475 660.147 372.343 653.951 370.128C650.175 368.778 645.837 368.359 641.898 367.577C637.625 366.729 633.362 365.628 629.164 364.478C620.408 362.078 612.503 357.75 603.894 355.216C589.241 350.903 559.498 352.936 544.225 354.816C547.885 363.23 552.18 371.353 557.075 379.114C560.853 377.275 564.653 375.572 568.666 374.304C583.728 369.546 606.511 368.94 621.746 372.622C627.092 373.914 631.895 375.943 636.769 378.454C630.133 377.698 623.755 374.788 617.186 374.291C615.385 374.155 614.928 374.287 613.532 375.422L613.903 374.395L613.401 373.804C605.392 372.791 597.293 372.696 589.262 373.521C575.957 374.828 560.726 379.93 550.5 388.772C546.606 392.14 543.417 396.118 540.156 400.078C543.422 391.662 547.543 386.898 554.419 381.106C540.735 377.513 528.972 369.071 518.122 360.282C514.97 357.729 512.015 354.78 508.677 352.494C508.563 352.416 508.448 352.34 508.333 352.264L508.067 352.022L508.333 352.264C513.633 361.911 533.653 377.049 543.314 382.549C508.97 382.43 487.224 381.949 458.1 360.412C451.055 355.202 444.836 349.004 437.871 343.737L437.593 343.502L437.871 343.737C445.122 353.258 457.557 364.66 466.746 372.558C470.613 375.882 477.299 380.384 480.202 384.245C474.793 382.513 469.144 378.288 464.391 375.111C446.14 362.916 430.974 345.722 419.568 327.045C414.89 319.384 410.795 311.295 405.903 303.78L405.625 303.502ZM647.003 310.002L647.5 311L647.997 311.498L647.5 311L647.003 310.002ZM648.003 312.002L648.5 312.5L649.208 313.917L649.622 314.743L649.984 314.998L649.622 314.743L649.208 313.917L648.5 312.5L648.003 312.002ZM650.065 315.503L650.286 316.257L651.223 317.232L651.422 317.498L651.223 317.232L650.286 316.257L650.065 315.503ZM759.12 317.502L759.5 318C759.494 318.467 759.694 318.902 759.835 319.344C759.827 318.958 759.604 318.379 759.5 318L759.12 317.502ZM760.125 322.002L760.373 322.749L760.877 322.998L760.373 322.749L760.125 322.002ZM760.621 324.002L760.892 324.239C760.972 327.34 761.676 332.53 763.463 335.072C763 331.483 762.578 327.481 760.892 324.239L760.621 324.002ZM766.124 351.502L766.666 351.774L766.876 352.498L766.666 351.774L766.124 351.502ZM766.624 354.502L766.873 355.249L767.377 355.498L766.873 355.249L766.624 354.502ZM767.124 357.502L767.371 358.249L767.881 358.997L767.371 358.249L767.124 357.502ZM767.625 360.502L767.873 361.249L768.376 361.498L767.873 361.249L767.625 360.502ZM768.116 363.002L768.634 363.749L768.881 364.498L768.634 363.749L768.116 363.002ZM651.003 368.111L651.737 368.328L651.997 368.987L651.737 368.328L651.003 368.111ZM157.092 427.757C151.392 434.39 147.049 443.017 142.215 450.34C136.383 459.175 129.837 467.609 124.33 476.647C122.981 478.862 121.617 481.231 120.895 483.734C119.118 489.89 120.08 497.9 120.562 504.265C121.547 517.269 124.648 530.528 130.137 542.383C132.209 546.618 134.515 550.623 137.466 554.315C137.438 524.926 140.727 495.629 147.271 466.979C149.242 458.102 151.814 449.316 154.152 440.529C155.188 436.639 157.024 431.762 157.092 427.757L157.375 427.502L157.092 427.757ZM688.742 484.009C703.15 476.807 708.679 468.624 718.71 456.817C717.398 461.179 714.158 465.466 711.354 469.001C704.607 477.511 692.816 488.268 682.542 492.052C680.387 492.846 677.748 492.96 675.467 493.214C672.232 501.852 669.932 510.826 666.652 519.48C674.164 519.145 680.324 516.567 686.586 512.541C690.253 510.214 693.633 507.46 696.652 504.337C701.229 499.68 705.207 494.129 709.241 488.993C716.414 479.86 724.264 470.335 730.111 460.298C732.62 455.991 734.921 451.265 735.943 446.355C738.632 433.437 733.809 409.092 726.451 398.242C724.209 394.935 721.089 392.167 717.033 391.518C710.885 390.534 705.219 394.29 700.516 397.757C699.929 398.274 699.315 398.785 699.002 399.532C697.708 402.628 697.573 414.729 696.872 419.267C698.756 416.291 701.216 413.429 703.884 411.121C706.223 409.098 709.241 407.288 712.455 407.617C715.214 407.898 717.438 409.733 719.029 411.895C724.721 419.632 726.32 432.136 724.811 441.41C723.202 432.955 720.459 423.397 715.188 416.432C713.686 414.448 711.493 412.008 708.796 411.924C707.544 411.885 706.35 412.364 705.553 413.349C703.427 415.977 704.651 421.987 704.91 425.196C703.924 422.905 702.896 420.632 701.827 418.379C699.464 420.711 697.503 423.18 695.825 426.043C701.392 433.945 702.094 440.788 701.452 450.077C699.274 443.372 698.845 436.999 695.072 430.827C693.997 435.523 691.783 440.299 691.317 445.064C690.915 449.175 691.279 453.45 691.236 457.584C691.144 466.476 690.486 475.278 688.742 484.009ZM748.5 487C748.252 487.713 748.053 488.08 748.164 488.842C747.204 491.246 744.044 500.795 744.691 502.797C747.045 500.021 748.171 492.424 748.164 488.842C748.526 488.26 748.455 487.67 748.5 487L748.879 486.002L748.5 487ZM263.505 501.003L264.353 501.628L264.475 502.998L264.353 501.628L263.505 501.003ZM264.518 503.502L264.639 504.872L265.497 505.498L264.639 504.872L264.518 503.502ZM771.5 513.5L770.792 514.917L770.503 515.497L770.792 514.917L771.5 513.5L771.997 512.503L771.5 513.5ZM231.58 398.21C231.547 398.408 231.502 398.604 231.481 398.804C230.796 405.205 231.385 412.531 231.736 418.961C233.359 448.677 237.998 480.169 249.503 507.801C251.246 511.986 253.242 517.035 256.237 520.472L256.623 521.213L257.206 522.006C258.681 526.502 263.151 534.047 266.833 537.013L267.228 537.611C268.065 539.531 268.797 540.632 270.38 542.028C270.807 543.267 270.429 542.781 271.5 543.5C271.95 544.648 272.255 545.074 273.254 545.8L273.583 546.101C274.065 547.126 274.028 547.321 275 548L275.315 548.31C277.467 552.617 285.002 559.832 289.268 562.287L289.588 562.579C290.581 564.017 291.213 564.485 292.766 565.288L293.088 565.579L293.684 566.13C294.364 566.976 294.755 567.376 295.769 567.784L296.09 568.077C296.792 568.924 296.911 569.126 297.986 569.511L298.693 570.183L299.155 570.581C299.596 570.914 300.001 571.259 300.5 571.5L301.204 572.167C301.612 572.441 302.054 572.8 302.5 573L303.209 573.656C303.616 573.934 304.054 574.293 304.5 574.5C304.986 574.866 305.437 575.25 305.983 575.522L306.701 576.171L307.792 576.682L308.078 577.119L309.315 577.67L309.575 578.109L310.885 578.664L311.722 579.174L312.104 579.615L313.291 580.125L313.498 580.417L313.291 580.125L312.104 579.615L311.722 579.174L310.885 578.664L309.575 578.109L309.315 577.67L308.078 577.119L307.792 576.682L306.701 576.171L305.983 575.522C305.55 575.14 304.982 574.822 304.5 574.5C304.139 574.174 303.623 573.915 303.209 573.656L302.5 573L301.204 572.167L300.5 571.5C300.114 571.152 299.591 570.868 299.155 570.581L298.693 570.183L297.986 569.511C297.338 568.602 297.072 568.526 296.09 568.077L295.769 567.784C295.103 566.839 294.777 566.521 293.684 566.13L293.088 565.579L292.766 565.288C291.775 563.984 291.175 563.206 289.588 562.579L289.268 562.287C286.252 557.907 279.559 551.73 275.315 548.31L275 548C274.614 546.926 274.425 546.806 273.583 546.101L273.254 545.8C272.845 544.724 272.351 544.259 271.5 543.5C271.112 542.264 271.479 542.76 270.38 542.028C269.548 540.19 268.764 538.935 267.228 537.611L266.833 537.013C265.379 533.003 260.092 525.235 257.206 522.006L256.623 521.213L256.237 520.472C255.569 517.603 253.557 514.577 252.326 511.874C250.326 507.586 248.561 503.193 247.038 498.713C239.589 476.736 235.418 453.357 233.557 430.266C233.296 427.022 232.719 423.799 232.575 420.55C232.462 417.986 232.74 400.101 232.182 398.979C232.037 398.688 231.781 398.466 231.58 398.21ZM716.5 556.5L715.816 557.191L715.405 557.645C713.348 559.055 708.659 563.019 707.866 565.294L707.914 565.512C709.832 564.696 714.172 560.333 715.13 558.426C715.254 558.179 715.313 557.905 715.405 557.645L715.816 557.191L716.5 556.5L716.997 556.003L716.5 556.5ZM305.582 558.003L305.796 558.748L306.792 559.823L307.087 560.782L307.672 561.799L308.137 562.792L308.651 563.795L308.852 564.208C312.691 575.774 330.15 591.706 340.86 597.175C341.709 597.608 342.567 597.949 343.474 598.234L344.219 598.611L344.498 598.91L344.219 598.611L343.474 598.234C338.519 593.335 330.219 589.197 324.403 583.728C320.415 579.978 316.984 575.54 313.84 571.076C312.399 569.03 311.124 566.612 309.413 564.791C309.229 564.594 309.039 564.402 308.852 564.208L308.651 563.795L308.137 562.792L307.672 561.799L307.087 560.782L306.792 559.823L305.796 558.748L305.582 558.003ZM314.002 580.584L314.745 580.796L315.711 581.697L315.998 581.885L315.711 581.697L314.745 580.796L314.002 580.584ZM192.999 498.841C192.901 499.571 192.848 500.293 192.817 501.029C192.566 506.966 193.162 513.07 193.519 518.999C195.241 547.582 200.854 575.552 212.453 601.832C214.626 606.756 217.064 612.991 220.721 616.98L221.126 617.711L222 619C222.313 619.486 222.623 620.064 223 620.5L223.717 621.788L224.097 622.08L224.684 623.283L225.091 623.599L225.693 624.777L226.09 625.097L226.498 625.916L226.09 625.097L225.693 624.777L225.091 623.599L224.684 623.283L224.097 622.08L223.717 621.788L223 620.5C222.742 619.983 222.33 619.478 222 619C221.775 618.518 221.445 618.134 221.126 617.711L220.721 616.98C219.605 611.853 215.352 606.07 213.192 601.099C209.1 591.561 205.755 581.72 203.188 571.664C198.863 555.118 196.342 538.102 194.728 521.094C194.065 514.113 194.462 506.71 193.192 499.834L192.999 498.841ZM347.621 628.003L347.845 628.737L348.273 628.899C349.224 631.569 351.231 634.236 352.769 636.608C360.621 648.716 370.083 658.838 382.493 666.292L386.672 663.913L387.735 663.356L387.933 662.686C377.899 656.658 368.95 650.515 360.705 642.078C356.551 637.828 352.852 632.646 348.273 628.899L347.845 628.737L347.621 628.003ZM417.625 647.003L417.929 647.266C418.334 652.983 420.566 659.163 421.817 664.799C426.853 687.498 434.52 712.927 431.594 736.3C430.487 724.288 427.886 712.093 424.731 700.458C418.051 709.28 411.67 716.582 402.986 723.528C403.021 754.918 406.971 786.262 412.011 817.192C436.846 830.142 446.074 828.622 464.97 852.126C457.166 848.039 452.085 840.614 444.714 836.047C439.536 832.838 433.613 830.939 427.994 828.661C422.869 826.584 417.911 824.248 412.948 821.815C417.536 839.595 420.853 859.826 427.789 876.669C436.54 880.506 446.572 883.142 455.896 885.227C496.956 894.407 536.599 889.411 575.966 875.409C583.261 857.779 591.749 840.066 600.753 823.265C584.615 829.87 567.112 831.962 551.636 839.942C546.209 843.095 540.867 846.343 535.723 849.944C528.121 855.265 520.917 861.08 512.57 865.227C525.424 851.638 541.205 838.444 559.183 832.415C567.53 829.615 576.252 827.95 584.677 825.388C591.069 823.445 597.176 820.707 603.505 818.573C607.96 811.46 610.992 802.794 614.226 795.04C624.777 769.745 634.205 744.14 641.408 717.672C637.969 714.097 635.061 709.446 632.524 705.206C628.659 698.745 625.124 691.838 622.905 684.621C615.066 659.13 616.91 622.184 617.415 595.375C604.501 607.796 592.658 621.706 580.223 634.648C564.969 650.606 548.702 665.566 531.524 679.433C522.557 686.745 509.879 696.965 498.633 699.752C494.599 700.751 490.341 700.614 486.239 700.177C479.372 699.445 472.046 698.205 465.723 695.308C447.556 686.984 430.349 662.523 417.929 647.266L417.625 647.003ZM105.131 863.872L105.309 864.388C106.352 872.724 109.686 882.429 111.649 890.769C119.294 923.253 126.932 955.374 137.173 987.171C139.799 995.325 142.274 1005.02 146.549 1012.46C146.143 1008.61 144.428 1004.27 143.367 1000.51L136.258 975.172L114.878 896.263C112.607 888.018 109.001 871.266 105.309 864.388L105.131 863.872ZM440.631 49.75L441.245 49.75L440.631 49.75ZM450.135 52.75L450.745 52.75L450.135 52.75ZM411.969 76.6122C362.936 89.7124 314.175 148.23 289.609 190.663C264.637 233.797 250.567 284.988 246.821 334.514C246.232 342.306 245.262 350.674 245.68 358.458L245.968 358.574L246.085 357.996C249.373 284.585 275.01 213.932 319.564 155.495C332.275 138.655 345.413 123.37 361.111 109.233C370.207 101.042 380.329 93.2918 391.018 87.3043C394.149 85.5506 412.681 77.0784 412.981 76.6223L411.969 76.6122ZM450.161 88.0592C431.325 93.028 416.361 107.624 406.751 124.053C379.173 171.198 373.608 278.218 387.477 330.602C388.862 335.95 390.564 341.211 392.572 346.358C397.365 346.676 406.081 350.651 409.714 350.095L409.53 349.545C396.659 328.567 389.46 304.654 384.637 280.671C383.168 273.365 381.626 265.762 381.482 258.301C381.299 248.779 383.004 239.017 384.242 229.594C386.85 209.748 389.756 190.383 394.41 170.878C401.126 142.73 415.798 109.745 440.883 93.7202C443.573 92.0019 450.37 90.0698 452.141 88.0722L450.161 88.0592ZM691.668 139.75L692.118 139.75L691.668 139.75ZM697.679 148.25L698.105 148.25L697.679 148.25ZM698.681 149.75L699.088 149.75L698.681 149.75ZM702.204 155.25L702.657 155.25L702.204 155.25ZM513.206 158.25L513.552 158.25L513.206 158.25ZM513.701 159.25L514.126 159.25L513.701 159.25ZM704.754 159.25L705.245 159.25L704.754 159.25ZM705.697 160.75L706.13 160.75L705.697 160.75ZM706.604 162.25L707.066 162.25L706.604 162.25ZM707.18 163.25L707.599 163.25L707.18 163.25ZM707.761 164.25L708.245 164.25L707.761 164.25ZM708.681 165.75L709.127 165.75L708.681 165.75ZM710.725 169.25L711.204 169.25L710.725 169.25ZM712.144 171.75L712.62 171.75L712.144 171.75ZM714.687 176.25L715.176 176.25L714.687 176.25ZM715.218 177.25L715.693 177.25L715.218 177.25ZM718.635 183.75L719.087 183.75L718.635 183.75ZM719.169 184.75L719.609 184.75L719.169 184.75ZM719.694 185.75L720.141 185.75L719.694 185.75ZM720.219 186.75L720.675 186.75L720.219 186.75ZM720.746 187.75L721.245 187.75L720.746 187.75ZM425.344 190.22C423.658 202.035 427.481 228.617 434.432 238.507C434.548 238.672 434.679 238.825 434.802 238.984L435.289 238.969L435.265 233.969C436.517 236.692 437.875 239.407 439.005 242.181C439.373 243.244 439.348 243.715 440.245 244.437L440.4 244.905C441.596 239.319 430.817 209.915 428.677 202.64C427.605 198.997 427.219 193.381 425.344 190.22ZM235.374 197.913C206.17 243.321 170.668 306.485 160.91 359.499C159.868 365.158 157.611 373.013 158.743 378.646C163.238 372.417 166.651 364.771 170.299 357.982C176.103 347.182 182.34 336.374 187.343 325.177C191.017 316.954 193.722 308.288 196.614 299.772C201.135 286.458 205.619 273.084 210.587 259.93C213.925 251.092 235.426 200.952 235.374 197.913ZM728.244 202.75L728.678 202.75L728.244 202.75ZM728.725 203.75L729.171 203.75L728.725 203.75ZM729.197 204.75L729.602 204.75L729.197 204.75ZM729.66 205.75L730.072 205.75L729.66 205.75ZM575.565 206.165C575.614 209.732 576.331 212.763 578.998 215.294C579.232 215.516 579.477 215.725 579.706 215.952C580.728 216.964 581.038 218.057 581.456 219.385C582.246 215.549 580.464 211.734 578.369 208.578C577.565 207.366 576.908 206.714 575.565 206.165ZM310.819 206.891C309.317 208.457 308.014 210.033 306.76 211.804C306.5 210.889 306.376 210.02 306.269 209.077L305.691 209.11C300.668 215.126 299.139 223.376 298.732 231.006L299.759 232.124C303.367 230.403 308.711 214.613 310.204 210.397C310.631 209.189 310.982 208.211 310.819 206.891ZM562.669 208.7C561.995 211.872 564.182 216.297 565.873 219.02C566.449 219.948 566.866 220.434 567.909 220.853C568.877 220.69 568.937 220.872 569.586 220.062C568.988 218.968 568.767 218.864 568.813 217.658C568.899 215.419 566.395 210.43 564.643 209.259C564.072 208.877 563.331 208.787 562.669 208.7ZM731.251 209.25L731.703 209.25L731.251 209.25ZM553.55 209.309C555.31 212.025 559.015 218.654 562.186 219.613C562.925 219.836 562.83 219.658 563.583 219.218C563.511 218.852 563.446 218.212 563.295 217.879C562.477 215.949 561.118 211.5 559.134 210.664C558.428 211.605 558.522 212.155 558.371 213.299L557.68 213.367C556.501 212.051 555.156 210.066 553.55 209.309ZM731.71 210.25L732.13 210.25L731.71 210.25ZM569.393 210.849C569.063 214.207 570.424 216.536 572.029 219.339C572.004 216.726 571.976 213.475 570.085 211.405C569.885 211.186 569.624 211.034 569.393 210.849ZM732.13 211.25L732.549 211.25L732.13 211.25ZM732.765 212.75L733.245 212.75L732.765 212.75ZM733.219 213.75L733.666 213.75L733.219 213.75ZM345.511 214.33C343.085 219.317 339.469 227.503 340.72 233.141C343.64 228.027 346.809 221.023 345.716 214.998C345.675 214.769 345.58 214.552 345.511 214.33ZM734.739 217.25L735.234 217.25L734.739 217.25ZM465.23 217.726C466.109 223.561 468.687 234.906 473.673 238.49C473.785 238.57 473.912 238.626 474.031 238.694C472.98 235.268 467.885 219.283 465.23 217.726ZM514.291 217.797C515.574 220.34 516.908 224.112 519.35 225.702C518.121 222.599 517.414 219.407 514.291 217.797ZM586.73 218.25L587.138 218.25L586.73 218.25ZM351.342 218.349C350.383 221.077 348.532 225.297 349.181 228.139L349.588 228.503C351.241 226.254 352.591 223.615 352.282 220.725C352.183 219.798 352.008 219.017 351.342 218.349ZM517.571 218.717C518.366 220.782 519.953 226.614 521.622 227.754C521.711 225.203 521.326 221.738 519.355 219.846C518.796 219.31 518.249 219.04 517.571 218.717ZM354.133 219.243C353.699 221.472 352.736 224.462 353.339 226.666C354.154 224.538 355.28 222.127 354.427 219.845C354.349 219.636 354.231 219.443 354.133 219.243ZM520.522 219.224C521.463 221.602 522.247 224.316 523.864 226.318C523.476 224.132 523.206 220.913 521.177 219.607C520.964 219.47 520.74 219.352 520.522 219.224ZM469.949 219.891C469.899 224.772 471.464 230.111 473.975 234.317L474.281 234.224C473.935 231.618 473.258 229.261 472.474 226.767C474.461 229.071 476.313 231.299 478.811 233.073C478.949 232.771 479.131 232.476 479.179 232.148L480.257 231.304L481.849 232.163C481.935 229.339 480.96 226.345 479.681 223.856L478.979 223.636L477.492 224.962C476.365 224.229 476.139 222.888 475.676 221.693C475.331 220.803 475.535 221.136 475.017 220.522C474.246 221.695 474.186 223.197 473.058 223.967C471.608 222.905 471.021 221.269 469.949 219.891ZM490.659 223.129C489.827 223.49 488.379 223.796 488.074 224.684C487.703 225.763 487.95 226.728 488.138 227.816L488.857 228.642L489.382 228.415C489.334 227.305 489.242 226.228 489.099 225.127C489.256 225.19 489.423 225.231 489.569 225.317C490.637 225.943 491.249 227.35 491.86 228.394L492.351 228.491C492.793 226.862 492.613 225.26 491.719 223.81C491.594 223.606 491.439 223.423 491.299 223.23L490.659 223.129ZM493.593 223.204C493.597 225.599 494.192 226.852 495.494 228.837C495.437 226.984 495.635 224.83 494.066 223.53C493.918 223.408 493.751 223.312 493.593 223.204ZM370.595 244.842C366.965 256.52 362.874 268.136 359.723 279.952C353.389 303.695 348.461 327.491 340.98 350.958C344.672 349.89 348.374 348.699 352.129 347.888C362.909 345.483 373.944 344.422 384.984 344.73C375.384 320.217 372.676 293.555 371.164 267.476C370.855 262.148 371.605 249.118 370.595 244.842ZM739.69 257.25L740.069 257.25L739.69 257.25ZM740.684 259.75L741.077 259.75L740.684 259.75ZM752.667 263.958L753.245 264.25L752.667 263.958ZM753.17 265.46L753.745 265.75L753.17 265.46ZM790.856 264.85C795.635 278.706 800.842 292.376 805.816 306.159C814.355 329.822 822.902 353.008 833.478 375.868C860.018 433.233 906.79 495.167 907.59 560.219L910.17 554.123C912.857 546.075 913.362 537.402 913.846 528.978C916.391 484.681 902.472 442.14 882.902 402.925C866.104 369.265 840.991 339.826 820.018 308.746C813.468 298.876 806.98 288.964 800.556 279.012C797.707 274.629 794.676 268.293 790.856 264.85ZM621.117 266.25L621.608 266.25L621.117 266.25ZM743.206 266.25L743.587 266.25L743.206 266.25ZM621.726 267.25L622.245 267.25L621.726 267.25ZM622.631 268.75L623.178 268.75L622.631 268.75ZM744.18 268.75L744.563 268.75L744.18 268.75ZM745.735 272.75L746.164 272.75L745.735 272.75ZM746.695 275.25L747.082 275.25L746.695 275.25ZM699.602 277.465L700.062 277.75L699.602 277.465ZM522.535 283.861C525.989 300.622 531.665 326.553 539.202 341.476C550.386 337.383 559.834 336.446 571.636 336.392L575.138 336.386L575.539 335.888C571.937 331.51 565.589 327.857 561.049 324.31C556.294 320.585 551.764 316.581 547.484 312.319C543.059 307.974 538.738 303.562 534.76 298.799C531.477 294.867 526.189 286.679 522.535 283.861ZM465.644 287.75L466.071 287.75L465.644 287.75ZM751.684 289.967L752.245 290.25L751.684 289.967ZM479.748 299.75L480.245 299.75L479.748 299.75ZM755.24 302.734L755.594 303.912L756.225 303.8L755.997 302.632L755.24 302.734ZM755.85 305.21C756.368 307.191 757.313 313.178 758.731 314.232L759.104 314.213C758.504 311.85 757.83 306.474 755.85 305.21ZM758.953 315.992L759.274 316.138L758.953 315.992ZM235.589 316.25L236 316.25L235.589 316.25ZM651.708 318.25L652.224 318.25L651.708 318.25ZM653.154 320.75L653.618 320.75L653.154 320.75ZM760.093 320.75L760.516 320.75L760.093 320.75ZM234.818 320.722C234.656 322.808 234.104 325.384 235.146 327.268C235.389 325.039 235.965 322.768 234.818 320.722ZM653.746 321.75L654.245 321.75L653.746 321.75ZM654.641 323.25L655.084 323.25L654.641 323.25ZM655.222 324.25L655.646 324.25L655.222 324.25ZM656.72 326.75L657.142 326.75L656.72 326.75ZM234.523 328.322C233.439 336.684 233.241 345.091 232.698 353.495C231.925 365.473 230.813 377.511 231.271 389.53C231.81 390.206 231.49 390.059 232.104 390.181C232.024 384.187 232.069 378.232 232.422 372.246C232.784 366.103 236.298 332.611 234.523 328.322ZM762.918 335.285C763.293 337.16 763.228 338.333 764.586 339.719C764.292 338.08 764.367 336.352 762.918 335.285ZM764.31 341.077L764.784 341.51L764.31 341.077ZM764.796 343.583L765.273 344.014L764.796 343.583ZM765.36 346.621L765.808 347.019L765.36 346.621ZM765.806 349.081L766.272 349.514L765.806 349.081ZM245.255 361.315L245.186 364.988L245.768 365.224C246.034 363.883 246.221 362.899 245.919 361.528L245.255 361.315ZM234.042 362.746C234.589 403.317 243.892 447.132 257.1 485.323C258.184 488.457 260.92 498.197 263.187 500.267C263.402 500.463 263.661 500.607 263.897 500.777C252.61 471.876 244.418 441.86 239.461 411.231C238.326 404.231 234.993 364.351 234.042 362.746ZM768.804 366.08L769.273 366.514L768.804 366.08ZM769.302 368.577C769.461 368.729 769.584 368.987 769.803 369.005L769.302 368.577ZM769.954 370.983L770.303 371.134L769.954 370.983ZM770.309 373.133L770.668 373.557L770.878 373.513L770.309 373.133ZM782.88 424.41C783.078 426.41 783.04 428.91 783.889 430.736L784.821 431.379C784.648 428.986 784.608 426.548 783.911 424.241L782.88 424.41ZM297.873 450.291C300 463.466 301.396 477.22 309.749 488.153C310.915 489.679 312.096 491.441 313.628 492.613C310.307 481.628 306.346 471.176 302.147 460.507C300.856 457.225 299.753 453.23 297.873 450.291ZM683.19 467.34C681.289 475.137 679.102 482.74 676.383 490.297L676.715 490.822L677.215 490.846C679.955 489.71 682.37 488.723 683.592 485.832C685.62 481.037 684.416 472.368 683.19 467.34ZM300.872 480.286C301.172 487.008 302.13 500.868 305.288 506.498C307.986 511.311 313.516 516.135 317.583 519.885C319.836 521.963 321.96 523.882 324.94 524.816C322.209 517.08 319.607 507.605 315.632 500.463C313.073 495.866 308.989 492.298 305.876 488.084C304.041 485.6 302.73 482.691 300.872 480.286ZM774.869 504.803L774.696 505.335L775.094 505.369L775.201 504.887L774.869 504.803ZM265.694 506.25L266.121 506.25L265.694 506.25ZM773.869 507.311L773.702 507.836L774.092 507.869L774.211 507.392L773.869 507.311ZM266.165 507.457L266.745 507.75L266.165 507.457ZM266.751 508.75L267.245 508.75L266.751 508.75ZM772.838 509.746L772.7 510.323L773.075 510.365L773.008 509.817L772.838 509.746ZM267.187 509.75L267.591 509.75L267.187 509.75ZM267.613 510.75L268.033 510.75L267.613 510.75ZM772.146 511.75L772.745 511.75L772.146 511.75ZM770.145 516.25L770.738 516.25L770.145 516.25ZM769.647 517.25L770.245 517.25L769.647 517.25ZM769.176 518.25L769.745 518.25L769.176 518.25ZM768.722 519.25L769.245 519.25L768.722 519.25ZM300.201 547.25L300.563 547.25L300.201 547.25ZM300.694 548.25L301.101 548.25L300.694 548.25ZM301.172 549.25L301.556 549.25L301.172 549.25ZM301.665 550.25L302.099 550.25L301.665 550.25ZM302.152 551.25L302.563 551.25L302.152 551.25ZM302.645 552.25L303.108 552.25L302.645 552.25ZM303.144 553.25L303.567 553.25L303.144 553.25ZM718.933 553.739L719.083 554.074L719.139 554.076L718.933 553.739ZM303.652 554.25L304.118 554.25L303.652 554.25ZM304.165 555.25L304.585 555.25L304.165 555.25ZM304.684 556.25L305.146 556.25L304.684 556.25ZM305.194 557.25L305.624 557.25L305.194 557.25ZM316.633 582.25L317.245 582.25L316.633 582.25ZM317.634 582.75L318.245 582.75L317.634 582.75ZM345.137 599.25L345.745 599.25L345.137 599.25ZM346.135 599.75L346.745 599.75L346.135 599.75ZM347.136 600.25L347.745 600.25L347.136 600.25ZM348.135 600.75L348.745 600.75L348.135 600.75ZM650.774 603.367C646.79 615.164 641.294 629.071 629.363 634.913C628.283 635.435 627.192 635.935 626.091 636.411L630.343 638.775L634.04 641.03C639.927 633.516 651.95 613.724 650.859 603.798C650.843 603.653 650.802 603.511 650.774 603.367ZM676.806 620.391C669.079 632.835 661.4 641.813 647.735 647.728L652.197 649.823C654.477 651.123 656.796 652.382 659.032 653.755C665.211 646.512 677.554 630.263 676.806 620.391ZM323.12 626.25L323.533 626.25L323.12 626.25ZM323.332 626.849C331.042 645.052 346.76 668.849 364.775 678.04C366.593 676.883 368.471 675.772 370.192 674.475L372.779 672.338C357.591 666.111 342.347 651.496 332.23 638.654C329.567 635.273 326.647 629.35 323.332 626.849ZM565.366 895.087C532.056 906.463 496.466 909.504 461.709 903.944C452.584 902.509 443.742 900.289 434.787 898.081C435.499 901.299 436.136 904.529 437.272 907.631C470.68 918.224 506.924 918.534 541.155 911.717C547.825 910.389 554.193 907.968 560.811 906.557C562.512 902.953 564.45 899.325 565.721 895.548L565.366 895.087ZM146.662 1012.96L147.245 1013.25L146.662 1012.96ZM147.2 1014.25L147.538 1014.25L147.2 1014.25Z"/><path d="M661.109 162.204L661.381 162.47L661.109 162.204Z"/><path d="M612.819 376.233L613.532 375.422L612.819 376.233Z"/><path d="M612.406 376.707L612.819 376.233L612.406 376.707Z"/><path d="M540.045 428.806C540.246 426.998 540.484 425.195 540.757 423.397C543.499 405.941 556.005 388.951 572.574 382.299C580.224 379.228 588.661 378.14 596.843 377.624C600.735 377.379 609.527 378.795 612.406 376.707L612.876 377.803C615.235 378.735 617.735 378.598 620.238 378.652C621.377 377.804 622.352 376.821 623.846 376.852C623.884 378.214 623.199 378.615 622.379 379.642C626.641 380.813 630.313 383.167 634.504 384.526C637.525 385.506 641.026 385.67 644.185 385.999C641.713 386.669 639.173 387.11 636.663 387.613C642.337 391.026 648.912 392.398 655.13 394.533C653.368 396.342 651.331 397.919 649.701 399.855C647.678 402.257 646.167 405.344 644.464 408.004C637.743 418.494 629.8 431.714 618.074 436.934C625.185 428.972 630.612 420.459 632.58 409.883C627.465 402.319 620.537 396.187 612.031 392.865C616.636 404.384 616.998 413.249 612.757 424.906C612.691 425.034 612.622 425.16 612.56 425.29C611.285 427.941 609.381 430.099 607.354 432.21C603.039 436.704 597.532 438.89 591.348 438.985C582.976 439.114 574.809 436.339 568.802 430.353C560.655 422.234 560.194 412.332 560.137 401.571C552.241 410.155 544.826 417.998 540.045 428.806ZM605.437 421.29L604.505 420.938C603.308 420.476 601.457 419.049 600.323 419.441C600.48 420.76 601.017 421.746 601.607 422.91L601.427 423.7C602.772 424.044 604.671 422.709 605.974 422.153C605.807 421.859 605.702 421.501 605.437 421.29C605.553 421.198 605.652 421.078 605.785 421.013C607.269 420.283 608.015 420.446 608.97 418.91C609.642 417.827 609.523 418.374 609.253 417.099C608.072 415.969 606.932 415.814 605.397 415.491C603.757 415.58 603.032 415.774 601.793 416.8L601.751 417.918C602.615 419.687 603.787 420.294 605.437 421.29ZM582.19 395.897C579.875 397.337 578.338 398.382 577.673 401.14C577.294 402.709 577.483 404.233 578.519 405.537C579.655 406.966 581.083 407.345 582.797 407.617C584.825 406.746 586.268 406.059 587.121 403.876C587.718 402.347 587.853 400.574 587.148 399.058C586.504 397.671 585.213 396.544 583.745 396.111C583.204 395.952 582.737 395.939 582.19 395.897ZM576.604 416.24L575.931 417.985C577.158 420.053 583.228 422.249 585.568 422.844C588.144 423.5 591.043 423.874 593.446 422.44C594.398 421.873 595.198 420.989 595.963 420.198C596.705 419.012 597.397 418.446 597.252 417.009C596.5 416.517 596.545 416.297 595.608 416.514C594.581 416.751 593.764 417.291 592.856 417.804C589.344 419.787 586.032 419.233 582.301 418.15C580.414 417.603 578.53 416.463 576.604 416.24Z"/><path d="M336.376 389.814C348.077 384.978 362.313 381.81 374.885 380.702C379.491 380.25 384.268 380.109 388.884 380.481C404.731 381.76 418.268 389.634 428.585 401.625C421.814 396.603 407.524 388.3 399.346 386.168C378.684 379.373 357.061 388.792 336.376 389.814Z"/><path d="M480.202 384.245L480.628 384.554L480.202 384.245Z"/><path d="M480.628 384.554L481.722 385.164L480.628 384.554Z"/><path d="M481.722 385.164L481.998 385.385L481.722 385.164Z"/><path d="M427.795 408.2C423.045 403.792 419.281 401.357 413.482 398.584C423.424 408.341 431.112 416.928 434.558 430.741C430.392 423.719 425.435 417.683 420.226 411.439C422.002 421.024 422.922 429.352 416.884 437.846C412.658 443.792 406.848 447.316 399.652 448.417C391.517 449.663 382.485 449.266 375.589 444.312C369.812 440.162 366.444 433.586 365.404 426.658C363.887 416.558 367.351 407.758 372.581 399.293C362.701 402.289 349.303 409.173 344.216 418.658C342.862 421.184 343.301 425.516 341.222 427.249C339.71 427.47 338.236 427.624 336.711 427.723C340.154 432.389 344.552 436.427 348.763 440.395C352.096 442.921 355.452 445.055 359.202 446.913C351.767 445.875 343.3 439.97 338.021 434.811C336.176 433.008 333.74 429.341 331.421 428.584C325.955 426.8 314.797 420.25 309.892 416.907C318.114 419.393 324.826 420.801 332.796 416.532C333.707 416.044 334.28 415.656 334.838 414.76C334.433 413.625 334.398 413.625 333.332 413.163C328.708 411.164 323.489 411.567 318.455 409.281C320.787 408.859 323.089 408.39 325.46 408.272C322.977 406.52 320.688 404.75 318.467 402.675C328.424 404.737 335.941 403.528 344.831 398.729C340.437 397.396 337.515 396.105 334.031 393.073C333.937 392.991 333.84 392.912 333.745 392.831C344.61 395.974 353.604 391.741 364.126 389.627C369.57 388.534 374.991 388.28 380.531 388.281C379.269 387.958 374.05 387.062 373.51 386.223C377.026 386.212 380.615 387.384 384.051 388.123C396.268 390.75 416.302 395.25 425.119 404.401C426.196 405.527 427.098 406.807 427.795 408.2ZM410.823 432.263C412.232 431.734 413.061 431.415 414.019 430.172C414.171 428.886 413.927 428.874 413.13 427.826C411.191 426.857 409.125 426.585 407.054 427.293C406.829 427.37 406.61 427.463 406.385 427.54C405.726 427.764 405.437 427.72 404.776 427.573L403.281 428.306C403.916 428.766 405.552 429.621 405.671 430.377C405.831 431.402 405.393 432.087 405.201 433.072C405.154 433.312 405.162 433.56 405.142 433.804C407.197 434.489 409.722 434.517 411.818 433.997C411.632 432.943 411.514 432.998 410.823 432.263ZM384.938 410.4C383.126 412.102 381.973 413.666 381.925 416.246C381.894 417.876 382.564 419.405 383.754 420.516C385.223 421.889 386.741 421.986 388.667 422.157C390.511 420.71 391.557 419.43 391.797 417.02C391.96 415.391 391.419 413.819 390.364 412.576C389.152 411.15 387.581 410.524 385.729 410.427C385.465 410.413 385.201 410.409 384.938 410.4Z"/><path d="M421.235 387.165L421.475 387.417L421.235 387.165Z"/><path d="M454.179 388.688L454.473 388.91L454.179 388.688Z"/><path d="M427.795 408.2L428.101 408.592L427.795 408.2Z"/><path d="M428.101 408.592L428.583 409.215L428.101 408.592Z"/><path d="M428.583 409.215L428.98 409.881L428.583 409.215Z"/><path d="M409.5 431.5C408.74 431.312 408.089 431.35 407.577 430.734C408.612 430.883 408.688 430.751 409.5 431.5Z"/><path d="M409.5 431.5L410.823 432.263L409.5 431.5Z"/><path d="M561.782 439.913L561.503 439.625L561.782 439.913Z"/><path d="M561.782 439.913C567.364 440.188 573.375 442.358 578.656 444.115C573.229 443.919 566.507 442.673 561.782 439.913Z"/><path d="M608.831 443.061C613.067 441.957 617.746 441.915 622.093 441.225C622.244 441.201 622.4 441.219 622.553 441.216C617.93 444.87 614.142 443.01 608.831 443.061Z"/><path d="M608.345 443.245L608.831 443.061L608.345 443.245Z"/><path d="M621.993 444L622.958 443.502L621.993 444Z"/><path d="M620.554 445.02L620.624 444.312L621.993 444L621.34 444.983L620.554 445.02Z"/><path d="M604.383 447.982C602.592 448.321 601.001 448.569 599.175 448.504C602.669 447.12 606.52 446.427 610.179 445.567C611.633 445.313 613.051 445.517 614.508 445.651C612.889 447.118 606.731 447.582 604.383 447.982Z"/><path d="M338.613 447.227C338.122 447.437 337.756 447.401 337.229 447.406C338.491 446.519 339.869 446.334 341.347 446.026C342.333 446.008 342.529 445.822 343.348 446.435C341.781 447.146 340.312 447.148 338.613 447.227Z"/><path d="M344.542 449.66C345.8 448.9 345.995 448.603 347.433 448.742C346.455 449.764 345.888 449.536 344.542 449.66Z"/><path d="M611.912 449.929L611.572 450.117C610.118 450.052 609.943 449.532 608.929 448.539C609.998 448.486 610.776 448.41 611.778 448.827L611.912 449.929Z"/><path d="M605.895 449.627L605.442 449.469L605.895 449.627Z"/><path d="M344.031 449.933L344.542 449.66L344.031 449.933Z"/><path d="M362.907 456.46C359.153 456.67 355.05 454.875 351.595 453.544C355.499 453.541 359.317 455.037 362.907 456.46Z"/><path d="M718.71 456.817L718.913 456.502L718.71 456.817Z"/><path d="M370.4 459.007C365.719 457.75 363.216 459.755 358.713 460.547C360.6 458.856 362.54 458.277 364.886 457.479C368.833 457.606 373.777 458.472 377.501 459.769C375.143 460.068 372.723 459.422 370.4 459.007Z"/><path d="M375.628 462.739C371.861 463.736 368.113 462.199 364.468 461.192C364.693 461.167 364.918 461.137 365.143 461.116C367.695 460.874 373.607 461.078 375.628 462.739Z"/><path d="M477.725 526.98C474.661 526.12 471.828 525.393 469.295 523.35C466.639 521.207 464.822 518.322 464.539 514.874C464.204 510.803 466.169 506.868 468.788 503.883C469.116 506.833 467.788 509.959 468.068 513.101C468.681 519.986 473.921 522.755 478.601 526.801L477.725 526.98Z"/><path d="M495.43 525.62L495.413 525.412C496.195 523.677 499.003 522.164 500.566 520.993L500.733 521.71C499.668 524.038 497.649 524.698 495.43 525.62Z"/><path d="M445.277 571.663C442.091 569.534 435.544 565.597 434.129 561.953C433.835 561.197 434.107 561.057 434.422 560.388C437.941 559.074 443.923 561.332 447.48 562.117C457.587 564.348 468.115 565.355 478.451 565.71C504.107 566.591 530.123 562.495 554.606 555.025C555.057 554.983 555.508 554.929 555.961 554.919C557.549 554.884 558.283 555.36 559.371 556.455C559.785 557.956 559.945 558.869 559.162 560.281C554.693 568.346 537.402 576.076 528.794 578.365C499.728 586.093 471.991 587.071 445.277 571.663ZM541.207 562.69C514.795 568.515 483.963 568.721 457.077 566.426C459.312 569.593 461.667 572.675 464.135 575.664C467.043 579.436 471.759 580.265 476.256 580.871C488.789 582.559 522.215 581.587 532.031 574.427C535.712 571.741 538.466 567.035 541.214 563.42L541.207 562.69Z"/><path d="M520.195 597.745L520.423 597.559L520.195 597.745Z"/><path d="M479.807 603.084L478.43 602.041C480.4 601.362 488.631 603.622 491.603 603.625C501.845 603.636 510.669 601.352 520.195 597.745C517.625 601.213 513.345 603.745 509.341 605.199C499.052 608.932 489.49 607.667 479.807 603.084Z"/><path d="M141.945 609.229L142.737 609.601L141.945 609.229Z"/><path d="M142.737 609.601L144.475 610.215L142.737 609.601Z"/><path d="M144.475 610.215L145.172 610.633L144.475 610.215Z"/><path d="M145.172 610.633L145.498 610.891L145.172 610.633Z"/><path d="M598.162 639.88L598.327 639.373L598.162 639.88Z"/><path d="M534.944 807.353C536.995 798.869 542.321 790.244 545.853 782.198C553.073 765.749 560.136 749.088 566.524 732.3C575.159 709.608 582.639 686.503 590.493 663.533C593.15 655.759 594.931 647.403 598.162 639.88C597.721 647.393 592.041 664.112 589.659 671.888C578.388 708.664 566.476 744.528 550.018 779.403C545.85 788.236 540.643 799.651 534.944 807.353Z"/><path d="M804.532 658.534L805.559 657.837C805.24 658.065 804.888 658.375 804.532 658.534Z"/><path d="M803.773 659.142L804.532 658.534L803.773 659.142Z"/><path d="M803.503 659.384L803.773 659.142L803.503 659.384Z"/><path d="M734.503 668.387L734.798 668.147L734.503 668.387Z"/><path d="M199.181 673.154L199.498 673.39L199.181 673.154Z"/><path d="M261.208 690.18L261.498 690.401L261.208 690.18Z"/></svg>