<?xml version="1.0" encoding="utf-8" ?><svg xmlns="http://www.w3.org/2000/svg" xmlns:xlink="http://www.w3.org/1999/xlink" width="1024" height="1024" viewBox="0 0 1024 1024"><path fill="white" d="M0 0L0 1024L1024 1024L1024 0L0 0Z"/><path d="M504.093 0L547.954 0L548.478 0.103414C557.424 1.8021 566.21 2.16572 575.122 4.47208C636.784 20.43 696.738 59.0424 733.118 111.822C780.493 180.555 797.88 263.541 808.565 344.947C814.817 392.58 818.498 440.307 821.49 488.237C822.414 503.045 823.267 517.943 823.577 532.775C823.727 540.746 823.788 548.718 823.761 556.691C823.732 560.839 823.278 565.366 823.725 569.481C824.063 572.583 825.04 575.715 825.896 578.707C837.589 619.573 854.974 658.413 874.318 696.181C883.793 714.383 893.805 732.3 904.341 749.909C909.412 758.214 916.048 766.511 920.45 775.047C921.474 777.032 921.661 778.576 921.769 780.793C932.687 784.086 953.548 791.623 959.311 802.137C963.532 809.839 966.689 818.7 970.116 826.809C982.691 856.56 992.808 886.876 1001.74 917.893C1006.01 932.725 1010.3 947.485 1013.43 962.611C1016.22 976.06 1018.38 989.727 1020.56 1003.28C1021.59 1009.72 1022 1016.98 1024 1023.14L1024 1024L686.178 1024C697.482 1013.73 708.696 1003.18 719.145 992.027C767.812 940.098 808.731 874.555 844.443 813.26C851.928 800.414 859.841 787.867 867.128 774.889C850.464 771.209 833.546 768.894 816.804 765.657C797.103 761.847 777.704 757.038 758.248 752.158C764.979 765.011 774.613 781.076 787.348 788.499C791.841 791.119 797.462 793.569 802.72 793.663C811.556 793.822 824.611 786.176 831.22 780.557C833.337 778.757 837.9 773.756 840.545 773.505C841.991 773.368 843.543 774.524 844.338 775.626C845.002 776.547 845.102 777.593 844.929 778.69C843.906 785.163 831.649 797.26 826.823 801.677C822.758 805.396 817.662 808.983 814.289 813.328C809.399 819.626 805.776 827.867 801.598 834.738C793.302 848.301 784.628 861.629 775.587 874.707C766.648 887.762 756.74 900.223 746.845 912.563C722.84 942.776 696.673 971.206 668.55 997.629C658.727 1006.8 649.031 1015.75 638.394 1024L623.845 1024C650.632 1004.04 674.618 979.667 697.159 955.15C704.653 946.999 712.327 938.999 719.587 930.638C732.699 915.536 745.215 899.673 757.308 883.753C771.835 864.63 786.172 844.954 797.592 823.788C792.802 825.497 785.897 827.109 782.071 830.41C776.497 835.221 772.399 843.449 768.267 849.609C763.029 857.355 757.724 865.056 752.354 872.711C741.203 888.424 728.871 903.908 716.181 918.38C707.806 927.93 698.911 936.887 690.066 945.987C674.403 962.1 658.555 977.873 641.281 992.294C627.878 1003.48 613.756 1013.72 599.658 1024L585.297 1024C643.972 986.126 696.056 933.178 738.241 877.926C749.672 862.954 760.172 847.109 770.883 831.611C761.828 831.719 753.124 832.644 744.666 828.733C732.8 823.245 721.456 814.844 712.499 805.384C690.775 782.441 682.823 756.906 672.244 728.072C650.506 789.984 628.365 851.65 602.436 911.96C594.089 931.374 585.49 950.522 576.38 969.59C572.743 977.203 569.272 984.954 565.301 992.398C559.549 1003.18 552.961 1013.56 546.618 1024L489.465 1024C481.318 1007.78 470.701 992.121 462.657 975.41C438.468 925.16 420.188 865.669 407.639 811.357C400.398 780.462 394.657 749.235 390.438 717.785C388.991 707.693 386.108 693.646 387.327 683.681C388.213 676.428 392.184 670.147 395.974 664.084C387.913 671.399 380.703 679.251 372.062 685.975C332.161 717.026 283.15 732.081 234.843 744.042C237.872 749.709 239.758 755.996 242.385 761.863C247.763 773.871 253.935 786.07 260.589 797.413C296.287 858.264 342.379 911.733 391.014 962.483C411.495 983.854 432.246 1005.27 455.217 1024L439.909 1024C364.309 953.091 261.549 843.404 226.301 745.335L219.606 746.827C244.703 820.682 312.963 909.139 367.049 965.326C386.551 985.585 408.112 1003.77 427.619 1024L416.868 1024C407.087 1015.83 397.863 1006.99 388.564 998.286C373.78 984.444 359.244 970.518 345.609 955.522C303.562 909.281 226.648 808.798 212.606 748.147C206.965 749.463 201.305 750.697 195.628 751.848C203.613 784.519 218.297 814.806 234.881 843.86C245.694 862.803 257.204 881.746 269.678 899.655C300.719 944.219 337.231 984.854 374.739 1024L0 1024L0 1021.29C1.81579 1015.71 2.57508 1009.58 3.76815 1003.82C6.26144 991.778 8.72063 979.703 11.4559 967.715C19.7602 931.319 31.5554 893.496 46.3125 859.253C55.1061 838.848 64.7354 819.137 76.2893 800.135C78.3197 796.796 80.4557 792.256 83.3375 789.621C86.4347 786.789 91.0165 785.225 94.7342 783.321C109.75 775.629 124.531 768.364 140.241 762.126C141.705 738.711 148.109 715.256 153.579 692.528C163.073 653.076 174.577 614.258 186.416 575.455C189.536 565.231 192.969 555.093 195.955 544.829C198.518 536.014 200.669 527.085 203.152 518.248C205.208 510.93 207.796 503.76 209.774 496.424C212.815 485.14 215.044 473.413 217.249 461.935C219.521 449.896 221.59 437.82 223.454 425.712C224.493 418.86 225.806 411.693 225.901 404.757C226.07 392.369 222.887 378.675 221.837 366.108C219.455 338.021 219.704 309.771 222.58 281.73C228.914 222.836 245.649 168.903 279.652 119.994C293.469 100.12 309.954 81.5213 328.855 66.3248C352.139 47.6035 388.349 24.1994 418.189 20.0359C423.526 19.2911 428.685 19.5058 434.025 20.0837C449.802 10.6918 464.659 5.5408 482.836 2.89512C489.907 1.86583 497.065 1.29345 504.093 0ZM566.384 26.163L566.918 26.3383C579.676 30.8026 592.417 35.2728 604.466 41.4591C643.796 61.6529 680.796 96.1079 700.172 136.155C703.347 142.717 705.994 150.082 707.628 157.208C704.735 154.762 702.2 150.4 699.844 147.376C694.802 140.905 689.641 134.412 684.262 128.219C659.406 99.5974 608.931 49.1661 572.102 38.2903L571.5 38L570.503 37.5467L571.5 38L572.102 38.2903C578.86 42.5163 586.233 45.8904 592.771 50.4372C605.954 59.7763 618.291 70.2562 629.639 81.7557C666.498 118.485 683.303 153.765 694.964 204.379C697.074 213.539 698.739 222.844 701.197 231.917C703.543 240.575 706.6 249.026 709.1 257.639C712.834 270.99 716.073 284.475 718.81 298.066C720.351 305.95 720.325 314.228 721.947 321.977C722.2 323.188 722.376 323.559 723.214 324.406C724.176 323.645 724.319 322.827 724.481 321.641C725.463 314.461 724.779 305.998 724.557 298.73C723.268 256.447 713.805 222.141 699.311 182.645C696.98 176.293 694.774 169.896 692.088 163.684C690.064 159.006 687.235 154.125 685.768 149.289C689.939 153.501 693.069 159.847 696.166 164.942C714.337 194.88 729.43 226.582 741.213 259.562C744.157 267.743 747.055 275.94 749.907 284.153C751.666 289.159 753.385 295.413 756.18 299.93L756.441 300.498L756.18 299.93C755.183 291.887 750.606 279.545 748.21 271.398C741.714 249.302 735.212 227.268 727.387 205.598C723.031 193.533 717.786 181.842 713.32 169.837C726.156 189.024 739.882 217.687 748.587 239.057C752.545 248.775 755.457 259.595 760.154 268.91L760.4 269.498L760.154 268.91C759.249 260.408 755.667 251.514 753.067 243.369C746.598 223.394 739.76 203.54 732.556 183.818C730.03 177.069 726.693 170.619 724.293 163.835C728.115 167.591 731.124 172.708 734.049 177.184C741.653 188.954 748.726 201.057 755.249 213.458C758.552 219.701 761.438 226.613 765.2 232.555L765.373 233.104L765.2 232.555C763.419 224.618 759.336 216.792 756.07 209.367C741.668 176.624 727.856 154.195 706.752 125.468C700.807 117.376 694.939 109.199 688.604 101.404C663.299 70.2615 624.994 44.7503 587.156 31.86C580.707 29.6631 573.703 27.0375 566.918 26.3383L566.384 26.163ZM391.198 51.3496C383.717 52.9372 375.964 57.2102 369.17 60.7032C353.225 68.9013 337.348 78.9368 324.438 91.4762C318.551 97.1941 313.17 103.587 307.748 109.752C298.613 120.036 290.216 130.952 282.617 142.417C258.463 179.663 243.853 234.023 237.467 277.679C234.483 299.309 232.722 321.09 232.194 342.919C231.928 352.289 231.244 375.516 233.087 383.979C233.13 384.176 233.214 384.361 233.278 384.553C231.547 336.169 238.671 290.619 249.569 243.659C255.142 219.647 261.311 195.788 271.379 173.201C281.941 149.504 298.43 123.754 315.819 104.48C312.638 112.649 307.856 119.862 303.686 127.528C296.418 140.891 289.443 154.378 283.803 168.522C273.963 193.203 267.122 218.577 261.7 244.549C259.737 253.951 257.71 263.326 256.446 272.853C251.711 308.55 250.698 344.981 247.826 380.867L248.04 381.204C252.503 362.207 253.046 342.237 259.01 323.555C260.427 347.684 259.726 372.055 260.641 396.239C260.977 405.121 260.905 414.576 262.354 423.326C262.895 418.277 262.54 412.984 262.502 407.909L262.376 380.571C262.421 343.986 262.891 247.196 280.695 217.577C273.574 241.339 269.687 294.59 274.914 318.676C274.357 278.857 273.319 249.719 286.22 211.177C288.47 204.456 290.508 197.361 293.793 191.072C289.856 226.379 285.364 264.37 296.061 299.018C295.561 290 294.009 281.016 293.495 271.969C291.44 235.845 297.238 204.176 314 171.964C317.936 164.399 321.913 156.693 326.278 149.372C329.126 144.595 332.429 140.037 334.998 135.104L335.259 134.591L335.498 134.116L335.259 134.591C330.815 138.922 327.529 145.085 322.773 148.994C318.489 152.516 312.524 164.097 309.523 169.264C315.783 148.802 324.157 137.871 334.814 120.066L335.244 119.446L334.814 120.066C323.415 131.373 311.044 151.203 302.621 165.223C299.075 171.126 296.123 178.523 291.321 183.481C294.058 172.159 298.779 161.055 303.452 150.419C315.503 122.987 329.764 95.4155 353.192 75.9362C361.05 69.4836 369.425 63.6869 378.231 58.6045C382.374 56.1978 386.841 54.2239 390.836 51.5929L391.198 51.3496L391.498 51.0892L391.198 51.3496ZM501.002 51.1248L501.562 51.4455C513.115 54.9383 524.355 60.6606 534.726 66.7924C572.033 88.8499 586.273 111.865 607.182 148.596C630.507 189.57 650.663 235.146 661.351 281.187C671.281 323.959 676.32 368.296 678.508 412.119C680.714 456.291 681.027 500.687 682.018 544.907C683.607 615.787 683.283 689.24 704.962 757.421C709.209 770.779 714.082 784.578 721.643 796.442C729.385 808.589 739.847 819.264 754.376 822.513C750.822 819.304 746.923 816.483 743.392 813.223C735.583 806.013 729.296 796.734 724.334 787.39C705.397 751.734 699.579 689.697 696.327 649.869C693.562 616.315 691.199 582.729 689.24 549.118L684.817 447.986C684.131 434.491 683.88 420.975 683.144 407.481C680.7 362.646 676.59 318.229 667.645 274.178C662.873 250.682 656.856 227.255 647.903 204.967C642.251 190.895 634.754 177.308 627.524 163.993C614.95 140.841 600.459 118.477 583.046 98.6368C567.738 81.1962 548.111 68.3625 527.039 58.9775C518.957 55.3777 510.477 52.0144 501.562 51.4455L501.002 51.1248ZM576.003 53.059L576.506 53.4905L577.552 54.1782C580.904 57.6402 585.142 60.575 588.766 63.7944C595.969 70.1775 602.785 76.9846 609.178 84.1792C648.057 128.409 682.987 199.218 697.883 255.878C701.196 268.66 703.767 281.623 705.585 294.703C706.338 300.175 707.24 316.145 708.69 320.185C708.755 320.366 708.847 320.536 708.926 320.712C712.085 304.826 702.484 253.738 698.307 237.583C695.667 227.371 692.135 217.29 688.446 207.417C675.55 172.898 647.364 124.782 624.077 96.3423C615.766 86.0504 606.529 76.5425 596.481 67.9381C590.784 62.9704 584.449 57.323 577.552 54.1782C577.318 53.9245 576.805 53.676 576.506 53.4905L576.003 53.059ZM399.644 105.325C385.996 122.253 378.263 154.315 376.707 176.006C375.706 189.958 376.511 203.882 377.998 217.769C379.463 231.446 385.265 259.971 392.072 271.713L392.375 271.998L392.072 271.713C391.393 265.778 389.594 259.922 388.572 254.024C387.405 247.3 386.836 240.464 385.957 233.696C385.362 229.11 384.374 224.583 383.792 219.998C379.99 190.049 384.32 153.313 392.748 124.396C394.605 118.026 397.484 112.064 399.505 105.769L399.644 105.325L399.892 105.002L399.644 105.325ZM367.75 160.271C351.216 173.558 322.982 223.84 315.174 243.811C311.276 253.712 308.682 264.077 307.457 274.646C307.135 277.649 306.912 280.624 306.989 283.645C308.463 276.648 309.179 269.434 311.048 262.535C319.167 232.566 336.89 207.422 353.282 181.524C357.805 174.377 363.712 167.63 367.75 160.271L367.998 160.017L367.75 160.271ZM560.003 166.584L560.274 167.053C562.623 172.705 566.059 178.03 569.197 183.275C573.636 190.73 578.125 198.154 582.665 205.548C585.415 209.942 588.473 214.207 591.032 218.707C578.396 209.024 566.312 197.389 555.232 185.99C551.626 182.28 548.609 177.676 544.792 174.252L544.513 174.002L544.792 174.252C548.143 180.594 553.198 186.455 557.54 192.141C564.42 201.15 571.108 210.49 578.602 218.993C588.281 229.975 598.756 239.894 607.549 251.696C588.363 238.196 568.233 227.501 550.255 212.217C543.019 206.015 536.101 199.451 529.527 192.552C524.633 187.395 518.46 179.073 512.723 175.264L512.503 175.002L512.723 175.264C515.645 180.139 519.843 184.611 523.432 189.017C539.67 208.945 556.156 226.945 577.395 241.6C581.173 244.206 585.452 247.519 589.705 249.171L589.997 249.417L589.705 249.171C581.961 242.508 572.637 236.559 566.376 228.398C577.047 234.172 587.581 240.505 597.947 246.816C602.016 249.293 606.294 251.567 610.225 254.244L610.568 254.591L610.915 254.934L610.568 254.591L610.225 254.244C602.439 241.746 592.704 230.605 584.646 218.319C595.609 225.503 604.85 236.64 613.325 246.561C616.132 249.847 619.014 253.917 622.245 256.743L622.596 257.096L622.891 257.498L622.596 257.096L622.245 256.743C615.697 245.085 604.183 230.766 596.337 219.246C587.694 206.556 579.344 193.693 570.526 181.121C567.267 176.476 564.176 171.165 560.274 167.053L560.003 166.584ZM495.502 170.637L495.724 171.079C498.37 177.286 503.232 183.379 507.16 188.853C525.724 214.724 551.094 241.056 581.393 252.796C581.676 252.906 581.966 252.999 582.252 253.1L582.497 253.376L582.252 253.1C577.522 248.73 571.447 244.925 566.306 240.965C553.37 231.001 540.617 221.128 528.772 209.859C521.342 202.699 514.475 194.977 508.231 186.761C504.339 181.721 500.577 175.832 496.044 171.384C495.939 171.281 495.831 171.181 495.724 171.079L495.502 170.637ZM336.175 179.765C333.114 183.486 330.533 187.598 327.524 191.379L330.161 184.537L330.497 184.103L330.161 184.537C326.786 188.468 324.77 193.654 322.689 198.349C316.449 212.424 311.595 225.984 309.297 241.282C311.922 233.753 314.848 226.47 318.516 219.377C321.657 213.304 325.268 207.469 328.164 201.27C331.288 194.584 334.008 186.829 336.175 179.765L336.436 179.502L336.175 179.765ZM315.146 184.785C303.444 201.752 301.666 232.043 302.482 252.265C305.041 241.521 306.341 230.596 309.133 219.871C311.383 211.077 313.411 201.918 317.154 193.617C320.225 186.809 324.757 180.594 326.927 173.422L326.623 172.986C322.675 181.542 317.669 189.866 312.855 197.967C313.336 193.459 313.986 189.172 315.146 184.785L315.427 184.502L315.146 184.785ZM460.033 210.502L460.29 211.058C461.599 216.867 462.358 224.255 464.05 229.672C460.685 225.654 458.882 219.957 457.079 215.089C449.991 195.948 445.95 176.348 441.934 156.392C440.579 149.662 439.842 142.723 438.1 136.097L437.74 135.947C437.495 139.654 438.616 143.653 439.092 147.361C441.985 169.9 446.469 198.785 454.384 219.882L453.579 220.006C452.663 226.11 458.22 240.551 461.827 245.611C462.094 245.987 462.386 246.345 462.668 246.71C463.628 247.953 464.623 249.187 465.494 250.495C463.923 246.022 462.009 241.446 461.157 236.776C465.111 241.282 469.98 249.927 473.685 253.215L473.912 253.498L473.685 253.215C471.752 246.162 467.739 239.728 465.799 232.614C470.104 237.236 472.317 244.867 476.637 248.744L476.875 248.998L476.637 248.744C475.282 240.075 464.687 218.791 460.29 211.058L460.033 210.502ZM449.458 141.729C449.918 150.785 452.973 160.48 455.061 169.331C461.171 195.223 465.924 219.24 479.6 242.466C481.618 245.894 483.6 249.706 486.216 252.694L486.446 252.995L486.216 252.694C485.06 248.164 482.181 243.977 480.624 239.543C474.927 223.323 469.156 207.041 463.787 190.711C460.72 181.382 457.612 171.905 455.073 162.421C453.403 156.182 452.247 147.339 449.458 141.729ZM420.611 150.539C420.746 157.703 422.513 165.521 424.007 172.545C430.482 202.973 442.658 234.48 464.686 257.188L464.91 257.491L464.686 257.188C463.684 254.241 461.92 251.283 460.507 248.499C453.504 234.703 443.912 222.337 437.972 208.023C433.255 196.658 428.994 184.67 425.881 172.763C424.273 166.611 423.161 155.767 420.611 150.539ZM404.623 268.502L404.905 268.769C405.315 272.134 406.806 275.827 407.844 279.066C413.117 295.508 420.264 310.128 430.291 324.192C413.612 320.396 403.552 316.812 390.765 305.103C376.162 303.14 362.896 301.578 348.097 303.43C343.26 304.036 317.303 310.617 315.846 309.809C316.387 308.044 316.976 307.016 318.335 305.747C328.822 295.95 351.981 288.885 365.814 287.23C370.732 286.641 375.567 286.842 380.498 287.055C365.191 256.41 363.061 228.656 363.472 195.213C350.393 216.958 340.034 244.959 330.417 268.68C325.669 280.171 321.214 291.781 317.055 303.499C315.017 309.132 312.622 314.92 311.225 320.748C310.013 325.805 310.175 331.072 310.55 336.222C311.413 348.093 313.56 359.542 315.533 371.258L322.206 410.538C326.666 435.684 330.024 461.298 337.493 485.784C342.015 500.341 348.318 514.283 356.258 527.295C361.608 535.927 368.314 544.058 375.305 551.425C392.074 569.097 449.43 620.069 471.697 625.109C499.602 631.426 544.307 604.851 567.776 589.949C595.888 571 621.156 550.882 641.003 523.019C650.915 509.103 665.087 485.434 668.863 468.883C671.438 457.601 668.904 433.965 668.26 421.863C666.836 395.099 666.25 367.949 661.823 341.459C656.242 339.621 650.83 336.726 645.523 334.206C628.74 326.238 612.07 316.424 594.639 310.086C596.753 312.057 598.761 314.136 600.787 316.196C589.557 312.978 580.558 312.015 568.938 313.461C564.073 314.067 559.151 314.999 554.24 314.479C537.41 312.7 517.907 288.834 507.694 276.193C513.308 294.245 524.85 304.523 540.031 314.746C529.29 317.749 506.53 323.098 495.892 322.341C492.715 322.115 490.039 321.346 487.21 319.889C462.46 307.145 434.316 261.053 423.953 235.381C420.068 225.756 418.048 216.094 415.029 206.265C415.03 206.514 415.029 206.762 415.033 207.011C415.189 216.576 418.221 226.808 420.372 236.134C426.391 262.223 433.673 289.941 450.796 311.162C454.658 315.948 459.116 320.102 463.57 324.323C442.434 317.794 426.847 302.366 414.697 284.369C411.26 279.279 408.301 273.885 404.905 268.769L404.623 268.502ZM292.745 367.845C292.879 367.537 293.004 367.225 293.147 366.921C294.316 364.445 297.03 363.13 298.08 360.663C295.37 361.59 293.162 364.102 291.966 366.639C290.914 368.871 290.248 371.373 289.519 373.73C289.51 369.478 289.478 360.529 292.565 357.293C293.524 356.288 294.678 355.858 296.047 355.961C299.826 356.247 302.67 359.063 305.7 361.037C305.385 358.487 305.241 355.599 304.502 353.143C302.628 346.906 296.606 340.176 291.964 335.641C281.023 346.416 273.962 367.828 273.925 383.023C273.913 388.01 274.495 392.837 276.222 397.533C282.209 413.812 310.773 456.712 322.749 468.554C323.663 469.457 324.585 470.352 325.514 471.239C324.219 464.903 322.658 458.735 321.001 452.485C317.664 451.261 315.905 449.596 314.431 446.31C313.789 444.878 313.415 443.719 313.445 442.152L314.149 441.805C317.397 443.723 318.498 447.001 320.46 450.032C319.721 445.392 315.477 415.855 312.74 413.861C309.526 414.115 308.592 413.176 306.118 411.156L305.938 410.253L305.59 410.002L305.938 410.253L306.118 411.156C307.752 415.452 310.357 419.463 312.663 423.428C307.127 419.63 303.36 415.355 301.48 408.766C300.073 403.835 300.432 400.424 302.819 396.011C305.674 401.656 308.633 406.394 312.592 411.348C311.341 406.516 311.377 401.385 310.641 396.45C309.901 391.494 308.431 386.669 307.68 381.711C306.954 376.925 306.953 372.012 305.995 367.258C305.794 366.261 305.506 365.038 304.74 364.303C303.675 363.281 302.382 362.67 300.882 362.785C297.138 363.071 295.043 365.21 292.745 367.845ZM636.111 541.3C628.008 551.063 620.151 561.019 611.741 570.524C582.083 604.045 526.625 660.548 483.768 673.263C466.158 665.927 453.298 646.788 443.928 631.014C444.103 645.396 445.779 660.066 444.667 674.422C449.451 680.833 454.065 687.508 459.202 693.636C471.823 709.186 486.966 723.331 502.978 735.357C509.393 740.175 516.25 744.421 522.603 749.292C530.516 744.673 538.475 740.139 546.041 734.96C568.685 719.462 613.473 684.22 627.21 661.101C625.544 632.683 626.497 604.171 630.056 575.928C630.996 568.745 632.194 561.598 633.646 554.501C634.478 550.332 636.006 545.508 636.111 541.3L636.377 541.06L636.111 541.3ZM757.208 390.971C752.991 417.108 753.969 443.863 755.444 470.189C758.515 524.966 765.736 583.675 782.235 636.055C785.016 644.885 787.98 655.529 792.657 663.524L793.234 664.865L793.431 665.497L793.234 664.865L792.657 663.524C791.445 655.717 787.312 647.55 784.895 639.964C781.717 629.995 779.496 619.634 777.189 609.431C766.312 559.472 759.89 508.647 758.001 457.552C760.223 463.505 761.083 474.83 762.177 481.667C764.395 496.167 766.969 510.611 769.897 524.984C775.523 552.651 781.944 579.816 789.381 607.054C793.179 620.966 796.852 634.904 801.746 648.481C811.434 675.355 823.682 700.744 836.199 726.369C840.942 736.08 849.757 756.23 856.355 763.566C854.097 755.623 849.602 748.224 845.917 740.872C841.322 731.676 836.869 722.41 832.559 713.078C822.151 691.335 811.949 669.821 804.076 646.987C800.155 635.617 797.386 623.896 794.372 612.264C789.783 594.55 785.335 576.895 781.445 559.008C777.664 541.619 773.565 524.327 770.232 506.842C764.82 478.448 760.261 445.891 757.816 417.079C757.075 408.344 757.763 399.679 757.208 390.971ZM259.812 515.01C258.689 525.793 258.59 536.939 258.53 547.781C258.334 582.983 261.688 617.082 269.886 651.339C271.654 658.73 273.451 668.507 277.198 675.101L277.5 676L277.788 676.866L277.5 676L277.198 675.101C276.326 668.107 273.68 660.843 272.083 653.94C269.061 640.942 266.721 627.794 265.075 614.551C262.218 590.643 261.112 566.428 260.479 542.367C260.24 533.297 260.96 523.993 260.327 514.988L259.812 515.01ZM88.445 799.148C89.6381 805.204 92.4979 811.416 94.7689 817.138C98.359 825.992 101.83 834.894 105.181 843.841C117.662 877.678 129.562 911.69 143.05 945.148C151.298 965.609 159.417 985.855 170.73 1004.89L171.112 1005.76L171.38 1006L171.112 1005.76L170.73 1004.89C169.33 999.984 166.81 995.235 164.724 990.592C161.922 984.355 159.357 978.05 157.272 971.533C148.022 942.618 140.126 913.292 130.505 884.495C125.197 868.606 119.938 852.886 112.533 837.814C108.628 829.865 103.952 822.41 99.2346 814.929C95.9716 809.755 92.7076 803.524 88.445 799.148ZM569.38 37.25L570.245 37.25L569.38 37.25ZM564.816 141.911C588.081 166.206 605.605 197.663 621.237 227.259C623.152 230.885 636.513 260.439 636.826 260.74C626.77 223.254 605.366 188.433 580.963 158.61C576.842 153.573 571.517 145.816 565.876 142.411C565.57 142.226 565.126 142.048 564.816 141.911ZM401.098 170.347C398.622 181.864 397.683 193.673 396.318 205.355C395.206 214.881 393.538 224.493 393.249 234.08C391.155 227.115 389.061 220.098 386.64 213.24C385.69 221.441 385.235 227.823 387.342 235.94L388.308 236.162L388.252 236.351C388.225 233.84 388.006 231.387 387.751 228.893C389.759 234.974 391.799 241.044 393.871 247.104C393.924 242.665 394.18 238.444 394.841 234.055L395.069 231.18L395.478 230.982C397.619 234.62 398.425 239.984 399.592 244.063C399.62 235.561 397.059 227.378 397.07 218.828C401.037 228.427 404.036 238.061 408.7 247.427C404.539 229.691 401.676 212.953 400.715 194.733C400.394 188.649 402.378 175.049 401.098 170.347ZM315.734 183.75L316.17 183.75L315.734 183.75ZM484.306 186.335C493.361 214.223 510.962 241.58 530.931 262.863C533.912 266.04 537.795 270.956 541.462 273.131C536.818 262.707 531.159 257.777 524.039 249.271C518.955 243.198 514.098 236.731 509.76 230.107C501.78 217.92 494.786 205.271 487.991 192.406C487.012 190.553 485.905 187.624 484.306 186.335ZM459.776 209.75L460.245 209.75L459.776 209.75ZM765.731 234.25L766.057 234.25L765.731 234.25ZM636.623 261.461L637.125 261.75L636.623 261.461ZM551.87 278.323C555.314 285.732 561.24 297.215 567.293 302.665C571.086 303.45 574.885 304.022 578.72 304.559C575.283 301.286 553.847 279.386 551.87 278.323ZM756.598 301.465L757.054 301.75L756.598 301.465ZM727.57 331.998C715.721 337.325 705.725 346.539 694.652 353.213C695.038 368.197 695.58 383.176 696.278 398.149C696.759 410.961 697.027 423.806 698.038 436.589C706.98 430.254 715.797 423.039 725.004 417.159C719.113 425.814 713.303 433.91 703.65 438.622C700.759 440.034 698.222 439.699 698.025 443.375C697.961 452.458 697.947 461.541 697.983 470.624C715.495 454.858 748.871 409.728 750.177 386.639C751.117 370.025 744.254 347.315 733.069 334.887C731.607 333.262 730.362 332.161 728.085 332.008C727.913 331.996 727.741 332.002 727.57 331.998ZM304.327 404.856L304.093 405.836L304.637 405.38L305.183 404.61L304.327 404.856ZM235.743 418.363C234.18 442.684 235.794 467.06 234.372 491.378C230.028 565.666 218.595 637.208 223.912 712.065C224.277 717.213 224.643 730.854 226.161 735.228L227.082 736.092C228.248 735.947 228.709 735.713 229.621 734.975C230.098 732.979 227.857 701.295 227.744 696.664C227.511 685.632 227.495 674.596 227.697 663.562C227.928 654.71 231.088 587.865 233.754 585.256C234.643 599.733 233.771 614.438 234.277 628.971C235.208 657.342 238.395 685.594 243.809 713.46C244.682 718.157 245.528 727.937 247.98 731.787C249.089 730.156 246.397 716.262 245.987 713.62C241.218 675.907 238.548 638.574 238.952 600.552C239.046 591.714 238.493 581.72 240.288 573.096C241.874 620.288 247.962 660.38 266.245 704.076C268.323 709.042 271.348 718.693 274.868 722.44C275.001 722.582 275.157 722.7 275.301 722.83C276.179 719.48 270.1 706.727 268.712 703.192C260.728 682.792 254.577 661.721 250.33 640.23C244.509 611.201 243.33 581.933 242.154 552.455L238.804 467.74L237.288 437.777C236.946 431.388 236.875 424.654 235.743 418.363ZM304.718 465.385C304.054 479.166 305.248 493.024 305.712 506.802C307.005 545.172 309.796 583.321 312.942 621.575C314.806 644.243 316.256 667.019 319.889 689.487C320.654 694.218 321.094 699.432 322.397 704.027C323.439 704.359 323.686 704.108 324.705 703.81C325.529 702.667 325.755 702.147 325.591 700.716C325.315 698.323 324.577 695.891 324.164 693.499C323.313 688.573 322.693 683.586 322.052 678.629C320.103 663.576 318.822 648.402 317.34 633.296C316.641 626.178 314.986 617.82 315.772 610.755C316.482 613.218 316.855 615.701 317.259 618.227C320.926 637.079 325.158 655.817 329.95 674.415C331.857 682.077 333.396 690.073 335.772 697.581C338.287 696.123 340.833 694.702 343.288 693.144C317.293 630.335 312.278 573.826 307.997 506.957C307.6 500.755 306.323 468.247 304.718 465.385ZM268.733 469.721C268.222 478.027 269.657 486.918 270.618 495.167L274.542 528.051C281.031 581.887 286.666 635.908 298.822 688.819C300.634 696.706 302.252 704.746 304.423 712.54L311.356 709.697L312.235 708.92C312.3 704.997 306.707 691.908 305.237 686.767C300.557 670.398 297.533 653.303 294.414 636.577C285.388 588.178 279.474 539.154 271.779 490.523C270.685 483.606 269.931 476.615 268.733 469.721ZM698.689 501.92C698.524 517.705 699.324 533.537 699.79 549.319C700.302 566.709 700.494 584.298 702.28 601.607C707.264 649.936 726.293 750.566 760.844 785.695C770.244 795.252 781.364 799.619 794.683 800.006C789.596 798.207 784.566 796.503 779.961 793.626C765.792 784.775 754.325 765.229 747.266 750.43C724.187 702.047 712.116 644.405 707.206 591.219C706.296 581.363 704.575 570.593 705.217 560.741C705.331 561.018 705.447 561.294 705.558 561.572C707.981 567.646 709.187 574.852 710.791 581.2C713.128 590.601 715.921 599.882 719.161 609.01C736.535 657.712 754.921 687.497 792.262 723.461C805.455 736.168 820.907 749.415 836.05 759.757C827.409 749.088 815.393 739.872 805.738 729.811C778.219 701.508 755.485 668.917 738.429 633.315C728.309 611.827 719.249 589.197 712.67 566.379C709.483 555.326 707.015 543.864 704.565 532.625C703.588 528.143 699.991 503.202 698.689 501.92ZM216.752 522.372C205.4 566.624 190.563 609.877 177.855 653.74C168.149 687.241 159.656 722.029 154.178 756.492C160.237 754.322 166.249 751.864 172.361 749.871C169.275 730.826 181.679 680.801 186.515 660.401C188.384 653.094 190.275 645.841 192.626 638.672C191.53 659.141 185.781 682.074 182.393 702.528C180.99 711.136 179.666 719.758 178.421 728.391C177.374 735.414 176.709 742.778 174.222 749.465C177.71 748.518 181.172 747.475 184.603 746.34C186.722 714.461 193.095 682.698 198.456 651.232C200.63 638.471 202.259 625.622 204.164 612.82C206.535 596.891 209.129 581.029 211.312 565.068C212.691 554.991 217.472 531.098 216.752 522.372ZM339.329 591.793C343.569 618.144 349.926 644.109 358.337 669.439C359.563 673.047 360.773 678.22 363.112 681.152C362.612 675.159 360.211 668.796 358.581 662.997C355.966 653.789 353.427 644.559 350.964 635.309L343.394 606.585C342.218 602.008 341.498 595.941 339.329 591.793ZM633.786 632.562C632.816 638.85 633.458 646.039 633.5 652.433L633.767 651.86C634.417 650.499 634.775 649.492 636.177 648.755L637.526 648.709C638.782 650.026 638.911 651.434 638.83 653.22C638.116 668.984 607.564 696.201 595.86 706.428C576.349 723.479 554.533 739.593 532.209 752.818C548.987 765.007 563.754 795.989 573.598 814.222C579.011 824.248 584.635 834.163 589.932 844.25C595.631 854.975 601.706 865.812 608.281 876.023C614.834 857.802 622.426 839.937 629.393 821.868C638.93 797.135 647.942 771.88 656.415 746.766C660.7 734.064 666.17 721.098 668.979 707.988C665.517 698.955 661.589 690.157 658.459 680.99C654.143 668.35 650.996 654.023 644.408 642.364C642.484 638.958 638.795 634.549 635.069 632.999C634.568 632.79 634.345 632.737 633.786 632.562ZM435.114 637.966C418.481 643.777 406.339 660.627 398.982 676.052C397.345 679.484 396.078 683.131 395.897 686.961C395.476 695.868 397.9 706.09 399.093 714.972C403.558 748.202 409.762 780.742 417.242 813.414C421.438 831.743 425.78 850.28 431.491 868.202C439.812 855.162 447.967 841.934 456.572 829.081C466.499 814.726 476.524 800.555 486.823 786.465C495.358 774.79 502.849 762.243 514.583 753.424C484.408 734.931 455.517 705.699 435.783 676.483C432.324 671.362 427.474 664.874 426.161 658.769C425.951 657.793 426.03 656.714 426.595 655.875C427.247 654.905 427.81 654.666 428.808 654.134C430.115 654.132 430.751 654.221 431.761 655.122C433.869 657.004 434.944 660.778 436.533 663.18C436.541 658.291 437.474 641.606 435.734 638.156L435.114 637.966ZM826.538 642.904C829.185 651.756 833.918 660.56 837.617 669.046C848.03 692.932 858.591 716.341 870.778 739.393C875.789 748.87 881.001 759.344 887.698 767.751C891.619 768.554 895.547 769.322 899.481 770.054C884.559 747.082 869.043 724.614 855.857 700.549C849.574 689.009 843.567 677.322 837.842 665.497C835.172 660.022 829.928 647.123 826.538 642.904ZM523.477 759.539C519.188 760.707 516.057 762.442 513.039 765.744C512.547 768.032 512.073 770.324 511.619 772.62C516.846 772.204 522.009 772.008 527.25 771.944C531.451 771.859 535.586 771.723 539.763 771.254C536.685 767.874 530.465 759.861 525.581 759.488C524.878 759.434 524.178 759.492 523.477 759.539ZM554.435 798.848C546.091 806.693 537.585 814.364 528.922 821.856C522.044 827.901 512.11 835.93 506.722 843.224C507.885 843.545 508.712 843.494 509.896 843.407C511.933 842.734 513.673 841.908 515.439 840.687C523.47 835.139 552.448 810.782 557.789 803.453C556.832 801.826 555.967 799.995 554.435 798.848ZM954.476 807.34C920.808 854.176 890.513 934.69 889.264 992.549L889.625 992.811L889.785 992.737C895.694 966.191 903.71 940.269 912.314 914.49C920.849 888.914 930.023 863.357 940.878 838.663C942.651 834.632 955.1 809.762 955.233 808.444C955.259 808.188 955.073 807.956 954.993 807.712L954.476 807.34ZM473.835 819.273C465.826 829.116 459.268 840.06 452.43 850.727C446.649 859.745 440.477 868.79 435.13 878.059C439.268 891.613 443.955 904.942 448.709 918.29C451.52 926.181 454.143 934.708 457.927 942.18C458.71 941.851 458.422 942.121 458.804 941.384C464.638 924.801 470.881 908.632 478.326 892.691C483.396 881.834 497.154 859.586 498.943 849.392C494.237 843.505 479.026 822.798 473.835 819.273ZM566.694 821.827C560.152 830.051 552.589 838.171 546.873 846.964C547.069 849.868 547.007 853.215 547.709 856.025C549.959 865.029 558.097 875.534 561.894 884.672C569.282 902.457 575.988 920.509 580.091 939.362L580.586 939.565L581.497 937.882C589.21 920.176 597.344 902.316 603.633 884.054C600.012 879.528 596.886 874.688 593.94 869.703C590.05 863.122 569.194 823.584 566.694 821.827ZM524.268 848.612C524.076 848.684 523.884 848.758 523.691 848.828C518.785 850.604 510.342 849.118 506.747 851.764C506.239 852.959 506.383 853.146 506.68 854.433C508.76 855.763 519.644 855.064 522.887 855.248C528.215 855.31 533.543 855.238 538.867 855.033C538.808 852.847 538.793 850.65 538.684 848.467C533.874 848.657 529.079 848.91 524.268 848.612ZM521.173 862.193C522.802 883.173 524.738 904.161 526.163 925.152C526.546 930.798 526.527 950.552 527.934 954.555L528.322 954.528C529.104 928.285 529.51 902.493 526.804 876.323C526.41 872.505 526.404 866.068 524.263 862.948C523.204 862.555 522.295 862.331 521.173 862.193ZM534.026 862.589C540.003 881.948 544.95 901.61 548.845 921.493C550.248 928.978 551.547 936.482 552.743 944.003C553.349 947.702 553.668 951.901 554.791 955.458C555.467 942.911 544.141 870.69 537.947 862.749C536.568 862.52 535.41 862.523 534.026 862.589ZM507.442 862.639C503.73 868.993 501.798 877.993 499.501 885.08C493.566 903.387 487.682 921.838 482.898 940.48C479.718 952.87 477.313 965.49 474.393 977.945C475.549 980.978 476.802 983.907 478.196 986.838L478.725 987.153C479.347 984.319 479.389 981.373 479.78 978.498C480.485 973.304 481.538 968.101 482.695 962.99C488.279 938.308 495.658 913.974 502.35 889.577C503.366 885.873 509.689 864.963 508.966 862.984L507.442 862.639Z"/><path d="M685.423 148.893L685.127 148.502L685.423 148.893Z"/><path d="M685.423 148.893L685.768 149.289L685.423 148.893Z"/><path d="M707.628 157.208L707.874 157.431L707.628 157.208Z"/><path d="M724.293 163.835L724.058 163.513L724.293 163.835Z"/><path d="M309.996 169.25L309.704 168.958L309.996 169.25Z"/><path d="M290.87 184.205L291.321 183.481L290.87 184.205Z"/><path d="M290.623 184.498L290.87 184.205L290.623 184.498Z"/><path d="M280.695 217.577L280.948 217.002L280.695 217.577Z"/><path d="M454.384 219.882L455.238 221.426L454.384 219.882Z"/><path d="M455.238 221.426L455.684 222.144L455.238 221.426Z"/><path d="M455.684 222.144L456.086 222.645L455.684 222.144Z"/><path d="M456.086 222.645L456.645 223.685L456.086 222.645Z"/><path d="M456.645 223.685L456.881 223.998L456.645 223.685Z"/><path d="M464.05 229.672L464.367 229.998L464.05 229.672Z"/><path d="M465.491 232.036L465.132 231.504L465.491 232.036Z"/><path d="M465.491 232.036L465.799 232.614L465.491 232.036Z"/><path d="M462.949 235.048L462.624 234.531L462.949 235.048Z"/><path d="M462.949 235.048L463.725 236.405L462.949 235.048Z"/><path d="M463.725 236.405L464.115 237.248L463.725 236.405Z"/><path d="M464.115 237.248L464.662 238.306L464.115 237.248Z"/><path d="M464.662 238.306L465.141 239.289L464.662 238.306Z"/><path d="M465.141 239.289L465.663 240.212L465.141 239.289Z"/><path d="M465.663 240.212L465.877 240.498L465.663 240.212Z"/><path d="M521.331 345.545C522.832 342.774 524.283 340.05 526.292 337.603C535.534 326.34 550.576 320.631 564.718 319.194C565.093 319.149 565.467 319.098 565.843 319.069C585.141 317.579 600.83 323.293 617.053 333.154C620.538 335.273 624.814 337.326 627.871 339.99C626.85 339.933 625.967 339.647 624.97 339.498C620.362 338.811 613.273 333.048 608.579 330.799C600.104 326.708 591.052 323.941 581.738 322.597L581.333 322.566C555.323 320.655 540.552 328.935 521.331 345.545Z"/><path d="M343.314 330.86L343.702 330.512L344.356 329.94C350.022 324.897 356.983 322.732 364.384 321.663C370.881 320.965 377.452 321.487 383.757 323.201C396.7 326.769 406.959 334.691 413.582 346.318C409.094 341.526 404.817 337.251 399.348 333.545C398.021 332.767 396.67 332.031 395.296 331.339C383.43 325.494 370.105 322.8 357.102 326.125C352.397 327.329 347.905 329.288 343.314 330.86Z"/><path d="M622.073 350.082L622.349 350.257C625.924 354.467 628.851 358.62 634.758 359.225C636.09 359.361 637.244 359.52 638.534 359.875L638.619 360.436C634.732 362.938 627.255 361.303 622.641 362.699C621.449 363.06 620.89 364.284 620.274 365.281C619.698 366.215 618.017 366.622 616.995 367.066C612.845 360.146 606.832 354.586 601.261 348.812C603.256 358.869 603.762 367.902 597.781 376.838C593.405 383.376 586.866 389.413 578.88 390.816C572.487 391.94 565.678 389.961 560.411 386.273C553.328 381.313 548.963 373.689 547.558 365.229C546.04 356.098 548.903 349.453 554.023 342.176C550.745 344.067 547.634 346.09 544.534 348.261C535.76 355.013 529.207 364.369 522.446 373.039C522.533 371.607 522.62 370.159 522.838 368.739C524.637 357.053 532.362 344.128 541.845 337.093C563.852 320.768 590.063 325.35 612.261 338.723C622.053 344.622 626.226 350.856 637.976 352.554L638.283 352.973L637.718 353.837C633.653 355.589 626.145 351.741 622.349 350.257L622.073 350.082ZM561.58 346.537C559.085 347.913 556.794 349.171 555.884 352.05C555.293 353.857 555.527 355.834 556.525 357.453C557.737 359.412 559.922 360.732 562.142 361.231C563.413 361.517 564.64 361.53 565.933 361.471C568.565 360.201 570.686 358.951 571.665 356.036C572.3 354.191 572.141 352.165 571.229 350.441C570.215 348.553 568.279 347.088 566.208 346.565C564.693 346.183 563.114 346.386 561.58 346.537ZM587.897 368.697C587.564 371.368 586.537 373.139 584.36 374.763C581.771 376.694 578.208 376.642 575.169 376.05C569.936 375.031 566.004 371.746 561.776 368.767C563.908 372.856 565.805 375.42 569.601 378.189C574.106 380.769 578.149 381.288 583.198 379.879C584.999 379.371 586.765 378.746 588.485 378.01C589.955 378.465 591.748 379.29 593.268 378.819C592.541 377.802 591.769 377.418 590.726 376.776C591.974 375.526 593.454 376.296 594.472 374.75C594.47 373.204 594.424 372.173 593.225 371.067C591.813 369.765 589.7 369.224 587.897 368.697ZM595.52 375.927L596.29 376.13L595.52 375.927Z"/><path d="M347.377 336.638C354.61 332.001 360.322 330.399 368.821 329.707C378.041 329.243 386.728 331.608 394.276 336.971C405.868 345.208 415.847 362.717 417.897 376.693C418.172 378.569 418.429 380.232 417.266 381.81L415.937 381.728C413.932 379.931 408.928 367.665 406.5 363.901C406.259 367.371 406.096 370.891 404.956 374.207C402.945 380.059 398.892 385.822 393.199 388.557C387.622 391.237 380.581 390.655 374.905 388.569C366.087 385.33 359.392 377.539 355.481 369.234C360.086 365.617 362.145 363.732 363.021 357.684C362.458 357.08 361.822 356.571 361.195 356.034C358.998 355.313 356.806 355.875 354.569 356.202C355.835 350.827 357.881 346.809 361.441 342.615C355.208 344.791 350.66 347.257 346.821 352.888C341.229 361.091 339.981 369.259 341.734 378.889C334.508 373.585 336.318 371.395 332.016 365.784L327.936 366.822C327.496 366.609 327.377 366.572 326.939 366.229C325.384 365.013 322.341 362.244 322.029 360.298C323.206 357.37 329.337 356.162 332.136 354.693L332.767 354.356C326.744 349.592 322.84 345.885 319.374 338.975C326.3 342.226 331.501 343.674 339.205 343.597C338.026 341.652 336.125 339.063 336.257 336.725C336.305 335.889 336.644 335.851 337.222 335.352C340.377 334.817 344.21 336.085 347.377 336.638ZM369.977 349.562C367.777 350.427 366.232 351.204 365.229 353.485C364.556 355.016 364.52 356.638 365.099 358.207C365.654 359.71 367.043 360.966 368.514 361.541C369.583 361.959 370.63 362.032 371.762 362.058C373.799 361.387 375.734 360.732 376.901 358.79C377.672 357.498 377.828 355.93 377.327 354.511C376.69 352.678 375.126 351.196 373.371 350.425C372.272 349.943 371.156 349.729 369.977 349.562ZM397.931 364.722C397.146 367.563 396.664 371.288 394.131 373.027L393.248 372.936C387.465 372.386 385.315 377.967 380.337 377.794C376.712 377.669 372.743 372.645 369.836 373.012C369.949 373.75 370.063 374.328 370.313 375.039C372.654 378.498 375.107 380.757 379.3 381.657C383.769 382.617 388.265 381.364 392.028 378.89C394.999 376.937 397.848 374.059 398.529 370.439C398.86 368.68 398.902 366.28 397.931 364.722Z"/><path d="M706.167 418.982C702.838 414.614 700.425 409.62 699.071 404.297C696.409 393.674 698.236 380.134 703.98 370.763C708.39 363.566 715.583 357.084 723.906 355.127C724.15 355.104 724.394 355.078 724.639 355.058C726.793 354.878 729.658 354.572 731.282 356.314C732.358 357.467 732.845 358.806 732.717 360.318C729.879 361.788 727.219 360.419 724.325 360.29C720.469 360.119 716.309 364.825 713.717 367.308C717.227 367.816 720.796 368.378 724.093 369.745C728.711 371.66 732.808 375.497 734.564 380.247C735.024 381.493 735.397 382.679 734.858 383.952C732.278 384.031 726.258 377.026 720.798 375.336C717.065 374.181 711.597 373.495 708.079 375.657C705.684 377.129 705.145 380.967 704.423 383.5C714.338 389.494 718.26 390.799 722.83 402.343L722.904 403.906C720.425 404.193 711.798 393.781 709.201 391.789C707.712 390.647 705.352 388.595 703.481 388.826C701.246 394.668 706.021 411.755 706.167 418.982Z"/><path d="M293.865 396.499C293.193 395.449 292.494 394.378 291.932 393.262C289.694 388.81 290.598 382.586 292.223 378.1C294.186 372.679 297.121 368.885 302.318 366.408C302.851 366.373 303.338 366.49 303.863 366.577C305.539 370.945 305.091 378.543 305.721 383.435C306.692 390.976 309.121 398.318 310.172 405.909C306.806 401.164 301.148 390.494 302.076 384.542C302.466 382.04 304.717 379.664 303.862 377.144L303.31 377.699L300.131 382.309C300.392 384.257 300.683 386.188 300.711 388.157L300.118 388.449C298.934 386.374 300.269 383.737 298.936 381.687L297.879 381.744C294.69 384.925 294.218 392.209 293.865 396.499Z"/><path d="M292.507 368.452L292.745 367.845L292.507 368.452Z"/><path d="M586.756 394.133L587.549 393.589C593.436 389.6 599.184 387.197 604.247 381.984C608.15 377.965 611.966 371.313 616.176 368.079C614.284 376.404 606.575 384.562 599.536 389.059C596.106 391.251 590.874 394.071 586.756 394.133Z"/><path d="M562.207 393.141C557.053 393.131 547.901 390.601 544.361 386.6C543.243 385.336 543.503 384.912 543.657 383.318C549.055 384.484 558.104 389.318 562.207 393.141Z"/><path d="M302.745 394.75L302.195 394.472L302.745 394.75Z"/><path d="M586.503 394.373L586.756 394.133L586.503 394.373Z"/><path d="M629.654 394.139L629.997 394.002L629.654 394.139Z"/><path d="M620.938 403.878C622.353 400.78 626.484 395.536 629.654 394.139C624.695 403.177 620.42 413.019 611.179 418.432C613.327 413.496 616.383 408.469 620.148 404.589C619.863 405.408 619.975 404.913 619.963 406.102L620.733 406.036C621.592 405.152 621.868 405.211 621.955 403.925L620.938 403.878Z"/><path d="M601.199 417.541C600.541 416.7 600.762 417.194 600.617 416.027C603.403 409.078 611.582 400.312 617.334 395.432C617.791 396.493 617.78 396.637 617.319 397.764C614.969 403.518 606.899 415.335 601.199 417.541Z"/><path d="M294.737 397.75L294.203 397.451L294.737 397.75Z"/><path d="M637.13 397.256L637.399 397.002L637.13 397.256Z"/><path d="M629.478 411.548C630.07 406.622 633.356 400.494 637.13 397.256C635.969 401.746 632.453 405.731 630.858 410.174C630.577 410.955 630.14 411.071 629.478 411.548Z"/><path d="M360.895 397.229C359.41 398.377 357.829 399.341 356.374 400.547L357.399 400.655C354.609 404.504 336.007 419.828 331.761 422.264C332.526 420.637 333.423 419.08 334.297 417.51C341.628 408.175 349.784 401.532 360.895 397.229Z"/><path d="M592.092 415.938C591.853 415.207 591.752 414.52 591.634 413.762C593.685 408.064 600.746 402.141 605.675 398.947L605.877 399.844C603.833 404.826 597.01 413.616 592.092 415.938Z"/><path d="M357.399 400.655L357.998 400.554L357.399 400.655Z"/><path d="M344.597 425.052L344.146 424.261C344.347 423.693 344.412 423.451 344.661 422.94C349.2 413.657 363.397 404.331 372.962 401.131L373.08 401.521C364.563 407.505 353.011 421.454 344.597 425.052Z"/><path d="M620.148 404.589L620.938 403.878L620.148 404.589Z"/><path d="M377.682 407.762L377.987 407.585L377.682 407.762Z"/><path d="M356.142 424.849C359.985 418.094 370.345 410.153 377.682 407.762C375.091 410.964 360.215 422.331 356.142 424.849Z"/><path d="M451.204 414.602L451.413 414.003L451.204 414.602Z"/><path d="M451.119 475.673C447.968 474.484 444.708 473.008 441.774 471.348C435.447 467.768 431.56 462.181 429.802 455.216C426.855 443.539 436.188 435.854 442.679 427.56C445.895 423.45 448.59 419.107 451.204 414.602C448.198 427.607 437.471 433.971 435.112 441.174C432.181 450.121 450.157 464.689 454.171 472.658C454.768 473.846 454.881 474.361 454.477 475.611C453.103 476.123 452.542 475.908 451.119 475.673Z"/><path d="M452.099 435.715L451.411 434.858C452.993 433.346 457.35 435.55 459.966 432.827C461.504 431.228 461.537 428.782 461.704 426.716L462.474 427.42C462.761 428.485 463.134 429.646 462.971 430.759C462.71 432.53 461.502 433.897 460.064 434.848C457.178 436.755 455.388 436.387 452.099 435.715Z"/><path d="M481.124 470.687C477.981 470.457 473.758 472.421 471.064 470.728L471.135 469.547C472.897 466.693 474.498 465.781 477.592 464.538C479.49 464.396 481.597 464.293 483.465 464.677C485.495 465.093 486.966 466.195 488.11 467.895C488.087 468.765 488.296 469.06 487.61 469.706C485.872 471.347 483.314 470.825 481.124 470.687Z"/><path d="M475.532 509.612C473.337 510.844 471.192 512.033 468.577 511.621C464.801 511.026 462.613 507.612 460.519 504.775C464.329 505.309 466.533 508.329 470.794 507.954C472.534 507.801 474.08 507.493 475.741 508.198L475.532 509.612Z"/><path d="M537.699 525.554C530.816 526.06 524.113 528.655 517.29 529.741C494.705 533.336 468.709 535.095 446.427 529.416C442.577 528.435 438.918 526.523 435.127 525.272C432.7 524.472 430.657 527.352 427.411 525.762C426.458 524.408 426.28 522.983 426.407 521.355C426.61 518.759 428.125 517.425 429.942 515.776C432.935 517.013 434.094 519.217 435.819 521.778C461.362 528.918 505.745 526.031 532.017 521.853C532.298 520.706 532.541 519.482 532.96 518.379C533.453 517.082 534.118 516.807 535.316 516.252C536.28 516.389 536.666 516.308 537.457 516.936C538.811 518.01 539.453 519.748 539.52 521.441C539.592 523.265 538.895 524.279 537.699 525.554Z"/><path d="M450.929 553.355C469.585 558.821 491.941 557.441 510.527 552.584L511.18 552.778C511.113 552.928 511.062 553.086 510.979 553.227C507.741 558.745 493.954 563.6 488.093 564.936C476.81 567.51 466.959 565.449 457.255 559.341C454.809 557.64 452.728 555.733 450.929 553.355Z"/></svg>