<?xml version="1.0" encoding="utf-8" ?><svg xmlns="http://www.w3.org/2000/svg" xmlns:xlink="http://www.w3.org/1999/xlink" width="1024" height="1024" viewBox="0 0 1024 1024"><path fill="white" d="M0 0L0 1024L1024 1024L1024 0L0 0Z"/><path d="M812.005 539.729C805.907 568.072 792.709 610.368 767.319 626.826C762.275 630.096 756.778 632.082 751.128 634.028L751.661 634.468C756.617 638.513 762.564 641.561 768.009 644.921C776.672 650.266 795.428 662.603 800.752 670.604C802.574 673.341 803.45 676.594 804.151 679.771C849.023 696.286 901.222 723.828 936.573 756.216C942.653 761.786 949.964 767.748 953.484 775.351C956.327 781.49 957.991 788.727 959.891 795.218C967.506 821.238 971.993 847.683 976.163 874.417C982.42 914.53 987.556 956.731 987.56 997.336C983.286 999.799 978.22 1001.28 973.554 1002.85C947.643 1011.58 920.21 1016.25 893.161 1019.9C883.5 1021.2 872.619 1021.48 863.259 1024L561.63 1024C569.18 1014.59 577.407 1005.6 585.421 996.577C605.238 974.276 625.697 952.556 645.424 930.173C698.842 869.564 787.977 757.253 792.327 675.006C785.308 668.326 776.353 662.752 768.504 657.028C768.566 661.669 768.56 666.238 767.849 670.837C766.335 680.635 762.968 690.536 759.604 699.848C742.606 746.901 713.392 795.146 683.643 835.329C664.503 861.182 643.172 886.127 621.066 909.486C597.934 933.931 574.371 957.915 551.391 982.518C540.778 993.88 523.576 1011.39 515.928 1024L503.876 1024C484.369 998.374 463.465 973.842 441.258 950.516C399.358 906.736 354.975 865.823 321.367 814.918C315.935 806.69 310.411 798.559 305.871 789.79C300.485 779.388 295.132 768.393 291.296 757.317C283.16 733.826 278.606 704.095 281.917 679.397C282.658 673.863 284.171 668.65 285.862 663.349C275.497 667.903 265.312 672.854 255.329 678.193C255.306 678.358 255.281 678.523 255.262 678.688C254.356 686.535 254.661 694.798 255.114 702.68C257.47 743.604 271.9 778.62 291.932 813.816C300.638 829.112 310.416 844.667 321.248 858.558C338.648 880.872 358.02 902.226 377.62 922.635C386.909 932.307 396.515 941.646 405.669 951.455C419.209 965.964 432.127 980.921 445.009 996.011C452.922 1005.28 460.989 1014.46 468.571 1024L159.286 1024C150.966 1021.75 141.434 1021.65 132.864 1020.27C105.369 1015.86 77.165 1010.7 50.7494 1001.8C45.9289 1000.17 40.8482 998.701 36.3032 996.4C36.5846 990.423 38.0253 984.273 39.0786 978.375C41.1081 966.347 43.5007 954.382 46.2532 942.498C56.9871 895.094 68.4906 847.442 87.4137 802.508C108.07 753.46 132.077 740.615 177.305 718.085C199.577 706.99 221.856 696.751 244.9 687.377C245.006 684.199 244.837 680.553 246.008 677.577C250.507 666.139 280.102 656.657 291.344 652.131C287.673 650.883 284.299 649.577 280.924 647.645C263.381 637.602 251.474 619.748 244.882 601.001C242.866 595.27 242.03 589.021 239.692 583.434C237.257 577.616 233.292 572.429 230.769 566.571C224.897 552.936 221.268 538.49 217.322 524.218C216.708 533.576 215.94 543.054 216.046 552.431C216.527 595.122 233.003 623.533 262.66 652.638C262.294 652.469 261.927 652.299 261.568 652.113C257.309 649.911 253.526 646.556 249.864 643.489C231.872 628.422 220.408 609.881 213.64 587.49C207.828 568.262 207.281 547.64 209.697 527.803C210.38 522.187 211.858 516.612 212.257 510.98C212.576 506.46 211.4 501.791 210.833 497.316C210.199 492.306 209.932 487.36 209.924 482.311C209.874 452.443 216.546 423.492 225.383 395.134C229.505 381.905 234.498 368.821 239.619 355.948C242.023 349.908 245.688 343.879 247.157 337.541C248.771 330.578 248.641 322.661 249.207 315.502C249.919 307.079 250.951 298.687 252.298 290.342C259.896 242.014 275.835 188.915 299.21 145.819C325.837 96.7268 379.056 41.755 433.726 25.6775C452.697 20.0983 479.494 15.1287 497.738 25.054C506.193 19.3673 516.778 18.0961 526.745 17.7739C582.596 15.9687 640.084 47.6524 679.567 84.9489C740.954 142.936 765.33 218.459 783.365 298.584C785.753 309.279 787.794 320.049 789.486 330.876C790.723 338.357 791.543 346.22 793.811 353.471C799.15 370.537 806.731 387.26 813.316 403.908C830.955 448.504 846.015 493.639 847.316 542C848.129 572.22 843.62 602.2 829.372 629.196C826.013 635.559 822.226 642.205 817.256 647.459C820.457 639.973 824.307 633.295 826.625 625.361C838.193 585.754 831.09 536.205 820.573 497.09C820.234 509.251 821.347 521.459 821.023 533.653C820.316 560.293 810.577 598.889 790.733 617.733C802.029 599.83 807.227 581.401 810.211 560.636C811.21 553.685 812.205 546.77 812.005 539.729L812.374 539.503L812.005 539.729ZM564.865 42.1157L565.374 42.2742C570.946 44.8895 576.897 46.6396 582.439 49.328C602.295 58.9586 628.322 76.8567 643.506 92.7667C637.777 89.0603 631.776 86.5126 625.852 83.2369C615.002 77.2373 604.456 71.0467 593.262 65.6506C590.047 64.1009 586.527 62.0884 583.082 61.2213L582.5 61L581.5 60.5L580.503 60.0025L581.5 60.5L582.5 61L583.082 61.2213C587.362 64.2834 592.21 66.7129 596.74 69.395C604.747 74.1358 621.544 84.7121 627.968 90.7265C624.516 89.357 621.145 87.0234 617.768 85.3597L617.503 85.0921L617.768 85.3597C635.71 102.105 655.886 116.11 672.804 133.989L673.525 134.967L674.178 135.7L674.606 136.126L674.916 136.498L674.606 136.126L674.178 135.7L673.525 134.967C673.357 134.625 673.039 134.292 672.804 133.989C668.966 125.737 659.565 115.774 653.098 109.213C650.217 106.29 646.471 103.385 644.346 99.8976L645.089 100.418C648.221 102.647 650.757 105.506 654.01 107.643C652.147 104.927 649.789 102.814 648.314 99.8087C670.028 111.453 708.274 170.189 721.218 192.727C724.444 198.344 727.488 204.135 730.39 209.927C732.088 213.314 733.59 217.34 735.757 220.429L736.101 221.238L736.497 221.998L736.101 221.238L735.757 220.429C734.499 215.913 732.315 211.4 730.429 207.099C722.101 188.475 712.311 170.539 701.152 153.459C673.19 111.224 640.977 75.3104 594.546 53.2522C585.428 48.9201 575.286 44.2916 565.374 42.2742L564.865 42.1157ZM477.747 53.7802L476.72 54.8291C476.482 55.1968 476.167 55.5973 476 56L475.553 56.4975L476 56C476.285 55.6784 476.502 55.2024 476.72 54.8291L477.747 53.7802L477.953 53.0025L477.747 53.7802ZM475.164 57.7526L474.576 57.9975L475.164 57.7526L475.399 57.0025L475.164 57.7526ZM472.743 61.5305C471.713 62.9147 470.721 64.1346 470.772 65.9497C471.867 65.2982 472.137 64.2717 472.426 63.066C472.548 62.5577 472.641 62.0431 472.743 61.5305L472.998 61.0025L472.743 61.5305ZM468.5 71L467.786 72.9832L467.502 73.4975L467.786 72.9832L468.5 71L468.998 70.0025L468.5 71ZM587.003 77.0652L587.763 77.2721L588.808 78.3027L589.826 78.6072C592.457 81.5856 604.884 88.3676 609.355 92.2314C620.985 102.282 631.258 113.972 642.316 124.632C648.707 130.792 656.01 136.811 663.048 142.228C657.027 134.028 651.341 126.226 643.728 119.391C638.736 114.909 631.944 111.014 627.82 105.803C637.492 111.785 645.662 119.708 653.753 127.641C671.485 145.024 684.696 160.458 699.217 180.641C703.668 186.828 708.459 196.277 712.702 201.465L713.124 202.223L713.657 203.324L714.143 204.282L714.649 205.299L715.129 206.258L715.385 206.498L715.129 206.258L714.649 205.299L714.143 204.282L713.657 203.324L713.124 202.223L712.702 201.465C710.243 194.844 706.028 188.227 702.318 182.217C687.893 158.849 663.32 126.836 642.343 109.776C631.898 101.281 619.584 94.1038 607.707 87.7597C602.218 84.8277 595.836 80.0431 589.826 78.6072L588.808 78.3027L587.763 77.2721L587.003 77.0652ZM485.769 87.1503L485.502 87.406L485.769 87.1503C505.677 78.809 520.61 77.0059 541.228 85.3609C585.91 103.467 631.838 164.204 655.872 205.327C666.105 223.157 675.171 241.632 683.011 260.636C686.39 268.892 689.601 277.215 692.642 285.6C694.153 289.657 695.475 294.681 697.65 298.402L697.888 298.998L697.65 298.402C695.801 287.443 691.664 276.035 688.085 265.533C679.175 239.068 667.649 213.558 653.677 189.38C649.042 181.536 643.839 173.977 638.809 166.383C624.489 144.763 608.239 123.77 589.12 106.139C570.819 89.2626 545.108 73.4282 519.304 74.6186C507.983 75.1409 493.687 78.3947 485.769 87.1503ZM395.76 89.7953L394.73 90.1188L393.5 91L393.151 91.3319C393.026 91.3988 392.899 91.4636 392.774 91.5325C381.726 97.6466 354.143 125.535 345.782 135.952C341.009 141.899 337.419 148.549 332.757 154.503C332.096 155.348 331.917 155.922 331.808 157.012C331.299 155.943 331.313 154.826 331.239 153.665C330.451 153.986 328.778 155.768 328.257 155.678C330.709 150.989 332.472 146.002 335.097 141.41C341.044 131.011 348.285 121.239 356.105 112.178C359.741 107.965 363.71 104.023 367.231 99.718L367.5 99.5L367.807 99.1787L368.521 98.5292L369.423 97.8517L368.521 98.5292L367.807 99.1787L367.5 99.5L367.231 99.718C358.1 105.612 343.795 123.663 336.96 132.719C334.211 136.36 331.71 140.519 328.768 143.958C331.348 137.493 335.032 131.288 338.431 125.226C352.979 99.2811 371.121 78.0218 399.016 65.8126C405.394 63.0213 411.674 61.7267 418.491 60.638C407.253 58.2566 387.866 67.5883 378.65 73.5749C362.024 84.3745 347.099 99.878 336.085 116.259C331.269 123.423 327.101 131.005 322.67 138.408C315.83 149.835 309.122 161.237 304.399 173.744C300.66 183.644 298.322 193.921 296.175 204.26C294.085 214.324 292.314 224.497 291.841 234.782C296.415 216.312 306.225 174.903 320.713 162.314C318.979 166.636 316.718 170.829 315.216 175.23C312.975 181.793 311.633 188.853 310.064 195.608C307.122 208.267 304.197 220.962 302.416 233.848C301.412 241.108 301.271 248.507 300.227 255.715L300.504 255.543C305.784 223.261 316.564 184.111 338.103 158.843C332.66 169.055 324.803 184.995 323.877 196.5L323.659 197.079L323.877 196.5C332.902 168.115 341.329 153.428 359.838 129.574C366.06 121.555 372.252 113.488 379.033 105.928C383.554 100.888 388.658 96.393 393.151 91.3319L393.5 91C393.967 90.774 394.327 90.4418 394.73 90.1188L395.76 89.7953L396.435 89.0025L395.76 89.7953ZM460.643 93.2433L460.073 93.9975L460.643 93.2433L460.878 92.5025L460.643 93.2433ZM403.5 98.0001L403.146 98.3433C398.246 100.621 393.501 104.971 389.341 108.434C368.832 125.505 351.387 146.313 342.056 171.586C338.391 181.513 337.907 191.441 335.334 201.504C339.242 192.486 343.553 180.318 350.637 173.274C348.941 179.184 345.566 184.445 343.977 190.58C350.26 179.522 357.105 168.147 362.616 156.701C363.873 154.091 363.616 151.061 364.859 148.433C369.933 137.7 381.089 121.477 388.75 112.399C393.104 107.24 398.359 103.059 403.146 98.3433L403.5 98.0001L403.998 97.6097L403.5 98.0001ZM587.003 99.1241L587.264 99.3588C591.319 103.331 598.003 105.97 602.856 109.123C614.007 116.368 625.161 124.144 635.905 131.985C655.585 146.348 669.669 160.855 685.041 179.487C689.064 184.364 692.616 189.686 696.764 194.433L697.152 195.177L697.631 195.621L697.898 195.998L697.631 195.621L697.152 195.177L696.764 194.433C694.344 188.97 690.199 183.32 686.898 178.306C664.089 143.648 644.424 124.952 606.252 107.611C600.306 104.91 593.617 100.657 587.264 99.3588L587.003 99.1241ZM514.503 99.587L515.052 99.849L515.772 100.3C518.445 101.944 521.537 103.084 524.345 104.5C529.847 107.232 535.158 110.334 540.241 113.785C557.344 125.596 571.44 142.691 584.85 158.379C590.588 165.092 596.516 171.703 602.066 178.57L618.951 199.803C621.534 203.05 624.12 206.966 627.204 209.747L627.475 209.998L627.204 209.747C621.561 197.605 605.51 178.074 596.968 167.063C579.154 144.098 558.714 121.278 533.09 106.927C527.692 103.903 521.255 100.627 515.052 99.849L514.503 99.587ZM513.503 139.057L514.017 139.995L514.345 140.348C519.614 151.709 527.462 164.677 535.025 174.56C541.231 182.672 548.291 190.22 554.895 198.014C558.606 202.393 562.401 208.159 566.783 211.735L567.082 212.099L567.443 212.498L567.082 212.099L566.783 211.735C564.302 206.275 552.758 193.122 548.444 187.231C542.985 179.777 538.301 171.823 533.091 164.204C527.489 156.013 520.915 147.781 514.345 140.348L514.017 139.995L513.503 139.057ZM500.02 141.502L500.223 142.294L500.827 142.77C509.363 162.353 521.861 179.515 535.781 195.549C538.212 198.349 540.838 202.055 543.75 204.288L544.083 204.59L545.028 205.967L545.68 206.696L545.972 206.998L545.68 206.696L545.028 205.967C544.782 205.456 544.425 205.041 544.083 204.59L543.75 204.288C541.034 199.014 536.575 193.987 533.056 189.181C527.26 181.187 521.541 173.136 515.902 165.029C511.799 159.153 505.347 147.436 500.827 142.77L500.223 142.294L500.02 141.502ZM573.068 153.502L573.506 154L573.851 154.344C578.224 163.317 591.778 176.689 599.673 182.906C592.899 173.358 582.944 161.892 573.851 154.344L573.506 154L573.068 153.502ZM404.749 155.696C400.305 158.124 396.308 163.888 393.249 167.869C373.501 193.569 361.998 223.772 352.927 254.605C345.988 278.191 341.187 302.342 334.476 326.01C332.028 334.916 329.355 343.759 326.462 352.53C324.714 357.717 322.023 363.435 320.894 368.742L320.625 368.998L320.894 368.742C330.763 358.737 346.922 288.495 351.725 270.918C356.48 253.518 361.062 235.767 367.666 218.963C374.611 201.293 383.093 183.605 394.38 168.256C397.4 164.149 401.198 160.619 404.176 156.499L404.749 155.696L404.998 155.502L404.749 155.696ZM563.886 155.9C565.381 158.67 566.873 161.398 568.792 163.902C573.36 169.863 585.442 182.162 591.78 186.212L591.997 186.466L591.78 186.212C588.026 179.251 570.534 161.72 563.886 155.9ZM456.003 130.327C455.972 134.054 456.806 138.156 457.433 141.842C460.906 162.272 469.065 180.191 478.961 198.177C481.201 202.249 483.314 206.851 486.217 210.48L486.618 211.216L487.159 212.326L487.632 213.261L487.89 213.498L487.632 213.261L487.159 212.326L486.618 211.216L486.217 210.48C484.561 206.225 482.378 202.161 480.528 197.983C474.576 184.545 468.336 170.918 463.263 157.125C460.087 148.49 459.214 139.243 456.15 130.721C456.103 130.589 456.052 130.458 456.003 130.327ZM532.503 232.099L532.735 232.567C537.35 245.717 551.25 264.997 561.15 274.419C567.544 280.505 574.934 285.77 581.905 291.19L588.205 290.855C580.13 283.983 571.815 278.295 564.348 270.583C558.274 264.309 552.399 257.536 547.029 250.647C542.436 244.754 538.078 238.514 533.086 232.953L532.735 232.567L532.503 232.099ZM471.835 137.455C472.465 142.318 474.122 147.362 475.253 152.17C477.087 159.965 478.325 168.068 480.884 175.664C487.666 195.799 506.423 229.501 520.68 245.713L520.93 245.998L520.68 245.713C519.022 240.949 515.637 236.209 513.126 231.84C508.503 223.796 503.883 215.662 500.069 207.195C494.912 195.747 490.96 183.905 486.438 172.218C483.88 165.604 480.902 159.141 478.189 152.589C476.105 147.554 474.245 142.338 471.835 137.455ZM280.071 256.226C277.261 263.286 275.528 271.059 273.549 278.399C265.95 306.576 261.82 332.221 257.253 360.919C251.909 394.502 246.095 428.555 244.651 462.561C243.728 484.477 244.778 506.431 247.788 528.159L248.412 528.034C245.757 498.016 245.256 468.073 248.06 438.013C250.219 414.858 254.224 391.855 257.905 368.906C260.593 352.149 262.832 335.3 266.018 318.628C268.945 303.315 273.162 288.125 276.664 272.919C277.859 267.727 279.98 261.527 280.071 256.226L280.38 256.002L280.071 256.226ZM730.125 272.502L730.406 272.765C730.774 278.21 733.258 284.602 734.681 289.949C737.999 302.426 741.431 314.852 744.309 327.441C754.144 370.45 762.211 413.835 763.399 458.071C763.672 468.235 763.172 478.404 762.857 488.561L763.318 488.485C768.933 428.011 758.891 356.353 739.812 298.74C737.059 290.426 734.707 280.307 730.406 272.765L730.125 272.502ZM455.302 299.337C459.622 303.555 462.908 309.741 465.465 315.171C465.186 312.643 463.99 310.676 463.423 308.274C465.435 310.845 466.352 313.92 467.227 317.02C465.563 316.347 463.805 315.454 462.069 315.03L461.503 314.598L462.069 315.03C459.779 316.795 448.607 314.483 445.258 314.046C416.822 310.336 388.769 308.914 360.138 310.525C356.423 323.84 352.106 336.582 347.229 349.504C344.731 356.123 341.682 362.594 339.558 369.337C345.867 394.02 351.575 418.834 358.414 443.39C361.113 453.081 363.64 462.89 367.044 472.362C378.439 504.073 397.441 527.604 422.879 549.295C432.67 557.644 443.278 565.161 453.455 573.033C465.284 582.181 481.7 597.433 494.986 602.828C502.725 605.971 511.358 606.527 519.613 605.839C527.567 605.158 535.35 603.136 542.63 599.859C571.25 587.291 608.624 553.777 628.692 529.718C638.751 517.66 647.802 503.943 654.317 489.649C660.484 476.118 664.57 460.96 668.042 446.516C677.967 405.221 681.353 371.306 677.473 328.827C670.632 326.037 663.11 324.932 656.125 322.486C632.586 314.244 616.165 302.94 589.889 305.313C576.234 306.546 562.538 311.51 548.75 311.811C546.235 311.866 542.788 313.587 540.635 313.233L540.388 311.161C539.443 311.676 539.505 312.118 539.106 313.083C537.957 313.711 537.871 313.603 536.563 313.366L536.031 312.521C536.778 309.211 537.932 305.979 538.98 302.753C538.794 305.683 538.281 308.455 537.709 311.329C539.441 306.81 541.319 302.349 543.34 297.951L541.802 304.543L541.031 304.918L541.195 306.003C541.993 305.219 541.777 305.7 541.802 304.543C545.502 301.619 549.99 300.17 553.717 297.18C551.816 295.2 539.871 294.028 536.513 293.256C529.58 291.662 523.205 288.805 516.88 285.604C492.004 273.014 481.753 257.104 467.491 234.353C473.284 252.826 483.031 274.438 494.538 290.1C499.043 296.231 504.3 301.704 509.473 307.264C498.534 303.636 488.023 294.142 479.995 286.13C447.347 253.545 437.616 204.974 437.529 160.409C434.702 161.424 431.859 162.424 429.18 163.792C419.249 168.864 410.995 177.373 404.148 186.023C382.324 213.596 377.619 238.514 370.543 271.733C368.513 281.26 366.633 290.846 363.691 300.145C382.311 294.879 415.315 293.697 434.711 296.018C448.591 297.679 451.054 297.708 459.579 308.592C458.378 305.393 456.573 302.506 455.302 299.337ZM343 337.5L342.279 339.63L341.959 340.593C341.334 341.455 341.241 341.364 341.201 342.507C338.464 346.911 336.681 352.385 334.581 357.17C331.786 363.542 328.735 369.805 325.788 376.108C295.213 441.497 284.377 493.009 300.805 564.308C301.018 565.226 301.25 566.14 301.501 567.048L301.761 567.793C302.524 563.661 299.162 552.173 298.42 547.147C297.609 541.664 296.993 536.155 296.574 530.629C294.705 505.572 295.844 480.383 299.965 455.597C304.208 430.409 313.289 405.269 323.89 382.109C328.809 371.363 339.102 353.688 341.201 342.507L341.645 342.257L341.959 340.593L342.279 339.63L343 337.5L343.498 336.502L343 337.5ZM806.511 408.502L806.804 409.063C807.338 413.452 808.962 418.112 810.101 422.396C814.327 438.297 819.87 453.622 824.827 469.286L831.552 490.921C832.736 494.718 833.719 498.847 835.382 502.454C832.262 481.013 816.788 428.242 806.804 409.063L806.511 408.502ZM685.717 430.111C683.382 429.493 681.153 428.801 678.882 427.977C677.212 435.03 675.503 442.727 675.32 449.984C683.387 446.374 690.351 440.854 696.331 434.358L696.202 429.375L695.16 415.037C693.099 417.901 689.078 424.718 685.454 425.417C684.131 425.149 683.566 424.973 682.606 424.009L682.649 423.054C682.844 423.175 683.033 423.306 683.234 423.418C684.094 423.899 684.785 424.018 685.741 424.174L686.802 423.713L687.083 422.918C686.24 421.249 685.431 419.656 684.874 417.867L683.945 417.288C682.282 418.072 681.454 419.211 680.863 420.953C680.322 422.547 680.015 424.757 681.026 426.234C681.85 427.438 683.429 428.306 684.607 429.115C685.345 429.622 685.063 429.399 685.717 430.111ZM661.085 587.231C655.883 593.225 652.243 602.516 649.129 609.849C648.089 612.299 647.347 615.139 646 617.411C645.403 618.418 644.726 618.882 643.661 619.298C642.496 619.102 641.854 618.921 640.892 618.227C640.821 619.11 640.85 619.394 641.111 620.289C642.441 621.903 643.73 623.211 645.391 624.485C650.092 614.813 660.415 597.251 661.085 587.231L661.375 587.003L661.085 587.231ZM664.239 612.444L663.9 613.232L663.359 614.271L663.096 614.497L663.359 614.271L663.9 613.232L664.239 612.444C664.594 612.088 664.649 612.054 664.992 611.584C668.081 607.352 670.442 601.799 672.79 597.107C691.07 560.586 698.944 522.306 701.756 481.752C702.553 470.251 703.499 457.785 701.751 446.349C700.505 450.123 700.864 469.738 700.462 475.608C699.347 490.866 697.585 506.071 695.182 521.18C691.736 542.713 685.607 563.73 676.936 583.739C672.94 593.12 667.755 602.46 664.379 612.035L664.239 612.444ZM305.028 614.503L305.225 615.261L305.998 615.933L305.225 615.261L305.028 614.503ZM275.296 454.363C271.844 480.169 270.225 506.188 270.454 532.223C270.772 557.041 274.97 581.533 285.69 604.071C287.929 608.779 290.576 614.337 294.34 618.009L295.008 618.993L295.63 619.734L295.998 620.411L295.63 619.734L295.008 618.993C294.862 618.651 294.559 618.312 294.34 618.009C293.355 615.128 291.275 612.192 289.847 609.463C287.116 604.24 284.671 598.959 282.664 593.41C271.497 562.552 271.177 527.538 272.899 495.089C273.283 487.869 276.549 458.087 275.751 453.611L275.296 454.363ZM339.084 624.003L339.34 624.197C340.373 625.682 341.13 626.431 342.705 627.335L342.979 627.497L342.705 627.335C341.687 625.838 340.901 625.123 339.34 624.197L339.084 624.003ZM711.12 624.081L711.357 624.259C713.296 628.637 717.041 632.854 719.74 636.847C723.654 642.637 726.966 648.656 729.883 655.003C727.377 667.915 721.911 680.62 716.795 692.684C697.688 737.425 673.801 779.97 645.549 819.576C638.154 829.952 630.728 840.652 622.078 850.028C612.748 860.141 602.448 869.513 592.468 878.98C557.197 912.44 523.778 944.501 507.024 991.325C508.785 989.059 510.275 986.61 511.814 984.191C540.282 941.172 580.806 906.825 617.081 870.686C656.663 831.252 697.323 768.017 720.141 716.58C727.901 699.086 733.992 681.404 739.702 663.165C735.285 652.13 733.401 644.263 727.204 633.433C721.97 630.489 716.961 626.416 711.357 624.259L711.12 624.081ZM344.002 628.503L344.246 628.71C345.053 629.71 345.562 630.271 346.737 630.81L347.098 631.071L347.678 631.631C348.483 632.746 348.994 633.208 350.235 633.806L350.6 634.073L351.152 634.66L351.684 635.075L352.77 635.746L353.075 636.11L353.666 636.636L354.185 637.078L355.278 637.733L355.583 638.1L356.179 638.625L357.27 639.221L357.554 639.639L358.202 640.098L358.498 640.389L358.202 640.098L357.554 639.639L357.27 639.221L356.179 638.625L355.583 638.1L355.278 637.733L354.185 637.078L353.666 636.636L353.075 636.11L352.77 635.746L351.684 635.075L351.152 634.66L350.6 634.073L350.235 633.806C349.43 632.623 349.004 632.185 347.678 631.631L347.098 631.071L346.737 630.81C345.985 629.683 345.398 629.344 344.246 628.71L344.002 628.503ZM359.002 640.601L359.737 640.834L359.998 641.462L359.737 640.834L359.002 640.601ZM361.002 642.094L361.757 642.332L361.998 642.917L361.757 642.332L361.002 642.094ZM649.224 655.335C649.088 655.417 648.951 655.498 648.816 655.581C644.779 658.079 641.315 661.415 637.348 664.03C622.702 673.682 604.432 681.911 586.893 683.912C614.551 668.937 626.616 655.621 642.896 629.375C642.791 629.281 642.687 629.186 642.581 629.093C639.774 626.642 636.391 624.937 633.6 622.498C626.706 616.472 626.108 605.732 625.467 597.247C624.132 579.568 622.474 560.898 624.463 543.195C613.765 555.624 602.135 566.373 590.352 577.74C574.034 593.482 530.735 636.464 508.24 638.208C495.534 639.194 480.419 630.253 471.252 622.152C454.528 607.372 441.549 585.939 428.297 568.016C429.455 574.289 430.653 580.566 431.251 586.923C432.336 598.448 434.552 648.917 429.239 657.571C428.914 658.1 428.531 658.477 428.087 658.906L427.185 659.055C425.737 657.606 425.829 655.354 425.834 653.433C425.855 645.655 427.102 637.992 426.631 630.173C419.997 638.451 410.644 644.972 402.122 651.181C402.304 661.687 402.51 672.138 401.466 682.615C400.958 687.719 398.71 693.147 398.842 698.208C399.08 707.344 403.192 718.603 404.819 727.946C418.331 733.724 432.086 737.081 446.123 741.254C462.33 746.222 470.106 751.96 478.195 767.308C478.691 768.25 479.133 769.204 479.558 770.18L478.801 769.53C473.055 764.544 468.861 757.874 462.832 753.299C452.312 745.316 435.293 742.827 422.663 739.015C416.999 737.305 411.518 735.118 406.015 732.96C407.877 740.452 413.661 762.789 417.388 768.472C422.172 775.764 434.105 784.193 441.527 788.654C473.074 807.617 516.97 810.042 552.287 801.072C566.358 797.499 587.327 789.796 595.084 776.692C603.041 763.252 609.878 749.189 617.432 735.527C608.271 738.511 599.034 740.591 589.556 742.291C576.005 744.721 560.443 745.923 548.056 752.118C539.34 756.478 534.319 765.322 525.986 769.782C534.32 754.683 541.882 748.302 558.452 743.495C571.401 739.738 584.931 738.077 598.163 735.591C605.752 734.11 613.27 732.284 620.692 730.118C630.262 713.88 640.339 698.097 649.276 681.483C653.082 674.408 657.104 667.315 659.532 659.623C652.987 664.603 636.429 675.81 628.284 675.938L627.628 675.487C627.982 674.219 629.649 673.573 630.752 672.873C636.689 669.105 645.544 661.415 649.224 655.335L649.495 655.076L649.224 655.335ZM795.494 712.493C795.975 713.404 796.176 713.747 797.1 714.264C800.782 716.323 806.405 717.188 810.475 718.336C817.068 720.164 823.606 722.186 830.08 724.4C857.042 733.953 883.441 745.025 909.151 757.562C917.837 761.855 926.125 766.817 934.747 771.163L935.118 771.594L935.497 771.895L935.118 771.594L934.747 771.163C934.652 771.058 934.563 770.948 934.463 770.848C930.37 766.762 924.374 763.722 919.402 760.791C910.316 755.433 901.177 750.089 891.67 745.503C873.693 736.832 814.418 712.237 795.494 712.493ZM903.192 825.776C899.641 830.236 896.909 835.994 894.128 840.977C873.011 878.756 857.703 919.499 848.717 961.836C846.986 970.007 844.537 979.589 844.673 987.946C847.407 980.797 848.384 972.598 850.556 965.195C856.551 944.759 862.929 924.197 870.256 904.192C876.823 886.465 883.861 868.917 891.364 851.565C894.551 844.364 901.508 832.766 903.192 825.776L903.446 825.503L903.192 825.776ZM943.55 791.361C949.455 803.575 951.825 818.738 954.605 831.974C961.29 864.958 966.929 898.145 971.514 931.485C973.766 947.183 974.917 963.229 978.022 978.778L978.374 978.997L978.022 978.778C978.053 977.189 977.967 975.596 977.884 974.009C975.891 935.729 970.78 897.4 964.308 859.65C960.736 838.814 957.07 818.036 951.594 797.594C950.581 793.81 947.913 781.999 945.091 779.867C944.55 779.458 943.994 779.727 943.372 779.811C939.455 783.918 931.822 803.035 928.905 809.305C907.095 856.173 886.612 904.08 872.894 954.04C868.306 970.75 864.854 987.644 861.52 1004.64C860.919 1008.56 860.483 1012.37 860.352 1016.34C862.218 1010 863.368 1003.4 865.102 997.011C869.137 982.145 873.715 967.339 878.357 952.652C889.649 916.92 903.343 882.166 917.389 847.452C921.675 836.774 926.219 826.2 931.015 815.74C934.746 807.459 938.365 798.856 943.55 791.361ZM299.441 657.171C295.98 667.565 292.377 678.119 291.877 689.147C291.09 706.515 293.003 728.34 297.689 745.076C300.644 755.628 305.13 765.482 309.83 775.344C323.932 804.94 343.185 830.22 364.643 854.866C370.392 861.469 376.007 868.227 382.046 874.567C403.257 896.83 425.823 917.791 446.888 940.21C459.764 953.914 472.382 968.659 483.939 983.501C490.366 991.755 496.171 1001.02 503.208 1008.72L503.455 1008.98L503.208 1008.72C500.379 1001.24 494.965 993.649 490.699 986.902C478.013 966.834 463.67 947.863 447.819 930.188C433.44 914.242 417.914 899.364 403.663 883.31C381.275 858.166 360.139 831.934 340.334 804.71C314.112 768.367 298.913 729.792 301.722 684.316C302.353 674.084 304.413 663.965 306.048 653.859C303.973 655.131 301.633 656.106 299.441 657.171ZM473.236 60.25L473.745 60.25L473.236 60.25ZM470.108 67.25L470.569 67.25L470.108 67.25ZM469.697 68.25L470.097 68.25L469.697 68.25ZM469.233 69.25L469.701 69.25L469.233 69.25ZM583.133 75.25L583.745 75.25L583.133 75.25ZM584.135 75.75L584.745 75.75L584.135 75.75ZM585.136 76.25L585.745 76.25L585.136 76.25ZM586.137 76.75L586.745 76.75L586.137 76.75ZM464.251 81.75L464.745 81.75L464.251 81.75ZM591.271 105.4C596.015 110.247 600.936 115.035 605.419 120.121C612.843 128.542 619.679 137.385 627.436 145.537C634.436 152.894 642.388 159.142 649.519 166.328C667.648 184.805 683.066 205.758 695.313 228.563C702.757 242.295 708.629 256.594 713.795 271.312C715.196 275.305 718.535 288.093 720.634 290.678C717.51 277.864 713.155 265.418 708.827 252.971C688.848 195.506 662.839 159.705 614.24 122.857C607.316 117.608 601.634 111.139 594.088 106.648C593.173 106.104 592.273 105.746 591.271 105.4ZM397.416 128.556C389.766 135.552 381.709 142.318 374.324 149.572C370.132 153.69 366.609 158.263 362.24 162.224C358.801 165.343 356.206 170.973 353.949 175.066C340.426 199.589 328.795 232.267 327.976 260.412L327.965 260.96L328.128 260.45C330.769 251.982 332.035 243.057 334.518 234.52C342.249 208.784 354.302 184.552 370.161 162.86C375.5 155.468 380.974 147.934 386.795 140.918C389.738 137.371 395.656 132.346 397.633 128.685L397.416 128.556ZM471.723 136.955L472.245 137.25L471.723 136.955ZM538.933 154.866C544.082 169.986 551.836 181.628 563.282 192.689C565.233 194.574 568.222 197.923 570.679 198.996C570.81 199.053 570.95 199.084 571.085 199.127C562.847 188.182 555.071 176.987 547.016 165.914C544.523 162.486 541.891 157.734 538.933 154.866ZM557.704 158.423C561.784 163.861 580.69 185.787 586.059 189.23C580.3 181.024 565.844 163.421 557.704 158.423ZM362.091 161.25L362.508 161.25L362.091 161.25ZM344.237 189.75L344.718 189.75L344.237 189.75ZM715.597 207.25L716.035 207.25L715.597 207.25ZM736.622 222.75L737.143 222.75L736.622 222.75ZM737.735 225.25L738.245 225.25L737.735 225.25ZM738.146 226.25L738.616 226.25L738.146 226.25ZM278.837 279.751C277.133 297.142 276.311 314.494 275.379 331.932C274.39 350.417 273.324 368.839 272.724 387.345C272.382 397.901 270.657 414.515 272.744 424.624C273.668 408.866 273.704 392.95 274.315 377.162C275.34 353.382 276.525 329.609 277.868 305.844C278.106 301.238 280.142 282.318 278.837 279.751ZM720.616 291.462L721.106 291.75L720.616 291.462ZM344.749 332.485L345.036 332.75L344.749 332.485ZM344.25 333.985L344.545 334.25L344.25 333.985ZM692.806 334.287C698.093 355.985 703.428 377.698 707.241 399.717C710.727 419.843 712.855 439.92 714.417 460.273C718.284 510.642 718.981 571.505 691.78 616.229C688.694 621.303 685.288 626.327 681.513 630.916C679.798 633 673.164 639.335 672.603 641.361L673.398 641.118C706.081 612.037 716.018 567.222 718.416 525.315C720.504 488.82 718.687 450.566 712.708 414.495C709.943 397.815 706.022 381.438 702.236 364.973C700.843 358.916 696.017 338.395 692.806 334.287ZM343.74 335.487L344.025 335.75L343.74 335.487ZM240.32 368.996C226.184 401.797 214.981 446.051 215.614 481.876C215.689 486.108 215.378 491.696 216.579 495.692C224.085 463.609 230.414 431.262 235.554 398.716C237.098 389.359 239.751 378.377 240.63 369.233L240.32 368.996ZM686.234 385.9C685.753 389.866 683.165 403.476 683.986 406.178L684.506 405.433C686.571 400.386 688.297 395.927 688.867 390.489C688.147 389.003 687.442 387.015 686.234 385.9ZM691.975 393.806C690.913 398.732 689.444 406.673 685.496 410.112C684.271 411.179 683.045 411.656 684.072 413.342C685.144 413.339 686.187 413.297 687.256 413.201C690.374 414.741 691.8 414.8 695.182 414.45C694.595 407.881 694.524 399.941 691.975 393.806ZM333.19 397.799C332.417 398.828 331.805 399.271 331.737 400.588C331.55 404.226 328.039 409.607 330.457 412.721C331.102 412.751 331.368 412.847 331.96 412.558C334.138 409.723 338.406 404.463 337.488 400.716C337.192 399.507 336.492 398.737 335.383 398.205C334.837 397.943 333.751 397.877 333.19 397.799ZM323.095 409.908C321.516 414.773 320.068 419.856 319.076 424.878C322.383 431.341 341.856 453.124 348.822 455.389C350.261 455.857 351.83 456.093 353.316 456.365L354.559 456.198C354.819 453.617 348.746 432.71 347.16 430.589C346.516 429.728 332.692 422.761 328.999 419.112C326.024 416.172 325.371 413.041 323.095 409.908ZM341.771 410.333C339.797 412.956 337.919 415.688 335.458 417.884C337.69 419.862 340.162 421.179 342.767 422.595L344.55 423.393C345.643 422.802 345.559 422.789 345.944 421.595C345.572 419.334 345.015 418.725 343.17 417.41C342.379 416.848 341.581 416.294 340.778 415.75C341.105 414.992 341.477 414.27 341.821 413.526C342.32 412.448 342.124 411.419 341.771 410.333ZM685.318 413.781C685.568 415.58 685.617 417.786 686.587 419.348L687.444 419.325C687.944 418.513 688.437 417.709 688.877 416.862L689.444 416.371C688.214 416.292 688.221 417.562 687.255 416.433C686.633 415.706 686.274 414.943 685.721 414.196C685.606 414.041 685.452 413.919 685.318 413.781ZM248.277 529.75L248.745 529.75L248.277 529.75ZM302.089 568.75L302.502 568.75L302.089 568.75ZM302.27 569.75L302.745 569.75L302.27 569.75ZM302.589 570.75L303 570.75L302.589 570.75ZM763.334 572C755.912 591.094 746.51 609.976 729.871 622.813C731.683 623.853 733.484 624.983 735.342 625.933L742.402 630.786C754.438 618.473 758.816 600.493 761.771 584.07C762.466 580.21 763.515 576.16 763.63 572.249L763.334 572ZM751.36 577.501C741.723 592.24 730.833 605.06 717.683 616.773L721.654 618.785L727.634 621.644C730.802 618.466 733.651 615.319 736.162 611.591C740.551 605.077 750.835 585.24 751.68 577.841L751.36 577.501ZM638.688 584.822C637.255 591.509 632.306 609.348 634.696 615.131C635.436 609.85 639.794 588.223 638.688 584.822ZM263.949 606.302C270.284 623.598 279.348 640.381 295.94 649.466C300.182 647.598 303.76 644.799 307.873 642.841C309.918 641.96 311.985 641.113 314.009 640.187C298.187 634.102 287.157 626.068 274.254 615.29C270.997 612.57 267.511 608.446 263.949 606.302ZM301.703 609.25L302.136 609.25L301.703 609.25ZM304.15 613.25L304.625 613.25L304.15 613.25ZM662.749 615.25L663.245 615.25L662.749 615.25ZM662.196 616.25L662.659 616.25L662.196 616.25ZM742.361 641.262C744.311 647.293 748.484 655.231 748.551 661.494C748.678 673.305 727.646 719.796 721.188 732.458C698.05 778.516 669.453 821.621 636.015 860.845C614.903 885.153 590.59 906.602 568.477 929.973C546.308 953.402 526.3 979.66 507.265 1005.67C508.504 1007.79 509.702 1009.93 511.147 1011.91L513.435 1009.13C531.842 984.524 553.286 962.929 574.95 941.229L618.622 896.982C665.698 848.542 711.528 782.611 739.424 721.061C748.18 701.742 760.522 676.325 757.484 654.74C757.239 653 756.843 651.3 756.408 649.598C751.855 646.702 747.254 643.551 742.361 641.262ZM363.137 643.75L363.745 643.75L363.137 643.75ZM364.636 644.75L365.245 644.75L364.636 644.75ZM322.598 647.209C319.107 653.373 317.568 660.469 316.01 667.327C310.755 690.46 308.147 715.684 314.495 738.85C325.545 779.179 355.381 814.647 381.538 846.293C395.241 862.871 408.795 879.213 423.304 895.115C446.15 920.156 470.133 944.557 488.381 973.342L489.725 975.406L490.087 975.323C488.529 970.459 486.089 965.713 483.978 961.053C480.202 952.72 476.271 944.545 471.146 936.934C461.947 923.273 449.607 911.194 439.026 898.557C420.235 876.394 401.96 853.799 384.214 830.791C350.889 787.946 331.892 767.526 324.185 711.069C320.788 686.18 320.342 675.33 328.717 651.113C326.719 649.703 324.792 648.307 322.598 647.209ZM243.641 700.988C221.315 709.413 199.476 719.077 178.226 729.934C159.426 739.36 142.724 747.803 126.608 761.763C123.513 764.444 120.015 767.092 117.724 770.518L117.728 771.377L118.272 771.403C122.052 768.87 126.076 766.747 129.827 764.189C135.915 760.037 141.644 755.575 147.995 751.792C159.223 745.104 171.019 739.42 182.641 733.461C195.359 726.939 207.921 720.243 220.813 714.052C224.762 712.155 243.08 704.559 244.227 701.239L243.641 700.988ZM109.774 778.748C93.5414 793.759 77.4271 854.616 71.1589 877.255C68.8813 885.481 65.5126 894.487 64.6318 902.95L64.8121 903.315C64.868 903.071 64.9209 902.826 64.9799 902.583C65.1775 901.767 65.474 901.072 65.8048 900.305C67.1587 897.167 67.6693 893.624 68.6751 890.353C70.5679 884.197 72.6976 878.104 74.5458 871.909C80.6491 851.451 96.5754 800.417 109.686 785.533C115.259 798.063 118.436 811.132 122.077 824.292L131.827 858.621C142.035 891.406 151.452 924.274 162.596 956.777C165.557 965.412 168.199 974.155 171.534 982.657C168.648 967.895 164.326 953.294 160.417 938.771C154.389 915.482 147.942 892.303 141.078 869.246C133.894 844.53 127.427 817.83 118.661 793.821C117.414 790.405 114.379 780.872 111.007 779.097C110.563 778.864 110.24 778.834 109.774 778.748ZM422.985 785.49C425.222 791.934 427.949 798.185 430.311 804.582C434.434 815.747 438.161 827.036 442.419 838.157C451.049 860.699 460.35 882.942 469.189 905.391C480.73 934.704 491.213 964.377 503.117 993.573C504.236 984.647 509.731 972.658 512.824 964C517.84 949.956 522.436 935.749 528.015 921.913C539.005 893.545 550.12 865.597 563.183 838.089C569.615 824.544 577.514 811.693 583.721 798.033C546.156 816.332 500.443 819.889 460.781 806.187C446.972 801.416 434.372 794.644 422.985 785.49ZM903.693 824.75L904.129 824.75L903.693 824.75ZM168.63 862.857C168.493 875.44 171.154 891.2 172.592 903.857C175.92 933.333 179.742 962.75 184.057 992.098C185.479 1001.56 185.736 1011.88 187.88 1021.14C188.657 1011.16 187.261 1000.61 186.476 990.641C185.462 977.762 184.455 964.847 182.838 952.028C180.645 934.644 177.627 917.309 174.872 900.004C172.938 887.857 171.796 874.721 168.63 862.857ZM490.707 976.75L491.119 976.75L490.707 976.75ZM171.709 983.25L172.051 983.25L171.709 983.25Z"/><path d="M627.968 90.7265L628.708 91.1244L627.968 90.7265Z"/><path d="M628.708 91.1244L628.997 91.3788L628.708 91.1244Z"/><path d="M643.848 99.7047L643.616 99.0583L643.848 99.7047Z"/><path d="M643.848 99.7047L644.346 99.8976L643.848 99.7047Z"/><path d="M648.314 99.8087L648.123 99.6005L648.314 99.8087Z"/><path d="M627.414 105.37L627.084 105.067L627.414 105.37Z"/><path d="M627.414 105.37L627.82 105.803L627.414 105.37Z"/><path d="M328.388 144.726L328.768 143.958L328.388 144.726Z"/><path d="M327.838 145.823L328.388 144.726L327.838 145.823Z"/><path d="M327.586 146.413L327.838 145.823L327.586 146.413Z"/><path d="M320.713 162.314L320.917 162.028L320.713 162.314Z"/><path d="M350.637 173.274L350.885 173.002L350.637 173.274Z"/><path d="M548.422 299.011L548.224 298.674L548.422 299.011Z"/><path d="M455.302 299.337L455.122 299.087L455.302 299.337Z"/><path d="M538.98 302.753L539.374 302.502L538.98 302.753Z"/><path d="M463.423 308.274L463.123 308.002L463.423 308.274Z"/><path d="M551.242 352.411C553.718 343.295 561.615 334.52 569.725 329.933C583.179 322.325 602.925 320.306 617.723 324.549C622.952 326.037 628.035 327.995 632.911 330.398L633.13 330.931L630.795 331.334C632.762 332.118 634.723 332.957 636.744 333.59C638.036 333.414 639.439 333.015 640.662 333.587C639.39 334.492 637.287 334.691 635.766 334.423C630.801 333.546 626.227 329.984 621.441 328.371C604.793 322.76 581.73 325.07 566.868 334.596C558.66 339.857 557.122 345.631 551.242 352.411Z"/><path d="M645.186 358.082C641.638 357.559 638.107 357.265 634.531 357.014C637.492 358.293 640.78 359.741 642.554 362.579L642.452 363.522L641.78 363.813C638.97 362.24 636.35 360.926 633.125 360.52L632.27 360.893L632.957 361.967C630.511 362.379 628.06 362.766 625.605 363.129C629.388 365.21 633.109 366.348 636.065 369.704L635.665 370.052C632.046 369.003 627.324 366.329 624.413 363.856C614.015 369.968 602.491 371.352 590.66 372.445C582.128 373.234 574.435 371.886 565.991 371.122C562.831 370.836 559.248 371.308 556.224 370.275C554.508 369.689 553.122 368.418 551.752 367.275C553.433 359.684 557.736 352.32 562.696 346.385C575.73 330.792 598.176 325.968 617.458 330.836C629.915 333.98 640.604 341.083 653.869 340.692C656.034 340.628 657.903 339.957 660.013 339.763C659.802 340.416 659.575 340.803 659.044 341.252C655.01 344.664 647.007 348.714 641.772 349.615C638.97 350.098 635.576 349.604 632.729 349.436C633.752 350.974 634.692 352.578 635.663 354.15C638.966 355.09 642.288 356.207 645.186 358.082ZM613.492 342.221C614.949 348.826 615.373 354.293 611.414 360.212C608.565 364.47 604.513 367.426 600.051 369.819C603.782 369.492 607.355 369.111 610.997 368.221C617.202 365.984 623.194 361.66 626.242 355.601C627.04 354.014 627.559 352.133 626.779 350.426C624.968 346.468 617.305 344.058 613.492 342.221ZM585.278 345.25L585.745 345.25L585.278 345.25ZM570.278 347.373C563.654 354.376 561.386 359.237 557.707 367.864C557.793 365.503 558.081 363.172 557.267 360.915L556.977 360.822L557.032 361.037L555.211 361.242C554.892 363.161 554.611 365.911 555.999 367.497C556.811 368.426 558.157 369.22 559.173 369.935C562.314 369.935 565.329 370.018 568.446 370.437C576.577 370.688 584.774 371.154 592.899 370.67C586.026 369.452 579.321 368.079 574.964 362.037C571.302 356.959 571.809 352.948 570.278 347.373ZM585.613 348.323C583.177 349.036 580.639 349.008 578.73 350.674C578.439 351.943 578.377 352.543 579.061 353.707C580.086 355.452 583.421 357.474 585.31 357.993C587.351 356.264 590.369 354.189 591.25 351.605C590.314 349.831 587.479 349.261 585.681 348.333C585.661 348.322 585.635 348.327 585.613 348.323ZM599.743 359.984C595.112 362.661 588.926 361.161 585.945 363.13C586.369 364.176 586.058 363.784 586.759 364.388C590.486 364.781 595.975 365.564 599.2 363.291C600.069 362.679 599.919 361.851 600.101 360.868L599.743 359.984Z"/><path d="M374.243 337.667C383.953 332.079 394.886 330.517 405.882 329.698C411.464 329.306 417.382 329.887 422.832 331.136C437.605 334.523 449.786 344.709 457.674 357.398C450.927 351.716 445.394 345.45 438.019 340.409C423.776 331.612 407.752 331.033 391.652 334.062C386.05 335.116 380.558 336.742 374.914 337.571L374.243 337.667Z"/><path d="M363.407 342.896C365.644 343.93 367.83 344.879 370.18 345.644L370.498 345.879L370.18 345.644C367.891 342.955 365.509 340.392 363.608 337.403C369.846 341.727 376.277 342.586 383.673 341.274C403.341 337.784 422.781 333.91 440.468 346.058C447.351 350.786 455.113 360.014 456.65 368.424C456.952 370.072 456.882 371.284 455.756 372.605C454.959 373.54 452.78 374.425 451.575 374.437C450.884 374.444 450.769 374.375 450.178 374.209L450.187 373.428C451.54 372.159 452.917 370.908 454.235 369.603C451.303 364.112 447.423 359.171 443.372 354.465C442.186 362.815 440.476 367.26 435.138 373.832C437.7 373.767 440.269 373.654 442.831 373.678C431.949 376.878 418.879 380.155 408.35 374.356C403.205 371.521 399.073 367.075 397.505 361.327C396.022 355.89 397.136 351.662 399.687 346.828L399.998 346.632L399.687 346.828C392.001 349.134 384.269 353.341 379.764 360.211C385.996 369.013 393.79 375.452 404.7 377.263C413.533 378.73 423.046 378.757 431.978 378.098C415.974 382.876 400.454 380.993 385.853 372.808C384.395 371.991 383.118 370.861 381.874 369.754C376.532 371.812 371.148 374.156 365.583 375.53C370.098 371.474 374.756 369.616 380.487 367.947L377.069 364.224C374.533 364.597 371.029 365.474 368.562 364.941L369.454 364.499L369.846 364.954L370.251 364.227C372.566 363.556 374.869 362.998 377.223 362.489C370.872 360.627 363.73 359.8 357.984 356.418C355.345 354.865 353.145 352.681 350.573 351.025C354.708 351.748 358.762 352.66 362.841 353.652C360.96 352.475 357.946 351.099 356.743 349.243C358.816 349.437 360.18 351.189 362.307 351.45L362.536 351.188L359.783 349.147C361.735 348.672 363.54 350.072 365.531 349.328C365.502 348.435 365.628 348.867 365.087 348.054C366.272 348.395 366.888 348.854 368.052 348.329C367.427 346.328 364.887 344.379 363.407 342.896ZM406.196 351.131C404.769 352.051 404.225 352.489 403.48 354.013C403.576 355.343 403.543 355.791 404.604 356.759C407.011 358.959 409.778 358.505 412.684 358.108C413.764 356.655 415.028 355.324 415.126 353.441C414.565 352.172 414.45 351.863 413.09 351.282C411.153 350.453 408.234 350.947 406.196 351.131ZM407.803 364.156C408.434 365.618 408.532 366.564 409.938 367.371L411.118 367.081C410.614 365.832 410.5 365.214 409.214 364.582C408.841 364.398 408.218 364.26 407.803 364.156Z"/><path d="M362.983 346.53L362.502 346.123L362.983 346.53Z"/><path d="M362.983 346.53L363.758 347.112L362.983 346.53Z"/><path d="M363.758 347.112L364.455 347.547L363.758 347.112Z"/><path d="M364.455 347.547L365.087 348.054L364.455 347.547Z"/><path d="M550.899 353.245L551.242 352.411L550.899 353.245Z"/><path d="M550.597 353.974L550.899 353.245L550.597 353.974Z"/><path d="M645.186 358.082L645.497 358.374L645.186 358.082Z"/><path d="M632.957 361.967L634.255 362.619L632.957 361.967Z"/><path d="M634.255 362.619L634.497 362.88L634.255 362.619Z"/><path d="M625.392 376.125C621.909 372.985 619.243 371.575 614.725 370.378L614.737 370.029L617.512 369.076C619.012 369.25 620.329 369.494 621.721 370.107C623.742 370.997 626.045 372.939 626.777 375.075C627.12 376.076 627.108 375.649 626.656 376.622L625.392 376.125Z"/><path d="M610.959 372.007L611.477 371.567L610.959 372.007Z"/><path d="M613.371 378.917C612.286 377.477 610.949 376.196 609.995 374.667C609.391 373.7 609.241 373.661 609.492 372.501L610.959 372.007C610.997 372.052 611.027 372.105 611.072 372.143C611.663 372.635 611.771 372.601 612.347 373.196C613.528 374.417 614.377 376.936 614.219 378.614L613.371 378.917Z"/><path d="M605.928 378.374C603.854 377.849 602.118 374.171 600.077 372.82C601.32 372.794 602.187 372.797 603.39 373.184C604.962 374.449 605.335 376.524 605.928 378.374Z"/><path d="M374.533 382.458L374.188 382.116C375.83 378.5 383.45 376.081 386.959 374.698L387.249 374.942C384.115 378.632 378.944 380.776 374.533 382.458Z"/><path d="M384.34 385.296L383.907 385.737L383.363 385.498C383.634 382.527 386.951 380.377 388.324 377.766C389.371 378.403 389.605 378.34 390.135 379.504C388.905 381.597 386.405 382.944 384.751 384.823L384.34 385.296Z"/><path d="M390.167 385.194C391.56 382.772 392.873 381.816 395.451 380.801C394.162 382.729 392.178 384.073 390.167 385.194Z"/><path d="M402.763 381.34L403.498 381.117L402.763 381.34Z"/><path d="M402.002 381.996L402.763 381.34L402.002 381.996Z"/><path d="M385.772 388.133L385.336 387.612C385.507 385.499 387.857 383.352 389.242 381.898L389.68 382.297C388.449 384.286 387.091 386.201 385.772 388.133Z"/><path d="M392.692 389.691L392.174 390.229L391.382 390.187C391.347 389.685 391.305 389.555 391.456 389C392.251 386.085 394.936 383.531 397.32 381.896C398.518 381.825 398.962 381.65 400.072 382.173C399.846 382.354 399.635 382.554 399.395 382.717C396.808 384.471 394.759 387.312 392.692 389.691Z"/><path d="M401.836 391.781C401.504 391.512 401.219 391.316 400.983 390.935C400.426 390.037 400.29 388.784 400.443 387.758C400.757 385.658 401.815 384.441 403.474 383.234L404 383.421C404.569 384.933 402.402 389.958 401.836 391.781Z"/><path d="M389.937 385.615L390.167 385.194L389.937 385.615Z"/><path d="M389.541 385.954L389.937 385.615L389.541 385.954Z"/><path d="M682.765 420.546L682.659 420.567L682.317 420.148L682.765 420.546Z"/><path d="M345.688 439.027C341.059 437.778 336.61 434.356 332.946 431.368C329.083 428.218 325.116 425.022 324.587 419.812C327.792 421.261 342.583 435.542 345.688 439.027Z"/><path d="M685.717 430.111L685.913 430.372L685.717 430.111Z"/><path d="M499.882 469.69C495.954 468.319 484.676 466.462 482.61 463.573C482.571 461.901 483.024 460.971 483.754 459.53C488.478 458.916 492.371 460.685 496.132 463.452C498.074 464.881 500.106 466.452 500.518 468.935L499.882 469.69Z"/><path d="M522.371 466.791C521.338 467.315 520.265 467.934 519.139 468.225C518.2 468.468 518.088 468.544 517.212 468.064L517.267 467.048C520.177 462.803 524.176 461.018 528.936 459.579C530.524 459.497 532.791 459.164 534.075 460.284C535.038 461.124 535.177 461.531 535.222 462.706C533.111 465.31 526.322 465.372 523.025 466.55C522.806 466.628 522.589 466.71 522.371 466.791Z"/><path d="M499.66 490.609C499.371 490.452 499.191 490.148 498.967 489.907C504.697 488.634 504.899 494.937 517.755 488.497L518.372 489.052C517.31 490.297 514.981 491.308 513.45 491.95C508.558 493.999 504.289 492.379 499.66 490.609Z"/><path d="M566.27 500.493C567.53 498.688 568.908 497.015 570.312 495.323C571.072 495.397 571.754 495.459 572.431 495.858C573.774 496.65 574.821 498.374 574.983 499.9C575.131 501.288 574.567 502.069 573.757 503.107C571.968 503.91 571.16 503.584 569.248 503.325C564.487 508.079 538.56 520.35 532.048 521.646C526.596 522.73 519.762 521.905 514.209 521.851C493.251 521.647 493.782 524.106 474.026 515.624C469.385 513.632 464.345 511.783 460.183 508.901C459.957 508.847 459.732 508.79 459.505 508.739C458.275 508.462 456.909 508.291 455.86 507.535C454.333 506.434 453.337 504.783 452.91 502.99C453.046 501.806 453.297 501.078 454.116 500.173C455.152 499.028 456.155 498.53 457.672 498.487C459.037 499.626 458.904 501.425 459.64 502.928C460.372 504.425 461.562 504.832 463.063 505.312C474.304 508.903 483.653 504.343 494.834 503.971C499.03 503.832 503.199 505.623 507.377 505.717C512.677 505.837 518.012 503.947 523.432 504.051C531.962 504.214 541.126 507.077 549.561 506.143C555.812 505.451 560.69 503.193 566.27 500.493ZM494.267 508.648C489.518 509.495 484.759 510.392 479.959 510.893C498.043 519.022 508.967 520.182 528.609 516.843C533.646 515.569 538.281 513.78 542.941 511.493C535.272 509.925 527.308 508.283 519.437 508.991C516.432 509.261 513.428 510.888 510.44 510.873C505.067 510.846 499.699 508.858 494.267 508.648Z"/><path d="M482.317 539.433L480.731 538.079C484.768 537.981 491.237 542.16 495.661 543.015C509.039 545.602 525.722 545.057 538.214 539.229C542.653 537.158 546.778 534.203 550.871 531.524L551.152 532.049C542.675 539.853 536.347 544.671 524.725 546.829C509.469 549.662 495.242 548.375 482.317 539.433Z"/><path d="M514.571 561.228C516.287 559.369 517.831 557.583 520.006 556.243L520.208 556.627L518.73 559.267L518.914 559.755C519.993 559.348 520.531 558.784 521.367 558.026C520.044 560.758 518.477 563.589 516.48 565.898C515.725 566.771 515.217 567.386 514.023 567.435L513.816 566.212L513.364 566.263C513.116 567.187 513.039 567.56 512.407 568.308C511.678 567.691 511.823 566.164 511.728 565.208C511.097 565.933 511.105 567.201 510.941 568.15L510.442 568.316C509.015 567.62 508.48 567.194 507.563 565.898C507.341 563.785 508.817 562.086 509.663 560.123C507.927 560.778 507.523 563.119 505.695 564.041C506.533 561.513 508.318 559.863 510.401 558.325C511.045 557.347 511.698 556.542 512.51 555.699L513.076 556.022C513.603 559.104 509.494 563.921 507.947 566.671C512.087 562.718 515.027 557.405 518.162 552.636C517.242 555.642 515.918 558.397 514.571 561.228ZM513.517 563.515L513.115 563.997L513.517 563.515L513.887 563.003L513.517 563.515ZM514.669 561.25L515.066 561.25L514.669 561.25ZM514.195 562.25L514.529 562.25L514.195 562.25Z"/><path d="M521.367 558.026L521.7 557.422L522.052 557.367C521.835 557.598 521.664 557.913 521.367 558.026Z"/><path d="M790.395 618.076L790.733 617.733L790.395 618.076Z"/><path d="M789.853 618.659L790.395 618.076L789.853 618.659Z"/><path d="M789.41 619.17L789.853 618.659L789.41 619.17Z"/><path d="M788.907 619.683L789.41 619.17L788.907 619.683Z"/><path d="M565.778 686.466C568.465 675.958 590.319 626.741 595.581 619.246C593.833 629.058 572.009 678.737 565.778 686.466Z"/><path d="M788.605 619.997L788.907 619.683L788.605 619.997Z"/><path d="M816.838 648.162L817.256 647.459L816.838 648.162Z"/><path d="M816.384 648.628L816.838 648.162L816.384 648.628Z"/><path d="M816.111 648.997L816.384 648.628L816.111 648.997Z"/><path d="M262.66 652.638L262.998 652.905L262.66 652.638Z"/><path d="M565.385 687.222L565.778 686.466L565.385 687.222Z"/><path d="M565.017 687.997L565.385 687.222L565.017 687.997Z"/></svg>