<?xml version="1.0" encoding="utf-8" ?><svg xmlns="http://www.w3.org/2000/svg" xmlns:xlink="http://www.w3.org/1999/xlink" width="1024" height="1024" viewBox="0 0 1024 1024"><path fill="white" d="M0 0L0 1024L1024 1024L1024 0L0 0Z"/><path d="M33.2466 1024C41.4518 983.054 58.0613 891.908 81.7712 860.523C88.3617 851.799 98.7068 845.416 107.714 839.414C125.579 827.508 144.651 816.838 163.642 806.851C141.246 726.511 160.245 653.579 182.652 575.873L191.889 543.231C195.479 530.754 199.39 518.258 201.44 505.407C203.685 491.331 203.14 476.846 203.54 462.63C203.897 449.93 204.891 437.176 205.751 424.5C210.962 347.652 222.488 262.104 251.4 190.552C256.228 178.605 261.232 166.867 267.56 155.625C310.739 78.9155 369.779 35.036 454.372 11.3876C470.037 7.00835 486.562 3.13824 502.814 1.84771C555.935 -2.37053 608.775 15.8632 654.423 41.6133C715.229 75.9137 761.226 138.647 779.837 205.593C796.647 266.059 801.735 329.18 811.094 391.076C814.903 416.263 820.27 441.366 826.018 466.177C834.622 502.309 844.911 538.02 856.851 573.191C864.981 596.845 874.121 620.165 882.41 643.764C897.787 687.546 911.49 731.905 920.404 777.497C924.786 799.904 928.434 821.86 928.081 844.78C934.548 849.658 940.355 854.505 945.102 861.169C966.82 891.658 978.133 960.562 984.992 997.688C986.601 1006.39 987.696 1015.4 989.738 1024L745.719 1024C738.726 1014.57 731.544 1005.48 725.46 995.417C724.228 996.297 723.182 996.963 722.431 998.326C722.816 1003.44 735.632 1018.88 739.315 1024L686.542 1024C700.703 1011.32 714.314 997.224 727.165 983.235C767.691 939.12 791.915 901.862 814.466 846.309C820.581 831.246 826.706 816.602 830.483 800.742L810.893 788.385C806.883 809.043 798.274 829.041 789.351 847.987C780.257 867.688 769.943 886.802 758.469 905.218C747.219 922.957 734.48 939.361 721.225 955.621C701.448 979.883 681.043 1002.5 658.233 1024L636.695 1024C649.412 1012.52 660.505 999.543 671.808 986.71C681.407 975.812 691.162 965.063 700.667 954.078C738.812 910.109 768.617 859.551 788.618 804.886C790.857 798.588 796.154 786.153 795.674 779.612C793.632 775.677 786.387 772.72 782.562 770.755C782.586 773.426 782.51 776.095 782.128 778.742C780.07 793.025 772.496 807.591 766.295 820.496C736.071 883.393 689.84 946.283 640.295 995.445C630.371 1005.29 620.324 1015.59 609.127 1024L560.72 1024C566.342 1011.9 572.56 1000.1 578.161 988.001C588.697 965.079 598.756 941.941 608.333 918.603C624.922 878.477 639.912 838.311 650.032 796.003C652.811 784.384 655.782 772.897 657.61 761.074C647.278 786.551 637.249 812.071 625.071 836.756C616.517 854.093 607.382 871.181 598.421 888.313C593.78 897.185 589.446 907.06 584.044 915.465C583.285 916.646 582.667 917.069 581.369 917.51C578.335 914.8 567.289 882.604 565.212 877.112C562.465 881.023 560.884 885.081 557.441 888.56C555.904 895.863 553.042 903.066 550.807 910.196C548.417 917.821 546.64 925.647 545.026 933.469C543.959 938.644 543.659 947.002 541.907 951.449C541.298 952.995 539.992 954.45 538.98 955.749C545.366 978.159 550.42 1001.3 555.68 1024L503.127 1024C508.5 1012.04 514.965 1000.62 520.605 988.791C525.886 977.609 530.336 966.052 533.917 954.215C532.241 952.202 530.417 950.616 528.41 948.96C522.181 972.629 506.109 1002.12 494.551 1024L458.715 1024C460.888 1016.71 464.264 1009.41 467.025 1002.29C472.251 988.875 477.378 975.42 482.407 961.929C484.298 956.835 487.51 951.042 488.293 945.713C487.83 945.779 487.642 945.777 487.175 946.012C485.747 946.729 484.871 947.958 484.102 949.31C479.618 957.199 476.646 966.598 473.226 975.054C466.7 991.189 459.737 1007.5 454.217 1024L411.872 1024C404.202 1018.41 397.298 1011.74 390.322 1005.32C368.185 984.96 349.085 962.436 330.695 938.695C293.464 890.632 260.576 837.996 237.943 781.413C251.026 774.379 264.832 769.406 277.641 761.629C298.124 749.193 315.081 730.77 331.622 713.691C339.29 705.774 347.203 698.043 354.573 689.846C346.613 695.747 338.751 701.966 331.523 708.753C321.379 718.28 312.043 728.681 301.973 738.308C284.633 754.886 269.933 761.501 248.959 771.691C246.286 772.99 240.456 776.876 237.782 776.699C234.642 776.49 225.174 782.157 222.004 783.753C225.864 791.04 228.418 799.216 231.706 806.802C237.099 819.248 243.139 831.666 249.392 843.705C254.835 854.183 260.309 864.932 266.441 875.012C279.081 895.791 293.49 915.177 307.885 934.73C317.165 947.336 325.969 960.456 335.75 972.667C350.759 991.404 367.348 1007.82 385.02 1024L364.198 1024C340.864 1005.24 321.989 981.24 303.713 957.74C291.586 942.147 279.636 926.621 268.381 910.378C256.501 893.232 245.45 874.591 236.203 855.9C230.44 844.254 225.401 832.344 220.129 820.482C216.584 812.507 211.51 803.636 210.147 794.983C209.768 792.579 210.482 789.826 210.913 787.45C205.413 790.388 197.503 793.105 193.108 797.428C192.726 798.311 192.605 799.024 192.658 799.975C193.024 806.519 196.171 814.206 198.073 820.537C210.926 863.332 250.311 926.991 278.659 961.914C287.699 973.051 298.125 983.149 307.77 993.786C316.935 1003.89 325.898 1015 336.125 1024L286.493 1024C290.854 1014.52 297.812 1001.96 297.404 991.361C297.355 990.095 297.514 989.67 296.569 988.791C292.462 991.843 281.545 1017.85 279.158 1024L33.2466 1024ZM506.5 11.5L505.909 11.7769C497.716 13.6984 489.285 20.9551 484.908 27.9906C483.728 29.8873 482.785 31.7626 482.194 33.9307L482.002 34.4975L482.194 33.9307C484.757 31.0675 486.335 27.2667 488.918 24.3337C493.649 18.9632 499.949 16.2188 505.552 12.0479L505.909 11.7769L506.5 11.5L507.498 11.0025L506.5 11.5ZM416.811 29.6651L416.341 29.8584L416.811 29.6651C426.296 28.4234 435.838 27.0372 445.294 29.3071C449.5 30.3166 454.281 32.4351 458.524 32.655L459.877 33.2139L460.498 33.4975L459.877 33.2139L458.524 32.655C458.001 32.2514 457.498 31.9402 456.882 31.6945C445.083 26.991 428.89 24.6454 416.811 29.6651ZM481.5 36L480.787 38.1323L480.622 38.6368L480.787 38.1323L481.5 36L481.997 35.0025L481.5 36ZM503.547 38.198L502.772 38.6258L501.732 39.1299L501.502 39.3955L501.732 39.1299L502.772 38.6258L503.547 38.198C509.657 36.8956 515.475 35.1744 521.735 34.527C528.641 33.8129 535.582 34.0665 542.505 34.3322C574.303 35.5527 604.294 44.0301 631.124 61.4376C637.651 65.6723 645.171 70.0888 650.655 75.6433C641.926 70.7714 633.729 65.0341 624.778 60.5325C607.236 51.8715 588.553 45.744 569.289 42.3333C566.005 41.7662 562.2 40.7904 558.891 41.2805C561.029 42.5352 564.352 42.2235 566.803 43.0341C572.839 45.0644 578.74 47.4731 584.473 50.2458L585.319 50.6667C569.712 46.1368 554.151 40.8571 537.715 41.0463C544.778 42.4996 552.032 43.1101 559.066 44.6889C579.877 49.3597 599.344 59.0063 616.491 71.5809C607.409 67.6327 598.422 63.3792 589.22 59.7245C595.974 66.1134 610.569 69.871 619.638 77.4984C611.555 74.2228 603.753 70.3148 595.697 66.9733C590.501 64.8178 585.14 63.1513 579.843 61.2702C577.681 60.5024 574.801 58.8207 572.536 58.9796L572.762 59.4406C603.428 69.6638 631.353 86.7574 654.407 109.417C661.382 116.333 667.74 123.928 674.105 131.402C682.553 141.324 690.713 150.937 697.978 161.784C703.434 169.889 708.605 178.182 713.483 186.648C716.128 191.227 718.513 196.835 721.706 200.987L721.997 201.498L721.706 200.987C720.327 192.831 715.607 184.241 712.121 176.725C697.339 144.856 678.11 116.012 653.097 91.18C648.784 86.8979 644.096 83.0314 639.637 78.9047C652.303 85.8006 664.931 94.6799 675.073 104.988C678.742 108.718 681.775 113.056 685.528 116.69L685.86 117.005L686.515 117.984L687.152 118.715L687.391 118.998L687.152 118.715L686.515 117.984L685.86 117.005C685.048 114.885 683.58 112.815 682.394 110.861C675.86 100.097 669.251 93.8107 660.854 84.87C677.381 92.7332 701.53 126.233 711.916 141.38C715.694 146.889 719.083 154.261 723.722 158.98L724.116 159.717L724.637 160.78L724.911 160.998L724.637 160.78L724.116 159.717L723.722 158.98C722.302 152.657 707.735 127.243 703.816 121.111C690.069 99.5967 670.124 78.9502 648.907 64.7021C638.669 57.8265 627.675 52.2724 616.512 47.0788C604.784 41.6222 592.382 36.6435 579.706 33.9342C559.436 29.6017 520.939 27.0018 503.547 38.198ZM417.5 66.5L415.517 67.214L415.22 67.3894C415.071 67.4153 414.921 67.4386 414.772 67.4672C403.618 69.612 392.643 78.6554 381.824 79.9437C383.655 77.4824 396.795 70.4794 400.394 67.893C386.468 72.8814 373.879 82.7471 362.143 91.5285C359.181 93.7453 355.023 96.3072 352.753 99.2383L352.398 99.581L351.548 100.181L352.398 99.581L352.753 99.2383C356.068 97.2762 373.496 84.9787 374.839 84.6718C374.148 86.2546 372.308 86.4312 371.904 88.0357L373.295 88.5473C366.88 95.224 356.964 100.067 351.718 107.757L351.418 108.091L350.813 108.618L350.328 109.085L350.002 109.39L350.328 109.085L350.813 108.618L351.418 108.091L351.718 107.757C355.309 106.1 358.782 103.052 362.001 100.731C371.578 93.8285 380.883 86.0494 390.815 79.7163C395.387 76.8008 400.288 74.3549 405.23 72.1336C408.513 70.658 412.233 69.3954 415.22 67.3894L415.517 67.214L417.5 66.5L418.366 66.2123L417.5 66.5ZM386.756 84.8213L386.339 85.2469C382.423 86.8958 376.6 90.338 374.067 93.8033L373.555 93.9975L374.067 93.8033C378.099 92.608 383.564 88.3633 386.339 85.2469L386.756 84.8213L387.498 84.5996L386.756 84.8213ZM423.256 91.3175L422.806 92.1988L421.967 92.7043C414.293 96.6137 407.17 102.659 400.525 108.097C362.353 139.332 336.102 182.955 321.021 229.571C312.451 256.064 310.198 277.341 308.049 304.874C307.762 308.545 306.42 314.937 307.213 318.304C308.88 316.542 310.645 291.712 311.449 287.196C317 257.267 326.251 228.144 338.987 200.498C353.796 168.316 371.365 139.607 396.803 114.743C401.969 109.693 407.476 105.013 413.026 100.395C415.93 97.9783 419.514 95.5612 421.967 92.7043L422.806 92.1988L423.256 91.3175L423.998 91.0975L423.256 91.3175ZM601.086 121.002L601.356 121.225C605.682 126.441 610.441 131.285 614.874 136.409C623.716 146.627 632.17 157.497 639.642 168.759C676.016 223.584 708.163 315.98 702.083 382.054C698.614 419.742 683.717 463.886 662.556 495.369C659.513 499.897 655.749 505.925 651.619 509.477C651.516 509.566 651.404 509.642 651.296 509.725C652.81 506.388 655.133 503.164 657.035 500.026C660.202 494.799 663.221 489.462 665.729 483.882C681.871 447.958 685.234 407.091 684.916 368.22C677.753 362.608 669.079 358.51 661.552 353.274C646.875 343.064 633.072 331.098 619.889 319.042C633.355 338.945 653.745 352.43 672.893 366.225C665.236 363.456 656.435 360.774 648.215 360.887C637.219 361.038 626.074 366.192 615.261 368.21C609.94 369.203 604.407 369.515 599.021 370.113C585.438 371.622 569.187 373.206 556.086 376.927C553.703 377.604 551.711 378.943 549.381 379.689C550.209 378.081 551.912 376.959 553.3 375.828C544.937 373.234 536.82 370.197 529.041 366.147C524.364 363.712 519.946 360.822 515.291 358.343L515.003 358.073L515.291 358.343C522.342 365.783 534.162 371.431 542.926 376.797C536.545 376.324 530.201 374.9 523.944 373.605C528.796 375.933 533.907 377.891 538.869 379.984L538.37 379.915C533.423 379.228 528.52 378.473 523.748 376.956C503.539 370.532 484.82 355.062 471.917 338.572C466.354 331.462 461.757 323.717 456.331 316.547L456 316L455.332 315.24L455.11 314.502L455.332 315.24L456 316L456.331 316.547C458.671 322.494 462.317 328.185 465.763 333.562C477.386 351.701 488.872 364.482 503.486 380.03C474.953 370.875 455.838 346.902 442.166 321.381C438.787 315.073 436.436 308.083 432.848 301.942L432.335 301.079L432.078 300.502L432.335 301.079C438.879 323.953 449.36 345.975 464.699 364.222C469.574 370.021 475.834 375.008 480.37 380.964C473.461 377.799 467.031 373.552 461.034 368.9C458.508 366.941 455.986 364.361 453.266 362.734L453.029 362.508L453.266 362.734C456.143 367.985 460.892 372.053 464.161 377.051C460.803 374.899 458.274 372.289 455.27 369.733L454.899 369.413L454.613 369.002L454.899 369.413L455.27 369.733C455.657 371.015 456.378 372.502 455.895 373.813C449.646 374.592 431.838 370.227 424.153 369.151C425.802 372.431 427.359 375.708 429.561 378.662C433.887 385.83 444.859 389.873 449.869 398.94C446.262 395.401 442.685 391.834 438.512 388.952C426.606 380.73 410.029 377.002 395.725 377.102C387.053 377.237 378.418 378.275 369.961 380.198L373.23 383.355C392.67 380.531 419.107 381.714 435.448 393.914C442.424 399.122 458.519 416.413 459.567 425.391C459.765 427.087 459.138 428.761 458.055 430.056C456.071 432.431 452.651 433.255 449.69 433.425C447.522 433.55 445.167 433.207 443.034 432.859C443.176 432.809 443.318 432.756 443.46 432.707C447.114 431.452 453.633 431.418 455.885 427.877C456.693 426.607 456.577 425.027 456.079 423.674C455.281 421.505 453.639 419.604 452.153 417.874L451.247 416.828C450.155 416.919 449.721 417.129 448.76 417.604C445.39 416.065 442.231 411.104 439.424 408.522C436.128 417.254 432.16 424.763 423.234 428.927C416.511 432.063 408.953 432.053 402.09 429.393C395.673 426.907 390.366 422.09 387.736 415.678C384.82 408.573 385.18 401.377 387.449 394.163C382.662 395.055 367.787 398.098 364.46 400.88L363.617 402.815C362.63 402.807 362.363 402.587 361.529 402.107C360.952 402.536 360.596 402.563 360.496 403.332C360.278 405.021 360.757 406.91 360.995 408.59C362.108 416.468 369.204 425.798 375.536 430.491C386.586 438.68 400.282 439.228 413.393 437.154C420.07 436.098 426.802 434.319 433.564 434.056C426.747 437.269 415.949 440.027 408.467 440.548L408.03 441.143C408.594 441.937 409.124 442.675 409.817 443.361L409.693 443.69C407.557 441.509 406.996 440.705 403.858 440.709C401.627 440.711 399.349 441.008 397.127 441.216C398.028 441.946 398.931 442.285 399.985 442.738L399.476 442.892C398.766 443.113 398.071 443.361 397.372 443.613C396.308 442.618 395.536 441.679 394.132 441.225L393.502 441.121L394.132 441.225L395.222 442.947L394.861 443.409C393.778 442.931 392.808 442.436 391.81 441.799L391.502 441.6L391.81 441.799C392.617 443.006 393.868 444.456 394.086 445.876C392.16 444.381 390.246 442.908 388.214 441.556L387.395 441.689C386.971 442.91 386.577 444.141 386.212 445.38L385.686 445.438C385.745 443.718 386.339 442.465 385.572 440.886L384.331 440.268C382.015 441.356 382.362 444.787 380.511 445.475C380.071 443.56 381.543 442.511 380.967 440.479L380.035 439.98L379.228 440.391C378.978 441.833 379.371 442.496 379.85 443.86C379.055 443.651 378.787 443.462 378.343 442.755C377.684 441.707 377.597 440.104 377.416 438.893L375.57 441.21L374.526 440.499L372.348 443.186C372.749 441.621 373.407 440.05 373.948 438.523L374.47 437.993L373.948 438.523L372.721 437.379C370.635 437.853 369.079 440.177 367.689 441.697C368.262 439.2 368.621 436.884 368.807 434.322C365.977 435.837 363.294 437.777 360.608 439.539C361.512 438.323 362.745 437.057 362.962 435.52C361.469 434.961 360.312 435.359 358.75 435.58C358.981 435.345 359.206 435.105 359.441 434.875C361.562 432.798 364.61 431.885 366.582 429.685C366.096 428.683 365.792 428.186 364.675 427.722C360.509 425.989 355.279 430.978 350.931 428.957L350.964 428.306C354.45 426.34 357.957 424.412 361.485 422.522L359.39 418.581C354.737 418.504 350.557 418.197 346.086 416.82C350.155 415.945 354.182 415.054 357.995 413.335C355.108 412.505 350.728 411.801 348.466 409.877L348.665 409.228C350.772 408.647 352.84 408.434 355.005 408.205L354.955 408.199C355.338 407.101 355.464 407.326 354.988 406.141C354.621 405.228 354.42 404.386 354.269 403.412C347.949 402.46 342.514 400.337 336.645 397.927C335.547 433.482 337.988 452.804 348.195 486.417C341.013 474.571 336.094 461.018 329.488 448.775C333.247 461.601 337.02 474.147 342.646 486.305C346.066 493.696 350.536 500.799 353.741 508.218C346.656 502.03 344.12 491.773 338.345 484.567L338.097 484.035L338.345 484.567C339.095 488.719 340.908 493.019 342.273 497.022C350.208 520.097 360.981 542.096 374.343 562.513C393.258 591.32 420.295 614.137 447.321 635.061C458.276 643.543 469.015 651.938 481.414 658.267C488.838 661.987 496.725 664.701 504.866 666.338C522.275 669.85 540.517 662.092 554.667 652.524C571.302 641.276 587.018 626.747 601.416 612.786C634.053 581.14 654.282 558.062 671.892 515.424C675.134 507.574 679.063 499.659 681.592 491.558C683.707 484.782 684.685 477.255 686.049 470.271C683.838 473.091 682.296 476.439 680.246 479.398C682.441 471.819 686.231 464.724 688.401 457.046C690.839 448.424 692.569 439.539 694.511 430.792C704.139 387.433 706.853 353.724 699.894 309.384C690.159 247.361 666.386 188.243 622.895 142.195C616.301 135.214 609.129 126.897 601.356 121.225L601.086 121.002ZM733.109 157.502L733.331 158.24L734.196 159.22L734.392 159.498L734.196 159.22L733.331 158.24L733.109 157.502ZM735.095 161.002L735.302 161.754L736.291 162.811L736.587 163.787L737.172 164.797L737.637 165.793L738.184 166.78L738.444 166.998L738.184 166.78L737.637 165.793L737.172 164.797L736.587 163.787L736.291 162.811L735.302 161.754L735.095 161.002ZM738.757 167.997C738.887 168.593 739.187 168.987 739.503 169.5L740.207 170.917L740.62 171.744C740.666 171.965 740.71 172.187 740.76 172.407C741.64 176.308 743.943 180.473 745.457 184.215C747.871 190.274 750.182 196.373 752.389 202.511C759.895 223.133 766.165 244.185 771.164 265.554C781.11 309.798 786.153 355.081 789.528 400.244C795.411 478.951 796.175 559.389 782.816 637.439C779.09 659.858 774.217 682.072 768.215 703.992C766.655 709.51 764.885 714.968 762.91 720.352C761.741 723.556 759.927 727.19 759.312 730.516L758.796 731.88L758.377 732.758L757.843 733.809L757.357 734.788L757.003 735.497L757.357 734.788L757.843 733.809L758.377 732.758L758.796 731.88L759.312 730.516C759.362 730.456 759.415 730.399 759.461 730.335C765.34 722.126 771.651 696.428 774.259 685.976C781.818 654.509 787.207 622.559 790.389 590.353C794.876 549.539 796.793 508.483 796.13 467.429C795.475 444.705 794.153 422.005 792.168 399.359C791 384.895 790.088 370.447 788.353 356.033C784.915 327.472 781.301 299.041 774.897 270.96C768.795 244.202 759.864 217.803 749.893 192.263C748.479 188.642 743.044 173.647 740.62 171.744L740.207 170.917L739.503 169.5C739.372 168.565 739.558 168.645 738.757 167.997ZM474.124 170.002L474.552 170.589C474.65 175.302 475.307 180.04 475.838 184.721C482.195 240.142 501.679 293.247 532.672 339.629C538.691 348.499 546.042 359.417 554.455 366.126C555.954 366.253 556.777 365.466 558.061 364.746L558.676 364.059C555.901 359.881 548.132 354.339 544.188 350.503C538.405 344.879 533.232 337.908 528.811 331.158C520.678 318.74 515.954 304.821 510.588 291.102C500.283 264.755 490.635 238.409 483.424 210.999C479.909 197.634 477.395 184.102 474.552 170.589L474.124 170.002ZM599.032 175.502L599.482 176.021L600.207 177.311L600.396 177.436C603.168 184.669 611.246 196.048 615.314 203.571C624.942 221.377 633.867 239.618 642.872 257.746C644.785 261.597 646.553 266.67 649.249 269.966L649.605 270.722L649.997 271.497L649.605 270.722L649.249 269.966C647.657 261.396 634.896 230.532 630.551 222.079C625.777 212.792 607.382 183.404 600.396 177.436L600.207 177.311L599.482 176.021L599.032 175.502ZM403.192 179.249L402.212 180.313L401.902 181.286L401.386 181.615L400.839 182.869L400.644 183.238C398.175 185.964 396.256 189.592 394.376 192.754C388.583 202.499 383.344 214.138 375.857 222.651C377.702 216.019 385.91 200.694 389.449 193.737C391.007 190.673 393.041 187.686 394.073 184.407L394.216 184.271L395.262 183.273L395.482 182.502L395.262 183.273L394.216 184.271L394.073 184.407C390.715 187.665 387.948 192.195 385.253 196.02C374.055 211.913 364.853 227.708 357.157 245.566C354.944 250.701 352.4 256.318 351.058 261.74L351.506 262.991C352.595 262.694 353.111 261.761 353.632 260.793C354.651 258.904 355.277 256.773 356.257 254.85C358.442 250.563 371.523 227.327 374.157 224.727C368.965 235.285 353.068 268.706 351.263 278.472L350.891 279.22L350.524 279.998L350.891 279.22L351.263 278.472C354.594 274.494 356.883 267.931 359.388 263.217C364.665 253.292 370.188 243.472 375.2 233.41C379.608 224.561 383.519 215.466 388.053 206.68C391.553 199.9 398.625 189.725 400.644 183.238L400.839 182.869L401.386 181.615L401.902 181.286L402.212 180.313L403.192 179.249L403.414 178.502L403.192 179.249ZM592.503 185.601L593.275 186.257L593.566 187.305L594.199 188.278L594.389 188.415C596.564 194.319 600.904 200.249 603.929 205.853C609.987 217.079 615.789 228.705 621.128 240.29C616.351 234.236 611.601 227.944 606.255 222.384C601.38 217.312 595.886 212.84 590.753 208.035C587.74 205.215 584.63 201.504 581.227 199.218L581 199L580.517 198.491L579.849 197.577L580.517 198.491L581 199L581.227 199.218C584.678 207.497 626.361 250.501 635.474 262.01C626.049 237.957 619.604 220.059 603.336 199.233C600.531 195.642 597.719 191.514 594.389 188.415L594.199 188.278L593.566 187.305L593.275 186.257L592.503 185.601ZM463.113 196.069C463.031 196.749 463.031 196.319 463.361 197.337C463.649 203.913 467.685 222.566 470.673 228.207C470.764 228.607 470.829 229.131 471 229.5L471.288 230.366L471 229.5C470.968 229.08 470.787 228.614 470.673 228.207C470.521 223.365 465.13 202.821 463.361 197.337C463.451 196.694 463.436 197.124 463.113 196.069ZM515.049 199.002L515.237 199.796L516.262 200.743L516.563 201.132L516.8 201.648C518.57 206.075 521.983 210.41 524.523 214.465C528.545 220.774 532.259 227.275 535.652 233.944C541.352 245.177 546.529 256.695 551.834 268.118C554.141 273.086 556.322 279.818 559.715 284.045C558.692 278.004 555.922 271.526 554.061 265.663C552.047 259.32 550.403 252.715 547.883 246.553C542.853 234.255 534.407 224.392 526.402 213.98C523.314 209.965 520.465 205.118 516.8 201.648L516.563 201.132L516.262 200.743L515.237 199.796L515.049 199.002ZM537.602 203.502L537.824 204.243L538.248 204.661C540.418 214.586 553.783 238.187 560.043 246.224C565.495 253.223 572.737 260.471 579.712 265.989C576.984 261.079 573.336 256.625 570.117 252.027C563.743 242.924 557.274 233.851 551.048 224.648C547.123 218.847 542.891 209.353 538.248 204.661L537.824 204.243L537.602 203.502ZM497.63 224.335L497.808 224.798C498.531 232.228 507.832 263.71 512.191 268.993L512.497 269.498L512.191 268.993C510.837 262.089 507.727 255.226 505.566 248.502C503.071 240.745 501.293 232.132 497.808 224.798L497.63 224.335ZM517.543 226.502L517.666 227.873L518.488 228.498L517.666 227.873L517.543 226.502ZM519.003 230.502L519.5 231.5L520.22 233.63L520.5 234.5L521.221 236.629L521.5 237.5L522.22 239.63L522.5 240.5L522.788 241.366L522.5 240.5L522.22 239.63L521.5 237.5L521.221 236.629L520.5 234.5L520.22 233.63L519.5 231.5L519.003 230.502ZM581.103 234.502L581.334 235.249L582.213 235.627L582.634 236.793L582.938 236.998L582.634 236.793L582.213 235.627L581.334 235.249L581.103 234.502ZM450.88 235.837C452.54 238.566 454.057 242.913 456.165 245.083C454.222 237.131 451.192 229.419 449.023 221.507C446.817 213.457 445.479 205.247 443.434 197.179C443.375 220.885 446.133 239.746 457.246 261.022C459.159 264.684 461.455 269.678 464.172 272.782L464.432 272.998L464.172 272.782C463.48 269.582 461.914 266.346 460.716 263.298C457.303 254.622 452.827 244.92 450.88 235.837ZM494.36 70.2791L494.307 70.6785C496.444 71.3835 507.491 70.4183 511.23 70.69C518.953 71.2514 526.755 72.9362 534.241 74.9052C544.931 77.6903 555.309 81.5586 565.213 86.4503C593.96 100.96 622.863 126.573 643.234 151.389C650.323 160.024 656.378 169.411 662.873 178.487C670.86 189.65 679.059 200.697 686.209 212.429C689.386 217.66 692.319 223.037 694.996 228.541C696.454 231.564 697.549 235.002 699.277 237.859L699.694 238.534L700.217 239.864L700.447 240.498L700.217 239.864L699.694 238.534C698.254 229.968 693.637 220.173 690.129 212.204C672.889 173.043 647.478 134.656 613.621 107.894C580.581 81.7779 536.833 65.2098 494.36 70.2791ZM430.626 251.002L430.873 251.748L431.378 251.998L430.873 251.748L430.626 251.002ZM514.341 176.528C517.336 185.663 525.177 198.102 529.87 206.826C535.312 216.942 540.253 227.509 546.296 237.273C550.259 243.677 555.897 252.678 561.268 257.764L561.587 258.089L562.107 258.697L562.497 259.416L562.107 258.697L561.587 258.089L561.268 257.764C559.06 251.684 550.219 240.344 546.536 233.931C539.057 220.913 531.957 207.628 524.681 194.491C521.419 188.602 518.422 181.816 514.341 176.528ZM505.884 235.486C505.928 242.873 512.822 259.232 517.734 264.474L517.997 264.998L517.734 264.474C516.738 259.111 508.834 240.288 505.884 235.486ZM512.503 270.002L513.333 270.63L513.452 271.998L513.333 270.63L512.503 270.002ZM582.107 288.502L582.367 288.8C583.394 293.278 586.039 298.132 587.89 302.355C595.21 319.061 603.826 334.698 612.091 350.905C619.798 351.272 627.647 350.467 635.383 350.423C635.233 349.738 620.887 339.591 618.984 337.928C607.854 328.204 597.947 315.328 590.299 302.651C587.639 298.241 585.559 293.369 582.619 289.152C582.536 289.034 582.451 288.917 582.367 288.8L582.107 288.502ZM539.851 325.564L540.514 326.5L540.826 326.808C543.687 333.77 562.016 354.608 568.677 359.25C569.928 360.121 571.435 359.44 572.847 359.194C572.672 358.054 566.845 354.201 565.725 353.229C560.143 348.381 554.697 342.78 549.868 337.188C546.928 333.784 544.214 329.748 540.826 326.808L540.514 326.5L539.851 325.564ZM556.603 369.026L556.503 369.498L556.603 369.026C557.277 369.032 558.098 369.085 558.774 368.969C560.323 368.701 560.844 368.002 561.772 366.861C559.822 367.125 558.176 367.876 556.603 369.026ZM731.541 387.445L731.05 387.929L731.541 387.445C733.941 388.117 734.84 389.368 736.063 391.514C736.833 392.865 737.536 394.259 738.239 395.645C735.514 393.11 732.938 391.038 729.734 389.115C725.217 393.781 722.821 397.171 720.887 403.355C726.152 406.397 730.462 410.468 732.184 416.516C734.162 423.458 730.984 431.327 727.478 437.296C724.51 442.348 720.696 446.75 715.66 449.812C713.388 451.194 710.789 452.438 708.718 454.1C705.862 456.391 704.136 459.726 701.085 461.871L699.768 462.091C699.094 461.056 699.153 461.038 699.424 459.884C702.632 446.203 726.621 446.241 729.715 419.472C728.544 416.434 724.705 409.751 721.32 408.523C720.702 408.298 720.67 408.337 720.108 408.333C717.917 409.754 714.855 422.64 713.712 425.709C709.413 437.254 703.375 448.162 698.425 459.439C696.187 464.538 695.109 470.144 692.709 475.172C689.361 482.189 685.464 487.385 682.408 494.996C698.136 495.253 703.641 494.738 715.226 483.424C731.881 467.159 746.787 442.711 751.469 419.797C752.73 413.628 752.943 407.041 752.988 400.75C753.055 391.333 752.502 372.019 745.589 364.657C744.333 363.319 742.767 362.475 740.889 362.471C738.173 362.465 734.497 364.069 732.638 366.07C728.741 370.264 727.1 382.313 725.317 388.059C727.853 384.048 731.922 377.949 736.757 376.687C737.94 376.378 739.12 376.403 740.228 376.991C743.969 378.973 745.084 386.361 745.795 390.144C748.683 405.514 746.8 420.113 740.414 434.319C739.114 437.211 737.814 440.404 736.034 443.03C735.717 443.498 735.583 443.606 735.227 443.961C734.576 443.284 734.824 443.7 734.568 442.668L734.189 442.551C734.356 442.14 734.521 441.727 734.683 441.314C742.916 420.344 746.453 401.99 737.114 380.706C735.052 382.652 732.851 384.917 731.541 387.445ZM395.309 395.238L395.019 393.913L394.287 393.85C392.899 395.673 392.061 398.178 392.42 400.498C392.542 401.283 392.597 401.372 392.821 402.045L393.524 401.836C393.978 400.852 394.316 400.001 394.532 398.938C394.569 400.331 394.597 401.724 394.615 403.118C396.494 403.55 398.538 403.996 400.305 402.923C401.35 402.289 402.028 401.167 402.21 399.973C402.404 398.694 402.032 397.314 401.125 396.373C400.054 395.261 399.171 394.85 397.644 394.911C396.852 394.943 396.081 395.057 395.309 395.238ZM400.065 413.002L400.282 413.753L400.87 413.906L401.423 414.654C403.048 416.819 404.925 417.905 405.782 420.625C404.858 420.214 404.337 419.913 403.651 419.142C402.66 418.028 401.985 417.12 400.627 416.431C398.062 415.128 395.83 413.265 393.539 411.532C394.585 413.924 395.589 416.436 397.074 418.593C399.664 422.354 403.401 424.948 407.912 425.767C412.434 426.588 416.85 425.438 420.605 422.847C424.019 420.492 429.102 416.108 429.825 411.92L429.414 411.716L426.572 414.181C427.145 413.127 427.538 412.493 427.682 411.271C426.859 410.726 426.199 410.626 425.233 410.475C424.022 411.517 422.94 412.741 421.69 413.722C418.681 416.081 414.331 416.534 410.67 415.913L407.264 415.369L407.067 415.119L407.264 415.369C408.333 416.55 410.098 418.638 411.726 418.81C415.153 419.171 418.752 415.993 422.565 416.236C419.583 417.355 413.065 420.96 410.151 419.75C409.992 419.684 409.841 419.6 409.681 419.534C408.903 419.214 408.206 419.317 407.385 419.374C406.986 419.734 406.633 420.151 406.197 420.466C406.077 420.552 405.92 420.572 405.782 420.625C406.409 419.726 406.48 419.64 406.489 418.552C405.132 416.259 403.25 415.013 400.87 413.906L400.282 413.753L400.065 413.002ZM331.625 443.502L331.861 444.243L332.376 444.498L331.861 444.243L331.625 443.502ZM317.892 480.411C317.151 473.435 318.656 470.552 312.639 465.718C310.549 464.039 308.467 462.441 306.671 460.436C301.707 454.894 290.71 438.724 289.87 431.674C288.947 423.927 293.839 413.147 298.252 406.989C298.371 406.822 298.486 406.653 298.604 406.485C294.742 403.594 292.611 399.328 289.771 395.538C289.577 398.177 289.46 400.734 288.683 403.281L288.571 402.744L288.853 402.758C288.734 402.447 288.564 402.151 288.496 401.825C288.072 399.821 288.552 396.336 288.519 394.203L283.636 387.855C281.304 398.378 279.451 408.741 274.644 418.488C276.388 406.228 278.915 393.967 280.258 381.671L276.602 373.419C285.232 381.975 292.354 393.321 297.999 404.074C296.042 396.898 291.149 376.823 288.023 371.4C286.434 368.62 284.163 366.291 281.426 364.63C280.123 363.842 279.126 363.348 277.572 363.613C275.434 364.907 274.86 366.696 274.252 369.007C272.712 374.857 273.134 381.133 272.188 387.091C269.892 401.551 265.966 416.123 265.539 430.817C273.019 445.411 284.79 456.569 295.128 469.035C299.964 474.867 304.291 481.352 309.698 486.662C312.718 489.627 316.147 492.694 320.217 494.064C324.894 495.638 329.93 495.007 334.714 494.304C332.793 489.785 330.388 485.232 327.827 481.039L327.502 480.502L327.827 481.039L328.657 484.946C325.972 481.486 323.373 476.386 322.064 472.167C321.311 469.741 321.003 467.112 319.812 464.857C319.3 469.061 319.807 472.458 319.824 476.548C319.831 478.075 319.575 478.953 318.435 479.97C318.261 480.125 318.073 480.264 317.892 480.411ZM279.115 496.675C279.012 497.439 279.122 497.636 279.395 498.333C279.394 499.672 279.264 500.61 279.882 501.834C280.157 506.749 280.697 513.117 282.622 517.67C282.56 518.738 282.546 518.982 283 520C282.982 520.822 283.075 521.096 283.366 521.838C283.409 521.176 283.181 520.631 283 520C283.086 519.021 283.043 518.561 282.622 517.67C282.547 512.691 281.557 506.508 279.882 501.834C280.251 500.587 279.766 499.524 279.395 498.333C279.564 497.23 279.626 497.787 279.115 496.675ZM283.634 523.664C283.615 524.318 283.828 524.874 284 525.5L284.38 526.497L284 525.5C284.025 524.67 283.932 524.411 283.634 523.664ZM284.122 527.503L284.354 528.072C284.468 529.328 284.513 530.317 285 531.5C285.061 532.177 284.999 532.762 285.39 533.335C285.517 534.467 285.593 535.425 286 536.5C285.999 536.967 286.195 537.402 286.335 537.845L286 536.5C286.009 535.304 285.745 534.461 285.39 533.335C285.448 532.593 285.247 532.19 285 531.5C285.077 530.116 284.819 529.344 284.354 528.072L284.122 527.503ZM316.239 558.845L316.408 559.331C316.012 564.976 317.59 576.891 319.624 582.178C319.471 575.517 318.261 565.658 316.408 559.331L316.239 558.845ZM294.212 573.134L294.5 574C294.629 574.71 294.726 575.329 295 576C295.144 576.675 295.244 577.358 295.5 578L295.788 578.866L295.5 578C295.414 577.278 295.222 576.69 295 576C294.914 575.278 294.722 574.69 294.5 574L294.212 573.134ZM837.126 575.003L837.476 575.262C837.667 580.735 838.635 586.239 839.399 591.661C842.198 611.505 846.82 630.774 851.527 650.23C856.139 669.292 860.265 688.488 865.228 707.463C871.405 731.078 878.34 754.487 884.014 778.244L884.374 778.497L884.014 778.244C884.197 771.038 883.155 763.528 882.527 756.339C880.589 734.191 876.2 712.621 871.168 690.992C862.016 651.659 849.984 613.621 837.476 575.262L837.126 575.003ZM296.212 580.634L296.5 581.5L296.788 582.366L296.5 581.5L296.212 580.634ZM297.212 584.134L297.5 585L297.788 585.866L297.5 585L297.212 584.134ZM319.611 582.671C319.495 583.656 319.688 584.079 320 585C319.981 585.824 320.074 586.094 320.366 586.837C320.385 586.183 320.172 585.627 320 585C320.079 584.023 320.031 583.558 319.611 582.671ZM320.634 588.663C320.601 589.321 320.823 589.871 321 590.5C320.979 591.325 321.072 591.593 321.366 592.337C321.388 591.682 321.173 591.127 321 590.5C321.019 589.677 320.925 589.405 320.634 588.663ZM268.528 681.003L268.659 682.348L269.85 683.272L270.081 684.285L270.405 684.497L270.081 684.285L269.85 683.272L268.659 682.348L268.528 681.003ZM662.002 684.003L662.5 684.5L663.187 685.188L663.384 685.411C665.877 690.177 674.245 697.656 678.217 701.989C710.326 737.01 736.276 757.211 779.074 778.056C779.102 776.778 779.192 775.52 778.854 774.272C778.425 772.69 755.812 761.422 752.405 759.421C735.043 749.222 717.869 737.047 703.29 723.089C694.369 714.399 685.391 705.766 676.359 697.191C672.348 693.362 668.058 688.316 663.384 685.411L663.187 685.188L662.5 684.5L662.002 684.003ZM709.306 709.293L708.911 709.578L708.386 710.756L708.124 710.973L708.386 710.756L708.911 709.578L709.306 709.293C718.546 700.702 733.322 661.107 737.247 648.407C740.513 637.839 743.157 626.736 745.245 615.866C745.912 612.397 749.747 584.986 750.211 584.266C750.467 606.627 753.378 628.61 751.719 650.991L752.089 651.194C754.344 644.326 754.544 636.151 755.196 628.983C756.444 615.25 757.949 601.229 757.68 587.438C757.408 573.534 755.478 558.946 753.764 545.129C752.707 535.895 747.016 476.846 743.195 472.989C743.097 486.402 743.674 499.811 743.376 513.255C742.971 531.548 742.319 550.062 740.837 568.301C740.002 578.58 738.62 588.831 737.568 599.092C734.824 625.873 731.852 650.133 723.806 676.03C721.617 683.075 718.749 690.155 715.5 696.777C713.627 700.596 711.029 704.466 709.6 708.446C709.499 708.727 709.404 709.01 709.306 709.293ZM231.116 409.159C230.928 419.913 230.498 430.616 230.608 441.38C231.415 520.26 243.558 591.823 275.618 664.397C281.903 678.626 289.201 691.946 297.407 705.154C299.846 709.08 302.236 713.531 305.32 716.973L306 718L306.629 718.735L307.174 719.726L307.402 719.962L307.174 719.726L306.629 718.735L306 718C305.851 717.644 305.542 717.29 305.32 716.973C303.456 711.875 299.607 707.326 297.03 702.533C292.38 693.881 288.267 684.813 284.221 675.863C266.434 636.803 253.12 595.857 244.535 553.805C237.045 517.699 233.704 481.112 232.218 444.307C231.996 438.79 232.226 410.886 231.116 409.159ZM460.82 734.097C463.457 738.827 465.235 744.278 467.265 749.298C471.329 759.461 475.497 769.583 479.769 779.661C481.707 784.273 483.351 789.172 485.664 793.605C488.251 798.566 492.289 802.826 495.792 807.151C501.079 813.68 505.756 820.628 509.183 828.329C517.359 812.106 523.761 801.511 538.312 790.191C543.093 786.472 549.284 782.607 553.087 777.913C557.551 772.403 581.789 711.676 583.794 703.539C584.109 707.168 581.596 711.869 580.471 715.306C578.037 722.742 575.851 730.268 573.031 737.573C568.656 748.908 563.391 760.218 559.839 771.83C572.136 761.81 613.19 718.569 615.357 704.043C616.28 697.862 614.477 683.355 614.237 676.39C613.675 657.612 613.453 638.825 613.569 620.039C607.942 628.787 602.42 637.68 596.083 645.938C579.521 667.721 555.588 702.183 527.099 706.231C515.356 707.9 502.223 701.427 493.105 694.477C479.815 684.348 468.25 671.754 456.541 659.885C440.663 643.833 424.984 627.585 409.508 611.145C412.627 637.338 416.299 684.768 405.389 708.98C414.478 731.107 441.731 756.227 459.387 772.478C466.37 778.906 473.642 785.846 481.402 791.321C476.413 777.404 470.808 763.745 465.953 749.767C464.176 744.65 462.013 739.371 460.82 734.097ZM497.667 838.176C494.254 835.338 491.484 831.385 488.58 828.021C484.303 823.064 479.241 818.078 473.986 814.136C472.251 817.222 470.786 820.312 469.42 823.578C483.075 832.025 495.039 843.412 508.228 852.643C509.427 851.253 512.485 848.566 512.465 846.84C504.598 830.383 497.132 813.445 483.417 800.824C480.612 803.582 478.261 806.479 476.237 809.861C482.835 819.161 494.429 826.621 497.667 838.176ZM925.681 864.241L925.198 864.411C921.115 867.697 917.783 874.214 915.062 878.778C905.216 895.292 896.045 914.456 889.371 932.49C883.366 948.716 878.705 965.291 873.757 981.849C871.897 988.074 868.869 995.135 867.903 1001.5C872.541 991.243 875.85 980.191 879.75 969.62C887.181 949.478 894.799 929.215 903.014 909.382C907.072 899.586 911.478 889.771 916.41 880.383C919.102 875.259 923.364 869.833 925.198 864.411L925.681 864.241L925.9 863.503L925.681 864.241ZM99.1163 868.503L99.5 869L99.8078 869.345C101.39 874.322 104.777 879.61 106.963 884.45C111.971 895.608 116.602 906.932 120.849 918.401C133.316 952.881 142.882 988.332 154.417 1023.11C154.427 1022.81 154.444 1022.52 154.447 1022.22C154.497 1015.86 151.551 1007.25 150.038 1000.92C140.753 962.095 129.04 923.811 111.004 888.082C107.9 881.934 104.682 874.27 99.8078 869.345L99.5 869L99.1163 868.503ZM508.139 10.75L508.745 10.75L508.139 10.75ZM415.132 30.25L415.745 30.25L415.132 30.25ZM461.135 33.75L461.745 33.75L461.135 33.75ZM500.634 39.75L501.245 39.75L500.634 39.75ZM439.384 45.6644C404.302 49.683 373.745 68.9791 346.648 90.4257C332.316 101.769 319.067 113.576 307.666 127.94C297.354 140.933 288.884 155.511 281.353 170.258C249.009 233.603 245.105 296.941 253.093 366.582C253.312 368.493 253.276 370.253 254.663 371.727C252.778 351.173 250.695 329.938 251.669 309.273C253.756 265.049 263.794 223.593 281.256 182.989C290.752 160.909 301.247 141.121 316.69 122.538C339.61 94.961 380.822 65.284 414.334 52.6167C419.486 50.669 424.621 49.0696 430.023 47.958C433.407 47.2616 437.408 47.0346 440.606 45.8227L439.384 45.6644ZM569.635 58.25L570.245 58.25L569.635 58.25ZM571.38 58.75L572.245 58.75L571.38 58.75ZM589.643 60.25L590.245 60.25L589.643 60.25ZM444.513 69.827C398.738 75.5709 362.667 105.329 335.263 140.671C293.706 194.264 275.953 277.398 284.447 343.973C284.547 344.757 284.643 345.537 284.795 346.313C286.368 344.083 285.101 336.72 284.949 333.83C284.164 318.856 284.992 303.805 285.853 288.85C286.776 272.824 290.483 253.936 294.404 238.346C307.824 184.981 332.136 141.011 374.741 105.574C385.136 96.9274 396.232 88.598 408.296 82.4128C417.066 77.9168 426.664 74.8003 436.163 72.2109C439.048 71.4244 442.055 70.9509 444.897 70.0524L444.513 69.827ZM468.521 101.313C466.558 110.653 465.791 120.232 465.192 129.741C462.802 167.651 468 204.462 478.144 240.956C481.702 253.757 485.439 266.562 491.577 278.414L492.252 279.378C492.518 275.925 483.782 249.603 482.503 245.003C480.058 236.448 477.975 227.792 476.261 219.061C474.257 208.502 473.21 197.774 471.985 187.103C470.307 172.48 468.667 157.983 468.161 143.258C467.975 137.84 468.907 102.191 468.521 101.313ZM434.709 148.347C421.698 182.296 422.68 213.465 429.914 248.384L430.587 249.524C431.762 246.99 428.667 226.306 428.383 221.801C427.308 204.757 428.257 187.247 430.704 170.36C431.295 166.283 435.145 150.378 434.709 148.347ZM730.717 153.25L731.103 153.25L730.717 153.25ZM732.134 155.75L732.551 155.75L732.134 155.75ZM732.715 156.75L733.12 156.75L732.715 156.75ZM734.686 160.25L735.124 160.25L734.686 160.25ZM513.608 175.25L514.084 175.25L513.608 175.25ZM514.136 176.25L514.578 176.25L514.136 176.25ZM404.242 176.75L404.745 176.75L404.242 176.75ZM403.694 177.75L404.147 177.75L403.694 177.75ZM722.233 202.25L722.62 202.25L722.233 202.25ZM576.644 227.75L577.085 227.75L576.644 227.75ZM518.664 229.457L519.245 229.75L518.664 229.457ZM577.667 229.25L578.112 229.25L577.667 229.25ZM578.669 230.75L579.085 230.75L578.669 230.75ZM579.647 232.25L580.101 232.25L579.647 232.25ZM580.609 233.75L581.086 233.75L580.609 233.75ZM573.723 235.25L574.107 235.25L573.723 235.25ZM583.7 238.25L584.21 238.25L583.7 238.25ZM575.692 238.75L576.08 238.75L575.692 238.75ZM406.723 239.432C406.374 251.317 407.004 263.03 407.484 274.896C408.112 290.405 408.762 305.658 411.4 320.98C413.322 332.147 416.86 343.046 418.765 353.779C429.426 355.749 440.242 356.492 450.577 360.035C444.822 353.407 439.084 346.348 434.598 338.795C424.021 320.99 416.19 294.617 411.951 274.313C410.984 269.677 407.064 239.765 406.723 239.432ZM577.133 241.25L577.541 241.25L577.133 241.25ZM577.731 242.25L578.166 242.25L577.731 242.25ZM456.671 246.75L457.212 246.75L456.671 246.75ZM398.757 246.866C396.434 253.112 394.892 259.68 392.88 266.039C388.806 278.912 384.449 291.637 381.361 304.8C377.965 319.276 375.507 334.053 371.56 348.384C377.844 348.957 384.118 349.634 390.38 350.414C397.812 351.145 405.28 351.758 412.689 352.691C409.77 343.006 406.228 333.53 403.743 323.715C399.785 308.084 398.238 290.835 397.576 274.721C397.336 268.892 397.662 263.08 398.122 257.27C398.381 253.99 399.147 250.112 398.757 246.866ZM518.241 265.75L518.681 265.75L518.241 265.75ZM384.81 267.374C382.227 273.592 379.827 279.915 377.113 286.074C373.633 293.97 348.725 346.321 349.687 349.812C356.128 349.087 362.553 348.26 369.042 348.165C370.954 330.334 373.475 312.762 377.58 295.292C378.901 289.667 385.439 271.726 384.81 267.374ZM464.607 273.75L465.078 273.75L464.607 273.75ZM465.104 274.75L465.565 274.75L465.104 274.75ZM465.615 275.75L466.054 275.75L465.615 275.75ZM492.678 280.25L493.119 280.25L492.678 280.25ZM350.245 280.75L350.745 280.75L350.245 280.75ZM559.65 284.25L560.213 284.25L559.65 284.25ZM333.089 302.75L333.501 302.75L333.089 302.75ZM332.674 303.304C330.364 315.615 328.16 327.749 327.082 340.245C325.485 358.753 324.676 428.632 331.921 443.921C331.914 443.764 331.909 443.607 331.9 443.45C331.445 435.271 329.402 427.059 328.628 418.857C326.845 399.964 326.214 379.164 327.036 360.213C327.469 349.446 328.323 338.701 329.595 328.001C330.162 323.465 333.736 306.232 332.674 303.304ZM454.721 313.75L455.105 313.75L454.721 313.75ZM306.015 336.723C305.996 338.004 305.654 340.126 306.393 341.118L306.745 341.201C306.752 339.592 306.942 338.122 306.015 336.723ZM306.142 346.476L306.61 346.75L306.142 346.476ZM305.755 349.296C305.725 351.356 305.419 353.465 306.536 355.292C306.566 353.466 306.931 351.086 306.22 349.413L305.755 349.296ZM346.54 356.427C342.445 369.088 337.951 381.737 337.259 395.155C340.874 396.079 344.559 396.606 348.298 396.305L349.015 395.738C347.732 394.261 345.293 393.905 343.52 393.202C346.429 393.064 352.082 393.442 354.564 392.132L357.484 389.254L351.078 382.463C355.824 381.198 360.573 379.827 365.344 378.666C365.482 371.626 366.454 365.124 367.891 358.241C360.782 356.975 353.775 356.118 346.54 356.427ZM368.756 358.186C367.448 364.836 366.521 371.616 366.477 378.406C386.204 375.259 402.263 372.056 422.122 377.84L428.013 379.953C425.656 376.092 423.421 372.001 420.516 368.524C403.111 365.536 385.889 362.565 368.756 358.186ZM306.413 366.754L306.449 367.684L306.833 367.818L306.671 366.86L306.413 366.754ZM565.887 369.884L562.812 372.865L563.067 373.351C564.335 372.75 565.614 372.34 566.35 371.073C566.148 370.019 566.403 370.359 565.887 369.884ZM557.55 370.94L558.01 371.14L557.686 370.888L557.55 370.94ZM560.12 372.943L560.654 373.134L560.12 372.943ZM307.082 376.969L307.502 377.25L307.082 376.969ZM366.048 380.679C361.499 381.385 356.943 382.047 352.38 382.664C354.819 384.246 357.254 385.804 359.553 387.589C363.662 386.949 367.619 385.109 371.454 383.547C370.016 382.557 367.85 380.47 366.048 380.679ZM401.869 394.419C402.917 396.368 403.977 399.207 405.967 400.292C406.065 398.577 406.447 396.55 405.51 395.046C404.317 394.32 403.213 394.421 401.869 394.419ZM394.065 403.664C393.446 404.654 392.798 405.155 393.026 406.342L394.447 406.634L395.431 405.6C395.198 404.372 394.966 404.447 394.065 403.664ZM394.773 406.611L393.493 407.616L393.518 408.34L395.218 408.928L396.473 407.814L396.199 407.073L394.773 406.611ZM396.146 411.75L396.745 411.75L396.146 411.75ZM299.751 413.802C297.575 418.096 291.138 431.003 291.736 435.332C293.122 437.913 295.607 439.384 297.263 441.766C300.25 446.064 301.275 451.849 305.314 455.371C307.752 457.497 310.79 458.869 313.347 460.839L316.419 463.893C312.806 454.089 309.201 444.178 305.908 434.265C304.615 430.374 303.692 424.31 301.534 420.958L300.228 421.961C299.535 421.172 299.269 420.875 299.489 419.766C299.693 418.735 300.457 417.483 300.917 416.523C300.743 415.282 300.561 414.763 299.751 413.802ZM369.783 435.226L370.107 435.586L369.92 435.194L369.783 435.226ZM329.756 449.75L330.245 449.75L329.756 449.75ZM229.755 472.226C229.63 536.617 232.365 600.791 258.75 660.761C260.596 664.957 265.612 678.022 268.337 680.348C268.491 680.479 268.665 680.585 268.83 680.703C249.989 638.707 239.053 592.629 234.634 546.85C233.221 532.211 232.248 517.339 231.668 502.643C231.307 493.493 231.473 484.062 230.584 474.973C230.481 473.914 230.297 473.156 229.755 472.226ZM327.206 479.75L327.548 479.75L327.206 479.75ZM278.278 491.75L278.745 491.75L278.278 491.75ZM278.465 493.754L278.705 494.72L279.02 494.819L278.72 493.859L278.465 493.754ZM713.589 530.25L714 530.25L713.589 530.25ZM314.278 535.75L314.745 535.75L314.278 535.75ZM314.476 537.732C314.589 537.972 314.606 538.327 314.849 538.436L314.476 537.732ZM286.553 539.742C286.911 540.415 286.662 540.306 287.015 540.415L286.553 539.742ZM314.459 540.75C314.509 542.52 314.218 545.496 315.521 546.75C315.484 544.859 315.583 542.972 314.915 541.177L314.459 540.75ZM287.089 541.75L287.501 541.75L287.089 541.75ZM287.278 543.25L287.745 543.25L287.278 543.25ZM287.559 544.753C287.915 545.419 287.668 545.311 288.018 545.419L287.559 544.753ZM315.323 548.969L315.745 549.25L315.323 548.969ZM315.581 550.968L316.002 551.25L315.581 550.968ZM315.58 554.273L315.84 556.41L316.431 556.72L316.395 554.983C316.133 554.736 315.921 554.389 315.58 554.273ZM196.063 563.859C194.082 570.235 192.835 576.816 191.357 583.322C188.772 594.698 186.294 606.027 184.123 617.491C182.062 628.371 179.514 639.162 177.732 650.095C171.544 686.812 169.568 724.116 171.841 761.282C172.584 774.16 173.246 788.078 176.461 800.63L181.84 798.022C188.276 795.188 192.202 789.505 198.522 786.475C187.375 742.779 182.29 691.652 186.207 646.72C187.532 631.524 189.437 616.316 191.408 601.191C192.233 594.862 197.058 568.595 196.063 563.859ZM293.779 571.75L294.245 571.75L293.779 571.75ZM298.115 587.462L298.606 587.75L298.115 587.462ZM654.266 590.782L654.047 591.917L654.683 592.218L654.941 591.086L654.266 590.782ZM299.69 592.75L300.056 592.75L299.69 592.75ZM321.589 593.75L322.001 593.75L321.589 593.75ZM653.86 594.227C653.367 598.42 651.225 610.57 653.145 613.814C653.49 610.185 655.38 596.766 653.86 594.227ZM302.692 602.25L303.083 602.25L302.692 602.25ZM652.352 614.165C652.099 616.707 651.325 619.999 652.644 622.301C652.881 620.003 653.829 616.11 652.352 614.165ZM651.755 624.807C651.647 627.285 650.993 630.513 652.139 632.77C652.383 630.224 652.774 627.656 652.447 625.107L651.755 624.807ZM194.188 626.302C191.463 667.868 188.722 703.862 196.663 745.402L197.045 745.743C196.803 737.788 195.326 729.678 194.801 721.688C193.916 705.939 193.552 690.165 193.709 674.393C193.72 666.638 195.685 630.347 194.188 626.302ZM651.376 639.775L651.371 641.002L651.874 641.235L651.907 640.001L651.376 639.775ZM406.264 652.452C394.613 658.205 388.948 665.203 384.776 677.452C380.94 688.717 378.073 699.793 372.24 710.295C368.093 717.762 362.551 724.522 358.635 732.038C359.303 739.862 359.406 748.415 361.424 755.998C363.029 762.033 365.701 768.033 368.031 773.828C371.422 782.263 374.804 790.655 378.502 798.961C383.794 810.849 388.952 822.897 394.615 834.612C407.028 859.688 420.53 884.209 435.082 908.106L437.369 898.881C439.311 890.823 441.1 882.653 443.52 874.725C450.293 852.534 464.712 814.456 479.561 797.221L478.97 796.649C470.162 788.197 460.067 780.74 450.943 772.544C430.045 753.772 393.783 716.772 392.93 687.557C392.678 678.917 396.159 670.819 402.156 664.683C403.618 663.187 405.309 661.948 407.042 660.784C407.127 658.175 407.455 655.363 406.977 652.791L406.264 652.452ZM619.304 655.129L619.45 661.046C625.029 665.722 630.851 671.091 631.673 678.794C633.362 694.614 605.683 732.043 595.34 744.171C576.506 766.253 555.172 784.781 531.945 802.055C552.77 831.272 563.943 863.293 576.853 896.363C578.731 901.241 580.534 906.147 582.263 911.079C604.119 869.007 626.209 827.155 644.086 783.202C650.78 766.745 657.91 749.619 661.202 732.086C658.494 723.753 654.282 716.128 651.009 708.03C644.503 691.934 638.37 664.851 621.951 656.385C621.083 655.937 620.2 655.518 619.304 655.129ZM842.059 655.372C842.673 661.226 843.986 667.101 845.047 672.892C847.238 685.201 849.736 697.454 852.54 709.638C857.449 731.237 862.02 753.096 868.216 774.369C870.873 783.49 874.245 792.45 877.245 801.467C878.451 805.094 880.41 814.477 883.11 816.84C883.748 817.398 883.698 817.298 884.51 817.649C884.978 811.672 874.487 779.573 872.04 770.632C865.219 745.556 858.616 720.42 852.233 695.229C848.923 682.186 846.336 668.636 842.208 655.855C842.156 655.694 842.108 655.533 842.059 655.372ZM406.377 663.371C400.346 670.226 396.538 677.29 397.15 686.714C397.435 691.095 398.868 695.289 400.423 699.358L400.914 700.427C401.789 699.879 401.96 698.157 402.202 697.135C404.39 687.902 407.396 672.597 406.377 663.371ZM619.263 664.256C619.482 673.879 620.661 682.923 621.699 692.464C622.664 691.472 622.921 690.077 623.357 688.781C625.7 683.409 627.891 678.102 625.698 672.232C624.474 668.956 621.998 666.362 619.263 664.256ZM270.652 685.25L271.1 685.25L270.652 685.25ZM271.162 686.25L271.565 686.25L271.162 686.25ZM271.684 687.25L272.107 687.25L271.684 687.25ZM883.598 687.427C890.991 725.543 896.094 762.542 895.021 801.442C894.826 808.487 894.854 815.683 894.155 822.692C900.909 826.509 907.49 830.541 914.053 834.677C915.614 832.672 911.778 797.07 911.114 791.745C909.174 776.184 906.623 760.621 902.554 745.464C898.927 731.952 894.167 718.674 889.791 705.387C888.002 699.954 886.615 692.19 883.598 687.427ZM272.193 688.25L272.577 688.25L272.193 688.25ZM272.718 689.25L273.136 689.25L272.718 689.25ZM273.226 690.25L273.638 690.25L273.226 690.25ZM273.764 691.25L274.245 691.25L273.764 691.25ZM275.103 693.75L275.545 693.75L275.103 693.75ZM275.692 694.75L276.095 694.75L275.692 694.75ZM756.62 736.25L757.05 736.25L756.62 736.25ZM756.124 737.25L756.554 737.25L756.124 737.25ZM755.696 738.25L756.049 738.25L755.696 738.25ZM363.915 775.847C364.515 781.683 365.963 787.584 367.116 793.341C371.789 816.672 378.545 839.005 385.964 861.571C399.295 902.122 412.903 939.055 430.783 977.851C437.027 991.399 443.516 1005.3 450.849 1018.3C457.602 999.141 465.395 980.31 472.76 961.378C474.272 957.518 475.737 953.632 477.361 949.818C474.869 944.349 476.929 938.494 475.801 932.658C470.207 903.733 465.849 891.311 451.504 865.249C448.153 875.589 445.097 885.857 442.494 896.412C440.743 903.516 439.538 911.103 437.166 918.006C430.743 911.593 425.407 900.211 420.93 892.284C405.137 864.314 390.354 836.115 377.179 806.808C374.174 799.947 371.271 793.042 368.473 786.094C367.101 782.768 365.895 778.842 363.915 775.847ZM797.316 777.941C798.425 781.478 799.268 782.813 802.625 784.593C804.629 785.655 806.798 786.734 808.912 787.554C808.773 785.821 808.638 785.404 807.274 784.295C804.374 781.94 800.653 779.591 797.316 777.941ZM831.805 801.136C831.739 801.872 831.394 803.126 831.866 803.718C833.242 805.445 850.085 812.65 853.773 814.506C878.254 826.831 902.603 839.63 925.077 855.375C928.906 858.057 933.066 861.521 937.644 862.729C935.675 859.841 931.492 857.275 928.715 855.112C904.848 836.515 878.1 823.669 851.069 810.36C845.01 807.377 838.181 803.128 831.805 801.136ZM187.704 804.441C158.719 818.898 129.619 833.993 103.164 852.808C99.6728 855.29 94.9524 858.025 92.5452 861.562L92.7108 862.108L93.731 861.811C101.716 855.957 110.655 851.212 119.115 846.066C134.081 836.964 148.993 827.865 164.228 819.21C169.121 816.431 185.697 808.755 188.625 805.746L188.646 804.97L187.704 804.441ZM528.161 806.827C522.145 813.899 513.266 826.877 514.024 836.631C514.254 839.599 515.724 842.127 517.045 844.729C524.104 838.703 531.608 833.223 538.663 827.222C539.605 826.021 540.322 825.553 540.078 823.888C539.883 822.557 538.814 820.438 537.735 819.593C537.215 819.186 536.686 818.981 536.067 819.222C530.697 821.305 525.879 833.333 521.772 838.022C524.25 828.843 527.794 821.8 534.786 815.265C533.224 812.615 530.985 808.244 528.161 806.827ZM467.003 827.775C466.093 829.533 465.112 831.283 464.341 833.107C468.437 836.053 491.733 855.244 494.573 855.09L495.716 854.482L499.635 852.7C488.676 844.64 477.133 836.869 467.003 827.775ZM543.17 830.465C533.424 836.688 524.659 845.654 516.003 853.327C517.793 853.66 519.597 853.959 521.373 854.357C523.768 854.678 524.56 854.169 526.41 852.76C533.426 847.414 540.186 841.158 546.663 835.163C545.627 833.301 544.777 831.882 543.17 830.465ZM502.884 858.623C488.613 861.704 475.314 868.231 464.147 877.635C469.25 889.33 473.31 901.281 477.161 913.44C478.904 918.941 480.911 924.528 481.964 930.208C484.354 929.286 486.789 928.426 489.105 927.331C485.192 914.221 479.376 901.43 474.012 888.852C472.657 885.674 470.003 882.419 469.187 879.161L470.292 878.029C482.921 870.252 501.939 862.651 517.01 866.25C529.465 869.224 542.702 878.147 549.359 889.171C550.279 890.702 551.185 892.242 552.076 893.79C552.976 887.982 553.415 885.065 549.755 880.074C542.5 870.18 525.9 860.36 513.76 858.674C510.378 858.205 506.24 858.036 502.884 858.623ZM496.385 933.191C492.003 933.671 486.265 934.446 483.207 937.974C482.311 939.007 481.786 940.329 481.851 941.711C481.878 942.282 482.028 942.758 482.17 943.299C484.684 943.279 487.347 940.545 489.849 939.738C500.74 936.221 514.837 939.428 524.931 944.007C528.664 945.784 531.73 948.253 534.955 950.794C535.905 950.314 536.574 949.75 536.904 948.672C537.292 947.404 536.98 946.211 536.295 945.119C532.425 938.945 518.674 935.359 511.78 934.03C506.711 933.047 501.531 932.764 496.385 933.191ZM867.744 1001.99L868.02 1002.25L867.744 1001.99Z"/><path d="M585.319 50.6667L585.997 50.9107L585.319 50.6667Z"/><path d="M650.655 75.6433L650.957 75.8786L650.655 75.6433Z"/><path d="M660.469 84.5492L660.003 84.1246L660.469 84.5492Z"/><path d="M660.469 84.5492L660.854 84.87L660.469 84.5492Z"/><path d="M375.409 223.153L375.857 222.651L375.409 223.153Z"/><path d="M374.932 223.742L375.409 223.153L374.932 223.742Z"/><path d="M374.157 224.727L374.932 223.742L374.157 224.727Z"/><path d="M450.88 235.837L450.622 235.502L450.88 235.837Z"/><path d="M562.321 397.692C566.588 389.372 582.22 383.171 590.623 380.457C604.433 375.996 618.993 375.531 633.301 377.362C638.988 378.089 644.7 379.301 650.428 379.585C654.788 379.801 659.17 379.483 663.521 379.223C663.326 379.328 663.132 379.436 662.936 379.54C660.039 381.071 652.999 382.329 651.504 384.996C652.329 385.546 652.913 385.509 653.874 385.583C655.502 385.709 656.68 386.12 658.148 386.796L658.711 387.579C656.939 389.056 653.711 389.196 651.477 389.477C659.432 390.771 665.979 390.655 673.887 389.169C672.393 390.425 667.557 393.428 667.057 394.896C670.391 396.244 676.697 393.166 679.916 391.855C677.771 393.89 672.048 398.117 671.332 400.722C671.934 401.319 672.521 401.805 673.216 402.29C671.023 404.341 667.618 402.396 665.918 405.717C667.157 406.416 672.209 406.408 672.483 407.042L670.412 408.479L670.344 409.244C669.308 410.233 662.548 410.261 660.68 410.436L657.914 415.117C661.443 418.491 665.053 421.826 668.406 425.376L667.693 425.16C662.726 423.613 658.292 418.379 655.68 418.511C654.809 419.618 655.094 419.795 655.166 421.142C656.707 422.702 658.667 424.428 660.893 424.811L660.366 425.315C658.135 424.971 656.201 423.755 654.22 422.724C654.771 423.627 654.767 423.623 655.613 424.095C660.453 426.795 662.14 430.221 665.938 433.86C663.496 432.663 652.895 425.945 651.32 426.394C652.465 427.881 653.919 428.975 655.364 430.155C654.111 430.336 652.985 429.763 651.8 429.367L651.503 429.088L651.8 429.367C654.591 432.626 657.426 435.846 660.305 439.026C656.703 437.202 653.295 435.172 649.87 433.037C651.611 435.694 653.599 437.918 655.77 440.228C653.527 438.905 646.951 434.346 644.518 434.72C646.534 438.306 649.481 441.457 651.744 444.943C648.323 442.752 644.46 439.634 640.611 438.383L640.026 438.731C640.527 440.998 641.945 442.15 643.535 443.703C642.291 443.777 640.969 443.064 640.034 442.234C638.393 440.778 637.121 438.407 635.928 436.569C636.858 440.409 637.703 444.101 637.989 448.048C637.041 446.107 635.436 440.682 633.979 439.655C632.608 440.809 632.448 443.494 632.149 445.197C631.751 443.195 631.324 441.198 630.868 439.209C629.107 440.646 627.397 442.03 625.466 443.239L625.142 441.535C623.803 441.416 623.033 441.727 621.784 442.124C623.552 440.537 625.317 439.461 627.381 438.315L627.997 438.124L627.381 438.315C624.366 438.79 621.99 439.831 619.192 440.938C618.34 441.275 617.626 441.29 616.726 441.309C617.541 440.669 618.302 440.001 619.062 439.297L618.24 438.962C617.097 439.252 616.017 439.465 615.063 440.201C614.458 440.667 613.885 441.16 613.263 441.614C613.307 440.616 613.403 440.751 612.836 439.784C610.788 439.437 608.72 439.289 606.652 439.108L607.536 439.055C602.356 438.108 597.114 437.16 592.161 435.327C608.643 437.295 625.566 439.562 640.159 429.584C648.643 423.783 654.046 414.209 655.952 404.227C651.023 401.511 646.114 399.055 640.697 397.47C640.395 405.234 639.68 411.395 634.78 417.871C630.421 423.631 624.088 428.092 616.788 428.944C609.878 429.774 602.92 427.836 597.435 423.552C590.574 418.12 587.732 411.07 586.614 402.597C584.555 403.772 582.221 405.037 580.417 406.582C579.038 407.763 571.07 415.997 570.308 417.467C571.254 417.84 572.212 418.154 573.179 418.468C574.029 419.765 573.814 420.425 573.785 421.949C572.972 421.483 573.289 421.721 572.598 421.103C571.602 420.211 570.906 419.369 569.545 419.092C569.104 419.319 568.735 419.47 568.378 419.854C567.051 421.28 566.105 425.034 566.511 426.929C566.764 428.106 566.996 428.482 567.999 429.095C569.234 429.848 571.1 430.816 572.513 430.527L571.489 429.057C576.007 432.046 580.089 433.098 585.344 434.218C581.125 434.533 576.55 434.793 572.364 434.115C569.801 433.7 567.125 432.741 565.641 430.474C563.261 426.837 565.104 422.804 565.737 418.977L564.936 419.961L564.671 419.449C567.703 411.693 573.641 404.565 579.767 399.023C593.514 386.587 610.023 381.701 628.355 383.78C633.688 384.385 639.899 385.931 645.2 384.781C647.421 384.3 649.309 382.926 651.182 381.702C641.733 380.944 632.127 379.964 622.662 379.665C607.805 379.195 590.054 382.549 577.714 391.276C573.247 394.435 569.64 398.579 565.695 402.308C566.58 401.002 567.368 399.773 568.011 398.33L567.732 398.063C566.136 399.491 563.686 401.725 563.411 403.906C564.337 403.692 564.632 403.55 565.391 403.047C562.531 406.098 560.271 409.517 557.559 412.675C559.149 407.9 561.572 404.044 564.167 399.795L564.433 399.502L564.167 399.795L562.628 400.985L562.226 400.741C563.115 399.301 566.112 395.922 566.243 394.482C564.85 395.436 563.6 396.591 562.321 397.692ZM593.933 405.538C593.565 404.42 593.186 403.307 592.873 402.172L592.343 401.679C591.844 403.573 593.007 406.66 593.998 408.312C595.056 410.075 598.805 416.385 600.535 416.924C600.764 416.996 601.643 416.95 601.906 416.942L602.33 417.556L601.773 417.939C597.641 416.555 597.851 413.157 594.848 410.732L594.582 410.502L594.848 410.732C595.518 413.82 597.976 417.257 600.218 419.417C604.2 423.251 609.767 424.813 615.212 424.455C620.456 424.101 625.315 421.575 628.617 417.486C631.132 414.376 634.868 406.709 634.497 402.616L633.789 402.939C632.897 404.232 629.945 407.473 629.998 408.868C631.277 409.064 630.707 408.837 631.727 409.505C627.496 411.254 625.331 415.159 622.037 418.089C620.601 419.366 618.487 420.927 616.522 420.822C617.296 419.207 620.877 417.859 622.399 416.621C625.055 414.459 629.634 406.054 629.915 402.571L628.234 401.729C626.57 408.123 624.788 413.506 619.158 417.567C616.78 419.282 614.724 420.141 611.791 419.718L611.49 419.212C612.755 418.343 614.115 418.51 615.591 418.482L616.354 418.472C618.113 417.212 619.727 415.927 621.178 414.311C622.215 413.155 622.978 412.12 622.854 410.493L622.318 410.445C621.686 411.494 621.06 412.615 620.283 413.565C618.55 415.684 615.456 416.816 612.787 416.898C606.771 417.083 602.966 413.701 598.872 409.885L598.59 409.68L598.128 409.152L597.617 408.62L597.187 408.188L596.5 407.5L596.003 407.002L596.5 407.5L597.187 408.188L597.617 408.62L598.128 409.152L598.59 409.68L598.872 409.885L599.656 412.607C597.568 410.806 594.485 408.286 593.933 405.538C594.794 405.776 594.323 405.725 595.352 405.611L595.337 402.958L594.545 402.237L593.985 402.419L593.933 405.538ZM653.216 381.431C651.554 382.389 649.469 383.249 648.322 384.793L648.75 385.275C650.564 384.33 652.29 383.52 653.72 382.012L653.216 381.431ZM607.104 395.608C607.557 397.519 608.336 399.487 610.12 400.547C611.186 401.18 612.233 401.569 613.475 401.295C613.654 401.256 613.824 401.185 613.998 401.131C614.374 399.443 614.768 398.234 614.074 396.559C611.844 394.927 609.764 395.412 607.104 395.608ZM602.244 396.089C600.109 396.571 595.331 397.205 593.974 398.723C595.325 400.37 596.341 400.155 597.829 402.518C599.057 403.043 600.357 403.686 601.718 403.246C603.357 402.715 604.777 401.225 605.323 399.603C605.663 398.593 605.516 397.839 605.352 396.827L604.72 396.042C603.888 396.034 603.072 396 602.244 396.089ZM566.103 418.25L566.56 418.25L566.103 418.25Z"/><path d="M429.561 378.662C436.772 378.566 446.924 386.472 451.804 391.269C454.494 393.913 456.735 396.77 458.123 400.313C454.746 398.339 452.41 394.072 449.275 391.555C443.024 386.537 436.32 382.873 429.561 378.662Z"/><path d="M395.135 395.998L395.309 395.238L395.135 395.998Z"/><path d="M562.123 397.998L562.321 397.692L562.123 397.998Z"/><path d="M449.869 398.94C450.957 399.612 451.224 400.07 451.731 401.234C450.659 400.38 450.374 400.193 449.869 398.94Z"/><path d="M451.731 401.234L452.053 401.643L451.731 401.234Z"/><path d="M452.053 401.643L452.737 402.77L452.053 401.643Z"/><path d="M452.737 402.77L453.091 403.087L452.737 402.77Z"/><path d="M565.391 403.047L565.695 402.308L565.391 403.047Z"/><path d="M453.091 403.087L453.388 403.498L453.091 403.087Z"/><path d="M599.656 412.607L599.858 412.888L599.656 412.607Z"/><path d="M599.858 412.888C600.885 413.853 601.464 414.08 601.667 415.506C600.588 414.699 600.399 414.067 599.858 412.888Z"/><path d="M604.245 416.25L603.735 415.978L604.245 416.25Z"/><path d="M425.244 416.932L425.498 416.628L425.244 416.932Z"/><path d="M413.353 420.461C416.962 418.871 421.433 418.163 425.244 416.932C424.797 417.473 424.795 417.508 424.245 418.018C421.495 420.57 416.861 420.681 413.353 420.461Z"/><path d="M607.982 419.017L606.836 418.096L607.29 417.493L608.337 417.629C608.233 418.086 608.16 418.584 607.982 419.017Z"/><path d="M605.236 421.111L605.02 421.164C604.224 420.097 604.493 418.523 604.451 417.2C605.454 417.689 605.001 417.346 605.774 418.277L605.236 421.111Z"/><path d="M449.823 422.426C449.65 420.861 448.905 419.696 449.772 418.3L452.153 417.874C451.585 419.454 450.997 421.003 450.33 422.543L449.823 422.426Z"/><path d="M607.982 419.017L609.783 418.145C610.633 418.791 610.301 418.353 610.634 419.56L609.98 420.483L609.005 420.623C608.416 420.016 608.236 419.852 607.982 419.017Z"/><path d="M571.489 429.057L570.503 429.125L571.489 429.057Z"/><path d="M311.65 468.665C302.586 465.376 280.966 444.029 276.732 435.163C276.093 433.831 275.646 432.416 275.403 430.959C279.799 435.193 282.194 441.708 286.614 446.285C294.392 454.34 303.96 460.606 311.65 468.665Z"/><path d="M435.029 435.121C433.899 434.681 434.35 435.004 433.62 434.233L435.59 433.204C436.61 433.409 436.196 433.179 436.874 433.809L435.029 435.121Z"/><path d="M358.502 435.872L358.75 435.58L358.502 435.872Z"/><path d="M298.033 440.476L297.599 440.002L298.033 440.476Z"/><path d="M655.77 440.228L656.089 440.594L655.77 440.228Z"/><path d="M298.033 440.476L298.675 441.197L298.033 440.476Z"/><path d="M656.089 440.594L656.497 440.994L656.089 440.594Z"/><path d="M298.675 441.197L298.886 441.379L298.675 441.197Z"/><path d="M384.107 442.678L383.802 442.462L383.878 441.805L384.206 441.889L384.107 442.678Z"/><path d="M616.003 441.4L616.726 441.309L616.003 441.4Z"/><path d="M298.886 441.379C301.225 442.956 302.357 444.882 303.255 447.526C301.704 445.632 299.936 443.596 298.886 441.379Z"/><path d="M621.503 442.372L621.784 442.124L621.503 442.372Z"/><path d="M402.293 443.934L402.018 443.927L401.867 443.185L402.192 443.1L402.293 443.934Z"/><path d="M372.129 443.465L372.348 443.186L372.129 443.465Z"/><path d="M694.83 476.203C695.935 474.657 701.994 472.922 703.981 471.569C707.492 469.177 710.76 465.29 713.913 462.391C721.1 455.783 728.45 450.657 734.189 442.551L734.091 443.052C731.991 453.288 714.619 467.819 706.176 473.224C702.438 475.618 699.278 477.198 694.83 476.203Z"/><path d="M311.65 468.665L311.998 468.891L311.65 468.665Z"/><path d="M679.85 480.196L680.246 479.398L679.85 480.196Z"/><path d="M679.598 480.498L679.85 480.196L679.598 480.498Z"/><path d="M317.892 480.411L318.458 481.498L317.892 480.411Z"/><path d="M328.657 484.946L329.198 485.666L328.657 484.946Z"/><path d="M329.198 485.666L329.613 486.125L329.198 485.666Z"/><path d="M329.613 486.125L330.161 487.364L329.613 486.125Z"/><path d="M348.195 486.417L348.428 486.998L348.195 486.417Z"/><path d="M330.161 487.364L330.671 488.233L330.161 487.364Z"/><path d="M349.245 488.25L348.716 487.949L349.245 488.25Z"/><path d="M330.671 488.233L330.998 488.498L330.671 488.233Z"/><path d="M521.864 507.804C520.305 507.499 518.741 507.218 517.172 506.961L517.119 506.405L519.178 505.301C520.603 505.706 522.153 506.368 522.903 507.657L521.864 507.804Z"/><path d="M353.741 508.218L354.109 508.582L353.741 508.218Z"/><path d="M354.109 508.582L354.388 508.997L354.109 508.582Z"/><path d="M650.933 510.13L651.296 509.725L650.933 510.13Z"/><path d="M650.285 511.239L650.933 510.13L650.285 511.239Z"/><path d="M650.052 511.462L650.285 511.239L650.052 511.462Z"/><path d="M523.868 535.631C522.689 536.419 521.673 537.042 520.311 537.499L519.62 536.972C520.125 533.714 526.94 527.861 529.424 525.338C531.438 525.524 533.801 525.943 535.05 527.727C535.829 528.838 535.696 529.338 535.438 530.547C532.67 533.726 527.975 533.599 524.345 535.388C524.185 535.466 524.027 535.55 523.868 535.631Z"/><path d="M505.361 538.009C502.075 536.072 492.14 532.752 491.246 529.163C490.892 527.745 491.386 527.232 492.113 526.116C493.15 526.035 494.893 525.626 495.824 526.071C499.244 527.707 504.343 533.829 505.774 537.3L505.361 538.009Z"/><path d="M535.935 537.634L535.816 537.014C537.318 534.52 539.648 532.188 541.546 529.957L541.661 531.085C540.356 533.889 538.577 536.009 535.935 537.634Z"/><path d="M490.541 537.699C490.271 537.648 489.998 537.609 489.731 537.545C487.135 536.929 485.73 534.349 484.397 532.273C486.676 533.335 488.745 535.933 490.541 537.699Z"/><path d="M522.812 565.114C518.462 566.843 513.67 567.327 509.024 566.836C506.708 566.59 503.027 566.026 501.54 564.155C505.834 563.953 510.326 564.92 514.672 564.968C517.476 564.999 520.714 564.076 523.396 564.538L522.812 565.114Z"/><path d="M469.411 587.908C476.095 582.943 482.812 578.232 489.973 573.974L490.271 574.281L489.903 575.248C498.195 573.006 506.318 576.234 514.706 575.984C520.865 575.801 527.391 573.386 533.572 575.215C535.482 575.78 537.432 575.074 539.191 575.627C544.073 577.163 553.116 584.649 557.787 587.855C559.951 587.864 562.399 587.648 564.409 588.545C565.554 589.056 566.454 589.66 566.948 590.844C561.259 594.39 540.271 587.063 532.661 587.364C529.47 587.491 525.749 589.619 522.596 590.49L522.104 590.622C519.097 590.94 518.027 592.179 515.846 594.05C513.554 594.51 514.849 593.829 513.346 592.825C513.066 592.638 509.26 593.112 508.679 593.143C504.297 593.374 500.61 592.807 496.528 591.231L496.563 590.905C500.042 591.223 504.322 592.089 507.725 591.375C506.197 589.974 503.061 589.312 501.099 588.637C484.193 582.825 481.005 592.724 466.46 591.05C465.04 590.886 463.185 590.63 462.27 589.433L462.794 588.71C464.997 587.651 467.033 587.853 469.411 587.908ZM493.199 574.957C485.59 579.52 477.925 584.502 470.086 588.613C478.122 586.871 489.351 582.112 496.672 581.479C500.788 581.123 505.293 582.647 509.388 583.208C514.735 583.939 522.411 582.933 527.692 581.731C528.473 581.553 529.105 581.636 529.876 581.797C532.316 582.294 552.711 587.68 553.653 587.389C551.686 585.694 549.127 584.517 546.919 583.149C540.307 579.052 535.015 575.208 526.818 575.906C514.596 576.947 505.662 578.48 493.199 574.957Z"/><path d="M535.803 589.75L535.997 589.503L535.803 589.75Z"/><path d="M519.876 594.35C523.701 591.302 531.087 590.84 535.803 589.75C535.604 590.017 535.441 590.314 535.206 590.55C532.023 593.745 524.137 594.236 519.876 594.35Z"/><path d="M472.347 597.737L472.12 597.003L472.347 597.737Z"/><path d="M534.656 597.314L535.146 597.132L534.656 597.314Z"/><path d="M472.347 597.737L472.772 597.882L472.347 597.737Z"/><path d="M497.114 598.249L497.194 597.868C499.117 596.899 504.256 598.384 506.564 598.54C515.501 599.146 525.855 599.105 534.656 597.314C533.926 597.651 533.188 597.973 532.444 598.278C522.779 602.217 506.739 602.393 497.114 598.249Z"/><path d="M472.772 597.882C472.987 598.021 473.205 598.156 473.418 598.3C477.681 601.184 480.241 606.905 484.542 610.1C493.407 616.687 520.951 615.416 531.713 613.731C539.933 612.445 543.711 609.639 549.068 603.35C550.543 601.619 551.832 600.064 553.74 598.785C549.813 605.343 543.105 614.566 535.813 617.397C524.856 621.652 501.291 622.223 490.587 617.284C484.138 614.309 475.21 604.572 472.772 597.882Z"/><path d="M553.74 598.785L553.935 598.503L553.74 598.785Z"/><path d="M584.522 702.75L584.249 702.485L584.522 702.75Z"/><path d="M460.652 732.75L460.123 732.455L460.652 732.75Z"/><path d="M460.82 734.097L460.571 733.503L460.82 734.097Z"/><path d="M497.667 838.176L497.875 838.473L497.667 838.176Z"/></svg>