<?xml version="1.0" encoding="utf-8" ?><svg xmlns="http://www.w3.org/2000/svg" xmlns:xlink="http://www.w3.org/1999/xlink" width="1024" height="1024" viewBox="0 0 1024 1024"><path fill="white" d="M0 0L0 1024L1024 1024L1024 0L0 0Z"/><path d="M514.256 0L524.417 0C531.347 0.799532 538.385 1.36615 545.245 2.63966C603.468 13.4484 656.425 43.4166 693.434 89.9916C731.783 138.253 744.072 180.655 759.719 239.336C765.031 259.04 770.451 278.715 775.977 298.36C781.673 318.931 787.507 339.719 795.538 359.524C801.144 373.349 808.486 386.116 815.506 399.234C827.946 422.696 840.979 445.839 854.59 468.641C868.64 492.047 883.318 514.979 892.738 540.769C901.396 564.475 905.345 589.233 902.374 614.406C901.648 620.698 900.346 626.909 898.482 632.963C900.321 619.747 901.257 606.731 900.27 593.39C896.206 538.437 861.784 493.695 829.852 451.437C824.408 444.232 818.674 437.245 813.383 429.927C805.835 419.488 798.853 408.662 791.574 398.038C803.114 436.802 817.673 474.603 835.116 511.094C857.315 556.699 896.387 599.845 890.407 654.089C888.954 667.276 885.598 678.944 879.189 690.569C876.332 695.751 873.226 700.678 869.024 704.879C872.513 698.78 876.132 692.74 878.731 686.192C886.32 667.068 885.051 644.882 879.752 625.351C875.854 610.984 866.275 589.155 857.641 576.944C864.982 607.277 868.32 647.764 851.298 675.439C840.276 693.36 822.637 704.987 802.32 709.728C800.393 710.178 798.459 710.56 796.484 710.715C811.935 705.246 825.641 697.871 832.993 682.428C840.664 666.314 841.358 646.534 840.773 629C833.941 654.076 824.378 671.976 804.27 688.957C798.624 693.725 792.72 698.268 786.297 701.947C780.511 705.262 774.44 708.196 768.47 711.17C779.935 720.026 806.211 735.536 812.655 747.234C813.776 749.269 814.194 751.845 814.715 754.096L815.342 754.459C821.667 758.075 828.779 760.687 835.476 763.541C842.934 766.773 850.351 770.102 857.723 773.527C873.53 780.762 889.58 787.737 905.032 795.701C919.11 802.956 932.694 811.138 946.217 819.361C952.272 823.043 961.711 827.242 966.131 832.786C979.095 849.044 996.792 902.435 1002.75 923.655C1009.44 947.475 1014.29 969.78 1018.98 994.027C1020.49 1001.78 1021.68 1017.15 1024 1023.59L1024 1024L893.804 1024C896.472 1013.85 898.31 1003.42 900.856 993.22C910.627 954.082 922.53 913.645 941.39 877.835C945.024 870.935 948.812 863.816 953.127 857.32C956.148 852.772 959.632 848.569 962.469 843.893L962.072 843.887C952.896 853.166 946.767 865.211 940.499 876.538C925.723 903.239 912.651 931.83 903.563 960.997C897.152 981.573 892.512 1002.93 888.042 1024L883.248 1024C884.051 1017.34 885.917 1010.99 887.761 1004.57C884.291 1000.87 881.541 996.317 878.465 992.273C873.672 985.972 868.54 979.847 863.332 973.889C854.425 963.702 844.982 954.108 835.51 944.458C815.684 924.259 795.346 904.958 773.194 887.302C766.392 881.881 759.608 876.03 752.169 871.506C749.653 874.419 747.155 877.348 744.674 880.291C751.347 892.626 759.443 903.463 768.226 914.351C763.839 916.174 760.415 918.488 756.788 921.534C743.728 932.502 732.293 945.716 720.454 957.982L656.549 1024L602.807 1024C610.799 1015.93 618.101 1007.11 625.664 998.64C636.672 986.309 647.967 974.147 659.208 962.022C682.428 936.976 706.569 912.751 728.414 886.458C739.663 872.917 749.797 858.275 759.519 843.611C779.897 812.876 794.952 786.483 807.896 751.855C804.834 746.321 800.093 742.895 795.748 738.449C784.78 777.396 753.942 825.548 729.217 857.944C717.906 872.765 705.831 886.898 693.916 901.224C668.109 931.858 641.847 962.105 615.138 991.956C605.486 1002.74 595.424 1013.14 585.854 1024L571.359 1024C585.165 1002.14 604.04 977.676 620.573 957.71C626.832 950.151 633.435 942.89 639.691 935.336L672.412 895.42C687.219 877.554 702.181 859.775 715.875 841.028C728.29 824.031 739.64 806.065 750.527 788.05C762.068 768.954 774.157 748.331 779.776 726.632C765.777 717.389 752.169 707.873 739.348 697.026C716.966 678.09 671.75 629.056 643.092 625.365L642.503 625.122L643.092 625.365C679.43 641.384 700.812 668.524 725.208 698.515C731.074 705.725 741.165 716.57 744.46 724.929C747.859 733.55 742.846 744.712 739.181 752.463C728.808 774.403 713.158 794.187 699.4 814.095C672.349 853.24 644.515 891.598 616.622 930.126C605.629 945.306 594.931 960.699 584.535 976.295C574.181 992.118 564.314 1008.41 553.614 1024L544.736 1024C549.818 1005.27 555.051 986.845 559.272 967.873C564.686 943.532 568.947 918.897 575.799 894.891C580.612 878.029 586.891 861.586 593.247 845.257C575.706 860.876 546.677 874.464 523.566 877.227C497.15 880.384 463.67 870.624 440.51 857.444C434.63 854.097 429.168 849.971 423.847 845.806L423.624 845.576L423.847 845.806C432.223 875.508 444.256 904.327 456.267 932.699C469.494 963.941 482.71 994.642 499.839 1024L492.94 1024C486.23 1019.94 479.798 1015 473.321 1010.56C458.854 1000.64 444.46 990.705 430.853 979.608C421.138 971.685 412.01 963.083 402.878 954.504C367.544 921.312 332.663 883.204 309.268 840.443C299.757 823.061 292.44 804.27 285.877 785.606C281.232 772.395 275.398 757.996 273.982 744.03C282.532 732.852 292.717 722.687 301.881 711.989C312.615 699.458 322.156 685.911 333.261 673.691C352.247 652.798 373.383 634.002 393.735 614.482C354.117 635.062 322.179 668.032 289.857 698.185C278.811 708.491 265.567 718.67 256.613 730.875C253.294 735.398 252.851 738.995 253.703 744.491C255.6 756.71 259.883 768.902 263.491 780.697C277.316 827.205 299.159 870.941 328.035 909.931C334.155 918.047 340.95 925.721 347.533 933.467C360.064 948.214 373.087 962.635 387.819 975.239C401.965 987.341 417.517 998.014 433.075 1008.22C441.06 1013.46 449.234 1018.33 456.93 1024L425.997 1024C377.978 994.972 336.497 956.306 304.173 910.441C292.667 894.002 282.672 876.219 273.806 858.234C261.704 833.683 234.346 767.179 239.105 741.433C239.313 740.308 239.489 739.179 239.681 738.051C236.337 739.295 232.774 742.259 229.848 744.386C227.383 754.202 227.111 774.956 228.955 784.996C232.712 805.45 240.867 826.045 249.347 844.935C284.505 923.252 337.203 976.023 407.131 1024L134.447 1024C131.657 1014.78 130.059 1005.16 127.293 995.9C122.616 980.204 117.547 964.628 112.089 949.185C107.514 936.463 71.8931 845.285 66.0831 842.142L65.5911 842.744C65.0871 846.59 67.3415 851.072 68.7048 854.687C72.7672 865.459 78.0833 875.769 82.6508 886.335C86.7877 895.904 90.1439 905.811 94.0264 915.485C97.7469 924.756 101.96 933.837 105.375 943.23C115.08 969.605 123.054 996.586 129.247 1024L0 1024L0 1023.35C2.02331 1016.91 2.33162 1008.93 3.42326 1002.21C5.06881 992.4 7.04084 982.652 9.33606 972.978C18.5511 931.91 32.5622 892.067 51.0807 854.27C54.9892 846.358 58.734 837.285 64.8743 830.828C79.2593 815.701 126.138 790.018 146.392 780.367C161.998 773.036 177.743 766.006 193.619 759.279C202.678 755.423 212.905 752.041 221.362 747.016C231.971 740.712 246.255 728.012 256.633 720.115C244.237 715.977 232.791 709.409 222.963 700.794C191.104 673.152 182.994 630.594 180.08 590.596C176.396 614.212 172.667 637.354 173.339 661.371C174.084 688.026 178.509 714.923 196.052 736.011C199.764 740.473 203.979 744.17 208.174 748.137C197.379 743.761 178.635 722.536 172.495 712.288C165.984 701.419 161.632 689.176 158.794 676.866C147.62 628.402 161.965 580.188 177.153 534.348C186.478 506.203 196.879 478.579 206.894 450.682C213.857 431.264 219.831 411.505 224.794 391.482C221.111 397.829 217.925 404.559 214.581 411.093C193.175 452.929 171.926 506.25 162.671 552.445C160.754 562.01 159.069 571.96 158.373 581.689C158.023 586.58 158.831 591.696 157.774 596.495C155.949 590.933 156.29 580.82 156.326 574.916C156.687 516.314 187.777 446.503 214.08 394.902C219.297 384.669 225.351 374.729 230.994 364.72C233.536 360.211 237.077 355.19 238.521 350.234C239.559 346.669 238.512 333.283 238.491 328.931C238.4 321.081 238.581 313.229 239.036 305.392C240.466 281.232 243.619 257.205 248.472 233.495C264.265 155.154 297.757 86.8604 365.97 41.617C393.017 23.677 426.935 7.04511 460.076 7.4632C466.411 7.54312 472.439 8.55844 478.621 9.81289C490.256 3.78226 501.402 1.67316 514.256 0ZM482.264 29.176L482.002 29.4231L482.264 29.176C485.123 28.0632 487.771 26.4324 490.667 25.3227C494.472 23.8647 499.71 23.1987 503.031 21.0392C502.477 21.0539 501.922 21.0621 501.371 21.1149C495.118 21.7147 486.412 24.2645 482.264 29.176ZM407.704 36.8701C401.186 38.2411 394.588 42.2272 388.792 45.481C380.489 50.1416 372.354 55.1277 364.901 61.078C344.738 77.1774 324.844 102.255 310.788 123.837C298.575 142.588 287.4 162.982 279.561 183.975C278.404 187.073 276.784 190.686 276.269 193.924L276.002 194.498L276.269 193.924L276.476 193.538C280.74 185.401 283.54 176.437 287.739 168.192C299.477 145.142 322.915 111.536 345.055 97.4854C341.867 107.052 335.936 114.482 330.719 122.953C317.383 144.606 304.162 166.354 293.694 189.564C291.764 193.842 289.098 198.849 288.269 203.438L288.051 203.998L288.269 203.438C290.498 200.113 292.078 195.945 293.843 192.338C296.628 186.68 299.552 181.092 302.611 175.578C313.714 155.771 327.281 137.449 342.988 121.051C346.431 117.403 350.225 112.886 354.541 110.342C351.354 114.984 347.793 119.367 344.612 124.016C339.754 131.115 335.369 138.763 331.147 146.262C328.86 150.325 326.18 154.746 324.765 159.193L324.564 159.494L324.765 159.193C334.222 149.287 341.962 136.7 353.325 128.741C350.695 135.961 346.497 141.973 342.156 148.247C332.706 161.905 318.086 179.243 312.257 194.455L311.871 195.212L311.394 195.62L310.878 196.773L310.603 196.998L310.878 196.773L311.394 195.62L311.871 195.212L312.257 194.455C314.989 191.43 317.311 187.679 319.723 184.385C324.139 178.353 328.624 172.438 333.43 166.71C338.985 160.089 344.54 153.331 350.516 147.083C357.205 140.089 364.374 133.549 371.134 126.618C376.669 120.943 381.759 114.87 387.382 109.275C379.353 113.195 371.894 118.602 364.699 123.864C372.313 109.175 385.704 98.2423 397.705 87.3368L397.986 87.0777L397.705 87.3368C390.186 90.9033 383.089 97.5476 375.313 100.127C383.043 90.5719 392.256 82.2276 401.256 73.9084L401.498 73.621L401.256 73.9084C385.329 79.8419 368.101 93.8371 354.281 103.808C358.171 96.7773 363.866 91.5942 368.731 85.3338L369.152 84.9291L369.498 84.6202L369.152 84.9291L368.731 85.3338C362.487 87.9738 357.829 94.0616 352.213 97.7096C363.483 78.5632 388.7 60.6115 408.459 50.5436C413.134 48.1618 418.14 46.5021 422.845 44.1715C397.514 49.8694 374.287 63.6971 353.724 79.1206C360.717 66.2736 394.539 45.1595 407.704 36.8701L407.998 36.6024L407.704 36.8701ZM500.768 37.9207C493.409 37.8276 484.62 41.5316 479.415 46.7317C478.446 47.699 477.713 48.7146 477.05 49.912C481.689 47.0737 485.987 43.8686 490.953 41.5756C494.154 40.0978 497.512 39.2148 500.768 37.9207L500.998 37.6247L500.768 37.9207ZM575.503 46.1041L576.246 46.325L576.819 46.8326C582.614 51.7044 590.544 54.7794 597.049 58.6707C612.528 67.9305 642.234 88.7956 652.176 103.195C643.943 95.8634 621.048 82.8282 610.795 78.9011L610.503 78.6186L610.795 78.9011C620.997 87.9337 629.587 98.2352 638.733 108.273C643.13 113.1 647.881 117.662 652.488 122.288L652.999 122.214L653.272 121.065C658.636 122.881 666.582 133.791 671.688 137.707L672.062 138.155L672.376 138.498L672.062 138.155L671.688 137.707C668.402 130.736 660.722 120.955 655.682 114.706C653.446 111.934 650.586 109.098 648.85 106.024C666.299 118.604 678.209 133.218 691.834 149.583C694.815 153.164 698.366 159.464 701.745 162.21L702.067 162.609L702.654 163.734L702.888 163.998L702.654 163.734L702.067 162.609L701.745 162.21C698.038 150.862 672.01 121.755 663.737 109.808C668.166 113.302 672.101 117.915 676.198 121.822C675.982 121.397 675.762 120.975 675.539 120.554C660.131 91.5893 627.911 73.4688 600.052 58.4039C592.778 54.4706 584.712 49.2354 576.819 46.8326L576.246 46.325L575.503 46.1041ZM640.503 76.0025L640.789 76.2201C652.968 90.2041 666.342 103.263 678.555 117.209C685.528 125.172 691.409 133.954 698.268 141.94L698.651 142.669L698.888 142.979L698.651 142.669L698.268 141.94C692.551 125.626 656.277 85.7279 640.789 76.2201L640.503 76.0025ZM591.503 82.0777L591.808 82.2799C595.525 87.0992 611.404 98.0289 617.245 102.735C624.401 108.501 631.216 114.972 637.597 121.579C673.489 158.744 695.93 204.223 707.193 254.341C709.126 263.346 710.8 272.405 712.213 281.506C712.894 285.685 713.197 290.072 714.209 294.171C714.244 294.312 714.281 294.451 714.318 294.591C714.59 288.736 713.398 282.283 712.631 276.466C708.627 246.116 701.186 214.47 688.7 186.4C675.029 155.667 650.373 122.987 623.986 102.121C618.89 98.0912 613.485 94.7164 607.973 91.3063C602.881 88.1563 597.413 84.421 591.808 82.2799L591.503 82.0777ZM451.648 103.998C448.991 108.505 448.14 114.938 447.155 120.086C441.526 149.505 441.849 181.824 449.365 210.895C452.31 222.284 467.747 264.819 474.748 272.466L475.105 273.223L475.665 274.324L476.127 275.255L476.381 275.498L476.127 275.255L475.665 274.324L475.105 273.223L474.748 272.466C473.558 268.4 471.142 264.207 469.42 260.315C466.729 254.196 464.352 247.943 462.3 241.58C459.162 231.932 457.007 222.11 454.895 212.2C448.99 184.483 445.083 156.287 447.561 127.902C448.267 119.819 450.208 111.962 451.648 103.998L451.99 103.502L451.648 103.998ZM486.002 163.002L486.276 163.553C488.186 170.407 491.512 177.16 494.303 183.714C508.744 217.633 525.403 243.438 548.835 271.785C552.61 276.353 556.646 282.681 561.265 286.261L561.573 286.59C562.169 287.906 562.586 288.37 563.788 289.168L563.997 289.408L563.788 289.168C563.192 287.928 562.668 287.414 561.573 286.59L561.265 286.261C558.397 280.752 553.251 275.42 549.468 270.449C543.272 262.307 537.227 253.809 531.869 245.09C525.863 235.317 520.583 225.154 514.883 215.21C509.122 205.157 502.975 195.307 497.398 185.151C493.518 178.085 490.516 170.375 486.276 163.553L486.002 163.002ZM500.617 179.002L500.857 179.748L501.405 179.998L500.857 179.748L500.617 179.002ZM394.032 181.034L393.696 181.623C389.039 186.282 385.233 192.042 381.421 197.393C371.453 211.388 362.581 225.818 353.571 240.431C342.275 259.135 330.551 277.576 318.406 295.74C314.477 301.833 310.383 307.819 306.129 313.691C302.275 318.924 297.108 324.466 294.27 330.28L293.912 330.596C293.583 331.057 293.241 331.486 293 332L292.358 332.725L292.123 332.998L292.358 332.725L293 332L293.912 330.596L294.27 330.28C296.933 328.198 299.234 324.683 301.353 322.008C313.507 306.661 324.027 290.101 335.02 273.922C348.655 253.854 362.837 234.08 375.693 213.498C379.28 207.755 382.429 201.788 385.784 195.913C388.458 191.229 391.549 186.572 393.696 181.623L394.032 181.034L394.467 180.502L394.032 181.034ZM501.586 180.502L501.792 181.254L502.794 182.311L502.922 182.713C505.081 188.51 508.379 194.047 511.328 199.482C515.016 206.28 518.654 213.109 522.858 219.605C533.597 236.198 546.605 251.794 559.246 266.977C563.524 272.115 568.167 278.958 573.438 283.007C573.935 284.483 574.599 284.784 575.789 285.751L576.079 286.093L576.61 286.699L576.904 286.998L576.61 286.699L576.079 286.093L575.789 285.751C575.138 284.531 574.769 283.606 573.438 283.007C570.488 277.853 565.808 273.157 562.12 268.45C555.481 259.926 549.019 251.265 542.739 242.473C533.941 229.684 525.289 216.795 516.786 203.809C512.37 196.972 508.18 188.88 502.922 182.713L502.794 182.311L501.792 181.254L501.586 180.502ZM483.48 85.79C484.305 86.9206 493.565 88.267 495.564 88.7604C511.527 92.7003 527.3 98.7243 542.21 105.632C571.751 119.317 600.987 137.471 625.776 158.629C634.803 166.333 642.806 175.219 651.852 182.827L652.274 183.177L652.497 183.442L652.274 183.177C649.071 178.068 644.014 173.157 639.987 168.646C603.801 128.106 538.579 88.9388 483.48 85.79ZM601.112 185.502L601.36 186.208L602.24 186.61L602.398 186.881C605.37 192.633 610.946 198.182 614.925 203.382L643.095 240.449C647.39 246.218 651.359 252.301 655.221 258.367C657.455 261.876 659.825 267.104 662.768 269.954L663.097 270.727L663.657 271.742L663.893 271.998L663.657 271.742L663.097 270.727L662.768 269.954C661.218 263.904 655.93 256.881 652.613 251.512C639.674 230.563 630.166 214.67 612.55 196.773C609.28 193.45 606.045 189.779 602.398 186.881L602.24 186.61L601.36 186.208L601.112 185.502ZM403.191 186.761C399.767 190.316 396.948 194.766 394.07 198.77C389.859 204.629 385.492 210.467 381.728 216.623C375.779 226.352 370.667 236.565 364.985 246.449C360.072 254.995 354.324 263.244 349.78 271.973L349.796 272.498C348.733 273.607 348.142 273.978 347.814 275.505C341.66 282.482 335.66 292.362 330.051 300.078C325.46 306.395 316.319 317.001 313.14 323.501L312.752 324.067L313.14 323.501C320.627 317.658 344.854 283.839 347.814 275.505C349.164 274.654 349.208 273.949 349.796 272.498C351.216 271.759 400.37 193.414 403.191 186.761L403.442 186.502L403.191 186.761ZM425.561 188.234C417.559 200.424 412.469 215.623 406.949 229.099C393.759 261.294 382.907 295.124 366.063 325.686C361.839 333.349 356.954 340.607 352.051 347.846C356.164 347.033 360.266 346.247 364.478 346.616C375.431 347.576 386.342 350.334 396.962 353.047C415.883 357.875 434.568 363.584 452.956 370.155C456.524 371.392 462.24 372.372 465.185 374.473C465.821 374.926 466.278 375.527 466.777 376.115C468.426 378.056 471.118 380.726 471.696 383.225C467.881 380.487 464.971 375.865 461.301 372.718L460.892 372.362C465.267 379.245 470.568 385.455 474.915 392.356C470.353 388.779 465.473 385.427 461.753 380.942C462.794 383.267 463.852 385.568 464.683 387.978C451.633 387.211 435.825 381.816 423.166 378.201C412.639 375.194 401.922 372.594 391.633 368.823C379.969 364.548 368.575 358.733 356.179 356.883C349.96 355.954 343.487 356.768 337.324 357.778C341.478 354.772 347.659 351.451 350.837 347.572C360.715 335.514 380.711 282.793 383.62 267.074L383.907 266.502L383.62 267.074C378.986 273.844 375.436 281.403 371.288 288.476C357.832 311.422 341.687 339.057 323.163 358.134C323.107 370.337 323.368 382.715 324.222 394.887C324.971 405.578 325.814 416.49 327.665 427.057C333.787 462.004 353.916 529.427 372.737 558.382C380.314 570.038 389.768 580.611 399.113 590.856C412.214 605.479 426.177 619.306 440.925 632.265C449.271 639.508 457.862 646.278 466.711 652.888C486.966 668.019 495.435 672.273 521.582 670.28C530.321 669.613 539.462 667.623 547.236 663.461C563.977 654.496 603.681 612.917 616.723 597.804C627.659 585.131 638.457 571.633 646.629 556.981C667.307 519.901 676.895 476.538 684.147 435.058C686.063 424.094 688.447 413.088 689.094 401.958C689.871 388.584 688.403 374.373 687.418 360.999C680.572 359.049 673.412 354.996 666.226 354.881C655.119 354.702 627.995 366.798 616.479 371.241C605.672 375.411 594.479 378.891 583.532 382.714C572.744 386.481 561.67 391.304 550.39 393.227C553.287 389.441 556.361 385.886 559.533 382.334L558.782 383.17C558.697 383.154 546.282 394.187 544.349 395.426C551.072 384.9 560.003 379.372 570.334 372.825C562.263 374.148 553.964 373.307 545.928 372.09C510.567 366.738 487.235 342.321 467.717 314.151C463.243 307.694 459.647 300.594 454.947 294.315L454.533 293.769C465.628 317.316 477.759 340.67 494.116 361.051C498.352 366.33 503.863 370.477 508.166 375.688C508.274 375.819 508.379 375.951 508.486 376.083C502.181 372.84 495.978 369.384 490.219 365.232C460.454 343.772 442.268 304.847 433.777 269.99C431.392 260.2 430.098 250.177 428.524 240.234L428.126 240.002L428.524 240.234C428.106 268.139 434.506 301.092 445.413 326.851C448.059 333.1 451.14 339.213 454.138 345.299C455.511 348.088 457.253 350.996 458.263 353.927C457.273 352.968 456.397 351.906 455.571 350.804C421.792 305.765 418.174 241.954 425.561 188.234L425.875 188.002L425.561 188.234ZM275.5 196L275.212 196.866L275.5 196L275.973 195.002L275.5 196ZM609.003 210.553L609.452 211.05L610.235 212.242L610.644 212.551L611.134 213.168L611.357 213.421C613.834 217.369 617.069 221.012 619.863 224.765L640.763 252.725C644.689 258.047 652.848 271.351 656.842 274.999L657.5 276L658.209 277.27L658.587 277.6L659.158 278.765L659.42 278.998L659.158 278.765L658.587 277.6L658.209 277.27L657.5 276L656.842 274.999C654.778 269.612 648.47 261.702 645.132 256.633C638.426 246.449 632.311 235.455 624.547 226.049C620.666 221.348 616.023 217.322 611.357 213.421L611.134 213.168L610.644 212.551L610.235 212.242L609.452 211.05L609.003 210.553ZM433.114 216.676C433.009 217.44 433.119 217.637 433.39 218.335C433.479 227.146 439.431 258.015 444.175 263.576C444.343 261.322 442.714 258.041 442.018 255.87C439.842 249.001 438.083 242.007 436.752 234.925C435.725 229.438 435.084 223.644 433.39 218.335C433.568 217.23 433.63 217.787 433.114 216.676ZM605.104 237.002L605.357 237.713L606.224 238.123L606.55 238.702L607.521 239.982L608.179 240.694L608.377 240.902C610.337 245.057 625.171 262.556 628.919 265.501C629.386 266.783 629.677 266.902 630.782 267.74L631.07 268.101L631.596 268.714L632.228 269.738L632.497 269.924L632.228 269.738L631.596 268.714L631.07 268.101L630.782 267.74C630.154 266.532 630.086 266.156 628.919 265.501C626.33 260.137 612.925 244.683 608.377 240.902L608.179 240.694L607.521 239.982C607.26 239.502 606.899 239.12 606.55 238.702L606.224 238.123L605.357 237.713L605.104 237.002ZM577.038 245.502L577.266 245.782C577.386 246.157 577.496 246.538 577.645 246.903C580.326 253.48 585.234 259.591 588.917 265.669C606.784 295.158 633.905 328.872 663.354 347.572C670.89 352.357 678.992 355.915 687.234 359.265C687.142 358.327 687.09 357.047 686.541 356.252C684.857 353.817 667.636 343.949 663.04 340.428C636.53 320.119 613.845 293.73 593.269 267.598C587.894 260.77 583.379 253.13 577.855 246.482L577.266 245.782L577.038 245.502ZM507.547 260.002L507.772 260.57C507.939 261.202 507.951 261.292 508.208 262.003C517.698 288.339 544.281 326.038 565.804 343.412C575.053 350.879 584.902 356.202 595.462 361.476C599.695 359.923 603.83 358.069 607.981 356.311L613.637 353.915C578.572 349.813 545.105 313.051 525.211 286.033C519.724 278.58 513.641 267.435 508.064 260.903C507.968 260.79 507.869 260.681 507.772 260.57L507.547 260.002ZM659.612 279.502L660.137 279.749L660.382 280.498L660.137 279.749L659.612 279.502ZM602.003 336.002L602.258 336.248C602.433 336.417 602.606 336.59 602.785 336.756C607.594 341.22 626.979 350.174 633.309 349.731C634.444 349.652 635.252 349.584 636.353 349.939C636.665 350.039 636.971 350.155 637.279 350.262L637.478 349.775C634.41 347.676 624.966 345.613 620.819 344.109C614.557 341.837 608.566 338.139 602.258 336.248L602.003 336.002ZM547.503 346.076L547.746 346.667L548.497 346.902L547.746 346.667L547.503 346.076ZM549.003 347.071L549.752 347.288L550.753 348.292L550.933 348.431C555.449 353.993 578.099 362.334 585.335 365.172C580.403 365.493 576.045 365.025 571.177 364.169C572.832 365.148 574.71 365.381 576.327 366.389C575.133 367.347 573.941 367.484 572.479 367.842C562.618 370.261 561.381 366.867 554.77 367.362L557.213 368.757C561.513 370.235 565.954 371.334 570.342 372.523C573.122 371.906 574.99 369.684 577.538 368.621C582.597 366.51 587.83 364.695 592.915 362.594C577.436 362.6 565.569 353.817 551.665 348.695L550.933 348.431L550.753 348.292L549.752 347.288L549.003 347.071ZM240.581 373.058C236.921 383.468 235.069 395.341 233.111 406.188C222.128 467.04 225.163 538.326 252.209 594.86C253.244 597.023 254.228 599.618 255.735 601.469L256.11 602.221L256.662 603.324L257.141 604.282L257.627 605.255L257.881 605.497L257.627 605.255L257.141 604.282L256.662 603.324L256.11 602.221L255.735 601.469C254.538 595.597 250.598 588.281 248.461 582.481C244.228 570.994 240.962 559.658 238.42 547.679C228.853 502.611 228.878 457.957 234.309 412.31C235.262 404.612 236.451 396.945 237.874 389.319C238.834 384.15 240.161 378.85 240.547 373.618C240.56 373.432 240.57 373.245 240.581 373.058L240.872 372.502L240.581 373.058ZM562.771 379.695L562.503 379.899L562.771 379.695C563.807 379.31 563.728 379.46 564.463 378.473L563.764 378.396L562.771 379.695ZM704.824 426.335C706.034 421.618 704.043 417.99 703.08 413.434C700.998 420.89 701.874 426.001 702.384 433.532C703.143 444.723 693.627 454.719 685.829 461.582C684.71 466.071 677.822 490.961 679.04 494.203C680.941 494.36 682.407 493.001 683.81 491.824C686.387 489.662 688.643 487.228 690.694 484.564C699.881 472.633 707.633 459.253 715.811 446.614C721.542 437.757 728.562 428.731 732.992 419.203C734.19 416.626 734.6 413.909 734.815 411.1C735.333 404.353 730.405 379.329 726.616 374.644C726.101 374.008 725.498 374.064 724.743 373.892C722.947 374.452 722.15 375.479 721.053 376.921C725.534 384.558 729.081 398.445 727.019 407.22C725.964 411.711 723.059 415.827 721.382 420.124C717.949 428.921 715.161 438.834 710.77 447.152C706.167 455.873 698.783 464.115 692.438 471.639C696.353 462.167 702.921 455.878 708.174 447.409C711.53 441.998 712.862 435.754 715.37 429.961C718.378 423.012 723.476 415.884 724.777 408.38C725.601 403.635 724.757 398.818 722.895 394.417C721.539 391.211 719.567 388.391 717.332 385.745C713.505 390.913 710.051 396.158 707.114 401.883C709.341 410.1 710.749 416.131 706.245 423.978C705.787 424.772 705.313 425.558 704.824 426.335ZM782.341 433.295C782.398 435.258 782.753 438.184 783.862 439.822C784.677 450.814 788.277 462.494 790.946 473.193C795.871 493.167 801.1 513.065 806.632 532.879C809.3 542.672 813.515 562.518 817.723 570.693L818 571.5L818.288 572.366L818 571.5L817.723 570.693C816.778 564.195 814.358 557.499 812.604 551.161C808.952 537.962 805.124 524.786 801.718 511.522L788.9 461.107C787.179 454.178 786.391 446.427 783.862 439.822C784.19 437.591 783.257 435.291 782.341 433.295ZM314.437 423.449C314.43 424.22 314.451 424.991 314.5 425.76C314.96 432.129 318.769 439.64 323.636 443.742L323.875 443.998L323.636 443.742C322.772 439.389 317.106 427.082 314.437 423.449ZM719.5 541L719.187 541.86C717.873 544.934 717.177 548.261 716.374 551.499C713.235 564.147 710.425 576.419 706.013 588.702C703.604 595.408 697.663 607.338 696.331 613.501L695.862 614.208L695.518 614.997L695.862 614.208L696.331 613.501C703.774 605.515 718.253 554.17 719.187 541.86L719.5 541L719.758 540.132L719.5 541ZM309.588 512.812C308.993 524.151 315.56 559.691 320.665 569.529L320.671 570.922L321.323 571.449C321.49 572.832 321.36 573.456 322.323 574.498C323.471 580.664 326.957 590.987 330.725 595.982C330.895 596.997 330.8 597.19 331.501 598L332.208 599.417L332.622 600.243L333.158 601.315L333.643 602.285L334.149 603.298L334.473 603.997L334.149 603.298L333.643 602.285L333.158 601.315L332.622 600.243L332.208 599.417L331.501 598C331.371 596.888 331.503 596.909 330.725 595.982C329.981 591.99 324.501 577.755 322.323 574.498C322.26 573.269 321.837 572.539 321.323 571.449L321.396 570.233L320.665 569.529C320.464 565.076 318.246 559.548 317.116 555.139C315.607 549.115 314.26 543.052 313.075 536.956C311.544 529.303 312.08 520.095 309.588 512.812ZM818.712 574.134L819 575L819.721 577.129L820 578L820.716 580.131L820.88 580.636L820.716 580.131L820 578L819.721 577.129L819 575L818.712 574.134ZM821.212 582.134L821.5 583L821.788 583.866L821.5 583L821.212 582.134ZM335.01 605.503L335.5 606.5L336.161 607.768L336.419 607.997L336.161 607.768L335.5 606.5L335.01 605.503ZM336.747 524.974C336.744 529.611 337.822 534.662 338.547 539.261C341.773 559.716 347.02 578.947 354.859 598.125C356.342 601.753 358.078 607.168 360.747 609.971C360.934 610.713 360.953 610.932 361.5 611.5L362.208 612.917L362.622 613.743L363.131 614.762L363.39 614.997L363.131 614.762L362.622 613.743L362.208 612.917L361.5 611.5C361.21 610.432 361.446 610.948 360.747 609.971C359.371 603.55 355.064 596.651 352.715 590.396C347.65 576.977 343.744 563.149 341.039 549.063C340.321 545.28 338.182 526.74 336.747 524.974ZM236.533 613.003L236.653 614.371L237.498 614.997L236.653 614.371L236.533 613.003ZM238.008 616.503L238.5 617.5L239.208 618.917L239.483 619.497L239.208 618.917L238.5 617.5L238.008 616.503ZM240.031 621.003L240.151 622.371L241.354 623.262L241.561 624.307L242.183 625.289L242.632 626.296L243.153 627.293L243.644 628.295L244.148 629.294L244.353 629.706C244.887 631.541 245.436 632.648 246.8 634.029C246.999 635.582 247.647 636.382 248.727 637.477L249.114 638.218L249.702 639.29L250.098 639.579L250.668 640.883L251.183 641.714L251.616 642.108L252.132 643.3L252.59 643.618L253.197 644.854L254 646C254.401 646.628 254.75 647.165 255.258 647.714L255.549 648.154L256.164 649.303L256.575 649.618C256.867 650.099 257.121 650.582 257.5 651C257.819 651.486 258.134 652.056 258.514 652.495L259.144 653.209L260 654.5L260.66 655.218L261.528 656.473L262.177 657.198L262.566 657.667L263.518 658.977L264.181 659.696L264.62 660.114L265.107 660.683C265.668 662.001 266.09 662.421 267.28 663.208L267.622 663.568L268.149 664.144L268.634 664.629L269.137 665.139L269.478 665.497L269.137 665.139L268.634 664.629L268.149 664.144L267.622 663.568L267.28 663.208C266.682 661.979 266.215 661.478 265.107 660.683L264.62 660.114L264.181 659.696L263.518 658.977C263.263 658.49 262.909 658.096 262.566 657.667L262.177 657.198L261.528 656.473C261.315 656.039 260.945 655.612 260.66 655.218L260 654.5C259.788 654.054 259.426 653.617 259.144 653.209L258.514 652.495C258.245 651.945 257.863 651.49 257.5 651C257.263 650.522 256.88 650.057 256.575 649.618L256.164 649.303L255.549 648.154L255.258 647.714C254.89 647.1 254.44 646.563 254 646C253.812 645.602 253.46 645.21 253.197 644.854L252.59 643.618L252.132 643.3L251.616 642.108L251.183 641.714L250.668 640.883L250.098 639.579L249.702 639.29L249.114 638.218L248.727 637.477C248.305 636.089 247.952 634.92 246.8 634.029C246.187 632.202 245.691 631.108 244.353 629.706L244.148 629.294L243.644 628.295L243.153 627.293L242.632 626.296L242.183 625.289L241.561 624.307L241.354 623.262L240.151 622.371L240.031 621.003ZM298.002 622.503L298.5 623.5L299.208 624.917L299.622 625.743L300.158 626.815L300.649 627.782C301.293 632.382 311.094 647.153 314.867 650.007L315.509 650.985L316.175 651.701C316.639 652.691 316.574 652.822 317.531 653.469L318.176 654.199L318.573 654.662L319.091 655.196L319.722 656.234L319.998 656.416L319.722 656.234L319.091 655.196L318.573 654.662L318.176 654.199L317.531 653.469C317.136 652.394 316.997 652.405 316.175 651.701L315.509 650.985L314.867 650.007C314.435 648.921 301.188 628.228 300.649 627.782L300.158 626.815L299.622 625.743L299.208 624.917L298.5 623.5L298.002 622.503ZM239.638 455.308C239.603 455.88 239.562 456.451 239.546 457.024C239.375 463.13 239.754 469.352 239.898 475.467C240.703 509.681 245.108 542.187 254.829 575.019C258.435 587.198 262.4 599.137 267.829 610.641C270.589 616.49 273.867 624.488 278.234 629.212L278.416 629.497L278.234 629.212C276.999 624.321 269.842 612.578 267.348 606.264C259.472 585.843 253.355 564.786 249.064 543.323C245.642 526.824 242.848 509.446 241.601 492.657C240.953 483.943 241.679 462.274 239.638 455.308ZM269.502 628.503L270.185 629.254L270.407 629.997L270.185 629.254L269.502 628.503ZM278.58 630.003L278.789 630.745L279.796 631.814L280.091 632.781L280.397 632.997L280.091 632.781L279.796 631.814L278.789 630.745L278.58 630.003ZM271.079 631.503L271.282 632.262L272.299 633.308L272.584 634.288L273.194 635.245L273.56 635.656L274.183 636.852L274.649 637.761L275.196 638.524C276.757 643.13 281.122 649.839 284.844 653.019L285.248 653.616C286.528 656.612 289.257 660.598 291.912 662.514C292.127 664.029 293.577 665.47 294.725 666.403C294.896 666.543 295.082 666.664 295.26 666.794L295.409 666.925C296.047 668.359 296.479 668.846 297.745 669.777L298.073 670.097C298.511 671.168 298.797 671.543 299.757 672.193L299.998 672.405L299.757 672.193C299.358 671.184 298.9 670.783 298.073 670.097L297.745 669.777C297.084 668.368 296.662 667.845 295.409 666.925L295.26 666.794C294.622 665.25 293.436 663.27 291.912 662.514C290.187 659.349 287.953 656.009 285.248 653.616L284.844 653.019C282.664 648.217 278.702 642.452 275.196 638.524L274.649 637.761L274.183 636.852L273.56 635.656L273.194 635.245L272.584 634.288L272.299 633.308L271.282 632.262L271.079 631.503ZM731.785 633.695C731.253 634.52 731.217 634.414 731.179 635.497L731.846 634.996L731.785 633.695C735.624 626.477 737.187 616.318 739.169 608.336C743.227 591.999 745.328 575.457 747.223 558.758C750.707 529.772 752.129 500.575 751.477 471.388C750.98 445.264 748.822 419.048 746.925 392.989C744.102 354.215 740.771 315.189 734.857 276.751C734.404 277.326 734.568 278.735 734.616 279.469C735.25 289.071 736.905 298.869 738.037 308.449C739.424 320.685 740.628 332.942 741.65 345.214C744.401 372.77 746.525 400.385 748.02 428.037C750.427 467.455 751.834 507.144 747.541 546.501C745.65 563.835 743.954 581.419 740.318 598.479C738.914 605.071 737.543 611.756 735.802 618.266C734.497 623.144 732.421 628.239 731.831 633.243C731.813 633.393 731.8 633.544 731.785 633.695ZM729.5 641L729.049 641.997L729.5 641L729.788 640.134L729.5 641ZM774.262 658.463L773.891 659.217L773.61 659.497L773.891 659.217L774.262 658.463C774.373 658.336 774.493 658.216 774.596 658.082C777.277 654.616 779.116 649.181 780.584 645.065C788.967 621.58 790.261 597.456 789.578 572.779C789.377 565.543 789.285 558.058 788.26 550.884L787.646 551.012C789.525 578.303 790.164 607.506 782.931 634.122C780.705 642.314 776.39 649.947 774.358 658.055C774.324 658.191 774.294 658.327 774.262 658.463ZM590.708 678.581L590.448 678.896C586.11 684.23 582.755 690.407 578.554 695.868C568.941 708.363 554.114 719.13 538.086 720.809C519.982 722.705 503.162 713.693 489.573 702.568C474.26 690.033 460.389 674.143 448.756 658.207C444.796 652.783 441.697 646.137 437.288 641.148C433.782 637.182 429.004 634.377 425.092 630.806C417.432 623.702 410.204 616.146 403.447 608.178C404.672 617.502 406.775 626.673 407.979 636.004C410.458 655.218 415.071 709.973 408.355 726.242C408.565 711.978 409.047 698.842 407.732 684.522C405.775 694.072 403.096 702.56 397.206 710.439C397.494 722.102 399.625 733.698 401.152 745.248C403.376 762.068 405.042 779.455 409.603 795.84C421.5 800.143 433.651 803.705 445.989 806.506C451.042 807.691 469.706 810.645 473.14 812.386C477.369 814.529 481.47 820.438 484.647 823.955C470.334 795.596 460.997 765.063 452.366 734.58C450.228 727.025 446.857 717.914 446.437 710.127C459.953 747.643 469.731 787.145 487.527 823.005C490.627 829.252 494.458 834.817 497.908 840.819C492.337 836.875 486.827 832.789 481.687 828.291C477.336 824.482 473.156 819.45 468.182 816.52C462.716 813.3 454.057 812.037 447.859 810.33C435.433 806.907 422.261 803.539 410.192 799.053C413.209 810.842 416.194 822.597 420.026 834.156C445.321 855.293 486.317 873.502 519.99 870.337C543.437 868.132 567.253 855.4 586.184 841.748C590.113 838.915 594.552 835.921 597.717 832.245C602.384 826.824 608.629 806.171 610.567 798.483C598.804 801.775 587.564 807.202 575.837 810.825C570.977 812.326 560.52 814.324 556.863 817.233C554.52 819.096 552.522 821.631 550.516 823.848C544.82 830.145 538.748 836.983 531.217 841.092C535.43 834.91 546.82 817.716 552.366 813.976C556.173 811.409 568.354 809.701 573.236 808.435C586.211 805.072 598.999 800.325 611.537 795.619C622.041 769.723 629.334 741.436 633.987 713.926C634.83 708.937 636.242 703.134 635.885 698.077C635.681 695.18 634.492 692.222 633.371 689.563C628.867 678.881 623.386 668.661 619.047 657.88L617.163 694.12C616.85 701.155 616.971 708.363 616.395 715.359C616.308 716.415 616.36 717.296 615.62 718.072C608.152 706.063 617.584 637.343 617.533 618.706C609.309 639.753 603.295 661.636 595.426 682.83C583.909 713.848 569.943 743.929 555.566 773.699C551.391 782.345 543.598 800.116 537.736 806.89C539.245 801.709 542.399 796.389 544.705 791.485C548.371 783.693 551.843 775.83 555.363 767.972C564.139 748.049 572.353 727.883 579.995 707.498C583.628 697.96 587.721 688.335 590.708 678.581L590.94 678.003L590.708 678.581ZM476.743 14.3625C464.285 25.5734 457.479 65.5847 456.532 82.1634C456.238 87.3284 456.054 91.9129 459.157 96.3038C460.379 96.3201 460.706 96.3652 461.628 95.4074C463.16 93.8171 463.733 92.37 465.673 91.0605C464.485 68.7582 467.011 49.2603 472.82 27.758C473.314 25.9277 477.371 15.7337 477.241 15.1928C477.165 14.8791 476.909 14.6393 476.743 14.3625ZM500.374 30.1396C493.432 30.823 484.844 33.3046 479.794 38.4002C479.482 38.7154 479.408 38.9102 479.225 39.2676C480.244 39.2528 479.755 39.3804 480.681 38.8489C485.278 36.3252 489.765 33.9776 494.753 32.2887C497.262 31.4393 500.992 31.5513 503.119 30.2854C502.106 29.9505 501.426 30.0151 500.374 30.1396ZM502.384 47.1775C493.698 48.4656 480.244 52.062 474.876 59.7827C474.763 59.9451 474.674 60.1234 474.574 60.2937L475.042 61.0708C483.945 54.1632 492.003 51.2311 502.57 47.7393L502.561 47.2715L502.384 47.1775ZM495.377 61.1514C489.271 61.7783 484.021 63.4339 478.718 66.5755L478.43 67.118C480.62 67.1364 483.36 65.6981 485.374 64.856C491.557 62.826 497.205 61.9001 503.689 61.4897C500.96 60.8844 498.146 60.7698 495.377 61.1514ZM449.88 91.1845C416.193 93.2303 380.734 122.856 359.044 147.31C326.738 183.735 304.358 222.278 290.531 268.998C288.197 276.882 284.704 285.89 283.806 294.048L284.034 294.508C284.675 293.056 285.218 291.629 285.705 290.118C309.088 229.518 334.771 176.807 384.655 133.604C397.798 122.221 412.5 111.363 428.436 104.288C433.962 101.835 439.756 99.7886 445.676 98.529C448.616 97.9037 451.827 97.7536 454.66 96.7645C455.745 96.3856 456.494 95.8494 457.35 95.0991C457.501 94.4931 457.792 94.1671 457.356 93.6217C455.903 91.8 452.089 91.2385 449.88 91.1845ZM474.499 94.4279C549.614 115.468 601.089 161.942 648.012 222.333C655.035 231.372 661.619 240.645 668.247 249.972C673.962 258.015 679.925 266.096 684.756 274.709C687.072 278.839 690.363 287.095 693.594 290.125C689.943 280.898 685.594 271.922 681.317 262.97C658.203 214.59 631.252 180.744 588.694 147.833C567.799 131.54 544.972 117.89 520.731 107.192C506.404 101.013 490.078 95.6742 474.499 94.4279ZM452.195 102.75L452.551 102.75L452.195 102.75ZM485.691 162.25L486.069 162.25L485.691 162.25ZM500.205 178.25L500.581 178.25L500.205 178.25ZM453.489 182.815C454.169 192.916 455.593 204.2 458.166 214.003C460.47 222.779 479.382 267.918 484.385 272.418C484.494 272.516 484.622 272.59 484.741 272.676C475.874 252.88 468.638 232.763 462.146 212.064C460.36 206.482 458.685 200.865 457.12 195.216C456.041 191.299 455.266 186.434 453.489 182.815ZM274.701 198.25L275.066 198.25L274.701 198.25ZM274.209 199.75L274.566 199.75L274.209 199.75ZM287.751 204.985L288.032 205.25L287.751 204.985ZM287.243 206.486L287.519 206.75L287.243 206.486ZM432.777 214.75L433.245 214.75L432.777 214.75ZM576.603 244.75L577.061 244.75L576.603 244.75ZM444.689 264.75L445.03 264.75L444.689 264.75ZM634.661 272.455L635.245 272.75L634.661 272.455ZM734.083 272.468L734.505 272.75L734.083 272.468ZM664.173 272.75L664.541 272.75L664.173 272.75ZM484.709 273.25L485.123 273.25L484.709 273.25ZM664.702 273.75L665.057 273.75L664.702 273.75ZM485.196 274.25L485.561 274.25L485.196 274.25ZM734.324 274.469L734.745 274.75L734.324 274.469ZM665.215 274.75L665.559 274.75L665.215 274.75ZM485.692 275.25L486.065 275.25L485.692 275.25ZM476.634 276.25L477.027 276.25L476.634 276.25ZM486.188 276.25L486.517 276.25L486.188 276.25ZM660.704 281.25L661.103 281.25L660.704 281.25ZM662.183 283.75L662.579 283.75L662.183 283.75ZM455.119 294.75L455.574 294.75L455.119 294.75ZM546.136 345.25L546.745 345.25L546.136 345.25ZM721.717 351.253C710.438 360.943 702.59 378.68 699.126 392.91C696.982 401.716 696.014 410.769 694.385 419.677C692.443 430.293 690.105 440.802 688.462 451.476L691.571 446.806C696.019 438.597 694.486 434.257 695.983 425.782C697.283 418.422 699.686 411.249 701.982 404.152C707.499 387.1 712.988 373.223 728.89 363.299C727.523 358.983 726.441 353.727 722.104 351.447C721.976 351.38 721.846 351.318 721.717 351.253ZM284.99 353.798C283.676 356.143 281.873 358.926 282.589 361.718C283.616 365.717 287.816 370.431 290.143 373.914C298.178 385.944 305.179 397.303 308.403 411.622C307.067 414.895 302.898 422.424 303.948 425.755L305.329 426.943C307.372 427.334 309.503 427.627 311.494 428.223C311.493 424.568 311.457 420.977 310.832 417.366C308.624 404.624 304.622 391.86 301.254 379.362C299.665 373.464 298.564 366.957 296.318 361.285C295.557 359.361 294.632 357.776 293.128 356.333C290.761 354.063 288.135 353.778 284.99 353.798ZM281.293 365.79C277.34 383.682 270.695 417.392 280.828 433.282C287.998 444.523 300.999 455.598 309.893 465.958C315.501 472.491 320.03 480.074 326.063 486.206C329.612 489.814 333.426 492.717 337.782 495.28L339.529 495.846L339.93 495.389C339.063 488.172 334.163 475.133 331.279 468.222C329.021 467.575 326.871 466.932 324.844 465.699C314.748 459.557 300.512 441.707 294.778 431.324C291.662 425.586 289.573 419.348 288.604 412.891C287.685 407.089 288.452 401.211 288.037 395.378C287.686 390.455 286.3 385.6 285.525 380.73C284.992 377.382 285.081 373.177 283.995 370.01C283.499 368.565 282.442 366.783 281.293 365.79ZM287.234 373.857L285.742 375.276C286.019 376.578 286.839 377.475 287.461 378.612C288.09 377.305 288.434 376.734 288.171 375.244C287.907 374.838 287.571 374.194 287.234 373.857ZM295.126 386.746C290.416 395.917 289.917 410.565 293.112 420.297C298.355 436.27 313.15 451.962 327.353 460.448L328.156 460.326L328.243 458.909C327.571 456.443 326.99 453.91 326.048 451.531C313.584 443.66 301.215 430.411 296.687 416.144C298.144 410.851 300.662 406.088 303.09 401.188C301.707 396.646 298.561 390.019 295.126 386.746ZM781.756 430.449L782.245 430.75L781.756 430.449ZM782.05 432.238C782.41 432.913 782.16 432.804 782.514 432.914L782.05 432.238ZM309.584 510.968L310.008 511.25L309.584 510.968ZM336.589 523.25L337.002 523.25L336.589 523.25ZM194.582 535.469L194.999 535.75L194.582 535.469ZM194.328 537.469L194.745 537.75L194.328 537.469ZM720.234 537.75L720.629 537.75L720.234 537.75ZM193.841 538.731C192.392 553.082 189.279 580.915 192.828 594.122C193.212 584.416 192.21 574.635 192.482 564.902C192.615 560.145 195.399 541.62 193.841 538.731ZM668.566 550.822C668.877 555.376 668.987 573.007 670.76 575.772C670.644 571.1 670.776 553.477 668.566 550.822ZM822.162 585.676L822.494 586.003L822.162 585.676ZM822.66 587.454L823.245 587.75L822.66 587.454ZM823.157 589.173L823.492 589.502L823.157 589.173ZM823.669 591.182L823.997 591.506L823.669 591.182ZM824.712 594.75L825.05 594.75L824.712 594.75ZM334.669 604.75L335.127 604.75L334.669 604.75ZM234.736 608.75L235.151 608.75L234.736 608.75ZM336.651 608.75L337.085 608.75L336.651 608.75ZM235.146 609.75L235.527 609.75L235.146 609.75ZM337.166 609.75L337.575 609.75L337.166 609.75ZM337.688 610.75L338.093 610.75L337.688 610.75ZM235.774 611.25L236.245 611.25L235.774 611.25ZM338.209 611.75L338.615 611.75L338.209 611.75ZM236.212 612.25L236.57 612.25L236.212 612.25ZM338.747 612.75L339.214 612.75L338.747 612.75ZM340.125 615.25L340.52 615.25L340.125 615.25ZM237.71 615.75L238.145 615.75L237.71 615.75ZM363.647 615.75L364.062 615.75L363.647 615.75ZM695.159 615.75L695.595 615.75L695.159 615.75ZM340.709 616.25L341.108 616.25L340.709 616.25ZM364.199 616.75L364.603 616.75L364.199 616.75ZM694.668 616.75L695.093 616.75L694.668 616.75ZM295.693 617.25L296.044 617.25L295.693 617.25ZM364.759 617.75L365.245 617.75L364.759 617.75ZM694.123 617.75L694.56 617.75L694.123 617.75ZM342.177 618.75L342.576 618.75L342.177 618.75ZM365.612 619.25L366.033 619.25L365.612 619.25ZM239.715 620.25L240.16 620.25L239.715 620.25ZM297.222 620.75L297.608 620.75L297.222 620.75ZM297.673 621.75L298.069 621.75L297.673 621.75ZM267.75 625.25L268.163 625.25L267.75 625.25ZM268.247 626.25L268.651 626.25L268.247 626.25ZM268.773 627.25L269.245 627.25L268.773 627.25ZM219.421 627.28C218.968 651.86 225.355 683.598 243.152 701.861C248.563 707.413 255.31 711.404 261.124 716.481C265.515 712.88 269.814 709.167 274.016 705.346C277.649 702.11 281.254 698.805 284.465 695.14C263.79 682.703 244.213 668.771 230.791 648.223C227.932 643.846 221.659 629.787 219.421 627.28ZM270.666 630.75L271.104 630.75L270.666 630.75ZM280.712 633.75L281.106 633.75L280.712 633.75ZM730.746 636.986L731.032 637.25L730.746 636.986ZM730.255 638.484L730.55 638.75L730.255 638.484ZM728.749 642.985L729.028 643.25L728.749 642.985ZM728.243 644.486L728.516 644.75L728.243 644.486ZM773.249 660.25L773.687 660.25L773.249 660.25ZM779.304 674.992C774.002 680.335 768.717 686.006 762.828 690.714C760.217 692.801 753.278 696.236 751.714 698.7C752.263 699.44 752.773 700.061 753.465 700.671C754.613 701.456 755.396 702.26 756.803 702.401C761.08 699.499 778.302 680.73 779.263 675.87C779.32 675.582 779.29 675.285 779.304 674.992ZM218.074 759.96C198.169 767.655 179.005 777.224 159.811 786.511C143.027 794.631 125.536 802.641 109.638 812.403C102.244 816.943 94.6763 821.664 87.6592 826.764C82.0115 830.869 76.6236 835.327 70.9692 839.427C81.2907 858.028 89.1733 877.28 97.9926 896.562C100.704 902.737 103.003 909.137 105.784 915.261C110.83 911.628 115.18 906.926 119.514 902.492C130.739 891.01 140.94 878.62 152.09 867.079C172.946 845.493 200.354 827.892 226.083 812.59C223.027 803.603 220.372 794.605 219.452 785.112C219.011 780.56 219.673 762.826 218.669 760.173L218.074 759.96Z"/><path d="M353.522 79.3888L353.724 79.1206L353.522 79.3888Z"/><path d="M375.065 100.377L375.313 100.127L375.065 100.377Z"/><path d="M661.445 107.057L661.035 106.6L661.445 107.057Z"/><path d="M661.445 107.057L662.232 108.191L661.445 107.057Z"/><path d="M662.232 108.191L662.658 108.557L662.232 108.191Z"/><path d="M662.658 108.557L663.168 109.126L662.658 108.557Z"/><path d="M663.168 109.126L663.487 109.512L663.168 109.126Z"/><path d="M663.487 109.512L663.737 109.808L663.487 109.512Z"/><path d="M458.263 353.927L458.673 354.65L458.263 353.927Z"/><path d="M458.673 354.65L458.962 354.937L458.673 354.65Z"/><path d="M456.797 401.578C444.516 391.593 422.546 383.303 406.993 380.518C398.648 379.041 390.157 378.567 381.7 379.106C376.568 379.41 360.896 382.121 357.883 381.729C367.091 379.171 376.362 377.829 385.882 377.206C400.158 376.158 419.516 379.892 433.015 384.575C451.857 391.111 464.324 400.923 473.049 418.825C467.562 413.057 462.738 406.938 456.797 401.578Z"/><path d="M563.723 407.154C573.303 392.797 596.978 381.166 613.463 377.928C626.858 375.296 639.601 378.928 652.841 380.32C651.908 381.01 650.86 381.493 649.688 381.563C646.628 381.748 643.236 381.045 640.197 380.671C631.851 379.644 623.494 378.375 615.1 379.567C600.675 381.614 586.058 389.556 574.603 398.279C570.906 401.094 567.562 404.564 563.723 407.154Z"/><path d="M357.961 402.195C349.964 394.939 342.218 391.113 335.884 381.858C341.808 384.657 346.592 388.631 353.25 390.001C361.059 391.608 368.836 389.952 376.502 388.432C396.449 384.476 414.15 384.572 432.314 395.081C441.127 400.18 459.035 418.336 461.247 427.993C461.595 429.51 461.527 431.198 460.563 432.495C459.719 433.63 458.374 434.25 457.029 434.545C453.81 435.251 450.312 434.67 447.038 434.969C442.795 435.356 438.51 436.167 434.277 436.723C437.247 435.754 440.202 434.983 443.277 434.431C446.974 433.768 454.551 433.762 457.509 432.17C457.679 430.655 457.191 430.222 456.455 428.919C451.76 422.929 446.891 417.257 441.491 411.883C439.944 415.282 438.317 418.494 435.736 421.237C430.737 426.55 423.748 428.947 416.592 429.167C410.197 429.362 403.849 428.006 399.159 423.36C392.919 417.179 391.387 408.607 391.377 400.22C385.782 401.648 375.159 406.727 370.333 406.939C369.837 405.871 370.161 406.325 369.401 405.55C366.02 406.39 362.449 407.435 358.958 407.629C352.385 407.994 347.806 404.695 343.178 400.53C348.43 402.113 352.538 402.61 357.961 402.195ZM399.131 399.137L397.157 399.685C396.913 400.276 396.762 400.908 396.472 401.479C396.382 401.656 395.779 402.273 395.662 402.4C394.916 403.216 394.553 403.817 394.217 404.889C394.496 405.958 394.64 406.428 395.783 406.904C398.493 408.032 398.16 405.407 401.45 407.968C403.51 407.795 406.307 407.828 407.871 406.274C408.471 405.678 408.436 405.024 408.601 404.233C408.163 402.438 407.405 401.1 406.469 399.516C404.001 399.258 401.619 399.02 399.131 399.137ZM400.32 412.774C401.865 416.617 404.376 419.811 408.283 421.455C412.767 423.342 417.813 422.794 422.166 420.808C424.19 419.884 425.856 418.703 427.589 417.327C427.46 415.784 427.637 415.486 426.491 414.37C421.02 413.257 416.084 418.566 410.751 417.554C406.843 416.813 403.877 414.244 400.32 412.774Z"/><path d="M657.747 424.583C655.241 419.583 652.574 417.666 648.019 414.662C650.013 417.368 651.955 420.113 653.844 422.894C652.367 421.492 651.021 419.912 649.042 419.276L648.298 419.633C648.542 422.958 650.729 425.873 650.858 429.134C648.82 427.975 647.464 425.455 645.265 424.86L644.247 425.422C644.328 428.465 647.451 429.625 648.756 432.126C646.139 430.889 643.54 429.606 640.842 428.556C644.048 432.572 645.662 435.901 647.015 440.856C645.391 437.997 643.798 435.17 641.868 432.502C640.681 432.093 639.598 431.744 638.557 431.015C637.046 431.42 636.235 431.897 634.972 432.826L635.181 433.297C636.492 433.561 637.379 433.469 638.302 434.49C638.004 435.306 637.695 435.767 637.115 436.412C636.819 438.333 637.424 440.155 637.871 442.014C636.683 439.405 635.813 435.23 632.991 434.107L632.264 434.665C632.279 435.923 632.573 436.772 632.97 437.942C633.531 439.596 633.608 440.633 633.267 442.327C632.73 440.352 632.329 437.265 630.443 436.127C629.874 435.784 629.997 435.921 629.236 436.08C629.244 437.085 629.413 437.853 629.7 438.815C628.589 437.904 628.015 437.002 626.534 437.03C625.794 438.057 625.956 439.071 625.991 440.271L625.462 440.44C625.002 439.798 624.333 438.407 623.547 438.31C619.469 437.804 610.066 440.332 604.759 440.503C613.028 438.45 621.465 436.081 628.856 431.725C640.329 424.964 648.032 413.917 651.325 401.157C645.235 398.899 639.266 396.621 632.946 395.075C632.935 397.882 632.915 400.733 632.692 403.532C632.093 411.062 629.132 418.058 623.19 422.923C617.679 427.436 610.409 429.783 603.303 428.8C597.448 427.989 591.933 425.038 588.404 420.235C585.433 416.191 584.163 411.35 584.909 406.4C580.915 410.385 561.201 427.513 560.699 431.407C567.208 431.967 575.346 431.691 581.495 434.216C578.083 434.221 562.283 433.547 559.297 432.495C559.107 431.99 558.945 431.657 558.92 431.086C558.64 424.866 570.707 409.498 575.153 405.154C595.272 385.496 613.545 385.064 639.774 383.808C645.715 383.523 651.641 382.25 657.583 382.315C656.491 383.541 652.601 383.547 650.825 384.622L651.069 385.01C659.365 383.885 667.879 388.71 676.401 388.51L677.216 388.484C674.15 391.708 663.464 399.138 662.378 400.75C661.852 401.531 661.986 401.145 662.184 402.195L663.465 402.876C661.462 402.965 659.366 402.738 657.509 403.592C657.786 405.443 662.993 405.242 663.973 406.864C661.314 407.047 659.683 406.562 657.402 405.171C656.375 404.545 655.517 404.03 654.362 403.649L653.664 404.495C652.647 410.012 656.995 410.281 658.583 414.754L658.388 415.133C656.745 413.548 654.59 410.96 652.283 410.627C651.831 411.976 652.214 412.072 652.784 413.31C651.685 413.163 651.602 412.923 650.643 413.581C650.732 415.691 656.109 417.124 657.62 423.98L657.747 424.583ZM655.503 402.511L656.472 403.017L656.915 403.411L656.472 403.017L655.503 402.511ZM593.845 401.452C591.626 403.544 590.887 406.24 590.79 409.273C590.686 412.552 592.545 415.935 594.892 418.122C597.379 420.44 601.974 423.002 605.476 422.753C605.954 422.719 606.159 422.649 606.656 422.537L607.259 421.7C607.034 420.374 606.744 419.022 606.607 417.686C603.333 416.921 600.604 414.677 597.313 414.694C595.814 414.702 594.657 414.37 593.583 413.293C593.241 412.95 593.16 412.687 592.981 412.28C594.736 408.936 599.879 410.115 601.025 405.901C600.481 404.264 599.514 402.736 597.901 401.94C596.709 401.352 595.146 401.469 593.845 401.452ZM646.022 422.276C647.096 424.093 648.193 426.55 650.342 427.258C649.216 425.26 648.364 423.04 646.022 422.276Z"/><path d="M421 387L420.002 386.597L421 387Z"/><path d="M585.952 386.845L586.453 386.578L585.952 386.845Z"/><path d="M421 387L422.004 387.307L421 387Z"/><path d="M538.732 428.423C539.253 427.261 539.83 426.164 540.492 425.077C550.85 408.07 565.962 391.804 585.952 386.845C585.751 387.008 585.551 387.174 585.347 387.334C583 389.17 579.732 390.309 577.103 391.754C571.419 394.88 566.292 398.829 561.532 403.221C557.105 407.306 552.815 411.576 548.958 416.207C545.707 420.109 542.607 425.209 538.732 428.423Z"/><path d="M422.004 387.307C434.73 389.819 449.02 398.518 456.332 409.285C457.603 411.156 458.758 412.991 459.096 415.26L458.546 414.676C451.188 406.712 446.033 398.625 435.819 393.736C431.666 391.748 425.532 390.116 422.004 387.307Z"/><path d="M563.358 407.569L563.723 407.154L563.358 407.569Z"/><path d="M563.003 407.912L563.358 407.569L563.003 407.912Z"/><path d="M362.888 414.393C361.478 414.509 360.195 414.749 358.867 414.138C359.89 412.828 362.307 412.188 363.825 411.562L364.605 411.739L365.492 413.25L365.292 414.177L365.792 414.55C364.932 414.305 364.227 413.996 363.327 414.225C363.175 414.264 363.034 414.337 362.888 414.393Z"/><path d="M407.445 439.138C396.104 437.82 380.564 434.884 372.919 425.552C370.905 423.094 368.961 419.635 368.574 416.453C371.507 418.151 374.118 420.987 376.817 423.107C385.02 429.548 391.563 432.794 401.328 436.501C403.31 437.253 405.735 437.896 407.445 439.138Z"/><path d="M358.515 422.684C360.461 420.753 362.589 419.582 365.403 419.639C366.683 419.665 367.137 419.805 368.025 420.71C367.823 421.971 367.741 421.954 366.648 422.707C366.222 423.001 365.778 423.267 365.338 423.54L365.079 423.873L365.338 423.54C367.003 423.314 368.829 422.96 370.241 424.133C371.075 424.827 371.315 425.195 371.413 426.271C371.425 426.407 371.4 426.544 371.394 426.681L370.502 426.916L371.394 426.681C373.828 426.856 380.943 434.143 384.084 435.92C391.511 440.12 399.963 442.6 408.081 445.104C402.354 444.997 397.758 443.629 392.32 441.905L392.002 441.642L392.32 441.905C394.194 443.052 396.528 443.81 398.217 445.138C395.524 444.774 392.344 442.525 389.981 442.558C388.703 442.576 388.827 443.307 387.471 442.645L387.873 440.949L387.363 440.205L386.548 440.115L386.258 441.797C385.912 440.918 385.627 440.307 384.998 439.597C384.33 439.803 383.689 440.016 383.042 440.283C382.861 440.358 382.683 440.437 382.503 440.514L381.944 439.967L382.267 438.767L381.672 438.345C380.895 438.584 380.437 438.68 379.604 438.709L379.306 437.333C377.141 436.691 375.554 439.216 373.15 438.8C373.533 437.452 375.798 436.046 376.932 435.114C376.765 435.001 376.607 434.873 376.43 434.775C374.684 433.815 372.827 434.2 370.972 434.577L370.389 434.701C370.596 432.945 371.044 431.551 370.302 429.92C369.464 429.657 369.258 429.688 368.412 429.987C366.82 430.548 365.097 430.647 363.426 430.831L363.188 430.323C363.473 430.077 363.754 429.828 364.033 429.576C365.216 428.51 366.544 427.438 366.628 425.805L365.562 425.166C363.191 425.194 360.838 426.663 358.748 427.701C360.075 425.834 361.903 424.261 363.37 422.466L363.246 421.75C361.526 421.493 360.111 422.134 358.515 422.684Z"/><path d="M357.845 423.175L358.515 422.684L357.845 423.175Z"/><path d="M357.534 423.384L357.845 423.175L357.534 423.384Z"/><path d="M657.747 424.583L657.871 425.088L657.747 424.583Z"/><path d="M704.582 426.998L704.824 426.335L704.582 426.998Z"/><path d="M358.385 428.068L358.748 427.701L358.385 428.068Z"/><path d="M358.002 428.379L358.385 428.068L358.002 428.379Z"/><path d="M538.503 428.865L538.732 428.423L538.503 428.865Z"/><path d="M648.756 432.126L648.997 432.379L648.756 432.126Z"/><path d="M650.794 434.005L650.303 433.587L650.794 434.005Z"/><path d="M640.688 440.531C639.968 439.9 639.885 438.068 639.619 437.068C639.389 436.204 639.339 436.12 639.555 435.207L640.053 435.245C640.142 435.359 640.246 435.463 640.318 435.587C641.057 436.86 640.971 439.14 640.688 440.531Z"/><path d="M407.445 439.138L407.958 439.415L407.445 439.138Z"/><path d="M604.503 440.874L604.759 440.503L604.503 440.874Z"/><path d="M624.145 444.25L623.661 443.978L624.145 444.25Z"/><path d="M398.217 445.138L398.498 445.374L398.217 445.138Z"/><path d="M534.319 510.051L534.065 509.558L534.319 510.051Z"/><path d="M534.319 510.051C537.728 514.204 541.599 521.298 541.047 526.809C540.729 529.977 538.801 532.446 536.339 534.33C534.533 535.712 530.971 538.01 528.652 538.084L527.58 537.361C513.41 541.963 511.498 544.041 496.701 539.084C492.659 537.73 488.455 536.566 484.632 534.657C481.362 533.025 478.254 530.716 476.99 527.148C475.564 523.124 476.857 518.681 478.721 515.017C479.336 513.806 480.015 512.628 480.754 511.487L481.321 510.801C480.833 515.634 476.888 523.325 480.493 527.506C482.072 529.338 484.859 531.222 487.324 531.473C488.132 531.556 488.617 531.336 489.311 530.984C490.129 529.361 488.685 528.456 489.469 527.133C491.905 527.573 494.048 529.529 496.058 530.888C501.17 534.344 508.167 536.535 514.132 534.282C518.654 532.575 523.986 527.137 528.134 526.304C528.369 527.454 528.057 527.721 527.448 528.727C527.213 529.116 526.876 529.56 526.601 529.933C529.719 529.823 534.471 530.261 536.664 527.52C537.971 525.886 538.02 524.111 537.68 522.135C536.973 518.021 535.016 514.171 534.319 510.051Z"/><path d="M504.999 547.785L505.374 547.503L504.999 547.785Z"/><path d="M504.988 560.458C504.095 559.213 503.883 557.829 503.694 556.338C503.358 553.677 503.334 550.009 504.999 547.785C505.061 552.009 505.058 556.234 504.988 560.458Z"/><path d="M517.878 559.126C516.255 557.291 516.946 550.883 516.967 548.284C518.466 551.821 518.216 555.407 517.878 559.126Z"/><path d="M504.988 560.458L505.744 561.16L504.988 560.458Z"/><path d="M505.744 561.16L505.894 561.483L505.744 561.16Z"/><path d="M510.623 563.25L509.636 563.25C509.922 563.086 510.295 563.223 510.623 563.25Z"/><path d="M527.035 593.938L525.974 594.372C527.479 598.561 530.784 602.75 531.737 606.975C531.632 606.865 531.525 606.757 531.421 606.646C528.282 603.29 527.258 598.632 524.478 594.932L521.97 595.343L521.651 595.902C524.023 600.46 526.631 605.507 526.544 610.804C526.484 610.681 526.421 610.559 526.362 610.435C524.801 607.144 524.262 600.117 521.704 597.797C521.078 599.83 524.486 609.514 525.073 612.326C522.273 609.422 520.94 600.383 519.869 596.21L519.307 596.027C518.019 598.594 522.081 608.574 522.843 611.706L522.468 612.094C519.543 608.885 519.91 600.871 517.098 597.069C515.364 599.579 516.823 604.823 517.179 607.705L516.917 607.151C515.219 603.48 515.676 600.735 515.032 596.908L514.578 596.993C513.749 600.612 514.466 605.829 512.645 609.002L511.904 608.911C510.692 606.843 510.681 604.245 510.551 601.897C509.693 606.094 509.69 610.626 509.418 614.903L508.746 615.093C507.167 612.133 508.948 606.746 508.713 603.377C506.95 605.528 507.885 614.275 506.586 614.924C505.462 611.997 503.384 600.847 504.254 598.19C504.316 598.001 504.858 596.936 504.902 596.848L504.69 596.336C502.349 600.071 504.468 608.403 502.596 613.529C501.805 612.092 502.227 598.517 502.652 596.142L502.146 596.305C501.356 601.571 499.536 606.716 499.128 612.002L498.88 614.983L498.559 614.983C497.881 611.81 498.154 608.656 498.961 605.541C499.775 602.395 499.792 599.121 500.725 595.989L500.18 595.248C499.6 597.107 498.544 603.492 497.346 604.645C496.999 601.44 497.615 598.009 499.279 595.222L498.816 594.857C495.858 598.362 497.343 603.999 493.804 607.817C493.721 603.6 496.133 598.066 497.529 594.1L497.518 594.002C495.834 593.084 493.779 591.856 491.87 591.56C483.99 590.339 469.268 595.918 462.182 592.039C461.529 590.966 461.43 590.99 461.665 589.773C464.658 586.538 470.969 587.06 474.919 585.048C480.842 582.033 487.715 575.942 493.706 574.022C498.006 572.645 502.486 576.198 506.831 576.201C513.493 576.205 520.063 573.237 526.743 572.617C532.943 575.543 538.18 580.346 544.354 583.487C548.004 585.343 561.157 589.281 562.512 591.488C562.442 592.519 562.673 592.393 561.976 592.969C557.347 596.787 539.239 591.155 532.741 590.949C530.832 591.859 528.742 592.684 527.035 593.938ZM522.924 577.657C513.77 583.567 504.557 582.588 494.251 582.777C491.254 584.707 488.281 586.713 485.144 588.409C489.395 587.446 493.686 586.91 498.023 586.506C507.632 587.307 516.436 585.483 525.949 585.019C529.081 584.866 532.089 585.221 535.206 585.345L535.568 584.972C534.993 583.034 533.916 582.151 532.202 581.227C529.281 579.653 525.93 579.033 522.924 577.657ZM489.417 579.014C482.674 582.11 476.868 586.11 469.851 588.831C476.157 587.95 482.005 586.848 487.777 584.053C489.446 582.612 491.549 580.195 493.908 580.227C494.061 580.229 494.213 580.259 494.366 580.275C494.061 580.41 493.754 580.54 493.452 580.681C492.108 581.307 491.164 582.276 490.132 583.31C493.47 582.911 496.776 582.227 500.145 582.191L500.492 581.672C499.202 579.984 495.673 579.004 493.494 578.839C492.126 578.736 490.777 578.893 489.417 579.014ZM510.429 597.288L510.622 597.863L510.429 597.288ZM512.887 596.251C512.008 597.782 511.556 598.894 512.056 600.662C512.231 601.282 512.453 601.888 512.676 602.492C513.084 600.278 513.986 598.262 512.887 596.251ZM506.303 597.625L506.726 598.041L506.303 597.625ZM506.275 603.974L506.546 604.129L506.275 603.974Z"/><path d="M515.005 584.75L514.612 584.452L515.005 584.75Z"/><path d="M517.745 584.75L517.353 584.465L517.745 584.75Z"/><path d="M535.678 605.998C533.037 602.886 530.226 596.783 528.817 592.93C532.104 595.793 534.731 601.799 535.678 605.998Z"/><path d="M531.739 594.28L531.533 593.503L531.739 594.28Z"/><path d="M527.035 593.938C530.172 596.044 533.232 603.793 534.2 607.463C531.156 604.623 528.613 597.823 527.035 593.938Z"/><path d="M531.739 594.28L532.817 595.3L531.739 594.28Z"/><path d="M494.486 599.776C494.392 599.593 494.28 599.419 494.203 599.228C493.702 597.985 494.638 596.387 495.113 595.242L495.486 595.35C495.989 596.388 494.879 598.618 494.486 599.776Z"/><path d="M532.817 595.3L533.077 596.292L532.817 595.3Z"/><path d="M528.579 610.825C526.338 606.583 525.644 601.457 523.601 596.984C523.305 596.337 523.351 596.617 523.381 596.029L524.212 595.978C526.831 599.767 528.499 606.199 528.579 610.825Z"/><path d="M533.077 596.292L533.698 597.277L533.077 596.292Z"/><path d="M533.698 597.277L533.951 597.497L533.698 597.277Z"/><path d="M493.5 601L493.998 600.003L493.5 601Z"/><path d="M493.002 601.997L493.5 601L493.002 601.997Z"/><path d="M492.5 603.5L492.998 602.503L492.5 603.5Z"/><path d="M518.792 604.781L518.129 604.909L518.045 603.724L518.559 603.754L518.792 604.781Z"/><path d="M491.792 604.917L492.5 603.5L491.792 604.917Z"/><path d="M491.378 605.743L491.792 604.917L491.378 605.743Z"/><path d="M491.003 605.997L491.378 605.743L491.003 605.997Z"/><path d="M535.678 605.998L535.997 606.497L535.678 605.998Z"/><path d="M531.737 606.975C532.262 607.788 532.147 607.403 532.253 608.062C531.602 607.388 531.724 607.77 531.737 606.975Z"/><path d="M517.179 607.705C518.338 609.244 518.135 610.884 518.023 612.697C517.303 610.963 516.531 609.599 517.179 607.705Z"/><path d="M519.745 607.75L519.211 607.48L519.745 607.75Z"/><path d="M530.5 609C530.178 608.479 529.887 608.101 529.768 607.493C530.552 608.145 530.372 608.073 530.5 609Z"/><path d="M534.2 607.463L534.462 607.997L534.2 607.463Z"/><path d="M477.64 609.548C485.284 614.233 495.696 618.044 504.743 618.38L505.35 617.464C506.97 617.965 508.596 618.467 510.243 618.87C525.348 622.566 535.614 614.556 547.834 607.007L547.974 607.857C547.066 610.633 545.397 613.095 543.297 615.119C535.218 622.908 524.46 626.716 513.364 626.564C500.921 626.394 489.625 623.014 480.805 613.994C479.703 612.547 478.683 611.038 477.64 609.548Z"/><path d="M493.524 607.997L493.804 607.817L493.524 607.997Z"/><path d="M515.349 608.868L514.992 608.828L514.72 608.261L515.256 608.137L515.349 608.868Z"/><path d="M500.594 610.466L499.972 610.117L500.315 609.353L501.048 609.526L500.594 610.466Z"/><path d="M510.989 610.267L510.5 610.185L510.489 609.325L510.825 609.399L510.989 610.267Z"/><path d="M530.5 609L531.158 610.806L530.5 609Z"/><path d="M520.499 611.509L520.172 611.189L520.499 611.509Z"/><path d="M526.544 610.804L526.905 610.997L526.544 610.804Z"/><path d="M528.579 610.825L528.935 610.997L528.579 610.825Z"/><path d="M531.158 610.806L531.446 610.997L531.158 610.806Z"/><path d="M515.745 611.75L515.221 611.479L515.745 611.75Z"/><path d="M511.729 613.221L510.904 613.398L511.044 612.3L511.561 612.449L511.729 613.221Z"/><path d="M525.073 612.326L525.429 612.497L525.073 612.326Z"/><path d="M524.631 614.31C524.144 614.54 524.486 614.414 523.55 614.46L523.201 613.135C523.8 613.255 524.204 613.883 524.631 614.31Z"/><path d="M528.759 613.518L528.271 613.098L528.759 613.518Z"/><path d="M530.626 613.502L530.47 613.195L530.626 613.502Z"/><path d="M520.005 614.398L519.8 614.35L519.557 613.744L520.005 614.398Z"/><path d="M525.781 613.754L525.564 613.003L525.781 613.754Z"/><path d="M525.781 613.754L526.769 614.092L525.781 613.754Z"/><path d="M526.769 614.092L526.912 614.497L526.769 614.092Z"/><path d="M530.245 615.75L529.699 615.474L530.245 615.75Z"/><path d="M446.437 710.127L446.113 709.503L446.437 710.127Z"/><path d="M208.174 748.137L208.498 748.406L208.174 748.137Z"/><path d="M209.488 749L209.002 748.612L209.488 749Z"/><path d="M209.488 749L209.998 749.379L209.488 749Z"/><path d="M537.348 807.678L537.736 806.89L537.348 807.678Z"/><path d="M537.104 807.997L537.348 807.678L537.104 807.997Z"/></svg>