<?xml version="1.0" encoding="utf-8" ?><svg xmlns="http://www.w3.org/2000/svg" xmlns:xlink="http://www.w3.org/1999/xlink" width="1024" height="1024" viewBox="0 0 1024 1024"><path fill="white" d="M0 0L0 1024L1024 1024L1024 0L0 0Z"/><path d="M514.083 0L544.343 0C558.76 2.79973 573.062 3.93619 587.321 7.88577C641.617 22.9253 690.384 59.3958 721.766 106.004C789.512 206.622 775.629 333.666 785.829 448.673C790.073 496.535 798.996 545.283 818.015 589.616C831.806 621.762 850.759 651.359 875.847 675.891C896.697 696.28 923.848 717.124 953.061 722.85C958.088 723.835 962.897 723.992 967.993 723.585C940.126 737.394 896.743 728.907 868.199 719.265C856.542 715.336 845.201 710.525 834.275 704.872C849.4 721.247 871.641 733.476 893.008 739.51C899.877 741.45 906.826 742.373 913.76 743.934C895.899 747.531 878.529 749.465 860.332 746.97C882.727 756.994 908.708 767.593 924.703 786.935C931.557 795.224 936.905 805.267 941.705 814.871C949.461 830.757 956.47 846.996 962.709 863.535C976.614 899.943 988.018 936.835 999.033 974.195C1003.92 990.763 1008.14 1007.57 1013.48 1024L729.747 1024C758.081 974.704 781.695 923.097 795.656 867.802C799.312 853.321 801.823 838.548 804.647 823.886C797.818 821.947 791.69 818.765 785.377 815.58C782.969 822.649 781.714 830.357 779.928 837.625C777.972 845.581 775.414 853.445 772.979 861.267C766.026 883.604 758.362 905.731 748.566 927.007C732.406 962.104 709.979 994.881 684.729 1024L672.267 1024C679.558 1014.85 687.736 1006.42 694.808 997.077C710.43 976.439 725.468 954.482 737.819 931.734C756.653 897.042 772.905 850.874 778.749 811.91C771.595 808.392 765.131 804.491 758.626 799.885C742.254 809.631 731.181 813.241 713.252 818.97C723.348 823.614 733.926 826.981 744.443 830.509C749.993 832.37 756.807 833.935 761.769 837.056C761.957 837.793 761.989 837.773 762.004 838.671C762.068 842.619 758.393 851.535 757.109 855.767C742.729 903.166 714.363 950.048 685.787 990.164C677.526 1001.76 669.4 1013.35 659.917 1024L650.976 1024C660.395 1010.42 670.381 997.24 679.789 983.658C700.9 953.181 720.818 920.907 736.126 887.104C741.568 875.088 746.805 863.188 749.879 850.31C743.704 847.676 736.985 846.101 730.624 843.936C715.94 838.961 701.362 833.683 686.898 828.103C682.045 826.176 657.224 815.107 654.402 814.793C653.381 815.918 653.512 817.564 653.316 819.055C653.451 819.401 653.482 819.81 653.721 820.095C655.642 822.376 725.111 851.322 735.511 858.573C735.674 858.687 735.834 858.807 735.996 858.923C734.65 867.66 729.362 877.077 725.501 884.988C706.195 923.611 684.278 960.873 659.903 996.515C653.309 1006.05 645.662 1014.68 638.802 1024L608.812 1024C615.416 1005.93 620.911 987.467 625.267 968.725C635.706 922.944 641.908 876.025 647.679 829.474C651.389 799.548 656.115 766.871 655.435 736.748C655.178 725.398 653.839 713.162 649.753 702.506C647.867 740.989 637.09 772.689 625.692 808.936C621.593 821.973 617.269 834.955 613.337 848.042C612.232 851.719 611.624 855.552 610.506 859.201C610.121 860.457 609.83 861.004 608.708 861.667C607.047 860.417 606.29 858.266 605.595 856.371C603.724 851.269 602.672 845.784 601.234 840.542C598.651 831.132 595.561 821.848 591.464 812.98C585.51 818.043 580.314 824.616 575.06 830.422C578.187 817.538 576.914 811.967 586.439 801.257C585.5 798.872 584.385 796.55 583.326 794.217C580.872 796.685 579.067 801.03 576.405 802.859C576.254 801.949 576.12 800.998 575.756 800.141C574.857 798.023 559.714 783.115 558.327 782.595L557.209 783.149C556.53 784.25 556.344 784.31 556.526 785.568C557.911 787.361 560.304 787.827 562.157 789.058C567.176 792.393 574.142 799.937 574.914 806.064C575.416 810.038 567.47 853.573 566.145 861.271C565.779 863.396 565.041 873.425 564.66 874.384C563.964 876.134 561.593 875.17 560.382 876.692C560.486 880.588 569.012 901.595 570.878 907.039C572.762 912.695 574.494 918.4 576.07 924.149C585.346 956.782 594.035 990.553 599.648 1024L523.825 1024C518.459 1018.03 513.516 1011.93 508.927 1005.33C511.085 996.416 512.444 987.193 514.091 978.16C516.718 964.283 519.137 950.368 521.349 936.419C523.269 923.185 525.026 909.928 526.62 896.65C527.235 891.347 527.37 885.915 528.153 880.649C528.341 879.388 528.623 878.449 529.222 877.328C530.194 876.623 530.627 876.298 531.875 876.197C534.341 875.999 537.023 876.695 539.51 876.808C542.463 876.941 545.436 876.657 548.385 876.888C551.137 877.103 554.644 878.037 557.343 877.4C558.488 877.129 558.566 876.927 559.134 875.98L558.85 874.885C554.676 871.98 540.492 872.939 535.013 873.216C532.476 873.345 529.362 873.13 527.583 875.108L527.056 875.005L526.203 873.73C526.288 873.394 526.365 873.057 526.435 872.717C526.6 871.876 526.755 870.986 526.502 870.143C525.302 866.16 521.782 861.484 519.665 857.867C513.783 847.817 508.07 837.623 501.487 828.01C497.176 839.776 493.517 852.207 490.696 864.41C489.792 868.321 489.743 876.049 487.599 879.188L486.717 879.289C486.118 878.82 485.669 878.38 485.303 877.703C478.348 864.82 472.22 851.887 464.474 839.407C455.669 825.22 445.34 811.983 435.646 798.396C408.394 760.198 383.691 722.745 368.259 677.989C365.11 668.857 356.89 647.055 361.437 638.388C362.785 635.82 364.141 635.143 366.869 634.346C371.472 628.773 375.621 622.812 379.575 616.767C373.037 618.137 365.68 619.182 359.576 621.948C356.808 623.202 354.488 624.816 352.482 627.114C349.905 630.065 348.053 633.798 346.044 637.15C342.022 643.86 337.863 650.54 332.566 656.337C325.501 664.069 316.288 668.53 308.111 674.812C308.541 678.928 309.469 682.864 310.596 686.839C322.972 677.407 334.025 667.851 342.13 654.304C346.372 647.214 349.946 639.396 355.446 633.171C355.421 641.771 355.858 650.193 357.061 658.711C362.805 699.381 378.074 747.66 393.689 785.608C398.586 797.506 403.461 809.319 410.22 820.31C412.211 823.546 415.317 824.932 417.693 827.758C418.057 829.441 417.518 829.839 416.719 831.317C417.047 835.73 424.54 849.912 426.777 855.135C447.159 902.735 471.797 957.11 499.697 1000.81C504.768 1008.76 510.419 1016.35 515.922 1024L476.769 1024C469.408 1019.1 461.608 1014.87 454.296 1009.89C421.51 987.546 396.055 966.032 368.609 937.388C359.597 927.983 348.667 917.145 343.266 905.216C350.467 897.78 359.681 891.757 367.892 885.47C384.921 872.431 402.321 859.424 417.711 844.443C416.399 840.734 414.562 837.458 412.433 834.169C402.3 841.377 393.311 850.391 383.487 858.036C372.829 866.331 361.957 874.387 351.208 882.568C345.352 887.025 338.864 891.389 333.752 896.698C331.635 898.896 331.017 901.245 330.272 904.098C330.299 904.153 330.327 904.207 330.352 904.263C334.154 912.381 341.511 920.096 347.258 926.947C368.331 952.072 392.419 976.402 417.626 997.476C428.693 1006.73 440.473 1015.29 451.975 1024L438.525 1024C433.555 1020.94 428.944 1017.07 424.299 1013.53C410.934 1003.33 398.77 992.989 386.558 981.445C372.114 967.792 357.737 954.027 344.498 939.176C317.481 908.868 296.784 875.538 278.682 839.363C272.858 827.725 266.482 816.029 262.649 803.552C259.914 800.984 257.3 798.552 254.131 796.52C257.031 804.27 261.513 810.69 265.108 818.043C259.908 814.848 255.735 810.306 251.467 805.999C256.602 818.543 263.317 830.863 269.427 842.975C278.414 860.793 287.412 879.001 298.229 895.791C306.818 909.123 316.844 921.383 326.939 933.585C337.261 946.06 347.846 958.59 358.963 970.364C377.104 989.577 397.427 1007.37 417.927 1024L400.935 1024C385.533 1012.27 371.882 997.73 358.434 983.844C336.633 961.331 315.699 936.573 297.993 910.654C277.269 880.318 259.696 847.066 244.185 813.797C239.809 804.411 236.714 794.541 232.432 785.152C228.605 782.318 224.07 780.09 219.987 777.613C211.211 772.291 203.394 766.521 195.957 759.436C203.171 780.387 209.067 801.799 217.004 822.507C246.229 898.756 291.042 969.274 352.059 1024L9.30325 1024C17.8852 966.544 24.4239 908.048 41.7735 852.379C46.617 836.838 52.947 820.313 63.0536 807.441C80.8771 784.741 148.888 746.081 177.09 731.268C175.883 726.541 174.084 721.921 172.669 717.246C169.973 708.459 167.927 699.484 166.549 690.396C160.282 647.429 169.609 606.089 176.255 563.813C184.613 510.651 193.612 457.107 206.786 404.904C211.389 386.665 218.219 368.997 223.148 350.83C241.727 282.345 261.701 213.367 295.904 150.765C303.554 136.764 311.387 123.333 320.946 110.535C358.807 59.8504 410.521 19.6176 473.044 5.45448C487.063 2.27873 499.689 2.14651 513.59 0.0766908L514.083 0ZM642.101 56.0025L642.343 56.6975L643.082 56.9252C643.172 57.0565 643.261 57.1891 643.353 57.3193C647.649 63.4083 653.579 68.6567 658.323 74.457C670.385 89.2066 680.376 104.899 689.38 121.678C692.232 126.991 695.51 132.566 697.179 138.377C689.251 129.266 684.287 117.074 675.321 108.791L675.116 108.502L675.321 108.791C676.793 113.047 679.5 117.155 681.655 121.138C686.429 129.966 693.976 144.002 695.135 153.94C692.451 150.407 690.627 145.777 688.694 141.803C685.03 134.268 681.078 126.39 675.847 119.793L675.598 119.502L675.847 119.793L676.177 120.726C681.485 135.42 689.48 149.592 691.848 165.262C682.452 145.086 672.521 124.882 660.842 105.906C663.551 114.466 667.807 122.571 671.379 130.792C676.404 142.355 683.005 161.763 684.32 174.146C679.203 164.227 675.532 153.546 669.985 143.827C674.142 158.635 679.477 172.586 681.421 188.001C674.796 175.122 671.587 160.262 665.872 146.869C664.662 144.034 663.521 140.869 661.908 138.252L661.625 138.002L661.908 138.252C662.38 144.371 665.159 151.126 666.764 157.079C669.99 169.04 673.005 180.918 674.732 193.2C659.75 206.085 640.511 215.279 621.824 221.303C616.1 223.148 609.326 223.624 603.999 226.307C622.266 223.952 639.675 221.153 657.064 214.761C664.453 212.045 671.198 207.747 678.702 205.39L679.564 205.124C683.345 219.847 686.475 234.729 688.946 249.727C689.928 255.992 690.423 262.32 691.3 268.6C692.469 252.348 688.385 220.281 685.148 203.637C687.31 202.28 689.48 200.936 691.66 199.606C694.17 210.993 696.658 222.541 697.812 234.157C698.985 245.971 699.022 257.89 700.318 269.685L700.565 269.508C701.396 253.651 700.753 237.217 699.519 221.405C698.922 213.759 697.019 205.384 697.495 197.768C698.36 196.742 698.796 196.687 700.084 196.235L700.747 196.636C705.79 212.704 708.641 230.754 710.028 247.544C710.61 254.592 710.668 261.67 711.214 268.725C713.182 251.698 711.856 233.623 711.021 216.539C710.789 211.79 709.402 196.751 710.3 192.923L710.948 192.657C713.75 196.853 719.704 237.474 720.286 243.962C721.177 232.378 720.367 220.71 719.733 209.136C719.427 203.556 718.902 197.933 719.2 192.346C721.327 205.205 723.819 218.186 725.065 231.16C726.981 251.104 726.611 272.335 724.826 292.281C723.716 304.682 720.782 316.926 719.877 329.324C733.567 280.703 734.024 238.372 724.857 188.725C719.565 160.068 707.617 135.816 691.493 111.852C682.419 98.3654 673.034 86.2579 661.766 74.5306C656.059 68.5914 649.863 61.6029 643.082 56.9252L642.343 56.6975L642.101 56.0025ZM446.787 76.8526L446.392 77.7471L446.142 77.8983C439.168 81.2886 432.08 88.0088 426.172 93.0046C419.354 98.7698 412.461 104.64 406.275 111.093C385.155 133.124 368.518 161.279 358.524 190.06C347.728 221.15 340.206 261.912 341.712 294.751C342.843 285.736 343.43 276.703 344.803 267.709C349.135 239.356 357.916 212.999 369.706 186.9C373.806 177.824 378.417 166.914 384.678 159.119C381.22 168.694 377.164 178.032 373.816 187.652C368.231 203.698 363.709 220.221 359.431 236.655C357.367 244.586 354.609 253.222 353.928 261.407L353.625 261.998L353.928 261.407C361.609 233.816 373.017 209.712 387.785 185.333C392.235 177.987 396.711 170.282 402.614 164C401.883 166.578 401.342 169.146 400.835 171.775C402.907 169.325 404.727 166.945 406.37 164.187C404.658 172.916 400.808 181.757 398.311 190.376C402.898 184.344 408.136 177.529 413.877 172.599C410.993 177.519 409.014 183.02 406.58 188.177C403.658 194.368 400.13 200.557 397.724 206.951L397.358 207.669L397.114 207.986L397.358 207.669L397.724 206.951C400.759 203.677 403.269 199.708 405.879 196.079L420.272 175.826C422.302 176.584 424.324 177.316 426.28 178.257C420.109 190.099 412.492 201.372 405.373 212.674C402.546 217.161 398.902 221.924 396.773 226.753L396.398 227.093L396.086 227.498L396.398 227.093L396.773 226.753C400.785 223.183 404.139 218.2 407.507 214.008C416.486 202.831 425.616 191.699 433.252 179.538C442.348 183.177 451.708 187.943 460.165 192.898C458.484 218.15 459.41 240.175 468.143 264.245C469.502 267.992 471.33 273.739 473.72 276.918L473.932 277.498L473.72 276.918L473.616 276.444C472.226 270.342 469.833 264.485 468.346 258.394C465.795 247.936 462.718 224.336 465.066 214.099L465.543 214.17C468.375 222.851 469.482 232.722 471.371 241.711C471.582 228.469 469.722 215.206 471.166 201.999C474.036 203.685 476.972 205.309 479.789 207.081C482.461 232.103 485.61 256.455 492.895 280.635C494.093 284.611 495.355 289.996 497.721 293.429L497.998 293.998L497.721 293.429C496.892 287.184 492.439 275.938 490.758 268.752C486.348 249.902 484.726 229.723 484.304 210.412C506.07 221.351 534.456 229.597 558.966 227.648C532.026 223.137 507.79 211.531 484.359 197.934C483.346 181.322 484.494 158.065 487.74 141.692C487.783 141.474 487.831 141.257 487.877 141.039C486.578 142.693 486.215 146.108 485.75 148.177C482.219 163.873 481.058 179.317 479.905 195.321C478.061 193.756 475.994 192.47 473.987 191.127C473.798 180.132 473.56 169.191 474.627 158.231C475.787 146.323 478.403 134.645 480.799 122.942C472.826 141.113 463.248 168.177 461.334 187.872C453.091 184.177 444.739 178.13 438.049 172.099C444.034 162.682 453.423 148.121 457.694 138.265L457.972 138.002L457.694 138.265C449.406 147.908 441.738 157.933 433.168 167.367C432.059 166.205 430.616 165.063 430.266 163.443C433.45 157.401 439.954 147.122 441.661 140.807L441.901 140.502L441.661 140.807C437.399 144.546 431.273 157.083 426.683 158.733C426.148 157.865 425.505 157.156 424.834 156.393C425.666 152.026 428.513 148.07 429.638 143.663L429.805 142.985C428.277 145.531 426.924 149.116 424.761 151.1C424.711 150.964 424.641 150.833 424.609 150.692C423.847 147.301 431.679 135.126 433.551 131.456C430.635 135.207 418.463 150.53 414.899 151.773C413.794 151.533 413.423 151.289 412.654 150.465C412.619 143.227 436.422 108.224 440.492 97.6993C440.545 97.563 440.594 97.4253 440.644 97.2882L440.897 97.0025L440.644 97.2882C432.763 105.575 415.659 133.248 410.939 144.005C412.534 132.688 422.887 111.449 429.743 102.074C433.144 97.4231 437.673 93.1741 440.627 88.2736C440.8 87.9852 440.968 87.6931 441.139 87.4029L441.407 87.1486L441.746 86.6026L442.678 86.2265L442.914 85.5025L442.678 86.2265L441.746 86.6026L441.407 87.1486L441.139 87.4029C433.699 93.3476 428.455 101.599 421.341 107.691C425.974 95.5185 438.437 87.7689 446.142 77.8983L446.392 77.7471L446.787 76.8526L447.498 76.6062L446.787 76.8526ZM391.076 79.7214C407.743 63.1948 425.855 49.9755 445.539 37.3044C435.192 40.9895 424.755 46.6421 415.026 51.746C403.181 57.9602 390.487 65.0248 379.812 73.0675C340.573 102.629 311.798 150.607 290.957 194.453C279.846 217.83 271.299 242.785 264.317 267.685L264.825 267.581C269.647 258.012 272.6 247.245 276.891 237.366C290.76 205.434 306.754 174.29 327.597 146.298C331.139 141.541 335.169 135.582 339.719 131.864C322.905 157.297 307.914 183.89 294.857 211.442C275.371 253.362 260.538 296.479 246.661 340.498C215.314 439.933 180.275 581.557 200.775 684.802C201.282 687.359 201.933 689.873 202.502 692.415L202.871 692.997L202.502 692.415C202.41 686.155 201.119 679.797 200.615 673.537C199.598 660.829 199.201 648.079 199.426 635.333C200.642 570.947 213.1 505.753 227.063 443.041C237.798 394.826 249.895 346.29 266.806 299.818C282.455 256.812 301.894 214.257 325.589 175.08C334.975 159.562 349.747 136.2 362.669 123.782C360.828 128.711 357.028 133.713 354.491 138.366C348.818 148.774 343.32 159.668 338.601 170.541C325.131 201.571 314.073 236.249 308.362 269.577C305.198 288.038 303.505 306.958 302.02 325.627C301.054 337.768 299.157 351.226 300.307 363.301C301.967 349.619 303.217 335.947 305.279 322.308C309.941 292.303 316.819 262.684 325.857 233.695C341.128 185.772 358.948 152.381 388.569 111.793C399.142 97.3054 410.091 82.9442 423.986 71.4353C433.476 63.5753 443.668 58.3027 454.509 52.7059C431.844 56.8405 412.228 70.2549 391.568 79.5049L391.076 79.7214ZM474.625 300.502L474.897 300.77C477.604 314.429 488.662 340.88 497.954 351.194C481.085 345.822 470.745 332.128 462.946 316.902C453.232 297.941 445.907 275.48 443.985 254.184C441.727 277.522 442.673 302.011 446.196 325.165C460.501 331.546 475.466 341.875 486.129 353.509C482.9 352.915 474.073 352.585 472.075 350.566L471.571 350.002L472.075 350.566L471.649 352.031C466.361 352.362 456.644 347.923 451.348 346.317C456.16 350.088 460.198 353.824 463.522 359.012C458.368 355.499 453.414 351.994 448.473 348.175C448.541 349.104 451.053 350.957 451.851 351.636C453.928 353.404 456.926 355.07 457.275 357.948C454.885 355.984 451.377 351.859 448.656 350.774C451.081 354.791 455.54 357.461 457.634 361.891C452.696 357.451 448.632 352.092 443.714 347.624C431.697 336.706 413.214 329.149 397.573 325.547C394.104 324.748 386.568 322.331 383.271 322.699C382.637 322.77 382.18 323.035 381.613 323.286C381.353 323.401 381.09 323.51 380.831 323.626C380.638 323.712 380.447 323.803 380.255 323.892C378.36 323.255 376.296 322.437 374.307 322.18C371.781 321.853 369.103 322.919 366.643 322.129L366.595 321.165C368.85 318.776 373.521 318.267 376.665 317.64C376.821 304.057 377.994 291.241 381.045 277.937C376.485 285.918 351.717 347.36 353.612 355.45C353.827 356.372 355.105 357.133 355.928 357.51C357.159 358.074 358.183 358.318 359.526 358.358L359.73 357.992C358.385 357.191 357.068 356.582 356.074 355.351C358.196 355.258 360.186 356.763 362.437 356.937L363.341 357.216L362.437 356.937L363.164 356.243L366.417 356.344L365.486 355.46L366.317 356.337L366.022 356.314L365.657 355.597C363.44 354.195 361.585 352.676 359.646 350.925C366.973 352.314 373.14 353.364 380.646 352.863C377.988 351.718 373.275 350.188 371.48 348.013L371.998 347.581L371.48 348.013L369.823 347.568C370.066 346.893 369.851 347.105 370.462 346.809C378.368 342.983 402.777 341.637 411.979 342.327C417.677 342.754 423.432 343.806 428.829 345.71C441.047 350.02 449.138 358.611 454.534 370.163C456.019 373.341 457.128 376.602 458.13 379.961C449.337 364.798 440.159 351.976 422.312 347.181C410.486 344.004 397.742 344.961 385.755 346.74C388.589 346.933 394.19 346.633 396.417 348.294C392.422 347.521 381.798 347.154 378.294 349.489C378.012 349.677 377.796 349.949 377.548 350.178C378.439 351.132 379.63 351.23 380.878 351.3C385.876 351.581 390.76 349.957 395.689 349.38C396.277 349.311 396.042 349.358 396.642 349.102C402.229 349.646 417.377 349.176 421.735 351.326C424.008 352.448 426.458 352.87 428.874 353.556C433.289 354.811 437.623 357.283 441.151 360.193C452.379 369.456 458.334 384.656 459.712 398.779L459.533 398.371C459.431 398.145 459.325 397.921 459.225 397.694C456.236 390.858 447.918 380.451 442.745 374.999C441.26 380.946 439.256 385.9 434.091 389.652C429.054 393.311 422.205 394.77 416.098 393.617C409.987 392.464 404.581 388.544 401.268 383.321C396.83 376.323 396.809 369.241 398.566 361.47C393.754 363.865 388.951 366.248 384.25 368.855C384.818 377.121 388.057 384.537 393.742 390.597C406.48 404.175 430.698 402.038 447.705 402.678C443.796 403.218 427.635 403.956 426.058 404.841C426.237 405.68 426.351 406.113 426.196 406.971C424.858 405.917 423.493 404.768 421.866 404.191C420.502 403.707 419.547 403.877 418.292 404.503C418.064 405.792 417.874 407.066 417.721 408.365L417.639 408.404C417.404 408.117 417.071 407.732 416.901 407.413C416.278 406.245 415.933 405.372 415.138 404.265C413.834 403.613 413.547 403.548 412.091 403.609C410.914 404.514 410.639 406.78 410.273 408.2L409.647 408.477C409.567 406.586 409.534 404.953 408.837 403.177C407.691 402.342 407.748 402.394 406.336 402.584C404.644 403.807 403.347 405.499 402.606 407.451C402.505 407.714 402.414 407.98 402.318 408.244C401.484 405.995 403.228 403.574 402.082 401.352C401.111 400.752 400.865 400.748 399.712 400.708C397.242 402.64 395.333 405.443 393.379 407.892C394.151 404.907 395.438 402.293 396.745 399.514C396.099 398.423 395.789 398.624 394.62 398.289C391.017 399.272 388.264 402.51 385.637 405.013C386.693 401.832 388.386 399.551 390.377 396.904C390.473 395.636 390.456 395.622 389.734 394.572C389.29 394.403 389.119 394.305 388.587 394.288C384.209 394.146 379.266 397.872 376.323 400.75C378.549 396.88 380.874 393.069 383.297 389.32C378.005 389.591 374.271 390.012 369.925 393.308L369.399 392.82C369.605 390.166 375.792 386.189 377.848 384.358L377.811 383.45L376.82 382.58C375.39 382.144 374.646 382.29 373.191 382.666C371.2 383.18 369.266 383.874 367.317 383.085C368.748 381.249 371.759 379.698 373.731 378.35L373.572 377.899C372.024 377.571 369.745 377.213 368.636 375.997C368.165 375.479 368.334 374.991 368.329 374.341C369.125 372.525 370.569 371.934 372.232 370.987C364.597 368.379 358.764 365.076 352.254 360.335C350.982 364.721 350.013 369.13 349.249 373.631C346.822 387.933 345.543 403.27 346.629 417.761C347.682 431.807 351.843 445.525 355.21 459.138C359.681 477.22 363.535 496.131 371.092 513.213C375.936 524.162 382.639 534.253 389.55 543.99C406.943 568.494 442.134 609.948 466.755 625.883C474.209 630.708 482.252 634.232 491.051 635.667C515.87 639.717 533.835 625.829 552.757 612.058C565.374 602.875 577.55 592.643 589.3 582.38C639.439 538.588 654.512 503.939 672.742 440.944C678.756 420.165 685.636 399.093 689.009 377.703C682.206 368.015 673.409 359.932 667.244 349.697C662.181 341.291 657.318 332.294 653.092 323.424C651.009 319.053 649.511 313.815 646.896 309.786L646.625 309.502L646.896 309.786C648.174 317.483 656.594 338.437 660.651 345.298C662.307 348.098 664.267 350.384 666.577 352.657C661.72 352.063 656.733 352.187 651.846 352.133C643.352 352.038 634.853 351.993 626.384 352.769C618.982 353.448 611.637 354.8 604.26 355.73C585.206 358.053 566.235 361.025 547.383 364.642C547.493 364.487 547.6 364.33 547.712 364.178C547.9 363.924 548.097 363.677 548.286 363.424C551.339 359.333 555.845 356.604 559.257 352.758C554.674 352.058 550.205 351.242 545.691 350.174C547.278 351.063 550.278 352.253 551.18 353.813C541.033 354.344 531.138 354.405 521.261 351.63C503.134 346.537 491.171 333.27 482.715 316.947C480.126 311.95 478.182 306.531 475.406 301.653L474.897 300.77L474.625 300.502ZM584.577 323.505L584.765 323.817C586.166 328.11 590.239 335.236 593.828 338.022C595.188 339.077 595.89 338.716 597.448 338.511C597.078 336.662 586.541 325.477 584.765 323.817L584.577 323.505ZM444.502 344.502L445.022 344.775C445.811 345.398 445.502 345.228 446.241 345.594C450.781 347.844 453.931 352.102 458.46 354.413C455.28 350.272 450.18 345.798 445.022 344.775L444.502 344.502ZM427.606 372.51L427.791 372.801L427.978 374.49L428.739 374.932C428.702 373.657 428.539 373.744 427.791 372.801L427.606 372.51ZM793.003 591.503L793.253 592.041C795.726 600.12 800.657 608.39 804.69 615.8C824.127 651.515 850.983 682.239 887.337 701.411C890.941 703.312 895.759 706.316 899.743 707.123L899.997 707.375L899.743 707.123C895.283 703.211 888.934 700.578 883.914 697.38C874.322 691.27 864.848 683.905 856.365 676.323C837.606 659.555 820.717 637.551 807.45 616.22C803.029 609.112 798.498 598.861 793.739 592.66C793.579 592.452 793.415 592.248 793.253 592.041L793.003 591.503ZM644.618 673.003L644.898 673.282C645.026 675.352 645.825 677.545 646.384 679.556C650.214 693.344 659.551 699.321 667.557 710.423C684.798 734.333 698.037 757.207 719.743 778.013C724.448 782.523 729.314 787.076 735.014 790.296C731.134 793.259 727.234 796.022 722.777 798.066C706.954 805.323 686.295 806.446 669.003 806.968C664.454 807.105 659.919 806.878 655.374 807.14C654.397 807.762 654.352 807.827 653.918 808.902L654.527 809.76C658.288 811.484 663.345 811.231 667.423 811.453C696.4 812.204 724.498 811.795 748.933 793.583C744.018 789.858 738.904 786.256 734.203 782.266C718.77 769.163 702.73 752.259 690.625 735.924C683.088 725.753 676.542 714.841 669.113 704.578C661.388 693.907 652.736 683.907 644.898 673.282L644.618 673.003ZM675.174 551.62C673.859 563.825 673.902 576.758 673.977 589.045C674.335 647.471 680.757 698.7 713.58 748.671C718.211 755.721 722.743 764.001 728.754 769.949L729.154 770.669L729.621 771.124L729.879 771.497L729.621 771.124L729.154 770.669L728.754 769.949C726.953 765.595 723.521 761.211 721.042 757.171C714.818 747.025 708.659 737.058 704.219 725.97C687.212 683.5 680.561 636.873 677.147 591.472C676.475 582.543 676.172 573.573 675.806 564.626C675.639 560.542 675.775 556.186 675.256 552.139C675.234 551.966 675.202 551.793 675.174 551.62ZM251.805 560.88C249.34 580.89 245.012 600.653 242.758 620.752C238.344 660.104 231.102 712.896 236.383 751.412C237.593 760.238 239.878 768.885 242.371 777.424C244.549 784.882 247.177 793.587 252.085 799.741L252.378 799.997L252.085 799.741C251.289 795.393 249.673 791.046 248.61 786.727C247.165 780.855 246.292 774.749 245.534 768.751C239.699 722.54 242.384 675.4 246.055 629.127C247.808 604.896 250.179 580.714 253.166 556.604C252.362 557.425 252.098 559.708 251.805 560.88ZM300.12 678.422C283.375 602.143 278.015 523.806 284.213 445.957C285.101 435.932 285.655 425.614 287.206 415.677L287.312 415.02C285.685 417.333 283.514 438.193 282.955 442.151C275.953 488.886 271.489 535.966 269.584 583.184C268.282 613.868 267.846 644.864 270.696 675.478C274.534 716.694 284.268 761.599 307.129 796.797C310.49 801.971 314.439 808.323 319.164 812.246L319.402 812.497L319.164 812.246C317.332 807.659 313.073 803.249 310.577 798.849C304.903 788.846 300.283 778.349 295.934 767.714C277.953 723.749 273.332 670.62 272.77 623.461C272.657 613.973 272.303 604.372 272.763 594.897C274.811 606.189 275.518 617.786 277.185 629.153C280.529 651.949 285.366 675.226 291.781 697.355C303.52 737.855 327.19 785.001 365.428 806.097C337.728 782.611 317.6 739.465 306.988 705.44C304.215 696.548 302.191 687.496 300.12 678.422ZM272.562 807.903C276.072 816.911 280.489 825.564 284.755 834.229C294.113 853.233 302.259 868.367 313.973 886.022C318.006 892.1 321.934 898.489 327.045 903.733L327.381 903.916L327.045 903.733C326.924 902.804 326.785 901.868 326.825 900.928C327.206 891.967 352.71 877.046 359.622 870.131C359.759 869.994 359.892 869.854 360.027 869.715C356.227 867.89 351.993 866.784 347.988 865.46C335.435 861.311 321.909 857.901 310.225 851.69C308.572 842.904 308.561 833.665 309.542 824.807C304.815 823.253 300.227 821.581 295.624 819.683C287.627 816.183 280.061 812.38 272.562 807.903ZM441.155 96.25L441.533 96.25L441.155 96.25ZM675.227 118.75L675.599 118.75L675.227 118.75ZM436.848 223.394C428.112 243.161 417.635 260.547 407.206 279.338C400.64 291.167 394.797 303.5 387.635 314.978C393.298 314.952 398.969 314.842 404.623 315.194C416.636 316.04 429.088 318.215 440.115 323.277C431.117 296.419 429.639 269.411 433.075 241.422C433.809 235.441 436.541 229.289 436.848 223.394ZM760.666 275.844C760.929 290.788 763.271 306.483 762.448 321.223C761.148 344.486 757.525 367.695 754.477 390.767C746.836 448.612 736.694 507.726 738.83 566.236C739.933 593.363 743.623 620.322 749.85 646.747C755.575 671.533 761.66 689.9 772.703 712.803C775.721 719.062 778.634 725.513 782.303 731.422C782.502 728.788 773.112 710.546 771.405 706.395C768.821 700.112 766.64 693.618 764.633 687.13C757.815 665.087 753.161 641.086 751.349 618.062C748.797 597.703 747.279 561.159 750.823 541.158C753.203 576.091 763.404 643.144 779.96 673.683C777.214 664.43 774.112 655.356 772.024 645.917C766.201 619.593 763.808 592.581 761.88 565.74C759.127 530.291 758.011 494.733 758.537 459.18C758.826 428.687 760.905 398.146 762.532 367.699C763.513 349.346 764.747 330.65 764.145 312.269C763.893 304.583 762.717 296.932 762.036 289.278C761.669 285.161 762.181 279.657 760.666 275.844ZM498.209 294.75L498.533 294.75L498.209 294.75ZM554.517 294.369C556.489 310.204 562.104 331.488 568.95 345.648L576.352 343.104L577.312 342.648C576.996 341.525 576.853 341.543 576.063 340.746C567.886 332.503 562.33 317.327 558.683 306.351C557.458 302.664 556.5 297.656 554.517 294.369ZM379.879 347.75L380.745 347.75L379.879 347.75ZM722.374 349.127C719.669 349.555 717.505 350.23 715.032 351.386C711.584 358.37 708.773 366.259 706.677 373.759C710.305 368.359 715.035 361.914 721.803 360.434C723.791 360 725.855 360.322 727.565 361.449C730.122 363.133 731.46 366.121 731.92 369.059C732.486 372.669 732.05 376.514 731.759 380.14C730.892 390.936 729.348 399.983 722.664 408.751C718.574 414.116 706.894 428.901 702.159 432.804C696.723 437.285 690.169 440.674 684.067 444.161C681.612 449.585 679.252 455.052 676.989 460.558C674.899 465.476 672.56 470.406 670.909 475.489C672.81 475.378 675.078 475.412 676.878 474.768C682.144 472.885 690.224 462.393 694.019 458.131C703.99 446.934 720.624 429.634 726.867 416.089C731.609 405.801 733.163 394.097 734.254 382.932C734.911 376.204 736.114 368.928 735.802 362.187C735.634 358.552 734.903 354.849 732.078 352.314C729.35 349.864 725.913 349.263 722.374 349.127ZM545.634 350.25L546.245 350.25L545.634 350.25ZM531.08 350.575C535.036 352.031 538.965 353.052 543.144 353.608L544.026 353.138C542.286 351.787 533.408 350.349 531.08 350.575ZM553.31 359.439C552.003 360.541 550.313 361.59 549.637 363.174L550.284 363.713C551.661 362.619 552.68 361.592 553.699 360.157L553.31 359.439ZM717.822 367.673C717.444 368.362 716.626 369.372 716.793 370.161C717.055 371.398 718.032 372.422 718.79 373.401C718.625 374.597 718.419 375.141 717.433 375.91C714.586 378.13 709.647 377.22 708.345 380.948L708.851 381.922L708.299 381.885L708.357 380.868L708.743 381.97L710.768 381.139L711.527 381.58C712.503 386.431 716.242 406.409 713.86 410.08C706.481 421.451 690.66 423.381 687.414 437.733C691.257 435.983 694.582 431.838 697.85 429.127C700.879 426.615 704.469 424.684 707.662 422.37C715.373 416.782 723.97 407.587 727.422 398.556C730.108 391.524 729.242 381.692 726.181 374.832C724.585 371.254 722.009 369.09 718.324 367.82C718.159 367.763 717.989 367.722 717.822 367.673ZM407.105 370.479C409.783 373.302 414.295 373.405 417.481 375.835C417.68 375.987 417.885 376.13 418.084 376.282C418.204 376.373 418.319 376.47 418.436 376.564C416.306 376.521 412.584 376.034 410.914 377.36C412.378 378.958 416.786 379.46 419.034 379.582C421.666 379.726 424.37 379.658 427.004 379.554C428.452 379.773 428.638 379.809 429.96 379.208L430.567 378.009C430.108 376.742 429.938 376.627 428.863 375.793C426.266 375.307 418.395 375.401 416.59 373.969C416.293 372.89 416.025 371.804 415.785 370.711L415.016 370.507L414.187 371.728C411.707 371.818 409.589 370.504 407.105 370.479ZM705.074 382.766C703.942 384.585 703.097 386.281 702.385 388.304C705.872 389.964 708.042 391.299 710.163 394.669L710.444 395.087C711.176 392.486 711.813 388.088 710.233 385.661C709.118 383.949 707.454 383.123 705.467 382.806C705.337 382.785 705.205 382.779 705.074 382.766ZM701.822 390.237C699.174 401.81 695.545 413.136 692.138 424.502L694.848 421.508C700.124 415.383 708.636 407.23 707.95 398.457C707.773 396.2 706.73 393.656 704.979 392.168C704.016 391.35 702.954 390.779 701.822 390.237ZM340.686 427.901C340.334 435.939 339.428 444.135 339.755 452.167C342.076 454.291 344.587 455.936 347.22 457.638C347.487 456.432 341.984 430.024 341.164 428.509C341.042 428.282 340.845 428.104 340.686 427.901ZM702.999 467.296C698.904 485.124 697.886 503.218 697.274 521.44C695.145 584.797 703.985 671.469 738.229 726.191C749.557 744.292 764.117 757.518 781.725 769.263L782.238 769.15C780.386 764.967 771.145 758.625 767.512 755.054C764.259 751.857 761.179 748.487 758.287 744.959C734.543 715.735 720.79 672.299 711.572 636.326C702.877 602.391 698.784 558.174 699.616 523.018C699.939 511.746 700.575 500.485 701.524 489.249C702.108 482.973 703.278 476.502 703.47 470.219C703.502 469.171 703.384 468.275 702.999 467.296ZM397.79 583.366C390.739 592.255 389.187 602.328 386.074 612.931C381.891 627.179 373.718 641.37 363.084 651.763C368.022 677.925 391.75 715.422 405.786 738.684C418.515 759.78 431.276 780.74 444.958 801.242C456.256 818.171 469.439 834.406 478.444 852.736C481.037 858.013 482.986 863.565 485.049 869.063L490.069 850.543C494.596 834.581 500.369 819.127 506.205 803.611C512.692 786.363 519.047 768.284 529.081 752.715C532.963 746.691 538.096 741.46 542.966 736.236L542.35 735.883C537.53 733.164 532.193 731.521 527.193 729.17C519.258 725.44 511.56 720.962 504.144 716.296C472.545 696.413 442.64 668.543 419.801 639.071C411.528 628.396 402.997 616.763 399.257 603.6C397.002 595.664 398.849 589.958 397.79 583.366ZM594.655 587.384C582.537 598.244 570.715 609.429 559.2 620.927C542.646 637.647 521.535 662.473 500.61 673.176C493.233 676.948 486.175 678.298 477.912 677.791C473.383 677.512 468.843 676.737 464.395 675.861C474.237 684.975 485.142 693.024 495.722 701.255C511.394 712.718 527.373 722.557 544.531 731.661C556.602 726.99 585.268 685.479 591.557 672.278C589.19 660.242 590.449 646.091 591.234 633.873C591.651 627.389 595.594 589.957 594.655 587.384ZM602.218 591.72C601.032 608.779 601.16 621.982 604.522 638.922C605.398 634.387 606.175 629.905 606.373 625.279C606.548 621.196 606.033 616.434 606.847 612.472L607.741 611.885C609.364 612.309 610.142 613.11 611.021 614.536C616.315 623.127 614.856 635.965 612.355 645.248C606.706 666.218 593.945 684.143 581.088 701.248C575.447 708.752 569.737 716.349 563.355 723.248C558.723 728.255 553.457 732.545 548.746 737.437C557.365 738.75 563.438 743.448 568.542 750.368C578.976 764.513 588.899 791.582 595.289 808.373C600.969 822.449 605.282 835.933 608.968 850.67C612.654 839.058 615.713 827.24 619.121 815.543C628.551 783.175 638.83 750.239 642.605 716.619C643.164 711.641 643.992 706.316 643.606 701.31C643.112 694.891 640.707 688.556 638.95 682.392C636.489 673.823 634.125 665.226 631.857 656.603C628.033 641.927 625.449 626.662 618.374 613.095C614.204 605.099 608.902 597.803 602.218 591.72ZM779.633 672.75L780.042 672.75L779.633 672.75ZM792.845 728.123C792.897 733.663 792.834 739.232 793.021 744.767C797.388 751.885 802.634 758.455 806.752 765.713L806.712 764.897C806.382 758.653 801.814 744.103 803.203 739.019C804.518 738.142 805.398 737.847 806.993 738.114C811.041 738.792 815.187 741.452 819.033 742.96C836.942 749.98 855.032 758.385 871.437 768.482C883.149 775.69 894.231 784.14 905.717 791.739C903.853 804.286 901.994 816.826 899.417 829.251C895.187 849.639 889.639 869.798 884.33 889.925C876.396 919.999 867.575 949.847 864.202 980.88C863.404 987.38 862.531 993.922 862.106 1000.46C863.955 994.519 864.924 988.247 866.286 982.179C869.534 967.7 872.604 953.199 876.54 938.886C889.227 892.752 913.723 837.534 912.476 789.679C897.976 775.155 868.141 757.624 848.746 750.62C835.496 745.835 821.642 742.563 808.734 736.878C803.063 734.38 798.235 731.02 792.845 728.123ZM782.706 732.25L783.031 732.25L782.706 732.25ZM182.179 743.889C165.942 752.298 151.411 763.591 135.84 773.145C115.128 785.854 84.8852 798.223 68.655 815.501C61.909 822.683 58.515 832.746 55.5835 841.966C49.3181 861.672 44.5052 881.97 40.3398 902.213C39.4417 906.578 37.7619 911.828 37.6884 916.252C39.0153 914.69 45.5422 893.914 46.9263 890.291C53.9454 871.921 62.9055 853.89 72.0165 836.482C103.832 866.196 127.15 903.963 145.386 943.19C151.277 955.754 156.954 968.417 162.417 981.172C168.191 994.827 172.349 1011.25 182.109 1022.61C169.123 974.841 147.316 916.337 119.65 875.182C112.603 864.524 105.137 854.148 97.2692 844.08C91.2688 836.384 84.182 828.747 79.2835 820.295C90.498 812.955 100.936 804.191 111.771 796.279C130.097 782.898 150.03 770.23 170.451 760.298C176.606 757.305 182.968 753.877 189.55 751.943C187.904 749.89 184.505 744.657 182.179 743.889ZM553.677 746.918C536.358 756.003 533.858 747.911 525.383 770.374C531.388 770.565 537.145 771.211 543.029 772.422C548.478 774.083 552.394 776.475 557.072 779.709C554.746 777.077 552.498 774.556 550.672 771.544C550.636 771.484 550.598 771.425 550.561 771.365C550.449 766.21 550.036 761.3 553.766 757.194C555.399 755.396 557.454 753.997 559.444 752.626C557.995 750.558 556.303 747.413 553.677 746.918ZM789.698 773.725C789.319 782.353 787.788 790.86 787.335 799.466C791.058 803.542 800.577 815.238 805.297 817.16C806.451 806.996 807.146 796.786 807.38 786.56C804.816 785.237 802.307 783.899 800.038 782.097C796.788 779.518 793.33 775.593 789.698 773.725ZM660.563 814.095C690.44 825.987 720.543 837.754 751.655 846.021L754.664 841.776L757.484 838.379C747.478 835.058 737.166 832.119 727.33 828.362C719.818 825.493 712.375 822.516 704.827 819.729C701.536 818.513 698.201 816.9 694.75 816.215C689.586 815.189 683.801 815.804 678.52 815.496C672.597 815.15 666.457 814.066 660.563 814.095ZM410.223 828.128C391.188 831.202 384.952 841.474 369.959 849.827C364.192 849.131 358.472 847.643 352.804 846.394C339.412 843.445 326.456 840.165 313.407 835.936L313.529 846.055C317.129 846.902 320.714 847.803 324.378 848.326C336.711 850.739 351.265 854.566 361.682 861.662L363.869 867.095C370.189 862.736 376.302 857.927 382.26 853.088C388.343 848.147 394.028 842.619 400.234 837.86C403.119 835.648 406.288 833.801 409.306 831.779C410.904 830.709 411.972 829.352 413.883 828.835L413.858 828.217C412.521 827.956 411.557 827.991 410.223 828.128Z"/><path d="M390.332 80.1612L391.076 79.7214L390.332 80.1612Z"/><path d="M390.049 80.3894L390.332 80.1612L390.049 80.3894Z"/><path d="M421.111 107.998L421.341 107.691L421.111 107.998Z"/><path d="M363.671 122.74L363.876 122.002L363.671 122.74Z"/><path d="M362.954 123.46L363.671 122.74L362.954 123.46Z"/><path d="M362.669 123.782L362.954 123.46L362.669 123.782Z"/><path d="M339.719 131.864L339.998 131.594L339.719 131.864Z"/><path d="M697.179 138.377L697.416 138.998L697.179 138.377Z"/><path d="M695.135 153.94L695.407 154.477L695.135 153.94Z"/><path d="M385.142 158.269L385.376 158.002L385.142 158.269Z"/><path d="M384.678 159.119L385.142 158.269L384.678 159.119Z"/><path d="M405.271 163.136L404.856 162.989L405.271 163.136Z"/><path d="M396.417 348.294L396.642 349.102L396.417 348.294Z"/><path d="M460 358L459.038 357.35C459.953 357.856 459.725 357.543 460 358Z"/><path d="M460 358L460.688 358.687L460 358Z"/><path d="M460.688 358.687L461.122 359.117L460.688 358.687Z"/><path d="M461.122 359.117L461.642 359.634L461.122 359.117Z"/><path d="M461.642 359.634L462.184 360.085L461.642 359.634Z"/><path d="M471.809 359.779L471.563 359.542L471.809 359.779Z"/><path d="M462.184 360.085L462.681 360.59L462.184 360.085Z"/><path d="M471.809 359.779C482.455 369.142 488.72 386.267 489.558 400.189C489.793 404.086 489.66 408.159 488.459 411.902L488.151 412.049C486.507 395.869 485.056 388.85 478.328 373.871C476.242 369.23 473.532 364.529 471.809 359.779Z"/><path d="M462.681 360.59L462.998 360.878L462.681 360.59Z"/><path d="M562.199 386.399C565.666 377.602 571.741 371.839 580.331 368.109C598.744 360.115 630.765 360.077 649.487 367.443C649.819 367.574 650.145 367.716 650.469 367.864L651.297 368.756C646.261 369.03 636.335 366.6 630.65 366.007C609.445 363.795 580.086 366.281 564.833 383.408C564.426 383.865 564.029 384.331 563.626 384.792L562.199 386.399Z"/><path d="M577.043 414.838C594.765 419.779 612.233 421.583 628.95 412.112C634.896 408.743 643.153 401.431 644.887 394.592C645.381 392.647 645.198 390.733 644.117 389.016C641.843 385.406 636.473 383.468 632.429 382.679C630.473 382.312 628.501 382.041 626.519 381.867C624.121 391.239 620.801 400.911 612.089 406.291C607.106 409.368 600.932 410.516 595.217 409.113C589.256 407.649 584.699 403.468 581.738 398.215C579.943 395.03 578.752 391.616 577.785 388.101C573.588 391.794 566.99 396.487 566.801 402.612C566.722 405.177 567.961 406.97 569.356 409.009L563.618 405.97C564.191 404.55 564.943 403.244 564.578 401.686C563.544 401.635 563.685 401.716 562.945 402.386C561.388 403.795 560.239 405.566 559.039 407.275C559.661 404.13 559.862 400.694 560.678 397.631C562.658 390.201 569.367 383.493 575.544 379.307C594.181 366.676 616.33 368.854 637.574 369.527L637.993 370.939C643.363 373.529 649.284 373.279 654.819 371.396C656.355 370.862 657.881 370.298 659.396 369.705C657.456 371.662 655.966 373.437 654.513 375.799C654.473 375.864 654.431 375.928 654.39 375.992C658.7 375.83 663.765 374.637 667.942 375.232C667.18 376.445 663.331 377.082 661.926 377.442C667.367 377.689 672.632 377.271 678.048 376.842C674.364 379.761 656.823 393.343 655.788 396.598L656.534 397.987C654.989 399.231 653.009 398.91 651.736 400.351C653.162 401.613 654.634 402.722 656.182 403.829C653.246 404.64 650.426 405.493 647.601 406.634C650.421 409.213 651.694 412.025 652.697 415.639C650.082 413.164 647.962 411.106 644.362 410.195C644.419 412.698 646.89 414.614 646.859 417.177C644.66 416.08 641.084 412.564 638.639 413.185C637.863 415.29 639.284 418.751 639.571 421.063C638.215 419.354 636.94 417.221 634.836 416.448C633.484 416.508 633.272 416.473 632.189 417.256C632.159 419.957 634.939 422.592 636.228 424.988L635.813 424.731C632.426 422.596 629.815 419.399 625.623 418.836C624.773 419.496 624.804 419.188 624.717 420.145C624.495 422.555 626.402 425.282 627.522 427.348C626.403 426.122 625.393 424.913 624.433 423.557C623.56 422.323 622.571 420.933 620.996 420.566C620.004 420.335 618.897 420.641 617.928 420.837L617.474 421.293L617.716 421.983C618.459 424.151 618.888 426.077 619.103 428.377C617.469 425.925 615.882 423.667 613.864 421.506C612.366 421.471 610.741 421.171 609.483 422.119C609.137 424.182 610.583 426.119 610.629 428.248C609.343 426.434 607.964 424.151 606.096 422.898C605.081 422.217 604.5 421.963 603.297 422.136C602.641 422.983 602.227 423.851 601.757 424.808L602.032 424.662L601.595 424.754C601.474 424.263 601.321 423.243 601.066 422.762C599.626 420.051 595.115 422.392 592.834 421.547C587.625 419.617 581.533 418.183 577.043 414.838ZM608.716 389.51C606 390.598 603.564 391.908 601.038 393.379L607.547 394.71C606.672 395.39 605.893 395.525 604.795 395.472C598.729 395.176 598.819 386.391 590.98 391.842C594.673 394.304 599.022 398.169 603.656 397.335C607.338 396.664 610.72 394.862 613.332 392.18L613.741 390.91C613.017 389.934 612.567 389.502 611.292 389.388C610.459 389.313 609.549 389.436 608.716 389.51Z"/><path d="M561.849 387.162L562.199 386.399L561.849 387.162Z"/><path d="M561.594 387.465L561.849 387.162L561.594 387.465Z"/><path d="M451.206 398.183L450.654 397.577C450.974 395.612 452.28 393.975 453.34 392.33L453.65 392.618C453.973 394.178 451.996 396.718 451.206 398.183Z"/><path d="M577.043 414.838L576.512 414.56L577.043 414.838Z"/><path d="M652.697 415.639L652.885 415.998L652.697 415.639Z"/><path d="M610.629 428.248L610.876 428.477L610.629 428.248Z"/><path d="M495.963 501.904C496.785 503.077 497.829 504.643 497.578 506.171C497.363 507.483 496.995 507.695 496.007 508.434C493.517 508.714 491.422 507.764 489.249 506.616C482.634 503.122 471.003 496.82 469.003 489.224C467.435 483.264 472.368 474.886 475.247 469.883C475.762 473.77 472.374 479.229 471.881 483.333C471.322 487.999 473.97 492.468 476.777 496.018C477.97 497.527 478.933 498.616 480.891 498.828C480.38 497.806 480.587 498.322 480.259 497.285L482.338 496.953C481.052 495.926 479.56 495.08 478.171 494.193C479.595 494.119 481.087 493.997 482.511 494.098C488.007 494.491 492.397 498.033 495.963 501.904ZM483.907 497.611C484.548 498.066 484.264 498.058 484.652 498.027L484.273 497.44L483.907 497.611Z"/><path d="M522.447 510.519C521.157 510.374 521.758 510.543 520.636 510.044C524.018 506.942 528.07 504.644 531.318 501.365C537.116 495.509 537.118 489.555 537.025 481.831C538.252 482.923 538.793 484.742 539.272 486.268C540.621 490.568 539.855 495.002 537.774 498.947C534.457 505.233 529 508.454 522.447 510.519Z"/><path d="M510.168 508.752C509.43 509.279 508.744 509.675 507.946 510.096L506.992 509.638C506.71 508.326 506.74 507.644 507.446 506.452C510.611 501.114 518.127 498.728 523.871 497.591C524.429 497.571 524.936 497.526 525.496 497.638C527.061 497.949 527.705 498.786 528.58 499.973C528.836 501.367 528.972 501.711 528.128 502.963C525.224 507.27 514.834 507.779 510.168 508.752Z"/><path d="M500.906 520.607C500.683 522.111 500.555 524.047 499.836 525.402C499.309 526.394 499.281 526.563 498.177 526.892C498.056 526.771 497.918 526.664 497.812 526.528C495.689 523.811 496.382 518.329 496.812 515.106C499.129 515.846 501.232 517.316 503.607 517.834C504.281 517.981 504.923 518.124 505.586 518.306L505.326 519.108C503.775 519.952 502.884 519.318 501.215 518.885L500.43 519.415L501.756 520.149L500.906 520.607Z"/><path d="M464.495 542.971C472.5 538.817 480.907 534.71 489.696 532.588C491.298 532.446 492.794 532.317 494.359 532.775C496.917 533.523 499.311 534.963 501.952 535.429C506.744 536.276 512.921 534.425 517.973 534.552L518.836 534.578C525.167 538.519 535.209 547.724 538.901 554.028C535.305 552.251 527.327 543.454 522.845 540.301C522.217 539.903 521.576 539.525 520.924 539.168C515.111 536.052 506.738 540.483 500.958 542.217C496.888 541.099 492.983 539.352 488.909 538.347C481.065 536.414 472.069 540.89 464.495 542.971Z"/><path d="M451.877 552.03C459.571 549.052 467.047 546.135 475.288 545.183C484.513 544.165 489.062 548.302 497.347 549.561C501.923 550.256 506.351 548.901 510.863 548.312C524.442 546.541 535.193 553.966 546.324 560.569C548.862 562.075 553.236 561.949 555.075 563.648C556.116 564.609 556.148 565.051 556.147 566.348L555.166 567.169C551.023 567.787 534.967 560.921 529.167 559.262C517.237 556.169 511.213 558.856 500.091 562.364C492.058 559.117 486.107 554.548 477.223 553.339C470.48 552.421 449.229 555.37 447.547 554.536C446.942 554.236 446.336 553.726 446.12 553.071C445.743 551.928 445.944 550.386 446.637 549.396C447.042 548.817 447.392 548.938 448.031 548.839C449.722 549.324 450.351 550.173 451.457 551.512L451.877 552.03Z"/><path d="M515.749 573.093C511.99 573.525 508.674 573.702 504.967 572.716C508.218 572.317 512.717 571.707 515.749 573.093Z"/><path d="M506.152 574.802C500.333 576.248 492.433 575.816 486.992 573.195C493.09 572.614 500.171 573.463 506.152 574.802Z"/><path d="M527.372 583.483C527.235 583.559 527.099 583.638 526.96 583.712C514.725 590.175 500.528 593.133 487.073 588.886C480.862 586.925 471.312 582.532 468.202 576.573C489.861 583.31 510.38 584.246 532.622 580.265L527.372 583.483Z"/></svg>