<?xml version="1.0" encoding="utf-8" ?><svg xmlns="http://www.w3.org/2000/svg" xmlns:xlink="http://www.w3.org/1999/xlink" width="1024" height="1024" viewBox="0 0 1024 1024"><path fill="white" d="M0 0L0 1024L1024 1024L1024 0L0 0Z"/><path d="M810.694 59.1809C784.029 45.5065 763.533 47.565 735.553 56.5681C723.184 60.5482 709.828 66.4971 699.871 74.9841C723.153 66.8354 749.686 70.9218 771.506 81.4495C811.634 100.811 840.541 141.713 854.742 183.042C856.78 188.974 858.657 195.059 860.019 201.183C861.014 205.659 861.492 210.677 863.145 214.945C865.74 221.642 870.563 227.485 873.865 233.871C885.023 255.455 888.472 279.447 877.541 301.851C872.508 312.166 865.95 319.334 857.736 327.133C856.069 344.553 853.727 361.432 849.975 378.552C847.311 390.706 843.665 402.562 841.748 414.882C835.352 455.986 839.873 502.181 867.102 535.37C874.269 544.041 883.308 550.975 893.54 555.65C896.596 557.033 900.098 557.723 903.014 559.329C900.909 559.527 898.458 558.466 896.449 557.87C884.705 554.385 875.04 549.599 865.577 541.801C848.876 528.038 838.197 508.57 831.578 488.253C829.65 482.334 828.295 476.231 826.353 470.328C823.705 487.675 820.764 505.836 821.474 523.414C822.693 553.627 838.724 588.537 856.571 612.881C864.164 623.239 872.746 633.099 882.574 641.387C886.761 644.918 893.441 648.848 896.929 652.795C893.855 651.576 890.85 649.389 888.033 647.619C871.815 637.379 857.089 624.95 844.271 610.683C838.495 604.201 833.493 596.895 827.562 590.597L827.277 590.299L827.055 590.003L827.277 590.299C827.327 590.435 827.375 590.571 827.426 590.706C829.921 597.292 834.016 603.655 837.539 609.739C842.32 617.997 847.103 626.269 852.713 634.001C858.453 641.913 864.788 649.397 870.571 657.286C887.507 680.387 897.897 704.864 894.936 734.062C893.802 745.247 891.739 757.268 886.86 767.476C886.552 768.121 886.46 768.245 886.131 768.779C892.437 745.311 892.141 725.397 879.601 703.816C868.266 684.308 852.032 671.576 833.998 658.841C829.846 655.909 825.001 651.764 820.294 649.82L820.003 649.572L820.294 649.82L820.7 650.287C824.702 654.787 829.446 658.797 833.877 662.871C849.262 677.018 864.415 691.311 871.393 711.637C872.928 716.107 874.749 722.001 875.042 726.733C871.288 718.633 869.107 710.938 863.6 703.651C846.341 680.813 817.76 664.066 795.406 646.429C779.98 634.258 766.098 621.083 751.679 607.793C763.51 630.003 779.639 659.927 795.42 679.048C801.799 686.779 809.293 693.08 815.951 700.436L816.228 700.748C810.969 698.095 805.9 692.631 801.476 688.714C763.712 655.272 736.661 607.218 715.864 561.735C722.619 595.384 734.083 631.979 756.294 658.911C761.411 665.116 767.368 670.262 773.177 675.768C764.055 671.893 755.075 662.408 748.671 655.058C735.659 640.124 726.11 623.616 717.46 605.887C698.232 566.48 689.163 532.504 684.04 489.053C682.172 473.211 680.848 457.685 681.506 441.714C682.324 421.709 684.072 401.753 686.742 381.91C688.093 371.733 690.7 361.286 691.336 351.082C691.346 350.912 691.353 350.741 691.362 350.571C685.465 368.758 678.084 386.313 671.971 404.39C662.308 432.963 653.429 469.503 650.053 499.513C653.594 501.241 657.632 502.373 661.352 503.688C657.463 503.202 653.57 502.738 649.675 502.296C649.56 508.556 649.592 514.929 650.102 521.173C650.352 524.235 651.698 527.919 651.355 530.88C649.51 528.254 650.045 522.683 647.852 520.751C646.513 519.571 638.557 518.1 636.313 517.377C631.235 515.74 626.611 513.591 621.946 511.017C611.886 505.467 602.143 497.576 594.285 489.196C591.117 485.817 588.354 482.077 585.013 478.866L584.57 478.448C588.347 484.207 592.209 489.953 595.699 495.89C600.503 504.062 604.969 512.582 610.655 520.193C614.358 525.15 619.12 529.562 623.217 534.223C605.047 525.345 586.519 500.589 576.951 482.9C577.865 498.401 577.237 514.265 579.109 529.681C597.149 533.346 616.967 543.191 627.413 558.953C633.852 568.669 637.938 580.726 642.738 591.381C648.444 604.045 658.357 624.785 666.43 635.608C670.934 641.645 676.822 647.085 681.882 652.712C685.352 656.569 688.578 661.105 692.329 664.653C695.607 667.753 706.444 672.675 710.792 675.125C721.931 681.402 732.877 688.006 744.091 694.156C752.992 699.038 762.074 703.61 770.926 708.572C789.265 719.067 807.434 729.854 825.427 740.93C835.226 746.959 852.93 756.454 860.583 764.522C877.824 782.697 893.318 844.62 900.367 870.66C903.551 882.422 920.859 938.93 919.765 945.8C919.662 946.449 919.399 946.911 919.021 947.435C912.457 947.73 905.589 944.843 899.192 943.519C892.586 942.152 885.798 941.464 879.076 940.949C873.754 940.541 868.229 940.098 862.924 940.827C850.655 942.513 835.859 947.979 823.997 951.911C810.717 956.224 797.48 960.668 784.287 965.241C772.262 969.501 760.356 974.09 748.583 979.005C742.667 981.472 736.892 984.329 730.923 986.653C724.657 989.093 688.36 1002.75 684.074 1002.48C683.183 1001.62 683.013 1000.99 682.93 999.78C682.51 993.642 689.027 977.6 691.491 971.097C709.366 923.93 731.983 876.536 767.65 840.048C788.518 818.701 815.87 797.318 844.241 787.358C857.544 791.708 867.708 808.228 873.662 820.048C876.239 825.165 878.187 831.104 881.244 835.886C879.214 828.919 876.797 822.066 874.546 815.168C869.963 801.122 865.566 781.888 854.439 771.562C828.018 769.767 799.291 790.266 780.055 807.057C763.875 821.182 751.648 837.19 739.598 854.835C719.95 883.607 704.058 913.508 691.433 946.009C687.495 956.266 684.107 966.726 681.281 977.343C679.529 983.879 678.473 991.237 675.798 997.433C675.269 998.659 675.156 998.615 673.827 998.507C668.733 998.095 663.216 995.352 658.234 994.041C649.518 991.749 640.281 990.418 631.321 989.528C583.824 984.809 527.757 994.159 482.91 1009.92C471.681 1013.86 460.982 1018.79 450.087 1023.53C460.298 1010.31 471.349 997.758 482.189 985.046C493.943 970.996 505.843 957.068 517.885 943.264C539.834 918.097 562.108 893.011 582.402 866.47C595.83 848.91 608.741 830.72 620.217 811.826C625.234 803.565 629.375 794.824 634.364 786.576C639.375 778.29 644.706 770.19 649.482 761.761C665.258 733.895 678.364 704.599 688.624 674.265C683.205 668.064 677.56 661.946 672.393 655.538C658.471 694.964 630.909 740.506 608.201 775.827C594.024 797.878 579.27 820.212 562.482 840.391C552.537 852.345 541.236 863.333 530.434 874.512C521.499 883.759 512.903 893.36 504.115 902.75C497.171 910.17 490.541 917.948 483.895 925.636C480.019 930.121 476.315 934.844 471.983 938.9C467.606 931.071 464.063 922.873 459.866 914.966C451.458 899.242 442.059 884.068 431.725 869.536C428.861 865.564 425.599 860.254 421.745 857.278L421.534 857.013L421.745 857.278C424.139 863.47 429.457 869.841 433.119 875.439C440.479 886.691 447.236 898.139 453.727 909.902C456.284 914.535 459.264 919.284 461.117 924.244C454.127 934.34 446.26 943.88 438.848 953.674C430.655 964.5 422.829 975.66 414.819 986.628C408.555 995.205 402.553 1004.02 396.559 1012.79C394.034 1016.48 391.683 1020.45 388.981 1024L386.627 1024C381.749 1022.9 376.588 1022.49 371.622 1021.84C359.076 1020.2 346.384 1019.02 333.926 1016.81C332.371 1010.59 330.326 1004.5 328.768 998.278C322.324 972.545 318.312 945.757 321.621 919.247C319.059 923.421 316.456 930.357 312.674 933.376C311.564 934.262 310.68 934.393 309.279 934.265C307.82 933.572 306.961 932.864 306.104 931.47C302.996 926.411 301.183 912.954 299.903 906.543C289.618 855.022 297.548 794.881 309.81 744.261C312.77 732.042 317.138 720.241 320.095 708.068C303.255 725.987 289.6 755.633 281.834 778.859C260.497 842.677 260.479 889.174 278.47 953.732C283.101 970.351 289.195 990.618 296.843 1005.97C272.623 990.905 243.142 981.03 215.367 975.116C209.235 973.81 203.025 972.659 196.783 972.036C193.371 971.695 189.863 971.851 186.481 971.398C185.331 971.244 184.583 970.993 183.687 970.217C179.818 960.763 198.776 916.282 203.188 904.583C205.297 898.99 207.137 893.362 208.848 887.635C213.251 872.9 216.629 858.161 217.264 842.739C213.83 854.328 212.183 866.443 208.619 878.048C206.457 885.084 203.45 891.824 201.015 898.764L182.849 951.378C176.32 946.796 168.201 943.761 161.118 940.01C146.897 932.479 132.503 924.361 118.95 915.686C123.282 903.641 130.015 892.346 134.247 880.256C136.284 874.435 137.317 868.199 139.056 862.267C143.61 846.741 148.396 831.163 153.84 815.926C162.351 792.104 181.178 743.088 200.568 727.278C209.693 719.838 224.476 713.793 235.192 708.473C256.311 697.736 277.787 687.715 299.582 678.426C310.778 673.616 322.547 669.702 333.536 664.494C336.925 659.142 339.608 653.199 342.75 647.68C354.436 627.159 361.66 622.114 380.048 609.294C380.654 607.756 381.092 606.12 381.584 604.539C379.281 603.977 376.985 603.39 374.695 602.777C361.752 599.224 350.556 585.8 341.501 576.386C316.616 550.516 293.314 522.752 275.521 491.435C264.016 471.185 253.98 447.906 249.599 424.987C247.996 416.601 248.392 406.656 246.096 398.705C241.293 382.071 230.015 361.074 230.008 343.868C230.007 340.073 230.787 336.78 231.79 333.157C228.562 329.081 225.449 324.916 222.713 320.49C198.841 281.879 198.195 235.173 208.543 192.25C224.008 128.104 256.186 85.5835 312.443 51.2732C341.331 33.6546 376.511 19.0758 410.856 27.4362C419.72 23.8117 428.515 20.9444 438.061 19.7771C482.843 14.3017 536.395 32.8576 574.103 56.1972C591.908 67.2175 607.763 80.1504 624.211 93.0317C628.414 89.412 633.027 86.344 638.55 85.1774C647.398 83.3085 656.597 87.7648 663.814 92.4294C671.964 80.2579 682.757 69.8475 694.572 61.2476C722.627 40.8286 765.228 23.2518 800.005 28.7415C776.201 30.8095 751.388 37.0912 730.728 49.56C740.572 47.3205 750.43 45.1459 760.545 44.597C779.134 43.5882 796.449 46.4511 810.694 59.1809ZM396.246 36.3269L395.841 36.7633C391.301 38.4497 386.665 41.6477 382.711 44.4403C363.603 57.9358 350.751 75.7126 337.758 94.7465C334.062 100.16 329.547 105.84 326.767 111.776C326.383 112.596 326.107 113.369 325.831 114.231C331.208 109.439 335.538 101.629 339.657 95.6867C346.657 85.5893 353.603 75.5727 361.734 66.3379C367.517 59.7694 373.887 53.4339 380.778 48.0432C384.788 44.9061 392.805 40.3312 395.841 36.7633L396.246 36.3269L396.998 36.1149L396.246 36.3269ZM599.467 100.316C591.178 101.488 582.819 105.058 574.621 107.066C558.864 110.816 542.923 113.745 526.863 115.844C521.66 116.558 495.398 118.218 492.536 119.845C523.673 119.182 551.474 116.125 581.348 106.966C587.179 105.178 594.227 103.392 599.467 100.316L599.997 100.002L599.467 100.316ZM279.223 128.235C266.169 134.999 247.023 153.799 238.116 165.313C234.818 169.577 232.479 175.353 228.842 179.179C230.299 173.034 234.66 166.181 237.85 160.656C246.492 145.692 255.955 131.438 267.951 118.937C272.862 113.819 278.472 109.348 283.279 104.181C279.753 105.517 276.173 109.133 273.318 111.604C242.12 138.602 213.815 185.4 210.784 227.082C218.269 203.173 231.234 183.453 246.413 163.833C251.337 157.469 256.216 150.985 261.72 145.106C267.285 139.162 273.484 133.974 279.223 128.235L279.462 128.002L279.223 128.235ZM685.941 120.48C692.746 118.601 699.061 115.421 706.046 114.058C728.442 109.69 758.99 116.932 779.618 126.112C785.801 128.863 791.351 132.971 797.549 135.646C797.686 135.705 797.824 135.762 797.962 135.819C798.282 136.045 798.635 136.352 798.993 136.507L799.727 137.143L800.775 137.676L801.114 138.083L801.925 138.498L801.114 138.083L800.775 137.676L799.727 137.143L798.993 136.507L797.962 135.819C787.135 125.216 756.885 115.112 742.335 109.914C751.039 110.223 759.49 111.063 768.113 112.252C762.767 110.347 757.331 108.709 751.823 107.344C738.878 104.14 722.162 99.8776 710.081 107.162C701.8 111.202 693.207 114.712 685.941 120.48ZM364.002 135.617L364.307 135.884C368.389 139.703 373.748 142.837 378.354 146.015C397.373 159.142 415.263 169.573 435.329 180.856C450.472 189.369 465.529 198.362 482.254 203.464C496.549 207.824 511.482 208.887 526.342 208.57C562.433 207.801 596.171 193.946 621.151 167.616C625.063 163.492 639.893 146.235 639.756 140.407C637.453 144.281 634.917 148.012 632.163 151.579C615.516 173.093 589.751 191.273 563.886 199.851C553.796 203.197 543.389 205.065 532.87 206.397C493.758 208.936 474.216 203.322 441.573 181.431C431.123 174.423 420.996 167.46 411.087 159.689C415.266 160.389 419.424 161.819 423.498 162.989C418.448 160.447 414.371 158.331 410.391 154.26C415.908 155.898 421.185 158.499 426.536 160.614C438.958 165.526 468.164 176.812 480.512 177.02C479.388 176.006 470.929 174.697 468.77 174.002C459.925 171.151 450.843 167.751 442.283 164.098C419.215 154.255 397.773 140.895 375.594 129.287C368.752 125.706 361.927 121.868 354.796 118.893C360.268 123.329 366.536 126.897 372.374 130.84C381.627 137.087 390.733 143.639 399.895 150.029C393.236 148.18 386.583 146.341 380.231 143.573C374.824 141.217 369.733 138.211 364.307 135.884L364.002 135.617ZM715.103 165.002L715.556 165.445L716.743 166.238L717.052 166.64L717.658 167.144L718.128 167.634L718.639 168.137L719.136 168.636L719.418 168.846C722.01 172.355 725.425 175.524 728.314 178.825C733.137 184.327 737.562 190.164 741.557 196.294C762.156 227.446 775.6 271.473 780.055 308.399C781.745 322.403 781.78 336.397 782.196 350.467L782.339 350.229C786.761 330.119 782.044 291.61 777.353 271.466C772.27 249.641 764.777 227.05 752.774 207.983C747.844 200.151 741.948 192.948 736.061 185.824C731.338 180.107 725.727 172.767 719.418 168.846L719.136 168.636L718.639 168.137L718.128 167.634L717.658 167.144L717.052 166.64L716.743 166.238L715.556 165.445L715.103 165.002ZM349.347 170.575L350.017 171.489L350.335 171.813C353.056 176.865 357.392 181.662 361.052 186.079C382.334 211.761 406.48 229.188 436.295 243.728C443.633 247.306 451.338 251.384 459.173 253.76C459.758 253.937 460.349 254.094 460.945 254.232L461.498 254.498L460.945 254.232C453.181 248.912 442.686 247.407 435.839 240.359C445.09 242.413 453.332 249.846 462.414 252.713L463.244 253.12L463.998 253.498L463.244 253.12L462.414 252.713C462.15 252.497 461.889 252.277 461.621 252.067C456.849 248.319 450.768 246.243 445.498 243.297C441.281 240.94 437.29 237.53 433.278 234.796L433.773 234.551C441.639 239.579 466.93 252.578 475.943 254.72L476.732 255.117L477.497 255.491L476.732 255.117L475.943 254.72C470.784 250.879 459.49 245.911 453.147 242.502C442.436 236.745 432.404 230.256 422.504 223.209L422.823 223.024C427.093 224.788 431.004 227.203 435.254 228.942L435.736 229.135L435.998 229.398L435.736 229.135C433.387 226.589 430.308 224.623 427.526 222.583C423.335 219.509 419.161 216.165 414.781 213.377C410.58 210.703 406.104 208.464 401.879 205.811C397.014 202.756 392.373 199.216 387.408 196.362L387.162 196.08L386.564 195.797L386.18 194.859L385.502 194.621L386.18 194.859L386.564 195.797L387.162 196.08L387.408 196.362C392.813 202.555 405.541 213.032 412.161 218.55C414.746 220.704 417.841 222.785 420.165 225.191C402.21 218.365 380.543 201.043 366.57 187.824C361.201 182.745 356.346 176.914 350.726 172.139L350.335 171.813L350.017 171.489L349.347 170.575ZM697.86 129.274C698.044 130.329 701.46 129.93 702.685 129.957C715.793 130.244 728.662 131.531 741.358 134.959C766.767 141.818 792.816 154.069 813.608 170.223C820.749 175.771 827.013 182.105 833.936 187.844L834.298 188.14L834.64 188.57L834.997 188.906L834.64 188.57L834.298 188.14C829.069 179.762 815.676 169.708 807.658 163.486C777.015 139.706 737.086 124.301 697.86 129.274ZM657.667 233.321L657.255 234.232C654.817 239.747 653.761 245.716 651.138 251.258C640.267 274.222 620.664 291.325 597.282 300.714C596.352 301.087 594.429 301.505 594.003 302.322C609.935 300.501 630.715 282.979 640.382 270.897C647.763 261.673 657.269 245.366 657.667 233.321L657.882 232.462L657.667 233.321ZM240.042 304.324C244.928 299.584 250.036 293.496 256.835 291.683C267.852 288.746 291.781 296.306 301.357 302.187L304.758 304.241L305.098 304.59C305.804 305.415 306.226 305.859 307.243 306.26L307.564 306.618L307.927 306.998L307.564 306.618L307.243 306.26C306.568 305.276 306.224 304.991 305.098 304.59L304.758 304.241C303.175 302.503 301.425 301.052 299.626 299.551C305.662 302.092 312.917 306.137 315.97 312.203L316.973 312.469C315.471 308.27 310.778 306.626 309.316 303.144C312.468 303.636 317.079 309.375 319.157 311.735L319.36 311.921C320.376 314.52 322.495 318.35 324.648 320.168C325.087 321.371 325.676 322.563 325.558 323.866C324.385 322.277 323.177 320.755 321.887 319.26L321.594 319.002L321.887 319.26C322.471 320.621 323.532 322.506 323.493 323.967C321.777 322.664 320.579 320.054 319.321 318.263L319.06 318.002L319.321 318.263C320.024 320.602 321.129 322.526 322.349 324.616C311.094 321.444 299.685 317.855 288.639 314.023C277.932 310.309 260.306 302.08 249.301 301.756C246.319 301.668 242.825 303.69 240.142 304.917C241.632 318.187 242.529 332.907 247.227 345.47C249.154 346.093 251.069 346.921 253.119 346.766L253.55 346.166C252.45 343.952 249.857 342.183 247.915 340.698C251.842 342.175 256.677 344.801 260.912 343.954L261.445 343.332C261.08 340.959 256.97 338.549 257.061 337.045C260.66 338.303 263.927 340.27 267.576 341.55C266.553 340.489 264.888 339.16 264.66 337.686C266.446 337.858 268.056 338.995 269.597 339.868C271.069 339.232 273.556 338.529 274.524 337.234C274.379 337.04 274.231 336.848 274.088 336.653C273.472 335.809 273.696 336.159 273.225 335.216C274.965 334.762 277.131 335.453 278.961 335.485C289.152 335.661 297.463 334.668 306.713 340.014C318.589 346.877 327.825 361.806 331.282 374.888C331.869 377.113 332.129 378.797 331.459 381.014L330.88 381.605L330.343 381.304C329.501 380.84 328.355 380.091 327.387 379.983C325.179 379.738 321.92 381.01 319.556 381.207C307.053 382.247 293.627 379.963 289.619 366.212C287.823 360.05 288.442 353.729 289.8 347.561C284.022 348.706 275.626 350.417 272.035 355.558C270.265 358.093 269.962 361.25 270.629 364.211C272.298 371.62 279.245 378.897 285.651 382.704C291.614 386.267 298.267 388.521 305.167 389.315C304.127 390.406 301.593 390.597 300.123 390.654C292.336 390.96 281.634 387.633 275.837 382.486C274.317 381.136 272.684 379.89 271.103 378.611C271.717 378.071 272.282 377.657 272.958 377.208C272.209 376.457 272.172 376.414 271.15 376.408C269.178 376.394 267.407 377.624 265.446 376.955L264.817 376.019C265.165 374.758 266.159 373.924 267.244 373.243C267.834 372.873 267.907 372.863 268.467 372.627C267.618 373.779 266.864 374.925 266.128 376.152L266.467 376.645L267.16 375.877C268.178 375.671 269.191 375.44 270.198 375.183L270.364 374.444L268.467 372.627C266.797 372.396 264.731 372.328 263.227 371.579L266.935 370.691L267.068 370.141C265.704 369.751 263.033 369.533 261.742 370.111C260.773 370.545 261.13 371.526 259.942 371.546C259.794 370.064 259.651 369.608 260.288 368.223C262.286 367.8 264.553 368.3 266.3 367.173C266.457 365.757 266.479 365.458 265.927 364.158C262.856 362.882 260.667 364.869 257.761 365.557C258.62 364.406 259.454 363.232 260.402 362.151L265.907 361.327L266.042 354.779C259.958 357.158 255.28 356.83 249.163 354.717C250.161 364.77 251.548 374.776 252.55 384.828C254.039 399.769 255.068 414.627 258.727 429.24C270.975 478.154 301.457 521.185 334.652 558.232C343.724 568.357 352.748 578.489 363.326 587.094C374.739 596.377 388.085 597.839 402.404 596.289C408.471 595.631 414.406 594.074 420.015 591.669C453.637 577.434 513.709 527.983 536.231 499.758C553.12 478.592 562.263 456.045 571.768 430.985C578.078 435.278 584.828 438.146 592.659 436.629C604.083 434.416 611.768 424.786 619.966 417.381C630.478 407.885 634.734 406.702 642.909 394.022C652.637 378.931 654.846 365.676 653.562 348.089C653.201 343.151 652.867 338.114 651.809 333.272C650.221 326.01 647.341 314.446 640.729 310.162C637.014 307.756 632.206 306.763 627.88 307.775C614.673 310.863 601.687 328.23 595.284 339.228C585.228 356.5 585.724 366.602 580.447 384.188C576.544 397.195 558.604 432.965 549.247 441.72C551.466 435.288 556.533 429.65 559.169 423.274C564.623 410.079 567.971 382.44 568.667 367.638C569.665 346.399 567.563 330.58 556.494 312.053C552.713 305.725 548.512 299.646 543.547 294.187C533.063 292.63 522.749 290.918 512.424 288.503C492.954 283.949 474.959 277.728 456.353 270.439C434.85 262.015 413.406 252.321 393.658 240.3C359.746 219.658 328.021 189.69 307.051 155.9C300.061 162.495 293.151 169.38 286.611 176.419C265.687 198.936 253.438 223.27 245.896 252.956C241.556 270.039 239.369 286.658 240.042 304.324ZM600.003 485.119L600.73 485.358L600.9 485.799C602.633 488.248 605.097 490.536 607.185 492.708C618.285 504.259 632.163 515.402 647.745 519.995C646.998 513.965 646.247 507.956 645.838 501.891C629.441 499.62 615.126 494.165 600.9 485.799L600.73 485.358L600.003 485.119ZM440.49 751.889C450.538 740.158 462.439 730.036 471.318 717.334C491.759 688.094 506.205 643.654 518.704 609.877C522.335 600.064 526.433 586.67 531.181 577.588C529.099 587.677 524.253 597.728 520.876 607.506C510.233 638.321 500.063 668.915 485.364 698.129C480.795 707.208 475.914 716.592 469.934 724.841C481.46 720.784 494.827 716.831 507.094 716.288C522.815 698.147 538.206 679.724 553.26 661.026C563.065 648.804 580.027 628.467 585.61 613.909C573.251 586.862 566.229 531.624 565.584 501.411C565.343 490.138 566.681 478.872 566.484 467.584C562.135 477.04 556.106 486.034 550.93 495.085C525.903 539.518 496.489 581.334 463.129 619.905C457.238 626.727 448.066 639.157 439.645 642.278C435.293 643.891 429.294 642.225 425.321 640.249C415.015 635.123 406.018 623.721 399.496 614.512C397.547 611.761 395.712 608.116 393.412 605.757L393.123 605.503L393.412 605.757C393.945 612.145 397.326 619.567 398.822 625.927C405.403 653.902 412.942 681.12 411.384 710.07C407.57 696.462 403.139 683.037 399.406 669.386C392.751 681.693 386.454 693.321 377.586 704.249L376.931 713.571C381.76 715.452 386.64 717.544 391.597 719.043C396.091 720.401 401.367 720.908 405.537 723.037C411.56 726.113 413.73 736.859 415.659 742.934C411.212 738.355 407.171 732.456 405.697 726.176C395.166 725.957 386.326 723.619 376.719 719.531C374.198 752.054 384.269 808.725 396.28 839.08C427.066 797.27 464.518 760.789 500.887 723.922C490.133 723.711 479.98 725.027 469.395 726.692C460.445 736.471 452.984 746.385 440.49 751.889ZM730.753 87.1879C715.054 88.8564 692.449 96.9451 682.159 109.448L682.352 110.726L681.865 109.863L682.15 110.796C687.474 109.225 692.58 104.929 697.704 102.493C715.868 94.4767 735.292 88.7512 755.233 88.3515C747.656 86.7994 738.433 86.0395 730.753 87.1879ZM638.502 92.7518C655.899 101.054 668.236 116.622 674.626 134.661C680.713 151.845 684.46 175.808 675.974 192.847C675.865 193.066 675.751 193.283 675.64 193.501C677.867 192.1 680.094 190.757 682.112 189.059C690.327 179.453 690.695 165.527 689.769 153.501C688.358 135.156 679.909 114.733 665.696 102.622C657.247 95.4219 649.52 92.9367 638.502 92.7518ZM633.883 94.9435C632.508 95.6416 631.598 95.7381 631.026 97.2077C631.417 98.3521 640.208 105.895 642.094 108.069C649.642 116.785 655.767 126.637 660.245 137.262C664.822 148.14 667.63 159.679 668.56 171.444C668.964 176.321 668.545 190.02 669.972 193.521L670.836 193.825L672.275 192.466C679.971 178.43 677.539 160.959 673.204 146.2C667.973 128.394 655.14 105.314 638.118 96.316C636.702 95.5671 635.46 95.1772 633.883 94.9435ZM640.595 138.75L641.025 138.75L640.595 138.75ZM640.126 139.75L640.588 139.75L640.126 139.75ZM343.859 141.924C355.215 154.278 365.386 167.549 377.533 179.191C415.255 215.343 462.315 245.819 513.326 258.815C523.102 261.306 532.873 263.669 543.002 264.068C573.356 265.263 602.644 255.114 624.959 234.286C630.684 228.942 635.356 222.845 640.598 217.076C630.254 240.88 607.39 268.258 582.973 277.82C579.733 279.089 567.975 281.886 566.11 283.256C581.618 282.448 599.153 273.254 610.299 262.797C629.753 243.818 643.904 223.304 653.008 197.497C656.067 188.825 658.704 180.184 659.053 170.915C657.576 176.348 656.181 181.717 654.03 186.939C644.011 211.259 624.647 234.819 601.743 247.985C578.247 261.49 553.889 266.292 527.426 259.098C492.715 249.663 457.601 228.137 429.288 206.233C422.137 200.7 415.871 194.088 408.668 188.628C402.131 183.673 394.992 179.62 388.117 175.167C382.936 171.811 377.921 168.107 372.919 164.492C368.5 161.337 364.186 158.04 359.981 154.605C355.595 151.028 348.604 144.042 343.859 141.924ZM707.635 143.25L708.245 143.25L707.635 143.25ZM707.743 143.432C728.542 151.54 752.69 162.145 767.733 179.251C774.496 186.941 779.831 195.939 785.318 204.556C793.416 217.272 800.886 230.021 806.987 243.84C815.651 263.464 820.724 285.648 823.429 306.894C824.296 313.697 824.617 320.54 825.44 327.333C826.447 320.351 825.686 312.589 825.075 305.567C822.142 271.875 811.775 234.927 793.934 206.05C812.807 222.428 827.85 254.108 834.611 277.971C837.985 290.043 840.127 302.426 841.005 314.93C842.923 342.477 837.094 371.007 828.801 397.153C817.088 436.398 806.12 469.912 808.733 511.581C808.996 515.779 808.641 522.37 810.138 526.079C810.896 520.608 809.924 509.251 809.986 503.109C810.135 487.412 811.73 471.762 814.752 456.358C820.005 429.881 830.131 404.693 836.273 378.482C848.492 326.347 843.58 284.664 821.186 236.177C814.802 222.356 807.463 208.09 798.243 195.936C793.899 190.171 788.789 185.026 783.055 180.643C775.619 175.026 767.085 170.822 758.936 166.338C745.53 158.96 723.264 145.727 708.311 143.49C708.123 143.461 707.932 143.451 707.743 143.432ZM269.763 154.047C240.269 182.181 226.811 207.309 225.846 248.495C225.731 253.395 225.681 258.493 226.198 263.363C229.506 235.158 231.373 214.877 245.883 189.064C251.314 179.521 257.464 170.407 264.282 161.8C265.498 160.256 269.709 155.827 269.763 154.047ZM419.635 164.75L420.245 164.75L419.635 164.75ZM420.636 165.25L421.245 165.25L420.636 165.25ZM421.637 165.75L422.245 165.75L421.637 165.75ZM422.633 166.25L423.245 166.25L422.633 166.25ZM423.632 166.75L424.245 166.75L423.632 166.75ZM659.089 170.25L659.501 170.25L659.089 170.25ZM481.131 177.25L481.745 177.25L481.131 177.25ZM683.213 197.023C679.013 199.444 675.063 200.774 670.356 201.864C675.621 235.997 676.633 267.219 667.963 300.99C666.441 306.783 664.657 312.505 662.616 318.136C660.974 322.665 658.666 327.508 657.875 332.264C656.869 338.31 658.126 345.011 658.687 351.062C660.588 371.565 656.119 386.773 643.869 403.519C637.566 412.136 629.408 417.609 621.511 424.487C616.175 429.134 611.692 434.521 605.618 438.29C601.577 440.797 597.171 442.584 592.449 443.265C590.435 443.556 588.455 443.444 586.443 443.23C586.451 447.077 586.546 450.947 586.346 454.788C598.258 466.142 617.156 474.331 633.736 474.056C636.766 474.006 639.812 473.757 642.836 473.554C636.933 475.465 630.565 475.84 624.391 475.992C614.498 475.748 605.358 474.357 595.926 471.287C610.778 481.83 627.755 493.248 645.58 497.825C644.652 454.519 655.713 411.23 670.148 370.672C678.224 347.983 687.787 324.796 691.375 300.871C694.6 279.37 692.85 256.299 690.113 234.834C688.934 225.581 687.429 216.509 685.741 207.343C685.114 203.94 684.829 200.483 683.77 197.176L683.213 197.023ZM228.625 206.25L229.049 206.25L228.625 206.25ZM228.163 206.856C225.009 213.711 222.453 220.825 220.523 228.12C217.03 241.53 213.991 264.97 216.811 278.621C217.323 264.31 218.35 250.058 220.971 235.956C221.916 230.872 228.556 209.172 228.163 206.856ZM717.892 211.835C728.683 253.202 729.125 285.884 725.549 328.434C724.35 342.692 722.553 356.91 721.554 371.182C718.581 408.784 718.479 446.558 721.25 484.175C721.334 481.923 721.39 479.669 721.417 477.415C720.691 453.224 720.739 429.452 723.9 405.408C727.75 376.123 734.594 347.246 735.288 317.619C735.867 292.927 731.839 267.452 726.71 243.379C724.829 234.554 722.703 219.399 717.892 211.835ZM658.089 231.25L658.501 231.25L658.089 231.25ZM864.484 243.342C865.309 264.753 860.304 285.797 861.039 307.1L863.969 301.799C871.957 286.997 874.406 271.696 869.542 255.376C868.42 251.609 866.811 246.529 864.484 243.342ZM464.641 253.75L465.245 253.75L464.641 253.75ZM465.639 254.25L466.245 254.25L465.639 254.25ZM462.134 254.75L462.745 254.75L462.134 254.75ZM466.64 254.75L467.245 254.75L466.64 254.75ZM467.636 255.25L468.245 255.25L467.636 255.25ZM478.137 255.75L478.745 255.75L478.137 255.75ZM479.38 256.25L480.245 256.25L479.38 256.25ZM480.635 256.75L481.245 256.75L480.635 256.75ZM747.539 256.848C747.615 276.141 747.923 295.127 745.989 314.367C743.987 334.286 739.709 353.844 737.312 373.691C734.495 397.006 734.525 421.068 735.226 444.508C735.546 455.171 735.342 467.351 737.892 477.74L737.958 477.113C736.096 454.657 736.704 432.064 739.77 409.74C742.433 390.299 746.436 371.114 748.748 351.603C751.506 328.324 751.861 306.296 750.018 282.937C749.47 275.984 749.097 263.049 747.539 256.848ZM318.673 317.25L319.198 317.25L318.673 317.25ZM235.226 339.211C232.852 346.988 243.089 375.189 246.31 383.578L247.01 384.177C246.541 373.929 246.004 348.733 238.6 341.8C237.545 340.812 236.512 339.888 235.226 339.211ZM297.972 361.105C297.229 362.899 296.601 364.585 297.577 366.47C298.293 367.854 299.726 368.487 301.187 368.722C302.061 368.863 302.905 368.776 303.781 368.699C304.525 367.157 304.789 366.831 304.602 365.076C303.623 363.69 302.861 363.31 301.395 362.619C300.261 362.084 299.144 361.553 297.972 361.105ZM321.776 366.194L321.141 368.92C322.457 370.17 321.227 369.234 322.649 369.793C323.779 370.238 324.407 371.695 324.939 372.699L325.41 372.801C325.61 370.992 324.47 369.388 323.376 368.036C322.858 367.409 322.325 366.795 321.776 366.194ZM319.475 369.928C316.911 371.809 314.106 374.085 312.637 376.955L312.611 378.198C313.791 379.236 314.691 379.45 316.266 379.326C316.992 379.269 317.717 379.168 318.438 379.071C321.109 378.316 323.19 377.021 325.349 375.295C323.452 373.396 321.592 371.587 319.475 369.928ZM738.089 478.75L738.5 478.75L738.089 478.75ZM716.226 562.946L716.745 563.25L716.226 562.946ZM589.828 599.202C590.224 600.785 590.508 602.969 591.491 604.259L592.355 604.138C592.653 602.575 592.857 602.165 592.252 600.65C591.458 600.154 590.673 599.602 589.828 599.202ZM636.524 599.843C638.055 606.395 641.419 616.154 640.89 622.644C639.48 639.978 614.154 683.506 604.769 698.611C587.21 726.873 568.339 753.896 549.197 781.076C533.383 803.53 517.448 826.722 499.064 847.165C485.671 862.059 470.708 875.565 455.763 888.865C459.553 893.663 463.202 898.483 466.108 903.885C466.74 905.061 467.735 907.826 468.974 908.084L470.361 906.691L507.263 868.723C512.435 863.304 517.815 858.07 522.718 852.402C555.638 814.343 584.274 772.141 610.517 729.308C618.574 716.158 627.129 703.131 634.566 689.632C639.722 680.273 643.759 670.322 648.051 660.548C651.352 653.033 655.024 645.483 657.778 637.758C655.113 632.969 639.329 602.031 636.524 599.843ZM377.425 615.069C367.018 623.371 358.146 634.201 351.241 645.559C329.047 682.067 313.677 744.018 308.954 786.256C306.542 807.775 305.953 829.459 307.191 851.077C308.589 876.092 311.781 900.712 312.091 925.834C315.477 920.068 318.225 913.966 321.606 908.209C329.492 894.781 340.024 881.323 350.661 870.004C358.113 861.622 365.899 853.542 373.998 845.782C362.152 851.344 350.408 865.448 342.007 875.485C339.396 878.605 333.35 887.597 329.985 889.076C327.881 888.09 326.99 885.559 326.246 883.5C312.538 845.563 320.257 761 329.776 722.694C336.217 697.456 345.169 672.927 356.499 649.473C360.066 641.993 363.922 634.404 368.449 627.457C370.994 623.549 375.871 619.306 377.425 615.069ZM329.397 673.016C311.677 681.46 293.898 689.781 276.061 697.978C260.319 705.188 211.204 725.348 201.082 736.191C182.326 756.285 166.918 800.564 157.502 826.783C154.051 836.394 150.091 846.536 147.883 856.494C157.147 836.417 165.2 815.706 174.027 795.423C177.939 786.434 182.643 777.809 186.571 768.84C186.376 776.359 185.438 783.859 185.454 791.375C184.706 822.93 186.876 853.996 189.833 885.39C190.696 894.544 191.089 903.852 192.25 912.961C193.929 907.747 195.775 902.539 196.525 897.093C197.306 891.433 196.767 885.426 196.608 879.723L195.655 850.062C194.744 819.451 195.236 764.192 209.814 737.128C211.246 734.469 214.268 733.021 216.859 731.649C230.716 724.315 245.885 718.428 260.223 712.067C282.921 701.998 305.627 691.369 327.63 679.875C328.341 677.878 329.702 675.14 329.397 673.016ZM696.283 679.688L691.844 689.587C705.1 695.885 717.936 702.796 731.007 709.452C745.567 716.866 760.298 724.043 774.556 732.031C793.343 742.557 812.005 754.414 829.619 766.772C831.943 766.341 834.301 765.974 836.605 765.448L842.622 764.215C815.389 746.382 787.612 729.395 759.331 713.278C738.607 701.568 717.316 690.826 696.283 679.688ZM681.278 889.352C671.893 919.359 670.172 953.934 672.725 985.119C673.902 965.287 675.294 945.282 677.174 925.513C677.869 918.206 682.236 893.968 681.278 889.352Z"/><path d="M810.694 59.1809L810.941 59.4232L810.694 59.1809Z"/><path d="M228.617 179.498L228.842 179.179L228.617 179.498Z"/><path d="M400.29 206.239L400.002 206.002L400.29 206.239Z"/><path d="M400.29 206.239C402.58 207.56 404.152 209.041 405.426 211.37C403.508 209.807 401.726 208.284 400.29 206.239Z"/><path d="M406.5 212.5L406.002 212.002L406.5 212.5Z"/><path d="M406.5 212.5L406.808 212.817L406.5 212.5Z"/><path d="M406.808 212.817C409.052 214.055 411.295 215.656 412.777 217.779C410.269 216.533 408.411 215.134 406.808 212.817Z"/><path d="M412.777 217.779L413.085 218.081L412.777 217.779Z"/><path d="M413.085 218.081L413.612 218.541L413.085 218.081Z"/><path d="M420.165 225.191L420.441 225.401L420.165 225.191Z"/><path d="M435.839 240.359L435.517 240.114L435.839 240.359Z"/><path d="M421.844 297.907C436.314 291.05 454.379 286.977 470.266 285.191C470.301 285.185 470.335 285.176 470.371 285.173C494.471 283.035 509.923 289.376 529.054 303.246C521.769 300.802 514.011 298.346 506.312 297.747C489.559 296.445 466.631 305.586 450.578 310.959C439.994 314.605 429.126 319.155 418.047 320.897L417.763 314.562C417.411 316.357 417.284 317.925 415.944 319.221L415.136 318.83C413.019 314.035 413.754 308.013 415.429 303.162C415.988 301.543 416.649 299.994 418.278 299.216C418.722 301.26 416.79 306.264 416.306 308.616C418.276 305.09 419.724 301.384 421.844 297.907Z"/><path d="M405.728 312.949C405.768 313.983 405.617 313.507 406.179 314.374C405.92 311.359 405.563 307.702 406.734 304.826C407.239 303.586 407.749 303.258 408.944 302.784C409.625 303.788 408.371 307.003 408.738 308.567C409.554 312.05 409 317.941 410.953 320.858L411.393 320.484C411.35 319.118 410.95 318.228 410.652 316.947C409.551 312.226 409.924 305.696 412.622 301.625C413.899 301.917 413.332 301.661 414.344 302.35C413.315 306.449 413.371 319.859 411.616 322.203C409.986 321.906 408.74 320.698 407.452 319.718C406.262 316.775 404.198 314.164 403.584 310.996C403.109 308.546 403.07 305.986 404.499 303.873C405.026 304.643 405.268 311.206 405.728 312.949Z"/><path d="M314.514 304.987L314.002 304.6L314.514 304.987Z"/><path d="M314.514 304.987L314.854 305.274L314.514 304.987Z"/><path d="M314.854 305.274C319.725 307.753 325.611 317.425 327.456 322.499C327.771 323.364 327.989 324.261 328.184 325.159C326.857 323.625 326.063 321.515 324.648 320.168C323.748 316.953 321.906 314.081 319.36 311.921L319.157 311.735C317.933 309.426 316.39 307.379 314.854 305.274Z"/><path d="M408.081 323.749C406.863 323.138 405.886 322.276 404.925 321.319C401.197 317.608 400.45 311.72 400.353 306.706C403.271 310.455 405.563 319.027 408.081 323.749Z"/><path d="M402.833 321.695C402.129 321.522 401.67 321.312 401.149 320.794C398.264 317.927 397.38 314.21 397.433 310.259C399.477 314.04 400.396 317.928 402.833 321.695Z"/><path d="M616.326 365.226C613.702 362.811 608.783 359.202 605.114 359.113C604.906 359.108 604.698 359.141 604.49 359.154L603.903 359.923C606.318 366.702 620.136 369.762 613.604 383.613C611.752 387.539 608.552 390.601 605.231 393.294L605.294 393.933C606.522 393.911 606.687 393.915 607.698 393.236C608.292 394.384 608.487 394.513 609.593 395.203C611.155 395.154 611.726 394.839 612.996 394.028C613.855 394.297 613.698 394.361 614.427 394.282C625.497 393.085 634.5 380.5 641.041 372.49C640.51 375.587 639.685 378.608 638.385 381.472C633.787 391.603 624.556 397.831 613.719 399.85C609.089 400.712 604.125 400.842 599.823 402.945C595.778 404.922 593.928 410.038 590.148 411.449C589.01 411.161 588.554 410.97 587.994 409.795C585.892 405.382 593.636 396.516 594.758 391.764L594.931 391.012C597.451 389.57 599.855 388.196 601.511 385.71C603.736 382.373 603.172 379.251 602.367 375.612C600.324 373.399 596.464 370.671 596.215 367.44C595.502 358.178 612.591 333.294 618.947 326.41C621.857 323.258 626.108 318.896 630.688 318.929C632.745 318.943 634.486 319.915 635.877 321.384C643.694 329.643 646.021 353.511 645.964 364.348C642.602 355.197 640.25 345.305 636.543 336.367C635.195 333.118 633.377 329.57 629.993 328.144C628.744 328.19 628.437 328.109 627.435 328.82L627.62 330.513C626.891 330.55 626.173 330.548 625.443 330.543C623.368 332.003 621.687 333.755 619.927 335.563C621.16 336.26 622.359 336.951 623.222 338.103C628.233 344.8 630.375 359.754 628.891 367.985C627.463 375.904 623.692 385.553 616.871 390.275C618.438 388.244 620.162 386.316 621.614 384.2C628.488 374.183 628.306 361.163 626.093 349.618C625.386 345.929 624.434 341.523 621.156 339.297L620.491 339.93C619.467 339.869 619.108 339.086 618.435 338.352C617.771 338.501 617.257 339.675 616.872 340.255C617.339 345.204 623.323 349.473 625.07 354.334C625.892 356.621 626.402 359.947 625.322 362.178C625.234 360.747 625.252 359.255 624.488 357.997C621.339 352.807 614.168 350.684 608.565 349.504C612.485 352.894 616.257 355.361 619.185 359.802C620.976 362.518 622.255 365.677 624.474 368.07C625.27 370.546 626.102 372.195 624.849 374.638C624.563 375.197 624.239 375.723 623.906 376.254C624.033 374.689 623.952 374.42 623.274 372.997L623.386 372.686L623.802 373.015L623.616 372.494C622.391 373.555 621.671 379.189 621.271 380.97C621.46 377.442 621.526 373.955 621.478 370.423C619.99 368.536 618.506 366.326 616.326 365.226Z"/><path d="M414.597 320.985L414.233 320.882L414.38 320.305L414.71 320.388L414.597 320.985Z"/><path d="M511.222 336.246C494.658 326.731 476.486 323.212 457.773 328.167C443.817 331.863 432.708 340.178 425.568 352.769C424.633 354.416 423.836 356.147 422.933 357.816L422.566 357.554L422.622 356.59C426.769 344.521 433.66 335.02 445.405 329.286C460.314 322.007 479.775 321.577 495.302 327.026C500.124 328.718 508.14 331.985 511.222 336.246Z"/><path d="M330.388 349.681C324.237 341.643 317.319 335.495 307.782 331.772C296.956 327.544 282.998 327.377 271.897 330.656C268.071 331.786 264.349 333.597 260.7 335.204L260.05 334.812L259.647 335.157C269.397 328.303 276.302 325.821 288.219 325.203C298.92 325.388 308.324 327.548 317.311 333.571C332.702 343.886 339.949 357.92 343.553 375.811C338.955 367.051 336.29 357.781 330.388 349.681Z"/><path d="M442.46 383.598C434.976 383.086 427.906 380.269 420.334 380.475C420.855 368.263 429.386 354.017 438.18 345.854C449.145 335.679 464.016 330.921 478.834 331.497C485.297 331.812 491.699 332.908 497.899 334.76C508.855 337.935 518.578 342.818 530.131 338.992C524.165 345.336 518.012 348.979 510.887 353.792C514.059 355.121 517.217 356.074 520.539 356.957C518.51 357.594 516.5 358.289 514.512 359.043C513.324 367.492 511.961 372.768 504.7 378.179C493.042 386.867 469.162 389.736 454.957 387.464C453.975 387.307 453.077 387.04 452.138 386.72L452.687 386.354C466.938 388.416 486.11 386.684 497.808 377.536C502.421 373.929 507.826 366.319 509.542 360.732L509.322 359.543C508.13 359.133 507.51 359.537 506.332 359.87C502.024 367.39 502.287 369.81 494.398 375.183C497.93 371.309 500.394 367.95 502.547 363.168C500.471 356.144 497.081 352.09 491.163 347.845C493.565 354.951 493.99 364.172 490.603 371.035C488.221 375.861 483.655 379.164 478.567 380.694C473.218 382.302 467.722 381.461 462.892 378.727C456.935 375.356 452.931 369.519 451.282 362.937C450.004 357.838 450.476 352.818 450.839 347.644C441.763 352.698 434.023 359.315 428.285 368.046C430.009 375.464 432.635 377.385 438.989 381.327C440.171 382.06 441.366 382.737 442.46 383.598ZM457.195 347.901C455.742 348.826 454.464 349.435 453.815 351.127C453.921 352.479 453.997 353.194 455.049 354.148C456.301 355.282 458.005 355.998 459.553 356.615C460.884 355.93 461.628 355.562 462.347 354.163C462.305 352.357 462.025 351.484 460.664 350.239C459.59 349.258 458.546 348.443 457.195 347.901ZM479.563 364.499C477.978 365.101 477.064 365.511 475.957 366.815C475.652 367.938 475.34 368.614 475.966 369.727C476.59 370.838 477.983 371.857 479.226 372.103C480.209 372.297 481.277 372.275 482.277 372.276C483.927 371.453 484.932 370.862 486.067 369.393C486.309 368.199 486.54 367.696 485.678 366.656C484.424 365.142 481.403 364.691 479.563 364.499ZM425.586 372.854C424.135 374.344 422.575 375.864 422.562 378.082C422.557 378.939 422.887 379.1 423.38 379.729C425.006 380.412 426.412 379.945 428.065 379.606C429.584 378.775 430.332 378.762 430.851 377.061C430.384 375.439 429.631 374.45 428.111 373.64C427.22 373.165 426.568 373 425.586 372.854Z"/><path d="M625.5 333.5C625.396 333.12 625.172 332.541 625.165 332.154C625.305 332.597 625.501 333.033 625.5 333.5Z"/><path d="M628.86 332.669L628.618 332.002L628.86 332.669Z"/><path d="M628.86 332.669L629.807 333.058L628.86 332.669Z"/><path d="M629.807 333.058L630.108 333.63L629.807 333.058Z"/><path d="M625.5 333.5L626.208 334.917L625.5 333.5Z"/><path d="M630.108 333.63L630.637 334.143L630.108 333.63Z"/><path d="M630.637 334.143L631.075 334.695L630.637 334.143Z"/><path d="M626.208 334.917L626.622 335.743L626.208 334.917Z"/><path d="M631.075 334.695L631.497 335.391L631.075 334.695Z"/><path d="M626.622 335.743L627.158 336.815L626.622 335.743Z"/><path d="M511.222 336.246L511.431 336.466L511.222 336.246Z"/><path d="M627.158 336.815L627.642 337.789L627.158 336.815Z"/><path d="M627.642 337.789L628.133 338.752L627.642 337.789Z"/><path d="M628.133 338.752L628.381 338.998L628.133 338.752Z"/><path d="M240.42 352.253L240.147 352.002L240.42 352.253Z"/><path d="M240.42 352.253C241.259 353.465 241.474 353.503 241.317 354.943C240.233 353.938 240.527 353.666 240.42 352.253Z"/><path d="M616.024 365.899L616.326 365.226L616.024 365.899Z"/><path d="M624.474 368.07C624.416 367.396 624.236 366.764 624.52 366.136L625.098 366.918L624.474 368.07Z"/><path d="M616.024 365.899L617.14 367.004L617.095 367.942L616.345 367.504L616.024 365.899Z"/><path d="M614.712 369.869L614.594 368.502L614.712 369.869Z"/><path d="M614.712 369.869L615.494 370.453L614.712 369.869Z"/><path d="M617.332 386.804C618.69 381.781 619.063 376.834 619.299 371.655C619.332 370.942 619.265 371.221 619.549 370.634C621.06 373.384 620.065 380.366 619.238 383.278C618.838 384.689 618.298 385.699 617.332 386.804Z"/><path d="M615.494 370.453C616.964 372.132 617.099 373.857 617.074 375.999C616.028 374.344 615.358 372.444 615.494 370.453Z"/><path d="M623.608 376.498L623.906 376.254L623.608 376.498Z"/><path d="M616.5 380C616.544 379.503 616.499 379.087 616.784 378.665L616.5 380Z"/><path d="M270.895 380.586C270.811 380.578 270.721 380.592 270.641 380.563C269.468 380.131 269.483 379.506 269.052 378.41C269.866 378.755 270.222 379.035 270.874 379.604L270.895 380.586Z"/><path d="M615.782 382.131L616.5 380L615.782 382.131Z"/><path d="M615.306 383.328L615.782 382.131L615.306 383.328Z"/><path d="M614.873 384.28L615.306 383.328L614.873 384.28Z"/><path d="M442.46 383.598L442.998 383.915L442.46 383.598Z"/><path d="M614.321 385.28L614.873 384.28L614.321 385.28Z"/><path d="M614.061 385.498L614.321 385.28L614.061 385.498Z"/><path d="M616.903 387.097L617.332 386.804L616.903 387.097Z"/><path d="M615.741 388.713C616.076 388.132 616.494 387.628 616.903 387.097C616.53 387.654 616.188 388.213 615.741 388.713Z"/><path d="M615.358 389.056L615.741 388.713L615.358 389.056Z"/><path d="M614.817 389.617L615.358 389.056L614.817 389.617Z"/><path d="M614.33 390.094L614.817 389.617L614.33 390.094Z"/><path d="M614.003 390.402L614.33 390.094L614.003 390.402Z"/><path d="M616.427 390.65L616.871 390.275L616.427 390.65Z"/><path d="M616.088 390.995L616.427 390.65L616.088 390.995Z"/><path d="M610.195 393.73L611.135 392.105L611.951 391.934C611.493 392.871 611.065 393.173 610.195 393.73Z"/><path d="M607.698 393.236L607.873 392.502L607.698 393.236Z"/><path d="M612.996 394.028L613.661 393.1L612.996 394.028Z"/><path d="M609.935 394.101L610.195 393.73L609.935 394.101Z"/><path d="M609.564 394.462L609.935 394.101L609.564 394.462Z"/><path d="M596.667 419.635L596.195 418.841C602.493 412.974 611.449 407.768 619.967 406.17L620.246 406.436C620.072 406.695 619.922 406.973 619.722 407.213C616.056 411.601 602.397 418.619 596.667 419.635Z"/><path d="M402.002 455.715C402.731 458.199 403.106 461.027 402.493 463.574C401.774 466.561 399.732 468.802 397.173 470.387C395.865 471.197 394.436 471.88 392.884 471.503C392.339 470.201 392.672 470.013 393.188 468.678C391.838 468.226 390.229 468.432 388.806 468.501C381.327 468.861 379.665 472.102 373.576 474.138C365.593 476.806 355.448 471.502 348.336 467.926C344.921 466.208 340.721 462.909 339.577 459.095C337.142 450.978 345.217 438.449 349.194 431.455C349.658 435.401 342.461 446.13 342.893 454.215C345.597 458.328 362.073 471.857 366.476 473.137C369.09 473.896 371.93 474.016 374.366 472.646C377.343 470.971 377.806 468.224 378.568 465.174C381.255 463.551 385.515 460.939 388.779 461.76C391.121 462.349 391.694 463.549 393.023 465.333C393.981 466.617 394.167 466.736 395.78 466.915C396.872 466.362 397.343 466.168 398.007 465.09C400.91 460.379 399.917 453.629 398.92 448.565C400.09 450.907 401.053 453.279 402.002 455.715Z"/><path d="M548.927 442.106L549.247 441.72L548.927 442.106Z"/><path d="M548.326 443.226L548.927 442.106L548.326 443.226Z"/><path d="M548.1 443.471L548.326 443.226L548.1 443.471Z"/><path d="M378.237 447.806L378.998 447.608L378.237 447.806Z"/><path d="M377.848 448.272L378.237 447.806L377.848 448.272Z"/><path d="M344.998 451.298C344.59 450.474 344.482 450.206 344.372 449.352C346.477 449.196 349.127 450.795 351.202 451.4C360.708 454.171 369.019 452.016 377.848 448.272C374.254 452.443 366.781 455.243 361.547 455.778C356.016 456.342 349.418 454.813 344.998 451.298Z"/><path d="M397.421 504.328C393.071 502.922 388.61 500.574 384.027 500.244C375.722 499.646 370.497 505.009 362.737 498.098C365.501 498.302 368.32 499.066 371.069 499.083C382.655 499.155 386.929 494.759 397.421 504.328Z"/><path d="M360.743 499.407L360.985 499.124L360.743 499.407Z"/><path d="M418.5 518.95C413.74 518.697 408.997 518.531 404.26 519.192C395.547 520.407 387.144 523.036 378.262 523.005C373.422 522.988 368.66 522.012 363.937 521.051C360.497 520.351 356.988 519.748 353.666 518.594L355.544 517.082C353.744 516.456 347.235 518.921 344.778 519.099C341.487 519.337 339.109 518.839 336.631 516.628L336.723 515.764C338.89 513.216 342.316 511.94 345 509.996C348.493 507.468 351.576 504.33 355.231 502.028C356.985 500.924 358.771 500.059 360.743 499.407C357.473 503.013 348.174 508.54 343.383 512.944C349.3 512.284 356.057 511.421 361.996 511.472C366.456 511.51 370.891 512.265 375.361 512.247C381.975 512.222 388.573 511.339 395.209 511.305C401.255 511.273 407.474 512.241 413.484 512.948C418.046 513.485 429.447 513.735 432.218 517.243L432.103 518.193C429.117 520.22 422.123 519.103 418.5 518.95Z"/><path d="M397.421 504.328L398.5 505C397.816 504.803 398.204 504.973 397.421 504.328Z"/><path d="M398.5 505L399.841 505.685L398.5 505Z"/><path d="M399.841 505.685L399.998 505.998L399.841 505.685Z"/><path d="M348.364 531.079C354.368 537.778 360.695 542.739 369.571 544.986C385.393 548.99 403.361 546.284 417.297 537.928C415.842 539.861 414.077 541.464 412.316 543.112C404.721 550.215 394.462 558.023 383.509 557.463C369.928 556.769 362.109 548.008 353.417 538.714C351.434 536.38 349.94 533.694 348.364 531.079Z"/><path d="M623.217 534.223L623.627 534.572L623.217 534.223Z"/><path d="M623.627 534.572L623.997 534.884L623.627 534.572Z"/><path d="M417.297 537.928L417.498 537.615L417.297 537.928Z"/><path d="M904.654 559.751L904.091 559.752L904.654 559.751Z"/><path d="M531.998 576.25L531.708 575.966L531.998 576.25Z"/><path d="M531.181 577.588L531.424 577.003L531.181 577.588Z"/><path d="M896.929 652.795L897.664 653.15L896.929 652.795Z"/><path d="M897.664 653.15L898.129 653.603L897.664 653.15Z"/><path d="M898.129 653.603L898.497 653.879L898.129 653.603Z"/><path d="M431.07 727.702C427.865 719.24 425.842 679.965 426.175 669.828C427.589 673.775 427.729 678.857 428.19 683.051C429.831 697.975 430.647 712.711 431.07 727.702Z"/><path d="M773.177 675.768L773.411 675.962L773.177 675.768Z"/><path d="M816.228 700.748L816.61 701.071L816.228 700.748Z"/><path d="M816.61 701.071C817.152 701.461 817.697 701.822 818.181 702.285C817.632 701.941 817.118 701.475 816.61 701.071Z"/><path d="M818.181 702.285L818.413 702.453L818.181 702.285Z"/><path d="M875.042 726.733L875.376 726.997L875.042 726.733Z"/><path d="M886.5 768.75L886.23 768.489L886.5 768.75Z"/></svg>