<?xml version="1.0" encoding="utf-8" ?><svg xmlns="http://www.w3.org/2000/svg" xmlns:xlink="http://www.w3.org/1999/xlink" width="1024" height="1024" viewBox="0 0 1024 1024"><path fill="white" d="M0 0L0 1024L1024 1024L1024 0L0 0Z"/><path d="M858.003 562.54L858.21 562.813L858.454 563.188C861.369 567.562 865.111 571.579 868.425 575.68C872.173 580.362 875.695 585.222 878.979 590.242C903.099 626.731 921.875 666.721 925.093 710.862C926.054 724.038 925.763 737.668 923.203 750.658C919.145 771.251 909.886 789.018 895.094 803.864C899.502 806.521 903.941 808.946 907.361 812.893C915.044 821.76 920.104 834.288 925.284 844.786C946.087 886.951 961.754 930.762 976.186 975.427C981.393 991.541 985.71 1008.02 991.278 1024L681.002 1024C685.178 1014.57 694.397 1005.2 700.804 997.061C708.391 987.43 715.556 977.637 721.987 967.188C749.501 922.484 767.626 871.26 782.015 820.99C786.962 803.704 791.95 785.905 794.964 768.17C786.236 764.349 777.538 760.304 768.582 757.047C767.91 800.205 737.84 869.962 717.698 908.202C706.9 928.483 694.975 948.144 681.979 967.092C667.857 987.453 652.049 1005.77 635.326 1024L609.562 1024C622.942 1011.65 635.344 997.775 646.989 983.8C702.43 917.252 740.923 838.262 759.174 753.59C756.473 751.816 753.858 750.272 750.914 748.937C747.332 775.613 739.994 800.365 730.775 825.584C703.436 901.543 657.93 969.661 598.226 1024L583.482 1024C588.861 1017.95 594.806 1012.37 600.245 1006.36C611.398 993.779 622.196 980.889 632.626 967.704C666.348 924.951 694.055 877.782 714.976 827.51C720.896 813.575 726.775 799.549 731.253 785.073C735.395 771.682 738.345 758.33 740.982 744.584C707.136 726.337 690.803 715.185 667.442 684.24C659.925 674.281 653.138 663.019 644.075 654.399C647.64 667.813 648.935 683.795 648.584 697.691C648.279 709.788 646.19 722.186 644.812 734.234C640.246 774.172 633.5 820.343 623.446 859.015C617.012 883.101 609.22 906.802 600.106 930.007C596.725 938.768 592.719 947.302 588.924 955.889C583.389 968.414 577.879 980.915 571.663 993.123C566.382 1003.5 560.5 1013.54 555.382 1024L492.902 1024C500.15 1014.31 510.373 1005.99 518.932 997.377C536.241 979.954 560.528 954.292 574.31 934.13C572.202 930.056 570.509 925.951 569.02 921.614C558.365 935.637 547.747 949.873 535.562 962.626C526.876 971.717 517.961 980.654 509.134 989.615C501.019 997.854 492.36 1006.3 485.733 1015.81C487.65 1018.49 489.441 1021.19 491.148 1024L483.099 1024C478.05 1017.08 474.28 1008.67 470.06 1001.19C445.619 957.871 427.145 911.705 411.823 864.481C409.41 857.043 406.736 849.664 404.529 842.164C399.756 825.948 395.865 809.448 391.643 793.083C384.621 765.866 377.272 738.271 374.42 710.248C381.352 699.176 384.266 682.233 386.946 669.393C378.614 677.611 370.466 685.91 362.859 694.815C354.166 704.993 346.5 715.707 336.319 724.547C323.548 735.637 307.537 743.569 293.34 752.721C310.27 826.778 360.96 897.046 412.017 952.004C422.298 963.071 432.731 974.123 443.262 984.955C455.654 997.701 468.238 1010.3 479.599 1024L457.932 1024C412.771 983.014 364.315 933.696 332.22 881.719C320.621 862.582 310.479 842.599 301.88 821.939C292.883 800.752 285.606 780.086 280.353 757.656C278.431 759.126 276.394 760.472 274.412 761.861C276.504 770.529 278.67 779.201 281.428 787.685C291.717 819.341 310.999 861.266 328.538 889.37C351.719 926.513 383.942 964.544 415.277 995.256C425.261 1005.04 435.05 1015.07 445.825 1024L427.278 1024C416.293 1015.3 405.668 1005.35 395.804 995.388C381.269 980.706 368.176 965.439 355.335 949.281C346.038 937.583 336.837 925.915 328.437 913.542C308.058 883.035 290.993 850.44 277.532 816.311C271.434 800.557 264.849 783.943 264.921 766.821C254.748 771.386 244.534 775.553 234.121 779.533C237.639 796.21 244.456 816.542 250.515 832.553C272.53 890.736 300.479 934.224 340.346 981.44C352.81 996.203 365.521 1011 379.853 1024L35.3226 1024C39.2459 1010.58 41.7619 996.757 45.3018 983.228C56.9272 938.798 69.4545 894.528 87.4599 852.216C90.0086 846.226 92.3559 840.071 95.1531 834.197C96.81 830.718 98.9124 827.381 102.041 825.046C110.786 818.519 129.379 812.748 139.998 808.512C149.767 804.614 159.297 800.257 169.238 796.79C150.519 788.96 131.991 774.675 120.441 757.91C106.722 737.996 105.493 720.285 109.672 697.091L109.912 696.503L109.672 697.091C106.592 701.743 105.05 707.779 103.702 713.13C99.3883 730.251 97.7928 747.523 101.373 764.963C105.033 782.79 112.077 793.632 125.878 805.067C104.873 796.574 90.1702 784.378 81.2085 763.042C65.4273 725.471 73.162 680.078 88.3714 643.498C103.28 607.642 123.679 574.396 142 540.244C159.368 507.533 174.539 473.703 187.415 438.978C198.76 407.6 208.039 375.514 215.193 342.925C222.329 309.488 227.08 275.524 234.884 242.223C247.288 189.293 268.566 131.871 306.137 91.3795C327.739 68.0989 355.658 49.856 384.975 37.8395C397.437 32.7315 411.62 28.2235 425.029 26.8573C430.97 26.252 437.359 27.1048 443.159 26.0154C451.344 24.4779 458.692 19.7685 467.101 18.1283C503.918 10.947 542.999 18.7829 577.177 33.1186C630.056 55.4973 674.734 93.6587 705.106 142.388C719.104 165.158 729.627 189.43 739.679 214.124C753.009 246.868 762.1 276.647 770.844 310.784C778.846 342.025 783.601 374.973 798.843 403.729C819.102 441.947 848.874 475.255 878.235 506.715C916.816 548.054 962.919 588.928 977.571 645.818C980.997 659.121 982.701 673.018 981.163 686.727C980.427 693.284 977.693 698.832 976.098 705.099C975.266 708.365 975.37 711.894 974.988 715.236C974.548 719.093 972.783 723.461 971.277 727.039C965.125 741.652 948.05 758.234 933.649 764.529C933.513 764.588 933.373 764.637 933.236 764.691C935.86 760.645 939.852 756.778 942.975 753.052C952.539 741.644 961.661 729.775 967.204 715.806C968.531 712.462 970.308 707.936 969.975 704.298C969.464 698.707 966.748 692.652 964.956 687.312C954.912 657.391 933.908 632.867 911.166 611.599C904.302 605.18 897.057 599.176 890.17 592.783C879.51 582.886 869.529 571.976 858.21 562.813L858.003 562.54ZM561.003 65.0472L561.562 65.2716C565.436 68.532 570.158 71.1415 574.405 73.9424C581.327 78.5073 588.144 83.3729 594.489 88.7183C608.249 100.311 622.03 113.599 633.29 127.661C655.355 155.215 676.557 197.899 687.545 231.495C690.991 242.235 693.78 253.175 695.898 264.253C696.771 268.792 698.451 285.259 699.746 288.011C699.731 279.423 698.718 270.568 697.881 262.016C694.19 224.305 686.731 202.853 670.444 168.965C666.415 160.582 657.519 148.604 654.803 140.767C657.556 142.888 660.066 145.967 662.434 148.524C678.161 165.504 690.346 185.198 702.093 205.024L702.774 205.299L702.867 206.065L702.963 205.581L703.072 206.125L702.46 205.409L702.736 204.959C700.304 198.937 697.116 193.008 693.852 187.391C667.993 142.892 629.657 102.756 584.995 76.8833C577.797 72.7136 569.616 67.4014 561.562 65.2716L561.003 65.0472ZM389.915 82.2472C339.562 97.1725 309.049 148.386 285.426 191.721C282.938 196.306 280.641 200.992 278.541 205.767C277.33 208.543 276.378 211.469 274.906 214.118C278.011 192.561 285.829 170.878 295.757 151.553C299.142 144.965 304.179 138.425 306.752 131.538L307.153 130.839L307.498 130.502L307.153 130.839L306.752 131.538C300.937 137.034 296.213 146.037 292.182 152.951C267.636 195.055 253.203 246.813 251.871 295.466C251.577 306.203 251.454 317.835 253.084 328.452C253.914 324.802 253.463 320.213 253.623 316.441C253.914 309.589 254.448 302.673 255.128 295.85C257.676 270.242 265.396 245.951 275.502 222.421C277.623 217.482 279.571 212.346 282.094 207.598L281.931 208.365C279.776 218.267 275.842 227.748 273.545 237.63C264.353 277.168 263.294 316.212 277.34 354.713C275.808 344.145 273.985 333.506 273.536 322.826C272.325 294.06 274.983 263.365 283.32 235.717C284.822 230.738 286.421 225.277 289.079 220.791C287.49 231.349 284.827 241.68 283.697 252.335C281.51 272.97 283.391 318.828 290.782 338.076C283.638 295.313 289.191 256.599 302.413 215.756C305.901 204.984 309.459 194.207 314.22 183.916C322.051 166.987 331.871 150.762 342.535 135.509C327.722 148.414 317.436 160.489 306.956 177.044C302.798 183.612 299.294 190.896 294.5 197C305.303 166.797 333.353 121.798 358.431 101.557C368.285 93.6033 378.99 88.4277 389.915 82.2472L390.497 82.0025L389.915 82.2472ZM479.614 90.0025L479.84 90.7415L480.273 91.1716C484.305 101.526 489.694 111.395 493.834 121.775C501.067 139.911 507.192 158.537 515.018 176.423C519.757 187.255 525.494 197.877 531.173 208.249C503.554 190.803 475.724 117.902 466.986 86.3973C469.302 128.197 495.464 189.575 518.293 224.168C529.026 240.434 546.977 261.457 561.413 274.606C561.847 275.001 562.227 275.193 562.784 275.361C546.353 256.232 534.091 232.676 524.793 209.295C538.759 226.576 552.451 244.313 568.246 259.991C573.73 265.434 579.746 270.425 585.641 275.408C590.26 279.312 595.423 284.211 600.654 287.243L600.914 287.459L600.654 287.243C597.885 282.156 592.473 277.332 588.648 272.942C585.451 269.271 582.524 265.362 579.576 261.492C564.274 241.723 550.216 221.023 537.484 199.511C529.902 186.96 522.922 174.056 516.568 160.843C507.64 141.891 493.809 105.82 480.273 91.1716L479.84 90.7415L479.614 90.0025ZM608.613 113.002L608.856 113.707L609.74 114.112L609.893 114.401C612.338 120.03 618.663 126.89 622.394 132.025C629.084 141.233 635.906 150.956 641.623 160.796C650.157 175.482 658.071 190.911 665.47 206.206C668.319 212.095 670.071 218.868 673.519 224.415C672.54 218.109 669.665 211.111 667.419 205.094C656.706 176.391 644.336 155.442 624.936 131.617C620.221 125.827 615.353 119.489 609.893 114.401L609.74 114.112L608.856 113.707L608.613 113.002ZM535.04 170.002L535.458 170.546L535.785 171.111C537.533 175.594 540.98 179.997 543.697 183.974C557.506 204.188 572.944 222.915 589.3 241.095C595.226 247.681 601.113 254.758 607.705 260.673C605.415 256.105 599.103 249.53 595.772 245.226C581.595 226.913 567.003 209.089 552.218 191.273C546.743 184.676 541.642 177.333 535.785 171.111L535.458 170.546L535.04 170.002ZM359 176L358.502 176.998L359 176L359.497 175.002L359 176ZM331 183L330.502 183.998L331 183L331.498 182.002L331 183ZM352 191.5L351.292 192.917L351.015 193.498L351.292 192.917L352 191.5L352.488 190.502L352 191.5ZM350.861 195.372L349.641 196.262L349.508 196.998L349.641 196.262L350.861 195.372L350.983 194.002L350.861 195.372ZM348.5 199.5L348.002 200.498L348.5 199.5L348.998 198.502L348.5 199.5ZM322.082 200.679L322.005 201.998L322.082 200.679L322.998 200.002L322.082 200.679ZM346.545 202.734L346.504 203.998L346.545 202.734L347.498 202.002L346.545 202.734ZM346.34 205.87L345.502 206.498L346.34 205.87L346.46 204.502L346.34 205.87ZM345.342 208.379L344.526 208.998L345.342 208.379L345.472 207.002L345.342 208.379ZM343.678 210.125L343.553 211.498L343.678 210.125L344.48 209.502L343.678 210.125ZM342.832 214.87L342.002 215.498L342.832 214.87L342.951 213.502L342.832 214.87ZM341.5 217L340.787 218.975L340.513 219.498L340.787 218.975L341.5 217L341.998 216.002L341.5 217ZM340 221L339.286 222.983L339.117 223.284C337.679 225.247 336.666 228.088 336.287 230.487L335.926 231.673C335.179 232.566 335.18 232.832 335 234L334.502 234.998L335 234C335.817 233.111 335.711 232.82 335.926 231.673L336.287 230.487C338.029 228.504 338.591 225.794 339.117 223.284L339.286 222.983L340 221L340.497 220.002L340 221ZM313.5 225L312.784 227.131L312.62 227.636L312.784 227.131L313.5 225L313.788 224.134L313.5 225ZM333.654 236.129L333.533 237.498L333.654 236.129L334.496 235.502L333.654 236.129ZM332.674 238.631L332.555 239.998L332.674 238.631L333.498 238.002L332.674 238.631ZM456.303 78.5782C441.72 87.849 434.354 102.407 429.672 118.608C419.796 152.783 425.312 194.939 433.982 228.898C435.919 236.487 437.944 245.757 441.728 252.615L442.226 253.813L442.41 254.498L442.226 253.813L441.728 252.615C440.187 244.718 437.794 236.953 436.092 229.071C431.225 206.529 428.872 184.342 430.45 161.3C432.32 133.996 439.995 94.9141 461.371 76.3131C459.592 76.9114 457.976 77.7338 456.303 78.5782ZM475.589 314.002L475.827 314.263C477.219 317.617 479.552 320.724 481.541 323.752C487.504 332.832 494.392 341.384 500.206 350.511C492.745 349.07 484.992 347.799 477.796 345.324C459.011 338.864 443.945 323.523 432.994 307.451C426.482 297.894 421.846 287.643 416.207 277.624C420.011 293.157 426.005 308.07 434.009 321.915C436.529 326.285 447.506 340.78 447.868 344.18C445.271 343.175 443.281 340.649 441.318 338.727L440.872 338.422L440.502 338.092L440.872 338.422L441.318 338.727C442.81 341.612 443.981 344.556 445.14 347.587C442.59 344.919 440.387 341.924 437.864 339.214L441.508 346.012C422.909 347.586 404.413 344.936 386.104 341.686C377.217 340.109 368.292 336.771 359.169 337.763C351.162 338.634 344.407 342.015 336.93 344.658C330.52 358.598 324.254 371.954 315.876 384.873C316.703 389.559 317.614 394.23 318.609 398.883C321.323 411.057 324.86 423.036 328.276 435.025C338.93 472.417 351.819 513.986 375.981 545.082C392.89 566.845 435.801 600.257 459.709 615.423C475.333 625.335 493.692 636.413 512.85 632.004C541.856 625.329 607.343 562.22 623.326 536.001C630.992 523.425 636.239 509.414 641.197 495.613C657.852 449.249 668.44 397.032 656.822 348.244C647.707 345.2 638.201 343.379 629.005 340.586C623.301 338.853 614.8 334.597 609.268 334.076C603.562 333.539 585.606 336.747 579.546 338.245C576.264 339.056 573.07 340.3 569.758 340.974C563.366 342.275 556.615 342.092 550.148 343.054C542.868 344.137 535.891 346.214 528.507 346.765C527.889 346.812 527.27 346.879 526.65 346.884C524.046 346.905 521.207 345.142 518.721 344.338C506.282 340.311 495.192 333.376 485.738 324.349C482.435 321.196 479.493 317.695 476.168 314.579L475.827 314.263L475.589 314.002ZM305.921 415.369C306.824 417.715 308.227 419.206 310.221 420.672L310.411 420.885L310.221 420.672C310.176 420.537 310.138 420.398 310.086 420.265C309.229 418.094 308.062 416.386 305.921 415.369ZM733.124 431.002L733.48 431.561C734.044 441.776 736.153 452.242 737.646 462.381C740.097 479.032 742.987 495.472 747.121 511.799C757.79 553.934 774.965 593.493 792 633.328C795.015 640.378 803.78 663.658 807.679 667.948L807.984 668.497L807.679 667.948C806.62 663.917 804.753 659.89 803.252 655.996L792.151 627.964C781.106 599.429 771.712 572.249 764.861 542.35C779.775 575.024 805.663 599.841 827.005 628.094C835.986 639.984 842.823 652.6 850.24 665.424L850.608 666.24L851.163 667.317L851.469 667.997L851.163 667.317L850.608 666.24L850.24 665.424C846.61 649.266 816.022 609.228 806.145 594.201C796.129 578.962 786.608 563.019 777.639 547.139C757.172 510.9 743.569 471.791 733.48 431.561L733.124 431.002ZM808.616 437.002L808.848 437.302C809.953 442.345 814.371 448.251 816.968 452.774C838.084 489.545 866.741 521.677 894.866 553.202C907.292 567.131 920.321 580.78 931.528 595.746C941.799 609.462 951.208 623.52 959.476 638.531C962.85 644.656 964.997 651.656 968.67 657.539C968.742 657.654 968.817 657.768 968.891 657.883C967.837 649.339 964.577 640.781 961.357 632.828C944.062 590.123 911.956 557.795 881.165 524.539C870.947 513.503 861.029 502.069 851.198 490.687C839.737 477.202 828.573 463.468 817.714 449.493C814.608 445.571 812.162 441.021 808.848 437.302L808.616 437.002ZM820.003 566.503L820.5 567.5L821.208 568.917L821.622 569.743L822.158 570.815L822.643 571.785L823.149 572.798L823.646 573.793L824.147 574.795L824.647 575.794L825.147 576.794L825.488 577.497L825.147 576.794L824.647 575.794L824.147 574.795L823.646 573.793L823.149 572.798L822.643 571.785L822.158 570.815L821.622 569.743L821.208 568.917L820.5 567.5L820.003 566.503ZM825.6 578.003L825.823 578.745L826.471 579.497L825.823 578.745L825.6 578.003ZM655.191 543.68C651.447 576.613 658.068 611.673 676.349 639.521C695.233 668.288 720.212 689.035 751.855 702.522C758.029 705.154 764.87 708.334 771.438 709.702L771.997 709.949L771.438 709.702C765.821 705.818 758.615 703.216 752.614 699.753C737.231 690.951 722.788 680.601 709.508 668.865C681.993 644.476 662.423 613.115 657.47 576.222C656.043 565.594 656.397 555.124 655.744 544.48L655.191 543.68ZM287.818 608.91C283.677 629.668 282.035 658.721 284.133 679.941C285.843 697.241 289.951 721.046 304.201 732.761L304.443 732.997L304.201 732.761C302.531 726.889 297.022 719.902 294.768 713.275C286.426 688.753 285.713 661.05 286.74 635.39C286.918 630.944 289.035 610.777 287.966 607.679L287.818 608.91ZM831.054 775.393L831.008 775.894C832.012 776.926 833.048 776.895 834.421 777.204L834.977 777.405L834.421 777.204C833.242 776.278 832.489 775.818 831.054 775.393ZM504.566 75.4354C566.849 96.1237 602.472 139.926 633.201 195.632C637.721 203.825 642.392 211.979 646.58 220.348C657.558 242.006 665.134 265.226 669.041 289.191C670.424 297.234 670.516 305.756 672.294 313.641C672.839 301.979 670.926 289.616 668.967 278.133C659.149 222.595 634.044 170.894 596.469 128.836C575.226 105.415 536.296 79.8298 504.566 75.4354ZM391.138 81.75L391.745 81.75L391.138 81.75ZM486.375 81.8767C491.779 84.1546 497.438 86.366 502.456 89.4073C547.039 116.428 590.939 178.331 617.715 222.755C622.484 230.652 627.071 238.656 631.473 246.763C633.653 250.872 636.971 259.543 639.676 262.66C635.995 246.927 628.044 231.061 620.4 216.895C594.494 168.887 558.062 121.57 511.096 92.5235C503.977 88.1206 494.812 82.9255 486.375 81.8767ZM336.207 172.25L336.603 172.25L336.207 172.25ZM335.718 173.25L336.119 173.25L335.718 173.25ZM360.196 173.25L360.591 173.25L360.196 173.25ZM335.208 174.25L335.63 174.25L335.208 174.25ZM359.743 174.25L360.187 174.25L359.743 174.25ZM334.724 175.25L335.152 175.25L334.724 175.25ZM334.221 176.25L334.668 176.25L334.221 176.25ZM333.743 177.25L334.192 177.25L333.743 177.25ZM358.117 177.75L358.557 177.75L358.117 177.75ZM333.246 178.25L333.71 178.25L333.246 178.25ZM357.679 178.75L358.074 178.75L357.679 178.75ZM332.766 179.25L333.245 179.25L332.766 179.25ZM357.194 179.75L357.585 179.75L357.194 179.75ZM332.264 180.25L332.745 180.25L332.264 180.25ZM356.728 180.75L357.107 180.75L356.728 180.75ZM356.237 181.75L356.645 181.75L356.237 181.75ZM330.099 184.75L330.543 184.75L330.099 184.75ZM329.605 185.75L330.056 185.75L329.605 185.75ZM354.188 186.25L354.581 186.25L354.188 186.25ZM329.101 186.75L329.551 186.75L329.101 186.75ZM353.747 187.25L354.174 187.25L353.747 187.25ZM328.623 187.75L329.058 187.75L328.623 187.75ZM328.109 188.75L328.556 188.75L328.109 188.75ZM327.654 189.75L328.07 189.75L327.654 189.75ZM352.681 189.75L353.078 189.75L352.681 189.75ZM327.157 190.75L327.58 190.75L327.157 190.75ZM326.702 191.75L327.112 191.75L326.702 191.75ZM326.219 192.75L326.649 192.75L326.219 192.75ZM325.757 193.75L326.218 193.75L325.757 193.75ZM325.27 194.75L325.745 194.75L325.27 194.75ZM324.097 197.25L324.533 197.25L324.097 197.25ZM349.188 197.75L349.603 197.75L349.188 197.75ZM323.674 198.25L324.081 198.25L323.674 198.25ZM323.21 199.25L323.652 199.25L323.21 199.25ZM347.676 201.25L348.094 201.25L347.676 201.25ZM321.73 202.75L322.143 202.75L321.73 202.75ZM321.239 203.987L321.512 204.25L321.239 203.987ZM320.684 205.25L321.064 205.25L320.684 205.25ZM320.251 206.25L320.708 206.25L320.251 206.25ZM703.694 207.75L704.095 207.75L703.694 207.75ZM319.219 208.75L319.597 208.75L319.219 208.75ZM318.228 211.25L318.637 211.25L318.228 211.25ZM343.235 212.488L343.518 212.75L343.235 212.488ZM317.668 212.75L318.042 212.75L317.668 212.75ZM316.707 215.474L316.997 215.75L316.707 215.474ZM316.199 216.75L316.581 216.75L316.199 216.75ZM315.686 218.25L316.062 218.25L315.686 218.25ZM315.266 219.482L315.565 219.75L315.266 219.482ZM314.764 220.982L315.06 221.25L314.764 220.982ZM314.263 222.482L314.564 222.75L314.263 222.482ZM312.207 228.98L312.503 229.25L312.207 228.98ZM311.74 230.487L312.017 230.75L311.74 230.487ZM378.059 230.819C368.777 264.08 356.235 296.148 343.145 328.051C354.679 324.077 366.325 320.247 378.625 319.861C391.427 319.804 404.202 321.148 416.85 323.066C413.363 317.857 409.341 313.049 405.829 307.861C395.205 292.165 388.206 275.502 383.385 257.215C381.298 249.299 380.487 237.848 378.059 230.819ZM311.256 231.984L311.549 232.25L311.256 231.984ZM310.69 233.967L310.996 234.25L310.69 233.967ZM310.24 235.487L310.515 235.75L310.24 235.487ZM309.709 237.472L310.004 237.75L309.709 237.472ZM309.189 239.172L309.37 239.512L309.189 239.172ZM308.691 241.165L308.877 241.509L308.691 241.165ZM332.236 240.988L332.512 241.25L332.236 240.988ZM331.72 242.25L332.118 242.25L331.72 242.25ZM491.953 276.315C495.507 301.588 506.07 324.086 522.608 343.43C522.481 337.205 522.714 332.187 525.352 326.444C528.145 323.384 536.937 322.925 541.024 321.791C527.727 313.746 514.522 302.634 504.129 291.089C500.866 287.464 495.306 278.729 491.953 276.315ZM341.198 332.559C340.667 334.077 339.462 336.443 339.834 338.028L340.487 337.705C341.421 336.355 342.336 335.135 342.838 333.55C342.223 332.751 342.11 332.854 341.198 332.559ZM685.896 355.34C682.677 365.149 680.346 375.223 677.165 385.038C680.469 381.327 685.351 374.933 690.286 373.503C692.41 373.689 693.554 374.612 694.878 376.22C699.962 382.398 705.9 398.158 704.941 405.985C704.175 412.233 699.628 419.894 695.699 424.701L695.874 423.996C698.71 412.88 706.014 405.151 699.321 393.554C696.773 389.139 693.187 385.084 689.611 381.481C685.02 385.065 680.629 388.937 676.821 393.357C682.682 396.338 688.978 399.91 691.271 406.523C693.153 411.948 691.92 418.565 689.303 423.547C687.845 426.321 685.986 428.465 683.852 430.712C685.255 422.901 688.462 414.334 683.526 407.178C681.159 403.745 677.77 400.98 674.684 398.203C679.389 409.081 683.15 419.636 678.318 431.296C677.147 434.122 675.536 436.385 673.634 438.733C671.148 441.195 668.718 443.131 665.647 444.859C664.839 448.796 663.972 452.72 663.048 456.631C675.42 450.327 686.349 442.237 697.861 434.6C690.44 446.771 675.315 456.005 662.274 460.941C660.435 466.225 658.649 471.527 656.916 476.846C670.776 470.064 688.487 453.882 698.452 441.991C702.171 437.553 705.36 432.745 708.456 427.859C710.565 424.531 712.856 421.105 714.094 417.338C718.169 404.944 711.074 377.472 704.99 366.476C702.007 361.084 697.373 358.126 691.55 356.468C689.716 355.946 687.785 355.584 685.896 355.34ZM290.281 366.908C282.755 370.244 278.946 376.687 276.122 384.058C272.05 394.686 263.806 421.755 268.567 432.243C274.944 446.29 302.943 466.857 316.078 474.855C321.547 478.186 327.251 480.861 333.094 483.446L328.562 471.927C320.322 468.541 313.417 464.18 306.955 458.011C299.404 450.342 292.52 442.415 286.257 433.647C290.481 424.296 295.401 416.679 302.683 409.444C300.142 403.049 298.092 396.732 296.537 390.018C289.79 397.355 283.317 405.373 279.793 414.814C278.94 417.097 278.917 427.033 277.497 427.63C274.934 424.366 274.568 419.779 275.017 415.797C276.576 401.983 285.555 387.641 295.112 377.905C294.671 375.362 294.216 368.83 291.743 367.438C291.273 367.173 290.789 367.058 290.281 366.908ZM219.788 386.375C209.919 423.439 197.263 459.704 181.928 494.86C172.89 515.297 162.783 535.102 152.343 554.847C133.115 591.211 110.513 625.875 96.7201 664.802C95.5296 668.161 93.0626 673.606 93.1764 677.113C99.5368 662.229 108.931 648.529 117.623 634.926C125.614 622.238 133.455 609.456 141.145 596.584C171.621 544.749 193.247 489.553 209.518 431.783C211.966 423.088 220.744 393.824 219.788 386.375ZM672.979 407.766C671.521 412.572 665.713 436.149 666.994 439.637L667.892 439.109C672.722 434.404 675.667 429.47 675.82 422.545C675.925 417.834 674.971 412.047 672.979 407.766ZM305.404 416.864C300.101 422.407 294.441 427.85 289.671 433.856C300.435 446.504 311.977 457.998 326.511 466.266C325.03 461.489 323.4 456.82 321.644 452.14C317.737 442.485 315.044 432.001 310.552 422.651C311.457 431.861 313.992 442.139 317.967 450.538L317.84 451.258C311.765 446.892 308.386 439.073 307.207 431.813C306.382 426.73 306.939 421.872 305.404 416.864ZM807.726 435.25L808.08 435.25L807.726 435.25ZM808.233 436.25L808.594 436.25L808.233 436.25ZM289.726 473.879C281.373 493.913 276.71 516.316 272.138 537.488C262.406 582.548 253.8 628.134 261.501 674.243C262.751 681.723 264.721 689.068 266.59 696.412L267.358 698.033C267.376 693.502 265.842 688.573 265.123 684.076C264.164 677.784 263.547 671.444 263.276 665.085C261.646 633.283 264.829 600.753 269.901 569.376C273.601 546.487 277.657 523.48 283.072 500.931C284.142 496.477 290.065 476.628 289.726 473.879ZM815.163 556.25L815.52 556.25L815.163 556.25ZM815.664 557.25L816.049 557.25L815.664 557.25ZM816.164 558.25L816.52 558.25L816.164 558.25ZM816.648 559.25L817.034 559.25L816.648 559.25ZM818.257 562.75L818.699 562.75L818.257 562.75ZM818.718 563.75L819.142 563.75L818.718 563.75ZM220.234 564.488L220.511 564.75L220.234 564.488ZM819.177 564.75L819.588 564.75L819.177 564.75ZM219.75 565.384C195.356 623.355 157.589 694.508 183.366 757.96C186.669 766.092 191.068 773.243 196.047 780.431L200.105 785.41C195.361 774.295 190.658 763.342 187.713 751.569C174.318 698.017 193.156 644.702 210.202 594.347C211.915 589.287 220.074 569.17 219.75 565.384ZM819.642 565.75L820.07 565.75L819.642 565.75ZM608.393 566.506C597.304 579.778 585.75 592.654 573.753 605.112C555.91 623.284 501.429 673.569 478.037 675.432C471.478 675.954 465.714 672.601 460.995 668.354C445.322 654.249 433.965 632.681 426.343 613.207C428.408 633.243 430.58 656.574 428.11 676.563C434.818 686.402 442.655 695.89 450.614 704.746C458.055 712.837 465.41 721.263 473.339 728.87C479.105 734.402 487.357 738.852 491.759 745.54C500.145 758.286 504.176 773.954 510.814 787.621C513.77 786.88 516.712 786.073 519.738 785.672C520.702 777.934 536.197 741.387 540.325 734.255C541.904 731.526 543.641 729.31 546.146 727.377C549.517 724.777 553.165 722.569 556.509 719.936C569.688 709.561 595.264 687.82 604.543 673.927C604.477 666.549 603.455 659.232 603.178 651.863C602.732 640 603.18 627.767 603.857 615.923C604.138 610.997 608.75 567.222 608.393 566.506ZM826.733 580.25L827.193 580.25L826.733 580.25ZM827.216 581.25L827.623 581.25L827.216 581.25ZM827.722 582.25L828.153 582.25L827.722 582.25ZM828.212 583.25L828.604 583.25L828.212 583.25ZM828.724 584.25L829.154 584.25L828.724 584.25ZM829.213 585.25L829.605 585.25L829.213 585.25ZM829.717 586.25L830.144 586.25L829.717 586.25ZM830.209 587.25L830.601 587.25L830.209 587.25ZM830.725 588.25L831.158 588.25L830.725 588.25ZM831.215 589.25L831.613 589.25L831.215 589.25ZM831.727 590.25L832.155 590.25L831.727 590.25ZM832.219 591.25L832.618 591.25L832.219 591.25ZM832.737 592.25L833.179 592.25L832.737 592.25ZM833.226 593.25L833.626 593.25L833.226 593.25ZM833.74 594.25L834.179 594.25L833.74 594.25ZM834.23 595.25L834.641 595.25L834.23 595.25ZM834.751 596.25L835.213 596.25L834.751 596.25ZM835.242 597.25L835.663 597.25L835.242 597.25ZM835.766 598.25L836.239 598.25L835.766 598.25ZM836.255 599.25L836.696 599.25L836.255 599.25ZM836.77 600.25L837.245 600.25L836.77 600.25ZM837.269 601.25L837.745 601.25L837.269 601.25ZM837.773 602.25L838.245 602.25L837.773 602.25ZM611.554 630.149L611.491 638.824C615.979 641.76 621.15 644.389 622.442 650.045C623.991 656.828 620.936 662.845 617.297 668.34C608.639 681.413 597.329 691.723 586.037 702.416C580.862 707.316 575.793 712.495 570.287 717.016C564.185 722.027 551.513 729.979 547.398 735.695C542.239 742.862 530.011 774.737 526.299 784.342C527.905 784.617 529.176 784.36 530.745 784.058C532.704 782.335 534.034 778.573 535.189 776.198C538.019 770.419 540.772 764.603 543.447 758.75C545.434 754.355 547.186 749.511 549.788 745.454C550.849 743.799 552.302 741.886 554.23 741.254C556.286 741.839 557.64 744.792 558.629 746.57C563.41 755.167 567.869 764.025 572.239 772.836C585.153 798.847 600.101 823.002 620.658 843.656C627.75 808.776 632.602 773.852 636.855 738.528C638.441 725.36 641.115 711.585 641.481 698.362C641.863 684.575 640.137 657.096 632.728 645.652C627.843 638.108 619.588 633.611 611.554 630.149ZM419.304 631.459C410.28 635.786 401.677 641.811 398.178 651.62C396.086 657.486 395.037 663.953 393.66 670.035C391.658 679.053 389.447 688.022 387.027 696.936C385.69 701.869 384.421 707.109 382.207 711.721C385.247 741.155 394.406 772.122 402.362 800.722C406.976 817.306 411.143 833.969 416.336 850.392C418.867 847.262 421.501 844.135 423.619 840.707C427.641 834.195 430.482 826.812 433.666 819.852C440.241 805.48 446.507 790.902 453.257 776.626C456.363 769.566 462.41 753.289 466.144 747.336C466.841 746.226 467.602 745.226 468.885 744.777C469.768 744.467 470.734 744.767 471.5 745.259C476.326 748.355 488.681 767.999 491.843 773.54C494.561 778.303 496.812 783.843 500.116 788.166C501.128 789.49 501.89 790.156 503.54 790.407L504.459 789.619C504.479 788.754 490.143 756.115 488.381 752.767C487.095 750.325 485.605 748.059 483.699 746.048C479.265 741.369 473.442 738.077 468.818 733.57C454.38 719.499 409.799 672.528 409.898 653.039C409.944 643.982 422.397 637.601 420.463 631.845L419.304 631.459ZM419.932 644.437C417.509 647.394 416.32 649.861 415.416 653.565C416.538 658.261 418.526 662.437 420.715 666.717L421.517 668.087L421.906 667.855C421.708 664.745 420.78 645.48 419.932 644.437ZM611.553 646.382C611.502 650.106 610.706 660.099 612.889 662.987L613.811 662.098C615.391 658.636 616.334 655.542 615.035 651.785C614.402 649.956 613.036 647.633 611.553 646.382ZM851.702 668.75L852.098 668.75L851.702 668.75ZM808.197 669.25L808.565 669.25L808.197 669.25ZM852.136 669.75L852.523 669.75L852.136 669.75ZM808.664 670.25L809.044 670.25L808.664 670.25ZM899.678 693.37C897.434 730.966 889.887 760.433 868.095 791.79L876.638 795.16C880.319 796.674 883.972 798.173 887.509 800.003C891.019 792.046 894.624 784.091 897.264 775.791C903.733 755.456 905.273 731.978 902.98 710.823C902.476 706.168 901.979 698.267 900.122 694.172C899.995 693.894 899.826 693.637 899.678 693.37ZM267.589 699.25L268.003 699.25L267.589 699.25ZM880.024 727.842C875.633 741.097 870.798 754.667 863.775 766.795C860.423 772.581 855.147 778.122 852.574 784.206C853.264 785.46 854.453 785.895 855.673 786.523L858.594 788.128C861.519 783.566 864.295 779.016 866.667 774.131C871.365 764.458 881.507 738.055 880.146 728.338C880.122 728.169 880.065 728.007 880.024 727.842ZM470.924 752.71C469.521 756.689 465.348 765.414 467.306 769.39C470.048 774.957 485.775 788.24 490.946 795.209C492.244 794.616 493.38 794.306 494.245 793.13C491.912 785.266 476.204 758.926 470.924 752.71ZM553.281 752.837C549.637 763.202 544.817 773.432 539.523 783.049C546.594 782.936 553.564 783.046 560.618 783.656L563.363 783.934C564.049 783.372 564.188 783.535 564.212 782.763C564.272 780.828 562.474 777.935 561.734 776.048C560.288 778.369 558.167 781.003 555.839 782.488L554.875 781.898C555.068 777.542 557.115 774.622 558.908 770.797C557.985 766.427 556.037 755.965 553.281 752.837ZM539.551 791.21C514.581 792.789 499.349 798.595 478.656 812.155L480.83 824.691C485.47 821.369 490.07 818.025 494.955 815.066C509.953 806.018 526.865 797.139 544.406 794.877C551.24 793.996 558.42 794.872 565.14 793.615L565.279 792.775C562.09 790.196 544.332 790.925 539.551 791.21ZM450.404 799.391C444.604 813.981 438.009 829.624 429.662 842.924C426.351 848.199 422.446 853.122 418.618 858.028C422.809 872.553 428.252 886.631 433.525 900.79C444.594 931.103 457.194 960.835 471.277 989.871C471.877 991.026 472.493 992.173 473.124 993.311C473.955 982.742 476.247 972.232 478.433 961.874C481.466 946.902 484.972 932.03 488.948 917.281C492.016 905.577 494.786 893.697 498.442 882.167C497.114 880.819 495.714 879.44 494.696 877.836C487.757 866.891 472.969 824.898 472.072 812.076C464.38 808.394 457.475 804.152 450.404 799.391ZM576.527 799.226C574.069 803.54 573.486 809.768 572.545 814.644C569.256 831.685 565.026 856.877 551.004 868.395C554.308 879.022 560.945 888.773 565.614 898.867C573.005 914.844 579.283 931.171 585.906 947.457L588.53 941.198C600.51 911.805 611.343 881.793 619.016 850.941C609.943 841.116 600.477 831.62 592.334 820.984C588.968 816.587 586.047 811.827 582.967 807.226C581.14 804.497 579.167 801.221 576.527 799.226ZM895.751 815.345C887.555 829.303 881.254 844.942 875.331 859.988C861.446 895.256 851.331 926.224 848.126 964.293C847.619 970.315 846.354 978.221 847.337 984.134C850.514 970.373 852.797 956.397 855.953 942.616C860.527 922.642 866.335 902.756 872.64 883.263C876.738 870.693 881.099 858.209 885.719 845.821C888.77 837.744 892.346 829.676 894.874 821.433C895.48 819.454 896.202 817.41 895.751 815.345ZM563.998 823.525C540.038 834.894 517.027 850.828 496.013 866.952L498.297 871.825C498.598 871.861 498.898 871.956 499.2 871.931C499.705 871.889 556.17 836.393 562.147 832.745C563.069 829.949 564.136 827.187 564.43 824.243L563.998 823.525ZM113.116 828.335C113.656 832.432 135.559 873.456 139.295 881.307C143.406 889.946 147.764 898.524 151.525 907.321C163.893 936.25 174.166 966.364 184.993 995.905C184.665 987.42 179.887 975.786 177.547 967.223C173.297 951.668 169.528 935.606 164.11 920.426C154.734 894.157 139.905 868.97 125.168 845.373C123.025 841.942 116.903 830.751 114.317 828.912C113.732 828.496 113.7 828.525 113.116 828.335ZM545.49 874.952C541.07 878.85 535.426 880.773 531.164 884.52C527.243 887.967 524.098 892.928 520.723 896.944C513.77 905.215 497.824 921.753 493.314 930.678C491.374 934.517 489.415 942.997 489.049 947.266C488.984 948.017 489.009 948.056 489.063 948.697C489.976 948.497 489.873 948.338 490.395 947.619C499.141 936.692 508.367 926.157 518.044 916.045C528.656 904.933 539.959 894.372 549.028 881.893C548.037 879.686 547.11 876.741 545.49 874.952Z"/><path d="M654.414 140.395L654.118 140.002L654.414 140.395Z"/><path d="M654.414 140.395L654.803 140.767L654.414 140.395Z"/><path d="M531.173 208.249L531.422 208.427L531.173 208.249Z"/><path d="M289.079 220.791L289.375 220.502L289.079 220.791Z"/><path d="M608.726 351.082C587.969 348.084 569.71 349.437 550.425 358.167C547.911 359.306 541.673 363.695 539.283 363.693L539.988 362.722C555.457 350.032 570.309 344.648 590.666 346.581C595.998 347.087 604.417 347.782 608.726 351.082Z"/><path d="M608.726 351.082L608.997 351.379L608.726 351.082Z"/><path d="M626.171 351.289L626.378 351.082L626.171 351.289Z"/><path d="M567.019 409.355C563.271 408.627 559.584 407.633 555.817 406.967C550.893 406.096 543.124 406.392 538.878 404.083C538.533 402.803 538.58 401.808 538.893 400.537C540.002 396.037 542.019 391.3 543.883 387.065C553.519 365.172 569.179 356.605 592.943 356.238C599.316 356.139 605.882 358.366 612.21 357.429C617.428 356.656 621.751 353.97 626.171 351.289C624.645 355.944 621.496 359.802 618.457 363.546C621.257 363.572 624.027 363.557 626.808 363.189C632.825 362.393 635.95 359.567 639.5 354.989C637.725 361.235 635.722 364.976 631.249 369.681C638.693 370.231 644.097 368.6 650.555 364.998C647.606 370.069 644.33 374.613 639.13 377.611C624.443 386.081 616.247 374.956 603.207 371.343C604.075 377.554 604.626 383.109 601.881 389.019C598.379 396.555 591.526 401.106 583.948 403.806C579.894 402.947 576.177 401.924 572.615 399.729C566.268 395.816 562.995 389.841 561.187 382.829C560.76 380.365 560.61 377.866 560.404 375.376C554.707 380.981 542.857 394.397 541.597 402.2C541.712 402.538 541.691 402.961 541.943 403.213C542.517 403.783 556.688 404.919 559.338 405.642C561.98 406.364 564.17 407.429 566.427 408.948L567.019 409.355ZM573.878 382.948C572.795 384.238 571.865 385.178 571.594 386.907C572.02 388.223 572.009 388.177 573.211 388.867C574.605 388.677 574.701 388.673 575.711 387.705C576.156 386.478 575.999 384.954 575.465 383.75C575.362 383.516 575.211 383.306 575.084 383.084L573.878 382.948ZM589.759 370.877C587.435 372.395 585.363 373.814 584.918 376.762C584.717 378.095 584.803 379.268 585.709 380.343C586.938 381.803 588.635 382.079 590.43 382.113C592.468 381.133 593.921 380.307 594.714 378.085C595.181 376.776 595.226 375.373 594.628 374.09C593.772 372.251 592.172 371.453 590.292 370.992C590.115 370.948 589.937 370.915 589.759 370.877Z"/><path d="M344.076 367.409C346.628 369.127 349.529 371.633 352.751 371.466C353.273 370.616 351.84 368.869 351.652 367.704C362.378 360.415 371.399 355.667 384.354 353.659C400.419 351.838 419.101 355.271 432.159 365.115C420.23 362.271 407.897 358.628 395.665 357.611C386.681 356.865 370.64 358.796 363.634 364.724L363.664 365.387C367.613 366.535 374.073 363.615 378.126 362.809C388.023 360.84 399.228 361.606 408.505 365.703C410.918 366.769 413.377 368.027 415.353 369.796C422.947 376.594 433.06 392.592 436.617 402.337C437.24 404.042 437.779 405.785 436.966 407.513C431.371 408.67 425.289 408.381 419.564 409.288C424.753 406.805 428.538 405.566 434.365 405.716C432.411 402.049 429.875 398.741 427.44 395.386C424.75 391.663 421.981 388.113 418.966 384.648C418.776 385.492 418.572 386.332 418.352 387.168C416.347 394.767 412.637 401.053 405.55 404.975C401.218 407.372 396.302 408.568 391.448 407.133C385.888 405.49 381.354 401.031 378.702 395.985C374.683 388.339 375.401 380.907 377.871 373.032C375.572 373.653 373.251 374.323 371.083 375.32C363.286 378.905 358.596 384.943 355.748 392.892C347.658 391.515 340.506 389.278 333.269 385.387C336.283 384.872 339.241 384.229 342.218 383.532C338.517 380.26 335.784 377.463 333.61 372.949C339.722 376.24 343.707 377.073 350.61 376.955C347.624 374.024 345.746 371.235 344.076 367.409ZM358.853 365.41C357.308 366.235 355.79 366.883 354.715 368.32L354.844 368.99C355.697 369.321 356.188 369.52 357.116 369.547C358.722 368.991 360.241 368.659 361.333 367.267C360.925 366.071 361.303 366.481 360.193 365.927C359.204 365.433 359.616 365.551 358.853 365.41ZM396.36 374.056C394.767 375.364 393.369 376.57 393.225 378.77C393.137 380.129 393.671 381.335 394.639 382.262C395.906 383.475 397.97 384.251 399.73 384.087C400.76 383.991 401.825 383.684 402.813 383.381C404.373 381.921 406.019 380.73 406.081 378.429C406.107 377.417 405.615 376.505 404.836 375.856C402.518 373.926 399.217 373.884 396.36 374.056ZM395.425 384.61L395.763 385.142L396.084 385.013L395.622 384.577L395.425 384.61ZM401.597 385.206L400.511 385.328L401.354 385.71L402.238 385.523L401.597 385.206ZM386.51 389.255C386.501 390.908 386.174 392.336 387.066 393.752L388.551 393.816C388.52 392.327 388.455 391.256 387.47 390.047C387.161 389.667 386.891 389.515 386.51 389.255Z"/><path d="M472.675 421.222C472.346 421.952 472.438 422.188 471.672 422.518C468.515 408.168 468.465 393.3 462.125 379.744C459.18 373.447 454.591 368.045 451.501 361.833C451.422 361.676 451.347 361.516 451.27 361.358C457.041 365.278 465.114 378.819 468.44 385.011C475.222 397.637 476.809 407.37 472.675 421.222Z"/><path d="M573.878 382.948L575.084 383.084L574.557 383.715L573.878 382.948Z"/><path d="M603.146 410.019C599.252 410.853 595.613 411.723 591.601 411.3C590.873 411.224 591.184 411.366 590.674 410.729C592.757 409.298 595.408 408.744 597.771 407.891C602.429 406.21 607.355 403.528 611.106 400.278C616.223 395.845 620.065 390.484 620.556 383.593C626.425 387.133 633.1 387.107 636.64 389.268L636.137 389.91C630.953 391.56 628.337 390.251 623.368 389.629L623.026 390.243C624.697 393.932 631.233 395.756 634.281 398.542C634.399 398.65 634.512 398.763 634.628 398.873C629.975 398.585 626.081 397.272 621.705 395.784L621.403 396.343C623.456 399.904 626.814 401.962 628.779 405.691L629.136 406.375C625.186 404.427 621.516 402.007 617.804 399.649C616.893 400.564 616.169 401.419 615.432 402.478C615.753 404.298 616.895 404.916 618.204 406.177C618.478 406.602 618.748 407.031 619.012 407.463C620.024 409.125 620.821 410.468 620.321 412.47L619.597 412.712C616.829 411.62 614.244 408.694 611.915 406.755C610.044 407.105 608.363 407.483 606.59 408.186C606.796 409.131 606.642 408.741 607.126 409.618C607.576 410.434 608.107 411.254 608.461 412.117C608.926 413.249 608.854 413.962 608.416 415.055C607.239 415.731 607.319 415.736 606.009 415.395C604.525 413.858 603.926 411.969 603.146 410.019Z"/><path d="M354.953 397.893C355.957 399.26 356.725 400.376 358.208 401.237C358.163 400.484 358.028 400.071 357.699 399.383C356.852 397.611 356.269 396.245 356.019 394.282C355.996 394.107 355.98 393.931 355.96 393.755C357.432 394.735 357.997 396.45 358.984 397.864C368.115 410.948 377.592 409.223 390.981 411.917C392.282 412.178 394.035 412.386 394.791 413.526C392.568 416.086 388.099 414.065 385.232 415.428C385.026 416.597 384.95 417.732 384.878 418.915L384.396 418.853C383.88 417.854 383.386 417 382.678 416.125C378.445 415.985 377.964 420.857 374.338 421.486L373.863 421.046C374.012 418.908 375.15 416.788 376.532 415.174C376.746 414.923 376.97 414.681 377.188 414.435L377.059 413.874C369.458 412.574 369.618 418.819 364.678 419.147C364.631 418.997 364.569 418.85 364.537 418.696C364.211 417.123 364.872 416.005 365.645 414.703C366.182 413.799 366.612 413.115 366.858 412.079C365.509 411.305 364.381 411.505 362.843 411.476C361.212 412.552 357.132 417.296 355.891 417.409C355.804 417.218 355.706 417.033 355.63 416.838C354.107 412.906 359.496 411.091 360.783 408.019L360.061 407.362C356.988 406.921 353.144 410.412 350.55 411.889L349.877 411.329C349.424 407.038 354.846 405.839 355.394 402.142L354.332 401.542C352.955 401.553 352.26 401.38 351.086 402.137C351.843 402.369 352.524 402.455 353.31 402.504L354.295 402.561L354.205 403.106C351.739 404.147 347.019 407.192 344.534 407.081C343.778 405.871 344.118 405.479 344.337 404.142C341.271 404.763 339.723 403.847 336.79 402.838C343.112 399.215 347.666 397.986 354.953 397.893Z"/><path d="M465.762 474.305C465.397 480.543 465.164 486.601 466.812 492.691C467.459 495.081 470.392 499.708 469.995 501.837C469.422 501.828 469.342 501.862 468.713 501.652C465.221 500.486 461.968 495.852 460.852 492.54C457.955 483.947 462.405 473.92 466.161 466.307C468.216 473.983 471.237 483.047 478.512 487.317C485.089 491.178 492.727 488.938 499.582 487.234C495.147 490.748 490.529 493.488 484.637 493.176C478.838 492.868 474.706 490.2 470.903 486.085C468.59 482.475 467.257 478.303 465.762 474.305Z"/><path d="M519.368 502.097C518.416 502.514 517.494 502.77 516.487 503.021C515.769 502.237 519.391 497.791 520.074 496.237C522.354 491.054 522.129 485.368 522.037 479.843C522.709 480.417 522.671 480.318 523.129 480.896C525.57 483.979 526.616 487.939 526.018 491.825C525.317 496.639 523.153 499.316 519.368 502.097Z"/><path d="M513.382 498.642C503.184 499.316 496.526 507.635 488.565 507.173C481.448 506.76 476.492 501.058 472.088 496.115C471.744 494.597 472.346 494.237 473.152 492.953C479.512 494.14 482.269 498.74 487.391 502.063C498.416 509.217 499.208 496.396 507.711 494.853C509.566 494.517 511.496 494.186 513.143 495.275C513.849 496.717 513.629 497.098 513.382 498.642Z"/><path d="M475.253 532.088C479.186 528.726 482.977 527.077 488.151 527.49C501.686 528.572 509.097 525.693 522.254 531.807C524.798 532.989 527.539 534.155 529.89 535.682C527.134 535.489 524.46 534.657 521.832 533.858C510.378 530.373 507.138 528.869 495.338 532.88C489.662 531.587 485.626 530.056 479.699 531.234L475.253 532.088Z"/><path d="M475.002 532.377L475.253 532.088L475.002 532.377Z"/><path d="M529.89 535.682L530.497 535.885L529.89 535.682Z"/><path d="M496.869 547.841C515.465 533.309 532.761 550.774 547.906 540.455C549.131 540.832 549.896 541.335 550.932 542.057C551.749 543.429 551.866 544.024 551.85 545.557C551.306 546.903 550.689 547.575 549.422 548.254C547.368 549.354 544.677 549.637 542.399 550.014C536.563 550.978 531.329 551.295 525.427 550.919C521.474 550.667 517.381 549.898 513.432 550.436C507.474 551.248 502.925 555.529 496.567 555.575C490.727 555.617 485.71 552.208 480 551.695C467.751 550.596 464.882 555.346 449.961 551.22C449.112 550.387 448.695 549.753 448.426 548.572C448.07 547.006 448.177 545.899 449.006 544.486C452.508 542.514 454.51 545.959 457.885 546.277C463.486 546.805 470.317 543.377 476.017 542.635C483.616 541.647 490.708 543.116 496.869 547.841Z"/><path d="M466.374 562.941C472.282 567.836 478.627 570.766 486.151 572.229C501.452 575.204 516.046 572.076 528.837 563.49L529.193 563.919C528.98 564.441 528.981 564.5 528.61 565.041C523.756 572.104 512.938 578.776 504.453 580.176C491.769 582.269 482.364 576.829 472.442 569.603C470.172 567.493 468.222 565.431 466.374 562.941Z"/><path d="M525.752 573.831L526.497 573.622L525.752 573.831Z"/><path d="M524.796 574.706L525.752 573.831L524.796 574.706Z"/><path d="M524.503 574.886L524.796 574.706L524.503 574.886Z"/><path d="M487.906 579.508C484.489 579.45 482.394 578.325 479.626 576.393C482.537 576.879 485.229 578.31 487.906 579.508Z"/><path d="M514.732 578.292L515.497 578.085L514.732 578.292Z"/><path d="M518.744 578.35L519.497 578.106L518.744 578.35Z"/><path d="M514.003 578.969L514.732 578.292L514.003 578.969Z"/><path d="M518.503 578.896L518.744 578.35L518.503 578.896Z"/><path d="M503.1 582.145L502.929 581.997L502.931 581.597C506.346 580.937 509.583 580.174 512.877 579.05L513.065 579.177L513.143 579.711C510 581.347 506.629 582.092 503.1 582.145Z"/><path d="M517.757 579.287L517.997 579.051L517.757 579.287Z"/><path d="M501.345 582.917C507.835 583.133 511.834 581.176 517.757 579.287C514.714 582.123 508.783 584.357 504.671 584.142C503.049 584.057 502.686 583.857 501.345 582.917Z"/><path d="M519.732 579.794L520.497 579.59L519.732 579.794Z"/><path d="M484.375 580.192L483.004 580.066L484.375 580.192Z"/><path d="M518.695 580.794L519.732 579.794L518.695 580.794Z"/><path d="M527.726 580.346L527.968 580.085L527.726 580.346Z"/><path d="M484.375 580.192L484.998 580.975L484.375 580.192Z"/><path d="M517.71 581.086L518.695 580.794L517.71 581.086Z"/><path d="M484.005 585.372C503.694 589.407 509.705 588.157 527.726 580.346C522.844 585.984 513.407 589.707 506.08 590.253C499.607 590.735 489.255 589.482 484.005 585.372Z"/><path d="M501.345 582.917C499.461 583.277 489.034 582.556 486.993 582.032C486.34 581.864 485.563 581.263 485 580.884C490.201 581.784 495.761 581.259 501.109 582.077L501.345 582.917Z"/><path d="M516.704 581.673L517.71 581.086L516.704 581.673Z"/><path d="M515.707 582.136L516.704 581.673L515.707 582.136Z"/><path d="M514.706 582.651L515.707 582.136L514.706 582.651Z"/><path d="M513.706 583.146L514.706 582.651L513.706 583.146Z"/><path d="M487.055 583.645C485.915 583.964 485.99 583.961 484.956 583.382L486.034 583.041L487.055 583.645Z"/><path d="M494.343 584.934C493.8 584.971 493.622 584.998 493.026 584.954C491.479 584.84 489.845 584.416 488.846 583.167C490.546 583.195 492.722 582.976 494.237 583.764L494.343 584.934Z"/><path d="M513.118 583.592L513.706 583.146L513.118 583.592Z"/><path d="M495.62 585.017L495.42 583.807C501.841 584.184 506.64 584.876 513.118 583.592C511.186 585.528 507.111 586.048 504.508 586.244C502.4 586.403 497.351 586.463 495.62 585.017Z"/><path d="M483.335 584.808L483.002 584.619L483.335 584.808Z"/><path d="M483.335 584.808L484.005 585.372L483.335 584.808Z"/><path d="M932.912 765.079L933.236 764.691L932.912 765.079Z"/><path d="M932.569 765.401L932.912 765.079L932.569 765.401Z"/></svg>