<?xml version="1.0" encoding="utf-8" ?><svg xmlns="http://www.w3.org/2000/svg" xmlns:xlink="http://www.w3.org/1999/xlink" width="1024" height="1024" viewBox="0 0 1024 1024"><path fill="white" d="M0 0L0 1024L1024 1024L1024 0L0 0Z"/><path d="M800.758 551.232C803.162 547.07 806.214 543.29 808.548 539.095C819.659 519.123 823.174 497.203 823.635 474.661C823.768 468.135 824.409 460.132 822.811 453.826C822.775 453.686 822.734 453.547 822.696 453.408C821.82 497.59 812.974 537.933 779.664 569.732C772.56 576.514 764.353 583.587 754.62 585.983L754.289 585.654C756.974 584.381 759.523 583.259 761.744 581.243C786.287 558.965 798.648 525.386 800.323 492.744C800.955 480.432 800.64 467.783 799.537 455.503C798.004 465.08 796.639 474.685 794.183 484.08C785.945 515.603 768.46 547.429 741.715 566.646C723.635 579.638 703.662 587.797 681.203 588.101C695.411 581.844 709.726 566.678 715.377 552.214C715.562 551.74 715.53 551.809 715.661 551.337L715.893 551.003L715.661 551.337L715.374 551.662C711.665 555.929 708.719 560.801 704.851 564.95C691.597 579.169 672.153 587.93 652.867 589.324C646.811 589.762 641.261 589.441 635.388 587.859C654.875 573.419 664.135 553.573 668.569 530.176L668.295 530.679C665.517 535.863 663.425 541.416 660.803 546.689C653.46 561.458 644.304 572.741 632.557 584.201L633.918 590.47C653.405 595.677 676.727 601.973 694.002 612.455C700.54 616.421 705.82 625.304 710.73 631.16C715.855 637.274 721.51 643.664 727.611 648.799C733.372 653.648 739.445 658.505 745.817 662.513C758.654 670.587 772.653 676.791 785.354 685.071C790.658 688.529 794.555 693.478 799.542 697.251C805.279 701.592 813.101 705.891 816.632 712.45C818.11 715.196 817.817 718.238 816.792 721.085C815.93 723.482 814.733 725.771 813.589 728.043C828.516 731.689 842.331 739.625 855.818 746.769C878.157 758.602 897.213 769.503 918.308 783.464C924.096 787.295 930.789 791.053 935.816 795.817C937.62 797.527 939.056 799.649 940.332 801.768C944.007 807.875 946.792 814.714 949.466 821.313C968.94 869.356 972.923 922.678 979.446 973.603C981.597 990.397 985.071 1007.18 986.717 1024L800.814 1024C801.075 1022.88 801.347 1021.76 801.629 1020.64C818.121 956.258 843.628 890.389 887.613 839.561C899.519 825.802 912.159 813.506 927.944 804.219C941.386 818.859 946.967 842.813 955.455 860.5L955.673 860.946L955.963 861.497L955.673 860.946C954.232 850.526 939.183 804.557 930.619 798.288C926.392 795.194 921.654 792.669 917.246 789.823C904.326 781.482 891.126 773.786 877.753 766.21C863.902 758.362 849.309 750.105 834.335 744.576C824.731 741.03 814.836 738.622 804.575 738.38L805.121 738.616C810.43 740.861 816.008 742.456 821.402 744.487C828.841 747.289 836.167 750.61 843.387 753.927C864.549 763.65 885.074 775.597 905.534 786.733C910.303 789.328 922.302 794.633 925.725 797.602L925.199 798.01C916.26 804.851 908.421 809.148 899.747 817.187C860.147 853.888 828.498 918.521 811.262 968.939C805.061 987.079 800.554 1005.76 794.682 1024L792.773 1024C787.178 996.244 784.688 967.044 782.164 938.864C781.545 931.944 777.585 872.158 777.514 871.991C774.638 893.559 780.649 999.946 786.847 1017.42L788.153 1021.14C784.098 1014.28 779.751 1007.58 775.705 1000.7C757.989 970.573 740.555 940.194 721.538 910.862C716.246 902.699 710.253 891.401 703.339 884.803L703.1 884.503L703.339 884.803C705.474 889.279 708.675 893.425 711.226 897.701C715.936 905.598 720.295 913.775 724.687 921.854L767.123 998.123C771.925 1006.64 776.164 1015.64 781.187 1024L608.383 1024C613.206 997.594 615.862 970.332 618.699 943.638C613.845 947.96 607.877 951.265 603.643 956.226C602.337 963.096 602.105 970.288 601.325 977.244C599.575 992.853 597.791 1008.53 595.04 1024L511.896 1024C531.377 1005.46 551.438 987.868 572.707 971.364C592.57 955.951 613.26 941.506 632.94 925.878C689.453 881.002 743.175 826.148 783.498 766.138C791.541 754.167 808.843 728.616 812.513 715.925C807.907 709.018 797.318 703.355 791.093 697.127C791.283 698.331 791.471 699.54 791.569 700.755C792.465 711.757 778.364 731.579 772.601 741.189C740.642 794.478 699.512 840.441 652.842 881.301C631.678 899.829 609.35 917.235 587.223 934.589C554.078 960.585 513.042 991.72 486.263 1024L475.721 1024C479.524 1016.87 485.249 1010.24 490.482 1004.09C525.283 963.21 570.185 931.18 611.744 897.625C622.663 888.809 633.181 879.399 643.682 870.087C671.438 845.473 699.114 818.054 721.66 788.507C734.305 771.935 745.561 754.171 756.187 736.257C762.172 726.166 771.692 712.754 774.719 701.656C775.974 697.055 776.267 692.236 776.55 687.496C770.797 682.883 764.107 679.371 757.959 675.297C758.82 676.909 759.792 678.569 760.14 680.385C762.215 691.209 751.478 709.275 746.557 718.625C731.311 747.593 711.724 775.455 690.184 800.065C682.258 809.121 673.644 817.532 665.16 826.059C638.009 853.352 609.292 878.694 580.082 903.739C558.701 922.071 536.943 939.668 517.017 959.637C506.456 970.221 496.617 980.987 488.05 993.272C481.03 1003.34 474.901 1014.06 467.746 1024L463.258 1024C466.71 1013.75 470.883 1003.77 474.943 993.75C493.601 947.548 517.159 903.481 545.212 862.302C557.132 844.537 570.802 827.906 582.418 809.957C579.415 810.927 576.386 811.82 573.336 812.633C518.044 827.446 457.239 825.905 404.31 803.08C394.675 798.925 385.638 793.733 376.567 788.486C376.286 803.996 377.535 819.295 378.664 834.746C382.356 885.276 389.352 935.891 402.841 984.79C406.518 998.121 410.198 1011.26 415.658 1024L411.546 1024C384.733 985.786 358.456 947.376 339.422 904.55C311.516 841.761 285.171 749.862 310.841 683.244C303.417 686.013 295.74 690.339 288.736 694.067C287.103 698.355 286.211 702.916 285.508 707.439C272.925 788.369 312.58 893.493 354.667 961.447C363.914 976.377 374.778 991.204 385.421 1005.18C390.24 1011.5 395.386 1017.58 400.074 1024L387.656 1024C376.579 1010.34 365.816 996.648 355.874 982.119C304.752 907.409 259.249 791.65 276.354 700.502C270.567 704.106 263.938 707.699 258.864 712.255C252.334 718.116 252.009 733.64 251.408 742.222C249.321 772.003 253.623 801.246 261.426 829.919C266.85 849.852 273.635 869.979 282.24 888.771C305.262 939.051 340.64 982.582 376.695 1024L321.958 1024C322.245 1012.44 323.067 1000.82 324.04 989.293C324.508 983.742 324.663 977.615 326.079 972.221C321.947 967.159 318.751 961.359 314.646 956.227C311.613 978.77 310.944 1001.32 309.753 1024L154.396 1024C161.629 984.176 173.937 962.317 193.142 927.566L227.414 866.793C234.433 854.355 243.276 841.881 248.709 828.663L249.166 828.246L249.394 827.503L249.166 828.246L248.709 828.663C243.056 835.236 237.316 846.257 232.451 853.838C211.027 887.222 191.422 921.834 171.024 955.837C170.756 934.232 175.386 906.061 180.085 884.894C182.083 875.895 186.548 860.508 187.17 851.879L187.36 851.369L187.17 851.879C184.742 858.6 183.276 865.894 181.458 872.817C175.074 897.077 169.979 921.657 166.192 946.455C165.472 951.273 164.826 956.149 164.49 961.011C164.236 964.695 164.504 968.733 163.752 972.331C162.041 980.522 158.21 988.757 155.69 996.786C152.92 1005.61 151.309 1014.94 149.527 1024L42.8336 1024C44.5508 1014.11 47.0448 1004.31 49.4141 994.558C55.0262 971.451 61.5101 948.865 68.7925 926.232C75.7651 904.562 83.2764 883.246 91.0792 861.874C94.8869 851.444 98.4728 840.861 102.644 830.572C105.635 823.196 109.168 816.04 112.333 808.738C116.862 798.29 120.716 785.709 127.347 776.5C129.356 773.709 132.282 771.698 134.988 769.634C135.598 767.464 136.301 765.896 138.018 764.359C145.405 757.751 156.61 753.011 165.447 748.574C186.123 738.193 206.889 728.311 228.49 719.971C236.081 717.04 244.637 715.46 251.914 711.909C258.256 708.814 264.201 702.129 270.904 698.333C282.958 691.507 295.832 685.719 308.202 679.464C313.985 676.539 319.98 673.743 325.346 670.088C337.938 661.512 347.687 648.788 357.246 637.088C338.594 642.264 302.216 630.453 285.21 621.551C244.79 600.393 217.31 567.957 203.957 524.356C201.82 517.387 200.052 510.309 198.66 503.154C197.903 499.319 197.626 495.197 196.466 491.484L196.206 491.766C196.289 494.513 196.428 497.259 196.624 500C199.089 531.833 207.459 566.841 227.977 592.109C233.132 598.458 239.206 603.741 245.383 609.053C228.927 601.169 213.906 590.094 203.195 575.175C199.956 570.665 197.619 565.415 194.204 561.076C189.568 555.186 183.382 550.639 178.727 544.572C154.03 512.386 149.949 472.309 155.031 433.196C156.455 422.234 158.861 411.448 161.398 400.699C172.909 351.915 192.677 308.264 210.812 261.917C214.525 252.426 216.345 242.668 218.802 232.812C220.755 224.979 223.188 217.289 225.635 209.6C239.256 166.807 256.038 133.986 284.956 99.5477C296.124 86.2472 308.679 73.2066 322.523 62.6545C371.959 24.9738 456.735 5.98218 518.112 14.1582C548.801 18.0914 578.521 27.5594 605.83 42.1021C640.193 60.7398 673.007 91.4693 696.663 122.404C714.772 146.084 728.982 172.17 743.157 198.313C785.015 275.51 841.961 400.219 830.083 488.577C829.147 495.54 827.865 502.474 825.743 509.181C821.829 521.551 811.15 543.283 800.758 551.232ZM505.002 57.5315L506.371 57.652L507.262 58.8533L508.307 59.0613L509.319 59.6731C510.506 61.529 525.289 69.4953 528.394 71.582C535.004 76.0237 541.383 81.0986 547.435 86.2787C601.566 132.612 639.684 216.94 648.987 286.717C651.18 302.937 652.521 319.26 653.002 335.62C653.192 345.035 652.447 354.661 653.168 364.033L653.521 363.924C654.109 358.646 654.109 353.223 654.296 347.914C656.204 293.721 642.681 230.166 620.507 180.752C611.752 161.535 601.107 143.236 588.729 126.127C571.391 101.867 549.123 81.5443 523.383 66.4901C519.498 64.2307 513.712 60.3614 509.319 59.6731L508.307 59.0613L507.262 58.8533L506.371 57.652L505.002 57.5315ZM664.003 117.588L664.828 118.221L665.115 119.276L666 120.5L666.654 121.228L667.169 122.292L667.591 122.607L668.199 123.816L668.419 123.944C669.796 128.463 676.951 137.347 679.898 141.814C684.735 149.145 689.56 156.539 694.053 164.086C703.551 180.037 712.118 196.734 719.988 213.543C744.739 266.405 760.64 322.31 771.404 379.55C774 393.358 776.768 407.199 778.459 421.153C780.163 435.206 781.792 449.462 782.474 463.603C782.792 470.196 781.992 477.243 782.828 483.748L782.952 484.647C784.473 478.814 783.629 465.336 783.289 458.875C778.379 365.847 753.638 274.942 710.725 192.257C704.694 180.801 698.737 169.429 691.814 158.479C686.867 150.654 674.292 129.243 668.419 123.944L668.199 123.816L667.591 122.607L667.169 122.292L666.654 121.228L666 120.5C665.77 120.037 665.438 119.677 665.115 119.276L664.828 118.221L664.003 117.588ZM291.689 159.248L290.77 160.242L290.443 160.645L289.815 161.856L289.642 162.237C284.672 167.831 281.189 176.436 278.024 183.199C260.911 219.758 251.389 260.265 253.827 300.777C255.032 320.813 259.575 340.783 268.724 358.753C270.366 361.978 272.469 366.314 275.147 368.77L275.408 368.998L275.147 368.77C272.985 363.054 269.405 357.731 267.027 352.048C248.764 308.408 257.102 243.405 272.798 199.782C277.424 186.925 284.365 175.221 289.477 162.65L289.642 162.237L289.815 161.856L290.443 160.645L290.77 160.242L291.689 159.248L291.91 158.502L291.689 159.248ZM321.125 214.002L321.491 214.258C322.451 223.583 326.074 232.97 329.92 241.456C343.795 272.068 365.233 293.737 390.968 314.656C397.499 319.964 405.485 323.615 411.699 329.127C408.867 328.175 406.088 326.791 403.286 325.715C381.656 317.411 367.828 309.598 352.931 291.283C349.239 286.744 346.543 281.456 342.9 276.91L342.255 276.115L342.015 275.503L342.255 276.115C346.093 289.024 363.076 303.482 372.31 313.247C374.923 316.01 377.052 319.133 379.584 321.949C381.701 324.304 384.17 326.232 386.141 328.727L385.582 328.907L385.882 328.306L385.086 328.683C383.516 327.737 381.895 326.662 380.206 325.946C375.241 323.84 368.343 324.78 363.041 324.978C342.387 325.748 309.192 328.919 290.129 336.629C289.927 336.711 289.726 336.797 289.525 336.881C289.407 343.522 289.579 350.176 289.521 356.819C289.478 361.805 288.8 367.623 289.768 372.493C291.565 381.539 297.256 390.424 300.286 399.227C302.583 405.9 304.133 412.848 306.291 419.58C311.328 434.985 316.827 450.235 322.782 465.309C325.658 472.63 328.387 480.1 331.703 487.235C337.647 500.025 347.077 512.649 356.922 522.719C381.542 547.9 430.437 579.826 463.454 591.609C476.664 596.323 488.083 593.975 500.5 588.054C512.084 582.53 523.073 575.035 533.68 567.852C577.224 538.36 612.876 501.238 630.49 450.818C617.103 468.574 606.163 477.86 583.916 481.988C589.497 478.61 595.674 475.541 600.699 471.397C614.775 459.793 620.12 442.379 621.803 424.786C616.067 441.688 604.726 466.648 590.609 477.726C592.951 474.886 595.136 471.995 597.052 468.846C605.042 455.718 610.103 440.118 612.929 425.02C619.02 392.473 616.82 343.9 609.051 311.489C592.642 310.51 575.74 308.675 559.713 304.982C552.864 303.404 540.119 298.011 534.512 297.726C524.287 297.206 507.98 302.555 497.054 304.122C498.212 304.598 499.379 304.953 500.574 305.323L500.566 305.911C500.308 306.064 500.053 306.222 499.792 306.368C496.361 308.29 491.755 309.169 487.939 310.159C467.971 315.341 448.882 315.533 429.104 309.259C391.508 297.335 367.465 268.224 350.039 234.344L349.823 234.662C354.419 248.518 366.324 265.338 375.969 276.219C398.344 301.463 426.979 315.705 460.656 317.782C436.592 321.586 413.499 318.137 391.848 306.946C384.757 303.281 377.625 299.02 371.416 294.009C352.841 279.016 337.743 256.653 328.553 234.724C325.76 228.06 323.671 221.14 321.491 214.258L321.125 214.002ZM437.113 216.002L437.535 216.469L437.856 216.842C438.535 218.192 439.3 219.413 440.163 220.65C454.286 240.9 478.376 263.253 498.906 276.983C503.161 279.829 508.814 283.781 513.885 284.678C510.823 280.54 501.372 276.404 497.015 273.171C490.732 268.508 484.727 263.43 478.827 258.297C469.865 250.501 461.107 242.774 453.042 234.021C447.985 228.531 443.401 221.75 437.856 216.842L437.535 216.469L437.113 216.002ZM315.124 254.884L315.293 255.417C318.018 273.876 328.545 292.829 339.564 307.485L347.156 305.675C347.484 305.473 347.304 305.63 347.538 305.07C331.977 292.07 322.972 273.717 315.293 255.417L315.124 254.884ZM713.04 264.002L713.801 264.62L713.933 265.998L713.801 264.62L713.04 264.002ZM714.503 268.002L714.779 268.535C715.331 273.142 717.584 278.395 718.906 282.879C721.827 292.786 724.727 302.782 727.173 312.816C737.333 354.496 744.736 398.4 744.465 441.379C744.407 459.708 742.378 477.978 738.413 495.873C737.021 502.205 732.524 515.228 732.296 520.241L732.957 519.648C734.993 513.311 736.894 506.932 738.659 500.514C755.502 438.052 744.734 362.653 726.095 301.79C723.26 292.531 719.319 276.439 714.779 268.535L714.503 268.002ZM411.519 189.812C411.528 197.348 413.286 205.361 415.332 212.587C422.414 237.594 436.658 261.59 454.946 280.003C458.321 283.401 462.065 287.445 466.27 289.785L466.59 290.077C467.292 290.915 467.704 291.373 468.731 291.776L469.116 292.064L469.498 292.398L469.116 292.064L468.731 291.776C468.061 290.806 467.685 290.511 466.59 290.077L466.27 289.785C463.842 286.223 459.485 282.914 456.393 279.818C452.019 275.469 447.953 270.82 444.225 265.907C432.655 250.77 421.077 229.74 416.166 211.323C414.432 204.818 414.081 196.834 411.864 190.724C411.753 190.419 411.634 190.116 411.519 189.812ZM295.056 407.529C294.529 409.818 294.312 412.169 294.413 414.516C294.71 420.737 297.655 425.572 302.136 429.715L302.378 429.998L302.136 429.715C302.002 425.536 299.642 419.974 298.482 415.909C297.87 413.763 297.035 408.63 295.056 407.529ZM228.73 335.873C228.551 345.215 226.972 354.798 226.504 364.196C225.091 392.521 224.716 421.344 227.229 449.604C230.757 489.285 239.572 530.655 259.353 565.637C262.285 570.823 265.785 577.655 270.383 581.51C270.827 582.761 270.443 582.272 271.5 583L272.163 583.7L272.705 584.476L272.163 583.7L271.5 583C271.063 581.779 271.434 582.276 270.383 581.51C268.47 577.134 264.86 572.721 262.366 568.532C258.159 561.465 254.592 553.985 251.352 546.43C231.249 499.548 228.144 445.344 227.584 395.003C227.41 380.821 227.623 366.636 228.223 352.465C228.429 346.968 229.83 340.579 229.199 335.188L228.73 335.873ZM384.082 593.058L384.309 593.289C388.235 599.94 393.138 604.468 399.61 608.612C375.967 613.334 362.86 616.733 341.289 602.221C324.043 590.619 314.077 574.076 304.613 556.104C310.919 578.802 323.873 602.791 345.03 614.844C351.258 618.392 358.058 620.355 365.048 621.743C349.049 625.474 339.085 623.213 325.026 614.507C323.615 613.633 322.242 612.558 320.78 611.79L320.562 611.57L320.78 611.79C325.267 620.017 336.252 628.915 344.761 632.716C348.78 634.511 353.035 635.518 357.131 637.088C377.192 619.163 392.18 613.172 417.791 606.904C422.873 605.66 428.784 606.13 433.5 603.792C433.817 602.626 433.76 602.659 433.205 601.575C430.087 599.996 423.076 603.186 419.454 603.843C404.522 606.552 396.212 601.532 384.309 593.289L384.082 593.058ZM504.139 57.25L504.745 57.25L504.139 57.25ZM292.2 157.75L292.651 157.75L292.2 157.75ZM420.196 194.75L420.54 194.75L420.196 194.75ZM420.25 195.313C429.667 224.112 442.708 248.054 461.795 271.575C467.378 278.456 473.18 285.406 479.649 291.477C483.683 288.894 487.797 287.561 492.374 286.249L497.934 284.828C479.974 272.821 462.944 258.458 449.614 241.348C440.037 229.055 432.417 215.395 424.615 201.951C423.501 200.03 422.015 196.508 420.25 195.313ZM253.232 215.985L253.509 216.25L253.232 215.985ZM252.74 217.487L253.018 217.75L252.74 217.487ZM252.222 218.374C236.503 261.106 231.292 312.935 251.024 355.22C254.831 363.378 259.697 371.957 265.725 378.695L266.517 379.318C266.317 377.946 256.045 361.081 254.311 357.328C246.249 339.877 243.219 321.578 241.892 302.567C240.997 289.11 241.502 275.596 243.399 262.244C244.806 252.321 246.487 242.506 248.914 232.779C249.744 229.455 252.686 221.423 252.222 218.374ZM348.246 230.75L348.684 230.75L348.246 230.75ZM348.679 231.75L349.066 231.75L348.679 231.75ZM349.161 232.955L349.745 233.25L349.161 232.955ZM297.136 233.284C296.443 258.164 307.363 289.778 324.593 307.861C325.717 309.04 326.84 310.009 328.456 310.382L331.466 309.604C331.123 307.597 323.694 300.993 321.951 298.984C318.546 295.062 314.755 290.145 312.363 285.523C306.202 273.617 301.903 261.632 299.481 248.426C298.61 243.675 298.924 237.699 297.136 233.284ZM290.681 254.832C288.901 258.566 288.438 263.355 287.842 267.451C283.647 296.261 286.339 325.165 287.653 354.077L288.185 353.753L291.155 259.728C291.193 258.113 291.26 256.359 290.681 254.832ZM712.201 261.75L712.558 261.75L712.201 261.75ZM712.654 262.953L713.239 263.25L712.654 262.953ZM293.642 264.57C291.913 276.185 291.793 288.227 291.313 299.953C290.849 311.314 290.109 322.753 289.957 334.117C295.828 328.719 301.448 323.775 308.204 319.472C313.603 316.193 318.829 313.449 324.778 311.313C312.931 304.06 304.627 290.206 299.235 277.755C297.374 273.459 295.967 268.585 293.642 264.57ZM714.149 266.955L714.715 267.25L714.149 266.955ZM341.713 274.75L342.076 274.75L341.713 274.75ZM679.825 319.114C670.678 320.921 665.686 327.006 660.794 334.308L659.453 336.323C659.42 341.928 659.475 347.547 659.139 353.144C662.501 347.103 668.349 336.351 675.412 334.131C677.089 333.604 678.821 333.649 680.393 334.479C683.487 336.114 684.978 340.057 685.807 343.241C686.888 347.391 687.156 351.602 687.306 355.87C686.242 350.945 684.58 343.256 679.972 340.431C678.633 339.611 677.081 339.42 675.58 339.901C671.997 341.049 669.747 344.635 667.662 347.543C672.21 348.933 674.786 350.813 677.102 355.061C677.992 356.693 678.644 358.498 679.319 360.228C676.559 356.904 673.144 351.848 668.424 351.389C666.83 351.234 665.377 351.861 664.219 352.925C659.051 357.675 658.337 367.102 657.746 373.603C661.366 372.006 664.773 371.14 668.578 372.718C671.24 373.822 674.094 376.3 675.23 378.998C675.711 380.137 675.678 380.722 675.351 381.886L674.25 382.262C669.72 379.851 670.153 374.393 661.192 377.137C659.737 377.582 658.317 378.219 656.922 378.819C655.642 383.871 651.186 400.788 653.417 404.903C654.39 405.27 654.614 405.441 655.627 404.998C659.692 403.221 662.98 397.653 664.25 393.603C664.534 392.696 664.744 391.764 664.942 390.835C665.464 385.586 664.79 383.569 662.46 378.843C663.683 378.928 664.323 379.488 665.11 380.394C667.759 383.441 668.6 387.177 668.196 391.137C667.575 397.53 664.286 403.365 659.138 407.207C656.757 409.002 654.121 409.761 651.247 410.366C646.828 423.282 645.792 437.53 639.95 449.947C645.428 448.266 650.408 446.173 655.313 443.188C670.947 433.674 693.763 411.6 702.186 395.568C709.485 381.676 710.458 369.354 705.782 354.481C702.476 343.968 696.268 325.911 686.052 320.531C684.021 319.462 682.087 319.209 679.825 319.114ZM194.271 322.978C188.619 333.602 185.301 346.261 181.497 357.675C166.12 403.803 152.337 456.666 166.841 504.788C170.005 515.286 175.036 524.666 180.573 534.055L187.809 544.461C173.357 498.838 174.359 448.004 180.097 400.959C181.657 388.168 183.95 375.458 185.918 362.724C187.308 353.98 189.032 345.293 191.086 336.681C192.031 332.612 194.226 327.071 194.271 322.978ZM288.299 361.182L288.555 361.508L288.299 361.182ZM283.472 383.603C277.913 400.066 282.246 419.281 289.69 434.364C296.14 447.432 308.457 466.646 319.449 476.001C314.604 463.966 310.609 451.768 306.055 439.653C304.262 435.667 297.747 425.829 294.713 422.993C296.876 431.616 301.863 438.34 305.465 446.303C301.429 441.795 295.538 433.391 294.603 427.328C293.988 423.341 294.469 420.533 292.572 416.684C291.675 416.903 291.234 417.757 290.647 418.454L290.259 418.182C290.97 413.924 293.638 409.548 294.917 405.285C291.57 401.332 287.298 398.474 283.706 394.789C287.148 396.474 290.364 398.213 293.321 400.679C291.683 396.497 288.313 385.772 284.115 383.846C283.907 383.75 283.686 383.684 283.472 383.603ZM617.863 493.346C608.083 507.832 598.399 522.324 588.003 536.381C573.374 556.161 557.328 575.493 540.781 593.684C532.726 602.539 524.679 611.458 515.63 619.319C506.492 627.258 494.063 636.911 481.852 639.22C472.965 640.901 464.599 638.981 457.191 633.845C453.226 631.097 449.977 627.833 447.014 624.044C450.898 647.851 453.236 671.897 451.254 696.032C450.663 702.771 449.871 709.491 448.879 716.182C448.377 719.721 447.367 723.316 447.457 726.883L446.918 726.915C446.335 720.218 447.545 713.075 447.496 706.289C447.411 689.603 446.689 672.927 445.331 656.296C431.027 671.464 415.421 678.418 398.125 688.973C392.295 701.396 388.328 713.79 385.733 727.256C397.279 731.357 408.884 735.293 420.543 739.061C439.221 745 454.212 746.073 463.462 765.799C464.8 768.68 465.944 771.648 466.886 774.681C464.627 772.709 462.36 770.772 460.485 768.418C456.434 763.333 453.535 756.577 448.319 752.553C441.104 746.986 421.254 743.794 411.723 740.792C402.501 737.888 393.683 734.615 384.894 730.584C383.292 737.959 381.795 745.304 380.9 752.806C386.66 757.852 392.87 762.358 399.452 766.269C454.887 797.976 511.845 797.68 572.406 781.226C585.619 777.635 598.19 772.707 610.844 767.529C616.906 757.576 622.935 747.239 627.488 736.496C605.099 742.656 582.519 748.096 559.781 752.807C552.532 754.272 545.265 755.645 537.981 756.925C532.245 757.906 525.868 758.278 520.481 760.583C512.001 764.211 504.485 771.912 496.568 776.784C501.845 769.425 509.119 763.004 517.334 759.079C525.242 755.3 534.667 753.568 543.152 751.482C559.506 747.549 575.907 743.809 592.349 740.265C603.356 737.847 614.412 734.593 625.52 732.783C626.755 732.582 628.002 732.506 629.251 732.48C640.745 711.636 650.952 684.853 656.741 661.845C652.609 654.526 647.497 647.778 643.786 640.227C627.637 607.372 621.257 568.478 618.851 532.206C618.332 524.377 618.152 516.418 618.103 508.572C618.072 503.826 618.963 497.862 617.863 493.346ZM250.112 718.553C240.638 721.649 231.225 724.874 222.011 728.688C211.155 733.181 145.43 763.442 142.566 769.021C142.322 770.639 142.608 771.642 143.091 773.153L143.501 773.555C167.833 759.948 192.024 746.537 217.157 734.431C222.23 731.987 248.271 721.039 250.673 718.822L250.112 718.553ZM141.269 775.317C137.112 780.65 136.22 789.672 135.299 796.189C131.552 822.693 132.008 848.065 135.294 874.593C139.009 904.585 145.963 945.815 157.484 973.464L158.172 973.89C158.622 969.243 155.049 959.999 153.765 955.35C144.911 923.521 139.201 890.9 136.715 857.956C135.538 840.422 135.245 822.522 137.47 805.055C138.105 800.068 142.434 778.897 141.762 775.801L141.269 775.317ZM137.498 775.773C134.839 777.689 133.216 779.56 131.562 782.36C120.937 800.347 114.134 821.258 106.283 840.597C104.107 845.958 99.7499 854.453 98.6732 859.675C98.6337 859.867 98.6174 860.063 98.5895 860.256L99.092 860.203C103.978 848.823 138.823 780.4 138.184 776.142L137.498 775.773ZM250.211 825.75L250.589 825.75L250.211 825.75ZM249.675 826.75L250.067 826.75L249.675 826.75ZM187.589 850.25L188 850.25L187.589 850.25ZM98.1985 861.486L98.485 861.75L98.1985 861.486ZM97.703 862.75L98.0627 862.75L97.703 862.75ZM956.233 862.75L956.568 862.75L956.233 862.75ZM97.2391 863.75L97.6305 863.75L97.2391 863.75Z"/><path d="M489.441 343.005C491.493 338.588 493.651 334.7 496.868 331.014C508.651 317.513 527.134 311.307 544.596 310.203C556.533 310.327 568.273 313.043 580.1 314.526C571.785 316.51 564.961 315.023 556.628 314.017C540.124 312.025 523.887 315.383 509.94 324.469C502.102 329.937 495.593 335.647 489.441 343.005Z"/><path d="M494.093 366.916C495.812 354.219 498.344 343.982 506.834 333.986C516.546 322.551 527.67 318.816 542.205 317.703C549.873 317.237 557.483 318.897 565.246 318.282C562.678 319.016 560.078 319.648 557.492 320.313C560.877 321.131 564.396 321.837 567.867 322.135C571.947 322.487 580.646 320.802 583.868 322.856L583.545 323.605C579.889 325.315 575.104 325.502 571.135 326.692C579.703 331.762 587.974 331.636 597.465 329.858C594.468 333 590.619 335.028 587.97 338.565C583.297 344.804 580.707 351.542 575.24 357.4C576.723 351.708 576.89 346.725 576.388 340.884C573.513 338.168 570.156 336.327 566.682 334.499C567.681 339.608 568.364 344.944 567.601 350.135C566.475 357.787 562.725 363.529 556.592 368.024C550.742 371.065 543.692 372.864 537.208 370.861C531.964 369.24 528.216 365.265 525.804 360.452C521.265 351.397 521.641 341.498 524.693 332.087C510.832 337.578 499.861 353.792 494.093 366.916ZM535.988 333.514C534.087 335.666 533.158 337.615 533.367 340.549C533.479 342.113 534.151 343.629 535.347 344.66C536.985 346.074 538.48 346.119 540.537 345.863C540.703 345.843 540.868 345.819 541.034 345.796C542.867 343.71 543.924 341.467 543.852 338.629C543.809 336.951 542.931 335.226 541.56 334.24C539.868 333.023 537.924 333.321 535.988 333.514ZM553.817 354.575C553.482 355.874 553.03 356.967 553.609 358.261L554.617 359.11L555.54 359.017L555.937 358.34C555.605 357.787 555.291 357.211 554.913 356.689L556.622 357.899L557.47 357.628C557.291 356.504 557.122 355.952 556.129 355.208C555.468 354.713 554.595 354.658 553.817 354.575ZM538.788 359.248C538.417 360.329 538.45 361.005 539.035 362.038C539.782 363.357 541.089 363.916 542.428 364.431C541.628 363.165 540.178 359.74 538.788 359.248ZM541.619 358.646L541.862 359.387C542.093 360.11 542.179 360.742 542.247 361.495C542.336 362.481 542.535 362.949 543.148 363.757C543.833 364.084 544.214 364.207 544.987 364.345C545 362.399 544.773 360.933 543.352 359.489C542.745 358.872 542.404 358.876 541.619 358.646Z"/><path d="M411.699 329.127L411.998 329.387L411.699 329.127Z"/><path d="M388.783 359.122C372.307 345.994 358.665 340.91 337.118 343.34C331.272 343.999 325.735 345.632 320.157 347.44C322.524 348.498 324.854 349.533 327.326 350.331C342.873 345.933 358.371 346.811 372.769 354.796C383.25 360.608 392.728 370.785 396.06 382.492C396.586 384.34 396.908 386.265 397.249 388.154C394.464 383.145 391.413 378.409 387.82 373.938C386.462 382.218 384.565 389.631 377.41 394.921C373.072 398.129 367.813 399.284 362.507 398.401C355.973 397.314 350.195 393.134 346.566 387.664C342.484 381.38 341.088 373.724 342.688 366.403C343.519 362.709 345.103 359.554 347.261 356.47C341.774 357.845 336.845 359.558 331.771 362.059C325.086 366.036 318.844 371.303 315.685 378.585C316.629 385.562 318.645 392.561 324.448 397.122C330.647 401.993 339.936 402.625 347.467 403.68C341.731 404.122 325.65 404.087 321.076 400.253C320.941 400.14 320.83 400 320.707 399.873C320.915 398.926 321.262 398.16 321.681 397.289C321.655 396.72 321.691 396.54 321.417 395.951C321.371 395.852 308.281 378.216 307.517 377.5C304.104 374.302 300.096 372.064 296.792 368.673C301.896 369.81 305.321 369.843 310.342 368.091C308.252 366.958 306.084 365.913 304.236 364.406C310.201 363.205 313.551 362.487 318.573 358.703C315.586 358.089 312.954 357.14 310.135 355.994C315.993 355.285 320.986 355.064 325.955 351.503C322.804 350.064 319.143 347.89 315.725 347.465C315.057 347.382 314.381 347.248 313.717 347.144L313.792 346.592C328.213 338.874 349.797 337.923 365.294 342.554C374.202 345.217 383.637 351.208 388.783 359.122ZM354.777 361.949C352.676 363.545 351.355 364.944 350.892 367.626C350.592 369.366 350.828 370.875 351.885 372.315C352.629 373.328 354.021 374.061 355.242 374.195C355.841 374.261 356.412 374.209 357.007 374.176C359.235 372.217 360.716 370.562 360.96 367.486C361.067 366.13 360.697 364.79 359.786 363.753C358.51 362.301 356.616 361.934 354.777 361.949ZM371.114 385.221C370.547 386.758 370.124 387.786 370.429 389.461C371.364 390.471 372.056 390.779 373.487 390.856C373.641 390.864 373.795 390.857 373.949 390.857C374.124 389.183 374.415 387.779 373.653 386.202C372.609 385.447 372.393 385.357 371.114 385.221ZM361.881 388.767L361.409 389.028L362.022 389.056L362.647 388.617L361.881 388.767Z"/><path d="M388.783 359.122L388.973 359.399L388.783 359.122Z"/><path d="M580.212 359.852L580.42 359.625L580.212 359.852Z"/><path d="M533.305 379.171C536.218 377.639 540.023 376.795 543.164 375.709C550.913 373.027 558.819 370.42 566.382 367.25C571.481 365.113 574.486 360.998 580.212 359.852C570.25 370.453 557.486 374.287 543.709 377.136C540.306 377.84 536.749 378.799 533.305 379.171Z"/><path d="M415.161 378.723C410.753 375.092 401.633 365.412 399.426 360.289C405.213 362.473 412.29 371.958 414.716 377.485C414.89 377.884 415.022 378.314 415.161 378.723Z"/><path d="M415.161 378.723L415.395 378.998L415.161 378.723Z"/><path d="M532 379.5C532.369 379.326 532.903 379.262 533.305 379.171L532 379.5Z"/><path d="M530.654 379.835C530.947 379.67 531.661 379.576 532 379.5C531.618 379.727 531.09 379.753 530.654 379.835Z"/><path d="M507.893 383.21L507.615 382.984C509.706 380.921 518.304 381.027 521.388 380.751L521.65 380.857L521.44 381.427C517.167 383.031 512.401 383.115 507.893 383.21Z"/><path d="M523.481 381.513L523.052 381.624L523.122 381.19L523.608 381.098L523.481 381.513Z"/><path d="M525.625 382.191L525.431 381.676L525.625 382.191Z"/><path d="M651.96 421.506L651.934 421.134C652.443 420.713 652.895 420.426 653.497 420.153C669.586 412.839 680.961 399.703 688.344 383.893C688.858 390.924 683.752 400.529 679.518 405.937C672.454 414.961 663.259 420.054 651.96 421.506Z"/><path d="M381.836 400.071L381.753 400.125L381.836 400.071Z"/><path d="M375.245 400.75L374.731 400.457L375.245 400.75Z"/><path d="M425.848 425.695C425.74 425.597 425.597 425.527 425.524 425.4C424.111 422.978 426.709 411.594 427.571 408.792C428.14 410.032 428.379 411.13 428.467 412.484C428.743 416.692 428.721 422.394 425.848 425.695Z"/><path d="M456.208 464.483C455.738 463.834 455.704 463.301 455.886 462.486C456.901 457.966 469.122 454.138 473.037 452.02L473.392 452.371C473.416 452.82 473.462 453.071 473.303 453.54C471.393 459.177 461.195 462.647 456.208 464.483Z"/><path d="M446.106 467.546C444.614 467.498 443.169 467.354 441.712 467.019C436.448 465.808 427.815 463.395 425.026 458.4C423.881 456.349 424.519 454.362 425.11 452.275C426.867 453.108 428.287 454.902 429.908 456.026C434.745 459.378 440.203 462.334 444.759 466.019C445.319 466.472 445.68 466.975 446.106 467.546Z"/><path d="M520.332 486.406C521.421 484.829 522.241 483.04 523.121 481.339C523.606 481.408 524.092 481.476 524.571 481.578C526.396 481.968 527.59 483.751 528.498 485.254C529.498 486.909 529.678 487.994 529.212 489.849C526.593 493.153 525.706 489.185 523.21 490.342C518.84 492.368 514.664 495.526 510.459 497.946C504.819 501.191 498.868 503.699 492.868 506.195C463.093 518.581 447.294 516.634 417.873 504.484C416.421 503.919 414.709 503.034 413.555 501.984C412.626 501.138 412.62 500.986 412.556 499.798C413.256 498.638 413.444 498.484 414.634 497.828C419.822 498.314 434.501 505.411 441.096 507.379C447.31 509.232 453.692 510.297 460.187 509.603C472.385 508.301 508.5 492.798 520.332 486.406Z"/><path d="M447.14 532.786C446.45 532.27 445.824 531.721 445.179 531.15C447.062 530.627 451.321 532.129 453.384 532.506C466.386 534.886 481.904 531.379 492.696 523.93L493.127 524.22C493.065 524.374 493.018 524.534 492.94 524.68C490.296 529.662 480.847 534.073 475.639 535.283C466.326 537.446 455.528 537.953 447.14 532.786Z"/><path d="M800.425 551.595L800.758 551.232L800.425 551.595Z"/><path d="M800.113 551.937L800.425 551.595L800.113 551.937Z"/><path d="M533.781 737.765C537.364 728.145 543.386 718.757 547.945 709.5C556.641 691.841 564.782 673.51 571.732 655.089C580.414 631.474 588.535 607.657 596.088 583.658C598.055 577.189 602.298 556.72 604.549 552.449C600.961 573.859 594.534 594.604 587.8 615.193C576.295 650.373 563.374 684.377 546.124 717.211C543.07 723.026 538.447 733.361 533.781 737.765Z"/><path d="M533.408 738.091L533.781 737.765L533.408 738.091Z"/><path d="M532.795 739.209L533.408 738.091L532.795 739.209Z"/><path d="M532.531 739.401L532.795 739.209L532.531 739.401Z"/></svg>