<?xml version="1.0" encoding="utf-8" ?><svg xmlns="http://www.w3.org/2000/svg" xmlns:xlink="http://www.w3.org/1999/xlink" width="1024" height="1024" viewBox="0 0 1024 1024"><path fill="white" d="M0 0L0 1024L1024 1024L1024 0L0 0Z"/><path d="M239.846 968.725L239.594 968.997L239.846 968.725C244.919 962.572 251.848 947.927 256.275 940.326C268.218 970.091 280.311 998.85 300.703 1024L168.49 1024C168.621 1008.02 168.66 992.042 168.607 976.063C168.549 964.607 168.784 952.764 167.063 941.408C165.695 946.093 165.928 967.243 165.781 973.452C165.381 990.319 164.513 1007.12 164.477 1024L152.691 1024C145.259 1000.94 139.872 977.723 133.861 954.299L114.645 881.061L105.269 843.948C103.703 837.783 102.478 831.099 100.246 825.162C100.181 825.367 100.083 825.564 100.049 825.776C99.4642 829.424 102.203 843.009 102.759 847.38C107.121 881.641 113.915 914.95 122.584 948.373C129.321 974.349 136.545 1000.06 148.907 1024L26.6278 1024C32.8092 979.285 47.2396 934.119 63.1089 891.966C72.972 865.767 83.6793 839.545 97.4168 815.112C102.748 813.242 107.726 808.583 112.533 805.524C121.711 799.686 131.11 793.861 140.78 788.889C124.861 771.399 121.69 748.059 122.772 725.143C124.798 682.197 142.727 635.578 158.241 595.786L185.607 525.562C190.268 513.379 195.307 501.315 199.534 488.97C202.845 479.299 205.525 469.303 208.227 459.445C209.229 455.79 210.298 452.088 210.717 448.312C211.828 438.286 209.894 426.37 209.65 416.114C209.314 401.988 209.233 387.657 209.805 373.537C210.452 357.566 211.192 341.59 213.024 325.7C223.329 236.293 255.871 137.311 324.275 75.433C351.201 51.0762 392.75 24.3166 430.109 26.2862C431.55 26.3622 432.997 26.4953 434.438 26.5347C471.619 4.08311 522.099 6.08028 562.893 16.1978C630.795 33.0379 693.516 78.7333 729.63 138.708C746.42 167.091 759.776 197.369 769.417 228.906C779.622 262.662 785.403 297.84 789.838 332.75C796.383 384.258 799.345 435.767 802.603 487.555C804.063 510.769 805.939 533.777 808.404 556.903C809.384 566.091 809.439 575.918 812.247 584.748C814.587 592.104 817.635 599.275 820.564 606.415C831.896 634.039 845.958 659.874 859.961 686.165C883.166 729.737 906.69 779.922 909.932 829.694C921.22 836.389 939.829 850.294 947.462 860.726C953.123 868.461 956.373 879.28 959.729 888.202C968.751 912.192 977.158 936.634 983.485 961.488C988.483 981.12 994.039 1003.93 996.129 1024L798.649 1024C812.217 993.934 827.282 965.284 845.431 937.682C852.656 926.475 860.519 915.694 868.983 905.391C883.489 888.037 912.402 859.364 934.39 854.828C933.6 854.348 933.841 854.438 932.909 854.125C927.228 852.215 917.689 856.819 912.662 859.314C860.093 885.405 810.586 969.688 792.391 1024L789.109 1024C794.378 998.776 800.049 973.881 807.047 949.056C809.146 941.622 811.39 934.23 813.778 926.884C815.542 921.536 818.444 915.732 818.935 910.136C816.449 912.421 814.406 919.597 813.043 922.933C799.59 955.874 789.666 989.228 782.07 1024L606.96 1024C626.264 1006.77 646.064 990.309 664.653 972.261C714.013 924.078 757.829 870.525 795.284 812.601C803.041 800.528 810.961 788.566 817.713 775.881C812.498 772.532 807.264 769.213 802.01 765.926C792.692 784.911 780.176 802.916 768.43 820.478C760.783 831.912 753.281 843.609 745.08 854.656C697.214 919.136 638.819 974.943 575.438 1024L544.563 1024C563.209 1008.91 583.066 995.248 601.491 979.906C616.197 967.662 630.908 955.236 644.861 942.136C689.287 900.155 728.568 853.044 761.876 801.793C770.95 787.709 778.985 772.862 787.471 758.412C784.385 756.294 781.218 754.304 778.059 752.298C739.404 825.84 687.871 891.851 625.907 947.197C594.979 974.857 561.617 999.902 527.871 1024L495.564 1024C503.107 1017.6 512.588 1012.63 520.819 1007.08C534.87 997.623 548.786 987.39 562.254 977.116C594.859 952.72 625.761 926.128 654.745 897.525C662.58 889.694 670.496 881.828 677.767 873.469C696.355 852.099 712.949 828.428 728.674 804.892C741.479 785.728 754.03 766.728 764.325 746.072C757.049 742.035 749.605 738.504 742.493 734.138C716.477 718.168 694.179 696.784 675.078 673.109C671.648 668.857 668.466 664.305 665.469 659.738C662.227 654.799 659.169 648.187 654.75 644.343C649.065 639.397 639.677 637.882 632.576 635.949C636.804 644.941 638.413 655.304 641.207 664.821C643.199 657.754 642.895 652.341 641.414 645.221C643.597 648.452 645.988 651.671 646.909 655.529C652.56 679.176 568.789 818.463 552.307 845.667C546.284 855.609 539.853 865.293 533.819 875.221C520.15 898.049 506.216 920.718 492.02 943.221C474.512 970.397 454.883 996.409 438.065 1024L407.043 1024C410.682 987.374 418.114 944.659 431.343 910.184C433.141 905.497 434.984 899.61 438.25 895.726C444.084 888.786 459.745 894.171 468.048 893.22C453.384 890.487 438.198 886.982 423.247 886.857C425.65 889.217 428.222 891.372 430.591 893.777C428.552 905.651 423.842 917.603 420.155 929.083C414.47 946.784 408.926 964.432 403.837 982.318C401.981 988.84 398.645 996.889 398.736 1003.61C398.825 1010.22 402.213 1017.94 404.621 1024L397.891 1024C397.83 1023.83 397.766 1023.67 397.708 1023.5C392.297 1008.05 388.593 992.413 384.993 976.486C375.306 933.635 370.122 890.814 367.253 847.022C364.475 804.607 363.914 761.71 368.669 719.415C370.639 701.889 373.253 679.9 380.941 663.856C384.904 655.585 390.732 651.55 399.102 648.545C398.742 642.597 398.566 636.639 398.575 630.681C381.993 641.939 372.194 650.412 359.946 666.527C355.715 672.095 352.561 678.442 347.586 683.416C347.192 695.936 343.08 715.596 340.479 728.066C332.014 768.654 320.821 808.087 304.325 846.21C300.409 855.26 295.874 864.107 291.574 872.983C294.742 886.064 300.164 899.208 305.067 911.73C320.318 950.682 338.139 990.543 363.63 1024L344.975 1024C323.823 993.209 306.66 959.861 293.896 924.754C289.321 912.517 285.511 899.972 281.152 887.649C279.585 892.458 277.189 896.762 274.756 901.166C278.084 912.588 282.985 923.677 287.788 934.54C297.474 956.697 308.527 978.23 320.884 999.015C325.985 1007.51 331.686 1015.63 336.991 1024L319.021 1024C302.045 1001.38 288.266 975.814 276.712 950.039C272.603 940.871 268.978 931.467 264.999 922.236C259.078 933.899 252.078 944.935 245.911 956.465C243.814 960.385 241.204 964.49 239.846 968.725ZM444.751 36.3146L443.775 37.2081L443.502 37.404L443.775 37.2081L444.751 36.3146L445.498 36.0963L444.751 36.3146ZM442.711 37.7653C436.127 40.0231 430.043 46.9975 424.205 48.3244L424.469 48.8806C425.303 49.2758 425.889 49.8877 426.803 49.5182C429.323 48.4992 440.689 40.093 442.711 37.7653L442.998 37.5678L442.711 37.7653ZM607.947 108.759L608.566 109.196C614.044 114.623 620.144 119.436 625.796 124.686C640.388 138.243 653.098 153.693 662.358 171.391C664.631 175.735 667.665 180.903 669.099 185.545C668.134 187.66 669.222 190.623 669.693 192.841C666.224 186.793 661.518 180.437 656.777 175.328C658.655 179.612 660.657 183.863 661.922 188.376C657.682 184.796 654.202 179.913 650.695 175.623C642.302 165.357 628.059 147.158 616.446 140.98L615.747 140.83L615.128 140.002L615.747 140.83L616.446 140.98L616.737 141.327C621.738 147.179 627.919 151.919 632.733 157.974C640.58 167.846 646.868 178.957 654.797 188.674C652.179 186.936 649.586 185.152 646.852 183.599C647.654 185.514 648.513 187.422 649.171 189.392C642.273 184.665 637.149 178.636 631.371 172.696C623.833 164.947 615.867 156.905 607.337 150.255L607.063 150.316L606.376 149.719C607.176 150.327 606.815 149.939 607.238 150.581C609.94 154.681 614.849 158.355 618.155 162.152C622.358 166.979 626.114 172.198 630.13 177.179C634.268 182.309 638.688 187.215 642.799 192.36L634.004 189.996C635.988 193.029 637.345 196.655 639.499 199.484C643.777 205.103 648.866 209.888 652.834 215.802C655.908 220.384 659.19 228.325 662.735 231.929L662.962 232.489L662.735 231.929C659.499 220.546 649.952 208.944 645.117 197.705C651.587 202.354 657.87 206.215 663.422 212.032C660.757 206.922 658.66 201.673 656.525 196.327C662.486 198.874 665.559 203.296 670.693 206.905C669.484 204.006 668.496 201.181 667.678 198.147L668.128 198.719C671.835 203.345 672.815 208.91 676.193 213.474L676.497 213.918L676.193 213.474C675.003 208.476 672.776 203.153 670.767 198.426C672.453 200.628 674.304 202.691 675.986 204.902C676.081 205.96 676.174 206.774 676.604 207.75L677.171 207.676C677.163 206.702 676.954 205.607 677.43 204.751C688.158 219.334 695.918 235.842 702.72 252.531C702.18 242.848 699.043 232.289 696.327 222.992C692.418 209.608 686.465 196.964 679.673 184.825C665.189 158.944 648.104 138.289 624.511 120.327C619.439 116.465 614.163 112.265 608.566 109.196L607.947 108.759ZM387.292 112.287C380.977 118.285 375.67 126.332 370.725 133.49C365.419 141.169 360.119 149.032 355.623 157.218C335.019 194.724 323.028 237.625 311.175 278.535C308.23 288.7 302.821 302.653 300.916 312.398C305.257 305.224 309.974 289.153 313.187 280.639L335.316 221.695C340.032 208.773 344.344 195.647 349.534 182.904C356.52 165.754 364.457 148.646 373.859 132.674C377.914 125.785 383.841 119.372 387.292 112.287L387.498 112.016L387.292 112.287ZM679.094 119.002L679.5 119.5L679.803 119.853C681.458 123.884 684.82 127.981 687.174 131.686C691.859 139.057 696.417 146.502 700.445 154.257C717.127 186.37 729.548 221.797 738.001 256.968C744.934 285.813 748.709 315.13 752.699 344.478C754.086 354.678 755.215 375.939 758.403 384.568C755.391 352.228 753.532 319.41 748.69 287.296C741.835 241.834 727.011 194.082 703.832 154.306C697.316 143.126 689.29 128.769 679.803 119.853L679.5 119.5L679.094 119.002ZM444.74 135.632L445 136.5L445.296 137.365C445.98 143.386 449.098 149.852 451.25 155.535C463.929 189.023 479.203 222.831 499.417 252.5C502.111 256.454 505.124 261.599 508.669 264.735L508.911 264.998L508.669 264.735C505.761 257.598 499.801 250.622 495.735 243.976C489.177 233.259 483.191 221.983 477.413 210.827C469.357 194.97 461.968 178.783 455.266 162.308C451.883 154.059 449.027 145.452 445.296 137.365L445 136.5L444.74 135.632ZM500.502 153.088L501.333 153.711L501.577 154.792L501.846 154.956C506.162 162.654 511.874 170.046 516.696 177.492C533.673 203.709 551.411 228.947 570.188 253.901C574.483 259.609 581.619 270.593 586.253 274.935L586.673 275.659L587.123 276.124L587.391 276.498L587.123 276.124L586.673 275.659L586.253 274.935C582.978 266.882 575.39 257.272 570.502 249.827C553.981 224.667 537.441 199.866 519.156 175.937C513.873 169.024 508.374 160.702 501.846 154.956L501.577 154.792L501.333 153.711L500.502 153.088ZM597.609 157.002L598.025 157.477L598.36 157.845C602.239 164.994 610.959 174.519 616.196 181.269C624.303 191.764 632.038 202.542 639.385 213.583C641.192 216.273 642.913 219.457 645.236 221.723L645.465 221.998L645.236 221.723C644.163 218.36 642.055 214.934 640.373 211.83C631.769 195.954 621.689 182.936 609.588 169.623C605.971 165.645 602.428 161.368 598.36 157.845L598.025 157.477L597.609 157.002ZM314.671 159.507C304.826 171.392 300.201 185.13 292.696 198.22C292.192 193.915 292.422 189.923 292.589 185.615C291.27 190.225 290.771 195.47 286.938 198.693C288.953 193.85 288.049 188.52 289.038 183.46C290.085 178.106 292.611 172.9 294.745 167.909L295.17 167.745L295.396 167.002L295.17 167.745L294.745 167.909C290.645 171.126 287.977 177.616 285.649 182.208C276.395 200.458 269.777 217.724 264.841 237.596C263.673 242.298 262.202 247.249 261.573 252.052C261.478 252.77 261.403 253.492 261.35 254.214C266.103 239.072 271.261 220.807 280.541 207.757C279.852 212.385 279.207 216.986 278.85 221.655C278.333 222.488 278.234 222.463 278.217 223.511L278.952 222.775L278.85 221.655C281.366 214.653 280.914 207.153 285.107 200.793C283.76 206.548 283.865 211.61 284.366 217.455L285.323 209.63C285.637 213.771 285.049 218.092 284.891 222.25C284.737 226.308 284.984 230.272 285.31 234.314C287.097 228.08 288.947 221.855 291.241 215.787L291.828 215.735L291.382 215.475L291.854 215.321C291.475 220.854 289.599 226.949 288.563 232.46C286.498 243.443 284.952 256.08 285.123 267.269C287.931 255.953 290.254 244.578 293.263 233.292C294.409 228.991 295.34 224.195 297.356 220.22L297.928 220.3C297.98 221.464 297.976 222.529 298.297 223.658C302.066 216.39 304.918 208.699 308.805 201.456C312.562 194.454 317.24 188.026 321.046 181.073L321.354 180.501L321.754 179.918L321.354 180.501C316.523 184.68 313.244 191.626 309.061 196.568C310.489 192.629 312.545 189.247 314.689 185.662C311.111 189.08 307.603 192.746 305.08 197.035C302.604 201.247 300.884 205.609 297.598 209.298C298.762 197.436 301.962 186.381 307.117 175.607C309.58 170.459 312.475 165.355 314.485 160.017L314.671 159.507L314.998 159.002L314.671 159.507ZM530.503 164.002L531.025 164.997L531.313 165.352C534.134 173.614 542.24 184.334 547.337 191.634C553.164 200.134 559.131 208.537 565.237 216.84C573.509 227.877 582.173 238.646 590.275 249.807L608.915 275.875C611.45 279.371 614.064 283.838 617.181 286.758L617.587 287.124L618.209 288.305L618.608 288.575L619.081 289.228L619.72 290.278L619.981 290.497L619.72 290.278L619.081 289.228L618.608 288.575L618.209 288.305L617.587 287.124L617.181 286.758C615.037 281.251 610.293 275.654 607.046 270.693C597.253 255.728 581.177 233.694 574.391 217.753C579.835 222.572 584.24 229.268 588.531 235.107C586.78 230.695 584.867 226.337 583.157 221.913C597.196 235.648 611.237 255.673 621.528 272.499C625.141 278.406 629.622 288.759 633.74 293.407L634.144 294.214L634.4 294.498L634.144 294.214L633.74 293.407C633.639 293.092 633.553 292.77 633.436 292.46C630.104 283.64 624.722 274.973 620.433 266.557C612.901 251.777 605.16 236.942 596.235 222.946C581.39 199.668 563.448 178.678 544.672 158.503C541.678 155.285 532.488 144.294 529.049 142.864C533.121 149.395 541.833 158.03 546.972 164.565C554.826 174.552 561.323 185.399 568.133 196.096C571.565 201.487 575.502 206.618 578.612 212.203L578.953 212.822C570.734 204.45 562.336 196.257 553.764 188.246L553.503 188L552.869 187.699L552.618 187.002L552.869 187.699L553.503 188L553.764 188.246C555.028 191.133 557.395 194.012 559.136 196.664C562.325 201.519 565.324 206.363 567.981 211.534C559.159 203.094 550.706 193.149 543.694 183.144C539.682 177.418 536.052 170.405 531.313 165.352L531.025 164.997L530.503 164.002ZM374.223 169.269L373.625 169.895C369.641 173.877 366.615 181.56 363.918 186.643C353.368 206.665 343.671 227.125 334.851 247.967C326.518 268.006 319.212 288.542 311.539 308.846C308.968 315.652 303.733 326.757 302.309 333.478L302.022 333.997L302.309 333.478C306.064 328.241 312.367 311.067 315.389 303.993C322.867 286.532 330.552 269.161 338.444 251.883C343.6 240.305 349.236 226.223 355.671 215.519C351.719 229.069 347.123 242.495 342.933 255.983C341.338 261.117 338.881 266.838 338.284 272.18L338.136 272.658L338.284 272.18C340.418 268.297 341.707 263.137 343.103 258.92L351.282 234.172L368.679 183.421C370.235 178.883 372.168 174.451 373.625 169.895L374.223 169.269L374.429 168.502L374.223 169.269ZM491.002 204.096L491.548 204.953L492.194 205.678L492.615 206.121L493.109 206.691L493.592 207.811L494.083 207.991C499.421 217.914 521.346 238.761 531.257 242.185L531.637 242.562L531.997 242.877L531.637 242.562L531.257 242.185C528.893 239.072 517.782 231.551 513.875 228.137C506.732 221.895 501.132 214.189 494.083 207.991L494.036 207.453L493.109 206.691L492.615 206.121L492.194 205.678L491.548 204.953L491.002 204.096ZM632.206 193.199C633.877 197.975 642.339 207.983 646.115 211.76L646.38 211.998L646.115 211.76C644.043 205.61 637.405 197.219 632.206 193.199ZM430.202 231.42C427.391 226.637 425.644 220.838 423.765 215.62C414.086 188.74 413.096 159.953 414.521 131.644C414.866 124.796 415.785 117.962 416.062 111.127C413.607 118.879 412.664 127.598 411.684 135.661C406.79 174.704 411.497 214.352 425.398 251.164C427.869 257.68 430.362 264.223 433.58 270.414C434.53 272.276 435.562 274.095 436.672 275.866C430.687 257.65 420.143 232.738 418.958 213.703C423.753 221.094 427.791 229.258 431.546 237.228C433.983 242.401 439.337 256.159 442.662 259.954L443.141 260.727L443.457 261.498L443.141 260.727L442.662 259.954C441.145 254.498 439.078 248.654 437.121 243.325C436.419 241.415 436.452 241.109 434.597 240.23C434.705 240.006 434.801 239.775 434.921 239.558C435.063 239.301 435.229 239.059 435.383 238.81C432.643 230.616 430.103 222.355 427.765 214.037C426.689 210.086 425.899 203.423 424.187 200.032C424.481 210.393 427.303 221.5 430.202 231.42ZM397.22 156.809C393.978 181.994 396.998 208.809 404.707 232.917C406.314 237.945 408.001 243.361 410.653 247.921L410.87 248.498L410.653 247.921C410.396 243.863 409.141 239.51 408.362 235.506C406.591 226.796 404.986 218.054 403.55 209.284C401.808 198.337 400.14 187.403 399.12 176.361C398.51 169.763 398.454 163.092 397.708 156.517L397.22 156.809ZM530.592 264.002L531 264.5L531.307 264.84C532.418 267.797 534.972 270.827 536.786 273.442C546.147 286.933 556.263 299.39 568.444 310.44C571.746 310.677 575.061 310.591 578.369 310.569C574.299 306.827 569.644 303.535 565.39 299.976C559.014 294.64 552.898 288.857 547.012 282.99C541.36 277.356 537.109 270.208 531.307 264.84L531 264.5L530.592 264.002ZM433.437 170.847C433.637 201.226 443.713 243.102 455.925 270.864C457.866 275.279 459.888 280.594 462.732 284.475L463.112 285.219L463.451 285.998L463.112 285.219L462.732 284.475C461.498 278.238 457.123 270.708 454.847 264.539C451.221 254.711 448.459 244.368 445.805 234.238C442.341 221.013 439.609 207.437 437.357 193.956C436.088 186.357 435.487 178.255 433.437 170.847ZM463.52 286.502L463.642 287.872L464.498 288.498L463.642 287.872L463.52 286.502ZM620.503 291.092L621.042 291.957L621.694 292.682L622.067 293.162L622.744 294.263L623.128 294.56L623.607 295.195L623.883 295.498L623.607 295.195L623.128 294.56L622.744 294.263L622.067 293.162L621.694 292.682L621.042 291.957L620.503 291.092ZM348.478 313.791C352.733 311.906 356.73 310.418 361.389 309.872C372.464 308.573 401.409 312.158 412.261 315.282C417.257 316.721 421.841 319.291 426.679 321.158L426.911 321.382L426.679 321.158C422.768 316.159 418.091 311.777 414.222 306.665C395.355 281.737 389.596 260.445 384.695 230.428C382.245 241.073 379.025 251.145 375.176 261.362C370.077 277.247 357.09 299.291 348.478 313.791ZM467.104 325.013L467.338 325.723L468.247 326.106L468.405 326.387C472.4 332.383 479.552 339.199 486.091 342.27C465.894 339.299 450.783 327.918 438.767 311.739C427.721 296.865 420.021 280.884 414.558 263.208C413.59 260.074 411.989 256.413 411.902 253.173L411.555 253.352C412.885 270.709 426.657 308.868 435.533 324.523C439.546 331.6 444.784 338.007 449.649 344.511C447.48 342.529 445.196 340.088 442.728 338.515C428.947 336.821 415.034 335.367 401.339 333.09C380.977 329.705 360.028 322.722 339.288 326.308C330.279 338.111 320.761 352.004 308.444 360.474C311.751 395.194 314.715 429.555 322.43 463.652C326.438 481.365 331.376 499.015 339.129 515.508C354.19 547.543 380.854 574.514 407.797 596.802C429.796 615 458.385 638.515 488.674 635.614C529.604 631.693 590.31 582.972 615.754 551.763C644.567 516.422 661.275 464.277 668.27 419.723C669.803 409.96 671.91 399.062 670.952 389.184C669.958 378.937 667.212 368.108 664.065 358.318C657.184 356.023 650.283 353.841 643.763 350.619C628.907 343.276 615.349 333.44 599.923 327.113C581.267 331.793 529.632 343.368 511.448 339.185C501.432 336.881 493.413 331.602 484.307 327.342L484.007 327.09L484.307 327.342C487.869 331.578 492.171 334.825 495.223 339.546C485.313 336.965 476.674 332.331 468.405 326.387L468.247 326.106L467.338 325.723L467.104 325.013ZM301.19 335.131L301.072 336.498L301.19 335.131L301.998 334.502L301.19 335.131ZM289.024 386.178C289.182 383.915 287.446 382.147 286.106 380.434C281.116 392.288 284.336 406.844 286.334 419.156C281.092 409.035 279.942 397.363 280.286 386.131C280.329 384.725 280.875 379.763 279.908 378.922L278.119 379.272C277.418 378.249 277.35 377.495 277.576 376.285C277.886 374.625 279.363 372.291 280.831 371.417C282.042 370.696 283.032 370.492 284.414 370.816C287.693 371.584 290.434 376.25 291.81 379.04C293.73 382.935 295.177 387.058 297.203 390.904C295.272 380.43 294.354 369.531 292.126 359.174C291.927 358.253 291.76 357.497 290.936 356.955C288.966 355.662 286.056 355.82 283.856 356.382C280.791 357.164 278.558 359.416 277.063 362.115C272.22 370.859 269.636 392.744 270.246 402.872C270.535 407.682 271.612 412.474 273.03 417.069C276.433 428.088 283.103 440.802 290.633 449.537C293.957 453.392 298.044 456.564 301.1 460.651C307.618 469.368 312.983 478.473 319.966 486.921C316.524 475.402 314.326 463.455 310.641 452.043C302.787 446.622 288.066 434.63 286.198 425.009C286.018 424.083 286.042 423.616 286.331 422.747L287.477 422.018C289.705 423.234 306.623 440.485 310.148 443.726C309.448 439.205 308.804 434.816 306.799 430.656C306.703 430.215 306.436 429.892 306.196 429.515C304.949 429.158 303.975 428.937 303.013 428.003L304.335 427.851L304.554 427.391C296.086 422.768 291.281 413.4 290.879 403.86C290.607 397.426 292.271 392.12 289.024 386.178ZM687.164 408.562C686.003 411.467 685.006 414.259 683.078 416.766C683.249 415.829 683.636 414.969 683.192 414.108L680.066 417.871C680.744 407.384 682.189 396.793 680.008 386.404C679.741 394.763 679.603 403.147 678.572 411.455C677.321 421.534 675.072 431.628 673.22 441.618C675.24 438.139 678.06 436.662 680.577 433.811L681.072 434.091C682.558 433.723 683.975 432.951 685.298 432.2C691.085 428.92 696.605 424.028 698.255 417.329C699.488 412.32 698.612 407.562 696.067 403.151C694.828 402.076 693.592 401.211 691.965 400.871C690.221 403.812 690.932 411.501 689.814 415.314C688.634 419.335 686.819 423.296 684.806 426.962C683.552 429.245 681.709 431.556 681.072 434.091L680.577 433.811C681.821 425.273 686.252 417.216 687.164 408.562L687.458 408.002L687.164 408.562ZM248.109 457.353C245.838 465.866 244.348 474.703 242.646 483.349C238.331 505.266 234.769 527.315 230.426 549.227C220.633 598.651 210.695 647.884 202.952 697.69C191.505 771.315 183.761 847.57 197.955 921.376C199.817 931.058 206.488 958.609 210.916 966.067C211.002 966.211 211.105 966.344 211.199 966.483L211.488 966.997L211.199 966.483C209.79 956.88 205.509 947.416 203.367 937.89C198.664 916.975 196.549 895.236 195.139 873.876C193.012 841.635 194.723 809.185 197.451 777.031C203.928 700.675 218.677 625.322 232.142 549.973L242.748 487.661C244.43 477.854 247.199 467.832 248.063 457.942C248.081 457.746 248.094 457.549 248.109 457.353C248.356 457.016 248.325 456.483 248.378 456.071C248.109 456.445 248.158 456.9 248.109 457.353ZM669.339 460.229L669.124 460.497L669.339 460.229C675.608 457.455 681.026 452.235 686.683 448.38C690.442 445.819 694.485 443.774 698.257 441.216C696.881 443.824 695.31 446.221 693.425 448.487C686.844 456.398 677.662 464.21 667.038 465.152C665.249 472.186 662.749 479.15 660.52 486.057C663.283 485.319 666.063 484.463 668.659 483.25C687.613 474.388 718.942 440.403 725.817 420.878C731.069 405.96 729.266 391.263 726.644 376.035C725.777 370.996 725.061 365.503 722.734 360.887C720.833 357.113 718.424 355.232 714.46 353.962C711.67 353.829 709.587 354.513 707.338 356.185C697.707 363.345 693.242 380.497 691.691 391.733C693.942 385.296 697.391 377.63 701.836 372.389C703.54 370.379 706.117 367.707 709.002 367.802C710.834 367.863 712.379 369.094 713.461 370.473C720.776 379.792 717.809 398.24 716.35 409.154C716.082 402.612 715.781 396.159 714.767 389.68C714.034 384.994 713.293 375.593 708.866 373.044C707.745 372.398 706.591 372.453 705.415 372.891C701.32 374.417 693.646 391.795 691.844 396.042C694.763 397.825 697.681 399.511 699.846 402.232C702.963 406.15 703.481 411.301 702.857 416.128C701.027 430.304 688.305 433.487 678.757 441.285C672.674 446.253 670.169 452.678 669.339 460.229ZM320.124 496.002L320.47 496.55C320.625 503.177 321.648 509.799 322.267 516.398C323.43 528.29 324.327 540.207 324.956 552.14C327.257 599.09 324.048 643.649 316.257 690.013C312.819 710.475 307.999 730.497 302.546 750.509C300.736 757.149 299.005 763.839 297.013 770.425C295.542 775.291 292.994 780.479 292.768 785.619L293.454 784.637C298.463 766.582 305.13 748.945 309.932 730.795C326.25 670.134 331.831 607.087 326.423 544.503C325.486 533.095 323.778 506.797 320.47 496.55L320.124 496.002ZM739.212 589.134L739.5 590L739.823 591.351C740.958 599.381 744.006 607.729 746.205 615.582C749.763 628.293 753.13 641.311 757.507 653.762C766.701 679.916 791.753 737.639 812.873 754.03C813.167 754.259 813.484 754.457 813.795 754.662L814.13 755.07L814.497 755.422L814.13 755.07L813.795 754.662C812.177 752.113 809.726 749.752 807.787 747.411C804.501 743.495 801.47 739.37 798.715 735.064C781.825 708.995 768.398 679.664 758.28 650.31C753.638 636.843 749.817 623.006 745.674 609.376C743.887 603.499 742.476 596.889 739.823 591.351C739.821 590.966 739.6 590.38 739.5 590L739.212 589.134ZM825.038 638.003L825.326 638.536C826.338 645.274 832.27 658.857 834.707 666.072C839.536 680.485 844.468 694.865 849.5 709.208C858.717 734.866 877.168 780.043 876.681 806.477C885.337 811.744 893.618 817.628 902.168 823.073C898.048 775.062 868.217 720.638 846.25 678.062C840.038 666.022 832.666 649.493 825.326 638.536L825.038 638.003ZM661.312 522.103C660.248 527.258 660.111 532.91 659.858 538.166C658.106 574.591 660.675 612.502 673.041 647.025C674.872 652.136 676.958 659.205 680.627 663.238L680.875 663.497L680.627 663.238C679.693 659.123 677.516 654.891 676.061 650.893C673.619 644.032 671.516 637.054 669.76 629.986C661.159 594.959 660.403 558.01 661.55 522.127L661.312 522.103ZM761.078 700.003L761.313 700.562C764.937 714.534 785.269 744.732 796.926 751.582C797.364 751.839 797.808 752.055 798.267 752.269L798.588 752.586L799.202 753.105L799.497 753.384L799.202 753.105L798.588 752.586L798.267 752.269C795.884 749.118 792.587 746.309 789.863 743.404C785.559 738.737 781.567 733.792 777.913 728.601C774.125 723.133 770.893 717.319 767.7 711.493C765.751 707.936 763.911 703.638 761.313 700.562L761.078 700.003ZM814.883 627.356C815.292 634.363 817.524 641.922 819.01 648.822C827.101 684.982 838.131 720.421 851.99 754.786C853.91 759.571 855.532 765.023 858.2 769.435L858.422 769.997L858.2 769.435C856.569 761.51 853.179 753.362 850.554 745.697C846.768 734.588 843.133 723.428 839.648 712.22C834.301 695.372 829.147 678.463 824.189 661.496C820.992 650.151 818.397 638.609 814.883 627.356ZM136.512 797.701L135.787 798.124L134.753 798.702L134.379 799.075L133.237 799.627L133.002 799.889L133.237 799.627L134.379 799.075L134.753 798.702L135.787 798.124L136.512 797.701C141.564 796.333 160.328 784.971 164.052 781.194C160.014 782.535 139.851 794.76 136.512 797.701ZM924.622 846.473C924.73 846.622 924.829 846.778 924.946 846.919C925.897 848.067 926.858 848.558 928.323 848.64L928.583 847.939C926.976 845.476 921.775 843.084 919.186 841.279C896.034 824.967 872.09 809.809 847.442 795.859C838.772 790.917 829.844 785.315 820.697 781.388C819.684 781.92 820.074 781.51 819.635 782.712C820.385 783.945 821.293 784.596 822.472 785.381C829.391 789.984 837.447 793.966 844.73 798.018C856.426 804.518 867.981 811.268 879.388 818.264C886.778 822.845 894.255 827.371 901.474 832.214C908.299 836.793 914.889 841.714 921.836 846.11C923.051 846.536 923.371 846.685 924.622 846.473ZM211.52 967.502L212.315 968.126L212.44 969.497L212.315 968.126L211.52 967.502ZM165.017 775.002C165.117 781.675 164.104 788.73 163.686 795.436C162.918 807.099 162.62 818.788 162.793 830.475C163.58 887.327 175.522 947.279 209.194 994.187C213.997 1000.88 218.84 1007.93 224.762 1013.7L224.982 1013.93L224.762 1013.7C221.523 1006.97 215.042 1000.22 210.899 993.766C200.924 978.282 192.559 961.818 185.936 944.631C167.065 896.967 164.455 844.765 165.79 794.114C166.032 784.927 165.804 775.709 166.306 766.532C167.29 748.515 169.736 730.022 172.297 712.177C177.6 675.21 185.644 638.691 193.059 602.102C196.669 584.975 200.028 567.796 203.136 550.57C207.673 525.875 211.672 501.625 210.339 476.381C209.121 481.225 207.859 486.057 206.553 490.878C190.915 543.429 167.141 593.49 156.437 647.436C150.209 678.826 146.188 729.329 156.913 759.842C158.87 765.409 161.755 770.111 165.017 775.002ZM446.137 35.75L446.745 35.75L446.137 35.75ZM408.874 45.5689C375.124 55.1715 331.586 89.9374 308.714 116.14C296.526 130.295 285.825 145.665 276.781 162.009C256.95 197.615 246.434 236.539 240.642 276.688C239.182 286.81 237.697 296.885 237.022 307.099L237.071 306.345L237.217 305.816C238.877 299.582 239.528 293.006 240.792 286.672C243.543 272.898 246.62 259.048 250.479 245.539C262.189 204.532 292.38 140.278 320.254 108.002C335.911 89.8735 355.938 73.8226 376.56 61.7142C382.956 57.9176 389.523 54.4158 396.239 51.2196C399.195 49.8345 407.879 47.5126 409.646 45.5737L408.874 45.5689ZM444.246 133.946L444.745 134.25L444.246 133.946ZM375.23 166.75L375.608 166.75L375.23 166.75ZM374.711 167.75L375.131 167.75L374.711 167.75ZM744.265 203.446L744.745 203.75L744.265 203.446ZM744.706 204.95L745.245 205.25L744.706 204.95ZM744.693 205.718C749.986 225.888 754.437 246.27 758.034 266.81C762.933 295.085 767.459 323.574 771.675 351.956C772.863 359.948 779.335 413.765 780.915 416.696C779.356 394.134 777.804 371.463 775.098 349.006C769.86 307.714 761.906 266.813 751.286 226.568C749.93 221.627 747.592 209.336 744.693 205.718ZM411.278 252.25L411.745 252.25L411.278 252.25ZM478.752 256.75L479.22 256.75L478.752 256.75ZM479.205 257.75L479.673 257.75L479.205 257.75ZM479.259 258.32C489.066 282.454 502.086 305.353 514.395 328.278C517.647 324.78 520.972 322.486 525.296 320.5C528.291 319.305 531.297 318.137 534.314 316.997C514.88 307.541 498.264 290.263 487.319 271.694C485.417 268.467 481.929 260.375 479.259 258.32ZM443.727 262.25L444.132 262.25L443.727 262.25ZM529.726 262.75L530.171 262.75L529.726 262.75ZM444.223 263.25L444.59 263.25L444.223 263.25ZM444.75 264.25L445.158 264.25L444.75 264.25ZM509.661 266.25L510.051 266.25L509.661 266.25ZM464.734 289.25L465.076 289.25L464.734 289.25ZM634.717 295.25L635.105 295.25L634.717 295.25ZM300.722 312.75L301.074 312.75L300.722 312.75ZM293.59 392.844C292.486 402.228 293.314 412.366 299.376 420.075C301.188 422.38 303.358 424.484 305.597 426.371L305.38 425.866C302.598 419.474 298.68 413.515 296.588 406.829C295.409 403.061 295.935 395.683 293.59 392.844ZM292.392 408.25L293.021 408.25L292.392 408.25ZM712.652 451.322C709.738 459.135 709.899 471.716 709.416 480.102C707.495 508.907 707.716 537.813 710.075 566.585C711.21 579.248 713.126 591.87 714.971 604.447C717.11 619.021 719.344 634.192 723.486 648.345L723.821 649.214C723.776 644.85 722.721 640.267 722.014 635.959C720.848 628.863 719.668 621.779 718.844 614.632C715.374 584.504 712.375 553.954 711.953 523.61C711.707 510.712 711.678 497.81 711.868 484.911C711.949 479.041 713.953 455.243 712.652 451.322ZM752.827 497.469L753.245 497.75L752.827 497.469ZM752.829 498.274C754.363 515.3 757.281 532.246 760.148 549.094C766.542 586.679 774.567 623.459 787.191 659.481C791.503 671.785 795.963 683.74 801.712 695.463C803.709 699.536 807.4 708.577 810.525 711.569C810.766 711.8 811.045 711.988 811.305 712.198C807.143 703.144 802.746 694.112 799.058 684.855C784.144 647.414 774.106 608.032 766.399 568.532L756.962 519.875C755.681 513.034 755.361 504.683 752.829 498.274ZM683.651 509.267C683.305 522.035 682.829 534.86 683.106 547.631C684.05 591.169 690.512 640.197 707.407 680.63C710.718 688.555 714.871 698.772 720.562 705.105C720.479 704.793 720.401 704.479 720.314 704.169C718.524 697.821 711.596 687.125 708.73 679.884C699.664 656.982 694.247 632.588 690.554 608.294C687.059 585.713 685.107 562.921 684.71 540.074C684.587 533.728 685.425 513.331 683.651 509.267ZM348.533 548.861C348.721 568.23 350.397 587.503 350.365 606.931C350.329 620.543 350.129 634.154 349.766 647.761C349.545 653.805 347.642 668.692 348.626 673.366L349.276 672.382C350.638 661.989 351.57 651.543 352.069 641.073C352.536 629.689 352.741 554.991 348.972 549.322C348.827 549.105 348.704 549.007 348.533 548.861ZM245.715 565.369C244.326 570.661 243.78 576.397 242.917 581.809C241.389 591.389 239.78 600.957 238.089 610.51C229.465 659.016 219.973 707.234 214.921 756.296C213.991 765.327 211.647 778.278 212.642 787.126C216.314 767.551 217.963 747.464 221.274 727.782C228.913 682.372 237.933 637.194 243.252 591.419C244.108 584.051 246.433 572.455 245.715 565.369ZM604.364 576.39C594.883 586.342 586.934 597.657 577.32 607.554C554.528 631.017 523.55 655.978 493.72 669.471C488.07 672.026 481.239 675.042 474.931 675.081C463.565 675.15 439.014 653.288 431.121 645.118C421.251 634.985 412.34 623.961 404.502 612.186C404.779 629.63 405.665 647.055 405.526 664.505C405.452 673.826 405.63 683.258 403.347 692.36C410.546 705.482 419.789 718.225 429.159 729.879C428.957 718.397 426.745 706.677 424.793 695.38C423.147 684.124 421.116 672.928 418.703 661.81C417.519 656.256 415.903 650.745 414.879 645.168C426.778 672.256 432.096 701.776 430.398 731.313C437.003 740.276 446.781 748.315 451.099 758.647C487.657 740.004 522.567 714.611 554.852 689.383C572.651 675.475 590.741 661.346 605.644 644.264C602.156 627.953 603.148 609.373 603.67 592.677C603.806 588.314 605.334 580.38 604.364 576.39ZM738.718 587.448L739.245 587.75L738.718 587.448ZM609.846 616.557L610.018 623.473C613.667 626.197 614.883 628.303 616.473 632.507C615.035 637.729 613.039 642.276 609.88 646.702C606.378 651.608 601.981 655.905 597.786 660.21C579.988 678.473 559.825 694.295 539.432 709.538C520.679 723.555 501.29 737.341 480.906 748.904C473.863 752.899 465.504 758.099 457.646 760.083C454.358 760.913 450.178 760.332 447.163 761.565C445.275 762.338 443.758 763.897 442.53 765.475L442.334 766.634C443.637 768.443 445.413 768.73 447.532 769.09C453.276 770.067 459.813 769.882 465.521 768.754C464.197 765.322 462.802 761.955 462.087 758.333C470.333 766.269 476.205 777.914 482.013 787.724L499.939 818.014C506.501 829.045 512.989 840.12 519.401 851.238C522.8 857.183 525.919 863.319 529.478 869.165C542.15 847.894 555.389 826.957 567.852 805.554C577.514 788.962 586.425 771.939 595.864 755.219C607.369 734.84 618.736 714.359 628.718 693.183C631.539 687.198 634.604 681.218 637.009 675.058C635.542 666.689 626.902 636.571 623.265 629.464C621.189 625.406 618.265 621.436 614.509 618.794C613.049 617.767 611.526 617.128 609.846 616.557ZM609.932 629.7C610.094 632.417 610.056 635.297 610.779 637.928C611.535 637.885 611.273 638.02 611.647 637.758C612.198 635.862 613.124 633.615 612.073 631.724C611.573 630.824 610.74 630.29 609.932 629.7ZM273.771 641.869C270.181 655.116 267.13 668.497 263.436 681.724C245.538 745.8 225.906 811.764 225.297 878.822L225.778 879.371C227.796 858.918 229.32 837.794 233.363 817.628C236.17 804.049 239.208 790.519 242.475 777.044C246.123 762.083 275.24 650.195 273.771 641.869ZM398.85 655.474C390.783 659.659 386.071 664.747 383.307 673.551C380.507 682.47 378.887 692.073 377.431 701.299C371.559 738.488 371.3 776.613 372.237 814.171C372.608 829.053 372.803 844.373 374.824 859.128C380.788 847.509 387.701 836.459 394.441 825.281C408.139 802.637 424.215 775.097 443.085 756.708C425.639 734.768 407.141 714.755 394.574 689.36C391.903 683.963 388.4 677.359 389.258 671.137C389.779 667.356 391.845 664.526 394.877 662.306C396.638 661.016 399.081 660.059 399.752 657.936C399.523 656.958 399.531 656.233 398.85 655.474ZM144.242 661.367C136.39 686.327 133.652 727.812 137.532 753.94C139.146 764.503 142.044 774.829 146.164 784.689C149.439 783.099 152.595 781.354 155.757 779.552C158.202 778.229 160.527 777.171 163.162 776.274C159.134 772.437 155.122 768.691 152.063 763.996C142.13 748.757 140.478 726.085 140.041 708.201C139.89 699.729 140.295 691.256 141.254 682.837C141.875 677.674 144.76 665.631 144.242 661.367ZM399.14 666.86C397.286 668.291 395.156 669.656 394.896 672.208C394.456 676.526 398.08 681.849 400.027 685.634L400.974 686.984C401.66 686.375 401.44 686.764 401.508 685.658C401.675 682.963 400.88 669.049 399.962 667.098L399.14 666.86ZM811.21 712.75L811.554 712.75L811.21 712.75ZM858.611 770.962L859.096 771.25L858.611 770.962ZM438.04 771.505C435.551 774.75 433.282 778.066 431.099 781.525C447.234 781.213 460.539 785.258 475.374 791.26L477.521 791.935L477.871 791.51C474.616 785.48 471.567 779.282 468.091 773.38C459.712 776.091 448.816 777.117 440.712 772.968C439.81 772.502 438.919 772.014 438.04 771.505ZM314.805 772.86C310.77 782.469 306.836 792.148 302.472 801.612C298.149 810.989 293.273 820.297 289.505 829.903C287.293 835.542 285.804 841.463 283.878 847.205C284.71 850.809 285.615 854.34 286.727 857.869L287.35 858.887C292.983 853.995 314.155 784.988 314.943 774.359C314.995 773.659 314.941 773.716 314.805 772.86ZM292.244 786.986L292.518 787.25L292.244 786.986ZM132.135 800.25L132.745 800.25L132.135 800.25ZM414.551 808.486C415.372 821.616 417.096 834.714 418.194 847.831C419.125 858.957 419.233 870.924 421.284 881.847C424.638 881.915 427.932 881.873 431.281 881.671C426.332 867.837 423.441 853.634 420.986 839.174C419.743 831.855 418.798 824.366 417.124 817.137C425.533 818.444 433.235 821.739 441.125 824.794C459.86 832.599 476.926 842.041 492.731 854.807C483.904 834.739 450.483 821.161 430.877 813.531C425.505 811.441 420.227 809.574 414.551 808.486ZM409.286 813.873C397.553 831.569 387.552 850.46 375.448 867.906C375.847 881.045 377.706 894.515 379.51 907.523C381.946 926.224 385.066 944.828 388.865 963.3L389.375 963.53C392.365 957.9 394.183 950.752 396.661 944.765C401.249 933.679 406.167 922.789 411.138 911.871C414.269 904.993 417.24 897.961 420.843 891.316C419.021 889.915 417.268 888.562 415.684 886.883C413.284 867.772 411.251 848.616 409.586 829.426C409.183 824.745 409.756 817.439 409.286 813.873ZM505.073 840.273C497.7 851.726 490.294 863.09 483.221 874.733C479.93 880.15 476.286 885.587 473.72 891.393L478.854 924.44C479.942 931.464 480.77 938.556 482.307 945.5C483.971 943.03 485.744 940.586 487.307 938.055C494.527 926.347 501.964 914.747 509.047 902.958C514.51 893.865 519.524 884.284 525.802 875.725C522.631 870.17 508.32 843.318 505.073 840.273ZM274 863.235C272.028 868.963 270.276 874.733 268.561 880.542C269.575 883.987 270.368 887.934 271.83 891.191L277.825 875.945C276.737 871.941 275.959 866.869 274 863.235ZM259.087 905.284C257.611 909.528 252.622 920.187 254.382 924.404L254.963 923.478C257.505 918.15 259.884 913.663 259.961 907.612C259.972 906.763 259.467 906.009 259.087 905.284ZM239.199 969.75L239.603 969.75L239.199 969.75ZM212.683 970.25L213.044 970.25L212.683 970.25ZM213.727 972.75L214.109 972.75L213.727 972.75ZM214.177 973.75L214.527 973.75L214.177 973.75Z"/><path d="M669.099 185.545C670.608 186.881 673.068 189.006 673.187 191.173C673.191 191.257 673.168 191.34 673.159 191.423C671.483 190.348 670.037 187.32 669.099 185.545Z"/><path d="M286.619 198.998L286.938 198.693L286.619 198.998Z"/><path d="M285.107 200.793L285.415 200.556L285.107 200.793Z"/><path d="M357.279 212.86L357.383 211.545L357.279 212.86Z"/><path d="M356.299 213.853L357.279 212.86L356.299 213.853Z"/><path d="M355.671 215.519C355.703 214.733 355.899 214.508 356.299 213.853L356.12 215.197L355.671 215.519Z"/><path d="M574.391 217.753L574.113 217.559L574.391 217.753Z"/><path d="M430.202 231.42L430.624 232.242L430.202 231.42Z"/><path d="M430.624 232.242L431.157 233.316L430.624 232.242Z"/><path d="M431.157 233.316L431.442 233.998L431.157 233.316Z"/><path d="M428.227 373.426C412.13 356.542 405.773 349.931 382.287 345.518C377.185 344.559 371.642 343.027 366.454 342.916C362.669 342.834 357.5 342.818 354.092 344.554L353.57 345.4C353.926 346.884 355.089 347.859 356.382 348.591C360.333 350.829 365.994 349.094 370.353 349.485C383.543 350.668 394.669 355.089 405.584 362.385C406.034 361.814 405.851 361.538 405.814 360.836C410.584 362.35 416.57 372.368 418.803 376.672C421.175 381.246 428.052 394.962 426.368 400.158C425.668 402.319 423.71 403.58 421.683 404.343C417.686 405.849 412.973 406.236 408.746 406.804C389.782 409.354 373.011 408.235 354.375 404.003C351.659 403.387 348.163 403.134 345.674 402.078C343.969 401.356 342.62 399.477 341.024 398.462C339.797 397.681 338.433 397.467 337.205 396.597C337.248 395.316 337.652 395.153 338.409 394.166L338.843 393.626C337.549 392.478 336.433 392.62 334.734 392.637C335.5 391.413 336.235 390.707 335.944 389.151C335.111 384.699 330.134 379.119 327.068 375.999L327.914 376.417C328.912 376.916 329.816 377.491 330.747 378.105C332.185 378.066 332.141 377.961 333.2 376.961L333.028 376.246C330.92 375.316 328.39 374.436 326.497 373.133C322.455 370.351 319.468 362.46 317.433 357.995C320.446 360.464 323.181 362.823 327.05 363.789C327.678 363.61 328.173 363.692 328.45 363.019C329.6 360.218 326.57 353.591 325.917 350.452C327.471 352.407 332.554 359.888 334.871 359.828C336.357 359.79 337.525 358.958 338.672 358.13L338.952 357.32C337.716 355.053 335.377 352.992 334.827 350.486L335.287 349.716C338.178 351.417 339.792 355.503 342.818 356.83C344.068 356.348 344.537 356.066 345.3 354.957C344.87 352.457 343.94 349.96 343.07 347.582C344.933 349.757 346.774 351.952 348.593 354.165C350.508 352.97 352.405 351.711 354.381 350.62C353.266 348.872 352.124 347.15 351.178 345.301C346.478 346.926 341.826 348.736 336.917 349.603C336.63 349.654 336.344 349.714 336.058 349.766L335.54 349.857C351.131 341.979 364.96 340.024 382.28 342.483C387.418 343.212 392.634 344 397.581 345.603C409.804 349.563 422.104 360.642 427.699 372.181C427.896 372.586 428.058 373.008 428.227 373.426ZM370.708 361.686C357.443 363.29 348.433 368.821 337.888 376.675C340.834 387.019 349.068 395.889 358.342 401.09C359.439 401.706 360.585 402.223 361.742 402.714C368.442 404.97 375.037 406.146 382.001 407.166C373.992 400.631 366.969 393.03 366.006 382.204C364.92 369.975 372.622 366.013 373.134 361.797C372.198 361.5 371.672 361.522 370.708 361.686ZM380.345 367.604C378.547 368.532 376.606 369.362 376.06 371.5C375.863 372.273 376.031 372.974 376.474 373.649C377.729 375.561 380.524 375.968 382.602 376.142C384.694 375.509 386.262 375.103 387.343 373.035C387.757 372.244 387.623 371.765 387.604 370.906C386.918 369.572 386.281 368.585 384.76 368.139C383.351 367.725 381.802 367.682 380.345 367.604ZM408.559 375.812C406.913 382.132 405.125 389.781 398.992 393.331C396.75 394.629 394.266 394.865 391.793 394.1C384.872 391.96 382.675 384.136 380.017 383.936C379.286 384.977 379.238 386.263 379.407 387.499C379.531 388.405 379.819 389.313 380.08 390.188C382.272 394.074 384.855 397.328 389.313 398.655C393.146 399.796 397.171 399.167 400.644 397.241C405.101 394.769 408.718 390.055 409.886 385.078C410.447 382.686 410.43 378.705 409.153 376.548C408.992 376.277 408.757 376.057 408.559 375.812ZM418.214 384.37C416.745 392.149 414.039 397.086 409.667 403.607L415.877 402.336C418.349 401.794 421.242 401.478 423.42 400.157C424.312 398.671 424.178 397.443 423.779 395.832C422.969 392.559 420.481 386.819 418.214 384.37Z"/><path d="M633.454 374.325C636.933 373.561 640.346 372.472 643.713 371.319C638.003 377.197 629.932 375.091 627.866 377.275C628.227 378.379 628.935 378.973 629.726 379.787L629.73 381.062L628.13 382.578C628.672 383.457 629.22 383.795 630.041 384.4C630.302 385.667 630.175 386.202 629.483 387.321C628.202 389.389 626.299 391.275 624.628 393.025C617.013 401 608.743 405.433 597.864 407.477C581.741 410.508 564.978 408.652 548.864 406.485C545.075 405.975 539.674 405.801 536.392 403.742C535.28 403.044 534.72 402.07 534.508 400.782C533.282 393.325 540.467 379.203 545.09 373.358C559.728 354.848 576.422 358.671 587.447 347.418C570.926 347.547 550.613 354.148 538.878 366.22C535.472 369.723 532.688 373.712 529.856 377.676C531.805 370.514 536.587 363.945 542.089 359.08C557.088 345.817 585.451 341.076 604.719 343.792C611.26 344.713 617.604 347.785 624.197 348.064C624.381 348.072 624.565 348.072 624.748 348.076C622.878 351.783 620.604 355.273 618.715 358.983C623.011 356.517 626.106 353.611 629.574 350.114C627.668 354.063 625.083 357.312 622.202 360.584C623.959 361.541 625.863 362.539 627.754 363.206C632.481 364.873 636.29 363.155 640.522 361.161C639.132 362.748 637.639 364.255 636.299 365.883L638.692 365.666L639.119 366.186C638.645 369.147 635.399 372.156 633.454 374.325ZM594.33 347.199C591.063 347.36 588.911 347.444 586.586 349.996C585.803 350.855 585.071 351.763 584.34 352.666C588.419 352.63 592.387 352.568 596.431 351.989C600.156 351.344 602.099 350.135 604.97 347.709C601.388 347.332 597.931 347.148 594.33 347.199ZM607.65 347.936C605.625 349.187 603.61 350.419 601.687 351.825C605.292 353.428 608.875 354.932 612.598 356.238L616.646 353.959C618.755 352.646 620.588 351.251 622.471 349.645C617.596 348.779 612.623 347.782 607.65 347.936ZM577.721 368.1C575.998 368.617 574.886 368.864 573.77 370.331C573.534 371.582 573.359 372.111 574.191 373.232C575.544 375.055 577.916 375.35 579.997 375.519C581.475 374.754 582.89 374.049 583.612 372.448C584.198 371.149 583.888 370.593 583.447 369.353C582.503 368.43 581.915 367.995 580.554 367.911C579.64 367.854 578.634 368.01 577.721 368.1ZM562.799 370.462C556.036 374.905 549.084 381.16 547.504 389.497C546.836 393.021 547.03 399.298 549.418 402.205C551.812 405.119 562.59 405.733 566.375 406.294C570.565 406.698 574.728 407.024 578.935 407.19C570.774 401.818 564.91 395.038 562.843 385.252C562.032 381.409 562.117 377.606 562.715 373.745C562.877 372.701 563.491 371.275 562.799 370.462ZM614.453 371.157C615.311 383.664 614.226 392.523 605.72 402.28L605.147 402.934C607.929 401.573 610.604 400.255 613.14 398.459C617.721 394.639 623.893 389.044 624.291 382.67C624.44 380.295 623.503 378.055 621.91 376.316C619.957 374.182 617.074 372.374 614.453 371.157ZM601.786 377.365C599.321 382.714 596.403 390.429 590.347 392.469C588.418 393.118 586.036 393.054 584.188 392.158C581.833 391.017 580.318 388.781 577.641 388.291L576.931 388.672C577.072 390.931 578.477 392.775 579.966 394.377C583.254 397.056 587.193 398.604 591.492 398.034C595.632 397.486 599.007 394.917 601.452 391.637C603.501 388.888 604.897 385.5 604.304 382.02C604.009 380.284 603.011 378.605 601.786 377.365ZM540.348 391.409C538.324 393.466 536.564 395.511 536.167 398.453C536.568 399.716 536.705 400.585 537.946 401.314C539.276 402.095 541.546 402.165 543.049 402.346L546.472 402.746L546.764 402.172C545.192 399.602 542.126 393.275 540.348 391.409Z"/><path d="M460.875 408.629C460.477 408.084 460.222 407.631 460.08 406.963C456.596 390.545 448.808 365.815 436.748 353.867C439.072 354.4 441.413 356.833 443.106 358.447C455.672 370.43 460.381 391.974 460.875 408.629Z"/><path d="M643.713 371.319L643.927 371.092L643.713 371.319Z"/><path d="M428.227 373.426L428.456 373.889L428.227 373.426Z"/><path d="M529.621 377.998L529.856 377.676L529.621 377.998Z"/><path d="M289.024 386.178L288.502 386.067L289.024 386.178Z"/><path d="M290.591 394.25L290.144 393.983L290.591 394.25Z"/><path d="M359.916 405.896C358.47 406.015 357.128 406.291 355.972 405.344C356.169 405.238 356.351 405.097 356.563 405.025C357.799 404.604 358.828 405.391 359.916 405.896Z"/><path d="M339.396 409.193L339.008 409.082L339.396 409.193Z"/><path d="M339.396 409.193C345.018 411.55 349.987 416.945 355.264 420.191C362.681 424.754 373.226 427.052 379.434 433.302C376.034 432.447 372.241 429.949 369.062 428.392C358.564 423.248 346.846 418.785 339.396 409.193Z"/><path d="M345.313 411.306L345.002 411.095L345.313 411.306Z"/><path d="M337.363 412.204L337.116 411.502L337.363 412.204Z"/><path d="M345.313 411.306C347.158 411.891 348.888 412.516 350.629 413.361C352.36 417.774 378.039 426.579 384.457 433.248C380.574 431.786 376.803 429.14 373.094 427.217C361.678 421.298 356.119 419.864 345.313 411.306Z"/><path d="M337.363 412.204L338.238 412.613L337.363 412.204Z"/><path d="M338.238 412.613L338.368 412.892L338.238 412.613Z"/><path d="M338.368 412.892C342.18 415.716 345.083 420.328 348.598 423.66C351.543 426.451 355.068 428.513 357.968 431.21C357.324 431.062 357.516 431.119 356.743 430.861C350.217 428.679 341.441 418.908 338.368 412.892Z"/><path d="M350.629 413.361C355.878 414.415 360.898 416.641 366.052 418.098C373.198 420.12 383.179 420.711 389.444 424.64C382.706 424.072 374.616 421.174 367.666 419.88C372.954 422.776 378.809 423.586 384.336 425.874C386.184 426.639 390.631 428.53 391.382 430.339C387.062 428.766 380.662 424.054 376.243 424.093L376.26 424.52C380.762 426.381 384.52 429.424 388.767 431.765L389.588 432.211L388.967 432.404C383.73 430.176 378.841 427.115 373.705 424.654C366.187 421.053 357.531 418.031 350.629 413.361Z"/><path d="M626.452 414.288L626.997 414.035L626.452 414.288Z"/><path d="M612.762 420.812C609.856 424.629 604.285 428.035 600.062 430.232C599.917 430.307 599.77 430.377 599.625 430.45C609.293 429.065 616.333 416.812 626.452 414.288L626.08 414.607C618.235 421.222 609.196 426.4 601.3 432.953L601.394 433.398C609.353 430.642 616.066 424.105 623.496 420.14C617.286 427.329 599.171 437.712 590.37 441.267C592.802 437.466 596.231 434.623 599.55 431.632C593.444 433.603 588.454 437.644 582.255 439.683C584.276 437.492 609.196 422.307 612.762 420.812Z"/><path d="M620.27 415.938L620.497 415.628L620.27 415.938Z"/><path d="M336.368 416.667L336.126 416.002L336.368 416.667Z"/><path d="M590.615 423.961C588.576 424.232 586.147 424.852 584.165 424.203L584.377 423.748C590.462 422.89 596.484 422.619 602.5 421.126C608.488 419.64 614.222 417.182 620.27 415.938C616.2 418.594 611.5 420.144 607.228 422.424C598.379 427.147 590.369 434.012 580.543 436.762C585.331 432.116 595.412 428.01 601.528 424.773C592.239 427.03 584.186 432.868 575.277 436.176C581.459 429.81 590.316 428.955 596.745 423.635C592.881 423.84 587.465 427.187 583.662 428.494C580.503 429.579 577.301 430.171 574.011 430.702C578.769 427.657 585.353 426.198 590.615 423.961ZM601.133 424.75L601.745 424.75L601.133 424.75Z"/><path d="M336.368 416.667L337.301 417.065L336.368 416.667Z"/><path d="M337.301 417.065L337.599 417.646L337.301 417.065Z"/><path d="M344.769 417.628L344.502 417.084L344.769 417.628Z"/><path d="M337.599 417.646L338.134 418.153L337.599 417.646Z"/><path d="M344.769 417.628L345.498 417.895L344.769 417.628Z"/><path d="M338.134 418.153L338.579 418.692L338.134 418.153Z"/><path d="M346.72 418.35L346.002 418.113L346.72 418.35Z"/><path d="M338.579 418.692L339.09 419.184L338.579 418.692Z"/><path d="M346.72 418.35L346.886 418.835L346.72 418.35Z"/><path d="M333.965 419.538L333.525 419.02L333.965 419.538Z"/><path d="M339.09 419.184L339.584 419.689L339.09 419.184Z"/><path d="M346.886 418.835C355.03 423.384 373.652 430.104 379.195 436.201C372.532 434.247 365.806 429.465 359.572 426.369C356.375 424.78 352.706 423.57 349.68 421.714C348.48 420.978 347.705 419.953 346.886 418.835Z"/><path d="M624.47 419.459L624.979 419.089L624.47 419.459Z"/><path d="M333.965 419.538L334.627 420.246L333.965 419.538Z"/><path d="M339.584 419.689L340.085 420.188L339.584 419.689Z"/><path d="M623.496 420.14L624.47 419.459L623.496 420.14Z"/><path d="M334.627 420.246C335.476 420.89 335.863 421.272 336.297 422.25C335.374 421.663 335.104 421.222 334.627 420.246Z"/><path d="M340.085 420.188L340.586 420.686L340.085 420.188Z"/><path d="M340.586 420.686L341.089 421.184L340.586 420.686Z"/><path d="M612.762 420.812L612.934 420.502L612.762 420.812Z"/><path d="M341.089 421.184L341.594 421.677L341.089 421.184Z"/><path d="M341.594 421.677L342.104 422.171L341.594 421.677Z"/><path d="M336.297 422.25L336.576 422.594L336.297 422.25Z"/><path d="M342.104 422.171L342.614 422.65L342.104 422.171Z"/><path d="M336.576 422.594L336.825 422.869L336.576 422.594Z"/><path d="M342.614 422.65L343.145 423.141L342.614 422.65Z"/><path d="M336.825 422.869C339.402 425.018 341.754 427.401 344.336 429.547C346.768 431.568 349.759 433.533 351.937 435.797C346.881 433.878 339.381 427.615 336.825 422.869Z"/><path d="M343.145 423.141L343.625 423.647L343.145 423.141Z"/><path d="M343.625 423.647L344.137 424.139L343.625 423.647Z"/><path d="M351.7 423.855L351.502 423.538L351.7 423.855Z"/><path d="M344.137 424.139L344.629 424.656L344.137 424.139Z"/><path d="M351.7 423.855C356.59 425.364 363.842 429.606 367.503 433.198C362.366 431.582 355.426 427.801 351.7 423.855Z"/><path d="M344.629 424.656L344.858 424.876L344.629 424.656Z"/><path d="M389.444 424.64L389.997 424.9L389.444 424.64Z"/><path d="M344.858 424.876C347.744 426.862 350.65 429.489 352.797 432.257C350.029 430.876 346.247 427.688 344.858 424.876Z"/><path d="M582.955 425.292L583.497 425.044L582.955 425.292Z"/><path d="M621.999 425.506L622.497 425.117L621.999 425.506Z"/><path d="M573.8 428.182C576.606 426.688 579.884 426.021 582.955 425.292C580.347 427.381 577.033 427.815 573.8 428.182Z"/><path d="M621.235 426.119L621.999 425.506L621.235 426.119Z"/><path d="M620.786 426.334L621.235 426.119L620.786 426.334Z"/><path d="M598.573 440.217C600.52 436.737 616.536 427.959 620.786 426.334C614.829 432.501 605.824 435.836 598.573 440.217Z"/><path d="M301.578 427.29L301.108 427.002L301.578 427.29Z"/><path d="M301.578 427.29L303.013 428.003L301.578 427.29Z"/><path d="M572.5 428.5L573.366 428.212L572.5 428.5Z"/><path d="M571.503 428.911L572.5 428.5L571.503 428.911Z"/><path d="M305.747 431.08L305.502 430.599L305.747 431.08Z"/><path d="M573.287 431.124L574.011 430.702L573.287 431.124Z"/><path d="M578.845 430.842L578.997 430.517L578.845 430.842Z"/><path d="M305.747 431.08L306.799 430.656L305.747 431.08Z"/><path d="M357.968 431.21L358.498 431.477L357.968 431.21Z"/><path d="M572.503 431.488L573.287 431.124L572.503 431.488Z"/><path d="M574.524 433.229C575.881 431.917 577.071 431.394 578.845 430.842C577.439 432.22 576.405 432.701 574.524 433.229Z"/><path d="M359.745 431.808L359.002 431.59L359.745 431.808Z"/><path d="M352.797 432.257L353.076 432.591L352.797 432.257Z"/><path d="M359.745 431.808L360.708 432.739L359.745 431.808Z"/><path d="M353.076 432.591L353.68 433.133L353.076 432.591Z"/><path d="M357.775 432.766L357.002 432.568L357.775 432.766Z"/><path d="M360.708 432.739L360.998 432.917L360.708 432.739Z"/><path d="M353.68 433.133L354.174 433.581L353.68 433.133Z"/><path d="M357.775 432.766L358.802 433.806L357.775 432.766Z"/><path d="M362.242 433.3L361.502 433.086L362.242 433.3Z"/><path d="M379.434 433.302L380.236 433.583L379.434 433.302Z"/><path d="M384.457 433.248L385.152 433.672L384.457 433.248Z"/><path d="M573.782 433.613L574.524 433.229L573.782 433.613Z"/><path d="M354.174 433.581C355.126 434.03 355.361 434.116 356 435C354.893 434.589 354.898 434.434 354.174 433.581Z"/><path d="M358.802 433.806L359.789 434.08L358.802 433.806Z"/><path d="M362.242 433.3L363.237 434.305L362.242 433.3Z"/><path d="M380.236 433.583L380.498 433.873L380.236 433.583Z"/><path d="M385.152 433.672L385.616 434.142L385.152 433.672Z"/><path d="M572.795 434.177L573.782 433.613L572.795 434.177Z"/><path d="M359.789 434.08L359.998 434.397L359.789 434.08Z"/><path d="M363.237 434.305L363.599 434.573L363.237 434.305Z"/><path d="M385.616 434.142L385.998 434.399L385.616 434.142Z"/><path d="M572.503 434.387L572.795 434.177L572.503 434.387Z"/><path d="M363.599 434.573L364.42 434.998L363.599 434.573Z"/><path d="M356 435L357.262 435.744L356 435Z"/><path d="M351.937 435.797L352.673 436.145L351.937 435.797Z"/><path d="M357.262 435.744L357.589 436.093L357.262 435.744Z"/><path d="M352.673 436.145L352.99 436.397L352.673 436.145Z"/><path d="M357.589 436.093L358.451 436.495L357.589 436.093Z"/><path d="M379.195 436.201L379.445 436.41L379.195 436.201Z"/><path d="M575.003 436.397L575.277 436.176L575.003 436.397Z"/><path d="M579.774 437.099L580.543 436.762L579.774 437.099Z"/><path d="M579.003 437.465L579.774 437.099L579.003 437.465Z"/><path d="M576.735 438.644L577.497 438.029L576.735 438.644Z"/><path d="M576.003 438.87L576.735 438.644L576.003 438.87Z"/><path d="M581.881 440.082L582.255 439.683L581.881 440.082Z"/><path d="M581.503 440.377L581.881 440.082L581.503 440.377Z"/><path d="M590.02 441.399L590.37 441.267L590.02 441.399Z"/><path d="M468.778 509.686C468.483 509.565 468.185 509.452 467.893 509.325C465.621 508.332 463.876 506.157 461.858 504.732C457.08 501.357 451.755 499.688 449.506 493.642C446.649 485.964 454.872 464.908 458.593 457.369C459.981 465.003 452.113 481.256 452.632 489.692C452.963 495.072 463.683 497.652 467.439 501.217C469.329 503.011 471.209 504.953 471.232 507.688C470.424 508.969 470.168 509.036 468.778 509.686Z"/><path d="M483.237 503.658C487.559 498.631 490.729 496.618 497.199 495.067C498.374 494.858 499.302 494.854 500.488 494.972C501.521 495.823 501.575 495.863 501.891 497.158C501.661 497.689 501.532 498.074 501.142 498.543C498.983 501.14 488.431 504.765 485.057 504.775C483.545 504.78 482.108 505.072 480.622 505.334C479.155 505.6 477.95 505.734 476.462 505.673C478.694 504.871 480.946 504.259 483.237 503.658Z"/><path d="M451.61 528.857C455.115 525.254 461.64 523.012 466.559 522.954C470.848 522.903 475.039 524.396 479.301 524.679C482.798 524.91 486.328 523.459 489.847 523.532C496.247 523.664 512.083 531.01 516.503 535.514C516.624 535.637 516.725 535.777 516.835 535.909C512.074 534.606 507.523 531.328 503.115 529.082C495.891 525.401 492.364 524.489 484.284 526.324C482.135 526.812 480.248 527.236 478.031 527.003C473.679 526.544 469.55 523.987 465.14 524.415C460.518 524.863 456.407 527.337 452.041 528.723L451.61 528.857Z"/><path d="M450.746 529.06L451.61 528.857L450.746 529.06Z"/><path d="M449.712 529.709L450.746 529.06L449.712 529.709Z"/><path d="M449.502 529.997L449.712 529.709L449.502 529.997Z"/><path d="M536.68 544.249C531.733 548.605 528.937 544.812 522.922 545.039C515.988 545.301 508.611 545.163 501.816 546.628C494.746 548.152 488.033 550.89 480.765 551.526C471.604 552.328 463.319 548.303 454.483 546.536C447.968 545.234 441.201 544.784 434.797 543C431.48 542.077 426.735 540.972 424.913 537.761C424.768 536.183 425.016 535.845 425.677 534.453C429.661 534.106 430.563 535.517 433.727 537.388C438.254 540.067 447.278 538.11 452.527 538.401C460.061 538.819 467.167 542.53 474.778 542.964C482.916 543.428 490.053 539.62 497.982 539.256C507.188 538.832 516.432 542.112 525.678 540.801C529.936 540.197 532.982 537.869 536.967 536.819C538.196 537.118 538.148 537.059 538.813 538.131C539.032 540.956 538.421 542.091 536.68 544.249Z"/><path d="M516.835 535.909L517.777 536.038L516.835 535.909Z"/><path d="M517.777 536.038L518.497 536.497L517.777 536.038Z"/><path d="M500.331 574.507C494.733 578.032 489.778 581.018 482.996 581.595C471.507 582.574 462.708 576.883 454.257 569.872C458.306 569.992 463.105 572.429 467.17 573.283C479.624 575.899 492.77 573.969 504.928 570.876L500.331 574.507Z"/><path d="M921.836 846.11L921.783 844.632C922.969 844.76 923.18 845.177 924.081 845.912L921.836 846.11Z"/><path d="M924.081 845.912L924.622 846.473L924.081 845.912Z"/></svg>