<?xml version="1.0" encoding="utf-8" ?><svg xmlns="http://www.w3.org/2000/svg" xmlns:xlink="http://www.w3.org/1999/xlink" width="1024" height="1024" viewBox="0 0 1024 1024"><path fill="white" d="M0 0L0 1024L1024 1024L1024 0L0 0Z"/><path d="M346.615 623.503L346.879 623.786C352.042 635.894 365.416 648.093 376.768 654.401C381.223 656.877 386.013 658.504 390.515 660.815C385.06 660.849 379.58 660.172 374.159 659.629C348.552 657.064 324.794 649.116 306.076 630.758C297.082 621.938 291.733 612.445 286.252 601.255C290.18 624.384 296.469 637.074 316.01 651.041C319.339 653.42 322.858 655.505 326.408 657.536C306.107 651.333 294.701 643.386 284.391 624.748C287.06 634.215 291.823 642.125 296.722 650.558C273.417 637.951 257.201 624.247 245.285 599.974C246.688 619.898 252.091 641.863 267.81 655.555C279.91 666.094 289.458 666.128 304.44 666.694C292.182 671.963 280.331 671.61 267.993 666.646C261.444 664.01 255.779 659.464 249.281 656.941C244.284 655 238.506 655.4 233.291 653.787C216.325 648.538 202.032 631.944 195.397 615.995C188.021 598.263 187.87 576.285 190.748 557.556C180.732 584.807 173.818 619.531 186.428 646.873C190.436 655.565 197.111 662.932 206.295 666.205C212.556 668.436 219.278 668.517 225.847 668.659C217.282 672.374 207.54 672.849 198.781 669.357C189.768 665.764 183.567 658.895 178.329 650.981C166.703 647.928 156.531 639.357 150.456 629.095C145.821 621.265 143.371 612.062 142.384 603.072C127.165 590.168 118.621 572.417 116.896 552.533C113.865 517.595 133.854 478.969 152.018 450.219C165.951 428.166 181.74 407.018 190.269 382.023C193.243 373.309 191.667 362.888 191.78 353.747C191.878 345.775 192.246 337.757 193.281 329.85C194.8 318.24 197.347 306.669 199.225 295.095C205.315 257.553 212.789 218.86 229.722 184.507C234.696 174.415 240.646 164.828 246.625 155.312C256.431 139.702 266.76 125.188 278.682 111.121C311.256 72.6866 369.951 25.8316 421.62 21.4767C429.645 20.8003 437.233 21.4663 445.172 22.6857C449.989 19.7848 454.741 16.9594 459.943 14.7811C493.232 0.842491 536.047 2.11039 570.528 10.704C589.423 15.4967 607.879 21.8817 625.696 29.7907C688.685 57.2257 726.916 96.8541 761.785 154.967C779.768 184.939 794.461 222.358 805.065 255.651C810.91 274.003 814.944 292.354 822.952 309.97C833.739 333.698 846.785 357.69 859.835 380.211C871.97 401.153 883.286 416.268 891.209 439.899C897.372 458.28 899.9 480.073 895.227 499.084C893.588 505.93 890.868 512.471 887.171 518.461C885.378 521.375 883.294 524.249 881.791 527.318C879.617 531.758 878.369 536.676 876.299 541.191C869.338 556.371 857.931 570.694 843.449 579.282C837.503 582.735 831.04 585.205 824.307 586.599C811.246 613.67 794.189 638.774 764.546 649.273C759.646 651.008 753.256 652.995 748.016 652.339L747.789 651.812C749.704 651.541 751.754 651.532 753.612 651.017C768.516 646.886 783.821 631.996 792.857 619.979C797.929 613.235 801.718 606.399 804.519 598.446C786.061 618.039 762.952 633.541 735.177 634.49C720.879 634.979 708.442 631.817 694.812 628.327C687.601 630.363 680.166 631.513 672.792 632.803C674.236 631.417 675.824 630.139 676.695 628.307C675.367 627.225 674.15 627.198 672.5 627.356C665.856 627.993 660.394 630.807 653.41 630.505C649.911 630.353 646.234 629.886 642.927 628.693C641.099 628.034 638.892 626.294 637.041 626.49C636.803 627.687 636.838 627.784 637.328 628.907C642.084 632.491 666.48 629.876 679.589 638.676C690.029 645.684 692.763 657.396 698.617 667.802C702.486 674.592 707.23 680.843 712.727 686.397C723.303 697.296 737.002 705.575 750.567 712.281C756.033 714.984 761.875 717.382 767.039 720.63C782.001 730.042 798.805 753.123 806.612 769.145C813.511 772.15 820.103 775.786 826.861 779.086C858.803 794.365 889.581 811.967 918.947 831.75C929.032 838.399 942.51 846.966 951.011 855.33C953.354 857.634 953.874 860.715 955.752 863.275C958.518 867.047 961.87 870.369 964.681 874.112C970.654 882.064 974.644 891.326 978.291 900.529C987.253 923.144 993.059 946.729 998.773 970.313C1003.27 988.109 1007.34 1006.01 1010.98 1024L835.534 1024C842.142 999.713 850.872 975.095 862.247 952.639C865.673 945.906 869.234 939.243 872.927 932.653C875.441 928.265 878.785 923.734 880.57 919.058L880.867 918.816L881.38 917.559L881.831 917.343L882.388 916.067L882.798 915.821L883.5 914.5C883.771 914.236 883.983 913.825 884.191 913.508C887.815 910.308 890.957 905.292 894.222 901.58C908.797 885.009 920.996 872.384 942.268 864.774C930.75 856.417 918.261 849.193 905.936 842.105C884.6 829.836 862.842 818.372 841.458 806.216C832.976 801.314 824.586 796.252 816.294 791.034C812.086 788.431 807.818 785.333 803.304 783.312L803.038 783.082L803.304 783.312C809.533 790.002 837.825 808.875 846.387 813.047C839.537 811.22 833.029 808.562 826.286 806.421C815.208 802.93 803.829 800.474 792.297 799.086L789.166 805.601C824.221 813.931 863.16 826.468 895.538 842.389C902.726 845.926 909.794 849.7 916.732 853.705C921.557 856.518 926.322 859.743 931.303 862.243C915.138 868.271 900.64 888.394 891.099 902.505C888.831 905.857 886.041 909.452 884.351 913.124C884.293 913.25 884.245 913.38 884.191 913.508L883.5 914.5L882.798 915.821L882.388 916.067L881.831 917.343L881.38 917.559L880.867 918.816L880.57 919.058C876.706 922.886 873.853 929.134 870.76 933.665C852.6 960.265 834.282 991.238 831.339 1024L556.885 1024C563.101 1016.55 571.194 1010.16 578.7 1004.05C590.675 994.32 602.95 985.168 615.126 975.71C624.686 968.284 633.294 959.682 642.9 952.283C652.899 944.581 662.914 936.859 673.051 929.34C680.8 923.591 688.734 918.126 696.071 911.842C722.449 889.249 739.745 863.592 758.99 835.045C771.95 815.821 786.936 790.918 794.404 768.972C789.739 761.942 784.716 755.157 779.353 748.644C775.278 756.111 772.066 764.136 768.095 771.692C762.727 781.906 756.527 791.78 750.732 801.765C742.772 815.48 735.026 829.48 725.96 842.503C697.82 882.927 662.915 915.352 623.663 944.638C608.174 956.195 592.024 966.863 576.739 978.737C558.593 992.835 542.067 1008.87 524.796 1024L510.63 1024C510.791 1022.93 510.968 1021.85 511.508 1020.89C513.626 1017.13 517.636 1013.65 520.662 1010.57C534.644 996.426 549.464 983.138 565.042 970.777C574.792 962.938 584.519 955.155 594.715 947.898C606.772 939.318 619.307 931.33 630.872 922.084C666.102 893.918 699.163 859.694 724.218 822.116C741.838 795.689 756.773 766.658 770.879 738.223C764.477 728.384 753.937 721.063 743.437 716.262C737.813 727.308 733.315 738.935 727.776 750.038C713.625 777.757 697.924 804.658 680.749 830.612C673.263 841.904 665.409 853.964 656.249 863.96C643.063 878.347 625.582 889.432 610.183 901.322C589.383 917.385 568.268 933.947 549.252 952.118C539.067 961.851 529.596 972.378 520.033 982.712C512.73 990.606 504.525 998.557 498.511 1007.48C495.068 1012.59 492.601 1018.41 490.046 1024L477.916 1024C482.698 1012.57 489.444 1000.95 495.836 990.324C499.092 984.914 502.804 979.716 505.501 973.994C512.181 959.817 516.092 944.535 522.05 930.055C531.69 906.627 544.609 885.776 558.129 864.461C538.094 878.048 487.003 907.097 462.75 905.377C457.226 904.985 451.864 902.061 447.128 899.39C424.903 886.855 406.933 867.593 390.483 848.433C391.181 876.889 393.577 905.192 394.767 933.622C395.093 940.114 395.232 946.613 395.185 953.112C395.143 958.392 394.509 964.41 395.361 969.609C395.874 972.742 398.693 979.108 399.721 983.009C403.312 996.633 406.212 1010.48 410.143 1024L389.544 1024C385.282 1017.41 380.334 1011.23 375.9 1004.74C364.254 987.709 353.037 970.321 341.538 953.177C334.442 942.599 326.711 932.449 319.837 921.725C307.865 903.05 298.496 883.236 290.286 862.655C286.591 853.41 283.156 844.063 279.986 834.625C274.02 816.884 269.443 800.057 274.112 781.343C277.192 768.998 282.813 757.121 287.827 745.46C286.541 746.149 285.263 746.853 283.994 747.572C281.088 749.223 278.7 751.193 276.761 753.951C270.746 762.51 260.598 792.147 257.543 803.52C254.722 814.023 260.033 826.508 263.3 836.531C270.472 858.538 279.355 881.189 290.436 901.55C305.736 929.665 324.75 955.346 342.66 981.776C351.839 995.59 360.61 1009.67 368.961 1024L141.375 1024C150.857 997.687 156.224 969.134 161.806 941.738C163.307 934.372 165.738 926.232 166.069 918.744L166.375 918.503L166.069 918.744C166.005 918.877 165.939 919.009 165.878 919.143C163.211 924.915 161.885 931.853 160.246 937.992C156.735 951.138 153.567 964.478 149.594 977.485C148.755 980.232 148.486 983.987 147.224 986.438L147.023 986.41C146.46 983.034 146.339 979.62 145.796 976.235C144.084 965.559 141.933 954.977 140.546 944.25C137.117 916.551 136.319 888.59 138.161 860.74C138.839 851.28 139.624 840.185 142.703 831.199C144.148 826.982 146.818 823.233 148.893 819.315C133.425 832.655 134.343 841.689 132.93 860.663C130.118 898.399 133.892 939.319 140.745 976.49C141.254 979.25 142.393 988.178 143.958 990.061C144.107 990.24 144.308 990.369 144.478 990.529C144.65 990.691 144.813 990.863 144.985 991.026C145.109 991.144 145.239 991.256 145.366 991.372C144.891 1000.54 140.217 1014.61 138.011 1024L51.3291 1024C55.2514 1012.6 57.7903 1000.23 61.0652 988.586C67.1536 967.236 73.5744 945.983 80.325 924.834C83.4636 914.973 86.2421 904.713 90.4139 895.24C100.17 873.089 113.558 851.871 126.617 831.539C130.709 825.168 133.822 818.447 139.524 813.271C149.972 803.787 178.742 793.506 192.786 787.355C210.569 779.481 228.469 771.876 246.483 764.544C253.025 761.828 259.447 758.828 266.051 756.261C266.987 753.576 267.978 751.321 269.932 749.21C279.848 738.498 309.093 723.745 322.957 717.157C328.713 714.421 336.279 712.193 341.276 708.259C348.297 702.731 352.64 693.367 358.375 686.548C368.27 674.781 384.013 666.454 397.036 658.568C374.009 647.54 365.395 641.848 346.879 623.786L346.615 623.503ZM407 54.5L406.103 54.7839C393.744 57.6963 381.094 64.2833 369.891 70.2053C324.047 94.4394 286.132 127.925 258.773 172.17C247.047 191.133 237.822 211.152 229.724 231.889C227.061 238.708 223.708 246.457 222.918 253.749L222.625 253.998L222.918 253.749C225.652 248.842 227.148 242.264 229.186 236.941C233.484 225.717 238.324 214.499 243.853 203.822C276.671 140.456 322.106 97.9869 384.709 64.4335C391.491 60.7989 398.885 58.4646 405.723 54.9806L406.103 54.7839L407 54.5L407.998 54.0947L407 54.5ZM380.3 91.3662L379.889 92.2495L379.327 92.5818C378.356 93.027 378.142 93.0957 377.5 94L377.174 94.3159C370.433 97.9785 361.709 107.86 356.193 113.462C318.242 152.006 292.837 194.528 277.531 246.386C270.365 270.669 264.137 311.575 269.322 336.344L269.449 336.764C270.346 329.949 269.356 322.508 269.466 315.59C269.623 305.717 271.04 295.897 272.66 286.168C274.543 274.789 277.306 263.573 280.923 252.621C292.529 218.045 320.624 161.996 343.04 132.723C350.324 123.211 358.582 114.061 366.742 105.286C370.078 101.697 374.26 98.1983 377.174 94.3159L377.5 94C378.615 93.5949 378.602 93.4405 379.327 92.5818L379.889 92.2495L380.3 91.3662L380.998 91.117L380.3 91.3662ZM433.236 98.552C429.616 104.006 427.881 111.533 426.063 117.824C424.024 124.884 421.988 131.94 420.701 139.183C416.058 165.313 417.887 193.388 423.151 219.295C428.228 244.278 437.416 268.542 447.607 291.854C449.473 296.121 451.419 301.815 454.23 305.466L454.612 306.222L455.162 307.324L455.641 308.282L455.998 308.997L455.641 308.282L455.162 307.324L454.612 306.222L454.23 305.466C453.125 299.857 449.212 292.73 446.999 287.272C443.201 277.67 439.57 268.003 436.106 258.275C423.146 221.478 417.34 175.334 423.669 136.815C425.814 123.765 429.743 111.264 433.236 98.552L433.498 98.0025L433.236 98.552ZM577.029 99.0025L577.265 99.2408C577.453 99.5057 577.638 99.7731 577.83 100.036C581.818 105.497 588.183 110.28 592.953 115.202C602.784 125.243 612.035 135.837 620.662 146.931C644.258 177.309 662.015 215.69 674.253 251.982C676.808 259.559 679.376 267.16 681.65 274.825C683.585 281.344 685.199 288.041 687.577 294.408L687.89 294.998L687.577 294.408C685.834 280.545 680.801 262.285 676.621 248.726C672.384 234.984 666.886 221.531 661.015 208.416C644.848 172.3 624.372 139.92 594.626 113.484C589.345 108.79 583.464 102.529 577.265 99.2408L577.029 99.0025ZM322.02 141.02L321.367 141.747L320.821 142.788L320.588 142.893C316.188 146.463 312.489 152.702 309.31 157.406C293.108 181.378 281.93 204.412 272.693 231.866C270.491 238.41 267.644 245.764 266.825 252.608L266.5 254L266.212 254.866L266.5 254C266.702 253.556 266.741 253.085 266.825 252.608C269.445 248.551 273.851 233.586 276.097 227.796C280.64 216.084 285.897 204.506 291.339 193.189C296.903 181.62 303.125 170.032 309.866 159.108C313.048 153.951 317.432 149.129 320.156 143.767C320.303 143.477 320.444 143.184 320.588 142.893L320.821 142.788L321.367 141.747L322.02 141.02L322.44 140.502L322.02 141.02ZM562.618 151.002L562.866 151.726L563.709 152.135L564.138 153.308L564.602 153.607L564.843 154.134C566.998 158.973 569.894 163.544 572.461 168.176C576.864 176.123 581.273 184.206 585.274 192.357C590.048 202.081 594.279 212.149 598.763 222.014C600.682 226.238 602.504 231.391 605.124 235.196L605.399 235.498L605.124 235.196C602.464 223.481 594.96 209.503 591.019 197.622C597.494 207.677 601.878 218.539 607.707 228.891L607.912 229.498L607.707 228.891C604.082 210.981 584.408 181.411 573.944 166.523C571.04 162.39 568.233 157.877 564.843 154.134L564.602 153.607L564.138 153.308L563.709 152.135L562.866 151.726L562.618 151.002ZM339.767 159.745C325.824 171.433 304.67 216.983 301.846 235.004C304.696 230.616 306.048 224.234 307.965 219.31C311.104 211.255 314.589 203.339 318.411 195.584C321.919 188.413 325.784 181.422 329.99 174.636C332.66 170.416 338.08 164.04 339.767 159.745L339.998 159.502L339.767 159.745ZM588.041 170.504L588.289 170.769C591.668 179.584 600.099 188.844 604.991 197.347C611.792 209.169 617.92 221.454 624.406 233.458C626.637 237.587 628.725 242.918 631.821 246.42L632.118 247.196L632.6 247.653L633.167 248.853L633.639 249.77L634.143 250.775L634.409 250.998L634.143 250.775L633.639 249.77L633.167 248.853L632.6 247.653L632.118 247.196L631.821 246.42C630.325 240.385 624.871 232.177 621.884 226.569C614.796 213.26 598.732 180.14 588.289 170.769L588.041 170.504ZM340.695 183.749L339.74 184.743L339.439 185.127L339.194 185.642C329.471 196.03 302.452 261.514 301.276 275.192L301.117 275.662L301.276 275.192C304.365 269.366 306.151 261.885 308.389 255.631C312.54 244.284 316.887 233.01 321.428 221.813C324.43 214.587 327.771 207.372 331.44 200.46C334.02 195.598 337.151 190.75 339.194 185.642L339.439 185.127L339.74 184.743L340.695 183.749L340.916 183.002L340.695 183.749ZM546.503 185.533L546.728 186.051C548.667 191.868 577.744 244.175 580.786 246.945L581.089 247.731L581.404 247.998L581.089 247.731L580.786 246.945C579.072 240.594 551.243 191.657 546.728 186.051L546.503 185.533ZM557.003 192.094L557.231 192.325C559.784 197.44 564.321 202.431 567.552 207.25C573.11 215.54 587.653 240.211 593.586 245.73C590.336 235.725 564.861 198.466 557.231 192.325L557.003 192.094ZM484.07 207.002L484.188 208.369L485.253 209.346L485.334 210.036C486.98 218.063 504.327 253.791 510.181 259.761L510.575 260.121L511.124 261.257L511.382 261.498L511.124 261.257L510.575 260.121L510.181 259.761C509.876 258.507 487.008 212.524 485.334 210.036L485.253 209.346L484.188 208.369L484.07 207.002ZM412.672 249.708C412.468 251.177 413.141 252.359 413.7 253.676L413.873 254.155L413.7 253.676C413.55 252.002 413.681 251.082 412.672 249.708ZM635.11 252.502L635.329 253.238L636.22 254.2L636.395 254.498L636.22 254.2L635.329 253.238L635.11 252.502ZM637.117 256.002L637.363 256.752L637.886 256.998L637.363 256.752L637.117 256.002ZM265.5 257.5L265.125 257.998L265.5 257.5L265.788 256.634L265.5 257.5ZM501.049 276.008L501.304 276.575C502.307 289.52 519.881 326.258 528.228 336.736C534.961 334.905 541.678 332.947 548.534 331.624C549.946 331.404 551.36 331.072 552.762 330.79C533.494 321.77 520.281 307.123 509.068 289.445C506.384 285.213 504.04 280.77 501.304 276.575L501.049 276.008ZM450.735 184.451C453.914 191.943 455.837 200.602 458.311 208.391C463.728 225.446 469.193 242.413 475.277 259.244C477.66 265.837 479.773 273.341 483.208 279.452L483.463 279.998L483.208 279.452C482.509 275.822 480.928 272.045 479.772 268.523C477.156 260.557 474.401 252.634 471.845 244.649C468.563 234.395 466.779 223.725 463.697 213.415C461.149 204.892 457.925 196.576 455.259 188.089C451.163 175.203 448.258 161.969 446.579 148.552C445.238 137.884 444.899 127.344 445.782 116.621C446.192 111.642 447.513 106.033 447.293 101.124C443.153 106.27 442.509 140.196 442.804 148.625C443.132 169.067 445.594 182.707 449.812 202.563C451.789 211.87 453.786 221.646 457.185 230.531L457.412 230.418C454.639 215.349 451.512 199.775 450.735 184.451ZM457.502 312.502L458.351 313.129L458.472 314.498L458.351 313.129L457.502 312.502ZM387.491 229.03C385.183 233.516 383.108 238.157 381.055 242.764C368.847 270.155 360.877 299.687 355.39 329.089C354.493 333.895 352.065 342.347 353.791 346.86C357.373 346.752 361.554 345.256 365.079 344.446C376.438 341.836 391.386 338.513 402.721 342.154L402.998 342.428L402.721 342.154L401.055 340.759L401.17 340.115C402.898 339.421 405.344 340.302 406.985 340.984C408.413 341.577 409.642 342.603 410.768 343.644L411.125 344.101L411.6 344.68L412.082 345.188L412.498 345.905L412.082 345.188L411.6 344.68L411.125 344.101L410.768 343.644C410.652 343.462 410.537 343.278 410.418 343.097C409.07 341.051 407.836 339.924 405.867 338.5L405.975 338.155C414.829 341.169 418.558 347.808 422.533 355.832C424.447 359.693 425.213 363.496 425.285 367.785L424.893 368.152C422.587 365.047 422.279 361.243 420.362 358.056L420.035 357.502L420.362 358.056C420.791 360.317 421.953 363.553 421.669 365.768C416.552 366.84 408.956 363.174 403.523 362.662C387.031 361.108 369.437 360.777 352.867 361.422C352.505 369.414 353.461 376.195 355.545 383.903C371.641 378.945 391.017 375.047 406.729 383.349C417.43 389.004 424.411 398.152 431.413 407.693C412.291 392.442 401.353 379.618 374.741 382.697C371.644 383.038 368.572 383.577 365.543 384.311C372.776 388.564 378.322 386.77 386.105 388.02C407.739 391.497 423.492 407.921 428.911 428.815L429.061 429.404C426.851 426.028 424.638 422.727 422.123 419.569C422.66 427.989 422.316 435.705 416.298 442.327C415.241 443.491 414.067 444.543 412.891 445.584C413.745 445.968 414.434 445.798 415.351 445.743L415.815 446.339C411.283 449.617 403.245 450.114 397.997 449.321C389.881 448.094 382.992 443.213 378.269 436.644C372.363 428.429 370.225 417.505 371.927 407.575C372.401 404.81 373.19 402.411 374.565 399.967C364.07 402.536 350.667 407.048 344.689 416.799C343.091 419.407 342.257 422.544 341.321 425.441C347.042 435.45 359.394 448.075 370.783 451.326C376.842 453.056 383.651 453.028 389.909 453.249L389.506 453.772C387.734 453.982 385.956 454.136 384.174 454.233C383.755 455.474 383.495 456.693 383.247 457.974L382.7 458.242C382.828 457.001 383.086 455.894 383.398 454.692C382.425 453.789 381.22 454.036 379.93 454.071C378.249 454.117 376.811 454.435 375.575 455.674C373.135 458.122 371.827 462.671 369.972 465.692C370.847 461.629 371.6 458.445 373.925 454.924C374.122 454.626 374.307 454.321 374.498 454.018C372.894 452.856 370.648 452.916 368.746 452.621C367.826 452.478 367.276 452.089 366.521 451.583C364.2 452.19 362.81 454.667 361.662 456.614C360.804 458.068 358.169 464.357 356.868 464.739C356.411 463.355 357.35 461.121 357.961 459.806C358.774 458.059 364.039 452.194 363.851 451.139L361.789 450.739C361.063 449.65 360.1 449.225 359.001 448.559C352.22 450.679 348.695 453.27 343.828 458.297C344.9 456.582 345.96 454.816 347.195 453.214C349.917 449.685 352.975 449.146 357.125 448.593C348.563 444.02 342.908 439.484 337.309 431.533C334.967 428.209 332.77 424.85 329.863 421.978C324.01 416.195 319.07 416.102 314.389 407.919C320.467 410.777 324.528 412.178 331.312 411.636C326.901 408.395 323.361 404.605 320.317 400.068L323.663 401.779C326.052 403.025 328.292 403.837 330.908 404.44C333.388 405.012 338.008 406.078 340.175 404.728L340.394 403.618C339.4 401.493 337.418 400.209 335.636 398.76L344.835 400.341C347.719 399.026 349.958 397.277 352.367 395.267C350.439 394.052 348.52 392.826 346.607 391.588C341.158 394.283 336.416 398.049 330.667 400.202C336.674 393 344.281 389.628 352.472 385.477C347.454 377.875 345.318 371.429 343.757 362.432C339.254 362.79 334.762 363.279 330.288 363.899C322.561 380.626 321.194 393.929 304.228 404.009C305.601 410.575 307.709 417.07 309.491 423.543L317.117 451.966C321.277 467.192 325.617 482.369 330.135 497.492C339.241 528.203 349.241 563.266 369.841 588.491C381.921 603.284 396.374 614.014 411.085 625.898C431.636 642.5 470.191 674.696 496.582 677.196C524.651 679.855 561.6 653.394 582.58 636.07C620.797 604.512 643.076 577.35 659.242 529.812C664.125 515.454 668.135 501.447 669.591 486.263C668.076 491.237 666.372 496.152 664.483 500.996C657.055 519.735 643.459 539.765 624.369 548.09C628.859 544.239 633.259 540.41 636.92 535.725C641.918 529.329 645.971 521.815 648.774 514.207C658.088 488.933 661.796 445.449 661.323 418.569C661.073 404.388 659.697 390.418 657.968 376.359C639.253 372.178 620.597 361.917 604.55 351.634C592.378 351.068 580.181 351.417 568.062 352.679C557.728 353.804 547.489 355.657 537.157 356.764C543.004 363.119 548.161 366.658 555.908 370.522C547.797 368.851 540.369 368.459 532.158 368.024C511.683 366.939 502.386 360.711 486.294 348.874L485.83 348.733L485.598 348.002L485.83 348.733L486.294 348.874C491.82 358.033 504.974 368.178 513.737 374.59C506.764 374.455 496.206 369.853 489.844 367.1C449.826 349.783 430.926 313.84 415.749 275.401C417.732 302.873 427.547 336.301 444.038 358.207C451.195 367.713 459.545 375.393 467.765 383.861L467.471 383.92C458.757 378.216 449.701 370.555 442.489 363.029C433.335 353.478 426.058 342.171 419.067 331.01C397.786 297.037 386.819 270.166 387.491 229.03ZM417.098 364.002L417.643 364.251L417.883 364.998L417.643 364.251L417.098 364.002ZM219.666 492.044C213.785 500.586 198.6 544.225 196.908 555.514C200.401 549.194 204.289 533.597 207.018 525.947C209.755 518.272 218.612 498.57 219.666 492.044L219.934 491.502L219.666 492.044ZM326.036 513.443C319.537 508.898 312.824 501.914 309.4 494.695C308.526 492.851 307.833 490.715 308.635 488.73C308.998 487.833 309.375 487.96 310.213 487.663C315.353 489.925 318.81 498.858 322.538 503.078C322.733 503.298 322.931 503.514 323.128 503.732L323.389 503.998L323.128 503.732C322.227 499.095 320.218 494.421 318.828 489.886C315.078 477.651 311.046 465.391 307.891 452.993C306.531 457.768 304.43 473.917 301.316 476.476L300.343 476.353C299.11 474.836 298.594 472.848 298.178 470.971C296.137 461.748 298.774 451.166 303.878 443.403C301.62 439.17 298.842 437.944 294.526 436.323C290.205 443.993 289.967 448.224 291.04 456.779C291.316 458.984 291.885 461.631 291.613 463.851C291.459 465.114 291.063 465.487 290.091 466.223C288.999 465.834 288.684 465.729 288.03 464.7C284.603 459.305 284.85 445.224 285.85 438.993C286.401 435.559 287.463 432.046 288.194 428.626C285.963 427.15 283.675 426.127 281.231 425.079C280.296 432.053 279.905 439.091 279.545 446.113C279.529 447.36 279.528 448.607 279.542 449.854C279.76 471.877 291.301 488.924 303.548 506.255C309.066 514.062 314.606 521.948 321.165 528.929C326.174 534.262 331.911 538.724 337.114 543.844C333.221 533.785 329.528 523.649 326.036 513.443ZM700.139 601.787C696.431 605.794 692.89 610.328 688.726 613.855C683.752 618.068 677.947 621.611 673.196 626.01C682.403 625.115 686.401 621.769 692.12 614.767C695.001 611.24 698.842 606.198 700.139 601.787L700.386 601.503L700.139 601.787ZM402.623 639.578L402.808 639.828C402.891 640.116 402.96 640.409 403.059 640.693C404.014 643.444 405.756 646.791 408.603 647.906C412.403 649.394 417.371 645.921 420.526 644.218C416.032 640.446 411.457 636.772 406.804 633.198C404.719 631.657 402.691 630.319 400.42 629.06C403.847 634.924 409.208 640.208 413.712 645.284L413.296 645.947C409.726 646.14 406.502 642.127 403.637 640.337L402.808 639.828L402.623 639.578ZM314.724 730.346C308.25 733.505 301.889 737.149 295.775 740.958C291.151 757.499 284.355 775.456 284.092 792.708C284.024 798.406 284.71 804.089 286.131 809.607C288.212 817.846 291.773 826.046 294.723 834.026C304.039 859.236 313.999 883.803 327.204 907.286C333.584 918.632 341.059 929.342 348.119 940.264C357.599 954.929 366.862 969.679 376.595 984.185C382.465 992.933 388.69 1001.42 394.64 1010.11L403.143 1022.82C400.948 1010.3 395.559 989.908 390.737 978.376C385.735 966.411 378.171 955.387 372.052 943.955C346.115 895.492 312.117 837.191 305.561 782.079C304.659 774.5 303.9 766.679 304.847 759.073C306.327 747.185 311.41 740.61 314.724 730.346L314.922 730.124L314.724 730.346ZM512.97 36.1384C519.248 37.5664 525.623 38.3597 531.779 40.339C541.333 43.4107 550.63 47.8806 559.62 52.2964C603.329 73.4789 640.104 106.67 665.64 147.987C693.362 191.974 713.839 246.789 725.471 297.459C727.306 305.453 736.867 358.452 738.394 360.105C731.022 285.591 702.416 191.988 658.217 130.888C644.783 112.68 629.19 96.1686 611.779 81.7167C588.86 62.9459 543.493 35.2637 512.97 36.1384ZM411.242 147.199C406.173 173.566 404.418 201.017 408.145 227.683C409.064 234.256 410.56 240.728 411.87 247.229L412.454 247.243C412.563 244.13 411.406 240.833 410.879 237.747C410.129 233.291 409.594 228.801 409.275 224.293C407.792 203.728 408.231 182.486 410.154 161.963C410.571 157.51 412.063 151.746 411.611 147.372L411.242 147.199ZM459.551 157.822C459.125 177.078 464.439 196.883 469.098 215.42C470.046 219.192 470.551 223.631 472.005 227.182C471.858 219.417 469.591 211.355 468.009 203.771C465.809 193.223 463.612 182.685 461.938 172.038C461.512 169.329 460.862 159.521 459.551 157.822ZM568.29 179.363C570.813 186.635 575.433 193.285 578.506 200.362C582.139 208.73 585.333 217.318 588.551 225.854C589.934 229.521 591.12 234.546 593.207 237.742C591.37 221.257 582.036 200.251 573.174 186.113C571.836 183.978 570.204 180.988 568.29 179.363ZM483.238 204.75L483.614 204.75L483.238 204.75ZM483.66 205.954L484.245 206.25L483.66 205.954ZM301.747 235.485L302.023 235.75L301.747 235.485ZM605.666 236.25L606.051 236.25L605.666 236.25ZM301.246 236.985L301.521 237.25L301.246 236.985ZM606.19 237.25L606.541 237.25L606.19 237.25ZM581.694 248.75L582.099 248.75L581.694 248.75ZM582.241 249.75L582.663 249.75L582.241 249.75ZM634.712 251.75L635.142 251.75L634.712 251.75ZM414.103 255.465L414.566 255.75L414.103 255.465ZM636.725 255.25L637.152 255.25L636.725 255.25ZM414.617 257.461L415.114 257.75L414.617 257.461ZM638.189 257.75L638.585 257.75L638.189 257.75ZM638.766 258.75L639.245 258.75L638.766 258.75ZM639.678 260.25L640.073 260.25L639.678 260.25ZM640.237 261.25L640.663 261.25L640.237 261.25ZM511.714 262.25L512.136 262.25L511.714 262.25ZM641.161 262.75L641.576 262.75L641.161 262.75ZM512.69 263.75L513.066 263.75L512.69 263.75ZM641.762 263.75L642.245 263.75L641.762 263.75ZM300.702 277.177L300.881 277.514L300.702 277.177ZM483.683 280.957L484.245 281.25L483.683 280.957ZM484.235 282.25L484.587 282.25L484.235 282.25ZM537.896 289.916C542.518 300.207 560.082 326.19 569.912 329.883C573.251 331.137 577.349 330.926 580.883 330.946C573.783 322.738 563.366 316.104 555.365 308.451C549.343 302.692 544.301 295.103 537.896 289.916ZM456.202 309.75L456.622 309.75L456.202 309.75ZM456.674 310.75L457.094 310.75L456.674 310.75ZM457.128 311.75L457.54 311.75L457.128 311.75ZM458.724 315.25L459.101 315.25L458.724 315.25ZM459.167 316.25L459.52 316.25L459.167 316.25ZM339.246 341.278C338.358 344.019 337.249 346.805 337.205 349.714C337.5 350.183 337.741 350.607 338.136 350.999L339.739 350.24C340.641 347.543 340.282 343.903 339.246 341.278ZM419.77 356.75L420.245 356.75L419.77 356.75ZM719.15 375.756C715.197 395.029 719.813 393.303 722.583 410.039C724.736 423.05 723.769 436.929 721.164 449.819C720.675 436.225 719.066 423.18 714.938 410.162C713.642 416.265 710.972 422.571 710.515 428.757C709.075 448.216 716.333 471.971 696.309 485.03C693.542 486.835 690.823 487.858 687.684 488.774C686.308 491.637 685.019 494.61 683.473 497.381C680.314 503.296 676.472 508.705 672.665 514.211C673.645 515.617 675.818 516.171 677.488 516.476C682.509 517.394 688.118 515.109 692.066 512.121C699.74 506.313 724.207 469.469 729.496 459.147C731.703 454.841 733.738 450.224 734.351 445.381C736.127 431.364 731.437 389.566 723 378.859C721.897 377.46 720.682 376.62 719.15 375.756ZM363.455 385.624C358.217 386.697 353.276 389.283 348.264 391.108C350.261 391.935 352.471 393.198 354.651 392.53C356.218 391.928 358.848 391.315 359.966 390.111L358.877 389.474C361.755 388.864 364.536 388.81 367.39 387.927C366.828 387.46 367.278 387.772 366.481 387.424C365.623 387.05 365.119 386.575 364.402 386.008C363.911 385.619 364.118 385.742 363.455 385.624ZM841.039 400.398C846.097 438.794 854.958 482.396 847.817 520.896C845.846 531.527 841.993 542.114 838.857 552.469C840.48 550.344 842.059 548.209 843.579 546.007C861.786 517.079 863.557 473.876 856.013 441.144C852.882 427.563 847.551 412.707 841.039 400.398ZM867.344 400.849C880.939 433.511 892.67 478.028 885.464 513.298C886.271 511.754 887.119 510.222 887.832 508.633C897.827 485.645 893.051 456.048 884.183 433.384C881.132 425.586 873.116 406.526 867.344 400.849ZM188.753 408.362C184.976 414.683 181.396 421.17 177.401 427.352C171.47 436.532 164.993 445.366 159.174 454.617C139.54 485.831 118.091 528.72 127.829 566.576C129.502 573.08 132.236 579.296 135.525 585.137C137.395 588.252 139.221 591.4 141.292 594.386L141.408 593.662C142.428 587.009 141.979 580.095 142.316 573.377C142.911 562.296 144.61 551.302 147.387 540.559C152.277 521.304 160.092 502.967 167.241 484.492C175.239 463.822 182.45 443.002 187.13 421.323C187.862 417.927 189.638 411.657 188.753 408.362ZM392.839 410.007C390.494 410.692 388.019 411.193 386.722 413.507C385.834 415.091 385.62 417.105 386.275 418.808C386.965 420.604 388.486 421.904 390.272 422.55C392.215 423.253 393.795 422.655 395.66 422.07C397.269 421.787 399.137 421.685 400.15 420.24C400.589 419.615 400.824 418.742 401.103 418.035C401.388 417.315 401.7 416.602 401.996 415.886C399.854 412.813 397.94 410.898 394.159 410.217C393.72 410.14 393.28 410.069 392.839 410.007ZM286.2 411.02C282.913 413.416 282.567 416.414 281.92 420.228C288.373 424.048 294.399 427.558 299.596 433.073L300.887 434.334L301.28 434.115C299.764 429.308 295.77 413.738 291.798 411.579C290.168 410.693 287.983 410.949 286.2 411.02ZM380.45 412.776C378.751 417.328 379.499 423.145 381.47 427.535C383.992 433.152 389.504 437.997 395.23 440.14C399.134 441.602 403.576 442.079 407.445 440.249C411.514 438.323 414.28 434.225 415.554 430.012C416.305 427.529 416.503 424.668 416.659 422.08L416.226 420.619C415.06 425.724 414.834 433.155 409.962 436.244C407.941 437.526 405.212 438.178 402.941 438.939C400.012 439.92 397.159 439.26 394.48 437.849C389.023 434.975 383.955 428.244 382.378 422.197C381.593 419.183 381.654 415.631 380.45 412.776ZM704.379 440.863C700.491 450.453 697.404 460.318 693.952 470.067C692.558 474.006 689.908 478.97 689.544 483.08L689.946 483.528C696.706 479.225 702.166 472.902 704.003 464.919C705.3 459.283 705.531 446.423 704.379 440.863ZM863.616 465.897C865.614 490.985 864.192 516.802 850.939 538.929C849.098 542.002 847.231 545.434 844.878 548.125C842.687 550.63 839.884 552.79 837.989 555.523C833.278 562.315 829.601 574.954 825.954 582.868L826.044 583.689C827.056 583.57 827.644 583.297 828.525 582.794C849.782 569.196 860.194 546.992 865.502 522.944C868.902 507.541 869.049 492.809 866.588 477.28C866.031 473.761 865.372 468.999 863.616 465.897ZM165.51 519.393C153.752 544.922 149.221 573.116 149.39 601.024C151.282 602.601 153.117 604.284 155.283 605.474L160.487 608.601C156.521 587.626 157.143 567.222 160.104 546.188C160.873 540.724 166.115 522.536 165.51 519.393ZM786.128 547.851C783.562 554.756 780.811 561.111 776.652 567.249C765.019 584.422 739.745 605.113 722.137 616.449C719.818 617.942 708.245 623.632 707.483 625.086C728.433 624.517 748.301 615.662 762.731 600.464C773.941 588.506 786.976 566.187 786.284 549.237C786.245 548.288 786.279 548.572 786.128 547.851ZM196.722 556.25L197.043 556.25L196.722 556.25ZM204.611 592.373C207.78 612.323 213.972 633.108 231.096 645.544C234.524 648.033 238.796 650.645 242.956 651.561C228.686 639.357 217.994 626.765 210.694 609.262C209.505 606.409 205.925 593.504 204.611 592.373ZM629.35 605.862C618.214 621.122 605.73 634.711 592.903 648.537C568.725 674.597 523.125 721.659 486.958 727.403C477.575 728.893 468.503 728.129 460.608 722.391C449.156 714.067 440.541 699.392 434.828 686.664C437.007 713.19 437.813 740.85 427.437 765.922C425.013 771.78 421.792 777.303 418.638 782.791C423.291 762.566 429.738 741.581 429.519 720.613C421.674 726.348 413.792 732.033 405.874 737.668L403.157 748.122C401.751 753.337 400.345 758.584 399.776 763.97C403.654 770.854 406.659 778.25 410.844 784.949C424.396 806.795 443.046 825.026 465.194 838.079C469.416 840.571 473.808 843.203 478.361 845.021C493.281 841.702 507.939 836.241 522.233 830.892C548.317 821.234 573.901 810.273 598.887 798.051C608.705 780.781 617.927 763.178 626.538 745.275C631.969 734.064 637.782 722.666 641.336 710.696C634.668 687.946 630.056 664.837 629.5 641.051C629.361 634.242 629.308 627.432 629.341 620.622C629.395 616.019 630.309 610.296 629.35 605.862ZM150.497 606.145C152.194 621.061 160.159 633.987 171.813 643.364C172.911 644.247 173.988 645.111 175.279 645.69C168.954 634.676 164.36 623.833 161.391 611.414C157.586 610.01 154.246 607.447 150.497 606.145ZM259.902 772.008C248.932 777.049 237.921 782 226.87 786.862C222.036 788.996 216.109 790.822 211.723 793.685L212.19 793.895C226.875 789.881 243.582 782.272 257.877 779.303C258.507 777.619 260.553 773.725 260.065 772.148L259.902 772.008ZM397.704 773.886C394.639 795.782 391.866 817.548 390.673 839.634C409.947 863.527 433.858 888.597 462.62 900.734C472.146 899.254 481.52 897.893 490.663 894.702C507.038 888.987 560.429 860.952 569.063 848.637C570.132 847.112 571.064 845.461 571.976 843.838C579.073 831.897 586.305 820.001 593.127 807.902C574.862 816.735 556.333 823.971 537.489 831.386C521.749 837.578 492.361 849.998 476.24 850.887C448.014 835.834 427.539 820.563 408.983 794.036C406.283 790.176 399.316 775.543 397.704 773.886Z"/><path d="M429.019 370.955C426.944 360.651 418.559 342.757 410.058 336.392C411.036 336.478 411.909 336.727 412.778 337.198C420.053 341.138 428.758 349.573 431.376 357.498C432.352 360.451 433.666 366.356 432.218 369.212C430.695 366.899 430.62 363.606 430.389 360.905C430.039 360.111 429.63 359.449 429.17 358.716C428.154 361.625 429.458 367.102 429.087 370.399L429.019 370.955ZM423.31 347.062C424.474 349.624 426.105 352.136 427.725 354.431L427.993 354.998L427.725 354.431C427.218 351.312 425.797 348.965 423.31 347.062ZM428.134 355.75L428.478 355.75L428.134 355.75Z"/><path d="M532.787 395.709C538.866 383.915 553.534 375.012 565.773 371.041C578.251 366.993 595.887 365.118 608.666 368.585L609.092 368.814C585.091 370.727 568.378 370.728 547.389 384.834C542.318 388.242 537.69 392.091 532.787 395.709Z"/><path d="M630.065 372.262L630.373 372.002L630.065 372.262Z"/><path d="M617.441 383.207C622.884 380.548 626.269 376.854 630.065 372.262C629.951 374.184 629.891 376.252 629.405 378.122C628.803 380.442 626.909 382.791 627.131 385.133C629.375 386.218 633.376 385.71 635.721 384.922C638.412 384.019 640.758 382.071 642.967 380.338C641.453 382.262 640.111 383.689 638.181 385.215L637.063 386.114C641.901 385.487 646.76 385.041 651.63 384.779C650.084 385.983 648.527 387.174 647.031 388.44L645.57 389.233L645.212 389.379C641.429 390.1 636.143 393.122 633.652 396.133C637.788 395.437 642.141 392.15 645.212 389.379L645.57 389.233L647.031 388.44C647.926 388.62 647.482 388.455 648.344 388.982C646.918 392.128 642.788 396.173 642.2 399.3C643.171 399.211 643.72 398.97 644.6 399.437C642.594 402.933 637.506 404.802 634.549 407.569C630.828 411.049 629.137 416.372 625.48 420.178C626.59 414.922 627.124 409.651 627.603 404.31C624.808 401.537 621.972 398.805 619.097 396.114C620.195 403.661 620.719 412.561 618.23 419.898C616.06 426.294 611.548 430.699 605.6 433.667C599.164 436.879 590.954 438.356 584.051 435.911C577.152 433.467 571.452 427.495 568.28 420.998C563.935 412.096 564.838 403.634 568.023 394.59C554.176 401.586 547.767 412.031 540.519 425.17C540.677 418.319 541.966 411.309 544.66 404.99C552.381 386.878 572.598 376.537 591.627 376.211C607.726 375.936 606.278 381.36 623.777 374.272C622.233 377.847 620.037 380.376 617.441 383.207ZM590.837 399.476C587.349 401.357 583.863 403.023 580.203 404.542C580.434 406.925 580.314 410.2 582.178 411.96C583.969 413.652 587.67 413.514 590.017 413.475C590.963 412.009 591.472 410.807 591.934 409.129L592.689 409.15C594.838 409.196 596.364 409.371 598.048 407.787C598.793 407.087 599.148 406.418 599.512 405.461C599.506 404.114 599.214 403.274 598.279 402.301C596.124 400.06 593.844 399.518 590.837 399.476ZM610.726 408.369C608.248 414.805 605.484 421.218 598.738 424.208C595.312 425.756 591.399 425.82 587.923 424.386C582.192 422.004 579.661 417.382 577.096 412.113C576.59 413.006 576.899 413.858 577.004 414.86C578.48 419.6 580.494 423.143 585.095 425.464C589.189 427.529 594.858 427.931 599.2 426.441C603.33 425.023 606.803 421.731 608.684 417.815C609.995 415.087 611.045 411.412 610.726 408.369Z"/><path d="M513.737 374.59L513.997 374.874L513.737 374.59Z"/><path d="M532.58 395.998L532.787 395.709L532.58 395.998Z"/><path d="M574.958 441.029C574.127 440.635 573.765 440.331 573.211 439.598C575.342 438.332 587.868 438.92 591.267 438.608C605.275 437.322 619.249 431.374 628.358 420.428C628.424 421.17 628.457 420.953 628.295 421.725C627.191 426.996 622.17 431.126 617.792 433.735C605.101 441.297 589.419 444.7 574.958 441.029Z"/><path d="M384.043 429.362L383.454 429.395L383.253 428.126L383.823 428.134L384.043 429.362Z"/><path d="M631.087 438.215C629.451 434.579 626.902 431.574 624.636 428.32C626.243 428.738 627.363 429.835 628.451 431.044C630.349 433.154 631.278 435.387 631.087 438.215Z"/><path d="M627.404 445.153C625.928 441.542 625.664 437.423 623.779 434.005C623.46 433.93 623.144 433.84 622.821 433.781C622.49 433.72 622.154 433.69 621.82 433.645L621.467 431.872C621.851 431.975 622.237 432.073 622.617 432.192C624.515 432.782 625.491 434.497 626.313 436.19C627.555 438.75 628.394 442.431 627.404 445.153Z"/><path d="M618.69 436.857L617.936 436.755L617.959 435.684L618.73 435.394L618.69 436.857Z"/><path d="M612.787 445.636L612.267 444.576C612.564 441.22 612.608 438.226 615.321 435.848C615.714 436.223 615.719 436.12 615.749 436.835C615.84 438.985 614.007 443.904 612.787 445.636Z"/><path d="M621.791 436.748L621.536 436.569L621.791 436.748Z"/><path d="M621.791 436.748C622.921 437.756 623.437 437.897 623.655 439.434C622.508 438.623 622.369 438.004 621.791 436.748Z"/><path d="M619.326 447.982C618.134 444.532 617.824 441.223 618.986 437.744C619.417 438.092 619.651 438.541 619.954 439C620.371 441.862 620.379 445.263 619.326 447.982Z"/><path d="M604.426 445.835C603.545 445.944 603.97 445.991 603.151 445.706L604.676 443.83C605.42 444.797 605.179 444.244 605.361 445.504L604.426 445.835Z"/><path d="M352.515 461.228L352.088 461.049C352.075 460.917 352.048 460.786 352.05 460.653C352.094 456.972 356.505 452.52 358.795 449.839C359.27 450.288 359.07 449.989 359.243 450.817C357.141 454.397 354.874 457.813 352.515 461.228Z"/><path d="M361.547 451.498L361.789 450.739L361.547 451.498Z"/><path d="M365.018 463.326L364.382 463.106C363.927 461.93 363.998 461.617 364.327 460.385C365.136 457.349 367.063 454.942 369.702 453.329C370.253 453.484 369.979 453.33 370.423 453.937C368.407 456.996 366.439 459.937 365.018 463.326Z"/><path d="M399 456L400.347 455.665C399.903 455.804 399.467 455.997 399 456Z"/><path d="M398.002 456.371L399 456L398.002 456.371Z"/><path d="M471.171 538.512C467.109 537.319 463.718 535.885 460.684 532.793C457.702 529.755 455.871 525.59 456.05 521.302C456.235 516.897 458.637 512.886 461.802 509.941L462.245 510.699C460.109 516.267 459.779 519.646 461.599 525.335C461.778 525.436 461.957 525.536 462.135 525.639C462.417 525.803 462.694 525.975 462.978 526.135C466.267 527.985 469.114 530.895 471.263 534.002C472.163 535.302 472.633 536.096 472.363 537.671L471.171 538.512Z"/><path d="M502.554 534.998C501.348 534.882 500.485 534.713 499.376 534.221L499.06 533.136C499.715 530.752 501.977 528.724 503.571 526.876C504.732 526.906 505.563 527.009 506.656 527.409C507.349 528.299 507.815 528.717 507.557 529.949C507.048 532.373 504.595 533.996 502.554 534.998Z"/><path d="M449.115 585.974C448.493 585.981 447.867 585.968 447.245 585.982C446.929 585.989 446.613 586.026 446.297 586.013C444.805 585.952 443.213 585.2 442.221 584.08C441.638 583.422 441.867 583.129 441.925 582.324C442.466 581.598 443.203 580.358 444.232 580.273C448.933 579.884 454.666 583.106 459.5 583.587C463.418 583.977 467.34 583.804 471.258 584.37C475.827 585.031 480.73 586.9 485.332 586.888C489.487 586.876 493.454 584.827 497.584 584.487C508.859 583.556 520.12 585.483 531.115 581.633C534.187 580.557 536.262 578.259 539.114 576.898C539.388 576.768 539.665 576.646 539.94 576.52C541.514 576.556 543.33 576.572 544.769 577.297C545.944 577.889 546.508 578.855 546.984 580.033C546.808 581.162 546.572 581.725 545.631 582.445C541.841 585.342 522.318 587.225 516.865 587.697C513.415 587.995 509.733 587.842 506.356 588.575C499.828 589.991 493.232 594.259 486.476 594.028C480.909 593.838 476.577 590.564 471.329 589.39C464.104 587.772 456.447 587.389 449.115 585.974Z"/><path d="M517.258 610.394L517.476 610.126L517.258 610.394Z"/><path d="M467.177 610.22C483.469 618.025 500.643 615.723 517.258 610.394C513.514 615.35 505.414 618.949 499.412 619.962C489.807 621.582 478.518 618.782 470.595 613.21C469.413 612.263 468.302 611.233 467.177 610.22Z"/></svg>