<svg version="1.1" xmlns="http://www.w3.org/2000/svg" style="display: block;" viewBox="0 0 2048 2048" width="1024" height="1024">
<path transform="translate(0,0)" fill="rgb(255,255,255)" d="M 0 0 L 0 2048 L 2048 2048 L 2048 0 L 0 0 z"/>
<path transform="translate(0,0)" fill="rgb(0,0,0)" d="M 659.359 0 L 920.965 0 C 922.626 2.90998 924.282 6.85292 926.73 9.11952 L 926.22 8.33503 L 927.874 6.80331 C 926.894 4.57222 926.025 2.11503 924.834 0 L 957.409 0 C 949.135 11.6572 940.993 25.8705 937.581 39.8648 L 937.15 40.995 L 937.581 39.8648 C 942.597 35.4113 948.312 20.2202 952.224 13.71 C 955.076 8.96438 958.392 4.4605 961.662 0 L 1236.12 0 C 1273.61 16.9738 1298.05 28.8126 1329.05 56.8448 C 1322.87 55.2365 1316.63 53.7346 1310.56 51.7563 L 1310.01 51.2472 L 1310.56 51.7563 C 1314.06 55.5057 1318.52 57.3754 1322.01 60.791 L 1318.04 60.9271 L 1317.08 60.1489 L 1318.04 60.9271 C 1320.18 62.5205 1321.39 63.7528 1324.1 64.1329 L 1325.23 63.1661 C 1330.97 67.3131 1338.21 72.6194 1342.38 78.3272 C 1336.4 75.4267 1330.91 71.5471 1325.35 67.9208 C 1331.47 73.6218 1337.36 78.6298 1341.86 85.772 C 1317.59 73.4429 1291.22 60.0488 1264.75 53.0642 L 1265.91 53.7617 C 1280.89 62.7327 1297.38 69.0877 1312.52 77.8842 C 1342.04 95.0378 1368.36 120.873 1391.74 145.454 C 1375.36 134.896 1357.84 122.773 1338.5 118.688 C 1347.62 125.922 1354.67 133.29 1361.65 142.607 C 1345.33 136.221 1329.57 127.202 1312.59 122.761 L 1312.01 122.248 L 1312.59 122.761 L 1314.08 124.151 C 1319.16 128.809 1325.19 132.549 1330.51 136.978 C 1342 146.543 1366.01 167.997 1372.43 180.384 C 1356.68 172.8 1342.19 162.843 1326.71 154.72 C 1335.44 161.614 1362.5 182.417 1364.88 191.275 C 1365.55 193.787 1366.71 194.953 1368.44 196.778 C 1355.75 188.244 1345.76 176.811 1333.24 168.007 C 1340.11 175.681 1347.07 183.314 1353.31 191.519 C 1359.94 200.237 1365.79 209.317 1373.07 217.551 C 1363.29 209.578 1345.79 194.345 1334.15 190.512 L 1333.21 190.104 L 1334.15 190.512 C 1346.88 202.795 1358.13 216.658 1370.45 229.389 C 1347.92 214.888 1322.18 205.29 1298.42 192.892 C 1220.12 152.024 1138.96 100.58 1049.8 88.3918 C 1014.68 83.5917 956.486 86.9834 927.152 109.284 L 926.005 109.995 L 927.152 109.284 C 939.724 104.291 952.075 99.394 965.395 96.7117 C 1013.11 87.1036 1065.85 100.196 1109.99 119.171 C 1186.89 152.233 1257.42 216.392 1311.24 279.501 C 1322.03 292.147 1333.14 304.657 1342.36 318.517 C 1324.62 300.311 1305.76 284.436 1285.42 269.224 C 1291.28 277.803 1302.21 293.522 1306.47 302.46 C 1302.68 299.581 1299.39 295.877 1295.86 292.676 C 1285.42 283.22 1273.64 272.908 1261.62 265.607 L 1261.18 265.16 L 1261.62 265.607 L 1262.68 267.261 C 1271.21 280.468 1282.43 290.505 1286.32 306.399 C 1277.23 298.071 1268.42 289.356 1258.3 282.242 L 1257.33 281.226 L 1256.25 280.231 L 1255.61 279.124 L 1253.7 278.359 L 1253.23 277.005 L 1253.7 278.359 L 1255.61 279.124 L 1256.25 280.231 L 1257.33 281.226 L 1258.3 282.242 L 1286.96 323.288 C 1290.36 328.225 1294.64 333.183 1297.53 338.373 C 1281.29 326.359 1269.36 309.152 1253.62 296.949 C 1256.02 302.763 1262.73 308.149 1266.67 313.136 C 1272.2 320.125 1277.38 327.438 1282.66 334.617 C 1263.83 324.261 1249.03 307.206 1230.65 296.624 L 1230.01 296 L 1229.07 295.071 L 1230.01 296 L 1230.65 296.624 C 1237.27 307.083 1243.66 317.705 1250.14 328.262 C 1229.54 315.358 1212.62 298.018 1195.19 281.254 C 1204.54 296.381 1216.85 309.317 1226.09 324.575 C 1234.28 338.113 1238.99 354.442 1248.55 366.998 C 1252.05 371.595 1257.12 374.548 1262.46 376.523 L 1263.2 377.144 L 1263.99 377.76 L 1263.2 377.144 L 1262.46 376.523 C 1261.11 374.952 1259.91 373.338 1258.71 371.643 L 1259.6 371.124 L 1267.09 374.079 C 1263.65 368.899 1260.01 363.835 1256.47 358.731 C 1262.93 361.686 1268.39 366.641 1274.34 370.529 L 1275.12 371.303 L 1275.79 371.995 L 1275.12 371.303 L 1274.34 370.529 C 1269.14 363.88 1261.33 359.126 1255.28 353.216 C 1260.98 354.687 1266.12 358.583 1270.78 362.097 C 1278.89 368.222 1286.05 375.631 1293.82 382.185 C 1309.33 395.251 1325.34 407.716 1340.87 420.759 C 1347.31 426.167 1354.27 433.375 1361.45 437.557 L 1362.21 438.166 L 1363.27 439.313 L 1363.98 439.983 L 1363.27 439.313 L 1362.21 438.166 L 1361.45 437.557 C 1355.2 428.154 1344.18 419.044 1336.26 410.934 C 1318.95 393.218 1302.18 375.327 1284.08 358.407 C 1294.61 362.164 1302.3 367.603 1310.92 374.574 C 1307.55 368.915 1305.04 363.251 1301.18 357.838 L 1314.8 364.045 C 1308.61 357.429 1304.17 350.611 1299.84 342.675 C 1306.13 348.547 1311.78 355.169 1317.56 361.53 C 1315.38 357.33 1313.28 353.166 1311.45 348.796 C 1320.71 355.103 1328.49 363.49 1336.7 371.073 C 1346.19 379.993 1356.29 388.235 1366.94 395.736 C 1355.04 382.893 1342.08 370.869 1329.59 358.61 C 1335.39 361.536 1340.27 365.4 1346.58 367.383 C 1342.39 360.037 1337.09 354.477 1332.4 347.604 C 1335.61 348.642 1338.34 351.473 1340.96 353.585 C 1336.18 345.482 1332.06 336.891 1327.68 328.564 C 1339.83 337.097 1350.56 349.573 1360.98 360.128 C 1382.92 382.106 1404.62 404.311 1426.1 426.738 C 1438.95 440.163 1452.36 456.477 1466.88 467.977 C 1467.52 471.04 1470.14 472.7 1472.58 474.37 L 1473.25 475.14 L 1474.28 476.291 L 1474.99 476.995 L 1474.28 476.291 L 1473.25 475.14 L 1472.58 474.37 C 1471.17 471.652 1469.78 469.26 1466.88 467.977 C 1460.1 457.025 1449.4 447.031 1440.98 437.206 C 1424.96 418.513 1398.48 385.317 1387.41 364.15 C 1436.8 413.934 1506.43 468.443 1574 490.001 C 1600.14 498.341 1625.87 500.747 1653.2 499.869 C 1658.89 499.687 1666.8 500.063 1671.97 497.392 C 1656.09 495.355 1643.22 496.974 1625.89 493.378 C 1552.9 478.227 1497.94 438.208 1446.63 385.943 C 1437.55 376.686 1425.02 367.038 1418.15 356.183 C 1418 355.948 1417.86 355.707 1417.72 355.469 C 1427.81 363.364 1456.64 380.953 1468.37 384.553 L 1468.99 384.971 L 1468.37 384.553 C 1454.23 370.214 1425.87 355.04 1408.3 344.233 C 1468.46 366.28 1536.29 391.169 1601.19 378.999 C 1596.44 378.27 1590.89 379.245 1586.05 379.358 C 1510.98 381.113 1437.29 345.035 1380.1 298.736 C 1358.2 281.01 1338.38 261.002 1317.64 241.969 C 1309.02 233.972 1300.14 226.252 1291.02 218.821 C 1284.76 213.724 1277.74 208.857 1272.01 203.207 L 1270.58 201.771 C 1287.61 207.578 1304.16 215.377 1320.87 222.095 C 1340.8 230.112 1361.16 237.136 1380.51 246.548 C 1391.98 252.125 1402.01 261.258 1413.44 266.337 L 1413.88 266.821 L 1413.44 266.337 C 1413.29 266.108 1413.14 265.875 1412.99 265.649 C 1405.08 254.064 1392.09 247.131 1385.2 234.357 L 1385.78 232.838 C 1390.97 233.521 1397.16 239.664 1401.09 242.952 C 1394.24 232.018 1383.59 224.774 1377.23 213.737 C 1383.78 218.003 1389.72 222.408 1395.64 227.511 C 1390.84 216.474 1385.45 209.343 1377.56 200.414 C 1399.38 213.978 1419.03 229.285 1437.85 246.767 C 1447.5 255.724 1456.77 266.934 1467.64 274.348 L 1468.14 275.233 L 1468.99 275.946 L 1468.14 275.233 L 1467.64 274.348 C 1461.29 265.376 1452.15 257.016 1444.63 248.908 C 1424.27 226.94 1403.2 205.736 1383.59 183.068 C 1392.81 185.845 1398.51 188.788 1405.73 195.203 C 1400.36 184.747 1391.04 179.828 1382.55 172.198 C 1396.02 179.315 1407.51 186.654 1422.37 190.627 C 1413.28 185.117 1406.11 180.257 1399.06 172.25 C 1415.85 180.971 1432.08 190.321 1448.62 199.493 C 1439.47 189.986 1428.98 184.134 1419.23 175.594 C 1424.86 177.284 1429.89 179.96 1435.1 182.636 C 1425.91 173.804 1416.87 164.509 1407.17 156.243 C 1401.48 151.386 1395.13 147.401 1389.39 142.653 C 1413.18 150.622 1434.27 164.382 1454.39 179.042 C 1462.27 184.783 1470.7 192.293 1479.51 196.398 L 1480.23 197.164 L 1480.99 197.794 L 1480.23 197.164 L 1479.51 196.398 C 1469.33 182.677 1430.88 153.626 1415.49 143.445 C 1407.29 138.022 1397.63 133.523 1390.13 127.256 L 1392.07 126.048 L 1392.26 124.905 C 1385.33 119.16 1377.25 114.94 1370.08 109.475 L 1369.08 108.705 C 1375.89 110.771 1382.66 112.959 1389.39 115.27 L 1389.91 115.749 L 1389.39 115.27 C 1382.59 108.832 1374.21 105.426 1365.82 101.544 C 1376.93 103.998 1387.67 107.137 1398.46 110.749 C 1385.81 101.934 1371.92 91.3674 1361.77 79.7633 C 1382.28 88.9755 1403.57 99.7565 1422.53 111.854 C 1432.86 118.443 1442.49 126.69 1452.97 132.864 C 1453.98 135.789 1457.18 137.287 1459.65 138.815 C 1457.87 136.452 1456.01 133.526 1452.97 132.864 C 1434.8 110.523 1399.05 91.9897 1374.72 76.0724 C 1345.69 57.0815 1317.22 37.4054 1286.71 20.7781 C 1272.28 12.9151 1257.18 6.88188 1242.3 0 L 1378.71 0 C 1399.97 12.1727 1421.04 24.8725 1440.71 39.5246 C 1465.34 57.8744 1488.25 79.4263 1510.97 100.046 C 1527.84 115.345 1545.12 129.515 1559.2 147.609 C 1572.61 164.827 1583.6 185.263 1589.84 206.235 C 1629.94 221.293 1673.01 229.404 1713.52 210.823 C 1737.64 199.763 1740.14 193.776 1754.48 172.943 C 1748.66 207.609 1723.78 235.636 1695.69 255.517 C 1684.81 263.219 1673.14 269.288 1660.99 274.71 C 1700.13 306.072 1739.17 345.165 1744.87 397.763 C 1747.35 420.61 1741.37 443.717 1726.59 461.55 C 1723.34 465.466 1719.73 468.98 1715.96 472.387 C 1728.61 450.889 1739.61 431.18 1732.81 405.428 C 1720.27 357.946 1672.61 326.573 1632.88 303.341 C 1669.48 358.297 1694.35 416.66 1699 482.978 C 1747.9 478.672 1792.3 462.65 1824.78 424.187 C 1830.64 417.245 1835.84 409.9 1840.84 402.321 C 1824.08 451.712 1790.43 502.542 1742.59 526.436 C 1727.4 534.026 1712.11 538.038 1695.35 540.296 C 1713.95 563.856 1740.4 583.699 1770.96 587.449 C 1790.58 589.857 1809.68 582.585 1824.86 570.352 C 1830.16 566.08 1834.78 561.026 1839.29 555.951 C 1827.2 583.389 1803.05 603.208 1775.34 613.832 C 1755.04 621.612 1734.7 623.019 1713.19 621.872 C 1717.94 657.112 1720.19 694.741 1697.05 724.78 C 1690.54 733.229 1683.73 739.215 1681.19 749.954 C 1679.96 755.163 1679.19 760.383 1677.32 765.419 C 1689.33 774.107 1699.07 779.181 1714.42 776.789 C 1728.35 774.621 1740.98 768.755 1753.23 762.07 C 1737.8 776.504 1714.2 785.671 1693.04 785.081 C 1685.82 784.88 1678.78 783.716 1671.69 782.444 C 1663.79 808.125 1645.17 827.58 1621.74 840.001 C 1620.43 840.694 1619.11 841.374 1617.79 842.042 C 1626.9 863.721 1633.2 873.33 1652.58 886.93 C 1630.71 881.422 1615.17 872.518 1601.63 854.105 C 1585.9 878.269 1594.33 906.823 1586.32 933.224 C 1574.4 972.527 1547.14 1000.85 1525.06 1034.18 C 1517.02 1046.32 1511.35 1061.61 1500.9 1071.88 C 1491.1 1081.5 1477.76 1088.37 1464.35 1091.19 C 1462.12 1091.66 1459.88 1092.06 1457.63 1092.41 C 1452.39 1113.91 1447.63 1145.13 1459.5 1165.54 C 1460.82 1167.8 1462.59 1169.85 1464.54 1171.59 C 1461.96 1172.3 1460.67 1171.66 1458.39 1170.27 C 1444.48 1161.83 1435.36 1145.17 1429.22 1130.66 C 1420.72 1150.51 1407.62 1172.56 1416.8 1194.44 C 1419.21 1200.18 1422.92 1204.57 1426.99 1209.19 C 1411.97 1202.82 1404.56 1194.7 1396.33 1180.92 C 1389.03 1197.27 1383.61 1214.66 1377.81 1231.59 C 1373.51 1244.12 1368.42 1256.86 1365.22 1269.72 C 1390.4 1285.05 1412.96 1303.75 1430.4 1327.72 C 1439.14 1339.73 1447.26 1353.51 1458.02 1363.73 C 1474.19 1379.09 1496.71 1387.8 1511.18 1404.82 C 1527.95 1424.55 1538.68 1449.8 1556.64 1468.49 C 1570.55 1482.96 1590.4 1493.16 1606.62 1504.93 C 1624.14 1517.64 1638.69 1535.06 1656.82 1546.55 C 1667.07 1553.04 1678.82 1558.01 1689.79 1563.19 L 1744.62 1588.96 C 1790.31 1610.52 1835.77 1633.88 1882.47 1653.13 C 1902.87 1661.54 1924.24 1668.25 1944.99 1675.79 C 1979.22 1688.59 2013.55 1701.08 2048 1713.27 L 2048 2048 L 1717.21 2048 C 1742.88 2033.31 1766.32 2013.95 1790.27 1996.66 C 1809.99 1982.42 1830.51 1969.41 1850.13 1954.99 C 1818.05 1895.09 1784.94 1835.74 1750.81 1776.97 C 1737.9 1754.49 1720.04 1719.38 1704.63 1700.58 L 1704.16 1700.01 L 1704.63 1700.58 C 1710.62 1718.07 1730.73 1749.99 1740.4 1768.33 L 1800.11 1880.98 C 1810.79 1901.13 1820.1 1923.53 1833.76 1941.78 C 1821.74 1956.63 1806.83 1969.66 1792.6 1982.33 C 1765.78 2006.22 1741.24 2025.85 1713.32 2048 L 1350.72 2048 C 1362.94 1999.97 1371.86 1950.12 1380.76 1901.36 C 1389.29 1854.64 1398.09 1809.09 1402.93 1761.79 C 1393.76 1780.15 1384.39 1798.23 1374.3 1816.11 C 1370.02 1823.69 1365.93 1831.87 1360.62 1838.79 L 1360.92 1837.83 C 1369.24 1812.13 1383.95 1784.21 1394.76 1758.97 C 1398.84 1749.45 1403.38 1739.84 1406.07 1729.82 C 1409.55 1716.85 1409.54 1702.45 1410.45 1689.07 C 1412.07 1664.58 1413.51 1640.08 1414.77 1615.56 C 1417.17 1578.99 1419.25 1542.4 1420.99 1505.79 C 1421.77 1489.6 1423.14 1473.18 1423.06 1456.98 C 1417.27 1447.09 1410.38 1437.92 1404.63 1427.96 C 1394.88 1411.04 1387.51 1393.15 1380.41 1375.01 C 1385.1 1408.35 1388.75 1441.83 1391.35 1475.4 C 1393.21 1498.05 1395.37 1521.47 1393.45 1544.16 C 1388.11 1607.36 1361.04 1668.66 1335.86 1726.23 C 1308.62 1788.49 1279.12 1848.45 1245 1907.26 C 1227.12 1938.07 1208.84 1968.85 1190.22 1999.21 C 1180.28 2015.44 1169.41 2031.46 1160.05 2048 L 1154.16 2048 C 1157.74 2039.97 1162.58 2032.59 1167.18 2025.12 C 1161.79 2003.09 1158.4 1980.39 1153.5 1958.22 C 1147.63 1931.66 1138.82 1903.6 1128.36 1878.48 C 1120.6 1897.02 1112.55 1915.49 1105.16 1934.16 C 1099.36 1948.79 1094.96 1964.56 1087.09 1978.21 C 1083.97 1983.61 1079.59 1988.09 1075.39 1992.65 C 1084.31 2011.41 1095.48 2028.86 1103.81 2048 L 1065.25 2048 C 1063 2038.57 1063.68 2022.69 1058.37 2014.77 C 1057.29 2013.16 1057.84 2013.65 1055.91 2013.2 C 1054.05 2017.14 1058.15 2041.89 1058.82 2048 L 968.305 2048 C 970.835 2039.58 982.538 2009.85 982.035 2004.67 L 978.351 2003.03 C 980.991 1997.99 986.284 1993.43 990.208 1989.27 C 986.063 1983.71 985.981 1977.83 982.696 1972.09 C 978.701 1965.1 944.528 1916.87 939.801 1915.53 C 942.697 1923.76 959.095 1943.14 964.644 1954.94 C 967.576 1961.18 970.714 1969.62 967.909 1976.43 C 959.886 1995.9 925.313 2017.67 907.123 2025.91 L 905.698 2026.55 C 910.132 2033.99 915.23 2040.96 920.263 2048 L 909.151 2048 C 894.416 2031.15 893.101 2018.74 882.099 2002.16 C 874.408 1990.57 865.733 1979.63 857.748 1968.24 C 845.614 1950.92 834.056 1932.98 822.854 1915.05 C 780.904 1847.89 640.963 1602.35 635.307 1539.93 C 633.448 1519.41 643.574 1484.77 647.589 1463.59 C 655.137 1423.78 659.5 1384.24 656.086 1343.7 C 644.934 1382.83 634.14 1423.94 618.746 1461.59 C 619.39 1446.19 621.358 1430.63 623.43 1415.35 C 621.882 1418.92 620.372 1422.51 618.903 1426.12 C 601.137 1469.78 607.758 1488.79 610.917 1533.33 C 612.177 1551.7 613.183 1570.08 613.933 1588.48 C 614.413 1599.74 614.165 1611.6 616.079 1622.73 C 618.85 1638.84 625.818 1655.52 631.544 1670.82 C 646.394 1709.7 662.823 1747.95 680.788 1785.5 C 688.251 1801.27 697.255 1816.48 703.937 1832.59 L 704.441 1833.83 C 688.634 1813.62 676.46 1789.12 664.203 1766.67 C 647.571 1736.21 631.035 1706.37 617.029 1674.55 C 624.363 1719.04 631.469 1763.48 639.736 1807.82 C 643.321 1827.05 645.739 1848.55 652.157 1867.02 C 658.092 1884.11 668.864 1901.21 676.941 1917.55 C 698.379 1960.91 721.148 2003.97 741.172 2048 L 738.245 2048 C 726.543 2027.62 711.803 2008.62 699.48 1988.53 C 684.376 1963.91 672.566 1938.58 660.082 1912.66 C 665.426 1941.23 671.39 1969.68 677.972 1998 C 681.898 2014.67 686.637 2031.15 689.786 2048 L 378.446 2048 C 361.92 2035.76 344.75 2024.45 328.166 2012.31 C 311.359 2000 295.218 1986.77 279.112 1973.56 C 264.486 1961.57 249.52 1949.76 237.672 1934.89 C 258.071 1896.71 274.296 1856.44 292.12 1817.02 L 329.952 1734.16 C 333.731 1725.93 338.155 1717.95 341.768 1709.65 C 343.413 1705.87 346.91 1699.63 346.387 1695.75 C 342.018 1702.23 339.335 1710.04 335.734 1717.02 C 324.724 1738.36 314.143 1759.74 303.666 1781.33 L 222.478 1948.17 C 234.58 1958.49 249.751 1966.52 263.15 1975.13 C 285.583 1989.55 307.596 2004.61 330.06 2019 C 344.921 2028.52 361.019 2037.34 375.052 2048 L 0 2048 L 0 1705.73 C 99.5895 1663.4 198.541 1619.59 296.82 1574.3 C 319.123 1564.36 341.357 1554.27 363.524 1544.04 C 376.817 1537.91 392.597 1532.28 404.071 1523.13 C 413.349 1515.73 420.561 1505.65 429.702 1497.94 C 441.041 1488.37 455.254 1481.67 465.194 1470.57 C 479.833 1454.23 490.419 1435.13 506.149 1419.36 C 527.803 1397.65 555.266 1382.6 577.764 1361.64 C 593.698 1346.8 607.237 1329.43 622.166 1313.59 C 645.846 1288.45 667.924 1268.84 694.638 1247.08 C 689.439 1238.24 683.039 1230.08 677.846 1221.19 C 670.506 1208.62 664.609 1194.84 658.349 1181.68 C 657.599 1191.66 656.152 1201.34 653.902 1211.08 C 651.337 1191.84 642.614 1172.95 634.728 1155.32 C 622.561 1168.84 613.216 1177.19 595.5 1182.59 C 598.74 1179.46 602.254 1176.17 604.785 1172.43 C 617.996 1152.9 611.129 1122.67 607.29 1101.06 C 593.137 1118.12 580.907 1125.84 559.33 1131.28 C 571.326 1121.03 579.457 1112.86 586.727 1098.75 C 581.173 1097.51 576.064 1095.98 571.079 1093.1 C 567.273 1090.91 564.557 1088.26 561.874 1084.82 C 555.598 1076.76 550.806 1067.05 545.594 1058.27 C 537.53 1044.69 528.838 1031.29 519.268 1018.71 C 503.987 998.638 469.064 965.977 459.723 947.046 C 450.63 928.618 458.178 904.418 451.789 884.894 C 446.492 868.707 434.524 852.73 426.582 837.471 C 411.135 807.791 401.09 777.568 392.433 745.328 C 388.701 755.319 387.033 764.776 386.886 775.452 C 386.153 828.546 399.988 867.576 436.998 905.665 C 428.462 900.944 420.839 894.42 414.09 887.415 C 378.606 850.584 366.977 803.932 367.638 754.021 C 351.729 760.106 337.7 764.37 320.502 763.104 C 298.903 761.515 282.418 753.008 268.451 736.66 C 276.571 741.297 284.639 744.025 293.999 744.631 C 310.553 745.703 329.644 738.968 342.138 728.196 C 318.993 692.937 319.263 641.112 327.365 601.26 C 329.091 592.769 336.759 576.308 334.243 568.533 L 332.567 567.787 C 331.283 568.253 331.197 568.217 329.868 569.079 C 325.224 572.091 321.272 579.185 318.475 583.932 C 309.465 599.222 303.013 615.28 300.387 632.894 C 299.389 639.59 299.256 646.387 297.862 653.019 L 296.882 653.457 C 296.763 653.115 296.618 652.782 296.527 652.431 C 295.361 647.954 295.919 642.119 295.944 637.409 C 296.092 609.512 304.818 588.958 317.798 564.837 C 309.374 562.881 298.877 563.193 292.1 561.346 C 272.918 556.118 245.505 535.552 232.445 520.886 C 221.173 508.227 208.089 488.658 209.196 471.029 L 210.383 470.134 C 216.124 480.476 218.402 489.438 227.462 498.05 C 242.886 512.712 261.784 517.291 282.561 517.022 C 288.836 466.405 321.622 419.068 351.766 379.402 C 343.908 356.716 346.487 329.425 352.36 306.58 C 370.476 236.109 429.185 178.709 484.768 135.246 C 505.903 118.719 528.36 103.814 549.132 86.8343 C 570.319 69.5152 587.291 47.5182 608.452 30.5767 C 623.922 18.1909 642.387 10.0732 659.359 0 z M 705.449 73.8387 C 684.875 76.6005 647.553 92.6427 625.382 99.1544 C 635.974 90.7479 643.649 79.8991 653.278 70.5444 C 667.34 56.8823 685.667 47.4874 702.522 37.7699 C 658.985 52.139 618.2 73.784 581.898 101.785 C 574.993 107.099 566.781 112.641 561.387 119.476 L 560.83 120.175 L 558.425 121.341 L 558.177 122.255 C 560.422 121.424 559.549 122.132 560.83 120.175 L 561.387 119.476 C 567.492 116.642 573.513 111.774 579.2 108.059 C 589.318 101.45 599.504 95.3666 610.427 90.155 C 601.705 97.2598 592.163 102.896 584.556 111.32 L 584.005 111.774 L 584.556 111.32 C 588.531 110.115 592.003 106.043 595.733 103.873 L 596.413 104.43 L 594.354 107.809 L 593.031 107.995 L 594.354 107.809 C 601.998 103.464 615.269 93.9013 624.123 93.9502 C 624.868 95.3195 625.38 95.5663 624.987 97.2258 C 624.226 100.439 622.07 102.731 619.828 105.039 C 607.083 118.163 592.232 129.434 578.823 141.882 C 554.607 164.594 531.34 188.297 509.082 212.93 C 500.46 222.529 489.296 233.946 483.479 245.481 L 482.82 246.195 L 481.748 247.356 C 481.173 248.19 480.43 249.087 480 250 L 478.677 251.416 L 478.217 251.995 L 478.677 251.416 L 480 250 L 481.748 247.356 L 482.82 246.195 L 483.479 245.481 C 490.428 240.12 496.591 230.836 502.426 224.17 C 513.833 211.137 525.635 198.196 537.946 186.005 C 564.091 160.116 594.853 141.312 625.555 121.434 C 651.866 104.398 677.11 87.4111 705.449 73.8387 L 705.995 73.2497 L 705.449 73.8387 z M 1480.01 103.226 L 1481 104 L 1481.71 104.623 C 1491.78 114.373 1503.07 122.915 1512.81 132.978 C 1528.96 149.646 1562.28 193.647 1581.3 202.472 L 1581.77 202.875 L 1581.3 202.472 C 1565.66 166.647 1538.2 141.878 1506.72 120.271 C 1498.82 114.848 1490.46 108.528 1481.71 104.623 L 1481 104 L 1480.01 103.226 z M 778.313 85.9593 L 771.001 88.3802 C 774.007 89.0155 799.134 85.8595 807.108 86.3252 C 827.52 87.5172 861.816 92.3048 879.313 102.952 C 883.254 105.35 886.299 109.009 889.341 112.418 L 889.826 112.995 L 889.341 112.418 C 885.754 102.174 876.608 91.379 867.581 85.7587 C 841.268 69.3755 806.196 79.0982 778.313 85.9593 z M 823.611 116.849 L 823.725 117.929 C 829.419 117.208 835.265 116.355 841.01 116.683 C 860.519 117.797 875.377 129.709 887.616 143.804 L 887.931 144.995 L 887.616 143.804 C 884.498 133.459 877.557 125.395 868.1 120.192 C 853.751 112.296 838.857 112.267 823.611 116.849 z M 666.425 159.764 C 644.385 168.192 623.82 183.356 608.094 200.81 C 624.368 161.64 657.49 127.673 696.733 111.276 C 707.636 106.72 719.035 103.451 729.94 98.9651 C 663.497 112.525 605.733 144.743 561.354 196.343 C 554.17 204.696 546.596 213.235 540.531 222.45 C 539.34 224.26 538.265 226.042 537.283 227.971 C 536.86 228.591 536.266 229.289 535.991 229.983 L 534.661 231.398 L 534.23 231.995 L 534.661 231.398 L 535.991 229.983 L 537.283 227.971 C 543.026 223.045 548.028 215.545 552.967 209.713 C 565.545 194.858 577.544 183.773 593.603 172.745 C 588.52 178.682 582.92 184.493 579.519 191.59 L 579.005 191.989 L 579.519 191.59 C 584.107 188.501 588.272 185.198 592.482 181.626 C 592.365 187.187 580.344 198.764 576.026 202.959 C 573.655 205.262 571.34 207.297 569.281 209.908 C 579.13 202.829 587.039 196.368 594.539 186.82 C 586.937 212.5 566.747 232.424 549.787 252.457 C 559.228 245.32 567.694 237.345 576.453 229.419 C 570.566 244.922 558.892 259.76 548.461 272.59 C 544.137 277.909 538.849 283.352 535.575 289.387 L 535.144 289.995 L 535.575 289.387 C 544.115 283.868 551.697 277.042 560.479 271.726 C 550.994 286.818 537.74 301.468 525.699 314.586 C 520.188 320.59 513.018 326.767 508.575 333.548 L 507.83 334.172 L 507.047 334.937 L 507.83 334.172 L 508.575 333.548 C 521.419 326.308 575.602 275.337 584.404 262.283 C 596.852 243.822 604.646 223.258 618.616 205.504 C 632.47 187.899 649.538 174.204 666.425 159.764 L 666.995 159.239 L 666.425 159.764 z M 648.836 376.558 C 652.679 361.952 656.707 347.543 662.444 333.537 C 669.494 316.328 676.972 298.379 686.892 282.62 C 708.436 248.398 770.88 175.935 807.816 160.869 C 827.342 152.904 842.944 157.534 861.451 165.193 L 861.995 165.777 L 861.451 165.193 C 851.707 156.204 837.439 147.817 823.845 148.383 C 786.794 149.927 718.806 229.997 691.076 257.248 C 676.652 271.422 660.766 285.181 644.722 297.458 C 651.798 272.242 668.151 252.087 680.833 229.616 C 664.761 245.891 647.745 272.783 633.43 291.677 L 639.203 272.094 C 634.051 280.323 629.189 289.286 621.717 295.644 C 623.876 285.293 626.608 275.5 630.712 265.743 C 619.607 281.006 608.758 296.453 598.17 312.078 C 598.311 306.818 597.756 301.101 598.379 295.943 C 601.168 272.881 615.637 249.736 624.961 228.701 C 615.298 238.736 606.791 249.864 598.227 260.837 L 603.077 240.127 C 585.387 260.176 575.9 287.222 560.54 309.177 C 520.035 367.077 427.962 454.151 363.222 484.089 C 366.912 459.42 371.851 434.782 372.563 409.8 C 340.592 441.7 302.179 468.414 290.852 514.598 C 313.107 509.715 333.149 500.824 353.495 490.87 C 438.961 449.057 509.776 382.176 571.793 310.93 C 580.732 300.661 588.367 289.326 597.124 278.904 C 592.631 295.395 588.617 312.33 582.609 328.332 C 572.319 355.74 558.081 382.188 546.652 409.258 C 526.398 457.229 498.759 546.331 501.36 599.016 C 505.278 575.957 507.935 553.525 513.655 530.713 C 529.514 467.461 566.554 383.965 620.664 345.457 C 610.988 363.304 597.537 384.047 592.498 403.803 L 592.005 404.995 L 592.498 403.803 C 595.243 399.677 597.896 395.491 600.456 391.248 C 596.287 413.924 581.899 433.647 577.565 455.819 L 576.765 457.492 L 576.097 458.995 L 576.765 457.492 L 577.565 455.819 C 580.158 451.617 591.747 428.266 594.573 427.306 L 594.018 426.573 L 594.59 426.292 L 594.513 427.512 L 593.806 426.854 L 593.517 427.229 L 594.293 428.365 C 590.09 440.115 583.974 452.527 580.64 464.404 L 580.143 464.995 L 580.64 464.404 C 586.742 457.018 590.563 446.999 596.223 439.043 C 593.721 447.397 591.128 455.538 587.836 463.626 C 591.997 458.203 594.03 451.002 598.268 446.055 C 594.663 458.021 587.864 466.817 582.032 477.63 C 595.647 463.831 606.243 445.349 618.199 429.925 C 613.815 443.232 607.715 455.802 602.691 468.858 C 596.849 484.037 591.98 499.838 587.345 515.423 C 569.469 575.544 561.721 641.552 560.92 704.154 C 560.747 717.609 560.129 731.877 562.547 745.142 L 562.773 743.567 C 566.302 717.921 564.837 690.819 566.825 664.868 C 573.501 577.718 597.161 492.667 655.631 425.806 C 645.163 457.274 635.403 491.774 628.561 524.163 C 638.76 503.656 661.161 456.65 683.03 448.822 C 684.311 448.363 684.535 448.421 685.713 448.364 C 679.877 452.732 674.615 459.14 671.223 465.6 C 676.464 461.598 682.756 454.26 685.713 448.364 C 685.952 448.214 686.192 448.069 686.428 447.916 C 690.534 445.25 693.218 440.708 697.406 438.535 C 692.313 447.01 683.147 454.435 679.442 463.417 L 679.042 463.995 L 679.442 463.417 C 691.493 453.003 700.157 441.205 713.71 432.01 C 708.979 437.652 703.495 443.341 700.347 450.036 C 707.289 443.117 714.174 436.22 721.637 429.852 C 718.161 435.25 713.222 440.455 710.725 446.325 L 712.942 446.093 C 709.92 454.216 705.617 461.924 701.528 469.553 L 700.802 470.168 L 699.759 471.363 L 699.005 472.761 L 699.759 471.363 L 700.802 470.168 L 701.528 469.553 C 708.156 464.123 711.779 455.607 718.23 449.805 C 715.885 456.079 712.342 461.378 709.597 467.392 L 709.138 467.995 L 709.597 467.392 L 713.97 463.267 L 715.058 463.484 C 713.113 468.109 710.358 472.284 708.418 476.864 C 707.951 477.532 707.331 478.259 707 479 L 705.583 481.833 L 704.757 483.486 L 704.005 484.995 L 704.757 483.486 L 705.583 481.833 L 707 479 L 708.418 476.864 C 716.018 469.407 717.827 460.815 722.465 451.716 L 723.312 450.077 C 721.64 457.144 719.74 464.009 717.473 470.908 L 716.803 472.455 L 716.005 473.995 L 716.803 472.455 L 717.473 470.908 C 723.838 463.046 728.982 454 734.344 445.429 C 730.838 464.137 712.476 491.651 702.336 508.53 C 698.601 514.749 693.748 521.633 691.473 528.48 L 690.823 529.195 L 689.757 531.534 L 689.219 531.995 L 689.757 531.534 L 690.823 529.195 L 691.473 528.48 C 696.336 523.716 700.277 516.32 704.097 510.653 C 712.561 498.098 720.826 485.521 730.68 473.989 C 755.283 445.642 780.294 417.653 805.706 390.03 C 814.755 380.192 837.76 358.767 843.224 348.685 L 843.499 347.578 L 844.895 347.144 L 843.499 347.578 L 843.224 348.685 C 823.828 360.697 770.734 405.553 756.524 423.128 C 762.223 405.395 773.868 389.176 783.793 373.555 C 787.051 368.427 791.178 363.109 793.445 357.468 L 794.18 356.816 L 794.806 356.005 L 794.18 356.816 L 793.445 357.468 C 779.51 367.791 764.469 389.029 751.566 401.97 C 763.815 375.335 781.256 352.338 796.498 327.512 L 796.995 327.005 L 796.498 327.512 C 785.864 335.053 776.716 346.922 768.172 356.718 C 756.454 370.151 744.984 383.426 731.709 395.389 C 734.819 387.399 739 379.897 743.377 372.54 L 743.81 372.005 L 743.377 372.54 C 725.644 381.772 712.206 398.573 695.565 409.418 C 707.124 387.029 723.693 367.349 736.894 345.907 C 722.631 359.902 708.218 374.616 695.347 389.914 C 689.136 397.296 684 405.822 677.546 412.924 C 680.41 403.454 684.577 392.998 684.385 383.045 C 682.836 383.537 677.358 393.966 675.175 396.259 C 674.905 396.542 674.626 396.816 674.352 397.094 C 677.22 388.882 680.524 380.837 683.404 372.632 L 683.845 372.005 L 683.404 372.632 C 679.695 376.291 676.354 380.904 672.845 384.834 C 676.747 376.226 682.379 368.666 686.509 360.198 L 686.995 359.263 L 686.509 360.198 C 676.981 368.584 671.01 377.451 664.62 388.343 C 671.426 364.653 681.468 343.959 691.208 321.508 L 691.811 321.005 L 691.208 321.508 C 684.156 328.721 678.506 338.314 672.525 346.452 C 664.972 356.729 656.827 366.62 648.836 376.558 z M 1019 205.134 L 1021.74 205.37 L 1022.76 206.802 C 1023.24 207.136 1023.71 207.476 1024.2 207.806 C 1034.48 214.838 1047.12 219.389 1057.82 226.099 C 1098.48 251.604 1145.98 292.572 1169.97 334.094 C 1156.21 320.732 1141.14 311.142 1126.05 299.58 C 1113.01 289.589 1085.74 266.76 1072.45 260.52 L 1072 260.002 L 1070.46 259.694 L 1069.26 258.005 L 1070.46 259.694 L 1072 260.002 L 1072.45 260.52 C 1072.64 260.748 1072.83 260.978 1073.02 261.203 C 1080.39 269.695 1090.23 276.323 1098.36 284.151 C 1118.79 303.842 1134.21 325.449 1147.84 350.242 C 1150.72 355.47 1154.21 360.873 1156.42 366.408 C 1150.99 362.521 1146.08 356.789 1141.22 352.11 C 1128.47 339.835 1115.53 327.161 1100.66 317.418 L 1100.11 317.005 L 1100.66 317.418 C 1119.36 339.97 1135.48 366.467 1147.41 393.274 C 1137.22 384.471 1127.2 374.572 1116.46 366.513 L 1115.83 365.808 L 1115.19 365.005 L 1115.83 365.808 L 1116.46 366.513 C 1119.44 372.789 1124.15 378.178 1128.33 383.701 C 1136.33 394.292 1142.7 404.169 1147.41 416.632 C 1142.17 412.018 1136.9 407.737 1131.22 403.678 C 1137.31 412.124 1144.41 419.546 1150.15 428.31 C 1140.53 419.225 1130.6 411.541 1120.38 403.162 C 1125.95 411.118 1132.02 418.575 1136.95 426.986 C 1129.88 421.043 1123.59 414.352 1115.86 409.205 C 1121.02 419.746 1126.09 427.535 1134.19 436.043 C 1114.92 427.689 1097.59 414.744 1078.66 405.502 C 1088.22 413.516 1097.66 421.669 1107.98 428.718 C 1066.87 411.447 1024.58 364.919 993.328 333.052 L 992.496 331.867 L 993.328 333.052 C 1007.63 360.255 1044.54 397.87 1065.57 421.153 C 1072.03 428.314 1081.69 436.189 1086.38 444.347 C 1086.11 444.192 1085.83 444.041 1085.56 443.884 C 1081.47 441.506 1058.15 422.485 1055.74 422.681 L 1055.61 421.79 C 1055.89 422.357 1056.11 422.959 1056.45 423.492 C 1062.11 432.364 1085.28 452.164 1094 460.858 C 1088.3 457.16 1082.64 453.259 1076.73 449.907 C 1081.8 455.759 1089.67 461.841 1093.56 468.219 C 1081.82 461.939 1070.19 453.53 1059.03 446.218 C 1020.69 421.082 987.818 396.185 955.457 363.645 L 955.053 363.168 L 955.457 363.645 C 963.31 378.215 975.295 391.191 987.485 402.257 C 1003.27 416.583 1021.52 428.411 1038.94 440.645 C 1062.48 457.183 1085.72 474.434 1111.29 487.777 C 1139.09 502.017 1168.09 513.783 1197.96 522.94 C 1217.12 528.632 1241.54 534.946 1261.49 534.824 C 1249.45 531.357 1237.08 529.06 1224.99 525.74 C 1175.75 512.228 1151.98 494.539 1118.58 457.47 C 1125.44 461.176 1131.74 465.226 1138.08 469.768 C 1133.85 462.962 1128.72 455.968 1125.51 448.643 C 1131.27 452.56 1183.9 481.778 1189.47 483.438 L 1190.21 484.135 L 1192.48 485.314 L 1192.99 485.8 L 1192.48 485.314 L 1190.21 484.135 L 1189.47 483.438 C 1182.16 474.671 1172.38 467.053 1164.45 458.651 C 1166.15 459.308 1167.9 459.866 1169.63 460.452 L 1169.86 459.643 C 1167.07 456.985 1164.53 454.39 1162.22 451.295 L 1161.63 450.492 C 1167.22 452.532 1171.83 456.439 1176.45 460.116 C 1172.66 454.812 1160.88 441.095 1159.76 435.79 C 1161.16 435.376 1161.99 435.155 1163.47 435.177 L 1162.41 434.801 L 1162.55 433.088 C 1160.89 430.837 1159.17 428.609 1157.59 426.306 C 1177.71 435.051 1197.48 456.284 1214.21 470.79 C 1219.23 475.142 1224.58 480.443 1230.44 483.567 L 1231.21 484.162 L 1231.99 484.995 L 1231.21 484.162 L 1230.44 483.567 C 1224.78 475.935 1217.32 468.937 1211.05 461.696 C 1200.65 449.67 1190.87 437.022 1181.07 424.493 C 1186.37 427.957 1191.32 431.954 1196.57 435.508 L 1196.99 435.995 L 1196.57 435.508 C 1195.28 433.445 1195.87 434.159 1194.36 432.549 C 1191.77 429.795 1189.93 427.769 1188.36 424.318 C 1191.54 427.096 1194.76 430.42 1198.55 432.315 L 1198.92 432.995 L 1198.55 432.315 C 1195.49 427.356 1191.59 423.187 1188.73 417.995 C 1189.73 418.899 1190.73 419.187 1191.97 419.683 L 1191.26 419.06 L 1199.36 426.365 L 1199.84 426.995 L 1199.36 426.365 C 1195.57 418.683 1189.76 412.026 1185.91 404.224 C 1192.44 411.659 1199.75 417.312 1207.48 423.379 L 1207.95 423.862 L 1207.48 423.379 C 1201.41 411.671 1192.32 401.697 1186.11 389.828 C 1191.52 395.144 1196.27 400.296 1203.18 403.68 C 1197.71 392.544 1193.1 381.316 1188.63 369.75 C 1230.71 404.672 1263.15 448.358 1299.89 488.38 C 1325.33 516.089 1356.13 541.64 1385.97 564.537 C 1398.09 573.84 1412.71 586.224 1426.98 591.393 L 1428.43 592.252 L 1430.55 593.381 L 1430.99 593.911 L 1430.55 593.381 L 1428.43 592.252 L 1426.98 591.393 C 1413.74 580.439 1398.52 572.194 1385.43 560.887 C 1352.04 532.037 1323.47 495.267 1296.57 460.492 C 1289.4 451.214 1281.2 442.278 1274.81 432.457 C 1288.33 441.104 1300.67 453.252 1313.82 462.747 C 1356.8 493.787 1410.24 522.594 1461.9 534.761 C 1460.15 532.76 1437.14 526.198 1432.16 523.848 C 1408.8 512.813 1386.09 497.481 1365.63 481.734 C 1323.94 449.657 1288.43 411.256 1251.58 373.977 C 1198.45 320.224 1129.75 257.005 1062.05 223.607 C 1049.49 217.41 1036.45 209.986 1022.76 206.802 L 1021.74 205.37 L 1019 205.134 z M 402.446 227.072 C 374.752 255.177 352.368 311.27 352.515 350.865 C 352.542 358.207 352.902 366.4 355.729 373.256 C 363.456 365.727 370.364 356.709 376.928 348.16 C 372.738 312.832 378.067 283.649 391.782 250.731 C 395.105 242.754 399.258 235.065 402.446 227.072 L 402.995 226.198 L 402.446 227.072 z M 927.216 369.005 L 927.668 370.487 L 928.785 371.476 C 933.076 382.02 939.148 391.841 943.294 402.363 C 923.088 380.943 905.747 356.877 893.931 329.78 C 896.5 346.113 898.878 362.402 903.483 378.319 C 909.773 400.057 918.701 420.847 927.663 441.584 C 959.671 515.646 998.934 584.514 1054.37 643.551 C 1067.53 657.565 1081.27 671.734 1096.93 682.964 C 1098.36 683.994 1097.93 683.697 1099.44 684.544 L 1100.21 685.171 L 1101.36 686.246 L 1103.53 687.454 L 1104.16 688.225 L 1104.99 688.906 L 1104.16 688.225 L 1103.53 687.454 L 1101.36 686.246 L 1100.21 685.171 L 1099.44 684.544 C 1093.19 676.181 1082.61 669.198 1075.11 661.668 C 1060.47 646.991 1046.68 630.99 1033.3 615.177 C 989.737 563.706 954.54 494.791 927.238 433.18 C 920.453 417.869 912.526 401.554 908.543 385.253 C 915.043 396.312 921.814 407.908 929.638 418.076 C 985.07 490.128 1090.48 557.937 1178.62 580.452 C 1180.14 580.831 1181.68 581.157 1183.23 581.429 L 1185.61 582.48 L 1186.99 582.786 L 1185.61 582.48 L 1183.23 581.429 C 1177.97 578.29 1171.11 576.334 1165.38 574.075 C 1152.65 569.047 1139.8 564.137 1127.4 558.325 C 1026.67 511.13 958.695 410.336 922.204 308.326 C 925.771 344.111 944.982 372.85 954.511 406.516 C 944.423 395.764 938.536 382.139 928.785 371.476 L 927.668 370.487 L 927.216 369.005 z M 830.325 466.426 L 829.046 466.769 C 817.863 473.55 809.334 486.673 802.431 497.466 C 767.427 552.196 749.5 614.624 732.403 676.631 C 724.543 705.134 716.533 733.68 709.477 762.394 C 707.584 770.099 705.355 778.618 705.109 786.552 C 708.932 782.236 710.392 775.368 712.096 769.962 C 720.546 743.17 727.06 715.741 734.884 688.757 C 748.394 642.161 763.75 594.93 781.416 549.773 C 789.891 528.111 802.015 507.395 814.669 487.91 C 819.221 480.902 825.078 473.997 829.046 466.769 L 830.325 466.426 L 830.806 465.005 L 830.325 466.426 z M 797.538 535.951 L 796.776 537.437 L 795.677 539.651 L 794.718 541.562 L 793.701 543.599 L 792.708 545.584 L 791.705 547.59 L 790.706 549.587 L 789.706 551.589 L 789.005 552.995 L 789.706 551.589 L 790.706 549.587 L 791.705 547.59 L 792.708 545.584 L 793.701 543.599 L 794.718 541.562 L 795.677 539.651 L 796.776 537.437 L 797.538 535.951 C 801.892 531.349 805.223 524.144 808.543 518.723 C 817.272 504.469 825.801 489.419 835.99 476.176 C 843.085 466.954 861.248 449.426 864.464 439.35 C 846.267 453.137 804.436 513.745 797.538 535.951 z M 783.315 563.259 L 783.075 565.995 L 783.315 563.259 L 784.995 562.005 L 783.315 563.259 z M 916.181 689.005 L 916.776 690.094 C 919.531 706.299 927.659 723.399 933.548 738.789 C 951.938 786.85 973.44 834.035 1005.1 874.97 C 1014.08 886.594 1024.38 897.078 1033.9 908.248 C 956.317 855.996 915.524 764.626 893.174 676.604 C 889.361 661.388 885.958 646.073 882.968 630.675 C 880.903 620.333 879.362 609.553 876.115 599.528 L 875.651 598.05 C 882.003 669.862 896.98 750.763 934.002 813.479 C 943.562 829.674 960.467 845.802 968.503 860.31 C 965.984 858.485 963.774 856.499 961.575 854.304 C 877.274 770.14 860.623 642.595 860.297 528.976 C 860.226 504.195 862.94 479.454 863.021 454.667 C 856.231 470.524 845.732 485.214 836.925 500.047 C 824.082 521.767 811.84 543.837 800.215 566.233 C 784.259 597.388 771.277 629.244 758.032 661.585 C 741.05 703.048 724.802 744.336 710.05 786.679 C 739.751 795.946 768.929 806.718 798.837 815.34 C 834.796 825.706 881.878 836.052 915.369 851.658 L 916.237 852.128 L 916.995 852.781 L 916.237 852.128 L 915.369 851.658 L 912.824 848.099 L 913.297 847.053 C 919.731 851.305 925.464 857.058 931.226 862.196 C 928.601 858.239 925.641 854.296 923.46 850.084 L 923.781 849.162 L 922.538 847.349 L 923.296 847.775 L 923.381 848.767 L 924.453 849.083 C 929.738 855.902 933.648 862.518 937.617 870.162 C 935.414 862.916 932.922 855.909 930.126 848.87 C 936.794 856.982 941.033 866.08 945.528 875.501 L 942.015 861.528 C 946.237 866.552 955.12 885.419 954.872 891.877 C 954.814 893.394 954.74 893.375 954.325 894.6 C 939.704 896.813 876.636 880.017 855.861 877.311 C 871.56 884.155 882.663 891.959 893.311 905.574 C 879.964 895.694 865.486 885.49 850.207 878.864 C 840.851 874.806 830.427 872.691 820.51 870.426 C 779.442 861.046 749.435 861.332 707.997 867.559 C 701.728 868.502 693.617 869.009 688.291 872.578 C 687.709 874.756 687.102 875.052 688.206 877.125 C 699.266 875.066 710.638 872.451 721.83 871.375 C 737.145 869.902 753.17 870.076 768.557 870.539 C 803.816 871.599 837.576 874.629 867.643 895.085 C 878.231 902.289 909.782 935.641 911.925 948.036 C 912.212 949.698 912.088 949.219 910.898 950.617 C 896.851 951.93 883.019 948.852 868.998 948.327 C 852.506 947.709 835.839 948.997 819.372 949.867 C 819.742 949.709 820.11 949.546 820.483 949.393 C 833.488 944.07 852.286 943.441 866.178 943.907 C 871.784 944.095 878.589 945.972 883.969 944.449 L 884.421 943 C 882.47 941.067 880.465 939.189 878.407 937.371 C 879.529 934.441 880.731 932.89 879.479 929.741 C 876.74 922.853 863.654 913.418 856.771 911.299 C 854.437 910.581 852.838 910.574 850.449 911.232 C 847.291 915.24 845.416 919.905 842.577 924.108 C 834.717 935.743 821.959 942.144 808.278 943.846 C 795.55 945.43 781.822 943.665 771.571 935.378 C 762.254 927.846 756.98 916.279 755.137 904.637 C 754.853 902.844 754.835 898.463 754.118 897.019 C 752.564 893.888 737.194 895.451 733.937 895.721 C 728.677 896.193 723.421 896.711 718.17 897.275 C 722.988 910.269 727.007 918.808 737.477 928.144 C 724.871 923.696 716.004 914.469 706.567 905.422 L 705.812 904.813 L 704.621 903.126 L 705.812 904.813 L 706.567 905.422 C 707.875 908.162 709.007 910.08 711.361 912.04 L 714.17 914.362 C 716.035 915.887 715.806 915.984 716.523 918.127 L 715.652 918.716 C 713.09 917.195 710.481 914.869 707.824 913.686 C 703.788 911.89 699.665 911.958 695.943 909.267 C 697.502 907.73 696.779 908.604 698.062 906.608 C 694.155 901.032 687.505 896.427 681.927 892.583 C 685.203 898.171 689.264 903.398 693.047 908.658 C 684.675 905.499 673.608 902.965 669.311 894.124 C 668.572 892.603 667.941 891.514 666.798 890.243 C 666.391 889.79 665.973 889.348 665.561 888.9 C 666.708 889.429 667.85 889.693 669.068 890.017 L 670.168 888.42 C 670.166 882.587 669.707 877.305 668.621 871.573 C 663.712 871.962 658.319 871.979 653.521 873.022 C 651.294 873.506 651.207 873.709 650.046 875.539 C 652.92 889.447 653.049 904.22 653.988 918.361 C 654.887 933.024 656.351 947.646 658.376 962.197 C 645.443 918.006 634.48 873.792 631.589 827.741 C 626.743 849.159 621.821 889.524 620.967 911.983 C 619.629 947.133 638.116 996.53 656.7 1025.53 C 662.933 1035.26 670.373 1043.64 678.168 1052.1 C 639.496 1032.64 627.016 1014.45 600.084 983.241 C 603.714 992.776 607.061 1002.55 611.136 1011.9 C 614.988 1020.74 619.927 1029.37 623.023 1038.5 C 627.328 1051.18 630.298 1064.41 634.2 1077.24 C 638.706 1092.06 644.58 1106.46 649.533 1121.14 C 658.27 1147.04 665.861 1173.3 677.766 1197.98 C 687.306 1217.77 698.167 1237.23 710.728 1255.27 C 735.933 1291.47 764.268 1324.32 792.317 1358.24 C 826.987 1400.18 861.057 1441.83 898.057 1481.79 C 911.336 1496.13 924.964 1514 941.434 1524.58 C 979.208 1548.84 1031.01 1554.56 1074.34 1545.03 C 1088.43 1541.99 1101.69 1535.94 1113.21 1527.28 C 1149.44 1500.59 1179.07 1462.95 1208.09 1428.96 C 1257.07 1371.57 1305.67 1313.48 1346.37 1249.82 C 1360.03 1228.45 1372.59 1206.61 1382.41 1183.19 C 1398.24 1145.42 1411.66 1095.32 1422.6 1055.28 C 1434.69 1011.04 1451.14 962.648 1450.67 916.337 C 1450.51 901.079 1439.86 869.593 1436.05 852.323 C 1392.33 850.138 1372.33 847.375 1331.06 830.293 C 1302.46 835.969 1257.85 854.001 1230.65 865.552 C 1241.21 863.756 1251.5 860.542 1261.98 858.321 C 1272.62 856.067 1283.64 854.942 1294.42 853.513 C 1327.86 849.081 1346.22 848.467 1378.22 863.217 L 1308.88 863.514 C 1279.97 863.456 1248.7 861.708 1221.61 873.68 C 1213.01 877.48 1204.78 882.842 1196.66 887.601 C 1185.54 894.122 1173.99 900.462 1163.9 908.529 C 1151.97 918.064 1140.89 929.033 1129.68 939.395 C 1133.32 934.151 1137.68 928.694 1138.5 922.173 C 1138.79 919.817 1138.96 920.802 1137.5 918.796 C 1128.81 920.849 1122.32 930.079 1114.08 933.711 C 1109.92 935.545 1105.55 935.714 1101.21 936.773 C 1093.73 938.598 1079.8 946.722 1075.9 953.379 C 1075.64 953.813 1075.4 954.255 1075.15 954.692 L 1073.72 954.432 C 1072.24 932.572 1093.97 910.465 1103.19 891.996 L 1103.86 890.65 C 1100.72 893.268 1097.7 898.887 1094.46 900.301 L 1093.3 895.848 C 1091.73 897.613 1090.43 899.503 1089.1 901.441 L 1087.63 901.579 C 1085.96 895.254 1088.66 873.529 1088.9 865.293 C 1075.28 859.124 1062.51 851.662 1049.68 844.028 C 1056.91 851.519 1064.2 859.064 1070.62 867.272 C 1061.36 859.444 1050.91 853.04 1041.36 845.544 C 1004.32 816.447 970.674 784.383 945.724 744.132 C 935.223 727.191 927.678 708.812 917.717 691.694 L 916.776 690.094 L 916.181 689.005 z M 740.566 695.249 L 740.239 696.267 L 740.566 695.249 C 748.735 680.258 754.202 662.258 760.477 646.338 C 770.413 620.937 781.407 595.962 793.429 571.48 C 804.256 549.684 815.802 527.706 828.599 507.004 C 838.853 490.417 850.63 474.426 859.891 457.286 C 861.708 453.922 862.556 451.199 862.728 447.386 C 853.512 453.864 845.552 468.131 839.255 477.567 C 803.409 531.284 776.02 587.956 754.803 648.994 C 749.61 663.937 743.568 679.699 740.566 695.249 z M 882.407 288.187 C 880.083 312.966 877.226 338.436 877.006 363.326 C 876.633 405.575 884.35 448.96 896.034 489.455 C 910.626 540.024 937.218 594.006 969.394 635.888 C 982.144 652.483 996.73 667.597 1011.3 682.591 C 1024.24 695.913 1040.29 712.537 1056.58 721.53 L 1057.18 722.156 C 1058.1 722.824 1058.95 723.524 1059.98 724 L 1061.41 725.345 L 1062.99 726.413 L 1061.41 725.345 L 1059.98 724 L 1057.18 722.156 L 1056.58 721.53 C 1050.14 712.905 1035.96 702.623 1027.63 694.781 C 1011.4 679.298 996.44 662.543 982.881 644.679 C 926.776 569.896 899.772 472.685 891.174 380.777 C 888.726 354.606 887.987 328.322 885.294 302.176 C 884.633 295.759 884.588 289.278 883.466 282.919 L 882.407 288.187 z M 1260.01 720.03 L 1260.44 720.566 C 1272.29 741.07 1310.27 773.05 1332.9 780.313 C 1323.3 769.492 1308.11 760.949 1296.74 751.681 C 1284.4 741.626 1273.05 730.21 1260.44 720.566 L 1260.01 720.03 z M 1355.01 742.247 L 1355.45 742.866 C 1364.37 749.25 1380.84 749.184 1391.38 748.707 C 1382.09 745.363 1365.52 743.648 1355.45 742.866 L 1355.01 742.247 z M 1366.49 810.316 C 1378.52 817.844 1397.13 828.36 1410.73 832.237 L 1410.99 832.974 L 1410.73 832.237 L 1412.2 831.714 C 1417.96 837.408 1426.52 840.454 1433.8 843.803 C 1430.38 835.622 1427.98 826.944 1425.44 818.459 C 1416.9 817.496 1408.37 816.489 1399.85 815.437 C 1388.76 813.46 1377.72 811.354 1366.49 810.316 z M 520.474 976.299 C 504.241 961.811 489.453 940.25 488.158 917.922 C 486.893 896.112 493.391 867.577 505.358 849.158 C 500.454 842.864 495.336 836.944 489.91 831.096 C 485.301 842.846 481 854.358 477.347 866.437 C 476.707 855.665 473.237 807.722 476.677 800.139 C 479.842 800.114 481.053 801.507 483.338 803.717 C 494.576 814.585 515.972 853.793 524.207 868.78 C 522.484 857.897 522.427 846.774 522.019 835.778 C 514.788 823.588 494.552 778.756 481.499 775.736 C 480.219 775.44 478.438 774.969 477.265 775.808 C 470.69 780.516 469.557 799.747 469.033 807.353 C 466.84 841.319 466.75 875.388 468.764 909.365 C 469.31 919.983 469.043 932.037 472.069 942.302 C 474.275 949.784 480.093 956.392 485.172 962.152 C 504.4 983.955 527.73 1002.85 541.927 1028.65 C 549.57 1041.53 560.676 1066.4 570.04 1076.07 C 573.529 1079.72 578.003 1082.29 582.918 1083.45 C 596.88 1086.88 615.144 1082.35 628.509 1078.06 C 625.299 1065.83 622.427 1053.33 618.429 1041.33 C 576.759 1004.92 562.594 966.663 540.2 918.226 C 540.126 957.943 560.029 990.281 587.468 1017.99 L 588.357 1018.88 C 560.074 1009.06 541.384 997.642 527.794 969.726 C 514.556 942.533 513.021 935.327 521.023 905.945 C 522.865 899.183 524.956 892.508 525.899 885.547 L 519.473 872.83 C 509.917 891.199 501.645 909.874 496.63 930.055 C 502.016 946.917 510.739 961.629 520.474 976.299 z M 1583.01 1504.26 L 1584.66 1505.53 L 1584.78 1506.62 C 1586.85 1511.78 1638.76 1587.34 1640.48 1588.94 L 1641.22 1590.44 L 1642.42 1592.54 L 1643.17 1593.19 L 1644.26 1595.57 L 1644.82 1595.99 L 1644.26 1595.57 L 1643.17 1593.19 L 1642.42 1592.54 L 1641.22 1590.44 L 1640.48 1588.94 C 1636.36 1575.89 1595.03 1515.33 1584.78 1506.62 L 1584.66 1505.53 L 1583.01 1504.26 z M 1645.17 1597.01 L 1645.59 1598.49 L 1647.42 1600.45 L 1647.81 1600.99 L 1647.42 1600.45 L 1645.59 1598.49 L 1645.17 1597.01 z M 377.361 1617.84 L 376.817 1619.48 L 376.145 1619.99 L 376.817 1619.48 L 377.361 1617.84 C 383.74 1611.24 388.48 1599.69 392.867 1591.55 C 401.995 1574.62 410.73 1557.31 420.561 1540.78 C 428.618 1527.24 438.712 1516.56 448.813 1504.67 C 447.725 1505.1 447.324 1505.23 446.352 1505.72 C 424.608 1516.78 405.234 1562.75 393.796 1584.76 C 388.347 1595.25 380.985 1606.68 377.361 1617.84 z M 1052.2 1782.9 C 1069.33 1784.41 1079.66 1789.38 1093.27 1799.44 L 1093.75 1799.92 L 1093.27 1799.44 C 1089.2 1790.39 1083.06 1781.92 1077.75 1773.54 C 1076.02 1772.67 1074.81 1771.99 1073.49 1770.56 C 1074.73 1768.32 1075.6 1767.78 1077.57 1766.2 C 1078.39 1766.38 1078.71 1766.38 1079.49 1766.94 C 1086.56 1771.91 1095.17 1787.66 1099.99 1795.48 C 1139.48 1859.55 1164.03 1933 1174.59 2007.42 L 1181.91 1998.58 C 1176.85 1979.6 1172.91 1960.28 1168.12 1941.22 C 1160.94 1912.8 1152.48 1884.72 1142.74 1857.07 C 1130.95 1824.15 1114.94 1792.95 1100.72 1761.05 C 1174.28 1692 1245.69 1613.83 1300.99 1529.23 C 1319.2 1503.04 1337.55 1472.13 1348.23 1442.04 C 1355.58 1421.31 1368.77 1351.43 1366.3 1330.19 C 1365 1319.12 1360.68 1309.02 1355.96 1299.03 C 1354.36 1303.61 1353.09 1308.35 1351.69 1313 C 1354.18 1322.01 1356.59 1331.07 1357.6 1340.39 C 1360.84 1369.96 1348.64 1401.72 1337.23 1428.58 C 1297.03 1523.17 1229.19 1602.4 1156.85 1674.18 C 1121.01 1709.75 1084.1 1743.62 1052.2 1782.9 z M 962.591 1912.91 L 962.083 1913.99 L 962.591 1912.91 C 967.677 1907.27 971.544 1900.68 976.879 1895.04 C 995.133 1875.75 1018.82 1859.63 1041.35 1845.65 C 1053.7 1837.98 1078.55 1826.57 1087.91 1816.79 C 1081.61 1818.36 1075.46 1821.88 1069.74 1824.89 C 1039.09 1841.01 972.739 1879.96 962.591 1912.91 z M 874.482 13.2945 L 880.305 15.3547 C 894.11 20.1851 906.37 32.9792 912.721 45.9026 C 914.411 49.3411 915.223 53.4185 917.305 56.5825 C 917.176 43.9223 911.63 34.1913 902.643 25.4843 C 895.811 18.8656 886.262 12.8452 876.419 13.1709 C 875.773 13.1923 875.128 13.2533 874.482 13.2945 z M 936.537 42.5 L 937.481 42.5 L 936.537 42.5 z M 875.984 43.2154 C 890.368 47.6843 900.108 54.4305 908.478 67.1293 L 909.768 67.5983 C 908.807 60.0671 904.587 54.1326 898.58 49.608 C 893.164 45.5288 884.333 41.511 877.395 42.8952 C 876.922 42.9895 876.454 43.1086 875.984 43.2154 z M 887.261 69.6824 C 892.411 73.0379 897.355 76.6402 901.041 81.658 L 901.436 81.7738 C 901.32 78.4991 900.481 77.3108 898.036 75.0087 C 895.067 72.2136 891.305 70.2119 887.261 69.6824 z M 890.482 114.5 L 891.362 114.5 L 890.482 114.5 z M 477.85 178.07 C 438.566 206.783 409.354 253.691 401.906 302.032 C 401.196 306.638 400 312.603 400.603 317.236 C 408.226 308.037 414.183 296.372 420.083 285.99 C 429.808 268.874 438.094 251.024 447.476 233.729 C 456.453 217.181 466.546 201.186 475.344 184.554 C 476.446 182.471 477.597 180.429 477.85 178.07 z M 566.393 197.5 L 567.49 197.5 L 566.393 197.5 z M 1017.26 204.5 L 1018.49 204.5 L 1017.26 204.5 z M 692.409 319.5 L 693.357 319.5 L 692.409 319.5 z M 894.555 332.5 L 895.49 332.5 L 894.555 332.5 z M 685.377 379.5 L 686.262 379.5 L 685.377 379.5 z M 1653.13 404.47 C 1661.49 430.487 1669.21 455.027 1671.45 482.5 C 1676.65 482.723 1681.87 483.073 1687.08 482.97 C 1683.03 459.799 1671.24 420.545 1653.13 404.47 z M 588.279 462.5 L 589.432 462.5 L 588.279 462.5 z M 772.41 507.5 L 773.23 507.5 L 772.41 507.5 z M 771.285 508.751 C 735.844 573.829 710.126 626.805 697.894 700.765 C 696.341 710.159 692.521 725.241 694.576 734.298 C 706.19 679.709 718.709 625.279 741.302 573.947 C 745.708 563.935 772.067 513.344 771.285 508.751 z M 688.398 533.5 L 689.19 533.5 L 688.398 533.5 z M 788.282 554.5 L 789.172 554.5 L 788.282 554.5 z M 787.374 556.5 L 788.23 556.5 L 787.374 556.5 z M 786.394 558.5 L 787.26 558.5 L 786.394 558.5 z M 785.5 560.5 L 786.417 560.5 L 785.5 560.5 z M 782.384 567.5 L 783.153 567.5 L 782.384 567.5 z M 781.497 569.5 L 782.335 569.5 L 781.497 569.5 z M 780.461 571.977 L 780.998 572.5 L 780.461 571.977 z M 778.253 576.5 L 779.114 576.5 L 778.253 576.5 z M 777.407 578.5 L 778.182 578.5 L 777.407 578.5 z M 776.412 580.5 L 777.243 580.5 L 776.412 580.5 z M 1432.27 594.5 L 1433.49 594.5 L 1432.27 594.5 z M 1676.01 602.774 C 1682.12 631.797 1679.69 643.8 1680.49 671.949 C 1681.02 690.423 1683.19 708.649 1683.26 727.203 L 1687.4 719.177 C 1700.35 683.525 1696 643.941 1680.21 609.998 C 1679.08 607.56 1677.94 604.709 1676.01 602.774 z M 374.21 613.648 C 360.401 648.052 354.33 682.234 352.223 719.028 L 352.943 720.142 C 354.763 718.594 356.458 717.104 358.079 715.34 C 366.722 705.626 376.396 695.782 382.894 684.458 C 380.681 672.526 378.488 660.573 377.371 648.479 C 376.387 637.81 377.256 623.782 374.21 613.648 z M 1121.06 631.792 C 1123.97 642.618 1137.28 696.591 1141.47 702.321 C 1148.71 712.239 1176.05 727.489 1187.22 733.687 C 1189.19 734.778 1191.2 735.745 1193.32 736.505 C 1176.54 715.287 1159.07 695.39 1144.8 672.273 C 1139.61 663.866 1126.66 636.703 1121.06 631.792 z M 678.599 687.745 C 673.164 701.756 643.377 779.566 643.67 786.54 L 670.328 784.79 C 670.152 763.466 670.956 741.811 673.378 720.621 C 674.541 710.455 679.718 697.754 678.599 687.745 z M 1152.27 729.657 C 1168.31 763.232 1182.19 776.883 1212.8 796.714 C 1206.68 795.032 1200.57 793.303 1194.48 791.527 C 1203.07 800.315 1211.92 808.909 1221.81 816.246 C 1229.25 814.461 1236.46 812.392 1243.71 809.963 L 1268.11 801.902 C 1241.47 784.678 1218.97 763.527 1196.68 741.107 C 1182.51 741.668 1165.05 735.503 1152.27 729.657 z M 1071.59 758.67 C 1078.38 778.19 1106.87 837.87 1125.11 843.837 C 1127.18 844.515 1131.87 843.425 1134.15 843.123 C 1127.23 835.921 1119.79 829.176 1113.25 821.629 C 1100.63 807.071 1091.55 791.248 1082.08 774.678 C 1079.28 769.777 1076.02 762.228 1071.59 758.67 z M 1553.89 761.233 C 1548.88 775.634 1541.79 789.434 1535.73 803.426 C 1528.53 820.054 1522.19 837.065 1514.35 853.417 C 1508.75 865.111 1501.95 876.42 1496.89 888.327 C 1504.05 880.2 1511.02 872.123 1516.48 862.726 C 1523.08 851.371 1547.47 792.589 1555.4 789.015 C 1558.44 798.375 1558.42 809.08 1559.97 818.807 C 1561.74 829.846 1564.63 840.702 1566.18 851.763 C 1569.32 874.017 1568.22 898.416 1565.24 920.648 C 1563.73 931.899 1513.1 1005.8 1503.6 1014.12 C 1502.77 1010.76 1502.96 1008.6 1500.31 1006.24 C 1493.66 1005.98 1485.79 1013.99 1480.03 1017.25 C 1491.08 1006.61 1500.63 994.644 1511.2 983.552 C 1525.99 968.016 1557.04 947.018 1557.33 923.4 C 1557.61 901.103 1549.36 866.939 1545.34 843.944 C 1541.72 849.729 1538.96 858.273 1534.29 862.882 C 1531.05 867.434 1528.1 872.086 1523.7 875.601 C 1527.18 868.422 1533.31 861.163 1538.88 855.439 C 1528.39 861.926 1519.26 870.567 1509.95 878.6 C 1519.04 880.132 1529.88 881.471 1535.54 889.703 C 1541.07 897.747 1540.42 910.801 1538.28 919.835 C 1531.31 949.234 1502.48 967.054 1482.6 987.091 C 1476.06 993.686 1471.08 1001.73 1464.73 1008.5 C 1460.84 1012.65 1454.81 1016.37 1451.79 1021.05 C 1449.17 1025.1 1447.71 1030.78 1449.66 1035.21 C 1454.4 1038.69 1461.07 1037.13 1466.55 1036.55 L 1465.69 1036.66 L 1464.73 1039 L 1464.73 1036.81 L 1464.2 1036.89 L 1464.16 1039.38 C 1458.08 1043.03 1453.17 1045.37 1446.01 1046.25 C 1442.6 1056.02 1438.78 1065.8 1436.7 1075.95 C 1453.09 1076.88 1474.68 1075.94 1487.7 1064.21 C 1501.27 1051.98 1509.87 1032.31 1519.85 1017.05 C 1538.84 988.029 1561.04 961.318 1574.7 929.076 C 1577.57 922.305 1578 915.071 1578.25 907.816 C 1579.67 867.334 1581.48 826.866 1568.97 787.801 C 1566.16 779.029 1563.12 769.91 1556.54 763.181 C 1555.37 761.993 1555.57 762.279 1553.89 761.233 z M 1637.58 764.505 C 1635.52 775.276 1633.64 786.069 1629.98 796.439 C 1625.58 808.896 1619.33 821.179 1616.28 834.022 L 1615.91 835.54 C 1619.09 834.647 1622.24 833.694 1625.51 833.164 C 1641.63 814.987 1646.6 794.115 1649.13 770.593 L 1637.58 764.505 z M 1153.74 782.672 C 1159 799.885 1165.75 815.763 1174.85 831.303 C 1182.8 828.936 1190.74 826.374 1198.74 824.211 L 1202.46 822.881 L 1202.88 821.727 C 1190.75 814.26 1180.79 805.742 1170.12 796.377 C 1165 791.893 1159.54 786.105 1153.74 782.672 z M 641.371 805.368 C 642.982 826.086 644.996 847.026 648.591 867.501 C 656.067 866.678 663.49 865.783 670.913 864.565 C 671.67 847.599 672.446 830.847 671.027 813.888 C 660.966 811.7 651.059 808.853 641.371 805.368 z M 698.535 825.515 C 695.068 837.506 691.967 849.779 690.025 862.12 C 712.772 857.997 735.071 855.814 758.172 855.165 L 776.738 855.284 C 753.849 846.132 721.643 831.313 698.535 825.515 z M 947.685 884.455 L 948.134 885.642 L 948.811 885.731 L 948.406 884.243 L 947.685 884.455 z M 784.151 900.112 C 788.962 904.77 792.215 903.402 797.527 906.06 C 799.303 906.948 799.294 907.073 801.262 906.52 L 803.508 903.333 C 801.885 901.365 799.677 900.868 797.247 900.543 C 793.093 899.988 788.33 899.812 784.151 900.112 z M 775.421 902.96 L 776.49 903.5 L 775.421 902.96 z M 780.971 904.5 L 782.49 904.5 L 780.971 904.5 z M 772.782 905.412 C 769.666 908.143 767.552 910.931 767.363 915.237 C 767.123 920.714 770.785 926.075 774.436 929.824 C 781.52 937.099 790.287 941.381 800.462 941.2 C 804.944 941.12 809.528 940.446 813.965 939.851 C 818.409 936.672 823.265 933.514 827.1 929.622 C 830.595 924.701 832.241 922.158 831.113 915.948 C 830.786 914.149 830.178 912.984 829.23 911.452 C 826.568 910.448 826.408 910.753 823.675 911.692 C 822.635 913.702 821.582 915.688 820.463 917.656 C 817.197 918.063 816.27 914.984 812.941 915.218 L 812.239 916.189 C 810.304 918.818 808.478 921.65 804.919 922.044 C 793.312 923.327 783.346 908.655 772.782 905.412 z M 1485.02 909.572 C 1482.62 913.473 1480.5 917.344 1478.83 921.613 C 1476.14 928.518 1461.77 972.203 1462.54 977.102 C 1462.58 977.371 1462.69 977.624 1462.77 977.885 L 1464.65 976.903 C 1475.18 966.133 1490.32 955.036 1490.45 938.726 C 1490.5 931.7 1489.27 915.102 1485.02 909.572 z M 814.346 911.372 C 813.642 912.269 813.722 913.553 814.533 914.356 C 815.344 915.159 816.628 915.227 817.519 914.513 C 818.194 913.973 818.499 913.093 818.304 912.25 C 818.108 911.408 817.446 910.752 816.602 910.565 C 815.757 910.377 814.88 910.691 814.346 911.372 z M 898.116 935.836 C 899.261 938.786 899.966 940.306 902.96 941.876 C 904.312 942.585 905.992 942.998 907.458 943.427 C 904.829 939.453 903.051 936.857 898.116 935.836 z M 695.107 1259.81 C 681.132 1271.38 670.874 1284.19 669.141 1302.89 C 663.054 1368.53 727.49 1471.45 765.286 1522.85 C 784.753 1549.32 806.658 1574.81 827.859 1599.92 C 878.173 1659.51 932.221 1717.04 992.903 1766.19 C 954.539 1829.93 916.951 1896.58 893.975 1967.64 C 890.574 1978.16 884.127 1994.95 887.33 2005.91 C 887.673 2007.08 888.164 2007.75 889.062 2008.56 C 891.867 2005.49 893.038 1995.98 894.154 1991.65 C 904.387 1953.53 925.101 1916.95 942.486 1881.69 C 953.889 1858.57 964.518 1834.32 978.515 1812.68 C 987.609 1798.61 998.615 1782.13 1013.64 1773.76 C 1017.49 1771.61 1021.8 1770.25 1025.97 1768.82 L 1025 1767.6 C 1014.72 1754.88 1001.3 1743.68 989.27 1732.6 C 964.454 1709.72 938.902 1687.56 914.522 1664.23 C 837.831 1590.84 711.379 1453.11 686.266 1349.24 C 683.436 1337.54 680.414 1324.22 681.555 1312.09 C 682.853 1298.29 690.934 1289.92 700.533 1281.03 C 699.452 1275.57 698.6 1263.63 695.107 1259.81 z M 705.452 1262.37 C 711.345 1315.14 722.543 1367.57 719.925 1421.04 C 761.046 1493.94 824.274 1564.18 882.701 1623.8 C 912.051 1653.76 942.57 1681.99 973.533 1710.22 C 990.595 1725.78 1008.98 1740.54 1024.57 1757.58 C 1031.67 1765.34 1037.59 1773.03 1041.79 1782.73 C 1053.73 1769.53 1065.1 1755.41 1077.65 1742.82 C 1091.22 1728.91 1104.96 1715.37 1119.33 1702.3 C 1082.72 1693.37 1048.3 1682.09 1017.27 1659.82 C 983.799 1635.81 954.195 1598.26 928.013 1566.47 C 912.112 1547.17 895.927 1527.96 880.644 1508.17 C 837.784 1452.65 797.542 1394.87 756.885 1337.73 C 749.055 1326.73 710.183 1266.15 705.452 1262.37 z M 1322.02 1337.59 C 1305.81 1362.1 1296.27 1391.04 1283.12 1417.23 C 1276.79 1429.84 1269.74 1442.09 1263.49 1454.74 C 1240.07 1502.17 1218.34 1550.45 1195.92 1598.34 C 1190.97 1608.92 1186.02 1619.57 1180.59 1629.9 C 1176.73 1637.22 1172.2 1644.37 1169.01 1652 L 1169.46 1653.3 L 1169.79 1653.42 C 1185.43 1636.44 1201.92 1620.15 1217.16 1602.83 C 1240.55 1576.26 1299.91 1502.94 1308.66 1471.02 C 1311.68 1459.99 1309.58 1446.85 1309.76 1435.49 C 1309.95 1424 1310.86 1412.28 1312.23 1400.87 C 1313.93 1386.78 1316.8 1372.56 1319.42 1358.6 C 1320.47 1353 1322.94 1345.35 1322.63 1339.73 C 1322.57 1338.63 1322.45 1338.59 1322.02 1337.59 z M 1648.37 1602.5 L 1649.17 1602.5 L 1648.37 1602.5 z M 1649.52 1604.5 L 1650.49 1604.5 L 1649.52 1604.5 z M 1651.33 1607.5 L 1652.12 1607.5 L 1651.33 1607.5 z M 375.397 1621.5 L 376.306 1621.5 L 375.397 1621.5 z M 374.352 1623.5 L 375.186 1623.5 L 374.352 1623.5 z M 373.341 1625.5 L 374.153 1625.5 L 373.341 1625.5 z M 348.235 1692.5 L 349.132 1692.5 L 348.235 1692.5 z M 347.331 1694.5 L 348.253 1694.5 L 347.331 1694.5 z M 1702.23 1696.5 L 1703.04 1696.5 L 1702.23 1696.5 z M 1703.33 1698.5 L 1704.23 1698.5 L 1703.33 1698.5 z M 1025.27 1770.66 C 1019.47 1776.36 1013.38 1781.94 1007.97 1788.01 C 1011.43 1787.97 1015.96 1788.47 1019.23 1787.51 C 1025.55 1787.01 1031.92 1786.68 1038.17 1785.66 C 1035.14 1781.41 1030.26 1772.3 1025.27 1770.66 z M 1009.28 1790.32 C 1014.94 1793.42 1017.77 1794.25 1024.19 1793.95 C 1019.15 1792.3 1014.65 1790.29 1009.28 1790.32 z M 1004.77 1793.32 L 1004.03 1794.12 L 1004.61 1794.37 L 1005.33 1793.55 L 1004.77 1793.32 z M 1009.27 1794.5 C 1009.93 1794.53 1010.62 1794.72 1011.25 1794.5 L 1009.27 1794.5 z M 1037.96 1796.42 C 1026.6 1797.08 1004.95 1796.14 995.516 1802.71 C 996.6 1804.62 998.91 1804.77 1000.98 1805.35 C 1010.98 1808.16 1022.96 1807.25 1033.25 1806.71 C 1047.78 1806.08 1062.81 1805.94 1077.2 1803.84 C 1063.85 1795.68 1053.05 1795.11 1037.96 1796.42 z M 1113.14 1865.11 C 1072.98 1886.4 1005.1 1933.89 989.437 1977.24 C 988.978 1978.51 988.896 1979.51 988.788 1980.85 L 989.51 1981.06 C 1008.19 1948.24 1036.52 1922.44 1066.77 1900.4 C 1073.79 1895.28 1110.92 1873.15 1113.53 1869.19 C 1113.95 1868.55 1113.88 1867.7 1114.05 1866.95 L 1113.14 1865.11 z M 961.441 1915.5 L 962.185 1915.5 L 961.441 1915.5 z M 988.088 1995.07 C 995.2 2004.22 1014.03 2007.35 1024.98 2008.67 C 1039.08 2010.37 1052.46 2011.31 1065.74 2005.69 L 1066.35 2004.55 C 1057.24 2002.7 1046.72 2005.53 1037.26 2004.46 C 1026.74 2003.26 994.688 1994.45 988.088 1995.07 z"/>
<path transform="translate(0,0)" fill="rgb(0,0,0)" d="M 1322.01 60.791 L 1325.23 63.1661 L 1322.01 60.791 z"/>
<path transform="translate(0,0)" fill="rgb(0,0,0)" d="M 1342.38 78.3272 L 1342.83 78.7517 L 1342.38 78.3272 z"/>
<path transform="translate(0,0)" fill="rgb(0,0,0)" d="M 1419.23 175.594 L 1418.06 175.22 L 1419.23 175.594 z"/>
<path transform="translate(0,0)" fill="rgb(0,0,0)" d="M 1372.43 180.384 L 1372.82 180.837 L 1372.43 180.384 z"/>
<path transform="translate(0,0)" fill="rgb(0,0,0)" d="M 1270.58 201.771 L 1270.02 201.242 L 1270.58 201.771 z"/>
<path transform="translate(0,0)" fill="rgb(0,0,0)" d="M 560.479 271.726 L 560.857 271.189 L 560.479 271.726 z"/>
<path transform="translate(0,0)" fill="rgb(0,0,0)" d="M 644.226 297.995 L 644.722 297.458 L 644.226 297.995 z"/>
<path transform="translate(0,0)" fill="rgb(0,0,0)" d="M 594.463 315.581 C 594.289 315.349 594.088 315.135 593.942 314.884 C 591.756 311.151 593.88 304.509 594.629 300.497 C 596.628 304.464 594.949 311.204 594.463 315.581 z"/>
<path transform="translate(0,0)" fill="rgb(0,0,0)" d="M 1306.47 302.46 L 1306.93 302.94 L 1306.47 302.46 z"/>
<path transform="translate(0,0)" fill="rgb(0,0,0)" d="M 1286.32 306.399 L 1286.75 306.866 L 1286.32 306.399 z"/>
<path transform="translate(0,0)" fill="rgb(0,0,0)" d="M 1327.68 328.564 L 1327.19 328.035 L 1327.68 328.564 z"/>
<path transform="translate(0,0)" fill="rgb(0,0,0)" d="M 1297.53 338.373 L 1297.92 338.919 L 1297.53 338.373 z"/>
<path transform="translate(0,0)" fill="rgb(0,0,0)" d="M 1411.49 345.5 L 1409.76 345.5 L 1411.49 345.5 z"/>
<path transform="translate(0,0)" fill="rgb(0,0,0)" d="M 1417.72 355.469 L 1417.19 355.099 L 1417.72 355.469 z"/>
<path transform="translate(0,0)" fill="rgb(0,0,0)" d="M 1328.76 357.831 L 1328.14 357.224 L 1328.76 357.831 z"/>
<path transform="translate(0,0)" fill="rgb(0,0,0)" d="M 1328.76 357.831 L 1329.59 358.61 L 1328.76 357.831 z"/>
<path transform="translate(0,0)" fill="rgb(0,0,0)" d="M 1385.88 362.127 L 1385.01 361.227 L 1385.88 362.127 z"/>
<path transform="translate(0,0)" fill="rgb(0,0,0)" d="M 1385.88 362.127 L 1387.41 364.15 L 1385.88 362.127 z"/>
<path transform="translate(0,0)" fill="rgb(0,0,0)" d="M 1156.42 366.408 L 1156.86 366.83 L 1156.42 366.408 z"/>
<path transform="translate(0,0)" fill="rgb(0,0,0)" d="M 1187.75 369.437 L 1187.24 368.005 L 1187.75 369.437 z"/>
<path transform="translate(0,0)" fill="rgb(0,0,0)" d="M 1187.75 369.437 L 1188.63 369.75 L 1187.75 369.437 z"/>
<path transform="translate(0,0)" fill="rgb(0,0,0)" d="M 908.543 385.253 L 908.005 384.059 L 908.543 385.253 z"/>
<path transform="translate(0,0)" fill="rgb(0,0,0)" d="M 600.456 391.248 L 600.784 390.005 L 600.456 391.248 z"/>
<path transform="translate(0,0)" fill="rgb(0,0,0)" d="M 731.216 395.838 L 731.709 395.389 L 731.216 395.838 z"/>
<path transform="translate(0,0)" fill="rgb(0,0,0)" d="M 943.294 402.363 L 943.771 402.922 L 943.294 402.363 z"/>
<path transform="translate(0,0)" fill="rgb(0,0,0)" d="M 695.112 409.932 L 695.565 409.418 L 695.112 409.932 z"/>
<path transform="translate(0,0)" fill="rgb(0,0,0)" d="M 676.73 414.387 L 677.546 412.924 L 676.73 414.387 z"/>
<path transform="translate(0,0)" fill="rgb(0,0,0)" d="M 676.229 414.995 L 676.73 414.387 L 676.229 414.995 z"/>
<path transform="translate(0,0)" fill="rgb(0,0,0)" d="M 1188.36 424.318 L 1188.1 423.205 L 1188.36 424.318 z"/>
<path transform="translate(0,0)" fill="rgb(0,0,0)" d="M 1274.81 432.457 L 1274.24 432.129 L 1274.81 432.457 z"/>
<path transform="translate(0,0)" fill="rgb(0,0,0)" d="M 596.223 439.043 L 596.977 438.141 L 596.223 439.043 z"/>
<path transform="translate(0,0)" fill="rgb(0,0,0)" d="M 1086.38 444.347 L 1086.83 444.78 L 1086.38 444.347 z"/>
<path transform="translate(0,0)" fill="rgb(0,0,0)" d="M 598.268 446.055 L 598.914 445.163 L 598.268 446.055 z"/>
<path transform="translate(0,0)" fill="rgb(0,0,0)" d="M 712.942 446.093 L 713.814 445.005 L 712.942 446.093 z"/>
<path transform="translate(0,0)" fill="rgb(0,0,0)" d="M 719.206 449.387 L 719.73 448.005 L 719.206 449.387 z"/>
<path transform="translate(0,0)" fill="rgb(0,0,0)" d="M 1125.51 448.643 L 1125.09 448.145 L 1125.51 448.643 z"/>
<path transform="translate(0,0)" fill="rgb(0,0,0)" d="M 718.23 449.805 L 719.206 449.387 L 718.23 449.805 z"/>
<path transform="translate(0,0)" fill="rgb(0,0,0)" d="M 723.312 450.077 L 723.91 449.005 L 723.312 450.077 z"/>
<path transform="translate(0,0)" fill="rgb(0,0,0)" d="M 1161.63 450.492 L 1161.01 450.123 L 1161.63 450.492 z"/>
<path transform="translate(0,0)" fill="rgb(0,0,0)" d="M 1158.32 452.752 L 1157.01 452.264 L 1158.32 452.752 z"/>
<path transform="translate(0,0)" fill="rgb(0,0,0)" d="M 1158.32 452.752 L 1159.11 454.613 L 1158.32 452.752 z"/>
<path transform="translate(0,0)" fill="rgb(0,0,0)" d="M 1159.11 454.613 L 1160.31 455.202 L 1159.11 454.613 z"/>
<path transform="translate(0,0)" fill="rgb(0,0,0)" d="M 1160.31 455.202 L 1161.38 456.196 L 1160.31 455.202 z"/>
<path transform="translate(0,0)" fill="rgb(0,0,0)" d="M 1161.38 456.196 L 1163.78 457.839 C 1162.96 457.465 1162.12 456.727 1161.38 456.196 z"/>
<path transform="translate(0,0)" fill="rgb(0,0,0)" d="M 1163.78 457.839 L 1164.45 458.651 L 1163.78 457.839 z"/>
<path transform="translate(0,0)" fill="rgb(0,0,0)" d="M 1093.56 468.219 L 1093.83 468.815 L 1093.56 468.219 z"/>
<path transform="translate(0,0)" fill="rgb(0,0,0)" d="M 1352 923.918 L 1351.01 924.995 L 1352 923.918 L 1353.13 925.63 C 1349.53 931.914 1339.79 937.026 1337.53 941.991 C 1334.63 948.362 1334.62 957.242 1333.15 964.126 C 1332.35 958.124 1332.03 951.573 1329.89 945.892 C 1317.39 941.987 1288 958.381 1272.69 955.006 C 1278.84 952.473 1285.58 951.988 1292.03 950.518 C 1305.76 947.391 1318.99 939.933 1330.58 932.175 C 1319.78 935.72 1309.5 940.441 1298.83 944.278 C 1290.19 947.381 1281.19 949.566 1272.75 953.194 C 1263.67 957.102 1247.41 956.745 1237.55 955.935 C 1241.16 954.041 1257.53 953.652 1263.41 952.421 C 1286.75 947.535 1323.9 926.803 1332.06 903.074 C 1319.48 897.12 1309.29 895.777 1295.53 895.705 C 1292.56 911.584 1285.17 925.92 1271.57 935.339 C 1260.85 942.761 1248.76 945.617 1235.94 942.935 C 1224.08 940.454 1214.18 933.843 1207.58 923.658 C 1203.99 918.11 1202.43 912.795 1201.1 906.431 C 1190.65 912.351 1180.96 919.616 1173.07 928.751 C 1178.93 938.177 1185.95 943.84 1196.93 946.277 C 1202.13 947.432 1208.2 948.431 1213.53 948.207 C 1201.03 950.854 1188.75 946.798 1176.24 946.646 C 1166.21 946.524 1155.88 948.252 1145.81 948.785 C 1150.6 942.88 1153.58 935.603 1158.47 930.019 C 1163.68 924.08 1169.96 918.691 1175.67 913.192 C 1202.46 887.381 1220.95 879.73 1257.92 873.567 C 1276.44 870.543 1295.18 869.112 1313.95 869.289 C 1332.76 869.61 1353.4 872.981 1372.03 870.573 C 1388.32 868.467 1400.53 861.244 1415.7 857.304 C 1417.83 856.75 1418.42 856.298 1420.35 857.528 C 1413.67 871.99 1373.47 889.1 1368.38 899.468 C 1370.45 900.996 1371.73 901.489 1372.76 903.934 L 1371.79 905.81 C 1367.56 905.929 1362.97 905.896 1359.58 908.715 C 1358.75 911.754 1361.7 911.52 1362.96 914.48 C 1360.89 916.071 1357.68 918.057 1356.34 920.32 C 1356.18 920.586 1356.09 920.886 1355.96 921.17 C 1354.84 921.778 1353.9 922.36 1352.9 923.166 C 1352.6 923.411 1352.3 923.667 1352 923.918 z M 1256.09 921.786 L 1251.96 916.811 C 1249.62 917.49 1248.11 919.13 1246.34 920.718 C 1238.08 919.949 1241.09 913.588 1230.5 917.804 C 1225.3 916.786 1222.46 909.636 1216.71 912.94 C 1215.49 913.639 1214.23 914.771 1214.04 916.205 C 1213.52 920.156 1216.37 924.273 1218.82 927.112 C 1225.3 934.598 1234.98 940.287 1245.03 940.605 C 1250.18 940.767 1253.44 939.242 1257.69 936.546 L 1261.2 934.318 C 1264.92 932.193 1270.48 929.729 1273.27 926.556 C 1272.95 924.68 1272.4 923.294 1271.58 921.582 C 1272.02 919.621 1272.66 917.659 1272.56 915.644 L 1272.13 917.086 L 1270.88 916.969 L 1266.16 921.856 C 1268.83 917.788 1272.12 913.763 1272.94 908.884 L 1272.3 906.643 C 1270.39 905.913 1270.97 905.733 1269.18 906.446 C 1266.96 907.333 1264.61 909.224 1263.8 911.586 C 1261.99 916.836 1265.13 922.528 1260.14 926.63 L 1259.34 925.745 L 1259.87 924.396 C 1260.97 921.537 1262.19 919.321 1261.38 916.219 C 1259.88 914.424 1258.99 913.517 1256.79 912.649 C 1255.31 915.079 1256.02 918.904 1256.09 921.786 z M 1236.04 901.211 L 1232.88 902.519 L 1232.77 904.209 C 1238.82 907.268 1245.07 900.029 1251.55 905.258 L 1252.68 905.442 C 1252.83 905.163 1252.97 904.873 1253.14 904.605 C 1254.03 903.218 1255.15 902.513 1256.46 901.572 C 1250 900.06 1242.65 900.905 1236.04 901.211 z M 1260.7 910.5 L 1262.17 910.5 L 1260.7 910.5 z M 1159.29 937.565 C 1161.29 940.097 1162.47 942.686 1165.9 943.283 C 1167.33 943.532 1169.35 943.122 1170.81 942.956 C 1167.21 940.144 1163.9 938.166 1159.29 937.565 z"/>
<path transform="translate(0,0)" fill="rgb(0,0,0)" d="M 968.503 860.31 L 968.954 860.785 L 968.503 860.31 z"/>
<path transform="translate(0,0)" fill="rgb(0,0,0)" d="M 1081.98 901.088 C 1083.44 892.482 1084.49 882.212 1084.54 873.459 C 1085.12 874.471 1085.65 875.333 1085.84 876.509 C 1087.05 884.057 1086.53 894.905 1081.98 901.088 z"/>
<path transform="translate(0,0)" fill="rgb(0,0,0)" d="M 665.561 888.9 L 665.005 888.271 L 665.561 888.9 z"/>
<path transform="translate(0,0)" fill="rgb(0,0,0)" d="M 959.17 896.147 C 958.445 895.451 958.88 895.97 958.329 894.3 L 961.198 890.579 C 962.515 891.728 962.069 890.976 962.295 892.96 L 959.17 896.147 z"/>
<path transform="translate(0,0)" fill="rgb(0,0,0)" d="M 1541.58 897.529 C 1539.94 896.238 1540.28 895.648 1539.92 893.664 L 1541.46 894.379 L 1541.58 897.529 z"/>
<path transform="translate(0,0)" fill="rgb(0,0,0)" d="M 1082.49 894.5 L 1081.62 893.941 L 1082.49 894.5 z"/>
<path transform="translate(0,0)" fill="rgb(0,0,0)" d="M 962.133 946.31 C 961.978 946.282 961.801 946.309 961.667 946.225 C 959.905 945.129 960.084 945.22 959.264 943.472 C 957.804 940.359 956.763 937.519 954.377 934.941 C 942.772 922.401 929.959 910.74 921.825 895.554 C 927.575 898.467 950.815 926.306 956.23 933.474 C 958.793 936.866 962.749 941.903 962.133 946.31 z"/>
<path transform="translate(0,0)" fill="rgb(0,0,0)" d="M 670.505 900.433 L 670.005 900.04 L 670.505 900.433 z"/>
<path transform="translate(0,0)" fill="rgb(0,0,0)" d="M 670.505 900.433 C 676.407 902.959 684.972 906.258 689.531 910.689 C 686.787 911.612 683.928 910.379 681.235 909.655 L 679.143 908.372 C 675.683 908.602 674.297 912.277 670.827 912.125 C 669.663 909.645 669.377 908.157 669.403 905.419 C 671.489 907.221 671.79 907.11 674.575 907.327 L 675.435 906.228 C 672.878 904.346 671.903 903.282 670.505 900.433 z"/>
<path transform="translate(0,0)" fill="rgb(0,0,0)" d="M 673.499 916.247 C 673.525 915.587 673.534 914.7 673.687 914.072 C 674.413 911.105 676.828 910.087 679.143 908.372 L 681.235 909.655 C 683.651 911.485 686.461 913.049 687.891 915.756 C 684.556 914.627 679.91 912.29 676.442 913.314 L 673.499 916.247 z"/>
<path transform="translate(0,0)" fill="rgb(0,0,0)" d="M 673.251 916.995 L 673.499 916.247 L 673.251 916.995 z"/>
<path transform="translate(0,0)" fill="rgb(0,0,0)" d="M 786.561 918.272 L 785.964 917.974 L 786.561 918.272 z"/>
<path transform="translate(0,0)" fill="rgb(0,0,0)" d="M 1256.09 921.786 L 1256.86 923.968 L 1255.31 925.194 C 1254.85 922.987 1254.99 923.483 1256.09 921.786 z"/>
<path transform="translate(0,0)" fill="rgb(0,0,0)" d="M 691.704 923.241 L 690.708 922.914 L 691.704 923.241 z"/>
<path transform="translate(0,0)" fill="rgb(0,0,0)" d="M 720.005 937.005 L 721.235 937.541 C 746.373 952.207 778.214 951.823 806.142 958.833 C 796.984 958.66 787.732 958.381 778.619 957.407 C 771.138 956.607 758.384 953.306 751.393 954.118 C 750.055 954.273 749.847 954.462 748.793 954.978 C 725.203 949.473 710.785 935.243 691.779 921.476 C 708.113 925.698 723.785 927.592 739.781 933.646 C 735.039 933.882 730.264 933.438 725.528 933.164 C 729.616 936.385 741.746 937.275 747.264 939.052 C 755.775 941.794 764.022 945.671 772.212 949.25 C 754.625 946.212 738.409 942.458 721.235 937.541 L 720.005 937.005 z M 718.255 936.5 L 719.49 936.5 L 718.255 936.5 z"/>
<path transform="translate(0,0)" fill="rgb(0,0,0)" d="M 1248.09 927.353 L 1248.07 927.338 L 1248.09 927.353 z"/>
<path transform="translate(0,0)" fill="rgb(0,0,0)" d="M 737.477 928.144 L 737.973 928.748 L 737.477 928.144 z"/>
<path transform="translate(0,0)" fill="rgb(0,0,0)" d="M 1143.49 931.5 L 1142.37 931.5 L 1143.49 931.5 z"/>
<path transform="translate(0,0)" fill="rgb(0,0,0)" d="M 1137.03 937.5 L 1136.15 937.5 L 1137.03 937.5 z"/>
<path transform="translate(0,0)" fill="rgb(0,0,0)" d="M 1213.53 948.207 L 1213.99 947.256 L 1213.53 948.207 z"/>
<path transform="translate(0,0)" fill="rgb(0,0,0)" d="M 748.793 954.978 L 749.078 956.383 L 748.793 954.978 z"/>
<path transform="translate(0,0)" fill="rgb(0,0,0)" d="M 749.078 956.383 L 750.834 956.995 L 749.078 956.383 z"/>
<path transform="translate(0,0)" fill="rgb(0,0,0)" d="M 520.474 976.299 L 520.929 976.806 L 520.474 976.299 z"/>
<path transform="translate(0,0)" fill="rgb(0,0,0)" d="M 595.364 1042.18 C 590.56 1041.35 587.41 1039.43 583.556 1036.51 C 576.666 1031.29 571.859 1025.3 570.765 1016.64 C 576.468 1019.72 581.73 1029.55 586.251 1034.53 C 588.921 1037.48 592.181 1039.83 595.364 1042.18 z"/>
<path transform="translate(0,0)" fill="rgb(0,0,0)" d="M 1045.31 1218.21 C 1051.84 1209.13 1064.82 1194.69 1062.77 1183.01 C 1060.65 1170.95 1057.29 1159.1 1055.17 1147.01 C 1050.14 1118.29 1048.41 1088.02 1049.37 1058.92 C 1049.55 1053.59 1048.81 1044.68 1051.01 1039.92 L 1052.26 1040.52 C 1052.67 1045.46 1052.33 1050.36 1051.49 1055.25 C 1052 1085.79 1052.95 1117.38 1058.43 1147.47 C 1060.93 1161.2 1070.77 1183.66 1068.82 1196.87 C 1067.4 1206.43 1058.93 1215.47 1052.42 1222.18 C 1049.79 1224.87 1047.07 1227.45 1044.26 1229.94 C 1045.79 1226.32 1049.4 1220.4 1049.15 1216.75 C 1047.81 1217.19 1046.59 1217.62 1045.31 1218.21 z"/>
<path transform="translate(0,0)" fill="rgb(0,0,0)" d="M 1112.51 1124.09 L 1112.01 1123.01 L 1112.51 1124.09 z"/>
<path transform="translate(0,0)" fill="rgb(0,0,0)" d="M 1112.51 1124.09 C 1122.05 1139.72 1128.66 1179.51 1123.84 1197.19 C 1118.83 1215.57 1070.35 1265.85 1052.79 1274.77 C 1049.56 1276.41 1046.13 1277.59 1042.53 1276.5 C 1039.21 1275.5 1036.73 1273.11 1034.29 1270.78 C 1036.9 1271.5 1039.93 1272.58 1042.66 1272.44 C 1056.35 1271.71 1075.59 1249.6 1085.03 1240.8 C 1089.58 1236.56 1095.53 1232.37 1099.24 1227.42 C 1100.85 1225.29 1101.99 1223.24 1101.57 1220.57 C 1086.3 1223.32 1071 1242.22 1057.87 1250.18 C 1026.51 1269.19 1010.79 1238.71 985.392 1232.84 L 985.005 1232.01 L 985.392 1232.84 C 984.366 1233.34 984.706 1233.36 983.418 1233.04 C 977.347 1231.51 971.044 1226.63 967.86 1221.26 C 968.017 1221 968.146 1220.71 968.331 1220.46 C 969.717 1218.59 972.289 1217.22 974.606 1216.98 C 987.594 1215.59 999.112 1233.21 1008.51 1239.98 C 1039.57 1262.36 1053.71 1220.39 1074.4 1211.31 C 1084.01 1207.09 1092.54 1214.34 1101.86 1212.62 C 1106.46 1211.77 1109.71 1209.23 1112.17 1205.3 C 1125.99 1183.32 1118.02 1147.42 1112.51 1124.09 z M 983.293 1231.5 L 984.49 1231.5 L 983.293 1231.5 z"/>
<path transform="translate(0,0)" fill="rgb(0,0,0)" d="M 963.947 1222.34 C 959.138 1220.76 956.923 1217.43 953.898 1213.66 C 957.987 1215.67 960.823 1219.1 963.947 1222.34 z"/>
<path transform="translate(0,0)" fill="rgb(0,0,0)" d="M 1045.07 1218.97 L 1045.31 1218.21 L 1045.07 1218.97 z"/>
<path transform="translate(0,0)" fill="rgb(0,0,0)" d="M 1034.29 1270.78 L 1034.01 1270.01 L 1034.29 1270.78 z"/>
<path transform="translate(0,0)" fill="rgb(0,0,0)" d="M 1053.75 1308.22 C 1053.01 1308.68 1052.26 1309.13 1051.52 1309.57 C 1043.57 1314.32 1035.26 1317.49 1025.94 1314.83 C 1018.8 1312.8 1013.44 1307.83 1009.75 1301.54 C 1014.55 1303.9 1018.47 1307.85 1023.14 1310.51 C 1033.97 1316.69 1041.98 1309.92 1052.51 1307.18 L 1053.75 1308.22 z"/>
<path transform="translate(0,0)" fill="rgb(0,0,0)" d="M 1009.54 1319.71 C 1015.99 1321.47 1022.68 1325.4 1029.26 1326.1 C 1045.89 1327.89 1058.2 1312.94 1074.49 1313.55 C 1100.84 1314.54 1124.3 1334.48 1149 1334.59 C 1158.2 1334.64 1167.9 1324.31 1176.34 1331.6 C 1177.15 1334.12 1177.46 1334.83 1176.36 1337.42 C 1174.52 1341.74 1168.18 1345.39 1163.84 1346.45 C 1153.88 1348.9 1142.75 1349.46 1132.55 1350.95 L 1131.31 1350.11 C 1132.89 1348.19 1134.37 1347.25 1136.45 1345.95 C 1134.66 1344.75 1118.45 1346.89 1115.48 1347.52 C 1115.08 1347.6 1114.71 1347.8 1114.33 1347.94 C 1114.64 1349.53 1114.37 1350.88 1115.9 1351.75 C 1119.78 1353.96 1126.62 1351.87 1129.06 1355.35 C 1127.22 1360.36 1120.18 1369.63 1115.28 1371.83 C 1113.07 1372.83 1112.33 1372.55 1110.05 1372.07 C 1108.41 1370.45 1107.24 1369.4 1106.52 1367.17 C 1107.28 1365.02 1108.67 1364.16 1110.39 1362.77 L 1110.29 1361.25 L 1108.22 1360.1 L 1106.61 1360.6 C 1105.19 1361.03 1103.93 1361.35 1102.48 1361.57 C 1100.96 1360.63 1099.95 1359.87 1098.69 1358.59 C 1097.1 1356.97 1095.83 1356.43 1093.79 1355.49 C 1077.99 1355.12 1070.74 1361.17 1056.8 1363 C 1041.36 1365.03 1025.81 1362.93 1010.47 1366.1 C 1007.81 1362.24 1000.48 1360.53 995.725 1359.97 C 994.221 1359.8 993.925 1359.89 992.61 1360.03 C 991.528 1361.17 990.862 1362.01 990.027 1363.37 C 988.769 1360.45 987.772 1356.62 985.251 1354.71 C 983.92 1356.13 983.198 1357.42 982.358 1359.16 C 982.134 1358.64 981.916 1358.12 981.687 1357.6 C 980.408 1354.72 980.2 1354.13 977.433 1352.78 C 976.315 1353.72 975.299 1354.68 974.286 1355.73 L 972.586 1355.09 L 971.428 1351.38 L 970.005 1351.38 L 968.43 1354.25 C 966.396 1352.89 967.247 1351.07 965.083 1350.46 L 964.554 1351.66 C 963.817 1353.31 964.15 1352.67 963.27 1354.11 L 961.571 1350.23 L 960.48 1350.27 L 958.462 1354.87 L 957.31 1350.45 L 956.703 1351.28 C 955.991 1352.23 955.245 1353.12 954.464 1354.02 L 952.814 1353.46 L 953.332 1349.73 L 951.446 1349.46 L 950.128 1350.67 C 948.249 1352.37 949.03 1351.73 947 1353.18 L 946.165 1352.46 L 946.298 1349.56 C 941.61 1348.06 937.436 1352.79 933.738 1351.14 C 932.923 1349.21 933.026 1348.72 931.235 1347.48 L 930.743 1348.41 C 929.98 1349.83 930.287 1349.29 929.324 1350.75 L 927.524 1350.3 L 926.35 1347.58 C 924.181 1349.13 922.369 1351.08 919.467 1350.67 C 918.71 1350.56 917.675 1349.98 916.983 1349.63 C 916.442 1351.32 916.474 1351.56 916.791 1353.2 C 914.415 1352.33 914.396 1350.84 912.477 1349.78 C 908.614 1347.65 898.131 1355.28 894.269 1347.32 C 893.065 1344.84 893.037 1340.96 893.887 1338.37 C 894.368 1336.9 895.788 1336.36 897.149 1335.84 C 902.381 1333.84 911.462 1335.03 917.509 1333.89 C 933.824 1330.79 987.94 1312.61 1000.59 1319.76 C 1000.83 1319.89 1001.02 1320.08 1001.24 1320.24 C 999.773 1322.32 998.982 1323.06 996.61 1324.02 C 994.957 1323.51 993.599 1322.98 992.035 1322.23 C 988.28 1320.44 982.592 1321.67 978.726 1322.72 L 978.774 1323.65 C 981.486 1323.6 984.572 1322.97 986.96 1324.28 L 986.81 1325.8 C 986.447 1329.79 985.694 1333.55 988.703 1336.78 C 996.176 1344.8 1017.92 1344.48 1028.46 1347.91 C 1037.58 1350.89 1051.82 1345.11 1060.08 1340.85 C 1065.41 1338.1 1069.35 1334.7 1073.52 1330.49 C 1056.59 1330.57 1023.43 1332.85 1010.38 1320.65 C 1010.07 1320.37 1009.82 1320.03 1009.54 1319.71 z M 1047.86 1323.94 L 1042.28 1326.57 L 1042.02 1327.68 L 1044.63 1328.42 C 1046.8 1327.39 1049.04 1326.97 1050.08 1324.74 L 1047.86 1323.94 z"/>
<path transform="translate(0,0)" fill="rgb(0,0,0)" d="M 1009.54 1319.71 L 1009 1319.27 L 1009.54 1319.71 z"/>
<path transform="translate(0,0)" fill="rgb(0,0,0)" d="M 1001.49 1364.5 L 1000.29 1364.5 L 1001.49 1364.5 z"/>
<path transform="translate(0,0)" fill="rgb(0,0,0)" d="M 1030.01 1371.62 L 1028.63 1372.24 C 1027.24 1369.95 1026.04 1367.6 1024.85 1365.2 C 1026.76 1366.2 1028.08 1366.78 1029.46 1368.49 C 1030.55 1369.82 1030.17 1370.05 1030.01 1371.62 z"/>
<path transform="translate(0,0)" fill="rgb(0,0,0)" d="M 1038.09 1377.57 C 1034.94 1376.39 1032.77 1371.98 1030.66 1369.37 L 1034.41 1370.03 C 1037.02 1372.45 1037.11 1374.2 1038.09 1377.57 z"/>
<path transform="translate(0,0)" fill="rgb(0,0,0)" d="M 1046.49 1370.5 L 1045.29 1370.5 L 1046.49 1370.5 z"/>
<path transform="translate(0,0)" fill="rgb(0,0,0)" d="M 949.592 1393.75 L 951.441 1394.38 C 960.807 1397.61 969.539 1402.8 978.989 1405.78 C 1017.41 1417.74 1058.91 1414.84 1095.29 1397.65 C 1099.77 1395.52 1107.17 1389.12 1111.45 1389.13 C 1111.11 1389.99 1110.84 1390.95 1110.34 1391.73 C 1085.07 1412.62 1052.53 1422.62 1019.88 1419.51 C 1004.04 1417.92 961.181 1406.65 950.675 1395.22 C 950.263 1394.77 949.953 1394.24 949.592 1393.75 z"/>
<path transform="translate(0,0)" fill="rgb(0,0,0)" d="M 948.73 1393.41 L 948.236 1392.01 L 948.73 1393.41 z"/>
<path transform="translate(0,0)" fill="rgb(0,0,0)" d="M 948.73 1393.41 L 949.592 1393.75 L 948.73 1393.41 z"/>
<path transform="translate(0,0)" fill="rgb(0,0,0)" d="M 967.685 1413.64 C 1008.82 1426.21 1051.96 1431.38 1091.51 1410.51 C 1100.65 1405.69 1108.9 1399.26 1118.02 1394.56 L 1110.59 1403.04 C 1091.59 1423.32 1068.28 1438.18 1039.66 1439.04 C 1019.66 1439.64 983.332 1428.38 968.719 1414.79 C 968.341 1414.44 968.029 1414.02 967.685 1413.64 z"/>
<path transform="translate(0,0)" fill="rgb(0,0,0)" d="M 967 1413 L 965.206 1412.01 L 967 1413 z"/>
<path transform="translate(0,0)" fill="rgb(0,0,0)" d="M 967 1413 L 967.685 1413.64 L 967 1413 z"/>
<path transform="translate(0,0)" fill="rgb(0,0,0)" d="M 704.441 1833.83 L 705.219 1835.43 L 704.441 1833.83 z"/>
<path transform="translate(0,0)" fill="rgb(0,0,0)" d="M 705.219 1835.43 L 705.754 1835.99 L 705.219 1835.43 z"/>
<path transform="translate(0,0)" fill="rgb(0,0,0)" d="M 1359.65 1840.35 L 1360.62 1838.79 L 1359.65 1840.35 z"/>
<path transform="translate(0,0)" fill="rgb(0,0,0)" d="M 1359.19 1840.97 L 1359.65 1840.35 L 1359.19 1840.97 z"/>
<path transform="translate(0,0)" fill="rgb(0,0,0)" d="M 1361.04 1863.5 L 1360.37 1863.5 L 1361.04 1863.5 z"/>
<path transform="translate(0,0)" fill="rgb(0,0,0)" d="M 1359.37 1866.1 L 1359.87 1865.01 L 1359.37 1866.1 z"/>
<path transform="translate(0,0)" fill="rgb(0,0,0)" d="M 1234.11 2048 C 1264.61 2012.34 1294.14 1973.84 1319 1934.01 C 1332.85 1911.82 1344.08 1887.29 1359.37 1866.1 C 1355.62 1877 1350.07 1887.62 1345.23 1898.09 C 1329.4 1932.31 1311.89 1966.48 1291.73 1998.36 C 1281.14 2015.1 1268.84 2030.74 1259.09 2048 L 1234.11 2048 z"/>
<path transform="translate(0,0)" fill="rgb(0,0,0)" d="M 752.929 1897.07 L 752.221 1896.07 L 752.929 1897.07 z"/>
<path transform="translate(0,0)" fill="rgb(0,0,0)" d="M 752.929 1897.07 L 754.329 1899.43 L 752.929 1897.07 z"/>
<path transform="translate(0,0)" fill="rgb(0,0,0)" d="M 754.329 1899.43 L 755.126 1900.35 L 754.329 1899.43 z"/>
<path transform="translate(0,0)" fill="rgb(0,0,0)" d="M 755.126 1900.35 L 755.665 1901.36 L 755.126 1900.35 z"/>
<path transform="translate(0,0)" fill="rgb(0,0,0)" d="M 755.665 1901.36 C 767.413 1913.47 776.747 1930.98 786.22 1944.96 L 855.071 2048 L 835.304 2048 C 819.145 2015.75 802.25 1983.88 784.63 1952.4 C 775.182 1935.69 763.12 1919.02 755.665 1901.36 z"/>
<path transform="translate(0,0)" fill="rgb(0,0,0)" d="M 1290.34 1911.61 L 1290.8 1911.01 L 1290.34 1911.61 z"/>
<path transform="translate(0,0)" fill="rgb(0,0,0)" d="M 1187.52 2048 C 1210.04 2021.4 1231.34 1993.78 1251.35 1965.25 C 1262.84 1949.01 1276.72 1925.45 1290.34 1911.61 C 1283.33 1927.31 1273.52 1942.05 1265.14 1957.06 C 1247.98 1987.81 1231.79 2018.46 1212.47 2048 L 1187.52 2048 z"/>
</svg>