<svg version="1.1" xmlns="http://www.w3.org/2000/svg" style="display: block;" viewBox="0 0 2048 2048" width="1024" height="1024">
<path transform="translate(0,0)" fill="rgb(255,255,255)" d="M 0 0 L 0 2048 L 2048 2048 L 2048 0 L 0 0 z"/>
<path transform="translate(0,0)" fill="rgb(0,0,0)" d="M 565.336 1383.58 C 541.131 1411.49 487.091 1524.46 489.837 1559.83 C 492.267 1591.13 506.603 1624.47 517.961 1653.42 C 561.618 1764.71 611.435 1851.19 683.412 1946.33 C 710.468 1982.1 739.536 2018.33 773.343 2048 L 742.53 2048 C 730.67 2038.38 719.872 2026.71 708.912 2016.04 C 630.672 1939.89 584.852 1862.39 534.186 1766.89 C 513.322 1727.56 492.195 1686.67 476.888 1644.8 C 470.197 1626.51 461.511 1606.16 458.772 1586.95 C 453.482 1549.84 480.855 1495.8 496.264 1462.67 L 496.951 1461.97 L 497.782 1461.01 L 496.951 1461.97 L 496.264 1462.67 C 480.457 1478.91 430.609 1553.2 421.078 1575.64 C 423.679 1607.86 433.785 1640.61 443.79 1671.19 C 474.448 1764.89 511.777 1834.41 570.186 1913.32 C 579.066 1925.32 588.733 1936.73 597.803 1948.58 C 614.54 1970.45 632.053 1991.07 650.285 2011.71 C 661.241 2024.11 672.166 2037.12 684.671 2048 L 14.8727 2048 C 36.7205 1958.24 61.1838 1868.52 98.7358 1783.86 C 105.746 1768.06 114.072 1752.64 121.881 1737.21 C 127.53 1726.05 136.482 1702.86 147.033 1696.22 C 153.038 1692.44 159.384 1691.21 165.319 1686.72 C 218.213 1646.65 291.382 1609.72 351.541 1581.21 C 374.262 1570.44 400.635 1559.94 422.464 1548.17 C 432.444 1532.48 442.155 1516.47 452.809 1501.24 C 486.434 1453.17 525.17 1408.34 564.207 1364.64 C 587.624 1338.42 611.098 1311.75 637.823 1288.82 C 657.733 1271.73 678.145 1254.75 699.457 1239.43 C 714.099 1228.9 731.722 1219.28 744.81 1207.01 C 734.086 1193.64 722.365 1181.15 712.168 1167.36 C 686.722 1132.94 668.993 1095.97 650.804 1057.5 C 639.171 1054.89 629.023 1050.59 619.296 1043.62 C 593.669 1025.27 563.334 981.649 546.105 954.605 C 541.192 946.893 521.736 914.189 523.76 905.184 C 524.002 904.11 524.498 903.398 525.032 902.488 C 527.033 902.264 526.257 902.01 527.966 903.268 C 535.77 909.009 542.912 927.109 548.149 935.929 C 566.328 966.54 600.383 1014.5 628.506 1035.75 C 633.6 1039.6 639.177 1042.31 644.975 1044.92 C 641.262 1033.18 637.795 1020.47 631.61 1009.77 C 612.628 1000.26 593.794 982.025 587.03 961.486 C 583.754 951.537 583.97 942.01 584.827 931.723 C 574.757 918.207 564.829 904.729 555.929 890.4 L 554.479 903.104 L 553.936 902.92 C 553.351 896.301 554.116 882.44 550.605 877.168 C 549.444 882.031 551.518 887.042 551.691 891.996 C 551.989 900.5 550.545 910.116 548.662 918.402 C 545.157 906.924 536.71 885.125 541.687 873.516 L 542.575 876.901 C 544.638 875.032 545.06 869.243 545.684 866.392 C 540.657 856.427 535.472 846.542 530.132 836.742 C 530.73 851.542 530.456 870.754 524.249 884.538 C 520.047 893.87 517.702 894.342 515.487 905.521 C 515.045 907.75 515.303 906.927 513.963 908.939 C 512.141 908.126 511.688 907.982 511.038 905.916 C 509.652 901.514 510.211 895.149 510.043 890.52 C 509.551 876.942 507.756 865.486 502.47 852.891 C 494.026 832.769 477.642 819.645 465.334 802.158 C 450.7 781.283 438.851 758.588 430.084 734.649 C 426.078 723.68 423.079 712.37 419.221 701.343 C 397.028 733.469 363.045 755.53 324.668 762.724 C 319.286 763.703 313.948 764.368 308.497 764.783 C 318.847 760.114 329.97 756.757 339.696 750.862 C 368.117 733.635 388.266 697.269 399.697 667.174 C 402.149 660.719 404.457 653.99 405.336 647.11 C 406.693 636.5 405.443 625.269 405 614.616 C 404.394 600.011 404.114 585.516 405.105 570.912 C 406.516 550.118 411.582 530.118 413.932 509.521 C 393.691 530.904 380.271 581.724 380.866 610.75 C 381.165 625.332 385.865 637.714 393.061 650.2 C 372.015 630.686 365.015 608.181 364.012 579.834 C 360.404 477.886 436.668 330.348 505.735 256.867 C 520.009 241.681 535.912 229.064 552.008 215.953 C 560.938 208.679 570.679 201.292 578.464 192.784 C 528.191 193.467 494.637 190.256 451.825 160.839 C 442.781 154.625 433.363 148.248 425.474 140.613 C 424.176 139.357 423.025 138.65 422.635 136.815 C 426.961 138.101 431.227 142.774 435.121 145.223 C 439.177 147.774 443.738 149.639 448.096 151.606 C 475.27 163.874 507.615 178.29 538.105 173.318 C 550.541 171.29 562.728 166.899 574.966 163.889 C 591.545 159.811 611.366 158.569 626.416 150.479 C 637.532 144.505 647.807 136.68 658.463 129.919 C 675.758 119.151 693.214 108.641 710.823 98.3937 C 794.766 49.9653 864.437 17.9903 962.59 13.9429 C 1004.97 11.9499 1047.4 16.9887 1088.14 28.8548 C 1122.01 38.8139 1151.7 52.8275 1179.67 74.6685 C 1207.94 62.8229 1237.4 60.1933 1266.19 72.0598 C 1278.79 77.252 1293.37 84.8468 1303.44 94.0903 C 1308.67 98.8971 1313.9 105.441 1319.92 109.134 C 1338.64 120.632 1357.88 130.755 1376.19 143.045 C 1440.8 186.417 1487.63 243.283 1529.33 308.318 C 1544.99 332.732 1562.52 357.37 1573.58 384.291 C 1594.07 434.137 1602.14 492.553 1605.48 546.028 C 1608.14 588.409 1599.12 636.527 1618.19 675.848 C 1624.66 689.177 1636.81 695.926 1646.55 706.279 C 1620.4 697.488 1606.68 681.28 1588.51 661.639 C 1584.77 697.947 1578.16 732.896 1564.26 766.829 C 1558.7 780.404 1548.83 793.643 1545.35 807.798 C 1543.36 815.916 1546.13 826.325 1546.6 834.58 C 1548.08 860.484 1538.82 889.018 1526.95 911.691 C 1519.32 926.246 1509.36 940.56 1498.19 952.62 C 1489.76 961.72 1479.73 969.2 1470.62 977.591 C 1442.36 1003.62 1401.66 1044.33 1393.41 1082.37 C 1390.51 1095.71 1391.33 1108.29 1392.56 1121.76 C 1383.87 1109.91 1379.1 1098.9 1375.46 1084.72 C 1360.37 1102.13 1345.81 1123.81 1336.72 1144.94 L 1336.28 1145.99 C 1379.12 1159.5 1447.87 1184.26 1480.86 1215.2 C 1490 1223.76 1497.55 1234.33 1506.06 1243.57 C 1524.95 1264.07 1544.23 1283.85 1564.56 1302.91 C 1581.47 1318.76 1622.34 1350.85 1631.67 1369.12 C 1633.32 1372.35 1634.79 1375.67 1636.26 1378.98 C 1652.97 1387 1685.14 1412.46 1690.95 1430.65 C 1694.91 1443.06 1689.53 1458.21 1688.54 1470.82 C 1704.7 1479.85 1721.66 1487.46 1738.21 1495.72 C 1798.59 1525.85 1859.6 1553.38 1916.36 1590.18 C 1928.2 1597.86 1942.15 1605.42 1951.84 1615.82 C 1974.66 1640.31 1997.5 1693.36 2006.7 1725.83 C 2021.85 1779.35 2029.88 1821.5 2036.81 1876.49 C 2038.66 1891.14 2040.49 1905.86 2041.74 1920.58 C 2042.89 1934.06 2042 1948.74 2046.29 1961.62 C 2022.05 1993.09 1926.81 2025.47 1887.88 2035.43 C 1868.07 2040.51 1847.41 2042.52 1827.77 2048 L 1267.65 2048 C 1294.3 2015.71 1328.15 1978.66 1358.63 1949.97 C 1402.7 1908.49 1450.05 1870.53 1492.39 1827.21 C 1530.74 1787.95 1565.56 1742 1595.73 1696.13 C 1609.88 1674.62 1624.98 1652.07 1635.29 1628.38 C 1647.91 1599.35 1686.22 1460.58 1680.31 1435.3 C 1676.29 1418.15 1650.95 1400.9 1636.41 1391.83 C 1637.66 1402.92 1638.9 1413.83 1637.97 1425 C 1634.51 1467.03 1609.74 1525.92 1589.18 1562.72 C 1575.02 1588.08 1561.12 1614.59 1544.86 1638.65 C 1515.88 1681.52 1481.57 1719.15 1445.9 1756.4 C 1419.85 1783.63 1393.09 1810.15 1365.64 1835.96 C 1346.78 1853.38 1327.79 1870.68 1308.69 1887.84 C 1296.25 1899 1283 1909.84 1271.64 1922.11 C 1250.52 1944.9 1233.09 1971.4 1215.15 1996.7 C 1203.12 2013.67 1190.46 2029.91 1180.08 2048 L 1140.98 2048 C 1179.21 1996.92 1210.76 1939.62 1254.53 1892.96 C 1289.2 1855.99 1328.49 1824.15 1365.94 1790.16 C 1423.65 1737.79 1477.8 1678.99 1520.83 1613.82 C 1554.73 1562.49 1594.56 1486.32 1605.66 1425.54 C 1609.77 1403 1610.11 1376.36 1605.52 1353.9 L 1576.31 1328.07 C 1580.94 1347.9 1580.62 1368.33 1579.9 1388.53 C 1579.25 1406.73 1579.05 1425.01 1574.93 1442.83 C 1548.22 1558.37 1416.81 1697.06 1333.74 1780.84 C 1302.81 1812.04 1270.01 1841.69 1240.96 1874.7 C 1194.59 1927.4 1157.35 1986.74 1123.49 2048 L 1112.87 2048 C 1128.39 2012.68 1147.05 1978.35 1163.58 1943.44 C 1184.2 1899.89 1202.81 1855.12 1220.81 1810.43 C 1227.74 1793.23 1237.04 1776.41 1242.45 1758.67 L 1242.82 1758.11 L 1242.45 1758.67 C 1222.64 1772.84 1201.41 1784.05 1180.84 1796.98 C 1166.61 1805.98 1152.33 1814.89 1138.01 1823.72 C 1130.99 1828.06 1123.64 1833.58 1116.03 1836.74 C 1128.72 1822.66 1147.66 1811.95 1163.05 1800.86 L 1228.13 1753.13 C 1238.04 1745.79 1250.29 1738.24 1258.11 1728.61 C 1263.33 1722.17 1266.57 1712.9 1270.01 1705.36 C 1243.3 1725.05 1216.77 1744.98 1190.42 1765.13 C 1177.65 1774.83 1164.12 1783.91 1151.99 1794.38 C 1164.41 1779.11 1180.35 1766.44 1195.38 1753.82 C 1216.6 1736 1238.22 1718.7 1259.1 1700.49 C 1266.16 1694.33 1275.51 1688.95 1280.67 1681.16 C 1291.36 1665.02 1301.2 1632.92 1309.14 1613.99 C 1318.93 1590.67 1332.67 1566.89 1339.33 1542.57 L 1339.86 1542.01 L 1339.33 1542.57 C 1317.6 1571.03 1298.38 1601.45 1274.91 1628.62 C 1257.72 1648.52 1238.86 1667.16 1220.56 1686.06 C 1157.36 1751.3 1090.25 1812.75 1023.39 1874.21 C 1010.59 1885.97 996.598 1896.58 984.008 1908.5 C 983.206 1938.06 982.067 1967.62 980.591 1997.16 C 979.819 2014.01 979.729 2031.24 977.922 2048 L 958.921 2048 C 959.607 2022.82 962.027 1997.46 963.59 1972.3 C 965.068 1948.5 965.53 1924.38 968.589 1900.73 C 962.587 1893.04 955.2 1885.86 948.674 1878.57 C 939.441 1868.17 930.458 1857.55 921.734 1846.72 C 848.605 1757.72 792.63 1679.12 754.963 1568.33 C 742.829 1532.63 736.634 1495.64 725.681 1459.71 C 718.26 1488.11 715.224 1518.36 713.621 1547.61 C 712.473 1568.57 710.07 1634.52 715.374 1653.1 C 718.331 1663.46 727.476 1673.4 734.044 1681.8 C 753.381 1706.83 774.376 1730.54 796.887 1752.76 C 809.562 1765.4 823.749 1777.08 835.57 1790.48 L 836.631 1791.69 C 808.223 1773.04 780.126 1754.34 755.145 1731.13 C 747.315 1723.85 725.242 1696.57 718.626 1693.38 C 721 1708.77 755.437 1743.96 766.941 1756.01 C 772.408 1761.74 779.437 1767.46 783.7 1774.11 C 775.403 1771.02 742.858 1735.66 735.678 1726.8 C 729.622 1719.34 724.288 1711.56 719.35 1703.32 C 724.777 1734.24 727.566 1765.72 732.594 1796.73 C 737.726 1828.37 745.409 1859.99 751.688 1891.45 C 763.414 1950.21 771.111 1995.11 802.123 2048 L 787.775 2048 C 760.353 2014.21 731.932 1981.24 705.386 1946.73 C 649.625 1874.25 599.667 1795.64 561.818 1712.32 C 555.22 1697.8 548.403 1683.33 542.902 1668.34 C 532.834 1640.91 511.884 1574.85 511.242 1546.64 C 510.412 1510.14 531.756 1453.06 547.06 1419.35 C 552.472 1407.43 559.512 1396.38 564.922 1384.51 L 565.336 1383.58 L 565.842 1383.01 L 565.336 1383.58 z M 938.579 231.725 L 937.656 233.397 L 935 235 L 933.584 236.307 L 931.433 237.373 L 930.816 238.205 L 929.546 239.161 L 927.409 240.419 L 927.09 240.832 C 888.685 260.89 834.903 328.106 812.622 364.996 C 815.515 350.767 818.87 337.83 825.473 324.83 C 829.173 317.544 834.918 309.237 837.234 301.505 L 837.811 301.005 L 837.234 301.505 C 827.088 312.485 818.944 327.835 810.661 340.38 C 763.078 412.442 721.244 492.788 703.216 577.89 C 711.312 556.095 718.676 533.954 728.25 512.741 C 747.815 469.393 782.102 416.995 819.374 387.424 C 804.398 424.722 791.808 462.247 782.459 501.371 C 779.639 513.175 776.173 525.76 775.879 537.916 C 788.342 488.576 804.798 442.306 825.831 395.927 C 833.622 378.75 850.304 351.118 855.304 334.616 L 855.795 334.005 L 855.304 334.616 C 842.985 346.657 833.391 363.515 824.279 378.029 C 837.753 334.348 863.766 297.229 897.337 266.672 C 906.387 258.434 917.517 251.267 925.746 242.324 C 926.199 241.831 926.642 241.329 927.09 240.832 L 927.409 240.419 L 929.546 239.161 L 930.816 238.205 L 931.433 237.373 L 933.584 236.307 L 935 235 C 935.985 234.608 936.781 233.989 937.656 233.397 L 938.579 231.725 L 939.995 231.242 L 938.579 231.725 z M 638.337 251.437 L 636.491 252.205 L 635.816 253.298 L 634.695 254.264 L 634.268 254.816 C 620.184 266.874 606.833 289.211 596.461 304.712 C 542.678 385.087 501.73 473.749 494.052 571.027 C 491.945 597.72 490.816 652.732 496.288 677.552 C 497.413 662.169 495.703 646.491 496.217 631.02 C 497.461 588.014 503.467 545.278 514.124 503.595 C 518.157 488.902 532.036 445.834 545.32 437.925 C 545.664 437.72 546.047 437.591 546.411 437.424 L 548.14 438.195 C 551.866 448.518 541.563 483.367 540.042 496.238 C 546.07 483.893 550.994 471.077 557.408 458.909 C 564.008 446.388 572.199 434.719 578.625 422.137 C 593.72 392.578 606.94 364.226 625.976 336.787 C 617.545 345.163 565.981 407.917 564.423 408.705 C 559.15 397.907 566.847 369.776 570.622 358.91 C 580.332 330.963 599.486 303.242 616.605 279.237 C 622.105 271.524 630.252 263.252 634.268 254.816 L 634.695 254.264 L 635.816 253.298 L 636.491 252.205 L 638.337 251.437 L 638.815 250.005 L 638.337 251.437 z M 1353.01 319.238 L 1353.43 319.785 C 1362.2 333.203 1373.96 344.702 1383.16 357.922 C 1412.06 400.244 1434.93 446.379 1451.12 495.002 C 1455.53 508.507 1459.97 522.424 1463.03 536.293 C 1465.67 548.295 1465.2 563.19 1470.34 574.308 C 1468.85 563.702 1468.2 553.026 1466.56 542.44 C 1460.63 504.024 1451.23 462.384 1436.68 426.3 C 1451.82 443.898 1469.29 486.314 1474.98 508.315 C 1475.01 494.455 1472.86 480.777 1473.22 466.842 C 1475.46 472.426 1478 477.918 1480.42 483.423 C 1483.35 469.432 1483.46 455.051 1485.34 440.895 C 1515.7 479.097 1532.67 529.497 1541.85 577.041 C 1544.34 589.967 1546.03 610.909 1549.43 622.206 C 1549.53 621.102 1549.67 619.999 1549.69 618.89 C 1549.96 606.408 1547.74 592.81 1546.19 580.395 C 1536.46 502.338 1505.1 438.576 1463.68 372.72 C 1454.9 358.769 1446.65 342.156 1435.37 330.102 L 1434.16 328.198 L 1433.42 327.591 L 1431.95 325.061 L 1431.02 324.005 L 1431.95 325.061 L 1433.42 327.591 L 1434.16 328.198 C 1434.4 328.634 1434.93 329.914 1435.37 330.102 C 1439.49 340.154 1446.74 349.276 1451.44 359.18 C 1459.38 375.93 1464.72 394.137 1470.54 411.708 C 1463.44 405.578 1457.87 398.32 1452.08 391.005 C 1455.6 401.85 1457.56 411.378 1458.11 422.765 C 1457.97 422.53 1457.84 422.293 1457.7 422.06 L 1456.98 420.899 C 1439.78 392.595 1382.92 335.163 1353.43 319.785 L 1353.01 319.238 z M 1484.14 319.005 L 1484.55 320.539 L 1486.47 322.438 L 1487.09 323.325 L 1488.38 325.698 L 1488.75 326.463 C 1492.44 338.439 1502.46 352.268 1508.15 363.93 C 1519.51 387.194 1529.27 411.614 1537.99 435.982 C 1545.55 456.765 1551.62 478.059 1556.16 499.702 C 1558.34 510.578 1558.06 523.024 1561.84 533.372 C 1561.87 532.676 1561.9 531.98 1561.88 531.284 C 1560.34 473.491 1533.84 404.909 1506.44 354.624 C 1501.6 345.742 1495.97 333.511 1488.75 326.463 L 1488.38 325.698 L 1487.09 323.325 L 1486.47 322.438 L 1484.55 320.539 L 1484.14 319.005 z M 1093.37 370.203 L 1092.96 370.961 C 1083.39 388.949 1077.22 407.546 1065.89 424.838 C 1055.9 440.072 1044.46 454.605 1033.69 469.306 C 1020.39 487.452 1007.47 505.942 994.038 523.979 C 987.322 532.998 978.737 541.081 972.812 550.595 L 972.248 550.995 L 972.812 550.595 C 973.059 550.439 973.312 550.293 973.552 550.128 C 979.86 545.801 985.903 539.643 991.582 534.471 C 1032.86 496.944 1064.68 450.194 1084.45 398.032 C 1087.78 389.039 1091.46 379.606 1093.37 370.203 L 1093.84 369.005 L 1093.37 370.203 z M 614.488 383.126 C 604.585 392.206 596.95 404.413 589.804 415.751 C 552.275 475.298 534.135 547.22 531.078 617.023 C 530.672 626.287 530.262 635.854 531.425 645.059 C 538.779 555.062 557.792 501.968 595.674 420.363 C 601.528 407.751 608.703 395.741 614.488 383.126 L 614.995 382.23 L 614.488 383.126 z M 1485.19 386.005 L 1485.61 387.499 L 1486.81 388.701 C 1489.62 399.79 1500.74 417.032 1505.8 428.898 C 1510.93 440.938 1524.15 481.135 1529.34 489.019 C 1526 467.613 1501.33 403.828 1486.81 388.701 L 1485.61 387.499 L 1485.19 386.005 z M 1287.21 394.005 L 1287.67 395.476 L 1289.37 396.379 L 1290.37 398.08 C 1294.92 408.641 1303.12 419.346 1309.05 429.366 C 1320.02 447.714 1329.56 466.875 1337.59 486.68 C 1346.03 507.707 1352.18 529.62 1358.55 551.336 C 1364.31 570.968 1370.42 590.624 1374.89 610.598 C 1378.61 627.213 1379.78 645.379 1384.49 661.562 C 1384.56 661.827 1384.65 662.089 1384.73 662.353 C 1384.74 662.093 1384.76 661.833 1384.76 661.572 C 1384.97 645.985 1381.98 629.274 1380.05 613.788 C 1370.93 540.889 1355.59 494.621 1315.13 432.61 C 1307.6 421.062 1300.11 407.829 1290.37 398.08 L 1289.37 396.379 L 1287.67 395.476 L 1287.21 394.005 z M 1323.08 402.005 L 1323.56 402.576 C 1325.22 409.453 1329.5 416.857 1332.32 423.398 C 1337.36 435.179 1342.24 447.024 1346.96 458.929 C 1363.79 501.18 1378.31 546.532 1385.99 591.401 C 1389.97 614.665 1393 638.136 1392.12 661.789 C 1391.34 682.661 1386.93 722.943 1389.39 741.758 L 1390.23 740.299 C 1390.48 739.026 1390.7 737.791 1390.86 736.504 C 1392.89 720.24 1392.24 703.794 1393.29 687.468 C 1399.39 592.699 1392.85 543.769 1352.37 457.296 C 1344.57 440.626 1334.53 416.675 1323.56 402.576 L 1323.08 402.005 z M 1043.39 402.668 C 1038.86 414.883 1034.76 427.011 1028.58 438.548 C 1000.39 491.215 943.019 551.417 894.889 586.97 C 883.235 595.578 869.689 601.204 858.135 609.516 L 856.527 610.202 L 855.005 610.995 L 856.527 610.202 L 858.135 609.516 C 886.064 603.023 915.839 578.802 938.166 561.157 C 954.473 548.269 969.895 534.583 983.507 518.808 C 1006.22 492.485 1039.21 438.125 1043.39 402.668 L 1043.74 401.699 L 1043.39 402.668 z M 1084.55 427.117 C 1078.74 435.774 1074.76 446.311 1070.15 455.68 C 1064.04 468.076 1056.95 480.192 1049.43 491.784 C 1041.17 504.356 1032.33 516.539 1022.95 528.292 C 1016.85 535.895 1008.22 544.116 1003.67 552.595 L 1002.85 553.236 L 1002.17 553.995 L 1002.85 553.236 L 1003.67 552.595 C 1004.56 552.142 1004.79 552.062 1005.69 551.376 C 1031.27 531.916 1078.66 457.847 1084.55 427.117 L 1084.99 426.005 L 1084.55 427.117 z M 1392.04 446.005 L 1392.57 447.129 C 1394.19 460.474 1402.74 480.279 1405.9 495.246 C 1413.73 532.347 1418.55 570.768 1423.57 608.332 C 1426.32 628.923 1429.23 649.569 1430.96 670.274 C 1431.77 679.953 1431.92 712.17 1434.04 718.759 L 1434.63 716.742 C 1440.81 645.569 1439.34 581.16 1419.8 511.967 C 1413.58 489.929 1405.37 466.185 1392.57 447.129 L 1392.04 446.005 z M 475.07 473.098 C 465.34 508.235 467.182 586.091 470.792 623.038 L 471.935 623.026 C 472.051 617.321 471.337 611.613 471.254 605.882 C 470.97 586.224 470.628 566.508 471.17 546.854 C 471.584 531.834 472.001 516.754 473.011 501.761 C 473.65 492.291 475.2 482.565 475.07 473.098 L 475.755 472.005 L 475.07 473.098 z M 1295.22 476.005 L 1295.71 477.504 L 1296.8 477.995 L 1295.71 477.504 L 1295.22 476.005 z M 1298.19 481.005 L 1298.63 482.492 L 1300.41 484.454 L 1300.81 484.995 L 1300.41 484.454 L 1298.63 482.492 L 1298.19 481.005 z M 1301.13 486.005 L 1301.55 487.516 L 1303.05 489.237 C 1305.69 500.416 1326.22 536.593 1332.64 550.446 C 1338.99 564.138 1343.65 579.023 1350.49 592.37 L 1351.44 594.561 L 1351.83 595.995 L 1351.44 594.561 L 1350.49 592.37 C 1349 579.344 1312.52 497.461 1303.05 489.237 L 1301.55 487.516 L 1301.13 486.005 z M 1035 699.011 L 1034.41 699.747 C 1023.38 711.111 1013.83 723.98 1003.03 735.621 C 972.983 768.36 941.655 799.901 909.122 830.173 C 930.858 855.971 945.755 878.794 942.596 913.935 C 942.037 920.157 940.703 926.179 939.266 932.247 L 939.058 931.025 C 937.36 920.542 937.162 909.862 936.06 899.306 C 933.207 871.983 920.837 852.258 900.496 834.037 C 895.542 839.089 890.8 843.842 884.98 847.9 C 886.967 840.505 888.986 833.147 891.297 825.847 C 883.007 816.245 876.008 805.947 868.047 796.144 C 858.815 793.284 849.365 790.864 840.656 786.614 C 843.425 794.923 846.787 802.629 851.435 810.076 C 858.265 821.017 873.711 836.604 876.385 848.642 L 875.448 849.413 L 872.205 848.372 C 874.019 851.584 875.868 854.776 877.751 857.948 L 877.394 858.875 L 876.164 857.409 C 850.325 826.932 786.254 785.712 746.679 782.892 C 737.408 782.232 727.77 781.575 718.489 782.022 C 709.184 782.47 689.039 786.515 681.021 784.613 C 682.718 782.357 690.282 782.017 693.233 781.595 C 726.165 776.891 767.774 776.272 798.635 789.951 C 808.287 794.23 816.294 801.314 825.363 806.513 L 826.139 807.258 L 826.823 807.995 L 826.139 807.258 L 825.363 806.513 C 817.863 796.28 806.017 780.874 795.836 773.702 C 780.178 762.671 751.835 758.27 733.107 752.222 C 720.029 747.999 707.176 742.869 694.329 737.994 C 683.177 755.992 671.235 779.38 666.742 800.099 C 679.293 798.494 691.42 794.174 704.063 793.615 C 714.67 793.145 725.861 795.305 736.378 796.692 C 767.351 800.779 804.195 804.294 829.691 824.064 C 849.324 839.287 863.851 863.075 875.887 884.524 C 857.188 871.644 843.631 852.393 827.021 836.901 C 825.521 852.716 825.159 868.528 811.814 879.6 C 804.199 885.919 794.857 888.113 785.124 887.02 C 769.138 885.225 753.075 875.867 743.308 863.15 C 732.463 849.031 730.5 834.932 731.637 817.473 C 711.202 817.755 684.839 818.408 669.439 833.971 L 668.664 834.769 C 671.975 852.757 684.513 865.772 699.161 875.963 C 725.738 894.452 753.018 897.632 784.583 896.764 C 793.17 896.528 802.59 895.384 811.105 896.323 C 781.571 901.883 752.528 906.69 722.869 898.679 L 721.764 898.33 L 719 897 C 717.952 896.173 717.003 895.806 715.782 895.292 C 696.967 885.03 674.129 870.725 662.587 852.074 C 663.919 865.484 666.144 877.137 671.976 889.364 C 671.758 889.162 671.535 888.963 671.32 888.757 C 662.293 880.098 658.194 867.083 655.561 855.221 C 655.202 853.6 654.752 848.715 653.913 847.496 C 652.465 845.396 649.838 845.97 647.563 845.854 C 648.656 843.715 650.086 842.864 651.945 841.431 L 652.044 840.083 C 648.778 837.81 643.066 837.93 640.78 834.959 C 643.379 830.7 647.039 833.029 649.955 830.682 C 651.347 829.562 648.797 808.98 648.246 806.574 C 645.436 805.795 642.981 805.204 640.034 805.119 C 635.239 814.527 642.519 859.518 646.138 870.542 C 651.854 888.173 661.099 904.457 673.311 918.4 C 643.773 907.799 617.542 883.556 598.827 858.865 C 604.466 878.62 612.549 897.477 620.238 916.498 C 636.871 957.645 652.71 998.96 684.436 1031.2 C 666.278 1021.36 653.295 1007.86 639.4 992.778 C 668.369 1074.74 694.929 1137.57 757.353 1200.65 C 780.994 1224.53 806.739 1246.08 830.841 1269.43 C 858.626 1296.34 891.955 1333.28 927.001 1349.88 C 959.04 1365.06 1005.44 1363.92 1038.25 1351.93 C 1100.9 1329.02 1207.54 1240.42 1251.1 1190.9 C 1279.96 1158.09 1307.37 1119.57 1325.6 1079.82 C 1342.72 1042.51 1352.82 1003.19 1362.62 963.469 C 1343.77 979.701 1322.87 996.561 1301.09 1008.65 C 1337.7 973.82 1353.94 932.488 1359.63 882.878 C 1349.12 910.583 1336.67 942.357 1314.33 962.893 C 1316.94 957.727 1320.41 952.804 1323.39 947.823 C 1333.03 931.746 1339.07 915.898 1342.93 897.489 C 1350.37 861.985 1349.06 812.557 1340.3 777.352 C 1315.82 758.565 1295.13 739.104 1276.04 714.784 C 1256.49 718.906 1238.12 725.858 1219.37 732.56 C 1186.2 744.413 1153.44 757.433 1120.29 769.241 C 1111 772.551 1101.46 776.038 1091.86 778.318 C 1080.06 781.121 1068.01 782.863 1056.34 786.254 C 1039.08 791.275 1022.69 798.971 1005.73 804.93 C 1014.03 790.29 1027.2 777.366 1037.06 763.491 C 1069.12 718.357 1096.58 673.795 1118.28 622.753 C 1124.92 607.142 1132.11 590.353 1134.29 573.466 C 1110.07 622.746 1082.27 671.259 1048.26 714.503 C 1035.93 730.177 1022.23 744.89 1008.94 759.747 C 995.665 774.58 981.848 791.189 965.473 802.625 C 987.68 778.665 1018.79 729.184 1034.41 699.747 L 1035 699.011 L 1035.83 698.061 L 1035 699.011 z M 656.138 720.537 C 643.818 743.879 641.305 777.238 639.31 803.277 C 642.747 803.051 646.775 803.281 649.625 801.182 C 650.627 785.04 651.311 768.837 652.845 752.737 C 653.833 742.365 656.305 730.861 656.138 720.537 L 656.749 720.005 L 656.138 720.537 z M 1297.92 685.86 C 1303.03 702.865 1318.14 733.162 1330.36 745.449 L 1330.83 745.995 L 1330.36 745.449 C 1327.36 730.165 1308.99 697.883 1297.92 685.86 z M 573.071 783.005 L 573.589 784.076 C 581.043 816.992 598.694 852.173 623.426 875.199 C 626.545 878.103 629.976 881.842 633.629 884.03 C 633.895 884.189 634.18 884.314 634.455 884.455 L 634.871 884.9 L 634.455 884.455 C 630.722 876.728 623.397 869.127 618.254 862.163 C 612.046 853.757 606.348 844.923 600.884 836.017 C 590.609 819.273 583.776 800.679 573.589 784.076 L 573.071 783.005 z M 1424.71 862.319 L 1424.25 862.995 L 1424.71 862.319 C 1434.38 848.158 1480.12 791.986 1494.34 788.109 C 1496.83 789.025 1497.69 789.843 1498.87 792.269 C 1501.35 797.31 1502.16 804.056 1503.28 809.573 C 1508.19 833.761 1508.03 854.144 1498.75 877.392 C 1497.41 880.734 1495.89 884.038 1493.66 886.887 C 1504.22 855.148 1500.41 828.955 1493.03 796.987 C 1483.14 806.877 1472.74 816.67 1464.7 828.167 C 1469.54 837.817 1473.09 846.609 1475.3 857.178 C 1464.95 891.021 1438.95 902.682 1425.5 930.478 L 1424.81 931.196 L 1424.19 931.995 L 1424.81 931.196 L 1425.5 930.478 C 1438.81 920.8 1450.8 907.382 1463.37 896.543 C 1457.97 910.722 1434.02 933.868 1421.94 943.928 C 1412.04 952.168 1400.52 959.452 1392.62 969.736 C 1419.98 957.722 1459.59 932.604 1480.32 911.661 C 1477.89 917.467 1474.23 922.538 1469.88 927.064 C 1455.9 941.616 1411.9 974.507 1393.89 981.62 C 1389.46 983.367 1385.61 984.159 1381.17 982.23 C 1378.95 979.981 1378.19 978.128 1377.94 975.02 C 1376.54 956.867 1411.22 925.839 1423.36 912.439 C 1421.21 904.842 1418.88 897.521 1415.92 890.196 C 1409.23 905.469 1401.3 918.826 1391.54 932.328 C 1386.64 939.104 1380.77 945.735 1376.72 953.022 C 1369.95 965.219 1356.29 1020.27 1354.11 1034.58 C 1364.09 1036.91 1376.6 1037.86 1386.28 1034.1 C 1395.87 1030.38 1489.94 947.006 1500.24 935.036 C 1508.94 924.911 1515.66 911.654 1521.09 899.542 C 1537.74 862.387 1538.51 831.348 1528.02 792.389 C 1525.46 782.875 1523.06 772.752 1519.43 763.593 C 1517.03 757.542 1513.46 751.256 1507.06 748.809 C 1502.1 746.917 1496.56 748.261 1491.98 750.542 C 1483.93 754.548 1471.61 761.196 1465.96 768.116 C 1458.82 776.851 1448.95 808.855 1443.72 821.371 C 1438.17 834.664 1429.06 847.774 1424.96 861.428 C 1424.87 861.723 1424.79 862.022 1424.71 862.319 z M 1329.2 1102.5 C 1329.02 1102.7 1328.84 1102.91 1328.66 1103.12 C 1322.18 1110.75 1316.95 1120.39 1311.52 1128.82 C 1300.41 1146.07 1289.44 1163.42 1277.56 1180.14 C 1245.88 1224.92 1212.22 1268.27 1176.68 1310.05 C 1149.45 1342.46 1121.47 1374.45 1091.03 1403.91 C 1077.05 1417.45 1062.85 1431.75 1046.33 1442.21 C 1036.85 1448.21 1026.76 1452.36 1015.46 1453.18 C 996.228 1454.58 978.84 1446.23 964.841 1433.65 C 942.829 1413.76 922.413 1392.18 903.782 1369.09 C 894.59 1357.86 886.54 1345.3 876.668 1334.7 C 866.948 1324.25 855.614 1315.09 845.146 1305.4 C 829.761 1291.07 814.633 1276.47 799.769 1261.61 C 827.54 1353.48 840.897 1425.2 843.828 1521.67 C 843.997 1527.26 847.071 1547.67 846.447 1550.74 C 839.712 1535.74 834.496 1487.72 831.622 1469.28 L 815.547 1371.25 C 803.98 1385.14 789.014 1414.76 780.113 1431.62 C 789.532 1465.45 815.75 1579.14 831.556 1601.74 C 836.603 1608.96 846.872 1614.34 854.392 1618.61 C 870.084 1627.51 885.977 1634.06 903.323 1638.93 C 915.074 1642.23 928.562 1644.22 939.346 1650.02 C 969.209 1666.1 955.6 1706.83 1018.27 1702.44 C 1013.14 1704.88 1008.06 1707.39 1002.74 1709.37 C 991.708 1712.65 980.487 1710.19 970.522 1704.88 C 951.126 1694.54 944.595 1676.54 931.918 1659.99 L 930.307 1659.46 C 918.557 1655.63 906.352 1653.54 894.397 1650.47 C 874.213 1645.29 854.592 1635.07 838.546 1621.82 C 844.758 1633.79 851.461 1645.48 860.132 1655.87 C 872.72 1670.95 888.343 1683.6 901.25 1698.63 C 915.899 1715.68 929.34 1733.78 943.822 1750.97 C 958.562 1768.48 974.519 1785.14 989.955 1802.04 C 1007.13 1787.54 1024.84 1773.54 1041.72 1758.73 C 1060.61 1742.16 1078.69 1724.67 1097.42 1707.94 C 1125.57 1682.8 1155.86 1657.75 1179.44 1628.18 C 1169.95 1631.72 1160.37 1635.62 1150.59 1638.27 C 1129.73 1643.91 1110.25 1646.62 1091.41 1658.17 C 1076.85 1667.1 1065.15 1679.81 1051.1 1689.34 C 1063.93 1663.12 1079.04 1647.72 1106.91 1638.06 C 1131.81 1629.44 1162.83 1627.84 1184.4 1612.1 C 1189.28 1608.54 1193.78 1604.54 1197.55 1599.8 C 1215.02 1577.87 1229.51 1551.94 1244.76 1528.4 C 1273.81 1484.06 1301.62 1438.92 1328.16 1393.03 C 1336.81 1377.75 1345.92 1362.5 1353.58 1346.69 C 1353.74 1346.37 1353.89 1346.04 1354.04 1345.71 C 1343.6 1333.23 1331.01 1320.52 1318.78 1309.8 C 1320.75 1323.02 1323.07 1336.27 1324.6 1349.54 C 1325.71 1359.06 1325.97 1368.63 1327.3 1378.14 C 1321.14 1360.62 1314.88 1343.23 1311.18 1324.97 C 1300.05 1269.96 1303.92 1201.59 1315.87 1147 C 1319.18 1131.88 1326.09 1117.49 1329.2 1102.5 L 1329.78 1102.01 L 1329.2 1102.5 z M 1209.48 74.3443 L 1206 75.3965 C 1217.3 77.7357 1228.7 78.7198 1239.98 81.4101 C 1253.18 84.558 1265.77 89.5345 1278.73 93.4281 L 1280.55 93.4258 C 1271.3 82.0525 1249.31 76.038 1235.32 74.6726 C 1226.71 73.8317 1218.12 74.0031 1209.48 74.3443 z M 1482.44 316.5 L 1483.27 316.5 L 1482.44 316.5 z M 1484.38 384.5 L 1485.11 384.5 L 1484.38 384.5 z M 1285.47 391.5 L 1286.44 391.5 L 1285.47 391.5 z M 1294.38 474.5 L 1295.18 474.5 L 1294.38 474.5 z M 1297.37 479.5 L 1298.24 479.5 L 1297.37 479.5 z M 1529.33 489.5 L 1530.06 489.5 L 1529.33 489.5 z M 1186.65 536.712 C 1180.43 558.324 1173.81 580.02 1164.87 600.694 C 1142.48 652.514 1101.84 708.372 1060.79 746.947 C 1082.71 740.232 1104.65 734.155 1127.22 730.011 C 1174.36 720.775 1221.33 710.702 1268.67 702.556 C 1252.99 676.407 1237.85 649.999 1224.61 622.518 C 1216.46 605.601 1209.12 588.366 1201.79 571.081 C 1198.14 562.493 1192.2 543.33 1186.65 536.712 z M 704.478 573.974 L 705.014 574.5 L 704.478 573.974 z M 753.914 634.764 C 745.191 647.983 737.996 662.335 730.219 676.137 C 721.345 691.884 711.663 707.529 704.127 723.963 C 715.582 724.866 726.915 725.867 738.224 728.011 C 751.55 730.934 764.864 734.303 778.238 736.946 C 772.286 717.028 765.469 697.468 761.312 677.059 C 759.741 669.349 756.938 638.464 753.914 634.764 z M 1384.54 663.5 L 1385.49 663.5 L 1384.54 663.5 z M 833.49 670.808 C 830.754 696.83 829.362 723.099 832.643 749.154 C 838.977 751.467 845.391 753.666 851.623 756.237 C 851.691 746.253 846.09 732.652 843.552 722.653 C 841.123 712.846 839.057 702.953 837.358 692.994 C 836.362 687.333 836.312 675.081 833.49 670.808 z M 665.593 806.595 C 665.128 809.545 663.815 813.683 665.043 816.339 C 666.906 815.53 667.292 815.262 668.608 813.868 L 673.768 808.901 L 673.714 807.459 C 670.964 806.808 668.398 806.685 665.593 806.595 z M 1463.44 831.82 C 1454.36 842.189 1443.77 852.259 1435.76 863.404 C 1437.59 865.741 1439.81 866.375 1442.48 867.395 C 1454.05 866.299 1462.67 863.405 1471.92 856.081 C 1469.89 847.777 1467.99 839.168 1463.44 831.82 z M 758.181 836.195 C 757.978 837.289 757.825 840.059 757.309 840.902 C 756.326 842.507 753.483 843.691 752.602 845.309 C 751.012 848.227 754.785 856.289 756.524 858.727 C 761.805 866.132 771.473 871.274 780.339 872.687 C 789.616 874.166 798.257 872.355 805.811 866.756 C 807.57 863.651 809.147 860.996 809.832 857.467 L 809.13 856.432 L 807.286 856.611 C 800.118 857.239 795.223 855.934 788.607 853.308 C 787.723 854.952 787.143 856.603 786.538 858.366 C 783.957 859.849 782.391 859.899 779.515 859.067 C 775.685 857.958 771.656 855.989 769.778 852.254 C 767.283 847.291 768.412 840.974 764.186 837.202 C 762.156 836.747 760.266 836.303 758.181 836.195 z M 780.106 838.877 C 780.297 842.178 781.235 844.04 783.64 846.369 C 785.381 848.056 787.221 849.423 789.721 849.406 C 790.521 845.916 790.805 845.131 789.705 841.59 C 787.248 839.202 784.954 838.62 781.541 838.754 C 781.061 838.772 780.584 838.836 780.106 838.877 z M 1470.59 859.973 C 1470.35 860.204 1470.11 860.44 1469.87 860.666 C 1457.73 871.833 1441.62 875.025 1437.16 893.494 C 1436.61 895.776 1435.53 899.127 1435.58 901.429 C 1435.59 902.03 1435.83 902.605 1435.95 903.193 C 1445.77 893.872 1469.62 874.926 1470.61 860.549 C 1470.62 860.358 1470.6 860.165 1470.59 859.973 z M 587.321 936.435 C 588.347 942.302 588.625 948.183 593.809 952.004 C 594.677 952.643 595.546 953.106 596.55 953.49 C 595.275 946.912 592.726 940.705 587.321 936.435 z M 599.924 955.609 C 605.014 968.78 617.078 990.804 628.047 999.302 C 624.979 989.167 608.788 961.165 600.687 955.988 C 600.448 955.835 600.179 955.735 599.924 955.609 z M 1399.26 976.5 L 1400.49 976.5 L 1399.26 976.5 z M 1322.32 1236.72 C 1322.77 1244.35 1328.4 1248.26 1333.76 1253.02 C 1341.04 1259.49 1348.91 1265.49 1355.71 1272.46 C 1378.43 1295.74 1391.45 1326.21 1400.02 1357.17 C 1401.47 1362.43 1402.47 1375.59 1405.79 1379.25 C 1403.74 1334.88 1388.07 1286.77 1354.5 1256.06 C 1345.38 1247.71 1333.93 1240.93 1322.32 1236.72 z M 799.677 1306.91 C 748.698 1338.47 703.703 1394.62 689.927 1453.53 C 689.356 1455.97 689.027 1457.76 689.488 1460.27 C 710.454 1413.51 739.708 1370.93 775.835 1334.59 C 781.266 1329.16 800.183 1314.4 799.677 1306.91 z M 1670.51 1550.64 C 1669.73 1554.42 1668.83 1556.34 1670.15 1560.03 C 1673.65 1562.53 1713.73 1575.46 1722.13 1578.66 C 1744.33 1587.31 1766.43 1596.22 1788.41 1605.4 C 1828.79 1622.01 1868.36 1638.58 1904.17 1664 C 1890.67 1683.56 1872.73 1708 1862.16 1728.98 C 1856.78 1739.64 1852.73 1751.32 1848.3 1762.42 C 1822.2 1827.78 1807.83 1890.9 1798.79 1960.63 C 1795.43 1986.54 1792.21 2013.39 1791.89 2039.53 C 1797.93 2020.86 1800.35 1999.71 1804.85 1980.49 C 1820.15 1909.65 1842.62 1840.86 1867.94 1773.03 C 1875.3 1753.32 1881.49 1732.82 1890.84 1713.95 C 1901.42 1692.61 1915.15 1673.03 1928.76 1653.57 C 1934.85 1644.86 1940.67 1635.6 1947.53 1627.48 C 1945.42 1625.7 1943.31 1623.71 1941.06 1622.12 C 1932.59 1630.79 1924.27 1639.61 1916.12 1648.58 C 1862.8 1617.36 1805.55 1599.15 1747.45 1579.02 C 1721.64 1570.07 1696.24 1559.86 1670.51 1550.64 z M 416.106 1632.86 C 343.363 1665.91 275.658 1695.68 206.985 1737.17 C 196.779 1743.34 181.702 1750.84 174.084 1759.89 L 173.642 1761.69 C 175.904 1761.12 176.974 1759.83 178.611 1758.26 C 234.205 1717.12 358.117 1672.83 425.839 1655.87 C 423.87 1648.31 421.838 1640.41 417.909 1633.61 L 416.106 1632.86 z M 151.811 1706.46 C 147.943 1709.43 146.177 1711.91 145.592 1716.81 C 144.285 1727.75 146.129 1739.86 147.094 1750.8 C 152.554 1812.64 169.098 1871.04 184.815 1930.75 C 190.031 1950.57 193.95 1971.43 200.744 1990.75 L 201.777 1993.32 C 200.717 1979.9 196.493 1965.9 194.103 1952.57 C 190.044 1929.94 186.784 1907.12 181.953 1884.64 C 175.321 1853.77 166.841 1822.91 162.152 1791.68 C 159.943 1776.27 158.194 1760.81 156.907 1745.3 C 156.388 1738.22 157.087 1711.79 155.235 1708.38 L 151.811 1706.46 z"/>
<path transform="translate(0,0)" fill="rgb(0,0,0)" d="M 1435.66 424.667 L 1435.22 424.12 L 1435.66 424.667 z"/>
<path transform="translate(0,0)" fill="rgb(0,0,0)" d="M 1435.66 424.667 L 1436.68 426.3 L 1435.66 424.667 z"/>
<path transform="translate(0,0)" fill="rgb(0,0,0)" d="M 746.731 768.421 C 742.248 770.998 722.353 768.53 716.748 767.511 C 726.883 766.543 736.662 767.11 746.731 768.421 z"/>
<path transform="translate(0,0)" fill="rgb(0,0,0)" d="M 777.33 773.215 C 771.755 773.179 754.57 772.242 750.339 769.14 C 758.679 768.502 769.435 770.452 777.33 773.215 z"/>
<path transform="translate(0,0)" fill="rgb(0,0,0)" d="M 1123.64 781.45 C 1114.7 782.537 1105.49 783.309 1097.05 786.671 C 1068.47 798.053 1067.45 830.235 1058.32 834.368 C 1062.14 822.08 1063.07 806.893 1071.65 796.88 C 1077.02 790.617 1084.28 786.694 1091.98 784.055 C 1105.12 779.557 1119.16 779.229 1132.81 777.345 C 1148.13 775.229 1163.26 772.418 1178.73 771.5 C 1198.21 769.765 1219.42 769.852 1238.94 771.302 C 1254.49 772.457 1269.9 774.787 1285.5 775.443 C 1267.53 776.736 1250.14 774.389 1232.25 774.215 C 1201 773.911 1144.21 778.217 1118.32 795.704 C 1102.48 806.403 1085.53 832.554 1074.32 838.926 L 1073.01 838.221 L 1073.13 834.441 C 1074.58 829.239 1076.28 824.11 1078.23 819.074 C 1086.84 796.942 1103.48 790.148 1123.64 781.45 z"/>
<path transform="translate(0,0)" fill="rgb(0,0,0)" d="M 777.33 773.215 C 779.578 773.098 780.954 772.987 783 774 C 780.73 774.138 779.384 774.27 777.33 773.215 z"/>
<path transform="translate(0,0)" fill="rgb(0,0,0)" d="M 783 774 C 784.339 774.104 785.521 773.976 786.677 774.71 C 785.41 774.542 784.19 774.485 783 774 z"/>
<path transform="translate(0,0)" fill="rgb(0,0,0)" d="M 794 776 L 792.261 775.546 L 794 776 z"/>
<path transform="translate(0,0)" fill="rgb(0,0,0)" d="M 794 776 L 797.477 777.292 L 794 776 z"/>
<path transform="translate(0,0)" fill="rgb(0,0,0)" d="M 797.477 777.292 L 797.995 777.75 L 797.477 777.292 z"/>
<path transform="translate(0,0)" fill="rgb(0,0,0)" d="M 1254.02 889.932 L 1253.27 887.872 C 1245.77 889.706 1238.42 892.279 1230.85 893.813 C 1212.71 897.49 1191.44 897.869 1173.07 896.298 C 1156.73 894.9 1140.89 889.584 1124.75 888.453 C 1113.58 887.67 1102.95 889.662 1091.88 890.422 C 1126.33 880.406 1145.89 890.846 1179.21 892.098 C 1216.86 893.513 1271.34 878.802 1292.01 844.283 C 1293.42 841.939 1294.11 840.431 1293.76 837.723 C 1288.97 837.842 1279.52 847.085 1275.51 850.116 C 1280.54 840.169 1283.48 827.668 1284.76 816.6 C 1275.83 807.512 1270.63 803.042 1257.8 800.626 C 1258.94 820.95 1257.9 842.548 1243.58 858.681 C 1235.28 868.045 1221.49 873.964 1209.07 874.406 C 1197.22 874.877 1185.68 870.537 1177.08 862.373 C 1169.34 855.134 1164.26 846.043 1160.93 836.064 C 1159.55 830.444 1158.94 825.231 1158.62 819.464 C 1140.67 827.978 1121.5 837.108 1108.58 852.706 C 1101.04 861.816 1094.25 871.705 1085.95 880.147 C 1089.65 870.312 1098.66 861.888 1104.56 853.204 C 1096.7 858.376 1089.26 863.589 1083.02 870.704 C 1082.12 869.482 1082.5 868.96 1082.72 867.448 C 1085.16 850.669 1103.32 830.746 1116.67 821 C 1156.14 792.181 1232.86 785.417 1281.18 785.12 C 1298.66 785.013 1307.02 789.233 1326.37 786.362 C 1321.92 789.185 1317.4 791.934 1313.03 794.881 C 1312.1 809.557 1311.37 815.812 1302.84 828.201 C 1300.7 831.308 1298.16 834.404 1296.58 837.818 C 1298.81 837.498 1302.39 832.785 1303.87 830.815 C 1304.58 829.874 1305.24 828.898 1305.93 827.938 C 1307.06 826.34 1306.54 827.011 1308.09 825.423 C 1308.07 834.639 1285.13 861.336 1278.09 868.364 C 1270.58 875.855 1260.84 881.98 1254.02 889.932 z M 1225.08 821.723 C 1223.43 824.342 1223 825.36 1223.12 828.587 C 1225 832.384 1227.94 833.249 1231.7 834.572 C 1233.09 835.059 1234.33 835.72 1235.62 836.416 C 1235.87 831.955 1236.91 827.562 1234.19 823.734 C 1231.18 821.921 1228.52 821.92 1225.08 821.723 z M 1198.35 824.792 C 1194.69 827.271 1191.43 829.474 1188.48 832.825 C 1188.21 834.512 1187.89 834.736 1188.71 836.307 C 1190.23 839.247 1191.24 841.178 1191.2 844.508 C 1189.87 847.457 1188.28 849.314 1189.32 852.609 C 1190.6 856.649 1194.45 860.192 1198.37 861.571 C 1205.53 864.086 1214.07 862.679 1220.62 859.103 C 1225.72 856.319 1228.42 852.903 1231.28 847.948 C 1232.56 844.774 1233.52 843.617 1232.76 840.216 C 1230.14 837.612 1227.05 836.186 1223.95 834.27 C 1220.2 840.308 1218.07 844.295 1210.55 845.866 C 1206.42 846.728 1199.8 846.934 1196.39 843.888 C 1195.93 843.481 1195.67 842.903 1195.31 842.41 L 1197.03 839.873 C 1195.7 838.457 1195.31 838.675 1193.48 838.295 C 1195.5 833.918 1204.92 835.699 1203.89 829.092 C 1202.11 827.441 1200.53 825.924 1198.35 824.792 z"/>
<path transform="translate(0,0)" fill="rgb(0,0,0)" d="M 1163.49 789.5 L 1162.26 789.5 L 1163.49 789.5 z"/>
<path transform="translate(0,0)" fill="rgb(0,0,0)" d="M 1160.49 790.5 L 1159.26 790.5 L 1160.49 790.5 z"/>
<path transform="translate(0,0)" fill="rgb(0,0,0)" d="M 1156.92 791.666 L 1157.99 791.123 L 1156.92 791.666 z"/>
<path transform="translate(0,0)" fill="rgb(0,0,0)" d="M 1082.71 846.41 C 1083.31 844.542 1084.22 842.891 1085.27 841.245 C 1102.16 814.895 1126.53 798.717 1156.92 791.666 L 1155.23 792.789 C 1143.06 800.72 1128.83 805.093 1117 813.79 C 1104.21 823.191 1094.81 836.359 1082.71 846.41 z"/>
<path transform="translate(0,0)" fill="rgb(0,0,0)" d="M 1082.23 846.995 L 1082.71 846.41 L 1082.23 846.995 z"/>
<path transform="translate(0,0)" fill="rgb(0,0,0)" d="M 885.42 856.26 C 882.999 855.29 881.083 853.751 879.013 852.206 L 879.871 851.777 C 882.618 852.431 883.556 854.227 885.42 856.26 z"/>
<path transform="translate(0,0)" fill="rgb(0,0,0)" d="M 879.149 860.5 L 878.455 860.5 L 879.149 860.5 z"/>
<path transform="translate(0,0)" fill="rgb(0,0,0)" d="M 673.019 868.5 L 672.288 868.5 L 673.019 868.5 z"/>
<path transform="translate(0,0)" fill="rgb(0,0,0)" d="M 1275.51 880.597 C 1278.4 876.879 1282.42 873.253 1286.7 871.213 C 1283.69 875.086 1280.28 878.935 1275.51 880.597 z"/>
<path transform="translate(0,0)" fill="rgb(0,0,0)" d="M 1283.03 879.053 L 1283.99 878.224 L 1283.03 879.053 z"/>
<path transform="translate(0,0)" fill="rgb(0,0,0)" d="M 1282.34 879.603 L 1283.03 879.053 L 1282.34 879.603 z"/>
<path transform="translate(0,0)" fill="rgb(0,0,0)" d="M 1274.81 881.151 L 1275.51 880.597 L 1274.81 881.151 z"/>
<path transform="translate(0,0)" fill="rgb(0,0,0)" d="M 1273.69 882.307 L 1274.41 883.132 C 1276.49 882.084 1278.55 881.059 1280.73 880.218 L 1282.34 879.603 C 1261.62 903.412 1224.28 915.052 1193.73 917.223 C 1192.45 917.316 1191.17 917.392 1189.89 917.451 C 1212.15 911.427 1234.68 906.581 1255.07 895.254 C 1261.69 891.573 1267.16 885.868 1273.69 882.307 z"/>
<path transform="translate(0,0)" fill="rgb(0,0,0)" d="M 865.414 883.721 C 859.834 884.369 856.305 883.704 851.224 881.226 C 856.285 881.573 860.537 882.183 865.414 883.721 z"/>
<path transform="translate(0,0)" fill="rgb(0,0,0)" d="M 1273.69 882.307 L 1274.81 881.151 L 1273.69 882.307 z"/>
<path transform="translate(0,0)" fill="rgb(0,0,0)" d="M 1492.72 888.464 L 1493.66 886.887 L 1492.72 888.464 z"/>
<path transform="translate(0,0)" fill="rgb(0,0,0)" d="M 1491.74 890.383 L 1492.72 888.464 L 1491.74 890.383 z"/>
<path transform="translate(0,0)" fill="rgb(0,0,0)" d="M 1252 894 C 1252.27 892.058 1252.71 891.38 1254.02 889.932 C 1253.43 891.567 1253.05 892.591 1252 894 z"/>
<path transform="translate(0,0)" fill="rgb(0,0,0)" d="M 1491.24 890.995 L 1491.74 890.383 L 1491.24 890.995 z"/>
<path transform="translate(0,0)" fill="rgb(0,0,0)" d="M 1491.07 892.5 L 1490.37 892.5 L 1491.07 892.5 z"/>
<path transform="translate(0,0)" fill="rgb(0,0,0)" d="M 761.23 913.491 C 754.335 916.922 747.176 916.112 739.902 914.195 C 729.824 911.539 710.444 901.781 705.249 893.035 C 708.171 892.344 712.799 894.412 715.782 895.292 C 717.503 897.052 716.451 896.446 719 897 L 721.764 898.33 L 722.869 898.679 C 732.244 904.237 747.841 904.305 758.739 908.976 C 750.692 908.886 742.713 907.833 734.663 908.467 L 734.665 908.56 C 743.696 909.668 752.036 912.73 761.23 913.491 z M 716.005 900.265 L 716.499 900.826 C 718.89 903.099 718.826 903.193 722.1 903.359 C 720.431 901.679 718.716 901.469 716.499 900.826 L 716.005 900.265 z"/>
<path transform="translate(0,0)" fill="rgb(0,0,0)" d="M 1251.24 894.995 L 1252 894 L 1251.24 894.995 z"/>
<path transform="translate(0,0)" fill="rgb(0,0,0)" d="M 1463.37 896.543 L 1463.85 896.083 L 1463.37 896.543 z"/>
<path transform="translate(0,0)" fill="rgb(0,0,0)" d="M 1480.32 911.661 L 1480.77 911.009 L 1480.32 911.661 z"/>
<path transform="translate(0,0)" fill="rgb(0,0,0)" d="M 729.49 913.5 L 728.263 913.5 L 729.49 913.5 z"/>
<path transform="translate(0,0)" fill="rgb(0,0,0)" d="M 760.374 918.086 C 749.584 921.649 738.333 918.012 728.182 914.105 C 738.562 914.099 749.312 916.451 759.837 916.849 L 760.374 918.086 z"/>
<path transform="translate(0,0)" fill="rgb(0,0,0)" d="M 1311.97 965.973 C 1312.73 963.756 1312.64 964.128 1314.33 962.893 C 1313.55 964.775 1313.82 964.692 1311.97 965.973 z"/>
<path transform="translate(0,0)" fill="rgb(0,0,0)" d="M 1310.75 967.478 L 1311.97 965.973 L 1310.75 967.478 z"/>
<path transform="translate(0,0)" fill="rgb(0,0,0)" d="M 1309.53 969.469 L 1310.75 967.478 L 1309.53 969.469 z"/>
<path transform="translate(0,0)" fill="rgb(0,0,0)" d="M 1308.76 970.159 L 1309.53 969.469 L 1308.76 970.159 z"/>
<path transform="translate(0,0)" fill="rgb(0,0,0)" d="M 1308.19 970.995 L 1308.76 970.159 L 1308.19 970.995 z"/>
<path transform="translate(0,0)" fill="rgb(0,0,0)" d="M 921.956 1056.23 L 920.638 1055.62 C 920.454 1055.1 920.023 1054.62 920.088 1054.08 C 920.355 1051.87 928.99 1038.71 930.572 1034.14 C 933.111 1026.81 933.19 1020.27 933.058 1012.64 C 935.978 1016.58 936.403 1023.48 936.008 1028.25 C 935.112 1039.04 930.077 1049.07 921.956 1056.23 z"/>
<path transform="translate(0,0)" fill="rgb(0,0,0)" d="M 914.303 1033.47 L 914.752 1032.01 L 914.303 1033.47 z"/>
<path transform="translate(0,0)" fill="rgb(0,0,0)" d="M 913.43 1034.3 L 914.303 1033.47 L 913.43 1034.3 z"/>
<path transform="translate(0,0)" fill="rgb(0,0,0)" d="M 923.904 1094.5 C 918.68 1092.42 914.251 1089.9 910.086 1086.08 C 903.699 1080.22 894.661 1070.39 894.677 1061.33 C 894.691 1053.76 908.239 1039.86 913.43 1034.3 C 913.31 1034.65 913.194 1035 913.07 1035.34 C 909.957 1044.07 895.833 1056.37 899.678 1064.47 C 903.59 1072.71 916.996 1087.97 923.904 1094.5 z"/>
<path transform="translate(0,0)" fill="rgb(0,0,0)" d="M 947.684 1105.54 C 945.839 1105.36 944.119 1105.06 942.379 1104.41 C 930.252 1099.91 915.475 1084.21 910.245 1072.64 C 911.94 1072.67 913.388 1072.75 915.019 1073.28 C 927.351 1077.3 941.792 1094.5 947.684 1105.54 z"/>
<path transform="translate(0,0)" fill="rgb(0,0,0)" d="M 986.357 1092.3 C 989.884 1089.11 993.486 1086.42 997.389 1083.72 C 999.947 1084.09 1002.78 1084.63 1005.02 1085.96 C 1007.1 1087.2 1007.41 1087.19 1008 1089.62 C 1004.97 1091.58 1002.01 1090.94 998.488 1090.9 L 986.357 1092.3 z"/>
<path transform="translate(0,0)" fill="rgb(0,0,0)" d="M 923.904 1094.5 L 925.328 1095.31 L 923.904 1094.5 z"/>
<path transform="translate(0,0)" fill="rgb(0,0,0)" d="M 925.328 1095.31 L 925.889 1095.86 L 925.328 1095.31 z"/>
<path transform="translate(0,0)" fill="rgb(0,0,0)" d="M 1042.69 1203.7 C 1019.61 1195.26 1012.65 1191.76 987.563 1196.92 C 980.044 1198.46 972.558 1200.15 964.831 1200.08 C 951.615 1199.95 939.938 1195.04 926.347 1197.15 C 911.223 1199.51 888.598 1208.95 874.146 1207.53 L 872.75 1205.8 L 873.468 1203.87 C 883.46 1194.61 902.686 1192.12 915.631 1190.35 C 933.359 1187.36 951.353 1192.84 968.97 1193.81 C 979.123 1194.38 989.65 1192.26 999.72 1191.01 C 1029.12 1187.36 1064.35 1196.81 1087.75 1215.07 C 1072.11 1212.48 1057.69 1208.83 1042.69 1203.7 z"/>
<path transform="translate(0,0)" fill="rgb(0,0,0)" d="M 1272.34 1221.9 L 1272.65 1220.81 L 1272.34 1221.9 z"/>
<path transform="translate(0,0)" fill="rgb(0,0,0)" d="M 1080.57 1634.35 C 1085.52 1623.35 1094.84 1613.38 1101.06 1602.83 C 1117.38 1575.15 1133.27 1546.45 1147.37 1517.59 C 1178.45 1454.49 1206.9 1390.14 1232.67 1324.7 C 1246.3 1290.59 1258.56 1255.97 1272.34 1221.9 C 1270 1241.27 1253.28 1282.67 1246.3 1302.42 C 1211.49 1400.88 1175.95 1499.93 1117.71 1587.42 C 1106.88 1603.68 1095.37 1621.48 1080.57 1634.35 z"/>
<path transform="translate(0,0)" fill="rgb(0,0,0)" d="M 1015.45 1247.79 C 1002.83 1250.34 990.035 1253.4 977.096 1251.8 C 968.264 1250.71 944.438 1247.62 938.733 1240.29 C 939.277 1237.57 940.007 1237.74 942.136 1236.14 C 954.198 1236.24 966.292 1238.18 978.391 1238.4 C 988.321 1238.58 998.517 1236.93 1008.39 1237.88 C 1012.05 1238.24 1017 1238.73 1019.92 1241.19 C 1021.39 1242.43 1021.05 1242.53 1021.25 1244.28 C 1019.66 1246.42 1017.85 1246.91 1015.45 1247.79 z"/>
<path transform="translate(0,0)" fill="rgb(0,0,0)" d="M 1006.49 1615.56 C 969.063 1599.39 932.329 1532.93 917.805 1496.35 C 910.607 1478.22 900.73 1448.99 901.156 1429.23 C 904.534 1440.32 907.059 1451.55 910.93 1462.51 C 925.935 1505.02 948.938 1550.56 977.707 1585.56 C 986.551 1596.32 997.642 1605.06 1006.49 1615.56 z"/>
<path transform="translate(0,0)" fill="rgb(0,0,0)" d="M 1006.49 1615.56 L 1007.17 1616.17 L 1006.49 1615.56 z"/>
<path transform="translate(0,0)" fill="rgb(0,0,0)" d="M 1007.17 1616.17 L 1007.98 1616.78 L 1007.17 1616.17 z"/>
<path transform="translate(0,0)" fill="rgb(0,0,0)" d="M 1114.89 1837.53 L 1116.03 1836.74 L 1114.89 1837.53 z"/>
</svg>