<svg version="1.1" xmlns="http://www.w3.org/2000/svg" style="display: block;" viewBox="0 0 2048 2048" width="1024" height="1024">
<path transform="translate(0,0)" fill="rgb(255,255,255)" d="M 0 0 L 0 2048 L 2048 2048 L 2048 0 L 0 0 z"/>
<path transform="translate(0,0)" fill="rgb(0,0,0)" d="M 542.451 154.458 C 547.283 146.58 554.165 139.431 560.629 132.878 C 595.564 97.466 643.41 73.7682 691.575 62.1955 C 733.334 52.1618 775.614 49.9431 817.781 58.6749 C 834.495 52.3 849.439 42.836 865.758 35.7481 C 896.822 22.2554 943.307 13.4899 975.507 27.9229 C 988.903 33.9273 999.881 43.4009 1008.25 55.403 C 1020.62 38.5208 1049.05 19.1881 1069.75 15.4918 C 1070.87 15.2917 1071.21 15.3009 1072.43 15.207 L 1072.91 15.7281 C 1067.1 18.5146 1060.98 20.537 1055.2 23.3577 C 1043.53 29.0662 1033.31 37.5311 1023.23 45.6257 C 1037.71 41.5545 1052.14 37.5657 1067.09 35.6236 C 1140.34 26.1106 1218.02 47.6049 1281.65 83.3285 C 1389.7 143.996 1491.81 270.437 1524.7 389.925 C 1536.08 431.275 1542.41 482.774 1529.56 524.025 L 1522.53 507.227 C 1527.71 555.846 1542.9 619.4 1509.26 661.395 C 1503.7 668.338 1497.04 674.033 1490.15 679.61 C 1512.65 650.76 1511.53 629.421 1508.11 594.422 L 1507.68 595.553 C 1502.95 608.209 1500.36 621.628 1496.03 634.443 C 1486.31 663.151 1472.06 692.03 1456.49 717.992 C 1473.62 755.014 1486.91 798.09 1472.39 838.37 C 1469.7 845.843 1465.84 853.58 1460.58 859.574 C 1452.02 869.325 1441.27 877.819 1431.61 886.516 C 1416.52 900.106 1401.54 914.16 1387.75 929.081 C 1377.43 940.255 1360.14 963.607 1346.59 969.138 C 1337.3 973.03 1326.8 972.892 1317.61 968.757 C 1313.86 967.057 1310.31 964.96 1306.81 962.787 C 1296.45 997.324 1291.91 1031.37 1287.1 1067.01 C 1282.98 1097.59 1278.71 1128.63 1277.36 1159.48 C 1321.46 1185.81 1358.13 1231.99 1390.79 1270.89 C 1399.31 1281.03 1407.5 1291.74 1416.64 1301.33 C 1440.72 1326.59 1465.07 1337.18 1483.35 1369.57 C 1557.77 1407.55 1631.5 1447 1707.22 1482.35 C 1746.21 1500.55 1786.34 1515.56 1825.84 1532.47 C 1842.03 1539.39 1857.91 1547.26 1873.79 1554.85 C 1893.19 1564.13 1915.05 1573.48 1931.62 1587.33 C 1948.25 1601.23 1954.7 1625.5 1961.18 1645.5 C 1991.94 1740.9 2015.12 1838.58 2030.49 1937.64 C 2036.19 1974.26 2038.15 2011.53 2044.05 2048 L 1711.91 2048 C 1712.31 2036.39 1715.75 1980.88 1711.55 1974.92 C 1708.56 1973.53 1706.79 1973.03 1703.5 1972.9 C 1699.27 1975.32 1700.48 1986.29 1700.35 1991.12 C 1699.78 2011.15 1695.62 2028.98 1689.52 2048 L 1390.71 2048 C 1403.65 2028.27 1418.58 2009.41 1432.14 1990.05 C 1464.16 1944.83 1494.89 1898.72 1524.32 1851.78 C 1536.14 1832.73 1549.02 1813.6 1558.87 1793.44 C 1530.74 1773.71 1501.43 1755.98 1473.96 1735.27 C 1438.23 1708.32 1412.92 1682.67 1383.49 1649.5 C 1374.01 1638.82 1363.99 1628.66 1354.88 1617.65 C 1336.95 1595.97 1321.33 1572.53 1306.35 1548.76 C 1304.55 1554.25 1303.25 1559.5 1302.32 1565.21 C 1319.38 1583.02 1333.71 1605.66 1348.28 1625.56 C 1365.4 1648.95 1384.76 1671.68 1405.36 1692.11 C 1431.76 1718.29 1460.78 1741.74 1489.98 1764.7 C 1505.04 1776.54 1523.13 1787.94 1536.04 1801.95 C 1530.25 1830.39 1481.3 1895.01 1463.5 1920.91 C 1434.44 1963.82 1404.59 2006.19 1373.96 2048 L 1349.91 2048 C 1364.74 2026.3 1380.4 2005.18 1395.27 1983.51 C 1419.69 1947.52 1443.27 1910.97 1465.98 1873.89 C 1479.03 1852.42 1495.96 1827.45 1502.76 1803.14 C 1496.95 1797.5 1489.22 1792.78 1482.7 1787.85 C 1472.63 1780.22 1462.85 1772.23 1453.36 1763.89 C 1408.62 1725.03 1370.62 1681.71 1336.03 1633.58 C 1330.92 1626.46 1300.52 1579.53 1297.99 1578.88 C 1296.25 1581.25 1295.86 1583.34 1295.29 1586.14 C 1297.76 1596.94 1307.34 1607.29 1313.52 1616.45 C 1344.1 1661.74 1386.52 1711.65 1425.45 1750.08 C 1445.63 1770.01 1467.87 1788.32 1487.47 1808.7 C 1451.66 1879.24 1407.41 1945.33 1362.81 2010.49 C 1354.32 2022.89 1346.41 2035.66 1337.83 2048 L 1190.43 2048 C 1194.33 2029.29 1200.62 2010.72 1205.34 1992.15 C 1218.54 1940.23 1231.92 1887.78 1242.43 1835.25 C 1203.12 1912.63 1145.97 1980.86 1091.75 2048 L 1077.9 2048 C 1088.43 2036.33 1097.87 2023.02 1107.75 2010.73 C 1153.53 1953.8 1197.21 1893.56 1232.67 1829.62 C 1239.05 1818.12 1246.41 1806.46 1250.39 1793.88 C 1256.98 1773.01 1261.05 1744.33 1265.28 1722.28 C 1273.97 1677.03 1282.42 1631.59 1292.1 1586.56 C 1272.05 1620.37 1257.89 1656.32 1241.88 1692.04 C 1232.59 1712.77 1222.14 1733.21 1211.61 1753.34 C 1183.92 1806.27 1151.45 1861.37 1117.93 1910.68 C 1085.86 1957.88 1050.85 2003.12 1015.65 2048 L 998.363 2048 C 960.313 1994.96 915.56 1946.71 879.246 1892.55 C 860.048 1863.91 844.963 1832.82 830.616 1801.54 C 807.648 1751.47 788.148 1700.99 770.624 1648.8 C 763.871 1628.68 755.843 1608.1 751.256 1587.41 C 748.134 1573.33 746.67 1558.69 744.333 1544.45 C 736.589 1497.25 730.238 1449.82 725.29 1402.25 C 716.088 1448.61 712.048 1495.96 709.258 1543.1 C 707.93 1565.53 706.358 1588.08 706.651 1610.57 C 707.269 1657.9 712.641 1705.06 718.148 1752.02 C 729.945 1852.61 746.909 1949.9 772.242 2048 L 658.44 2048 C 640.427 2022.89 621.375 1998.5 603.615 1973.22 C 562.476 1914.67 523.086 1851.4 493.575 1786.1 C 522.46 1764.22 550.712 1741.5 578.295 1718 C 617.857 1684.59 650.725 1656.37 682.875 1615.32 C 691.31 1604.55 700.418 1594.6 703.501 1580.99 C 679.415 1605.16 657.365 1631.45 633.104 1655.54 C 604.041 1684.4 571.114 1710.33 539.372 1736.17 C 520.389 1751.63 501.864 1768.09 482 1782.39 C 490.935 1806.92 503.949 1830.06 516.368 1852.97 C 547.897 1910.41 582.566 1966.08 620.219 2019.7 C 626.865 2029.33 634.253 2038.41 640.966 2048 L 615.193 2048 C 605.908 2035.18 595.765 2023.03 586.75 2009.99 C 552.607 1960.06 521.537 1908.1 493.713 1854.4 C 481.368 1831.06 468.761 1807.45 457.922 1783.38 C 470.037 1771.32 485.521 1761.18 499.158 1750.82 C 522.527 1733.07 545.761 1715.14 568.858 1697.03 C 582.557 1686.19 596.433 1675.28 609.599 1663.8 C 620.807 1654.03 631.168 1643.21 643.571 1634.92 C 624.53 1631.27 605.439 1627.74 586.648 1622.93 C 543.398 1611.86 501.045 1597.17 458.657 1583.21 C 464.759 1560.85 510.049 1496.57 524.835 1474.23 C 547.159 1440.49 568.544 1405.92 593.081 1373.71 C 600.231 1364.32 607.757 1355.62 616.403 1347.58 C 571.504 1424.91 516.725 1496.28 476.31 1576.31 C 507.85 1587.74 540.203 1597.34 572.432 1606.64 C 595.343 1613.26 620.443 1621.75 644.31 1623.42 C 653.624 1616.99 698.644 1573.5 702.542 1564.54 C 703.759 1561.74 704.547 1556.66 703.408 1553.92 C 684.655 1576.15 663.854 1597.44 641.239 1615.78 C 612.836 1610.76 584.562 1600.89 557.142 1592.01 C 535.278 1584.94 513.234 1578.36 491.546 1570.76 C 500.03 1545 523.433 1515.94 537.777 1492.01 L 600.441 1387.38 C 613.774 1365.19 626.471 1342.86 641.273 1321.6 C 594.433 1352.04 550.586 1421.52 519.089 1467.75 C 507.262 1485.11 494.918 1502.11 483.293 1519.61 C 468.738 1541.93 454.388 1564.38 440.245 1586.97 C 459.248 1597.42 482.901 1603.79 503.569 1610.26 C 540.899 1622.16 578.554 1633.02 616.492 1642.81 C 600.095 1661.78 572.184 1679.33 551.633 1694.42 C 515.807 1720.71 478.709 1747.05 444.838 1775.77 C 451.914 1796.44 463.833 1816.12 473.458 1835.74 C 509.588 1909.38 548.069 1981.39 596.234 2048 L 14.4288 2048 C 18.0875 2005.57 22.8015 1963.24 28.5663 1921.05 C 33.5628 1884.45 38.92 1847.43 47.3438 1811.44 C 63.7945 1741.15 83.5722 1670.11 110.746 1603.11 C 118.188 1584.77 127.017 1567.31 135.208 1549.34 C 138.651 1541.79 143.813 1522.95 150.867 1518.83 C 151.24 1518.61 151.625 1518.41 152.001 1518.19 C 188.504 1497.43 235.098 1486.99 275.026 1474.23 C 358.144 1448.22 440.01 1418.37 520.359 1384.76 C 539.296 1377.06 561.537 1371.63 579.147 1361.42 C 596.341 1351.45 609.299 1332.21 623.898 1318.73 C 643.891 1300.28 666.365 1284.67 687.032 1266.97 C 713.41 1244.39 738.971 1217.88 767.856 1198.65 C 776.577 1192.84 784.875 1189.66 795.021 1187.26 C 792.431 1172.04 789.873 1143.41 784.358 1130.21 C 779.141 1117.72 764.604 1103.75 757.028 1091.41 C 737.116 1058.99 721.43 1025.87 706.913 990.762 C 698.787 991.021 690.073 990.705 682.61 987.091 C 668.544 980.279 657.37 962.923 647.024 951.585 C 640.542 944.355 633.56 937.588 626.13 931.336 C 597.634 907.165 551.877 885.828 547.775 844.355 C 546.094 827.36 548.16 809.696 549.193 792.688 C 549.858 781.737 553.205 760.45 550.435 750.504 C 543.475 725.517 522.009 697.803 509.512 674.78 C 501.345 659.732 496.386 643.926 491.168 627.7 C 494.695 660.429 506.465 695.477 526.522 721.56 L 526.032 721.692 C 513.931 714.456 499.888 690.997 492.092 678.554 C 454.818 619.062 462.421 536.878 477.372 471.431 C 464.685 500.04 433.973 570.52 441.693 599.825 C 441.794 600.207 441.909 600.586 442.006 600.969 C 442.155 601.554 442.286 602.144 442.43 602.731 L 442.702 603.807 C 440.758 602.813 440.586 601.854 439.737 599.851 C 421.438 556.678 440.762 504.981 458.402 464.623 C 463.563 452.816 470.389 440.706 474.174 428.419 C 476.315 421.469 475.166 412.877 476.264 405.579 C 479.72 382.619 485.283 358.005 494.124 336.515 C 507.633 303.679 536.128 258.013 557.68 229.726 C 610.022 161.026 660.211 120.371 739.658 85.4063 C 754.876 78.7086 770.783 73.6423 786.143 67.2524 C 713.993 65.9852 639.755 81.4721 579.809 123.302 C 566.498 132.59 554.344 143.445 542.451 154.458 z M 1059.01 110.005 L 1061 111 L 1062.27 111.624 C 1084.47 124.851 1106.58 137.642 1127.72 152.567 C 1162.08 176.824 1248.52 246.99 1258.42 288.094 C 1259.32 291.817 1259.91 295.656 1260.55 299.433 C 1255.08 295.506 1249.68 291.485 1243.83 288.145 C 1244.14 296.346 1244.13 304.695 1244.94 312.858 C 1236.55 302.91 1227.73 293.309 1219.45 283.275 C 1208.19 269.62 1177.38 228.441 1165.47 220.462 L 1165 220 L 1164.16 219.315 L 1163.57 218.16 L 1161.68 217.398 L 1161.2 216.005 L 1161.68 217.398 L 1163.57 218.16 L 1164.16 219.315 L 1165 220 L 1165.47 220.462 C 1172 231.327 1181.48 241.384 1189.39 251.348 C 1199.61 264.421 1209.41 277.819 1218.77 291.522 C 1262.28 354.859 1294.44 423.723 1318.93 496.382 C 1327.64 521.934 1334.66 548.027 1339.97 574.495 C 1342.65 587.607 1343.38 602.984 1347.7 615.464 C 1343.35 560.389 1329.02 505.316 1308.81 453.98 C 1301.86 436.469 1294.57 419.091 1286.96 401.857 C 1273.4 371.897 1258.8 346.583 1257.06 312.731 C 1257.04 312.493 1257.03 312.256 1257.01 312.019 C 1262.45 317.068 1267.95 322.056 1273.04 327.453 C 1272.29 320.088 1271.91 312.827 1271.77 305.425 C 1342.25 373.58 1384.03 484.737 1385.55 582.133 C 1385.92 615.771 1382.68 649.351 1375.89 682.297 C 1372.93 696.17 1367.4 710.373 1365.59 724.293 L 1365.25 725.285 L 1365.59 724.293 C 1371.43 713.156 1374.83 698.051 1378.14 685.82 C 1411.57 562.528 1389.59 450.779 1326.6 341.309 C 1278.05 256.932 1205.06 192.707 1122.64 142.503 C 1104.65 131.545 1082.65 117.113 1062.27 111.624 L 1061 111 L 1059.01 110.005 z M 687 148 L 686.295 148.639 C 664.367 159.203 606.379 214.82 588.026 234.445 C 572.826 250.699 532.917 296.882 526.175 317.428 C 525.963 318.074 525.783 318.731 525.587 319.383 L 525.166 319.995 L 525.587 319.383 C 537.785 304.609 549.854 289.71 562.722 275.504 C 571.516 265.794 581.258 256.749 589.553 246.63 C 579.636 263.715 569.253 280.728 560.146 298.257 C 550.632 316.568 542.203 335.508 533.176 354.068 C 524.332 372.252 514.025 391.136 507.483 410.258 C 507.003 411.661 506.478 413.052 505.982 414.45 L 506.698 414.941 C 528.182 374.386 540.726 347.123 571.28 310.932 C 569.508 318.954 568.563 326.865 567.773 335.037 C 573.235 330.501 578.62 325.936 583.841 321.125 C 576.796 345.35 567.829 368.997 560.179 393.039 C 538.204 462.103 526.917 531.942 542.773 603.765 C 546.237 619.453 551.55 643.253 559.598 656.872 C 559.805 657.222 560.05 657.549 560.276 657.888 L 560.835 658.995 L 560.276 657.888 C 555.124 634.834 546.565 613.434 543.086 589.773 C 533.58 525.124 549.191 456.41 570.091 395.493 C 577.181 374.827 584.207 353.689 597.336 335.977 C 598.863 340.967 600.955 345.765 602.922 350.594 C 606.145 343.503 610.652 338.053 615.731 332.261 C 610.438 355.187 590.303 414.406 591.118 434.001 C 594.732 426.26 595.798 417.013 598.242 408.816 C 601.738 397.09 606.712 385.13 611.597 373.913 C 620.146 354.281 629.6 335.044 638.175 315.416 C 647.814 293.352 656.593 270.607 667.873 249.326 C 678.188 229.868 692.185 212.762 702.549 193.544 L 703.169 192.796 L 703.873 192.005 L 703.169 192.796 L 702.549 193.544 C 691.077 202.756 673.209 227.759 663.008 240.031 C 643.539 263.454 623.234 285.908 601.012 306.747 C 610.568 274.71 626.261 248.767 645.803 221.941 C 634.997 232.113 625.388 243.635 615.045 254.281 C 606.664 262.908 597.456 270.705 588.352 278.551 C 605.751 237.344 624.667 207.502 656.477 176.055 C 665.85 166.788 676.711 158.821 685.731 149.249 L 686.295 148.639 L 687 148 L 687.995 147.169 L 687 148 z M 1314.08 147.005 L 1314.56 147.437 L 1315.15 148.086 C 1324.92 158.732 1336.74 168.071 1347.31 177.989 C 1373.16 202.262 1392.97 230.559 1405.83 263.619 C 1400.77 257.752 1394.63 249.02 1387.76 245.501 L 1387.25 245.133 L 1387.76 245.501 C 1391.78 261.643 1393.76 278.006 1398.32 294.063 C 1379.36 278.008 1361.18 262.325 1344.38 243.928 C 1353.67 261.843 1359.26 277.346 1363.01 297.187 C 1350.07 285.241 1338.14 272.185 1326.07 259.372 C 1318.19 250.997 1310.14 241.245 1300.66 234.704 L 1300 234 L 1299.09 233.102 L 1300 234 L 1300.66 234.704 C 1308.57 247.204 1318.7 258.261 1326.69 270.844 C 1339.77 291.419 1350.47 313.666 1361.68 335.29 C 1392.38 394.501 1413.28 436.558 1421.9 503.491 C 1424.71 525.576 1426.48 547.779 1427.23 570.028 C 1427.61 580.67 1426.51 599.485 1428.68 609.37 C 1432.06 597.34 1430.21 580.027 1429.85 567.428 C 1428.89 533.52 1426.56 499.307 1420.16 465.942 C 1412.86 427.875 1401.28 390.59 1391.91 353.008 C 1388.2 338.115 1386.73 322.278 1381.89 307.741 C 1409.25 333.937 1433.93 357.749 1452.46 391.438 C 1444.02 351.37 1432.04 312.131 1416.66 274.183 C 1428.58 286.937 1439.53 300.835 1450.16 314.673 C 1453.38 318.858 1456.06 323.798 1459.42 327.76 L 1459.99 328.995 L 1459.42 327.76 C 1459.36 327.457 1459.3 327.149 1459.22 326.849 C 1456.49 317.327 1449.75 306.707 1445.05 297.898 C 1417.27 245.831 1392.1 213.464 1348.4 174.199 C 1338.12 164.955 1326.66 154.151 1314.56 147.437 L 1314.08 147.005 z M 793.578 157.637 L 792.847 159.585 L 791.721 160.207 L 791.305 160.799 C 773.697 172.321 755.625 194.444 742.004 210.607 C 686.112 276.928 654.219 326.768 636.346 412.446 C 627.957 452.662 622.848 493.78 624.45 534.907 C 626.013 523.092 626.304 511.179 627.687 499.347 C 632.531 457.928 641.377 413.617 661.34 376.694 C 662.899 374.009 663.528 372.192 666.215 370.57 C 666.593 370.601 666.97 370.637 667.347 370.663 C 671.522 370.951 676.753 370.744 679.94 367.553 C 682.547 364.942 684.72 361.472 686.871 358.468 C 682.046 383.947 676.062 409.09 670.189 434.339 C 677.967 419.697 684.642 404.512 692.403 389.868 C 707.388 361.597 723.533 334.224 740.076 306.846 C 726.032 320.72 710.555 335.994 693.784 346.454 C 694.848 340.259 695.606 334.202 696.034 327.931 C 691.724 332.424 687.496 337.134 682.943 341.373 C 692.892 287.816 726.016 235.335 760.717 193.878 C 769.712 183.132 784.169 172.372 791.305 160.799 L 791.721 160.207 L 792.847 159.585 L 793.578 157.637 L 794.995 157.168 L 793.578 157.637 z M 1032.22 292.005 L 1033.01 293 L 1034.28 294.476 L 1035.3 296.634 L 1035.73 296.895 C 1037.87 303.816 1044.53 311.83 1048.86 317.625 C 1094.65 378.87 1150.25 428.016 1224.14 451.969 C 1238.64 456.67 1254.19 461.134 1269.27 463.291 C 1244.44 451.532 1216.61 446.19 1191.44 434.499 C 1141.23 411.177 1100.32 374.916 1064.53 333.239 C 1055.32 322.522 1046.39 307.223 1036.92 298.027 C 1036.53 297.645 1036.13 297.272 1035.73 296.895 L 1035.3 296.634 L 1034.28 294.476 L 1033.01 293 L 1032.22 292.005 z M 946.117 326.005 L 946.62 327.099 C 950.104 339.902 953.361 351.958 954.273 365.255 L 953.172 364.329 C 950.751 362.32 948.967 360.526 945.752 360.015 C 943.138 362.337 944.904 365.734 941.623 366.267 C 916.551 353.358 904.798 323.191 892.031 299.635 C 903.785 344.531 934.27 394.929 960.269 433.048 C 955.009 415.21 950.587 398.283 951.092 379.507 C 985.699 416.47 1016.98 479.738 1027.58 529.703 C 1032.39 552.368 1033.69 576.22 1032.95 599.365 C 1032.14 624.886 1028.93 651.525 1022.92 676.351 C 1017.41 699.13 1009.96 721.368 1004.76 744.231 C 1015.25 719.48 1024.49 694.975 1029.78 668.532 C 1041.71 608.803 1034.44 525 1023.52 465.129 C 1018.1 435.441 1010.25 406.652 1006.72 376.549 L 1007.66 377.721 C 1017.28 389.773 1024.57 403.637 1033.57 416.162 C 1058.19 450.42 1085.02 479.933 1119.2 504.823 C 1126.25 509.956 1134 516.01 1141.97 519.607 L 1144 521 L 1145.48 522.277 L 1147.58 523.275 L 1147.99 523.84 L 1147.58 523.275 L 1145.48 522.277 L 1144 521 L 1141.97 519.607 C 1136.44 514.077 1129.22 509.367 1123.05 504.466 C 1110.98 494.879 1099.24 485.009 1088.54 473.883 C 1034 417.164 997.523 338.693 975.543 263.79 C 971.357 249.573 967.647 235.22 964.42 220.755 C 963.105 215.046 962.631 208.56 960.863 203.079 C 961.267 217.807 963.629 232.055 965.609 246.63 C 970.698 284.098 977.903 322.948 975.97 360.835 C 963.532 351.966 955.944 338.842 946.62 327.099 L 946.117 326.005 z M 823.421 240.844 C 804.635 279.9 794.412 326.513 791.971 369.673 C 788.544 430.27 803.549 492.836 831.648 546.443 C 836.943 556.544 842.83 568.48 850.413 576.954 L 851.283 578.396 L 851.792 578.995 L 851.283 578.396 L 850.413 576.954 C 845.124 562.228 835.755 548.145 829.374 533.68 C 811.735 492.68 801.009 449.043 797.631 404.538 C 794.802 364.164 800.522 323.181 811.186 284.248 C 813.165 277.023 825.809 241.935 825.109 239.129 L 823.421 240.844 z M 840.299 192.668 C 829.823 227.022 823.168 260.75 820.69 296.604 C 814.603 384.702 829.134 480.688 866.227 561.148 C 873.657 577.267 881.766 594.476 893.488 607.918 L 894.306 609.348 L 895.232 610.271 C 895.97 611.416 896.574 612.341 897.536 613.316 L 897.82 613.995 L 897.536 613.316 L 895.232 610.271 L 894.306 609.348 L 893.488 607.918 C 890.397 599.569 885.148 591.338 881.103 583.368 C 874.649 570.473 868.741 557.312 863.392 543.921 C 831.25 462.447 819.673 370.894 826.39 283.789 C 827.819 265.256 829.869 246.539 833.548 228.304 C 835.909 216.6 841.02 203.354 841.528 191.639 L 840.299 192.668 z M 898.219 615.005 L 898.731 616.469 L 899.829 616.995 L 898.731 616.469 L 898.219 615.005 z M 948.166 659.005 L 949.327 659.49 L 949.802 660.995 L 949.327 659.49 L 948.166 659.005 z M 950.152 662.005 L 950.548 663.524 L 952.548 665.423 L 953.104 666.281 L 954.304 668.553 L 954.83 668.995 L 954.304 668.553 L 953.104 666.281 L 952.548 665.423 L 950.548 663.524 L 950.152 662.005 z M 955.203 670.005 L 955.68 671.51 L 956.825 671.995 L 955.68 671.51 L 955.203 670.005 z M 957.181 673.005 L 957.615 674.488 L 959.488 676.414 L 959.844 676.995 L 959.488 676.414 L 957.615 674.488 L 957.181 673.005 z M 677.322 695.475 L 676.005 696.995 L 677.322 695.475 L 677.767 694.005 L 677.322 695.475 z M 872.362 726.498 C 867.94 724.047 864.231 720.875 860.339 717.682 C 863.808 721.661 871.236 728.049 872.784 732.737 L 871.707 732.31 C 859.895 727.723 849.866 727.169 837.573 725.068 C 827.038 723.268 816.488 720.89 806.135 718.239 C 777.45 710.895 751.662 698.407 722.012 693.544 C 704.018 713.058 690.443 729.605 670.185 747.957 C 678.33 728.484 689.792 708.618 704.047 693.003 C 697.291 692.998 690.449 692.788 683.711 693.257 C 672.516 708.08 670.337 721.852 670.785 739.89 C 670.902 744.603 671.444 748.486 669.548 752.937 C 670.19 754.623 669.846 754.816 671.645 755.611 C 675.188 757.178 683.101 757.801 686.81 756.538 C 687.8 756.201 687.953 755.985 688.653 755.396 L 688.606 755.153 C 688.249 755.068 687.892 754.988 687.537 754.897 C 680.923 753.199 674.799 750.679 668.502 748.077 C 682.829 750.603 694.876 752.764 709.099 747.902 C 702.956 746.292 696.788 744.78 690.598 743.366 C 742.321 741.655 810.678 730.853 851.88 769.596 C 863.061 780.11 871.333 790.129 875.297 805.125 C 871.833 808.375 866.723 813.922 861.754 813.941 C 863.613 808.087 873.847 808.001 869.067 799.345 C 865.847 793.513 858.251 787.701 852.746 783.905 C 838.852 798.214 823.035 810.061 802.126 810.177 C 791.054 810.239 781.075 805.692 773.338 797.855 C 764.286 788.686 757.595 774.094 757.922 760.971 C 757.991 758.816 758.128 756.663 758.333 754.517 C 746.833 754.634 717.574 756.664 709.033 765.083 C 707.648 766.449 707.103 767.049 707.153 768.963 C 707.387 778.03 720.864 790.021 727.46 795.572 C 751.778 816.037 784.99 823.361 816.252 820.548 C 824.39 819.815 832.879 817.293 840.972 817.512 C 836.431 819.818 830.222 820.274 825.197 821.162 C 798.651 825.854 773.939 823.995 748.353 815.199 C 731.223 809.31 716.645 793.052 706.724 778.627 C 706.278 783.798 710.824 789.152 713.975 792.879 C 720.372 800.446 729.551 805.839 735.518 813.543 C 731.82 816.421 725.648 816.28 721.199 817.739 C 718.156 818.738 715.212 820.568 712.424 822.131 C 714.9 818.938 720.557 813.125 720.808 809.37 L 721.163 810.426 L 721.269 809.134 C 718.046 809.432 713.799 810.324 710.734 809.346 C 711.172 806.686 714.302 802.639 713.191 800.667 C 709.984 800.598 702.523 803.046 700.325 801.885 C 701.663 799.247 704.649 798.401 707.423 797.508 C 708.602 797.129 709.8 796.799 710.994 796.469 L 710.96 795.482 C 708.28 794.416 705.614 793.398 703.067 792.032 L 705.499 787.913 L 705.007 786.632 C 700.702 786.104 696.152 786.64 692.251 784.589 L 691.848 783.509 C 694.491 782.884 696.864 782.613 699.558 782.443 C 692.439 774.571 671.772 767.055 667.075 761.005 C 661.194 753.43 666.625 738.637 655.78 726.174 C 653.564 727.88 653.492 730.264 653.215 733.01 C 651.284 752.133 663.987 804.902 668.952 824.754 C 670.956 832.765 673.835 840.763 675.345 848.857 C 665.493 836.355 659.089 818.945 652.598 804.484 C 654.278 814.313 657.138 823.656 660.537 833.011 C 671.914 864.328 684.327 895.32 696.07 926.51 C 716.286 980.207 735.651 1036.94 767.92 1084.85 C 794.045 1123.65 828.737 1158.58 862.548 1190.64 C 888.438 1215.2 920.57 1245.27 953.159 1260.22 C 975.735 1270.58 1007.51 1267.65 1030.18 1259.03 C 1063.53 1246.35 1131.23 1187.24 1158.08 1160.97 C 1178.19 1141.29 1196.39 1119.12 1214.31 1097.45 C 1225.47 1083.95 1237.97 1070.36 1246.41 1054.96 C 1262.92 1024.85 1276.06 991.07 1287.9 958.844 C 1292.42 946.559 1295.54 933.507 1300.96 921.609 C 1301.14 921.212 1301.33 920.818 1301.51 920.423 C 1302.27 930.74 1301.91 941.465 1309.16 949.72 C 1314.22 955.48 1322.14 960.585 1329.96 961.052 C 1337.77 961.519 1345.26 958.456 1351.5 953.941 C 1362.56 945.952 1380.1 923.122 1391.11 912.056 C 1407.6 895.475 1425.59 881.259 1442.87 865.628 C 1461.15 849.084 1468.67 832.123 1469.8 807.543 C 1471.21 776.699 1463.05 726.383 1440.95 703.154 C 1437.34 699.364 1434.02 696.549 1428.53 696.692 C 1409.57 697.186 1370.14 751.626 1360.63 768.075 C 1342.13 800.075 1330.84 838.696 1304.84 865.832 C 1309.72 826.435 1316.58 778.16 1309.78 738.743 C 1288.55 720.397 1266.6 702.189 1244.14 685.38 C 1225.7 691.552 1205.61 695.154 1186.63 699.551 C 1137.01 711.051 1082.88 726.711 1031.84 715.381 C 1022.63 731.167 1013.23 746.335 1002.42 761.088 C 1000.07 747.774 997.542 739.75 990.599 728.154 L 990.051 727.005 L 990.599 728.154 C 991.383 732.159 992.555 736.153 993.544 740.117 C 977.07 725.058 968.122 704.32 958.502 684.591 C 964.237 710.654 977.259 733.711 991.319 756.045 C 980.192 746.451 969.092 736.829 957.322 728.022 C 931.64 708.804 904.207 691.333 882.647 667.26 C 869.329 652.391 859.081 635.796 848.65 618.883 C 863.202 657.273 885.946 693.339 908.821 727.252 C 908.416 726.994 908.009 726.739 907.608 726.477 C 891.958 716.241 878.482 699.511 867.17 684.772 C 820.858 624.428 801.293 567.447 786.178 493.588 C 784.991 553.252 793.728 635.927 831.246 683.865 C 853.59 692.558 871.826 704.241 883.277 725.833 C 876.951 721.519 870.461 717.451 863.821 713.638 C 867.493 717.808 870.429 721.181 872.362 726.498 z M 619.777 818.942 C 620.609 827.022 621.533 835.061 623.348 842.991 C 628.713 866.432 640.021 885.408 660.577 898.302 L 660.978 898.831 L 660.577 898.302 C 657.95 893.232 654.245 888.441 651.145 883.627 C 639.314 865.255 631.926 851.882 629.137 829.665 C 625.981 826.124 622.895 822.516 619.777 818.942 z M 991.693 1595.32 C 1002.57 1577.97 1013.61 1559.51 1028.16 1544.99 C 1043.96 1529.21 1061.94 1514.85 1078.55 1499.85 C 1086.63 1492.55 1095.88 1485.2 1102.01 1476.11 C 1110.78 1463.1 1114.18 1442.98 1119.2 1428.05 C 1137.03 1375.1 1153.82 1321.81 1169.57 1268.21 C 1177.2 1242.88 1183.08 1216.48 1192.34 1191.74 C 1188.23 1219.46 1177.97 1249.32 1170.26 1276.41 C 1151.71 1342.7 1130.89 1408.34 1107.83 1473.2 C 1167.49 1416.72 1226.57 1358.39 1262.21 1283.18 C 1257.87 1257.04 1260.45 1228.09 1262.13 1201.77 C 1263.92 1169.28 1266.65 1136.83 1270.33 1104.49 C 1273.16 1078.06 1276.79 1051.65 1278.8 1025.15 C 1270.44 1038.95 1262.68 1052.87 1253.63 1066.27 C 1233.27 1096.44 1210.3 1125.01 1188.45 1154.12 C 1153.5 1200.69 1111.52 1255.97 1069.89 1296.09 C 1045.14 1319.95 1011.4 1353.41 974.93 1352.71 C 962.759 1351.24 952.482 1345.79 943.145 1338.09 C 920.371 1319.34 903.729 1293.46 887.032 1269.48 L 840.891 1202.62 C 827.756 1183.2 815.065 1163.29 800.346 1145.02 C 810.923 1191.61 813.575 1242.06 816.82 1289.65 C 817.718 1302.82 815.869 1330.27 819.336 1340.72 C 822.834 1351.27 829.642 1361.38 835.229 1370.93 C 861.133 1415.2 891.329 1459.31 927.317 1496.05 C 938.946 1507.92 961.149 1523.36 969.386 1535.28 C 981.13 1552.27 983.305 1576.44 991.693 1595.32 z M 920.005 1616.13 L 921.513 1616.57 L 923.62 1618.6 L 925.564 1619.2 C 925.696 1619.45 925.788 1619.72 925.96 1619.94 C 928.642 1623.4 935.084 1624.57 939.087 1625.35 C 936.117 1622.35 929.714 1620 925.564 1619.2 L 923.62 1618.6 L 921.513 1616.57 L 920.005 1616.13 z M 1786.86 2037.88 L 1786.26 2038.99 L 1786.86 2037.88 C 1794.07 2019.7 1797.65 1997.62 1803.43 1978.68 C 1817.4 1931.84 1832.79 1885.43 1849.59 1839.53 C 1862.93 1801.99 1876.09 1764.18 1891.25 1727.34 C 1899.23 1707.96 1906.58 1688.3 1914.62 1668.97 C 1919.76 1656.62 1926.32 1644.05 1930.09 1631.26 C 1932.86 1621.84 1928.83 1611.82 1926.38 1602.66 C 1925.7 1601.35 1925.02 1600.25 1924.19 1599.04 C 1920.32 1604.84 1919.26 1613.86 1917.02 1620.57 C 1912.46 1634.26 1907.49 1647.92 1902.35 1661.4 C 1892.46 1687.4 1880.99 1712.78 1870.95 1738.73 C 1840.94 1816.29 1814.33 1895.31 1797.62 1976.9 C 1793.71 1995.97 1787.58 2018.62 1786.86 2037.88 z M 917.513 29.4153 C 889.812 31.487 866.446 38.3404 841.438 50.3554 C 865.159 45.0691 890.638 39.0688 915.033 38.9629 C 941.691 38.6366 964.338 40.992 989.965 49.1286 C 967.722 34.2359 944.697 26.4464 917.513 29.4153 z M 988.239 48.5 L 989.39 48.5 L 988.239 48.5 z M 844.265 49.5 L 845.49 49.5 L 844.265 49.5 z M 689.223 146.5 L 690.314 146.5 L 689.223 146.5 z M 524.448 321.5 L 525.158 321.5 L 524.448 321.5 z M 945.544 324.5 L 946.49 324.5 L 945.544 324.5 z M 505.416 416.985 L 505.988 417.5 L 505.416 416.985 z M 959.376 431.5 L 960.02 431.5 L 959.376 431.5 z M 590.556 436.5 L 591.49 436.5 L 590.556 436.5 z M 716.51 441.437 C 716.576 474.226 715.984 507.242 711.714 539.787 C 710.606 548.237 709.535 556.836 707.79 565.179 C 705.639 575.459 695.628 605.869 697.582 614.323 C 713.033 565.602 717.465 521.494 718.435 470.703 C 718.571 463.554 720.257 448.85 717.163 442.533 C 716.976 442.151 716.728 441.802 716.51 441.437 z M 748.145 447.671 C 750.276 516.41 749.357 606.89 705.902 663.848 C 704.67 665.463 705.065 664.782 704.654 666.944 L 706.76 666.934 L 717.458 667.644 C 744.452 613.726 754.173 536.296 751.467 476.5 C 751.125 468.922 752.138 456.953 749.577 450.014 C 749.108 448.741 748.887 448.589 748.145 447.671 z M 1084.19 557.773 C 1084.27 595.737 1086.19 649.404 1064.75 681.767 C 1067.76 655.046 1073.72 627.364 1072.86 600.428 C 1065.61 626.042 1062.92 653.161 1051.91 677.628 L 1048.55 684.68 C 1069.7 681.442 1090.87 678.418 1112.08 675.607 C 1128.17 673.561 1144.91 672.326 1160.71 668.672 C 1130.88 645.992 1112.41 618.051 1096.72 584.504 C 1093 576.553 1089.48 564.47 1084.19 557.773 z M 1131.03 575.837 C 1136.87 602.185 1154.78 647.996 1174.72 667.315 C 1186.3 665.969 1197.94 664.281 1209.57 663.547 L 1210.64 662.266 C 1208.96 660.693 1207.33 659.427 1205.44 658.118 C 1183.78 643.138 1163.16 620.776 1147.71 599.488 C 1142.41 592.176 1137.42 581.947 1131.03 575.837 z M 769.553 584.813 C 765.954 611.887 750.556 643.267 736.39 666.558 C 755.116 668.791 774.107 673.472 792.248 678.586 L 820.803 685.896 C 795.709 657.423 776.954 623.222 770.343 585.651 L 769.553 584.813 z M 696.556 615.5 L 697.49 615.5 L 696.556 615.5 z M 1262.89 616.745 C 1264.87 630.852 1268.33 644.706 1272.01 658.451 C 1275.99 658.465 1279.98 658.553 1283.96 658.31 C 1279.66 647.637 1270.06 624.976 1262.89 616.745 z M 849.432 620.5 L 850.196 620.5 L 849.432 620.5 z M 937.394 643.5 L 938.282 643.5 L 937.394 643.5 z M 1283.03 680.452 L 1279.75 681.688 C 1277.97 688.394 1286.26 701.052 1289.58 706.775 C 1294.91 716.101 1300.91 725.031 1307.53 733.494 L 1308.61 734.365 C 1311.14 720.072 1302.14 692.882 1297.62 679.27 L 1283.03 680.452 z M 962.396 681.5 L 963.216 681.5 L 962.396 681.5 z M 864.484 713.5 L 865.49 713.5 L 864.484 713.5 z M 567.864 718.301 C 564.546 733.123 566.193 753.784 565.363 769.485 C 564.037 794.57 558.82 820.85 561.628 845.868 C 562.36 852.387 564.54 857.584 568.026 863.108 C 581.444 884.368 605.399 897.563 624.59 913.032 C 637.392 923.234 649.243 934.575 659.996 946.918 C 668.111 956.209 680.593 975.397 693 978.289 C 696.062 979.002 699.157 979.261 702.287 979.447 C 697.717 964.727 688.59 936.566 679.992 924.574 C 679.327 924.682 678.665 924.806 677.998 924.898 C 673.297 925.546 669.652 923.092 666.199 920.154 C 656.151 911.602 648.568 900.346 638.524 891.749 C 618.913 873.474 608.63 847.892 607.642 821.166 C 607.354 813.384 607.82 806.026 609.425 798.412 L 609.742 796.846 C 617.109 805.79 628.52 816.438 634.141 825.982 C 642.751 840.601 646.039 858.18 654.468 872.82 C 659.366 881.325 666.729 888.495 672.899 896.075 C 666.42 881.928 655.959 863.933 653.305 848.973 C 652.305 843.333 651.337 838.685 648.314 833.716 C 640.051 820.132 627.67 809.955 618.458 797.226 C 609.262 784.52 601.914 769.631 593.538 756.272 C 587.853 747.205 578.018 725.1 570.09 719.371 C 569.202 718.729 568.793 718.638 567.864 718.301 z M 989.483 725.5 L 990.261 725.5 L 989.483 725.5 z M 778.718 770.168 L 778.439 771.115 C 777.788 773.27 777.641 774.29 776.024 775.955 C 775.337 782.768 776.69 788.483 781.203 793.805 C 782.691 795.56 784.457 797.075 786.202 798.568 C 796.423 801.049 811.398 802.456 820.698 796.635 C 823.982 794.58 826.204 791.288 828.094 787.984 C 829.046 784.985 829.736 782.718 829.478 779.507 L 827.961 777.919 C 816.952 778.934 810.326 789.138 806.783 790.062 C 806.37 790.169 805.972 789.797 805.566 789.664 C 798.034 781.217 789.637 773.964 778.718 770.168 z M 1276.22 1174.62 C 1275.86 1179.29 1275.31 1184.03 1275.25 1188.71 C 1287.61 1205.95 1291.33 1226.36 1287.8 1247.17 C 1284.1 1268.93 1273.48 1290.26 1262.71 1309.33 C 1222.51 1380.54 1163.45 1441.81 1102.34 1495.57 C 1081.69 1513.74 1058.2 1529.49 1038.22 1548.2 C 1048.5 1558.95 1058.37 1569.81 1067.25 1581.76 C 1091.53 1614.45 1110.77 1650.93 1137.23 1682.09 C 1155.38 1703.93 1178.98 1725.13 1206.44 1734.19 C 1226.46 1694.2 1245.07 1653.62 1264.5 1613.36 C 1274.59 1592.46 1287.43 1571.86 1295.1 1549.97 C 1310.78 1505.28 1317.99 1457.59 1325.12 1410.94 C 1328.36 1389.71 1335.15 1357.8 1333.2 1337.11 C 1331.46 1318.65 1317.8 1284.16 1312.28 1264.34 C 1307.27 1246.32 1304.58 1227.48 1298.71 1209.75 C 1294.26 1196.29 1288.07 1183.13 1276.22 1174.62 z M 795.583 1200.68 C 787.816 1207.05 781.984 1212.8 777.487 1221.9 C 766.791 1243.55 757.902 1289.58 750.515 1315.24 C 745.627 1332.22 734.696 1358.12 732.968 1374.58 C 731.255 1390.92 738.312 1420.99 740.813 1438.49 C 745.668 1474.33 751.349 1510.05 757.851 1545.63 C 760.269 1559.51 761.908 1573.81 765.065 1587.53 C 769.388 1606.31 776.138 1624.86 782.132 1643.18 C 792.037 1673.44 801.965 1704.52 815.03 1733.6 C 836.012 1690.68 856.705 1648.99 884.1 1609.67 C 895.959 1593.8 922.864 1560.3 942.778 1557.42 C 946.87 1556.83 950.77 1557.64 954.111 1560.12 C 962.747 1566.55 969.755 1577.96 976.234 1586.55 C 972.922 1571.42 970.841 1554.56 962.989 1541.08 C 896.46 1500.01 802.407 1362.62 784.303 1286.87 C 779.067 1264.96 779.842 1245.26 789.25 1224.65 C 791.872 1239.97 792.833 1255.41 793.802 1270.89 C 796.189 1266.75 799.431 1262.02 800.476 1257.34 C 803.349 1244.46 799.45 1214.63 795.908 1201.71 C 795.813 1201.36 795.691 1201.02 795.583 1200.68 z M 1274.71 1208.35 C 1274.93 1219.27 1275.24 1230.26 1277.4 1241 L 1278.42 1241.48 C 1278.11 1234.58 1278.84 1213.18 1274.71 1208.35 z M 1430.66 1326.65 C 1454.2 1377.93 1473.05 1431.39 1495.12 1483.35 C 1504.12 1504.53 1513.04 1525.66 1522.82 1546.49 C 1530.22 1562.24 1538.88 1578.07 1545.18 1594.24 C 1542.49 1597.14 1539.9 1599.85 1536.35 1601.7 C 1512.8 1613.96 1450.15 1619.64 1422.14 1620.66 L 1371.88 1622.02 C 1373.51 1624.3 1375.2 1626.53 1376.52 1629.01 L 1390.23 1628.56 C 1449.27 1625.82 1507.15 1622.73 1563.78 1604.2 C 1541.11 1558.96 1515.66 1515.22 1495.28 1468.8 C 1488.09 1452.71 1481.42 1436.39 1475.27 1419.87 C 1467.92 1399.87 1461.33 1379.29 1452.07 1360.08 C 1447.36 1350.31 1439.45 1333.17 1430.66 1326.65 z M 1461.51 1354.73 L 1461.91 1355.92 C 1467.66 1372.58 1476.17 1388.62 1483.01 1404.88 C 1494.74 1432.77 1505.76 1461 1518.7 1488.37 C 1532.02 1516.52 1547.41 1543.93 1562.65 1571.08 C 1567.99 1580.59 1573.28 1590.15 1578.73 1599.59 C 1581.32 1604.07 1585.04 1608.72 1586.87 1613.51 C 1587.65 1615.54 1587.51 1617.18 1586.92 1619.22 C 1580.91 1624.95 1560.74 1625.84 1552.01 1627.36 C 1527.42 1631.64 1502.96 1636.77 1478.19 1640 C 1448.83 1643.82 1419.18 1645.01 1389.6 1645.35 C 1392.69 1650 1395.51 1654.63 1401.47 1655.65 C 1403.6 1656.01 1405.81 1656.13 1407.97 1656.27 C 1441.84 1657.61 1474.61 1651.86 1507.9 1646.47 C 1540.82 1641.31 1573.58 1635.13 1606.13 1627.95 C 1598.18 1613.51 1588.81 1599.92 1580.64 1585.61 C 1556.02 1542.49 1530.3 1494.67 1509.64 1449.6 C 1499.07 1426.55 1479.3 1369.79 1461.51 1354.73 z M 168.238 1525.9 L 159.261 1529.62 C 147.932 1559.43 150.226 1593.27 152.33 1624.65 C 155.909 1680.43 164.303 1735.79 177.418 1790.12 C 187.107 1829.58 199.487 1868.19 211.157 1907.09 C 216.815 1925.95 221.282 1945.7 227.792 1964.24 C 228.414 1966.18 229.114 1970.37 230.669 1971.53 C 229.246 1960.58 225.948 1949.59 223.351 1938.85 L 210.386 1885.31 C 196.613 1828.43 183.505 1771.17 175.695 1713.12 C 170.058 1671.22 165.454 1627.96 165.206 1585.65 C 165.149 1574.15 165.585 1562.64 166.511 1551.18 C 167.161 1543.89 170.552 1532.97 169.251 1526.1 L 168.238 1525.9 z M 1032.57 1554.77 C 1013.86 1574.18 1001.72 1599.07 984.507 1619.66 C 994.359 1617.97 1004.04 1616.13 1013.63 1613.24 C 1030.58 1607.73 1047.49 1601.84 1064.66 1597.08 C 1059.6 1589.29 1054.49 1581.51 1048.61 1574.29 C 1043.34 1567.82 1036.89 1562.2 1032.74 1554.97 C 1032.7 1554.89 1032.63 1554.83 1032.57 1554.77 z M 948.488 1562.75 C 933.073 1574.01 918.039 1584.49 907.914 1601.14 C 923.492 1609.75 940.793 1614.43 956.38 1622.82 C 959.375 1622.29 972.296 1621.03 973.87 1619.41 L 973.159 1619.36 C 963.001 1619.04 956.117 1617.4 948.93 1609.55 C 947.225 1607.69 945.695 1605.6 944.175 1603.6 C 956.789 1606.87 969.361 1610.3 981.888 1613.9 L 984.785 1603.94 C 978.785 1592.61 962.836 1566.72 949.544 1562.94 C 949.2 1562.84 948.84 1562.81 948.488 1562.75 z M 1066.45 1603.82 C 1053.85 1609.29 1041.28 1614.54 1028.2 1618.82 L 1050.14 1620.2 C 1060.77 1621.45 1071.45 1622.52 1082.05 1623.97 C 1078.84 1618.79 1072.27 1605.35 1066.67 1603.83 C 1066.6 1603.81 1066.53 1603.83 1066.45 1603.82 z M 914.267 1613.5 L 915.49 1613.5 L 914.267 1613.5 z M 916.273 1614.5 L 917.49 1614.5 L 916.273 1614.5 z M 918.273 1615.5 L 919.49 1615.5 L 918.273 1615.5 z M 939.76 1625.5 L 941.49 1625.5 L 939.76 1625.5 z M 947.535 1631.15 C 937.292 1633.48 928.465 1636.05 920.055 1642.73 C 969.939 1658.12 1022.47 1678.18 1064.61 1709.64 L 1075.84 1718.19 C 1078.29 1712.29 1080.46 1706.66 1081.9 1700.42 C 1054.4 1671.87 1009.5 1653.11 972.88 1638.97 C 965.844 1636.25 956.028 1631.03 948.655 1631.05 C 948.28 1631.05 947.908 1631.11 947.535 1631.15 z M 882.646 1633.54 C 870.91 1653.46 858.604 1673.24 847.645 1693.59 C 838.613 1710.36 831.77 1729.47 820.082 1744.56 C 843.381 1799.38 870.312 1850.76 902.675 1900.78 C 906.619 1906.37 910.504 1912.01 914.54 1917.53 C 926.414 1881.88 940.141 1842.85 946.008 1805.85 C 940.652 1804.52 936.338 1802.83 931.483 1800.18 C 932.095 1774.49 921.633 1749.37 916.307 1724.38 C 911.008 1699.52 907.22 1674.42 902.476 1649.46 C 895.706 1644.47 889.369 1638.31 882.646 1633.54 z M 1109.32 1671.41 C 1098.74 1697.88 1085.9 1723.1 1073.25 1748.63 C 1066.66 1761.93 1060.69 1776.99 1051.73 1788.85 C 1048.9 1792.61 1046.14 1795.1 1042 1797.3 C 1060.45 1843.7 1069.33 1894.34 1075.53 1943.69 C 1084.03 1932.58 1092.72 1921.4 1100.42 1909.72 C 1121.77 1878.47 1142.16 1846.58 1161.56 1814.08 C 1174.84 1792 1188.42 1769.6 1199.51 1746.32 C 1168.51 1733.82 1146.63 1716.78 1125.5 1690.97 C 1120.55 1684.92 1115.6 1675.82 1109.32 1671.41 z M 936.903 1760.43 C 938.876 1767.65 941.094 1774.88 942.733 1782.17 C 967.91 1799.35 977.656 1798.62 1007.35 1795.44 C 1005.49 1792.07 997.724 1790.51 993.847 1788.96 C 982.91 1784.58 971.771 1779.71 961.403 1774.11 C 953.253 1769.71 945.363 1764.16 936.903 1760.43 z M 955.845 1803.92 C 954.212 1814.5 952.806 1825.19 950.838 1835.71 C 954.993 1831.52 959.299 1827.39 963.245 1823 C 968.678 1816.71 974.069 1810.38 979.42 1804.02 C 971.576 1803.97 963.683 1803.72 955.845 1803.92 z M 1043.5 1834.66 C 1019.78 1882.23 980.563 1922.97 944.321 1961.16 C 947.726 1965.7 951.148 1970.13 954.861 1974.42 L 956.946 1975.35 C 971.874 1967.68 1018.25 1910.92 1028.18 1894.83 C 1036.48 1881.36 1043.13 1866.88 1048.99 1852.21 C 1047.95 1847.66 1046.85 1837.85 1043.5 1834.66 z M 1471.76 1949.73 C 1458.58 1966.99 1445.23 1987.07 1434.79 2006.1 C 1453.19 2006.36 1471.56 2005.4 1489.96 2005.66 C 1533.13 2005.9 1576.25 2008.69 1619.09 2014.02 C 1632.89 2015.64 1647.69 2016.54 1661.25 2019.33 C 1670.44 2020.84 1679.55 2022.46 1688.65 2024.44 C 1692.44 2004.95 1693.35 1985.15 1694.16 1965.36 C 1673.55 1959.99 1645.63 1959.93 1624 1958.31 C 1590.67 1955.8 1557.31 1953.76 1523.92 1952.19 C 1506.64 1951.29 1489.05 1949.64 1471.76 1949.73 z M 231.294 1974.91 L 232.403 1975.5 L 231.294 1974.91 z"/>
<path transform="translate(0,0)" fill="rgb(0,0,0)" d="M 541.831 155.203 L 542.451 154.458 L 541.831 155.203 z"/>
<path transform="translate(0,0)" fill="rgb(0,0,0)" d="M 540.775 156.363 L 541.831 155.203 L 540.775 156.363 z"/>
<path transform="translate(0,0)" fill="rgb(0,0,0)" d="M 538.403 159.36 C 539.076 158.31 539.985 157.332 540.775 156.363 C 540.017 157.35 539.273 158.474 538.403 159.36 z"/>
<path transform="translate(0,0)" fill="rgb(0,0,0)" d="M 538.079 159.848 L 538.403 159.36 L 538.079 159.848 z"/>
<path transform="translate(0,0)" fill="rgb(0,0,0)" d="M 1117.49 716.5 L 1115.76 716.5 L 1117.49 716.5 z"/>
<path transform="translate(0,0)" fill="rgb(0,0,0)" d="M 1103 723 L 1103 721.693 C 1095.56 720.925 1072.58 736.667 1064.05 739.814 C 1066.85 736.868 1069.58 733.817 1072.55 731.048 C 1085.82 721.834 1101.36 719.389 1116.82 715.924 C 1112.49 718.443 1107.74 721.307 1103 723 z"/>
<path transform="translate(0,0)" fill="rgb(0,0,0)" d="M 802.49 720.5 L 801.263 720.5 L 802.49 720.5 z"/>
<path transform="translate(0,0)" fill="rgb(0,0,0)" d="M 859.358 751.842 C 848.788 748.163 838.647 740.249 828.937 734.559 C 820.021 729.335 810.789 724.986 801.289 720.95 C 811.588 720.938 824.805 727.08 833.966 731.56 C 842.315 735.643 856.145 742.612 859.358 751.842 z"/>
<path transform="translate(0,0)" fill="rgb(0,0,0)" d="M 1100.17 724.417 L 1103 723 L 1100.17 724.417 z"/>
<path transform="translate(0,0)" fill="rgb(0,0,0)" d="M 1099.01 724.909 L 1100.17 724.417 L 1099.01 724.909 z"/>
<path transform="translate(0,0)" fill="rgb(0,0,0)" d="M 1098.49 725.5 L 1097.28 725.5 L 1098.49 725.5 z"/>
<path transform="translate(0,0)" fill="rgb(0,0,0)" d="M 872.362 726.498 L 872.847 726.838 L 872.362 726.498 z"/>
<path transform="translate(0,0)" fill="rgb(0,0,0)" d="M 1094.95 726.942 L 1095.99 726.144 L 1094.95 726.942 z"/>
<path transform="translate(0,0)" fill="rgb(0,0,0)" d="M 1230.51 731.1 C 1190.84 727.275 1151.6 727.884 1112.78 737.763 C 1105.25 739.679 1096.15 741.529 1090.05 746.569 C 1086.99 749.095 1085.04 753.163 1083.67 756.807 C 1084.31 748.8 1087.71 745.744 1092.96 740.127 C 1072.64 750.952 1068.42 755.269 1057.39 775.371 L 1055.94 775.444 L 1054.55 772.922 C 1054.44 769.007 1055 766.72 1057.07 763.36 C 1068.66 744.535 1086.71 737.521 1107.4 732.972 C 1128.66 728.296 1213.53 720.294 1230.51 731.1 z M 1056.46 772.5 L 1057.49 772.5 L 1056.46 772.5 z"/>
<path transform="translate(0,0)" fill="rgb(0,0,0)" d="M 1092.03 728.372 C 1092.74 727.346 1093.79 727.325 1094.95 726.942 C 1093.84 727.753 1093.42 728.155 1092.03 728.372 z"/>
<path transform="translate(0,0)" fill="rgb(0,0,0)" d="M 885.359 728.639 L 884.038 728.161 L 885.359 728.639 z"/>
<path transform="translate(0,0)" fill="rgb(0,0,0)" d="M 885.359 728.639 L 885.888 730.186 L 885.359 728.639 z"/>
<path transform="translate(0,0)" fill="rgb(0,0,0)" d="M 1077.01 736.552 C 1081.1 732.38 1086.52 730.052 1092.03 728.372 C 1088.26 732.532 1082.19 734.716 1077.01 736.552 z"/>
<path transform="translate(0,0)" fill="rgb(0,0,0)" d="M 683.323 738.603 C 700.42 733.3 718 731.648 735.766 730.408 C 767.778 727.389 813.617 730.952 842.291 744.847 C 860.728 753.781 872.536 766.635 879.36 786.036 C 871.015 772.875 863.467 765.378 850.54 756.721 C 806.918 723.334 734.918 735.361 683.323 738.603 z"/>
<path transform="translate(0,0)" fill="rgb(0,0,0)" d="M 885.888 730.186 C 904.571 743.606 925.081 772.45 928.877 795.423 C 932.571 817.77 932.511 854.963 924.722 876.3 C 924.644 875.825 924.556 875.352 924.489 874.876 C 922.589 861.237 929.882 845.48 929.939 831.491 C 930.058 802.626 918.97 774.101 902.092 750.937 C 897.158 744.166 889.72 737.474 885.888 730.186 z"/>
<path transform="translate(0,0)" fill="rgb(0,0,0)" d="M 1230.51 731.1 L 1230.99 731.754 L 1230.51 731.1 z"/>
<path transform="translate(0,0)" fill="rgb(0,0,0)" d="M 1328.02 906.582 C 1342.05 895.597 1360.84 889.806 1377.09 882.639 C 1388.22 877.729 1399.09 872.144 1410.34 867.529 C 1396.14 890.888 1357.96 904.782 1333.61 914.35 C 1328.93 916.191 1323.97 918.631 1319.09 916.511 C 1317.28 913.757 1316.9 910.998 1317.09 907.746 C 1317.33 903.672 1319.1 899.101 1320.61 895.303 C 1328.85 874.469 1345.39 868.115 1361.16 854.84 L 1362.03 854.09 C 1361.98 853.723 1361.93 853.356 1361.87 852.99 C 1361.78 852.38 1361.66 851.773 1361.58 851.162 C 1359.17 834.129 1347.67 825.326 1354.72 806.815 C 1362.84 785.471 1395.99 743.147 1416.72 734.293 C 1421.66 732.181 1427.31 731.305 1432.34 733.655 C 1437.76 736.189 1441.1 742.211 1442.8 747.698 C 1444.08 751.856 1443.78 754.141 1441.72 757.947 L 1440.86 757.656 C 1439.95 755.965 1439.03 754.238 1437.93 752.662 C 1435.75 749.543 1432.25 746.701 1428.41 746.068 C 1421 744.845 1414.87 750.185 1409.4 754.302 C 1413.85 754.615 1419.36 754.488 1423.44 756.421 C 1427.19 758.191 1429.32 765.61 1430.59 769.435 C 1432.34 774.747 1436.37 787.014 1433.78 792.102 C 1430.5 791.38 1422.5 770.38 1419.76 766.193 C 1417.35 762.505 1414.55 759.887 1411.08 757.204 L 1410.02 756.396 C 1402.63 758.539 1394.42 769.539 1389.22 775.253 C 1397.26 777.568 1405.38 779.441 1411.56 785.498 C 1419.03 792.819 1419.4 802.833 1419.66 812.586 C 1414.11 804.491 1408.09 798.018 1399.18 793.469 C 1393.71 790.679 1384.34 787.132 1378.22 789.006 L 1377.62 790.55 C 1386.18 802.27 1396.03 813.107 1402.73 826.087 C 1402.91 826.44 1403.09 826.796 1403.27 827.151 C 1393.49 815.652 1383.27 806.022 1370.95 797.274 C 1358.57 818.22 1367.73 822.55 1373.58 842.569 C 1374.94 847.203 1374.81 852.829 1375.06 857.652 C 1385.77 849.884 1396.35 842.15 1408.32 836.406 C 1398.83 847.583 1387.35 856.911 1374.46 863.92 C 1363.1 870.203 1349.58 875.212 1340.65 884.917 C 1334.79 891.281 1331.52 898.809 1328.02 906.582 z"/>
<path transform="translate(0,0)" fill="rgb(0,0,0)" d="M 1070.97 807.234 C 1068.34 800.125 1068.62 794.024 1071.94 787.159 C 1081.7 766.977 1098.58 751.49 1119.9 744.508 C 1153.59 733.471 1198.9 732.603 1233.77 738.921 C 1249.32 741.74 1264.47 747.033 1280.25 748.53 C 1263.11 755.984 1246.17 767.377 1239.49 785.928 C 1239.11 786.99 1239.14 787.188 1239.04 788.166 L 1241.1 790.474 C 1238.62 795.595 1232.8 797.386 1229.82 802.041 C 1231.31 802.729 1232.73 803.233 1234.31 803.678 L 1234.18 805.081 C 1230.21 808.048 1224.62 806.285 1221.29 809.563 C 1222.33 811.106 1223.43 812.574 1224.58 814.043 L 1223.73 815.674 C 1220.95 816.289 1215.77 814.506 1214.3 816.332 L 1215.66 818.239 C 1212.36 822.548 1185.83 829.407 1179.68 830.241 C 1170.4 831.499 1152.4 834.392 1143.61 831.036 L 1144.16 831.13 L 1142.51 830.813 C 1149.33 829.76 1156.15 828.624 1162.98 827.71 L 1161.5 827.588 C 1151.27 826.808 1141.16 828.13 1130.95 828.009 C 1116.57 827.838 1102.4 819.644 1089.72 813.598 C 1119.41 817.577 1149.97 825.457 1179.84 817.831 C 1216.37 808.504 1230.24 789.294 1248.42 758.368 C 1238.05 756.946 1227.67 755.596 1217.28 754.317 C 1217.2 766.408 1214.94 776.82 1207.74 786.83 C 1199.71 797.985 1187.91 804.096 1174.51 806.13 C 1162.34 807.976 1150.43 805.564 1140.58 797.991 C 1128.13 788.426 1124.1 775.779 1122.06 760.959 C 1106.77 765.302 1089.63 777.107 1079 788.916 C 1074.17 794.275 1070.46 799.858 1070.97 807.234 z M 1188.52 772.724 L 1187.39 771.585 C 1182.15 776.53 1175.47 784.012 1167.62 783.256 C 1162.19 782.734 1159.73 779.074 1156.3 775.423 C 1154.8 773.824 1155.47 774.364 1153.44 773.45 C 1146.62 773.981 1145.4 773.701 1139.95 769.605 C 1139.01 771.88 1140.19 774.763 1141.03 777.047 C 1142.28 780.398 1144.49 783.351 1146.75 786.076 C 1154.14 792.862 1163.18 798.982 1173.69 798.463 C 1179.32 798.185 1184.36 795.725 1188.07 791.488 C 1194.06 784.649 1195.36 776.11 1197.12 767.53 L 1188.52 772.724 z M 1158.29 776.5 L 1159.49 776.5 L 1158.29 776.5 z M 1160.28 777.5 L 1161.49 777.5 L 1160.28 777.5 z M 1210 815.094 C 1201.34 818.426 1192.44 821.967 1183.34 823.899 C 1176.78 825.292 1168.44 824.697 1162.44 827.325 L 1163.2 828.311 C 1177.06 826.717 1199.82 825.384 1210.83 816.285 L 1210 815.094 z"/>
<path transform="translate(0,0)" fill="rgb(0,0,0)" d="M 610.435 794.233 C 604.144 789.011 598.604 783.001 592.958 777.105 C 593.259 800.522 589.879 824.052 591.909 847.414 C 587.067 834.169 584.183 821.493 582.694 807.46 C 580.168 786.993 573.475 763.823 572.294 744.327 C 585.166 754.875 605.605 778.223 610.435 794.233 z"/>
<path transform="translate(0,0)" fill="rgb(0,0,0)" d="M 1083.25 757.995 L 1083.67 756.807 L 1083.25 757.995 z"/>
<path transform="translate(0,0)" fill="rgb(0,0,0)" d="M 1083 763.5 L 1082.18 763.5 L 1083 763.5 z"/>
<path transform="translate(0,0)" fill="rgb(0,0,0)" d="M 1188.26 773.991 L 1188.52 772.724 L 1188.26 773.991 z"/>
<path transform="translate(0,0)" fill="rgb(0,0,0)" d="M 1190.01 783.667 L 1189.12 782.879 L 1190.37 781.287 L 1191.51 781.826 L 1190.01 783.667 z"/>
<path transform="translate(0,0)" fill="rgb(0,0,0)" d="M 610.435 794.233 L 610.825 794.921 L 610.435 794.233 z"/>
<path transform="translate(0,0)" fill="rgb(0,0,0)" d="M 1070.97 807.234 L 1073.51 808.427 L 1070.97 807.234 z"/>
<path transform="translate(0,0)" fill="rgb(0,0,0)" d="M 1073.51 808.427 L 1073.97 808.936 L 1073.51 808.427 z"/>
<path transform="translate(0,0)" fill="rgb(0,0,0)" d="M 1089.72 813.598 L 1088.71 813.364 L 1089.72 813.598 z"/>
<path transform="translate(0,0)" fill="rgb(0,0,0)" d="M 724.801 828.364 C 728.396 821.918 730.705 817.948 737.562 814.507 C 738.336 814.758 739.114 814.999 739.881 815.273 C 759.231 822.182 783.34 826.542 803.899 826.459 C 811.551 826.428 819.242 824.617 826.849 824.875 C 828.824 824.942 828.579 824.592 830.006 826.128 L 828.848 827.203 L 826.34 826.392 C 814.925 829.336 802.404 828.391 790.698 828.302 C 790.936 828.38 791.178 828.451 791.414 828.536 C 796.836 830.502 804.798 830.067 810.75 830.804 C 813.619 830.546 816.233 830.432 819.105 830.694 L 818.456 831.486 C 813.476 832.584 769.797 835.76 767.305 834.515 L 769.452 832.411 C 764.82 832.023 761.163 835.236 756.43 834.634 L 758.647 832.627 C 758.092 832.339 757.579 831.948 756.981 831.764 C 751.516 830.082 747.264 831.457 742.303 833.62 C 740.728 831.044 743.863 828.234 744.236 825.075 C 738.181 823.369 730.596 826.576 724.801 828.364 z M 782.259 828.5 L 783.49 828.5 L 782.259 828.5 z"/>
<path transform="translate(0,0)" fill="rgb(0,0,0)" d="M 844.498 816.496 L 843.258 816.49 L 844.498 816.496 z"/>
<path transform="translate(0,0)" fill="rgb(0,0,0)" d="M 1214 834.5 L 1213.41 833.919 L 1214 834.5 z"/>
<path transform="translate(0,0)" fill="rgb(0,0,0)" d="M 1212.39 837.639 L 1212.7 836.683 L 1212.39 837.639 z"/>
<path transform="translate(0,0)" fill="rgb(0,0,0)" d="M 1186.65 907.426 C 1188.25 897.567 1195.13 885.716 1198.72 876.083 C 1203.42 863.448 1206.64 849.799 1212.39 837.639 C 1210.83 852.069 1195.15 897.02 1186.65 907.426 z"/>
<path transform="translate(0,0)" fill="rgb(0,0,0)" d="M 1225.98 840.5 L 1225.36 839.92 L 1225.98 840.5 z"/>
<path transform="translate(0,0)" fill="rgb(0,0,0)" d="M 1196 842.5 L 1195.18 842.5 L 1196 842.5 z"/>
<path transform="translate(0,0)" fill="rgb(0,0,0)" d="M 1225.02 843.5 L 1224.45 842.949 L 1225.02 843.5 z"/>
<path transform="translate(0,0)" fill="rgb(0,0,0)" d="M 1168.9 915.225 C 1168.26 909.999 1173.72 900.9 1175.81 895.879 C 1182.97 878.723 1188.69 861.342 1194.4 843.673 C 1197.18 854.402 1174.56 903.456 1168.9 915.225 z"/>
<path transform="translate(0,0)" fill="rgb(0,0,0)" d="M 1161.3 846.672 L 1161.59 845.693 L 1161.3 846.672 z"/>
<path transform="translate(0,0)" fill="rgb(0,0,0)" d="M 1223 848 L 1223.58 846.268 L 1223 848 z"/>
<path transform="translate(0,0)" fill="rgb(0,0,0)" d="M 675.345 848.857 L 675.995 849.995 L 675.345 848.857 z"/>
<path transform="translate(0,0)" fill="rgb(0,0,0)" d="M 1150.5 882.094 C 1153.33 870.261 1157.07 858.08 1161.3 846.672 C 1160.9 857.349 1156.39 873.258 1150.5 882.094 z"/>
<path transform="translate(0,0)" fill="rgb(0,0,0)" d="M 1222.09 849.995 L 1223 848 L 1222.09 849.995 z"/>
<path transform="translate(0,0)" fill="rgb(0,0,0)" d="M 1177.99 850.5 L 1177.37 849.915 L 1177.99 850.5 z"/>
<path transform="translate(0,0)" fill="rgb(0,0,0)" d="M 677.104 851.5 L 676.455 851.5 L 677.104 851.5 z"/>
<path transform="translate(0,0)" fill="rgb(0,0,0)" d="M 755.277 853.748 L 755.033 851.005 L 755.277 853.748 z"/>
<path transform="translate(0,0)" fill="rgb(0,0,0)" d="M 1222.02 852.5 L 1221.46 851.969 L 1222.02 852.5 z"/>
<path transform="translate(0,0)" fill="rgb(0,0,0)" d="M 1176.46 853.619 L 1176.77 852.677 L 1176.46 853.619 z"/>
<path transform="translate(0,0)" fill="rgb(0,0,0)" d="M 755.277 853.748 L 757.718 855.522 L 755.277 853.748 z"/>
<path transform="translate(0,0)" fill="rgb(0,0,0)" d="M 1220 856 L 1220.87 854.005 L 1220 856 z"/>
<path transform="translate(0,0)" fill="rgb(0,0,0)" d="M 757.718 855.522 L 758.118 857.616 L 757.718 855.522 z"/>
<path transform="translate(0,0)" fill="rgb(0,0,0)" d="M 1172.64 866.117 C 1173.08 861.439 1174.41 857.832 1176.46 853.619 C 1175.86 858.366 1175.26 862.064 1172.64 866.117 z"/>
<path transform="translate(0,0)" fill="rgb(0,0,0)" d="M 741.033 856.5 L 740.341 856.5 L 741.033 856.5 z"/>
<path transform="translate(0,0)" fill="rgb(0,0,0)" d="M 1218.56 860.258 L 1220 856 L 1218.56 860.258 z"/>
<path transform="translate(0,0)" fill="rgb(0,0,0)" d="M 758.118 857.616 L 759.368 859.577 L 758.118 857.616 z"/>
<path transform="translate(0,0)" fill="rgb(0,0,0)" d="M 726.019 858.5 L 725.282 858.5 L 726.019 858.5 z"/>
<path transform="translate(0,0)" fill="rgb(0,0,0)" d="M 742.05 858.5 L 741.347 858.5 L 742.05 858.5 z"/>
<path transform="translate(0,0)" fill="rgb(0,0,0)" d="M 759.368 859.577 L 760.263 861.593 L 759.368 859.577 z"/>
<path transform="translate(0,0)" fill="rgb(0,0,0)" d="M 1217.61 862.657 L 1218.56 860.258 L 1217.61 862.657 z"/>
<path transform="translate(0,0)" fill="rgb(0,0,0)" d="M 708 862 L 707.005 860.031 L 708 862 z"/>
<path transform="translate(0,0)" fill="rgb(0,0,0)" d="M 727 862 L 726.021 860.005 L 727 862 z"/>
<path transform="translate(0,0)" fill="rgb(0,0,0)" d="M 743.073 860.5 L 742.337 860.5 L 743.073 860.5 z"/>
<path transform="translate(0,0)" fill="rgb(0,0,0)" d="M 760.263 861.593 L 761.308 863.576 L 760.263 861.593 z"/>
<path transform="translate(0,0)" fill="rgb(0,0,0)" d="M 708 862 L 709.418 864.833 L 708 862 z"/>
<path transform="translate(0,0)" fill="rgb(0,0,0)" d="M 727 862 L 728.417 864.833 L 727 862 z"/>
<path transform="translate(0,0)" fill="rgb(0,0,0)" d="M 743.571 863.066 L 743.063 862.005 L 743.571 863.066 z"/>
<path transform="translate(0,0)" fill="rgb(0,0,0)" d="M 1216.77 864.57 L 1217.61 862.657 L 1216.77 864.57 z"/>
<path transform="translate(0,0)" fill="rgb(0,0,0)" d="M 761.308 863.576 L 762.363 865.485 L 761.308 863.576 z"/>
<path transform="translate(0,0)" fill="rgb(0,0,0)" d="M 709.418 864.833 L 710.349 866.39 L 709.418 864.833 z"/>
<path transform="translate(0,0)" fill="rgb(0,0,0)" d="M 728.417 864.833 L 729.243 866.486 L 728.417 864.833 z"/>
<path transform="translate(0,0)" fill="rgb(0,0,0)" d="M 743.571 863.066 C 751.141 872.078 775.706 920.381 780.27 932.483 C 771.749 924.806 748.045 875.963 743.571 863.066 z"/>
<path transform="translate(0,0)" fill="rgb(0,0,0)" d="M 1215.65 868.012 L 1216.77 864.57 L 1215.65 868.012 z"/>
<path transform="translate(0,0)" fill="rgb(0,0,0)" d="M 762.363 865.485 L 763.125 866.327 L 762.363 865.485 z"/>
<path transform="translate(0,0)" fill="rgb(0,0,0)" d="M 1171.4 869.902 C 1171.45 867.804 1171.64 867.808 1172.64 866.117 L 1172.62 868.744 L 1171.4 869.902 z"/>
<path transform="translate(0,0)" fill="rgb(0,0,0)" d="M 710.349 866.39 L 710.701 866.849 L 710.349 866.39 z"/>
<path transform="translate(0,0)" fill="rgb(0,0,0)" d="M 729.243 866.486 L 730.32 868.618 L 729.243 866.486 z"/>
<path transform="translate(0,0)" fill="rgb(0,0,0)" d="M 763.125 866.327 L 764.359 868.735 L 763.125 866.327 z"/>
<path transform="translate(0,0)" fill="rgb(0,0,0)" d="M 1143.03 866.5 L 1142.41 866.5 L 1143.03 866.5 z"/>
<path transform="translate(0,0)" fill="rgb(0,0,0)" d="M 710.701 866.849 C 716.696 873.376 744.551 920.411 746.326 928.459 C 737.754 920.735 714.798 878.497 710.701 866.849 z"/>
<path transform="translate(0,0)" fill="rgb(0,0,0)" d="M 1214.57 870.763 L 1215.65 868.012 L 1214.57 870.763 z"/>
<path transform="translate(0,0)" fill="rgb(0,0,0)" d="M 1410.34 867.529 L 1410.86 867.162 L 1410.34 867.529 z"/>
<path transform="translate(0,0)" fill="rgb(0,0,0)" d="M 730.32 868.618 L 731.3 870.549 L 730.32 868.618 z"/>
<path transform="translate(0,0)" fill="rgb(0,0,0)" d="M 764.359 868.735 C 770.54 874.625 790.4 913.781 793.453 922.954 C 787.685 916.947 765.386 876.346 764.359 868.735 z"/>
<path transform="translate(0,0)" fill="rgb(0,0,0)" d="M 731.3 870.549 L 732.317 872.542 L 731.3 870.549 z"/>
<path transform="translate(0,0)" fill="rgb(0,0,0)" d="M 1214.05 871.995 L 1214.57 870.763 L 1214.05 871.995 z"/>
<path transform="translate(0,0)" fill="rgb(0,0,0)" d="M 1141.02 871.5 L 1140.36 871.5 L 1141.02 871.5 z"/>
<path transform="translate(0,0)" fill="rgb(0,0,0)" d="M 1169.34 875.99 C 1169.28 873.073 1169.96 872.367 1171.4 869.902 C 1170.93 872.225 1170.79 874.055 1169.34 875.99 z"/>
<path transform="translate(0,0)" fill="rgb(0,0,0)" d="M 732.317 872.542 L 733.327 874.514 L 732.317 872.542 z"/>
<path transform="translate(0,0)" fill="rgb(0,0,0)" d="M 1140.13 873.5 L 1139.45 873.5 L 1140.13 873.5 z"/>
<path transform="translate(0,0)" fill="rgb(0,0,0)" d="M 1212.21 874.361 L 1213.93 873.005 L 1212.21 874.361 z"/>
<path transform="translate(0,0)" fill="rgb(0,0,0)" d="M 733.327 874.514 L 734.349 876.439 L 733.327 874.514 z"/>
<path transform="translate(0,0)" fill="rgb(0,0,0)" d="M 1212.07 876.995 L 1212.21 874.361 L 1212.07 876.995 z"/>
<path transform="translate(0,0)" fill="rgb(0,0,0)" d="M 734.349 876.439 L 734.8 876.995 L 734.349 876.439 z"/>
<path transform="translate(0,0)" fill="rgb(0,0,0)" d="M 1152.63 917.08 C 1154.89 906.28 1163.37 885.125 1169.34 875.99 C 1167.4 886.387 1159.36 908.7 1152.63 917.08 z"/>
<path transform="translate(0,0)" fill="rgb(0,0,0)" d="M 736.123 878.5 L 735.367 878.5 L 736.123 878.5 z"/>
<path transform="translate(0,0)" fill="rgb(0,0,0)" d="M 1138.07 878.5 L 1137.39 878.5 L 1138.07 878.5 z"/>
<path transform="translate(0,0)" fill="rgb(0,0,0)" d="M 1211.71 880.744 L 1211.96 878.005 L 1211.71 880.744 z"/>
<path transform="translate(0,0)" fill="rgb(0,0,0)" d="M 769.392 940.387 C 761.123 932.281 738.627 891.111 735.582 878.984 C 740.113 884.522 767.189 933.842 769.392 940.387 z"/>
<path transform="translate(0,0)" fill="rgb(0,0,0)" d="M 1137.21 880.5 L 1136.47 880.5 L 1137.21 880.5 z"/>
<path transform="translate(0,0)" fill="rgb(0,0,0)" d="M 1209.29 882.524 L 1211.71 880.744 L 1209.29 882.524 z"/>
<path transform="translate(0,0)" fill="rgb(0,0,0)" d="M 1142.6 900.084 C 1143.69 895.801 1146.98 884.377 1150.5 882.094 C 1150.52 887.184 1145.85 896.167 1142.6 900.084 z"/>
<path transform="translate(0,0)" fill="rgb(0,0,0)" d="M 1209.08 883.995 L 1209.29 882.524 L 1209.08 883.995 z"/>
<path transform="translate(0,0)" fill="rgb(0,0,0)" d="M 1136.01 883.5 L 1135.26 883.5 L 1136.01 883.5 z"/>
<path transform="translate(0,0)" fill="rgb(0,0,0)" d="M 1135.06 885.5 L 1134.42 885.5 L 1135.06 885.5 z"/>
<path transform="translate(0,0)" fill="rgb(0,0,0)" d="M 1209.14 885.5 L 1208.42 885.5 L 1209.14 885.5 z"/>
<path transform="translate(0,0)" fill="rgb(0,0,0)" d="M 1208.3 887.5 L 1207.5 887.5 L 1208.3 887.5 z"/>
<path transform="translate(0,0)" fill="rgb(0,0,0)" d="M 1207 890.5 L 1206.48 889.974 L 1207 890.5 z"/>
<path transform="translate(0,0)" fill="rgb(0,0,0)" d="M 1206.03 892.5 L 1205.36 892.5 L 1206.03 892.5 z"/>
<path transform="translate(0,0)" fill="rgb(0,0,0)" d="M 1205.04 894.5 L 1204.41 894.5 L 1205.04 894.5 z"/>
<path transform="translate(0,0)" fill="rgb(0,0,0)" d="M 1142.69 902.741 L 1142.93 900.005 L 1142.69 902.741 z"/>
<path transform="translate(0,0)" fill="rgb(0,0,0)" d="M 1140.3 904.525 L 1142.69 902.741 L 1140.3 904.525 z"/>
<path transform="translate(0,0)" fill="rgb(0,0,0)" d="M 1140.05 905.995 L 1140.3 904.525 L 1140.05 905.995 z"/>
<path transform="translate(0,0)" fill="rgb(0,0,0)" d="M 1140.08 907.5 L 1139.37 907.5 L 1140.08 907.5 z"/>
<path transform="translate(0,0)" fill="rgb(0,0,0)" d="M 1186.21 907.995 L 1186.65 907.426 L 1186.21 907.995 z"/>
<path transform="translate(0,0)" fill="rgb(0,0,0)" d="M 1139.13 909.5 L 1138.44 909.5 L 1139.13 909.5 z"/>
<path transform="translate(0,0)" fill="rgb(0,0,0)" d="M 1186.36 909.5 L 1185.52 909.5 L 1186.36 909.5 z"/>
<path transform="translate(0,0)" fill="rgb(0,0,0)" d="M 1138.32 911.5 L 1137.5 911.5 L 1138.32 911.5 z"/>
<path transform="translate(0,0)" fill="rgb(0,0,0)" d="M 1168.25 916.5 L 1167.44 916.5 L 1168.25 916.5 z"/>
<path transform="translate(0,0)" fill="rgb(0,0,0)" d="M 1153.17 917.5 L 1152.43 917.5 L 1153.17 917.5 z"/>
<path transform="translate(0,0)" fill="rgb(0,0,0)" d="M 1167.17 918.5 L 1166.42 918.5 L 1167.17 918.5 z"/>
<path transform="translate(0,0)" fill="rgb(0,0,0)" d="M 1152.37 919.5 L 1151.52 919.5 L 1152.37 919.5 z"/>
<path transform="translate(0,0)" fill="rgb(0,0,0)" d="M 1166.15 920.5 L 1165.42 920.5 L 1166.15 920.5 z"/>
<path transform="translate(0,0)" fill="rgb(0,0,0)" d="M 793.453 922.954 L 794.228 924.436 L 793.453 922.954 z"/>
<path transform="translate(0,0)" fill="rgb(0,0,0)" d="M 1165.08 922.5 L 1164.38 922.5 L 1165.08 922.5 z"/>
<path transform="translate(0,0)" fill="rgb(0,0,0)" d="M 794.228 924.436 L 794.883 925.995 L 794.228 924.436 z"/>
<path transform="translate(0,0)" fill="rgb(0,0,0)" d="M 1150.04 924.5 L 1149.4 924.5 L 1150.04 924.5 z"/>
<path transform="translate(0,0)" fill="rgb(0,0,0)" d="M 1164.05 924.5 L 1163.35 924.5 L 1164.05 924.5 z"/>
<path transform="translate(0,0)" fill="rgb(0,0,0)" d="M 746.326 928.459 L 746.777 928.995 L 746.326 928.459 z"/>
<path transform="translate(0,0)" fill="rgb(0,0,0)" d="M 780.27 932.483 L 780.762 932.858 L 780.27 932.483 z"/>
<path transform="translate(0,0)" fill="rgb(0,0,0)" d="M 769.392 940.387 L 769.792 940.88 L 769.392 940.387 z"/>
<path transform="translate(0,0)" fill="rgb(0,0,0)" d="M 930.074 999.86 C 924.836 991.954 919.923 984.508 917.102 975.383 C 928.544 979.98 951.464 1001.12 958.637 1011.38 C 948.102 1009.95 939.313 1004.73 930.074 999.86 z"/>
<path transform="translate(0,0)" fill="rgb(0,0,0)" d="M 983.241 1004.72 C 981.917 1004.69 982.535 1004.9 981.414 1004.03 C 987.178 995.448 1005.15 988.143 1014.4 983.829 L 1015.93 984.564 C 1015.66 988.062 1013.83 994.853 1011.55 997.722 C 1005.27 1005.63 992.412 1003.98 983.241 1004.72 z"/>
<path transform="translate(0,0)" fill="rgb(0,0,0)" d="M 1000.02 1071.73 C 990.726 1072.27 981.748 1078.02 972.658 1080.23 C 965.657 1077.67 959.208 1074.36 952.615 1070.9 C 948.29 1071.31 943.96 1071.65 939.625 1071.92 C 942.334 1069.99 946.015 1069.35 949.205 1068.48 C 969.952 1074.95 975.586 1075.58 996.259 1066.61 C 1007.04 1069.84 1019.59 1073.71 1027.95 1081.62 C 1018.6 1078.45 1010.55 1073.08 1000.74 1070.69 L 1000.02 1071.73 z"/>
<path transform="translate(0,0)" fill="rgb(0,0,0)" d="M 1000.02 1071.73 L 1001 1072.99 L 1000.02 1071.73 z"/>
<path transform="translate(0,0)" fill="rgb(0,0,0)" d="M 937.49 1073.5 L 936.274 1073.5 L 937.49 1073.5 z"/>
<path transform="translate(0,0)" fill="rgb(0,0,0)" d="M 935.49 1074.5 L 934.273 1074.5 L 935.49 1074.5 z"/>
<path transform="translate(0,0)" fill="rgb(0,0,0)" d="M 931.518 1075.62 L 932.995 1075.2 L 931.518 1075.62 z"/>
<path transform="translate(0,0)" fill="rgb(0,0,0)" d="M 929.468 1077.48 L 931.518 1075.62 L 929.468 1077.48 z"/>
<path transform="translate(0,0)" fill="rgb(0,0,0)" d="M 929.005 1077.92 L 929.468 1077.48 L 929.005 1077.92 z"/>
<path transform="translate(0,0)" fill="rgb(0,0,0)" d="M 926.527 1078.63 L 927.995 1078.2 L 926.527 1078.63 z"/>
<path transform="translate(0,0)" fill="rgb(0,0,0)" d="M 924.558 1080.63 L 926.527 1078.63 L 924.558 1080.63 z"/>
<path transform="translate(0,0)" fill="rgb(0,0,0)" d="M 923.791 1081.14 L 924.558 1080.63 L 923.791 1081.14 z"/>
<path transform="translate(0,0)" fill="rgb(0,0,0)" d="M 922.661 1082.29 L 923.791 1081.14 L 922.661 1082.29 z"/>
<path transform="translate(0,0)" fill="rgb(0,0,0)" d="M 1027.95 1081.62 L 1030 1083 C 1028.88 1082.55 1029.63 1082.91 1027.95 1081.62 z"/>
<path transform="translate(0,0)" fill="rgb(0,0,0)" d="M 920.363 1083.38 L 922.661 1082.29 L 920.363 1083.38 z"/>
<path transform="translate(0,0)" fill="rgb(0,0,0)" d="M 919.859 1084.22 L 920.363 1083.38 L 919.859 1084.22 z"/>
<path transform="translate(0,0)" fill="rgb(0,0,0)" d="M 1030 1083 L 1031.94 1084.3 C 1031.38 1084.14 1030.48 1083.35 1030 1083 z"/>
<path transform="translate(0,0)" fill="rgb(0,0,0)" d="M 917.394 1085.41 L 919.859 1084.22 L 917.394 1085.41 z"/>
<path transform="translate(0,0)" fill="rgb(0,0,0)" d="M 916.852 1086.22 L 917.394 1085.41 L 916.852 1086.22 z"/>
<path transform="translate(0,0)" fill="rgb(0,0,0)" d="M 1031.94 1084.3 C 1036.31 1086.15 1039.55 1087.78 1042.56 1091.52 C 1038.18 1090.34 1034.91 1087.6 1031.94 1084.3 z"/>
<path transform="translate(0,0)" fill="rgb(0,0,0)" d="M 915.65 1087.26 L 916.852 1086.22 L 915.65 1087.26 z"/>
<path transform="translate(0,0)" fill="rgb(0,0,0)" d="M 913.003 1089.01 L 915.65 1087.26 C 914.738 1088.01 914.101 1088.55 913.003 1089.01 z"/>
<path transform="translate(0,0)" fill="rgb(0,0,0)" d="M 912.381 1089.63 L 913.003 1089.01 L 912.381 1089.63 z"/>
<path transform="translate(0,0)" fill="rgb(0,0,0)" d="M 905.712 1095.56 C 907.773 1092.41 909.022 1091.26 912.381 1089.63 C 910.287 1092.47 908.886 1093.98 905.712 1095.56 z"/>
<path transform="translate(0,0)" fill="rgb(0,0,0)" d="M 1042.56 1091.52 L 1043.17 1092.18 L 1042.56 1091.52 z"/>
<path transform="translate(0,0)" fill="rgb(0,0,0)" d="M 950.851 1101.39 C 942.398 1099.64 931.883 1097.48 923.378 1099.75 C 914.239 1102.19 907.534 1113.14 897.156 1112.74 C 896.027 1111.71 895.343 1111.63 895.327 1109.96 C 895.292 1106.45 897.36 1103.11 899.629 1100.56 C 904.932 1094.62 907.647 1100.13 913.134 1099.11 C 919.12 1098 924.721 1094.66 930.866 1094 C 943.826 1092.59 956.695 1098.98 970.194 1098.22 C 984.098 1097.43 997.409 1093.65 1011.23 1092.38 C 1028.67 1089.46 1041.14 1102.34 1048.88 1101.73 C 1049.42 1100.18 1049.57 1099.7 1050.77 1098.5 C 1054.98 1099.96 1060.35 1103.73 1062.16 1107.99 C 1063.12 1110.25 1063.09 1110.68 1062.14 1112.87 C 1056.27 1114.26 1033.06 1100.08 1022.79 1097.87 C 1004.98 1094.02 985.676 1107.54 967.266 1106.32 C 962.223 1105.99 955.842 1102.93 950.851 1101.39 z M 972.005 1102.25 L 973.458 1102.68 L 973.995 1103.99 L 973.458 1102.68 L 972.005 1102.25 z"/>
<path transform="translate(0,0)" fill="rgb(0,0,0)" d="M 1043.17 1092.18 L 1043.99 1092.92 L 1043.17 1092.18 z"/>
<path transform="translate(0,0)" fill="rgb(0,0,0)" d="M 905.223 1095.99 L 905.712 1095.56 L 905.223 1095.99 z"/>
<path transform="translate(0,0)" fill="rgb(0,0,0)" d="M 941.597 1153.93 C 948.33 1152.38 955.873 1152.14 962.771 1151.4 C 974.881 1150.06 992.099 1149.16 1003.68 1152.61 C 1005.89 1153.27 1006.37 1153.22 1007.54 1155.3 C 1007.31 1155.56 1007.11 1155.85 1006.86 1156.08 C 1003.06 1159.66 996.551 1159.31 991.654 1159.64 C 974.351 1159.45 958.17 1159.56 941.597 1153.93 z"/>
<path transform="translate(0,0)" fill="rgb(0,0,0)" d="M 987.75 1173.87 C 979.051 1172.7 970.07 1174.6 961.353 1172.99 L 961.951 1172.1 L 968.737 1171.23 C 976.901 1170.75 989.03 1170.02 996.695 1173.08 C 993.859 1174.42 990.842 1173.92 987.75 1173.87 z"/>
<path transform="translate(0,0)" fill="rgb(0,0,0)" d="M 1193.48 1188.71 L 1193.75 1188.01 L 1193.48 1188.71 z"/>
<path transform="translate(0,0)" fill="rgb(0,0,0)" d="M 1192.34 1191.74 L 1193.48 1188.71 C 1193.15 1189.7 1192.92 1190.87 1192.34 1191.74 z"/>
<path transform="translate(0,0)" fill="rgb(0,0,0)" d="M 975.737 1607.21 C 959 1603.48 945.434 1588.67 935.507 1575.64 C 944.863 1577.73 968.369 1600.01 975.737 1607.21 z"/>
<path transform="translate(0,0)" fill="rgb(0,0,0)" d="M 934.663 2048 C 894.59 2002.29 860.431 1953.08 828.282 1901.61 C 791.69 1843.03 758.533 1783.47 735.618 1718.02 C 730.662 1703.87 722.127 1684.59 722.708 1669.55 C 722.76 1668.22 723.097 1667.28 723.752 1666.14 L 725.64 1666.22 C 734.371 1676.33 747.85 1722.96 754.462 1738.85 C 763.137 1759.69 773.031 1780.38 782.964 1800.66 C 803.028 1841.62 827.209 1880.22 852.023 1918.43 C 881.232 1963.42 911.3 2007.64 946.768 2048 L 934.663 2048 z"/>
</svg>