<svg version="1.1" xmlns="http://www.w3.org/2000/svg" style="display: block;" viewBox="0 0 2048 2048" width="1024" height="1024">
<path transform="translate(0,0)" fill="rgb(255,255,255)" d="M 0 0 L 0 2048 L 2048 2048 L 2048 0 L 0 0 z"/>
<path transform="translate(0,0)" fill="rgb(0,0,0)" d="M 1283 1523 L 1282.4 1524.73 C 1275.7 1539.36 1272.88 1557.67 1268.61 1573.25 C 1261.69 1598.5 1253.97 1623.98 1245.73 1648.85 C 1207.43 1764.33 1166.96 1878.86 1132.18 1995.49 C 1126.95 2013.03 1120.8 2030.36 1115.94 2048 L 980.761 2048 C 1012.81 2026.46 1040.18 1996.1 1066.21 1967.86 C 1092.33 1939.53 1117.66 1910.93 1141.99 1881.04 C 1151.13 1869.82 1162.1 1858.42 1169.45 1845.93 C 1182.23 1824.19 1188.88 1798.99 1196.29 1775.07 C 1186.6 1787.62 1178.09 1801.27 1169.03 1814.3 C 1157.89 1829.99 1146.47 1845.47 1134.75 1860.73 C 1099.68 1906.86 1058.95 1950.69 1016.95 1990.61 C 1000.83 2005.94 984.931 2022.55 966.607 2035.25 C 961.689 2038.65 955.743 2039.76 950.022 2041.26 C 948.255 2043.2 948.752 2045.44 948.618 2048 L 940.602 2048 L 941.142 2046.48 C 941.43 2045.64 942.686 2041.17 942.33 2040.57 C 941.544 2039.26 926.621 2034.77 923.486 2031.94 C 908.315 2018.24 894.793 2002.27 882.991 1985.62 C 868.177 1964.71 853.975 1942.2 842.497 1919.28 C 837.241 1908.78 833.473 1897.5 828.688 1886.77 C 816.171 1858.69 803.149 1830.84 789.629 1803.23 C 790.238 1810.65 790.242 1818.08 790.634 1825.51 C 793.372 1877.48 878.901 2012.7 917.816 2048 L 797.506 2048 L 788.878 1941.31 C 787.609 1925.05 787.73 1907.68 784.877 1891.68 C 783.455 1900.1 784.889 1910.53 785.227 1919.09 C 786.918 1961.96 790.891 2005.3 795.226 2048 L 631.714 2048 C 620.516 2011.83 606.836 1976.22 595.068 1940.19 C 586.292 1913.32 579.836 1885.48 569.574 1859.14 C 570.408 1858.61 571.23 1858.06 572.068 1857.53 C 588.039 1847.47 602.005 1832.69 616.871 1820.86 C 643.242 1799.87 670.274 1779.86 696.12 1758.2 C 707.956 1748.27 720.351 1738.24 730.441 1726.51 L 730.995 1726.01 L 730.441 1726.51 C 712.562 1738.06 691.562 1754.84 673.418 1764.4 C 652.947 1748.81 632.052 1733.78 610.755 1719.34 C 598.852 1711.32 585.905 1704.14 574.474 1695.5 C 579.097 1679.97 585.775 1664.97 591.675 1649.87 C 603.509 1619.08 615.976 1588.52 629.068 1558.24 L 696.683 1394.2 C 700.939 1383.96 704.909 1373.53 709.466 1363.42 C 715.373 1350.31 722.007 1337.41 726.593 1323.77 C 712.83 1341.03 704.028 1364.61 694.338 1384.47 C 656.631 1461.73 620.507 1541.09 590.703 1621.75 C 581.69 1646.14 570.806 1672.4 566.84 1698.18 C 585.321 1717.74 606.586 1732.92 629.004 1747.59 C 640.602 1755.18 653.717 1762.57 663.866 1772.01 C 642.932 1786.94 622.885 1802.64 602.673 1818.52 C 586.889 1830.92 570.721 1843.13 556.553 1857.41 C 565.18 1898.3 577.752 1937.3 590.988 1976.89 C 598.892 2000.52 606.677 2025.18 616.699 2048 L 39.0763 2048 C 42.4892 2007.7 46.0453 1968.37 53.4135 1928.5 C 65.353 1863.91 83.6943 1799.9 103.296 1737.29 C 113.518 1704.63 123.574 1670.89 136.997 1639.39 C 148.28 1612.9 162.931 1579.64 185.27 1560.88 C 219.573 1532.06 268.818 1512.24 309.669 1493.82 C 425.77 1441.45 546.393 1400.26 662.453 1347.97 C 670.135 1344.51 677.783 1340.87 685.699 1337.97 C 693.581 1335.08 702.502 1332.92 709.84 1328.88 C 724.532 1320.8 735.612 1307.92 749.137 1298.14 C 766.806 1285.37 785.067 1273.33 803.134 1261.13 C 811.233 1255.66 820.618 1250.57 827.724 1243.89 C 840.221 1232.16 840.563 1218.45 858.359 1204.91 C 856.736 1196.12 855.434 1187.27 854.455 1178.38 C 837.985 1160.39 819.699 1144.14 803.189 1126.15 C 738.63 1055.83 718.504 1008.57 691.104 919.084 C 672.002 914.016 653.118 887.907 643.689 871.498 C 628.314 844.74 600.894 766.309 608.775 736.511 C 609.841 732.482 611.63 729.616 614.296 726.485 C 611.025 722.935 607.808 719.311 604.448 715.846 C 596.569 736.372 580.684 752.814 560.442 761.396 C 554.116 764.107 545.331 766.995 538.572 764.165 C 538.14 763.984 537.718 763.778 537.292 763.585 C 538.861 762.013 537.777 762.598 540.085 762.45 C 548.016 761.944 556.858 752.301 561.586 746.269 C 574.2 730.176 579.797 710.371 584.544 690.827 C 577.084 680.557 569.39 670.394 562.56 659.689 L 563.037 661.381 C 566.949 674.917 577.903 690.735 577.701 704.587 L 576.472 706.653 C 571.435 707.098 567.251 703.274 563.529 700.185 C 549.868 688.844 540.303 674.281 532.789 658.368 C 510.984 655.388 494.424 644.023 481.145 626.649 C 458.192 596.619 455.998 557.916 461.115 521.862 C 473.584 433.996 516.59 351.121 564.724 277.888 C 572.476 266.093 579.845 253.566 588.279 242.278 C 592.728 236.322 590.541 222.731 592.417 215.121 C 594.627 206.154 598.68 196.996 602.517 188.602 C 639.636 107.399 723.683 41.5264 811.938 26.9435 C 839.03 22.467 879.137 22.5837 902.571 39.2142 C 907.876 42.9785 912.21 47.8911 917.368 51.7966 C 950.451 20.7193 1001.72 18.4188 1044.96 19.7787 C 1083.47 20.9901 1121.06 28.2161 1158.32 37.6647 C 1285.42 69.8945 1381.03 131.22 1470.53 226.523 C 1526.21 285.817 1565.51 357.139 1562.97 440.495 C 1562.13 468.167 1556.57 492.616 1546.54 518.318 C 1558.96 546.994 1591.62 559.601 1618.62 570.7 C 1588.63 567.145 1556.29 558.196 1532.27 539.18 C 1535.93 584.404 1536.03 618.131 1521.19 661.99 C 1516.87 674.756 1512.46 686.657 1505.95 698.507 C 1512.83 663.507 1513.46 637.501 1508.16 601.943 C 1503.59 636.442 1490.7 668.232 1468.87 695.436 C 1461.11 705.098 1451.47 714.208 1444.87 724.636 C 1448.8 745.485 1455.69 772.896 1449.78 793.678 C 1447.71 800.949 1443.62 807.846 1439.4 814.059 C 1423.72 837.134 1399.47 857.453 1377.89 875.085 C 1370.09 881.465 1361.09 887.439 1354.17 894.75 C 1344.1 905.384 1336.27 918.35 1328.96 930.988 C 1321.61 943.701 1315.12 957.5 1310.64 971.498 C 1308.3 978.802 1307.06 986.87 1304.17 993.924 C 1303.32 995.99 1302.36 997.349 1300.52 998.596 C 1297.6 998.647 1295.77 997.887 1293.67 995.776 C 1290.37 992.45 1287.99 987.293 1285.66 983.223 C 1281.13 1035.96 1272.29 1088.62 1271.82 1141.68 C 1284.53 1145.2 1296.62 1154.84 1303.17 1166.27 C 1311.75 1181.23 1314.82 1202.82 1319.05 1219.56 C 1329.77 1221.48 1340.01 1223.89 1350.13 1227.94 C 1361.91 1243.22 1373.55 1258.67 1385.7 1273.65 C 1396.82 1287.36 1408.41 1299.14 1417.01 1314.71 C 1420.48 1320.98 1423.56 1328.11 1429.15 1332.79 C 1435.94 1338.46 1443.87 1343.26 1451.13 1348.34 C 1469.76 1361.37 1488.51 1373.54 1507.47 1386.06 L 1745.88 1541.38 C 1770.06 1557.36 1795.89 1571.22 1819.4 1588.14 C 1845 1606.55 1868.92 1627.01 1893.41 1646.82 C 1914.63 1663.98 1936.78 1679.01 1955.95 1698.68 C 1968.23 1711.28 1979.67 1726.44 1987.25 1742.36 C 2003.84 1777.16 2008.56 1820.17 2015.03 1857.9 C 2025.28 1921.09 2034.37 1984.47 2042.28 2048 L 1374.95 2048 C 1389.55 2026.11 1403.22 2003.4 1416.79 1980.86 C 1426.98 1963.96 1436.24 1946.3 1449.17 1931.29 C 1429.48 1904.03 1387.26 1871.24 1361.95 1846.39 L 1309.26 1793.72 C 1300.28 1784.59 1291.67 1773.87 1281.75 1765.86 L 1281.16 1765.55 L 1280.69 1763.47 L 1279.01 1762.24 L 1280.69 1763.47 L 1281.16 1765.55 L 1281.75 1765.86 C 1289.89 1779.2 1301.17 1791.77 1311.38 1803.61 C 1332.82 1828.47 1355.41 1852 1378.21 1875.6 C 1394.61 1892.58 1420.92 1915.66 1430.05 1937.19 C 1407.23 1975.3 1382.58 2012.28 1356.19 2048 L 1118.88 2048 C 1130.35 2013.39 1139.58 1978.04 1150.51 1943.25 C 1169.95 1881.41 1190.88 1819.97 1211.15 1758.4 C 1231.04 1697.98 1252.78 1638.3 1269.67 1576.94 C 1274.2 1560.47 1280.62 1541.65 1282.4 1524.73 L 1283 1523 L 1283.58 1521.27 L 1283 1523 z M 1281.01 179.181 L 1282.52 179.587 L 1284.46 181.535 L 1284.87 181.833 C 1309.79 203.228 1332.8 224.771 1355.04 248.987 C 1357.89 252.096 1363.22 256.503 1365.07 259.979 C 1367.28 264.139 1368.36 272.929 1368.8 277.768 C 1365.93 277.42 1362.76 276.57 1360.05 277.858 C 1360.04 280.546 1360.3 281.639 1362.39 283.491 C 1366.65 287.266 1371.74 290.551 1376.34 293.921 C 1376.62 291.514 1376.67 289.168 1376.71 286.749 L 1377.9 285.877 C 1386.41 289.405 1391.29 299.796 1398.5 305.457 L 1398.99 305.914 L 1398.5 305.457 C 1392.09 294.233 1384.14 284.263 1380.46 271.719 C 1395.53 284.534 1405.17 299.135 1415.07 316.087 C 1418.63 322.192 1421.9 328.908 1426.41 334.364 L 1426.86 334.977 L 1426.41 334.364 C 1422.39 319.674 1392.76 280.45 1392.56 272.964 C 1396.62 274.261 1403 280.913 1406.85 283.661 C 1403.75 277.066 1400.23 271.049 1396.28 264.931 C 1392.34 260.025 1388.49 255.877 1383.73 251.739 C 1386.98 258.714 1390.74 265.437 1392.56 272.964 C 1381.78 266.657 1371.73 253.97 1363.2 244.88 C 1344.51 224.962 1310.57 191.391 1284.87 181.833 L 1284.46 181.535 L 1282.52 179.587 L 1281.01 179.181 z M 1196.02 189.005 L 1196.51 189.484 C 1202.82 203.233 1214.5 216.693 1223.15 229.225 C 1239.69 253.203 1256.26 277.439 1271.07 302.522 C 1279.33 316.501 1287.76 330.625 1295.08 345.112 C 1305.46 365.668 1325.72 414.131 1339.49 428.865 L 1340.26 430.409 L 1340.78 430.995 L 1340.26 430.409 L 1339.49 428.865 C 1335.76 416.428 1328.03 403.299 1322.5 391.331 C 1293.04 327.562 1264.87 273.971 1220.92 218.631 C 1213.3 209.046 1205.6 197.688 1196.51 189.484 L 1196.02 189.005 z M 1374.14 206.005 L 1375 207 L 1375.65 207.703 C 1379.36 216.036 1388.27 224.361 1393.45 232.164 C 1399.72 241.6 1404.79 252.369 1411.62 261.328 L 1412.98 261.196 L 1414.1 258.513 C 1416.9 266.059 1419.92 271.766 1424.88 278.111 C 1422.3 270.673 1419.48 263.448 1416.33 256.233 C 1416.21 256.128 1416.04 256.059 1415.96 255.92 C 1414.92 254.097 1414.89 253.532 1415.26 251.461 C 1420.79 255.29 1426.4 258.832 1432.17 262.27 C 1426.92 254.832 1420.66 248.156 1413.58 242.431 L 1413.5 242.9 C 1399.17 234.236 1388.58 218.384 1375.65 207.703 L 1375 207 L 1374.14 206.005 z M 1440.01 208.005 L 1440.51 208.494 C 1447.99 223.534 1460.82 236.735 1469.94 250.963 C 1496.37 292.216 1523.24 350.251 1532.36 398.348 C 1537.15 423.611 1533.77 447.975 1535.52 473.195 C 1536.44 486.43 1539.5 499.145 1543.53 511.761 L 1544.55 511.648 L 1545.37 507.244 C 1551.56 473.656 1556.06 440.4 1552.39 406.188 C 1545.71 343.903 1511.43 288.368 1471.66 241.704 C 1461.99 230.355 1452.15 217.889 1440.51 208.494 L 1440.01 208.005 z M 1235.2 219.005 L 1235.68 220.391 L 1237.59 221.143 L 1238.18 222.311 L 1239.31 223.258 L 1239.74 223.721 C 1242.69 229.764 1248.39 234.937 1252.55 240.265 C 1260.69 250.862 1268.54 261.686 1276.07 272.723 C 1289.26 292.439 1302.37 312.821 1314.85 333.02 C 1321.08 343.1 1326.18 354.289 1333.24 363.753 C 1323.93 330.394 1268.04 243.972 1239.74 223.721 L 1239.31 223.258 L 1238.18 222.311 L 1237.59 221.143 L 1235.68 220.391 L 1235.2 219.005 z M 997.155 240.005 L 998 241 L 999.348 243.111 C 1004.94 255.026 1013.6 266.413 1020.96 277.3 C 1041.25 307.301 1062.47 334.297 1088.31 359.812 C 1098.48 369.861 1109.63 378.982 1120.13 388.705 C 1128.34 396.316 1138.55 408.458 1148.43 413.588 L 1148.99 413.995 L 1148.43 413.588 C 1142.47 405.321 1133.54 397.934 1126.37 390.64 C 1111.69 375.703 1096.97 360.701 1083.55 344.602 C 1094.88 348.865 1102.8 359.179 1112.99 365.514 C 1103.41 356.708 1094.94 346.894 1085.78 337.681 C 1065.04 316.831 1044.55 296.193 1025.11 274.064 C 1016.45 264.209 1008.79 253.432 999.956 243.767 L 999.348 243.111 L 998 241 L 997.155 240.005 z M 1305.19 240.005 L 1305.66 240.568 C 1309.1 251.899 1317.14 263.866 1322.35 274.676 C 1329.88 290.287 1335.53 307.156 1339.94 323.919 C 1343.36 336.932 1346.49 350.322 1348.65 363.598 C 1349.65 369.737 1350.86 392.031 1353.48 395.691 C 1353.82 392.434 1353.7 389.085 1353.64 385.812 C 1352.72 334.306 1344.44 278.025 1305.66 240.568 L 1305.19 240.005 z M 675.563 241.754 C 662.665 252.513 649.329 264.161 638.668 277.168 C 591.292 334.972 561.746 427.592 555.07 501.399 C 553.653 517.063 552.164 534.336 556.014 549.721 C 556.199 530.69 557.37 511.893 560.48 493.095 C 568.423 445.073 592.647 361.836 625.502 325.113 C 611.024 358.308 590.588 420.526 591.739 456.354 C 594.488 448.419 595.123 439.656 596.831 431.432 C 599.682 417.706 603.383 403.664 606.962 390.093 C 617.693 349.402 650.167 273.692 675.563 241.754 L 675.995 241.183 L 675.563 241.754 z M 623.293 243.417 L 621.515 244.218 L 620.796 245.286 C 619.079 246.769 618.748 246.73 618 249 L 617.35 249.602 C 604.32 259.799 576.859 304.557 569.655 320.529 L 568.831 321.255 L 568.219 321.995 L 568.831 321.255 L 569.655 320.529 C 571.554 318.818 573.226 317.038 574.71 314.948 C 582.035 304.633 587.909 293.113 594.898 282.527 C 601.862 271.978 612.283 260.926 617.35 249.602 L 618 249 C 619.933 247.653 619.842 247.315 620.796 245.286 L 621.515 244.218 L 623.293 243.417 L 623.79 242.005 L 623.293 243.417 z M 583.659 290.178 C 579.869 293.12 576.191 295.961 572.832 299.407 C 574.735 294.162 577.453 289.397 580.113 284.511 C 570.071 296.582 559.309 310.183 554.501 325.374 L 554.138 325.995 L 554.501 325.374 C 559.193 321.325 562.671 315.675 566.09 310.54 C 564.79 315.564 563.331 320.431 561.652 325.342 L 561.204 325.995 L 561.652 325.342 C 570.843 316.139 579.046 302.279 583.659 290.178 L 583.995 289.176 L 583.659 290.178 z M 1076.24 298.005 L 1076.77 298.485 C 1081.6 314.357 1112.75 350.349 1125.73 361.672 C 1123.88 353.354 1084.61 305.47 1076.77 298.485 L 1076.24 298.005 z M 1203.05 300.005 L 1203.46 300.562 C 1206.79 310.061 1213.55 318.08 1221.53 324.034 L 1218.16 322.915 L 1217.71 324.054 C 1221.5 328.378 1225.78 331.686 1230.78 334.491 L 1221.93 324.629 C 1224.53 325.115 1225.87 326.123 1227.91 327.701 C 1229.27 328.749 1230.1 329.613 1231.74 330.133 C 1230.69 326.945 1229.06 324.926 1227.77 322.076 C 1227.5 321.493 1227.45 320.837 1227.29 320.218 L 1227.03 321.184 L 1226.66 320.49 C 1228.54 320.54 1228.43 320.83 1230.05 319.618 C 1226.98 316.472 1222.87 310.525 1218.7 309.651 C 1217.65 311.716 1218.45 313.289 1218.87 315.509 C 1212.57 311.449 1208.59 305.857 1203.46 300.562 L 1203.05 300.005 z M 668.234 319.555 C 659.348 330.53 653.051 346.916 646.742 359.6 C 646.905 348.736 649.225 336.842 648.288 326.142 C 644.429 343.963 639.318 363.138 638.762 381.382 C 640.377 376.79 641.713 371.36 644.285 367.236 C 641.115 382.589 639.289 398.251 637.143 413.776 C 643.019 400.983 645.319 385.3 649.682 371.727 C 655.323 354.179 662.983 337.15 668.234 319.555 L 668.755 319.005 L 668.234 319.555 z M 1124.3 332.816 C 1118.54 326.395 1113.16 319.573 1107.3 313.256 C 1113.24 326.168 1125.21 345.762 1136.46 354.338 L 1136.83 354.953 L 1136.46 354.338 C 1135.34 350.632 1133.44 347.115 1131.8 343.608 C 1136.33 348.008 1140.57 353.522 1145.38 357.467 L 1146.14 358.277 L 1146.76 358.995 L 1146.14 358.277 L 1145.38 357.467 C 1142.49 350.255 1130.2 331.563 1124.32 327.109 L 1123.41 328.027 L 1124.3 332.816 z M 1382.52 234.064 C 1398.37 255.799 1413.44 278.812 1426.6 302.268 C 1434.1 315.633 1440.26 330.046 1448.45 342.959 L 1449.23 344.434 L 1449.95 345.995 L 1449.23 344.434 L 1448.45 342.959 C 1441.72 312.654 1407.26 252.199 1382.52 234.064 z M 978.386 361.343 C 970.979 354.706 966.846 346.211 960.959 338.371 C 956.865 332.919 951.913 328.272 947.46 323.132 C 953.396 350.542 966.064 352.796 985.458 368.455 L 985.893 368.933 L 985.458 368.455 C 983.172 361.659 976.18 337.117 971.026 334.456 C 968.757 336.151 971.378 337.846 969.542 340.277 C 965.762 338.547 966.076 334.392 962.451 332.518 C 962.648 342.688 972.994 352.134 977.95 360.585 L 978.386 361.343 z M 850.59 328.31 C 856.724 340.623 860.335 353.914 867.437 365.853 L 867.995 366.995 L 867.437 365.853 C 864.391 346.561 856.957 327.498 852.602 308.394 C 844.591 273.246 842.89 239.157 841.964 203.295 C 835.747 229.653 835.444 259.933 838.794 286.775 C 845.412 339.808 864.212 387.932 881.243 438.117 C 894.039 475.826 905.3 517.708 926.974 551.537 C 939.783 571.528 956.892 585.941 975.398 600.349 C 965.894 598.584 957.594 595.792 949.013 591.303 C 869.498 549.71 827.613 475.526 805.476 391.51 C 800.471 372.514 799.426 351.869 793.416 333.316 C 793.31 332.988 793.195 332.664 793.084 332.338 C 793.033 349.737 791.923 367.122 792.021 384.53 C 792.252 426.023 797.493 465.695 807.75 505.877 C 811.768 521.617 815.624 537.393 822.036 552.364 C 850.047 558.954 846.565 570.525 865.776 583.623 C 857.211 585.251 848.725 585.878 840.021 586.026 C 848.004 598.268 856.181 609.588 866.2 620.305 C 852.006 611.969 843.016 599.506 834.263 585.906 C 802.137 586.366 769.947 584.844 737.789 585.045 C 741.989 600.267 746.541 615.39 751.443 630.401 C 739.536 617.316 730.248 602.069 724.082 585.486 C 716.989 586.764 709.977 588.422 702.952 590.024 C 702.443 610.734 704.931 631.228 705.235 651.914 C 699.193 647.017 693.891 641.63 688.519 636.015 C 685.994 642.452 683.363 651.802 678.177 656.553 C 675.747 651.431 681.494 634.882 682.75 628.877 C 679.033 618.434 674.695 608.227 670.472 597.982 C 666.389 613.907 665.839 630.629 663.358 646.849 C 661.151 661.27 655.061 681.671 655.654 695.789 C 656.24 709.747 663.354 725.015 666.437 738.755 C 670.886 758.581 673.281 779.107 677.339 799.092 C 682.145 822.762 685.734 846.741 691.015 870.288 C 703.598 926.395 721.388 985.041 750.327 1035.02 C 773.223 1074.57 819.553 1126.05 853.67 1156.96 C 873.447 1174.69 894.689 1196.81 920.378 1205.32 C 948.493 1214.63 995.639 1211.7 1022.15 1198.19 C 1082.2 1167.59 1200.65 1059.84 1234.85 1002.54 C 1254.28 969.963 1266.45 930.154 1278.09 894.068 C 1284.26 895.818 1290.35 897.892 1296.65 899.16 C 1311.36 902.123 1324.01 900.889 1336.73 892.219 C 1346.08 885.853 1354.76 877.964 1363.5 870.782 C 1386.01 852.298 1433.77 814.08 1438.58 784.354 C 1443.01 756.968 1428.42 679.039 1411.4 656.813 C 1408.4 652.91 1404.6 649.961 1399.6 649.369 C 1391.61 648.422 1382.9 653.811 1376.21 657.641 C 1327.11 685.764 1316.79 743.703 1294.71 790.88 C 1292.56 795.471 1289.56 803.092 1285.64 806.201 C 1284.57 804.36 1284.44 803.41 1284.42 801.303 C 1284.34 792.756 1285.59 783.885 1286.1 775.325 C 1286.92 761.415 1287.16 747.477 1286.8 733.548 C 1286.19 712.009 1285.11 689.122 1281.56 667.89 C 1278.78 651.204 1274.22 634.556 1270.35 618.08 L 1269.39 617.831 L 1267.79 617.392 C 1249.5 612.471 1233.66 601.438 1218.73 590.149 C 1213.61 586.277 1208.39 581.697 1202.84 578.535 C 1200.08 576.958 1197.4 576.296 1194.22 576.31 C 1194.53 577.186 1194.63 577.607 1195.24 578.442 C 1202.99 589.057 1230 612.136 1241.88 618.191 C 1246.48 620.535 1251.77 621.769 1256.73 623.147 C 1222.19 623.111 1184.96 606.648 1154.47 591.173 C 1146.58 587.168 1138.97 580.925 1130.69 577.939 C 1119 573.718 1086.07 573.709 1070.47 570.918 C 1077.5 583.828 1086.76 596.289 1098.19 605.578 C 1090.1 602.234 1082.39 597.269 1073.64 595.843 C 1063.04 594.116 1052.7 595.949 1041.8 593.526 C 1010.75 586.625 965.76 565.312 938.935 547.878 C 945.576 547.025 952.326 546.62 958.998 546.035 C 947.147 530.345 933.464 516.234 921.823 500.267 C 884.406 448.947 863.159 390.077 850.59 328.31 z M 899.617 258.513 C 901.377 289.749 924.319 359.246 941.502 385.883 L 941.995 386.995 L 941.502 385.883 C 936.774 367.981 929.228 350.928 924.421 333.053 C 932.036 346.785 939.526 360.586 946.889 374.454 C 951.896 383.924 956.796 395.46 963.446 403.84 L 963.995 404.995 L 963.446 403.84 C 957.201 376.195 931.228 337.5 918.394 311.035 C 910.01 293.746 905.462 276.581 899.617 258.513 z M 974.452 314.417 C 974.73 318.29 975.784 321.901 977.534 325.366 C 984.726 339.614 997.607 351.479 1008.92 362.493 C 1039.92 392.663 1069.32 415.985 1106.86 437.641 C 1116.66 443.297 1127.24 449.798 1137.97 453.413 L 1139.43 454.244 L 1140.99 454.995 L 1139.43 454.244 L 1137.97 453.413 C 1128.83 445.578 1116.27 440.171 1106.07 433.67 C 1084.77 420.153 1064.33 405.338 1044.85 389.31 C 1031.07 377.842 1017.71 365.301 1006.13 351.607 C 995.953 339.573 987.112 325.869 975.395 315.254 C 975.084 314.971 974.766 314.696 974.452 314.417 z M 632.31 759.351 C 627.33 754.688 623.254 748.771 619.416 743.141 C 616.294 783.648 644.305 856.386 670.821 887.184 C 676.232 893.469 681.978 899.867 688.212 905.328 C 686.069 896.202 683.858 887.091 681.579 877.998 C 678.881 880.173 676.017 882.283 673.576 884.74 C 674.299 882.547 674.89 880.717 676.28 878.856 C 678.233 876.243 680.019 873.543 681.828 870.829 C 680.481 870.132 677.521 873.522 675.493 873.815 C 675.678 873.506 675.871 873.202 676.049 872.889 C 678.716 868.182 680.04 864.837 678.457 859.424 C 676.355 860.466 674.679 864.644 673.472 866.789 L 672.41 865.786 C 672.523 860.287 676.371 857.981 677.185 853.281 C 677.571 851.055 677.337 850.601 676.015 848.86 C 672.553 849.806 670.421 854.098 667.622 856.35 C 669.524 850.253 671.797 844.715 674.606 838.98 C 674.157 836.528 673.874 834.758 672.564 832.59 L 670.942 832.352 C 666.97 835.125 663.539 843.173 660.729 847.373 C 662.812 839.376 667.485 832.418 670.027 824.619 C 667.481 825.731 665.506 829.153 663.797 831.387 C 666.47 825.294 670.245 819.319 673.386 813.425 C 661.845 823.235 656.138 835.967 649.074 848.981 C 650.938 842.893 652.918 836.703 654.279 830.48 C 656.015 822.546 660.055 819.733 664.669 813.59 C 665.877 811.982 667.748 810.142 667.473 808.116 L 662.551 812.472 C 663.903 809.321 665.2 806.174 666.398 802.961 L 664.023 803.375 C 656.058 809.169 650.403 819.045 644.906 827.123 C 649.219 811.352 661.806 801.164 665.807 785.22 C 661.383 792.655 651.516 807.546 644.927 812.462 C 647.893 805.583 651.868 800.282 655.794 793.974 L 655.989 793.906 L 656.664 792.41 L 658 791 L 658.995 790.005 L 658 791 L 656.664 792.41 L 655.794 793.974 C 649.764 798.742 645.874 805.656 639.683 810.544 C 644.139 800.748 649.968 792.701 657.777 785.322 L 658.995 785.005 L 657.777 785.322 C 652.994 786.825 643.312 793.75 640.633 797.962 C 639.923 799.078 639.955 799.386 639.744 800.519 L 640.367 801.169 L 641.989 800.191 C 641.211 801.794 640.283 803.3 639.384 804.839 L 638.064 804.338 C 636.617 798.188 637.839 793.925 640.223 788.159 C 641.348 787.122 642.667 786.019 643.556 784.772 C 645.307 782.317 644.831 780.518 644.413 777.712 L 641.997 777.733 C 640.285 780.506 640.473 784.913 640.223 788.159 C 638.938 787.073 638.313 786.105 636.612 785.877 L 635.714 790.33 L 634.915 790.072 C 634.663 788.699 634.446 787.325 634.2 785.952 C 632.607 777.057 635.983 768.552 632.933 759.842 C 635.978 762.568 638.478 765.969 641.561 768.728 C 647.662 774.19 654.562 778.81 661.185 783.607 C 660.177 779.195 659.327 774.184 657.027 770.23 C 654.275 765.5 623.796 737.172 619.501 735.947 C 620.592 744.493 628.087 752.177 632.31 759.351 z M 914.494 1541.29 L 914.185 1541.81 L 914.494 1541.29 C 924.038 1537.87 934.023 1535.31 943.719 1532.31 C 954.007 1521.2 964.45 1510.24 975.044 1499.43 C 973.908 1496.13 972.903 1493.54 970.796 1490.75 C 968.284 1488.47 965.424 1486.55 962.685 1484.56 C 942.372 1498.78 926.484 1519.63 914.494 1541.29 z M 1846.52 1966.33 L 1845.57 1968.58 L 1845.16 1970 L 1845.57 1968.58 L 1846.52 1966.33 C 1855.24 1947.6 1862.4 1928 1870.58 1908.99 C 1884.94 1875.59 1900.77 1841.88 1917.77 1809.74 C 1927.24 1791.84 1945.01 1757.44 1960.63 1745.42 C 1964.51 1742.43 1970.85 1739.94 1975.51 1738.56 C 1975.78 1738.48 1976.06 1738.41 1976.34 1738.33 C 1976.29 1735.42 1974.09 1733.3 1972.4 1731.08 C 1971.17 1729.51 1971.28 1729.1 1969.26 1728.56 C 1965.46 1735.65 1957.77 1738.93 1952.17 1744.46 C 1946.58 1749.99 1941.89 1756.53 1937.52 1763.04 C 1904.88 1811.71 1878.33 1872.24 1858.74 1927.35 C 1854.26 1939.95 1849.05 1953.18 1846.52 1966.33 z M 836.696 36.4284 C 762.797 40.6967 699.955 78.4671 651.368 132.619 C 629.775 156.686 599.147 200.877 595.412 233.36 C 608.172 217.993 621.346 202.976 634.92 188.323 C 689.385 125.364 778.531 57.9735 863.909 51.3785 C 877.147 50.3559 889.946 51.9011 902.898 54.6181 C 907.741 55.634 912.543 57.2455 917.467 57.7327 C 892.737 42.2856 865.967 34.5977 836.696 36.4284 z M 995.515 237.5 L 996.49 237.5 L 995.515 237.5 z M 798.628 276.936 C 785.515 297.375 775.378 320.381 766.124 342.779 C 734.443 419.461 726.154 475.146 735.58 557.724 C 743.178 554.976 750.886 552.672 758.856 551.263 C 778.082 548.068 796.416 547.846 815.617 551.193 C 791.153 477.161 780.689 411.841 788.451 333.811 C 789.639 321.62 791.49 309.502 793.994 297.512 C 795.351 291.178 798.328 283.312 798.628 276.936 z M 1355.75 284.758 C 1359.63 289.401 1370.28 297.411 1376.36 297.946 C 1377.19 298.018 1378.01 298.013 1378.84 298.033 C 1372.98 294.111 1362.52 285.156 1355.75 284.758 z M 1227.16 300.443 C 1228.04 303.698 1230.09 308.181 1229.03 311.337 L 1226.6 312.147 L 1226.14 313.573 C 1230.29 318.856 1239.77 321.931 1245.46 325.877 L 1246.64 326.146 C 1242.17 318.558 1233.52 306.159 1227.16 300.443 z M 873.174 312.667 C 872.868 323.286 872.499 333.899 877.646 343.623 C 879.797 347.688 882.608 351.135 884.611 355.346 C 885.23 356.649 884.923 356.131 885.972 357.301 C 884.448 349.152 878.3 316.52 873.174 312.667 z M 583.363 314.497 L 579.798 317.166 C 579.807 319.826 580.025 322.459 580.229 325.109 L 581.129 325.964 C 583.255 322.87 586.223 319.589 586.352 315.716 C 584.484 314.399 585.492 314.775 583.363 314.497 z M 691.964 355.461 C 689.522 361.067 687.074 369.537 688.959 375.641 C 689.061 375.969 689.226 376.274 689.359 376.59 C 691.563 370.327 694.94 362.322 692.143 355.823 C 692.09 355.7 692.024 355.582 691.964 355.461 z M 716.61 359.694 C 714.935 363.15 713.243 366.166 712.97 370.046 C 713.364 370.63 713.624 371.372 714.217 371.753 C 715.851 368.834 718.539 364.706 717.693 361.196 C 717.481 360.317 717.293 360.346 716.61 359.694 z M 720.442 362.695 C 718.475 367.246 716.355 371.543 715.716 376.505 L 717.08 377.626 C 719.518 373.069 721.745 368.953 721.37 363.643 L 720.442 362.695 z M 1333.54 364.5 L 1334.49 364.5 L 1333.54 364.5 z M 699.612 364.553 C 698.252 367.884 696.303 371.521 696.232 375.156 L 697.518 376.467 C 698.945 373.052 700.747 369.588 700.849 365.842 L 699.612 364.553 z M 704.422 367.353 C 704.422 369.779 703.745 372.906 705.343 374.753 L 706.588 374.355 C 707.002 372.045 707.649 370.698 706.085 368.667 C 705.698 368.164 704.95 367.709 704.422 367.353 z M 868.374 368.5 L 869.039 368.5 L 868.374 368.5 z M 942.391 388.5 L 943.205 388.5 L 942.391 388.5 z M 943.329 390.914 L 944.49 391.5 L 943.329 390.914 z M 944.419 393.5 L 945.165 393.5 L 944.419 393.5 z M 515.627 416.748 C 487.582 473.97 451.243 528.264 474.197 594.936 C 480.101 612.086 490.846 630.29 505.731 641.117 C 513.948 646.836 521.551 653.195 531.538 655.342 C 515.613 610.547 506.487 571.405 509.464 523.326 C 510.504 506.519 514.313 489.871 515.161 473.159 C 515.683 462.846 514.177 452.473 513.903 442.171 C 513.679 433.766 516.244 424.95 515.627 416.748 z M 1142.27 455.5 L 1143.49 455.5 L 1142.27 455.5 z M 710.229 479.672 C 707.866 493.183 701.191 557.414 703.592 566.922 C 705.382 566.753 705.648 566.645 707.295 565.645 C 710.539 564.459 713.258 564.029 715.548 561.395 C 714.978 551.171 711.026 541.507 710.584 531.308 C 710.044 518.871 712.817 488.948 710.229 479.672 z M 1036.81 479.807 C 1041.23 498.198 1047.74 516.972 1055.03 534.422 C 1066.34 533.303 1076.41 533.939 1087.62 535.509 C 1080.71 527.587 1072.79 520.554 1065.59 512.881 C 1058.01 504.792 1051.09 496.064 1044.03 487.523 C 1041.8 484.829 1039.75 481.761 1036.81 479.807 z M 669.81 586.374 C 669.345 589.337 668.378 592.533 669.57 595.392 L 670.9 596.455 C 671.997 592.923 672.371 590.97 670.498 587.511 C 670.287 587.122 670.039 586.753 669.81 586.374 z M 660.64 784.5 L 661.973 784.5 L 660.64 784.5 z M 664.673 798.481 L 663.349 800.091 C 664.111 800.131 664.958 800.261 665.711 800.14 L 666.26 798.253 L 664.673 798.481 z M 1279.47 917.735 C 1270.53 949.203 1262.47 980.205 1245.8 1008.72 C 1222.64 1048.36 1181.58 1090.25 1150.62 1125.06 C 1119.09 1160.49 1088.2 1197.37 1053.48 1229.73 C 1038.89 1243.34 1023.23 1256.51 1005.78 1266.26 C 988.971 1275.66 960.235 1287.33 940.831 1281.77 C 913.805 1274.03 885.097 1213.19 867.964 1190.64 C 874.429 1220.19 878.773 1250.16 880.965 1280.32 C 881.981 1294.94 879.398 1312.1 882.566 1326.19 C 885.531 1339.38 895.391 1355.66 902.245 1367.42 C 914.39 1389.69 927.552 1411.4 941.687 1432.47 C 954.093 1450.81 971.581 1472.08 980.359 1492.16 C 983.139 1487.43 985.86 1482.47 989.51 1478.35 C 1001.87 1464.42 1018.55 1454.21 1033.55 1443.32 C 1047.06 1433.4 1060.4 1423.26 1073.58 1412.9 C 1131.4 1367.4 1192.03 1313.14 1235.7 1253.88 C 1242.29 1244.93 1251.5 1234.03 1254.19 1223.15 C 1257.07 1211.54 1255.85 1196.14 1256.4 1184 C 1258.15 1145.37 1258.7 1106.58 1261.23 1068.01 C 1263.16 1038.7 1267.14 1009.48 1271.13 980.387 C 1272.89 967.627 1281.07 927.413 1279.47 917.735 z M 1271.41 1152.29 C 1271.25 1158.07 1270.98 1163.87 1271.04 1169.66 C 1277.53 1175.05 1282.7 1179.49 1283.37 1188.51 C 1285.51 1217.18 1228.53 1285.3 1208.83 1306.95 C 1164.3 1355.88 1112.3 1399.45 1059.52 1439.16 C 1047.06 1448.38 1034.39 1457.31 1021.52 1465.93 C 1012.32 1472.2 1002.22 1478.11 994.296 1485.97 C 1003.18 1501.28 1014.11 1514.96 1023.54 1529.88 C 1043.12 1560.99 1061.27 1592.98 1077.93 1625.75 C 1085.64 1640.97 1091.62 1656.57 1096.9 1672.78 C 1110.58 1654.95 1122.58 1635.46 1135.66 1617.11 C 1164.24 1577.23 1192.12 1536.86 1219.3 1496.01 C 1237.45 1468.62 1255.75 1440.88 1271.4 1411.96 C 1280.94 1394.32 1289.09 1375.8 1297.56 1357.62 C 1309.7 1331.56 1325.79 1304.5 1321.36 1274.53 C 1319.12 1259.38 1311.86 1244.22 1307.7 1229.38 C 1302.84 1212.03 1301.18 1191.35 1293.57 1175.18 C 1289.53 1166.58 1283.83 1160.34 1276.18 1154.86 C 1274.65 1153.77 1273.13 1153.02 1271.41 1152.29 z M 858.853 1212.96 C 851.947 1221.38 846.879 1229.96 843.384 1240.32 C 830.766 1277.72 823.448 1372.43 823.329 1413.82 C 823.245 1442.68 825.25 1472.54 828.1 1501.27 C 832.989 1550.56 842.527 1610.61 860.346 1656.98 C 864.268 1637.32 868.631 1618.29 874.743 1599.18 C 891.204 1554.18 898.264 1536.46 930.143 1500.25 C 935.678 1493.96 942.432 1484.86 950.143 1481.25 C 952.528 1480.13 955.063 1479.27 957.548 1478.4 L 956.764 1477.06 C 947.355 1461.04 935.156 1446.36 924.874 1430.84 C 906.389 1402.94 862.056 1329.41 857.133 1299.25 C 856.563 1295.75 856.844 1291.98 857.618 1288.54 C 859.499 1280.17 864.242 1272.39 865.57 1263.94 C 867.124 1254.06 862.892 1222.88 859.182 1213.5 C 859.103 1213.3 858.962 1213.14 858.853 1212.96 z M 1324.76 1233.5 L 1326.49 1233.5 L 1324.76 1233.5 z M 869.457 1287.54 C 867.505 1291.99 866.175 1295.09 868.108 1299.93 C 868.985 1302.13 870.17 1304.23 871.293 1306.31 C 872.33 1301.08 871.233 1292.58 869.457 1287.54 z M 1412.76 1321.66 C 1425.08 1374.52 1436.53 1427.27 1446.04 1480.74 C 1452.87 1519.14 1457.82 1557.82 1464.23 1596.28 C 1466.95 1612.59 1470.63 1628.77 1473.65 1645.04 C 1476.6 1660.95 1479.16 1676.94 1481.33 1692.98 C 1482.59 1702.23 1482.64 1714.54 1485.71 1723.2 C 1488.66 1723.82 1491.02 1722.17 1493.58 1720.9 C 1495.16 1719.1 1494.91 1720.07 1494.78 1717.92 C 1494.1 1705.96 1490.77 1693 1489.09 1681.01 C 1482.06 1630.88 1440.08 1344.93 1413.43 1322.11 C 1413.22 1321.94 1412.98 1321.81 1412.76 1321.66 z M 1316.12 1340.68 C 1303.17 1372 1290.08 1403.52 1273.37 1433.07 C 1258.66 1459.07 1241.85 1483.87 1225.1 1508.57 C 1211.48 1528.65 1198.35 1548.98 1184.22 1568.71 C 1168.37 1590.83 1151.59 1612.13 1135.34 1633.92 C 1124.91 1647.9 1109.35 1677.17 1093.92 1684.15 C 1091.89 1683.94 1092.15 1684.35 1090.68 1682.54 C 1083.84 1674.07 1080.67 1660.41 1076.53 1650.29 C 1071.58 1638.2 1066.06 1625.53 1059.64 1614.15 C 1050.49 1630.63 1040.29 1646.5 1030.66 1662.7 C 1024.65 1672.82 1019.27 1684.27 1012.08 1693.52 C 1010.3 1695.8 1008.36 1697 1005.75 1698.23 C 1011.69 1725.77 1026.45 1757.95 1030.57 1783.73 C 1037.01 1814.57 1039.81 1845.9 1045.92 1876.71 C 1066.79 1855.65 1084.26 1831.34 1102.27 1807.84 C 1118.05 1787.26 1134.48 1766.93 1149.59 1745.87 C 1170.16 1717.2 1189.27 1687.35 1208.83 1657.98 C 1226.32 1631.71 1247.01 1605.06 1259.21 1575.86 C 1279.85 1526.48 1288.88 1470.72 1300.24 1418.58 C 1304.4 1399.51 1316.88 1360.9 1316.55 1343.5 C 1316.52 1342.06 1316.43 1341.9 1316.12 1340.68 z M 811.146 1425.7 C 808.743 1436.41 807.744 1447.7 806.257 1458.59 C 801.855 1490.8 799.422 1522.87 795.827 1555.14 C 794.164 1570.07 787.797 1600.29 789.349 1613.64 C 790.609 1624.48 799.034 1635.59 802.252 1646.18 C 808.843 1667.89 813.317 1690.17 820.205 1711.84 C 829.796 1742.01 842.421 1771.59 854.158 1800.98 C 861.82 1820.17 868.705 1839.82 876.949 1858.75 C 879.049 1841.79 880.39 1824.68 883.089 1807.81 C 887.357 1781.13 894.502 1755.15 902.948 1729.51 C 907.493 1716.44 912.33 1703.37 916.189 1690.07 C 914.727 1688.57 913.033 1686.9 912.172 1684.97 C 907.04 1673.43 908.018 1637.98 908.224 1624.42 C 908.434 1610.48 910.665 1596.08 910.076 1582.26 C 909.762 1574.89 905.979 1567.91 907.064 1560.44 C 907.93 1554.47 911.773 1548.34 913.586 1542.5 C 899.23 1561.36 883.872 1606.39 876.876 1630 C 873.503 1641.39 871.133 1653.13 867.481 1664.42 C 866.559 1667.26 865.766 1670.37 863.517 1672.46 C 860.954 1672.41 860.095 1672.05 858.358 1670.09 C 853.263 1664.32 850.273 1654.83 847.623 1647.71 C 829.375 1598.69 819.541 1543.85 815.101 1491.9 C 813.978 1477.35 813.143 1462.79 812.595 1448.21 C 812.281 1441.09 812.711 1432.59 811.146 1425.7 z M 988.633 1498.7 C 977.652 1509.86 966.21 1520.55 954.336 1530.75 L 970.774 1527.92 C 981.751 1525.85 992.732 1524.22 1003.8 1522.71 C 999.792 1516.99 992.639 1502.43 988.633 1498.7 z M 1284.29 1517.96 L 1285.02 1518.5 L 1284.29 1517.96 z M 201.696 1563.92 C 197.636 1566.02 196.037 1567.3 194.592 1571.7 C 187.3 1593.91 185.526 1623.06 183.196 1646.33 C 172.446 1752.29 171.551 1859.02 180.522 1965.15 L 181.586 1964.51 C 177.152 1868.39 176.455 1770.68 185.968 1674.86 C 188.627 1648.07 191.191 1620.26 195.94 1593.74 C 196.943 1588.15 203.312 1567.92 201.696 1563.92 z M 782.363 1640.68 C 778.553 1654.23 772.321 1684.35 776.471 1697.13 C 778.221 1686.1 784.848 1649.63 782.363 1640.68 z M 1228.81 1673.86 C 1217.96 1688.67 1208.5 1704.24 1198.35 1719.51 C 1189.31 1733.11 1179.53 1746.31 1169.93 1759.52 C 1126.43 1819.38 1078.82 1874.87 1027.82 1928.45 C 1002.33 1955.23 977.654 1981.14 948.896 2004.56 C 948.629 2010.21 947.229 2017.76 948.286 2023.24 C 967.913 2009.64 985.123 1992.3 1002.01 1975.52 C 1037.17 1940.55 1069.85 1903.64 1101.89 1865.84 C 1138.11 1823.12 1176.55 1779.08 1205.38 1730.91 C 1213.85 1716.77 1225.51 1692.54 1228.62 1676.42 C 1228.86 1675.19 1228.82 1674.96 1228.81 1673.86 z M 784.227 1680.77 C 784.593 1696.97 782.703 1716.06 786.364 1731.77 C 791.706 1754.68 805.81 1777.59 815.376 1798.98 C 823.325 1816.76 830.119 1835.05 838.075 1852.83 C 859.184 1899.99 883.142 1943.63 913.645 1985.32 C 923.027 1998.14 932.515 2011.95 943.541 2023.41 L 944.811 2023.37 C 945.13 2016.53 945.577 2009.75 946.252 2002.93 C 929.314 1978.61 910.248 1955.05 894.903 1929.72 C 886.588 1916 882.035 1901.02 874.846 1886.84 C 859.146 1855.86 841.679 1825.48 827.662 1793.69 C 817.73 1771.17 808.234 1748.11 799.537 1725.07 C 796.043 1715.81 788.343 1686.42 784.227 1680.77 z M 1496.1 1729.92 C 1453.6 1754.57 1405.47 1769.2 1363.79 1795.07 L 1363.77 1795.75 L 1369.75 1794.5 C 1409.13 1782.63 1466.92 1763.39 1503.09 1745.05 C 1501.63 1741 1499.61 1732.4 1496.1 1729.92 z M 783.636 1745.94 L 784.49 1746.5 L 783.636 1745.94 z M 782.112 1775.61 C 781.956 1787.63 781.554 1799.89 783.304 1811.81 L 784.398 1812.24 C 784.936 1801.81 786.397 1785.35 782.112 1775.61 z"/>
<path transform="translate(0,0)" fill="rgb(0,0,0)" d="M 1371.24 264.765 L 1370.01 264.265 L 1371.24 264.765 z"/>
<path transform="translate(0,0)" fill="rgb(0,0,0)" d="M 1371.24 264.765 L 1372.14 266.62 L 1371.24 264.765 z"/>
<path transform="translate(0,0)" fill="rgb(0,0,0)" d="M 1372.14 266.62 L 1373.17 267.302 L 1372.14 266.62 z"/>
<path transform="translate(0,0)" fill="rgb(0,0,0)" d="M 1373.17 267.302 L 1374.18 268.392 L 1373.17 267.302 z"/>
<path transform="translate(0,0)" fill="rgb(0,0,0)" d="M 1374.18 268.392 L 1375.22 269.323 L 1374.18 268.392 z"/>
<path transform="translate(0,0)" fill="rgb(0,0,0)" d="M 1375.22 269.323 L 1376.33 270.219 L 1375.22 269.323 z"/>
<path transform="translate(0,0)" fill="rgb(0,0,0)" d="M 1376.33 270.219 L 1377.31 271.209 L 1376.33 270.219 z"/>
<path transform="translate(0,0)" fill="rgb(0,0,0)" d="M 1377.31 271.209 L 1377.86 271.742 L 1377.31 271.209 z"/>
<path transform="translate(0,0)" fill="rgb(0,0,0)" d="M 572.304 299.995 L 572.832 299.407 L 572.304 299.995 z"/>
<path transform="translate(0,0)" fill="rgb(0,0,0)" d="M 566.09 310.54 L 566.718 310.005 L 566.09 310.54 z"/>
<path transform="translate(0,0)" fill="rgb(0,0,0)" d="M 1218.87 315.509 L 1219.76 315.736 L 1218.87 315.509 z"/>
<path transform="translate(0,0)" fill="rgb(0,0,0)" d="M 628.305 321.5 L 627.484 321.5 L 628.305 321.5 z"/>
<path transform="translate(0,0)" fill="rgb(0,0,0)" d="M 626.301 323.633 L 626.802 323.005 L 626.301 323.633 z"/>
<path transform="translate(0,0)" fill="rgb(0,0,0)" d="M 625.502 325.113 L 626.301 323.633 L 625.502 325.113 z"/>
<path transform="translate(0,0)" fill="rgb(0,0,0)" d="M 1221.53 324.034 L 1221.93 324.629 L 1221.53 324.034 z"/>
<path transform="translate(0,0)" fill="rgb(0,0,0)" d="M 1124.3 332.816 L 1124.79 333.878 L 1124.3 332.816 z"/>
<path transform="translate(0,0)" fill="rgb(0,0,0)" d="M 925.036 333.5 L 924.416 333.5 L 925.036 333.5 z"/>
<path transform="translate(0,0)" fill="rgb(0,0,0)" d="M 1082.76 343.849 L 1082.01 343.237 L 1082.76 343.849 z"/>
<path transform="translate(0,0)" fill="rgb(0,0,0)" d="M 1131.8 343.608 L 1131.27 343.005 L 1131.8 343.608 z"/>
<path transform="translate(0,0)" fill="rgb(0,0,0)" d="M 1082.76 343.849 L 1083.55 344.602 L 1082.76 343.849 z"/>
<path transform="translate(0,0)" fill="rgb(0,0,0)" d="M 978.386 361.343 L 978.804 361.995 L 978.386 361.343 z"/>
<path transform="translate(0,0)" fill="rgb(0,0,0)" d="M 644.285 367.236 L 644.708 366.005 L 644.285 367.236 z"/>
<path transform="translate(0,0)" fill="rgb(0,0,0)" d="M 1022.26 660.511 C 1025.65 658.048 1029.05 655.822 1032.76 653.874 C 1065.4 636.727 1111.91 635.1 1147.66 642.052 C 1161.32 644.709 1174.19 649.25 1187.43 653.383 L 1187.9 653.925 L 1187.43 653.383 C 1163.98 633.898 1128.81 626.922 1099.09 629.62 C 1074.2 631.881 1048.53 639.765 1025.18 648.54 C 1047.79 627.283 1078.61 621.114 1108.96 621.894 C 1148.22 622.903 1188.17 643.086 1214.95 671.408 C 1219.58 676.309 1225.4 682.902 1226.48 689.671 L 1225.85 691.499 C 1220.61 692.428 1217.6 690.009 1213.41 687.273 C 1208.15 704.761 1197.06 715.668 1181.15 724.152 C 1170.47 729.851 1153.8 735.606 1141.82 731.903 C 1141.54 731.815 1141.26 731.717 1140.98 731.624 C 1144.92 729.784 1149.64 729.263 1153.86 728.156 C 1162.01 726.015 1170.87 720.826 1177.58 715.773 L 1177.84 715.295 C 1181.52 714.078 1182.88 712.624 1184.95 709.535 C 1181.89 711.227 1179.96 712.493 1177.84 715.295 L 1177.58 715.773 C 1170.28 718.24 1163.19 720.322 1155.61 721.787 C 1156.62 721.358 1157.62 720.903 1158.65 720.51 C 1174.03 714.589 1198.87 699.774 1209.68 687.509 C 1197.67 679.743 1184.6 673.756 1170.87 669.734 C 1171.17 678.598 1171.7 687.103 1168.67 695.635 C 1164.81 706.497 1156.64 716.671 1146.1 721.612 C 1134.59 727.011 1117.29 728.524 1105.31 724.121 C 1093.46 719.76 1086.45 711.294 1081.37 700.184 L 1084.26 701.287 C 1084.22 697.687 1078.99 692.772 1076.57 690.035 C 1074.95 678.604 1073.75 671.872 1078.84 661.2 C 1061.73 666.95 1046.44 674.227 1035.84 689.309 C 1032.69 693.796 1030.21 699.219 1026.76 703.378 C 1026.92 697.888 1029.35 691.678 1031.22 686.543 C 1038.4 666.856 1054.72 654.535 1073.1 645.885 C 1055.56 649.026 1039.13 654.937 1022.26 660.511 z M 1105.94 667.334 C 1102.66 667.721 1099.87 667.675 1097.41 670.161 C 1097.29 671.686 1096.84 672.161 1098.03 673.362 C 1102.26 677.647 1109.76 678.753 1115.51 678.509 C 1116.63 678.461 1116.6 678.441 1117.78 678.301 C 1121.14 677.232 1123.75 676.564 1126.25 673.987 L 1126.89 671.632 C 1124.4 668.672 1120.83 667.389 1116.95 667.101 C 1113.32 666.833 1109.57 667.14 1105.94 667.334 z M 1080.19 671.345 C 1080.17 673.764 1079.66 675.473 1081.82 677.132 C 1082.49 677.651 1084.11 678.311 1084.92 678.669 C 1084.61 675.77 1084.94 674.105 1082.93 671.926 L 1080.19 671.345 z M 1128.33 685.609 L 1127.45 687.103 L 1128.64 687.879 L 1130.04 686.193 L 1128.33 685.609 z M 1152.69 692.787 C 1151.78 696.005 1150.26 699.622 1151.2 702.92 C 1153.72 704.71 1154.5 704.404 1157.52 704.402 C 1158.4 701.285 1159.33 700.121 1157.95 697.112 L 1157.14 696.605 C 1155.35 695.47 1153.83 694.638 1152.69 692.787 z M 1134.77 697.5 L 1136.1 697.5 L 1134.77 697.5 z M 1137.51 700.299 L 1135.89 700.75 L 1136.99 701.511 L 1138.62 700.846 L 1137.51 700.299 z M 1131.35 700.977 L 1132.28 701.5 L 1131.35 700.977 z M 1125.99 708.472 L 1126.11 708.611 L 1125.99 708.472 z M 1136.93 707.981 C 1138.66 709.481 1140.35 710.066 1142.69 710.243 C 1142.87 710.256 1143.04 710.192 1143.22 710.167 C 1141.25 708.324 1140.72 708.228 1138.06 707.635 L 1136.93 707.981 z M 1131.65 710.558 L 1130.8 711.684 L 1131.64 712.247 L 1132.89 710.913 L 1131.65 710.558 z M 1138.05 711.624 L 1137.71 719.01 C 1139.17 719.923 1138.47 719.858 1139.69 719.69 C 1139.58 716.521 1140.24 714.007 1138.05 711.624 z M 1148.03 712.926 L 1148.82 713.245 L 1148.03 712.926 z M 1152.17 713.928 L 1147.41 717.233 L 1147.57 718.316 L 1148.33 718.857 C 1150.57 717.56 1151.62 717.553 1152.51 714.985 L 1152.17 713.928 z"/>
<path transform="translate(0,0)" fill="rgb(0,0,0)" d="M 718.275 651.532 C 734.923 643.947 755.275 639.907 773.477 638.398 C 779.889 637.783 786.669 638.129 792.997 639.348 C 807.719 642.184 829.053 652.421 837.507 665.053 L 837.094 665.94 C 825.926 657.673 815.859 650.928 802.12 647.591 L 800.693 647.25 C 773.364 642.745 745.297 646.545 718.275 651.532 z"/>
<path transform="translate(0,0)" fill="rgb(0,0,0)" d="M 690.522 709.199 C 689.031 709.931 687.506 710.706 685.929 711.235 C 683.477 712.059 681.588 712.017 679.232 710.922 L 678.606 708.695 C 683.412 694.099 701.943 681.174 713.568 671.935 L 713.604 668.28 C 732.386 660.712 747.59 655.22 767.925 653.403 C 784.696 652.168 804.297 654.952 819.061 663.41 C 836.764 673.551 846.503 691.013 851.616 710.203 C 853.188 716.105 853.52 721.649 850.148 726.989 C 846.752 732.364 840.505 736.918 834.245 738.212 C 831.924 738.692 829.286 738.8 827.311 737.459 L 828.715 736.107 L 829.573 735.993 C 830.047 735.927 830.519 735.845 830.994 735.789 C 834.063 735.427 835.975 735.247 838.482 733.235 C 843.424 729.27 849.386 722.469 850.012 715.885 C 850.88 706.743 843.307 699.158 837.924 692.726 C 835.597 706.98 830.784 722.31 818.457 731.039 C 808.149 738.339 793.521 738.928 781.361 737.015 C 771.641 735.485 763.351 730.663 757.678 722.553 C 754.612 718.17 752.561 713.106 751.249 707.939 C 746.371 688.729 758.206 687.455 760.56 672.813 C 759.769 672.261 759.303 671.853 758.291 671.601 C 748.827 669.245 730.076 681.302 721.531 685.718 C 713.061 690.832 703.535 696.327 696.605 703.473 C 694.135 706.02 692.887 708.462 693.155 712.082 C 693.473 716.375 696.216 719.876 699.363 722.598 C 722.919 742.973 760.326 749.344 790.359 747.271 C 771.27 753.026 731.871 752.862 711.334 750.41 C 714.901 749.174 719.387 748.073 722.245 745.635 C 715.828 743.351 705.998 746.207 698.852 745.126 L 698.353 743.858 C 701.641 740.927 705.805 739.732 709.866 738.192 C 699.115 729.585 693.64 722.606 690.522 709.199 z M 768.94 679.833 C 768.677 684.196 769.42 686.371 772.314 689.654 C 776.363 694.247 782.503 696.937 788.632 696.957 C 792.182 696.968 795.501 696.061 798.552 694.297 C 800.48 691.639 801.841 690.574 801.951 687.239 C 800.008 684.151 798.028 682.944 794.581 682.06 C 786.35 679.949 777.356 681.227 768.94 679.833 z"/>
<path transform="translate(0,0)" fill="rgb(0,0,0)" d="M 1377.6 743.423 C 1384 740.837 1389.63 736.856 1396.28 734.729 C 1391.39 740.15 1383.2 744.276 1377.02 748.306 C 1361.78 758.233 1346.14 767.694 1333.08 780.468 C 1347.38 755.873 1383.95 730.154 1407.35 714.813 L 1404.26 702.889 C 1386.92 710.024 1363.33 738.319 1350.65 752.76 C 1345.82 758.252 1341.1 764.645 1335.52 769.347 C 1341.01 755.664 1368.25 726.657 1380.74 715.946 C 1386.48 711.027 1400.13 705.496 1402.67 698.641 L 1401.73 696.61 L 1399.74 696.116 C 1393.48 698.115 1388.3 700.79 1383.18 704.939 C 1370.51 715.222 1328.77 759.152 1328.75 774.513 C 1328.74 777.165 1329.9 778.474 1331.65 780.265 C 1334.95 781.767 1337.18 781.986 1340.62 780.619 C 1344.51 779.072 1348.46 773.575 1352.06 771.032 C 1369.48 758.731 1389.99 746.376 1410.47 740.2 C 1387.54 757.249 1362.55 774.558 1335.33 783.705 C 1338.48 786.757 1341.79 789.743 1343.8 793.714 C 1348.56 803.103 1346.88 811.377 1343.84 820.891 C 1355.62 814.393 1365.5 806.192 1376.23 798.217 C 1386.98 790.231 1398.04 782.613 1408.99 774.899 C 1400.26 786.221 1387.4 797.062 1375.38 804.783 C 1366.8 810.297 1357.35 814.411 1348.75 819.882 C 1334.64 828.864 1317.54 846.779 1311.41 862.367 C 1327.83 854.96 1343.44 844.368 1359.08 835.397 C 1372.83 827.514 1387.14 820.655 1400.97 812.912 C 1399.52 814.677 1398 816.389 1396.43 818.046 C 1384.22 830.769 1320.55 874.316 1304.09 873.823 C 1302.2 873.767 1300.2 873.187 1298.99 871.682 C 1296.68 868.823 1296.38 865.03 1296.67 861.488 C 1298.61 838.36 1325.17 829.838 1332.92 813.562 C 1340.27 798.113 1316.95 787.356 1318.58 772.116 C 1320.46 754.468 1363.5 707.475 1377.92 695.211 C 1383.22 690.706 1392.72 682.325 1400.17 683.76 C 1402.95 684.295 1404.94 686.808 1406.37 689.071 C 1415.85 704.066 1424.94 767.968 1419.61 785.935 C 1419.16 787.46 1418.62 788.961 1417.15 789.678 C 1415.53 785.802 1416.5 773.333 1415.96 767.988 C 1414.28 751.674 1410.85 735.88 1407.46 719.852 C 1397.15 726.498 1385.64 734.148 1377.6 743.423 L 1377.01 743.97 L 1377.6 743.423 z"/>
<path transform="translate(0,0)" fill="rgb(0,0,0)" d="M 1081.37 700.184 L 1081.16 699.005 L 1081.37 700.184 z"/>
<path transform="translate(0,0)" fill="rgb(0,0,0)" d="M 1026.25 703.959 L 1026.76 703.378 L 1026.25 703.959 z"/>
<path transform="translate(0,0)" fill="rgb(0,0,0)" d="M 1094.54 731.732 C 1093.65 731.901 1092.75 732.082 1091.85 732.183 C 1079.49 733.563 1064.63 726.662 1055.35 718.919 L 1056.4 718.907 C 1068.19 718.658 1083.42 727.615 1094.54 731.732 z"/>
<path transform="translate(0,0)" fill="rgb(0,0,0)" d="M 1403 729.985 L 1404.15 728.998 L 1403 729.985 z"/>
<path transform="translate(0,0)" fill="rgb(0,0,0)" d="M 1400.46 731.285 L 1403 729.985 L 1400.46 731.285 z"/>
<path transform="translate(0,0)" fill="rgb(0,0,0)" d="M 1399.7 732.14 L 1400.46 731.285 L 1399.7 732.14 z"/>
<path transform="translate(0,0)" fill="rgb(0,0,0)" d="M 1397.39 733.444 L 1399.7 732.14 L 1397.39 733.444 z"/>
<path transform="translate(0,0)" fill="rgb(0,0,0)" d="M 1396.85 734.218 L 1397.39 733.444 L 1396.85 734.218 z"/>
<path transform="translate(0,0)" fill="rgb(0,0,0)" d="M 1396.28 734.729 L 1396.85 734.218 L 1396.28 734.729 z"/>
<path transform="translate(0,0)" fill="rgb(0,0,0)" d="M 1350.34 790.327 L 1349.63 789.192 L 1350.22 787.474 C 1364.25 773.852 1390.61 762.671 1408.57 753.942 L 1409.54 754.935 C 1408.5 755.558 1407.48 756.203 1406.43 756.804 C 1387.98 767.378 1371.72 786.032 1350.34 790.327 z"/>
<path transform="translate(0,0)" fill="rgb(0,0,0)" d="M 632.31 759.351 L 632.933 759.842 L 632.31 759.351 z"/>
<path transform="translate(0,0)" fill="rgb(0,0,0)" d="M 1131.64 824.411 C 1137.02 813.371 1171.72 766.921 1180.89 761.835 C 1175.41 776.255 1143.21 815.583 1131.64 824.411 z"/>
<path transform="translate(0,0)" fill="rgb(0,0,0)" d="M 1411.08 771.068 C 1411.7 770.296 1412.28 769.163 1413.21 768.826 C 1412.44 770.148 1412.56 770.475 1411.08 771.068 z"/>
<path transform="translate(0,0)" fill="rgb(0,0,0)" d="M 1335.15 769.942 L 1335.52 769.347 L 1335.15 769.942 z"/>
<path transform="translate(0,0)" fill="rgb(0,0,0)" d="M 1409.6 772.35 L 1411.08 771.068 L 1409.6 772.35 z"/>
<path transform="translate(0,0)" fill="rgb(0,0,0)" d="M 1409.02 772.883 L 1409.6 772.35 L 1409.02 772.883 z"/>
<path transform="translate(0,0)" fill="rgb(0,0,0)" d="M 1105.19 830.175 L 1104.96 830.291 L 1104.4 829.652 C 1114.23 807.624 1129.1 790.018 1145.45 772.61 L 1147.39 773.495 C 1142.41 788.091 1116.03 817.075 1105.19 830.175 z"/>
<path transform="translate(0,0)" fill="rgb(0,0,0)" d="M 1352.18 809.248 L 1350.41 808.606 L 1350.46 807.128 C 1368.7 792.377 1371.03 784.105 1395.22 774.961 C 1396.28 775.117 1395.77 774.889 1396.64 775.864 C 1381.24 786.194 1367.26 798.444 1352.18 809.248 z"/>
<path transform="translate(0,0)" fill="rgb(0,0,0)" d="M 1170.41 825.949 C 1170.41 825.562 1170.33 825.168 1170.4 824.788 C 1172.8 812.78 1197.33 789.31 1206.93 780.883 C 1206.93 781.384 1207.05 781.895 1206.94 782.385 C 1204.59 793.571 1179.02 818.199 1170.41 825.949 z"/>
<path transform="translate(0,0)" fill="rgb(0,0,0)" d="M 1084.77 826.407 C 1089.1 814.434 1104.58 788.993 1115.28 782.537 C 1108.44 797.388 1096.66 815.052 1084.77 826.407 z"/>
<path transform="translate(0,0)" fill="rgb(0,0,0)" d="M 747.536 792.123 L 747.975 791.223 L 747.536 792.123 z"/>
<path transform="translate(0,0)" fill="rgb(0,0,0)" d="M 779.424 791.479 L 779.875 791.116 L 779.424 791.479 z"/>
<path transform="translate(0,0)" fill="rgb(0,0,0)" d="M 740.614 844.027 C 745.502 828.491 765.003 799.676 779.424 791.479 C 775.635 799.581 747.865 836.265 740.614 844.027 z"/>
<path transform="translate(0,0)" fill="rgb(0,0,0)" d="M 702.643 853.485 C 713.194 829.488 728.924 810.232 747.536 792.123 C 742.43 803.303 711.453 846.709 702.643 853.485 z"/>
<path transform="translate(0,0)" fill="rgb(0,0,0)" d="M 643.377 798.552 L 643.989 797.15 L 643.377 798.552 z"/>
<path transform="translate(0,0)" fill="rgb(0,0,0)" d="M 914.362 798.335 L 914.85 797.044 L 914.362 798.335 z"/>
<path transform="translate(0,0)" fill="rgb(0,0,0)" d="M 1400.48 797.625 L 1401.99 797.216 L 1400.48 797.625 z"/>
<path transform="translate(0,0)" fill="rgb(0,0,0)" d="M 912.359 799.127 L 914.362 798.335 L 912.359 799.127 z"/>
<path transform="translate(0,0)" fill="rgb(0,0,0)" d="M 1399.67 798.533 L 1400.48 797.625 L 1399.67 798.533 z"/>
<path transform="translate(0,0)" fill="rgb(0,0,0)" d="M 641.989 800.191 L 643.377 798.552 L 641.989 800.191 z"/>
<path transform="translate(0,0)" fill="rgb(0,0,0)" d="M 911.745 800.208 L 912.359 799.127 L 911.745 800.208 z"/>
<path transform="translate(0,0)" fill="rgb(0,0,0)" d="M 1335.93 835.236 C 1337.45 833.087 1393.03 801.385 1399.67 798.533 C 1385.08 814.497 1356.71 829.719 1335.93 835.236 z"/>
<path transform="translate(0,0)" fill="rgb(0,0,0)" d="M 874.425 867.685 L 869.117 865.611 C 868.725 864.756 868.617 864.638 868.438 863.566 C 865.801 847.797 884.179 812.064 894.298 799.61 L 895.555 801.495 C 894.746 811.003 879.856 863.914 874.372 869.888 L 874.425 867.685 z"/>
<path transform="translate(0,0)" fill="rgb(0,0,0)" d="M 910.622 801.197 L 911.745 800.208 L 910.622 801.197 z"/>
<path transform="translate(0,0)" fill="rgb(0,0,0)" d="M 718.451 801.451 L 718.964 801.064 L 718.451 801.451 z"/>
<path transform="translate(0,0)" fill="rgb(0,0,0)" d="M 909.766 802.303 L 910.622 801.197 L 909.766 802.303 z"/>
<path transform="translate(0,0)" fill="rgb(0,0,0)" d="M 690.762 846.476 C 693.799 835.363 709.951 808.118 718.451 801.451 C 713.867 813.553 699.317 836.661 690.762 846.476 z"/>
<path transform="translate(0,0)" fill="rgb(0,0,0)" d="M 908.825 803.354 L 909.766 802.303 L 908.825 803.354 z"/>
<path transform="translate(0,0)" fill="rgb(0,0,0)" d="M 907.53 805.436 L 908.825 803.354 L 907.53 805.436 z"/>
<path transform="translate(0,0)" fill="rgb(0,0,0)" d="M 914.481 805.567 L 914.851 804.018 L 914.481 805.567 z"/>
<path transform="translate(0,0)" fill="rgb(0,0,0)" d="M 906.699 806.109 L 907.53 805.436 L 906.699 806.109 z"/>
<path transform="translate(0,0)" fill="rgb(0,0,0)" d="M 912.568 807.418 L 914.481 805.567 L 912.568 807.418 z"/>
<path transform="translate(0,0)" fill="rgb(0,0,0)" d="M 906.146 806.922 L 906.699 806.109 L 906.146 806.922 z"/>
<path transform="translate(0,0)" fill="rgb(0,0,0)" d="M 912.203 807.995 L 912.568 807.418 L 912.203 807.995 z"/>
<path transform="translate(0,0)" fill="rgb(0,0,0)" d="M 923.098 808.114 L 923.99 807.013 L 923.098 808.114 z"/>
<path transform="translate(0,0)" fill="rgb(0,0,0)" d="M 921.622 810.554 L 923.098 808.114 L 921.622 810.554 z"/>
<path transform="translate(0,0)" fill="rgb(0,0,0)" d="M 911 810 L 911.808 809.005 L 911 810 z"/>
<path transform="translate(0,0)" fill="rgb(0,0,0)" d="M 909.728 811.487 L 911 810 L 909.728 811.487 z"/>
<path transform="translate(0,0)" fill="rgb(0,0,0)" d="M 921.257 810.872 L 921.622 810.554 L 921.257 810.872 z"/>
<path transform="translate(0,0)" fill="rgb(0,0,0)" d="M 908.639 813.601 L 909.728 811.487 L 908.639 813.601 z"/>
<path transform="translate(0,0)" fill="rgb(0,0,0)" d="M 888.829 860.713 C 894.494 847.085 909.631 820.345 921.257 810.872 C 920.397 814.501 891.947 858.727 888.829 860.713 z"/>
<path transform="translate(0,0)" fill="rgb(0,0,0)" d="M 908.238 813.848 L 908.639 813.601 L 908.238 813.848 z"/>
<path transform="translate(0,0)" fill="rgb(0,0,0)" d="M 902.461 820.572 C 904.136 817.303 905.271 816.014 908.238 813.848 C 906.671 817.099 905.387 818.486 902.461 820.572 z"/>
<path transform="translate(0,0)" fill="rgb(0,0,0)" d="M 902.038 868.048 L 901.375 865.864 C 903.584 852.91 924.779 825.887 933.702 814.847 C 933.891 816.082 933.836 816.905 933.261 818.084 C 930.387 823.973 925.539 829.885 921.92 835.409 C 914.847 846.011 908.214 856.9 902.038 868.048 z"/>
<path transform="translate(0,0)" fill="rgb(0,0,0)" d="M 901.843 821.176 L 902.461 820.572 L 901.843 821.176 z"/>
<path transform="translate(0,0)" fill="rgb(0,0,0)" d="M 900.637 822.908 C 900.794 822.222 901.401 821.723 901.843 821.176 L 900.637 822.908 z"/>
<path transform="translate(0,0)" fill="rgb(0,0,0)" d="M 1131.18 824.893 L 1131.64 824.411 L 1131.18 824.893 z"/>
<path transform="translate(0,0)" fill="rgb(0,0,0)" d="M 913.489 863.897 C 920.227 850.012 928.747 835.273 939.452 824.046 C 936.939 833.298 920.984 857.326 913.489 863.897 z"/>
<path transform="translate(0,0)" fill="rgb(0,0,0)" d="M 1084.23 826.995 L 1084.77 826.407 L 1084.23 826.995 z"/>
<path transform="translate(0,0)" fill="rgb(0,0,0)" d="M 275.155 877.094 C 275.356 865.509 272.63 840.693 274.641 831.067 C 277.738 831.681 279.839 832.098 282.238 834.371 C 292.415 844.01 292.003 896.682 293.09 911.972 C 300.318 909.475 311.36 904.494 318.795 908.554 C 321.237 909.887 321.665 911.092 322.358 913.653 C 321.956 915.086 321.582 916.415 320.649 917.613 C 315.463 924.271 306.112 925.433 298.365 926.728 C 296.532 926.875 294.692 927.034 292.852 927.093 C 288.682 927.225 284.993 926.44 282.005 923.331 C 274.82 915.854 276.81 898.36 276.707 888.646 C 267.275 891.419 259.823 891.856 250.067 891.068 C 258.089 884.457 265.415 880.747 275.155 877.094 z"/>
<path transform="translate(0,0)" fill="rgb(0,0,0)" d="M 663.22 831.99 L 663.797 831.387 L 663.22 831.99 z"/>
<path transform="translate(0,0)" fill="rgb(0,0,0)" d="M 944.468 840.547 L 944.805 839.116 L 944.468 840.547 z"/>
<path transform="translate(0,0)" fill="rgb(0,0,0)" d="M 942.433 842.541 L 944.468 840.547 L 942.433 842.541 z"/>
<path transform="translate(0,0)" fill="rgb(0,0,0)" d="M 668.967 841.5 L 668.443 841.5 L 668.967 841.5 z"/>
<path transform="translate(0,0)" fill="rgb(0,0,0)" d="M 942.155 842.82 L 942.433 842.541 L 942.155 842.82 z"/>
<path transform="translate(0,0)" fill="rgb(0,0,0)" d="M 667.491 844.175 L 667.871 843.082 L 667.491 844.175 z"/>
<path transform="translate(0,0)" fill="rgb(0,0,0)" d="M 927.733 864.06 C 931.214 856.734 935.848 848.068 942.155 842.82 C 940.113 849.21 932.849 859.75 927.733 864.06 z"/>
<path transform="translate(0,0)" fill="rgb(0,0,0)" d="M 184.833 917.336 C 189.906 919.704 194.891 922.257 199.777 924.991 C 204.298 927.502 211.417 931.095 212.883 936.203 C 210.192 937.871 207.913 937.67 204.832 937.128 C 195.714 935.526 176.692 928.296 172.128 920.042 C 170.417 916.948 170.456 913.796 171.805 910.615 C 173.905 905.667 179.08 900.795 182.077 896.216 C 193.091 879.385 199.736 863.727 204.748 844.29 C 207.963 844.91 210.818 846.032 212.968 848.573 C 216.7 852.986 216.698 860.129 216.071 865.552 C 223.519 869.542 229.746 873.778 235.375 880.182 C 242.794 888.621 247.556 898.969 246.588 910.365 C 246.134 915.696 243.959 925.813 238.894 928.866 C 236.81 930.121 236.186 929.939 233.994 929.418 C 231.592 923.544 234.303 912.749 233.343 905.855 C 231.751 894.413 218.969 884.773 210.297 878.257 C 206.631 885.724 202.245 892.523 197.56 899.381 L 184.833 917.336 z"/>
<path transform="translate(0,0)" fill="rgb(0,0,0)" d="M 662.775 853.016 C 663.944 849.606 665.367 847.082 667.491 844.175 C 666.531 848.136 665.702 850.085 662.775 853.016 z"/>
<path transform="translate(0,0)" fill="rgb(0,0,0)" d="M 660.267 847.995 L 660.729 847.373 L 660.267 847.995 z"/>
<path transform="translate(0,0)" fill="rgb(0,0,0)" d="M 701.84 854.253 L 702.643 853.485 L 701.84 854.253 z"/>
<path transform="translate(0,0)" fill="rgb(0,0,0)" d="M 701.23 854.991 L 701.84 854.253 L 701.23 854.991 z"/>
<path transform="translate(0,0)" fill="rgb(0,0,0)" d="M 913.029 864.774 L 913.489 863.897 L 913.029 864.774 z"/>
<path transform="translate(0,0)" fill="rgb(0,0,0)" d="M 905.059 919.909 C 893.246 913.38 879.334 896.998 874.305 884.402 C 872.412 879.66 872.162 876.151 874.285 871.507 C 874.554 871.537 874.824 871.554 875.091 871.597 C 884.693 873.132 894.679 880.504 899.862 888.505 C 905.969 897.934 907.199 909.057 905.059 919.909 z"/>
<path transform="translate(0,0)" fill="rgb(0,0,0)" d="M 957.232 901.545 C 953.844 900.91 935.973 897.853 934.659 897.063 C 932.432 895.722 931.481 894.34 931.181 891.751 C 930.821 888.644 932.348 885.486 933.971 882.985 C 934.259 882.979 934.548 882.966 934.836 882.966 C 935.316 882.967 935.795 882.985 936.275 882.988 C 942.206 883.025 948.136 884.724 953.438 887.4 C 957.012 889.204 959.331 891.18 960.684 895.023 C 960.114 898.307 959.293 899.021 957.232 901.545 z"/>
<path transform="translate(0,0)" fill="rgb(0,0,0)" d="M 673.062 885.748 L 673.576 884.74 L 673.062 885.748 z"/>
<path transform="translate(0,0)" fill="rgb(0,0,0)" d="M 167.241 984.801 C 165.963 984.841 164.308 985.009 163.046 984.608 C 160.422 983.774 158.917 982.238 157.624 979.969 C 157.812 978.67 157.705 978.369 158.436 977.261 C 166.055 965.709 283.174 944.666 300.519 941.261 C 301.937 941.416 303.168 941.549 304.458 942.214 C 306.731 943.384 306.807 943.562 307.588 945.861 C 307.175 947.067 307.161 947.322 306.37 948.502 C 304.692 951.004 300.316 953.092 297.551 953.892 C 285.317 957.427 271.692 958.614 259.171 961.709 C 228.704 969.24 197.978 978.755 167.241 984.801 z"/>
<path transform="translate(0,0)" fill="rgb(0,0,0)" d="M 215.231 996.024 C 214.269 996.112 212.937 996.257 212.002 996.231 C 209.24 996.152 208.692 995.993 206.808 994.183 C 206.669 992.901 206.216 991.923 207.022 990.795 C 213.118 982.257 270.23 973.368 282.596 971.319 C 283.973 971.155 285.745 971.049 287.07 971.492 C 289.458 972.288 290.13 973.205 290.89 975.344 C 290.539 976.268 290.409 976.798 289.714 977.618 C 282.34 986.318 228.468 993.618 215.231 996.024 z"/>
<path transform="translate(0,0)" fill="rgb(0,0,0)" d="M 257.621 1018.19 C 249.163 1020.24 239.984 1022.78 231.479 1019.55 C 228.099 1018.27 224.627 1015.71 223.474 1012.14 C 222.797 1010.04 223.443 1008.08 224.618 1006.33 C 228.045 1001.2 234.708 1000.25 240.269 999.236 C 250.045 998.627 261.864 997.071 270.995 1001.35 C 273.816 1002.67 275.034 1004.01 276.182 1006.85 C 275.877 1008.02 275.895 1008.23 275.203 1009.4 C 272.267 1014.37 262.8 1016.58 257.621 1018.19 z"/>
<path transform="translate(0,0)" fill="rgb(0,0,0)" d="M 972.221 1032.71 C 970.786 1032.94 969.347 1033.14 967.904 1033.31 C 956.292 1034.7 943.961 1034.43 932.306 1033.68 C 922.417 1033.04 912.679 1030.47 902.921 1028.84 C 890.307 1026.74 869.107 1027.54 859.177 1018.51 C 857.239 1016.75 856.93 1015.68 856.959 1013.15 C 863.427 1008.67 874.416 1013.88 882.036 1012.89 C 889.196 1011.97 896.55 1008.85 903.391 1006.56 C 916.469 1002.19 927.63 999.987 941.449 999.432 C 969.063 997.197 995.168 1007.21 1022.42 1008.03 C 1034.4 1008.39 1041.18 1002.11 1048.45 1002.15 C 1051.2 1002.16 1051.72 1003.2 1053.27 1005.12 C 1053.68 1007.69 1054.02 1009.78 1052.62 1012.2 C 1045.69 1024.23 1023.11 1019.18 1011.76 1021.42 C 998.609 1024.01 985.314 1029.31 972.221 1032.71 z M 933.148 1007.39 C 921.413 1008.66 911.442 1011.47 901.37 1017.83 L 900.246 1019.83 C 903.85 1024.76 914.922 1026.03 920.787 1026.91 C 935.815 1029.17 952.473 1029.77 967.44 1026.82 C 980.56 1023.94 992.846 1021.53 1004.84 1015.21 C 981.774 1008.86 957.184 1004.24 933.148 1007.39 z"/>
<path transform="translate(0,0)" fill="rgb(0,0,0)" d="M 1721.11 1179.82 C 1719.53 1180.34 1718.64 1180.15 1717.01 1179.97 C 1715.18 1178.79 1713.88 1177.81 1713.09 1175.7 C 1710.75 1169.46 1710.9 1160.94 1710.78 1154.35 C 1710.3 1128.86 1712.55 1103.12 1713.38 1077.64 C 1714.04 1057.69 1712.98 1036.5 1715.66 1016.74 C 1716.16 1013 1717.37 1009.86 1718.96 1006.46 C 1722.14 1007.77 1724.74 1009.44 1726.66 1012.4 C 1728.81 1015.73 1729.31 1019.89 1729.57 1023.75 C 1730.71 1040.28 1729.08 1057.67 1728.54 1074.26 C 1727.66 1101.43 1727.37 1128.97 1724.89 1156.04 C 1724.16 1164.13 1722.96 1171.91 1721.11 1179.82 z"/>
<path transform="translate(0,0)" fill="rgb(0,0,0)" d="M 1569.12 1115.12 C 1569.63 1094.95 1569.08 1074.76 1568.81 1054.6 C 1568.64 1041.8 1567.26 1027.36 1570.15 1014.82 C 1570.86 1011.71 1572.27 1009.63 1574.31 1007.24 C 1575.79 1007.86 1577.14 1008.39 1578.31 1009.52 C 1586.33 1017.22 1583.52 1040.44 1583.52 1051.22 C 1589.25 1049.87 1597.74 1047.98 1603.49 1049.1 C 1606.37 1049.67 1607.81 1050.39 1609.47 1052.8 C 1609.11 1054.46 1609.22 1054.89 1607.99 1056.21 C 1602.03 1062.61 1591.04 1062.12 1583.07 1062.4 C 1583.27 1095.73 1583.42 1129.44 1580.6 1162.67 C 1580.2 1167.39 1579.68 1177.11 1576.06 1180.16 C 1573.76 1180.36 1573.55 1180.22 1571.51 1179.08 C 1565.26 1168.3 1568.69 1137.19 1568.87 1123.72 L 1557.24 1125.58 C 1556.5 1125.73 1555.75 1125.88 1555 1126.01 C 1542.53 1128.21 1483.97 1140.84 1475.13 1133.48 C 1473.96 1132.51 1474.28 1131.84 1474.18 1130.46 C 1474.95 1129.25 1475.01 1129.04 1476.15 1127.91 C 1487.56 1116.67 1552.25 1114.8 1569.12 1115.12 z"/>
<path transform="translate(0,0)" fill="rgb(0,0,0)" d="M 1666.77 1072.18 C 1667.66 1057.28 1665.59 1021.26 1674.75 1010.7 C 1676.47 1011.35 1678.09 1011.94 1679.46 1013.22 C 1687.44 1020.72 1682.57 1057.16 1681.93 1068.63 C 1690.35 1066.47 1700.38 1063.27 1708.83 1066.5 L 1709.5 1068.46 C 1709.29 1068.84 1709.11 1069.24 1708.86 1069.59 C 1703.61 1077.18 1688.16 1079.83 1679.51 1082.19 C 1677.41 1099.58 1673.16 1116.71 1671.54 1134.13 C 1681.52 1134.26 1699.26 1129.71 1707.59 1135.68 C 1709.33 1136.92 1709.37 1137.34 1709.72 1139.31 C 1709.09 1140.59 1708.49 1141.71 1707.38 1142.65 C 1699.07 1149.64 1678.83 1150.76 1668.24 1149.43 C 1664.15 1148.92 1659.27 1147.42 1656.95 1143.73 C 1652.57 1136.75 1659.51 1109.76 1661.17 1101.24 L 1664.15 1085.22 C 1656.08 1087.19 1647.76 1089.67 1639.55 1090.82 C 1634.83 1091.47 1628.59 1091.97 1624.82 1088.38 C 1617.96 1081.83 1620 1055.88 1619.76 1046.23 C 1618.58 1044.64 1616.94 1042.8 1616.13 1041.01 C 1615 1038.54 1615.35 1037.75 1616.18 1035.39 C 1627.53 1034.3 1641.23 1031.52 1652.51 1033.17 C 1656.53 1033.76 1658.73 1034.85 1661.08 1038.17 C 1661.07 1040.99 1661.08 1041.32 1659.54 1043.65 C 1650.68 1048.08 1641.42 1047.62 1631.77 1047.99 C 1632.38 1057.46 1632.83 1066.93 1633.12 1076.41 C 1644.42 1075.76 1655.6 1073.93 1666.77 1072.18 z"/>
<path transform="translate(0,0)" fill="rgb(0,0,0)" d="M 1511.76 1057.18 C 1506.08 1064.96 1495.62 1071.82 1486.25 1074.47 C 1481.3 1075.87 1474.09 1077.66 1469.5 1075.02 C 1469.71 1069.83 1477.52 1065.05 1481.28 1061.9 C 1489.47 1055.03 1497.07 1047.46 1503.26 1038.71 C 1508.64 1031.11 1513.16 1022.2 1519.94 1015.77 C 1523.36 1015.91 1524.35 1015.82 1527.35 1017.66 C 1530.68 1023.3 1528.11 1029.54 1526.66 1035.47 C 1532.92 1043.16 1540.46 1047.99 1548.34 1053.82 C 1552.01 1056.54 1558.34 1061.18 1558.63 1066.12 C 1558.72 1067.57 1557.78 1067.98 1556.87 1068.95 C 1553.35 1070.09 1550.54 1070.16 1546.91 1069.34 C 1534.66 1066.56 1524.69 1059.1 1518.1 1048.6 L 1511.76 1057.18 z"/>
<path transform="translate(0,0)" fill="rgb(0,0,0)" d="M 1867.24 1112.22 C 1864.2 1111.13 1861.8 1110.36 1859.44 1108.03 C 1854.47 1095.38 1856.1 1040.33 1857.82 1025.57 C 1858.23 1022.04 1859.46 1018.67 1860.65 1015.34 C 1862.36 1015.65 1864.03 1016.09 1865.72 1016.51 C 1870.86 1021.04 1871.86 1027.27 1872.63 1033.81 C 1874.33 1048.19 1874.23 1093.46 1870.78 1106.18 C 1870.12 1108.62 1868.81 1110.29 1867.24 1112.22 z"/>
<path transform="translate(0,0)" fill="rgb(0,0,0)" d="M 1786.9 1045.17 C 1779.69 1046.06 1776.25 1046.73 1770 1042.21 C 1768.86 1040.1 1768.03 1039.07 1768.96 1036.57 C 1770.02 1033.73 1772.54 1032.11 1774.97 1030.58 C 1778.91 1031.73 1782.83 1032.91 1786.95 1033.06 C 1797.42 1033.45 1812.56 1028.53 1822.14 1033.52 C 1824 1034.49 1824.16 1034.56 1824.83 1036.61 C 1824.43 1037.49 1824.18 1038.19 1823.5 1038.95 C 1818.89 1044.13 1804.77 1043.24 1798.01 1043.95 C 1796.82 1054.83 1794.2 1064.4 1790.92 1074.84 C 1804.6 1071.23 1838.59 1059.81 1851.15 1064.72 C 1853.17 1066.91 1853.18 1066.92 1853.34 1069.89 C 1851.71 1073.11 1850.58 1073.31 1847.49 1075.01 C 1828.25 1080.88 1808.48 1084.54 1789.15 1090 C 1781.55 1092.15 1774.47 1097.59 1766.58 1098.23 C 1765.12 1097.39 1764.59 1097.43 1763.88 1095.76 C 1762.58 1092.7 1762.61 1088.95 1764.27 1086.01 C 1767.17 1080.87 1773.21 1079.06 1778.43 1077.25 C 1781.77 1066.7 1784.25 1055.9 1786.9 1045.17 z"/>
<path transform="translate(0,0)" fill="rgb(0,0,0)" d="M 533.389 1202.7 L 529.479 1203.57 C 528.179 1203.17 527.129 1203.2 526.335 1201.98 C 520.26 1192.71 521.967 1078.56 524.966 1063.3 C 528.138 1064.41 529.626 1066.06 531.081 1068.99 C 539.165 1085.27 539.062 1171.89 536.31 1192.24 C 535.825 1195.83 534.598 1199.29 533.389 1202.7 z"/>
<path transform="translate(0,0)" fill="rgb(0,0,0)" d="M 388.006 1122.03 C 388.057 1109.06 384.221 1078.38 390.596 1068.5 C 393.182 1069.07 395.887 1069.48 397.739 1071.55 C 405.426 1080.16 405.029 1137.55 403.039 1149.93 C 402.474 1153.45 401.498 1154.6 398.675 1156.67 C 395.587 1157.25 395.017 1157.39 392.104 1156.31 C 387.391 1150.78 388.77 1139.59 388.698 1132.55 C 379.87 1137.17 373.932 1138.64 364.04 1136.81 C 363.881 1144.77 363.851 1153.23 362.393 1161.07 C 361.802 1164.25 361.234 1167.22 358.47 1169.19 L 356.09 1168.62 C 350.641 1163.51 350.167 1159.52 349.122 1152.45 C 348.617 1138.66 344.886 1090.39 349.509 1079.08 C 350.595 1076.42 351.885 1076.22 354.323 1075.15 C 356.999 1075.37 358.552 1075.3 360.548 1077.42 C 367.252 1084.53 363.349 1119.11 363.346 1129.77 C 371.765 1128.24 379.32 1123.56 388.006 1122.03 z"/>
<path transform="translate(0,0)" fill="rgb(0,0,0)" d="M 1515.97 1107.73 C 1509.98 1107.83 1504.43 1106.43 1499.68 1102.63 C 1496.3 1099.93 1493.98 1096.06 1493.61 1091.71 C 1493.3 1087.86 1494.51 1084.05 1496.97 1081.08 C 1503.07 1073.78 1512.51 1073.14 1521.29 1072.38 C 1526.82 1072.5 1532.28 1072.94 1537.16 1075.83 C 1540.01 1077.51 1542.17 1080.17 1542.89 1083.43 C 1543.76 1087.36 1542.76 1091.37 1540.65 1094.73 C 1535.23 1103.33 1525.28 1105.87 1515.97 1107.73 z M 1519.5 1085.35 C 1516.01 1085.64 1512.93 1085.56 1510.06 1087.81 L 1509.15 1089.99 C 1510.46 1091.71 1511.49 1093 1513.79 1093.31 C 1516.37 1093.66 1519.49 1093.19 1522.09 1092.96 C 1525 1091.81 1526.8 1091.02 1528.89 1088.56 L 1528.94 1086.59 C 1525.95 1084.58 1523.05 1084.76 1519.5 1085.35 z"/>
<path transform="translate(0,0)" fill="rgb(0,0,0)" d="M 432.749 1100.94 C 429.018 1100.88 424.542 1101.03 420.964 1099.86 C 418.288 1098.98 417.39 1097.81 416.002 1095.49 C 416.159 1092.92 416.206 1092.43 417.618 1090.31 C 424.954 1087.63 433.7 1087.41 441.422 1086.06 C 457.161 1083.3 472.735 1079.78 488.533 1077.33 C 491.638 1076.92 495.388 1076.85 498.478 1077.31 C 500.937 1077.69 501.717 1078.8 502.961 1080.76 C 502.731 1082.45 502.843 1083.14 501.798 1084.57 C 494.344 1094.75 446.102 1099.22 432.749 1100.94 z"/>
<path transform="translate(0,0)" fill="rgb(0,0,0)" d="M 945.033 1088.3 C 931.029 1084.48 918.724 1085.83 904.971 1079.21 C 925.689 1079.15 946.572 1079.61 967.257 1078.37 C 979.476 1078.18 991.324 1077.77 1003.48 1076.48 C 990.394 1083.35 975.607 1084.99 961.063 1086.25 C 956.178 1086.67 949.415 1086.2 945.033 1088.3 z"/>
<path transform="translate(0,0)" fill="rgb(0,0,0)" d="M 223.227 1184.97 C 221.822 1185.06 220.715 1184.67 219.361 1184.33 C 217.347 1182.72 216.216 1181.49 215.354 1178.94 C 211.096 1166.34 207.81 1106.29 209.248 1091.99 C 209.552 1088.97 210.603 1086.32 211.874 1083.59 C 212.19 1083.73 212.513 1083.85 212.822 1084 C 217.95 1086.51 219.576 1090.95 221.21 1096.1 C 226.74 1113.56 231.529 1168.91 223.227 1184.97 z"/>
<path transform="translate(0,0)" fill="rgb(0,0,0)" d="M 933.324 1099.87 C 936.316 1095.46 940.699 1091.33 945.033 1088.3 C 942.088 1093.02 938.078 1096.98 933.324 1099.87 z"/>
<path transform="translate(0,0)" fill="rgb(0,0,0)" d="M 953 1093 L 954.995 1092.01 L 953 1093 z"/>
<path transform="translate(0,0)" fill="rgb(0,0,0)" d="M 945.371 1105.2 C 949.968 1098.7 956.76 1096.51 963.188 1092.35 L 967.123 1092.15 L 967.256 1092.56 L 965.69 1092.62 C 965.382 1093.05 965.057 1093.47 964.767 1093.92 C 963.667 1095.61 963.34 1096.76 962.944 1098.69 L 961.708 1099.51 C 960.819 1098.15 961.069 1097.72 961.081 1096.14 C 955.457 1097.31 950.76 1102.88 945.371 1105.2 z"/>
<path transform="translate(0,0)" fill="rgb(0,0,0)" d="M 950.167 1094.42 L 953 1093 L 950.167 1094.42 z"/>
<path transform="translate(0,0)" fill="rgb(0,0,0)" d="M 948.576 1095.3 L 950.167 1094.42 L 948.576 1095.3 z"/>
<path transform="translate(0,0)" fill="rgb(0,0,0)" d="M 980 1095 L 981.938 1094.01 L 980 1095 z"/>
<path transform="translate(0,0)" fill="rgb(0,0,0)" d="M 154.969 1180 C 147.813 1181.54 139.1 1180.07 132.424 1177.11 C 123.629 1173.21 117.101 1165.86 113.781 1156.88 C 109.42 1145.08 110.325 1131.2 115.594 1119.83 C 121.625 1106.82 131.464 1100.2 144.369 1095.18 C 152.305 1094.3 159.629 1094.34 167.088 1097.55 C 175.923 1101.36 182.531 1108.75 185.942 1117.68 C 190.436 1129.46 189.44 1143.07 184.136 1154.4 C 178.247 1166.99 167.968 1175.56 154.969 1180 z M 152.748 1109.08 C 143.593 1111.6 137.571 1116.02 132.729 1124.32 C 127.958 1132.5 126.492 1142.7 129.079 1151.85 C 130.646 1157.39 133.733 1161.78 138.809 1164.63 C 141.75 1166.28 145.068 1166.9 148.425 1166.59 C 159.021 1161.76 167.274 1154.38 171.208 1143.08 C 173.634 1136.1 173.954 1127.35 170.54 1120.63 C 167.785 1115.21 161.843 1111.23 156.09 1109.65 C 154.979 1109.35 153.897 1109.16 152.748 1109.08 z"/>
<path transform="translate(0,0)" fill="rgb(0,0,0)" d="M 298.749 1111.92 C 294.247 1111.6 289.149 1111.6 284.82 1110.29 C 281.987 1109.44 278.898 1108.14 277.496 1105.41 L 278.221 1103.21 C 285.396 1097.04 296.497 1096.67 305.554 1095.32 C 309.725 1094.8 314.308 1094.31 318.435 1095.35 C 322.149 1096.28 325.456 1098.56 327.21 1102.02 C 330.114 1107.76 328.825 1113.02 326.757 1118.75 C 332.044 1125.18 336.858 1130.72 337.174 1139.49 C 337.326 1143.69 336.303 1146.18 333.568 1149.28 C 332.093 1149.87 331.106 1150.56 329.474 1150.35 C 325.718 1149.88 323.545 1147.78 321.148 1145.12 C 319.641 1141.54 321.311 1139.12 321.247 1135.56 C 321.193 1132.52 319.001 1131.02 317.1 1128.93 C 315.953 1139.09 315.163 1143.09 307.913 1150.74 L 306.984 1151.7 C 307.303 1154.83 310.038 1156.46 312.224 1158.63 L 312.501 1159.38 C 310.262 1162.17 306.15 1163.6 302.579 1164.03 C 298.749 1164.5 294.52 1162.94 291.679 1160.38 C 289.275 1158.22 287.712 1155.35 287.842 1152.03 C 287.98 1148.51 289.919 1146.33 292.44 1144.21 L 294.416 1142.54 C 292.119 1140.16 288.713 1139.3 286.247 1137.17 C 284.946 1136.04 284.287 1134.93 284.166 1133.25 C 283.918 1129.82 285.436 1126.04 287.886 1123.62 C 289.605 1121.91 291.44 1121.86 293.691 1121.71 C 295.901 1121.57 297.234 1121.45 299.241 1120.36 C 300.476 1117.33 299.402 1115.08 298.749 1111.92 z M 313.011 1111.07 L 313.466 1112.52 L 314.474 1111.94 L 314.397 1110.45 L 313.011 1111.07 z M 302.414 1125.74 C 299.902 1127.59 298.429 1128.63 297.342 1131.71 L 298.547 1132.45 L 300.416 1131.6 L 303.706 1133.7 L 305.087 1132.78 C 305.024 1129.86 304.396 1127.94 302.414 1125.74 z"/>
<path transform="translate(0,0)" fill="rgb(0,0,0)" d="M 948.005 1095.78 L 948.576 1095.3 L 948.005 1095.78 z"/>
<path transform="translate(0,0)" fill="rgb(0,0,0)" d="M 978.042 1095.71 L 980 1095 L 978.042 1095.71 z"/>
<path transform="translate(0,0)" fill="rgb(0,0,0)" d="M 947.49 1096.5 L 946.334 1096.5 L 947.49 1096.5 z"/>
<path transform="translate(0,0)" fill="rgb(0,0,0)" d="M 965.875 1099.36 C 969.859 1097.17 973.62 1096.46 978.042 1095.71 C 974.261 1098.35 970.374 1098.84 965.875 1099.36 z"/>
<path transform="translate(0,0)" fill="rgb(0,0,0)" d="M 1807.82 1133.49 C 1798.81 1126.31 1788.68 1115.27 1783.06 1105.08 C 1781.21 1101.73 1781.32 1100.13 1782.28 1096.48 C 1796.11 1097.78 1813.26 1117.51 1822.93 1126.49 C 1824.63 1126.04 1826.35 1125.62 1828.07 1125.21 C 1837.16 1123.13 1862.63 1115.53 1870.43 1120.37 C 1870.88 1122.48 1871.39 1123.77 1870.08 1125.76 C 1866.1 1131.78 1851.42 1134.25 1844.59 1136.17 C 1846.2 1136.66 1847.8 1137.19 1849.38 1137.75 C 1853.58 1139.28 1856.23 1142.06 1858.04 1146.12 C 1859.74 1149.96 1860.77 1155.4 1858.65 1159.31 C 1857.57 1161.3 1855.87 1162.91 1853.51 1163.21 C 1849.72 1163.68 1847.35 1161.31 1844.37 1159.38 C 1835.76 1160.76 1825.01 1161.26 1819.52 1168.98 C 1818.01 1171.09 1817.72 1172.29 1818.32 1174.75 C 1828.47 1179.74 1857.84 1165.55 1871.13 1165.88 C 1876.22 1166.01 1879.21 1167.68 1882.71 1171.24 C 1882.46 1171.59 1882.24 1171.96 1881.97 1172.29 C 1874.45 1181.66 1841.9 1187.81 1830.34 1189.58 C 1823.84 1190.58 1811.21 1192.6 1806.02 1187.78 C 1803.36 1185.31 1802.47 1182.41 1802.28 1178.9 C 1801.95 1172.73 1803.38 1166.54 1807.67 1161.93 C 1816.36 1152.59 1833.1 1151.05 1845.14 1150.9 C 1820.77 1137.35 1816.16 1149.47 1793.11 1146.63 C 1789.95 1146.24 1787.53 1145.53 1785.55 1142.87 C 1785.23 1140.21 1785.14 1139.72 1786.23 1137.3 C 1792.34 1134.54 1801.07 1134.83 1807.82 1133.49 z"/>
<path transform="translate(0,0)" fill="rgb(0,0,0)" d="M 945.005 1105.79 L 945.371 1105.2 L 945.005 1105.79 z"/>
<path transform="translate(0,0)" fill="rgb(0,0,0)" d="M 440.521 1131.19 C 436.785 1131.81 432.764 1132.36 428.979 1132 C 426.396 1131.76 424.514 1130.86 422.764 1128.94 C 422.695 1127.06 422.297 1127.23 423.347 1126.05 C 430.818 1117.65 473.16 1111.77 485.573 1110.38 C 488.43 1110.2 491.566 1109.81 494.418 1110.04 C 496.817 1110.23 498.881 1110.94 500.579 1112.7 L 499.832 1114.57 C 488.113 1122.98 455.841 1127.66 440.521 1131.19 z"/>
<path transform="translate(0,0)" fill="rgb(0,0,0)" d="M 501.368 1154.41 C 492.57 1156.4 483.616 1158.3 474.988 1160.93 C 466.803 1163.42 455.271 1169.91 446.981 1169.91 C 444.743 1169.91 442.15 1168.45 440.776 1166.73 C 436.753 1161.72 437.992 1151.81 438.995 1145.83 C 440.071 1139.41 442.43 1136.3 447.588 1132.53 C 449.084 1132.87 450.549 1133.24 451.779 1134.24 C 456.443 1138.01 456.723 1146.41 457.496 1151.88 C 472.056 1147.22 490.906 1141.08 506.159 1141 C 509.887 1140.98 512.357 1141.55 514.96 1144.26 C 515.29 1146.75 515.201 1147.02 514.113 1149.29 C 510.36 1152.16 505.833 1153.09 501.368 1154.41 z"/>
<path transform="translate(0,0)" fill="rgb(0,0,0)" d="M 374.055 1219.41 C 362.927 1221.23 350.547 1222.84 340.869 1215.62 C 336.558 1212.4 333.71 1207.75 333.124 1202.37 C 332.365 1195.4 335.415 1188.68 339.933 1183.52 C 346.853 1175.61 356.396 1171.07 366.772 1170.42 C 375.447 1169.2 385.551 1170.12 393.511 1173.81 C 399.377 1176.54 404.628 1181.18 406.561 1187.52 C 407.941 1192.05 407.331 1196.83 405.098 1200.97 C 398.99 1212.31 385.581 1216.24 374.055 1219.41 z M 369.549 1181.28 C 362.828 1182.74 355.646 1185.84 351.72 1191.83 C 350.172 1194.18 349.217 1196.96 349.751 1199.81 C 350.344 1202.98 352.702 1205.21 355.473 1206.6 C 360.385 1209.05 367.548 1208.3 372.883 1207.68 C 379.677 1206.39 387.712 1205.22 391.843 1198.98 C 393.33 1196.74 393.937 1194.31 393.197 1191.65 C 392.214 1188.12 389.067 1185.41 385.83 1183.94 C 380.987 1181.73 374.821 1181.07 369.549 1181.28 z"/>
<path transform="translate(0,0)" fill="rgb(0,0,0)" d="M 231.956 1218.92 C 227.909 1225.19 223.455 1229.44 216.972 1233.16 C 204.302 1240.43 184.1 1243.2 170.125 1238.85 C 162.046 1236.33 154.52 1230.75 150.832 1222.99 C 148.315 1217.7 147.683 1211.54 149.932 1206.05 C 153.7 1196.84 162.666 1192.58 171.354 1189.23 C 174.133 1188.98 176.892 1188.96 179.68 1188.99 C 183.975 1189.04 188.056 1188.94 191.281 1192.27 L 191.239 1194.04 C 187.005 1197.81 180.458 1198.97 175.288 1201.2 C 171.526 1202.83 165.915 1205.9 164.793 1210.2 C 164.227 1212.37 164.649 1214.56 165.728 1216.49 C 167.855 1220.3 171.391 1223.46 175.701 1224.45 C 186.416 1226.91 204.116 1223.5 214.04 1218.99 C 218.063 1217.16 221.448 1214.25 225.306 1212.17 C 227.537 1210.97 228.558 1210.53 231.06 1211.28 C 232.677 1213.95 232.262 1215.97 231.956 1218.92 z"/>
<path transform="translate(0,0)" fill="rgb(0,0,0)" d="M 986.197 1409.52 C 977.252 1400.94 926.968 1296.61 926.762 1285.6 C 926.752 1285.06 926.77 1284.52 926.774 1283.99 C 941.892 1292.49 980.403 1386.62 985.801 1407.75 C 985.95 1408.33 986.065 1408.93 986.197 1409.52 z"/>
<path transform="translate(0,0)" fill="rgb(0,0,0)" d="M 986.197 1409.52 L 986.754 1409.99 L 986.197 1409.52 z"/>
</svg>