<svg version="1.1" xmlns="http://www.w3.org/2000/svg" style="display: block;" viewBox="0 0 2048 2048" width="1024" height="1024">
<path transform="translate(0,0)" fill="rgb(255,255,255)" d="M 0 0 L 0 2048 L 2048 2048 L 2048 0 L 0 0 z"/>
<path transform="translate(0,0)" fill="rgb(0,0,0)" d="M 1046.45 0 L 1129.48 0 C 1192.22 10.4319 1246.41 24.9114 1304.17 52.2787 C 1329.59 64.3251 1355.1 78.816 1378.54 94.385 C 1392.32 103.537 1405.05 114.165 1418.87 123.24 C 1453.38 145.914 1495.36 159.288 1536.84 155.996 C 1510.93 166.475 1482.02 169.207 1454.38 166.012 C 1511.24 216.885 1558.67 308.85 1562.85 385.515 C 1563.78 402.658 1561.85 419.766 1562.65 436.824 C 1563.97 465.24 1579.35 494.648 1600.15 513.583 C 1611.96 524.332 1622.45 529.114 1635.52 537.196 C 1611.77 536.951 1584.05 530.456 1564.92 515.772 C 1571.11 561.052 1572.78 609.836 1554.91 652.702 C 1555.52 637.389 1556.22 622.343 1555.08 607.031 C 1551.59 618.766 1549.14 630.791 1545.52 642.478 C 1536.84 670.544 1523.25 700.509 1506.92 724.883 C 1516.92 731.553 1520.33 738.184 1522.67 750.091 C 1525.13 762.64 1525.86 775.725 1527.18 788.437 C 1531.35 828.385 1530.6 846.471 1507.01 880.956 C 1485.55 912.318 1443.68 973.725 1417.21 996.617 C 1411.01 1001.98 1404.7 1006.42 1396.42 1007.78 C 1387.31 1009.28 1376.94 1008.11 1367.87 1006.63 C 1362.72 1023.64 1357.72 1040.7 1352.87 1057.8 C 1349.36 1069.9 1346.21 1083.05 1340.61 1094.36 C 1355.91 1107.89 1372.66 1120.03 1388.76 1132.61 C 1406.11 1146.17 1423.12 1160.23 1440.68 1173.52 C 1493.89 1213.79 1556.98 1254.98 1581.09 1320.23 C 1615.36 1331.9 1651.94 1365.46 1677.3 1390.84 C 1687.03 1400.58 1697.74 1410.36 1703.9 1422.91 C 1713.47 1442.42 1705.65 1467.25 1700.34 1486.99 C 1721.1 1496.36 1742.39 1504.51 1763.19 1513.81 C 1785.75 1523.9 1807.95 1534.93 1830.21 1545.68 C 1892.3 1575.66 1945.68 1603.48 2001.96 1643.72 C 2016.62 1654.2 2037.82 1666.56 2044.92 1683.98 C 2046.24 1687.22 2047.22 1690.77 2048 1694.17 L 2048 1750.49 C 2043.93 1731.64 2037.61 1690.7 2023.9 1677.19 C 2015.96 1669.36 2003.92 1663.14 1994.49 1657.06 C 1916.36 1606.65 1832.33 1564.69 1747.42 1526.87 C 1731.55 1519.8 1713.9 1509.52 1697.01 1505.73 C 1695.4 1507.58 1695.42 1508.19 1695.01 1510.66 C 1696.25 1513.01 1697.84 1514.09 1700.13 1515.32 C 1706.81 1518.88 1714.41 1521.07 1721.39 1524.01 C 1731.43 1528.24 1741.27 1533.22 1750.93 1538.26 C 1804.97 1566.45 1857.95 1597.16 1910.59 1627.87 C 1940.67 1645.42 1971.31 1662.22 2000.53 1681.19 C 1991.65 1727.88 1979.57 1773.93 1970.75 1820.67 C 1956.49 1896.22 1945.76 1972.46 1931.56 2048 L 1382.3 2048 C 1395.81 2030.38 1407.65 2011.19 1419.73 1992.55 L 1456.6 1936.37 C 1541.31 1805.66 1620.1 1669.98 1673.51 1523.13 C 1681.91 1500.03 1696.99 1464.52 1694.37 1440.19 C 1692.51 1422.82 1676.09 1405.96 1662.88 1395.83 C 1662.92 1397.27 1662.96 1398.72 1663 1400.16 C 1665.93 1531.58 1505.75 1803.66 1432.38 1921.56 C 1415.97 1947.91 1399.49 1974.06 1382.04 1999.74 C 1370.7 2016.43 1359.45 2033.4 1345.43 2048 L 1342.08 2048 L 1357.51 2027.02 C 1383.98 1990.57 1407.94 1952.15 1432 1914.08 C 1478.26 1841.62 1520.71 1766.8 1559.17 1689.92 C 1591.94 1624.84 1621.92 1559.54 1643.34 1489.77 C 1652.08 1461.31 1663.5 1422.36 1658.87 1392.96 C 1642.88 1376.37 1623.06 1360.32 1604.42 1346.72 L 1604.01 1346.19 L 1604.42 1346.72 C 1629.79 1382.28 1637.11 1389.35 1629.49 1435.46 C 1626.25 1455.04 1619.98 1474.11 1613.59 1492.85 C 1599.42 1534.37 1582.03 1573.39 1563.31 1612.98 C 1490.9 1763.85 1407.57 1909.24 1314.01 2048 L 1243.62 2048 C 1250.35 2024.15 1254.34 1998.96 1260.07 1974.78 C 1272.33 1923.05 1285.34 1871.55 1296.57 1819.58 C 1302.14 1793.84 1312.42 1763.07 1315.22 1737.63 L 1315.75 1737.01 L 1315.22 1737.63 L 1314.6 1738.5 C 1302.48 1755.77 1293.58 1775.22 1281.39 1792.53 C 1238.36 1853.64 1192.87 1896.55 1137.73 1946.14 C 1117.8 1964.07 1098 1982.23 1077.55 1999.56 C 1062.55 2012.27 1042.33 2026.07 1030.07 2041.09 C 993.098 2015.71 959.41 1985.86 926.843 1955.15 C 866.437 1898.18 809.008 1836.87 765.678 1765.61 C 752.167 1743.35 739.763 1720.43 728.511 1696.95 C 721.972 1683.04 716.521 1668.48 709.607 1654.78 C 720.318 1764.02 744.517 1869.58 774.775 1974.89 C 781.849 1999.51 791.756 2023.41 798.589 2048 L 728.043 2048 C 721.182 2039.01 715.08 2029.32 708.396 2020.17 C 693.477 1999.76 677.939 1979.69 662.554 1959.63 C 597.76 1875.13 531.552 1791.13 482.478 1696.08 C 462.51 1657.4 446.061 1616.11 431.784 1575.01 C 409.265 1510.18 411.573 1471.85 441.246 1410.54 L 441.76 1410.01 L 441.246 1410.54 C 422.083 1425.49 366.612 1469.72 355.476 1486.65 C 353.178 1490.14 352.369 1494.46 351.937 1498.56 C 348.728 1529 363.223 1566.6 373.633 1594.99 C 426.315 1738.68 513.002 1873.97 611.248 1990.79 C 627.495 2010.1 644.552 2028.74 660.872 2048 L 115.928 2048 C 114.508 2033.99 111.24 2020.14 108.785 2006.29 C 105.045 1984.57 101.638 1962.79 98.5654 1940.97 C 93.749 1904.93 88.3579 1868.57 85.1341 1832.37 C 79.9535 1770.52 77.8868 1708.46 78.9417 1646.41 C 98.2037 1633.65 119.314 1623.76 139.972 1613.49 C 189.679 1588.76 240.706 1566.91 291.083 1543.61 C 301.001 1539.02 331.399 1527.53 337.759 1522.14 C 340.656 1519.68 343.571 1516.46 343.608 1512.45 C 343.623 1510.83 342.939 1510.61 341.924 1509.51 C 339.427 1508.93 337.564 1508.93 335.14 1509.69 C 318.208 1515.02 301.471 1524.97 284.96 1531.8 C 250.487 1546.07 74.0868 1613.35 59.5761 1641.59 C 54.0245 1652.4 56.8191 1677.43 57.0258 1689.85 C 60.1657 1811.2 79.2028 1931.61 113.65 2048 L 0 2048 L 0 1787.43 C 12.5903 1757.45 21.7928 1725.96 34.3187 1695.89 C 41.3752 1678.94 52.7612 1663.03 58.1264 1645.66 C 27.8795 1675.32 14.1262 1731.24 0 1770.46 L 0 1736.1 C 8.41418 1718.71 13.7594 1700 22.5993 1682.62 C 32.9878 1662.19 54.1633 1631.76 71.7737 1616.73 C 87.9926 1602.89 107.889 1592.74 126.796 1583.04 C 196.209 1547.45 269.601 1523.17 343.529 1498.96 C 344.239 1493.94 344.754 1488.47 346.578 1483.72 C 359.699 1449.46 430.815 1405.28 459.593 1377.85 C 467.617 1370.2 474.296 1360.76 481.246 1352.12 C 490.936 1339.92 500.982 1328 511.371 1316.38 C 568.538 1252.46 670.547 1150.93 748.04 1117.97 C 730.576 1085.51 714.816 1050.09 705.516 1014.35 C 697.34 1015.79 689.093 1017.44 680.771 1016.21 C 672.392 1014.98 665.238 1010.98 658.633 1005.88 C 641.138 992.365 599.766 942.75 585.993 923.991 C 560.645 889.467 542.654 847.709 543.004 804.374 C 543.115 790.748 545.204 777.396 547.291 763.97 C 539.571 756.285 533.218 746.013 527.648 736.711 C 498.726 688.402 493.997 636.015 487.271 581.629 C 479.922 624.861 479.635 668.469 496.168 709.748 C 485.662 696.565 477.963 681.794 471.9 666.091 C 451.957 614.442 456.589 487.823 472.098 433.137 C 478.563 410.339 487.979 397.379 496.748 377.179 L 497.461 375.512 L 497.989 375 L 499.443 373.522 L 499.873 372.005 L 499.443 373.522 L 497.989 375 L 497.461 375.512 C 489.494 383.372 482.662 396.291 476.674 405.985 C 459.812 433.287 443.056 464.143 447.584 497.475 C 449.1 508.638 453.228 519.836 455.839 530.839 C 441.926 511.171 435.889 489.635 436.268 465.602 C 437.34 397.75 484.898 340.393 531.108 295.262 C 521.784 297.26 512.243 298.056 502.716 297.632 C 471.557 296.495 438.731 285.892 417.224 262.531 C 424.968 265.94 432.884 270.219 441.091 272.334 C 474.56 280.96 519.127 259.719 545.14 240.096 C 561.494 227.759 576.158 212.655 590.701 198.269 C 607.569 181.353 624.854 164.858 642.542 148.802 C 662.566 130.973 684.467 115.371 707.858 102.269 C 760.692 72.0354 827.665 40.9507 889.281 57.765 C 920.435 27.3064 964.567 12.6096 1006.75 5.4254 C 1019.92 3.18272 1033.27 2.19087 1046.45 0 z M 685.043 179.41 C 699.753 167.281 722.687 155.87 740.022 147.87 C 748.258 144.069 757.857 140.881 765.438 135.973 C 732.927 143.217 692.496 160.584 665.288 179.658 C 646.223 193.023 628.954 208.725 610.836 223.301 C 601.995 230.413 587.549 238.391 580.571 246.432 L 580.005 246.852 L 580.571 246.432 C 597.259 241.878 651.073 204.331 670.396 193.413 C 660.284 203.987 644.958 227.571 640.58 241.36 L 640.159 241.995 L 640.58 241.36 C 645.067 237.305 648.884 231.755 652.789 227.106 C 660.252 218.22 667.843 209.409 676.278 201.419 C 701.711 177.327 733.207 167.598 763.168 151.297 C 737.009 158.322 710.045 168.962 685.043 179.41 z M 1332.83 180.447 C 1310.98 171.06 1287.93 164.22 1264.8 158.753 C 1283.59 168.176 1301.23 179.577 1319.67 189.618 C 1345.12 203.48 1374.53 215.369 1396.99 233.676 C 1408.63 243.163 1416.66 255.861 1427.51 265.924 L 1428.29 267.348 L 1428.9 267.995 L 1428.29 267.348 L 1427.51 265.924 C 1416.7 242.602 1392.67 225.469 1373.18 210.008 L 1374.95 211.339 L 1374.82 210.542 C 1385.26 216.069 1395.37 223.212 1405.42 229.475 L 1406.23 230.165 L 1406.99 230.782 L 1406.23 230.165 L 1405.42 229.475 C 1397.82 221.086 1389.89 213.044 1381.95 204.98 C 1395.76 212.54 1408.34 221.41 1420.3 231.651 C 1425.08 235.747 1429.61 240.614 1434.56 244.417 L 1435.17 245.191 L 1435.9 245.995 L 1435.17 245.191 L 1434.56 244.417 C 1426.3 229.425 1410.11 216.3 1396.92 205.724 C 1355.52 172.51 1315.41 148.796 1264.65 132.875 C 1289.34 146.674 1312.19 160.914 1332.83 180.447 z M 1192.01 182.161 L 1193.08 182.756 C 1212.18 195.253 1225.57 197.614 1244.4 214.414 C 1222.17 205.504 1197.24 199.585 1173.67 195.659 L 1172.7 195.313 L 1173.67 195.659 C 1198.27 205.074 1230.2 215.403 1249.4 234.25 C 1233.57 230.563 1218.05 223.242 1202.67 217.919 C 1224.51 232.046 1249.19 238.867 1272.07 250.651 C 1288.63 259.174 1305.98 270.854 1320.04 283.176 C 1326.66 288.981 1332.61 295.88 1339.37 301.433 L 1340.13 302.285 L 1340.99 303.782 L 1340.13 302.285 L 1339.37 301.433 C 1334.24 288.886 1320.65 281.083 1313.56 269.686 C 1320.65 273.005 1326.61 279.779 1332.07 285.214 C 1325.02 272.827 1315.3 262.945 1309.66 249.676 C 1364.52 276.864 1408.79 365.504 1435.19 418.815 C 1440.99 430.542 1444.96 443.862 1451.43 455.11 L 1451.76 456.208 L 1451.43 455.11 C 1448.82 443.008 1443.2 430.576 1438.58 419.108 C 1424.87 385.074 1410.19 352.698 1389.94 322.016 C 1370.1 291.946 1329.17 244.832 1300.05 224.651 C 1288.68 216.771 1275.71 210.321 1262.1 207.527 L 1261.01 207.005 L 1262.1 207.527 L 1266.69 211.73 C 1260.36 210.981 1245.93 202.159 1239.22 199.175 C 1224.62 192.677 1208.79 186.013 1193.08 182.756 L 1192.01 182.161 z M 1268.01 188.248 L 1268.52 188.866 C 1283.27 199.963 1299.6 208.501 1312.35 222.047 C 1306.19 218.704 1299.94 215.454 1293.17 213.519 L 1291.55 212.76 L 1291.01 212.235 L 1291.55 212.76 L 1293.17 213.519 C 1311.97 229.039 1336.64 238.096 1359.09 247.003 C 1350.7 240.654 1342.24 234.404 1334.36 227.421 C 1346.57 233.801 1360.76 243.079 1373.44 247.471 L 1374.21 248.172 L 1374.99 248.764 L 1374.21 248.172 L 1373.44 247.471 C 1368.46 242.288 1361.85 237.663 1356.3 233.055 C 1329.61 210.89 1303.11 195.651 1268.52 188.866 L 1268.01 188.248 z M 1197.02 107.259 C 1214.85 111.566 1232.95 114.382 1250.77 119.047 C 1289.97 129.306 1329.4 145.268 1365.7 163.193 C 1381.02 170.758 1394.51 181.456 1409.68 188.965 C 1409.96 189.1 1410.23 189.23 1410.51 189.363 L 1411.27 190.147 L 1413.54 191.408 L 1413.99 191.921 L 1413.54 191.408 L 1411.27 190.147 L 1410.51 189.363 C 1409.5 188.246 1408.54 187.206 1407.4 186.213 C 1357.83 142.996 1263.34 103.769 1197.02 107.259 z M 679.39 206.599 C 666.975 212.831 643.081 239.472 638.61 252.491 L 638.147 252.995 L 638.61 252.491 C 652.032 242.066 666.725 220.153 679.39 206.599 L 679.995 206.197 L 679.39 206.599 z M 705.476 242.614 C 685.59 254.106 665.716 274.359 651.605 292.24 C 655.627 277.331 669.557 265.683 678.95 254.157 L 680.1 252.73 L 680.239 252.195 L 683.324 251.415 L 683.847 250.045 L 683.324 251.415 L 680.239 252.195 L 680.1 252.73 C 671.501 257.177 663.533 264.344 655.877 270.274 C 646.404 277.612 636.938 284.948 628.646 293.639 C 601.197 322.412 582.947 362.019 571.013 399.616 C 568.502 407.527 558.22 437.972 559.491 444.195 C 560.647 442.686 560.642 442.006 561.073 440.161 C 568.997 406.257 599.911 339.478 624.201 314.596 C 621.628 323.438 616.983 331.641 614.567 340.441 L 614.079 340.995 L 614.567 340.441 C 619.363 334.497 623.679 327.667 629.433 322.623 C 618.803 340.739 609.22 357.993 601.839 377.725 C 610.223 365.192 618.122 347.645 629.421 337.62 C 627.687 343.466 624.397 349.373 621.913 354.985 C 616.415 367.406 611.226 380.099 607.941 393.306 C 625.448 358.964 648.363 330.082 669.668 298.286 C 671.271 295.894 672.952 293.52 672.361 290.615 C 665.318 298.804 658.415 307.11 651.653 315.532 C 659.862 296.189 674.448 278.433 688.299 262.736 C 694.064 256.204 700.61 249.841 705.476 242.614 L 705.995 242.155 L 705.476 242.614 z M 1208.21 242.05 L 1208.67 242.492 C 1223.24 258.433 1238.57 273.325 1251.95 290.411 C 1242.45 283.416 1234.5 275.082 1225.52 267.524 L 1225 267 L 1224.35 266.22 L 1223.25 265.215 L 1222.63 264.124 L 1220.65 263.379 L 1220.18 262.005 L 1220.65 263.379 L 1222.63 264.124 L 1223.25 265.215 L 1224.35 266.22 L 1225 267 L 1225.52 267.524 C 1235.77 284.663 1250.05 298.766 1262.64 314.188 C 1239.28 294.683 1210.89 278.37 1182.77 266.619 L 1182.44 265.741 L 1181.01 265.243 L 1182.44 265.741 L 1182.77 266.619 C 1196.29 282.714 1219.56 290.706 1228.38 311.398 C 1221.44 306.623 1215.6 300.541 1207.58 297.457 L 1207.01 297.045 L 1207.58 297.457 C 1225.85 318.975 1249.97 339.25 1272.05 356.645 C 1263.89 345.724 1255.03 334.902 1247.64 323.46 C 1254.86 330.664 1261.95 338.122 1269.73 344.727 C 1264.49 337.629 1259.29 330.5 1254.14 323.341 C 1264.19 330.642 1273.54 339.725 1282.38 348.463 L 1283.14 349.29 L 1284.35 351.571 L 1285.17 352.225 L 1285.99 353.835 L 1285.17 352.225 L 1284.35 351.571 L 1283.14 349.29 L 1282.38 348.463 C 1281.44 346.424 1280.63 344.373 1279.82 342.282 C 1281.98 342.204 1284.06 344.642 1285.76 345.986 L 1287.07 347.925 L 1287.9 348.995 L 1287.07 347.925 L 1285.76 345.986 C 1280.34 336.042 1272.69 328.095 1265.07 319.83 C 1309.08 345.338 1356 432.77 1378.43 477.234 C 1385.04 490.338 1390.16 508.406 1398.34 520.049 L 1399.42 522.754 L 1399.99 523.995 L 1399.42 522.754 L 1398.34 520.049 C 1397.75 516.497 1396.44 512.957 1395.3 509.543 C 1378.76 460.122 1357.43 411.348 1328.43 367.892 C 1318.31 352.729 1306.66 338.391 1295.62 323.887 C 1270.78 291.267 1246.11 261.298 1208.67 242.492 L 1208.21 242.05 z M 631.634 272.425 L 631.233 272.995 L 631.634 272.425 C 635.593 269.028 639.24 264.054 642.819 260.162 C 650.493 251.717 658.407 243.494 666.553 235.503 C 664.851 236.293 663.146 237.105 661.539 238.078 C 652.729 243.405 633.766 262.863 631.634 272.425 z M 1152.01 277.126 L 1152.57 277.591 C 1168.28 293.267 1185.21 309.607 1202.76 323.195 C 1210.65 329.31 1219.62 333.978 1227.42 340.049 L 1220.35 328.058 C 1223.74 329.333 1227.41 330.573 1230.46 332.538 C 1235.9 336.029 1241.28 342.691 1247.31 344.653 L 1247.99 344.946 L 1247.31 344.653 C 1231.92 323.632 1177.64 289.248 1152.57 277.591 L 1152.01 277.126 z M 694 298 L 693.388 298.685 C 677.428 312.565 650.827 350.301 649.004 371.735 C 662.363 346.646 681.523 324.459 693.388 298.685 L 694 298 L 694.771 297.101 L 694 298 z M 708.541 315.611 C 695.491 326.982 681.216 344.486 674.606 360.488 C 685.08 351.762 703.076 328.139 708.541 315.611 L 708.961 315.153 L 708.541 315.611 z M 923.627 397.661 C 916.844 389.405 909.686 334.804 907.543 320.582 C 905.715 351.688 902.69 383.708 909.1 414.372 C 913.924 432.61 920.886 450.242 925.007 468.639 L 925.015 466.909 C 925.006 453.972 918.758 420.521 921.468 410.545 C 922.475 412.338 922.206 411.204 921.822 413.25 C 921.001 417.63 926.688 427.684 928.815 431.71 C 928.748 420.315 925.962 408.77 923.627 397.661 C 935.158 426.625 939.655 460.095 946.344 490.464 C 948.425 499.913 950.01 510.056 953.296 519.159 C 952.587 504.029 948.016 488.705 945.776 473.739 C 942.832 454.066 941.656 434.061 939.207 414.295 C 944.238 425.164 948.191 436.505 952.351 447.728 C 951.152 439.519 949.969 431.574 950.222 423.246 C 952.257 431.573 953.732 440.125 955.491 448.522 C 956.44 436.217 955.28 423.184 954.987 410.83 L 962.245 435.441 C 962.448 423.832 960.65 411.957 960.067 400.335 C 966.831 429.358 974.716 457.475 978.6 487.116 C 981.442 500.235 982.266 514.786 983.428 528.206 C 985.796 522.509 983.538 509.109 983.157 502.818 C 979.722 446.21 969.255 391.277 948.338 338.502 C 950.332 356.064 956.418 373.057 958.089 390.407 C 953.974 380.569 951.409 371.715 949.46 361.218 C 948.52 375.359 949.424 389.99 949.54 404.184 C 947.983 400.222 946.608 395.041 943.922 391.746 C 944.434 397.76 946.339 403.633 947.887 409.452 C 938.966 392.875 932.088 375.7 925.045 358.286 C 925.12 371.489 923.729 384.551 923.627 397.661 z M 1096.35 271.761 C 1109.49 282.99 1123.53 293.298 1137.19 303.891 C 1170.14 329.444 1203.73 354.727 1235.52 381.713 C 1245.4 390.098 1253.86 399.76 1263.4 408.464 L 1264.15 409.248 L 1265.47 411.516 L 1265.99 411.893 L 1265.47 411.516 L 1264.15 409.248 L 1263.4 408.464 C 1263.28 408.216 1263.16 407.967 1263.04 407.722 C 1258.7 399.183 1251.66 391.434 1245.61 384.044 C 1212.52 343.576 1174.51 313.236 1128.83 287.935 C 1118.54 282.234 1107.54 275.441 1096.35 271.761 z M 763.598 432.171 L 763.253 433.234 L 763.598 432.171 C 767.694 426.092 776.281 398.607 780.322 389.416 C 790.184 366.982 805.137 344.721 812.15 321.341 C 788.928 345.963 769.612 399.014 763.598 432.171 z M 952.221 447.005 L 952.945 447.418 C 953.106 450.388 952.957 451.19 954.63 453.59 C 954.772 453.189 954.985 452.807 955.056 452.388 C 955.511 449.691 954.66 449.231 952.945 447.418 L 952.221 447.005 z M 955.092 299.576 C 955.492 303.002 956.412 306.361 957.322 309.686 C 972.997 367.01 1020.16 408.431 1064.95 443.824 C 1076.45 452.913 1088.25 463.569 1100.98 470.798 C 1102.51 472.963 1101.51 472.239 1103.93 473.046 L 1104.99 473.894 L 1103.93 473.046 C 1102.67 471.174 1102.86 471.507 1100.98 470.798 C 1095.71 464.82 1088.85 459.777 1082.77 454.613 C 1070.7 444.36 1058.46 434.315 1047.2 423.156 C 1020.58 396.759 993.006 362.354 972.728 330.783 C 966.614 321.264 962.276 310.655 956.161 301.208 L 955.092 299.576 z M 890.75 247.99 C 881.624 272.06 873.827 296.536 869.877 322.04 C 861.003 379.342 870.57 449.562 887.14 504.968 L 887.577 506.147 L 887.14 504.968 C 886.103 492.072 883.688 479.348 882.32 466.487 C 879.311 438.211 877.509 398.922 880.873 371.038 C 884.103 396.37 893.066 420.802 900.377 445.155 C 909.125 474.292 917.222 504.937 929.314 532.873 L 929.995 533.995 L 929.314 532.873 C 926.938 516.791 921.421 500.992 918.255 484.982 C 913.2 459.416 910.166 433.122 904.029 407.829 C 895.999 374.74 884.073 342.296 883.255 307.874 C 882.771 287.508 887.991 268.004 890.75 247.99 z M 1235.08 644.005 L 1235.55 645.132 C 1240.69 665.049 1258.4 689.706 1270 706.95 L 1282.99 706.114 C 1281.48 700.269 1261.92 679.898 1257 673.926 C 1249.36 664.647 1242.98 654.52 1235.55 645.132 L 1235.08 644.005 z M 1042.01 729.248 L 1042.51 729.819 C 1052.98 738.869 1074.17 741.565 1078.48 755.242 C 1076.61 753.382 1074.6 751.232 1072.26 749.979 C 1066.85 747.086 1059.67 745.446 1053.83 743.461 C 1041.74 739.347 1029.76 734.866 1018.54 728.696 C 998.734 717.803 983.685 701.662 965.345 689.021 C 990.686 718.622 1015.66 752.018 1052.52 767.726 C 993.106 756.503 925.302 700.656 891.714 651.614 C 883.715 639.935 876.828 627.676 870.245 615.159 C 879.634 656.562 899.738 699.513 926.662 732.466 C 938.941 737.249 948.724 737 955.516 749.768 C 955.786 747.685 955.992 745.88 956.695 743.883 C 958.538 745.666 958.693 746.874 958.741 749.372 C 958.854 755.368 957.455 761.871 956.54 767.799 L 952.428 770.796 C 951.225 770.605 950.048 770.264 948.842 770.093 C 943.204 769.294 935.699 770.86 929.723 770.653 C 916.145 770.183 902.273 767.907 888.877 765.607 C 866.964 761.845 845.365 756.113 823.679 751.236 C 807.119 747.512 790.213 744.778 773.805 740.46 C 755.668 735.687 738.035 729.483 719.683 725.453 C 714.615 750.333 712.081 775.125 714.068 800.509 C 697.358 780.044 698.183 721.489 699.093 695.84 C 685.495 733.154 677.943 770.955 677.744 810.745 C 677.459 867.711 685.917 905.15 700.493 959.849 C 714.507 1012.44 730.802 1066.57 759.049 1113.55 C 773.743 1138 791.231 1160.31 809.243 1182.35 C 831.053 1209.58 854.388 1235.54 879.135 1260.13 C 904.018 1285.24 949.022 1332.03 982.136 1344.73 C 1001.35 1352.1 1024.52 1353.75 1044.91 1353.76 C 1061.64 1353.77 1079.62 1352.24 1095.38 1346.2 C 1131.4 1332.4 1179.1 1280.59 1207.08 1252.53 C 1245.62 1213.88 1292.2 1160.79 1318.43 1113.38 C 1330.57 1091.43 1336.64 1067.77 1344.52 1044.14 C 1359.64 998.8 1375.45 953.273 1380.88 905.519 C 1383.99 878.174 1383.68 850.61 1385.5 823.178 C 1386.43 809.105 1389.8 794.695 1389.53 780.631 C 1389.37 772.586 1386.58 770.002 1381.2 764.659 L 1377.82 794.177 C 1372.75 780.98 1371.98 767.762 1370.75 753.843 C 1361.66 740.936 1349.31 730.833 1337.88 720.067 C 1326.99 709.843 1316.51 699.199 1306.46 688.158 C 1317.26 709.199 1331.35 729.288 1346.71 747.268 C 1353.07 754.724 1361.06 761.312 1366.42 769.521 C 1349.54 759.803 1334.72 748.535 1319.71 736.204 C 1308.71 736.842 1298.09 737.944 1287.24 739.985 C 1292.77 744.552 1298.86 748.256 1304.9 752.086 C 1295.83 750.291 1286.31 745.638 1277.1 745.372 C 1260.48 744.891 1238.13 753.264 1221.6 757.181 C 1179.61 767.133 1135.75 778.165 1092.35 778.814 C 1090.37 777.549 1089.55 776.494 1088.9 774.173 C 1086.62 766.045 1090.91 754.458 1094.44 747.067 C 1077.29 741.729 1059.88 733.744 1042.51 729.819 L 1042.01 729.248 z M 1416.01 1178.23 L 1416.93 1179.07 L 1417.68 1179.71 C 1434.78 1197.76 1452.76 1215.09 1468.69 1234.21 C 1524.24 1300.88 1553.03 1377.06 1569.95 1461.24 C 1574.15 1425.27 1563.65 1360.58 1553.98 1325.34 C 1550.19 1311.49 1545.5 1298.52 1537.27 1286.65 C 1516.38 1256.52 1483.65 1232.63 1455.73 1209.41 C 1443.66 1199.37 1431.28 1187.5 1417.68 1179.71 L 1416.93 1179.07 L 1416.01 1178.23 z M 589.58 1258.71 C 575.264 1271.49 561.992 1286.03 548.58 1299.77 C 534.14 1314.56 517.653 1330.52 506.483 1347.99 C 484.308 1382.67 478.838 1436.86 476.547 1477.22 C 475.213 1498.12 474.846 1519.06 475.449 1539.99 C 475.624 1539.44 475.807 1538.88 475.975 1538.32 C 478.042 1531.43 478.079 1523.21 479.094 1516 C 481.087 1501.84 483.566 1487.63 487.271 1473.81 C 500.87 1423.07 522.227 1360.65 549.89 1315.77 C 562.036 1296.06 577.279 1278.27 589.58 1258.71 L 589.995 1258.2 L 589.58 1258.71 z M 1266.27 133.5 L 1267.49 133.5 L 1266.27 133.5 z M 1203.27 218.5 L 1204.49 218.5 L 1203.27 218.5 z M 1358.27 246.5 L 1359.49 246.5 L 1358.27 246.5 z M 578.265 247.5 L 579.49 247.5 L 578.265 247.5 z M 1315.29 255.5 L 1316.49 255.5 L 1315.29 255.5 z M 759.89 299.108 C 745.477 307.668 731.725 317.365 720.021 329.45 C 678.141 372.695 648.149 448.511 633.357 506.345 C 628.136 526.758 617.457 578.871 619.497 598.242 C 624.08 575.391 627.02 552.358 632.529 529.64 C 643.388 484.861 662.977 438.806 686.99 399.525 C 695.98 384.82 706.197 370.868 716.212 356.853 C 726.673 342.145 737.512 327.71 748.72 313.563 C 752.407 308.843 757.178 304.52 760.495 299.643 L 759.89 299.108 z M 696.887 314.95 C 680.398 330.299 660.648 357.743 655.366 379.991 L 656.111 380.22 L 687.937 331.197 C 691.231 326.195 694.05 320.862 697.636 316.064 L 696.887 314.95 z M 613.363 342.5 L 614.19 342.5 L 613.363 342.5 z M 602.243 376.5 L 603.135 376.5 L 602.243 376.5 z M 654.398 382.5 L 655.061 382.5 L 654.398 382.5 z M 608.452 391.5 L 609.181 391.5 L 608.452 391.5 z M 558.486 445.972 L 559.031 446.5 L 558.486 445.972 z M 790.352 521.722 C 778.114 581.982 750.871 637.213 730.492 694.887 C 754.01 699.081 777.905 700.541 801.476 704.313 C 818.895 706.945 836.263 709.904 853.571 713.189 C 826.777 666.573 804.722 616.668 794.721 563.559 C 792.126 549.78 792.888 535.387 790.352 521.722 z M 819.122 533.746 C 819.861 552.576 824.905 572.469 829.56 590.687 C 840.679 634.203 854.199 680.249 880.368 717.372 C 894.552 721.744 908.983 727.906 923.306 731.35 C 911.244 718.089 898.783 705.028 888.141 690.578 C 864.643 658.67 847.994 619.137 834.586 582.008 C 829.297 567.364 824.871 546.547 819.122 533.746 z M 1093.64 571.715 C 1110.05 623.947 1151.94 687.632 1198.37 717.651 C 1208.93 715.634 1219.51 713.171 1230.14 711.645 L 1233.15 711.161 L 1233.02 710.11 C 1220.45 702.939 1207.72 695.854 1195.94 687.436 C 1166.19 666.185 1139.53 637.183 1118.49 607.297 C 1113.04 599.549 1099.7 576.363 1093.64 571.715 z M 1040.77 632.838 C 1057.63 669.444 1099.26 713.205 1133.72 733.054 C 1141.73 731.464 1149.74 729.75 1157.78 728.291 L 1160.65 727.319 C 1160.49 727.001 1129.86 710.784 1126.46 708.646 C 1103.35 693.83 1081.9 676.571 1062.49 657.166 C 1055 649.553 1048.82 639.671 1040.77 632.838 z M 1482.96 729.115 C 1466.66 735.54 1446.27 768.145 1439.37 784.024 C 1435.5 792.929 1432.84 802.02 1430.54 811.438 C 1438.32 795.155 1460.63 760.664 1477.87 754.194 C 1482.21 752.568 1486.8 752.486 1491.03 754.478 C 1497.46 757.513 1501.08 764.373 1503.13 770.874 C 1508.59 788.295 1508.61 825.106 1500.46 841.105 C 1499.63 842.743 1499.02 843.441 1497.53 844.438 C 1494.75 839.542 1503.39 771.317 1484.56 765.559 C 1481.66 764.672 1478.63 766.044 1476.28 767.683 C 1466.81 774.274 1457.09 784.742 1451.47 794.876 C 1460.86 811.832 1472.76 835.245 1467.45 855.274 C 1463.71 869.386 1450.34 879.741 1440.03 889.289 C 1421.73 906.051 1412.05 914.627 1400.06 936.62 C 1397.09 942.062 1392.86 951.611 1386.04 952.57 C 1383.12 950.872 1382.47 948.648 1381.2 945.615 C 1377.48 948.31 1371.28 990.344 1370.02 997.944 C 1370.34 997.899 1370.66 997.848 1370.98 997.808 C 1380.64 996.58 1391.13 999.411 1400.51 996.853 C 1416.09 992.608 1446.88 949.485 1457.77 935.707 C 1478.3 909.734 1513.83 865.719 1519.54 833.113 C 1521.71 820.681 1520.39 808.27 1518.93 795.842 C 1517.33 782.145 1515.17 741.363 1505.29 733.483 C 1499.31 728.722 1490.24 728.817 1482.96 729.115 z M 575.192 730.82 C 560.248 741.737 558.978 760.543 556.335 777.537 C 547.688 833.135 564.922 874.565 597.329 918.96 C 610.628 937.179 650.36 985.563 666.786 997.833 C 671.362 1001.25 676.46 1003.33 682.108 1004.16 C 688.805 1005.14 695.612 1004.42 702.31 1003.83 C 698.052 989.075 694.054 974.25 690.32 959.357 C 687.428 947.888 685.244 935.193 680.586 924.361 C 665.834 916.888 648.265 911.272 642.55 894.001 C 640.453 887.663 640.405 881.597 641.032 875.031 C 636.354 866.339 632.055 857.74 628.335 848.6 C 621.387 862.509 615.558 883.738 620.31 899.015 C 624.932 913.873 640.411 923.669 652.373 932.246 C 657.322 935.991 668.88 942.964 670.642 948.68 C 668.728 950.274 668.42 950.191 665.893 949.812 C 649.368 947.334 623.103 921.945 614.815 907.788 C 605.913 892.583 603.484 872.559 608.121 855.594 C 610.688 846.204 615.169 837.675 619.888 829.22 C 615.826 815.159 609.55 801.757 604.994 787.825 C 589.204 808.568 586.181 835.472 585.866 860.876 C 575.249 838.475 573.749 814.159 582.013 790.559 C 583.465 786.41 585.273 782.348 587.69 778.664 C 590.354 774.603 595.793 771.18 596.754 766.442 C 595.05 763.852 592.76 762.771 589.617 762.282 C 586.936 761.887 584.211 762.601 582.069 764.26 C 573.327 770.976 571.327 791.158 570.527 801.415 C 569.59 813.442 570.949 824.867 572.832 836.739 C 565.029 816.051 564.907 780.749 574.226 760.692 C 575.903 757.083 577.771 754.961 581.586 753.518 C 588.389 754.017 593.213 759.419 599.23 762.245 C 597.276 754.553 595.77 746.696 593.724 739.049 C 588.501 734.296 584.165 730.14 576.575 730.658 C 576.112 730.69 575.653 730.766 575.192 730.82 z M 1426.09 825.536 C 1418.37 847.274 1412.36 869.579 1405.06 891.459 C 1400.56 904.966 1388.11 932.105 1387.14 944.409 C 1390.35 942.384 1391.89 937.634 1393.47 934.265 C 1397.84 924.227 1402.12 914.934 1409.07 906.361 C 1424.12 887.799 1449.45 874.016 1438.21 846.028 C 1435.71 839.823 1431.11 829.904 1426.09 825.536 z M 663.409 899.619 C 667.111 907.098 671.899 914.458 680.149 917.321 C 675.807 912.101 669.438 902.351 663.409 899.619 z M 1299.44 1164.82 C 1289.08 1177.16 1276.42 1189.84 1267.77 1203.31 C 1261.7 1212.78 1257.79 1223.94 1253.43 1234.3 C 1245.32 1253.55 1237.72 1273.03 1229.17 1292.09 L 1159.82 1449.33 C 1137.95 1497.62 1114.78 1548.34 1083.62 1591.46 C 1093.23 1554.9 1110.65 1515.82 1113.74 1478.28 C 1081.24 1462.31 1042.63 1455.75 1012.09 1436.84 C 975.931 1414.47 946.87 1376.79 919.606 1344.72 C 877.575 1295.28 839.905 1247.77 802.435 1194.74 C 795.103 1184.37 787.058 1174.33 780.283 1163.6 C 790.054 1237 800.912 1311.07 801.078 1385.25 C 800.95 1399.98 800.055 1412.83 792.348 1425.78 C 821.011 1485.67 856.981 1542.18 909.048 1584.48 C 923.127 1595.92 976.833 1631.4 983.424 1642.21 C 990.242 1653.38 994.206 1667.24 997.469 1679.81 C 1008.36 1721.78 1013.71 1801.64 1034.63 1834.65 C 1047.6 1807.02 1060.37 1779.66 1069.18 1750.36 C 1078.44 1719.55 1082.57 1658.31 1099.24 1634.48 C 1111.39 1617.13 1138.23 1604.05 1155.66 1592.11 C 1204.4 1558.72 1279.7 1496.72 1300.87 1441.36 C 1298.17 1427.59 1295.1 1413.73 1293.49 1399.79 C 1287.15 1344.99 1290.8 1288.15 1294.22 1233.19 C 1295.06 1219.79 1300.75 1174.93 1299.44 1164.82 z M 1310.45 1277.88 C 1310.48 1278.28 1310.45 1278.7 1310.54 1279.1 C 1311.32 1282.62 1327 1300.77 1330.44 1306.7 C 1360.28 1358.16 1351.37 1412.88 1325.1 1463.91 C 1291 1530.11 1235.49 1575.48 1176.22 1618.27 C 1154.68 1633.82 1129.77 1649.51 1113.21 1670.5 C 1106.09 1679.52 1101.35 1690.31 1097.64 1701.11 C 1089.12 1725.87 1084.77 1751.55 1074.97 1776.03 C 1061.1 1810.68 1039.83 1841.69 1022.68 1874.66 C 994.177 1842.15 981.466 1789.88 976.327 1747.94 C 973.401 1724.05 972.202 1699.24 960.41 1677.69 C 944.468 1648.56 900.576 1623.99 875.141 1600.93 C 823.206 1552.89 784.924 1491.95 764.192 1424.31 C 759.12 1407.58 753.879 1390.02 754.998 1372.36 C 756.499 1348.64 766.59 1337.08 782.125 1320.6 C 783.928 1318.69 785.468 1317.02 784.241 1314.43 C 766.3 1329.28 753.45 1344.74 751.311 1368.81 C 749.589 1388.18 754.333 1407.95 759.928 1426.36 C 776.829 1481.95 805.978 1531.69 843.526 1575.86 C 873.397 1611 908.778 1632.24 941.933 1662.53 C 914.593 1705.86 889.621 1738.53 878.42 1790.43 C 876.83 1797.8 874.958 1817.68 867.19 1820.63 C 861.62 1818.48 858.272 1810.09 855.965 1804.9 C 839.337 1767.53 829.175 1727.14 814.162 1689.01 C 792.518 1634.04 765.879 1580.91 747.26 1524.74 C 740.827 1505.33 736.412 1485.07 731.679 1465.18 C 722.964 1428.57 714.585 1389.71 728.862 1353.39 C 737.567 1331.24 753.163 1315.27 770.6 1299.68 C 776.833 1294.1 783.602 1288.88 788.373 1281.94 C 781.544 1284.98 776.042 1288.6 770.304 1293.41 C 725.941 1333.83 718.791 1353.51 714.976 1412.22 C 713.661 1432.45 712.009 1452.65 711.074 1472.91 C 708.823 1516.41 707.723 1559.95 707.775 1603.51 C 707.901 1618.96 706.841 1636.86 710.421 1651.96 C 713.295 1664.08 724 1677.91 730.286 1688.71 C 777.72 1770.2 828.629 1837.99 892.277 1907.53 C 917.434 1935.01 945.282 1961.09 972.64 1986.38 C 991.657 2003.96 1010.63 2021.89 1030.79 2038.16 C 1056 2010.5 1083.58 1985.25 1110.29 1959.09 C 1172.76 1897.92 1244.54 1826.63 1295.07 1756.02 C 1303.72 1743.94 1314.56 1731.1 1319.07 1716.8 C 1325.19 1697.36 1327.66 1675.19 1331.41 1655.11 C 1337.71 1622.08 1343.64 1588.98 1349.2 1555.83 C 1353.79 1528.68 1357.82 1501.02 1364.07 1474.21 C 1354.13 1492.98 1346.28 1512.99 1337.41 1532.29 C 1329.96 1548.49 1321.44 1564.27 1312.79 1579.85 C 1301.05 1600.99 1287.63 1621.16 1274.81 1641.64 C 1261.36 1663.4 1248.22 1685.35 1235.4 1707.48 C 1221.04 1732.37 1207.07 1757.03 1198.48 1784.64 C 1195.46 1794.36 1194.03 1804.1 1192.63 1814.14 C 1186.43 1803.68 1184.32 1790.46 1181.33 1778.78 C 1173.47 1748.15 1163.44 1702.62 1144.98 1677.64 C 1140.01 1670.92 1134.49 1666.2 1127.54 1661.64 C 1148.73 1642.51 1172.69 1626.7 1195.82 1610.08 C 1254.61 1567.84 1308.77 1521.03 1336.28 1452.08 C 1345.49 1428.99 1353.29 1404.75 1354.49 1379.75 C 1356.08 1346.44 1343.67 1310.4 1320.9 1285.82 C 1317.98 1282.67 1314.76 1278.93 1310.45 1277.88 z M 1316.42 1339.69 C 1322.95 1355.79 1324.75 1367.83 1329.3 1384 L 1330.47 1384.25 C 1331.11 1371.5 1329.93 1353.85 1321.2 1343.79 C 1319.79 1342.16 1318.31 1340.74 1316.42 1339.69 z"/>
<path transform="translate(0,0)" fill="rgb(0,0,0)" d="M 683.587 180.246 L 685.043 179.41 L 683.587 180.246 z"/>
<path transform="translate(0,0)" fill="rgb(0,0,0)" d="M 683.071 180.767 L 683.587 180.246 L 683.071 180.767 z"/>
<path transform="translate(0,0)" fill="rgb(0,0,0)" d="M 1332.83 180.447 L 1334.36 181.325 L 1332.83 180.447 z"/>
<path transform="translate(0,0)" fill="rgb(0,0,0)" d="M 1334.36 181.325 L 1334.89 181.783 L 1334.36 181.325 z"/>
<path transform="translate(0,0)" fill="rgb(0,0,0)" d="M 1244.4 214.414 L 1244.91 214.883 L 1244.4 214.414 z"/>
<path transform="translate(0,0)" fill="rgb(0,0,0)" d="M 1249.4 234.25 L 1249.99 234.761 L 1249.4 234.25 z"/>
<path transform="translate(0,0)" fill="rgb(0,0,0)" d="M 1309.03 249.047 L 1308.22 248.196 L 1309.03 249.047 z"/>
<path transform="translate(0,0)" fill="rgb(0,0,0)" d="M 1309.03 249.047 L 1309.66 249.676 L 1309.03 249.047 z"/>
<path transform="translate(0,0)" fill="rgb(0,0,0)" d="M 1312.66 268.88 L 1312.01 268.248 L 1312.66 268.88 z"/>
<path transform="translate(0,0)" fill="rgb(0,0,0)" d="M 1312.66 268.88 L 1313.56 269.686 L 1312.66 268.88 z"/>
<path transform="translate(0,0)" fill="rgb(0,0,0)" d="M 651.233 292.995 L 651.605 292.24 L 651.233 292.995 z"/>
<path transform="translate(0,0)" fill="rgb(0,0,0)" d="M 1228.38 311.398 L 1228.81 311.995 L 1228.38 311.398 z"/>
<path transform="translate(0,0)" fill="rgb(0,0,0)" d="M 624.201 314.596 L 624.748 314.005 L 624.201 314.596 z"/>
<path transform="translate(0,0)" fill="rgb(0,0,0)" d="M 629.433 322.623 L 629.896 322.167 L 629.433 322.623 z"/>
<path transform="translate(0,0)" fill="rgb(0,0,0)" d="M 629.421 337.62 L 629.837 337.088 L 629.421 337.62 z"/>
<path transform="translate(0,0)" fill="rgb(0,0,0)" d="M 1635.52 537.196 L 1635.99 537.75 L 1635.52 537.196 z"/>
<path transform="translate(0,0)" fill="rgb(0,0,0)" d="M 960.333 766.679 L 959.297 766.09 C 962.533 758.717 965.19 751.076 968.033 743.543 C 968.274 744.128 968.607 744.684 968.755 745.3 C 970.146 751.064 963.488 762.07 960.333 766.679 z"/>
<path transform="translate(0,0)" fill="rgb(0,0,0)" d="M 1088.85 780.213 L 1086.04 779.824 C 1081.14 773.465 1081.19 755.583 1080.91 747.568 C 1081.27 747.838 1081.68 748.052 1081.99 748.38 C 1087.63 754.332 1088.2 772.524 1088.85 780.213 z"/>
<path transform="translate(0,0)" fill="rgb(0,0,0)" d="M 964.816 773.438 L 963.973 772.576 C 964.822 764.459 966.784 758.426 971.524 751.738 C 972.562 752.767 972.494 753.442 972.61 754.852 C 973.211 762.177 969.296 768.092 964.816 773.438 z M 969.003 760.387 L 968.105 762.517 L 969.15 763.583 L 969.998 761.489 L 969.003 760.387 z"/>
<path transform="translate(0,0)" fill="rgb(0,0,0)" d="M 1078.48 755.242 L 1078.78 755.995 L 1078.48 755.242 z"/>
<path transform="translate(0,0)" fill="rgb(0,0,0)" d="M 895.417 774.406 C 903.483 778.777 908.858 785.183 911.43 794.015 C 912.122 796.446 912.764 798.891 913.356 801.349 C 902.137 791.654 893.882 780.356 881.147 772.292 C 892.284 785.751 914.192 803.71 922.938 817.134 C 924.209 819.085 924.771 820.181 924.25 822.508 C 916.246 813.29 906.992 801.876 897.25 794.606 C 871.597 775.464 830.494 772.9 799.812 776.068 C 786.915 777.399 774.351 780.33 761.532 782.094 C 796.15 767.009 841.407 765.708 876.72 779.386 C 880.564 780.875 884.301 782.685 888.019 784.462 C 886.313 781.491 884.636 778.641 882.569 775.905 C 865.951 770.141 849.639 768.491 832.201 767.373 C 851.889 767.395 877.128 766.916 893.957 778.388 C 898.364 781.392 902.246 785.676 906.162 789.309 L 906.711 789.995 L 906.162 789.309 C 904.163 783.494 899.23 779.15 895.417 774.406 z"/>
<path transform="translate(0,0)" fill="rgb(0,0,0)" d="M 1082.9 780.091 C 1081.78 779.612 1080.81 778.822 1079.81 778.134 C 1077.67 774.444 1077.9 770.689 1077.8 766.561 C 1078.03 766.7 1078.29 766.807 1078.5 766.977 C 1081.82 769.657 1082.29 776.113 1082.9 780.091 z"/>
<path transform="translate(0,0)" fill="rgb(0,0,0)" d="M 1170.19 782.208 C 1194.87 774.933 1218.91 771.526 1244.44 769.405 C 1244.59 769.384 1244.74 769.356 1244.89 769.342 C 1266.17 767.414 1297.11 768.067 1314.57 781.819 L 1314.68 783.024 C 1305.33 783.422 1293.2 778.35 1283.67 776.744 C 1252.1 771.426 1202.11 776.255 1172.34 788.125 C 1163.45 791.668 1156.04 796.691 1148.25 802.189 C 1143.19 805.814 1139.52 811.041 1134.3 814.31 C 1136.57 804.605 1139.18 801.705 1146.32 794.745 C 1144.83 789.113 1143.97 784.482 1145.77 778.738 C 1145.95 778.143 1147.17 774.986 1147.58 774.785 L 1149.41 776.119 C 1150.41 780.221 1147.15 784.919 1146.82 789.109 C 1146.65 791.276 1147.07 792.512 1148.61 794.026 C 1152.05 790.995 1155.14 788.478 1155.52 783.698 L 1152.89 780.644 C 1153.74 778.207 1154.68 777.772 1156.6 776.099 L 1157.49 776.832 C 1157.33 780.081 1157.32 783.128 1157.63 786.369 L 1159.06 787.437 C 1159.89 787.181 1160.5 787.025 1161.29 786.609 C 1165.03 784.667 1167.93 781.427 1169.44 777.497 C 1169.57 777.164 1169.68 776.825 1169.8 776.494 C 1169.97 776.056 1170.16 775.626 1170.34 775.19 C 1170.44 774.928 1170.54 774.663 1170.64 774.4 L 1170.14 777.142 L 1170.65 777.59 L 1170.19 782.208 z M 1140.86 803.951 L 1141.45 804.259 L 1140.86 803.951 z"/>
<path transform="translate(0,0)" fill="rgb(0,0,0)" d="M 1366.42 769.521 L 1366.91 769.961 L 1366.42 769.521 z"/>
<path transform="translate(0,0)" fill="rgb(0,0,0)" d="M 894.74 773.401 L 892.005 773.164 L 894.74 773.401 z"/>
<path transform="translate(0,0)" fill="rgb(0,0,0)" d="M 894.74 773.401 L 895.417 774.406 L 894.74 773.401 z"/>
<path transform="translate(0,0)" fill="rgb(0,0,0)" d="M 946.369 799.175 L 944.839 798.768 C 940.78 790.542 939.418 782.257 937.936 773.309 C 939.367 774.406 939.976 775.091 941.008 776.509 C 941.042 781.553 942.182 786.931 944.091 791.596 C 945.146 794.176 945.801 796.446 946.369 799.175 z"/>
<path transform="translate(0,0)" fill="rgb(0,0,0)" d="M 905.541 776.591 L 904.005 776.218 L 905.541 776.591 z"/>
<path transform="translate(0,0)" fill="rgb(0,0,0)" d="M 905.541 776.591 L 907.468 778.527 L 905.541 776.591 z"/>
<path transform="translate(0,0)" fill="rgb(0,0,0)" d="M 935.412 778.5 L 934.304 777.917 L 935.412 778.5 z"/>
<path transform="translate(0,0)" fill="rgb(0,0,0)" d="M 907.468 778.527 L 908.26 779.121 L 907.468 778.527 z"/>
<path transform="translate(0,0)" fill="rgb(0,0,0)" d="M 1139.79 794.378 L 1138.67 794.354 C 1136.7 789.011 1136.65 783.059 1137.24 777.458 L 1139.29 778.582 C 1141.44 784.138 1140.93 788.62 1139.79 794.378 z"/>
<path transform="translate(0,0)" fill="rgb(0,0,0)" d="M 908.26 779.121 L 909.359 780.242 L 908.26 779.121 z"/>
<path transform="translate(0,0)" fill="rgb(0,0,0)" d="M 1136.23 802.363 C 1130.68 798.601 1129.53 784.853 1128.24 778.394 C 1133.5 782.155 1135.08 796.181 1136.23 802.363 z"/>
<path transform="translate(0,0)" fill="rgb(0,0,0)" d="M 909.359 780.242 L 911.546 782.565 L 909.359 780.242 z"/>
<path transform="translate(0,0)" fill="rgb(0,0,0)" d="M 944.517 781.06 L 944.005 780.07 L 944.517 781.06 z"/>
<path transform="translate(0,0)" fill="rgb(0,0,0)" d="M 1163.49 782.5 L 1162.65 781.938 L 1163.49 782.5 z"/>
<path transform="translate(0,0)" fill="rgb(0,0,0)" d="M 761.005 782.748 L 761.532 782.094 L 761.005 782.748 z"/>
<path transform="translate(0,0)" fill="rgb(0,0,0)" d="M 911.546 782.565 L 912.152 783.18 L 911.546 782.565 z"/>
<path transform="translate(0,0)" fill="rgb(0,0,0)" d="M 944.517 781.06 C 946.277 783.534 948.489 786.076 949.515 788.951 L 948.67 790.164 L 947.111 790.802 C 946.208 787.566 945.245 784.34 944.517 781.06 z"/>
<path transform="translate(0,0)" fill="rgb(0,0,0)" d="M 1152.1 783.5 L 1151.29 782.994 L 1152.1 783.5 z"/>
<path transform="translate(0,0)" fill="rgb(0,0,0)" d="M 912.152 783.18 C 912.761 784.074 913.534 785.028 914 786 L 912.152 783.18 z"/>
<path transform="translate(0,0)" fill="rgb(0,0,0)" d="M 1109.03 783.446 L 1109.76 783.005 L 1109.03 783.446 z"/>
<path transform="translate(0,0)" fill="rgb(0,0,0)" d="M 1105.36 791.577 L 1109.03 783.446 C 1108.43 790.173 1114.39 800.045 1112.23 805.307 L 1111.1 805.06 C 1110.34 800.116 1108.32 795.569 1105.36 791.577 z"/>
<path transform="translate(0,0)" fill="rgb(0,0,0)" d="M 1122.59 816.475 C 1122.21 813.31 1121.68 811 1120.49 808.044 L 1119.82 808.352 C 1119.61 811.405 1119.33 814.454 1118.99 817.496 C 1116.82 807.405 1113.6 793.847 1115.22 783.605 L 1116.59 784.868 C 1117.96 798.161 1123.97 810.187 1124.76 823.753 L 1123.94 824.432 C 1122.91 821.846 1122.82 819.218 1122.59 816.475 z"/>
<path transform="translate(0,0)" fill="rgb(0,0,0)" d="M 1132.6 818.462 L 1130.77 818.191 C 1129.37 805.752 1121.69 796.114 1120.9 783.41 C 1121.8 783.952 1122.62 784.766 1123.43 785.445 C 1126.92 794.409 1133.5 808.892 1132.6 818.462 z"/>
<path transform="translate(0,0)" fill="rgb(0,0,0)" d="M 1295.36 832.902 C 1280.3 853.572 1263.03 867.452 1237.38 871.441 C 1214.46 875.005 1189.2 879.698 1167.16 869.845 C 1176.33 869.675 1185.74 872.908 1194.96 873.73 C 1219.37 875.909 1252.82 870.544 1271.92 853.942 C 1286.03 841.674 1296.31 822.841 1297.72 804.113 C 1284.36 800.107 1270.63 799.154 1256.77 798.741 C 1258.19 813.356 1257.72 826.216 1248.52 838.563 C 1241.65 847.778 1231.35 854.203 1219.87 855.605 C 1208.78 856.96 1196.87 853.784 1188.24 846.621 C 1178.38 838.436 1175.54 828.29 1174.23 816.127 C 1164.08 820.052 1155.56 824.018 1148.37 832.585 C 1151.25 836.637 1153.14 840.325 1154.83 844.995 C 1153.82 843.983 1152.8 842.958 1151.72 842.008 C 1149.13 839.722 1147.35 839.216 1143.95 839.447 C 1139.98 841.733 1134.21 846.78 1132.57 851.075 L 1134.55 853.261 L 1133.57 853.898 C 1130.59 852.855 1129.2 852.368 1127.1 849.866 C 1126.32 846.946 1126.39 844.988 1127.53 842.211 C 1130.42 835.221 1135.86 828.693 1140.78 823.026 C 1147.19 815.63 1154.95 808.073 1163.37 802.977 C 1192.88 785.105 1244.59 783.059 1278.61 784.99 C 1290.27 785.652 1306.56 791.387 1317.37 786.384 C 1319.46 785.415 1320.9 784.581 1323.24 784.454 C 1322 788.938 1316.43 794.457 1313.36 798.082 C 1319.3 796.044 1324.94 791.011 1330.79 789.958 L 1330.89 791.674 C 1329.04 795.608 1326.87 797.427 1323.38 799.945 C 1326.96 800.37 1331.45 800.278 1334.26 802.721 L 1333.76 804.284 C 1325.8 808.787 1314.89 809.491 1306.01 808.401 C 1302.66 816.681 1299.23 824.844 1295.36 832.902 z M 1237.05 808.549 C 1235.09 810.423 1232.88 811.656 1232.84 814.635 C 1232.83 814.999 1233.3 816.941 1233.35 817.214 C 1234.16 820.928 1234.24 826.142 1231.92 829.381 C 1229.65 832.558 1225.52 833.2 1221.91 833.424 C 1216.18 833.778 1209.06 833.439 1204.69 829.2 C 1199.35 824.016 1199.45 814.379 1194.17 810.108 C 1191.38 810.624 1189.98 812.212 1188.01 814.084 C 1187.47 815.582 1187.03 816.717 1186.9 818.316 C 1189.71 826.286 1194.3 833.328 1202.27 836.931 C 1209.99 840.422 1220.23 840.457 1228.07 837.329 C 1234.62 834.719 1240.59 829.604 1243.39 823.039 C 1244.56 820.287 1245.16 817.149 1244.19 814.237 C 1243.29 811.496 1241.48 810.233 1238.92 809.24 C 1238.31 808.999 1237.68 808.779 1237.05 808.549 z"/>
<path transform="translate(0,0)" fill="rgb(0,0,0)" d="M 914 786 L 914.983 787.667 L 914 786 z"/>
<path transform="translate(0,0)" fill="rgb(0,0,0)" d="M 926.49 787.5 L 925.558 787.5 L 926.49 787.5 z"/>
<path transform="translate(0,0)" fill="rgb(0,0,0)" d="M 913.257 858.527 C 905.778 862.947 898.319 865.289 889.853 867.061 L 888.737 866.546 C 892.063 864.347 894.911 863.506 898.664 862.327 C 908.462 859.247 913.737 853.687 919.796 845.822 C 906.663 827.824 902.429 826.063 884.187 815.091 C 881.524 830.048 877.985 845.389 864.529 854.504 C 856.347 860.045 846.329 861.397 836.76 859.343 C 826.109 857.106 816.815 850.656 810.993 841.462 C 803.513 829.404 803.358 815.269 805.318 801.699 C 795.499 802.917 762.556 807.788 756.619 814.588 C 755.281 821.168 762.781 832.873 766.388 838.353 C 778.651 856.982 793.102 868.193 815.214 872.503 C 823.147 874.05 831.362 875.249 839.454 875.358 C 828.327 879.454 820.355 877.262 809.096 875.293 C 811.695 877.084 814.734 878.719 816.493 881.351 C 812.274 879.434 803.357 873.039 799 873.823 L 797.474 873.216 L 796.433 873.881 C 798.622 878.727 803.241 881.365 805.694 885.91 L 804.53 885.856 C 799.194 881.526 794.747 876.48 790.153 871.395 L 789.069 871.136 L 790.153 871.395 L 790.924 874.636 L 790.328 875.442 C 788.245 872.845 786.183 870.448 783.78 868.142 L 782.291 868.362 C 782.927 873.801 791.867 881.484 795.546 885.39 L 794.322 885.677 C 786.311 882.609 781.142 870.913 774.804 864.927 C 769.495 859.914 766.518 862.257 761.593 854.823 C 754.819 852.456 748.241 849.719 741.635 846.921 C 746.157 847.125 751.649 848.16 755.946 846.583 C 752.893 843.482 743.867 841.06 739.457 838.997 L 751.173 836.133 C 745.944 834.123 741.225 832.176 736.485 829.136 C 740.614 830.188 744.384 831.874 748.622 832.435 L 749.12 831.656 C 748.258 831.308 747.395 830.962 746.544 830.587 C 742.347 828.738 736.396 825.787 734.695 821.378 C 737.713 819.919 742.2 821.733 745.808 820.639 C 745.138 818.492 745.045 819.183 745.406 817.276 C 745.48 816.882 745.594 816.496 745.688 816.107 C 741.481 812.755 729.912 816.916 723.701 813.301 L 723.699 811.948 C 724.121 811.584 724.532 811.208 724.964 810.857 C 729.479 807.204 737.424 806.496 742.91 804.532 C 750.323 801.878 757.451 798.395 764.937 795.949 C 786.654 788.852 812.532 786.951 835.205 789.034 C 865.939 791.856 890.139 795.846 910.52 820.582 C 917.135 828.61 924.926 838.468 923.815 849.495 C 918.042 856.506 914.439 863.79 905.672 867.423 L 913.257 858.527 L 913.794 858.005 L 913.257 858.527 z M 825.21 805.231 C 823.443 810.475 821.53 814.803 823.471 820.208 C 825.744 822.388 826.905 823.254 830.26 823.19 C 831.518 823.166 832.78 823.061 834.034 822.965 C 835.289 819.508 835.689 817.059 834.196 813.571 C 832.4 809.378 829.223 807.068 825.21 805.231 z M 814.592 812.595 C 814.333 822.922 816.293 832.249 823.733 839.865 C 829.531 845.799 837.631 849.37 845.971 849.125 C 852.683 848.928 859.479 846.003 863.989 840.959 C 866.211 838.473 867.72 835.514 869.141 832.53 L 869.867 829.279 L 869.072 828.84 C 864.146 835.17 858.262 842.061 849.88 843.407 C 843.79 844.385 837.68 841.456 832.989 837.792 C 823.679 830.519 821.46 816.722 814.592 812.595 z M 744.055 824.889 C 745.356 825.397 744.84 825.47 745.573 825.27 L 744.055 824.889 z"/>
<path transform="translate(0,0)" fill="rgb(0,0,0)" d="M 914.983 787.667 C 918.708 795.325 922.232 806.588 923.441 815.029 C 918.025 806.387 915.667 797.774 914.983 787.667 z"/>
<path transform="translate(0,0)" fill="rgb(0,0,0)" d="M 1111.52 827.928 C 1102.4 820.031 1097.04 798.79 1096.17 787.09 C 1102.2 800.303 1105.21 814.879 1111.52 827.928 z"/>
<path transform="translate(0,0)" fill="rgb(0,0,0)" d="M 927 789.5 L 926.178 789.5 L 927 789.5 z"/>
<path transform="translate(0,0)" fill="rgb(0,0,0)" d="M 949.62 803.986 C 950.045 800.405 950.063 795.878 951.708 792.647 L 953.27 792.778 C 954.116 795.636 954.021 796.729 952.606 799.406 C 951.764 800.999 950.647 802.507 949.62 803.986 z"/>
<path transform="translate(0,0)" fill="rgb(0,0,0)" d="M 1112.23 805.307 C 1113.4 811.028 1115.34 816.516 1116.7 822.186 C 1117.25 824.472 1118.74 829.536 1117.61 831.402 C 1115.29 827.315 1105.82 802.643 1104.99 798.264 C 1104.57 795.973 1104.96 793.838 1105.36 791.577 C 1106.18 795.761 1106.52 801.706 1110.15 804.457 C 1110.45 804.682 1110.78 804.859 1111.1 805.06 L 1112.23 805.307 z"/>
<path transform="translate(0,0)" fill="rgb(0,0,0)" d="M 1090.77 795.614 L 1090.24 795.118 L 1090.77 795.614 z"/>
<path transform="translate(0,0)" fill="rgb(0,0,0)" d="M 1090.77 795.614 C 1096.8 803.804 1105.24 831.512 1106.42 841.916 C 1099.38 832.63 1092.23 807.224 1090.77 795.614 z"/>
<path transform="translate(0,0)" fill="rgb(0,0,0)" d="M 947.61 813.719 L 946.034 814.792 C 943.22 809.401 941.22 803.354 939.45 797.547 C 942.874 800.286 943.948 804.77 946.559 808.218 C 948.212 810.4 947.703 811.037 947.61 813.719 z"/>
<path transform="translate(0,0)" fill="rgb(0,0,0)" d="M 960.1 813.061 L 958.563 813.71 C 956.144 812.66 956.962 806.249 955.425 803.713 C 955.266 803.45 955.045 803.231 954.854 802.99 L 955.314 800.345 L 956.297 800.526 C 957.269 801.779 958.331 803.105 959.033 804.53 C 960.685 807.881 961.089 809.545 960.1 813.061 z"/>
<path transform="translate(0,0)" fill="rgb(0,0,0)" d="M 714.068 800.509 L 714.75 800.995 L 714.068 800.509 z"/>
<path transform="translate(0,0)" fill="rgb(0,0,0)" d="M 913.356 801.349 L 913.784 801.995 L 913.356 801.349 z"/>
<path transform="translate(0,0)" fill="rgb(0,0,0)" d="M 1109.81 858.504 C 1109.01 857.997 1108.84 857.939 1108.09 857.147 C 1095.87 844.101 1088.26 818.947 1087.45 801.429 C 1092.96 810.241 1092.66 823.108 1096.77 832.888 C 1100.4 841.523 1108.25 849.202 1109.81 858.504 z"/>
<path transform="translate(0,0)" fill="rgb(0,0,0)" d="M 948.742 805.422 L 949.62 803.986 L 948.742 805.422 z"/>
<path transform="translate(0,0)" fill="rgb(0,0,0)" d="M 934.79 806.007 C 934.362 805.99 934.105 805.492 933.789 805.204 L 934.79 806.007 z"/>
<path transform="translate(0,0)" fill="rgb(0,0,0)" d="M 948.078 806.995 L 948.742 805.422 L 948.078 806.995 z"/>
<path transform="translate(0,0)" fill="rgb(0,0,0)" d="M 953.041 811.5 L 952.486 810.972 L 953.041 811.5 z"/>
<path transform="translate(0,0)" fill="rgb(0,0,0)" d="M 1083.38 812.5 L 1082.53 812.5 L 1083.38 812.5 z"/>
<path transform="translate(0,0)" fill="rgb(0,0,0)" d="M 948.572 821.072 C 948.906 817.043 949.568 815.074 952.313 811.935 C 951.425 815.449 950.73 818.126 948.572 821.072 z"/>
<path transform="translate(0,0)" fill="rgb(0,0,0)" d="M 965.261 818.556 L 962.642 816.371 L 962.769 814.03 C 964.878 815.442 964.569 816.205 965.261 818.556 z"/>
<path transform="translate(0,0)" fill="rgb(0,0,0)" d="M 1102.28 883.457 C 1094.02 872.945 1080.43 827.479 1082.09 813.598 L 1082.25 812.282 C 1085.28 824.67 1088.37 835.511 1094.76 846.608 C 1098.17 853.729 1103.24 865.473 1101.56 873.397 C 1097.17 863.009 1095.11 851.933 1090.53 841.501 L 1088.78 837.509 C 1091.4 853.951 1099.19 867.847 1102.28 883.457 z"/>
<path transform="translate(0,0)" fill="rgb(0,0,0)" d="M 1319.84 826.258 C 1314.32 824.935 1310.04 820.461 1305.95 816.768 C 1306.23 816.79 1306.5 816.793 1306.78 816.834 C 1313.01 817.754 1316.37 821.322 1319.84 826.258 z"/>
<path transform="translate(0,0)" fill="rgb(0,0,0)" d="M 965.261 818.556 L 965.81 818.995 L 965.261 818.556 z"/>
<path transform="translate(0,0)" fill="rgb(0,0,0)" d="M 953.777 825.383 L 952.56 825.168 C 951.824 822.735 953.362 820.925 954.402 818.67 C 955.227 821.529 954.719 822.689 953.777 825.383 z"/>
<path transform="translate(0,0)" fill="rgb(0,0,0)" d="M 962.409 834.281 L 961.436 834.043 C 959.985 829.767 961.486 823.084 961.894 818.559 L 963.582 821.037 C 964.436 825.674 963.338 829.745 962.409 834.281 z"/>
<path transform="translate(0,0)" fill="rgb(0,0,0)" d="M 1295.36 832.902 L 1299.44 833.992 C 1300.32 831.448 1301.06 828.932 1301.67 826.309 C 1302.3 823.622 1303.87 821.247 1305.24 818.89 C 1309.82 826.999 1311.75 834.293 1313.21 843.416 C 1311.03 839.034 1308.76 832.598 1305.35 829.238 C 1304.26 832.618 1308.39 841.914 1306.51 843.516 L 1303.26 840.437 L 1302.26 840.998 C 1301.85 844.156 1301.9 850.823 1300.03 853.171 C 1299.36 849.765 1299.56 846.723 1299.79 843.272 L 1299.14 843.182 C 1298.17 847.046 1297.86 850.488 1297.7 854.461 C 1297.61 856.507 1297.71 855.677 1297.11 857.795 C 1294.96 856.299 1294.75 852.142 1292.44 851.927 L 1292.54 853.344 C 1292.74 856.739 1293.14 860.886 1291.79 864.047 L 1290.77 864.145 L 1289.1 856.57 C 1288.22 858.312 1287.87 860.017 1287.45 861.913 L 1286.6 862.087 L 1284.98 858.058 L 1284.78 858.017 C 1283.86 861.617 1283.92 864.75 1284.05 868.448 C 1282.65 867.637 1283.23 868.257 1282.69 866.309 L 1281.01 865.693 C 1279.31 867.929 1280 872.24 1277.49 872.672 C 1278.02 869.302 1278.52 865.926 1278.98 862.545 L 1278.35 861.974 C 1275.08 867.908 1273.5 874.36 1271.04 880.624 C 1271.38 876.94 1272.81 870.088 1270.74 866.869 C 1266.99 869.692 1264.92 878.975 1261.37 880.316 C 1261.78 875.611 1263.68 871.186 1265.24 866.76 C 1262.14 871.164 1257.88 879.708 1253.73 882.672 C 1259.83 860.268 1290.6 855.063 1295.36 832.902 z"/>
<path transform="translate(0,0)" fill="rgb(0,0,0)" d="M 947.568 823.72 L 948.572 821.072 L 947.568 823.72 z"/>
<path transform="translate(0,0)" fill="rgb(0,0,0)" d="M 967.036 820.5 L 966.358 820.5 L 967.036 820.5 z"/>
<path transform="translate(0,0)" fill="rgb(0,0,0)" d="M 962.634 857.48 C 966.432 844.433 966.234 833.902 967.468 820.745 C 970.412 831.165 970.324 845.647 964.415 855.157 C 963.595 856.477 963.519 856.493 962.634 857.48 z"/>
<path transform="translate(0,0)" fill="rgb(0,0,0)" d="M 947.139 824.977 L 947.568 823.72 L 947.139 824.977 z"/>
<path transform="translate(0,0)" fill="rgb(0,0,0)" d="M 1077.89 831.45 L 1076.54 830.526 L 1076.93 826.423 L 1077.99 827.475 L 1077.89 831.45 z"/>
<path transform="translate(0,0)" fill="rgb(0,0,0)" d="M 945.055 829.853 L 944.815 829.781 L 944.181 828.554 L 945.055 829.853 z"/>
<path transform="translate(0,0)" fill="rgb(0,0,0)" d="M 1106.42 841.916 C 1108.42 837.15 1106.09 832.178 1107.58 827.339 C 1108.08 828.567 1108.47 829.449 1108.61 830.78 C 1109.47 835.727 1110.06 839.985 1109.51 845.046 L 1108.6 845.996 C 1107.55 844.615 1106.95 843.57 1106.42 841.916 z"/>
<path transform="translate(0,0)" fill="rgb(0,0,0)" d="M 1111.52 827.928 L 1112.2 829.447 L 1111.52 827.928 z"/>
<path transform="translate(0,0)" fill="rgb(0,0,0)" d="M 736.49 828.5 L 735.27 828.5 L 736.49 828.5 z"/>
<path transform="translate(0,0)" fill="rgb(0,0,0)" d="M 738.49 829.5 L 737.27 829.5 L 738.49 829.5 z"/>
<path transform="translate(0,0)" fill="rgb(0,0,0)" d="M 1112.2 829.447 L 1112.62 830.376 L 1112.2 829.447 z"/>
<path transform="translate(0,0)" fill="rgb(0,0,0)" d="M 1082.68 866.193 C 1076.88 861.305 1072.91 839.291 1072.15 831.843 C 1072.05 830.917 1072.05 829.984 1072.02 829.054 C 1076.77 835.054 1081.23 858.083 1082.68 866.193 z"/>
<path transform="translate(0,0)" fill="rgb(0,0,0)" d="M 955.112 833.847 L 954.882 833.766 L 954.345 832.491 L 955.112 833.847 z"/>
<path transform="translate(0,0)" fill="rgb(0,0,0)" d="M 1112.62 830.376 C 1114.41 832.315 1115.93 833.145 1116.13 835.857 L 1114.28 835.046 C 1113.7 833.498 1113.08 831.965 1112.62 830.376 z"/>
<path transform="translate(0,0)" fill="rgb(0,0,0)" d="M 1078.29 837.518 L 1077.13 836.005 L 1078.29 837.518 z"/>
<path transform="translate(0,0)" fill="rgb(0,0,0)" d="M 956.995 847.373 C 956.745 847.177 956.47 847.009 956.245 846.786 C 954.347 844.913 954.457 841.852 954.253 839.37 L 954.917 839.199 L 955.975 839.937 L 956.995 847.373 z"/>
<path transform="translate(0,0)" fill="rgb(0,0,0)" d="M 1078.29 837.518 L 1078.75 838.995 L 1078.29 837.518 z"/>
<path transform="translate(0,0)" fill="rgb(0,0,0)" d="M 960.629 850.151 C 960.909 846.796 961.4 843.74 962.274 840.487 C 962.477 845.038 960.092 855.075 961.871 858.373 C 961.078 862.491 958.805 866.734 957.194 870.627 C 957.913 863.806 958.19 856.604 960.629 850.151 z"/>
<path transform="translate(0,0)" fill="rgb(0,0,0)" d="M 1082.68 866.193 L 1085.37 867.084 L 1085.69 867.798 L 1085.37 867.084 L 1081.13 850.654 L 1081.52 850.141 C 1086.06 857.088 1102.6 898.192 1103.26 905.966 C 1097.18 896.987 1093.57 884.499 1089.48 874.358 C 1089.69 896.235 1103.91 915.066 1105.25 936.504 C 1103.78 934.371 1102.77 932.834 1102.26 930.285 C 1100.29 920.573 1096.3 910.918 1093.45 901.402 C 1090 889.899 1088.36 876.801 1082.68 866.193 z"/>
<path transform="translate(0,0)" fill="rgb(0,0,0)" d="M 1156 848.5 L 1155.18 848.5 L 1156 848.5 z"/>
<path transform="translate(0,0)" fill="rgb(0,0,0)" d="M 1091.61 909.86 C 1085.46 903.762 1066.94 859.683 1066.61 851.677 C 1066.58 851.001 1066.75 850.331 1066.82 849.659 C 1068.04 850.337 1067.6 849.824 1068.03 851.294 C 1071.68 859.504 1074.85 867.939 1079.03 875.894 L 1078.57 874.32 C 1081.45 881.628 1083.43 889.151 1086.14 896.494 C 1087.8 900.991 1090.25 905.287 1091.61 909.86 z"/>
<path transform="translate(0,0)" fill="rgb(0,0,0)" d="M 1155.73 853.487 L 1155.25 852.005 L 1155.73 853.487 z"/>
<path transform="translate(0,0)" fill="rgb(0,0,0)" d="M 1155.73 853.487 L 1156.83 854.995 L 1155.73 853.487 z"/>
<path transform="translate(0,0)" fill="rgb(0,0,0)" d="M 961.871 858.373 L 962.634 857.48 L 961.871 858.373 z"/>
<path transform="translate(0,0)" fill="rgb(0,0,0)" d="M 1068.53 871.489 C 1068.24 871.242 1067.92 871.023 1067.67 870.748 C 1064.77 867.669 1065.17 861.68 1064.96 857.64 C 1067.76 860.998 1067.89 867.234 1068.53 871.489 z"/>
<path transform="translate(0,0)" fill="rgb(0,0,0)" d="M 771.524 877.526 C 769.184 876.338 767.383 874.848 765.396 873.172 L 765.572 871.934 C 770.11 873.867 773.392 877.541 778.453 878.213 C 778.241 874.709 757.969 864.237 752.917 858.628 C 768.725 860.749 778.08 873.598 787.302 885 C 781.862 882.891 776.718 880.167 771.524 877.526 z"/>
<path transform="translate(0,0)" fill="rgb(0,0,0)" d="M 1188.01 869.018 C 1177.12 869.415 1167.06 864.674 1157.51 859.939 C 1167.02 860.321 1178.7 866.184 1188.01 869.018 z"/>
<path transform="translate(0,0)" fill="rgb(0,0,0)" d="M 1101.48 947.874 C 1089.18 931.761 1060.82 881.206 1060.21 861.708 C 1069.14 878.094 1076.86 895.637 1085.05 912.436 C 1090.34 923.284 1098.91 936.167 1101.48 947.874 z"/>
<path transform="translate(0,0)" fill="rgb(0,0,0)" d="M 1103.67 864.479 L 1103.22 863.005 L 1103.67 864.479 z"/>
<path transform="translate(0,0)" fill="rgb(0,0,0)" d="M 1103.67 864.479 L 1104.99 865.995 L 1103.67 864.479 z"/>
<path transform="translate(0,0)" fill="rgb(0,0,0)" d="M 905.072 867.831 L 905.672 867.423 L 905.072 867.831 z"/>
<path transform="translate(0,0)" fill="rgb(0,0,0)" d="M 897.855 876.536 C 897.299 876.256 897.102 875.543 896.761 875.022 C 897.603 872.127 900.179 870.574 902.421 868.745 C 903.147 869.292 902.76 868.888 903.246 870.207 L 897.855 876.536 z"/>
<path transform="translate(0,0)" fill="rgb(0,0,0)" d="M 1167.16 869.845 L 1166.13 869.256 L 1167.16 869.845 z"/>
<path transform="translate(0,0)" fill="rgb(0,0,0)" d="M 907.298 871.494 L 905.463 871.486 C 905.979 871.158 906.689 871.439 907.298 871.494 z"/>
<path transform="translate(0,0)" fill="rgb(0,0,0)" d="M 915.342 871.5 L 914.227 871.5 L 915.342 871.5 z"/>
<path transform="translate(0,0)" fill="rgb(0,0,0)" d="M 909 874 L 910.53 872.648 L 911.759 872.732 C 910.818 873.266 910.07 873.787 909 874 z"/>
<path transform="translate(0,0)" fill="rgb(0,0,0)" d="M 1069.03 872.5 L 1068.25 872.5 L 1069.03 872.5 z"/>
<path transform="translate(0,0)" fill="rgb(0,0,0)" d="M 887.036 875.023 L 888.874 873.711 L 887.036 875.023 z"/>
<path transform="translate(0,0)" fill="rgb(0,0,0)" d="M 799 873.823 L 799.556 874.666 L 799 873.823 z"/>
<path transform="translate(0,0)" fill="rgb(0,0,0)" d="M 892.954 876.747 L 890.617 877 L 893.449 873.714 C 894.258 874.517 893.739 873.928 894.686 875.717 L 892.954 876.747 z"/>
<path transform="translate(0,0)" fill="rgb(0,0,0)" d="M 908.005 874.814 L 909 874 L 908.005 874.814 z"/>
<path transform="translate(0,0)" fill="rgb(0,0,0)" d="M 1244.66 885.446 C 1246.01 880.462 1247.7 876.615 1251.64 873.169 C 1250.28 877.317 1248.3 882.773 1244.66 885.446 z"/>
<path transform="translate(0,0)" fill="rgb(0,0,0)" d="M 799.556 874.666 C 803.516 876.701 806.066 879.183 808.835 882.648 C 804.265 880.691 801.762 879.242 799.556 874.666 z"/>
<path transform="translate(0,0)" fill="rgb(0,0,0)" d="M 885.59 876.305 L 887.036 875.023 L 885.59 876.305 z"/>
<path transform="translate(0,0)" fill="rgb(0,0,0)" d="M 907.49 875.5 L 906.267 875.5 L 907.49 875.5 z"/>
<path transform="translate(0,0)" fill="rgb(0,0,0)" d="M 1395.59 960.553 L 1394.24 958.081 C 1396.23 951.491 1412.21 947.763 1417.97 943.49 C 1431.57 933.408 1471.58 889.461 1482.78 874.823 C 1482.88 876.449 1482.74 877.374 1482.13 878.886 C 1474.2 898.685 1439.21 936.965 1420.73 948.942 C 1413.03 953.927 1403.88 956.652 1395.59 960.553 z"/>
<path transform="translate(0,0)" fill="rgb(0,0,0)" d="M 884.692 877.172 L 885.59 876.305 L 884.692 877.172 z"/>
<path transform="translate(0,0)" fill="rgb(0,0,0)" d="M 884.005 877.869 L 884.692 877.172 L 884.005 877.869 z"/>
<path transform="translate(0,0)" fill="rgb(0,0,0)" d="M 1235.44 885.85 C 1236.56 883.341 1237.31 880.888 1239.71 879.334 L 1240.3 879.22 C 1239.79 882.156 1237.6 883.978 1235.44 885.85 z"/>
<path transform="translate(0,0)" fill="rgb(0,0,0)" d="M 808.835 882.648 L 810.455 883.2 L 808.835 882.648 z"/>
<path transform="translate(0,0)" fill="rgb(0,0,0)" d="M 820.423 882.5 L 819.251 882.5 L 820.423 882.5 z"/>
<path transform="translate(0,0)" fill="rgb(0,0,0)" d="M 1234.04 882.5 L 1233.16 882.5 L 1234.04 882.5 z"/>
<path transform="translate(0,0)" fill="rgb(0,0,0)" d="M 810.455 883.2 L 811.304 884.193 L 810.455 883.2 z"/>
<path transform="translate(0,0)" fill="rgb(0,0,0)" d="M 1102.28 883.457 L 1102.76 883.995 L 1102.28 883.457 z"/>
<path transform="translate(0,0)" fill="rgb(0,0,0)" d="M 811.304 884.193 C 812.375 884.942 813.446 885.626 814.397 886.525 C 813.317 885.865 812.306 884.971 811.304 884.193 z"/>
<path transform="translate(0,0)" fill="rgb(0,0,0)" d="M 823.319 884.5 L 822.3 884.5 L 823.319 884.5 z"/>
<path transform="translate(0,0)" fill="rgb(0,0,0)" d="M 1104.02 885.5 L 1103.34 885.5 L 1104.02 885.5 z"/>
<path transform="translate(0,0)" fill="rgb(0,0,0)" d="M 1235.01 886.735 L 1235.44 885.85 L 1235.01 886.735 z"/>
<path transform="translate(0,0)" fill="rgb(0,0,0)" d="M 1244.25 885.995 L 1244.66 885.446 L 1244.25 885.995 z"/>
<path transform="translate(0,0)" fill="rgb(0,0,0)" d="M 814.397 886.525 L 814.829 886.883 L 814.397 886.525 z"/>
<path transform="translate(0,0)" fill="rgb(0,0,0)" d="M 1105.04 887.5 L 1104.38 887.5 L 1105.04 887.5 z"/>
<path transform="translate(0,0)" fill="rgb(0,0,0)" d="M 1222.49 887.5 L 1221.27 887.5 L 1222.49 887.5 z"/>
<path transform="translate(0,0)" fill="rgb(0,0,0)" d="M 1108.03 892.5 L 1107.27 892.5 L 1108.03 892.5 z"/>
<path transform="translate(0,0)" fill="rgb(0,0,0)" d="M 1109.09 894.5 L 1108.39 894.5 L 1109.09 894.5 z"/>
<path transform="translate(0,0)" fill="rgb(0,0,0)" d="M 1110.19 896.5 L 1109.45 896.5 L 1110.19 896.5 z"/>
<path transform="translate(0,0)" fill="rgb(0,0,0)" d="M 1104.99 901.029 L 1104.01 899.246 L 1104.99 901.029 z"/>
<path transform="translate(0,0)" fill="rgb(0,0,0)" d="M 1104.99 901.029 C 1105.98 902.477 1106.47 903.283 1107 905 C 1105.66 903.477 1105.51 902.921 1104.99 901.029 z"/>
<path transform="translate(0,0)" fill="rgb(0,0,0)" d="M 1103.26 905.966 L 1104.31 907.431 L 1103.26 905.966 z"/>
<path transform="translate(0,0)" fill="rgb(0,0,0)" d="M 1107 905 L 1107.99 906.897 L 1107 905 z"/>
<path transform="translate(0,0)" fill="rgb(0,0,0)" d="M 1104.31 907.431 L 1105.31 909.642 L 1104.31 907.431 z"/>
<path transform="translate(0,0)" fill="rgb(0,0,0)" d="M 1091.61 909.86 L 1092.21 911.428 L 1091.61 909.86 z"/>
<path transform="translate(0,0)" fill="rgb(0,0,0)" d="M 1105.31 909.642 C 1107 911.038 1106.89 910.459 1107.22 912.927 L 1105.72 912.003 L 1105.31 909.642 z"/>
<path transform="translate(0,0)" fill="rgb(0,0,0)" d="M 1092.21 911.428 L 1092.79 911.995 L 1092.21 911.428 z"/>
<path transform="translate(0,0)" fill="rgb(0,0,0)" d="M 1101.95 930.704 C 1095.89 927.313 1094.31 918.775 1092.5 912.551 C 1096.74 915.806 1099.35 925.649 1101.95 930.704 z"/>
<path transform="translate(0,0)" fill="rgb(0,0,0)" d="M 1105.25 936.504 L 1105.75 936.995 L 1105.25 936.504 z"/>
<path transform="translate(0,0)" fill="rgb(0,0,0)" d="M 1101.48 947.874 L 1101.99 948.821 L 1101.48 947.874 z"/>
<path transform="translate(0,0)" fill="rgb(0,0,0)" d="M 996.377 1053.9 C 995.873 1056.99 995.921 1058.63 993.47 1060.67 C 989.14 1059.07 987.843 1053.88 983.53 1051.57 C 980.774 1051.92 980.187 1051.84 978.097 1053.6 C 977.353 1056.52 978.145 1058.41 979.068 1061.16 L 979.461 1062.3 L 978.741 1062.94 C 976.107 1061.41 975.056 1060.62 973.477 1057.88 C 973.089 1054.46 972.771 1050.74 974.872 1047.74 C 979 1041.85 990.7 1044.98 997.004 1044.05 C 999.525 1042.23 999.291 1042.03 999.967 1038.94 C 1003.15 1043.33 1015.86 1058.66 1020.53 1060.55 C 1023.62 1061.8 1026.23 1061.88 1027.95 1064.84 L 1026.79 1065.93 C 1016.93 1066.02 1011.78 1052.97 1003.62 1052.49 C 1004.26 1054.27 1004.93 1054.99 1004.4 1056.86 C 1001.51 1056.27 999.042 1055.11 996.377 1053.9 z M 980 1048 L 978.652 1049.37 L 978.227 1049.76 L 978.652 1049.37 L 980 1048 L 981.847 1046.84 C 981.141 1047.01 980.605 1047.6 980 1048 z M 986.327 1049.5 L 987.49 1049.5 L 986.327 1049.5 z M 989.704 1052.69 L 991.571 1056.53 C 992.168 1056.6 992.8 1056.83 993.371 1056.64 L 992.7 1054.27 L 989.704 1052.69 z"/>
<path transform="translate(0,0)" fill="rgb(0,0,0)" d="M 1081.38 1067.43 L 1079.68 1066.51 C 1082.38 1062.62 1086.48 1057.93 1085.84 1052.86 C 1085.15 1047.42 1080.33 1043.94 1076.27 1040.88 C 1077.28 1040.92 1078.29 1040.95 1079.3 1041.07 C 1082.13 1041.42 1083.83 1043.48 1085.46 1045.64 C 1088.31 1049.42 1089.09 1053.96 1088.21 1058.58 C 1087.34 1063.07 1084.91 1064.95 1081.38 1067.43 z"/>
<path transform="translate(0,0)" fill="rgb(0,0,0)" d="M 1058.04 1066.92 C 1052.22 1065.52 1051.33 1058.9 1045.98 1057.06 L 1044.62 1058.02 L 1043.8 1063.51 C 1041.79 1062.49 1041 1061.45 1039.46 1059.82 C 1040.58 1054.95 1043.61 1052.74 1047.71 1050.18 C 1055.2 1045.52 1065.64 1042.43 1074.45 1044.77 C 1077.49 1045.58 1079.52 1047.02 1081.63 1049.29 C 1082.05 1051.25 1082.38 1052.59 1081.89 1054.56 L 1080.65 1055.87 C 1076.44 1055.32 1075.98 1052.88 1072.68 1052.29 C 1072.7 1052.74 1072.7 1053.19 1072.75 1053.63 C 1073.02 1055.9 1073.92 1057.63 1074.92 1059.65 C 1074.63 1062.28 1074.55 1062.53 1072.84 1064.55 C 1069.37 1062.32 1070.71 1056.04 1067.22 1053.17 C 1064.63 1053.78 1064.95 1053.99 1063.37 1055.91 C 1063.57 1061.11 1072.46 1067.75 1071.96 1069.8 C 1069.26 1069.48 1068.36 1068.11 1066.73 1066.06 C 1064.29 1063 1061.54 1056.76 1057.92 1055.33 L 1056.39 1057.89 L 1053.19 1056.3 L 1052.63 1057.71 C 1054.34 1060.85 1056.15 1063.89 1058.04 1066.92 z"/>
<path transform="translate(0,0)" fill="rgb(0,0,0)" d="M 1051.29 1089.44 C 1044.52 1082.52 1042.69 1071.4 1036.87 1063.46 C 1036.46 1062.9 1035.89 1061.93 1035.88 1061.2 L 1037.4 1060.87 C 1043.9 1068.02 1049.04 1079.99 1051.29 1089.44 z"/>
<path transform="translate(0,0)" fill="rgb(0,0,0)" d="M 1035.61 1067.24 C 1033.46 1066.31 1031.4 1065.77 1029.89 1063.94 L 1030.38 1063.12 L 1032.19 1062.84 C 1033.72 1064.27 1034.64 1065.38 1035.61 1067.24 z"/>
<path transform="translate(0,0)" fill="rgb(0,0,0)" d="M 1056.85 1086.55 C 1051.96 1083.09 1048.46 1070.14 1046.28 1064.39 L 1047.33 1064.17 C 1052.49 1069.73 1054.53 1079.38 1056.85 1086.55 z"/>
<path transform="translate(0,0)" fill="rgb(0,0,0)" d="M 1035.61 1067.24 L 1036.05 1068.36 L 1035.61 1067.24 z"/>
<path transform="translate(0,0)" fill="rgb(0,0,0)" d="M 1058.04 1066.92 L 1059.19 1067.55 L 1058.04 1066.92 z"/>
<path transform="translate(0,0)" fill="rgb(0,0,0)" d="M 1059.19 1067.55 L 1061.97 1066.99 C 1065.15 1069.16 1068.22 1071.3 1068.86 1075.42 C 1069.08 1076.84 1068.1 1077.43 1067.28 1078.49 C 1066.31 1072.92 1063.38 1070.94 1059.19 1067.55 z"/>
<path transform="translate(0,0)" fill="rgb(0,0,0)" d="M 1036.05 1068.36 L 1036.75 1068.99 L 1036.05 1068.36 z"/>
<path transform="translate(0,0)" fill="rgb(0,0,0)" d="M 1061.63 1079.42 C 1057.3 1077.02 1055.88 1071.93 1054.21 1067.58 C 1058.07 1070.76 1059.68 1074.98 1061.63 1079.42 z"/>
<path transform="translate(0,0)" fill="rgb(0,0,0)" d="M 1045.38 1108.99 C 1041.52 1103.42 1032.45 1084.44 1031.7 1078.11 C 1036.92 1081.47 1043.46 1100.11 1044.98 1106.54 C 1045.16 1107.28 1045.28 1108.27 1045.38 1108.99 z"/>
<path transform="translate(0,0)" fill="rgb(0,0,0)" d="M 1066.2 1078.9 L 1067.28 1078.49 L 1066.2 1078.9 z"/>
<path transform="translate(0,0)" fill="rgb(0,0,0)" d="M 1039.63 1081.03 L 1039.12 1080.37 L 1039.63 1081.03 z"/>
<path transform="translate(0,0)" fill="rgb(0,0,0)" d="M 1064.25 1081.5 L 1063.3 1081.5 L 1064.25 1081.5 z"/>
<path transform="translate(0,0)" fill="rgb(0,0,0)" d="M 1037.18 1095.48 C 1036.89 1095.36 1036.59 1095.25 1036.31 1095.1 C 1033.09 1093.33 1031.43 1090.79 1030.17 1087.46 L 1030.61 1087.4 C 1033.2 1088.48 1035.52 1093.07 1037.18 1095.48 z"/>
<path transform="translate(0,0)" fill="rgb(0,0,0)" d="M 1041.14 1087.5 L 1040.25 1087.5 L 1041.14 1087.5 z"/>
<path transform="translate(0,0)" fill="rgb(0,0,0)" d="M 1051.29 1089.44 L 1051.76 1089.99 L 1051.29 1089.44 z"/>
<path transform="translate(0,0)" fill="rgb(0,0,0)" d="M 1053.06 1091.5 L 1052.37 1091.5 L 1053.06 1091.5 z"/>
<path transform="translate(0,0)" fill="rgb(0,0,0)" d="M 1059.07 1091.5 L 1058.25 1091.5 L 1059.07 1091.5 z"/>
<path transform="translate(0,0)" fill="rgb(0,0,0)" d="M 1043.11 1092.5 L 1042.37 1092.5 L 1043.11 1092.5 z"/>
<path transform="translate(0,0)" fill="rgb(0,0,0)" d="M 1058.03 1093.5 L 1057.39 1093.5 L 1058.03 1093.5 z"/>
<path transform="translate(0,0)" fill="rgb(0,0,0)" d="M 1043.58 1095.53 L 1043.17 1094.01 L 1043.58 1095.53 z"/>
<path transform="translate(0,0)" fill="rgb(0,0,0)" d="M 1043.58 1095.53 L 1045.54 1097.66 L 1043.58 1095.53 z"/>
<path transform="translate(0,0)" fill="rgb(0,0,0)" d="M 1056.59 1097.08 L 1056.49 1097.09 L 1055.78 1096.27 L 1056.59 1097.08 z"/>
<path transform="translate(0,0)" fill="rgb(0,0,0)" d="M 1032.13 1097.5 L 1031.46 1097.5 L 1032.13 1097.5 z"/>
<path transform="translate(0,0)" fill="rgb(0,0,0)" d="M 1045.54 1097.66 L 1047 1100 C 1046.43 1099.35 1045.98 1098.41 1045.54 1097.66 z"/>
<path transform="translate(0,0)" fill="rgb(0,0,0)" d="M 1033.09 1099.5 L 1032.42 1099.5 L 1033.09 1099.5 z"/>
<path transform="translate(0,0)" fill="rgb(0,0,0)" d="M 1047 1100 L 1048.46 1102.81 L 1047 1100 z"/>
<path transform="translate(0,0)" fill="rgb(0,0,0)" d="M 1034.05 1101.5 L 1033.43 1101.5 L 1034.05 1101.5 z"/>
<path transform="translate(0,0)" fill="rgb(0,0,0)" d="M 1028.08 1102.5 L 1027.45 1102.5 L 1028.08 1102.5 z"/>
<path transform="translate(0,0)" fill="rgb(0,0,0)" d="M 1048.46 1102.81 C 1048.97 1103.5 1049.62 1104.24 1049.99 1105.01 L 1048.46 1102.81 z"/>
<path transform="translate(0,0)" fill="rgb(0,0,0)" d="M 1058.65 1103.35 L 1058.21 1102.01 L 1058.65 1103.35 z"/>
<path transform="translate(0,0)" fill="rgb(0,0,0)" d="M 1058.65 1103.35 L 1059.88 1103.75 L 1058.65 1103.35 z"/>
<path transform="translate(0,0)" fill="rgb(0,0,0)" d="M 1029.12 1104.5 L 1028.45 1104.5 L 1029.12 1104.5 z"/>
<path transform="translate(0,0)" fill="rgb(0,0,0)" d="M 1049.99 1105.01 L 1050.88 1106.99 L 1049.99 1105.01 z"/>
<path transform="translate(0,0)" fill="rgb(0,0,0)" d="M 1029.73 1107.08 L 1029.15 1106.01 L 1029.73 1107.08 z"/>
<path transform="translate(0,0)" fill="rgb(0,0,0)" d="M 1029.73 1107.08 C 1034.37 1113.36 1034.8 1123.6 1035.81 1131.13 C 1031.51 1125.44 1031.1 1114.08 1029.73 1107.08 z"/>
<path transform="translate(0,0)" fill="rgb(0,0,0)" d="M 1045.38 1108.99 L 1046.46 1111.75 L 1045.38 1108.99 z"/>
<path transform="translate(0,0)" fill="rgb(0,0,0)" d="M 1052.05 1108.5 L 1051.41 1108.5 L 1052.05 1108.5 z"/>
<path transform="translate(0,0)" fill="rgb(0,0,0)" d="M 1046.46 1111.75 L 1046.84 1112.99 L 1046.46 1111.75 z"/>
<path transform="translate(0,0)" fill="rgb(0,0,0)" d="M 1048.03 1114.5 L 1047.34 1114.5 L 1048.03 1114.5 z"/>
<path transform="translate(0,0)" fill="rgb(0,0,0)" d="M 1018.24 1183.29 C 1003.97 1182.84 989.742 1178.47 975.432 1179.23 C 958.558 1180.13 942.251 1187.18 925.753 1188.12 C 922.635 1188.29 919.685 1188.25 917.268 1186.07 C 917.053 1183.77 917.231 1182.88 918.879 1181.1 C 920.68 1179.15 923.953 1177.96 926.467 1177.35 C 931.261 1176.18 936.324 1176.04 941.186 1175.18 C 947.994 1173.98 954.907 1171.71 961.538 1169.76 C 976.637 1165.33 991.589 1157.7 1007.17 1155.42 C 1022.31 1153.21 1038.23 1155.65 1053.57 1154.42 C 1056.85 1154.03 1060.1 1153.93 1063.36 1154.57 C 1074.97 1156.81 1086.73 1163.19 1098.15 1166.7 C 1111.98 1170.95 1126.08 1172.74 1140.07 1176.06 L 1141.35 1176.37 C 1142.62 1176.67 1143.9 1176.92 1145.13 1177.35 C 1147.91 1178.32 1150.84 1180.99 1151.69 1183.88 C 1152.46 1186.48 1151.73 1187.3 1150.31 1189.25 C 1141.27 1192.92 1119.61 1182.52 1108.47 1181.41 C 1091.94 1179.76 1075.64 1183.24 1059.24 1184.54 C 1045.53 1185.62 1031.89 1184.52 1018.24 1183.29 z M 1053.93 1162.96 C 1050.59 1161.69 1047.88 1160.83 1044.31 1160.58 L 1042.52 1161.54 L 1043.85 1164.02 C 1039.58 1161.13 1031.9 1159.56 1026.71 1160.31 C 1024.95 1160.57 1024.17 1160.87 1022.85 1162 C 1023.6 1163.23 1024.32 1164.43 1025.17 1165.59 C 1019.01 1160.53 1010.7 1159.55 1002.84 1160.37 C 999.638 1160.71 996.863 1161.45 994.665 1163.84 C 997.721 1165.01 1001.56 1165.74 1003.58 1168.32 L 1002.94 1168.9 C 998.932 1167.04 995.377 1165.47 991.044 1164.49 C 983.944 1166.95 976.777 1169.3 969.794 1172.07 C 975.33 1171.63 980.838 1171.28 986.394 1171.47 C 994.316 1171.75 1029.64 1176.04 1034.38 1173.38 L 1034.1 1172.08 C 1037.05 1173.21 1039.31 1174.36 1042.52 1173.57 L 1043.27 1172.18 C 1044.05 1172.5 1044.83 1172.83 1045.63 1173.08 C 1047.88 1173.8 1051.62 1174.78 1053.69 1173.65 C 1052.24 1170.14 1047.45 1167.27 1044.62 1164.71 C 1049.37 1167.27 1054.44 1171.76 1059.63 1173.01 C 1060.67 1172.04 1061.67 1171.07 1062.66 1170.05 L 1065.5 1172.2 L 1067.35 1171.46 C 1066.4 1170.17 1065.42 1168.93 1064.4 1167.7 C 1067.38 1167.47 1068.13 1170.29 1070.58 1170.95 C 1072.47 1171.45 1074.62 1169.66 1076.94 1169.63 C 1076.09 1167.14 1074.14 1165.43 1072.38 1163.54 C 1075.86 1163.99 1079.04 1166.82 1081.95 1168.75 C 1086.38 1168.97 1091.09 1169.53 1095.5 1169.11 L 1095.99 1169.73 L 1095.5 1169.11 C 1086.95 1165.26 1069.87 1158.6 1060.65 1159.47 L 1060.43 1160.55 C 1061.82 1161.58 1063.04 1162.51 1064.26 1163.75 C 1060.89 1162.16 1057.66 1160.42 1053.94 1159.84 L 1052.91 1160.61 L 1053.93 1162.96 z"/>
<path transform="translate(0,0)" fill="rgb(0,0,0)" d="M 1032.49 1163.5 L 1030.77 1163.5 L 1032.49 1163.5 z"/>
<path transform="translate(0,0)" fill="rgb(0,0,0)" d="M 1053.93 1162.96 L 1056.01 1164.26 L 1053.93 1162.96 z"/>
<path transform="translate(0,0)" fill="rgb(0,0,0)" d="M 1070.09 1165.06 C 1069.33 1165.05 1068.71 1164.44 1068.05 1164.06 L 1069.29 1163.53 L 1070.09 1165.06 z"/>
<path transform="translate(0,0)" fill="rgb(0,0,0)" d="M 1004.55 1164.89 L 1004 1164.26 L 1004.55 1164.89 z"/>
<path transform="translate(0,0)" fill="rgb(0,0,0)" d="M 1015.66 1164.67 L 1015.1 1164.21 L 1015.66 1164.67 z"/>
<path transform="translate(0,0)" fill="rgb(0,0,0)" d="M 1034.48 1164.5 L 1033.25 1164.5 L 1034.48 1164.5 z"/>
<path transform="translate(0,0)" fill="rgb(0,0,0)" d="M 1043.85 1164.02 L 1044.62 1164.71 L 1043.85 1164.02 z"/>
<path transform="translate(0,0)" fill="rgb(0,0,0)" d="M 1004.55 1164.89 C 1008.28 1165.41 1010.17 1166.09 1013.23 1168.34 C 1009.95 1167.64 1007.03 1167.35 1004.55 1164.89 z"/>
<path transform="translate(0,0)" fill="rgb(0,0,0)" d="M 1015.66 1164.67 C 1019.04 1166.21 1020.94 1167.48 1023.39 1170.29 C 1019.97 1168.86 1018.08 1167.48 1015.66 1164.67 z"/>
<path transform="translate(0,0)" fill="rgb(0,0,0)" d="M 1025.17 1165.59 L 1026.2 1166.27 L 1025.17 1165.59 z"/>
<path transform="translate(0,0)" fill="rgb(0,0,0)" d="M 1036.03 1165.96 L 1035.01 1165.26 L 1036.03 1165.96 z"/>
<path transform="translate(0,0)" fill="rgb(0,0,0)" d="M 1056.01 1164.26 L 1060.33 1166.21 L 1060.97 1168.2 C 1059.08 1166.98 1057.54 1165.91 1056.01 1164.26 z"/>
<path transform="translate(0,0)" fill="rgb(0,0,0)" d="M 1026.2 1166.27 L 1027.35 1167.22 L 1026.2 1166.27 z"/>
<path transform="translate(0,0)" fill="rgb(0,0,0)" d="M 1036.03 1165.96 L 1038.45 1167.33 L 1036.03 1165.96 z"/>
<path transform="translate(0,0)" fill="rgb(0,0,0)" d="M 1027.35 1167.22 C 1028.34 1167.96 1029.47 1168.69 1030.38 1169.54 L 1027.35 1167.22 z"/>
<path transform="translate(0,0)" fill="rgb(0,0,0)" d="M 1038.45 1167.33 L 1039.3 1168.13 L 1038.45 1167.33 z"/>
<path transform="translate(0,0)" fill="rgb(0,0,0)" d="M 1013.23 1168.34 C 1014.52 1169.25 1015.09 1169.65 1015.96 1171.02 L 1013.86 1170.09 L 1013.23 1168.34 z"/>
<path transform="translate(0,0)" fill="rgb(0,0,0)" d="M 1039.3 1168.13 C 1041 1168.95 1041.61 1169.11 1042.69 1170.72 C 1040.84 1170.05 1040.54 1169.58 1039.3 1168.13 z"/>
<path transform="translate(0,0)" fill="rgb(0,0,0)" d="M 1030.38 1169.54 L 1031.27 1170.11 L 1030.38 1169.54 z"/>
<path transform="translate(0,0)" fill="rgb(0,0,0)" d="M 1023.39 1170.29 L 1024 1170.76 L 1023.39 1170.29 z"/>
<path transform="translate(0,0)" fill="rgb(0,0,0)" d="M 1031.27 1170.11 L 1034.1 1172.08 L 1031.27 1170.11 z"/>
<path transform="translate(0,0)" fill="rgb(0,0,0)" d="M 1015.96 1171.02 L 1016.77 1171.96 L 1015.96 1171.02 z"/>
<path transform="translate(0,0)" fill="rgb(0,0,0)" d="M 1042.69 1170.72 L 1043.27 1172.18 L 1042.69 1170.72 z"/>
<path transform="translate(0,0)" fill="rgb(0,0,0)" d="M 996.794 1232.79 C 998.375 1233.75 1000.51 1235.65 1002.33 1235.45 C 1000.33 1230.11 995.876 1228.04 991.109 1225.45 C 993.564 1225.1 995.036 1224.77 997.426 1225.67 C 1000.27 1228.38 1003.85 1234.26 1007.26 1235.51 C 1005.02 1232.42 1002.79 1229.34 1000.41 1226.36 L 1001.07 1225.52 C 1005.38 1228.04 1008.9 1231.78 1012.54 1235.17 C 1011.75 1231.98 1009.86 1228.95 1008.33 1226.03 C 1009.06 1227.81 1008.1 1226.02 1010.46 1227.68 C 1013.81 1230.05 1014.88 1233.59 1019.08 1235.57 L 1020.62 1235.41 C 1018.86 1233.32 1014.17 1229.53 1014.02 1227.15 C 1019.76 1230.34 1026.16 1235.41 1032.64 1236.48 L 1034.19 1235.42 C 1032.71 1232.24 1030.67 1230.57 1028.04 1228.32 L 1028.78 1226.58 C 1031.34 1225.98 1035.09 1226.73 1037.43 1227.94 C 1039.19 1228.86 1039.94 1230.38 1040.73 1232.09 C 1038.04 1230.73 1036.1 1229.13 1033.04 1229.38 C 1034.64 1232.57 1037.75 1233.9 1041.06 1235 C 1043.27 1235.73 1045.2 1236.12 1047.52 1236.25 L 1048.75 1235.39 C 1047.56 1232.25 1044.6 1229.99 1042.21 1227.73 C 1046.98 1230.48 1052.84 1234.48 1058.46 1234.54 L 1058.99 1233.6 L 1058.37 1232.15 C 1061.18 1233.09 1063.3 1233.46 1066.25 1233.61 L 1066.8 1232.72 C 1062.89 1229.6 1058.83 1228.18 1054.22 1226.44 C 1059.31 1226.37 1066.75 1224.85 1071.53 1226.06 C 1072.83 1226.38 1072.83 1227.31 1073.37 1228.43 C 1071.2 1229.75 1067.98 1228.42 1065.49 1227.96 C 1067.77 1230.01 1069.74 1231.56 1072.48 1232.93 C 1078.69 1232.28 1087.91 1229.44 1093.53 1226.77 L 1092.36 1225.9 L 1093.47 1226.95 C 1092.03 1225.9 1091.48 1225.72 1089.61 1225.56 C 1089.08 1225.51 1088.54 1225.51 1088 1225.48 C 1093.55 1222.76 1102.23 1222.71 1108.55 1220.64 C 1100.3 1230.14 1092.4 1233.97 1080.69 1237.95 C 1087.38 1238.18 1093.84 1238.57 1100.45 1239.66 C 1087.89 1243.66 1075.2 1244.97 1062.06 1245.28 C 1044.51 1245.69 1008.2 1246.2 992.646 1238.75 C 983.254 1234.25 974.779 1225.95 967.279 1218.82 C 974.248 1221.8 990.178 1234.07 996.794 1232.79 z M 1096 1228 L 1094.68 1229.38 L 1094.29 1229.8 L 1094.68 1229.38 L 1096 1228 L 1096.8 1227.06 L 1096 1228 z"/>
<path transform="translate(0,0)" fill="rgb(0,0,0)" d="M 996.794 1232.79 C 991.972 1230.77 988.215 1227.28 983.951 1224.35 C 989.552 1225.16 992.473 1227.47 996.14 1231.89 C 996.376 1232.18 996.576 1232.49 996.794 1232.79 z"/>
<path transform="translate(0,0)" fill="rgb(0,0,0)" d="M 1084.37 1226.64 C 1083.57 1227.56 1082.7 1229.23 1081.41 1229.32 C 1078.39 1229.53 1075.07 1227.08 1072.74 1225.38 C 1076.47 1225.04 1082.53 1224.08 1085.89 1225.69 L 1084.37 1226.64 z"/>
<path transform="translate(0,0)" fill="rgb(0,0,0)" d="M 1057.47 1231.46 C 1054.02 1230.23 1050.37 1229.2 1047.39 1227.03 C 1050.33 1227.05 1052.92 1226.5 1055.29 1228.65 C 1055.98 1229.27 1056.92 1230.68 1057.47 1231.46 z"/>
<path transform="translate(0,0)" fill="rgb(0,0,0)" d="M 1029.82 1234.42 C 1025.97 1233.16 1023.33 1230.31 1020.41 1227.63 C 1021.6 1227.75 1022.39 1227.79 1023.59 1228.11 C 1026.6 1228.91 1028.19 1232 1029.82 1234.42 z"/>
<path transform="translate(0,0)" fill="rgb(0,0,0)" d="M 1057.47 1231.46 L 1058.37 1232.15 L 1057.47 1231.46 z"/>
<path transform="translate(0,0)" fill="rgb(0,0,0)" d="M 1040.73 1232.09 L 1040.99 1232.82 L 1040.73 1232.09 z"/>
<path transform="translate(0,0)" fill="rgb(0,0,0)" d="M 401.01 1456.5 L 400.218 1456.5 L 401.01 1456.5 z"/>
<path transform="translate(0,0)" fill="rgb(0,0,0)" d="M 705.159 2048 C 678.416 2020.25 652.934 1990.97 627.839 1961.73 C 559.367 1881.94 498.915 1801.26 449.625 1707.94 C 433.022 1676.51 417.963 1645.39 405.57 1612 C 394.359 1581.8 382.642 1549.35 383.036 1516.73 C 383.312 1493.94 390.907 1474.52 400.952 1454.46 C 396.007 1475.49 387.742 1494.59 387.624 1516.62 C 387.253 1585.74 455.031 1712.71 491.163 1771.14 C 526.945 1828.56 566.86 1883.3 610.592 1934.92 C 625.736 1952.7 641.887 1969.72 657.533 1987.07 C 675.999 2007.54 693.849 2028.35 713.22 2048 L 705.159 2048 z"/>
<path transform="translate(0,0)" fill="rgb(0,0,0)" d="M 890.524 1759.26 C 898.104 1746.38 903.825 1732.26 911.137 1719.15 C 921.438 1700.68 933.355 1683.3 944.541 1665.38 C 968.495 1685.6 969.798 1725.57 973.942 1754.33 C 976.289 1770.62 978.978 1787.3 983.526 1803.14 C 991.44 1830.7 1004.9 1856.17 1020.05 1880.37 C 1016.36 1887.16 1012.58 1893.89 1008.69 1900.57 C 1000.95 1894.31 994.627 1885.21 988.255 1877.56 C 971.635 1857.78 951.651 1840.86 934.764 1821.06 C 918.075 1801.5 905.62 1779.88 890.524 1759.26 z"/>
<path transform="translate(0,0)" fill="rgb(0,0,0)" d="M 1015.82 1963.75 C 1014.44 1951.17 1012.7 1938.6 1013.41 1925.91 C 1015.32 1891.58 1039.75 1857 1055.22 1826.85 C 1063.08 1811.45 1070.24 1795.71 1076.67 1779.66 C 1082.78 1764.48 1087.61 1749.08 1091.93 1733.31 C 1096.06 1718.25 1099.58 1702.45 1105.97 1688.17 C 1110.12 1678.89 1115.5 1671.35 1123.09 1664.59 C 1127.27 1664.49 1129.69 1665.12 1132.95 1667.75 C 1149.5 1681.1 1172.92 1751.67 1175.71 1773.92 C 1160.65 1789.67 1143.03 1803.03 1126.67 1817.4 C 1089.02 1850.47 1056.81 1884.62 1029.87 1927.06 C 1023.02 1939.02 1019.62 1950.61 1015.82 1963.75 z"/>
<path transform="translate(0,0)" fill="rgb(0,0,0)" d="M 2023.05 1682.76 C 2035.36 1708 2042.38 1739.62 2045.17 1767.46 C 2046.37 1779.35 2046.36 1791.46 2047.86 1803.28 L 2048 1804.28 L 2048 2048 L 1935.37 2048 C 1942.56 2022.27 1947.98 1996.21 1953.84 1970.18 L 1981.67 1841.6 C 1992.73 1788.2 2003.29 1733.8 2023.05 1682.76 z"/>
</svg>