<svg version="1.1" xmlns="http://www.w3.org/2000/svg" style="display: block;" viewBox="0 0 2048 2048" width="1024" height="1024">
<path transform="translate(0,0)" fill="rgb(255,255,255)" d="M 0 0 L 0 2048 L 2048 2048 L 2048 0 L 0 0 z"/>
<path transform="translate(0,0)" fill="rgb(0,0,0)" d="M 1503.62 1447.37 C 1526.99 1468.19 1577.75 1494.16 1606.57 1509.44 C 1630.32 1522.04 1654.5 1533.74 1678.3 1546.22 C 1696.5 1555.76 1714.28 1566.21 1732.84 1575.04 C 1764.61 1590.16 1797.37 1603.41 1830.09 1616.3 C 1905.14 1645.88 1988.63 1661.62 2048 1720.17 L 2048 2048 L 1500.94 2048 C 1514.63 2031.09 1575.99 1929.97 1576.2 1912.24 C 1570.7 1900.92 1518.31 1873.26 1504.49 1865.04 C 1468.75 1843.76 1437.61 1824.84 1407.2 1796.05 C 1385.69 1775.68 1364.09 1754.44 1344.53 1732.2 C 1338.02 1724.81 1329.4 1709.82 1320.48 1706.22 L 1318.81 1707.61 C 1318.88 1708.18 1318.91 1708.76 1319.03 1709.32 C 1322.31 1725.23 1344.97 1746.64 1356.47 1758.17 C 1380.19 1781.96 1404.39 1806.61 1430.69 1827.5 C 1450.24 1843.03 1471.16 1855.35 1492.32 1868.43 C 1517.05 1883.73 1541.9 1899.1 1567.57 1912.78 C 1549.71 1954.82 1515.63 2009.71 1489.34 2048 L 1208.4 2048 C 1217.17 2013.62 1230.86 1979.68 1241.73 1945.84 C 1245.46 1934.21 1250.99 1920.8 1252.22 1908.64 L 1252.75 1908.01 L 1252.22 1908.64 C 1242.37 1922.46 1234.04 1937.61 1224.8 1951.89 C 1203.52 1984.75 1181.83 2017.05 1157.81 2048 L 1144.07 2048 C 1175.44 2006.3 1203.59 1962.49 1232.05 1918.79 C 1240.76 1905.42 1248.75 1891.9 1257.77 1878.69 C 1260.57 1874.6 1262.65 1870.01 1264.37 1865.36 C 1270.32 1849.26 1309.89 1722.88 1308.43 1714.84 C 1305.54 1718.49 1300.08 1735.3 1297.22 1741.22 C 1283.82 1768.42 1269.99 1795.4 1255.71 1822.15 C 1244.65 1842.52 1232.38 1862.38 1220.49 1882.28 C 1186.63 1938.95 1150.39 1995.65 1110.1 2048 L 1093.87 2048 C 1166.38 1950.38 1230.43 1846.76 1285.33 1738.26 C 1299.49 1709.84 1315.03 1681.31 1322.24 1650.18 C 1312.27 1662.71 1303.49 1676.13 1293.36 1688.61 C 1274.59 1711.76 1147.57 1861.36 1135.62 1864.4 C 1124.74 1861.78 1101.61 1810.39 1096.49 1798.63 C 1091.9 1788.09 1087.89 1773.77 1080.9 1764.77 C 1074.48 1767.15 1054.99 1828.93 1028.47 1845 C 1033.57 1913.88 1052.83 1980.01 1063.27 2048 L 1031.13 2048 C 1022.34 2033.49 1010.09 2020.6 999.527 2007.36 C 969.01 1969.1 934.058 1921.92 924.173 1873.58 C 921.39 1877.78 919.3 1882.02 917.228 1886.58 C 928.003 1929.74 963.782 1975.99 990.419 2011.15 C 999.504 2023.15 1009.99 2034.98 1017.53 2048 L 999.826 2048 C 976.621 2021.87 942.46 1969.88 926.657 1938.89 C 920.751 1927.3 916.139 1915.02 910.574 1903.25 L 909.244 1903.51 C 908.664 1904.58 908.536 1904.67 908.24 1906.04 C 902.874 1930.93 967.545 2025.7 986.174 2048 L 852.707 2048 C 810.275 1983.85 785.087 1907.89 762.316 1834.98 C 754.262 1809.91 746.592 1784.73 739.31 1759.43 C 732.528 1735.19 727.524 1710.2 720.019 1686.23 C 719.109 1702.55 718.77 1718.94 718.283 1735.28 C 717.898 1748.22 716.857 1762.04 718.452 1774.9 C 720.425 1790.8 726.719 1807.01 730.98 1822.48 C 752.781 1901.61 780.896 1977.37 823.169 2048 L 811.922 2048 C 780.066 2001.15 754.095 1935.73 737.079 1882.01 C 730.372 1860.83 725.581 1838.71 717.935 1817.9 L 717.541 1816.85 C 722.269 1851.8 721.637 1888.32 723.287 1923.6 C 725.228 1965.08 728.972 2006.51 730.15 2048 L 508.626 2048 C 502.384 2030.74 497.188 2012.95 491.215 1995.58 C 477.935 1956.94 464.425 1919.06 456.2 1878.95 C 474.287 1870.82 491.888 1860.94 509.516 1851.84 C 542.029 1835.21 574.34 1818.19 606.444 1800.78 C 626.947 1789.64 673.188 1766.38 688.723 1752.17 C 691.46 1749.67 694.967 1745.99 695.223 1742.23 C 689.009 1741.57 661.604 1760.97 653.568 1765.42 C 603.625 1793.04 552.179 1818.35 501.501 1844.62 C 483.532 1853.94 465.237 1862.73 447.667 1872.78 C 451.518 1902.5 460.621 1932.59 468.81 1961.39 C 477.097 1990.53 485.186 2019.57 495.73 2048 L 153.141 2048 C 152.842 2037.65 149.57 2026.51 147.868 2016.24 C 145.217 1999.6 143.152 1982.87 141.676 1966.09 C 135.611 1894.39 137.793 1822.23 148.178 1751.03 C 151.674 1725.64 155.418 1700.2 162.557 1675.54 C 159.734 1677.87 156.701 1680.21 154.721 1683.34 C 147.174 1695.29 144.288 1714.08 141.571 1727.96 C 122.288 1826.49 130.493 1950.39 152.187 2048 L 0 2048 L 0 1998.68 C 9.25833 1974.54 14.6902 1947.8 21.6383 1922.86 C 28.5663 1897.99 37.4312 1873.49 46.73 1849.42 C 66.5953 1798 90.7135 1747.72 122.44 1702.54 C 128.01 1694.61 133.499 1685.81 140.426 1678.96 C 149.224 1670.27 163.627 1664.52 174.501 1658.43 C 227.242 1629.36 282.023 1604.16 338.412 1583.02 C 383.7 1565.76 429.72 1550.38 474.833 1532.62 C 522.77 1514.19 569.771 1493.41 615.665 1470.36 C 626.826 1464.7 638.677 1459.19 648.663 1451.59 C 665.376 1438.85 678.287 1420.36 693.52 1405.75 C 711.866 1388.16 750.434 1361.17 773.67 1350.89 C 776.815 1341.4 779.991 1331.79 784.267 1322.73 C 790.095 1310.38 796.096 1301.12 809.374 1296.41 C 802.998 1270.07 797.559 1226.94 787.19 1203.7 C 779.382 1186.2 753.89 1161.42 741.902 1142.92 C 725.95 1118.3 712.96 1089.71 703.722 1061.86 C 699.035 1047.73 695.393 1033.3 690.33 1019.28 C 678.391 1012.38 667.92 1001.97 658.885 991.648 C 636.191 965.714 602.184 926.573 590.545 894.428 C 586.674 883.736 584.901 872.437 583.035 861.26 C 577.629 828.881 578.945 799.132 581.154 766.688 C 561.936 757.339 543.807 745.276 531.34 727.551 C 509.89 697.056 514.349 656.842 508.33 621.753 C 505.749 606.709 496.963 593.756 492.565 579.214 C 479.489 535.981 479.959 487.14 487.908 443.043 C 467.059 479.261 453.647 521.949 454.861 564.017 C 455.553 588.045 464.1 616.349 480.587 634.367 C 487.132 641.519 495.11 647.06 502.079 653.758 L 502.774 654.435 C 488.727 651.19 476.861 644.894 467.018 634.236 C 436.699 601.405 428.355 536.626 430.528 493.446 C 433.755 429.313 463.894 362.809 505.438 314.434 C 518.433 299.303 533.602 285.796 548.352 272.414 C 517.778 284.456 482.724 296.135 450.411 283.767 C 442.631 280.789 431.769 274.409 428.271 266.49 L 429.001 265.25 C 433.013 267.77 436.069 271.329 440.219 273.744 C 459.202 284.794 494.379 278.469 512.514 267.744 C 542.09 250.252 561.705 219.159 585.881 195.463 C 608.314 173.477 634.712 158.567 659.281 139.607 C 673.966 128.274 686.517 113.868 700.69 101.802 C 736.457 71.3543 784.174 46.6825 829.684 34.8355 C 864.751 25.707 890.077 23.8312 925.717 32.6085 C 936.114 35.1689 947.755 38.4014 957.027 43.8463 C 979.129 28.6734 1002.65 17.2112 1029.5 13.8805 C 1102.31 4.84631 1176.55 33.1133 1243.4 58.5398 C 1277.4 71.4707 1309.88 83.3792 1340.79 103.04 C 1368.81 120.86 1394.02 144.149 1415.56 169.378 C 1435.67 192.926 1453.21 219.359 1469.38 245.709 C 1479.21 261.707 1487.93 280.022 1500.17 294.212 C 1511.89 307.795 1527.42 318.737 1541.52 329.777 C 1582.41 361.781 1605.84 370.06 1657.22 363.801 C 1651.58 366.501 1645.94 368.593 1639.93 370.328 C 1600.72 381.643 1554.38 375.927 1518.84 356.212 C 1525.26 366.681 1532.87 376.411 1539.04 387.027 C 1550.88 407.4 1557.91 431.354 1560.42 454.723 C 1561.53 465.123 1561.72 476.262 1564.53 486.349 C 1567.37 496.52 1572.84 506.346 1576.85 516.127 C 1582.64 530.233 1598.13 572.539 1594.48 586.156 L 1593.1 586.734 C 1589.78 580.986 1586.89 570.565 1583.4 563.657 C 1574.74 546.508 1561.53 529.931 1549.29 515.154 C 1555.65 538.944 1564.59 560.776 1565.93 585.732 C 1568.49 633.51 1550.91 698.876 1518.6 734.948 C 1534.54 699.415 1540.06 663.648 1544.02 625.27 C 1538.95 639.362 1535.93 654.189 1530.96 668.366 C 1518.3 704.413 1496.97 733.762 1472.66 762.698 C 1476.92 778.023 1478.64 795.085 1479.64 810.954 C 1482.69 859.453 1474.69 889.876 1441.42 925.704 C 1428.39 939.744 1412.68 951.063 1403.3 968.154 C 1391.89 988.939 1389.89 1009.07 1387.07 1032.05 C 1383.85 1013.93 1385.5 997.435 1387.61 979.33 C 1374.33 999.288 1345.97 1055.18 1338.19 1077.88 C 1336.05 1084.12 1334.96 1090.54 1333.87 1097.03 C 1329.89 1085.7 1330.44 1074.68 1330.9 1062.86 C 1324.36 1079.76 1318.76 1096.47 1315.36 1114.34 C 1311.9 1132.54 1311.72 1151.04 1310.43 1169.49 C 1308.54 1196.82 1306.32 1224 1305.04 1251.39 C 1312.2 1254.21 1318.93 1257.35 1325.43 1261.49 C 1348.85 1276.43 1355.01 1298.08 1360.78 1323.82 C 1375.99 1326.35 1390.47 1330.79 1404.01 1338.26 C 1418.07 1346.02 1438.86 1373.67 1451.35 1386.24 C 1464.82 1399.82 1479.96 1411.7 1492.11 1426.59 C 1497.28 1432.92 1501.32 1439.49 1503.62 1447.37 z M 976.07 45.3628 L 975.005 45.9085 L 976.07 45.3628 C 987.847 43.4056 999.664 37.5665 1011.53 34.9286 C 1100.05 15.2506 1175.78 59.5644 1243.54 110.838 C 1259.41 122.847 1274.4 138.006 1291.13 148.588 L 1290.94 147.646 C 1240.07 98.8958 1164.05 42.4165 1094.19 29.2438 C 1059.03 22.6154 1006.54 24.4152 976.07 45.3628 z M 709.447 111.394 L 708.813 112.159 L 707.163 112.982 L 708.813 112.159 L 709.447 111.394 C 718.691 108.883 737.151 96.2014 746.74 91.0693 C 773.508 76.743 802.562 63.2602 831.824 55.1947 C 848.261 50.6645 865.134 46.779 882.18 45.8466 C 887.537 45.5535 915.013 47.7667 917.729 46.1727 C 905.646 44.0401 893.826 42.5838 881.533 43.0163 C 830.814 44.8008 784.682 65.8673 741.196 90.2847 C 730.739 96.1563 717.543 102.635 709.447 111.394 z M 1100.63 127.732 C 1113.94 131.476 1126.94 137.871 1139.57 143.453 C 1203.11 171.545 1267.29 212.325 1310.02 268.219 C 1319.87 281.108 1329.13 294.81 1337.58 308.657 C 1342.47 316.658 1347.12 328.31 1353.45 334.95 L 1354.23 336.438 L 1355.32 338.651 L 1356.28 340.491 L 1356.77 340.995 L 1356.28 340.491 L 1355.32 338.651 L 1354.23 336.438 L 1353.45 334.95 C 1351.68 329.195 1348.7 323.222 1345.89 317.896 C 1328.25 284.453 1304.76 251.631 1278.19 224.715 C 1228 173.882 1144.35 123.761 1076.12 102.544 C 1034.64 89.6425 974.211 78.9998 933.982 100.486 C 920.057 107.924 904.389 121.754 899.653 137.295 L 899.244 137.995 L 899.653 137.295 C 918.623 112.966 935.508 100.555 966.983 96.6282 C 1004.95 91.891 1049.5 103.804 1083.61 120.028 C 1077.71 119.089 1071.83 118.111 1065.95 117.095 C 1076.51 125.487 1087.7 133.029 1098.31 141.348 C 1091.96 138.973 1085.58 136.69 1079.16 134.501 C 1087.06 139.853 1094.99 145.146 1102.95 150.38 C 1092.38 146.372 1082.53 145 1071.61 142.687 C 1074.95 146.377 1084.26 148.141 1089.09 150.423 C 1076.29 148.457 1063.25 146.891 1050.64 143.874 C 1054.89 147.428 1059.02 150.956 1063.79 153.818 L 1060.99 154.476 C 1073.74 172.547 1113.26 190.318 1131.57 205.381 L 1132.18 206.155 L 1132.84 206.842 L 1132.18 206.155 L 1131.57 205.381 C 1125.21 193.677 1113.41 184.62 1103.99 175.45 C 1139.6 183.248 1157.53 197.117 1186.54 216.026 C 1183.01 211.029 1177.78 206.794 1173.36 202.575 C 1155.88 185.874 1137.87 171.477 1117.57 158.383 C 1141.52 164.741 1159.8 180.176 1182.01 190.063 C 1165.38 174.025 1145.16 159.432 1126.28 146.135 C 1117.89 140.224 1108.02 134.824 1100.63 127.732 z M 669.532 154.263 C 673.916 148.931 679.522 144.721 684.81 140.328 C 652.427 154.38 619.327 178.655 594.922 204.061 C 573.513 226.348 555.594 248.845 529.664 266.551 C 586.756 244.94 623.581 189.518 676.116 174.349 C 665.867 194.521 649.698 213.061 633.277 228.489 C 626.948 234.436 619.22 239.906 613.56 246.378 L 612.74 247.156 L 611.223 247.995 L 612.74 247.156 L 613.56 246.378 C 638.146 234.369 656.891 214.166 682.464 203.22 C 676.103 215.485 666.084 226.141 657.343 236.744 C 646.511 249.882 635.844 263.14 626.504 277.399 C 561.68 376.373 508.396 503.75 513.46 623.972 C 516.537 613.088 516.078 599.732 517.073 588.4 C 518.382 574.367 520.171 560.383 522.436 546.472 C 535.479 464.288 566.142 385.898 612.321 316.675 C 623.649 300.057 636.548 284.452 649.419 269.019 C 688.866 221.723 734.312 182.576 795.071 165.578 C 805.168 162.753 815.613 161.154 825.908 159.206 C 780.578 156.225 752.607 167.942 710.835 178.575 L 709.561 177.879 L 708.467 178.624 L 712.539 176.597 C 708.595 175.743 703.251 176.981 699.186 177.388 C 707.31 172.555 717.759 165.027 723.738 157.812 L 723.399 156.641 L 719.652 157.875 C 720.672 155.676 720.562 156.775 720.177 154.603 L 714.533 154.15 C 716.787 151.544 719.849 149.898 722.729 148.064 C 715.237 148.732 707.781 149.898 700.334 150.94 C 710.958 146.055 721.446 140.878 731.786 135.415 C 710.78 140.285 690.391 148.713 669.532 154.263 z M 1045.09 174.102 L 1045.53 174.598 C 1052.86 185.982 1063.73 194.628 1072.6 204.786 C 1046.54 186.138 1012.91 162.577 982.597 152.445 C 971.188 148.632 959.518 147.335 948.083 144.044 L 946.258 144.602 C 950.268 146.744 955.497 147.378 959.843 148.871 C 972.041 153.059 985.415 157.781 996.656 164.107 C 1043.88 190.682 1077.31 234.284 1117.58 269.39 C 1108.14 255.967 1098.07 243.002 1089.09 229.265 C 1091.18 230.562 1093.29 231.972 1095.5 233.048 C 1097.95 234.238 1099.53 234.733 1102.13 233.971 C 1098.15 231.644 1093.76 228.232 1089.09 229.265 C 1085.67 226.309 1082.3 223.287 1079 220.201 C 1088.81 225.334 1108.44 238.308 1118.49 239.269 L 1118.89 239.75 L 1118.49 239.269 C 1112.46 230.53 1103.52 223.264 1096.24 215.507 C 1112.68 223.129 1125.48 235.136 1140.85 244.184 C 1134.49 236.3 1126.29 229.817 1121.69 220.664 C 1131.94 231.736 1143.28 241.607 1154.01 252.194 C 1161.3 259.39 1168.35 268.421 1176.51 274.433 L 1176.96 274.945 L 1176.51 274.433 C 1176.05 273.474 1176.04 273.406 1175.39 272.343 C 1167.35 259.146 1155.58 247.295 1145.04 236.047 C 1110.67 199.368 1080.68 171.352 1030.42 158.407 C 1040.93 164.814 1052.56 171.419 1061.96 179.339 C 1056.47 177.276 1051.38 175.371 1045.53 174.598 L 1045.09 174.102 z M 877.365 180.423 C 864.971 186.207 855.285 198.704 848.37 210.139 C 801.334 223.383 761.567 268.534 738.527 309.784 C 707.109 366.034 692.773 426.822 696.503 491.204 C 697.113 501.737 697.76 512.566 699.267 523.002 C 699.891 527.318 701.27 531.395 701.604 535.752 C 701.425 512.896 698.274 490.545 699.194 467.552 C 702.56 383.353 740.024 311.506 798.353 252.178 C 811.82 238.481 826.877 224.175 844.801 216.654 C 825.97 271.261 818.725 319.564 816.596 376.983 C 815.614 403.494 815.504 429.906 818.75 456.286 C 820.051 466.858 820.842 479.64 824.034 489.704 C 824.478 468.565 820.654 447.126 820.455 425.839 C 820.005 377.814 832.186 330.255 846.607 284.798 C 846.996 305.512 846.495 326.138 848.581 346.787 C 853.426 394.728 874.32 482.794 907.464 516.94 L 908.266 518.392 L 909.22 519.268 L 910.389 521.639 L 911.226 522.141 L 912.411 524.6 L 913.221 525.15 L 913.824 525.995 L 913.221 525.15 L 912.411 524.6 L 911.226 522.141 L 910.389 521.639 L 909.22 519.268 L 908.266 518.392 L 907.464 516.94 C 901.148 502.559 891.613 489.69 885.607 475.014 C 862.595 418.778 845.555 331.669 856.517 271.666 C 861.426 308.127 877.988 336.208 905.442 360.566 C 902.747 356.705 898.7 352.082 897.229 347.688 C 896.551 345.664 896.156 345.034 897.069 343.033 C 908.769 356.696 917.161 374.073 933.36 383.469 L 933.816 383.98 L 933.36 383.469 C 928.945 374.821 922.807 367.288 919.279 358.192 C 918.847 357.08 918.406 355.984 917.998 354.862 C 927.917 368.057 942.323 392.722 956.269 400.575 L 956.806 400.995 L 956.269 400.575 C 952.865 394.683 947.153 389.024 942.917 383.604 C 925.712 361.588 913.82 344.115 907.958 316.036 L 907.392 313.346 C 908.715 315.314 909.109 319.004 909.801 321.372 C 911.738 327.996 916.658 334.879 921.517 339.729 C 921.75 339.961 921.989 340.188 922.225 340.417 L 922.775 340.995 L 922.225 340.417 C 920.543 334.877 916.738 330.687 915.806 324.776 C 919.431 331.015 922.711 335.941 928.509 340.437 L 928.969 340.917 L 928.509 340.437 C 924.953 333.953 921.254 327.614 918.892 320.576 C 921.181 323.933 923.521 327.254 925.912 330.539 C 923.691 324.493 921.551 318.401 919.086 312.451 C 929.738 327.055 941.697 346.63 957.189 356.524 L 957.755 356.995 L 957.189 356.524 C 951.3 344.311 940.108 335.069 933.202 323.369 C 920.772 302.312 912.156 278.641 899.011 258.232 C 900.008 264.764 900.514 271.424 901.195 277.999 C 891.622 256.346 884.422 233.72 879.72 210.517 C 879.668 210.83 879.613 211.143 879.565 211.456 C 879.488 211.961 879.435 212.47 879.346 212.972 C 876.657 228.222 898.412 306.491 905.577 322.381 C 885.46 295.302 874.66 250.732 878.52 217.406 C 872.997 229.903 868.933 242.936 864.25 255.759 C 860.184 247.086 857.226 237.983 856.81 228.348 C 855.975 208.968 864.843 194.3 877.365 180.423 L 877.856 180.053 L 877.365 180.423 z M 1377.01 196.005 L 1378.09 196.924 L 1379.22 197.53 C 1386.26 204.618 1395.26 210.294 1403.17 216.422 C 1413.51 224.439 1423.41 233.09 1433.24 241.72 C 1449.16 255.584 1464.82 269.743 1480.22 284.188 C 1488.96 292.355 1497.91 302.384 1507.57 309.336 L 1507.99 309.844 L 1507.57 309.336 C 1502.23 300.652 1492.51 292.759 1485.29 285.56 C 1460.81 261.142 1409.95 211.259 1379.22 197.53 L 1378.09 196.924 L 1377.01 196.005 z M 606 252 L 604.021 253.314 C 586.675 261.496 569.614 275.235 555.397 287.855 C 511.847 326.513 480.095 369.857 460.269 424.939 C 456.008 436.779 444.27 469.755 445.55 481.07 C 448.044 477.787 458.232 439.476 461.255 431.455 C 467.999 413.566 476.555 395.637 486.237 379.159 C 509.159 340.144 539.322 306.813 572.994 276.843 C 582.1 268.738 596.433 262.142 604.021 253.314 L 606 252 L 606.995 251.154 L 606 252 z M 925.247 277.005 L 925.783 277.52 C 927.109 283.316 929.233 288.66 931.42 294.172 C 926.21 286.339 921.062 278.466 915.977 270.553 C 920.528 298.229 936.568 326.707 959.517 343.448 L 959.984 343.989 L 959.517 343.448 C 952.375 330.374 934.656 307.672 931.42 294.172 C 935.405 297.518 942.871 312.427 948.738 318.595 C 942.968 305.035 935.226 288.804 925.783 277.52 L 925.247 277.005 z M 719.424 314.557 C 710.932 322.915 705.515 335.384 701.004 346.229 C 681.12 394.023 673.987 447.043 673.561 498.529 C 673.397 518.227 673.256 539.345 675.877 558.861 L 676.587 559.07 C 678.095 538.373 676.821 517.205 677.125 496.434 C 677.765 452.765 683.387 407.136 697.007 365.562 C 700.768 354.14 705.352 343.005 710.722 332.244 C 713.516 326.505 717.288 320.502 719.424 314.557 L 719.872 314.005 L 719.424 314.557 z M 572.483 327.505 C 565.966 333.877 560.932 344.999 556.686 353.144 C 532.113 400.289 513.911 460.687 511.154 513.945 C 515.296 506.433 516.663 484.688 518.603 474.803 C 521.563 459.724 524.731 444.359 529.048 429.601 C 536.234 405.036 546.224 380.524 557.102 357.373 C 561.668 347.655 569.579 337.704 572.483 327.505 L 572.9 327.005 L 572.483 327.505 z M 925.185 329.005 L 925.611 330.48 L 927.621 332.459 L 928.141 333.204 C 928.727 334.178 929.235 335.155 930 336 L 931.358 338.569 L 931.903 338.995 L 931.358 338.569 L 930 336 C 929.507 334.973 928.81 334.122 928.141 333.204 L 927.621 332.459 L 925.611 330.48 L 925.185 329.005 z M 684.326 354.511 L 683.169 354.995 L 684.326 354.511 L 684.802 353.005 L 684.326 354.511 z M 682.403 357.506 L 680.846 358.949 C 667.326 370.819 650.593 432.1 646.65 451.013 C 643.834 464.884 641.953 478.928 641.02 493.052 C 638.048 539.058 644.992 586.972 657.897 631.118 L 659.035 631.038 C 656.707 615.889 652.192 601.148 649.601 585.991 C 640.332 531.762 640.671 475.344 656.757 422.417 C 661.091 408.407 665.986 394.577 671.43 380.96 C 674.362 373.82 678.821 366.251 680.846 358.949 L 682.403 357.506 L 682.847 356.005 L 682.403 357.506 z M 639.273 361.521 C 631.31 369.463 624.824 380.535 618.952 390.138 C 591.339 435.293 574.175 485.019 574.117 538.408 C 574.056 594.188 587.625 650.615 610.077 701.477 C 614.072 710.528 618.602 722.744 625.475 729.942 L 626.219 731.44 L 627.421 733.551 L 628.216 734.17 L 629.351 736.62 L 630.214 737.147 L 630.995 738.849 L 630.214 737.147 L 629.351 736.62 L 628.216 734.17 L 627.421 733.551 L 626.219 731.44 L 625.475 729.942 C 622.953 720 611.175 699.547 606.484 687.662 C 587.518 639.612 575.487 570.906 579.779 519.729 C 582.452 489.236 589.984 459.366 602.09 431.251 C 607.972 417.457 614.729 404.052 622.32 391.118 C 627.821 381.755 634.732 372.193 638.962 362.279 C 639.069 362.028 639.169 361.774 639.273 361.521 L 639.838 361.005 L 639.273 361.521 z M 1469.01 382.005 L 1469.41 382.508 C 1472.51 388.512 1479.22 394.517 1483.73 399.646 C 1504.64 423.694 1524.14 448.936 1542.13 475.246 C 1549.88 486.801 1555.96 500.222 1564.49 511.053 C 1557.58 483.825 1492.62 399.365 1469.41 382.508 L 1469.01 382.005 z M 1270.12 392.005 L 1270.5 393.576 L 1272.5 395.474 L 1273.12 396.277 L 1273.61 397.296 C 1277.66 409.184 1286.62 421.853 1292.64 433.05 C 1302.62 451.598 1312.15 471.177 1320.18 490.655 C 1328.82 511.598 1337.17 533.374 1343.53 555.133 C 1347.54 568.837 1349.61 584.277 1355.15 597.348 C 1351.91 548.03 1316.25 469.608 1292.47 427.069 C 1287.03 417.351 1281.2 405.437 1273.61 397.296 L 1273.12 396.277 L 1272.5 395.474 L 1270.5 393.576 L 1270.12 392.005 z M 925.824 166.888 C 929.432 216.953 958.99 284.988 987.091 326.5 C 1010.01 360.355 1038.26 391.059 1074.86 410.248 C 1082.58 414.295 1091.26 418.658 1099.87 420.318 L 1100.99 420.791 L 1099.87 420.318 C 1097.97 418.864 1095.68 417.95 1093.56 416.854 C 1080.85 410.289 1067.88 403.254 1056.57 394.447 C 1002.47 352.335 964.009 279.48 941.136 216.056 C 935.308 199.897 931.05 183.242 925.824 166.888 z M 1325.18 455.005 L 1325.61 455.559 C 1328.57 467.999 1337 480.892 1341.74 493.012 C 1351.84 518.837 1358.57 547.096 1362.75 574.473 C 1364.96 589.027 1366.49 603.932 1366.87 618.646 C 1367.11 627.677 1365.83 669.415 1368.74 673.676 L 1369.03 669.181 C 1372.88 606.222 1367.3 549.963 1343.65 491.025 C 1338.98 479.384 1333.94 464.998 1325.61 455.559 L 1325.18 455.005 z M 1459.06 514.005 L 1459.7 515.04 C 1460.46 529.269 1466.67 545.407 1469.98 559.485 C 1474.59 579.206 1478.01 599.185 1480.22 619.316 C 1481.06 626.88 1478.09 649.525 1480.15 653.614 C 1489.23 620.496 1478.6 580.396 1470.17 547.882 C 1467.36 537.034 1464.79 525.057 1459.7 515.04 L 1459.06 514.005 z M 1104.1 551.005 L 1104.93 552.079 L 1105.64 553.245 C 1110.45 567.046 1121.21 590.82 1129.41 603.017 L 1148.17 603.548 C 1142.83 596.699 1136.12 590.589 1130.49 583.901 C 1122.01 573.848 1114.46 563.002 1105.64 553.245 L 1104.93 552.079 L 1104.1 551.005 z M 1172.01 552.248 L 1173.66 553.497 L 1174.13 555.563 L 1174.68 555.849 C 1179.58 568.037 1217.05 607.141 1228.7 612.427 C 1227.59 610.41 1226.37 608.699 1224.81 607 C 1216.94 598.439 1207.78 590.912 1199.69 582.508 C 1191.51 574.006 1183.94 562.99 1174.68 555.849 L 1174.13 555.563 L 1173.66 553.497 L 1172.01 552.248 z M 745.828 621.056 C 757.931 617.22 786.766 613.153 799.399 615.274 C 802.721 615.832 806.202 617.497 809.5 618.422 L 809.264 615.874 L 810.498 614.889 C 816.407 614.804 819.413 617.431 823.859 620.904 L 825.269 622.831 L 823.859 620.904 L 825.56 619.706 C 833.644 621.252 834.953 627.838 840.585 629.603 C 846.951 631.596 850.883 640.344 853.623 645.973 C 858.509 656.105 862.206 666.767 864.642 677.748 C 836.646 670.059 804.967 668.939 776.015 665.643 C 754.675 663.213 732.276 659.082 710.813 658.882 C 712.248 677.37 715.128 696.737 724.581 713.013 C 752.803 701.772 788.132 697.711 816.859 709.842 C 834.666 717.361 845.838 730.476 857.198 745.506 C 850.617 741.311 845.425 735.461 839.657 730.268 C 824.236 716.382 806.063 710.228 785.495 708.829 C 770.712 707.824 741.709 706.223 730.113 716.436 C 728.852 719.581 729.568 720.648 730.372 723.868 L 729.392 722.927 C 726.419 720.117 724.118 717.534 719.727 717.798 C 717.831 717.912 717.313 718.734 715.887 719.842 C 714.971 722.289 714.515 724.077 715.643 726.595 C 716.723 729.006 718.765 730.704 721.336 731.309 C 728.308 732.947 736.635 726.301 743.537 725.055 C 785.916 717.402 831.267 726.435 858.581 761.783 C 864.325 769.216 869.533 777.447 874.056 785.678 C 842.319 810.684 793.515 810.505 755.075 805.88 C 745.171 804.688 702.931 796.482 697.046 789.928 L 696.869 788.042 C 702.582 785.364 716.42 788.561 722.54 790.122 L 722.995 790.758 L 722.54 790.122 C 714.846 783.356 707.419 780.061 701.009 771.448 C 701.036 769.509 701.038 767.838 700.582 765.947 C 694.699 765.78 688.879 772.922 682.613 771.607 L 682.293 768.586 L 680.109 766.968 C 689.285 755.676 703.655 745.121 715.402 736.821 C 708.588 732.875 701.18 729.92 694.304 726.053 C 676.721 716.164 662.972 701.428 650.719 685.656 C 651.223 697.443 651.346 709.422 652.434 721.163 C 654.094 739.073 659.228 754.426 673.359 766.27 C 665.71 764.476 658.759 759.408 652.232 755.23 C 653.035 760.512 655.265 768.125 652.383 772.938 C 651.356 774.653 650.344 775.817 649.743 777.78 C 643.006 799.784 674.152 899.607 681.1 926.239 C 693.518 973.829 703.391 1022.74 720.708 1068.86 C 730.579 1094.98 743.355 1119.92 758.797 1143.19 C 783.676 1180.27 867.24 1278.98 902.396 1302.5 C 914.465 1310.57 927.391 1314.79 941.572 1317.55 C 991.706 1327.28 1051.24 1317.28 1093.73 1288.34 C 1140.55 1256.44 1262.11 1130.21 1287.02 1079.68 C 1294.18 1065.14 1298.92 1049.29 1304.29 1034.02 C 1317 997.903 1328.25 961.233 1340.49 924.948 C 1344.21 913.912 1347.79 902.681 1353.05 892.255 C 1357.56 883.314 1366.62 874.671 1368.76 864.875 C 1371.08 854.274 1363.32 844.645 1365.68 833.646 C 1369.11 817.647 1413.31 754.608 1426.91 746.767 C 1429.55 745.245 1432.72 744.556 1435.66 745.674 C 1438.93 746.915 1441.01 750.031 1442.47 753.037 C 1453.3 775.327 1454.06 808.516 1445.62 831.598 C 1441.66 802.626 1447.39 781.858 1433.24 752.844 C 1425.23 757.869 1419.03 767.293 1413.14 774.622 C 1421.25 792.615 1430.95 810.129 1433.26 830.028 C 1436.25 855.929 1424.06 874.429 1408.64 893.775 C 1412.99 881.562 1421.37 871.92 1426.19 860.112 C 1436.31 835.327 1418.51 804.021 1408.67 781.621 C 1400.18 791.893 1394.14 803.953 1385.7 814.308 C 1392.09 825.157 1398.52 836.518 1401.9 848.725 C 1409.81 877.265 1383.89 893.261 1368.39 911.946 C 1364.1 917.125 1360.78 924.044 1357.44 929.906 C 1356.88 926.021 1357.28 921.919 1357.68 918.026 C 1358.99 905.195 1367.97 901.781 1376.61 894.374 C 1385.37 886.868 1394.21 872.393 1394.76 860.747 C 1395.37 847.874 1388.2 832.65 1379.44 823.653 L 1378.45 822.653 C 1366.68 847.842 1379.88 850.491 1374.7 869.351 C 1372.13 878.755 1364.04 885.947 1360.51 894.992 C 1351.36 918.418 1345.96 943.444 1336.87 967.014 C 1339.63 969.594 1342.82 972.278 1346.17 974.023 C 1351.67 976.887 1358.47 976.856 1364.27 974.969 C 1385.54 968.047 1424.7 928.996 1439.11 911.302 C 1446.19 902.597 1452.61 893.214 1457.62 883.152 C 1478.88 840.475 1466.7 767.056 1451.5 722.787 C 1449.63 717.334 1446.99 708.015 1441.55 705.332 C 1438.81 705.367 1436.93 705.983 1434.55 707.257 C 1386.02 733.272 1349.38 827.603 1334.16 878.656 C 1332.97 860.284 1335.19 841.132 1335.46 822.675 C 1336.13 777.131 1331.95 709.162 1312.44 667.507 C 1316.27 698.209 1317.29 726.824 1311 757.325 C 1306.05 722.556 1294.5 689.054 1276.96 658.625 C 1281.59 676.316 1279.98 694.404 1283.17 712.266 C 1277.46 703.828 1273.51 693.808 1268.79 684.761 C 1262.04 671.955 1254.6 659.526 1246.5 647.53 L 1231.02 647.002 C 1242.71 663.864 1251.18 683.13 1265.15 698.158 C 1237.99 684.026 1209.37 660.289 1184.21 642.36 C 1171.34 642.524 1158.5 643.515 1145.67 644.338 C 1152.06 657.446 1162.81 668.536 1172.37 679.426 C 1157.27 674.322 1144.21 655.532 1134.64 643.553 L 1116.42 647.85 C 1128.92 654.875 1140.17 662.392 1151.37 671.33 C 1132.57 667.084 1116.01 656.368 1097.59 651.657 C 1086.04 648.703 1018.7 661.769 1004.96 665.516 C 1006.45 651.015 1008.34 629.598 1018.58 618.479 L 1019.68 618.824 L 1019.09 621.938 L 1017.55 624.521 L 1017.05 624.995 L 1017.55 624.521 L 1019.09 621.938 C 1024.87 617.576 1030.75 614.437 1037.37 611.5 C 996.945 580.725 959.832 548.588 936.957 502.193 C 933.2 494.573 920.952 460.646 918.513 457.212 C 921.549 475.914 928.326 494.705 934.131 512.756 C 946.468 551.118 959.118 591.72 977.977 627.442 C 984.056 638.957 992.024 650.107 1000.57 659.91 C 1014.78 680.647 1030.88 693.961 1051.28 708.426 C 999.87 695.467 945.161 669.348 908.729 630.167 C 894.451 614.812 882.755 596.825 872.045 578.843 C 863.291 564.144 855.425 548.919 847.179 533.933 C 857.459 584.372 877.736 632.241 906.814 674.717 C 899.069 667.677 892.832 659.759 886.529 651.446 C 892.21 671.452 900.567 690.894 908.031 710.306 C 911.232 718.632 915.679 727.696 917.151 736.473 C 916.913 736.191 916.661 735.921 916.439 735.628 C 893.829 705.748 878.223 669.356 861.781 635.844 C 852.615 617.163 841.706 599.54 833.043 580.545 C 796.684 500.821 789.201 426.328 799.506 339.974 C 785.667 357.521 775.519 380.871 767.655 401.802 C 749.623 449.796 729.06 535.324 735.666 586.872 C 737.198 598.829 740.864 610.113 745.828 621.056 z M 923.076 571.217 C 923.771 574.857 924.842 578.286 926.244 581.713 C 939.362 613.773 974.314 664.543 1006.54 678.218 L 1007 678.758 L 1006.54 678.218 C 984.531 656.082 962.953 633.165 945.175 607.426 C 937.151 595.809 930.465 583.244 923.076 571.217 z M 1430.7 696.911 L 1430.15 697.995 L 1430.7 696.911 C 1430.99 696.567 1431.3 696.238 1431.58 695.88 C 1436.72 689.141 1440.01 678.137 1442.36 670.068 C 1453.26 632.08 1455.85 592.194 1449.98 553.114 L 1449.59 552.838 C 1447.46 556.803 1449.57 582.552 1449.54 588.765 C 1449.46 599.526 1448.89 610.278 1447.82 620.985 C 1446.35 635.286 1444.14 650.11 1440.35 663.975 C 1437.42 674.669 1433.23 685.123 1430.9 695.958 L 1430.7 696.911 z M 1382.5 708.932 L 1381.79 710.445 L 1380.67 712.648 L 1380.06 712.995 L 1380.67 712.648 L 1381.79 710.445 L 1382.5 708.932 C 1392.88 698.759 1410.78 658.547 1415.57 644.637 C 1431.47 598.442 1418.78 555.652 1398.23 513.269 L 1397.07 513.951 C 1398.27 517.583 1399.63 520.978 1401.24 524.441 C 1422.97 571.29 1425.34 619.348 1403.73 666.577 C 1397.57 680.028 1387.91 693.26 1383.12 707.082 C 1382.9 707.696 1382.71 708.315 1382.5 708.932 z M 779.225 775.112 C 782.136 777.824 785.087 780.492 788.079 783.114 L 788.525 784.199 C 791.437 787.184 794.863 788.622 798.57 790.356 C 797.073 793.543 796.575 796.856 794.783 799.937 C 791.982 801.019 789.591 800.202 786.914 799.122 C 776.637 794.974 769.965 784.985 765.869 775.108 C 759.943 760.818 759.549 755.088 765.438 740.659 C 763.692 739.246 763.18 738.742 760.836 738.64 C 745.909 737.985 714.13 755.154 702.823 764.739 C 720.266 787.119 727.577 792.939 755.472 800.567 C 789.6 809.899 839.377 805.289 870.197 787.6 C 863.748 780.604 857.577 773.748 849.873 768.091 C 846.042 778.289 842.329 787.435 832.934 793.86 C 823.591 800.25 811.092 802.63 799.999 800.813 C 798.669 799.181 798.695 798.465 798.378 796.439 C 801.678 785.805 820.966 789.08 828.229 783.14 C 830.701 781.118 833.037 777.201 834.981 774.627 C 833.446 775.275 832.33 776.294 830.718 775.693 C 832.295 772.981 835.852 771.402 838.525 769.868 L 838.854 768.064 C 837.463 765.514 835.6 764.805 833.116 763.584 C 828.92 764.451 822.779 777.508 815.375 780.611 C 811.291 782.323 806.629 782.378 802.588 780.475 C 798.986 778.778 797.496 778.141 796.126 774.431 L 792.186 775.584 C 788.866 774.49 788.005 772.921 785.727 770.333 C 780.549 770.462 772.163 769.976 768.05 773.369 C 770.868 775.431 775.818 774.963 779.225 775.112 z M 1037.42 1820.49 C 1019.83 1829.58 1004.12 1839.95 984.85 1845.69 C 980.338 1847.03 962.06 1850.56 960.214 1853.68 C 981.819 1857.48 1004.13 1849.56 1021.78 1837.12 C 1028.28 1832.54 1033.43 1827.45 1037.42 1820.49 L 1037.88 1820.05 L 1037.42 1820.49 z M 1903.67 1998.84 L 1903.19 1999.99 L 1903.67 1998.84 C 1910.45 1987.82 1921.87 1944.19 1927.21 1928.58 C 1938.23 1895.43 1951.02 1862.9 1965.51 1831.11 C 1975.51 1809.1 1987.08 1787.82 2000.11 1767.44 C 2007 1756.75 2019.05 1745.27 2023.39 1733.47 C 2016.43 1738.81 2010.6 1747.43 2005.31 1754.49 C 1962.4 1811.75 1936.8 1882.61 1916.73 1950.63 C 1912.08 1966.37 1906.33 1982.68 1903.67 1998.84 z M 919.263 47.5 L 920.49 47.5 L 919.263 47.5 z M 780.943 104.41 C 752.867 106.395 721.656 113.278 696.853 126.989 C 717.504 121.596 737.071 115.032 758.243 111.432 C 777.133 108.936 795.471 107.815 814.525 109.465 C 819.239 109.873 844.925 115.333 847.107 114.358 C 828.219 104.814 801.627 103.034 780.943 104.41 z M 921.519 261.654 C 927.153 276.786 968.928 351.892 979.666 358.338 C 971.657 344.457 928.454 266.775 921.519 261.654 z M 573.475 325.5 L 574.49 325.5 L 573.475 325.5 z M 1324.37 453.5 L 1325.23 453.5 L 1324.37 453.5 z M 1019.56 472.604 C 1028.24 512.691 1061.45 573.941 1087.39 605.98 L 1107.91 602.739 L 1108.73 601.705 C 1077.62 576.201 1050.22 540.659 1033.27 504.028 C 1029.06 494.946 1025.95 479.988 1019.56 472.604 z M 1396.39 511.5 L 1397.24 511.5 L 1396.39 511.5 z M 1564.43 511.5 L 1565.17 511.5 L 1564.43 511.5 z M 699.193 549.687 C 698.189 572.067 702.201 605.867 707.592 627.713 C 715.638 626.209 723.685 624.563 731.771 623.292 L 733.414 622.304 C 732.922 620.413 732.128 619.635 730.893 618.193 C 714.405 598.92 707.372 573.057 699.193 549.687 z M 659.178 633.5 L 660.001 633.5 L 659.178 633.5 z M 529.369 643.808 C 527.447 679.996 532.646 716.571 557.897 744.257 C 562.172 748.945 576.212 762.443 582.129 763.43 C 582.392 763.474 582.662 763.447 582.928 763.456 C 582.37 755.41 566.597 741.169 561.89 733.048 C 552.658 717.122 544.47 700.882 539.018 683.232 C 536.574 675.321 533.046 648.443 529.369 643.808 z M 681.789 658.661 C 686.594 680.392 694.186 704.737 708.485 722.223 L 717.3 717.11 L 719.232 715.111 C 717.221 708.663 708.133 702.582 704.128 696.851 C 696.957 686.59 689.144 666.85 681.789 658.661 z M 590.554 730.5 L 591.49 730.5 L 590.554 730.5 z M 590.464 731.288 L 590.877 738.112 L 591.714 738.827 L 592.348 738.674 C 592.834 735.22 592.565 734.183 590.464 731.288 z M 597.189 748.298 C 591.513 760.882 593.02 775.499 592.863 788.986 C 592.462 823.362 591.216 859.466 603.595 892.318 C 615.592 924.156 664.045 980.447 688.105 1007.92 C 686.228 997.754 683.765 987.793 681.242 977.771 C 674.073 945.979 663.301 915.2 655.974 883.469 C 652.119 866.008 648.462 848.504 645.006 830.961 C 643.037 820.541 641.978 809.723 639.073 799.516 C 636.951 792.059 633.069 785.344 628.564 779.078 C 631.993 791.531 633.94 804.104 636.474 816.739 C 632.059 809.18 627.379 801.684 623.252 793.967 C 618.21 784.539 605.739 752.581 597.189 748.298 z M 769.805 750.945 C 770.671 753.716 770.708 754.016 773.327 755.494 C 774.125 755.944 775.495 756.565 776.363 756.968 C 777.389 760.875 775.275 764.875 777.385 768.393 C 780.015 769.346 782.319 769.085 785.045 768.914 L 785.533 767.952 L 784.171 766.906 L 781.975 764.906 C 783.471 761.69 786.039 759.259 785.646 755.752 C 780.722 751.623 775.686 752.475 769.805 750.945 z M 1311.56 1045.74 C 1305.69 1061.17 1300.02 1076.55 1292.59 1091.31 C 1276.48 1123.28 1256.43 1152.97 1237.69 1183.39 C 1216.37 1217.99 1195.16 1252.26 1172.28 1285.87 C 1158.36 1306.31 1144.18 1326.93 1127.52 1345.27 C 1110.25 1364.3 1087.65 1383.58 1064.05 1394.21 C 1046.69 1402.04 1022.45 1407.14 1004.12 1400.1 C 982.428 1391.77 935.171 1352.24 916.485 1335.08 C 908.125 1327.41 900.542 1318.92 892.147 1311.3 C 879.039 1299.4 865.04 1288.59 852.521 1276.02 C 836.52 1259.97 819.768 1241.97 806.439 1223.68 C 813.633 1254.11 820.539 1285.38 825 1316.35 C 827.301 1333.09 829.09 1349.9 830.365 1366.75 C 832.445 1392.44 833.628 1414.09 845.029 1437.79 C 863.017 1472.4 885.207 1506.21 910.587 1535.87 C 931.483 1560.28 958.735 1587.68 975.45 1614.41 C 982.491 1625.67 982.419 1638.32 988.364 1649.48 C 991.46 1638.42 994.306 1623.46 1002.32 1614.93 C 1017.27 1599 1055.82 1576.52 1075.05 1562.93 C 1139.92 1517.09 1246.42 1432.18 1285.03 1362.96 C 1284.06 1336.29 1290.25 1310.29 1292.03 1283.78 C 1295.83 1227.25 1297.03 1170.74 1302.56 1114.29 C 1304.01 1099.47 1313.17 1055.89 1311.56 1045.74 z M 1303.75 1264.47 C 1302.28 1286.34 1302.22 1308.46 1301.74 1330.37 C 1306.06 1319.72 1308.85 1294.24 1316.95 1288.32 C 1318.61 1289.41 1318.13 1288.7 1318.62 1290.81 C 1324.88 1317.88 1299.5 1365.24 1284.43 1387.36 C 1236.68 1457.46 1148.23 1528.55 1078.27 1576.23 C 1057.08 1590.68 1033.65 1602.66 1013.06 1617.75 C 1054.18 1661.18 1077.04 1720.65 1100.03 1775.06 C 1110.64 1799.8 1120.99 1826.36 1135.09 1849.25 C 1172.05 1807.68 1209.4 1766.37 1245.75 1724.27 C 1272.23 1693.6 1320.72 1639.64 1335.4 1603.31 C 1340.04 1591.81 1341.89 1578.51 1344.71 1566.45 C 1349.85 1544.45 1355.35 1522.58 1359.74 1500.41 C 1364.08 1478.52 1373.82 1436.98 1372.42 1416.66 C 1371.3 1400.45 1359.07 1374.25 1354.25 1357.19 C 1348.69 1337.51 1346.16 1315.85 1338.32 1297.04 C 1335.09 1289.08 1329.93 1282.05 1323.3 1276.58 C 1317.4 1271.65 1310.58 1267.93 1303.75 1264.47 z M 810.15 1307.76 C 793.344 1318.67 785.82 1341.25 781.767 1360.02 C 779.036 1372.67 777.712 1385.69 775.227 1398.43 C 771.324 1418.43 765.697 1439.09 764.212 1459.42 C 756.77 1561.28 773.056 1669.37 804.262 1766.22 C 811.543 1788.82 819.258 1812.93 831.078 1833.62 C 839.188 1809.73 849.294 1786.29 858.342 1762.73 C 873.953 1721.86 908.916 1641.85 949.512 1623.42 C 955.836 1620.55 960.202 1620.22 967.071 1620.81 C 950.358 1599.63 931.725 1580.44 914.002 1560.15 C 872.497 1512.62 839.103 1464.01 816.623 1404.85 C 810.075 1387.61 802.164 1368.26 804.544 1349.43 C 805.587 1341.19 808.509 1335.36 813.461 1328.82 C 813.33 1323.49 814.399 1311.74 810.341 1307.87 C 810.288 1307.82 810.214 1307.8 810.15 1307.76 z M 1497.77 1450.71 C 1499.69 1462.97 1504.97 1475.4 1508.78 1487.22 C 1514.15 1504.17 1519.3 1521.18 1524.22 1538.27 C 1543.26 1602.64 1559.64 1667.77 1573.32 1733.49 C 1558.34 1746.16 1452.76 1812.71 1450.52 1816.85 C 1452.1 1818.49 1453.57 1818.88 1455.85 1819.07 C 1456.06 1819.09 1456.28 1819.02 1456.49 1819 C 1478.88 1807.33 1568.24 1753.01 1581.43 1737.14 C 1580.08 1709.31 1512.21 1467.1 1498.82 1451.66 C 1498.51 1451.3 1498.12 1451.03 1497.77 1450.71 z M 648.79 1459.87 C 628.124 1478 486.773 1683.18 480.996 1705.12 C 482.034 1718.11 519.587 1748.66 530.35 1757.83 C 544.954 1770.28 560.175 1782.64 576.283 1793.09 C 578.963 1794.12 578.812 1794.21 581.44 1793.08 L 582.004 1791.15 C 577.111 1783.15 566.19 1776.92 559.104 1770.75 C 539.46 1753.64 505.209 1725.38 490.123 1705.8 C 505.993 1677.46 649.625 1469.76 648.79 1459.87 z M 750.392 1492.72 C 734.9 1537.4 721.313 1589.07 722.963 1636.76 C 723.95 1665.28 735.825 1704.23 743.581 1732.33 C 768.172 1821.4 795.476 1911.7 835.871 1995 C 842.644 2008.97 850.14 2024.03 859.289 2036.57 C 869.637 1982.93 875.891 1953.91 898.563 1904.13 C 901.829 1896.17 920.366 1855.93 920.643 1852.06 C 918.974 1849.85 916.798 1848.73 914.462 1847.35 C 900.825 1825.69 898.25 1744.87 892.134 1715.09 C 884.487 1729.28 878.289 1743.99 872.3 1758.93 C 864.328 1778.83 845.313 1837.73 833.041 1849.21 C 830.28 1849.96 830.302 1849.99 827.719 1848.77 C 811.576 1826.75 802.192 1799.5 793.806 1773.74 C 771.596 1705.51 759.297 1637.11 753.193 1565.67 C 751.988 1551.75 751.257 1537.8 751.003 1523.83 C 750.846 1514.27 752.421 1501.88 750.392 1492.72 z M 1006.97 1621.9 C 1000.15 1632.9 997.528 1648.13 994.307 1660.61 L 1020.93 1659.83 L 1033.12 1660.11 C 1025.85 1647.23 1018.71 1631.39 1006.97 1621.9 z M 965.95 1624 C 956.633 1628.13 947.654 1631.83 940.019 1638.75 C 943.168 1646.2 946.194 1657.53 953.497 1661.73 C 956.436 1662 958.885 1661.7 961.76 1661.22 L 986.42 1659.1 C 979.868 1647.41 974.746 1634.14 965.95 1624 z M 936.634 1642.79 C 930.518 1649.08 923.912 1656.19 920.027 1664.1 L 920.108 1665.91 L 923.756 1664.07 C 930.272 1662.41 936.81 1662.49 943.397 1661.48 C 941.215 1655.22 938.961 1648.99 936.634 1642.79 z M 984.483 1669.49 C 980.3 1669.76 976.023 1669.97 971.996 1671.22 C 955.621 1676.3 914.047 1700.37 904.069 1714 C 901.636 1717.32 902.836 1721.25 903.59 1724.98 C 924.478 1708.17 944.188 1690.23 968.681 1678.55 C 972.084 1676.92 983.793 1672.84 984.537 1669.67 L 984.483 1669.49 z M 929.936 1670.16 L 914.764 1674.45 C 912.201 1678.57 909.661 1682.71 907.142 1686.85 C 910.125 1685.2 913.171 1683.62 916.099 1681.88 C 922.443 1678.04 931.82 1674.69 937.235 1670.07 C 934.665 1669.42 932.506 1669.81 929.936 1670.16 z M 1044.09 1686.02 C 999.654 1703.3 966.354 1723.17 929.836 1753.89 C 924.434 1758.43 914.578 1765.15 911.699 1771.64 C 910.838 1773.58 911.3 1775.63 911.408 1777.72 L 912.666 1779.61 C 914.694 1778.86 913.967 1779.39 915.059 1778.35 C 951.64 1743.83 1001.52 1709.18 1050.53 1695.88 C 1049 1692.86 1047.11 1687.72 1044.09 1686.02 z M 1053.12 1703.08 C 1006.6 1722.19 963.765 1742.52 927.207 1778.32 C 922.814 1782.62 916.196 1787.67 913.164 1792.96 C 913.165 1795.68 912.99 1797.89 914.388 1800.34 L 915.623 1799.81 C 946.828 1768.99 983.833 1740.5 1024.99 1724.47 C 1030.35 1722.38 1053.35 1715.65 1056.19 1712.22 C 1056.69 1711.61 1056.74 1710.74 1057.02 1710.01 C 1056.4 1707.69 1055.74 1705.29 1053.94 1703.54 C 1053.72 1703.32 1053.39 1703.23 1053.12 1703.08 z M 1056.83 1782.99 C 1030.58 1802.54 1005.15 1819.33 974.301 1831.07 C 967.525 1833.65 932.798 1843.63 930.529 1846.14 C 931.236 1847.91 931.836 1848.39 933.422 1849.4 C 949.275 1853.5 1003.07 1830.48 1017.45 1821.9 C 1028.11 1815.54 1039.91 1808.64 1048.81 1800.01 C 1049.14 1799.68 1049.5 1799.38 1049.83 1799.05 C 1053.42 1795.44 1055.37 1789.7 1057.37 1785.08 C 1057.24 1783.22 1057.64 1783.82 1056.83 1782.99 z"/>
<path transform="translate(0,0)" fill="rgb(0,0,0)" d="M 1100.63 127.732 L 1100.01 127.258 L 1100.63 127.732 z"/>
<path transform="translate(0,0)" fill="rgb(0,0,0)" d="M 1098.31 141.348 L 1098.91 141.805 L 1098.31 141.348 z"/>
<path transform="translate(0,0)" fill="rgb(0,0,0)" d="M 669.069 154.745 L 669.532 154.263 L 669.069 154.745 z"/>
<path transform="translate(0,0)" fill="rgb(0,0,0)" d="M 1063.79 153.818 L 1064.99 154.733 L 1063.79 153.818 z"/>
<path transform="translate(0,0)" fill="rgb(0,0,0)" d="M 715.015 161.09 C 716.165 158.59 717.218 158.81 719.652 157.875 C 717.874 159.799 717.476 160.296 715.015 161.09 z"/>
<path transform="translate(0,0)" fill="rgb(0,0,0)" d="M 707.49 179.5 L 706.264 179.5 L 707.49 179.5 z"/>
<path transform="translate(0,0)" fill="rgb(0,0,0)" d="M 1061.96 179.339 L 1063.33 180.375 L 1061.96 179.339 z"/>
<path transform="translate(0,0)" fill="rgb(0,0,0)" d="M 1063.33 180.375 L 1063.95 180.794 L 1063.33 180.375 z"/>
<path transform="translate(0,0)" fill="rgb(0,0,0)" d="M 1065.96 182.051 L 1065.01 181.26 L 1065.96 182.051 z"/>
<path transform="translate(0,0)" fill="rgb(0,0,0)" d="M 1065.96 182.051 L 1066.99 182.756 L 1065.96 182.051 z"/>
<path transform="translate(0,0)" fill="rgb(0,0,0)" d="M 1106.89 206.108 L 1106.01 205.26 L 1106.89 206.108 z"/>
<path transform="translate(0,0)" fill="rgb(0,0,0)" d="M 1106.89 206.108 L 1108.4 207.366 L 1106.89 206.108 z"/>
<path transform="translate(0,0)" fill="rgb(0,0,0)" d="M 1108.4 207.366 L 1109.31 208.176 L 1108.4 207.366 z"/>
<path transform="translate(0,0)" fill="rgb(0,0,0)" d="M 1109.31 208.176 L 1110.4 209.156 L 1109.31 208.176 z"/>
<path transform="translate(0,0)" fill="rgb(0,0,0)" d="M 1110.4 209.156 L 1113.33 211.462 L 1110.4 209.156 z"/>
<path transform="translate(0,0)" fill="rgb(0,0,0)" d="M 1113.33 211.462 L 1114.1 212.349 L 1113.33 211.462 z"/>
<path transform="translate(0,0)" fill="rgb(0,0,0)" d="M 1114.1 212.349 L 1115.2 213.369 L 1114.1 212.349 z"/>
<path transform="translate(0,0)" fill="rgb(0,0,0)" d="M 1115.2 213.369 L 1116.19 214.347 L 1115.2 213.369 z"/>
<path transform="translate(0,0)" fill="rgb(0,0,0)" d="M 1116.19 214.347 L 1117.17 215.378 L 1116.19 214.347 z"/>
<path transform="translate(0,0)" fill="rgb(0,0,0)" d="M 1096.24 215.507 L 1095.28 215.005 L 1096.24 215.507 z"/>
<path transform="translate(0,0)" fill="rgb(0,0,0)" d="M 1117.17 215.378 L 1117.76 215.995 L 1117.17 215.378 z"/>
<path transform="translate(0,0)" fill="rgb(0,0,0)" d="M 1120.12 218.882 L 1119.01 217.257 L 1120.12 218.882 z"/>
<path transform="translate(0,0)" fill="rgb(0,0,0)" d="M 1120.12 218.882 L 1121.04 219.973 L 1120.12 218.882 z"/>
<path transform="translate(0,0)" fill="rgb(0,0,0)" d="M 1121.04 219.973 L 1121.69 220.664 L 1121.04 219.973 z"/>
<path transform="translate(0,0)" fill="rgb(0,0,0)" d="M 901.195 277.999 L 902.488 280.725 L 901.195 277.999 z"/>
<path transform="translate(0,0)" fill="rgb(0,0,0)" d="M 902.488 280.725 L 902.795 281.995 L 902.488 280.725 z"/>
<path transform="translate(0,0)" fill="rgb(0,0,0)" d="M 904.146 284.5 L 903.445 284.5 L 904.146 284.5 z"/>
<path transform="translate(0,0)" fill="rgb(0,0,0)" d="M 905.49 287.5 L 904.428 286.896 L 905.49 287.5 z"/>
<path transform="translate(0,0)" fill="rgb(0,0,0)" d="M 906.074 289.5 L 905.437 289.5 L 906.074 289.5 z"/>
<path transform="translate(0,0)" fill="rgb(0,0,0)" d="M 918.892 320.576 L 918.254 320.005 L 918.892 320.576 z"/>
<path transform="translate(0,0)" fill="rgb(0,0,0)" d="M 915.806 324.776 L 915.258 324.005 L 915.806 324.776 z"/>
<path transform="translate(0,0)" fill="rgb(0,0,0)" d="M 1000.57 659.91 C 998.192 654.686 995.64 649.751 992.712 644.812 C 995.283 636.52 996.974 626.281 1005.49 622.122 C 1007.12 621.325 1008.46 621.138 1010.24 620.995 L 1010.4 620.331 C 1012.23 618.819 1013.25 617.321 1015.68 617.221 C 1015.5 617.583 1015.31 617.943 1015.13 618.308 L 1014.3 620.011 C 1014.15 620.32 1013.98 620.621 1013.83 620.929 C 1009.12 630.464 1008.14 654.387 1000.57 659.91 z M 1004.8 630.393 L 1004.3 630.995 L 1004.8 630.393 C 1006.47 628.065 1007.31 627.092 1007.3 624.1 L 1006.4 624.192 C 1004.63 626.238 1005.01 627.78 1004.8 630.393 z M 1002.53 644.418 L 1003.18 645.827 L 1002.53 644.418 z M 1002.09 651.5 L 1002.85 651.5 L 1002.09 651.5 z"/>
<path transform="translate(0,0)" fill="rgb(0,0,0)" d="M 1151.37 671.33 L 1151.99 671.804 L 1151.37 671.33 z"/>
<path transform="translate(0,0)" fill="rgb(0,0,0)" d="M 1154.3 672.5 L 1153.22 672.5 L 1154.3 672.5 z"/>
<path transform="translate(0,0)" fill="rgb(0,0,0)" d="M 1172.37 679.426 L 1172.99 679.816 L 1172.37 679.426 z"/>
<path transform="translate(0,0)" fill="rgb(0,0,0)" d="M 1056.47 734.36 C 1057.52 732.874 1058.61 731.415 1059.74 729.984 C 1078.5 706.258 1109.57 695.656 1138.54 692.381 C 1172.13 689.441 1202.12 697.205 1231.74 712.874 L 1231.27 713.669 C 1223.17 712.496 1214.45 707.482 1206.53 705.001 C 1184.93 698.233 1158.74 696.702 1136.34 699.345 C 1104.03 705.432 1081.85 712.915 1056.47 734.36 z"/>
<path transform="translate(0,0)" fill="rgb(0,0,0)" d="M 1065.37 760.194 L 1064.51 761.216 C 1061.01 765.334 1057.25 769.6 1052.15 771.687 L 1050.96 770.806 C 1051.86 760.459 1063.56 745.258 1071.39 738.795 C 1103.49 712.307 1145.36 708.39 1185.2 712.759 C 1213.6 715.872 1240.71 725.826 1265.91 739.075 L 1264.54 739.524 C 1254.86 742.628 1245.38 740.584 1237.17 743.118 L 1238.54 745.8 L 1237.21 746.57 L 1235.87 744.631 L 1234.53 744.432 L 1234.7 746.736 C 1238.17 749.234 1243.61 752.389 1245.16 756.556 L 1244.39 758.592 C 1240.24 758.557 1237.12 754.585 1233.14 755.446 L 1232.02 756.966 C 1232.85 759.233 1233.77 761.349 1234.81 763.521 L 1233.55 764.881 C 1230.35 764.367 1229.02 760.86 1226.63 762.602 C 1218.11 768.785 1211.29 775.217 1201.79 780.115 C 1211.77 763.846 1218.72 752.779 1216.75 732.724 C 1208.08 730.787 1199.39 728.932 1190.68 727.16 C 1195.24 744.073 1198.37 756.111 1189.45 772.51 C 1183.1 781.999 1175.97 787.607 1164.48 789.889 C 1153.02 792.169 1140.5 791.036 1130.62 784.384 C 1121.07 777.946 1115.07 767.377 1113.22 756.12 C 1111.75 747.152 1112.98 738.361 1116.24 729.936 C 1096.83 737.665 1074.63 750.18 1065.58 770.194 C 1064.69 772.14 1064.01 774.163 1063.37 776.198 C 1090.97 788.25 1134.04 796.908 1163.75 793.876 C 1180.28 792.19 1196.11 787.469 1211.72 781.988 C 1192.78 797.66 1157.71 799.789 1134.24 797.544 C 1111.76 795.393 1081.45 788.788 1061.45 777.77 C 1062.63 771.872 1063.77 765.995 1065.37 760.194 L 1065.84 759.005 L 1065.37 760.194 z M 1133.28 739.336 L 1131.16 743.22 C 1131.74 744.859 1132.42 746.39 1133.17 747.958 C 1132.79 751.295 1131.37 753.679 1129.79 756.564 C 1130.1 760.665 1131.49 762.95 1134.5 765.591 C 1140.66 770.978 1148.99 774.015 1156.7 776.357 C 1164.32 772.256 1172.99 770.422 1179.65 764.815 L 1180.37 761.452 C 1179.94 761.119 1179.48 760.829 1179.09 760.455 C 1178.85 760.225 1177.57 758.525 1177.41 758.32 C 1176.1 756.631 1175.31 755.679 1173.24 754.913 C 1171.07 755.254 1170.3 755.189 1169.04 757.244 C 1166.68 761.1 1166.76 765.5 1162.12 767.638 C 1156.77 770.103 1148.1 766.14 1143.33 763.607 C 1141.77 762.784 1140.3 761.806 1138.84 760.82 C 1137.86 755.873 1137.61 743.16 1134.65 739.893 L 1133.28 739.336 z M 1124.79 749.458 C 1124.79 752.781 1124.27 755.192 1125.98 758.091 L 1129.63 759.644 C 1129.33 756.774 1129.44 752.46 1126.94 750.549 C 1126.17 749.955 1125.65 749.802 1124.79 749.458 z"/>
<path transform="translate(0,0)" fill="rgb(0,0,0)" d="M 1234.49 714.5 L 1233.27 714.5 L 1234.49 714.5 z"/>
<path transform="translate(0,0)" fill="rgb(0,0,0)" d="M 1236.21 715.5 L 1235.19 715.5 L 1236.21 715.5 z"/>
<path transform="translate(0,0)" fill="rgb(0,0,0)" d="M 730.372 723.868 L 730.859 724.819 L 730.372 723.868 z"/>
<path transform="translate(0,0)" fill="rgb(0,0,0)" d="M 917.151 736.473 L 917.746 736.995 L 917.151 736.473 z"/>
<path transform="translate(0,0)" fill="rgb(0,0,0)" d="M 857.198 745.506 L 857.753 745.995 L 857.198 745.506 z"/>
<path transform="translate(0,0)" fill="rgb(0,0,0)" d="M 1171.98 762.954 L 1172.99 761.843 L 1171.98 762.954 z"/>
<path transform="translate(0,0)" fill="rgb(0,0,0)" d="M 1171.15 763.834 L 1171.98 762.954 L 1171.15 763.834 z"/>
<path transform="translate(0,0)" fill="rgb(0,0,0)" d="M 673.359 766.27 L 673.995 766.749 L 673.359 766.27 z"/>
<path transform="translate(0,0)" fill="rgb(0,0,0)" d="M 670.682 961.083 C 669.593 960.253 668.532 959.403 667.457 958.556 C 656.767 950.132 649.693 936.941 641.505 926.206 C 636.596 919.77 630.757 913.794 626.284 907.065 C 606.441 877.21 593.415 807.208 600.284 772.58 C 612.399 780.805 634.694 817.703 637.735 832.046 C 642.09 852.585 639.963 875.757 646.621 895.774 C 650.243 906.665 659.89 913.939 664.683 924.077 C 665.715 926.259 666.547 927.248 665.754 929.557 C 662.209 928.832 659.384 926.018 656.914 923.512 C 628.138 894.319 626.697 862.202 627.251 823.414 C 628.176 827.037 629.115 830.218 630.792 833.568 C 630.445 822.577 617.096 809.462 611.609 800.09 C 609.663 796.766 608.24 793.082 606.798 789.517 L 607.178 810.75 C 607.677 842.692 610.033 856.438 621.063 886.215 C 624.293 894.936 626.896 903.209 633.128 910.375 C 650.845 930.747 661.658 932.592 670.682 961.083 z"/>
<path transform="translate(0,0)" fill="rgb(0,0,0)" d="M 788.079 783.114 L 789.123 782.877 L 788.079 783.114 z"/>
<path transform="translate(0,0)" fill="rgb(0,0,0)" d="M 789.123 782.877 L 788.525 784.199 L 789.123 782.877 z"/>
<path transform="translate(0,0)" fill="rgb(0,0,0)" d="M 1445.5 868.184 L 1444.46 866.619 C 1449.68 859.326 1450.92 852.511 1451.17 843.68 L 1452.41 844.866 C 1453.21 847.706 1453.6 850.206 1453.44 853.176 C 1453.08 859.544 1450.27 864.178 1445.5 868.184 z"/>
<path transform="translate(0,0)" fill="rgb(0,0,0)" d="M 934.9 996.798 C 917.514 989.495 895.319 974.405 886.777 956.919 C 884.185 951.614 883.315 945.962 883.96 940.111 C 885.8 923.403 895.308 905.909 901.544 890.333 C 905.452 880.571 908.947 870.627 912.505 860.733 C 915.714 879.012 897.101 920.516 893.108 940.818 C 901.937 955.947 937.37 983.119 942.676 996.77 C 940.091 997.853 937.652 997.098 934.9 996.798 z"/>
<path transform="translate(0,0)" fill="rgb(0,0,0)" d="M 1356.88 938.703 L 1356.58 936.801 C 1359.93 932.551 1366.82 931.617 1371.25 928.482 C 1378.37 923.443 1383.35 915.609 1390.88 910.975 C 1397.42 906.945 1404.99 905.646 1411.33 901.019 L 1411.39 903.439 C 1409.34 906.55 1406.98 908.987 1404.22 911.458 C 1392.1 922.298 1373.87 939.537 1356.88 938.703 z"/>
<path transform="translate(0,0)" fill="rgb(0,0,0)" d="M 1003.17 988.789 C 998.156 989.063 993.867 988.604 989.133 986.805 C 980.084 983.364 968.118 976.034 963.888 967.036 C 974.323 966.579 991.283 976.234 999.444 982.468 C 1002.2 984.576 1002.75 985.357 1003.17 988.789 z"/>
<path transform="translate(0,0)" fill="rgb(0,0,0)" d="M 997.086 1059.9 C 992.147 1062.24 987.195 1064.65 982.03 1066.45 C 968.746 1071.09 950.722 1072.74 937.709 1066.2 C 933.25 1063.96 928.797 1061.07 927.111 1056.17 C 941.155 1057.51 953.498 1063.44 968.043 1062.12 C 977.46 1061.26 989.989 1054.32 998.989 1056.77 L 999.588 1058.06 L 997.086 1059.9 z"/>
<path transform="translate(0,0)" fill="rgb(0,0,0)" d="M 978.39 1110.61 C 1008.55 1094.67 1024.86 1092.78 1058.72 1091.95 C 1066.82 1091.75 1075.31 1093.2 1083.26 1091.4 C 1089.51 1089.99 1096.42 1084.54 1102.59 1081.94 L 1107.56 1081.83 C 1109.22 1082.64 1110.4 1083.23 1111.48 1084.81 C 1112.95 1086.98 1113.43 1089.63 1112.74 1092.17 C 1112.06 1094.67 1110.44 1096.52 1108.21 1097.79 C 1099.24 1102.91 1068.05 1099.13 1056.81 1099.28 C 1045.83 1099.42 1034.05 1099.95 1023.31 1102.1 C 1006.88 1105.39 992.38 1117.94 975.738 1118.32 C 960.223 1118.67 946.464 1108.7 931.081 1107.06 C 921.196 1106 910.623 1105.96 900.695 1106.57 C 888.651 1107.31 874.812 1111.14 863.132 1107.56 C 862.684 1107.1 862.232 1106.65 861.789 1106.19 C 859.301 1103.6 858.121 1101.53 858.292 1097.83 C 858.445 1094.54 859.506 1092.84 861.935 1090.74 C 867.485 1089.41 872.788 1092.79 877.504 1095.38 C 892.259 1103.51 917.692 1096.75 934.98 1099.3 C 950.002 1101.5 963.126 1109.14 978.39 1110.61 z"/>
<path transform="translate(0,0)" fill="rgb(0,0,0)" d="M 913.744 1163.62 C 952.841 1178.42 1007.52 1170.85 1045.67 1156.24 L 1045.55 1157.33 C 1033.17 1167 1016.4 1176.04 1001.54 1180.91 C 975.352 1189.5 949.06 1184.35 925.069 1172.02 L 913.744 1163.62 z"/>
<path transform="translate(0,0)" fill="rgb(0,0,0)" d="M 1009.55 1504.31 C 1007.41 1503.57 1005.83 1502.78 1003.93 1501.52 C 976.292 1483.08 964.921 1438.28 958.746 1407.68 C 963.843 1413.8 966.845 1425.54 969.822 1433 C 980.692 1460.24 989.929 1482 1009.55 1504.31 z"/>
</svg>