<svg version="1.1" xmlns="http://www.w3.org/2000/svg" style="display: block;" viewBox="0 0 2048 2048" width="1024" height="1024">
<path transform="translate(0,0)" fill="rgb(255,255,255)" d="M 0 0 L 0 2048 L 2048 2048 L 2048 0 L 0 0 z"/>
<path transform="translate(0,0)" fill="rgb(0,0,0)" d="M 657.472 106.15 C 663.78 99.975 671.143 94.6686 678.077 89.194 C 718.474 57.3002 768.566 30.6021 821.143 31.0086 C 849.293 31.2263 875.341 39.0104 898.541 54.9956 C 917.765 27.5496 948.414 11.2474 981.118 5.37799 C 1026.38 -2.74469 1097.86 9.79304 1141.56 21.6819 C 1161.27 27.0433 1180.61 34.1928 1199.9 40.8672 C 1218.89 47.4331 1238.14 53.7238 1256.23 62.5191 C 1284.15 76.0896 1310.26 94.7486 1335.6 112.547 C 1393.06 152.902 1451.1 205.303 1521.48 219.046 C 1535.04 221.692 1549.5 223.281 1563.22 221.003 C 1581.97 217.892 1598.2 205.765 1613.52 195.265 C 1593.58 227.026 1551.05 257.479 1514.44 265.985 C 1510.67 266.843 1506.87 267.6 1503.05 268.254 C 1564.32 319.18 1608.3 396.648 1615.48 476.486 C 1617.94 503.911 1617.49 532.73 1606.87 558.56 C 1607.51 547.282 1607.84 536.478 1605.66 525.34 C 1600.66 499.715 1576.74 455.335 1560.71 434.61 L 1560.17 434.005 L 1560.71 434.61 L 1560.94 435.509 C 1564.78 449.742 1571.39 463.418 1575.87 477.508 C 1585.66 508.319 1591.13 544.143 1589.74 576.535 C 1589.31 586.6 1587.65 596.377 1586.7 606.353 C 1616.64 648.272 1646.7 670.762 1694.37 689.719 C 1656.61 693.428 1621.47 684.181 1591.92 659.795 C 1589.07 657.439 1586.27 655.03 1583.51 652.569 C 1586.84 716.993 1574.16 749.403 1540.26 802.221 C 1550.13 816.36 1561.96 826.985 1579.53 830.248 C 1586.4 831.523 1593.52 831.226 1600.48 831.172 C 1562.34 844.705 1541.71 838.579 1505.94 822.718 C 1513.16 843.406 1519.14 864.204 1540.58 874.505 C 1545.5 876.871 1550.86 878.245 1556.1 879.713 C 1535.08 884.904 1519.34 882.479 1498.74 876.226 C 1499.68 911.95 1490.37 952.765 1465.13 979.403 C 1456.02 989.017 1444.8 996.968 1436.95 1007.67 C 1431.55 1015.02 1427.55 1023.71 1423.02 1031.63 C 1408.67 1056.74 1391.11 1066.95 1362.61 1069.94 C 1355.31 1095.6 1348.08 1121.24 1337.72 1145.88 C 1333.03 1157.02 1325.35 1166.59 1320.01 1177.36 C 1314.61 1188.23 1312.84 1204.66 1310.63 1216.61 C 1310.94 1216.79 1311.25 1216.98 1311.56 1217.16 C 1329.71 1227.47 1359.73 1236.55 1379.97 1245.07 C 1441.07 1270.82 1446.57 1311.54 1480.76 1360.22 C 1522.96 1370.83 1575.93 1383.41 1605.07 1417.92 C 1618.84 1434.23 1629.44 1452.64 1644.02 1468.44 C 1659.82 1485.56 1681.21 1499.13 1693.05 1518.92 C 1697.72 1526.71 1701.42 1534.99 1704.86 1543.38 C 1732.84 1557.8 1761.42 1571.21 1789.05 1586.27 C 1807.25 1596.19 1824.82 1607.26 1842.6 1617.91 C 1891.56 1647.21 1939.05 1677.74 1984.3 1712.58 C 1997.33 1722.62 2012.31 1731.37 2023.68 1743.29 C 2033.64 1753.73 2040.66 1766.8 2048 1779.11 L 2048 1824.24 C 2038.7 1796.21 2031.7 1770.93 2009.46 1750.05 C 2012.71 1761.6 2012.26 1772.08 2011.84 1783.91 C 2035.11 1797.12 2037.39 1824.16 2048 1846.14 L 2048 2048 L 1978.71 2048 L 2001.6 1871.65 C 2004.72 1846.38 2009.87 1820.53 2010.71 1795.11 C 2009.35 1796.71 1976.95 1977.7 1973.44 1998.47 C 1970.66 2014.91 1968.53 2031.48 1966.27 2048 L 1573.59 2048 C 1575.13 2012.42 1576.98 1976.85 1579.14 1941.3 C 1580.89 1910.27 1583.33 1879.2 1582.69 1848.11 C 1570.67 1859.15 1560.74 1873.45 1550.04 1885.84 C 1547.89 1904.84 1547.64 1924.08 1546.5 1943.16 C 1544.28 1978.1 1542.24 2013.04 1540.39 2048 L 1374.03 2048 C 1392.35 2032.98 1409.38 2016.29 1426.42 1999.86 C 1467.2 1960.55 1505.56 1919.53 1543.1 1877.2 C 1573.76 1842.64 1605.17 1807.91 1632.68 1770.75 C 1650.95 1746.07 1688.32 1686.34 1697.07 1658.57 C 1710.01 1617.48 1709.56 1575.9 1689.65 1537.49 C 1691.2 1543.88 1692.65 1550.22 1693.4 1556.76 C 1695.5 1574.17 1693.72 1591.82 1688.18 1608.46 C 1677.88 1639.63 1659.51 1667.82 1642.29 1695.54 C 1608.58 1749.82 1569.99 1800.57 1530.98 1851.05 C 1513.55 1873.6 1496.93 1896.62 1478.62 1918.51 L 1404.81 2005.39 C 1392.68 2019.58 1380.01 2033.31 1368.47 2048 L 1323.06 2048 C 1438.2 1920.06 1556.07 1791.48 1637.91 1638.8 C 1656.69 1603.78 1678.18 1561.67 1680.37 1521.49 C 1674.7 1513.64 1666.28 1507.81 1659.01 1501.48 C 1650.93 1494.43 1643.1 1487.13 1635.87 1479.19 C 1620.76 1462.58 1609.66 1443.62 1595.53 1426.42 C 1574.8 1401.2 1521.89 1385.22 1490.6 1377.33 C 1502.09 1386.27 1512.95 1398.19 1522.82 1408.93 C 1543.38 1412.72 1566.74 1424.77 1583.07 1437.76 C 1603.26 1453.81 1613.15 1474.24 1615.94 1499.71 C 1621.44 1550.03 1604.09 1611.43 1583.05 1656.96 C 1566.9 1691.9 1544.23 1724.98 1522.8 1756.87 C 1502.85 1786.56 1482.59 1816.7 1460.97 1845.2 C 1449.02 1860.95 1435.99 1875.9 1423.66 1891.35 L 1297.07 2048 L 1222.78 2048 C 1232.64 2018.9 1239.68 1988.51 1247.4 1958.77 C 1256.7 1924.13 1266.2 1889.55 1275.92 1855.02 C 1289.41 1807.93 1304.11 1761.17 1317.43 1714.03 C 1325.53 1685.37 1332.52 1656.32 1340.01 1627.49 C 1346.41 1602.86 1357.29 1572.75 1358.49 1547.7 C 1362.29 1468.04 1335.56 1361.75 1304.01 1289.2 L 1302.85 1288.79 C 1302.33 1293.71 1317.19 1330.95 1319.79 1339.31 C 1334.65 1387.18 1349.83 1436.96 1353.77 1487.08 C 1355.51 1509.21 1357.59 1536.44 1354.33 1558.35 C 1350.39 1584.74 1341.84 1611.47 1335.15 1637.34 C 1316.34 1708.4 1296.08 1779.06 1274.39 1849.29 C 1254.62 1915.25 1239.27 1982.37 1218.23 2048 L 1201.71 2048 C 1211.52 1998.55 1229.1 1950.09 1243.6 1901.9 L 1300.97 1704.71 C 1285.01 1719.75 1269.94 1735.76 1253.81 1750.6 C 1205.94 1794.65 1156.06 1831.84 1100.14 1865.29 C 1071.08 1882.67 1039.97 1899.72 1007.2 1908.79 C 928.963 1890.06 777.66 1785.6 724.401 1724.8 C 743.178 1768.31 758.437 1813.59 775.896 1857.67 L 817.693 1962.67 C 829.365 1991.16 841.691 2019.25 852.785 2048 L 779.574 2048 C 756.807 2023.74 732.941 2000.52 710.095 1976.35 C 682.786 1947.45 656.691 1917.47 629.871 1888.13 C 577.852 1831.23 524.515 1772.05 485.748 1705.03 C 455.04 1651.94 426.745 1572.45 426.531 1510.5 C 426.465 1491.62 429.578 1472.95 434.661 1454.8 C 437.508 1444.64 441.052 1432.73 447.114 1423.97 C 458.048 1408.19 480.666 1400.68 496.285 1390.17 C 503.292 1385.46 509.426 1379.54 515.377 1373.57 L 515.933 1373.15 L 515.377 1373.57 C 501.393 1378.22 488.342 1385 475.177 1391.52 C 449.308 1404.34 426.143 1414.35 412.53 1441.48 C 384.722 1496.88 399.058 1602.7 418.768 1660.57 C 438.129 1717.41 470.844 1767.84 507.988 1814.54 C 555.674 1874.5 609.478 1927.72 664.63 1980.71 C 687.93 2003.1 711.786 2024.98 734.464 2048 L 699.785 2048 C 676.155 2032.57 654.945 2011.2 634.315 1992.04 C 563.592 1926.32 488.151 1851.89 437.501 1769.49 C 405.817 1717.95 385.057 1662.62 376.523 1602.61 C 373.905 1584.21 372.008 1565.13 373.429 1546.57 C 374.886 1527.56 380.523 1508.42 384.929 1489.89 C 383.112 1492.15 381.32 1494.43 379.556 1496.73 C 367.553 1512.44 356.153 1540.87 353.774 1560.64 C 352.799 1568.74 353.854 1576.87 354.95 1584.89 C 374.708 1729.63 445.917 1824.05 547.021 1924.59 C 591.302 1968.65 638.32 2009.87 687.795 2048 L 535.171 2048 C 532.772 2005.18 528.483 1962.05 524.772 1919.3 C 511.82 1906.55 498.769 1893.05 488.23 1878.21 C 492.677 1934.86 497.535 1991.24 500.546 2048 L 96.8271 2048 C 87.8299 2016.03 81.8619 1983.26 75.7126 1950.65 C 66.4832 1902.2 58.6094 1853.51 52.1003 1804.62 C 49.4752 1783.85 47.6132 1763.02 45.6438 1742.18 C 44.4699 1729.76 44.0097 1716.67 40.9836 1704.55 C 40.8731 1719.53 42.2555 1734.69 43.2162 1749.64 C 45.6911 1788.92 49.5686 1828.11 54.841 1867.12 C 62.4887 1927.6 69.8818 1988.98 85.5801 2048 L 0 2048 L 0 1748.85 C 13.0911 1728.87 20.466 1712.64 39.5804 1697.03 L 36.4041 1682.27 C 19.8497 1695.46 10.7476 1714.66 0 1732.37 L 0 1703.46 C 10.4356 1687.18 22.1292 1673.51 37.7527 1661.99 C 69.7952 1638.35 107.089 1620.93 142.41 1602.79 C 199.692 1573.36 257.144 1544.5 316.451 1519.34 C 330.324 1513.46 345.156 1505.66 359.69 1501.91 C 367.731 1489.63 377.74 1478.99 388.521 1469.11 C 392.044 1454.17 396.516 1440.31 404.519 1427.1 C 409.838 1418.32 416.299 1410.74 424.376 1404.39 C 448.731 1385.22 499.457 1365.73 529.923 1358.26 C 545.172 1340.42 556.728 1319.58 572.501 1301.97 C 580.327 1293.24 588.884 1284.95 598.707 1278.48 C 633.341 1255.66 691.857 1241.48 732.229 1231.5 C 730.601 1213.77 730.523 1184.93 726.033 1168.86 C 722.534 1156.34 712.396 1144.94 707.009 1132.86 C 694.493 1104.79 685.311 1075.96 677.165 1046.37 C 668.951 1050.8 662.019 1052.52 652.666 1050.63 C 645.172 1049.12 636.84 1045.75 630.752 1041.11 C 612.957 1027.57 600.656 1008.21 585.652 991.863 C 572.559 977.599 556.496 964.895 545.897 948.607 C 524.608 915.887 529.44 879.032 536.881 842.731 C 515.673 872.393 504.204 887.151 469.547 900.641 C 508.895 857.721 500.267 792.314 498.934 738.933 C 493.923 749.338 488.608 759.529 481.03 768.333 C 464.975 786.985 446.596 793.443 422.663 795.344 C 429.897 791.909 436.559 788.497 442.365 782.835 C 461.77 763.915 470.983 725.375 471.118 699.327 C 432.764 636.032 442.267 602.617 457.967 534.001 C 444.529 560.064 433.706 587.802 429.452 616.93 C 422.898 661.811 430.168 690.902 457.114 726.88 C 440.628 715.057 429.068 699.99 420.34 681.76 C 392.099 622.771 404.572 560.894 427.054 502.514 C 434.641 482.812 443.506 463.641 450.481 443.7 C 438.066 448.984 424.289 449.572 411.105 447.328 C 384.852 442.858 360.326 425.759 344.998 404.284 C 358.437 413.978 373.63 422.097 390.427 423.573 C 447.47 428.588 490.108 351.681 516.913 310.697 C 530.968 289.044 545.609 267.776 560.82 246.919 C 589.069 208.795 619.761 172.868 656.315 142.418 C 701.404 104.859 786.718 62.2522 846.712 67.6779 C 794.807 49.0308 743.188 64.4219 695.411 87.1258 C 683.255 92.9023 670.909 101.61 658.31 105.881 C 658.032 105.975 657.751 106.06 657.472 106.15 z M 1001.51 25.7738 C 972.641 25.9482 927.693 49.6866 907.611 69.8571 C 902.34 75.1519 894.775 83.1819 892.71 90.4754 L 892.236 90.995 L 892.71 90.4754 C 894.256 89.1191 893.713 89.7167 894.9 88.2558 C 914.695 63.8896 939.359 44.8233 969.65 35.2818 C 979.847 32.0696 990.866 30.2678 1000.7 26.1265 C 1000.98 26.0125 1001.24 25.8914 1001.51 25.7738 L 1002 25.2491 L 1001.51 25.7738 z M 1101.01 128.135 L 1102.09 128.697 C 1116.92 136.316 1133.49 141.252 1148.58 148.703 C 1191.65 169.974 1232.07 199.3 1267.9 231.139 C 1301.41 260.904 1332.64 296.968 1357.42 334.297 C 1367.77 349.901 1376.24 366.378 1384.94 382.926 C 1419.56 448.743 1444.55 517.096 1449.98 591.71 C 1451.54 613.16 1451.76 635.004 1449.64 656.422 C 1448.42 668.664 1444.77 682.436 1445.48 694.6 L 1446.13 693.288 C 1448.36 680.273 1450.84 667.197 1452.17 654.053 C 1459.17 584.751 1451.09 519.456 1430.71 453.003 C 1416.97 408.205 1400.75 370.031 1370.8 333.307 C 1309.98 258.725 1237.85 188.829 1150.44 146.459 C 1136.54 139.723 1117.39 130.255 1102.09 128.697 L 1101.01 128.135 z M 693.52 135.721 L 692.611 137.324 L 690.902 138.423 C 677.008 145.287 664.406 157.171 652.833 167.46 C 609.98 205.557 572.534 252.461 543.279 301.732 C 532.664 319.608 523.361 338.314 513.622 356.677 C 505.766 371.488 495.975 386.374 490.626 402.324 C 490.572 402.485 490.529 402.648 490.48 402.811 L 489.793 404.477 L 489.229 404.995 L 489.793 404.477 L 490.48 402.811 C 497.242 392.981 502.412 381.231 508.553 370.89 C 519.773 351.996 543.943 320.196 560.189 305.543 C 551.203 332.224 528.385 364.187 523.605 390.768 L 523.236 391.995 L 523.605 390.768 C 531.909 378.553 537.993 362.113 543.918 348.505 C 536.313 382.696 516.096 412.557 505.979 445.919 C 512.242 435.067 517.547 423.675 524.078 412.964 C 536.867 391.992 550.834 371.903 562.934 350.491 C 580.469 319.46 595.875 287.326 614.698 257.066 L 615.793 256.653 L 616.206 255.159 L 615.463 255.348 L 614.698 257.066 C 603.578 267.266 585.294 291.962 579.396 305.746 C 579.307 305.098 579.205 304.451 579.128 303.802 C 578.195 295.926 581.309 287.369 580.935 279.279 L 580.12 278.644 C 574.928 283.534 572.771 290.402 567.842 295.44 C 573.307 255.513 631.432 192.682 660.421 165.016 C 669.946 155.926 680.752 148.256 690.192 139.12 L 690.902 138.423 L 692.611 137.324 L 693.52 135.721 L 694.995 135.231 L 693.52 135.721 z M 772.109 137.46 L 771.005 137.915 L 772.109 137.46 C 807.789 126.719 832.468 115.951 870.292 128.641 C 877.506 131.061 883.851 134.888 890.887 137.491 L 891.733 137.995 L 890.887 137.491 C 890.446 137.017 890.017 136.532 889.565 136.069 C 878.44 124.687 854.436 121.223 839.346 120.981 C 822.621 120.713 784.611 125.383 772.109 137.46 z M 812.545 179.876 C 781.381 181.34 738.022 219.026 717.936 241.095 C 654.994 310.253 620.549 381.868 597.129 471.756 C 592.382 489.974 584.676 515.967 585.08 534.671 C 592.454 507.62 599.539 480.938 609.483 454.656 C 619.868 427.206 632.97 400.855 645.3 374.243 C 677.885 303.919 712.389 232.882 782.794 192.837 C 792.465 187.337 802.111 183.568 812.545 179.876 L 812.995 179.25 L 812.545 179.876 z M 904.67 183.387 L 904.245 183.941 L 904.67 183.387 C 914.33 175.592 920.59 165.502 931.745 159.033 C 954.249 145.982 979.73 148.824 1003.83 155.265 C 1023.15 160.428 1041.45 168.748 1059.46 177.318 C 1140.58 215.929 1199.19 273.608 1253.05 344.149 C 1278.53 377.524 1301.16 410.919 1322.47 447.117 C 1332.71 464.507 1342.22 482.603 1351.19 500.685 C 1355.68 509.729 1359.08 519.287 1364.18 528.024 L 1364.72 527.319 L 1363.56 523.232 C 1359.52 515.653 1356.78 506.655 1353.49 498.673 C 1344.39 476.536 1335.8 453.81 1325.14 432.372 C 1307.44 396.785 1283.44 363.796 1257.75 333.603 C 1203.81 270.207 1103.61 179.302 1023.26 152.533 C 995.411 143.256 963.516 138.193 936.318 152.04 C 924.324 158.146 909.07 170.168 904.67 183.387 z M 1355.01 187.025 L 1357 188 L 1359 188.636 C 1363.78 192.653 1372.03 195.004 1377.88 197.253 C 1412.82 210.701 1470.1 228.401 1507.35 228.903 C 1497.45 225.376 1485.96 223.762 1475.68 221.431 C 1456.1 217.086 1436.62 212.337 1417.25 207.187 C 1397.71 201.951 1378.7 192.762 1359 188.636 L 1357 188 L 1355.01 187.025 z M 1461.19 275.005 L 1461.63 276.492 L 1463.05 278.074 C 1466.29 289.939 1473.53 302.294 1478.52 313.657 C 1485.79 330.215 1492.22 347.369 1498.1 364.462 C 1512.16 405.316 1519.84 447.567 1532.22 488.833 C 1539.73 513.845 1550.24 537.798 1560.77 561.646 C 1565.62 572.634 1570.57 586.765 1578.36 595.901 L 1578.89 596.995 L 1578.36 595.901 C 1575.3 585.28 1570.11 574.601 1566.06 564.24 C 1557.21 542.171 1548.95 519.873 1541.27 497.37 C 1532.37 470.659 1527.32 443.176 1520.23 416.005 C 1510.12 377.975 1496.2 341.06 1478.7 305.817 C 1474.33 297.181 1469.52 285.184 1463.05 278.074 L 1461.63 276.492 L 1461.19 275.005 z M 1474.01 275.182 L 1474.59 275.638 C 1480.96 282.713 1488.27 288.922 1494.53 296.068 C 1512.11 316.132 1527.94 341.153 1541.66 363.931 C 1549.66 377.225 1558.47 398.744 1567.4 409.951 L 1567.96 410.995 L 1567.4 409.951 C 1567.08 408.38 1566.71 406.987 1566.13 405.487 C 1549.89 363.501 1529.04 320.135 1494.67 290.174 C 1488.7 284.968 1481.87 278.887 1474.59 275.638 L 1474.01 275.182 z M 637.539 277.631 L 637.138 279.016 C 626.708 285.516 617.907 298.132 609.798 307.397 C 594.664 324.687 578.592 342.081 566.31 361.601 C 555.547 378.708 547.625 397.917 539.345 416.305 C 516.711 466.572 495.138 517.575 482.689 571.438 C 479.975 583.181 476.438 596.386 476.813 608.434 C 477.086 607.821 477.371 607.214 477.631 606.596 C 480.266 600.329 480.501 592.137 481.772 585.371 C 483.874 573.755 486.486 562.236 489.599 550.849 C 501.711 507.611 520.221 467.122 540.841 427.41 C 560.114 390.29 581.82 352.628 605.713 318.275 C 612.528 308.477 633.287 287.331 637.138 279.016 L 637.539 277.631 L 638.995 277.157 L 637.539 277.631 z M 807 292 L 806.347 292.68 C 792.7 302.921 781.018 318.483 770.016 331.496 C 735.74 372.036 701.108 422.416 685.943 473.952 C 681.614 488.665 679.405 504.63 677.231 519.797 C 675.089 534.735 672.316 561.952 676.077 576.382 C 676.186 576.043 676.319 575.71 676.404 575.364 C 678.46 567.043 677.152 555.922 677.767 547.159 C 678.878 531.323 682.54 515.523 686.908 500.289 C 704.408 439.265 740.917 383.359 776.582 331.545 C 784.14 320.565 801.346 302.312 806.347 292.68 L 807 292 L 807.995 291.005 L 807 292 z M 1361.19 293.005 L 1361.7 293.571 C 1369.28 308.716 1405.19 365.665 1415.69 374.244 C 1416.95 375.272 1418.16 376.368 1419.39 377.427 L 1419.82 377.995 L 1419.39 377.427 C 1418.29 372.501 1414.46 367.056 1412.6 362.183 C 1428.31 381.871 1440.11 408.369 1450.02 431.421 C 1453.48 439.456 1456.5 452.416 1461.83 459 C 1461.83 458.62 1461.86 458.239 1461.84 457.859 C 1461.42 450.265 1457.5 441.364 1454.99 434.146 C 1443.81 401.903 1420.77 346.081 1396.86 321.534 L 1396.22 321.145 L 1396.86 321.534 C 1399.69 329.318 1400.79 336.211 1401.09 344.517 C 1387.14 330.608 1376.52 308.609 1361.7 293.571 L 1361.19 293.005 z M 1019.25 320.005 L 1019.79 320.616 C 1022.58 332.966 1026.8 344.96 1030.04 357.193 C 1031.67 363.334 1032.4 369.773 1034.16 375.836 C 1036.05 382.348 1038.98 388.754 1039.75 395.503 L 1039.21 396.031 C 1034.51 385.577 1030.35 374.879 1025.94 364.301 L 1030.64 389.727 C 1026.92 381.918 1023.83 373.305 1018.83 366.236 C 1021.14 379.235 1025.14 391.841 1027.17 404.862 C 1009.46 363.584 990.429 323.323 976.884 280.401 C 971.126 262.153 967.453 244.128 965.404 225.132 C 965.037 221.731 965.129 216.902 963.56 213.899 C 961.332 232.874 966.674 255.203 970.446 273.835 C 986.059 350.135 1011.61 424.056 1046.46 493.707 C 1051.19 503.327 1056.7 512.566 1061.58 522.112 C 1068.77 536.16 1077.83 557.439 1087.71 569.196 C 1087.93 569.464 1088.18 569.708 1088.42 569.964 L 1089.28 571.39 L 1089.82 571.995 L 1089.28 571.39 L 1088.42 569.964 C 1083.71 555.751 1075.61 542.258 1070.16 528.19 C 1054.36 487.414 1037.31 437.687 1027.94 394.902 C 1032.86 406.326 1046.24 444.15 1054.66 450.425 C 1054.08 447.72 1053.3 445.022 1053.47 442.238 C 1056.63 446.453 1058.74 452.295 1060.83 457.114 C 1070.42 479.211 1077.87 510.442 1089.45 530.157 L 1090.4 532.697 L 1090.96 533.995 L 1090.4 532.697 L 1089.45 530.157 C 1086.7 515.065 1079.02 497.034 1074.45 482.017 C 1064.44 447.912 1053.97 413.941 1043.06 380.113 C 1036.72 360.781 1030.29 338.154 1019.79 320.616 L 1019.25 320.005 z M 1113.21 334.005 L 1113.7 335.418 L 1115.51 336.215 L 1116.19 337.293 L 1116.68 337.82 C 1125.31 353.318 1138.15 367.338 1148.46 381.811 C 1167.52 408.554 1185.57 436.653 1206.26 462.162 C 1224.48 484.613 1245 504.96 1263.93 526.758 C 1273.49 537.758 1283.57 553.489 1294.56 562.466 L 1295.16 563.2 L 1296.23 564.387 L 1296.78 564.995 L 1296.23 564.387 L 1295.16 563.2 L 1294.56 562.466 C 1289.37 552.26 1280.03 542.128 1273.31 532.683 C 1236.27 479.699 1196.48 428.686 1154.11 379.853 C 1142.2 366.051 1130.24 349.93 1116.68 337.82 L 1116.19 337.293 L 1115.51 336.215 L 1113.7 335.418 L 1113.21 334.005 z M 697.429 344.083 C 691.753 352.657 687.618 362.946 683.316 372.273 C 667.552 406.455 653.276 441.552 646.54 478.763 C 643.462 495.765 643.232 513.011 640.412 529.946 L 641.455 530.656 L 641.594 529.319 C 644.317 504.808 649.197 475.996 663.443 455.564 C 657.015 470.334 654.558 485.184 654.634 501.26 C 657.501 490.193 660.336 471.408 665.217 461.966 L 665.263 463.217 L 664.849 462.389 L 664.506 463.17 L 665.112 464.453 C 662.683 477.641 654.995 504.056 654.754 515.256 L 654.369 516.27 L 654.754 515.256 C 659.546 500.645 664.571 486.112 669.827 471.662 C 667.355 491.419 658.394 519.15 660.338 538.184 C 662.803 531.988 662.418 525.546 663.922 519.158 C 667.113 505.609 671.599 492.057 675.611 478.72 C 687.459 439.34 702.021 401.135 715.681 362.395 C 706.106 378.505 697.245 395.664 689.537 412.752 C 684.66 423.563 680.712 435.299 674.733 445.533 C 673.039 441.228 678.143 431.572 679.509 427.074 L 679.995 426.005 L 679.509 427.074 C 676.438 431.686 674.325 436.942 672.006 441.964 C 673.279 435.456 674.457 428.93 675.538 422.388 L 668.057 440.641 C 671.351 418.73 678.022 397.701 685.776 377.015 C 689.718 366.498 695.424 355.11 697.429 344.083 L 697.966 343.005 L 697.429 344.083 z M 1221.01 381.169 L 1221.41 381.677 C 1227.95 392.243 1237.13 401.502 1244.39 411.702 C 1265.89 441.88 1287.44 472.699 1307.13 504.083 C 1321.97 527.724 1336.57 551.957 1349.89 576.484 C 1356.99 589.573 1366.66 614.187 1375.51 624.936 C 1375.9 626.345 1376.06 626.814 1377 628 L 1378.42 630.833 L 1379.24 632.486 L 1380.32 634.631 L 1381.29 636.571 L 1382.3 638.577 L 1383.34 640.493 L 1383.82 640.995 L 1383.34 640.493 L 1382.3 638.577 L 1381.29 636.571 L 1380.32 634.631 L 1379.24 632.486 L 1378.42 630.833 L 1377 628 C 1376.58 625.531 1377.14 626.519 1375.51 624.936 C 1373.38 614.684 1362.67 596.613 1357.66 586.37 C 1326.22 522.145 1298.71 472.918 1253.39 417.179 C 1243.7 405.26 1233.2 391.517 1221.41 381.677 L 1221.01 381.169 z M 1113.24 428.005 L 1113.69 429.472 L 1114.48 430.344 C 1118.55 442.023 1125.55 453.303 1131.02 464.462 C 1145.25 493.512 1159.2 522.245 1174.88 550.575 C 1178.39 556.924 1182.54 566.668 1187.55 571.836 L 1188.26 573.421 L 1189.2 574.27 L 1190.33 576.721 L 1191.28 578.533 L 1191.99 579.891 L 1191.28 578.533 L 1190.33 576.721 L 1189.2 574.27 L 1188.26 573.421 L 1187.55 571.836 C 1184.7 561.362 1177.51 550.121 1172.77 540.262 C 1161.4 516.578 1130.53 447.734 1114.48 430.344 L 1113.69 429.472 L 1113.24 428.005 z M 799.312 437.499 C 776.127 462.882 744.228 559.06 742.76 594.327 C 742.587 595.068 742.225 596.107 742.239 596.858 C 742.908 594.752 742.934 595.613 742.76 594.327 C 746.872 584.367 747.791 571.556 750.378 561.056 C 754.488 544.373 760.195 528.036 765.949 511.861 C 772.043 494.729 779.588 478.643 787.511 462.314 C 791.442 454.212 796.411 445.997 799.312 437.499 L 799.813 437.005 L 799.312 437.499 z M 931.121 395.621 C 930.074 416.111 946.086 498.32 955.433 516.389 L 955.761 517.326 L 955.433 516.389 C 954.743 508.909 952.088 500.99 950.293 493.653 C 946.879 480.08 943.727 466.443 940.841 452.748 C 937.086 434.192 936.589 413.583 931.121 395.621 z M 1365.08 530.005 L 1366.58 531.24 L 1366.84 533.995 L 1366.58 531.24 L 1365.08 530.005 z M 902.806 216.061 C 881.975 225.186 869.92 241.791 859.722 261.586 C 820.978 336.796 816.593 483.293 842.272 562.301 C 842.48 563.143 842.635 564.221 843 565 C 843.287 566.35 843.488 567.715 844 569 L 844.575 570.732 L 844 569 C 843.828 567.555 843.444 566.379 843 565 C 842.91 564.041 842.574 563.212 842.272 562.301 C 841.807 553.689 839.395 544.714 837.902 536.2 C 835.821 524.272 834.299 512.253 833.339 500.183 C 827.667 428.966 836.288 336.328 864.073 269.688 C 870.144 255.126 878.453 239.423 889.412 227.895 C 892.63 224.509 903.81 219.237 905 215.834 L 902.806 216.061 z M 879.251 581.005 L 879.947 581.527 C 880.484 591.072 883.539 600.715 886.248 609.853 C 900.533 658.042 934.358 722.017 971.697 755.809 C 982.077 765.203 994.278 770.899 1006.75 776.921 C 972.364 767.818 954.396 751.641 924.933 734.515 C 932.029 745.226 938.868 756.571 946.981 766.541 C 949.502 769.639 955.764 774.768 956.451 778.58 C 944.463 767.499 933.567 756.144 924.477 742.477 C 924.611 744.002 925.358 746.658 924.294 747.799 C 922.144 750.103 919.436 750.658 916.429 750.495 C 898.708 749.535 873.127 740.898 854.475 737.391 C 824 731.662 793.147 728.379 762.541 723.458 C 764.851 741.001 766.626 758.652 771.552 775.7 C 782.279 772.364 793.473 767.729 804.512 765.872 C 834.38 760.846 872.648 768.374 899.281 782.432 C 911.331 788.792 919.631 796.501 927.732 807.412 C 893.768 787.524 873.052 775.128 832.431 771.74 C 818.595 770.586 805.083 770.506 791.586 774.093 C 784.725 775.917 777.921 778.042 771.125 780.097 C 772.111 784.537 772.937 789.095 774.395 793.406 C 812.956 785.858 868.646 784.521 902.706 807.323 C 909.746 812.036 917.473 818.128 923.445 824.149 C 914.015 820.926 905.998 814.393 896.774 810.553 L 896.47 809.693 L 895.005 809.244 L 896.47 809.693 L 896.774 810.553 C 904.97 823.008 915.525 835.465 915.382 851.277 L 914.32 853.328 L 913.227 853.014 C 902.259 832.152 891.498 820.917 871.919 807.957 C 873.855 831.163 873.224 844.027 860.026 863.986 C 837.83 874.634 805.566 875.919 782.414 867.604 C 777.581 865.868 772.142 863.44 768.577 859.641 C 772.574 860.755 776.551 862.76 780.528 864.099 C 792.004 867.962 802.902 868.836 814.921 868.645 C 810.103 865.755 805.404 862.95 801.572 858.752 C 788.718 844.672 789.507 827.363 790.643 809.697 C 782.453 812.826 755.538 820.937 749.968 824.68 C 747.774 826.155 747.404 827.353 746.812 829.823 C 749.104 839.855 759.506 849.817 766.067 857.621 C 756.064 852.981 748.14 845.14 738.044 840.426 C 732.335 841.756 726.465 842.094 720.639 842.595 C 726.431 838.658 732.964 835.505 739.117 832.145 C 732.26 832.958 725.468 834.687 718.529 834.386 L 717.726 833.405 C 720.74 829.415 726.427 826.992 730.713 824.498 C 727.286 824.346 724.029 823.982 720.643 823.438 L 719.651 820.988 L 717.728 822.069 C 718.77 820.47 727.891 819.005 730.262 818.48 C 729.598 816.308 720.04 812.003 717.531 810.091 C 719.95 809.185 723.326 810.544 725.868 811.078 C 705.13 792.759 689.702 756.063 685.929 728.961 C 679.632 747.802 676.239 767.492 675.866 787.355 C 675.114 825.576 685.425 876.039 705.442 908.701 C 711.039 917.835 718.166 925.245 725.512 932.953 C 686.423 910.477 680.737 886.561 655.976 853.86 L 654.911 852.47 L 654.236 852.005 L 654.911 852.47 C 656.396 898.469 667.954 957.064 679.256 1002.1 C 690.911 1048.54 703.275 1096.39 725.676 1139.06 C 755.183 1195.25 817.092 1252.94 863.72 1296.56 C 886.008 1317.42 938.824 1365.84 967.122 1375.04 C 989.326 1382.26 1023.12 1382.56 1046.56 1381.75 C 1062.69 1381.19 1083.63 1381.24 1098.6 1375.22 C 1136.97 1359.8 1223.94 1265.23 1256.12 1230.47 C 1280.07 1204.58 1305.72 1176.37 1322.85 1145.41 C 1335.76 1122.09 1342.97 1092.57 1350.37 1067.05 C 1360.33 1032.76 1370.99 998.417 1379.5 963.76 C 1384.24 944.483 1387.34 924.775 1391.94 905.452 C 1380.07 920.09 1368.74 935.949 1353.51 947.402 C 1357.87 937.343 1365.5 928.551 1370.14 918.51 C 1383.05 890.547 1386.9 851.857 1387.96 821.423 C 1359.35 792.848 1327.14 766.884 1296.16 740.924 L 1281.02 741.121 C 1293.41 763.561 1313.64 779.532 1330.41 798.423 C 1321.78 794.551 1313.76 788.718 1305.63 783.885 C 1287.35 773.023 1265.47 766.484 1244.06 768.856 C 1215.76 771.992 1171.4 786.64 1149.51 804.76 C 1145.58 808.007 1142.42 812.397 1139.26 816.369 C 1139.41 816.007 1139.56 815.644 1139.72 815.285 L 1140.53 813.515 C 1145.17 803.236 1154.07 795.343 1163.41 789.275 C 1186.8 774.083 1223.2 764.697 1251.01 765.344 C 1261.9 765.597 1272.39 767.813 1282.99 770.101 C 1269.69 761.167 1256.7 751.213 1242.26 744.202 C 1229.37 746.289 1175.72 754.584 1167.23 760.34 C 1167.74 762.446 1167.79 761.513 1167.4 763.14 C 1155.68 759.555 1149.58 761.811 1138.08 764.394 C 1146.86 770.121 1155.42 775.442 1165.21 779.303 C 1147.79 778.548 1138.96 764.8 1125.55 764.61 C 1122.91 764.572 1121.03 764.555 1118.53 763.739 L 1119.16 762.626 L 1120.41 762.343 L 1120.81 761.266 C 1114 755.311 1109.07 747.926 1102.66 741.633 C 1090.94 730.128 1078.67 720.109 1068.09 707.379 C 1081.27 742.865 1104.12 799.413 1135.01 822.052 L 1136.6 823.2 C 1132.37 823.39 1128.15 821.631 1124.36 819.899 C 1108.01 812.42 1092.19 802.61 1076.33 794.06 C 979.924 742.092 918.967 686.281 879.947 581.527 L 879.251 581.005 z M 1150.16 627.005 L 1150.6 627.562 C 1157.04 650.351 1184.25 685.492 1198.45 704.777 L 1208.77 703.563 C 1208.45 701.878 1154.8 631.782 1150.6 627.562 L 1150.16 627.005 z M 1081.01 640.191 L 1081.5 641.114 C 1092.24 667.611 1118.69 697.323 1136.47 720.247 C 1141.4 718.298 1146.42 716.665 1151.46 715.017 L 1154.46 713.712 L 1154.37 712.55 C 1135.35 699.963 1114.8 679.839 1099.73 662.752 C 1093.49 655.674 1087.89 648.061 1081.5 641.114 L 1081.01 640.191 z M 1234.23 671.005 L 1234.75 671.475 C 1236.47 678.177 1242.58 686.956 1246.79 692.523 C 1249.96 696.701 1252.54 700.165 1258.03 700.918 C 1255.48 694.788 1239.97 676.442 1234.75 671.475 L 1234.23 671.005 z M 734.595 791.184 C 743.609 785.506 754.337 781.857 764.197 777.888 C 754.727 759.154 744.511 740.891 737.377 721.089 L 705.15 720.429 C 705.397 729.15 704.81 739.224 706.516 747.742 C 707.842 760.359 711.498 792.16 721.185 800.021 C 725.534 803.55 731.426 803.677 736.732 802.978 C 748.983 801.365 760.828 796.561 772.725 793.368 C 771.503 789.357 770.638 785.242 767.967 781.925 C 760.979 780.732 742.737 789.41 734.595 791.184 z M 855.53 834.098 C 854.967 834.372 854.398 834.633 853.841 834.919 C 848.464 837.676 844.741 844.7 839.264 846.567 C 837.16 845.548 835.113 844.481 833.071 843.342 C 828.332 843.68 822.413 844.732 818.584 841.22 C 815.674 838.55 813.188 834.952 810.733 831.852 C 809.222 834.301 807.166 836.215 807.673 839.114 C 809.958 839.892 811.902 840.194 814.306 840.382 C 813.708 843.497 810.717 845.936 808.361 847.983 L 807.518 848.662 C 811.077 848.831 812.365 846.984 815.625 845.74 C 815.79 846.003 815.952 846.267 816.122 846.527 C 819.38 851.507 823.983 854.601 829.888 855.675 C 835.111 856.624 840.33 855.572 845.395 854.275 C 848.778 849.865 851.498 846.003 853.927 840.984 C 854.257 840.303 854.635 839.646 854.999 838.982 C 857.69 840.263 857.961 843.417 860.651 843.967 C 860.824 841.52 860.815 840.866 859.236 838.781 C 858.45 837.744 856.99 836.659 856.038 835.831 L 855.53 834.098 L 855.774 833.005 L 855.53 834.098 z M 1424.44 891.683 C 1434.23 903.01 1434.99 918.668 1436.42 933.012 C 1440.59 974.956 1418.35 963.506 1400.14 986.004 C 1399.22 987.143 1398.84 987.869 1397.42 988.439 C 1396.25 988.908 1395.56 988.048 1394.58 987.479 C 1394.39 986.495 1394.3 986.382 1394.48 985.234 C 1395.43 979.023 1414.88 959.206 1420.64 955.175 L 1421.58 954.529 C 1418.8 958.975 1414.59 962.917 1411.33 967.105 L 1411.87 967.325 C 1415.25 964.562 1418.65 961.851 1421.23 958.275 C 1433.77 940.853 1426.61 911.668 1423.58 892.008 C 1416.15 908.648 1417.17 917.208 1420.71 934.42 C 1419.13 936.834 1417.85 938.76 1415.49 940.527 C 1413 937.316 1414.81 925.268 1413 919.931 L 1411.99 919.625 C 1406.74 928.006 1407.05 937.633 1406.99 947.166 L 1419.17 941.498 C 1411.84 950.484 1404.39 961.312 1395.22 968.391 L 1394.14 968.175 C 1394.67 961.171 1399.28 954.713 1400.91 947.805 L 1398.62 944.772 C 1396.5 946.959 1395.5 949.698 1394.56 952.551 C 1388.15 972.017 1383.69 992.799 1378.4 1012.63 C 1374.61 1026.8 1369.25 1041.29 1367.23 1055.79 C 1375.49 1054.15 1383.22 1052.43 1390.62 1048.19 C 1410.09 1037.03 1413.36 1017.63 1425.89 1001.17 C 1431.3 994.064 1438.02 988.273 1444.56 982.247 C 1463.57 964.715 1473.2 949.661 1480.15 924.715 C 1480.36 923.975 1480.56 923.231 1480.73 922.482 C 1487.14 895.411 1487.29 832.352 1472.05 808.701 C 1468.55 803.278 1463.5 802.907 1457.69 801.588 C 1453.72 813.255 1450.04 825.019 1446.64 836.867 C 1448.86 837.347 1451.1 837.826 1453.28 838.462 C 1459.48 840.27 1464.16 844.307 1467.17 850.016 C 1475.98 866.728 1469.97 897.698 1464.2 914.631 C 1463.82 897.92 1464.87 879.663 1460.83 863.377 C 1458.33 853.306 1454.82 848.151 1446.03 842.788 C 1444.18 846.702 1442.85 850.798 1441.44 854.881 C 1444.11 865.328 1444.18 875.519 1444.6 886.22 C 1442.59 878.763 1440.1 871.386 1437.82 864.004 C 1432.98 872.954 1428.85 882.497 1424.44 891.683 z M 716.867 1247.71 C 694.118 1249.61 627.232 1278.45 607.918 1291.87 C 597.463 1299.13 588.671 1308.56 580.459 1318.22 C 554.791 1348.39 532.892 1381.36 506.002 1410.66 C 488.45 1429.78 468.125 1445.84 448.782 1463.02 C 461.885 1457.94 473.413 1446.74 483.686 1437.39 C 506.464 1416.82 527.758 1394.66 547.409 1371.09 C 565.892 1348.93 589.277 1315.87 611.445 1298.27 C 640.866 1274.91 683.008 1262.99 716.867 1247.71 L 717.995 1247.15 L 716.867 1247.71 z M 812.735 1358.87 C 820.138 1380.88 824.639 1404.4 830.415 1426.92 C 838.445 1457.54 847.083 1488 856.323 1518.28 C 865.013 1547.26 875.421 1575.56 885.896 1603.92 C 908.478 1665.86 934.319 1726.56 963.312 1785.78 C 976.292 1792.72 989.667 1798.9 1003.37 1804.28 C 1095.68 1766.72 1204.33 1691.86 1265.03 1611.83 C 1286.13 1584.02 1302.76 1553.57 1316.28 1521.44 C 1323.21 1504.96 1329.18 1487.98 1331.95 1470.26 C 1311.07 1453.78 1296.31 1431.86 1285.38 1407.78 C 1283.85 1421.17 1279.95 1497.62 1278.35 1501.7 C 1276.44 1482.6 1276.78 1463.19 1276.86 1444.01 C 1277.19 1362.48 1286.83 1280.14 1300.37 1199.8 C 1284.6 1222.75 1262.53 1241.7 1244.96 1263.45 C 1229.19 1282.97 1214.75 1303.57 1199.48 1323.49 C 1177.97 1351.52 1155.16 1379.37 1131.92 1405.97 C 1119.85 1419.8 1107.82 1433.83 1094.33 1446.31 C 1074.37 1463.15 1049.85 1462.88 1024.97 1460.79 C 1011.62 1459.71 998.724 1455.44 987.361 1448.35 C 967.877 1436.29 951.438 1419.1 935.078 1403.19 C 888.272 1357.01 843.799 1308.52 801.825 1257.91 C 781.817 1233.89 761.719 1209.04 743.136 1183.91 C 747.554 1212.09 748.231 1240.62 749.593 1269.05 C 752.914 1338.39 760.238 1430.48 730.437 1494.58 C 734.441 1468.88 737.075 1444.54 737.448 1418.45 C 725.359 1441.59 714.633 1460.43 689.148 1470.42 C 691.552 1497.41 691.268 1524.55 692.637 1551.61 C 702.082 1566.86 713.544 1580.68 724.999 1594.44 C 784.215 1665.57 869.286 1737.95 951.495 1780.83 C 931.487 1738.7 911.804 1696.01 895.054 1652.47 C 871.348 1590.85 853.033 1527.72 836.088 1463.97 C 829.731 1439.62 823.96 1415.11 818.778 1390.48 C 816.625 1380.17 813.83 1369.33 812.735 1358.87 z M 1307.7 1231.21 C 1308.19 1232.25 1308.63 1233.21 1309.61 1233.92 C 1315.5 1238.17 1325.05 1240.91 1331.87 1243.8 C 1354.55 1253.41 1380.87 1263.1 1400.7 1277.9 C 1423.95 1295.26 1448.75 1388.45 1466.95 1421.01 L 1467.41 1421.81 L 1467.85 1422.99 L 1467.41 1421.81 C 1464.42 1405.87 1455.4 1389.37 1449.56 1374.15 C 1439.92 1349 1425.92 1301.39 1409.97 1280.8 C 1401.18 1269.46 1322.08 1233.03 1307.7 1231.21 z M 732.824 1276.44 C 726.96 1278.68 720.817 1281.49 715.511 1284.85 C 694.109 1298.38 689.327 1328.23 684.187 1351.27 C 674.959 1392.66 673.16 1431.72 672.789 1473.99 C 670.969 1599.44 696.149 1723.81 746.623 1838.67 C 754.897 1857.36 762.553 1878.71 773.498 1895.9 L 774.209 1897.46 L 774.883 1898.99 L 774.209 1897.46 L 773.498 1895.9 C 769.78 1878.48 751.836 1844.33 744.197 1825.94 C 733.294 1799.7 724.52 1772.62 715.23 1745.78 C 684.719 1657.63 674.185 1555.87 675.382 1462.95 C 676.023 1413.28 679.52 1358.94 697.422 1312.04 C 703.024 1297.36 711.553 1288.9 725.914 1282.69 C 726.943 1282.24 727.991 1281.84 729.001 1281.35 C 731.391 1280.2 733.474 1279.56 734.348 1277.03 L 732.824 1276.44 z M 1077.76 56.3669 C 1032.25 59.8113 987.279 71.3176 948.128 95.2983 C 940.822 99.7733 932.195 104.814 926.434 111.271 C 926.218 111.513 926.026 111.776 925.822 112.029 L 926.519 113.076 C 935.344 108.831 947.332 98.0574 957.569 92.4743 C 1000.68 69.8481 1046.94 59.1695 1095.45 57.9569 C 1099.31 57.8606 1124.86 58.4486 1126.07 56.8402 C 1112.98 53.4689 1091.18 55.298 1077.76 56.3669 z M 769.265 138.5 L 770.49 138.5 L 769.265 138.5 z M 1331.37 184.774 C 1368.55 221.532 1401.61 257.59 1427.34 303.467 C 1438.35 323.088 1447.3 343.695 1455.17 364.757 C 1457.86 371.952 1460.6 386.352 1465.75 391.552 C 1447.79 316.714 1421.47 271.5 1367.95 217.326 C 1357.9 207.155 1346.68 194.147 1334.69 186.335 C 1333.59 185.613 1332.6 185.234 1331.37 184.774 z M 1353.27 186.5 L 1354.49 186.5 L 1353.27 186.5 z M 1460.34 273.5 L 1461.19 273.5 L 1460.34 273.5 z M 889.63 358.755 C 885.608 372.29 884.271 386.472 883.456 400.523 C 879.172 474.401 909.839 543.614 944.784 607.04 C 945.641 608.597 946.552 610.085 947.49 611.593 L 948.529 612.415 C 946.444 601.777 939.763 590.068 935.628 579.883 C 930.783 567.778 926.399 555.493 922.487 543.055 C 907.483 496.737 894.05 448.991 890.146 400.295 C 889.367 391.238 889.039 382.148 889.162 373.059 C 889.21 368.367 889.946 363.4 889.63 358.755 z M 1465.32 392.911 L 1466.4 393.5 L 1465.32 392.911 z M 488.513 406.5 L 489.457 406.5 L 488.513 406.5 z M 654.508 406.746 C 625.091 476.582 608.013 536.29 604.506 612.507 C 604.127 620.747 601.916 639.03 604.859 646.205 C 605.035 646.634 605.237 647.052 605.426 647.475 C 606.541 620.784 607.762 594.473 613.254 568.252 C 616.401 553.674 619.945 539.185 623.882 524.8 C 627.542 511.24 655.742 416.563 654.508 406.746 z M 506.46 444.5 L 507.332 444.5 L 506.46 444.5 z M 808.347 471.641 C 790.038 519.849 778.296 564.701 769.325 615.54 C 764.736 641.549 760.763 667.443 760.981 693.931 C 790.09 691.081 819.179 691.953 848.345 693.111 C 862.795 694.527 877.078 696.19 891.324 699.09 C 847.868 642.891 826.324 595.168 814.871 525.046 C 812.459 510.277 812.811 484.029 808.347 471.641 z M 956.333 520.361 L 956.993 521.01 L 956.333 520.361 z M 957.31 523.912 L 958.418 524.5 L 957.31 523.912 z M 641.001 535.969 L 641.67 536.268 L 641.001 535.969 z M 1091.42 535.904 L 1092.49 536.5 L 1091.42 535.904 z M 1092.44 538.5 L 1093.11 538.5 L 1092.44 538.5 z M 1093.49 541.5 L 1094.24 541.5 L 1093.49 541.5 z M 549.164 547.939 L 549.999 548.5 L 549.164 547.939 z M 548.263 549.551 C 539.914 617.901 535.61 694.943 561.415 760.282 C 562.41 753.023 557.486 740.926 555.734 733.553 C 545.99 692.555 543.8 649.552 545.199 607.507 C 545.527 597.632 550.406 554.077 548.263 549.551 z M 845.307 574.34 L 845.982 575.001 L 845.307 574.34 z M 846.422 578.5 L 847.133 578.5 L 846.422 578.5 z M 476.103 609.499 C 475.86 612.494 474.916 616.524 476.253 619.162 L 476.836 619.274 C 477.164 616.674 478.375 612.333 476.916 610.138 C 476.725 609.851 476.374 609.712 476.103 609.499 z M 949.433 614.5 L 950.136 614.5 L 949.433 614.5 z M 950.381 616.5 L 951.049 616.5 L 950.381 616.5 z M 951.371 618.5 L 952.067 618.5 L 951.371 618.5 z M 1544.17 626.516 L 1544.81 627.765 L 1545.05 627.839 L 1544.17 626.516 z M 1544.4 630.443 C 1545.48 648.736 1549.89 666.657 1551.33 684.884 C 1552.04 694.981 1552.42 705.098 1552.46 715.22 C 1552.48 719.34 1551.83 723.82 1552.29 727.869 C 1557.22 715.378 1551.14 645.824 1545.65 632.703 C 1545.3 631.858 1544.88 631.241 1544.4 630.443 z M 725.66 636.843 C 714.74 660.177 706.331 680.399 706.256 706.62 L 707.358 707.666 L 709.355 706.663 C 716.233 703.245 722.869 700.196 730.206 697.905 C 727.77 681.557 726.223 665.35 726.214 648.805 C 726.212 646.125 727.156 638.72 725.66 636.843 z M 1384.33 642.5 L 1385.07 642.5 L 1384.33 642.5 z M 1385.36 644.5 L 1386.11 644.5 L 1385.36 644.5 z M 1386.31 646.5 L 1387.04 646.5 L 1386.31 646.5 z M 1387.2 648.5 L 1388.03 648.5 L 1387.2 648.5 z M 1389.55 653.5 L 1390.49 653.5 L 1389.55 653.5 z M 1390.51 655.5 L 1391.32 655.5 L 1390.51 655.5 z M 1392.44 659.5 L 1393.1 659.5 L 1392.44 659.5 z M 1540.59 687.508 C 1540.97 694.736 1541.15 708.962 1545.73 714.604 C 1544.58 706.81 1544.28 694.27 1540.59 687.508 z M 1544.66 716.571 L 1544.88 720.522 L 1546.26 721.442 L 1546.36 717.954 C 1544.97 716.593 1545.65 716.862 1544.66 716.571 z M 1545.37 725.351 C 1546.26 733.305 1546.53 741.381 1547.51 749.292 L 1548.48 750.052 C 1550.04 745.333 1549 731.896 1546.78 727.425 C 1546.33 726.526 1546.01 726.204 1545.37 725.351 z M 1551.09 731.426 C 1551.27 731.922 1551.23 732.629 1551.69 732.89 L 1551.09 731.426 z M 1235.56 742.942 L 1236.49 743.5 L 1235.56 742.942 z M 564.999 790.43 C 550.025 827.01 534.517 887.79 550.278 925.148 C 553.452 932.671 557.811 939.59 562.68 946.122 C 575.395 963.179 590.941 978.389 604.976 994.38 C 614.274 1004.97 622.522 1016.88 632.582 1026.72 C 636.821 1030.87 641.526 1034.61 647.035 1036.92 C 653.746 1039.74 662.864 1040.45 669.669 1037.53 C 671.058 1036.94 671.977 1036.05 672.985 1034.96 C 673.632 1025.69 662.632 981.421 658.965 972.014 C 653.13 968.916 647.335 965.744 641.58 962.498 C 631.697 954.306 625.263 945.17 624.101 931.966 C 622.814 917.342 629.466 903.837 633.072 890.026 C 629.785 880.474 625.035 873.084 618.383 865.533 C 610.464 880.464 607.458 895.527 604.808 912.024 C 601.984 890.84 602.674 876.87 613.564 858.125 C 607.093 847.117 598.943 836.851 590.578 827.221 C 582.323 841.691 573.548 871.5 571.461 887.982 C 563.53 864.703 571.418 834.224 577.352 811.202 C 574.078 805.203 570.084 794.82 564.999 790.43 z M 855.618 845.157 L 856.559 846.023 L 855.618 845.157 z M 637.322 902.603 C 633.34 915.889 629.476 930.313 636.808 943.28 C 640.632 950.042 647.232 955.422 654.212 958.649 L 655.439 957.422 C 655.04 945.358 645.084 910.291 637.322 902.603 z M 1432.84 1312.79 C 1443.43 1345.25 1460.21 1367.64 1482.43 1393.14 C 1490.4 1402.28 1498.95 1411.25 1506.1 1421.04 C 1515.09 1433.35 1521.77 1447.16 1528.6 1460.73 C 1534.65 1472.74 1540.59 1484.51 1542.74 1497.93 C 1544.74 1510.39 1545.82 1524.93 1544.91 1537.57 C 1544.2 1547.47 1542.49 1557.6 1542.46 1567.5 L 1543.82 1567.58 C 1548.04 1541.58 1552.84 1508.87 1544.96 1483.2 C 1541.86 1473.12 1535.92 1463.4 1530.79 1454.22 C 1524.42 1442.83 1517.63 1431.44 1510.02 1420.84 C 1495.04 1399.97 1476.21 1382.18 1461.87 1360.79 C 1457.24 1353.87 1452.63 1346.87 1448.45 1339.67 C 1443.86 1331.78 1439.19 1318.97 1432.84 1312.79 z M 347.661 1519.09 C 325.705 1530.72 302.348 1539.79 279.932 1550.52 C 228.465 1575.36 177.308 1600.83 126.473 1626.94 C 99.8712 1640.9 64.2962 1659.38 41.0655 1677.93 L 45.8158 1691.49 C 50.4141 1691.65 69.0025 1679.2 74.03 1676.3 C 103.149 1659.48 133.417 1644.83 162.787 1628.51 C 177.873 1620.13 192.408 1610.79 207.405 1602.25 C 230.024 1589.36 253.041 1577.26 275.938 1564.89 C 297.29 1553.35 319.063 1541.24 341.895 1532.83 C 344.165 1528.52 346.463 1524.26 348.346 1519.76 L 347.661 1519.09 z M 1690.47 1540.5 L 1691.16 1540.5 L 1690.47 1540.5 z M 1713.64 1565.75 C 1714.56 1567.57 1715.32 1569.03 1717.04 1570.22 C 1723 1574.36 1730.37 1577.58 1736.8 1581.02 C 1751.64 1588.96 1766.59 1596.76 1781.22 1605.06 C 1818.19 1626.03 1853.14 1652.26 1887.62 1677.1 C 1908.15 1691.88 1929.13 1705.95 1949.74 1720.59 C 1963.69 1730.5 1993.5 1754.73 2006.9 1760.42 C 2005.26 1755.31 2003.8 1748.33 2000.21 1744.27 C 1992.49 1735.54 1980.53 1728.07 1971.18 1720.93 C 1926.79 1687.05 1879.54 1657.2 1831.6 1628.63 C 1801.44 1610.31 1770.72 1592.93 1739.49 1576.5 C 1731.8 1572.55 1722.26 1566.41 1713.64 1565.75 z M 1541.5 1571.59 L 1541.25 1573.99 L 1542.34 1574.45 L 1542.93 1572.18 L 1541.5 1571.59 z M 40.5567 1705.5 L 41.49 1705.5 L 40.5567 1705.5 z M 775.35 1900.5 L 776.146 1900.5 L 775.35 1900.5 z M 776.299 1902.5 L 777.044 1902.5 L 776.299 1902.5 z M 777.306 1904.5 L 778.087 1904.5 L 777.306 1904.5 z"/>
<path transform="translate(0,0)" fill="rgb(0,0,0)" d="M 657.075 106.757 L 657.472 106.15 L 657.075 106.757 z"/>
<path transform="translate(0,0)" fill="rgb(0,0,0)" d="M 567.251 295.995 L 567.842 295.44 L 567.251 295.995 z"/>
<path transform="translate(0,0)" fill="rgb(0,0,0)" d="M 560.189 305.543 L 560.765 305.005 L 560.189 305.543 z"/>
<path transform="translate(0,0)" fill="rgb(0,0,0)" d="M 1401.09 344.517 L 1401.73 344.995 L 1401.09 344.517 z"/>
<path transform="translate(0,0)" fill="rgb(0,0,0)" d="M 1411.03 358.5 L 1410.34 358.5 L 1411.03 358.5 z"/>
<path transform="translate(0,0)" fill="rgb(0,0,0)" d="M 1411.73 360.623 L 1411.25 360.005 L 1411.73 360.623 z"/>
<path transform="translate(0,0)" fill="rgb(0,0,0)" d="M 1411.73 360.623 L 1412.6 362.183 L 1411.73 360.623 z"/>
<path transform="translate(0,0)" fill="rgb(0,0,0)" d="M 1041 399 L 1040.08 397.005 L 1041 399 z"/>
<path transform="translate(0,0)" fill="rgb(0,0,0)" d="M 1041 399 L 1041.84 400.995 L 1041 399 z"/>
<path transform="translate(0,0)" fill="rgb(0,0,0)" d="M 1042.99 402.5 L 1042.38 402.5 L 1042.99 402.5 z"/>
<path transform="translate(0,0)" fill="rgb(0,0,0)" d="M 1044.07 405.5 L 1043.44 405.5 L 1044.07 405.5 z"/>
<path transform="translate(0,0)" fill="rgb(0,0,0)" d="M 1053.05 439.5 L 1052.41 439.5 L 1053.05 439.5 z"/>
<path transform="translate(0,0)" fill="rgb(0,0,0)" d="M 1165.21 779.303 L 1166.26 779.578 L 1165.21 779.303 z"/>
<path transform="translate(0,0)" fill="rgb(0,0,0)" d="M 1151.59 823.276 C 1175.24 799.076 1213.15 786.193 1246.58 785.883 C 1268.11 785.683 1304.63 791.539 1323.77 801.796 C 1336.71 808.729 1348.93 818.695 1360.88 827.213 C 1357.74 826.364 1354.08 824.708 1350.98 825.657 L 1349.69 828.585 C 1345.99 829.835 1343.38 828.123 1339.95 828.522 C 1337.89 828.761 1334.25 836.053 1333.27 837.985 C 1326.32 851.655 1316.9 859.691 1303.42 866.81 C 1270.43 882.688 1208.74 879.421 1175.03 867.509 C 1170.43 865.884 1165.9 864.016 1161.35 862.267 C 1175.19 864.096 1188.63 868.073 1202.64 868.411 C 1187.39 850.792 1179.93 839.148 1176.62 815.785 L 1175.56 816.782 C 1166.5 825.408 1157.59 844.335 1150.65 849.686 L 1148.98 849.382 C 1147.35 845.805 1148.33 840.904 1149.66 837.325 C 1151.77 831.628 1154.97 826.261 1157.49 820.73 C 1155.39 821.436 1153.54 822.224 1151.59 823.276 z M 1266.72 808.781 C 1270.06 823.609 1268.18 838.763 1259.78 851.697 C 1253.21 861.816 1243.99 867.25 1233.9 873.262 C 1252.74 874.853 1275.51 874.908 1292.82 866.264 C 1309.31 856.329 1324.11 842.897 1334.84 826.815 C 1312.4 819.128 1289.89 813.776 1266.72 808.781 z M 1247 829.459 L 1246.58 830.23 C 1244.16 834.841 1242.79 844.018 1237.68 845.844 C 1230.29 848.49 1220.98 847.068 1214.19 850.888 C 1213.97 853.026 1213.67 852.229 1214.98 853.876 C 1216.15 855.356 1217.16 856.182 1218.7 857.237 C 1221.88 858.451 1227.33 861.128 1230.8 859.66 C 1233.76 858.408 1237.24 853.438 1239.41 850.987 C 1240.51 851.929 1240.43 852.453 1240.83 853.801 C 1243.47 852.475 1244.65 850.578 1245.65 847.797 C 1247.35 843.083 1248.7 836.993 1248.88 832.022 C 1248.29 831.109 1247.79 830.217 1247 829.459 z M 1209.58 840.321 C 1207.11 843.621 1205.9 845.46 1205.57 849.614 L 1206.68 852.133 L 1207.56 851.943 L 1207.73 851.557 C 1210.01 848.638 1213.5 845.842 1213.79 842.173 C 1212.35 840.906 1211.45 840.662 1209.58 840.321 z"/>
<path transform="translate(0,0)" fill="rgb(0,0,0)" d="M 734.005 791.744 L 734.595 791.184 L 734.005 791.744 z"/>
<path transform="translate(0,0)" fill="rgb(0,0,0)" d="M 1330.41 798.423 L 1330.87 798.88 L 1330.41 798.423 z"/>
<path transform="translate(0,0)" fill="rgb(0,0,0)" d="M 1151.01 823.764 L 1151.59 823.276 L 1151.01 823.764 z"/>
<path transform="translate(0,0)" fill="rgb(0,0,0)" d="M 923.445 824.149 L 923.995 824.752 L 923.445 824.149 z"/>
<path transform="translate(0,0)" fill="rgb(0,0,0)" d="M 843.49 851.5 L 842.503 851.5 L 843.49 851.5 z"/>
<path transform="translate(0,0)" fill="rgb(0,0,0)" d="M 906.465 858.98 L 900.24 858.937 L 899.828 858.056 L 903.934 855.977 C 906.279 855.826 908.204 856.007 910.515 856.421 L 910.456 857.461 L 906.465 858.98 z"/>
<path transform="translate(0,0)" fill="rgb(0,0,0)" d="M 766.067 857.621 L 767.717 858.861 L 766.067 857.621 z"/>
<path transform="translate(0,0)" fill="rgb(0,0,0)" d="M 767.717 858.861 L 768.577 859.641 L 767.717 858.861 z"/>
<path transform="translate(0,0)" fill="rgb(0,0,0)" d="M 1163.49 862.5 L 1162.26 862.5 L 1163.49 862.5 z"/>
<path transform="translate(0,0)" fill="rgb(0,0,0)" d="M 653.911 999.592 C 652.846 999.791 651.861 1000.12 650.777 999.914 C 641.719 998.159 608.528 951.963 603.333 941.868 C 596.067 927.748 593.461 913.076 598.338 897.682 C 600.918 907.786 600.52 916.644 605.007 926.686 C 609.795 937.399 616.452 947.06 624.279 955.775 C 631.383 963.686 653.924 979.86 656.437 988.69 C 657.675 993.039 655.892 995.887 653.911 999.592 z"/>
<path transform="translate(0,0)" fill="rgb(0,0,0)" d="M 1062.37 1000.29 C 1056.4 984.546 1063.06 935.637 1064.2 916.619 C 1067.01 924.233 1063.99 990.213 1062.37 1000.29 z"/>
<path transform="translate(0,0)" fill="rgb(0,0,0)" d="M 1055.17 1000.33 C 1048.78 980.071 1052.9 942.76 1054.25 920.513 C 1054.89 921.788 1055.27 923.004 1055.41 924.454 C 1055.85 928.997 1055.75 997.613 1055.17 1000.33 z"/>
<path transform="translate(0,0)" fill="rgb(0,0,0)" d="M 1049.04 1000.35 L 1047.96 1000.41 C 1044.54 996.124 1046.06 932.145 1046.18 922.621 C 1050.61 933.797 1048.13 983.708 1049.04 1000.35 z"/>
<path transform="translate(0,0)" fill="rgb(0,0,0)" d="M 1069.29 997.3 C 1065.66 980.48 1071.73 940.754 1073.55 922.502 C 1073.61 922.621 1073.68 922.738 1073.74 922.859 C 1077.12 930.066 1072.58 987.68 1069.29 997.3 z"/>
<path transform="translate(0,0)" fill="rgb(0,0,0)" d="M 1039.9 992.496 C 1034.53 982.229 1037.81 940.065 1037.9 926.408 C 1041.77 932.671 1039.99 981.735 1039.9 992.496 z"/>
<path transform="translate(0,0)" fill="rgb(0,0,0)" d="M 1078.32 1004.42 L 1077.05 1003.51 C 1076.94 996.546 1078.08 989.419 1078.45 982.435 L 1081.28 926.614 C 1086.02 938.426 1082.86 991.826 1078.32 1004.42 z"/>
<path transform="translate(0,0)" fill="rgb(0,0,0)" d="M 1031.94 983.539 C 1027.8 976.265 1029.55 938.875 1029.51 928.449 C 1033.12 934.036 1031.86 974.125 1031.94 983.539 z"/>
<path transform="translate(0,0)" fill="rgb(0,0,0)" d="M 1090.79 998.331 C 1087.71 987.68 1089.72 948.02 1092.37 936.719 C 1095.64 955.636 1093.43 979.482 1090.79 998.331 z"/>
<path transform="translate(0,0)" fill="rgb(0,0,0)" d="M 1353.09 947.851 L 1353.51 947.402 L 1353.09 947.851 z"/>
<path transform="translate(0,0)" fill="rgb(0,0,0)" d="M 1409.54 960.808 L 1408.56 959.575 C 1412.8 955.803 1416.68 951.856 1420.56 947.714 L 1421.55 949.267 C 1418.52 954.018 1414.4 957.975 1409.54 960.808 z"/>
<path transform="translate(0,0)" fill="rgb(0,0,0)" d="M 1421.58 954.529 L 1421.99 954.005 L 1421.58 954.529 z"/>
<path transform="translate(0,0)" fill="rgb(0,0,0)" d="M 1012.78 1083.48 C 1004.7 1081.55 990.852 1082.65 984.176 1078.69 C 982.799 1077.87 983.096 1077.32 982.842 1075.91 C 984.031 1073.18 986.379 1072.34 988.874 1071.04 C 996.497 1070.52 1003.23 1070.9 1009.97 1074.87 C 1013.2 1076.78 1015.4 1078.67 1016.32 1082.36 L 1015.08 1083.8 L 1012.78 1083.48 z"/>
<path transform="translate(0,0)" fill="rgb(0,0,0)" d="M 1060.77 1082.46 C 1059 1082.97 1057.22 1083.52 1055.42 1083.88 C 1053.03 1084.36 1052.07 1084.47 1050.05 1083.1 C 1050.24 1082.15 1050.23 1081.85 1050.84 1080.93 C 1054.2 1075.91 1062.21 1072.86 1067.64 1071.06 C 1070.02 1071.08 1073.14 1071.27 1075.35 1072.22 C 1077.41 1073.1 1078.34 1074.19 1078.99 1076.3 C 1075.37 1080.96 1066.28 1081.19 1060.77 1082.46 z"/>
<path transform="translate(0,0)" fill="rgb(0,0,0)" d="M 923.915 1186.3 C 919.433 1182.44 915.259 1178.72 912.509 1173.39 C 910.972 1170.41 910.655 1168.26 911.637 1164.97 C 913.116 1163.13 915.59 1160.72 918.148 1160.58 C 918.23 1160.58 941.984 1170.36 946.349 1171.38 C 958.566 1174.22 971.953 1174.67 984.431 1175.83 C 1037.38 1180.77 1078.46 1179.53 1130.73 1168.14 C 1139.35 1166.27 1149.42 1165.26 1154.47 1157.4 C 1156.51 1157.51 1158.73 1157.82 1160.52 1158.89 C 1162.96 1160.34 1163.72 1162.53 1164.59 1165.03 C 1164.39 1166.76 1164.54 1168.05 1163.5 1169.53 C 1160.08 1174.38 1144.37 1175.37 1138.12 1176.78 C 1088.53 1187.91 1039.69 1190.63 988.997 1186.27 C 971.256 1184.75 954.032 1182.55 936.566 1179.07 C 933.422 1178.44 930.09 1177.28 926.923 1177.9 C 926.309 1180.96 928.752 1183.37 929.7 1186.39 C 927.398 1187.35 926.285 1186.74 923.915 1186.3 z"/>
<path transform="translate(0,0)" fill="rgb(0,0,0)" d="M 999.752 1243.06 C 998.19 1242.1 997.288 1241.46 996.272 1239.92 C 1003.76 1237.88 1019.8 1243.3 1028.83 1243.38 C 1051.07 1243.58 1072.85 1239.86 1094.74 1236.41 L 1095.13 1236.51 L 1094.88 1237.7 C 1089.93 1240.92 1085.05 1243.58 1079.49 1245.61 C 1054.61 1254.69 1023.79 1254.11 999.752 1243.06 z"/>
<path transform="translate(0,0)" fill="rgb(0,0,0)" d="M 1212.04 1322.5 L 1211.42 1322.5 L 1212.04 1322.5 z"/>
<path transform="translate(0,0)" fill="rgb(0,0,0)" d="M 1209.98 1326 L 1210.86 1324.01 L 1209.98 1326 z"/>
<path transform="translate(0,0)" fill="rgb(0,0,0)" d="M 1209.4 1327.16 L 1209.98 1326 L 1209.4 1327.16 z"/>
<path transform="translate(0,0)" fill="rgb(0,0,0)" d="M 1091.64 1626.09 C 1095.59 1609.91 1102.05 1593.92 1107.6 1578.21 C 1121.44 1539.05 1136.7 1500.66 1151.78 1461.98 C 1165.25 1427.45 1178.69 1393.34 1193.74 1359.45 C 1198.37 1349.02 1202.65 1336.3 1209.4 1327.16 C 1207.35 1335.76 1203.78 1344.41 1200.89 1352.78 C 1194.02 1373.17 1186.58 1393.36 1178.58 1413.32 C 1160.61 1458.84 1142.16 1503.94 1123.29 1549.08 C 1117.21 1563.49 1111.36 1577.99 1105.73 1592.57 C 1101.4 1603.74 1097.34 1615.54 1091.64 1626.09 z"/>
<path transform="translate(0,0)" fill="rgb(0,0,0)" d="M 812.093 1354.5 L 811.416 1354.5 L 812.093 1354.5 z"/>
<path transform="translate(0,0)" fill="rgb(0,0,0)" d="M 812.735 1358.87 L 812.357 1357.78 L 812.735 1358.87 z"/>
<path transform="translate(0,0)" fill="rgb(0,0,0)" d="M 1091.97 1627.5 L 1091.35 1626.91 L 1091.97 1627.5 z"/>
<path transform="translate(0,0)" fill="rgb(0,0,0)" d="M 1091.08 1629.5 L 1090.42 1629.5 L 1091.08 1629.5 z"/>
</svg>