<svg version="1.1" xmlns="http://www.w3.org/2000/svg" style="display: block;" viewBox="0 0 2048 2048" width="1024" height="1024">
<path transform="translate(0,0)" fill="rgb(255,255,255)" d="M 0 0 L 0 2048 L 2048 2048 L 2048 0 L 0 0 z"/>
<path transform="translate(0,0)" fill="rgb(0,0,0)" d="M 1036.49 0 L 1062.64 0 C 1096.22 6.52115 1128.04 19.4174 1147.95 48.8806 C 1154.5 58.578 1158.58 70.1063 1162.99 80.8929 C 1192.44 61.7875 1228.26 53.1567 1262.93 60.5426 C 1282.63 64.7384 1302.15 74.1826 1319.97 83.4722 C 1377.1 113.257 1411.51 157.838 1446.74 209.807 C 1457.88 226.247 1468.62 243.698 1481.62 258.724 C 1509.4 290.826 1555.62 320.783 1599.7 311.569 C 1579.74 325.174 1554.39 332.503 1530.41 327.831 C 1524.63 326.706 1519.3 324.721 1513.94 322.309 C 1548.17 380.675 1572.78 437.013 1554.56 506.289 C 1553.96 508.606 1553.29 510.903 1552.55 513.178 C 1551.33 488.735 1547.91 465.882 1541.88 442.161 C 1544.96 482.824 1538.47 529.933 1572.87 559.706 C 1582.93 568.41 1594.31 573.343 1606.51 578.34 C 1586.93 580.211 1570.64 579.896 1554.73 566.552 C 1545.82 559.076 1540.35 549.381 1536.2 538.708 C 1537.43 561.203 1536.64 583.764 1533.85 606.119 C 1530.86 631.8 1525.42 650.949 1529.37 677.275 C 1521.47 661.425 1519.56 644.386 1518.1 626.89 C 1516.44 643.161 1509.43 672.253 1509.73 685.666 C 1509.9 692.941 1513.06 700.287 1514.21 707.503 C 1518.09 731.818 1523.87 775.81 1516.87 799.145 C 1509.3 824.361 1465.25 881.327 1446.82 903.676 C 1440.6 911.208 1431.05 918.421 1426.27 926.684 C 1422.13 933.845 1419.48 942.899 1416.49 950.647 C 1407.74 973.361 1390.65 1019.26 1407.71 1041.57 L 1411.68 1046.8 C 1410.14 1048.92 1410.28 1048.44 1407.91 1048.9 C 1399.72 1045.92 1391.08 1033.47 1387.62 1025.78 C 1386.43 1023.12 1385.55 1020.48 1384.78 1017.68 C 1378.69 1042.53 1380.61 1061.03 1379.46 1085.45 C 1379.36 1087.6 1379.86 1088.37 1377.98 1089.69 C 1375.57 1087.7 1373.63 1085.61 1371.61 1083.21 C 1361.87 1106.48 1365.97 1135.15 1369.04 1159.59 C 1412.15 1186.33 1412.71 1197.93 1428.62 1244.16 C 1445.13 1251.08 1460.03 1259.47 1473.13 1271.82 C 1497.57 1294.83 1512.81 1326.09 1534.83 1351.27 C 1550.87 1369.6 1572.41 1382.3 1587.57 1401.65 C 1595.96 1412.36 1602.1 1424.41 1607.68 1436.75 C 1714.39 1508.86 1824.46 1575.85 1937.54 1637.5 L 2018.06 1682.89 C 2028.03 1688.44 2037.82 1694.51 2048 1699.62 L 2048 1781.3 C 1989.23 1845.79 1945.42 1921.92 1912.87 2002.54 C 1906.97 2017.18 1899.44 2032.7 1895.76 2048 L 1563.99 2048 C 1569.13 2036.18 1576.2 2025.56 1580.33 2013.24 C 1556.59 1984.43 1531.54 1957.34 1509.77 1926.89 C 1484.3 1891.27 1457.7 1839.98 1437.85 1799.99 C 1426.4 1776.82 1415.51 1753.37 1405.19 1729.67 C 1400.9 1719.76 1394.32 1698.07 1388.51 1690.49 L 1387.56 1691.47 C 1387.47 1693.88 1387.52 1696.28 1387.84 1698.68 C 1389.96 1715.04 1397.37 1731.12 1403.54 1746.31 C 1434.83 1823.25 1481.37 1905.2 1532.57 1970.65 C 1543.7 1984.87 1556.44 2001.5 1570.88 2012.4 C 1564.83 2023.99 1559.36 2035.87 1554.5 2048 L 1256.73 2048 C 1277.11 2026.53 1284.78 2022.28 1292.16 1992.52 C 1272.34 2012.1 1252.82 2031.55 1230.28 2048 L 1215.95 2048 C 1225.04 2039.44 1235.2 2031.9 1244.62 2023.69 C 1256.66 2013.2 1268.01 2001.89 1279.37 1990.68 C 1285.55 1984.6 1292.92 1978.38 1297.64 1971.1 C 1304.04 1961.24 1308.34 1943.65 1310.13 1932.06 C 1266.21 1973.28 1223.23 2014.39 1173.02 2048 L 1119.87 2048 C 1184.3 2002.52 1244.17 1950.91 1298.65 1893.89 C 1310.32 1881.8 1324.67 1868.88 1333.24 1854.39 C 1337.02 1847.98 1338.34 1838.71 1340.12 1831.45 C 1274.05 1912.27 1187.23 1989.62 1100.59 2048 L 918.125 2048 C 902.245 2028.89 890.221 2006 879.039 1983.92 C 847.527 1921.69 823.391 1855.98 801.592 1789.81 C 793.876 1766.39 784.101 1740.66 780.809 1716.3 C 779.69 1722.72 777.744 1730.05 778.132 1736.56 C 779.148 1753.58 786.481 1772.4 791.328 1788.82 C 798.81 1814.16 807.638 1838.99 816.548 1863.86 C 839.878 1928.97 866.2 1989.88 904.04 2048 L 867.475 2048 C 836.439 2001.7 811.274 1953.52 792.343 1900.97 C 782.376 1873.3 774.328 1845.02 765.665 1816.94 C 763.122 1837.34 760.931 1857.78 759.095 1878.26 C 757.98 1890.28 755.855 1903.47 757.16 1915.52 C 760.405 1945.49 802.128 2019.15 818.105 2048 L 803.42 2048 C 792.248 2028.97 780.54 2009.93 772.17 1989.45 C 765.654 1973.52 761.601 1956.18 754.082 1940.75 C 752.492 1955.66 747.901 2006.22 750.429 2018.08 C 752.671 2028.59 758.123 2038.4 762.807 2048 L 752.172 2048 C 750.549 2043.98 748.157 2040.18 746.041 2036.4 C 745.291 2040.22 744.916 2044.14 744.421 2048 L 559.807 2048 C 557.012 2030.06 551.248 2012.17 547.035 1994.47 C 540.962 1968.96 535.764 1943.28 529.476 1917.8 C 536.649 1911.22 545.279 1905.69 553.056 1899.78 C 569.463 1887.3 585.952 1874.79 601.976 1861.83 C 645.338 1826.76 689.273 1784.3 728.773 1744.89 C 742.982 1730.71 760.288 1715.88 771.578 1699.23 C 775.375 1693.63 776.669 1687.5 778.284 1681.04 C 752.941 1708.29 727.684 1736.18 700.936 1762.05 C 670.301 1791.68 637.819 1819.9 605.356 1847.49 C 581.057 1868.15 538.299 1892.71 519.625 1914.7 L 540.579 2004.03 C 544.128 2018.68 546.823 2033.73 551.662 2048 L 251.351 2048 C 223.832 1931.18 198.955 1732.45 233.062 1619.09 C 229.819 1621.61 225 1624.47 222.753 1627.84 C 218.616 1634.05 216.552 1643.36 214.935 1650.54 C 195.582 1736.59 227.604 1958.65 249.511 2048 L 41.5514 2048 C 51.8423 1989.15 70.5172 1930.81 88.5875 1873.96 C 108.973 1809.82 141.164 1721.54 177.177 1665.65 C 185.353 1652.96 194.941 1641.39 205.052 1630.22 C 210.374 1624.34 216.922 1615.51 224.053 1612.05 C 248.222 1600.33 275.001 1593 299.917 1582.89 C 358.696 1558.65 417.909 1535.47 477.528 1513.38 C 539.281 1490.33 600.777 1467.07 660.848 1439.86 C 681.08 1430.69 701.928 1421.59 721.408 1410.93 C 728.366 1407.13 733.246 1399.92 739.954 1395.57 C 758.785 1383.33 777.542 1371.19 795.159 1357.21 C 830.059 1329.54 862.614 1298.19 898.658 1272.07 C 894.507 1254.29 888.55 1230.04 879.763 1214.14 C 871.398 1199 857.472 1185.3 846.421 1171.95 C 830.383 1152.57 815.171 1133.06 801.124 1112.17 C 786.523 1090.79 773.529 1068.35 762.252 1045.05 C 755.718 1031.2 750.318 1016.97 744.115 1003 C 742.12 1001.84 740.152 1000.63 738.212 999.373 C 719.869 987.453 706.844 969.671 692.691 953.395 C 672.594 930.283 641.165 897.61 632.063 868.504 C 627.461 853.79 629.29 837.871 626.714 822.797 C 625.691 816.815 612.824 785.48 609.751 779.06 C 607.047 773.41 600.969 768.467 597.125 763.464 C 584.736 747.411 575.558 729.12 570.093 709.593 C 564.682 689.7 561.04 668.036 558.976 647.525 C 557.616 634.008 557.788 620.607 554.975 607.249 C 556.792 657.345 565.237 729.144 587.734 774.185 C 593.443 785.614 601.819 794.962 608.367 805.767 L 609.412 807.512 C 608.298 806.968 608.107 806.918 606.941 806.088 C 579.032 786.219 547.027 724.923 542.61 691.374 C 528.806 711.24 507.804 727.938 485.529 737.198 C 505.522 716.86 523.021 695.567 534.753 669.328 C 524.587 631.837 520.81 594.738 524.191 555.961 C 499.032 578.64 473.498 600.414 440.09 609.539 C 462.401 595.498 481.387 576.491 497.922 556.098 C 495.304 544.322 493.033 532.872 492.469 520.772 C 487.246 408.633 582.6 258.995 655.906 179.453 C 715.772 114.493 806.534 57.738 894.099 41.2607 C 909.043 38.4486 923.984 37.675 939.133 37.0718 C 970.877 14.7911 998.734 6.52992 1036.49 0 z M 974.563 33.197 L 974.005 33.7507 L 974.563 33.197 C 1018.61 33.0906 1062.36 35.7927 1103.64 52.6643 C 1115.96 57.7018 1127.14 65.4059 1139.38 70.4404 L 1139.83 70.8503 L 1139.38 70.4404 C 1139.2 70.1648 1139.03 69.8862 1138.84 69.6135 C 1122.53 45.5562 1093.13 25.4438 1064.52 19.9676 C 1036.88 14.6757 998.509 16.7806 974.563 33.197 z M 1180.48 84.1207 L 1180.01 84.7482 L 1180.48 84.1207 C 1198.04 84.348 1214.72 80.8593 1232.61 82.44 C 1284.03 86.9841 1338.21 119.388 1378.32 150.722 C 1388.61 158.755 1397.58 168.268 1407.76 176.243 L 1408.41 175.644 L 1405.86 171.681 C 1378.46 132.663 1336.4 101.224 1292.02 84.2972 C 1253.26 69.5147 1218.88 67.0271 1180.48 84.1207 z M 857.421 134.417 C 869.71 130.116 883.516 119.937 895.38 113.737 C 932.776 94.1936 974.162 87.1831 1015.92 90.2114 L 1017 90.8267 L 1015.92 90.2114 C 990.421 79.2548 935.204 94.4541 910.641 104.273 C 897.995 109.328 865.969 124.474 857.421 134.417 L 856.812 135.151 C 855.903 135.725 854.807 136.296 854 137 L 852.553 138.301 L 850.087 140.085 L 849.116 140.995 L 850.087 140.085 C 850.945 139.639 851.779 138.885 852.553 138.301 L 854 137 C 854.97 136.527 855.917 135.761 856.812 135.151 L 857.421 134.417 z M 811.559 176.526 C 825.261 170.355 836.969 157.919 850.057 150.192 C 893.701 124.421 947.583 103.728 998.996 107.966 C 1016.77 109.431 1033.74 114.012 1050.96 118.347 L 1051.8 118.939 L 1050.96 118.347 C 1030.23 103.504 981.37 103.927 957.006 107.959 C 911.917 115.674 869.137 133.422 831.827 159.89 C 825.131 164.617 816.57 170.109 811.559 176.526 L 811.125 176.979 L 811.559 176.526 z M 750.507 174.46 C 736.769 184.104 722.256 201.676 710.977 214.359 C 679.752 249.469 649.054 288.87 627.268 330.621 C 612.829 358.29 601.613 387.485 590.083 416.454 C 584.385 430.769 572.539 457.261 571.457 472.039 C 571.421 472.526 571.558 473.01 571.609 473.495 C 584.563 439.986 603.57 403.314 629.469 377.756 C 623.586 395.101 616.799 412.052 611.456 429.597 C 596.968 477.176 589.688 525.646 586.178 575.147 C 586.085 585.183 585.857 595.268 586.391 605.294 C 586.702 611.139 588.483 617.333 587.77 623.104 L 588.73 624.091 C 590.602 618.771 588.56 579.613 588.854 570.354 C 589.167 560.53 590.263 550.88 591.59 541.15 C 602.837 458.668 629.558 392.443 678.973 325.581 C 693.886 305.403 710.322 286.514 725.791 266.804 C 702.62 280.412 681.625 297.351 658.978 311.703 C 675.94 280.047 693.357 249.503 714.477 220.39 C 721.363 210.869 728.578 201.59 736.108 192.569 C 740.756 186.936 747.061 180.863 750.507 174.46 L 750.995 174.005 L 750.507 174.46 z M 1270.01 201.176 L 1271.53 201.575 L 1273.46 203.487 L 1274.29 204.104 L 1276.59 205.315 L 1277.24 206.173 L 1279.7 207.397 L 1281.13 208.425 C 1281.58 208.91 1282.03 209.401 1282.49 209.882 C 1291.39 219.199 1304.12 226.88 1314.14 235.228 C 1336.92 254.162 1358.04 275.007 1377.27 297.535 C 1389.63 312.087 1400.78 328.272 1410.27 344.828 C 1415.67 354.225 1420.74 366.672 1427.5 374.932 L 1428.21 376.445 L 1429.33 378.648 L 1429.96 379.995 L 1429.33 378.648 L 1428.21 376.445 L 1427.5 374.932 C 1427.26 373.609 1427.03 372.465 1426.56 371.199 C 1422.75 360.971 1416.55 350.813 1410.98 341.384 C 1385.12 297.599 1351.49 262.435 1312.21 230.544 C 1302.76 222.873 1292.21 213.41 1281.13 208.425 L 1279.7 207.397 L 1277.24 206.173 L 1276.59 205.315 L 1274.29 204.104 L 1273.46 203.487 L 1271.53 201.575 L 1270.01 201.176 z M 782.549 206.531 L 782.032 206.995 L 782.549 206.531 C 792.259 200.807 800.116 191.816 809.835 185.871 C 868.198 150.166 939.776 122.712 1009.18 127.406 C 1016.78 127.92 1024.6 128.881 1031.95 130.951 C 1036.55 132.244 1050.07 139.374 1053.78 138.149 L 1052.82 137.47 C 1024.8 118.146 977.386 123.657 946.044 129.633 C 899.666 138.404 855.256 155.486 814.953 180.053 C 803.616 186.959 790.142 195.341 782.549 206.531 z M 1102.01 212.184 L 1103.01 212.988 L 1104.51 214.257 L 1106.56 215.382 L 1106.86 215.813 L 1108.14 217.276 C 1114.49 224.438 1123.18 230.179 1130.2 236.796 C 1145.31 251.2 1159.2 266.819 1171.75 283.496 C 1222.44 349.762 1262.44 442.345 1330.76 491.452 C 1338.31 496.883 1348.13 503.492 1357.41 505.246 L 1357.99 505.826 L 1357.41 505.246 C 1348.04 498.577 1338.16 493.404 1329.25 485.904 C 1284.69 448.411 1264.85 393.842 1232.93 346.92 C 1210.68 314.219 1181.8 283.872 1153.86 256.026 C 1140.55 242.763 1123.64 224.099 1106.86 215.813 L 1106.56 215.382 L 1104.51 214.257 L 1103.01 212.988 L 1102.01 212.184 z M 1095.17 229.005 L 1095.68 229.406 L 1096.18 230.073 C 1103.53 239.589 1112.87 247.496 1120.29 257.019 C 1146.37 290.489 1169.42 328.341 1190.23 365.284 C 1200.25 383.075 1210.1 400.877 1219.21 419.157 C 1224.51 429.789 1229.04 442.053 1235.43 451.973 C 1235.44 454.376 1235.01 453.382 1236.61 455.006 C 1236.56 452.625 1236.99 453.62 1235.43 451.973 C 1235.2 450.475 1235.24 450.505 1234.77 448.77 C 1224.15 409.442 1129.47 250.004 1095.68 229.406 L 1095.17 229.005 z M 870.48 242.557 L 868.535 244.621 L 867.8 245.142 L 866.621 246.27 L 864 248.016 L 862.597 249.338 L 860.047 251.034 L 858.607 252.362 L 857.67 253.129 C 856.804 253.714 855.767 254.296 855 255 L 853.563 256.318 L 851.006 258 L 849.599 259.349 C 847.606 260.243 847.341 260.121 846 262 C 843.992 262.944 843.338 263.149 842 265 L 840.6 266.348 L 838.382 267.213 L 838.027 268.209 C 829 272.62 820.082 280.464 812.507 287.062 C 766.296 327.313 737.507 384.791 717.79 442.074 C 715.557 448.564 711.966 456.994 711.782 463.877 L 711.246 464.995 L 711.782 463.877 C 716.27 455.958 718.679 445.312 721.843 436.683 C 726.362 424.68 731.281 412.832 736.591 401.158 C 753.251 363.714 773.921 327.048 803.574 298.325 C 814.277 287.958 827.372 279.615 837.469 268.821 C 837.657 268.619 837.841 268.413 838.027 268.209 L 839.097 268.143 L 840.6 266.348 L 842 265 C 844.196 264.217 844.485 263.811 846 262 C 848.216 261.25 848.149 261.005 849.599 259.349 L 851.006 258 C 851.957 257.568 852.722 256.933 853.563 256.318 L 855 255 C 855.989 254.501 856.795 253.803 857.67 253.129 L 858.607 252.362 L 860.047 251.034 C 860.927 250.619 861.794 249.896 862.597 249.338 L 864 248.016 C 864.974 247.565 865.76 246.906 866.621 246.27 L 867.8 245.142 L 868.535 244.621 L 870.48 242.557 L 871.995 242.169 L 870.48 242.557 z M 821 261 L 818.167 262.417 L 816.514 263.243 L 815.626 263.675 C 782.23 273.527 735.844 333.296 719.869 362.903 C 708.976 383.092 696.308 419.197 696.893 442.308 C 701.466 421.422 706.277 400.984 714.482 381.141 C 732.581 337.375 768.021 294.715 807.986 269.045 C 810.59 267.372 813.498 265.926 815.626 263.675 L 816.514 263.243 L 818.167 262.417 L 821 261 L 822.995 260.005 L 821 261 z M 1007 277 C 1006.79 277.762 1006.34 278.916 1006.32 279.692 C 998.457 294.793 981.257 430.126 985.112 446.671 C 987.857 440.432 994.632 350.455 996.864 333.5 C 998.495 321.111 1000.87 308.813 1003.24 296.549 C 1004.28 291.189 1006.14 285.117 1006.32 279.692 C 1006.65 279.109 1006.85 277.676 1007 277 L 1007.84 275.005 L 1007 277 z M 938.498 301.412 C 936.201 302.651 934.964 303.417 933.508 305.606 L 932.809 306.148 L 931.696 307.319 L 931.168 307.726 C 924.472 311.831 918.559 318.478 912.86 323.895 C 899.803 336.304 886.853 348.704 874.931 362.23 C 867.384 370.791 860.665 380.823 852.59 388.784 C 853.471 384.614 854.39 380.452 855.349 376.298 C 866.288 329.18 892.853 277.786 928.408 244.77 C 941.034 233.045 954.923 223.978 969.47 214.901 C 968.969 215.051 968.466 215.194 967.966 215.35 C 923.374 229.323 882.364 280.356 862.013 320.434 C 826.104 391.151 819.354 437.024 824.213 515.23 C 826.009 544.15 829.166 573.34 838.204 601.008 C 835.746 584.303 833.713 567.539 832.104 550.73 C 825.732 478.494 852.379 407.646 895 350.208 C 906.176 335.147 919.174 322.044 931.168 307.726 L 931.696 307.319 L 932.809 306.148 L 933.508 305.606 C 935.891 304.543 936.881 303.436 938.498 301.412 L 938.995 301.005 L 938.498 301.412 z M 1284.31 302.353 C 1276.87 295.04 1269.93 287.561 1261.86 280.91 C 1274.76 305.728 1293.94 329.734 1313.69 349.635 C 1308.89 339.141 1300.92 330.294 1296.71 319.637 C 1305.01 327.956 1311.84 338.576 1320.36 346.319 L 1320.77 346.932 L 1320.36 346.319 C 1318.98 340.865 1315.28 335.302 1312.59 330.348 C 1306.42 318.974 1300.3 307.318 1292.63 296.873 C 1286.77 288.91 1279.84 281.644 1273.56 273.997 C 1276.63 283.716 1279.94 293.131 1284.31 302.353 z M 1066.01 309.005 L 1066.54 309.427 C 1075.26 320.536 1184.95 424.153 1192.49 427.571 L 1193.19 428.161 L 1194.4 429.212 C 1195.19 429.821 1196.05 430.599 1196.93 431.069 L 1198.4 432.349 L 1199.3 433.166 L 1199.99 433.805 L 1199.3 433.166 L 1198.4 432.349 L 1196.93 431.069 L 1194.4 429.212 L 1193.19 428.161 L 1192.49 427.571 C 1183.32 415.288 1155.6 391.643 1143.52 380.231 C 1125.18 362.904 1107.28 345.191 1088.55 328.269 C 1081.51 321.911 1074.45 314.669 1066.54 309.427 L 1066.01 309.005 z M 1204.99 148.163 C 1211.91 152.594 1232.92 156.414 1242.04 159.479 C 1289.05 175.282 1338.15 202.665 1370.62 240.362 C 1387.31 259.729 1400.59 282.331 1413.11 304.518 C 1418 313.187 1424.23 327.758 1430.56 334.839 C 1430.88 335.2 1431.22 335.549 1431.55 335.904 L 1432.19 337.457 L 1433.34 339.643 L 1433.99 340.995 L 1433.34 339.643 L 1432.19 337.457 L 1431.55 335.904 C 1427.83 320.663 1391.64 262.398 1380.63 248.204 C 1342.69 199.302 1267.09 156.169 1204.99 148.163 z M 1262.48 345.883 C 1251.09 332.937 1239.54 320.852 1227.2 308.791 C 1233.37 325.417 1246.23 336.045 1254.28 351.318 C 1242.11 339.952 1232.93 326.439 1218.72 317.322 C 1232.34 335.709 1243.72 357.027 1261.24 372.064 L 1262.54 372.179 L 1262.7 369.211 C 1267.9 372.528 1271.96 377.472 1276.52 381.601 C 1272.08 373.204 1267.58 365.086 1264.81 355.936 C 1270.79 362.514 1275.43 367.541 1283.21 372.165 C 1280.66 368.011 1277.02 363.326 1275.62 358.674 C 1285.18 366.387 1290.62 378.604 1301.33 387.201 C 1283.13 357.687 1263.66 330.606 1239.49 305.722 C 1246.03 319.896 1254.98 332.305 1262.48 345.883 z M 1058.28 479.802 L 1058.67 480.911 C 1060.68 496.629 1065.9 511.98 1067.77 527.808 C 1073.61 577.213 1063.79 631.7 1046.9 678.04 C 1067.26 671.958 1087.71 666.204 1108.25 660.78 C 1120.66 657.695 1133.39 655.586 1145.86 652.667 C 1115.45 614.276 1092.98 576.754 1075.98 530.772 C 1070.12 514.932 1067.24 495.398 1058.67 480.911 L 1058.28 479.802 z M 1211.17 575.005 L 1211.6 576.498 L 1212.48 577.326 C 1212.53 577.477 1212.58 577.63 1212.64 577.779 C 1225.05 609.855 1268.87 654.07 1300.03 667.457 C 1294.48 658.949 1267.95 640.194 1258.64 631.454 C 1247.59 621.106 1237.42 609.855 1228.24 597.817 C 1223.42 591.575 1219.07 584.472 1213.75 578.691 L 1212.48 577.326 L 1211.6 576.498 L 1211.17 575.005 z M 851.053 639.005 L 851.553 640.192 C 856.775 660.931 865.198 683.354 875.199 702.237 C 879.918 711.149 886.111 719.394 890.277 728.561 C 896.647 728.368 902.661 728.316 908.999 729.094 L 912.887 729.569 C 905.967 730.064 899.041 730.65 892.114 731.021 C 926.836 790.241 960.633 831.574 941.701 904.603 C 938.169 918.229 932.93 931.516 927.557 944.514 C 922.835 955.936 913.588 969.693 912.77 981.995 C 912.279 989.374 917.13 1000.92 920.869 1007.19 C 927.939 1019.06 940.479 1024.83 948.415 1035.34 C 939.391 1032.36 930.339 1025.29 924.313 1018.07 C 918.065 1010.59 911.174 996.847 910.954 986.858 C 910.589 970.38 922.228 947.591 927.76 931.746 C 933.876 914.228 939.44 896.147 941.131 877.599 C 942.134 866.589 942.575 854.941 940.883 843.974 C 935.771 810.836 913.859 767.048 892.33 741.388 C 890.195 738.844 886.697 734.218 883.087 734.289 C 880.179 734.345 877.47 735.129 874.488 734.91 C 867.733 734.415 860.625 732.452 853.937 731.28 L 810.336 723.786 C 802.779 722.508 793.937 720.209 786.33 720.956 L 785.351 722.412 L 787.53 727.16 L 786.824 727.896 C 780.17 726.584 775.19 721.498 770.152 717.271 C 756.575 714.84 742.371 714.028 728.633 712.597 C 735.677 730.002 745.92 743.668 756.125 759.198 C 746.986 750.376 737.132 741.69 729.269 731.686 C 725.33 726.674 722.527 718.814 718.182 714.668 C 716.434 712.999 712.729 712.428 710.475 711.569 C 710.692 709.801 710.834 708.019 711.066 706.255 C 711.73 701.206 709.27 697.136 707.257 692.6 C 707.334 715.529 713.835 737.205 729.792 754.129 C 745.003 770.262 753.012 764.436 771.804 761.469 C 782.585 759.767 794.099 759.362 804.998 759.81 C 832.214 760.927 860.163 766.411 879.204 787.486 C 884.398 793.235 899.53 810.161 899.086 818.288 L 897.315 818.688 C 888.209 814.462 880.866 804.367 874.218 796.979 C 873.762 800.29 873.389 803.722 872.607 806.975 C 870.136 817.256 863.943 826.676 854.785 832.149 C 845.707 837.574 834.165 838.778 824.006 836.051 C 812.465 832.951 803.243 825.519 797.488 815.089 C 790.109 801.716 790.061 788.722 794.114 774.46 C 773.991 777.865 758.588 784.08 742.817 797.183 C 746.962 806.349 753.822 814.763 760.927 821.806 C 777.38 838.115 794.984 842.228 817.515 843.359 C 825.938 843.782 834.6 844.252 843.006 843.497 C 854.074 842.503 865.289 840.001 876.401 840.118 C 876.774 840.122 877.147 840.136 877.52 840.145 C 873.011 841.528 868.425 842.648 863.785 843.5 C 826.401 850.462 786.032 847.586 754.292 824.73 C 745.829 818.637 739.596 809.895 730.905 803.978 C 730.451 803.669 729.983 803.38 729.539 803.056 C 723.198 798.422 714.813 802.797 708.888 797.838 C 710.144 795.129 716.676 796.439 718.707 793.734 C 715.965 792.4 710.36 793.808 707.062 793.876 C 704.877 792.778 704.691 792.719 703.565 790.567 C 710.283 790.609 716.763 790.489 723.433 789.64 C 714.551 786.4 706.903 782.591 698.913 777.507 C 712.048 782.426 721.551 783.437 735.537 783.116 C 731.734 781.867 728.388 780.681 724.959 778.596 C 727.323 776.687 734.747 776.996 738.047 775.922 C 741.103 774.927 744.1 773.114 746.926 771.592 C 722.717 763.002 700.573 741.911 684.262 722.736 C 684.799 742.74 689.629 758.208 697.295 776.493 L 693.853 774.025 L 693.282 774.562 C 695.572 778.049 697.827 781.559 700.048 785.091 C 693.247 781.466 686.815 771.123 682.319 765.013 C 687.111 787.789 689.352 811.229 694.851 833.791 C 700.15 855.528 707.937 876.685 715.142 897.846 C 733.25 951.035 752.976 1005.26 779.531 1054.87 C 817.764 1126.31 883.953 1206.46 944.076 1260.57 C 962.561 1277.21 980.851 1295.09 1005.28 1302.33 C 1031.48 1310.09 1059.85 1309.27 1083.94 1295.82 C 1140.77 1264.1 1281.97 1107.15 1308.81 1048.52 C 1317.55 1029.43 1323.43 1007.89 1329.47 987.797 C 1339.33 955.019 1349.02 921.955 1362.84 890.559 C 1374.64 863.761 1395.53 861.501 1404.88 828.721 C 1400.17 819.671 1390.19 810.402 1391.15 799.478 C 1391.85 791.456 1396.96 782.328 1400.36 775.03 C 1413.81 746.176 1427.25 722.423 1447.63 697.724 C 1452.6 691.705 1457.58 684.808 1463.75 679.952 C 1466.4 677.863 1469.36 676.749 1472.79 677.522 C 1476.16 678.284 1478.79 680.756 1480.75 683.477 C 1497.25 706.34 1501.55 768.139 1496.71 795.662 C 1494.16 785.06 1493.91 774.099 1492.69 763.288 C 1490.33 742.318 1484.82 710.953 1475.17 692.749 C 1473.71 689.984 1472.48 688.559 1469.5 687.638 C 1461.84 691.41 1447.89 713.33 1442.06 721.14 C 1446.65 722.802 1451.01 724.477 1454.81 727.62 C 1465.96 736.841 1468.42 750.941 1469.58 764.588 C 1471.66 789.091 1460.52 808.972 1440.78 823.23 C 1432.02 829.557 1421.6 835.115 1413.75 842.439 C 1409.22 846.66 1406.88 853.254 1402.58 857.836 C 1394.21 866.772 1384.26 874.039 1376.39 883.506 L 1375.5 884.595 C 1385.16 880.442 1393.83 874.571 1402.78 869.122 C 1425.9 855.048 1446.36 840.115 1466.02 821.479 C 1473.28 814.602 1479.87 806.849 1487.21 800.147 C 1488.94 798.569 1490.32 797.084 1492.73 797.24 L 1492.8 799.797 C 1486.18 814.699 1461.9 834.24 1448.72 844.81 C 1435.14 855.699 1420.44 864.875 1406.11 874.725 C 1398.71 879.819 1390.77 886.589 1382.61 890.32 C 1379.48 891.754 1376.97 892.195 1373.55 891.777 C 1371.64 891.543 1370.64 891.303 1368.8 892.082 C 1363.57 906.949 1357.41 921.817 1353.29 937.019 L 1354.99 938.728 C 1363.76 941.771 1373.99 941.276 1382.97 939.263 C 1391.28 937.399 1399.55 933.681 1406.28 928.433 C 1429.1 910.626 1478.24 845.973 1494.02 820.51 C 1499.56 811.572 1503.63 802.921 1505.8 792.606 C 1510.58 769.985 1505.99 721.895 1500.54 699.35 C 1497.02 684.796 1488.32 668.444 1475.07 660.827 C 1466.66 655.994 1457.41 655.961 1448.24 658.736 C 1402.36 672.616 1394.5 738.802 1382.65 777.383 C 1377.25 794.971 1369.75 812.027 1363.9 829.505 C 1357.89 847.459 1348.3 883.923 1339.4 899.396 C 1339.07 899.966 1338.73 900.526 1338.39 901.091 C 1339.92 878.829 1346 855.262 1351.31 833.628 C 1338.42 852.707 1326.23 872.252 1314.76 892.221 C 1324.75 846.766 1335.24 809.72 1331.78 762.278 C 1327.89 781.93 1326.6 801.776 1320.05 820.885 C 1323.03 767.025 1330.36 720.061 1300.26 671.449 C 1287.53 668.662 1274.26 663.002 1261.24 662.47 C 1243.43 661.743 1223.6 668.18 1206.25 672.179 C 1181.35 677.92 1156.72 683.955 1132.08 690.767 C 1096.43 700.625 1060.35 711.521 1023.97 718.29 C 1020.64 734.735 1020.9 746.936 1023.48 763.536 C 1014.61 748.635 1012.87 731.849 1008.44 715.406 C 1006.34 713.4 1005.01 714.091 1002.24 714.145 C 1004.69 713.016 1007.41 711.868 1008.86 709.422 C 1009.06 709.085 1009.12 708.683 1009.25 708.314 C 1008.18 706.171 1008 705.709 1005.54 704.9 C 1001.86 703.685 996.773 703.541 992.86 703.07 C 997.803 702.421 1002.4 702.006 1007.41 702.243 C 1002.58 679.544 996.837 656.886 993.178 633.966 C 988.894 607.125 987.339 580.487 985.554 553.424 C 982.895 565.279 982.695 578.203 982.126 590.328 C 979.906 637.584 982.299 683.611 997.742 728.795 C 1001.06 738.518 1004.67 749.136 1010.18 757.873 C 1015.16 765.771 1020.94 773.215 1026.55 780.676 C 1005.99 772.11 985.707 758.196 968.025 744.673 C 961.776 739.894 955.886 734.263 949.497 729.744 L 949.005 729.205 L 949.497 729.744 C 952.749 734.893 956.846 739.676 960.25 744.775 C 965.647 752.86 970.317 761.504 975.119 769.95 C 953.058 751.08 948.101 731.574 933.312 709.353 C 933.152 709.114 932.988 708.878 932.826 708.64 L 932.246 708.005 L 932.826 708.64 C 933.229 722.98 944.926 746.274 954.117 757.377 C 922.034 739.589 892.464 710.904 873.081 679.951 C 865.069 667.158 858.73 653.451 851.553 640.192 L 851.053 639.005 z M 836.693 697.024 C 849.079 701.371 861.025 706.856 873.358 711.344 L 873.838 711.769 L 873.358 711.344 C 870.736 707.076 867.181 703.13 864.297 698.991 C 858.209 690.231 852.495 681.216 847.172 671.97 C 818.871 623.236 808.54 571.372 801.351 516.237 C 799.363 527.543 801.016 540.943 801.888 552.402 C 805.005 593.326 811.031 632.589 825.312 671.264 C 828.495 679.884 831.847 689.224 836.693 697.024 z M 675.02 888.243 C 673.511 882.372 671.994 876.55 671.582 870.483 C 670.945 861.096 673.286 849.107 669.583 840.369 L 668.178 840.012 C 665.209 846.074 665.873 856.665 666.757 863.307 C 670.686 892.805 695.498 923.806 718.356 941.461 L 718.791 941.945 L 718.356 941.461 C 716.501 933.312 712.51 925.216 709.463 917.421 C 701.731 897.644 694.098 878.7 684.787 859.561 C 681.021 875.113 684.208 887.592 686.921 902.897 C 685.359 899.715 683.767 896.515 682.422 893.235 C 677.754 881.85 677.706 867.516 682.297 856.115 C 679.323 851.609 675.719 847.405 672.393 843.148 C 673.203 846.661 674.359 850.155 675.347 853.625 C 674.612 865.268 674.573 876.595 675.02 888.243 z M 1327.88 1087.58 C 1342.12 1056.57 1348 1038.96 1350.02 1004.45 C 1350.91 989.089 1351.28 973.976 1354.24 958.844 C 1354.52 957.433 1354.4 956.218 1354.16 954.816 C 1352.06 953.572 1351.82 952.969 1349.3 953.183 C 1339.64 984.898 1332.14 1017.38 1318.8 1047.9 C 1286.38 1122.04 1168.87 1323.08 1098.16 1360.45 C 1074.56 1372.92 1046.67 1373.5 1021.51 1365.46 C 986.075 1354.13 954.847 1304.81 932.74 1276.21 C 924.253 1265.23 915.198 1254.75 906.039 1244.33 C 911.255 1270.59 917.146 1296.68 922.011 1323.01 C 926.228 1345.84 928.566 1369.91 936.442 1391.83 C 940.378 1402.79 947.654 1412.83 953.83 1422.64 C 978.07 1461.16 1005.26 1499.59 1040.77 1528.56 L 1059.55 1526.66 C 1059.81 1526.44 1060.06 1526.21 1060.31 1526 C 1074.92 1513.6 1094.17 1504.97 1110.27 1494.51 C 1145.02 1471.95 1180.91 1446.76 1212.15 1419.52 C 1216.92 1415.35 1220.55 1410.66 1223.55 1405.09 C 1231.34 1390.63 1236.68 1373.94 1242.51 1358.58 C 1259.87 1312.84 1276.28 1265.34 1289.24 1218.16 C 1298.02 1186.18 1304.4 1153.45 1313.64 1121.66 C 1312.06 1141.04 1307.22 1160.13 1302.75 1179 C 1293.39 1218.55 1282.05 1257.08 1269.78 1295.81 C 1258.42 1331.67 1247.39 1370.98 1229.52 1404.16 C 1271.37 1370.98 1309.11 1332.92 1341.93 1290.79 C 1348.21 1282.66 1358.09 1271.77 1359.47 1261.34 C 1361.63 1245 1359.96 1226.71 1359.43 1210.23 C 1358.32 1175.94 1356.5 1141.74 1354.73 1107.48 C 1353.84 1090.42 1355.38 1073.16 1354.07 1056.15 C 1347.78 1068.05 1341.33 1082.47 1327.88 1087.58 z M 917.109 1350.01 L 917.346 1352.74 L 918.995 1353.99 L 917.346 1352.74 L 917.109 1350.01 z M 758.501 1397.68 C 751.521 1401.63 742.959 1406.27 738.183 1412.78 C 732.388 1420.68 727.986 1430.24 723.184 1438.79 C 717.005 1449.78 710.349 1460.5 703.847 1471.31 C 669.841 1527.83 636.776 1584.65 603.881 1641.81 L 562.952 1711.78 C 556.219 1723.26 547.972 1734.94 542.823 1747.16 C 551.748 1758.69 561.828 1769.51 571.402 1780.51 C 584.397 1795.45 596.909 1810.68 611.753 1823.85 C 614.204 1822.27 616.271 1821.45 617.639 1818.84 C 611.142 1805.45 563.61 1758.36 550.038 1745.59 C 554.613 1733.82 564.018 1721.97 570.847 1711.28 C 582.968 1692.46 594.811 1673.46 606.372 1654.29 C 644.63 1590.65 680.046 1525.37 718.426 1461.81 C 728.652 1444.88 753.052 1413.69 758.501 1397.68 L 758.848 1397.21 L 758.501 1397.68 z M 1571.01 1405.01 L 1571.57 1406.04 C 1581.61 1435.35 1586.35 1464.27 1591.95 1494.55 C 1596.21 1517.56 1601.39 1540.38 1604.39 1563.6 C 1608.1 1592.2 1609.02 1621.56 1611.28 1650.34 C 1616.19 1721.91 1621.86 1793.43 1628.28 1864.88 C 1595.36 1875.23 1529.06 1899.17 1502.39 1918.36 L 1518.46 1913.9 C 1559.97 1899.96 1601.58 1886.32 1643.29 1873.01 C 1633.78 1826.41 1632.82 1777.76 1628.97 1730.47 C 1626.22 1700.16 1623.29 1669.88 1620.16 1639.62 C 1617.33 1609.28 1615.25 1578.75 1610.5 1548.64 C 1606.73 1524.7 1600.9 1500.74 1595.72 1477.07 C 1591.17 1456.28 1584.53 1422.5 1571.57 1406.04 L 1571.01 1405.01 z M 1265.27 198.5 L 1266.49 198.5 L 1265.27 198.5 z M 1187.27 200.5 L 1188.49 200.5 L 1187.27 200.5 z M 1268.26 200.5 L 1269.49 200.5 L 1268.26 200.5 z M 1187.21 200.888 C 1244.53 230.851 1263.56 256.623 1307.15 300.03 C 1325.57 318.371 1344.66 335.237 1360.47 356.054 C 1366.98 364.636 1392.27 409.123 1395.7 411.411 C 1361.98 337.989 1293.4 258.66 1223.07 217.799 C 1213.29 212.121 1203.57 206.131 1192.92 202.215 C 1191.03 201.524 1189.22 201.039 1187.21 200.888 z M 970.268 214.5 L 971.49 214.5 L 970.268 214.5 z M 968.27 215.5 L 969.49 215.5 L 968.27 215.5 z M 974.504 272.984 C 927.229 320.873 905.56 445.618 906.369 511.525 C 906.416 515.32 906.052 520.345 907.765 523.723 L 909.189 524.67 C 903.466 469.847 921.31 383.203 942.512 332.179 C 948.215 318.454 954.633 304.538 962.238 291.765 C 964.946 287.217 974.506 277.184 974.504 272.984 z M 1249.89 284.674 C 1258.66 306.616 1272.55 325.939 1284.48 346.18 C 1289.83 355.238 1293.81 365.273 1300.45 373.43 L 1301.36 373.777 C 1297.99 366.013 1294.91 358.009 1291.27 350.376 C 1289.41 346.486 1286.89 342.778 1285.43 338.732 C 1292.7 338.96 1301.27 350.115 1306.03 355.187 L 1306.67 355.868 C 1310.74 357.021 1314.62 358.232 1318.5 359.917 C 1311.71 353.358 1305.11 346.755 1299.02 339.52 C 1286.33 324.455 1265.47 294.707 1249.89 284.674 z M 1434.46 342.5 L 1435.23 342.5 L 1434.46 342.5 z M 1435.45 344.5 L 1436.23 344.5 L 1435.45 344.5 z M 1436.41 346.5 L 1437.11 346.5 L 1436.41 346.5 z M 1437.39 348.5 L 1438.09 348.5 L 1437.39 348.5 z M 557.594 363.79 C 534.874 400.971 494.326 505.223 504.044 548.484 C 510.46 542.634 515.13 534.593 519.716 527.268 C 525.572 517.914 531.8 508.082 535.307 497.572 C 538.804 487.094 538.561 474.96 539.654 463.997 C 541.216 448.337 543.047 432.276 546.025 416.813 C 548.47 404.115 557.743 376.164 557.733 365.672 C 557.732 365.043 557.64 364.417 557.594 363.79 z M 1430.39 381.5 L 1431.07 381.5 L 1430.39 381.5 z M 1395.4 412.5 L 1396.24 412.5 L 1395.4 412.5 z M 1396.33 414.5 L 1397.09 414.5 L 1396.33 414.5 z M 1397.26 416.5 L 1398.04 416.5 L 1397.26 416.5 z M 1541.56 443.5 L 1542.49 443.5 L 1541.56 443.5 z M 570.481 475.973 L 571.025 476.5 L 570.481 475.973 z M 1107.4 494.5 L 1108.18 494.5 L 1107.4 494.5 z M 1108.32 496.908 L 1109.49 497.5 L 1108.32 496.908 z M 1108.7 498.69 C 1124.35 543.689 1144.37 587.082 1178.4 621.333 C 1185.56 628.545 1193.88 636.51 1203.21 640.823 C 1211.41 644.613 1217.81 644.008 1226.44 642.914 L 1224.96 641.515 C 1217.86 634.9 1209.32 629.499 1201.79 623.338 C 1180.21 605.685 1159.27 585.048 1143.26 562.221 C 1133.42 548.189 1125.8 533.023 1118.47 517.583 C 1116.15 512.676 1112.76 502.031 1108.7 498.69 z M 765.713 515.98 C 755.289 570.924 763.694 636.237 779.563 689.108 C 792.661 690.633 805.66 692.109 818.572 694.859 L 819.248 693.925 C 815.248 688.689 810.927 683.465 807.35 677.933 C 786.736 646.057 774.461 601.902 770.063 564.528 C 768.187 548.585 768.816 531.596 765.713 515.98 z M 1029.56 541.014 C 1025.83 560.707 1016.07 678.027 1019.49 691.368 L 1020.6 691.371 C 1030.82 666.078 1034.66 570.821 1029.56 541.014 z M 1055.62 547.523 C 1054.5 576.995 1053.3 605.185 1048.01 634.293 C 1047.1 639.322 1038.35 678.241 1038.47 679.424 L 1039.73 680.568 C 1055.34 651.127 1058.68 600.349 1057.52 567.211 C 1057.33 561.883 1057.86 555.146 1056.63 550.064 C 1056.31 548.701 1056.18 548.593 1055.62 547.523 z M 910.425 554.303 L 911.062 555.655 L 911.505 555.755 L 911.015 554.165 L 910.425 554.303 z M 911.554 560.5 L 912.49 560.5 L 911.554 560.5 z M 1210.28 573.5 L 1211.18 573.5 L 1210.28 573.5 z M 1110.71 579.658 C 1119.76 602.353 1134.76 631.932 1148.7 651.805 C 1161.48 650.244 1174.24 648.487 1186.97 646.533 L 1190.39 645.279 C 1185.41 642.707 1179.89 641.288 1174.83 638.684 C 1156.35 629.159 1141.78 615.109 1127.91 599.891 C 1122.44 593.884 1116.88 584.488 1110.71 579.658 z M 715.212 584.708 C 709.994 613.575 716.537 658.712 721.438 687.879 L 746.723 686.387 L 747.213 684.879 C 733.735 662.198 723.662 640.983 719.17 614.665 C 717.506 604.918 717.328 594.259 715.212 584.708 z M 702.664 675.477 C 702.771 680.105 702.518 684.626 704.315 688.969 C 705.109 689.714 705.834 690.525 706.783 691.069 C 706.422 686.03 706.122 679.475 702.664 675.477 z M 1438.47 726.688 C 1432.55 735.469 1413.62 763.399 1414.68 772.778 C 1415.16 772.522 1415.63 772.236 1416.12 772.008 C 1418.71 770.813 1420.81 770.842 1423.39 771.982 C 1434.16 776.742 1440.72 792.471 1444.4 802.888 L 1445.15 808.678 L 1446.63 809.63 C 1451.69 808.18 1455.87 801.68 1459.25 797.67 C 1462.46 780.414 1461.44 753.104 1451.36 738.13 C 1448.01 733.163 1443.43 729.889 1438.47 726.688 z M 1412.04 778.481 C 1407.28 788.977 1402.27 798.118 1406.44 809.777 C 1408.76 816.243 1413.09 822.2 1416.68 828.025 C 1420.6 825.598 1424.78 822.411 1429.27 821.271 C 1434.89 819.375 1439.52 816.857 1444.19 813.17 C 1440.28 803.883 1427.47 783.9 1417.95 780.136 C 1416.05 779.388 1414.02 778.933 1412.04 778.481 z M 799.366 789.163 C 796.683 791.557 795.933 792.6 795.001 796.073 C 795.487 798.753 795.612 799.588 797.888 801.403 C 801.217 804.06 808.761 804.671 812.772 803.631 C 814.404 803.207 814.614 803.079 816.033 802.512 C 818.424 800.233 820.619 798.501 821.547 795.201 C 820.963 792.622 820.929 792.036 818.448 790.62 C 813.56 787.83 804.78 788.675 799.366 789.163 z M 630.551 798.276 C 630.16 801.272 629.32 804.502 630.379 807.41 L 631.268 807.957 C 632.367 805.013 633.499 803.315 632.879 800.192 L 630.551 798.276 z M 730.357 801.09 L 729.92 802.512 C 731.845 803.356 730.951 803.297 732.544 803.085 L 733.322 801.164 C 731.172 800.63 732.158 800.567 730.357 801.09 z M 637.912 802.432 C 630.59 821.871 635.581 854.151 644.142 872.857 C 657.45 901.937 710.399 963.031 734.389 983.633 L 735.582 983.5 C 733.77 972.87 726.663 960.489 722.542 950.287 C 696.211 930.043 665.259 898.506 655.294 866.297 C 650.235 849.944 650.139 821.061 644.006 808.399 C 642.761 805.83 640.35 803.817 637.912 802.432 z M 856.502 804.694 C 852.105 806.353 848.986 807.964 845.39 810.973 L 843.98 812.138 C 840.406 815.147 836.164 819.064 835.451 823.92 C 836.635 827.106 837.471 828.504 840.297 830.377 C 849.196 827.544 855.807 821.737 859.944 813.213 C 861.152 810.725 861.599 808.8 861.513 806.059 L 860.136 804.576 L 856.502 804.694 z M 809.706 805.864 C 809.954 806.322 810.208 806.776 810.45 807.236 C 811.164 808.598 811.436 809.689 811.725 811.182 C 812.47 815.038 814.491 817.856 817.752 820.044 C 822.124 822.977 826.344 823.833 830.38 827.648 C 830.116 820.508 825.795 814.79 820.538 809.971 C 816.912 806.648 814.627 805.646 809.706 805.864 z M 650 816.704 C 651.848 825.044 657.657 857.244 662.806 861.75 L 663.073 859.757 L 662.8 858.359 C 659.9 842.874 669.616 837.057 656.799 823.866 C 654.645 821.649 652.458 818.487 650 816.704 z M 1371.06 1172 C 1370.69 1174.3 1370.19 1176.87 1370.54 1179.19 C 1372.13 1189.76 1380.04 1202.02 1384.18 1212.12 C 1386.44 1217.63 1388.27 1223.37 1390.12 1229.02 C 1348.59 1328.84 1226.73 1428.65 1138.9 1487.76 C 1116.47 1502.85 1093.28 1519.34 1068.42 1530.13 C 1088.09 1552.05 1101.41 1578.84 1115.27 1604.61 C 1140.62 1652.43 1164.45 1701.04 1186.73 1750.36 C 1197.74 1773.42 1208.86 1796.35 1218.25 1820.14 C 1245.5 1764.55 1279.29 1712.11 1309.42 1658.04 C 1355.56 1575.2 1398.6 1483.09 1428.21 1392.94 C 1432.32 1380.44 1442.89 1361.16 1442.78 1348.52 C 1442.62 1329.96 1430.34 1298.3 1424.82 1279.89 C 1417.97 1257.05 1411.62 1233.88 1403.87 1211.34 C 1393.9 1182.31 1388.82 1190.02 1371.06 1172 z M 903.73 1294.92 C 889.735 1323.47 876.631 1354.47 871.277 1385.96 C 864.049 1428.47 867.298 1483.6 868.264 1527.14 C 869.413 1580.48 871.671 1633.79 875.038 1687.04 C 876.833 1718.31 878.192 1749.81 881.488 1780.97 C 889.312 1751.16 902.766 1721.43 915 1693.14 C 935.935 1643.49 979.117 1551.28 1031.02 1530.03 L 1032.1 1529.6 C 1022.27 1523.08 1013.12 1516.42 1004.74 1508.06 C 972.46 1475.92 915.556 1394.86 906.556 1351.59 C 903.134 1335.15 912.884 1308.76 903.73 1294.92 z M 1448.39 1313.5 L 1449.24 1313.5 L 1448.39 1313.5 z M 1450.13 1318.78 C 1451.16 1325.19 1452.99 1332.68 1452.8 1339.14 C 1452.43 1351.54 1443.97 1370.83 1440.62 1383.82 C 1426.95 1436.78 1405.8 1487.34 1383.56 1537.16 C 1371.79 1563.55 1359.91 1590.16 1346.44 1615.73 C 1329.6 1647.67 1311.03 1678.84 1292.79 1710.01 C 1268.69 1751.59 1243.49 1792.53 1217.23 1832.78 C 1210.41 1824.4 1205.61 1813.49 1200.46 1803.93 C 1185.16 1775.48 1171.35 1746 1157.37 1716.87 C 1151.83 1705.33 1147.3 1692.76 1140.48 1681.92 C 1130.6 1701.86 1120.36 1721.46 1108.91 1740.56 C 1099.06 1757 1088.26 1772.87 1078.67 1789.46 C 1084.41 1814.14 1090.41 1838.85 1094.99 1863.77 C 1100.41 1899.35 1104.72 1935.08 1107.94 1970.92 C 1109.3 1986.87 1109.77 2002.89 1111.19 2018.82 C 1132.62 2001.92 1154.97 1986.5 1176.07 1969.09 C 1226.87 1926.35 1274.36 1879.81 1318.1 1829.86 C 1328.85 1817.54 1343.04 1804.05 1351.77 1790.61 C 1360.31 1777.46 1379.72 1699.28 1384.93 1679.92 C 1388.18 1667.82 1392.56 1655.96 1396.15 1643.94 C 1403.68 1618.82 1410.86 1593.6 1417.68 1568.29 C 1429.63 1523.53 1440.13 1478.4 1449.17 1432.97 C 1453.77 1410.22 1459.11 1386.98 1461.84 1363.93 C 1463.7 1348.21 1457.76 1332.51 1450.13 1318.78 z M 919.398 1355.5 L 920.271 1355.5 L 919.398 1355.5 z M 920.324 1357.91 L 921.49 1358.5 L 920.324 1357.91 z M 921.382 1360.5 L 922.147 1360.5 L 921.382 1360.5 z M 922.467 1363.5 L 923.167 1363.5 L 922.467 1363.5 z M 856.461 1406.74 C 836.576 1473.74 818.092 1541.14 801.022 1608.91 C 795.717 1629.91 785.106 1662.12 784.477 1683.27 C 783.99 1699.65 797.616 1730.35 803.34 1747.02 C 809.927 1766.2 815.856 1785.62 822.675 1804.72 C 845.829 1871.19 873.927 1935.83 906.735 1998.1 C 918.726 1949.62 931.255 1901.7 947.972 1854.58 C 957.123 1830.27 967.397 1804.01 982.149 1782.55 C 982.175 1779.89 982.162 1777.24 982.282 1774.58 C 983.094 1756.64 975.547 1726.08 972.097 1707.35 C 967.211 1680.82 962.839 1654.67 959.366 1627.92 C 944.058 1655.18 931.848 1683.35 919.126 1711.88 C 909.438 1733.6 899.272 1755.16 889.872 1777 C 885.328 1787.56 881.546 1798.47 876.859 1808.96 C 875.843 1783.72 871.929 1758.49 869.84 1733.29 C 865.454 1681.04 862.118 1628.71 859.835 1576.32 C 858.182 1537.48 856.135 1498.58 855.739 1459.71 C 855.598 1445.8 858.339 1418.56 856.461 1406.74 z M 1059.79 1533.33 C 1059.49 1533.5 1059.19 1533.67 1058.89 1533.83 C 1050.74 1538.23 1041.97 1537.88 1033.58 1541.05 C 1015.23 1547.99 989.527 1578.57 980.648 1595.75 C 995.342 1602.77 1008.52 1604.41 1024.55 1605.82 C 1050.02 1607.42 1075.53 1608.29 1101.05 1608.42 C 1096.06 1598.05 1064.98 1537.86 1059.79 1533.33 z M 992.117 1779.96 C 993.463 1782.93 993.364 1783.44 996.459 1784.71 C 1012.09 1791.09 1049.38 1793.76 1065.73 1787.19 L 1067.06 1785.05 C 1064.77 1783.35 1029.42 1785.38 1022.54 1784.92 C 1012.1 1784.21 1002.3 1781.02 992.117 1779.96 z M 1007.68 1804.78 C 991.42 1830.56 995.905 1882.42 1001.72 1911.18 C 1004.66 1903.54 1000.93 1885.82 1001.06 1876.7 C 1001.39 1853.06 1007.91 1829.72 1008.67 1806.09 L 1007.68 1804.78 z"/>
<path transform="translate(0,0)" fill="rgb(0,0,0)" d="M 1284.31 302.353 L 1285.15 303.315 L 1284.31 302.353 z"/>
<path transform="translate(0,0)" fill="rgb(0,0,0)" d="M 1285.15 303.315 L 1285.74 303.995 L 1285.15 303.315 z"/>
<path transform="translate(0,0)" fill="rgb(0,0,0)" d="M 1287.09 305.892 L 1286.26 305.005 L 1287.09 305.892 z"/>
<path transform="translate(0,0)" fill="rgb(0,0,0)" d="M 1287.09 305.892 L 1287.83 306.862 L 1287.09 305.892 z"/>
<path transform="translate(0,0)" fill="rgb(0,0,0)" d="M 1291.05 310.5 L 1290.38 310.5 L 1291.05 310.5 z"/>
<path transform="translate(0,0)" fill="rgb(0,0,0)" d="M 1292.95 314.042 L 1292.23 313.071 L 1292.95 314.042 z"/>
<path transform="translate(0,0)" fill="rgb(0,0,0)" d="M 1292.95 314.042 L 1293.73 314.995 L 1292.95 314.042 z"/>
<path transform="translate(0,0)" fill="rgb(0,0,0)" d="M 1294.94 317.042 L 1294.23 316.044 L 1294.94 317.042 z"/>
<path transform="translate(0,0)" fill="rgb(0,0,0)" d="M 1294.94 317.042 L 1296.09 318.912 L 1294.94 317.042 z"/>
<path transform="translate(0,0)" fill="rgb(0,0,0)" d="M 1296.09 318.912 L 1296.71 319.637 L 1296.09 318.912 z"/>
<path transform="translate(0,0)" fill="rgb(0,0,0)" d="M 1262.48 345.883 L 1263.31 347.317 L 1262.48 345.883 z"/>
<path transform="translate(0,0)" fill="rgb(0,0,0)" d="M 1263.31 347.317 L 1263.78 347.853 L 1263.31 347.317 z"/>
<path transform="translate(0,0)" fill="rgb(0,0,0)" d="M 1254.28 351.318 L 1255.14 352.386 L 1254.28 351.318 z"/>
<path transform="translate(0,0)" fill="rgb(0,0,0)" d="M 1255.14 352.386 L 1256.48 354.418 L 1255.14 352.386 z"/>
<path transform="translate(0,0)" fill="rgb(0,0,0)" d="M 1256.48 354.418 L 1257.16 355.218 L 1256.48 354.418 z"/>
<path transform="translate(0,0)" fill="rgb(0,0,0)" d="M 1257.16 355.218 L 1257.74 355.995 L 1257.16 355.218 z"/>
<path transform="translate(0,0)" fill="rgb(0,0,0)" d="M 1275.62 358.674 L 1275.24 358.212 L 1275.62 358.674 z"/>
<path transform="translate(0,0)" fill="rgb(0,0,0)" d="M 852.064 389.768 L 852.59 388.784 L 852.064 389.768 z"/>
<path transform="translate(0,0)" fill="rgb(0,0,0)" d="M 1069.45 755.369 C 1074.71 739.168 1084.18 729.943 1099.09 722.347 C 1124.13 709.584 1159.1 701.957 1187.16 702.901 C 1154.7 712.146 1120.79 716.237 1092.41 736.022 C 1084.03 741.868 1077.4 749.274 1069.45 755.369 z"/>
<path transform="translate(0,0)" fill="rgb(0,0,0)" d="M 1001 714.764 L 1002.24 714.145 L 1001 714.764 z"/>
<path transform="translate(0,0)" fill="rgb(0,0,0)" d="M 1126.56 750.034 C 1120.35 752.869 1114.05 755.654 1108.73 759.994 C 1102.82 764.805 1078.25 793.689 1074.76 794.71 L 1073.48 792.965 C 1072.94 782.496 1083.95 760.199 1090.65 752.603 C 1117.71 721.913 1198.29 720.471 1237.66 717.42 C 1241.78 716.807 1246.33 717.136 1250.51 717.087 C 1243.11 719.255 1235.75 721.589 1228.45 724.09 C 1246.04 725.842 1263.61 727.058 1280.73 731.68 C 1272.42 737.276 1262.94 740.15 1254.53 745.38 C 1251.09 747.522 1247.02 750.652 1245.98 754.754 C 1249.64 756.53 1261.71 754.463 1266.39 754.316 C 1256.97 760.962 1245.42 763.465 1236.12 770.204 C 1241.58 768.8 1247 767.072 1252.42 765.498 C 1243.08 771.973 1231.31 773.24 1221.53 779.171 C 1231.38 769.647 1236.7 755.926 1242.72 743.768 C 1233.06 742.487 1223.19 742.769 1213.47 742.825 C 1212.27 752.933 1209.61 764.006 1204.72 773.005 C 1198.48 784.479 1188.76 790.168 1176.57 793.758 C 1174.6 794.108 1172.62 794.414 1170.64 794.678 C 1161.65 795.837 1152.58 792.586 1145.59 786.955 C 1134.86 778.309 1128.21 763.514 1126.56 750.034 z M 1164 767 L 1162.23 767.995 L 1164 767 L 1165.79 765.675 C 1165.06 765.836 1164.56 766.517 1164 767 z M 1173.85 747.614 C 1171.98 750.136 1170.19 752.161 1170.43 755.495 C 1170.6 758.249 1171.96 760.792 1174.16 762.465 C 1177.22 764.781 1179.72 764.786 1183.36 764.133 C 1185.6 761.928 1187.34 760.891 1187.57 757.466 C 1187.75 754.699 1186.28 752.513 1184.33 750.744 C 1181.25 747.961 1177.79 747.856 1173.85 747.614 z M 1150.64 766.961 C 1147.41 767.5 1146.4 767.382 1143.92 769.641 C 1143.67 772.007 1143.76 773.328 1145.33 775.262 C 1149.66 780.57 1155.09 782.504 1161.72 782.83 C 1163.7 782.253 1165.08 781.818 1166.71 780.53 C 1167.2 778.314 1167.05 778.306 1165.85 776.481 C 1164.74 774.788 1163.16 773.627 1161.62 772.351 C 1161.31 772.095 1161.02 771.827 1160.71 771.573 C 1158.35 769.636 1156.59 769.193 1153.66 768.537 C 1152.33 768.241 1151.65 767.855 1150.64 766.961 z"/>
<path transform="translate(0,0)" fill="rgb(0,0,0)" d="M 893.358 787.348 C 869.177 761.425 851.639 750.197 815.032 748.994 C 797.396 748.415 780.073 749.876 762.54 751.543 L 762.269 750.453 L 764.707 749.082 C 793.479 738.829 830.164 738.836 858.094 752.04 C 871.969 758.6 887.782 771.296 893.043 786.254 C 893.169 786.612 893.253 786.983 893.358 787.348 z"/>
<path transform="translate(0,0)" fill="rgb(0,0,0)" d="M 1069.1 755.834 L 1069.45 755.369 L 1069.1 755.834 z"/>
<path transform="translate(0,0)" fill="rgb(0,0,0)" d="M 697.295 776.493 L 697.797 776.867 L 697.295 776.493 z"/>
<path transform="translate(0,0)" fill="rgb(0,0,0)" d="M 1115.75 806.962 C 1111.23 806.878 1089.54 806.069 1087.13 804.203 C 1089.72 803.028 1092.7 801.545 1095.52 801.093 C 1102.12 800.039 1110.68 801.391 1117.43 801.689 C 1136.81 802.543 1158.79 804.178 1177.92 800.971 C 1197.42 797.704 1210.4 785.251 1227.54 780.374 C 1227.87 780.28 1228.21 780.2 1228.54 780.114 C 1235.23 780.961 1241.28 783.861 1247.36 786.612 C 1233.83 784.992 1227.59 786.863 1215.56 793.118 L 1229.68 798.163 C 1223.66 797.86 1217.76 796.785 1211.82 795.813 C 1208.88 797.056 1206.07 798.136 1203.52 800.124 C 1203.84 800.558 1204.15 800.996 1204.47 801.425 C 1204.81 801.874 1205.16 802.314 1205.5 802.758 C 1201.16 804.787 1192.65 803.787 1187.55 804.154 C 1163.23 805.903 1140.23 807.951 1115.75 806.962 z"/>
<path transform="translate(0,0)" fill="rgb(0,0,0)" d="M 893.358 787.348 L 893.774 787.995 L 893.358 787.348 z"/>
<path transform="translate(0,0)" fill="rgb(0,0,0)" d="M 895.034 789.5 L 894.387 789.5 L 895.034 789.5 z"/>
<path transform="translate(0,0)" fill="rgb(0,0,0)" d="M 609.412 807.512 L 610.135 808.217 L 609.412 807.512 z"/>
<path transform="translate(0,0)" fill="rgb(0,0,0)" d="M 610.135 808.217 L 610.825 808.862 L 610.135 808.217 z"/>
<path transform="translate(0,0)" fill="rgb(0,0,0)" d="M 734.143 831.26 L 733.391 830.527 C 733.71 826.272 738.154 820.461 740.317 816.649 C 741.64 818.366 741.67 818.786 741.933 820.961 C 740.463 825.258 737.226 828.055 734.143 831.26 z"/>
<path transform="translate(0,0)" fill="rgb(0,0,0)" d="M 1100.2 818.702 L 1099.01 818.188 L 1100.2 818.702 z"/>
<path transform="translate(0,0)" fill="rgb(0,0,0)" d="M 1100.2 818.702 C 1112.4 820.157 1124.36 823.523 1136.55 825.292 C 1147.57 826.892 1159.61 826.844 1170.33 829.622 C 1151.41 830.655 1116.25 830.101 1100.2 818.702 z"/>
<path transform="translate(0,0)" fill="rgb(0,0,0)" d="M 745.176 841.06 C 744.314 840.409 743.426 839.787 742.621 839.066 C 741.065 837.672 739.991 835.592 740.068 833.482 C 740.235 828.905 743.302 826.504 746.398 823.567 C 750.193 825.333 751.302 829.962 752.774 833.611 L 745.176 841.06 z"/>
<path transform="translate(0,0)" fill="rgb(0,0,0)" d="M 758.043 847.04 C 757.198 847.664 756.203 847.879 755.214 848.212 C 752.837 847.645 752.99 847.526 751.637 845.455 C 751.03 840.816 752.032 837.732 753.464 833.389 C 756.887 834.409 759.642 835.139 761.966 837.881 C 762.232 841.282 759.771 844.26 758.043 847.04 z"/>
<path transform="translate(0,0)" fill="rgb(0,0,0)" d="M 770.49 858.01 C 767.544 856.115 764.679 854.549 762.648 851.608 C 762.385 847.659 763.746 845.8 765.402 842.257 C 768.015 843.221 769.371 843.773 771.333 845.864 C 772.628 849.918 771.306 853.947 770.49 858.01 z"/>
<path transform="translate(0,0)" fill="rgb(0,0,0)" d="M 1428.47 850.516 L 1428.92 849.005 L 1428.47 850.516 z"/>
<path transform="translate(0,0)" fill="rgb(0,0,0)" d="M 1427.01 850.995 L 1428.47 850.516 L 1427.01 850.995 z"/>
<path transform="translate(0,0)" fill="rgb(0,0,0)" d="M 778.504 861.46 L 777.032 859.861 C 777.287 856.428 778.451 855.408 780.411 852.643 L 781.25 853.424 C 781.464 856.586 779.88 858.643 778.504 861.46 z"/>
<path transform="translate(0,0)" fill="rgb(0,0,0)" d="M 689.005 875.523 L 688.28 875.005 L 689.005 875.523 z"/>
<path transform="translate(0,0)" fill="rgb(0,0,0)" d="M 689.005 875.523 C 693.835 883.178 691.026 890.186 693.122 898.248 C 694.783 904.64 700.278 911.041 700.961 917.476 C 690.082 903.747 687.3 892.877 689.005 875.523 z"/>
<path transform="translate(0,0)" fill="rgb(0,0,0)" d="M 984.433 999.516 C 982.21 1000.84 979.928 1002.26 977.568 1003.34 C 967.769 1007.82 955.247 1008.16 945.166 1004.42 C 938.851 1002.07 933.204 997.879 930.581 991.495 C 923.765 974.903 937.47 949.241 944.042 933.623 C 947.047 942.992 934.294 966.333 935.713 979.942 C 936.386 986.4 939.345 991.554 944.462 995.532 C 966.687 1012.81 972.327 997.244 989.531 994.905 C 988.605 997.409 986.608 998.074 984.433 999.516 z"/>
<path transform="translate(0,0)" fill="rgb(0,0,0)" d="M 1024.47 1026.45 L 1025.76 1025.06 C 1030.89 1019.59 1038.93 1014.39 1043.02 1008.29 C 1045.53 1004.55 1046.12 999.829 1049.06 996.394 C 1048.97 1004.65 1046.48 1009.72 1040.55 1015.5 C 1036.2 1019.74 1030 1024 1024.47 1026.45 z"/>
<path transform="translate(0,0)" fill="rgb(0,0,0)" d="M 990.22 1022.19 C 991.209 1019.27 992.159 1016.23 993.704 1013.55 C 998.008 1006.09 1005.53 1004.92 1013.21 1003.09 C 1017.52 1002.89 1022.5 1003.1 1026.69 1004.18 C 1030.47 1005.14 1034.49 1006.61 1036.58 1009.97 L 1035.67 1011.59 C 1027.9 1016.08 1018.28 1014.53 1009.48 1015.26 L 990.22 1022.19 z"/>
<path transform="translate(0,0)" fill="rgb(0,0,0)" d="M 973.639 1029.39 C 966.343 1027.99 936.361 1017.71 931.959 1012.62 C 933.675 1010.21 937.028 1009.21 939.65 1008.01 C 942.203 1007.89 945.851 1007.38 948.256 1008.31 C 956.504 1011.5 966.313 1022.46 977.323 1026.84 L 978.674 1027.37 L 978.19 1028.51 L 973.639 1029.39 z"/>
<path transform="translate(0,0)" fill="rgb(0,0,0)" d="M 1024.01 1026.94 L 1024.47 1026.45 L 1024.01 1026.94 z"/>
<path transform="translate(0,0)" fill="rgb(0,0,0)" d="M 948.415 1035.34 L 948.995 1035.8 L 948.415 1035.34 z"/>
<path transform="translate(0,0)" fill="rgb(0,0,0)" d="M 988.938 1064.09 L 989.232 1065.89 L 988.011 1066.88 C 985.598 1065.53 984.674 1063.48 983.919 1060.79 C 983.115 1057.93 982.227 1053.45 983.597 1050.79 L 986.001 1049.51 L 986.334 1049.81 C 985.289 1053.85 984.802 1058.91 986.61 1062.76 L 988.718 1060.92 L 988.938 1064.09 z"/>
<path transform="translate(0,0)" fill="rgb(0,0,0)" d="M 952.426 1096.5 C 957.874 1089.92 965.049 1084.7 972.635 1080.83 C 978.658 1082.88 984.792 1085.29 991.009 1086.63 C 1003.8 1081.34 1016.72 1074.86 1030.86 1079.4 L 1031.35 1080.74 C 1029.33 1081.15 1027.61 1081.15 1025.57 1081.12 C 998.356 1080.75 1004.37 1096.27 970.305 1085.06 C 964.923 1088.71 958.451 1094.2 952.426 1096.5 z"/>
<path transform="translate(0,0)" fill="rgb(0,0,0)" d="M 1327.06 1087.81 L 1327.88 1087.58 L 1327.06 1087.81 z"/>
<path transform="translate(0,0)" fill="rgb(0,0,0)" d="M 951.84 1097.19 L 952.426 1096.5 L 951.84 1097.19 z"/>
<path transform="translate(0,0)" fill="rgb(0,0,0)" d="M 950.646 1098.24 L 951.84 1097.19 L 950.646 1098.24 z"/>
<path transform="translate(0,0)" fill="rgb(0,0,0)" d="M 950.005 1098.86 L 950.646 1098.24 L 950.005 1098.86 z"/>
<path transform="translate(0,0)" fill="rgb(0,0,0)" d="M 964.888 1119.66 C 955.986 1122.08 940.512 1131.78 932.041 1129.97 C 930.802 1128.28 930.756 1128.93 931.147 1126.99 C 931.763 1123.93 933.283 1121.84 935.961 1120.33 C 954.959 1109.6 977.697 1118.37 998.008 1117.54 C 1008.94 1117.09 1018.65 1112.3 1029.33 1111.06 C 1048.63 1108.83 1067.17 1115.15 1086.05 1117.24 C 1091.17 1117.81 1098.11 1115.99 1102.84 1117.52 C 1104.46 1118.04 1105.25 1118.63 1106.42 1119.81 C 1106.79 1122.57 1106.71 1122.43 1105.05 1124.69 C 1101.41 1126.57 1098.62 1126.56 1094.78 1125.33 C 1077.86 1119.93 1060.67 1116.87 1042.91 1115.96 C 1018.63 1127.93 998.498 1133.09 972.332 1124.26 C 969.858 1123.42 967.902 1122.62 965.763 1121.09 C 970.971 1122.42 975.287 1122.05 980.551 1122.35 C 1004.64 1123.7 1020.99 1120.87 1044.25 1116.27 C 1029.32 1115.13 1016.96 1119.13 1002.39 1120.33 C 990.806 1121.29 977.632 1119.44 966.006 1118.31 L 964.888 1119.66 z"/>
<path transform="translate(0,0)" fill="rgb(0,0,0)" d="M 964.888 1119.66 L 965.763 1121.09 L 964.888 1119.66 z"/>
<path transform="translate(0,0)" fill="rgb(0,0,0)" d="M 1067.83 1169.67 C 1052.52 1181.57 1033.06 1186.06 1013.97 1186.97 C 990.603 1188.08 969.989 1180.48 952.626 1164.82 C 961.755 1166.7 970.833 1171.36 979.878 1173.96 C 1000.16 1179.81 1024.81 1179.18 1045.12 1173.78 C 1051.79 1172 1058.19 1168.79 1064.79 1166.74 C 1066.79 1166.12 1068.81 1165.27 1070.69 1166.32 L 1067.83 1169.67 z"/>
<path transform="translate(0,0)" fill="rgb(0,0,0)" d="M 990.788 1361.36 L 990.189 1361.11 L 990.788 1361.36 z"/>
<path transform="translate(0,0)" fill="rgb(0,0,0)" d="M 990.788 1361.36 C 993.637 1363 995.608 1364.87 997.82 1367.3 C 1008.48 1379.01 1017.89 1391.91 1028.37 1403.8 C 1037.49 1414.15 1054.27 1428.47 1060.79 1439.61 C 1039.2 1428.02 1001.58 1384.39 990.788 1361.36 z"/>
<path transform="translate(0,0)" fill="rgb(0,0,0)" d="M 1039.8 1595.68 C 1034.1 1595.96 1027.94 1596.38 1022.63 1593.87 C 1018.58 1591.95 1015.42 1588.7 1014.2 1584.33 C 1012.61 1578.65 1014.34 1572.5 1017.47 1567.67 C 1023.05 1559.06 1031.33 1555.4 1040.92 1553.21 C 1047.39 1552.9 1053.88 1552.82 1059.65 1556.3 C 1063.4 1558.57 1066.03 1562.06 1066.85 1566.39 C 1067.96 1572.25 1065.78 1578.46 1062.33 1583.17 C 1056.51 1591.09 1049.13 1594.01 1039.8 1595.68 z M 1038.09 1562.39 C 1032.17 1564.32 1026.91 1567.05 1023.85 1572.76 C 1022.4 1575.48 1021.72 1578.72 1022.76 1581.71 C 1023.74 1584.52 1026.27 1586.77 1029.08 1587.64 C 1033.54 1589.02 1038.68 1587.97 1043.19 1587.32 C 1049.14 1584.72 1055.35 1581.55 1057.95 1575.15 C 1058.78 1573.09 1059.11 1570.8 1058.23 1568.7 C 1057.03 1565.83 1054.28 1563.79 1051.38 1562.89 C 1047.43 1561.67 1042.2 1562.28 1038.09 1562.39 z"/>
<path transform="translate(0,0)" fill="rgb(0,0,0)" d="M 1047.3 1563.41 C 1049.36 1565.63 1049.73 1569.42 1049.59 1572.38 C 1049.46 1575.22 1048.07 1577.55 1045.9 1579.34 C 1042.89 1581.82 1037.02 1583.84 1033.1 1583.15 C 1030.33 1582.67 1029.28 1581.4 1027.55 1579.34 C 1027.35 1576.58 1027.41 1576.45 1028.89 1574.1 C 1028.81 1575.84 1028.48 1575.79 1029.68 1577.2 C 1033.33 1576.06 1036.85 1574.57 1038.79 1571.04 C 1039.6 1569.56 1039.36 1569.96 1038.79 1568.28 C 1037.15 1568.52 1035.64 1568.82 1034.04 1569.25 C 1033.53 1569.39 1033.02 1569.54 1032.51 1569.69 C 1033.11 1567.81 1033.23 1567.16 1034.96 1566 C 1038.9 1563.38 1042.73 1562.55 1047.3 1563.41 z M 1045.98 1567.66 C 1044.08 1569.81 1041.64 1571.61 1041.3 1574.49 L 1043.26 1575.44 C 1045.41 1573.77 1047.13 1572.66 1048.02 1569.97 C 1046.88 1567.9 1047.65 1568.58 1045.98 1567.66 z"/>
<path transform="translate(0,0)" fill="rgb(0,0,0)" d="M 1028.89 1574.1 L 1029.74 1573.01 L 1028.89 1574.1 z"/>
<path transform="translate(0,0)" fill="rgb(0,0,0)" d="M 1897.35 2048 C 1900.3 2035.36 1907.75 2021.94 1912.86 2009.94 C 1929.74 1970.38 1950.42 1930.82 1973.53 1894.49 C 1996.84 1857.86 2023.09 1822.96 2048 1787.4 L 2048 2048 L 1897.35 2048 z"/>
</svg>