<svg version="1.1" xmlns="http://www.w3.org/2000/svg" style="display: block;" viewBox="0 0 2048 2048" width="1024" height="1024">
<path transform="translate(0,0)" fill="rgb(255,255,255)" d="M 0 0 L 0 2048 L 2048 2048 L 2048 0 L 0 0 z"/>
<path transform="translate(0,0)" fill="rgb(0,0,0)" d="M 1603.62 705.533 C 1617.23 674.995 1615.6 656.191 1603.71 625.121 L 1603.39 624.269 C 1600.73 650.378 1594.66 674.851 1584.51 699.089 C 1580.32 709.119 1572.63 721.924 1570.74 732.372 C 1569.93 736.851 1570.99 741.914 1573.93 745.432 C 1579.98 752.656 1592.24 754.734 1601.25 755.137 C 1606.92 755.39 1612.71 754.888 1618.37 754.545 C 1595.17 767.637 1576.94 766.602 1551.78 760.154 C 1546.74 791.797 1543.02 838.123 1514.51 858.441 C 1505.8 864.651 1498.25 864.639 1488.07 864.192 C 1492.62 862.935 1497.28 861.839 1501.72 860.228 C 1512.68 845.898 1518.61 829.936 1519.69 811.89 C 1515.58 820.416 1512.75 830.091 1507.76 838.071 C 1502.95 845.751 1493.84 852.669 1490.77 861.053 C 1483.45 881.09 1489.95 904.704 1483.09 925.174 C 1479.95 934.548 1473.81 943.572 1467.77 951.298 C 1455.67 966.763 1394.06 1031.16 1379.62 1036.14 C 1371.23 1039.03 1362.2 1038.7 1353.81 1041.4 C 1344.49 1078.2 1332.59 1118.79 1308.29 1148.65 C 1304.67 1192.37 1305.16 1237.22 1299.26 1280.67 C 1321.95 1292 1335.22 1304.84 1343.18 1329.46 C 1344.04 1332.19 1344.81 1334.94 1345.51 1337.71 C 1387.71 1347.14 1404.97 1380.51 1431.81 1411.1 C 1447.44 1428.92 1464.4 1446.32 1481.71 1462.5 C 1487.22 1467.65 1492.47 1475.56 1498.64 1479.46 C 1512.98 1488.54 1530.26 1494.61 1545.86 1501.21 C 1563.21 1508.65 1580.49 1516.25 1597.7 1524.01 C 1660.34 1551.22 1723.23 1577.87 1786.36 1603.94 C 1823.41 1619.34 1859.89 1635.17 1896.35 1651.93 C 1951.4 1677.25 2000.3 1701.82 2048 1739.5 L 2048 2048 L 1596.53 2048 C 1619.96 2012.54 1638.8 1974.99 1657.42 1936.91 C 1666.85 1917.63 1677.8 1897.6 1683.04 1876.69 C 1676.5 1884.47 1671.99 1894.71 1667.02 1903.56 L 1642.58 1946.69 C 1623.09 1981.53 1601.81 2015.35 1578.84 2048 L 1256.08 2048 C 1262.4 2020.58 1270.32 1993.49 1277.7 1966.33 C 1285.65 1937.08 1292.79 1907.55 1300.98 1878.38 C 1310.77 1843.48 1321.44 1808.94 1330.71 1773.87 C 1336.82 1751.31 1342.53 1728.66 1347.85 1705.9 C 1350.74 1693.81 1354.16 1681.53 1356.09 1669.26 C 1360.39 1641.9 1359.82 1613.5 1361.59 1585.91 C 1363.2 1560.91 1366.41 1535.85 1364.53 1510.78 C 1356.8 1555.23 1339.71 1600.89 1323.74 1643.08 C 1303.19 1698.35 1279.91 1752.58 1253.99 1805.55 C 1229.75 1855.86 1204.6 1903.5 1173.08 1949.71 C 1147.72 1924.47 1123.46 1861.61 1109.64 1827.89 C 1089.75 1780.6 1075.24 1737.64 1066.49 1687.1 C 1045.34 1694.38 1002.17 1719.15 992.585 1739.99 C 988.858 1748.1 989.911 1760.17 989.788 1768.99 C 988.705 1847.04 991.402 1858.22 940.72 1921.91 C 940.953 1963.91 941.667 2006.13 945.2 2048 L 925.01 2048 C 925.061 2021.68 924.552 1943.04 931.509 1923.27 C 934.252 1915.47 939.216 1908.82 943.816 1902.04 C 960.909 1876.87 976.381 1859.23 978.422 1827.86 C 950.573 1822.49 924.871 1813.59 900.111 1799.68 C 878.939 1850.72 866.499 1899.57 862.681 1954.9 C 848.174 1942.57 834.901 1929.54 823.713 1914.07 C 808.939 1893.64 797.578 1871.24 786.202 1848.82 C 760.047 1797.28 738.456 1744.64 719.251 1690.16 C 708.332 1659.19 697.679 1627.72 690.36 1595.67 C 685.937 1576.3 684.052 1556.34 681.648 1536.64 C 679.388 1586.25 677.887 1635.39 679.893 1685.06 C 680.451 1698.88 680.094 1713.76 682.507 1727.37 C 685.514 1744.32 695.791 1762.35 702.366 1778.37 C 716.675 1813.23 731.375 1848.12 748.24 1881.85 C 777.132 1939.62 810.772 1994.24 846.47 2048 L 842.192 2048 C 829.878 2033.03 819.453 2015.51 808.817 1999.28 C 753.472 1914.86 716.595 1832.98 683.104 1738.14 C 685.18 1763.84 686.734 1789.63 689.504 1815.26 C 692.025 1838.58 695.657 1861.83 698.844 1885.06 C 706.33 1939.63 714.608 1993.71 723.873 2048 L 424.882 2048 C 417.264 2029.79 409.507 2011.57 402.667 1993.05 C 397.298 1978.51 359.677 1866.37 360.486 1860.6 L 362.314 1859.44 C 364.699 1859.55 367.18 1859.7 369.556 1859.42 C 376.454 1858.63 384.461 1855.27 391.271 1853.35 C 431.462 1842.03 479.857 1827.85 514.886 1805.02 C 545.218 1785.25 575.812 1751 602.923 1725.87 C 614.915 1714.76 629.173 1704.38 639.899 1692.12 C 640.093 1691.89 640.281 1691.67 640.472 1691.44 L 641.198 1690.83 L 641.995 1690.19 L 641.198 1690.83 L 640.472 1691.44 C 628.786 1696.67 613.581 1711.61 603.447 1719.88 C 579.506 1739.41 555.75 1759.89 530.317 1777.43 C 519.449 1784.93 506.712 1794.36 493.873 1797.71 C 475.372 1802.53 415.084 1790.31 393.655 1786.37 C 433.535 1720.39 473.901 1653.81 507.986 1584.63 C 513.759 1572.91 522.288 1559.14 525.322 1546.5 L 525.858 1546.01 L 525.322 1546.5 C 518.168 1555.14 512.541 1566.22 506.777 1575.85 C 496.453 1593.2 486.04 1610.49 475.539 1627.72 L 418.719 1721.6 C 403.674 1746.04 386.953 1770.79 374.204 1796.49 C 407.647 1802.62 442.254 1802.1 475.731 1808.21 C 434.693 1826.04 397.141 1845.38 354.03 1858.71 C 375.536 1921.22 389.942 1986.51 414.21 2048 L 0 2048 L 0 1786.2 C 11.4487 1770.33 22.4857 1752.88 39.2307 1742.04 C 48.2389 1736.21 59.5428 1734.86 69.3182 1730.48 C 99.6507 1716.92 129.424 1702.05 159.787 1688.47 C 229.685 1657.25 299.257 1625.31 368.49 1592.64 C 409.714 1573.38 450.126 1553.5 490.322 1532.16 C 510.541 1521.42 531.15 1511.02 550.265 1498.38 C 552.616 1490.89 555.409 1482.82 560.788 1476.95 C 574.366 1462.14 594.593 1451.27 609.939 1437.55 C 623.572 1425.36 636.947 1412.48 649.738 1399.4 C 660.774 1388.12 671.206 1375.98 683.9 1366.49 C 688.754 1362.87 697.962 1357.9 704.2 1359.31 C 705.76 1359.66 707.331 1360.16 708.906 1360.52 C 714.27 1352.5 716.184 1339.46 720.322 1330.36 C 727.479 1314.61 739.251 1292.4 756.341 1285.96 C 754.7 1257.5 749.149 1228.86 745.244 1200.61 C 742.815 1183.04 742.062 1162.73 736.829 1145.93 C 732.913 1133.36 720.901 1124.04 715.579 1111.71 C 702.396 1081.18 694.437 1047.21 685.16 1015.29 C 683.35 1015.51 681.574 1015.68 679.75 1015.75 C 668.325 1016.21 647.353 1016.93 638.444 1008.42 C 623.722 994.348 615.081 977.919 602.542 962.241 C 587.923 943.962 563.505 924.839 553.537 904.14 C 550.118 897.041 548 888.912 546.095 881.297 C 542.316 866.193 540.322 851.338 539.337 835.845 C 523.524 825.112 508.213 810.751 494.593 797.349 C 460.444 763.745 464.044 732.595 463.598 688.151 C 457.788 712.103 449.406 743.564 457.566 767.805 C 459.986 774.992 464.306 782.24 467.719 789.054 L 466.524 790.329 C 465.695 790.336 465.337 790.395 464.463 790.088 C 451.512 785.539 434.506 756.937 429.945 744.152 C 417.273 708.637 425.209 666.144 439.039 632.141 C 444.943 617.625 452.626 603.576 459.36 589.401 C 453.983 595.188 448.865 600.785 442.238 605.187 C 423.066 617.922 402.518 615.775 381.186 611.222 C 410.812 611.348 423.191 606.364 447.776 589.952 C 433.466 590.491 419.613 590.575 405.543 587.4 C 366.229 578.528 338.024 554.392 317.006 520.937 C 333.109 537.098 349.419 553.486 372.304 559.259 C 397.33 565.572 420.042 556.261 441.298 543.618 C 433.508 491.14 465.346 426.295 494.258 384.205 C 475.437 393.152 456.052 397.774 435.234 398.056 C 408.546 398.416 382.467 391.168 363.083 372.248 L 368.515 374.693 C 370.473 375.588 372.402 376.539 374.461 377.19 C 393.853 383.316 417.583 378.766 436.357 372.565 C 455.633 366.031 473.856 356.726 490.451 344.942 C 542.949 308.067 555.953 264.518 592.672 217.07 C 605.407 200.614 619.134 185.395 634.702 171.558 C 640.588 166.326 648.027 162.468 653.364 156.722 C 659.87 149.72 663.832 139.622 669.63 131.894 C 688.15 107.214 715.237 84.3344 742.651 70.3847 C 764.267 59.3853 790.086 52.879 813.783 60.8205 C 837.136 68.6468 856.085 86.8398 866.768 108.716 C 875.842 89.9454 889.097 77.5624 906.714 66.7406 C 959.851 34.101 1027.01 26.9791 1088.13 32.408 C 1108.54 34.2203 1129.15 36.1178 1149.32 39.7988 C 1248.59 57.9147 1331.36 104.644 1407.56 169.269 C 1455.31 209.763 1500.67 256.526 1563.96 271.189 C 1597.49 278.957 1628.15 273.688 1657.19 255.546 C 1630.32 291.4 1591.8 309.928 1549.09 319.581 L 1553.16 324.675 C 1562.28 336.241 1571.13 348.023 1579.7 360.01 C 1601.6 390.191 1611.98 411.699 1607.58 449.687 C 1610.63 453.206 1613.99 456.453 1617.6 459.39 C 1636.17 474.691 1663.57 489.173 1688.45 486.07 C 1702.04 484.375 1709.31 477.613 1717.45 467.447 C 1714.59 475.818 1710.03 482.693 1703.81 488.919 C 1679.22 513.527 1642.02 518.218 1608.98 518.001 C 1624.73 556.733 1635.05 596.659 1631.44 638.87 C 1629.47 661.799 1622.06 690.155 1603.62 705.533 z M 954 98 L 950.033 99.4281 L 949.429 99.7582 C 943.207 101.119 935.719 104.646 931.388 109.402 C 928.065 110.507 926.615 111.675 924.356 114.413 L 924.084 114.75 C 921.743 116.07 920.718 116.116 919.885 118.709 C 919.865 118.773 919.88 118.843 919.877 118.911 C 922.015 117.714 922.813 116.838 924.084 114.75 L 924.356 114.413 C 927.361 113.212 929.622 112.258 931.388 109.402 C 937.504 107.471 944.381 103.717 949.429 99.7582 L 950.033 99.4281 L 954 98 L 955.995 97.005 L 954 98 z M 1201.01 112.026 L 1202.25 113.713 L 1204.99 113.965 L 1202.25 113.713 L 1201.01 112.026 z M 1206.01 114.005 L 1208 115 C 1209.81 116.241 1209.74 116.511 1212.07 116.577 C 1224.33 123.884 1239.04 128.215 1251.97 134.417 C 1267.98 142.097 1283.5 150.926 1299.01 159.551 C 1328.92 176.175 1357.42 191.89 1382.29 215.858 C 1368.38 210.032 1353.87 200.789 1339.57 196.662 L 1339.01 196.174 L 1339.57 196.662 L 1340.2 197.254 C 1347.71 204.224 1356.46 209.785 1364.1 216.636 C 1379.06 230.057 1392.56 245.045 1405.98 259.965 C 1388.82 251.66 1373.13 236.959 1357.57 225.809 C 1349.09 219.738 1339.66 214.744 1330.56 209.674 C 1325.58 206.9 1320.09 203.082 1314.68 201.448 L 1314.19 201.099 L 1314.68 201.448 C 1324.64 214.092 1337.92 224.811 1349.07 236.506 C 1370.84 259.347 1405.67 302.176 1420.2 329.781 C 1399.19 317.816 1380.38 299.727 1358.54 289.707 L 1357.92 289.083 L 1356.52 287.546 L 1355.01 287.163 L 1356.52 287.546 L 1357.92 289.083 L 1358.54 289.707 L 1359.2 290.328 C 1368.25 298.686 1378.43 305.916 1387.85 313.885 C 1402.86 326.592 1417.77 343.262 1428 360.115 C 1414.27 347.418 1381.89 318.097 1365.49 310.521 L 1364.8 309.831 L 1362.02 307.988 L 1361.01 307.184 L 1362.02 307.988 C 1362.93 308.655 1363.77 309.365 1364.8 309.831 L 1365.49 310.521 L 1366.1 311.138 C 1373.07 318.118 1381.32 323.841 1388.46 330.73 C 1405.03 346.709 1420.63 363.549 1436.52 380.18 C 1444.67 388.708 1453.8 396.333 1461.64 405.141 C 1488.33 435.109 1506.95 470.55 1522.95 507.071 C 1530.28 524.124 1536.91 541.471 1542.82 559.068 C 1546.26 569.259 1548.91 580.536 1553.39 590.26 L 1553.74 591.271 L 1553.39 590.26 C 1550.7 574.096 1544.78 557.715 1539.79 542.107 C 1518.78 476.302 1493.2 421.726 1461.74 360.388 C 1482.49 381.393 1503.81 410.272 1518.84 435.93 C 1525.38 447.085 1530.76 458.923 1537.46 469.949 L 1538.22 471.438 L 1538.88 472.995 L 1538.22 471.438 L 1537.46 469.949 C 1535.32 459.272 1529.01 448.35 1524.73 438.309 C 1516.65 419.341 1509.21 399.147 1498.45 381.521 C 1482.59 355.529 1461.75 332.733 1445.68 306.906 C 1450.96 311.344 1456.08 315.969 1462.19 319.256 C 1451 306.689 1437.31 296.428 1426.48 283.754 C 1442.27 292.263 1457.36 301.901 1472.44 311.582 L 1473.21 312.157 L 1474.3 313.299 L 1474.99 313.814 L 1474.3 313.299 L 1473.21 312.157 L 1472.44 311.582 C 1456.81 291.476 1438.26 264.953 1420.54 247.544 C 1440.56 257.64 1459.56 268.808 1478.24 281.2 C 1486.12 286.429 1493.59 292.262 1501.53 297.392 L 1501.94 297.863 L 1501.53 297.392 C 1501.04 296.284 1501.01 296.138 1500.29 294.927 C 1487.05 272.492 1465.39 250.849 1444.92 234.977 C 1394.62 195.964 1322.31 161.61 1263.65 136.379 C 1247.18 129.292 1229.56 120.68 1212.07 116.577 L 1211.53 115.707 L 1208 115 L 1206.01 114.005 z M 724.002 192.371 L 722.583 193.262 L 720.341 194.307 L 718.441 195.322 L 718.005 195.871 L 718.441 195.322 L 720.341 194.307 L 722.583 193.262 L 724.002 192.371 C 730.273 190.896 737.195 186.963 743.179 184.386 C 759.518 177.35 776.112 170.408 793.764 167.478 C 802.995 165.946 811.598 165.759 820.927 166.515 C 823.67 166.738 831.79 168.542 834.048 167.821 C 834.631 167.635 835.102 167.199 835.629 166.888 C 831.143 165.607 826.697 164.829 822.06 164.401 C 795.143 161.915 744.253 175.432 724.002 192.371 z M 715.505 196.591 L 713.6 198.514 L 713.005 198.854 L 713.6 198.514 L 715.505 196.591 L 716.995 196.159 L 715.505 196.591 z M 894.491 203.735 C 886.462 205.188 880.863 209.39 876.104 215.973 C 870.288 224.017 866.242 235.449 865.781 245.38 C 873.575 225.112 875.78 217.393 894.491 203.735 L 894.995 203.252 L 894.491 203.735 z M 915.668 186.941 C 931.375 190.914 947.124 192.1 962.69 197.4 C 972.772 200.833 981.686 207.186 991.668 210.71 L 993.591 211.37 L 994.191 212.185 L 996.596 213.363 L 997.174 214.197 L 999.584 215.435 L 999.995 215.995 L 999.584 215.435 L 997.174 214.197 L 996.596 213.363 L 994.191 212.185 L 993.591 211.37 C 992.925 210.672 993.043 210.756 992.269 210.114 C 975.672 196.334 936.973 184.627 915.668 186.941 z M 623.242 227.567 C 587.578 263.916 562.479 331.821 549.076 380.365 C 542.625 403.729 538.387 426.768 529.452 449.479 C 522.007 468.79 512.552 487.265 501.243 504.597 C 496.237 512.28 490.013 519.568 485.495 527.486 L 484.815 528.193 L 483.696 529.303 L 482.84 530.359 L 482.182 530.995 L 482.84 530.359 L 483.696 529.303 L 484.815 528.193 L 485.495 527.486 C 502.615 513.896 518.528 481.812 527.131 461.526 C 531.934 450.201 535.987 438.139 541.714 427.281 L 542.241 426.306 C 540.69 456.386 529.572 479.461 526.913 506.906 L 526.239 507.995 L 526.913 506.906 C 534.041 479.159 545.955 429.633 557.288 404.545 C 558.424 419.065 553.322 436.042 550.495 450.269 C 556.396 436.494 559.514 421.922 564.314 407.799 C 565.255 405.031 566.418 400.98 569.051 399.689 L 569.659 401.923 L 567.989 401.137 L 569.785 403.133 L 569.911 402.867 L 568.649 411.361 L 567.569 413.599 L 567.084 414.995 L 567.569 413.599 L 568.649 411.361 C 577.432 390.774 583.817 369.522 594.525 349.702 C 591.868 374.685 584.611 397.799 578.005 421.932 C 575.823 429.905 573.065 438.085 571.616 446.214 L 570.521 448.628 L 570.197 449.995 L 570.521 448.628 L 571.616 446.214 C 571.923 445.638 572.237 445.066 572.538 444.486 C 579.013 432.012 584.329 400.891 592.775 392.312 C 594.087 393.538 594.394 394.445 595.097 396.065 C 576.445 464.376 561 532.842 563.652 604.09 C 564.133 617.006 564.398 631.508 568.046 643.905 L 568.756 644.995 L 568.046 643.905 C 565.59 605.617 563.697 567.024 570.649 529.066 L 572.739 544.673 C 577.637 510.648 587.55 456.84 602.109 426.535 C 599.928 453.989 596.614 482.127 597.264 509.672 C 599.119 501.742 599.521 493.278 600.677 485.198 C 602.957 469.253 605.782 453.171 609.999 437.619 C 612.218 429.436 627.916 385.965 627.749 384.166 C 620.229 394.699 615.468 408.342 610.186 420.129 C 617.401 373.093 642.313 329.266 674.966 295.081 C 682.565 287.126 691.635 280.715 699.362 272.898 L 700.003 272.24 C 701.682 272.115 701.747 271.409 702.818 270.192 L 703.369 269.398 L 705.727 268.216 L 706.42 267.139 L 708.555 266.666 L 709.8 265.005 L 708.555 266.666 L 706.42 267.139 L 705.727 268.216 L 703.369 269.398 L 702.818 270.192 L 700.375 271.27 L 700.003 272.24 C 682.251 281.582 666.414 299.46 654.108 315.022 C 645.311 326.146 636.495 337.772 629.018 349.828 C 624.251 357.514 620.374 366.064 615.287 373.493 C 614.04 375.314 613.96 375.602 611.789 376.363 L 610.493 373.76 C 610.414 374.045 610.345 374.332 610.255 374.614 C 608.334 380.62 602.832 386.251 598.585 390.811 C 618.328 338.004 628.181 293.573 672.801 254.324 C 704.258 226.653 746.83 201.53 788.889 196.322 C 799.441 195.015 809.673 195.487 820.236 196.161 C 796.097 189.41 772.746 195.4 749.915 204.269 C 711.346 219.25 671.165 246.457 646.014 279.609 C 632.659 297.212 619.555 323.052 610.505 343.478 C 610.251 341.574 620.567 304.303 622.123 299.371 C 623.756 294.197 626.25 289.312 627.506 284.032 C 623.05 285.519 610.555 327.617 605.324 334.483 C 603.602 327.613 615.934 304.653 618.164 296.413 C 618.274 296.006 618.375 295.597 618.481 295.189 L 618.995 294.052 L 618.481 295.189 C 607.585 311.325 600.277 327.747 594.254 346.116 C 595.721 323.475 610.407 307.775 614.648 286.581 L 615.703 284.639 L 616.713 282.465 L 617.988 281 L 618.768 280.005 L 617.988 281 L 616.713 282.465 L 615.703 284.639 L 614.648 286.581 C 609.604 291.613 591.656 330.066 587.923 338.58 C 588.212 322.498 595.906 316.341 599.419 302.557 L 599.955 302.005 L 599.419 302.557 C 592.255 311.379 587.963 322.219 583.337 332.498 C 586.263 319.015 590.348 306.821 595.486 294.069 L 596.214 292.555 L 596.9 292.005 L 596.214 292.555 L 595.486 294.069 C 583.732 306.92 578.542 329.223 574.302 345.794 C 574.226 317.54 592.561 281.7 606.401 257.241 C 611.8 247.7 618.353 238.392 622.869 228.417 C 622.997 228.135 623.118 227.851 623.242 227.567 L 623.812 227.005 L 623.242 227.567 z M 880.432 232.873 L 879.829 234.473 L 878.633 238.057 L 878.268 239.185 L 878.633 238.057 L 879.829 234.473 L 880.432 232.873 C 884.426 228.762 888.326 224.776 892.811 221.191 C 886.039 234.948 884.464 243.451 881.349 258.008 L 881.789 259.15 C 886.652 245.389 886.791 232.353 897.863 221.454 C 908.685 218.27 920.481 218.431 930.602 223.94 C 970.485 245.65 1015.68 346.722 1037.08 386.936 C 1048.29 408 1062.13 428.023 1070.7 450.403 C 1063.76 441.812 1058.67 431.155 1051.55 423.052 L 1051.01 422.005 L 1051.55 423.052 C 1054.9 435.085 1062.16 446.132 1066.26 458.047 C 1059.33 447.974 1051.61 438.51 1044.56 428.534 C 1039.92 421.957 1035.89 414.722 1030.66 408.605 L 1030.18 408.005 L 1030.66 408.605 C 1031.69 412.604 1033.74 416.494 1035.06 420.442 C 1037.51 427.751 1038.84 435.029 1040.14 442.611 C 1021.21 418.028 1010.42 388.899 999.775 360.151 L 999.256 359.005 L 999.775 360.151 C 1000.58 371.325 1004.44 382.807 1007.32 393.618 C 1011.6 409.617 1015.92 425.681 1018.84 441.993 C 988.365 413.598 981.546 348.957 970.797 309.255 C 966.27 292.534 960.354 276.842 953.228 261.077 C 958.21 280.877 964.434 300.325 968.039 320.451 C 973.727 352.202 975.996 384.92 984.029 416.204 C 993.257 452.139 1015.18 486.347 1037.09 516.019 C 1045.46 527.353 1056.06 544.446 1067.56 552.492 L 1068.16 553.19 L 1069.31 554.304 L 1070.17 555.338 L 1071.36 556.94 L 1070.17 555.338 L 1069.31 554.304 L 1068.16 553.19 L 1067.56 552.492 C 1063.33 544.714 1057.03 537.494 1052.37 529.826 C 1038.65 507.257 1022.04 474.986 1015.01 449.776 C 1018.25 453.389 1021.04 456.563 1023.11 461.03 C 1023.32 462.612 1022.99 461.854 1024.39 463.158 C 1024.18 461.593 1024.5 462.354 1023.11 461.03 L 1022.63 457.032 L 1023.62 456.482 C 1031.68 463.721 1034.55 476.548 1041.37 484.954 L 1041.99 485.995 L 1041.37 484.954 C 1039.95 473.409 1033.51 462.614 1031.38 450.941 L 1031.08 449.38 C 1034.91 452.475 1036.66 454.81 1038.81 459.228 C 1039.7 461.038 1039.2 460.353 1040.83 461.635 L 1041.02 460.604 C 1041.22 459.586 1041.47 458.58 1041.74 457.577 C 1047.04 462.416 1051.16 473.114 1054.6 479.697 C 1068.79 506.875 1086.9 540.63 1113.53 557.308 L 1113.95 557.823 L 1113.53 557.308 C 1108.06 547.942 1100.36 539.786 1094.8 530.386 C 1083.2 510.786 1074.89 489.052 1066.03 468.128 C 1070.57 472.9 1075.37 477.347 1080.2 481.819 C 1076.82 471.005 1075.74 461.203 1070.76 450.703 C 1096.03 481.995 1129.76 507.71 1164.9 527.13 C 1171.72 530.903 1179.27 535.407 1186.81 537.499 L 1187.99 537.995 L 1186.81 537.499 C 1178.94 529.979 1167.32 525.336 1158.68 518.371 C 1134.81 499.126 1114.25 474.672 1095.32 450.706 C 1082.06 433.925 1069.31 416.369 1058.35 398.004 C 1031.45 352.965 994.802 275.608 959.52 240.17 C 952.596 233.112 944.391 227.437 935.344 223.449 C 922.442 217.778 907.11 215.06 893.687 220.588 C 887.361 223.193 883.094 226.553 880.432 232.873 z M 902 240 L 901.36 240.617 C 894.49 245.973 892.537 252.807 891.521 261.189 C 891.108 264.598 891.073 267.943 891.18 271.375 C 893.056 265.342 894.119 259.177 896.17 253.19 C 897.634 248.913 900.087 244.841 901.36 240.617 L 902 240 L 902.99 238.848 L 902 240 z M 897 241 L 896.252 241.995 L 897 241 C 898.618 239.242 898.281 239.189 898.5 236.953 L 897.694 237.475 L 897 241 z M 730.915 248.917 L 728.542 250.467 L 728.161 250.995 L 728.542 250.467 L 730.915 248.917 L 731.944 248.005 L 730.915 248.917 z M 1189.18 273.005 L 1190.91 274.092 L 1192.35 275.386 L 1193.24 276.23 L 1194.37 277.213 C 1195.7 278.911 1196.49 279.755 1198.48 280.623 L 1199.2 281.142 L 1199.72 281.685 C 1209.46 294.17 1225.92 307.451 1237.54 319.021 C 1259.14 340.542 1282.45 363.045 1300.33 387.738 C 1305.8 395.293 1309.5 403.883 1314.65 411.636 L 1314.26 412.516 C 1306.57 403.545 1297.37 395.992 1287.07 390.201 C 1285.43 387.423 1284.38 387.024 1281.65 385.425 L 1281.16 385.031 L 1281.65 385.425 C 1283.56 387.858 1284.12 389.11 1287.07 390.201 C 1293.61 398.161 1301.88 403.16 1307.73 412.103 C 1291.86 405.096 1280.39 389.933 1264.86 383.771 L 1264.61 383.329 L 1262.5 382.271 L 1261 381 L 1260.01 380.191 L 1261 381 L 1262.5 382.271 L 1264.61 383.329 L 1264.86 383.771 C 1274.61 395.135 1301.41 413.157 1308.3 423.708 C 1303.77 422.472 1300.03 418.658 1296.43 415.745 L 1307.86 430.757 C 1296.95 423.484 1279.03 413.656 1266.52 409.524 L 1265.98 409.03 L 1264.27 408.109 L 1263.41 407.574 L 1261.48 405.615 L 1260.01 405.188 L 1261.48 405.615 L 1263.41 407.574 L 1264.27 408.109 L 1265.98 409.03 L 1266.52 409.524 C 1271.26 414.427 1275.71 416.813 1281.95 419.492 L 1277.56 419.733 L 1277.55 420.744 C 1281.66 424.006 1285.71 427.408 1289.97 430.473 C 1273.39 426.442 1270.77 418.39 1257.6 411.476 L 1256.85 410.755 L 1256.14 410.005 L 1256.85 410.755 L 1257.6 411.476 C 1263.06 418.948 1270.59 424.647 1276.84 431.433 C 1267.05 427.865 1259.07 421.29 1249.82 416.688 L 1249.16 416.344 L 1248.65 415.033 L 1243.22 410.593 L 1242.04 410.845 L 1242.8 415.159 C 1244.76 415.245 1246.69 415.139 1248.65 415.033 L 1249.16 416.344 L 1249.82 416.688 L 1250.63 417.508 C 1257.21 424.023 1266.28 429.224 1271.91 436.412 C 1268.63 436.909 1260.93 432.604 1257.7 431.179 L 1257.36 431.708 C 1259.81 433.894 1270.36 441.976 1270.69 444.467 C 1270.35 444.302 1270.02 444.131 1269.68 443.972 C 1262.64 440.69 1257.13 443.54 1249.88 442.687 C 1241.93 441.752 1234.63 437.672 1227.08 435.391 L 1225.89 434.515 L 1227.08 435.391 C 1228.71 436.688 1229.94 437.652 1230.99 439.472 L 1230.18 440.973 C 1229.81 441.014 1229.44 441.087 1229.07 441.094 C 1219.45 441.278 1201.38 432.812 1192.56 428.822 C 1144.89 407.246 1104.22 374.577 1068.06 336.996 C 1058.32 326.881 1050.21 314.595 1040.1 304.982 L 1038.68 303.654 L 1038.02 302.991 L 1037.01 301.218 L 1038.02 302.991 L 1038.68 303.654 C 1048.32 322.265 1067.71 341.613 1081.61 357.557 C 1107.34 387.109 1135.17 414.765 1164.88 440.306 C 1221.06 489.27 1262.54 516.922 1334.15 540.356 C 1335.4 540.765 1336.64 541.047 1337.93 541.258 L 1338.99 541.897 L 1337.93 541.258 C 1328.57 534.514 1315.13 529.838 1304.8 524.293 C 1271.77 506.571 1235.4 481.184 1213.58 450.641 C 1221.89 455.028 1228.21 458.249 1237.6 459.372 L 1239.04 459.534 L 1237.44 460.209 L 1237.93 461.393 C 1244.17 461.909 1247.92 465.641 1253.69 467.367 C 1254.3 465.023 1253.67 465.902 1255.39 464.591 C 1268.83 465.187 1283.39 476.016 1296.46 480.031 C 1288.93 475.513 1281.58 470.603 1274.16 465.89 C 1285.14 467.905 1293.45 471.435 1303.39 476.417 L 1303.99 476.824 L 1303.39 476.417 C 1298.31 470.764 1292.39 467.34 1285.81 463.775 C 1291.8 465.451 1297.74 467.105 1303.56 469.31 L 1287.72 459.644 C 1299.17 462.886 1307.96 466.424 1317.94 472.899 C 1321.7 475.334 1325.43 478.485 1329.51 480.314 L 1329.99 480.795 L 1329.51 480.314 C 1325.3 474.524 1319.27 468.787 1316.05 462.552 C 1318.45 461.711 1319.06 461.274 1321.52 462.444 C 1329.37 466.178 1334.6 476.881 1342.46 481.585 L 1343.2 482.155 L 1344.3 483.316 L 1345.35 484.176 L 1345.99 484.804 L 1345.35 484.176 L 1344.3 483.316 L 1343.2 482.155 L 1342.46 481.585 C 1333.82 470.811 1324.94 460.417 1315.2 450.62 C 1319.4 453.289 1323.63 456.377 1328.18 458.393 C 1324.41 451.64 1319.92 445.128 1316.59 438.176 C 1319.23 441.332 1322.15 445.811 1325.85 447.675 C 1327.13 445.367 1326.79 442.402 1329.09 441.369 C 1336.42 443.525 1342.96 449.751 1348.7 454.578 C 1381.7 482.309 1410.28 519.582 1430.91 557.373 C 1436.55 567.707 1441.73 579.258 1448.48 588.858 L 1449.27 590.43 L 1449.82 590.995 L 1449.27 590.43 L 1448.48 588.858 C 1448.4 588.503 1448.34 588.144 1448.25 587.792 C 1445.16 575.603 1438.82 563.113 1433.91 551.529 C 1426.05 532.984 1418.03 514.579 1407.72 497.23 C 1399.83 483.954 1390.4 471.703 1381.16 459.358 C 1341.23 406.048 1295.44 359.848 1244.2 317.424 C 1230.04 305.699 1215.47 290.875 1199.72 281.685 L 1199.2 281.142 L 1198.48 280.623 C 1197.19 278.7 1196.54 278.05 1194.37 277.213 L 1193.24 276.23 L 1192.35 275.386 L 1190.91 274.092 L 1189.18 273.005 z M 629.318 298.3 C 624.306 302.984 619.612 316.2 617.677 322.825 C 622.945 317.265 628.31 305.912 629.318 298.3 L 629.995 298.005 L 629.318 298.3 z M 786.438 300.549 L 786.159 300.839 C 768.335 315.105 722.928 386.23 708.199 409.103 C 698.281 424.505 690.377 439.9 676.55 452.303 C 678.651 445.826 682.153 440.124 684.025 433.391 C 680.029 441.199 674.196 447.816 668.619 454.531 L 668.146 453.336 C 668.871 449.376 671.604 448.205 673.444 445.026 C 674.834 442.626 674.132 441.55 673.407 439.094 C 669.618 445.355 665.894 451.596 662.515 458.09 C 663.355 450.259 668.935 439.113 671.225 430.868 C 666.993 436.532 663.885 443.095 660.578 449.332 C 661.57 444.139 664.427 435.285 663.414 430.294 L 660.713 434.515 C 659.643 430.114 664.891 417.875 666.16 412.93 C 658.221 429.915 652.241 448.589 645.372 466.11 C 648.636 437.074 663.096 390.431 675.532 363.356 C 680.017 353.593 686.602 344.458 690.523 334.513 L 691.149 332.883 L 691.421 332.531 L 693.541 330.591 L 693.934 329.005 L 693.541 330.591 L 691.421 332.531 L 691.149 332.883 C 655.283 370.736 632.449 489.684 627.964 541.688 C 625.838 566.343 626.411 591.677 627.065 616.409 C 628.152 657.546 635.751 696.828 649.247 735.663 C 651.884 743.25 654.287 752.461 658.477 759.278 L 659.412 761.626 L 659.89 762.995 L 659.412 761.626 L 658.477 759.278 C 655.501 744.074 649.135 728.993 644.579 714.157 C 636.835 688.939 632.501 661.178 631.627 634.827 C 630.19 591.509 642.142 550.802 659.118 511.461 C 663.324 501.713 667.91 489.463 675.205 481.632 C 669.893 499.473 664.313 518.207 663.388 536.892 C 671.148 508.067 679.337 482.229 691.705 454.991 C 690.326 467.615 686.824 479.834 685.548 492.436 C 692.186 474.759 697.584 458.379 707.495 442.088 C 699.737 463.027 693.135 483.796 690.09 506.011 C 685.782 537.429 690.977 601.126 703.258 631.296 L 703.635 632.287 L 703.258 631.296 C 701.957 617.388 698.851 603.789 697.925 589.756 C 695.535 553.578 703.05 519.243 710.821 484.233 C 713.063 499.086 710.554 514.046 711.499 528.996 C 722.738 464.094 749.823 390.369 796.72 342.471 C 806.804 332.171 818.486 324.239 829.8 315.45 L 830.995 315.005 L 829.8 315.45 C 820.29 318.659 811.539 325.393 803.92 331.781 C 764.451 364.876 743.469 413.098 721.191 458.341 C 716.858 467.14 713.501 476.396 710.136 485.597 C 712.737 471.174 716.534 458.111 721.722 444.419 C 725.378 434.768 730.202 424.693 732.263 414.577 L 732.818 414.005 L 732.263 414.577 C 725.737 423.499 720.711 437.956 715.387 448.161 C 719.725 427.469 731.307 411.775 738.193 392.476 L 738.759 392.005 L 738.193 392.476 C 730.557 399.99 710.177 440.545 707.495 442.088 C 707.75 428.717 755.476 346.206 765.774 330.199 C 772.161 320.27 780.706 311.26 786.159 300.839 L 786.438 300.549 C 788.227 299.217 788.665 299.403 789.229 297.137 C 787.502 297.744 787.323 299.008 786.438 300.549 z M 1330.01 315.163 L 1331.05 315.955 C 1331.6 316.357 1332.44 317.109 1333.07 317.34 L 1377.29 359.251 C 1382.12 363.871 1388.19 368.219 1392.38 373.379 C 1370.31 366.386 1354.74 347.197 1334.99 336.325 L 1333.88 335.494 L 1334.99 336.325 C 1349.75 351.519 1368.48 368.914 1380.49 386.087 C 1351.3 369.058 1327.72 343.753 1299.93 324.929 C 1310.7 336.48 1322.38 347.099 1333.74 358.067 C 1342.38 366.409 1350.54 375.256 1359.6 383.153 C 1371.52 393.536 1384.15 403.019 1396.42 412.961 C 1402.37 417.784 1408.8 425.008 1415.45 428.587 L 1416.2 429.155 L 1417.3 430.317 L 1418.26 431.256 L 1418.99 431.97 L 1418.26 431.256 L 1417.3 430.317 L 1416.2 429.155 L 1415.45 428.587 C 1409.14 419.31 1399.03 412.178 1391.78 403.44 C 1408.45 410.559 1420.4 424.858 1434.55 435.56 L 1435.17 436.167 C 1436.47 438.728 1436.8 439.066 1439.23 440.605 L 1439.78 440.995 L 1439.23 440.605 C 1438.09 438.387 1437.25 437.535 1435.17 436.167 L 1434.55 435.56 C 1429.3 424.977 1417.39 415.599 1409.64 406.625 C 1421.73 408.958 1434.52 419.033 1443.31 427.335 C 1446.82 430.658 1450.28 434.854 1454.32 437.505 L 1454.8 437.995 L 1454.32 437.505 C 1448.8 424.776 1435.57 403.789 1427.49 391.958 L 1443.36 404.779 C 1439.59 399.487 1435.95 394.265 1432.77 388.595 C 1436.64 392.97 1440.32 397.374 1445.31 400.509 L 1445.79 400.995 L 1445.31 400.509 C 1438.5 380.565 1400.98 349.69 1382.56 339.621 L 1382.01 339.213 L 1382.56 339.621 C 1388.31 351.035 1398.14 360.349 1402.46 372.354 C 1380.89 354.911 1357.16 330.217 1333.07 317.34 L 1331.05 315.955 L 1330.01 315.163 z M 663.456 358.568 L 661.395 360.598 L 661.156 361.427 C 649.684 373.305 622.942 445.299 618.276 463.396 C 614.607 477.626 612.031 493.587 612.087 508.313 C 612.088 508.66 612.106 509.007 612.115 509.354 C 612.208 509.066 612.305 508.78 612.394 508.49 C 617.962 490.381 618.482 471.192 624.739 452.918 C 632.286 430.877 641.545 409.261 650.366 387.703 C 653.879 379.118 658.571 370.273 661.156 361.427 L 661.395 360.598 L 663.456 358.568 L 663.839 357.005 L 663.456 358.568 z M 1476.73 327.184 C 1482.6 338.206 1490.52 348.034 1497.38 358.453 C 1503.52 367.794 1508.61 379.593 1516.49 387.472 L 1517.15 388.198 L 1518.24 390.509 L 1518.75 390.995 L 1518.24 390.509 L 1517.15 388.198 L 1516.49 387.472 C 1514.36 377.832 1505.47 366.392 1500.39 357.881 C 1506.01 362.371 1511.21 369.247 1517.08 373.077 C 1519.49 374.649 1518.29 373.241 1519.15 374.331 L 1518.7 374.193 C 1518.18 369.982 1500.5 352.911 1496.65 348.822 C 1490.17 341.493 1483.36 334.383 1476.73 327.184 z M 1246.84 429.203 C 1247.01 429.896 1247.6 430.412 1248 431 L 1248.99 431.995 L 1248 431 C 1247.81 430.053 1248 430.74 1246.84 429.203 z M 684.303 433.468 L 683.005 434.995 L 684.303 433.468 L 684.748 432.005 L 684.303 433.468 z M 927.838 413.371 C 923.788 464.362 927.677 520.955 944.163 569.567 C 946.933 577.736 950.415 587.994 955.428 594.974 C 955.766 596.994 955.513 597.488 957 599 L 958.417 601.833 L 958.907 602.995 L 958.417 601.833 L 957 599 C 956.702 596.909 957.072 596.429 955.428 594.974 C 953.12 584.549 948.209 574.32 944.989 564.104 C 939.128 545.513 934.995 524.92 932.821 505.584 C 930.399 482.46 929.167 459.227 929.129 435.977 C 929.174 430.569 930.473 417.311 927.838 413.371 z M 1466.1 630.005 L 1466.34 632.739 L 1468.69 634.525 L 1468.99 635.995 L 1468.69 634.525 L 1466.34 632.739 L 1466.1 630.005 z M 1469.55 638.069 C 1469.78 639.252 1470.37 639.99 1471 641 C 1471.35 642.667 1471.12 643.936 1472.55 644.961 C 1473.66 649.157 1474.7 652.519 1477.47 655.954 C 1478.26 658.343 1477.69 657.363 1479 659 C 1479.41 660.271 1479.41 661.252 1480.51 662.063 C 1482.03 668.702 1485.11 676.684 1489.54 681.91 L 1490.19 683.454 L 1490.93 684.995 L 1490.19 683.454 L 1489.54 681.91 C 1487.86 675.222 1484.61 667.65 1480.51 662.063 C 1480.25 660.833 1479.66 660.057 1479 659 C 1478.56 656.532 1479.14 657.513 1477.47 655.954 C 1476.82 651.792 1475.31 648.13 1472.55 644.961 C 1472.51 642.684 1472.23 642.764 1471 641 C 1470.73 638.949 1471.11 639.968 1469.55 638.069 z M 1115.5 641.902 L 1116.35 643.069 C 1125.18 662.188 1148.54 685.769 1161.89 703.127 L 1175.85 702.736 C 1167.62 691.749 1154.95 682.548 1145.07 672.866 C 1135.21 663.207 1126.24 652.694 1116.35 643.069 L 1115.5 641.902 z M 1492.02 688.005 L 1493 690 L 1494.42 692.833 L 1494.94 693.995 L 1494.42 692.833 L 1493 690 L 1492.02 688.005 z M 1515.01 708.223 L 1516.57 709.492 L 1517.12 711.612 L 1518.2 712.283 L 1519.41 714.62 L 1520.22 715.143 L 1520.71 715.698 C 1525.56 726.258 1542.3 741.226 1553.02 745.645 L 1555 747 L 1557.58 748.327 L 1557.99 748.887 L 1557.58 748.327 L 1555 747 C 1554.48 746.463 1553.65 746.05 1553.02 745.645 C 1547.66 739.182 1539.57 733.548 1533.28 727.816 C 1528.96 723.882 1525.21 719.434 1520.71 715.698 L 1520.22 715.143 L 1519.41 714.62 L 1518.2 712.283 L 1517.12 711.612 L 1516.57 709.492 L 1515.01 708.223 z M 957.152 709.705 L 958.95 711.053 L 959.682 711.7 C 963.77 716.621 968.441 720.462 973.37 724.497 C 956.015 727.008 938.385 723.674 921.034 721.955 C 871.443 717.042 822.124 707.081 772.109 707.621 C 773.67 715.382 775.504 723.198 776.478 731.052 C 771.171 723.399 767.312 717.33 764.919 708.178 L 749.136 708.819 C 753.2 725.961 758.084 742.521 765.396 758.606 C 798.545 736.948 853.529 727.792 892.105 735.947 C 916.399 741.083 932.889 753.413 946.454 774.238 C 948.632 777.582 950.637 781.129 952.464 784.675 C 942.466 775.152 933.12 763.734 922.335 755.225 C 904.277 740.976 873.656 737.336 851.393 737.778 C 823.151 738.339 791.422 748.745 766.934 762.529 L 771.339 771.077 C 805.178 754.381 831.18 744.72 869.444 744.833 C 879.302 744.862 889.443 744.819 898.934 747.85 C 924.123 755.894 933.671 788.004 946.063 808.66 C 943.329 811.566 938.987 817.08 935.034 817.92 L 935.49 818.465 L 934.829 818.409 C 935.893 815.663 936.697 814.501 936.177 811.556 C 932.459 809.604 928.624 810.524 924.555 811.118 C 924.579 807.69 926.364 804.39 927.65 801.223 C 919.523 786.166 907.406 775.967 891.322 770.151 C 890.748 783.636 886.186 796.039 876.079 805.439 C 868.869 812.144 858.462 816.398 848.517 815.803 C 840.838 815.344 833.101 808.354 827.416 803.599 C 827.524 805.184 827.711 806.546 828.008 808.093 C 825.589 812.19 823.18 816.273 820.942 820.473 C 809.288 806.628 804.595 793.065 804.843 775.042 C 797.919 780.123 787.443 785.97 785.978 795.169 C 784.418 804.96 793.05 816.94 797.379 825.402 C 788.401 820.889 778.45 811.831 775.473 802.048 C 773.602 795.9 775.746 790.806 777.79 784.988 C 772.268 788.582 763.807 793.725 756.99 792.077 C 755.394 791.691 755.265 791.112 754.294 789.942 C 756.025 785.651 766.388 778.522 765.897 775.107 C 761.571 769.366 757.351 763.267 752.542 757.924 C 747.079 751.853 740.733 746.449 734.939 740.687 C 721.805 727.623 711.021 713.841 702.18 697.59 C 711.712 749.236 716.901 781.433 758.055 817.874 C 733.725 811.85 714.875 800.845 696.587 783.738 C 703.042 837.236 711.68 873.399 743.721 917.911 C 720.744 910.605 691.37 894.793 672.925 879.017 C 680.752 920.999 690.134 962.511 699.784 1004.1 C 707.109 1035.68 717.379 1089.67 733.545 1116.96 C 759.912 1161.47 810.155 1210.24 845.537 1248.86 C 871.848 1277.58 915.098 1328.85 945.85 1350 C 975.618 1370.47 1032.97 1368.93 1067.66 1362.46 C 1076.36 1360.84 1084.89 1358.33 1092.43 1353.58 C 1112.92 1340.67 1133.65 1318.82 1151.14 1301.75 C 1181.83 1271.8 1213.19 1241.2 1241.35 1208.81 C 1253.84 1194.44 1265.11 1179.07 1276.96 1164.18 C 1287.97 1150.33 1299.79 1136.66 1309.65 1121.98 C 1329.65 1092.22 1346.83 1002.5 1355.12 965.168 C 1358.51 949.91 1362.98 934.881 1366.27 919.617 C 1363.05 921.504 1359.81 923.679 1356.39 925.167 C 1362.04 916.955 1368.76 909.749 1374.15 901.205 C 1392.29 872.432 1399.27 836.018 1398.78 802.414 C 1373.4 787.407 1323.23 743.271 1300.95 736.174 C 1284.64 730.977 1263.97 731.027 1246.87 730.604 C 1258.06 739.529 1269.25 744.974 1281.65 751.814 C 1276.97 750.336 1272.25 749.049 1267.51 747.779 L 1267.01 747.196 L 1267.51 747.779 C 1289.53 763.946 1317.52 771.231 1336.41 792.264 C 1324.76 787.507 1313.87 780.584 1302.14 775.796 C 1282.69 767.856 1260.45 762.425 1242.38 751.652 C 1233.66 746.447 1226.16 739.03 1217.8 733.167 C 1205.58 731.576 1193.14 733.059 1181.07 735.094 C 1189.4 742.174 1198.12 749.257 1207.76 754.464 L 1228.75 751.82 L 1213.43 756.575 C 1219.03 756.412 1233.98 754.078 1237.98 757.517 C 1232.15 758.101 1226.69 760.38 1220.97 761.597 C 1196.65 766.774 1188.93 766.576 1166.64 779.861 C 1175.16 769.197 1184.59 765.104 1196.64 759.707 L 1196.93 759.82 C 1189.67 755.157 1180.35 753.08 1172.25 750.119 C 1160.17 745.702 1149.78 739.536 1139.5 731.861 C 1131.96 740.842 1123.65 750.882 1114.62 758.343 C 1117.77 746.931 1123.98 735.521 1128.92 724.759 C 1082.64 690.309 1046.36 649.477 1016.22 600.534 C 1002.52 578.284 990.539 555.674 982.935 530.539 C 983.575 541.99 984.992 553.516 986.496 564.882 C 995.696 634.395 1021.06 707.254 1078.59 751.299 C 1027.64 735.206 985.685 697.157 956.848 653.099 C 946.489 637.273 938.075 620.262 927.773 604.365 C 936.707 629.462 942.998 665.155 960.031 685.931 C 964.36 691.212 970.465 695.025 975.115 700.029 C 988.95 714.914 1000.97 728.244 1017.71 740.239 C 995.525 734.35 979.343 722.592 959.682 711.7 L 958.95 711.053 L 957.152 709.705 z M 639.338 949.665 C 636.111 947.21 633.16 944.348 630.201 941.582 C 615.132 927.497 592.255 908.071 584.378 888.813 C 580.765 879.98 579.281 870.424 576.024 861.498 C 573.898 855.67 568.946 851.12 568.89 844.643 C 568.885 844.114 568.907 843.585 568.911 843.056 C 569.014 828.56 572.143 811.112 577.939 797.822 C 579.783 793.595 582.409 788.756 586.859 786.949 L 587.585 787.695 C 588.346 788.862 589.259 790.165 589.802 791.444 C 593.722 800.671 580.606 827.538 577.448 837.945 C 576.09 842.422 574.858 847.117 575.134 851.831 C 575.593 859.643 583.974 883.894 588.037 891.217 C 600.662 913.972 624.312 923.551 648.084 930.444 C 640.969 921.092 633.609 908.38 623.848 901.885 C 617.607 897.733 610.13 894.884 603.512 891.26 C 602.873 889.438 601.44 885.427 601.596 883.572 C 602.168 876.782 612.95 863.137 615.076 851.3 C 610.901 859.645 606.894 869.041 601.295 876.531 C 601.907 874.558 602.591 872.593 603.15 870.606 C 605.688 861.584 612.287 854.59 614.637 846.017 C 607.006 851.816 603.105 864.739 596.345 868.976 C 602.849 853.988 610.208 842.249 619.695 829.018 C 613.93 817.265 597.38 796.438 587.585 787.695 L 586.859 786.949 C 581.789 777.726 574.786 769.635 567.146 762.444 C 560.857 784.935 549.014 816.409 549.235 839.015 C 549.36 851.789 552.129 864.56 554.519 877.068 C 556.567 887.785 558.111 898.971 563.582 908.587 C 573.381 925.813 596.198 938.802 609.81 954.023 C 620.643 966.138 627.648 982.373 639.233 993.407 C 643.908 997.86 649.426 1000.68 655.645 1002.31 C 664.697 1004.69 674.596 1004.47 683.894 1004.31 C 680.874 984.613 676.212 965.183 672.551 945.594 C 669.283 928.111 667.804 907.375 661.108 890.944 C 655.503 877.19 643.276 860.664 633.712 849.271 C 636.298 864.6 637.702 875.666 633.739 891.073 C 633.881 891.481 634.017 891.89 634.164 892.297 C 639.588 907.304 667.1 930.35 661.235 947.097 C 660.331 949.679 658.442 951.333 655.911 952.208 C 654.146 952.818 652.804 952.357 651.143 951.517 C 642.213 947 638.381 932.233 623.479 926.516 L 622.821 925.806 L 622.005 925.161 L 622.821 925.806 L 623.479 926.516 C 626.22 929.289 629.393 931.777 631.984 934.648 C 626.858 932.64 622.212 928.526 617.549 925.55 L 617.118 925.005 L 617.549 925.55 C 622.687 934.493 633.193 940.846 639.338 949.665 z M 625.41 857.541 L 624.526 858.347 C 619.05 862.466 615.249 867.35 613.623 874.117 C 618.211 869.832 622.117 864.143 624.526 858.347 L 625.41 857.541 L 625.817 856.005 L 625.41 857.541 z M 626.594 876.487 L 626.146 877.995 L 626.594 876.487 L 627.959 875.005 L 626.594 876.487 z M 614.168 885.265 L 610.981 887.59 C 610.831 888.686 610.606 889.73 610.709 890.835 C 612.729 889.544 613.185 887.411 614.168 885.265 L 614.995 885.039 L 614.168 885.265 z M 615.493 892.612 L 614.005 892.995 L 615.493 892.612 L 616.785 891.005 L 615.493 892.612 z M 696.143 1415.15 C 689.197 1432.66 682.028 1479.66 683.121 1498.65 C 683.871 1511.67 687.167 1524.97 689.659 1537.77 C 703.077 1606.67 726.363 1672.98 754.221 1737.33 C 782.54 1802.76 814.042 1868.46 856.791 1925.8 L 858.942 1927.37 C 860.736 1923.23 859.485 1917.11 860.016 1912.5 C 837.237 1888.08 821.241 1855.27 806.007 1825.89 C 778.667 1774.4 755.079 1721 735.425 1666.11 C 729.342 1649.54 722.78 1632.88 717.739 1615.95 C 710.566 1591.88 705.152 1567.6 700.177 1543 C 695.265 1518.7 690.515 1494 691.35 1469.09 C 691.953 1451.11 693.202 1432.91 696.143 1415.15 L 696.803 1414.01 L 696.143 1415.15 z M 1495.25 1487.01 L 1495.79 1487.56 C 1499.8 1500.87 1509.63 1512.99 1516.12 1525.24 C 1557.96 1604.26 1603.12 1681.17 1658.65 1751.47 C 1630.52 1757.24 1587.79 1770.6 1560.49 1780.17 C 1571.11 1778.82 1581.7 1776.73 1592.25 1774.91 C 1605.02 1774.3 1618.88 1771.15 1631.45 1768.87 C 1650.23 1765.46 1669.13 1762.19 1687.72 1757.84 C 1680.93 1746.85 1670.33 1737.34 1661.8 1727.61 C 1648.62 1712.64 1636.23 1696.98 1624.69 1680.7 C 1608.76 1657.97 1595.04 1633.67 1579.95 1610.36 C 1561.75 1582.25 1542.12 1555.08 1523.16 1527.49 C 1514.07 1514.26 1505.63 1500.22 1495.79 1487.56 L 1495.25 1487.01 z M 784.529 71.3501 C 737.736 77.2762 697.591 113.808 667.258 147.75 C 687.359 135.653 707.896 125.308 729.39 115.92 C 762.666 103.031 805.048 89.1246 839.625 104.58 C 846.715 107.75 853.071 112.04 859.276 116.668 C 844.626 96.0129 828.942 76.4969 802.497 71.8527 C 796.816 70.855 790.236 70.5109 784.529 71.3501 z M 966.263 93.5 L 967.49 93.5 L 966.263 93.5 z M 964.271 94.5 L 965.49 94.5 L 964.271 94.5 z M 960.761 95.5 L 962.49 95.5 L 960.761 95.5 z M 957.763 96.5 L 959.49 96.5 L 957.763 96.5 z M 1196.27 110.5 L 1197.49 110.5 L 1196.27 110.5 z M 959.769 115.306 C 945.05 117.784 931.604 121.874 920.112 131.881 C 925.341 129.565 930.593 127.318 935.651 124.642 C 948.076 118.835 960.986 117.448 974.368 115.157 C 972.117 113.563 962.614 114.86 959.769 115.306 z M 958.752 129.315 C 933.763 131.402 912.491 141.911 896.247 161.282 C 895.766 161.856 895.296 162.44 894.837 163.032 L 895.343 163.752 C 898.203 161.246 900.96 158.695 903.643 155.998 C 919.68 143.143 932.988 136.099 953.034 131.409 C 959.168 129.975 966.107 131.877 972.476 131.289 L 972.999 130.153 C 968.359 129.585 963.417 128.756 958.752 129.315 z M 974.263 131.5 L 975.49 131.5 L 974.263 131.5 z M 949.918 144.359 C 931.468 146.747 912.37 153.273 899.769 167.729 C 898.797 168.844 898.66 169.146 897.98 170.253 C 905.514 166.046 911.624 159.889 919.268 155.821 C 936.036 148.353 953.701 144.811 972.07 146.94 C 974.36 147.205 982.484 149.046 983.697 147.455 C 975.117 143.475 959.286 143.096 949.918 144.359 z M 819.263 196.5 L 820.49 196.5 L 819.263 196.5 z M 877.252 242.423 C 877.407 242.92 877.332 243.632 877.784 243.889 L 877.252 242.423 z M 876.556 246.5 L 877.49 246.5 L 876.556 246.5 z M 900.319 252.708 C 897.425 262.983 888.095 327.699 890.559 334.385 C 893.068 318.528 902.604 264.879 900.319 252.708 z M 953.511 262.5 L 954.422 262.5 L 953.511 262.5 z M 917.272 291.713 C 911.975 312.662 909.28 334.878 905.311 356.169 C 888.861 444.407 874.008 539.994 902.189 627.458 C 906.904 642.091 912.93 657.792 920.891 670.974 C 923.461 675.23 925.818 679.168 930.293 681.569 L 933.505 680.373 C 922.858 661.687 913.592 643.05 907.013 622.499 C 880.213 538.785 896.021 444.57 908.489 359.628 C 910.466 346.161 919.097 302.826 917.272 291.713 z M 603.317 295.5 L 604.196 295.5 L 603.317 295.5 z M 600.441 300.5 L 601.49 300.5 L 600.441 300.5 z M 889.654 335.938 L 890.49 336.5 L 889.654 335.938 z M 1519.3 392.5 L 1520.07 392.5 L 1519.3 392.5 z M 1520.38 394.5 L 1521.04 394.5 L 1520.38 394.5 z M 733.304 412.5 L 734.042 412.5 L 733.304 412.5 z M 664.377 416.925 L 665.024 417.5 L 664.377 416.925 z M 1049.33 418.5 L 1050.08 418.5 L 1049.33 418.5 z M 1050.29 420.5 L 1051.05 420.5 L 1050.29 420.5 z M 880.514 423.38 C 861.032 425.555 840.012 428.239 821.296 434.168 C 782.769 489.808 758.845 609.689 767.648 676.76 C 783.66 676.053 799.718 675.327 815.75 675.726 C 836.545 676.007 857.334 676.646 878.107 677.643 C 892.291 678.416 906.626 679.976 920.816 680.133 C 911.369 662.757 902.586 645.18 896.515 626.283 C 876.581 564.238 879.075 486.406 889.765 422.75 C 886.821 422.93 883.383 422.826 880.514 423.38 z M 1252.53 436.723 C 1254.66 439.104 1255.51 440.62 1258.59 441.604 L 1260.17 440.844 C 1257.69 439.39 1255.22 437.751 1252.53 436.723 z M 1025.22 465.5 L 1026.12 465.5 L 1025.22 465.5 z M 1539.32 474.91 L 1540.49 475.5 L 1539.32 474.91 z M 1305.27 477.5 L 1306.49 477.5 L 1305.27 477.5 z M 1540.42 477.5 L 1541.1 477.5 L 1540.42 477.5 z M 597.209 510.946 L 598.037 511.5 L 597.209 510.946 z M 1450.27 592.5 L 1451.06 592.5 L 1450.27 592.5 z M 1451.22 594.5 L 1452.04 594.5 L 1451.22 594.5 z M 959.37 604.5 L 960.14 604.5 L 959.37 604.5 z M 747.551 604.653 C 740.81 628 742.609 654.727 744.223 678.768 L 756.479 677.648 L 759.911 676.64 C 760.643 671.722 756.162 664.279 755.044 659.167 C 752.143 645.901 751.104 631.558 749.327 618.061 C 748.767 613.807 748.737 608.73 747.551 604.653 z M 960.282 606.5 L 961.031 606.5 L 960.282 606.5 z M 961.181 608.5 L 962.017 608.5 L 961.181 608.5 z M 1464.32 625.909 L 1465.49 626.5 L 1464.32 625.909 z M 1465.51 628.5 L 1466.47 628.5 L 1465.51 628.5 z M 1212.65 664.538 C 1215.92 675.347 1221.18 684.855 1226.77 694.619 C 1234.14 694.741 1241.51 694.916 1248.88 695.141 C 1239.48 687.903 1220.03 668.361 1212.65 664.538 z M 1491.4 686.5 L 1492.26 686.5 L 1491.4 686.5 z M 1495.39 695.5 L 1496.2 695.5 L 1495.39 695.5 z M 1496.33 697.5 L 1497.08 697.5 L 1496.33 697.5 z M 1497.27 699.5 L 1498.06 699.5 L 1497.27 699.5 z M 1499.18 703.5 L 1500.02 703.5 L 1499.18 703.5 z M 1360.65 753.006 C 1372.16 764.802 1384.9 775.273 1395.14 788.268 C 1396.33 789.777 1395.74 789.18 1397.19 790.324 C 1396.25 782.129 1395.1 773.96 1393.74 765.823 C 1383.04 761.509 1371.76 755.863 1360.65 753.006 z M 660.474 765.5 L 661.192 765.5 L 660.474 765.5 z M 852.155 767.271 C 852.323 770.893 852.088 774.533 854.169 777.657 C 857.152 779.382 858.519 779.715 861.905 778.85 C 864.629 778.154 867.329 777.315 869.894 776.161 C 871.624 773.57 872.538 772.769 872.618 769.596 C 869.545 766.584 866.892 766.622 862.723 766.655 C 859.182 766.682 855.679 766.916 852.155 767.271 z M 828.932 770.263 C 826.838 771.559 825.804 772.512 824.448 774.57 C 824.619 776.591 824.522 777.324 826.293 778.654 C 829.322 780.928 834.107 780.57 837.754 780.695 L 840.029 780.3 C 840.271 777.508 839.613 774.918 837.842 772.721 C 836.284 770.79 835.631 770.164 833.133 769.951 C 831.86 769.842 830.169 770.14 828.932 770.263 z M 826.376 801.5 L 827.17 801.5 L 826.376 801.5 z M 1467.29 800.825 C 1469.75 843.012 1471.62 883.247 1447.39 920.149 C 1455.57 892.908 1457.48 880.949 1456.83 852.585 C 1451 864.889 1443.43 874.434 1435.75 885.533 C 1441.09 914.491 1439.53 935.181 1422.31 960.185 C 1414.65 971.317 1389.88 999.319 1376.49 1002.43 C 1374.53 1002.89 1373.54 1002.74 1371.67 1002.16 L 1370.1 1000.52 C 1370.47 998.453 1370.59 998.036 1372.37 996.703 C 1376.34 993.735 1381.48 992.33 1385.63 989.388 C 1402.03 977.765 1411.4 957.951 1415.17 938.569 C 1416.02 934.204 1416.27 929.668 1416.58 925.237 C 1413.07 937.117 1411.35 946.863 1402.89 956.469 C 1397.2 957.825 1392.23 959.411 1386.96 962.041 C 1386.54 962.243 1386.13 962.439 1385.71 962.648 C 1380.96 965.049 1372.68 973.289 1369.08 973.976 C 1368.06 971.223 1368.63 968.782 1369.82 966.111 C 1372.02 961.13 1375.77 956.951 1379.45 953.022 C 1393.99 937.514 1399.66 926.928 1399.72 905.367 C 1391.5 914.177 1382.09 921.362 1373.71 929.863 C 1367.88 961.761 1361.77 993.607 1355.37 1025.4 C 1362.48 1025.05 1370.23 1025.06 1376.69 1021.73 C 1388.62 1015.59 1437.81 966.035 1448.69 953.98 C 1455.79 946.115 1463.92 936.268 1468 926.412 C 1475.67 907.859 1476.89 853.981 1475.66 832.906 C 1475.05 822.605 1474.15 808.991 1467.29 800.825 z M 619.11 848.445 L 618.303 849.704 L 619.268 849.22 L 620.15 848.167 L 619.11 848.445 z M 630.137 862.675 C 627.48 866.192 624.289 869.9 624.333 874.498 L 624.785 874.87 C 627.213 871.406 630.258 867.79 631.913 863.899 L 630.137 862.675 z M 611.012 871.52 C 610.921 871.833 610.835 872.148 610.74 872.461 C 609.422 876.844 605.631 881.88 605.31 886.175 L 607.107 887.737 C 607.185 887.448 607.259 887.158 607.341 886.87 C 608.611 882.42 612.031 878.586 612.614 874.172 L 611.012 871.52 z M 625.391 879.5 L 626.49 879.5 L 625.391 879.5 z M 631.178 886.5 L 632 886.5 L 631.178 886.5 z M 758.901 1180.72 C 760.773 1202.63 765.294 1224.34 767.599 1246.23 C 772.38 1290.29 776.924 1334.38 781.228 1378.49 C 782.595 1393.83 781.84 1426.6 786.52 1439.3 C 799.678 1475.01 851.414 1537.13 881.006 1561.82 C 881.85 1562.53 882.705 1563.23 883.57 1563.92 C 879.758 1546.66 838.297 1409.55 840.452 1406.01 C 852.578 1435.65 862.892 1466.01 874.939 1495.66 C 884.441 1519.05 895.406 1541.69 906.631 1564.28 C 911.279 1573.64 915.888 1586.19 922.731 1594.05 C 929.983 1602.39 941.531 1609.04 950.494 1615.65 C 972.093 1631.58 993.564 1648 1016.29 1662.3 C 1045.67 1628.95 1079.25 1602.45 1112.88 1573.67 C 1145.1 1546.1 1176.78 1517.05 1206.09 1486.37 C 1233.22 1458.49 1273.56 1418.35 1289.37 1382.22 C 1277.37 1330.12 1287.97 1278.23 1287.16 1225.74 C 1261.31 1292.07 1171.9 1485.44 1104.66 1514.86 C 1088.69 1521.85 1069.79 1520.39 1053.88 1513.92 C 998.008 1491.19 909.655 1370.54 870.416 1321.17 C 847.598 1292.47 824.008 1264.41 801.107 1235.81 C 796.498 1230.05 761.544 1182.76 758.901 1180.72 z M 1299.02 1290.65 C 1299.02 1297.98 1299.08 1305.31 1299.19 1312.64 C 1307.22 1318.23 1314.65 1325.23 1316.43 1335.33 C 1320.5 1358.37 1286.09 1404.94 1272.16 1423.58 C 1259.74 1440.19 1245.86 1455.68 1232.39 1471.43 C 1198.1 1511.55 1163.69 1548.87 1123 1582.68 C 1111.38 1592.46 1099.31 1601.7 1086.83 1610.36 C 1077.75 1616.74 1067.67 1622.58 1059.46 1630.04 C 1065.04 1647.02 1074.64 1662.55 1080.86 1679.35 C 1100.2 1732.02 1120.38 1784.38 1141.38 1836.41 C 1151.26 1860.72 1160.66 1886.31 1172.46 1909.72 C 1188.96 1880.74 1207.21 1852.75 1222.81 1823.27 C 1259.41 1754.13 1289.79 1681.66 1318.11 1608.79 C 1332.3 1572.26 1346.82 1535.71 1358.43 1498.25 C 1365.61 1473.08 1361.67 1455.55 1357.49 1430.37 C 1356.73 1451.57 1358.2 1472.06 1353.01 1492.89 C 1344.68 1526.37 1327.47 1564.58 1314.08 1596.77 C 1279.91 1678.91 1243.09 1761.19 1199.91 1839.05 C 1190.11 1856.72 1181.1 1875.62 1169.36 1892.09 C 1161.83 1876.59 1152.43 1858.91 1147.86 1842.34 C 1195.79 1763.01 1239.92 1682.66 1277.77 1597.98 C 1292.01 1566.13 1306.29 1534.11 1319.58 1501.85 C 1330.86 1474.44 1341.13 1446.39 1353.97 1419.66 C 1349.52 1404.19 1341.8 1389.91 1337.35 1374.49 C 1328.39 1343.48 1334.85 1310.83 1302.38 1292.33 C 1301.27 1291.69 1300.19 1291.18 1299.02 1290.65 z M 755.987 1301.75 C 727.605 1331.3 725.549 1350.22 712.795 1386.91 C 708.468 1399.36 702.135 1411.82 702.366 1425.28 C 702.902 1456.53 710.622 1487.26 718.273 1517.36 C 743.493 1616.6 781.352 1711.14 827.049 1802.68 C 838.086 1824.79 848.906 1847.98 861.533 1869.19 C 863.617 1854.34 865.898 1839.53 868.373 1824.75 C 876.416 1778.85 915.237 1657.74 951.891 1629.81 L 950.883 1629.04 C 940.619 1621.36 929.379 1614.98 918.772 1607.78 C 907.814 1600.34 897.249 1591.69 887.258 1582.99 C 841.007 1542.72 756.161 1440.82 747.084 1379.08 C 744.893 1364.18 746.373 1342.89 755.776 1330.43 C 757.015 1328.79 758.423 1327.27 759.825 1325.77 C 759.427 1320.35 759.675 1305.22 755.987 1301.75 z M 701.636 1395.3 L 702.251 1396.15 L 701.829 1395.26 L 701.636 1395.3 z M 701.18 1399.5 L 702.012 1399.5 L 701.18 1399.5 z M 526.326 1544.5 L 527.127 1544.5 L 526.326 1544.5 z M 957.775 1633.39 C 955.344 1636.96 952.751 1640.49 950.496 1644.17 C 960.472 1650.54 969.741 1656.79 978.34 1665.02 C 985.489 1671.86 992.891 1681.49 1001.03 1686.87 L 1003.22 1685.51 C 1006.6 1680.62 1011.49 1675.21 1011.02 1668.95 C 1005.36 1663.74 964.183 1635.85 957.775 1633.39 z M 1049.16 1640.54 C 1023.82 1663.3 1000.72 1684.79 989.056 1718.14 L 989.546 1719.48 L 991.345 1717.36 C 1003.43 1703.46 1015.76 1689.78 1028.33 1676.32 C 1036.28 1667.81 1045.54 1659.28 1052.5 1649.98 C 1053.54 1648.59 1053.87 1647.82 1053.99 1646.09 C 1053.11 1643.99 1052.25 1642.03 1050.16 1640.85 C 1049.86 1640.68 1049.49 1640.64 1049.16 1640.54 z M 1389.78 1682.87 C 1413.01 1705.64 1436.34 1728.28 1459.79 1750.81 C 1479.56 1769.72 1499.15 1789.21 1521.43 1805.19 C 1545.44 1822.41 1572.48 1836.18 1599 1849.12 C 1623.67 1861.16 1649.22 1872.4 1676.23 1877.94 C 1662.94 1867.73 1646.05 1860.5 1631.5 1852 C 1616.05 1842.99 1601.4 1832.7 1585.95 1823.68 C 1560.06 1808.56 1533.32 1794.73 1508.74 1777.49 C 1485.59 1761.26 1463.19 1742.86 1441.53 1724.68 C 1429.62 1714.67 1401.62 1688.34 1389.78 1682.87 z M 977.373 1685.56 C 951.749 1717.05 929.378 1750.94 907.7 1785.23 C 919.463 1795.75 931.276 1804.73 945.337 1811.98 C 956.274 1817.15 967.527 1821.43 978.5 1826.46 C 979.425 1786.11 975.665 1727.45 998.524 1693.17 C 991.534 1691.14 984.257 1686.92 977.373 1685.56 z"/>
<path transform="translate(0,0)" fill="rgb(0,0,0)" d="M 1426.48 283.754 L 1426.01 283.241 L 1426.48 283.754 z"/>
<path transform="translate(0,0)" fill="rgb(0,0,0)" d="M 1402.46 372.354 L 1403.12 373.277 L 1402.46 372.354 z"/>
<path transform="translate(0,0)" fill="rgb(0,0,0)" d="M 1392.38 373.379 L 1392.99 373.802 L 1392.38 373.379 z"/>
<path transform="translate(0,0)" fill="rgb(0,0,0)" d="M 1403.12 373.277 L 1403.75 373.995 L 1403.12 373.277 z"/>
<path transform="translate(0,0)" fill="rgb(0,0,0)" d="M 597.621 392.371 L 598.585 390.811 L 597.621 392.371 z"/>
<path transform="translate(0,0)" fill="rgb(0,0,0)" d="M 597.208 392.944 L 597.621 392.371 L 597.208 392.944 z"/>
<path transform="translate(0,0)" fill="rgb(0,0,0)" d="M 1391.78 403.44 L 1391.22 403.164 L 1391.78 403.44 z"/>
<path transform="translate(0,0)" fill="rgb(0,0,0)" d="M 1409.64 406.625 L 1409.01 406.232 L 1409.64 406.625 z"/>
<path transform="translate(0,0)" fill="rgb(0,0,0)" d="M 1297.41 427.272 C 1292.1 426.41 1286.09 422.283 1281.25 419.756 C 1288.52 420.301 1291.98 422.825 1297.41 427.272 z"/>
<path transform="translate(0,0)" fill="rgb(0,0,0)" d="M 1276.84 431.433 L 1278.3 432.401 L 1276.84 431.433 z"/>
<path transform="translate(0,0)" fill="rgb(0,0,0)" d="M 1278.3 432.401 L 1278.85 432.896 L 1278.3 432.401 z"/>
<path transform="translate(0,0)" fill="rgb(0,0,0)" d="M 716.239 447.5 L 715.461 447.5 L 716.239 447.5 z"/>
<path transform="translate(0,0)" fill="rgb(0,0,0)" d="M 714.983 450.5 L 714.423 449.92 L 714.983 450.5 z"/>
<path transform="translate(0,0)" fill="rgb(0,0,0)" d="M 1070.76 450.703 L 1070.24 450.005 L 1070.76 450.703 z"/>
<path transform="translate(0,0)" fill="rgb(0,0,0)" d="M 676.199 452.995 L 676.55 452.303 L 676.199 452.995 z"/>
<path transform="translate(0,0)" fill="rgb(0,0,0)" d="M 714.033 452.5 L 713.376 452.5 L 714.033 452.5 z"/>
<path transform="translate(0,0)" fill="rgb(0,0,0)" d="M 1318.89 459.303 C 1314.73 457.945 1312.96 455.965 1310.11 452.739 C 1314.05 454.102 1316.04 456.34 1318.89 459.303 z"/>
<path transform="translate(0,0)" fill="rgb(0,0,0)" d="M 675.205 481.632 L 675.745 481.172 L 675.205 481.632 z"/>
<path transform="translate(0,0)" fill="rgb(0,0,0)" d="M 1602.83 706.185 L 1603.62 705.533 L 1602.83 706.185 z"/>
<path transform="translate(0,0)" fill="rgb(0,0,0)" d="M 1602.21 706.976 L 1602.83 706.185 L 1602.21 706.976 z"/>
<path transform="translate(0,0)" fill="rgb(0,0,0)" d="M 954.522 758.487 C 943.295 752.459 933.862 743.086 922.3 737.7 C 900.308 727.456 873.789 733.673 850.724 729.357 L 852.423 728.183 C 867.178 727.6 883.245 728.075 897.855 729.967 C 916.502 732.382 930.457 738.384 945.544 749.428 C 949.054 751.997 953.359 754.596 955.993 758.035 L 954.522 758.487 z"/>
<path transform="translate(0,0)" fill="rgb(0,0,0)" d="M 926.49 729.5 L 924.759 729.5 L 926.49 729.5 z"/>
<path transform="translate(0,0)" fill="rgb(0,0,0)" d="M 928.495 730.571 L 927.005 730.17 L 928.495 730.571 z"/>
<path transform="translate(0,0)" fill="rgb(0,0,0)" d="M 715.647 732.556 L 715.247 731.005 L 715.647 732.556 z"/>
<path transform="translate(0,0)" fill="rgb(0,0,0)" d="M 928.495 730.571 L 930.611 732.622 L 928.495 730.571 z"/>
<path transform="translate(0,0)" fill="rgb(0,0,0)" d="M 715.647 732.556 L 716.529 733.348 L 715.647 732.556 z"/>
<path transform="translate(0,0)" fill="rgb(0,0,0)" d="M 930.611 732.622 L 932.578 733.162 L 930.611 732.622 z"/>
<path transform="translate(0,0)" fill="rgb(0,0,0)" d="M 932.578 733.162 L 934.431 734.41 L 932.578 733.162 z"/>
<path transform="translate(0,0)" fill="rgb(0,0,0)" d="M 716.529 733.348 C 726.19 744.922 735.501 756.776 745.316 768.277 C 734.09 762.904 721.714 749.777 717.739 738.002 C 717.221 736.469 716.879 734.926 716.529 733.348 z"/>
<path transform="translate(0,0)" fill="rgb(0,0,0)" d="M 934.431 734.41 L 935.358 735.096 L 934.431 734.41 z"/>
<path transform="translate(0,0)" fill="rgb(0,0,0)" d="M 934.597 756.499 C 926.414 750.084 919.825 743.459 909.983 739.472 C 905.579 737.689 900.903 736.677 896.592 734.673 C 908.527 735.357 921.822 741.355 929.948 750.08 C 931.812 752.081 933.376 754.053 934.597 756.499 z"/>
<path transform="translate(0,0)" fill="rgb(0,0,0)" d="M 935.358 735.096 L 937.684 736.377 L 935.358 735.096 z"/>
<path transform="translate(0,0)" fill="rgb(0,0,0)" d="M 937.684 736.377 L 939.426 737.384 L 937.684 736.377 z"/>
<path transform="translate(0,0)" fill="rgb(0,0,0)" d="M 939.426 737.384 L 939.825 737.77 L 939.426 737.384 z"/>
<path transform="translate(0,0)" fill="rgb(0,0,0)" d="M 939.825 737.77 C 953.577 744.277 982.821 760.266 988.375 774.422 C 983.806 770.89 980.062 766.395 975.325 762.973 C 963.55 754.467 949.986 748.328 939.825 737.77 z"/>
<path transform="translate(0,0)" fill="rgb(0,0,0)" d="M 934.597 756.499 L 935.151 757.188 L 934.597 756.499 z"/>
<path transform="translate(0,0)" fill="rgb(0,0,0)" d="M 971.531 763.112 C 969.029 762.705 966.276 762.233 963.885 761.402 C 960.613 760.265 959.674 758.955 958.13 755.994 C 962.847 758.066 967.406 759.954 971.531 763.112 z"/>
<path transform="translate(0,0)" fill="rgb(0,0,0)" d="M 935.151 757.188 L 936.217 758.384 L 935.151 757.188 z"/>
<path transform="translate(0,0)" fill="rgb(0,0,0)" d="M 936.217 758.384 L 936.995 759.971 L 936.217 758.384 z"/>
<path transform="translate(0,0)" fill="rgb(0,0,0)" d="M 1114.22 758.995 L 1114.62 758.343 L 1114.22 758.995 z"/>
<path transform="translate(0,0)" fill="rgb(0,0,0)" d="M 1245.04 760.654 L 1244.16 759.969 L 1245.04 760.654 z"/>
<path transform="translate(0,0)" fill="rgb(0,0,0)" d="M 1165.51 820.948 C 1164.95 824.439 1164.44 827.755 1163.25 831.093 L 1161.64 831.277 C 1159.63 830.219 1158.72 829.941 1158.21 827.479 C 1156.35 818.379 1167.78 804.76 1173.06 798.088 C 1186.96 780.547 1203.59 773.004 1225.63 770.361 C 1251.57 768.649 1283.82 778.759 1308.46 787.047 C 1319.26 790.683 1330.06 795.409 1341.16 798.009 L 1343.1 798.451 C 1349.32 799.896 1355.12 799.447 1361.42 799.041 C 1351.16 805.187 1327.63 809.275 1322.25 814.872 L 1322.71 816.227 L 1327.56 817.135 C 1325.38 820.18 1319.47 821.47 1316.41 824.459 L 1319.67 825.35 L 1319.08 827.016 C 1316.46 829.425 1314.49 831.276 1311.09 832.436 L 1310.01 831.509 L 1309.82 828.322 C 1307.84 830.012 1307.49 829.678 1307.07 832.408 L 1311.03 835.982 L 1310.7 837.604 C 1303.71 843.685 1286.14 856.438 1277.59 858.788 C 1275.1 859.472 1261.38 857.029 1257.23 856.835 C 1283.74 847.434 1286.87 847.026 1303.37 823.448 C 1306.3 818.721 1308.5 814.298 1310.13 808.961 C 1294.58 804.871 1279.1 799.406 1263.1 797.417 C 1263.94 813.916 1263.33 828.876 1252.1 842.225 C 1245.35 850.258 1235.7 856.151 1225.07 856.834 C 1214.65 857.505 1204.21 853.188 1196.64 846.144 C 1185.12 835.437 1181.44 821.253 1180.82 806.118 C 1175.53 810.919 1170.38 815.722 1165.51 820.948 z M 1237.73 790.541 L 1233.45 795.133 C 1234.54 796.817 1235.23 797.033 1236.87 798.127 C 1239.94 800.162 1241.04 801.918 1242.79 805.028 C 1244.46 808.007 1245.52 809.867 1248.55 811.559 C 1250.68 809.395 1252.13 808.144 1252.53 804.964 C 1250.77 798.572 1243.2 793.85 1237.73 790.541 z M 1218.85 794.683 C 1215.49 796.922 1212.11 798.768 1209.96 802.28 C 1209.86 803.806 1209.43 804.487 1210.52 805.747 C 1212.39 807.886 1215.42 808.484 1218.04 809.296 C 1221.67 808.932 1223.04 809.247 1225.86 806.824 C 1226.87 804.128 1227.62 802.871 1226.67 799.983 C 1225.86 797.559 1223.36 795.855 1221.04 795.096 C 1220.08 794.783 1219.75 794.783 1218.85 794.683 z M 1193.47 818.5 L 1194.3 818.5 L 1193.47 818.5 z M 1193.6 819.645 C 1197.78 829.992 1203.01 839.735 1213.84 844.401 C 1220.49 847.265 1227.79 847.03 1234.42 844.226 C 1241.75 841.124 1246.52 835.997 1251.29 829.837 L 1252.92 825.784 L 1252.08 824.48 C 1235.17 825.799 1227.49 851.745 1203.91 831.104 C 1200 827.679 1197.52 823.085 1193.6 819.645 z"/>
<path transform="translate(0,0)" fill="rgb(0,0,0)" d="M 988.375 774.422 L 988.823 774.89 L 988.375 774.422 z"/>
<path transform="translate(0,0)" fill="rgb(0,0,0)" d="M 1103.1 781.111 L 1103.83 780.113 L 1103.1 781.111 z"/>
<path transform="translate(0,0)" fill="rgb(0,0,0)" d="M 1102.43 782.238 L 1103.1 781.111 L 1102.43 782.238 z"/>
<path transform="translate(0,0)" fill="rgb(0,0,0)" d="M 1065.52 875.337 C 1065.09 870.751 1064.71 866.101 1064.65 861.494 C 1064.31 835.91 1085.07 800.243 1102.43 782.238 C 1095.83 799.721 1072.13 831.192 1070.92 848.488 L 1070.28 848.995 L 1070.92 848.488 C 1073.67 845.057 1075.54 840.139 1077.6 836.208 C 1084.21 823.621 1094.75 799.596 1103.41 789.158 C 1099.88 807.031 1085.49 824.278 1077.36 840.478 C 1071.77 851.603 1068.73 863.38 1065.52 875.337 z"/>
<path transform="translate(0,0)" fill="rgb(0,0,0)" d="M 1103.41 789.158 L 1103.81 788.076 L 1103.41 789.158 z"/>
<path transform="translate(0,0)" fill="rgb(0,0,0)" d="M 1336.41 792.264 L 1336.93 792.768 L 1336.41 792.264 z"/>
<path transform="translate(0,0)" fill="rgb(0,0,0)" d="M 1104.53 805.177 L 1104.99 804.005 L 1104.53 805.177 z"/>
<path transform="translate(0,0)" fill="rgb(0,0,0)" d="M 1065.94 885.89 C 1065.98 883.329 1065.78 881.576 1067.24 879.364 L 1067.35 881.291 C 1078.45 856.158 1088.9 827.768 1104.53 805.177 C 1102.25 818.845 1083.47 852.189 1076.89 866.621 C 1074.4 872.079 1072.98 877.95 1070.44 883.369 C 1069.59 885.183 1068.57 886.287 1067.13 887.639 L 1065.94 885.89 z"/>
<path transform="translate(0,0)" fill="rgb(0,0,0)" d="M 870.412 829.081 L 869.212 827.695 C 867.224 828.477 865.492 828.927 863.967 830.473 L 868.464 829.956 L 869.135 830.834 C 862.71 835.684 851.658 837.427 843.901 836.113 C 834.87 834.584 828.667 828.632 822.726 822.16 C 823.671 819.526 823.482 818.242 826.078 816.876 C 836.994 818.221 844.216 827.039 855.753 827.147 C 860.237 827.189 876.303 822.003 878.226 822.901 C 877.085 825.691 874.556 827.671 871.7 828.717 C 871.281 828.871 870.841 828.96 870.412 829.081 z"/>
<path transform="translate(0,0)" fill="rgb(0,0,0)" d="M 797.379 825.402 L 797.864 825.796 L 797.379 825.402 z"/>
<path transform="translate(0,0)" fill="rgb(0,0,0)" d="M 1070.88 906.401 C 1067.51 897.343 1086.13 860.825 1090.16 850.609 C 1093.37 842.463 1095.89 834.011 1098.44 825.638 C 1098.56 825.997 1098.72 826.348 1098.81 826.716 C 1102.05 839.578 1086.47 866.179 1081.51 878.773 C 1077.99 887.689 1075.98 898.324 1070.88 906.401 z"/>
<path transform="translate(0,0)" fill="rgb(0,0,0)" d="M 870.005 829.772 L 870.412 829.081 L 870.005 829.772 z"/>
<path transform="translate(0,0)" fill="rgb(0,0,0)" d="M 1166.67 841.112 C 1161.83 838.993 1158.56 835.833 1155.36 831.69 C 1160.37 833.078 1163.89 836.911 1166.67 841.112 z"/>
<path transform="translate(0,0)" fill="rgb(0,0,0)" d="M 1092.43 870.028 C 1093.8 861.158 1096.01 852.093 1098.33 843.427 C 1098.44 853.621 1097.96 863.594 1096.89 873.731 C 1095.48 882.588 1094.5 891.819 1092.05 900.453 C 1091.69 893.353 1094.48 874.52 1092.43 870.028 z"/>
<path transform="translate(0,0)" fill="rgb(0,0,0)" d="M 764.597 904.896 L 763.018 902.947 C 765.79 893.257 790.233 865.611 797.647 856.668 L 798.595 857.633 C 798.54 858.652 798.586 858.868 798.191 859.972 C 795.593 867.237 770.89 901.156 764.597 904.896 z"/>
<path transform="translate(0,0)" fill="rgb(0,0,0)" d="M 769.591 878.391 C 771.583 871.699 778.067 862.079 783.705 857.961 C 780.47 864.401 775.166 873.844 769.591 878.391 z"/>
<path transform="translate(0,0)" fill="rgb(0,0,0)" d="M 786.792 914.984 C 786.737 914.759 786.638 914.54 786.626 914.308 C 786.304 907.748 823.175 866.462 829.808 858.812 C 829.867 859.325 830.02 859.835 829.985 860.35 C 829.511 867.337 793.284 910.98 786.792 914.984 z"/>
<path transform="translate(0,0)" fill="rgb(0,0,0)" d="M 814.406 860.441 L 814.894 860.061 L 814.406 860.441 z"/>
<path transform="translate(0,0)" fill="rgb(0,0,0)" d="M 775.831 909.888 C 780.213 898.469 804.945 867.397 814.406 860.441 C 809.387 872.402 786.31 902.083 775.831 909.888 z"/>
<path transform="translate(0,0)" fill="rgb(0,0,0)" d="M 844.518 861.663 L 844.86 861.188 L 844.518 861.663 z"/>
<path transform="translate(0,0)" fill="rgb(0,0,0)" d="M 808.617 907.462 C 812.331 898.399 836.288 867.507 844.518 861.663 C 841.37 870.49 816.535 901.75 808.617 907.462 z"/>
<path transform="translate(0,0)" fill="rgb(0,0,0)" d="M 858.123 863.5 L 857.403 863.5 L 858.123 863.5 z"/>
<path transform="translate(0,0)" fill="rgb(0,0,0)" d="M 856.39 865.568 L 856.803 865.005 L 856.39 865.568 z"/>
<path transform="translate(0,0)" fill="rgb(0,0,0)" d="M 833.878 900.405 C 836.219 889.063 848.547 873.551 856.39 865.568 C 853.794 873.884 840.594 894.574 833.878 900.405 z"/>
<path transform="translate(0,0)" fill="rgb(0,0,0)" d="M 1223.24 933.152 C 1222.33 932.253 1222.75 932.892 1222.66 930.931 C 1241.75 903.6 1269.59 883.744 1297.96 867.085 C 1298.64 867.697 1298.21 867.221 1298.71 868.861 C 1294.26 874.871 1272.22 887.706 1264.65 893.847 C 1249.77 905.922 1237.69 920.744 1223.24 933.152 z"/>
<path transform="translate(0,0)" fill="rgb(0,0,0)" d="M 1073.95 921.035 C 1074.01 912.085 1087.15 877.155 1092.43 870.028 C 1089.87 881.251 1081.5 913.87 1073.95 921.035 z"/>
<path transform="translate(0,0)" fill="rgb(0,0,0)" d="M 1118.63 984.302 C 1116.8 980.483 1116.5 976.36 1115.26 972.314 C 1108.59 950.57 1102.77 928.891 1102.7 905.966 C 1097.9 918.168 1102.56 931.468 1103.85 944.019 C 1095.79 921.058 1097.26 894.885 1099.25 870.983 C 1104.29 899.759 1109.31 926.744 1119 954.432 C 1122.27 964.003 1125.81 973.48 1129.62 982.85 C 1132.69 990.353 1137.36 998.483 1138.86 1006.36 C 1125.7 992.607 1111.79 938.002 1109.26 935.363 C 1111.58 946.825 1113.44 960.78 1117.82 971.446 C 1122.13 981.938 1128.52 990.705 1131.52 1001.92 C 1127.3 996.836 1125.63 990.504 1122.76 984.665 C 1121.76 982.642 1121.1 980.754 1118.88 980.05 L 1118.63 984.302 z M 1102.01 901.329 C 1102.28 901.582 1102.51 902.03 1102.87 902.021 L 1102.01 901.329 z M 1108.64 931.5 L 1109.49 931.5 L 1108.64 931.5 z"/>
<path transform="translate(0,0)" fill="rgb(0,0,0)" d="M 769.243 878.995 L 769.591 878.391 L 769.243 878.995 z"/>
<path transform="translate(0,0)" fill="rgb(0,0,0)" d="M 1223.57 913.473 C 1229.55 902.013 1247.28 883.705 1259.67 879.643 C 1250.74 888.821 1234.31 908.157 1223.57 913.473 z"/>
<path transform="translate(0,0)" fill="rgb(0,0,0)" d="M 1207.03 920.448 L 1206.18 919.577 C 1211.18 909.319 1229.38 887.718 1238.84 881.806 L 1239.87 883.469 C 1236.49 893.231 1215.13 912.371 1207.03 920.448 z"/>
<path transform="translate(0,0)" fill="rgb(0,0,0)" d="M 1167.82 913.809 L 1167.34 913.453 L 1167.34 911.722 C 1174.91 901.26 1186.2 890.13 1196.91 882.965 C 1197.42 883.482 1197.53 884.273 1197.81 884.943 C 1192.19 895.9 1177.48 906.42 1167.82 913.809 z"/>
<path transform="translate(0,0)" fill="rgb(0,0,0)" d="M 1191.71 923.64 C 1191.25 923.128 1191.05 922.423 1190.76 921.797 C 1196.13 912.308 1216.06 887.887 1225.06 882.727 C 1226.03 883.645 1225.62 883.012 1225.75 884.872 C 1215.9 899.325 1204.26 911.541 1191.71 923.64 z"/>
<path transform="translate(0,0)" fill="rgb(0,0,0)" d="M 1248.83 927.375 L 1248.56 925.304 C 1254.46 911.374 1276.29 893.402 1288.16 884.04 L 1288.42 885.113 C 1283.36 894.583 1257.8 923.199 1248.83 927.375 z"/>
<path transform="translate(0,0)" fill="rgb(0,0,0)" d="M 1180.09 917.285 L 1179.25 916.533 C 1179.35 913.564 1203.02 890.682 1206.81 886.692 L 1207.83 887.843 C 1205.21 897.79 1188.51 911.792 1180.09 917.285 z"/>
<path transform="translate(0,0)" fill="rgb(0,0,0)" d="M 1078.67 929.003 C 1079.85 923.288 1087.37 894.862 1089.99 891.877 C 1090.19 902.571 1085.35 920.783 1078.67 929.003 z"/>
<path transform="translate(0,0)" fill="rgb(0,0,0)" d="M 1110.21 1005.49 C 1108.35 1004.27 1108.72 1004.79 1107.56 1003.05 C 1101.93 994.602 1088.8 939.628 1088.15 929.474 C 1087.5 919.46 1089.46 909.418 1091.16 899.605 C 1093.33 905.617 1090.76 915.034 1090.71 921.559 C 1090.68 925.768 1091.26 930.039 1091.8 934.206 C 1093.38 946.314 1096.62 958.477 1100.1 970.181 C 1101.76 975.754 1104.44 981.008 1105.13 986.815 C 1105.88 993.189 1108.28 999.366 1110.21 1005.49 z"/>
<path transform="translate(0,0)" fill="rgb(0,0,0)" d="M 808.167 907.995 L 808.617 907.462 L 808.167 907.995 z"/>
<path transform="translate(0,0)" fill="rgb(0,0,0)" d="M 1223.16 913.956 L 1223.57 913.473 L 1223.16 913.956 z"/>
<path transform="translate(0,0)" fill="rgb(0,0,0)" d="M 1073.12 928.739 C 1073.1 928.632 1073.1 928.522 1073.07 928.419 C 1072.36 926.209 1071.64 924.097 1071.04 921.849 L 1072.34 921.626 C 1072.66 922.075 1072.94 922.564 1073.31 922.973 C 1073.77 923.475 1074.32 923.887 1074.83 924.345 C 1075.12 928.15 1075.17 931.488 1074.67 935.276 C 1073.22 933.344 1073.4 931.107 1073.12 928.739 z"/>
<path transform="translate(0,0)" fill="rgb(0,0,0)" d="M 1074.83 924.345 L 1075.88 924.005 L 1074.83 924.345 z"/>
<path transform="translate(0,0)" fill="rgb(0,0,0)" d="M 1075.07 959.908 C 1071.21 948.16 1075.8 940.481 1081.09 929.982 C 1082.05 928.073 1083.05 926.181 1084.08 924.31 C 1085.42 927.638 1081.69 935.132 1080.29 938.41 C 1076.77 946.62 1074.76 950.92 1075.07 959.908 z"/>
<path transform="translate(0,0)" fill="rgb(0,0,0)" d="M 1356.06 925.758 L 1356.39 925.167 L 1356.06 925.758 z"/>
<path transform="translate(0,0)" fill="rgb(0,0,0)" d="M 1078.01 929.995 L 1078.67 929.003 L 1078.01 929.995 z"/>
<path transform="translate(0,0)" fill="rgb(0,0,0)" d="M 1096.65 934.642 L 1096.34 933.684 L 1096.65 934.642 z"/>
<path transform="translate(0,0)" fill="rgb(0,0,0)" d="M 631.984 934.648 L 633.913 936.075 L 631.984 934.648 z"/>
<path transform="translate(0,0)" fill="rgb(0,0,0)" d="M 633.913 936.075 L 634.873 936.899 L 633.913 936.075 z"/>
<path transform="translate(0,0)" fill="rgb(0,0,0)" d="M 1096.65 934.642 C 1100.81 943.709 1102.7 954.548 1105.33 964.229 C 1108.53 976.437 1112.48 988.435 1117.17 1000.15 C 1108.51 991.665 1097.04 947.726 1096.65 934.642 z"/>
<path transform="translate(0,0)" fill="rgb(0,0,0)" d="M 1090.24 1002.97 C 1084.58 997.109 1084.51 975.364 1084.7 967.494 C 1084.97 956.84 1086.84 946.329 1087.42 935.705 C 1091.68 942.744 1087.03 965.577 1087.39 975.083 C 1087.75 984.51 1089.63 993.62 1090.24 1002.97 z"/>
<path transform="translate(0,0)" fill="rgb(0,0,0)" d="M 1077.6 978.065 C 1074.27 966.585 1079.88 954.387 1080.21 942.492 C 1084.18 950.126 1078.92 969.488 1077.6 978.065 z"/>
<path transform="translate(0,0)" fill="rgb(0,0,0)" d="M 1097.06 987.313 C 1096.72 987.047 1096.33 986.839 1096.05 986.514 C 1089.5 978.871 1089.75 961.857 1089.55 952.617 L 1090.94 953.168 C 1091.02 955.276 1091.15 957.386 1091.2 959.493 C 1091.43 968.892 1095.01 978.134 1097.06 987.313 z"/>
<path transform="translate(0,0)" fill="rgb(0,0,0)" d="M 1075.07 959.908 L 1075.77 960.995 L 1075.07 959.908 z"/>
<path transform="translate(0,0)" fill="rgb(0,0,0)" d="M 654.968 970.982 C 652.832 971.287 650.556 971.515 648.459 970.833 C 645.235 969.784 643.406 966.171 641.689 963.506 C 644.375 964.084 647.468 964.524 650.031 965.501 C 653.103 966.674 653.58 968.12 654.968 970.982 z"/>
<path transform="translate(0,0)" fill="rgb(0,0,0)" d="M 1090.24 1002.97 C 1093.67 996.962 1090.52 983.484 1089.77 976.751 L 1092.02 983.376 C 1095.57 994.108 1111.12 1015.47 1112.3 1023.45 C 1112.67 1025.99 1111.9 1028.37 1110.72 1030.59 C 1104.27 1042.79 1074.11 1051.16 1060.99 1054.73 C 1056.8 1055.87 1052.19 1056.98 1047.84 1056.79 C 1034.21 1056.19 1007.36 1047.02 995.629 1039.76 C 994.359 1038.97 993.268 1038.08 992.126 1037.12 C 993.798 1029.34 1002.53 1015.53 1008.39 1010.36 C 1007.3 1012.97 1006.15 1015.38 1004.77 1017.85 C 1002.85 1021.3 1000.23 1027.09 1000.45 1031.05 L 1000.75 1029.57 L 1000.82 1031.04 C 1002.35 1029.11 1003.81 1027.36 1004.98 1025.17 C 1008.55 1022.36 1011.34 1017.88 1014.14 1014.28 C 1012.69 1018.15 1011.4 1022.43 1009.32 1026 C 1009.06 1026.45 1008.79 1026.89 1008.52 1027.33 L 1009.69 1027.63 L 1014.12 1020.23 L 1016.09 1021.14 C 1017.25 1023.52 1017.5 1027.03 1017.98 1029.67 C 1019.29 1030.91 1019.4 1031.29 1021.23 1031.71 C 1019.56 1028.55 1016.9 1023.98 1017.71 1020.37 L 1019.28 1019.78 C 1022.05 1021.68 1020.63 1024.32 1021.84 1027.06 C 1023.5 1030.79 1036.58 1038.38 1040.27 1041.16 C 1037.31 1040.68 1034.63 1040.38 1031.63 1040.47 C 1033.36 1043.18 1037.08 1044.81 1039.78 1046.59 L 1035.11 1046.04 L 1034.27 1047.14 L 1035.37 1049.47 C 1037.7 1051.36 1038.92 1052.09 1041.96 1052.71 C 1058.45 1048.35 1074.35 1018.88 1083.29 1005.11 L 1082.49 1011.35 C 1084.36 1010.1 1085.45 1006.17 1087.08 1004.24 C 1088.87 1005.87 1087.9 1005.57 1089.73 1005.68 L 1090.24 1002.97 z M 1089.5 1021.07 C 1086.12 1024.27 1083.54 1027.57 1081.53 1031.79 C 1086 1028.87 1087.76 1026.05 1089.5 1021.07 L 1089.99 1020.01 L 1089.5 1021.07 z M 1073.99 1024.99 L 1073.4 1025.67 C 1070.07 1028.72 1067.78 1031.96 1065.56 1035.88 C 1069.86 1033.18 1071.69 1030.4 1073.4 1025.67 L 1073.99 1024.99 L 1074.76 1024.01 L 1073.99 1024.99 z M 1024.01 1033.26 L 1025 1034.01 L 1026.37 1035.37 L 1027.23 1036.24 L 1027.93 1036.99 L 1027.23 1036.24 L 1026.37 1035.37 L 1025 1034.01 L 1024.01 1033.26 z M 1093.53 1037.09 L 1092.66 1039.45 L 1092.15 1039.99 L 1092.66 1039.45 L 1093.53 1037.09 C 1098.11 1032.36 1106.11 1024.55 1106.35 1017.61 C 1106.45 1014.64 1106.06 1014.2 1104.18 1012.14 C 1102.11 1011.57 1100.67 1011.34 1099.03 1009.9 C 1097.38 1008.44 1098.85 1009.28 1096.47 1008.29 L 1093.21 1016.21 C 1091.46 1021.45 1088.16 1026.33 1087.51 1031.82 L 1088.57 1032.68 C 1092.67 1030.83 1095.29 1027.07 1098.19 1023.74 C 1096.43 1028.16 1094.91 1032.54 1093.53 1037.09 z M 1075.44 1022.5 L 1076.48 1022.5 L 1075.44 1022.5 z M 1013.94 1028.33 L 1014.18 1030.06 L 1015.3 1029.67 L 1015.09 1027.76 L 1013.94 1028.33 z"/>
<path transform="translate(0,0)" fill="rgb(0,0,0)" d="M 1118.63 984.302 C 1121.37 989.325 1124.38 995.28 1125.54 1000.91 C 1121.57 996.237 1119.3 990.354 1118.63 984.302 z"/>
<path transform="translate(0,0)" fill="rgb(0,0,0)" d="M 1125.54 1000.91 L 1126.19 1002.46 L 1125.54 1000.91 z"/>
<path transform="translate(0,0)" fill="rgb(0,0,0)" d="M 1131.52 1001.92 L 1132.2 1003.45 L 1131.52 1001.92 z"/>
<path transform="translate(0,0)" fill="rgb(0,0,0)" d="M 1126.19 1002.46 L 1127.34 1004.64 L 1126.19 1002.46 z"/>
<path transform="translate(0,0)" fill="rgb(0,0,0)" d="M 1132.2 1003.45 L 1132.87 1004.87 L 1132.2 1003.45 z"/>
<path transform="translate(0,0)" fill="rgb(0,0,0)" d="M 1083.29 1005.11 L 1083.81 1004.12 L 1083.29 1005.11 z"/>
<path transform="translate(0,0)" fill="rgb(0,0,0)" d="M 1127.34 1004.64 L 1127.99 1005.88 L 1127.34 1004.64 z"/>
<path transform="translate(0,0)" fill="rgb(0,0,0)" d="M 1009.23 1009.87 L 1010 1008.24 L 1009.23 1009.87 z"/>
<path transform="translate(0,0)" fill="rgb(0,0,0)" d="M 1008.39 1010.36 L 1009.23 1009.87 L 1008.39 1010.36 z"/>
<path transform="translate(0,0)" fill="rgb(0,0,0)" d="M 1040.99 1020.07 C 1035.95 1020.72 1030.59 1021.8 1025.56 1020.64 L 1025.36 1019.44 L 1028.79 1018.4 C 1034.47 1017.93 1039.45 1017.76 1045.12 1018.6 L 1045.32 1019.57 L 1040.99 1020.07 z"/>
<path transform="translate(0,0)" fill="rgb(0,0,0)" d="M 1006.19 1019.46 L 1006.77 1019 L 1006.19 1019.46 z"/>
<path transform="translate(0,0)" fill="rgb(0,0,0)" d="M 1004.98 1025.17 L 1003.51 1024.2 L 1003.3 1022.61 L 1006.19 1019.46 C 1005.86 1021.33 1005.69 1023.41 1004.98 1025.17 z"/>
<path transform="translate(0,0)" fill="rgb(0,0,0)" d="M 1057.42 1022.33 L 1057.87 1021 L 1057.42 1022.33 z"/>
<path transform="translate(0,0)" fill="rgb(0,0,0)" d="M 1056.01 1022.77 L 1057.42 1022.33 L 1056.01 1022.77 z"/>
<path transform="translate(0,0)" fill="rgb(0,0,0)" d="M 1050.73 1027.32 C 1049.37 1027.91 1048 1028.51 1046.6 1029.01 C 1043.99 1029.96 1040.64 1030.71 1038.01 1029.49 L 1044.24 1026.71 C 1043.84 1026.04 1037.15 1026.01 1035.55 1025.47 L 1038.56 1022.65 C 1040.45 1022.69 1041.7 1022.75 1043.49 1023.46 C 1048.14 1025.33 1053.88 1025.59 1058.83 1027.03 C 1056.53 1028.37 1053.37 1027.51 1050.73 1027.32 z"/>
<path transform="translate(0,0)" fill="rgb(0,0,0)" d="M 1064.78 1027.36 C 1063.16 1026.38 1063.6 1027.06 1063.2 1025.49 L 1067.6 1022.71 L 1068.43 1023.46 C 1068 1025.79 1066.64 1026.06 1064.78 1027.36 z"/>
<path transform="translate(0,0)" fill="rgb(0,0,0)" d="M 1024.49 1026.52 L 1024.07 1025.01 L 1024.49 1026.52 z"/>
<path transform="translate(0,0)" fill="rgb(0,0,0)" d="M 1024.49 1026.52 L 1025.99 1026.95 L 1024.49 1026.52 z"/>
<path transform="translate(0,0)" fill="rgb(0,0,0)" d="M 1038.3 1031.06 C 1032.82 1031.32 1030.54 1029.12 1026.43 1025.88 C 1030.77 1026.85 1034.41 1028.99 1038.3 1031.06 z"/>
<path transform="translate(0,0)" fill="rgb(0,0,0)" d="M 1045.49 1047.5 L 1044.26 1047.5 L 1045.49 1047.5 z"/>
<path transform="translate(0,0)" fill="rgb(0,0,0)" d="M 1001.57 1114.18 C 1004.2 1112.63 1006.78 1111.11 1009.56 1109.84 C 1016.88 1111.23 1024.63 1114.27 1031.92 1114.96 C 1040.31 1115.75 1052.42 1109.13 1059.77 1113.54 C 1059.15 1115.69 1058.41 1116.74 1056.92 1118.41 C 1049.85 1123.97 1043.38 1129.4 1033.69 1128.21 C 1024.63 1127.1 1011.03 1111.97 1008.6 1112.22 C 1006.48 1112.43 1003.67 1113.59 1001.57 1114.18 z"/>
<path transform="translate(0,0)" fill="rgb(0,0,0)" d="M 1065.99 1113.5 C 1064.56 1114.21 1065.44 1114 1063.27 1113.51 C 1063.99 1113.3 1065.23 1113.48 1065.99 1113.5 z"/>
<path transform="translate(0,0)" fill="rgb(0,0,0)" d="M 1001 1114.76 L 1001.57 1114.18 L 1001 1114.76 z"/>
<path transform="translate(0,0)" fill="rgb(0,0,0)" d="M 1072 1115 C 1071.32 1114.85 1069.9 1114.66 1069.31 1114.33 L 1072 1115 z"/>
<path transform="translate(0,0)" fill="rgb(0,0,0)" d="M 1072 1115 L 1075.97 1116.43 L 1072 1115 z"/>
<path transform="translate(0,0)" fill="rgb(0,0,0)" d="M 1075.97 1116.43 L 1077.43 1117.24 L 1075.97 1116.43 z"/>
<path transform="translate(0,0)" fill="rgb(0,0,0)" d="M 1077.43 1117.24 L 1079.65 1118.32 L 1077.43 1117.24 z"/>
<path transform="translate(0,0)" fill="rgb(0,0,0)" d="M 1079.65 1118.32 L 1080.8 1118.94 L 1079.65 1118.32 z"/>
<path transform="translate(0,0)" fill="rgb(0,0,0)" d="M 1010.46 1126.55 L 1010.07 1126.05 L 1010.46 1126.55 z"/>
<path transform="translate(0,0)" fill="rgb(0,0,0)" d="M 1015.47 1123.87 C 1018.85 1127.45 1021.83 1134.98 1026.03 1136.7 C 1026.24 1137.58 1026.45 1138.46 1026.67 1139.34 C 1026.41 1137.8 1025.88 1135.78 1026.01 1134.24 C 1026.23 1131.74 1026.87 1131.25 1028.65 1129.8 L 1029.85 1130.58 C 1030.4 1133.9 1030.86 1137.21 1031.26 1140.54 L 1032.3 1139.61 C 1032.57 1136.01 1032.65 1132.43 1035.47 1129.95 L 1037.37 1130.49 C 1037.03 1132.68 1037.41 1131.84 1036.02 1133.75 C 1035.68 1134.22 1035.32 1134.66 1034.96 1135.12 C 1036.23 1135.88 1035.64 1135.65 1037.18 1136.04 C 1037.56 1136.13 1037.94 1136.22 1038.32 1136.31 C 1038.01 1138.7 1036.66 1140.17 1035.26 1142.04 L 1034.58 1142.93 L 1034.8 1143.62 C 1044.69 1144.22 1047.04 1132.49 1055.2 1130.88 C 1055.7 1133.28 1046.23 1140.53 1044.83 1143.69 C 1052.07 1139.56 1056.83 1132.63 1064.56 1129.13 C 1064.86 1128.99 1065.16 1128.87 1065.46 1128.74 C 1060.99 1133.05 1056.13 1136.65 1052.19 1141.5 C 1058.29 1140.51 1066.58 1133.41 1072.47 1130.67 C 1072.28 1130.88 1072.09 1131.1 1071.89 1131.31 C 1067.86 1135.62 1062.68 1138.11 1058.83 1142.65 C 1064.32 1142.4 1072.63 1134.72 1078 1132.34 C 1074.72 1135.32 1070.4 1137.83 1067.99 1141.54 C 1073.46 1139.1 1078.9 1136.59 1084.3 1134.01 C 1080.18 1137.63 1076.22 1140.49 1074.16 1145.73 C 1079.34 1141.87 1084.11 1138.02 1088.67 1133.43 L 1081.55 1145.23 C 1085.28 1142.51 1088.96 1139.49 1092.93 1137.14 C 1091.61 1139.08 1089.1 1141.58 1089.38 1143.89 C 1094.44 1141.3 1098.58 1137.06 1103.44 1134.03 C 1099.67 1138.19 1096 1142.02 1093.66 1147.21 C 1095.46 1146.46 1096.06 1145.8 1097.48 1144.5 C 1099.26 1142.89 1100.3 1141.95 1102.73 1141.5 L 1103.63 1142.64 C 1103.08 1145.06 1102.45 1147.26 1101.58 1149.59 L 1102.97 1149.87 C 1104.31 1148.6 1105.11 1147.32 1106.05 1145.74 L 1106.86 1146.45 L 1105.56 1149.58 C 1107.18 1150.87 1108.16 1150.35 1110.17 1150.1 C 1112.04 1149.88 1113.83 1149.46 1115.67 1149.08 C 1119.06 1148.38 1121.92 1147.62 1125.05 1149.59 C 1126.52 1150.52 1127.01 1151.72 1127.46 1153.38 C 1128.15 1155.91 1127.73 1161.79 1126.03 1163.75 C 1124.79 1165.18 1123.8 1165.61 1122.11 1166.33 C 1117.74 1164.4 1116.82 1158.28 1112.21 1156.91 C 1103.81 1154.41 1071.38 1164.48 1060.55 1167.02 C 1055.86 1167.7 1051.17 1168.47 1046.45 1168.91 C 1049.89 1173.87 1053.52 1178.7 1056.05 1184.2 L 1055.35 1185.11 C 1049.46 1182.52 1048.03 1168.81 1041.93 1169.61 C 1041.74 1175.59 1048.45 1181.32 1047.56 1187.06 L 1046.28 1187.44 C 1043.71 1185.64 1042 1184.36 1041.03 1181.2 C 1042.68 1181.47 1041.88 1181.6 1043.4 1180.68 C 1043.2 1177.53 1042.38 1174.4 1040.4 1171.87 C 1038.66 1169.65 1038.3 1169.7 1035.65 1169.32 L 1034.46 1170.33 C 1036.54 1173.29 1038.26 1176.14 1039.79 1179.43 L 1040.24 1180.4 C 1035.63 1178.03 1035.4 1173.02 1031.72 1170.31 C 1030.16 1169.16 999.964 1163.71 994.728 1162.38 C 990.371 1168.74 984.985 1173.36 978.485 1177.4 C 981.827 1171.41 989.18 1167.8 991.324 1161.69 C 989.47 1160.84 988.129 1160.46 986.098 1160.29 C 983.479 1163.52 980.661 1166.5 977.785 1169.5 L 975.84 1168.88 L 976.732 1170.4 L 974.998 1170.14 C 976.147 1166.3 981.453 1161.88 984.231 1158.83 C 967.516 1154.88 957.287 1148.86 939.205 1148.76 C 936.04 1148.75 932.261 1148.32 929.251 1149.24 C 925.926 1150.25 926.264 1154.79 921.661 1155.99 C 919.73 1155.57 918.052 1155.3 916.459 1154.02 C 914.453 1152.41 913.582 1150.06 913.643 1147.53 C 913.726 1144.09 915.538 1140.61 918.296 1138.54 C 919.748 1137.45 921.806 1136.53 923.628 1136.52 C 928.002 1136.48 931.958 1140.21 936.965 1140.32 C 947.245 1140.55 956.69 1137.26 967.082 1139.09 C 967.516 1139.16 967.949 1139.25 968.382 1139.33 C 969.961 1138.23 969.643 1138.21 970.099 1136.48 C 971.764 1137.35 971.147 1136.83 972.445 1138.41 C 972.766 1138.8 973.068 1139.21 973.38 1139.6 C 974.276 1137.09 970.621 1132.87 969.379 1130.18 C 971.821 1130.03 977.462 1136.14 979.567 1137.97 L 980.95 1137.73 L 980.186 1132.91 C 981.883 1132.8 985.441 1137.75 987.745 1138.82 C 987.081 1136.64 986.578 1134.8 986.408 1132.5 C 988.666 1135.11 990.811 1137.78 993.51 1139.95 L 995.159 1139.48 C 994.619 1135.67 990.491 1132.67 988.577 1129.31 C 993.301 1130.92 995.39 1136.45 999.449 1139.23 C 1001.04 1140.32 1001.16 1140.34 1003.07 1139.86 L 1003.43 1138.52 L 991.824 1127.16 C 997.778 1130.51 1003.17 1134.82 1008.77 1138.73 L 1010.47 1138.68 L 1011.05 1139.58 C 1008.26 1134.04 1003.7 1129.71 999.691 1125 C 1012.22 1132.51 1012.17 1141.27 1026.42 1143.53 C 1022.3 1137.2 1018.89 1130.6 1015.47 1123.87 z M 982.28 1138.5 L 983.49 1138.5 L 982.28 1138.5 z M 1029.24 1142.5 L 1030.3 1142.5 L 1029.24 1142.5 z M 1099.93 1143.48 L 1097.81 1147.56 C 1098.55 1149.92 1098.42 1149.47 1100.2 1150.76 C 1100.83 1148.2 1102.11 1146.2 1100.45 1143.91 C 1100.32 1143.73 1100.11 1143.62 1099.93 1143.48 z"/>
<path transform="translate(0,0)" fill="rgb(0,0,0)" d="M 1010.46 1126.55 C 1015.68 1130.57 1020.07 1135.57 1022.36 1141.83 C 1017.49 1138.5 1012.5 1132.06 1010.46 1126.55 z"/>
<path transform="translate(0,0)" fill="rgb(0,0,0)" d="M 1079.49 1127.5 L 1077.76 1127.5 L 1079.49 1127.5 z"/>
<path transform="translate(0,0)" fill="rgb(0,0,0)" d="M 963.959 1128.68 L 964.995 1128.07 L 963.959 1128.68 z"/>
<path transform="translate(0,0)" fill="rgb(0,0,0)" d="M 1065.46 1128.74 L 1065.99 1128.19 L 1065.46 1128.74 z"/>
<path transform="translate(0,0)" fill="rgb(0,0,0)" d="M 1074.52 1128.61 L 1075.99 1128.18 L 1074.52 1128.61 z"/>
<path transform="translate(0,0)" fill="rgb(0,0,0)" d="M 949.963 1133.32 C 953.814 1130.24 959.171 1129.2 963.959 1128.68 C 959.584 1131.48 955.136 1132.88 949.963 1133.32 z"/>
<path transform="translate(0,0)" fill="rgb(0,0,0)" d="M 1025.49 1129.5 L 1024.51 1129.5 L 1025.49 1129.5 z"/>
<path transform="translate(0,0)" fill="rgb(0,0,0)" d="M 1073.08 1130.08 L 1074.52 1128.61 L 1073.08 1130.08 z"/>
<path transform="translate(0,0)" fill="rgb(0,0,0)" d="M 1072.47 1130.67 L 1073.08 1130.08 L 1072.47 1130.67 z"/>
<path transform="translate(0,0)" fill="rgb(0,0,0)" d="M 1039.47 1141.21 C 1039.02 1140.77 1038.85 1140.12 1038.58 1139.55 C 1040.86 1135.83 1043.96 1133.48 1047.27 1130.74 L 1048.16 1131.34 C 1046.91 1134.99 1042.24 1138.47 1039.47 1141.21 z"/>
<path transform="translate(0,0)" fill="rgb(0,0,0)" d="M 1078 1132.34 L 1079.14 1131.51 L 1078 1132.34 z"/>
<path transform="translate(0,0)" fill="rgb(0,0,0)" d="M 948.825 1133.71 L 949.963 1133.32 L 948.825 1133.71 z"/>
<path transform="translate(0,0)" fill="rgb(0,0,0)" d="M 968.462 1135.5 L 967.056 1135.5 L 968.462 1135.5 z"/>
<path transform="translate(0,0)" fill="rgb(0,0,0)" d="M 1092.93 1137.14 L 1093.55 1136.59 L 1092.93 1137.14 z"/>
<path transform="translate(0,0)" fill="rgb(0,0,0)" d="M 972.007 1157.5 L 971.211 1157.5 L 972.007 1157.5 z"/>
<path transform="translate(0,0)" fill="rgb(0,0,0)" d="M 970.382 1160.53 L 970.766 1159.01 L 970.382 1160.53 z"/>
<path transform="translate(0,0)" fill="rgb(0,0,0)" d="M 976.37 1163.53 C 974.862 1165.17 973.278 1167.12 971.527 1168.48 C 969.297 1170.21 967.362 1170.02 964.729 1169.88 L 963.603 1168.24 C 964.359 1165.43 966.425 1164.02 968.527 1162.2 C 968.496 1163.4 968.603 1164.56 968.705 1165.76 C 971.972 1165.42 974.8 1162.64 977.187 1160.53 L 978.487 1159.36 C 978.329 1161.83 978.145 1161.76 976.37 1163.53 z"/>
<path transform="translate(0,0)" fill="rgb(0,0,0)" d="M 968.527 1162.2 L 970.382 1160.53 L 968.527 1162.2 z"/>
<path transform="translate(0,0)" fill="rgb(0,0,0)" d="M 1076.6 1166.55 L 1076.2 1166.01 L 1076.6 1166.55 z"/>
<path transform="translate(0,0)" fill="rgb(0,0,0)" d="M 984.706 1179.53 L 983.911 1179.13 C 985.717 1174.89 993.542 1169.86 997.268 1166.76 C 997.724 1167.06 997.931 1167.63 998.223 1168.09 C 995.095 1172.76 989.182 1176.18 984.706 1179.53 z"/>
<path transform="translate(0,0)" fill="rgb(0,0,0)" d="M 990.458 1182.96 L 989.683 1182.24 C 994.393 1175.89 999.312 1171.26 1005.85 1166.91 L 1006.35 1167.39 L 1006.36 1168.7 C 1001.26 1173.8 996.09 1178.46 990.458 1182.96 z"/>
<path transform="translate(0,0)" fill="rgb(0,0,0)" d="M 1076.6 1166.55 C 1080.62 1168.77 1083.88 1173.13 1088.14 1174.38 C 1085.07 1174.43 1082.39 1174.34 1080.09 1171.98 C 1078.55 1170.4 1077.52 1168.53 1076.6 1166.55 z"/>
<path transform="translate(0,0)" fill="rgb(0,0,0)" d="M 1060.55 1167.02 C 1065.55 1172.09 1070.19 1177.44 1074.85 1182.82 C 1073.51 1182.01 1072.67 1181.76 1071.09 1181.43 C 1070.55 1181.31 1070 1181.22 1069.45 1181.12 C 1064.46 1176.93 1062.83 1173.03 1060.55 1167.02 z"/>
<path transform="translate(0,0)" fill="rgb(0,0,0)" d="M 1079.35 1179.08 C 1073.96 1177.23 1071.6 1172.22 1068.9 1167.6 C 1073.66 1170.28 1077.48 1173.89 1079.35 1179.08 z"/>
<path transform="translate(0,0)" fill="rgb(0,0,0)" d="M 1010.62 1169.65 L 1010.93 1169.01 L 1010.62 1169.65 z"/>
<path transform="translate(0,0)" fill="rgb(0,0,0)" d="M 1018.41 1169.51 L 1018.84 1169.01 L 1018.41 1169.51 z"/>
<path transform="translate(0,0)" fill="rgb(0,0,0)" d="M 1025.52 1180.14 L 1024.55 1184.93 C 1026.3 1186.55 1026.4 1186.36 1028.81 1186.41 C 1031.2 1185.27 1032.02 1183.21 1033.27 1181.01 L 1033.88 1179.92 L 1033.68 1182.8 L 1034.69 1183.95 C 1037.2 1184.16 1039.53 1184.14 1041.73 1185.51 C 1041.42 1187.89 1041.26 1187.84 1039.46 1189.46 C 1028.13 1192.05 1008.62 1187.62 998.227 1183.32 C 1000.41 1178.61 1006.6 1173.08 1010.62 1169.65 C 1010.44 1170.2 1010.27 1170.76 1010.08 1171.32 C 1008.81 1175.06 1005.81 1178.38 1003.42 1181.5 L 1004.09 1182.75 C 1006.5 1183.27 1007.04 1183.39 1009.19 1181.75 C 1013.34 1178.59 1014.4 1172.31 1018.41 1169.51 C 1018.21 1170.11 1018.03 1170.7 1017.82 1171.3 C 1016.36 1175.55 1012.82 1179.45 1012.39 1183.93 L 1013.25 1184.72 C 1018 1183.4 1019.52 1180.23 1021.98 1176.32 C 1022.9 1174.87 1022.46 1175.48 1023.6 1174.15 C 1022.25 1177.81 1020.07 1181.7 1020.17 1185.62 L 1020.84 1185.69 C 1022.77 1183.88 1024.12 1182.43 1025.52 1180.14 z"/>
<path transform="translate(0,0)" fill="rgb(0,0,0)" d="M 1062.93 1182.39 L 1061.6 1182.76 C 1058.02 1179.21 1055.45 1173.85 1052.81 1169.55 C 1058.04 1172.54 1061.14 1176.67 1062.93 1182.39 z"/>
<path transform="translate(0,0)" fill="rgb(0,0,0)" d="M 1024.17 1172.52 L 1024.97 1171.01 L 1024.17 1172.52 z"/>
<path transform="translate(0,0)" fill="rgb(0,0,0)" d="M 1023.6 1174.15 L 1024.17 1172.52 L 1023.6 1174.15 z"/>
<path transform="translate(0,0)" fill="rgb(0,0,0)" d="M 978.07 1177.88 L 978.485 1177.4 L 978.07 1177.88 z"/>
<path transform="translate(0,0)" fill="rgb(0,0,0)" d="M 1025.52 1180.14 L 1025.93 1179.01 L 1025.52 1180.14 z"/>
<path transform="translate(0,0)" fill="rgb(0,0,0)" d="M 1040.24 1180.4 L 1041.03 1181.2 L 1040.24 1180.4 z"/>
<path transform="translate(0,0)" fill="rgb(0,0,0)" d="M 1074.85 1182.82 L 1075.07 1184.44 L 1074.85 1182.82 z"/>
<path transform="translate(0,0)" fill="rgb(0,0,0)" d="M 1075.07 1184.44 L 1076.22 1185.33 L 1075.07 1184.44 z"/>
<path transform="translate(0,0)" fill="rgb(0,0,0)" d="M 980.49 1185.5 L 979.293 1185.5 L 980.49 1185.5 z"/>
<path transform="translate(0,0)" fill="rgb(0,0,0)" d="M 1076.22 1185.33 L 1076.99 1186.75 L 1076.22 1185.33 z"/>
<path transform="translate(0,0)" fill="rgb(0,0,0)" d="M 982.49 1186.5 L 981.28 1186.5 L 982.49 1186.5 z"/>
<path transform="translate(0,0)" fill="rgb(0,0,0)" d="M 993.266 1199.66 C 991.223 1200.14 989.739 1200.4 988.108 1201.78 C 985.943 1201.15 985.177 1201 983.476 1199.43 L 984.761 1198.61 C 988.038 1198.46 990.117 1198.74 993.266 1199.66 z"/>
<path transform="translate(0,0)" fill="rgb(0,0,0)" d="M 993.266 1199.66 C 1010.88 1201.89 1041.73 1201.07 1056.39 1207.1 C 1042.85 1207.16 1004.66 1205.49 993.266 1199.66 z"/>
<path transform="translate(0,0)" fill="rgb(0,0,0)" d="M 988.108 1201.78 L 988.667 1201.91 L 988.108 1201.78 z"/>
<path transform="translate(0,0)" fill="rgb(0,0,0)" d="M 988.667 1201.91 C 995.123 1202.07 1003.57 1203.46 1009.43 1206.17 C 1002.22 1205.95 995.048 1205.56 988.667 1201.91 z"/>
<path transform="translate(0,0)" fill="rgb(0,0,0)" d="M 1053.93 1210.51 C 1053.23 1210.8 1052.23 1211.24 1051.46 1211.44 C 1037.81 1214.91 996.901 1211.69 984.555 1205.16 L 1053.93 1210.51 z"/>
<path transform="translate(0,0)" fill="rgb(0,0,0)" d="M 963.96 1205.01 C 1003.97 1218.89 1041.68 1220.29 1082.44 1208.7 C 1082.16 1208.99 1081.9 1209.29 1081.61 1209.55 C 1065.14 1224.22 1046.12 1235.22 1023.52 1235.16 C 1004.99 1235.11 988.987 1229.06 975.929 1215.93 L 963.96 1205.01 z"/>
<path transform="translate(0,0)" fill="rgb(0,0,0)" d="M 1024.24 1208.22 C 1020.63 1208.32 1017.48 1208.19 1013.92 1207.53 L 1014.14 1206.77 L 1019.25 1206.5 C 1022.75 1205.87 1025.56 1205.69 1029.1 1206.03 L 1029.05 1206.88 L 1024.24 1208.22 z"/>
<path transform="translate(0,0)" fill="rgb(0,0,0)" d="M 1082.44 1208.7 L 1082.99 1208.21 L 1082.44 1208.7 z"/>
<path transform="translate(0,0)" fill="rgb(0,0,0)" d="M 839.041 1401.5 L 838.376 1401.5 L 839.041 1401.5 z"/>
<path transform="translate(0,0)" fill="rgb(0,0,0)" d="M 840.27 1404.5 L 839.232 1403.91 L 840.27 1404.5 z"/>
<path transform="translate(0,0)" fill="rgb(0,0,0)" d="M 1025.97 1826.4 C 1024.87 1826.58 1023.77 1826.75 1022.67 1826.84 C 1019.83 1827.09 1017.69 1826.41 1015.59 1824.44 C 1011.11 1820.23 1010.14 1813.36 1010.26 1807.52 C 1010.42 1799.65 1012.27 1790.55 1018.24 1785.04 C 1020.31 1784.87 1022.77 1784.52 1024.82 1784.98 C 1027.06 1785.48 1029.03 1787.24 1030.36 1789.05 C 1034.45 1794.61 1034.85 1802.82 1033.94 1809.41 C 1033 1816.22 1031.66 1822.07 1025.97 1826.4 z M 1022.43 1789.39 C 1016.3 1799.35 1019.13 1813.11 1020.97 1824.13 C 1021.95 1815.13 1021.97 1805.54 1023.97 1796.73 C 1026.02 1798.97 1025.52 1805.72 1025.42 1808.71 C 1024.45 1814.48 1023.61 1818.96 1020.02 1823.71 C 1021.68 1824.68 1023.43 1824.68 1025.27 1823.94 C 1027.91 1822.86 1028.75 1820.61 1029.58 1818.03 C 1031.63 1811.73 1032.81 1798.02 1028.53 1792.34 C 1026.68 1789.89 1025.3 1790.01 1022.43 1789.39 z"/>
<path transform="translate(0,0)" fill="rgb(0,0,0)" d="M 969.309 2026.77 C 962.594 2003.81 957.443 1955.15 963.288 1931.92 C 964.807 1925.89 967.123 1921.89 971.891 1917.88 C 979.649 1911.36 989.69 1906.3 998.447 1901.19 C 1013.48 1892.42 1028.71 1883.79 1043.33 1874.35 C 1065.9 1859.78 1086.56 1841.51 1109.64 1827.89 C 1094.38 1852.34 1047.19 1898.84 1024.43 1918.74 C 1010.35 1931.05 994.14 1942.57 981.749 1956.55 C 979.96 1958.57 977.572 1961.04 976.353 1963.41 C 968.869 1977.98 971.224 2017.92 972.194 2035.25 C 971.056 2032.56 970.247 2029.55 969.309 2026.77 z"/>
<path transform="translate(0,0)" fill="rgb(0,0,0)" d="M 1303.11 1830.5 L 1302.42 1830.5 L 1303.11 1830.5 z"/>
<path transform="translate(0,0)" fill="rgb(0,0,0)" d="M 1302.13 1832.5 L 1301.39 1832.5 L 1302.13 1832.5 z"/>
<path transform="translate(0,0)" fill="rgb(0,0,0)" d="M 1300.07 1835.08 L 1300.82 1834.01 L 1300.07 1835.08 z"/>
<path transform="translate(0,0)" fill="rgb(0,0,0)" d="M 1299.45 1836.27 L 1300.07 1835.08 L 1299.45 1836.27 z"/>
<path transform="translate(0,0)" fill="rgb(0,0,0)" d="M 1142.53 2048 C 1163.26 2020.18 1187.33 1995.01 1207.96 1967.05 C 1229.54 1938.04 1250.62 1908.67 1271.19 1878.94 C 1280.83 1864.94 1289.28 1849.81 1299.45 1836.27 C 1293.67 1853.97 1280.32 1872.49 1270.17 1888.03 C 1251.17 1917.13 1231.55 1946.98 1210.25 1974.43 C 1190.73 1999.6 1169.44 2023.19 1149.57 2048 L 1142.53 2048 z"/>
</svg>