<svg version="1.1" xmlns="http://www.w3.org/2000/svg" style="display: block;" viewBox="0 0 2048 2048" width="1024" height="1024">
<path transform="translate(0,0)" fill="rgb(255,255,255)" d="M 0 0 L 0 2048 L 2048 2048 L 2048 0 L 0 0 z"/>
<path transform="translate(0,0)" fill="rgb(0,0,0)" d="M 902.953 0 L 906.982 0 C 884.075 31.5147 864.983 64.9463 859.53 104.12 C 879.091 88.6047 900.654 75.472 924.154 66.771 C 979.228 46.38 1057.64 45.508 1115.57 52.2539 C 1218.11 64.1973 1326.27 103.577 1405.17 171.554 C 1429.81 192.78 1450.66 216.949 1470.75 242.411 C 1491.81 269.099 1511.51 296.622 1527.77 326.548 C 1539.54 348.195 1550.63 370.974 1559.66 393.902 C 1588.85 468.01 1615.67 578.314 1606.05 657.991 C 1603.46 679.368 1598.83 704.764 1589.48 724.339 C 1591.29 686.432 1588.1 651.257 1580.15 614.124 C 1576.33 668.233 1571.47 723.376 1549.15 773.64 C 1541.84 790.096 1530.98 804.547 1523.44 820.68 C 1535 870.293 1537.66 929.648 1509.77 974.342 C 1504.46 982.831 1498.17 990.664 1491.03 997.677 C 1477.94 1010.73 1462.57 1021.69 1448.05 1033.07 C 1437.98 1040.97 1427.98 1050.04 1417.02 1056.66 C 1411.23 1060.15 1405.24 1062.92 1398.6 1064.39 C 1387.44 1066.86 1376.53 1065.48 1365.55 1062.86 C 1347.72 1106.04 1325.85 1145.14 1296.88 1181.95 C 1286.13 1195.61 1273.68 1208.02 1263.23 1221.84 C 1261.61 1234.62 1260.27 1247.51 1258.22 1260.22 C 1278.95 1271.49 1293.46 1283.48 1303.23 1305.48 C 1305.94 1311.59 1308.08 1318.98 1312.8 1323.86 C 1320.22 1331.52 1330.7 1337.4 1339.06 1344.13 C 1358.83 1359.91 1377.76 1376.71 1395.78 1394.47 C 1414.11 1412.58 1432.08 1432.2 1448.73 1451.88 C 1456.09 1460.58 1470.71 1481.36 1478.57 1487.57 C 1487.97 1494.99 1521.84 1507.43 1534.81 1513.32 C 1555.38 1522.67 1575.45 1533.04 1596.07 1542.29 C 1638.21 1561.19 1681.15 1579.07 1722.74 1599.1 C 1736.87 1605.9 1750.42 1613.74 1764.31 1620.98 C 1797.8 1638.43 1831.05 1656.07 1863.71 1675.04 C 1879.35 1684.12 1899.72 1693.17 1912.01 1706.38 C 1955.14 1752.76 1996.92 1863.98 2015.27 1926.02 C 2027.05 1965.86 2037.57 2006.81 2043.3 2048 L 1804.67 2048 C 1811.49 2024.71 1817.06 2000.96 1823.56 1977.57 C 1835.29 1936.26 1847.77 1895.17 1860.98 1854.31 C 1869.93 1826.88 1879.55 1799.36 1889.79 1772.38 C 1895.55 1757.23 1902.17 1742.43 1907.53 1727.13 C 1895.19 1747.51 1885.12 1770.02 1875.69 1791.85 C 1840.25 1873.92 1817.18 1959.89 1802.7 2048 L 1543.51 2048 C 1535.7 2038 1525.44 2029.48 1516.25 2020.71 C 1503.3 2008.43 1490.75 1995.73 1478.61 1982.65 C 1429.33 1927.83 1382.27 1871.06 1337.52 1812.49 C 1343.64 1792.39 1346.27 1770.57 1349.83 1749.87 C 1359.24 1697.05 1366.34 1643.85 1371.1 1590.42 C 1376.16 1531.86 1385.02 1455.6 1357.49 1401.93 C 1354.71 1396.52 1351.91 1390.6 1348 1385.96 L 1346.62 1384.5 L 1346.18 1383.01 L 1346.62 1384.5 L 1348 1385.96 C 1354.98 1405.48 1362.65 1422.05 1365.24 1443.01 C 1373.07 1506.44 1363.7 1580.5 1354.93 1643.56 C 1350.95 1672.26 1347.41 1701.12 1342.64 1729.7 C 1337.77 1758.88 1331.61 1787.95 1326 1817 C 1314.64 1878.34 1301.54 1939.33 1286.71 1999.92 C 1282.96 2015.89 1279.98 2032.12 1275.92 2048 L 1255.5 2048 C 1259.92 2025.71 1271.96 1989.99 1273.15 1969.51 L 1273.75 1969.01 L 1273.15 1969.51 C 1265.51 1979.83 1258.9 1991.02 1251.61 2001.6 C 1240.77 2017.33 1229.17 2032.6 1217.87 2048 L 1201.25 2048 C 1210.54 2033.04 1221.99 2018.91 1232.39 2004.67 C 1243.3 1989.73 1253.47 1974.45 1264.04 1959.28 C 1270.4 1950.14 1278.55 1940.81 1283.34 1930.78 C 1290.39 1916.02 1295.8 1879.96 1299.6 1861.98 C 1313.37 1797.89 1324.95 1733.35 1334.3 1668.47 C 1344.13 1601.5 1352.85 1532.65 1349.13 1464.89 C 1344.97 1488.53 1341.34 1512.23 1336.57 1535.76 C 1311.03 1661.91 1271.97 1795.75 1217.78 1912.67 C 1196.21 1959.21 1171.12 2003.71 1145.32 2048 L 1103.14 2048 C 1101.19 2025.97 1086.13 1903.29 1075.39 1893.09 L 1073.95 1893.86 C 1071.91 1898.52 1081.08 1933.75 1082.48 1941.31 C 1089.05 1976.72 1094.49 2012.44 1100.19 2048 L 932.235 2048 C 921.783 2033.89 911.135 2019.83 901.587 2005.08 C 842.449 1913.73 801.58 1809.44 766.35 1706.93 C 756.827 1679.22 746.053 1652.75 738.644 1624.24 C 731.568 1597.01 724.808 1568.75 720.748 1540.88 C 718.282 1523.96 717.197 1506.93 715.447 1489.93 L 714.624 1490.65 C 712.225 1512.82 716.29 1554.44 717.842 1577.37 C 725.368 1682.24 738.132 1786.66 756.087 1890.25 C 758.257 1903.19 758.286 1919.36 763.231 1931.49 C 768.109 1943.47 782.401 1957.58 790.734 1968.18 C 811.532 1995.04 832.65 2021.65 854.087 2048 L 837.324 2048 C 811.74 2017.2 788.497 1985.86 766.604 1952.32 C 773.507 1985.19 781.18 2016.54 793.086 2048 L 774.879 2048 C 765.632 2020.02 759.882 1992.37 753.805 1963.6 C 743.45 1915.68 734.881 1867.39 728.116 1818.84 C 711.928 1708.25 697.386 1599.64 700.703 1487.52 C 697.078 1501.66 697.223 1517.51 696.633 1532 C 693.88 1599.62 698.002 1668.94 705.149 1736.21 C 707.188 1755.4 713.544 1786.88 713.534 1804.46 C 713.521 1829.09 639.045 1913.42 620.486 1931.98 C 569.786 1893.99 516.009 1859.16 468.955 1816.53 C 479.838 1780.91 497.263 1746.19 512.427 1712.15 C 556.818 1612.49 606.818 1512.2 671.932 1424.26 C 678.788 1415 685.934 1405.76 693.548 1397.11 C 699.364 1390.51 705.832 1384.48 711.319 1377.59 L 709.398 1378.02 C 690.523 1394.85 673.345 1413.77 656.684 1432.77 C 621.331 1472.74 590.086 1516.17 563.42 1562.4 C 553.755 1579.17 545.356 1596.68 536.699 1613.99 C 518.51 1650.36 501.374 1686.92 484.646 1723.97 C 470.533 1755.23 454.359 1786.05 442.136 1818.07 C 461.093 1849.5 575.369 1915.11 610.957 1944.08 C 580.138 1983.51 541.28 2015.57 503.549 2048 L 225.277 2048 C 208.687 1965.75 194.183 1881.87 172.069 1800.91 C 166.97 1782.24 162.656 1761.89 154.905 1744.16 C 160.506 1776.63 169.449 1808.88 175.892 1841.26 C 189.013 1909.94 200.854 1978.87 211.408 2048 L 10.7177 2048 C 13.0894 2035.06 15.6095 2022.15 18.2774 2009.26 C 36.0693 1925.44 64.3999 1844.21 102.594 1767.5 C 112.851 1747.07 124.062 1723.93 140.214 1707.56 C 148.963 1698.7 160.334 1691.86 170.697 1685.03 C 198.214 1666.87 227.094 1651.83 256.505 1637.02 C 314.019 1608.06 372.234 1583.28 431.939 1559.25 C 465.671 1545.49 499.226 1531.3 532.597 1516.69 C 547.114 1510.5 562.921 1505.69 576.67 1498.01 C 586.499 1492.52 605.695 1462.15 614.33 1451.81 C 626.715 1436.98 639.503 1422.21 653.185 1408.56 C 681.681 1380.11 714.857 1356.21 748.582 1334.43 L 748.843 1333.66 C 759.954 1301.2 773.854 1278.89 805.225 1263.43 C 805.232 1262.3 805.207 1261.17 805.191 1260.03 C 805.052 1250.45 803.319 1236.39 798.845 1227.8 C 791.937 1214.53 774.931 1200.39 764.978 1188.52 C 734.878 1152.63 712.182 1116.11 694.171 1072.96 C 688.526 1073.11 683.1 1072.68 677.578 1071.53 C 632.172 1062.07 568.994 1009.76 544.059 970.921 C 519.145 932.114 524.07 887.593 533.523 844.826 L 532.068 843.134 C 483.129 785.942 452.177 714.752 454.125 638.682 C 454.697 616.341 459.391 594.64 461.095 572.463 L 461.749 572.005 L 461.095 572.463 C 454.855 579.504 451.547 591.958 448.577 600.763 C 431.107 652.566 426.293 702.4 426.864 756.807 C 410.069 718.736 404.936 691.3 403.378 650.023 C 401.756 607.005 409.24 562.244 420.064 520.697 C 446.435 415.318 499.128 318.36 573.205 238.907 C 620.934 187.432 687.796 132.227 757.245 115.486 C 770.899 112.194 784.379 111.25 798.346 110.736 C 787.429 106.372 776.76 101.357 765.664 97.4391 C 733.408 86.0511 694.377 78.487 660.252 79.1182 C 641.093 79.4726 622.29 82.2839 603.418 85.3348 C 628.722 72.4418 655.256 65.1431 683.237 60.9481 C 722.393 55.0778 769.878 56.2851 805.646 75.2292 C 820.355 83.0198 833.672 93.7617 847.038 103.643 C 846.797 99.7997 846.662 95.8415 846.891 91.9918 C 849.094 54.8338 876.776 23.6487 902.953 0 z M 1003 124.248 L 1003.55 124.894 C 1016.88 129.944 1030.54 134.052 1043.84 139.17 C 1060.94 145.75 1077.6 153.828 1093.88 162.204 C 1174.23 203.535 1239.01 261.611 1300.52 326.832 C 1321.98 349.583 1343.42 372.616 1362.33 397.561 C 1376.98 417.139 1390.73 437.38 1403.52 458.219 C 1410.02 468.913 1420.13 489.334 1427.53 497.758 L 1428.2 499.517 L 1428.99 500.995 L 1428.2 499.517 L 1427.53 497.758 C 1424.82 487.743 1418.08 477.245 1413.19 468.027 C 1381.21 407.747 1340.35 353.327 1294.24 303.234 C 1229.66 233.077 1142.63 167.991 1051.78 137.016 C 1036.93 131.953 1019.27 125.548 1003.55 124.894 L 1003 124.248 z M 761.44 147.732 C 747.413 151.569 734.191 160.812 721.835 168.292 C 646.166 214.101 582.838 284.024 539.078 360.65 C 521.179 391.991 495.285 446.716 493.996 482.032 C 504.988 445.167 521.133 411.607 542.795 379.867 C 546.688 374.163 550.611 367.719 555.174 362.564 C 549.031 377.538 523.884 433.015 525.736 446.437 C 536.904 416.662 563.128 363.096 583.919 339.964 C 584.346 339.488 584.784 339.023 585.217 338.553 C 585.153 338.875 585.093 339.198 585.025 339.519 C 583.205 348.142 579.777 356.671 576.941 365.014 C 571.286 381.643 565.349 398.25 560.241 415.055 C 534.593 499.423 523.911 575.856 536.573 663.412 C 539.666 684.796 545.509 721.162 556.172 739.52 L 556.761 739.995 L 556.172 739.52 C 555.795 725.41 549.595 706.862 547.385 691.949 C 530.427 577.535 550.344 471.356 601.162 368.394 C 611.986 346.464 623.441 324.443 636.806 303.922 C 649.236 284.838 662.804 265.211 677.149 247.498 C 684.24 238.743 693.201 231.411 699.811 222.311 C 700 222.05 700.183 221.785 700.368 221.522 L 700.898 221.005 L 700.368 221.522 C 675.517 237.902 653.791 262.397 634.683 284.986 C 629.539 291.068 624.917 298.035 619.517 303.803 C 631.35 266.937 686.242 204.786 715.693 180.285 C 729.791 168.556 745.471 159.861 759.943 148.88 L 761.44 147.732 L 761.995 147.209 L 761.44 147.732 z M 870.204 158.502 C 854.13 161.704 838.169 171.302 824.174 179.534 C 760.462 217.014 713.598 267.341 672.742 328.38 C 625.057 400.323 594.63 482.308 583.835 567.942 C 581.475 586.162 578.739 605.632 580.451 623.976 C 580.628 623.486 580.814 623 580.983 622.507 C 583.954 613.854 584.054 599.034 585.528 589.441 C 589.631 562.735 594.229 536.058 601.554 510.019 C 625.594 426.56 666.488 348.915 721.709 281.878 C 733.165 268.173 745.701 255.298 758.094 242.439 C 785.735 213.757 816.619 185.876 852.159 167.362 C 858.069 164.283 864.443 161.765 870.204 158.502 L 871.25 158.212 L 870.204 158.502 z M 1345.24 189.005 L 1346.51 190.641 L 1347.81 190.891 C 1356.53 200.294 1366.56 208.425 1375.4 217.717 C 1397.99 241.471 1416.17 268.105 1432.53 296.413 C 1436.79 303.775 1444.34 314.215 1446.44 322.395 C 1440.1 316.679 1435.19 307.187 1429.82 300.346 C 1406.8 271.053 1382.07 235.058 1350.7 214.482 L 1350.18 214.005 L 1350.7 214.482 L 1351.27 215.122 C 1358.85 223.565 1367.83 230.722 1375.23 239.325 C 1396.24 263.738 1412.59 294.98 1425.73 324.294 C 1407.76 302.697 1392.48 279.763 1372.99 259.281 C 1314.38 197.694 1244.25 148.282 1163.09 121.795 C 1149.17 117.251 1133.3 111.307 1118.71 110.03 C 1118.31 109.995 1117.9 109.978 1117.5 109.943 C 1117.23 109.92 1116.97 109.887 1116.7 109.859 C 1141.58 117.596 1165.75 125.862 1189.24 137.23 C 1279.35 180.832 1376.44 264.461 1423.41 353.715 C 1427.73 361.928 1432.79 371.05 1435.56 379.867 C 1428.01 372.008 1423.14 361.095 1416.86 352.182 C 1402.49 331.818 1363.91 283.027 1343.71 270.903 L 1343.19 270.553 L 1342.45 268.63 L 1341.01 268.16 L 1342.45 268.63 L 1343.19 270.553 L 1343.71 270.903 C 1348.43 277.5 1354.53 283.136 1359.85 289.263 C 1369.32 300.326 1378.51 311.622 1387.42 323.141 C 1420.38 365.938 1451.7 420.316 1473.12 470.006 C 1486.16 500.256 1498.9 532.188 1506.15 564.402 C 1507.58 570.756 1514.05 607.22 1516.52 610.233 C 1518.29 583.672 1493.91 486.681 1485.4 459.556 C 1480.53 444.013 1473.79 429.152 1468.77 413.694 C 1479.17 429.857 1486.67 450.315 1492.96 468.471 C 1513.92 529.041 1523.71 589.094 1524.1 653.231 C 1524.2 669.829 1524.56 687.034 1521 703.316 C 1517.74 718.253 1511.44 732.343 1505.36 746.305 C 1503.09 751.528 1499.76 757.398 1498.45 762.901 L 1497.81 764.458 L 1496.61 766.588 L 1495.77 767.155 L 1495.01 768.995 L 1495.77 767.155 L 1496.61 766.588 L 1497.81 764.458 L 1498.45 762.901 C 1499.15 762.243 1499.4 762.06 1500.03 761.171 C 1504.3 755.15 1507.12 747.426 1510 740.682 C 1515.95 726.782 1521.4 713.305 1524.03 698.329 C 1527.71 677.369 1527.11 655.162 1526.15 633.956 C 1523.22 568.768 1511.4 506.013 1494.5 443.066 C 1488.29 419.913 1477.6 397.157 1473.01 373.749 C 1472.94 373.395 1472.88 373.039 1472.82 372.684 C 1480.17 381.734 1485.23 393.59 1490.13 404.118 C 1504.6 435.168 1515.79 465.257 1525.43 498.106 C 1527.09 481.443 1510.54 426.155 1504.25 407.913 C 1480.28 338.353 1430.57 259.744 1374.86 211.621 C 1366.75 204.616 1357.46 195.578 1347.81 190.891 L 1346.51 190.641 L 1345.24 189.005 z M 994.005 195.217 L 995.066 195.943 L 996.23 196.623 C 996.462 196.838 996.692 197.055 996.926 197.267 C 1013.03 211.835 1032.51 223.442 1049.25 237.591 C 1098.68 279.45 1143.55 326.42 1183.11 377.717 C 1202.8 403.733 1221.95 430.65 1239.5 458.163 C 1247.38 470.51 1265.3 504.335 1273.6 512.815 L 1274.28 514.349 L 1274.87 514.995 L 1274.28 514.349 L 1273.6 512.815 C 1273.38 511.939 1273.35 511.734 1272.97 510.774 C 1267.46 496.73 1258.66 483.027 1251.3 469.856 C 1200.71 379.322 1135.26 296.09 1052.74 232.592 C 1035.97 219.694 1015.9 204.443 996.23 196.623 L 995.066 195.943 L 994.005 195.217 z M 905.465 178 C 904.442 191.85 903.705 205.72 903.254 219.601 C 899.799 345.233 927.856 474.931 992.002 583.636 C 1001.2 599.228 1013.42 621.963 1025.61 634.856 L 1026.26 636.374 L 1026.88 636.995 L 1026.26 636.374 L 1025.61 634.856 C 1023.52 628.401 1018.78 621.701 1015.45 615.75 C 1008.99 604.403 1002.79 592.913 996.841 581.288 C 979.993 547.606 965.9 511.981 953.582 476.421 C 929.991 406.784 915.127 334.49 909.33 261.194 C 907.941 243.479 907.105 225.724 906.822 207.957 C 906.658 198.046 907.927 186.885 906.357 177.154 L 905.465 178 z M 901.674 166.748 C 881.181 205.678 870.812 250.445 865.673 293.945 C 853.97 395.563 868.652 498.482 908.304 592.774 C 913.831 605.632 920.845 625.115 929.384 635.934 L 929.936 636.995 L 929.384 635.934 C 927.072 625.677 920.621 614.867 916.614 605.002 C 910.956 591.071 906.153 576.697 901.448 562.42 C 879.371 495.427 869.536 419.417 871.166 348.997 C 872.281 300.858 877.755 250.804 890.796 204.346 C 892.179 199.418 904.463 164.278 903.962 163.051 L 901.674 166.748 z M 1321.19 684.005 L 1321.74 684.533 C 1324.7 692.24 1330.11 699.55 1334.62 706.45 C 1353.11 734.73 1374.35 758.678 1395.87 784.538 C 1396.47 778.882 1396.33 773.049 1396.45 767.359 C 1380.17 750.909 1363.39 734.704 1348.16 717.261 C 1338.94 706.696 1330.77 695.256 1321.74 684.533 L 1321.19 684.005 z M 486.248 609.4 C 484.375 634.416 491.229 711.442 504.34 730.008 L 504.721 731.164 L 504.34 730.008 C 502.501 720.15 499.291 710.298 497.017 700.498 C 492.717 681.231 489.835 661.674 488.395 641.986 C 488.025 636.129 488.744 612.884 486.248 609.4 z M 1049.3 783.496 C 1033.98 777.811 1020.22 767.416 1007.29 757.619 C 954.124 717.603 911.618 665.122 883.52 604.801 C 865.957 566.487 850.861 523.035 848.506 480.615 C 839.691 495.113 833.01 510.571 826.092 526.024 C 812.511 556.364 800.503 587.141 788.984 618.31 C 780.924 640.117 771.888 662.422 766.129 684.93 C 806.079 680.949 843.648 684.744 882.498 694.244 C 891.998 696.567 903.575 698.672 911.399 704.83 C 922.636 713.673 934.182 739.748 943.282 752.771 C 935.52 748.761 928.05 746.024 919.498 744.175 C 896.66 739.237 872.275 737.96 849.059 735.238 C 817.675 731.558 785.281 725.633 753.692 725.869 C 747.617 736.136 741.476 746.364 735.269 756.552 C 734.809 746.599 732.796 736.662 732.908 726.732 C 718.147 726.764 703.077 726.904 688.384 728.322 C 677.703 770.071 676.323 826.447 692.301 866.861 C 679.108 857.796 666.364 848.636 654.179 838.221 C 653.252 847.22 651.419 856.317 650.967 865.321 C 649.852 887.511 664.748 902.149 674.358 920.428 C 656.732 907.533 646.365 882.209 639.909 862.093 C 643.041 896.259 669.556 953.955 683.532 987.173 C 695.739 1016.19 703.247 1046.83 715.714 1075.67 C 751.211 1157.78 816.737 1225.2 884.593 1281.62 C 911.823 1304.26 959.761 1339.09 993.383 1348.7 C 1009.79 1353.39 1027.57 1354.33 1044.5 1352.79 C 1120.7 1345.84 1232.77 1231.46 1279.7 1174.36 C 1326.8 1117.04 1354.24 1046.24 1377.28 976.584 C 1382.49 960.856 1391.38 936.647 1392.28 920.568 L 1392.77 920.005 L 1392.28 920.568 C 1387.81 926.058 1384.97 932.597 1381.98 938.949 C 1384.18 928.37 1385.76 917.664 1388.02 907.088 C 1392.96 883.995 1398.46 861.263 1401.35 837.782 C 1394.65 853.069 1386.68 866.777 1377.76 880.832 C 1384.68 848.77 1394.69 819.463 1396.22 786.281 C 1366.44 778.444 1336.31 773.157 1307.22 762.654 C 1294.88 758.074 1282.91 752.529 1271.44 746.07 C 1264.08 741.917 1256.71 736.712 1248.82 733.707 C 1245.13 732.304 1241.02 731.831 1237.1 731.727 C 1217.73 731.214 1194.91 734.37 1176.29 739.239 C 1166.25 741.866 1155.94 746.237 1145.68 747.559 C 1143.74 747.81 1142.93 747.739 1141.24 748.742 C 1144.54 753.554 1153.6 758.206 1158.25 762.144 C 1162.16 765.457 1165.67 769.34 1169.15 773.102 C 1163.56 772.95 1158 772.359 1152.51 771.334 C 1099.71 761.542 1035.51 702.213 1000.65 662.006 C 986.83 646.072 974.582 629.276 962.674 611.888 C 975.049 654.044 992.224 697.464 1015.29 734.987 C 1025.63 751.801 1037.55 767.653 1049.3 783.496 z M 1337.05 1367.13 L 1337.41 1367.64 C 1339.59 1372.76 1346.5 1378.09 1351.43 1380.64 L 1352.21 1381.14 L 1352.7 1381.69 C 1358.74 1392.21 1373.79 1404.54 1382.22 1414.43 C 1398.97 1434.29 1414.4 1455.22 1428.43 1477.09 C 1497.1 1583.68 1545.34 1701.64 1587.43 1820.8 C 1564.54 1835.48 1543.04 1852.24 1520.85 1867.94 C 1493.46 1887.3 1465.41 1905.82 1438.33 1925.6 C 1442.44 1930.22 1446.5 1934.05 1451.51 1937.66 L 1462.11 1931.42 C 1478.89 1921.64 1494.97 1910.09 1511.08 1899.26 C 1546.34 1875.54 1584.63 1850.78 1614.94 1820.86 C 1609.46 1799.16 1599.46 1777.47 1590.89 1756.77 C 1567.15 1699.47 1540.28 1645.2 1510.95 1590.61 C 1495.5 1561.87 1480.16 1532.63 1461.93 1505.54 C 1437.64 1469.41 1409.75 1435.83 1378.68 1405.32 C 1370.84 1397.71 1361.99 1387.41 1352.7 1381.69 L 1352.21 1381.14 L 1351.43 1380.64 C 1347.54 1375.53 1342.8 1371.13 1337.41 1367.64 L 1337.05 1367.13 z M 989.005 1870.19 L 989.619 1870.7 C 990.954 1871.72 992.295 1872.52 993.807 1873.26 C 1021.48 1886.94 1052.9 1887.07 1081.52 1877.39 C 1082.31 1875.76 1082.79 1874.22 1083.25 1872.46 L 1082.05 1871.39 C 1077.75 1871.09 1073.69 1872.62 1069.61 1873.85 C 1044.81 1881.34 1014.45 1875.58 989.619 1870.7 L 989.005 1870.19 z M 761.464 542.849 C 748.621 564.577 685.937 708.971 689.771 726.61 C 701.19 713.6 717.165 701.563 733.747 696.083 C 736.387 670.396 738.458 644.492 743.352 619.111 C 746.167 604.585 749.401 590.144 753.052 575.805 C 755.366 566.7 761.559 551.587 761.464 542.849 z M 1093.04 583.741 C 1095.8 595.162 1134.2 699.487 1139.89 703.429 C 1153.37 699.175 1166.71 693.379 1180.74 691.229 L 1192.36 689.585 C 1169.31 671.004 1147.12 650.157 1127.73 627.758 C 1120.72 619.666 1097.49 587.017 1093.04 583.741 z M 930.352 638.5 L 931.091 638.5 L 930.352 638.5 z M 505.38 733.5 L 506.364 733.5 L 505.38 733.5 z M 1475.98 810.349 C 1465.7 824.881 1457.82 841.608 1448.53 856.844 C 1440.27 870.388 1430.38 883.172 1422.88 897.114 C 1436.83 882.459 1465.49 843.357 1484.42 838.677 C 1487.17 839.309 1488.51 839.645 1490.16 842.085 C 1498.82 854.947 1493.01 900.58 1488.9 915.127 C 1485.42 927.456 1479.95 939.386 1473.91 950.654 C 1483.54 915.27 1492.41 889.923 1481.08 852.842 C 1473.61 861.352 1465.72 868.406 1456.72 875.247 C 1460.46 886.58 1466.59 904.397 1461.7 916.047 L 1459.81 917.333 C 1455.53 915.527 1453.96 911.637 1452.27 907.493 C 1449.84 901.507 1448.58 895.456 1448.33 889.019 C 1448.23 886.48 1448.04 883.939 1447.91 881.401 C 1443.21 886.538 1431.47 903.07 1425.02 903.716 L 1421.38 902.189 C 1404.9 920.485 1398.53 950.105 1393.22 973.458 L 1389.37 991.529 C 1405.98 979.127 1418.06 963.783 1425.49 944.378 C 1423.86 940.083 1413.61 923.174 1413.39 922.077 C 1413.21 921.115 1413.65 920.134 1413.78 919.163 C 1415.83 917.458 1416.79 916.927 1419.53 917.059 C 1426.22 917.381 1436.3 924.601 1440.29 929.593 C 1443.65 933.791 1445.11 938.684 1444.23 944.016 C 1441.68 959.572 1419.23 981.706 1406.33 990.339 C 1400.25 994.406 1393.6 997.14 1386.77 999.697 C 1382.62 1015.95 1377.72 1032.01 1372.07 1047.81 C 1379.57 1048.7 1386.49 1048.84 1393.9 1046.85 C 1413.31 1041.64 1435.48 1021.05 1451.41 1008.5 C 1489.64 978.363 1508.36 957.077 1514.11 906.686 C 1516.64 884.492 1516.14 834.89 1501.18 816.772 C 1497.95 812.858 1493.75 810.255 1488.64 809.82 C 1484.48 809.466 1480.14 809.986 1475.98 810.349 z M 569.659 811.678 C 548.242 845.72 538.417 892.201 547.535 931.784 C 558.377 978.848 607.41 1016.86 646.928 1041.23 C 655.054 1046.24 674.637 1057.82 684.373 1055.23 C 686.146 1054.76 686.104 1054.45 687.218 1053.15 C 684.479 1037.46 676.917 1020.84 671.398 1005.78 C 657.713 1004.53 642.956 993.506 632.488 984.78 C 623.027 977.673 609.581 969.349 607.395 956.856 C 604.879 942.476 616.341 922.297 622.161 909.268 C 615.62 899.094 606.463 890.731 598.761 881.437 C 591.12 872.218 584.544 862.167 577.035 852.861 C 575.303 858.125 573.558 865.36 568.173 868.126 C 566.726 868.869 566.147 868.009 564.912 867.332 C 562.056 861.706 562.665 855.622 564.592 849.756 C 565.91 845.774 567.384 841.844 569.011 837.977 C 593.386 852.461 610.955 879.643 629.39 900.548 C 622.433 880.818 592.996 822.682 574.33 813.309 C 572.859 812.57 571.241 812.105 569.659 811.678 z M 630.718 923.627 C 626.101 933.687 619.222 946.213 623.602 957.455 C 627.02 966.227 656.349 987.581 665.509 994.756 L 667.256 995.375 C 668.736 988.997 652.424 945.833 648.093 938.743 C 646.813 936.646 645.661 934.954 643.491 933.708 L 640.033 935.033 C 635.606 932.705 634.413 926.817 630.718 923.627 z M 818.037 1245.6 C 822.308 1286.21 826.103 1329.26 818.579 1369.6 C 850.16 1435.92 920.471 1510.73 973.895 1560.99 C 989.098 1575.29 1019.27 1596.95 1029.59 1612.59 C 1035.01 1620.81 1034.19 1635.75 1034.07 1645.35 C 1018.47 1640.13 1004.9 1629.87 992.775 1618.88 C 986.621 1625.84 981.557 1634.3 977.203 1642.49 C 1011.02 1652.53 1043.41 1657.3 1078.02 1646.96 C 1076.37 1640.46 1073.54 1634.69 1070.66 1628.66 C 1064.95 1634.72 1059.21 1640.87 1052.45 1645.79 C 1048.27 1645.62 1042.36 1646.63 1038.79 1644.73 C 1036.49 1633.35 1044.24 1619.8 1045.49 1608.31 C 1058.01 1597.56 1071.87 1588.52 1084.54 1577.93 C 1117.48 1550.38 1145.45 1520.03 1172.04 1486.39 C 1187.83 1464.89 1217.32 1425.26 1225.88 1400.96 C 1230.77 1387.1 1229.13 1369.28 1229.6 1354.68 C 1229.98 1342.24 1230.69 1329.81 1231.73 1317.4 C 1233.74 1293.53 1237.72 1269.88 1239.75 1246.08 C 1232.81 1253.08 1224.08 1260.43 1218.98 1268.88 C 1215.3 1274.96 1214.61 1284.38 1211.97 1291.24 C 1206 1306.82 1198.45 1322.84 1191 1337.79 C 1182.69 1354.5 1172.14 1370.68 1162.7 1386.81 C 1145.44 1416.28 1117.47 1466.41 1094.89 1490.82 C 1025.73 1476.59 958.42 1413.81 916.312 1358.89 C 903.782 1342.54 891.547 1325.84 879.58 1309.08 C 874.75 1302.32 870.514 1294.71 865.219 1288.34 C 857.284 1278.79 846.087 1270.75 836.791 1262.47 C 830.681 1257.03 824.608 1250.39 818.037 1245.6 z M 1257.16 1273.16 C 1255 1296.5 1255.52 1320.25 1254.99 1343.69 C 1259.07 1334.18 1265.19 1321.98 1264.3 1311.48 L 1265.82 1310.44 C 1271.21 1317.6 1271.71 1325.81 1270.47 1334.49 C 1268.55 1347.84 1263.08 1360.84 1258.23 1373.36 C 1227.84 1451.78 1165.53 1531.06 1097.85 1580.98 C 1086.92 1589.05 1062.65 1602.72 1055.54 1613.24 C 1052.09 1618.34 1050.93 1624.82 1049.68 1630.75 C 1053.76 1624.88 1060.93 1611.83 1067.95 1610 C 1072.77 1608.74 1078.63 1612.04 1082.35 1614.78 C 1107.82 1633.55 1146.66 1710.56 1162.53 1741.54 C 1178.16 1773.84 1193.48 1805.77 1203.89 1840.21 C 1230.13 1807.39 1254.44 1770.21 1271.32 1731.64 C 1290.56 1687.7 1341.73 1485.8 1337.07 1445.58 C 1335.68 1433.59 1329.89 1421.37 1325.69 1410.13 C 1318.84 1391.81 1311.66 1373.6 1304.93 1355.24 C 1298.66 1338.14 1294.41 1319.72 1286.19 1303.46 C 1281.78 1294.72 1275.9 1286.28 1268.16 1280.15 C 1264.85 1277.53 1260.99 1274.94 1257.16 1273.16 z M 804.138 1275.92 C 792.877 1284.25 783.011 1294.2 775.788 1306.27 C 767.12 1320.75 762.375 1338.16 756.352 1353.92 C 745.679 1381.85 728.033 1420.81 723.814 1449.51 C 721.7 1463.89 728.995 1515.54 731.722 1533.12 C 744.537 1615.76 766.666 1700.27 812.241 1771.37 C 829.717 1798.64 851.05 1823.81 869.897 1850.17 C 879.125 1810 892.815 1774.29 910.052 1736.9 C 921.634 1711.84 964.933 1612 988.311 1604.36 C 992.795 1602.89 997.747 1604.34 1001.71 1606.6 C 1011.96 1612.44 1019.65 1624.85 1027.08 1633.89 C 1015.16 1605.38 988.083 1591.43 965.728 1571.88 C 908.643 1521.95 855.363 1463.89 816.562 1398.5 C 809.968 1387.39 803.02 1376.05 798.164 1364.06 C 790.801 1345.87 788.097 1327.05 783.692 1308.09 C 791.104 1316.29 796.307 1325.39 801.837 1334.9 C 803.621 1321.74 808.406 1288.09 804.788 1276.53 L 804.138 1275.92 z M 1345.37 1381.5 L 1346.26 1381.5 L 1345.37 1381.5 z M 1136.69 1744.58 C 1125.9 1777.87 1116.34 1811.38 1106.84 1845.06 C 1104.28 1854.14 1095.68 1863.75 1095.38 1872.99 C 1095.06 1883.13 1106.97 1911.63 1110.06 1924.03 C 1119.02 1959.99 1123.96 1996.28 1130.08 2032.74 C 1142.56 2011.67 1155.27 1990.72 1166.91 1969.17 C 1191.81 1921.01 1215.61 1871.44 1234.59 1820.62 C 1223.53 1834.61 1212.68 1850.68 1198.98 1862.14 C 1192.48 1843.84 1148.02 1752.29 1136.69 1744.58 z M 922.452 1746.6 C 914.291 1761.89 908.255 1777.87 901.87 1793.96 C 891.459 1820.18 881.504 1846.14 874.093 1873.42 C 857.557 1854.56 841.595 1835.87 826.824 1815.54 C 846.776 1866.69 872.782 1913.47 898.927 1961.52 C 912.969 1986.28 927.489 2012.31 945.247 2034.66 C 949.751 2001.44 956.404 1968.9 962.574 1935.98 C 966.931 1912.73 970.367 1889.29 976.396 1866.39 C 967.569 1851.23 923.174 1747.32 922.452 1746.6 z"/>
<path transform="translate(0,0)" fill="rgb(0,0,0)" d="M 619.109 304.807 L 619.517 303.803 L 619.109 304.807 z"/>
<path transform="translate(0,0)" fill="rgb(0,0,0)" d="M 1446.44 322.395 L 1447.13 323.258 L 1446.44 322.395 z"/>
<path transform="translate(0,0)" fill="rgb(0,0,0)" d="M 1447.13 323.258 L 1448.3 325.36 L 1447.13 323.258 z"/>
<path transform="translate(0,0)" fill="rgb(0,0,0)" d="M 1448.3 325.36 L 1448.77 325.958 L 1448.3 325.36 z"/>
<path transform="translate(0,0)" fill="rgb(0,0,0)" d="M 585.217 338.553 L 585.754 338.005 L 585.217 338.553 z"/>
<path transform="translate(0,0)" fill="rgb(0,0,0)" d="M 556.994 360.5 L 556.322 360.5 L 556.994 360.5 z"/>
<path transform="translate(0,0)" fill="rgb(0,0,0)" d="M 555.174 362.564 L 555.747 362.005 L 555.174 362.564 z"/>
<path transform="translate(0,0)" fill="rgb(0,0,0)" d="M 1472.82 372.684 L 1472.25 372.005 L 1472.82 372.684 z"/>
<path transform="translate(0,0)" fill="rgb(0,0,0)" d="M 1435.56 379.867 L 1436.23 381.39 L 1435.56 379.867 z"/>
<path transform="translate(0,0)" fill="rgb(0,0,0)" d="M 1436.23 381.39 L 1436.75 381.995 L 1436.23 381.39 z"/>
<path transform="translate(0,0)" fill="rgb(0,0,0)" d="M 1438.01 383.5 L 1437.36 383.5 L 1438.01 383.5 z"/>
<path transform="translate(0,0)" fill="rgb(0,0,0)" d="M 1467.02 409.5 L 1466.33 409.5 L 1467.02 409.5 z"/>
<path transform="translate(0,0)" fill="rgb(0,0,0)" d="M 1468.07 411.5 L 1467.38 411.5 L 1468.07 411.5 z"/>
<path transform="translate(0,0)" fill="rgb(0,0,0)" d="M 1468.77 413.694 L 1468.2 413.005 L 1468.77 413.694 z"/>
<path transform="translate(0,0)" fill="rgb(0,0,0)" d="M 758.61 778.315 C 774.631 763.575 800.995 756.822 822.331 757.616 C 855.418 758.848 893.413 775.275 915.747 800.061 C 916.361 800.742 916.916 801.474 917.485 802.194 C 905.938 797.963 895.195 790.594 884.122 785.214 C 840.202 763.875 804.442 762.432 758.61 778.315 z"/>
<path transform="translate(0,0)" fill="rgb(0,0,0)" d="M 1129.52 803.225 C 1156.27 775.162 1192.68 764.173 1230.66 763.223 C 1246.75 762.82 1262.55 765.609 1278.03 769.82 L 1280.68 771.049 C 1275.84 772.363 1246.35 769.538 1237.23 770.137 C 1197.86 772.721 1165.14 788.231 1129.52 803.225 z"/>
<path transform="translate(0,0)" fill="rgb(0,0,0)" d="M 758.005 778.786 L 758.61 778.315 L 758.005 778.786 z"/>
<path transform="translate(0,0)" fill="rgb(0,0,0)" d="M 1049.3 783.496 L 1049.86 783.841 L 1049.3 783.496 z"/>
<path transform="translate(0,0)" fill="rgb(0,0,0)" d="M 708.659 835.116 C 710.646 828.859 713.612 824.117 718.058 819.314 C 738.578 797.15 772.48 787.445 801.765 786.443 C 830.649 786.141 863.277 790.105 887.54 807.168 C 909.54 822.639 918.611 843.948 923.033 869.645 C 910.899 849.421 895.4 837.509 875.469 825.517 C 880.065 838.578 883.426 851.854 881.668 865.778 C 880.088 878.288 875.402 891.482 864.838 899.138 C 853.168 907.596 833.399 909.713 819.365 907.53 C 806.2 905.483 796.713 898.663 789.056 888.095 C 785.627 881.377 783.111 874.23 781.577 866.845 C 777.046 844.472 782.618 824.231 794.914 805.462 C 780.907 807.859 766.818 810.572 754.337 817.719 C 746.535 822.187 738.823 828.822 736.636 837.924 C 732.651 854.503 742.532 875.589 750.784 889.501 C 732.347 876.115 715.491 857.19 708.659 835.116 z M 820.212 814.988 C 814.932 817.358 810.984 819.224 808.96 825.039 C 807.673 828.737 808.11 832.708 809.847 836.177 C 812.364 841.202 816.713 844.436 822.029 845.974 C 822.854 846.209 823.684 846.429 824.518 846.633 C 829.931 844.294 833.216 841.127 835.372 835.543 C 836.941 831.481 836.857 827.027 834.903 823.111 C 833.419 820.136 830.635 817.471 827.436 816.438 C 825.136 815.695 822.61 815.275 820.212 814.988 z M 847.961 863.817 C 844.163 866.908 841.671 869.038 840.982 874.059 C 840.493 877.63 841.12 880.96 843.605 883.715 C 846.024 886.397 849.285 887.289 852.784 887.041 C 853.418 886.996 854.052 886.932 854.686 886.878 C 858.565 883.638 861.853 879.703 862.083 874.372 C 862.197 871.727 861.719 869.221 859.942 867.153 C 857.335 864.117 854.029 863.602 850.27 863.707 C 849.5 863.731 848.73 863.768 847.961 863.817 z"/>
<path transform="translate(0,0)" fill="rgb(0,0,0)" d="M 1130.3 865.744 C 1134.33 847.714 1138.33 830.053 1150.96 815.844 C 1169.88 794.546 1200.66 788.162 1227.76 786.387 C 1259.82 784.467 1299.46 792.225 1324.38 813.676 C 1333.49 821.522 1347.72 837.462 1347.93 850.094 C 1347.96 852.125 1348.13 851.324 1346.6 852.967 C 1340.55 853.945 1334.21 849.094 1329.17 846.193 C 1327.19 861.099 1325.18 871.67 1316.82 884.427 C 1316.59 870.013 1318.34 849.543 1310.98 836.877 C 1303.5 823.995 1283.97 817.603 1270.33 814.051 C 1270.6 814.738 1270.85 815.429 1271.1 816.124 C 1279.18 839.613 1279.97 861.001 1269.13 883.663 C 1264.68 891.109 1258.98 897.006 1251.25 901.086 C 1237.76 908.212 1218.49 908.36 1204.09 903.732 C 1190.91 899.361 1180.08 889.798 1174.11 877.254 C 1165.82 860.07 1168.09 840.597 1174.11 823.173 C 1150.81 834.885 1142.84 842.954 1130.3 865.744 z M 1212.21 816.792 C 1208.1 820.241 1205.19 823.199 1204.57 828.756 C 1204.12 832.729 1205.04 836.752 1207.73 839.785 C 1210.59 843.017 1214.33 844.567 1218.59 844.649 C 1219.29 844.662 1219.99 844.635 1220.69 844.617 C 1224.89 841.771 1227.87 839.253 1229.03 834.104 C 1229.86 830.384 1229.28 826.413 1227.18 823.204 C 1225.17 820.137 1221.7 817.663 1218.08 816.935 C 1216.18 816.552 1214.14 816.697 1212.21 816.792 z M 1243.99 864.677 C 1240.03 868.199 1237.9 870.853 1237.53 876.287 C 1237.32 879.43 1238.17 882.335 1240.51 884.545 C 1242.57 886.49 1244.63 886.675 1247.32 886.786 C 1251.54 883.981 1254.38 881.257 1255.31 876.078 C 1255.87 872.96 1255.21 869.937 1252.98 867.564 C 1250.57 864.995 1247.3 864.722 1243.99 864.677 z"/>
<path transform="translate(0,0)" fill="rgb(0,0,0)" d="M 917.485 802.194 L 917.868 802.757 L 917.485 802.194 z"/>
<path transform="translate(0,0)" fill="rgb(0,0,0)" d="M 1129.01 803.775 L 1129.52 803.225 L 1129.01 803.775 z"/>
<path transform="translate(0,0)" fill="rgb(0,0,0)" d="M 589.321 957.417 C 576.9 946.833 571.889 923.482 570.624 907.968 C 569.699 896.638 569.947 884.649 573.208 873.686 L 574.698 872.475 C 578.311 877.995 582.639 924.769 584.457 935.53 C 585.71 942.903 587.333 950.208 589.321 957.417 z"/>
<path transform="translate(0,0)" fill="rgb(0,0,0)" d="M 1167.94 904.557 C 1180.61 905.209 1193.2 908.328 1205.89 909.42 C 1232.54 911.714 1258.44 907.083 1284.33 901.284 L 1285.16 902.425 C 1279.6 909.2 1269.86 913.775 1261.7 916.639 C 1234.22 926.283 1204.81 923.537 1178.82 911.11 L 1167.94 904.557 z"/>
<path transform="translate(0,0)" fill="rgb(0,0,0)" d="M 762.478 905.427 C 805.627 915.466 841.877 912.336 884.772 904.333 C 886.473 904.276 885.656 904.13 887.223 904.764 C 877.504 909.911 867.633 914.762 857.076 917.959 C 829.385 926.346 797.737 926.067 772.006 912.125 L 762.478 905.427 z"/>
<path transform="translate(0,0)" fill="rgb(0,0,0)" d="M 674.358 920.428 L 674.839 920.841 L 674.358 920.428 z"/>
<path transform="translate(0,0)" fill="rgb(0,0,0)" d="M 1009.02 1079.01 C 1001.83 1076.56 994.967 1073.84 988.41 1069.98 C 975.479 1062.35 959.033 1046.87 955.72 1031.73 C 951.234 1011.24 986.45 942.416 998.64 922.808 C 998.465 946.625 959.105 1009.08 963.585 1030.78 C 964.046 1033.01 963.564 1032.21 965.387 1033.47 C 966.586 1032.36 967.225 1031.47 967.84 1029.95 C 972.592 1018.19 976.459 1006 980.957 994.137 C 987.93 975.74 995.519 957.53 1002.99 939.331 C 1003.73 960.662 998.491 982.736 992.918 1003.22 C 990.004 1014.02 986.323 1023.57 981.265 1033.57 C 989.038 1049.28 1000.11 1063.82 1009.02 1079.01 z"/>
<path transform="translate(0,0)" fill="rgb(0,0,0)" d="M 1475.16 948.5 L 1474.4 948.5 L 1475.16 948.5 z"/>
<path transform="translate(0,0)" fill="rgb(0,0,0)" d="M 589.321 957.417 L 589.792 957.977 L 589.321 957.417 z"/>
<path transform="translate(0,0)" fill="rgb(0,0,0)" d="M 1223.97 1021.06 L 1223.21 1020.12 C 1223.29 1019.67 1223.35 1019.2 1223.45 1018.75 C 1226.67 1003.94 1257.02 980.65 1269.86 972.922 L 1270.73 974.089 C 1256.38 991.325 1241.42 1006.92 1223.97 1021.06 z"/>
<path transform="translate(0,0)" fill="rgb(0,0,0)" d="M 1259.33 1021.96 L 1258.6 1021.01 C 1267.76 1001.37 1284.12 987.027 1301.71 975.011 L 1302.15 975.321 C 1301.07 983.304 1266.17 1016.05 1259.33 1021.96 z"/>
<path transform="translate(0,0)" fill="rgb(0,0,0)" d="M 720.509 1024.27 C 735.011 1004.64 752.82 989.475 776.998 983.705 C 762.126 996.842 738.905 1017.27 720.509 1024.27 z"/>
<path transform="translate(0,0)" fill="rgb(0,0,0)" d="M 761.772 1031.91 L 761.165 1031.25 C 761.357 1029.25 761.718 1027.75 762.734 1026.02 C 771.687 1010.83 795.643 1000.58 811.877 996.256 L 812.513 997.141 C 798.063 1010.99 779.384 1022.51 761.772 1031.91 z"/>
<path transform="translate(0,0)" fill="rgb(0,0,0)" d="M 720.005 1024.76 L 720.509 1024.27 L 720.005 1024.76 z"/>
<path transform="translate(0,0)" fill="rgb(0,0,0)" d="M 1054.76 1063.29 C 1049.13 1064.09 1041.41 1066.25 1036.41 1062.79 L 1036.19 1060.89 C 1039.35 1056.09 1046.17 1051.9 1051.04 1048.96 C 1054.03 1048.8 1056.93 1048.76 1059.86 1049.47 C 1066.65 1051.11 1069.71 1056.15 1073.11 1061.73 C 1066.97 1061.78 1060.86 1062.61 1054.76 1063.29 z"/>
<path transform="translate(0,0)" fill="rgb(0,0,0)" d="M 1166.81 1120.36 C 1144.83 1136.1 1119.08 1144.04 1092.83 1149.34 C 1033.32 1161.34 949.241 1158.12 897.831 1123.53 C 893.732 1120.77 886.133 1116.19 885.786 1110.77 C 885.517 1106.59 889.069 1103.92 891.825 1101.39 C 897.371 1103.2 898.437 1107.9 901.939 1112 C 905.583 1116.27 912.383 1119.48 917.379 1121.98 C 943.024 1134.82 968.969 1141.43 997.477 1144.07 C 1043.64 1148.34 1102.34 1145.04 1143.43 1122.7 C 1150.03 1119.11 1154.39 1114.23 1160.31 1109.96 C 1162.53 1108.37 1163.71 1108.34 1166.35 1108.59 C 1168.09 1110.02 1169.39 1111.01 1169.74 1113.46 C 1170.16 1116.35 1168.32 1118.19 1166.81 1120.36 z"/>
<path transform="translate(0,0)" fill="rgb(0,0,0)" d="M 961.394 1195.32 C 1006.28 1211.93 1048.35 1210.04 1092.26 1191 L 1093.05 1191.06 L 1093.3 1192.04 C 1078.93 1208.24 1060.8 1217.85 1039.44 1221.5 C 1015.36 1225.62 992.823 1219.28 973.125 1205.27 C 969.13 1202.06 965.278 1198.67 961.394 1195.32 z"/>
<path transform="translate(0,0)" fill="rgb(0,0,0)" d="M 539.32 2048 C 599.005 1989.13 655.984 1931.43 697.719 1857.74 C 704.309 1846.11 711.162 1834.44 716.425 1822.13 C 721.036 1848.59 724.622 1875.17 729.595 1901.59 C 739.001 1951.07 751.313 1999.96 766.468 2048 L 539.32 2048 z"/>
<path transform="translate(0,0)" fill="rgb(0,0,0)" d="M 1284.2 2048 C 1292.08 2016.75 1300.17 1985.48 1307.03 1953.99 C 1316.54 1910.39 1324.55 1866.5 1333.79 1822.86 C 1355.71 1857.62 1380.56 1889.46 1405.74 1921.85 C 1440.37 1966.39 1474.37 2009.66 1516.08 2048 L 1284.2 2048 z"/>
</svg>