<svg version="1.1" xmlns="http://www.w3.org/2000/svg" style="display: block;" viewBox="0 0 2048 2048" width="1024" height="1024">
<path transform="translate(0,0)" fill="rgb(255,255,255)" d="M 0 0 L 0 2048 L 2048 2048 L 2048 0 L 0 0 z"/>
<path transform="translate(0,0)" fill="rgb(0,0,0)" d="M 980.266 0 L 1150.69 0 C 1162.48 2.92488 1174.55 4.52763 1186.43 7.07888 C 1199.96 9.98581 1213.33 14.0679 1226.46 18.4312 C 1345.14 58.1311 1445.64 139.089 1509.7 246.594 C 1517.7 259.976 1523.46 276.259 1533.41 288.212 C 1547.79 305.498 1608.46 336.689 1630.96 342.527 C 1663.56 350.988 1691.48 349.586 1723.42 339.776 C 1694.84 364.399 1646.78 379.66 1609.88 384.033 C 1598.05 385.435 1586.07 385.241 1574.18 385.216 L 1574.72 386.699 C 1582.16 407.086 1593.48 426.179 1602.17 446.068 C 1635.91 523.292 1649.06 594.065 1618.06 675.448 C 1618.08 661.624 1618.28 647.95 1616.27 634.233 C 1613.12 612.786 1591.55 534.386 1581.68 518.168 L 1581.17 517.005 L 1581.68 518.168 C 1588 544.488 1590.78 573.104 1588.8 600.156 C 1587.98 611.295 1584.23 623.341 1585.4 634.457 C 1586.1 641.065 1589.25 648.315 1590.77 654.916 C 1574.74 624.691 1558.45 596.077 1546.3 563.968 C 1537.95 541.888 1530.76 519.345 1522.65 497.167 C 1519.02 487.235 1515.62 476.488 1510.63 467.155 L 1510.01 466.005 L 1510.63 467.155 C 1513.62 481.215 1519.1 495.205 1523.52 508.917 C 1541.51 564.642 1558.87 609.177 1591.8 658.048 C 1604.34 676.66 1616.82 693.786 1635.97 706.168 C 1650.08 715.288 1663.22 719.443 1680.05 719.019 C 1654.87 727.587 1627.33 725.96 1603.33 714.488 C 1595.92 710.914 1589.24 706.325 1582.95 701.037 C 1582.92 744.498 1580.21 796.074 1548.67 829.759 C 1547.86 830.626 1547.58 830.804 1546.74 831.45 C 1553.32 805.055 1563.12 753.405 1552.57 728.054 C 1553.55 737.953 1554.59 747.595 1553.27 757.523 C 1549.68 784.566 1529.64 813.202 1512.62 834.095 C 1506.2 841.966 1498.75 848.722 1491.02 855.26 C 1495.09 897.695 1489.04 922.619 1461.55 956.06 C 1441.86 980.011 1417.35 1004.77 1394.77 1026.08 C 1395.61 1048.01 1400.38 1074.66 1415.62 1091.43 C 1394.76 1083.73 1376.72 1073.18 1363.36 1055.05 C 1343.98 1096.66 1327.87 1141.71 1339.16 1188.12 C 1318.57 1179.02 1301.54 1161.54 1291.12 1141.73 C 1288.05 1148.27 1284.71 1154.79 1282.51 1161.68 C 1275.56 1183.44 1270.97 1218.34 1270.88 1241.42 C 1294.72 1255.45 1297.55 1262.4 1309.25 1286.72 C 1309.57 1286.94 1309.89 1287.18 1310.22 1287.4 C 1325.55 1297.71 1341.84 1301.29 1356.91 1313.89 C 1378.12 1331.62 1395.63 1352.5 1415.41 1371.61 C 1437.88 1393.31 1461.8 1413.58 1484.2 1435.38 C 1495.7 1446.57 1510.91 1466.47 1523.78 1474.04 C 1535.09 1480.7 1562.01 1489.13 1576.03 1495.37 L 1765.07 1578.49 C 1784.83 1587.19 1805.62 1592.99 1825.5 1601.44 C 1862.64 1617.24 1969.08 1670.31 1991.02 1700.82 C 2000.24 1713.65 2005.45 1729.01 2010.95 1743.68 L 2031.22 1797.98 C 2036.25 1811.39 2041.05 1825.49 2048 1838.05 L 2048 2048 L 1924.97 2048 C 1926.01 2044.98 1927.03 2041.95 1928.01 2038.91 C 1936.75 2012.2 1943.34 1985.36 1949.9 1958.07 C 1964.28 1898.23 1976.33 1837.03 1978.95 1775.39 C 1979.24 1768.71 1981.31 1754.13 1978.59 1748.78 C 1972.21 1807.5 1965.06 1865.61 1952.73 1923.46 C 1943.81 1965.29 1931.32 2006.31 1922.02 2048 L 1916.08 2048 C 1926.36 2004.75 1931.2 1960.98 1938.57 1917.24 C 1941.31 1901.02 1954.31 1843.9 1952.57 1831.9 C 1949.09 1840.63 1945.87 1864.54 1943.05 1875.56 C 1938.49 1893.42 1932.79 1910.99 1928.32 1928.88 C 1918.46 1968.34 1910.11 2008.26 1901.42 2048 L 1567.37 2048 C 1591.03 2008.16 1614.38 1968.38 1637.23 1928.04 C 1602.02 1903.43 1566.96 1878.62 1532.04 1853.61 C 1513.56 1840.44 1494.51 1827.69 1476.66 1813.66 C 1433.33 1779.62 1393.24 1741.68 1352.49 1704.65 C 1365.06 1721.37 1379.83 1736.49 1394.15 1751.72 C 1443.8 1804.49 1497.89 1852.91 1555.82 1896.43 C 1573.61 1909.96 1592.56 1921.87 1610.3 1935.43 C 1585.59 1973.46 1561.25 2011.29 1534.6 2048 L 1497.44 2048 C 1529.71 2016.2 1554.37 1978.64 1578.37 1940.45 C 1525.39 1902.93 1474.64 1862.34 1426.39 1818.89 C 1411.37 1805.43 1396.95 1791.2 1382.31 1777.32 C 1374.59 1769.99 1366.94 1762.07 1358.39 1755.72 L 1358.01 1755.16 L 1358.39 1755.72 C 1368.31 1769.77 1383.53 1782.7 1395.71 1795.1 C 1427.43 1827.4 1459.39 1858.96 1494.17 1888.01 C 1508.62 1900.08 1523 1912.36 1537.81 1923.98 C 1546.67 1930.92 1556.64 1937.18 1564.82 1944.85 C 1552.21 1969.32 1537.58 1992.69 1521.06 2014.71 C 1512.86 2025.79 1503.21 2036.42 1495.85 2048 L 1279.72 2048 C 1280.5 2032.06 1284.04 2016.06 1286.75 2000.36 L 1296.34 1943.33 C 1309.45 1867.91 1324.43 1792.88 1335.92 1717.18 C 1340.95 1684.01 1346.33 1651.8 1348.25 1618.19 C 1310.98 1714.98 1260.77 1807.11 1207.68 1895.99 C 1176.4 1948.35 1144.97 1999.83 1107.39 2048 L 1089.94 2048 C 1097.61 2036.75 1106.35 2026.16 1114.15 2014.97 C 1141.73 1975.44 1168.46 1935.91 1194.02 1895.03 C 1246.62 1811.66 1292.22 1724.09 1330.37 1633.2 C 1337.16 1616.78 1346.27 1598.76 1349.54 1581.36 C 1353.56 1560.08 1347.31 1492.74 1342.17 1470.43 C 1333.16 1512.93 1319.48 1554.29 1304.53 1595.04 C 1288.49 1638.77 1271.28 1681.95 1250.44 1723.65 C 1225.63 1773.29 1197.97 1816.97 1167.01 1863.01 C 1144.24 1896.87 1120.48 1929.51 1095.66 1961.89 C 1083.77 1977.4 1072.1 1993.21 1059.4 2008.07 C 1047.63 2021.82 1034.86 2034.79 1022.49 2048 L 1010.02 2048 C 962.802 1999.76 923.526 1945.97 886.41 1889.76 C 867.334 1861.31 849.305 1832.17 832.358 1802.41 C 820.538 1781.24 809.845 1759.41 798.865 1737.8 C 775.75 1692.3 754.235 1646.69 736.558 1598.74 C 724.236 1564.49 713.765 1529.61 705.191 1494.24 C 702.122 1513.17 700.696 1533.11 699.709 1552.27 C 698.85 1568.95 695.541 1603.13 699.122 1617.65 C 703.307 1634.62 722.435 1667.49 730.952 1683.99 C 778.766 1778.44 832.771 1869.63 892.615 1956.96 C 914.128 1988.14 935.799 2019.84 961.225 2048 L 941.276 2048 C 865.237 1947.23 798.165 1840 740.828 1727.53 C 726.058 1698.95 712.802 1669.68 698.66 1640.81 C 702.649 1688.02 709.13 1734.17 715.913 1781.01 C 722.282 1825 728.266 1869 735.377 1912.89 L 758.393 2048 L 548.492 2048 C 541.063 2035.03 531.746 2022.99 523.668 2010.38 C 506.237 1983.47 489.519 1956.1 473.531 1928.31 C 482.241 1923.96 490.547 1917.77 498.686 1912.4 C 554.051 1875.92 602.433 1829.19 645.663 1779.21 C 655.832 1767.45 669.039 1753.73 675.366 1739.57 L 675.869 1739.01 L 675.366 1739.57 L 674.687 1740.2 C 662.413 1751.86 651.684 1765.42 639.835 1777.56 C 612.137 1805.95 583.005 1834.2 553.505 1860.69 C 537.439 1875.31 520.59 1889.06 503.035 1901.86 C 491.259 1910.56 478.77 1918.74 467.385 1927.92 C 490.4 1971.34 515.476 2008.92 544.881 2048 L 506.986 2048 C 498.428 2033.26 489.071 2018.98 480.609 2004.16 C 465.3 1977.36 451.207 1949.97 437.021 1922.57 C 464.576 1900.63 494.276 1881.47 521.991 1859.76 C 553.627 1834.98 672.642 1731.65 683.368 1699.67 L 683.756 1699.14 L 683.368 1699.67 C 683.146 1699.85 682.921 1700.03 682.701 1700.22 C 673.043 1708.29 665.192 1719.33 656.305 1728.39 C 638.358 1746.7 619.425 1764.03 599.589 1780.27 C 582.986 1793.78 564.616 1803.62 547.3 1815.96 L 409.083 1915.99 C 414.069 1931 422.472 1945.31 429.845 1959.28 C 445.642 1989.22 462.662 2018.39 479.046 2048 L 134.342 2048 C 129.818 2001.27 117.751 1955.57 108.628 1909.62 C 100.893 1870.65 96.0265 1832.04 92.1959 1792.51 L 91.5195 1792.1 L 91.46 1791.75 C 90.738 1806.24 92.5849 1821.71 93.9408 1836.17 C 96.1969 1860.22 98.9369 1884.11 101.844 1908.1 C 107.526 1954.97 111.907 2001.54 120.655 2048 L 105.594 2048 C 101.834 2022.5 94.8666 1997.11 90.6854 1971.55 C 75.5481 1879.02 64.2341 1765.48 73.8769 1672.41 C 53.9315 1732.63 71.3885 1900.4 82.031 1965.9 C 86.5185 1993.51 93.3572 2020.72 99.5158 2048 L 0 2048 L 0 1827.24 C 12.5038 1785.74 31.8364 1723.23 52.6873 1686.84 C 59.2433 1675.39 68.4376 1660.5 78.8381 1652.28 C 87.9775 1645.06 100.951 1639.56 111.148 1633.54 C 209.96 1575.18 320.75 1540.02 427.938 1500.53 C 465.692 1486.62 503.132 1469.36 541.985 1458.89 C 555.104 1439.01 568.966 1422.23 590.167 1410.54 C 595.901 1407.38 603.552 1405.82 608.321 1401.29 C 615.714 1394.27 621.855 1384.67 628.377 1376.75 C 642.588 1359.51 657.389 1342.71 674.142 1327.87 C 685.572 1317.75 698.206 1308.1 711.251 1300.14 C 720.688 1294.38 731.587 1289.94 739.999 1282.72 C 743.998 1279.29 747.082 1274.78 750.293 1270.63 C 760.386 1257.57 770.069 1250.78 785.331 1244.8 C 783.687 1227.34 781.052 1177.71 774.434 1164.16 C 769.148 1153.34 758.503 1143.35 750.627 1134.29 C 742.689 1149.5 732.331 1157.65 716.665 1163.64 C 717.458 1162.43 718.219 1161.2 718.946 1159.95 C 732.523 1136.31 717.43 1109.11 708.495 1086.84 C 704.847 1077.75 701.982 1068.54 699.298 1059.14 C 690.705 1082.9 682.594 1103.36 664.011 1121.09 C 675.748 1085.64 673.505 1054.1 666.049 1018.04 C 657.882 1012.61 649.306 1007.31 642.675 999.979 C 631.606 987.747 624.256 972.249 614.692 958.866 C 602.024 941.141 586.646 925.412 574.384 907.458 C 566.928 896.541 562.245 884.124 555.169 873.028 C 548.516 862.595 540.647 853.426 535.429 842.093 C 537.523 884.448 546.537 903.47 577.653 931.833 C 561.271 925.656 546.86 918.613 533.613 906.924 C 504.772 881.476 486.356 835.969 484.043 798.117 C 461.848 816.995 433.481 825.735 405.497 831.514 C 424.699 821.148 443.072 809.789 454.994 790.896 C 472.412 763.291 468.482 721.42 461.647 690.851 C 421.943 708.608 398.093 709.081 355.313 708.558 C 403.894 691.63 413.134 669.575 443.368 632.041 C 432.684 563.862 435.457 518.738 452.608 452.168 C 437.336 458.173 422.47 465.282 406.82 470.308 C 388.86 476.077 370.52 478.466 351.862 480.571 C 403.542 462.908 461.663 415.359 500.76 377.291 C 525.668 353.039 548.896 327.171 573.854 302.946 C 589.79 287.478 606.611 268.578 625.252 256.558 C 619.877 264.228 614.025 271.431 608.954 279.337 C 575.893 330.878 558.889 382.951 543.465 441.644 C 540.132 454.327 532.793 475.061 533.297 487.393 C 534.884 485.675 534.323 486.82 534.455 484.482 C 534.744 479.339 538.608 472.772 540.402 467.779 C 556.862 421.958 574.266 390.445 597.62 348.127 C 585.409 396.484 577.852 435.084 571.417 484.544 C 560.569 567.92 559.384 651.074 592.619 730.065 C 597.613 741.934 602.703 753.796 609.338 764.863 C 610.56 766.901 609.996 766.103 611.484 767.824 L 612.296 769.401 L 613.195 770.257 L 614.336 772.726 L 615.362 774.45 L 615.831 774.995 L 615.362 774.45 L 614.336 772.726 L 613.195 770.257 L 612.296 769.401 L 611.484 767.824 C 609.689 760.387 604.605 752.499 601.46 745.435 C 599.21 740.38 597.618 735.056 595.889 729.807 C 579.781 680.934 572.914 631.941 575.61 580.468 C 582.701 445.108 644.426 286.72 746.383 194.762 L 746.995 194.207 L 746.383 194.762 C 721.171 205.651 653.947 266.183 636.48 287.403 C 635.82 288.204 635.126 288.976 634.442 289.756 C 634.512 289.492 634.578 289.227 634.653 288.964 C 637.069 280.481 642.028 271.756 646.129 263.917 C 670.296 217.709 709.15 181.512 753.89 155.278 C 763.357 149.713 773.067 144.57 782.99 139.865 C 789.608 136.797 796.47 134.272 802.821 130.655 C 803.123 130.483 803.422 130.304 803.723 130.129 C 772.82 136.122 743.719 152.725 716.946 168.761 C 678.221 191.956 638.645 218.802 606.711 250.922 C 558.087 299.831 519.628 357.601 468.217 404.047 C 475.791 361.697 493.794 314.715 513.425 276.43 C 562.291 181.126 692.567 72.2433 794.434 39.8508 C 834.531 27.1005 876.541 23.2921 914.72 43.2057 C 933.076 24.1591 956.345 10.7111 980.266 0 z M 1044.54 21.8685 C 1036.85 22.092 1028.71 24.7223 1021.41 27.0376 C 988.462 37.3251 958.719 55.9316 935.054 81.0616 C 927.622 88.9438 917.581 99.281 913.643 109.511 L 913.179 109.995 L 913.643 109.511 C 922.843 101.943 932.488 86.2829 943.065 76.872 C 964.652 57.6654 991.097 41.4271 1017.99 30.7672 C 1026.02 27.5812 1035.34 26.376 1043.04 22.624 C 1043.54 22.3781 1044.04 22.1203 1044.54 21.8685 L 1044.99 21.2508 L 1044.54 21.8685 z M 1307.01 96.1558 L 1307.56 96.6315 C 1322.68 111.706 1343.43 125.499 1359.9 140.529 C 1395.74 173.242 1429.62 208.782 1467.27 239.495 L 1467.75 239.995 L 1467.27 239.495 C 1463.78 231.534 1456.21 223.67 1450.71 216.864 C 1417.59 175.848 1379.95 141.544 1335.62 113.073 C 1326.84 107.435 1317.28 100.444 1307.56 96.6315 L 1307.01 96.1558 z M 1040.01 131.249 L 1040.46 131.987 C 1054.8 135.123 1068.75 138.267 1082.33 143.986 C 1098.85 150.938 1113.77 161.096 1128.31 171.441 C 1183.93 210.987 1219.12 254.945 1255.65 311.992 C 1265.49 327.346 1274.21 343.413 1283.1 359.322 C 1289.07 370.01 1296.12 381.318 1300.53 392.735 C 1289.83 381.029 1282.27 365.481 1272.3 352.972 C 1252.76 328.439 1229.39 306.882 1207.79 284.197 C 1195.8 271.614 1184.77 256.661 1171.45 245.574 L 1171 245 L 1170.53 244.182 L 1168.7 243.397 L 1168.21 242.005 L 1168.7 243.397 L 1170.53 244.182 L 1171 245 L 1171.45 245.574 C 1178.03 256.72 1187.41 267.12 1195.48 277.255 C 1207.71 292.578 1219.81 308.002 1231.78 323.526 C 1272.46 376.088 1311.96 430.115 1339.12 491.129 C 1348.83 512.959 1356.6 535.646 1364.1 558.313 C 1367.01 567.085 1379.78 604.789 1379.14 611.166 C 1378.92 613.305 1378.6 612.041 1379.72 614.048 L 1380.17 613.477 C 1380.04 605.568 1378.73 597.59 1377.9 589.722 C 1375.47 566.583 1371.97 544.465 1367.66 521.632 C 1350.89 432.825 1334.46 370.288 1280.45 295.737 C 1272.35 284.548 1263.82 273.753 1254.22 263.797 C 1244.01 253.218 1232.61 243.324 1223.53 231.756 L 1222.62 230.587 C 1299.65 271.466 1382.92 340.684 1436.22 409.472 C 1446.19 422.344 1452.35 436.597 1461.24 448.905 L 1461.81 449.995 L 1461.24 448.905 C 1458.98 433.752 1452.23 417.83 1447.24 403.292 C 1430.33 354.093 1412.85 314.052 1387.05 268.824 C 1379.03 254.758 1369.75 241.448 1361.63 227.451 C 1384.2 241.514 1441.48 315.428 1456.8 339.284 C 1463.54 349.79 1468.09 362.222 1475.23 372.332 L 1475.75 372.995 L 1475.23 372.332 C 1469.54 326.755 1407.35 254.919 1377.59 219.801 C 1396.47 230.256 1412.35 246.04 1430.17 258.196 C 1478.49 291.17 1564.82 339.972 1620.79 354.447 L 1621.99 354.802 L 1620.79 354.447 C 1614.92 350.364 1607.39 347.684 1600.91 344.651 C 1590.37 339.717 1579.9 334.635 1569.51 329.405 C 1552.04 320.575 1535.16 309.349 1518.66 298.815 C 1462.57 262.996 1411.94 219.205 1358.17 180.126 C 1378.69 187.246 1402.58 201.288 1422.44 206.22 L 1422.99 206.749 L 1422.44 206.22 C 1419.56 202.994 1416.1 200.049 1412.85 197.196 C 1393.79 180.441 1368.2 167.652 1345.84 155.611 C 1321.01 142.241 1296.21 128.622 1269.99 118.128 C 1203.51 91.5276 1119.76 78.5036 1048.35 83.6417 C 1000.51 87.0843 961.017 100.733 929.033 137.946 C 899.851 171.898 890.623 212.348 893.808 256.406 C 896.627 247.062 895.511 235.488 897.503 225.629 C 905.202 188.3 923.123 153.844 949.265 126.106 C 983.982 89.7947 1029.63 86.7475 1077.16 86.0051 C 1151.97 84.8367 1215.13 107.106 1278.21 145.543 C 1294.27 155.333 1312.9 166.753 1326.31 179.924 C 1326.53 180.142 1326.75 180.366 1326.97 180.587 C 1318.03 176.123 1309.41 171.056 1300.38 166.763 C 1278.12 156.175 1253.85 146.492 1230.39 138.838 C 1248.49 149.011 1266.39 159.467 1282.97 172.02 C 1326.23 204.766 1365.91 251.564 1389.83 300.304 C 1397.18 315.267 1402.99 331.302 1408.72 346.951 C 1400.33 335.559 1391.52 324.817 1381.78 314.546 C 1358.45 289.949 1332.2 269.018 1304.67 249.335 C 1245.25 206.851 1183.02 174.464 1114.1 150.298 C 1090.5 142.021 1065.73 132.678 1040.46 131.987 L 1040.01 131.249 z M 623.543 171.554 L 622.816 172.178 L 622.005 172.872 L 622.816 172.178 L 623.543 171.554 C 636.388 165.216 647.625 154.503 660.399 147.521 C 700.784 125.445 752.475 114.734 798.341 118.907 C 768.99 108.241 739.949 107.784 709.519 112.315 C 732.336 102.192 754.014 90.2398 777.338 81.0721 C 800.286 72.0571 824.296 66.0282 848.781 63.1338 C 846.146 62.7133 843.502 62.8436 840.845 62.9168 C 796.98 64.1244 740.425 90.4783 702.909 112.855 C 691.66 119.565 680.967 127.328 670.137 134.689 C 654.193 145.527 636.819 157.54 623.543 171.554 z M 740.226 230.58 C 723.141 252.105 704.209 292.298 689.637 317.885 C 684.875 326.246 680.198 336.308 673.82 343.5 C 680.417 321.807 688.587 300.912 697.539 280.104 C 702.813 267.844 709.331 255.249 713.288 242.564 L 713.795 242.005 L 713.288 242.564 C 706.584 250.386 701.764 261.123 697.005 270.218 C 689.868 283.857 682.593 297.606 676.988 311.964 C 671.646 325.65 668.269 340.042 664.46 354.212 C 653.707 394.221 647.181 429.409 640.721 470.173 C 638.799 482.303 635.608 494.292 633.981 506.441 L 633.25 506.995 L 633.981 506.441 C 639.934 490.226 659.977 439.176 668.707 427.177 C 667.821 436.1 660.298 452.417 657.219 461.88 C 652.044 478.206 647.17 494.626 642.601 511.131 C 652.716 492.065 661.363 472.411 672.428 453.822 C 693.455 418.496 718.22 386.702 742.21 353.472 C 735.848 371.495 728.003 388.992 721.878 407.089 C 700.05 471.579 682.338 551.449 686.567 619.789 C 689.738 591.062 691.858 562.905 696.892 534.358 C 714.537 434.295 757.7 342.308 818.904 261.469 C 808.273 308.795 787.125 353.449 773.682 400.008 L 772.571 402.771 L 772.017 403.995 L 772.571 402.771 L 773.682 400.008 C 780.406 388.55 784.568 374.179 789.32 361.714 C 800.135 333.348 819.826 287.609 823.165 258.727 C 833.438 271.671 895.97 369.206 894.383 382.619 C 894.346 382.932 894.23 383.232 894.154 383.538 C 889.983 385.47 883.799 384.815 879.217 384.793 C 865.727 384.727 843.878 384.123 834.434 395.748 C 829.671 401.61 826.418 411.604 823.869 418.651 C 801.391 480.811 796.044 564.229 806.399 629.566 C 836.646 630.65 867.041 632.128 897.044 636.311 C 898.618 638.037 901.978 642.649 904.072 642.99 C 902.702 639.855 901.182 637.034 899.341 634.15 C 902.319 636.791 905.561 639.471 908.089 642.553 C 913.388 649.012 916.947 658.034 923.295 663.438 L 923.785 663.995 L 923.295 663.438 C 920.998 654.741 915.618 646.678 911.783 638.543 C 928.164 649.423 938.801 671.022 943.534 689.66 C 940.217 685.464 936.807 681.313 933.637 677.004 L 933.141 675.429 L 932 672 L 931.14 670.005 L 932 672 L 933.141 675.429 L 933.637 677.004 C 933.988 679.808 935.039 682.122 933.293 684.446 C 895.454 678.028 856.472 672.458 818.168 669.975 C 820.199 675.058 822.32 680.122 824.197 685.263 C 819.372 680.16 815.226 675.394 811.8 669.204 C 791.284 667.997 771.192 666.894 750.65 668.058 C 752.913 684.119 757.472 699.866 760.793 715.743 C 749.212 702.234 744.096 685.186 737.914 668.786 C 727.647 670.183 717.286 671.347 707.157 673.564 C 707.027 684.865 705.149 737.358 710.612 745.548 C 715.721 746.462 722.012 741.857 726.087 739.027 C 728.023 737.681 729.873 736.207 731.706 734.726 C 731.475 734.203 731.228 733.687 731.012 733.158 C 730.865 732.798 730.75 732.427 730.619 732.062 C 734.643 729.929 740.889 733.362 743.238 728.658 L 742.939 726.574 L 744.968 725.559 C 745.494 723.87 745.542 722.802 745.352 721.046 C 746.942 721.229 748.363 721.518 749.915 721.881 C 758.983 718.365 768.22 714.297 777.615 711.784 C 808.997 703.39 848.295 704.29 878.224 717.562 C 892.557 723.918 906.452 734.306 912.343 749.403 C 893.738 728.023 857.483 716.348 830.003 714.368 C 807.206 712.726 781.485 715.865 760.688 725.715 C 773.977 724.625 787.037 721.698 800.32 720.781 C 828.886 718.808 863.037 726.688 885.385 745.36 C 892.194 751.049 897.823 757.898 903.534 764.649 L 900.061 763.358 C 900.405 766.636 911.495 783.699 913.156 795.466 C 897.797 775.258 888.164 760.19 865.686 746.6 L 865.22 746.157 L 865.686 746.6 C 873.488 759.144 877.229 772.036 874.04 786.89 C 871.605 798.234 865.517 807.181 858.053 815.784 C 866.224 816.693 876.09 815.901 883.839 817.98 C 877.24 819.306 870.31 819.328 863.59 819.577 C 834.339 820.665 819.513 815.695 792.153 810.513 C 766.073 805.574 747.447 805.729 724.493 790.247 C 717.766 785.71 711.532 780.541 705.346 775.305 C 706.494 781.663 707.67 787.959 708.195 794.406 C 692.434 775.508 680.342 742.661 670.709 719.638 C 674.426 770.733 686.485 843.882 715.555 886.492 C 719.4 892.128 724.018 896.634 728.778 901.475 C 705.767 888.499 684.315 874.036 663.969 857.168 C 674.671 906.131 687.931 954.5 703.697 1002.08 C 712.715 1030.05 721.095 1058.46 735.738 1084.13 C 746.884 1103.68 761.287 1120.88 775.531 1138.18 C 803.056 1171.61 831.677 1202.69 862.89 1232.74 C 888.811 1257.69 913.734 1286.94 944.14 1306.42 C 970.997 1323.63 1001.46 1332.84 1033.22 1325.79 C 1046.18 1322.91 1058.24 1317.34 1069.72 1310.79 C 1100.16 1293.44 1127.77 1270.52 1155.03 1248.68 C 1192.47 1218.69 1227.73 1189.14 1260.56 1154.05 C 1270.53 1143.4 1281.32 1132.39 1289.11 1120.01 C 1317.02 1075.66 1346.38 1002.8 1363.61 952.818 C 1372.14 928.077 1378.95 902.776 1388.96 878.561 C 1372.67 886.894 1358.95 896.628 1344.58 907.861 C 1337.53 913.375 1330.27 920.095 1322.56 924.539 C 1330.29 913.249 1339.5 903.159 1346.73 891.434 C 1363.49 864.29 1377.13 819.589 1379.37 787.73 C 1371.08 773.433 1360.66 760.174 1349.44 748.057 C 1338.34 736.062 1314.16 711.401 1300.87 703.936 C 1280.9 692.714 1236.1 689.064 1213.22 688.224 C 1254.02 728.963 1276.63 709.226 1312.86 735.301 C 1297.4 731.334 1281.8 726.895 1265.96 724.712 C 1255.29 723.24 1236.04 723.336 1226.71 720.489 C 1223.73 719.581 1220.72 717.438 1217.82 716.159 C 1201.21 708.853 1186.59 702.099 1172.1 690.926 C 1151 690.693 1129.73 694.323 1108.64 693.512 L 1107.28 691.961 C 1115.92 685.817 1126.59 671.573 1135.68 663.545 C 1126.35 651.607 1115.72 640.652 1106.03 628.996 C 1086.76 605.811 1068.42 579.414 1054.82 552.471 C 1046.99 536.955 1041.7 520.497 1034.88 504.56 L 1034.25 504.005 L 1034.88 504.56 C 1039.04 528.502 1047.54 553.126 1054.39 576.512 C 1067.91 622.592 1081.25 669.449 1100.23 713.651 C 1106.4 728.032 1115.07 741.266 1121.38 755.552 C 1116.68 753.08 1112.44 748.805 1108.54 745.234 C 1074.5 714.074 1042.1 675.752 1019.75 635.241 C 975.837 555.68 962.567 458.113 958.282 368.632 C 951.049 370.369 930.432 379.177 924.567 377.106 C 924.617 375.401 924.574 374.164 924.272 372.462 C 920.252 372.555 913.956 377.543 910.416 379.659 C 910.254 376.884 909.841 374.212 909.389 371.474 L 908.266 381.17 C 893.603 371.587 866.786 313.512 856.691 295.726 C 846.459 277.698 835.945 259.729 822.388 243.961 C 811.196 256.938 798.006 267.957 785.751 279.896 C 766.51 298.373 748.319 317.911 731.26 338.419 C 736.904 327.798 743.156 317.512 749.986 307.612 C 763.359 287.922 809.858 230.462 830.72 221.928 C 834.129 220.534 836.75 221.631 840.11 220.99 L 839.148 219.386 C 834.95 216.706 830.583 214.468 825.485 215.647 C 783.817 225.287 710.05 340.408 686.258 376.318 C 695.957 341.241 708.54 305.849 721.942 272.023 C 727.388 258.277 736.219 244.7 740.226 230.58 L 740.749 230.005 L 740.226 230.58 z M 1025.69 297.287 L 1026.49 298.559 C 1037.47 316.327 1045.69 335.721 1056.64 353.616 C 1070.21 375.794 1083.96 398.197 1099.05 419.381 C 1143.81 481.553 1197.15 537.067 1257.5 584.267 C 1271.43 595.158 1285.51 605.844 1299.76 616.322 C 1306.64 621.391 1313.93 627.634 1321.53 631.5 L 1322.18 632.187 L 1323.38 633.212 L 1324.95 634.373 L 1323.38 633.212 L 1322.18 632.187 L 1321.53 631.5 C 1311.27 618.442 1279.6 598.231 1265.28 585.489 C 1223.1 547.969 1187.5 503.502 1154.43 457.933 C 1146.06 446.402 1136.31 434.604 1129.42 422.156 C 1141.12 433.653 1151.22 447.635 1161.66 460.361 C 1181.98 485.552 1203.53 509.712 1226.26 532.752 C 1234.05 540.711 1241.83 549.43 1250.58 556.345 L 1251.23 557.156 L 1251.96 557.901 L 1251.23 557.156 L 1250.58 556.345 C 1242.67 543.766 1220.58 521.698 1209.77 509.067 C 1183.91 478.879 1163.47 447.641 1141.82 414.491 C 1133.71 402.072 1122.94 388.466 1117.68 374.554 C 1153.01 409.269 1193.45 437.445 1235.63 463.174 C 1244.57 468.624 1254.22 475.717 1263.95 479.443 L 1265.37 480.271 L 1266.27 481.209 L 1266.99 481.77 L 1266.27 481.209 L 1265.37 480.271 L 1263.95 479.443 C 1259.57 475.09 1253.84 471.673 1248.83 468.07 C 1238.65 460.75 1228.64 453.482 1219.4 444.968 C 1201.01 428.036 1182.45 410.478 1165.08 392.508 C 1153.35 380.367 1142.41 367.464 1130.7 355.295 C 1101.6 325.073 1073.07 296.916 1047.53 263.39 C 1059.1 289.384 1076.2 319.19 1090.33 344.378 C 1090.02 344.117 1089.7 343.858 1089.39 343.593 C 1064.48 322.358 1027.95 264.604 1010.18 235.102 C 1002.93 223.069 996.493 210.153 988.464 198.645 C 986.432 195.734 984.429 193.122 980.725 192.518 C 973.982 196.304 968.162 205.625 963.432 211.718 C 940.654 241.059 921.714 269.556 911.566 305.875 C 908.28 317.637 904.83 331.376 905.221 343.674 C 914.507 305.794 922.231 278.442 944.679 245.359 C 953.547 232.29 964.068 220.002 972.139 206.451 C 969.902 226.714 967.66 247.133 967.153 267.528 C 965.333 340.812 975.603 426.136 992.418 497.402 C 997.005 516.842 1002.86 535.868 1008.41 555.042 C 1014.18 574.942 1019.52 594.688 1026.43 614.246 C 1026.9 607.178 1008.17 538.284 1005.17 524.789 C 999.997 501.489 995.887 477.856 991.658 454.368 C 978.988 383.989 970.26 314.96 973.738 243.315 C 974.3 231.75 974.869 207.846 981.537 198.383 L 982.81 198.229 C 987.387 210.859 990.336 224.334 993.859 237.304 C 1001.68 266.094 1009.04 295.151 1017.58 323.731 C 1035.32 383.04 1061.15 438.734 1089.35 493.672 C 1096.76 508.09 1111.77 540.113 1121.36 550.991 L 1122.27 552.421 L 1123.24 554.517 L 1123.76 554.995 L 1123.24 554.517 L 1122.27 552.421 L 1121.36 550.991 C 1118.2 542.145 1113.14 533.527 1108.91 525.13 C 1101.17 509.784 1093.39 494.494 1086.62 478.69 C 1068.85 437.198 1054.91 394.811 1041.77 351.685 C 1036.28 333.635 1030.39 315.564 1025.69 297.287 z M 1527.19 404.005 L 1527.63 405.491 L 1529.57 407.629 L 1529.82 408.434 C 1531.39 415.651 1536.41 423.826 1539.42 430.696 C 1543.28 439.695 1546.33 449.018 1548.54 458.556 C 1550.89 468.387 1552.86 479.082 1553.84 489.146 C 1554.34 494.342 1553.64 503.27 1555.21 508.014 C 1555.43 508.689 1556.05 509.159 1556.47 509.732 C 1556.65 508.173 1556.76 506.654 1556.82 505.087 C 1557.73 479.492 1547.7 427.582 1529.82 408.434 L 1529.57 407.629 L 1527.63 405.491 L 1527.19 404.005 z M 632.334 511.678 C 628.754 520.479 627.453 533.414 627.513 542.887 L 628.849 541.985 C 630.308 532.158 632.519 521.598 632.334 511.678 L 632.719 510.705 L 632.334 511.678 z M 1398.11 537.005 L 1398.34 539.739 L 1400.52 541.691 L 1400.69 543.067 C 1400.75 543.385 1400.81 543.704 1400.88 544.022 C 1404.26 559.854 1411.48 574.558 1414.43 590.647 C 1426 653.72 1417.49 741.931 1397.89 802.935 C 1393.45 816.731 1387.72 830.074 1381.85 843.306 C 1378.75 850.277 1374.62 857.639 1372.52 864.941 L 1371.78 866.441 L 1370.74 868.523 L 1370.22 868.995 L 1370.74 868.523 L 1371.78 866.441 L 1372.52 864.941 C 1390.22 845.952 1409.36 777.819 1414.22 750.276 C 1424.19 693.839 1427.02 622.298 1410.49 567.305 C 1408.16 559.562 1405.29 549.666 1400.69 543.067 L 1400.52 541.691 L 1398.34 539.739 L 1398.11 537.005 z M 1143.24 556.005 L 1143.69 557.474 L 1144.53 557.798 C 1148.46 569.86 1158.37 582.343 1164.69 593.525 C 1174.37 610.637 1183.2 628.379 1192.49 645.723 C 1205.28 646.666 1218.12 648.591 1230.85 650.226 C 1218.82 637.595 1205.31 626.582 1193.52 613.608 C 1183.89 603.015 1173.96 592.481 1164.73 581.541 C 1158.32 573.945 1152.19 564.04 1144.53 557.798 L 1143.69 557.474 L 1143.24 556.005 z M 924.229 657.005 L 924.714 658.502 L 925.794 658.995 L 924.714 658.502 L 924.229 657.005 z M 417.131 682.544 L 415.659 683.306 L 415.028 683.833 L 415.659 683.306 L 417.131 682.544 C 419.798 681.568 422.281 680.163 424.726 678.728 C 455.574 660.621 514.794 585.688 524.323 549.032 C 516.854 557.385 504.543 580.247 497.241 591.442 C 482.528 613.995 467.589 636.139 448.295 655.128 C 438.384 664.882 427.501 673.332 417.131 682.544 z M 1118.68 685.544 L 1118.21 685.918 L 1118.68 685.544 C 1125.7 682.021 1136.03 673.62 1139.38 666.441 C 1132.87 668.832 1122.92 680.029 1118.68 685.544 z M 849.34 783.472 L 849.2 784.477 C 841.895 793.5 834.278 798.979 823.163 802.394 L 821.861 801.721 C 811.961 796.544 804.246 790.046 797.363 781.24 L 796.125 780.992 C 795.214 784.773 794.889 788.686 796.893 792.189 C 798.48 794.963 800.553 797.561 802.482 800.105 C 810.794 808.072 827.175 812.164 838.713 811.813 C 844.069 811.65 849.853 809.989 853.572 805.925 C 856.182 803.073 856.858 800.01 857.37 796.296 C 855.743 794.243 856.781 794.821 854.333 794.432 L 854.596 796.574 C 852.561 796.912 851.536 796.692 849.599 796.01 C 847.94 793.855 847.728 793.473 848.075 790.611 C 848.127 790.182 848.501 789.039 848.622 788.631 C 849.11 786.986 849.292 786.143 849.2 784.477 L 849.34 783.472 L 850.995 782.211 L 849.34 783.472 z M 504.324 655.71 C 503.78 660.583 503.644 665.574 503.675 670.474 C 503.908 707.95 513.83 748.838 528.914 783.15 C 531.811 789.74 535.263 798.372 540.394 803.481 L 540.841 803.995 L 540.394 803.481 C 539.127 797.107 534.838 790.039 532.328 783.895 C 527.665 772.481 523.44 761.014 520.032 749.15 C 514.799 730.569 510.893 711.639 508.344 692.504 C 506.824 680.249 506.34 667.905 504.324 655.71 z M 1384.97 869.745 L 1383.1 871.09 L 1382.17 871.912 L 1383.1 871.09 L 1384.97 869.745 C 1403.21 862.171 1432.29 833.393 1445.74 818.021 C 1490.84 766.486 1507.07 704.429 1512.93 637.987 C 1515 614.459 1516.26 592.055 1514.74 568.446 C 1512.8 571.155 1513.85 579.975 1513.77 583.638 C 1513.38 601.825 1511.82 619.604 1509.97 637.694 C 1504.39 692.233 1492.31 746.081 1461.56 792.506 C 1447.96 813.049 1429.41 834.021 1410.24 849.696 C 1402.4 856.098 1392.24 861.611 1385.51 869.117 C 1385.32 869.323 1385.15 869.536 1384.97 869.745 z M 1452.21 1428.01 L 1453.05 1428.96 L 1453.74 1429.71 C 1457.95 1437.95 1464.36 1445.48 1469.81 1452.96 C 1477.79 1463.9 1485.6 1475.05 1492.46 1486.73 C 1526.73 1545.05 1556.76 1605.15 1587.54 1665.33 C 1600.58 1690.83 1616.82 1716.25 1627 1743 C 1613.07 1751 1598.08 1757.81 1583.71 1765.03 C 1566.55 1773.66 1549.56 1782.8 1532.26 1791.11 C 1518.89 1797.52 1503.4 1803.13 1491.05 1811.2 L 1491.4 1812.31 C 1501.18 1815.4 1511.64 1810.76 1520.93 1807.54 C 1545.08 1799.57 1569.35 1790.24 1592.89 1780.65 C 1615.86 1771.29 1638.14 1761.44 1661.92 1754.19 C 1656.78 1741.78 1648.81 1729.53 1641.95 1717.94 L 1610.48 1664.62 L 1541.71 1546.06 C 1528.22 1523.26 1514.97 1499.45 1499.26 1478.09 C 1486.74 1461.06 1469.4 1443.98 1453.74 1429.71 L 1453.05 1428.96 L 1452.21 1428.01 z M 796.983 1194.38 C 803.156 1237.31 805.561 1281.53 805.956 1324.9 C 806.08 1338.62 802.736 1369.63 807.175 1380.76 C 810.547 1389.22 815.94 1397.5 820.599 1405.36 C 850.12 1455.14 889.652 1497.79 930.346 1538.5 C 936.965 1545.12 948.228 1558.64 956.274 1562.4 C 966.578 1573.91 980.279 1582.12 989.913 1594.37 C 1009.11 1618.78 1011.79 1698.83 1008.72 1729.8 L 1023.35 1729.84 C 1021.2 1682.34 1031.99 1637.28 1045.94 1592.22 C 1049.7 1580.08 1053.04 1566.93 1059.01 1555.67 C 1067.34 1550.63 1075.66 1546.13 1083.65 1540.48 C 1145.34 1496.87 1206.59 1425.5 1245.57 1361.39 C 1244.99 1300.17 1247.93 1238.89 1259.07 1178.55 C 1244.46 1193.11 1231.09 1208.91 1217.32 1224.27 C 1199.65 1244.18 1181.61 1263.75 1163.19 1282.96 C 1133.87 1313.48 1100.18 1352.31 1064.16 1374.66 C 1038.09 1390.82 998.392 1408.78 966.977 1401.14 C 959.414 1399.31 952.424 1396.23 946.256 1391.45 C 933.546 1381.59 923.429 1366.88 913.084 1354.59 C 869.766 1303.14 831.949 1251.8 796.983 1194.38 z M 956.004 1634.82 C 954.054 1622.42 952.299 1613.49 945.027 1602.99 C 947.166 1619.3 949.348 1635.72 951.792 1651.98 C 949.16 1644.19 948.935 1636.09 947.792 1628.02 C 946.733 1620.55 944.758 1613.26 942.65 1606.03 C 940.295 1610.35 937.812 1614.61 935.961 1619.17 C 937.596 1629.23 938.812 1639.71 939.295 1649.9 C 936.497 1641.94 935.2 1633.68 933.08 1625.54 C 929.685 1633.53 927.591 1642 924.2 1649.92 C 931.128 1659.88 939.703 1668.9 947.679 1678.06 C 962.754 1695.37 978.114 1712.43 992.425 1730.39 L 1006.97 1729.87 C 1001 1705.76 997.299 1681.45 994.049 1656.84 C 991.658 1638.73 990.132 1619.82 985.134 1602.22 C 966.345 1591.37 951.149 1577.16 935.161 1562.72 C 873.503 1507.02 796.901 1417.29 774.756 1336 C 771.752 1324.97 768.935 1310.95 776.282 1300.83 C 777.093 1299.71 777.339 1299.62 778.304 1298.91 C 780.578 1299.92 780.526 1300.17 781.404 1302.41 C 783.988 1308.99 784.367 1317.77 785.338 1324.78 C 787.782 1304.43 789.171 1281.15 786.051 1260.93 C 770.743 1266.72 763.431 1277.18 756.867 1291.59 C 754.229 1297.42 751.816 1303.35 749.633 1309.36 C 736.075 1346.67 710.56 1427.07 710.815 1465.02 C 711.078 1504.02 766.581 1638.22 785.677 1679.16 C 807.818 1726.62 829.983 1770.95 857.139 1815.85 C 860.397 1795.97 866.038 1776.75 871.718 1757.45 C 884.6 1713.69 900.022 1671.82 918.101 1629.97 C 923.378 1617.75 932.592 1593.02 943.129 1585.37 C 945.829 1583.41 950.34 1579.84 953.541 1580.23 C 952.339 1587.24 947.997 1591.32 944.188 1596.9 C 962.764 1611.05 969.501 1628.96 972.57 1651.62 C 974.238 1663.94 974.982 1676.67 975.048 1689.11 C 966.363 1665.1 970.135 1634.2 954.993 1613.23 C 955.624 1620.46 956.085 1627.56 956.004 1634.82 z M 1249.34 1701.48 L 1247.44 1703.63 L 1246.77 1705.6 C 1246.54 1705.81 1246.28 1706 1246.06 1706.23 C 1240.32 1712.19 1234.64 1725.9 1230.19 1733.44 C 1217.56 1754.87 1179.03 1819.13 1156.46 1827.46 C 1153.64 1826.51 1153.09 1824.95 1151.85 1822.23 C 1147.69 1813.11 1146.38 1801.2 1144.19 1791.41 C 1141.99 1781.53 1139.17 1772.01 1135.79 1762.46 C 1131.18 1765.92 1125 1769.65 1121.35 1774.01 C 1121.3 1776.64 1121.18 1779.11 1120.73 1781.71 C 1119.13 1783.2 1117.52 1784.5 1115.75 1785.77 C 1102.44 1816.45 1090.03 1849.65 1081 1881.87 C 1083.14 1895.69 1102.81 1895.82 1091.03 1917.23 C 1092.49 1925.75 1094.44 1934.01 1096.63 1942.36 C 1114 1920.65 1130.43 1898.19 1145.88 1875.07 C 1162.41 1850.77 1243.64 1724.31 1246.77 1705.6 L 1247.44 1703.63 L 1249.34 1701.48 L 1249.78 1700.01 L 1249.34 1701.48 z M 625.177 402.5 L 625.998 402.5 L 625.177 402.5 z M 624.401 403.574 C 617.37 449.689 616.084 527.018 627.776 572.239 C 628.933 559.829 623.239 533.091 622.619 517.117 C 622.137 504.717 625.055 405.219 624.401 403.574 z M 771.508 405.5 L 772.328 405.5 L 771.508 405.5 z M 809.707 415.813 C 779.223 463.069 756.957 553.144 752.555 609.093 C 751.918 617.181 750.13 627.812 751.702 635.711 C 754.168 636.496 755.611 635.399 757.974 634.535 C 770.955 631.225 783.458 629.863 796.77 629.061 C 782.77 572.293 788.26 513.165 799.332 456.415 C 801.204 446.817 810.115 423.97 809.707 415.813 z M 638.325 499.525 C 635.412 507.655 632.577 518.325 635.396 526.866 C 636.725 517.959 637.944 509.019 639.574 500.162 L 638.325 499.525 z M 643.45 508.5 L 644.09 508.5 L 643.45 508.5 z M 1580.38 514.5 L 1581.12 514.5 L 1580.38 514.5 z M 744.483 530.973 L 745.037 531.5 L 744.483 530.973 z M 743.488 532.75 C 738.014 545.299 708.177 641.306 711.538 650.298 C 711.745 650.852 711.976 651.063 712.329 651.469 C 718.837 648.225 725.237 645.578 732.194 643.434 C 731.116 624.359 729.907 605.058 732.688 586.063 C 734.518 573.562 744.15 540.862 743.488 532.75 z M 1397.51 535.5 L 1398.49 535.5 L 1397.51 535.5 z M 524.241 548.5 L 525.136 548.5 L 524.241 548.5 z M 1027.31 615.911 L 1028.45 616.5 L 1027.31 615.911 z M 1380.18 615.5 L 1381 615.5 L 1380.18 615.5 z M 922.351 653.5 L 923.288 653.5 L 922.351 653.5 z M 923.462 655.5 L 924.447 655.5 L 923.462 655.5 z M 926.261 660.5 L 927.143 660.5 L 926.261 660.5 z M 927.474 662.5 L 928.308 662.5 L 927.474 662.5 z M 789.638 742.088 C 778.582 745.08 768.598 748.642 758.301 753.664 C 747.204 759.076 736.297 765.671 724.445 769.274 C 731.065 780.57 739.405 790.752 750.7 797.647 C 764.255 804.829 776.854 806.933 791.836 809.103 C 782.441 795.758 778.618 782.552 781.448 766.266 C 782.98 757.45 786.562 749.969 791.685 742.686 C 790.349 741.818 791.045 741.96 789.638 742.088 z M 806.334 742.224 C 803.33 743.827 800.375 745.578 799.305 749.032 C 798.682 751.043 798.577 753.323 799.65 755.235 C 801.22 758.032 803.915 759.85 807.032 760.431 C 809.583 760.907 811.782 760.646 814.301 760.173 C 818.113 757.934 821.839 756.128 823.179 751.591 C 823.71 749.792 823.15 748.712 822.735 746.954 C 820.592 744.352 818.542 742.407 815.028 742.012 C 812.209 741.696 809.158 742.03 806.334 742.224 z M 806.833 763.005 C 804.52 766.266 802.279 769.412 802.684 773.601 C 802.858 775.389 803.818 775.993 804.922 777.306 C 811.65 780.067 817.709 778.758 824.419 776.381 C 827.119 774.503 828.891 773.349 830.258 770.206 C 830.069 768.795 830.313 768.16 829.143 767.159 C 824.382 763.088 812.846 762.506 806.833 763.005 z M 575.6 765.813 C 569.64 794.637 561.179 861.369 577.473 886.453 C 592.534 909.636 611.381 929.811 627.582 952.123 C 637.109 965.242 644.082 982.592 655.647 993.868 C 665.702 1003.67 681.206 1011.97 694.102 1017.51 C 689.136 1003.79 684.46 989.958 680.076 976.037 C 672.772 952.886 660.711 931.43 654.125 908.123 C 649.468 891.644 649.944 873.933 646.541 857.129 C 629.737 842.342 616.664 827.312 603.344 809.363 C 597.102 826.999 596.664 844.391 598.319 862.882 C 589.488 845.523 591.529 828.044 597.355 810.036 C 598.173 807.557 599.064 805.103 600.026 802.676 C 592.901 794.24 587.067 785.429 581.353 775.989 C 579.484 772.901 577.759 768.578 575.6 765.813 z M 541.416 805.5 L 542.199 805.5 L 541.416 805.5 z M 1464.1 822.652 C 1462.11 824.567 1459.98 825.835 1459.4 828.582 C 1469.72 849.205 1469.46 876.334 1462.12 898.007 C 1461.3 900.411 1460.3 902.742 1459.26 905.053 C 1458.8 882.947 1457.8 860.56 1449.44 839.818 C 1444.33 843.473 1439.45 847.106 1434.84 851.373 C 1440.83 871.122 1431.45 919.306 1421.86 937.217 C 1410.72 958.02 1381.85 978.657 1361.12 988.775 C 1374.36 974.246 1415.92 937.939 1421.83 925.206 C 1428.35 911.179 1428.57 888.32 1427.78 873.035 C 1427.53 868.153 1426.89 863.245 1426.16 858.413 C 1414.99 865.798 1403.88 873.329 1392.55 880.462 C 1394.5 883.115 1396.43 885.79 1398.32 888.485 C 1405.44 899.769 1412.57 911.507 1408.85 925.468 C 1407.9 929.009 1404.95 934.809 1401.79 936.771 C 1401.54 936.925 1401.26 937.014 1400.99 937.136 C 1398.76 934.971 1399.29 931.918 1399.23 928.905 C 1399.01 918.275 1396.78 910.606 1392.1 901.139 L 1391.75 902.584 C 1384.93 930.057 1369.65 968.376 1358.57 994.57 C 1353.6 1006.34 1347.4 1018.14 1343.35 1030.22 C 1342.59 1032.49 1342.15 1034.16 1342.95 1036.5 C 1347.58 1039.1 1354.37 1037.48 1359.38 1036.08 C 1380.68 1030.15 1434.84 969.84 1449.96 950.279 C 1455.42 943.288 1460.27 935.838 1464.45 928.014 C 1479.55 899.938 1479.24 864.73 1470.1 834.757 C 1468.99 831.121 1467.4 824.579 1464.1 822.652 z M 1369.55 870.5 L 1370.49 870.5 L 1369.55 870.5 z M 1263.17 1254.37 C 1261.53 1281.97 1260.06 1309.37 1259.83 1337.04 C 1265.07 1319.08 1265.61 1299.96 1271.77 1282.2 C 1279.83 1293.2 1281.52 1303.53 1279.36 1317 C 1270.23 1374.01 1183.09 1472.33 1139.31 1512.62 C 1126.78 1524.14 1113.06 1534.96 1099.2 1544.85 C 1087.75 1553.02 1075.93 1558.11 1063.65 1564.56 C 1056.08 1581.72 1052.53 1601.6 1047.95 1619.79 C 1038.83 1655.97 1028.4 1692.66 1024.44 1729.86 C 1033.07 1730.51 1041.89 1730.82 1050.45 1731.98 C 1072.11 1715.4 1086.7 1690.31 1105.93 1671.16 C 1101.35 1652.46 1095.16 1634.43 1089.45 1616.07 C 1087.92 1626.18 1086.63 1636.61 1083.43 1646.35 C 1083.09 1642.37 1084.39 1638.94 1084.97 1635.07 C 1086.37 1625.74 1087.45 1615.19 1085.19 1605.98 C 1085.01 1605.25 1084.88 1604.51 1084.72 1603.78 L 1084.41 1602.33 C 1069.83 1629.99 1068 1660.29 1057.86 1689.22 C 1057.6 1688.11 1057.54 1688.6 1057.82 1687.77 C 1059.04 1666.53 1060.44 1645.69 1064.68 1624.81 C 1069.08 1603.12 1083.6 1582.22 1080.95 1559.93 C 1092.32 1580.93 1098.82 1606.21 1106.74 1628.81 C 1127.36 1687.68 1147.68 1746.94 1164.23 1807.1 C 1174.88 1795.25 1185.38 1783.49 1194.88 1770.68 C 1210.13 1750.1 1223.24 1727.66 1236.01 1705.48 C 1273.94 1639.65 1305.58 1571.36 1325.44 1497.77 C 1329.89 1481.28 1337.04 1461.41 1336.44 1444.32 C 1335.73 1424.36 1325.5 1397.67 1320.21 1378 C 1312.1 1347.88 1306.04 1315.18 1293.81 1286.48 C 1290.1 1277.78 1285.23 1269.65 1277.96 1263.44 C 1273.56 1259.69 1268.31 1256.96 1263.17 1254.37 z M 596.893 1420.02 C 586.235 1425.9 575.715 1433.66 567.72 1442.91 C 557.926 1454.24 549.843 1467.19 541.531 1479.63 C 520.307 1511.38 500.824 1544.28 481.27 1577.08 L 435.875 1654.49 C 420.548 1680.36 404.857 1705.87 390.896 1732.53 C 416.569 1742.75 442.011 1753.54 467.206 1764.89 C 491.123 1775.88 514.635 1787.97 538.752 1798.48 L 552.801 1803.96 C 556.247 1801.29 559.591 1798.77 562.547 1795.54 C 550.414 1789.07 537.675 1783.89 525.446 1777.62 C 508.589 1768.98 492.163 1759.48 475.428 1750.6 C 457.678 1741.18 439.696 1732.28 422.092 1722.58 C 431.479 1704.37 442.157 1686.81 451.977 1668.83 C 487.59 1603.7 524.172 1539.1 561.71 1475.05 C 565.95 1467.73 570.136 1460.43 574.927 1453.44 C 580.339 1445.55 594.584 1428.72 597.37 1421.02 L 596.893 1420.02 z M 894.089 1728.52 C 882.795 1763.49 871.409 1799.18 864.433 1835.33 C 891.888 1878.43 918.628 1921.86 950.125 1962.17 C 953.441 1948.7 958.943 1917.23 965.37 1906.03 C 967.513 1902.28 970.631 1899.18 974.395 1897.05 C 985.235 1890.89 1002.94 1888.91 1015.25 1889.39 C 1035.88 1891.24 1055.88 1896.86 1076.39 1898.99 C 1060.77 1885 1030.1 1882.15 1009.89 1883.35 C 996.012 1884.16 975.711 1887.25 965.772 1897.92 C 963.14 1900.74 962.854 1908.29 959.997 1909.4 C 958.486 1908.79 957.321 1908.78 956.566 1907.21 C 954.833 1903.59 956.421 1897.97 957.805 1894.45 C 958.916 1891.63 960.553 1888.86 962 1886.2 C 956.65 1861.96 949.401 1838 943.15 1813.96 C 940.243 1802.79 938.582 1789.14 933.848 1778.78 C 931.459 1773.56 899.157 1733.38 894.089 1728.52 z M 1008.76 1742.44 C 984.727 1743.4 960.554 1747.28 943.492 1765.86 C 940.322 1769.31 937.857 1773.06 935.527 1777.11 C 965.843 1751.14 988.406 1746.32 1028.36 1749.44 C 1036.35 1750.07 1044.32 1751.02 1052.24 1752.3 C 1081.51 1758.12 1098.33 1764.42 1116.9 1788.06 C 1109.76 1771.33 1101.28 1761.12 1084.05 1754.21 C 1060.43 1744.72 1034.08 1741.57 1008.76 1742.44 z"/>
<path transform="translate(0,0)" fill="rgb(0,0,0)" d="M 1326.97 180.587 L 1328.97 182.028 L 1326.97 180.587 z"/>
<path transform="translate(0,0)" fill="rgb(0,0,0)" d="M 1328.97 182.028 L 1330.48 183.244 L 1328.97 182.028 z"/>
<path transform="translate(0,0)" fill="rgb(0,0,0)" d="M 1330.48 183.244 L 1332.39 184.458 L 1330.48 183.244 z"/>
<path transform="translate(0,0)" fill="rgb(0,0,0)" d="M 1332.39 184.458 L 1332.77 184.995 L 1332.39 184.458 z"/>
<path transform="translate(0,0)" fill="rgb(0,0,0)" d="M 1361.63 227.451 L 1361.12 227.044 L 1361.63 227.451 z"/>
<path transform="translate(0,0)" fill="rgb(0,0,0)" d="M 1222.62 230.587 L 1222.15 230.141 L 1222.62 230.587 z"/>
<path transform="translate(0,0)" fill="rgb(0,0,0)" d="M 625.911 255.924 L 626.814 255.119 L 625.911 255.924 z"/>
<path transform="translate(0,0)" fill="rgb(0,0,0)" d="M 625.252 256.558 L 625.911 255.924 L 625.252 256.558 z"/>
<path transform="translate(0,0)" fill="rgb(0,0,0)" d="M 633.816 291.518 L 634.442 289.756 L 633.816 291.518 z"/>
<path transform="translate(0,0)" fill="rgb(0,0,0)" d="M 633.175 292.964 L 633.816 291.518 L 633.175 292.964 z"/>
<path transform="translate(0,0)" fill="rgb(0,0,0)" d="M 1025.69 297.287 L 1025.2 296.062 L 1025.69 297.287 z"/>
<path transform="translate(0,0)" fill="rgb(0,0,0)" d="M 643.191 309.5 L 642.422 309.5 L 643.191 309.5 z"/>
<path transform="translate(0,0)" fill="rgb(0,0,0)" d="M 641.388 312.515 L 641.786 311.005 L 641.388 312.515 z"/>
<path transform="translate(0,0)" fill="rgb(0,0,0)" d="M 639.582 314.425 L 641.388 312.515 L 639.582 314.425 z"/>
<path transform="translate(0,0)" fill="rgb(0,0,0)" d="M 639.213 314.995 L 639.582 314.425 L 639.213 314.995 z"/>
<path transform="translate(0,0)" fill="rgb(0,0,0)" d="M 639.179 316.5 L 638.369 316.5 L 639.179 316.5 z"/>
<path transform="translate(0,0)" fill="rgb(0,0,0)" d="M 637.378 319.483 L 637.798 318.005 L 637.378 319.483 z"/>
<path transform="translate(0,0)" fill="rgb(0,0,0)" d="M 635.426 321.632 L 637.378 319.483 L 635.426 321.632 z"/>
<path transform="translate(0,0)" fill="rgb(0,0,0)" d="M 634.823 323.57 L 635.426 321.632 L 634.823 323.57 z"/>
<path transform="translate(0,0)" fill="rgb(0,0,0)" d="M 634.04 324.995 L 634.823 323.57 L 634.04 324.995 z"/>
<path transform="translate(0,0)" fill="rgb(0,0,0)" d="M 1723.42 339.776 L 1723.99 339.238 L 1723.42 339.776 z"/>
<path transform="translate(0,0)" fill="rgb(0,0,0)" d="M 673.25 343.995 L 673.82 343.5 L 673.25 343.995 z"/>
<path transform="translate(0,0)" fill="rgb(0,0,0)" d="M 1090.33 344.378 L 1090.82 344.902 L 1090.33 344.378 z"/>
<path transform="translate(0,0)" fill="rgb(0,0,0)" d="M 1117.68 374.554 L 1117.19 374.005 L 1117.68 374.554 z"/>
<path transform="translate(0,0)" fill="rgb(0,0,0)" d="M 1300.53 392.735 C 1301.01 393.443 1301.66 394.217 1302 395 L 1300.53 392.735 z"/>
<path transform="translate(0,0)" fill="rgb(0,0,0)" d="M 1302 395 L 1303.37 397.537 L 1302 395 z"/>
<path transform="translate(0,0)" fill="rgb(0,0,0)" d="M 1303.37 397.537 L 1304.15 398.237 L 1303.37 397.537 z"/>
<path transform="translate(0,0)" fill="rgb(0,0,0)" d="M 1304.15 398.237 L 1305.4 400.709 L 1304.15 398.237 z"/>
<path transform="translate(0,0)" fill="rgb(0,0,0)" d="M 1305.4 400.709 C 1305.93 401.427 1306.61 402.203 1307 403 L 1305.4 400.709 z"/>
<path transform="translate(0,0)" fill="rgb(0,0,0)" d="M 1307 403 L 1308.36 405.487 L 1307 403 z"/>
<path transform="translate(0,0)" fill="rgb(0,0,0)" d="M 1308.36 405.487 L 1309.13 406.287 L 1308.36 405.487 z"/>
<path transform="translate(0,0)" fill="rgb(0,0,0)" d="M 1309.13 406.287 L 1310.37 408.713 L 1309.13 406.287 z"/>
<path transform="translate(0,0)" fill="rgb(0,0,0)" d="M 1310.37 408.713 L 1311.4 410.395 L 1310.37 408.713 z"/>
<path transform="translate(0,0)" fill="rgb(0,0,0)" d="M 1311.4 410.395 L 1312.12 411.313 L 1311.4 410.395 z"/>
<path transform="translate(0,0)" fill="rgb(0,0,0)" d="M 1312.12 411.313 L 1313.37 413.703 L 1312.12 411.313 z"/>
<path transform="translate(0,0)" fill="rgb(0,0,0)" d="M 1313.37 413.703 L 1314.35 415.489 L 1313.37 413.703 z"/>
<path transform="translate(0,0)" fill="rgb(0,0,0)" d="M 1314.35 415.489 L 1315.12 416.338 L 1314.35 415.489 z"/>
<path transform="translate(0,0)" fill="rgb(0,0,0)" d="M 1315.12 416.338 L 1316.36 418.727 L 1315.12 416.338 z"/>
<path transform="translate(0,0)" fill="rgb(0,0,0)" d="M 1316.36 418.727 L 1316.72 419.475 L 1316.36 418.727 z"/>
<path transform="translate(0,0)" fill="rgb(0,0,0)" d="M 1127.56 419.715 L 1127.19 419.09 L 1127.56 419.715 z"/>
<path transform="translate(0,0)" fill="rgb(0,0,0)" d="M 1127.56 419.715 L 1129.42 422.156 L 1127.56 419.715 z"/>
<path transform="translate(0,0)" fill="rgb(0,0,0)" d="M 1316.72 419.475 C 1323.09 426.098 1327.72 437.422 1331.74 445.744 C 1348.92 481.271 1361.9 516.21 1370.04 554.842 C 1371.96 563.94 1374.43 573.692 1374.63 582.995 C 1370.94 579.086 1362.85 534.33 1360.27 525.132 C 1353.68 501.307 1345.11 478.076 1334.63 455.685 C 1329.93 445.446 1319.05 429.208 1316.72 419.475 z"/>
<path transform="translate(0,0)" fill="rgb(0,0,0)" d="M 671.032 423.5 L 670.217 423.5 L 671.032 423.5 z"/>
<path transform="translate(0,0)" fill="rgb(0,0,0)" d="M 670.079 425.5 L 669.348 425.5 L 670.079 425.5 z"/>
<path transform="translate(0,0)" fill="rgb(0,0,0)" d="M 932.465 646.166 L 932.063 645.267 L 932.465 646.166 z"/>
<path transform="translate(0,0)" fill="rgb(0,0,0)" d="M 932.465 646.166 C 941.5 655.766 946.752 672.889 948.827 685.653 C 944.809 682.293 933.791 652.422 932.465 646.166 z"/>
<path transform="translate(0,0)" fill="rgb(0,0,0)" d="M 1098.97 693.374 L 1097.84 692.522 C 1099.96 682.955 1108.91 672.74 1114.51 664.696 L 1115.53 666.083 C 1111.67 675.837 1104.92 684.77 1098.97 693.374 z"/>
<path transform="translate(0,0)" fill="rgb(0,0,0)" d="M 1127.49 665.524 L 1128.99 665.094 L 1127.49 665.524 z"/>
<path transform="translate(0,0)" fill="rgb(0,0,0)" d="M 1126.84 667.587 L 1127.49 665.524 L 1126.84 667.587 z"/>
<path transform="translate(0,0)" fill="rgb(0,0,0)" d="M 1125.73 668.217 L 1126.84 667.587 L 1125.73 668.217 z"/>
<path transform="translate(0,0)" fill="rgb(0,0,0)" d="M 1125.33 668.799 L 1125.73 668.217 L 1125.33 668.799 z"/>
<path transform="translate(0,0)" fill="rgb(0,0,0)" d="M 1107.28 691.961 L 1105.56 692.646 L 1104.77 691.456 C 1108.27 683.424 1118.34 674.048 1125.33 668.799 C 1121.01 677.559 1112.25 683.447 1107.28 691.961 z"/>
<path transform="translate(0,0)" fill="rgb(0,0,0)" d="M 1138.13 779.585 L 1137.81 781.595 L 1137.01 781.511 C 1136.87 772.67 1142.75 761.351 1147.72 754.21 C 1164.47 730.123 1189.88 726.002 1216.76 721.253 L 1219.37 720.825 L 1219.99 721.425 C 1205.88 726.805 1190.67 726.995 1176.74 733.681 C 1156.92 743.194 1145.29 759.136 1138.13 779.585 z"/>
<path transform="translate(0,0)" fill="rgb(0,0,0)" d="M 980.751 733.507 L 980.252 733.005 L 980.751 733.507 z"/>
<path transform="translate(0,0)" fill="rgb(0,0,0)" d="M 980.751 733.507 C 985.343 739.778 988.603 747.529 991.515 754.708 C 1003.89 785.234 1004.46 814.547 999.446 846.73 C 999.19 848.375 998.848 850.022 998.686 851.678 L 998.519 853.281 C 995.913 832.852 995.875 812.343 992.589 791.964 C 990.567 779.765 988.167 767.632 985.39 755.582 C 983.824 748.672 980.957 740.535 980.751 733.507 z"/>
<path transform="translate(0,0)" fill="rgb(0,0,0)" d="M 1312.86 735.301 L 1313.95 735.846 L 1312.86 735.301 z"/>
<path transform="translate(0,0)" fill="rgb(0,0,0)" d="M 1150.46 772.429 C 1158.85 757.86 1173.97 747.577 1190.02 743.159 C 1224.92 733.55 1279.03 741.919 1309.89 759.926 C 1319.62 765.607 1328.8 772.213 1338.7 777.617 C 1346.61 781.933 1355.08 785.067 1363.02 789.24 C 1356.86 791.833 1339.66 794.561 1336.69 796.506 C 1329.64 801.131 1325.87 812.928 1319.62 818.962 C 1295.93 841.844 1247.32 839.768 1216.74 836.198 C 1198.14 834.823 1179.16 833.98 1160.83 830.439 C 1174.59 829.628 1188.39 829.756 1202.14 830.823 C 1184.23 811.885 1179.85 797.5 1180.1 771.635 C 1159.36 782.218 1142.92 797.647 1132.47 818.584 C 1138.49 794.084 1151.75 777.289 1173.3 764.227 C 1184.27 757.577 1194.62 751.417 1206.78 747.155 C 1188.46 745.784 1176.95 748.444 1162.79 760.554 C 1158.43 764.28 1154.74 768.713 1150.46 772.429 z M 1207.24 804.005 L 1207.71 804.658 C 1208.56 808.645 1210.69 812.274 1212.98 815.614 C 1217.36 822.008 1223.56 827.79 1231.54 828.901 C 1237.51 829.732 1240.89 827.682 1245.39 824.032 C 1245.65 823.299 1246.05 822.262 1246.1 821.5 C 1246.25 819.072 1245.55 817.921 1243.62 816.547 C 1239.02 813.254 1229.94 813.293 1224.61 814.309 C 1220.36 815.119 1218.1 814.299 1214.14 812.653 C 1212.06 809.935 1209.92 807.269 1207.71 804.658 L 1207.24 804.005 z M 1218.54 755.214 C 1213.52 756.174 1201.04 757.767 1198.03 762.136 C 1201.12 762.965 1204.3 763.367 1207.47 763.77 C 1208.89 763.951 1209.86 763.876 1211.24 763.594 C 1218.18 762.822 1228.49 762.641 1234.28 758.503 L 1234.02 757.374 C 1228.57 754.827 1224.5 754.781 1218.54 755.214 z M 1273.46 767.953 C 1277.06 788.639 1278.01 805.737 1265.37 823.874 C 1262.74 827.651 1259.81 830.954 1256.59 834.243 C 1269.14 834.506 1281.57 836.196 1293.46 831.05 C 1304.51 821.384 1311.93 807.339 1316.85 793.671 C 1304.53 781.025 1289.17 775.284 1273.46 767.953 z M 1204.78 772.761 L 1201.27 781.486 C 1195.53 782.232 1189.77 782.306 1184.78 785.44 L 1183.96 787.266 C 1186.08 790.134 1189.81 790.876 1193.16 791.368 C 1196.21 791.816 1199.31 792.193 1202.39 792.359 C 1209.4 791.722 1216.74 791.863 1221.64 785.967 C 1223.15 784.146 1223.45 782.78 1223.5 780.478 C 1222.23 777.475 1221.02 775.859 1217.89 774.624 C 1213.9 773.05 1209.03 772.849 1204.78 772.761 z M 1237.06 811.736 C 1239.09 813.903 1241.31 813.813 1244.28 813.9 C 1245.74 813.943 1246.14 813.879 1247.45 813.766 C 1244.22 812.483 1240.6 810.849 1237.06 811.736 z M 1250.8 812.312 C 1249.75 814.735 1248.07 817.05 1248.66 819.655 L 1249.65 819.498 C 1251.04 817.285 1252.82 815.649 1252.49 812.997 L 1250.8 812.312 z"/>
<path transform="translate(0,0)" fill="rgb(0,0,0)" d="M 912.343 749.403 L 912.795 749.995 L 912.343 749.403 z"/>
<path transform="translate(0,0)" fill="rgb(0,0,0)" d="M 1121.38 755.552 L 1121.88 755.885 L 1121.38 755.552 z"/>
<path transform="translate(0,0)" fill="rgb(0,0,0)" d="M 903.534 764.649 L 903.801 765.995 L 903.534 764.649 z"/>
<path transform="translate(0,0)" fill="rgb(0,0,0)" d="M 1149.83 773.214 L 1150.46 772.429 L 1149.83 773.214 z"/>
<path transform="translate(0,0)" fill="rgb(0,0,0)" d="M 1148.8 774.409 L 1149.83 773.214 L 1148.8 774.409 z"/>
<path transform="translate(0,0)" fill="rgb(0,0,0)" d="M 1147.59 776.479 L 1148.8 774.409 L 1147.59 776.479 z"/>
<path transform="translate(0,0)" fill="rgb(0,0,0)" d="M 1146.87 777.243 L 1147.59 776.479 L 1146.87 777.243 z"/>
<path transform="translate(0,0)" fill="rgb(0,0,0)" d="M 1145.61 779.471 L 1146.87 777.243 L 1145.61 779.471 z"/>
<path transform="translate(0,0)" fill="rgb(0,0,0)" d="M 1144.87 780.278 L 1145.61 779.471 L 1144.87 780.278 z"/>
<path transform="translate(0,0)" fill="rgb(0,0,0)" d="M 1143.68 782.478 L 1144.87 780.278 L 1143.68 782.478 z"/>
<path transform="translate(0,0)" fill="rgb(0,0,0)" d="M 1143.21 782.995 L 1143.68 782.478 L 1143.21 782.995 z"/>
<path transform="translate(0,0)" fill="rgb(0,0,0)" d="M 1137.49 783.5 L 1136.56 783.5 L 1137.49 783.5 z"/>
<path transform="translate(0,0)" fill="rgb(0,0,0)" d="M 1143.07 784.5 L 1142.33 784.5 L 1143.07 784.5 z"/>
<path transform="translate(0,0)" fill="rgb(0,0,0)" d="M 708.195 794.406 L 708.755 794.995 L 708.195 794.406 z"/>
<path transform="translate(0,0)" fill="rgb(0,0,0)" d="M 913.156 795.466 L 913.75 795.995 L 913.156 795.466 z"/>
<path transform="translate(0,0)" fill="rgb(0,0,0)" d="M 1320.44 826.563 L 1320.99 826.168 L 1320.44 826.563 z"/>
<path transform="translate(0,0)" fill="rgb(0,0,0)" d="M 1295.66 837.424 C 1303.78 833.667 1311.95 829.369 1320.44 826.563 C 1320.17 826.89 1319.92 827.243 1319.61 827.545 C 1313.26 833.849 1304.44 837.046 1295.66 837.424 z"/>
<path transform="translate(0,0)" fill="rgb(0,0,0)" d="M 1546.23 831.995 L 1546.74 831.45 L 1546.23 831.995 z"/>
<path transform="translate(0,0)" fill="rgb(0,0,0)" d="M 609.209 848.005 L 609.619 848.642 C 611.03 854.487 613.143 860.285 614.661 866.144 L 614.253 866.769 L 615.096 868.476 C 614.772 867.917 614.419 867.374 614.125 866.799 C 612.393 863.415 602.329 839.649 602.967 837.694 C 608.081 839.117 633.744 859.016 637.005 863.799 C 643.674 873.58 634.56 889.366 633.291 899.758 C 631.79 912.051 637.508 919.876 644.775 928.905 C 652.589 937.596 658.244 944.91 662.473 955.958 C 648.896 949.969 635.585 936.271 628.493 923.258 C 618.977 905.796 628.67 886.939 633.876 869.602 C 625.228 863.154 617.484 855.988 609.619 848.642 L 609.209 848.005 z"/>
<path transform="translate(0,0)" fill="rgb(0,0,0)" d="M 1290.38 874.5 L 1289.24 874.5 L 1290.38 874.5 z"/>
<path transform="translate(0,0)" fill="rgb(0,0,0)" d="M 1286.46 875.567 L 1287.99 875.175 L 1286.46 875.567 z"/>
<path transform="translate(0,0)" fill="rgb(0,0,0)" d="M 808.911 876.502 L 809.98 876.027 L 808.911 876.502 z"/>
<path transform="translate(0,0)" fill="rgb(0,0,0)" d="M 1285.65 876.454 L 1286.46 875.567 L 1285.65 876.454 z"/>
<path transform="translate(0,0)" fill="rgb(0,0,0)" d="M 745.83 942.943 C 746.501 939.543 747.504 936.466 749.029 933.347 C 758.148 914.701 789.595 883.004 808.911 876.502 C 802.573 882.828 794.576 888.23 787.77 894.155 C 771.091 908.674 758.129 924.586 745.83 942.943 z"/>
<path transform="translate(0,0)" fill="rgb(0,0,0)" d="M 835.341 877.5 L 834.24 877.5 L 835.341 877.5 z"/>
<path transform="translate(0,0)" fill="rgb(0,0,0)" d="M 1201.6 943.444 C 1219.56 926.433 1264.56 885.601 1285.65 876.454 C 1282.55 880.095 1278.41 882.923 1274.66 885.851 C 1257.17 899.509 1238.85 912.816 1222.16 927.421 C 1214.52 934.109 1208.13 943.023 1199.87 948.803 L 1198.56 948.023 C 1197.21 945.325 1196.63 943.163 1197.03 940.113 C 1199.33 922.477 1231.55 901.727 1245.03 892.009 C 1249.24 889.582 1253.48 887.215 1257.75 884.909 C 1237.2 904.454 1211.3 914.763 1201.6 943.444 z"/>
<path transform="translate(0,0)" fill="rgb(0,0,0)" d="M 831.524 878.677 L 832.995 878.232 L 831.524 878.677 z"/>
<path transform="translate(0,0)" fill="rgb(0,0,0)" d="M 1306.49 878.5 L 1305.26 878.5 L 1306.49 878.5 z"/>
<path transform="translate(0,0)" fill="rgb(0,0,0)" d="M 829.503 880.515 L 831.524 878.677 L 829.503 880.515 z"/>
<path transform="translate(0,0)" fill="rgb(0,0,0)" d="M 1304.49 879.5 L 1303.27 879.5 L 1304.49 879.5 z"/>
<path transform="translate(0,0)" fill="rgb(0,0,0)" d="M 829.164 880.797 L 829.503 880.515 L 829.164 880.797 z"/>
<path transform="translate(0,0)" fill="rgb(0,0,0)" d="M 1300.5 880.642 L 1301.99 880.222 L 1300.5 880.642 z"/>
<path transform="translate(0,0)" fill="rgb(0,0,0)" d="M 777.585 931.32 C 778.215 928.913 778.978 926.965 780.287 924.832 C 788.093 912.118 814.521 884.469 829.164 880.797 C 822.065 888.232 812.815 893.5 805.409 900.649 C 795.736 909.985 787.979 923.066 777.585 931.32 z"/>
<path transform="translate(0,0)" fill="rgb(0,0,0)" d="M 1298.54 882.432 L 1300.5 880.642 L 1298.54 882.432 z"/>
<path transform="translate(0,0)" fill="rgb(0,0,0)" d="M 1316 882.003 L 1316.99 881.241 L 1316 882.003 z"/>
<path transform="translate(0,0)" fill="rgb(0,0,0)" d="M 1297.68 883.097 L 1298.54 882.432 L 1297.68 883.097 z"/>
<path transform="translate(0,0)" fill="rgb(0,0,0)" d="M 1314.48 883.247 L 1316 882.003 L 1314.48 883.247 z"/>
<path transform="translate(0,0)" fill="rgb(0,0,0)" d="M 1296.67 883.577 L 1297.68 883.097 L 1296.67 883.577 z"/>
<path transform="translate(0,0)" fill="rgb(0,0,0)" d="M 1313.6 883.672 L 1314.48 883.247 L 1313.6 883.672 z"/>
<path transform="translate(0,0)" fill="rgb(0,0,0)" d="M 1237.66 938.413 C 1244.57 921.298 1280.04 890.805 1296.67 883.577 C 1285.22 894.818 1272.15 904.509 1260.4 915.496 C 1252.71 922.679 1245.68 931.974 1237.66 938.413 z"/>
<path transform="translate(0,0)" fill="rgb(0,0,0)" d="M 1271.49 921.498 C 1277.4 908.986 1301.1 888.968 1313.6 883.672 C 1305.62 891.584 1296.47 898.668 1288.06 906.169 C 1282.54 911.087 1277.24 916.984 1271.49 921.498 z"/>
<path transform="translate(0,0)" fill="rgb(0,0,0)" d="M 839.476 885.585 L 840.995 885.199 L 839.476 885.585 z"/>
<path transform="translate(0,0)" fill="rgb(0,0,0)" d="M 837.508 887.607 L 839.476 885.585 L 837.508 887.607 z"/>
<path transform="translate(0,0)" fill="rgb(0,0,0)" d="M 837.18 887.854 L 837.508 887.607 L 837.18 887.854 z"/>
<path transform="translate(0,0)" fill="rgb(0,0,0)" d="M 807.144 915.009 C 812.57 905.107 826.613 891.682 837.18 887.854 C 828.491 897.267 817.19 906.984 807.144 915.009 z"/>
<path transform="translate(0,0)" fill="rgb(0,0,0)" d="M 804.922 917.933 C 805.768 915.536 805.039 916.519 807.144 915.009 C 806.239 917.483 807.009 916.531 804.922 917.933 z"/>
<path transform="translate(0,0)" fill="rgb(0,0,0)" d="M 1022.35 925.502 C 1021.49 925.691 1022.09 925.634 1020.6 925.045 C 1020.76 921.637 1021.87 919.383 1023.37 916.354 L 1025.16 917.412 C 1025.38 920.55 1023.72 922.708 1022.35 925.502 z"/>
<path transform="translate(0,0)" fill="rgb(0,0,0)" d="M 804.154 918.963 L 804.922 917.933 L 804.154 918.963 z"/>
<path transform="translate(0,0)" fill="rgb(0,0,0)" d="M 1270.8 922.14 L 1271.49 921.498 L 1270.8 922.14 z"/>
<path transform="translate(0,0)" fill="rgb(0,0,0)" d="M 1270.08 922.973 L 1270.8 922.14 L 1270.08 922.973 z"/>
<path transform="translate(0,0)" fill="rgb(0,0,0)" d="M 1321.79 925.173 L 1322.56 924.539 L 1321.79 925.173 z"/>
<path transform="translate(0,0)" fill="rgb(0,0,0)" d="M 1321.08 925.89 L 1321.79 925.173 L 1321.08 925.89 z"/>
<path transform="translate(0,0)" fill="rgb(0,0,0)" d="M 777.242 931.935 L 777.585 931.32 L 777.242 931.935 z"/>
<path transform="translate(0,0)" fill="rgb(0,0,0)" d="M 1237.22 938.923 L 1237.66 938.413 L 1237.22 938.923 z"/>
<path transform="translate(0,0)" fill="rgb(0,0,0)" d="M 1006.5 997.55 C 1001.56 997.871 997.628 997.417 993.064 995.313 C 982.298 990.349 974.715 981.103 970.569 970.194 C 981.314 972.592 994.19 981.177 1002.44 988.608 C 1005.59 991.445 1006.27 993.369 1006.5 997.55 z"/>
<path transform="translate(0,0)" fill="rgb(0,0,0)" d="M 1028.25 997.785 C 1026.15 997.631 1027.05 998.058 1025.6 996.413 C 1025.87 995.287 1025.81 995.204 1026.51 994.055 C 1030.56 987.373 1047.01 981.386 1054.26 978.925 L 1056.63 979.966 L 1057.03 981.985 C 1056.5 983.071 1056.49 983.219 1055.59 984.288 C 1049.91 990.977 1036.54 996.492 1028.25 997.785 z"/>
<path transform="translate(0,0)" fill="rgb(0,0,0)" d="M 1138.66 1109.83 C 1130.78 1114.55 1122.55 1118.65 1114.02 1122.06 C 1062.88 1142.38 985.592 1139.48 935.689 1117.59 C 919.324 1110.41 882.332 1088.14 876.506 1070.42 C 875.438 1067.18 876.562 1065.58 878.124 1062.89 C 887.992 1063.13 895.625 1067.98 904.981 1069.98 C 917.612 1072.67 932.655 1072.36 945.6 1073.24 C 976.252 1075.08 1006.89 1077.17 1037.5 1079.53 C 1063.14 1081.6 1088.83 1084.47 1114.49 1086.04 C 1128.82 1086.92 1147.15 1082.74 1159.51 1084.78 C 1161.25 1086.57 1161.14 1086.59 1161.28 1089.1 C 1157.73 1098.08 1146.4 1104.61 1138.66 1109.83 z M 912.748 1080.07 C 917.125 1086.65 921.401 1093.85 926.76 1099.67 C 940.011 1114.07 961.378 1121.42 980.064 1125.23 C 1015.25 1132.43 1070.93 1135.27 1102.45 1114.75 C 1103.05 1114.36 1103.64 1113.96 1104.22 1113.54 C 1110.43 1108.21 1116.47 1102.65 1121.32 1096.01 C 1083.83 1093.4 1046.44 1089.71 1008.97 1086.88 C 976.909 1084.45 944.769 1082.89 912.748 1080.07 z"/>
<path transform="translate(0,0)" fill="rgb(0,0,0)" d="M 716.078 1163.96 L 716.665 1163.64 L 716.078 1163.96 z"/>
<path transform="translate(0,0)" fill="rgb(0,0,0)" d="M 997.777 1178.64 C 992.598 1177.97 987.331 1177.39 982.815 1174.61 L 983.649 1173.66 C 997.175 1170.56 1023.23 1172.19 1038.51 1171.44 C 1043.93 1170.95 1049.54 1171.32 1054.98 1171.41 C 1036.9 1179.42 1017.21 1180.04 997.777 1178.64 z"/>
<path transform="translate(0,0)" fill="rgb(0,0,0)" d="M 881.302 1367.5 L 880.244 1366.91 L 881.302 1367.5 z"/>
<path transform="translate(0,0)" fill="rgb(0,0,0)" d="M 956.519 1561.06 C 949.876 1553.01 945.143 1541.38 940.561 1532 C 917.836 1485.44 905.181 1446.32 889.861 1397.26 C 887.73 1390.43 881.609 1376.55 881.668 1370.08 C 891.146 1380.65 932.292 1501.35 942.36 1527.42 C 946.643 1538.51 953.391 1549.79 956.519 1561.06 z"/>
<path transform="translate(0,0)" fill="rgb(0,0,0)" d="M 956.519 1561.06 L 957.256 1561.64 L 956.274 1562.4 L 956.519 1561.06 z"/>
<path transform="translate(0,0)" fill="rgb(0,0,0)" d="M 956.004 1634.82 L 956.744 1635.99 L 956.004 1634.82 z"/>
</svg>