<svg version="1.1" xmlns="http://www.w3.org/2000/svg" style="display: block;" viewBox="0 0 2048 2048" width="1024" height="1024">
<path transform="translate(0,0)" fill="rgb(255,255,255)" d="M 0 0 L 0 2048 L 2048 2048 L 2048 0 L 0 0 z"/>
<path transform="translate(0,0)" fill="rgb(0,0,0)" d="M 543.071 328.082 C 542.679 328.63 541.943 329.458 541.722 330.081 C 534.744 336.718 528.771 344.725 522.736 352.216 C 490.877 391.763 471.441 436.562 470.263 487.926 C 470.099 495.068 470.148 502.216 470.021 509.361 C 446.45 464.965 443.879 413.282 458.343 365.558 C 478.466 299.164 549.282 236.397 607.01 200.063 C 578.307 202.551 521.854 193.936 496.791 180.518 C 514.716 184.366 531.59 186.273 549.987 184.732 C 624.075 178.529 715.408 122.203 784.884 92.9954 C 879.616 53.1703 980.473 36.6321 1081.37 62.841 C 1114.49 71.4458 1133.27 83.0519 1163.3 95.5704 C 1225.48 80.2281 1289.5 95.8498 1343.36 128.486 C 1384.55 153.44 1419.01 187.589 1452.97 221.368 C 1502.43 270.571 1546.48 324.431 1622.42 326.954 C 1593.02 338.36 1561.54 332.892 1533.43 320.58 C 1525.94 317.302 1519.09 313.588 1512.29 309.048 C 1523.58 322.492 1531.85 337.865 1539.66 353.501 C 1567.9 409.961 1586.19 477.575 1580.54 541.115 C 1577.66 573.486 1567.83 615.225 1549.64 642.354 C 1559.66 588.16 1565.65 548.857 1547.73 494.648 C 1548.84 511.716 1550.49 529.023 1550.14 546.129 C 1548.95 602.689 1529.61 653.242 1500.04 700.72 C 1518.82 741.344 1524.05 789.775 1508.27 832.317 C 1492.44 874.97 1455.59 911.027 1414.42 929.771 C 1400.79 935.979 1385.84 941.359 1371.56 945.886 C 1367.5 958.852 1349.93 1010 1339.47 1015.02 C 1336.77 1016.32 1336.17 1015.97 1333.54 1015.01 C 1328.38 1009.38 1328.28 1002.82 1327.62 995.487 C 1321.83 1004.96 1312.77 1014.73 1308.6 1024.8 C 1304.31 1035.18 1303.36 1047.92 1301.75 1059.01 C 1295.97 1098.97 1294.5 1139.34 1289 1179.24 C 1312.08 1198.05 1321.19 1216.77 1333.83 1243.03 C 1351.42 1242.18 1375.38 1248 1388.58 1259.91 L 1469.72 1333.5 C 1477.4 1340.5 1483.91 1350.25 1492.27 1356.14 C 1513.33 1370.99 1535.54 1383.35 1557.64 1396.48 C 1595.23 1418.87 1633.28 1440.49 1671.76 1461.32 C 1753.96 1506.31 1843.18 1554.14 1896.49 1634.34 C 1927.15 1680.47 1946.31 1735.86 1960.51 1789.06 C 1970.93 1828.07 1980.81 1866.53 1987.87 1906.31 C 1989.89 1917.7 1992.71 1929.61 1993.32 1941.16 C 1941.78 1957.72 1885.15 1961.82 1831.45 1966.75 C 1790.92 1970.47 1750.21 1974.17 1709.51 1975.2 C 1714.06 1953.39 1722.21 1931.36 1729.02 1910.11 C 1742.38 1869.25 1756.8 1828.76 1772.29 1788.67 C 1780.92 1766.05 1789.32 1743.19 1799.04 1721.02 C 1808.22 1700.1 1818.13 1679.47 1827.66 1658.71 C 1834.79 1643.17 1842.43 1627.69 1846.85 1611.11 C 1836.06 1624.91 1828.25 1642.56 1820.1 1658.1 C 1800.7 1695.07 1784.16 1733.65 1768.59 1772.38 C 1747.27 1825.42 1727.14 1879.28 1713.83 1934.96 C 1710.62 1948.41 1708.45 1961.85 1705.86 1975.41 C 1685.45 1978.36 1664.4 1979.06 1643.81 1980.11 C 1622.06 1981.18 1600.33 1982.4 1578.6 1983.77 C 1519.65 1987 1460.91 1988.19 1401.91 1989.42 C 1359.74 1990.29 1317.1 1992.42 1274.97 1989.98 C 1322.48 1929.31 1363.85 1864.06 1398.45 1795.2 C 1411.85 1768.22 1423.69 1740.25 1435.63 1712.61 C 1454.68 1668.53 1473.83 1623.4 1487.06 1577.2 C 1496.83 1543.1 1503.54 1507.74 1508.47 1472.66 C 1511.92 1448.05 1514.8 1423.97 1515.02 1399.08 C 1507.64 1391.23 1500.2 1383.35 1492.25 1376.08 C 1490.88 1416.57 1483.21 1455.16 1473.87 1494.46 C 1439.32 1636.49 1379.57 1771.17 1297.45 1892.1 C 1274.17 1926.06 1248.3 1960.44 1219.16 1989.64 C 1209.1 1988.52 1199.11 1989.05 1189.02 1988.95 C 1226.19 1949.21 1264.92 1900.2 1293.68 1854.21 C 1364.92 1740.27 1419.13 1604.97 1453.24 1475.26 C 1461.79 1442.73 1472.98 1395.32 1472.12 1362.1 C 1472.11 1361.66 1472.09 1361.22 1472.07 1360.79 C 1469.75 1357.47 1467.87 1354.09 1464.18 1352.18 C 1462.58 1352.34 1461.85 1351.96 1460.81 1353.37 C 1456.39 1359.34 1456.49 1376.11 1455.23 1383.94 C 1451.4 1407.43 1446.46 1430.73 1440.43 1453.76 C 1426.34 1508.51 1409.2 1562.42 1389.09 1615.25 C 1379.34 1641.54 1369.41 1668.81 1357.15 1694.04 C 1319.2 1776.73 1276.02 1850.66 1218.45 1921.5 C 1198.94 1945.51 1179.33 1968.55 1156.16 1989.15 C 1133.84 1988.26 1110.82 1989.18 1088.67 1987.24 C 1109.12 1971.34 1125.05 1948.39 1140.21 1927.57 C 1180.16 1873.07 1214.6 1814.74 1243.02 1753.44 C 1260.53 1716.29 1275.91 1677.95 1291.73 1640.07 C 1308.56 1600.16 1324.23 1559.77 1338.7 1518.95 C 1345.07 1501.2 1351.79 1483.45 1357.27 1465.41 C 1370.59 1421.52 1380.65 1375.09 1386.38 1329.6 C 1387.44 1321.15 1388.4 1312.56 1388.93 1304.06 C 1386.32 1300.75 1383.77 1297.38 1381.07 1294.15 C 1382.1 1312.83 1378.99 1331.76 1376.02 1350.17 C 1359.86 1450.43 1319.31 1546.3 1280.84 1639.79 C 1261.81 1686.05 1243.5 1732.51 1220.3 1776.89 C 1189.66 1835.49 1153.69 1895.81 1109.47 1945.16 C 1096.89 1959.19 1081.68 1976.48 1066.08 1986.94 C 1042.09 1986.83 1018.23 1986.71 994.252 1985.75 C 987.231 1985.47 978.747 1986.14 971.974 1984.34 C 949.601 1978.4 877.878 1914.65 858.881 1895.45 C 746.435 1781.78 639.755 1610.4 597.569 1455.65 C 589.708 1426.81 585.022 1397.52 581.114 1367.93 C 576.238 1370.67 571.388 1373.46 566.567 1376.29 C 571.588 1417.25 578.921 1457.85 591.13 1497.32 C 603.774 1538.21 620.876 1576.93 639.641 1615.32 C 689.859 1718.05 753.58 1816.39 833.474 1898.58 C 853.605 1919.29 875.383 1938.01 897.696 1956.31 C 908.734 1965.37 920.417 1973.91 930.996 1983.48 C 914.062 1983.49 897.129 1983.29 880.2 1982.87 C 867.394 1974.08 855.861 1961.42 844.583 1950.66 C 775.657 1884.94 720.19 1806.07 670.802 1725.01 C 646.343 1684.88 623.488 1643.93 604.922 1600.68 C 579.538 1541.07 560.984 1478.78 549.612 1415 C 547.854 1405.43 546.887 1396.24 546.946 1386.51 C 535.603 1392.15 526.361 1401.11 514.9 1406.6 C 515.938 1445.77 526.634 1486.07 538.189 1523.33 C 569.552 1624.46 608.993 1699.63 668.371 1786.8 C 689.588 1817.95 711.931 1849.25 736.147 1878.16 C 754.157 1899.58 772.907 1920.36 792.363 1940.47 C 802.66 1951.26 824.149 1969.18 830.624 1980.88 C 828.79 1981.54 827.316 1981.64 825.393 1981.87 C 824.974 1981.92 824.56 1982 824.143 1982.07 C 814.211 1983.56 803.557 1981.13 793.495 1981.03 C 749.789 1980.68 706.094 1979.45 662.437 1977.33 C 550.759 1973.2 439.136 1967.68 327.594 1960.78 C 241.163 1955.22 148.326 1949.78 63.9816 1929.98 C 63.8353 1922.15 63.5185 1914.15 64.249 1906.33 C 66.3758 1883.59 71.9477 1860.82 76.8481 1838.54 C 92.7753 1766.13 131.214 1617.14 181.9 1564.19 C 208.264 1536.65 262.282 1512.32 296.811 1494.43 C 350.892 1466.42 405.542 1439.86 460.075 1412.77 C 512.089 1386.93 564.035 1360.33 613.535 1329.9 C 653.688 1305.21 645.793 1272.16 696.232 1258.84 C 705.594 1256.36 715.292 1254.14 724.975 1253.47 C 744.77 1221.22 763.374 1186.05 797.266 1166.59 C 796.202 1143.61 788.097 1121.34 787.047 1098.21 C 729.667 1036.95 706.332 1008.68 690.442 923.423 C 673.38 931.502 658.522 932.456 640.813 926.012 C 602.464 912.058 560.701 867.31 543.937 830.78 C 528.521 797.189 535.595 757.81 548.274 724.524 C 555.436 705.72 564.469 690.1 581.551 678.789 C 541.581 648.732 526.029 613.149 519.209 564.809 C 518.72 561.246 518.272 557.677 517.864 554.104 C 514.103 590.174 523.288 629 546.375 657.312 C 550.489 662.357 554.888 667.085 559.435 671.739 C 520.129 649.46 492.101 613.996 479.952 570.577 C 459.864 498.781 478.87 433.542 514.663 370.655 C 517.895 364.976 521.157 359.193 524.993 353.897 C 530.475 346.328 537.861 338.586 541.722 330.081 C 542.215 329.65 542.713 328.646 543.071 328.082 L 543.995 327.005 L 543.071 328.082 z M 729.411 168.633 C 720.225 171.058 710.949 177.298 703.042 182.435 C 655.367 213.408 610.125 264.051 581.467 313.084 C 568.172 335.832 550.79 378.599 553.338 405.218 C 572.287 339.356 600.222 298.219 645.397 247.992 C 659.289 232.547 673.179 216.887 688.312 202.638 C 696.939 194.517 705.93 186.983 715.241 179.661 C 719.742 176.121 725.494 172.697 729.411 168.633 L 729.995 168.19 L 729.411 168.633 z M 748.932 199.521 C 732.411 204.536 716.838 211.894 701.649 220.007 C 656.345 244.204 627.954 269.762 603.47 315.949 C 584.654 351.444 555.919 420.525 557.392 459.829 C 557.575 459.418 557.765 459.011 557.941 458.597 C 560.554 452.455 560.835 444.083 562.465 437.471 C 565.748 424.152 570.201 411.022 574.856 398.124 C 593.282 347.062 647.639 275.814 688.704 240.728 C 701.778 229.557 716.044 220.732 730.519 211.561 C 736.428 207.818 743.76 204.145 748.932 199.521 L 749.995 199.005 L 748.932 199.521 z M 1366.44 216.646 L 1367.05 217.207 C 1398.48 250.892 1427.89 288.071 1448.14 329.672 C 1440.17 322.854 1433.19 314.96 1424.2 309.478 L 1424.81 310.473 C 1434.37 325.88 1439.97 325.988 1440.75 345.946 C 1422.76 327.76 1407.78 306.475 1388.4 289.573 L 1387.85 288.785 L 1387.2 288.005 L 1387.85 288.785 L 1388.4 289.573 L 1389.21 291.349 C 1402.37 319.624 1424.74 342.131 1428.09 375.006 C 1425.27 372.96 1424.82 369.358 1423.75 366.082 C 1422.15 366.924 1422.84 366.462 1421.64 367.404 C 1418.39 366.415 1415.32 360.981 1412.44 358.585 L 1411.98 358.011 L 1411.17 357.304 L 1410.55 356.189 L 1408.54 355.486 L 1408.13 354.098 L 1408.54 355.486 L 1410.55 356.189 L 1411.17 357.304 L 1411.98 358.011 L 1412.44 358.585 C 1416.35 364.021 1419.94 369.03 1422.45 375.292 L 1421.75 375.447 C 1408.82 361.19 1396.39 345.388 1380.88 333.906 C 1402.94 361.516 1432.09 403.913 1445.78 436.259 C 1452.6 452.393 1456.21 469.944 1463.21 485.85 L 1463.85 486.995 L 1463.21 485.85 C 1461.65 475.766 1458.71 465.722 1456.33 455.791 C 1451.45 436.278 1446.98 416.666 1442.9 396.969 C 1444.96 401.348 1447 405.676 1449.46 409.854 L 1449.99 410.995 L 1449.46 409.854 C 1447.72 402.598 1444.41 396.246 1443.59 388.668 L 1444.56 388.779 C 1464.77 416.278 1477.04 457.664 1489.55 489.177 C 1487.51 457.706 1471.9 395.743 1458.64 368.233 C 1455.5 361.706 1451.07 355.95 1446.85 350.092 C 1448.03 350.881 1449.2 351.689 1450.37 352.492 C 1458.85 358.294 1463.37 365.386 1468.91 373.856 C 1464.48 361.487 1459.12 349.615 1453.68 337.672 C 1474.98 363.266 1489.03 395.772 1503.05 425.766 C 1501.54 417.737 1499.78 409.757 1497.77 401.84 C 1491.98 379.118 1483.27 357.241 1471.86 336.756 C 1454.63 306.04 1397.39 234.986 1367.05 217.207 L 1366.44 216.646 z M 736.015 237.03 L 735.377 237.652 C 713.052 248.699 692.039 279.625 677.596 286.298 C 680.558 280.514 695.754 264.477 701.091 257.448 C 690.561 266.362 678.519 275.601 668.74 285.108 C 680.079 270.93 695.46 258.089 704.829 242.624 C 686.351 257.786 660.721 280.726 650.583 302.702 C 655.125 300.187 659.616 297.592 664.372 295.497 C 660.796 300.799 657.02 306.049 653.678 311.497 C 656.669 309.006 659.831 305.793 663.312 304.062 C 655.854 311.048 647.377 317.182 644.539 327.415 L 644.12 327.995 L 644.539 327.415 C 651.581 321.011 656.153 313.827 664.247 308.114 C 662.815 314.302 660.845 320.04 658.609 325.978 L 657.746 327.426 L 656.743 329.542 L 656.205 329.995 L 656.743 329.542 L 657.746 327.426 L 658.609 325.978 C 673.648 305.464 688.738 284.478 706.172 265.923 C 715.418 256.083 726.623 247.804 735.377 237.652 L 736.015 237.03 L 737.871 235.703 L 736.015 237.03 z M 710.356 284.458 L 709.77 286.547 C 709.122 287.35 708.457 288.07 708 289 L 707.355 289.646 C 693.886 302.045 671.668 341.651 667.48 359.92 L 666.8 361.45 L 665.667 363.646 L 665.021 364.995 L 665.667 363.646 L 666.8 361.45 L 667.48 359.92 C 675.634 350.148 680.582 335.248 686.976 324.043 C 693.192 313.148 703.197 301.249 707.355 289.646 L 708 289 L 709.77 286.547 L 710.356 284.458 L 711.995 283.181 L 710.356 284.458 z M 698.318 285.48 C 684.563 296.276 661.637 331.909 657.472 348.806 L 657.145 349.995 L 657.472 348.806 C 659.59 346.395 661.059 343.429 662.598 340.636 C 667.704 331.369 672.921 322.276 679.017 313.607 C 685.358 304.59 693.691 295.394 698.318 285.48 L 698.811 285.005 L 698.318 285.48 z M 808.516 293.649 C 790.95 306.614 771.683 320.278 757.241 336.671 C 760.702 327.416 766.243 318.878 771.219 310.374 C 796.725 266.788 832.478 228.583 876.148 202.814 C 862.704 206.982 849.552 211.173 837.394 218.42 C 804.279 238.157 739.546 304.459 715.775 336.168 C 702.541 353.822 691.271 373.197 680.923 392.657 C 679.894 394.592 679.085 396.354 678.476 398.449 L 678.005 398.995 L 678.476 398.449 C 685.541 391.299 691.086 381.357 697.325 373.337 C 709.19 358.084 736.183 327.007 750.215 314.876 C 735.916 341.02 719.664 375.404 712.445 404.244 C 701.423 448.28 705.555 500.243 718.707 543.396 C 719.286 545.294 718.954 544.571 719.771 545.952 C 719.745 539.171 717.495 532.564 716.234 525.937 C 714.382 516.197 712.926 506.226 712.348 496.326 C 709.326 444.608 727.634 377.032 765.07 339.673 C 770.348 334.406 776.229 328.915 782.232 324.521 C 778.659 334.875 773.366 344.906 769.43 355.204 C 762.407 373.578 758.315 392.543 755.31 411.93 C 763.459 389.674 773.308 368.798 783.126 347.243 C 791.352 329.185 799.039 311.121 808.516 293.649 L 808.906 293.185 L 808.516 293.649 z M 714.361 298.478 L 712.49 299.198 L 712.082 300.068 C 710.064 301.572 709.404 301.411 708.852 303.976 C 704.684 307.192 701.317 311.191 699.188 316.037 C 697.047 317.533 697.768 316.539 697 319 C 696.091 320.143 695.163 321.232 694.401 322.479 L 694.005 322.995 L 694.401 322.479 C 695.394 321.404 696.165 320.199 697 319 C 699.152 317.563 698.413 318.543 699.188 316.037 C 703.43 312.96 706.449 308.56 708.852 303.976 C 711.2 302.872 710.973 302.299 712.082 300.068 L 712.49 299.198 L 714.361 298.478 L 714.813 297.005 L 714.361 298.478 z M 1297.09 321.203 L 1297.49 321.663 C 1302.77 332.376 1310.71 341.635 1316.13 352.317 C 1322.86 365.608 1328.63 379.355 1335.15 392.745 C 1353.33 430.119 1372.34 466.606 1393.82 502.166 C 1399.23 511.113 1404.61 523.146 1411.44 530.939 L 1411.99 531.995 L 1411.44 530.939 C 1409.06 520.951 1404.81 510.923 1401.3 501.253 C 1387.87 464.213 1369.63 420.8 1349.26 387.293 C 1342.64 376.408 1334.99 366.051 1327.54 355.723 C 1318.88 343.71 1309.38 330.65 1297.49 321.663 L 1297.09 321.203 z M 1054.01 325.128 L 1054.55 325.561 C 1067.88 339.947 1079.91 357.08 1087.01 375.49 C 1071.31 373.797 1046.68 367.771 1033.25 378.639 C 1008.64 398.552 997.668 469.8 995.13 501.867 C 991.483 547.95 996.238 591.234 1014.44 633.971 C 1015.95 637.516 1017.52 641.041 1019.52 644.346 C 1021.88 648.268 1031.5 658.797 1031.63 662.718 C 1031.64 663.209 1031.26 663.627 1031.07 664.081 C 1027.15 664.511 1023.51 661.061 1020.57 658.865 C 1014.71 654.489 1009.14 657.274 1005.14 654.043 C 975.557 630.139 952.545 560.556 946.899 523.354 C 944.64 508.463 945.133 493.268 945.84 478.268 C 946.139 471.942 947.393 464.332 946.398 458.117 C 934.988 510.955 954.994 607.656 984.608 654.094 C 987.722 658.977 991.193 663.682 994.587 668.373 C 982.109 667.266 971.176 665.019 959.935 659.291 C 953.336 655.928 937.596 641.452 931.752 642.519 C 931.526 642.824 931.303 643.132 931.073 643.435 C 928.825 646.403 927.412 648.354 923.423 648.658 C 910.343 649.656 892.442 630.436 881.322 625.176 C 871.196 620.387 859.04 618.712 848.132 616.251 C 855.873 634.547 864.561 651.497 880.077 664.514 C 887.632 670.853 895.943 676.658 902.981 683.565 C 895.117 679.711 887.485 675.306 879.509 671.71 C 866.453 665.823 852.159 661.629 840.473 653.124 C 832.556 647.363 805.536 619.814 799.988 617.641 C 794.521 615.501 777.877 620.016 772.068 621.951 C 770.921 622.333 770.081 622.916 769.087 623.578 C 768.152 625.878 768.175 627.076 769.256 629.392 C 773.57 638.632 781.127 648.514 788.311 655.708 C 805.629 656.584 822.16 655.671 839.34 658.915 C 838.953 658.98 838.567 659.049 838.18 659.11 C 827.55 660.768 816.681 660.232 805.977 661.19 C 787.269 662.865 769.121 668.087 751.527 674.354 C 755.388 669.548 762.749 667.156 768.257 664.744 C 750.931 663.022 737.068 652.041 723.019 642.639 C 718.131 648.42 712.427 655.405 706.359 659.85 L 705.775 659.268 C 707.823 653.345 712.631 647.957 715.605 642.384 C 716.734 640.27 717.753 639.027 717.019 636.705 L 715.192 636.573 C 712.062 639.932 709.253 643.576 706.801 647.457 C 700.736 657.214 699.937 665.13 702.569 675.929 C 702.163 675.685 701.753 675.447 701.35 675.198 C 673.51 657.985 664.947 616.598 657.785 587.428 C 656.543 595.12 664.948 636.47 666.362 648.729 C 669.994 680.234 669.669 711.888 673.134 743.306 C 677.77 785.339 686.537 826.106 694.984 867.462 C 700.285 893.42 704.671 919.603 711.102 945.317 C 719.317 978.168 735.735 1013.51 754.843 1041.59 C 790.212 1093.55 879.569 1174.76 933.942 1207.12 C 972.34 1229.96 1012.94 1232.54 1055.79 1221.3 C 1142.58 1198.52 1238.08 1094.51 1281.77 1018.97 C 1293.32 999.018 1302.41 976.545 1310.48 954.973 C 1319.71 930.321 1328.14 904.726 1335.8 879.533 C 1341 862.428 1343.95 841.23 1353.19 825.866 C 1353.33 825.631 1353.48 825.402 1353.63 825.169 C 1355.19 860.535 1346.26 891.818 1336.29 925.149 C 1341.44 926.9 1346.5 928.338 1351.85 929.336 C 1376.47 933.927 1398.74 928.954 1419.24 914.649 C 1452.51 891.442 1492.4 844.107 1499.46 803.494 C 1504.96 771.827 1502.22 733.011 1483.2 706.026 C 1475.28 694.796 1465.21 686.003 1451.17 683.866 C 1439.96 682.161 1429.5 685.502 1420.91 692.803 C 1400.33 710.289 1380.51 764.961 1369.47 790.711 C 1366.67 797.241 1362.09 810.259 1356.35 814.562 L 1354.37 813.403 C 1353.96 811.872 1353.56 810.404 1353.34 808.827 C 1353.29 808.474 1353.26 808.119 1353.22 807.765 C 1351.26 810.251 1349.32 813.032 1347.1 815.28 C 1345.18 817.221 1344.17 818.047 1341.44 818.001 C 1337.52 812.845 1340.56 799.084 1341.16 792.692 C 1343.6 766.939 1344.38 741.653 1343.26 715.8 C 1342.59 700.295 1340.47 684.703 1340.79 669.198 C 1310.71 654.539 1283.85 635.572 1255.03 618.746 C 1263.39 635.261 1275.58 650.309 1289.13 662.896 C 1293.61 667.061 1299.28 670.518 1302.85 675.476 L 1302.45 677.872 L 1300.33 678.348 C 1268.1 668.592 1240.37 643.052 1222.35 615.26 C 1205.05 614.469 1187.56 613.423 1170.31 615.526 C 1157.61 617.076 1144.98 620.547 1132.36 622.823 L 1129.97 621.011 C 1126.8 622.169 1123.92 623.657 1120.94 625.226 C 1117.62 623.988 1114.55 622.023 1111.47 620.295 C 1110.19 620.68 1108.96 621.1 1107.7 621.525 C 1098.06 624.782 1089.38 632.834 1079.92 635.193 C 1077.64 633.212 1077.62 631.073 1077.07 628.191 L 1076.87 627.066 C 1075.14 626.792 1074.06 626.538 1072.43 625.84 C 1072.99 617.413 1086.76 599.407 1092.88 594.208 C 1115.74 574.784 1176.15 578.972 1205.73 581.349 C 1183.17 535.26 1166.88 482.849 1162.22 431.551 C 1161.22 420.534 1161.77 403.197 1154.47 394.394 C 1146.4 384.672 1126.71 380.126 1114.46 379.253 C 1107.93 378.786 1101.41 379.475 1094.85 378.946 L 1093.78 378.852 C 1100.39 367.441 1112.63 359.556 1124.35 353.961 C 1140.29 346.355 1153.22 347.247 1169.48 353.099 L 1169.99 353.753 L 1169.48 353.099 C 1166.59 350.363 1163.65 348.129 1159.93 346.615 C 1143.86 340.072 1122.25 349.207 1108.77 358.344 C 1104.24 361.421 1099.02 366.555 1093.91 368.323 C 1092.68 368.748 1091.24 368.895 1090.06 368.08 C 1080.71 361.634 1074.09 334.166 1055.35 325.894 C 1055.09 325.778 1054.82 325.672 1054.55 325.561 L 1054.01 325.128 z M 654.346 334.481 L 652.554 336.449 L 652.168 336.995 L 652.554 336.449 L 654.346 334.481 L 654.787 333.005 L 654.346 334.481 z M 894.448 338.574 C 872.226 362.697 871.83 403.271 870.505 434.118 C 870.036 445.037 868.965 456.412 869.42 467.318 C 869.658 473.007 869.955 478.717 871.211 484.286 C 873.461 476.718 871.968 464.828 872.028 456.75 C 872.306 441.607 873.412 426.345 876.902 411.565 C 879.044 402.496 887.036 384.986 886.864 377.064 L 886.139 377.116 C 882.903 384.306 881.397 393.886 877.443 400.437 C 874.956 385.474 884.017 365.053 889.565 351.175 C 891.157 347.192 893.628 342.752 894.448 338.574 L 894.857 338.005 L 894.448 338.574 z M 650.359 341.489 L 648.434 343.63 L 647.825 345.552 L 647.228 345.995 L 647.825 345.552 L 648.434 343.63 L 650.359 341.489 L 650.802 340.005 L 650.359 341.489 z M 1023.83 355.346 C 1014.45 358.174 1001.39 370.338 997.247 379.357 C 996.77 380.395 996.782 380.508 996.553 381.464 L 996.157 381.995 L 996.553 381.464 C 1000.69 378.056 1004.27 372.95 1008.14 369.103 C 1012.83 364.433 1017.94 360.767 1022.74 356.36 L 1023.83 355.346 L 1024.99 355.005 L 1023.83 355.346 z M 1356.16 356.005 L 1356.69 356.427 C 1364.24 365.431 1370.83 375.465 1377.64 385.051 C 1401.37 418.423 1416.5 443.849 1430.07 482.788 C 1430.04 479.385 1429.39 476.026 1428.68 472.707 C 1425.81 459.309 1420.78 446.713 1415.62 434.077 C 1401.5 399.488 1389.11 377.419 1356.69 356.427 L 1356.16 356.005 z M 831.798 366.751 C 833.033 360.008 830.957 353.97 832.391 347.309 C 832.551 346.567 832.641 345.811 832.764 345.062 C 830.121 347.55 828.953 350.945 825.643 352.58 C 824.122 345.432 829.797 336.026 832.681 329.441 C 808.678 349.838 813.715 346.876 805.279 376.113 C 807.703 372.953 810.28 369.851 812.402 366.481 C 815.664 371.893 815.23 373.883 815.018 379.996 C 817.742 380.328 822.952 375.486 825.248 373.693 L 830.383 369.638 C 827.567 378.483 824.17 387.491 822.349 396.597 C 828.935 382.881 837.329 368.069 840.748 353.203 C 840.998 352.116 841.276 351.039 841.521 349.951 C 838.081 355.472 834.81 360.985 831.798 366.751 z M 1381.02 368.086 L 1382.51 368.518 L 1383.17 370.548 C 1384.41 372.983 1385.42 373.868 1387.69 375.368 L 1388.15 376.214 L 1388.69 376.742 C 1393.88 387.875 1404.36 397.676 1411.32 407.937 C 1414.06 411.966 1416.07 416.836 1419.26 420.467 L 1419.79 420.995 L 1419.26 420.467 C 1418.96 415.61 1416.61 410.601 1414.48 406.304 L 1413.9 405.153 L 1414.42 404.359 C 1421.99 405.705 1423.39 410.008 1427.97 415.438 L 1429 414.986 C 1428.95 413.425 1428.81 412.33 1427.86 411.036 C 1421.8 402.811 1417.25 393.158 1411.75 384.461 C 1407.14 382.231 1402.91 379.488 1398.64 376.667 L 1398.01 376.025 L 1397.16 375.177 L 1398.01 376.025 L 1398.64 376.667 C 1403.71 385.619 1409.09 393.486 1412.06 403.486 C 1403.24 395.584 1397.95 384.148 1388.69 376.742 L 1388.15 376.214 L 1387.69 375.368 C 1386.36 372.885 1385.68 371.868 1383.17 370.548 L 1382.51 368.518 L 1381.02 368.086 z M 908.154 385.464 C 903.875 397.593 897.929 411.292 897.95 424.347 C 901.783 412.193 907.925 398.106 908.154 385.464 L 908.748 385.005 L 908.154 385.464 z M 1308.21 391.005 L 1308.75 391.555 C 1313.81 403.115 1319.81 415.19 1326.96 425.575 C 1327.71 426.67 1328.42 427.806 1329.15 428.918 L 1330.36 430.451 L 1330.83 430.995 L 1330.36 430.451 L 1329.15 428.918 L 1328.56 424.628 L 1329.52 423.818 C 1332.16 427.909 1333.66 433.253 1337.27 436.461 L 1337.75 436.942 L 1337.27 436.461 C 1336.31 432.127 1334.87 428.202 1333.21 424.091 C 1340.55 432.709 1345.17 443.476 1352.45 451.856 L 1353.23 453.476 L 1353.76 453.995 L 1353.23 453.476 L 1352.45 451.856 C 1346.15 428.026 1327.46 398.13 1310.8 380.361 C 1314.69 389.922 1320.12 398.89 1324.32 408.354 C 1318.73 403.373 1313.91 397.041 1308.75 391.555 L 1308.21 391.005 z M 1310.19 407.005 L 1310.61 407.52 C 1314.02 414.742 1318.33 422.823 1323.47 428.936 L 1324.22 430.43 L 1324.76 430.995 L 1324.22 430.43 L 1323.47 428.936 C 1321.39 420.439 1317.02 413.451 1310.61 407.52 L 1310.19 407.005 z M 1301.7 426.155 L 1303.07 427.943 L 1304.35 429.396 L 1305.24 430.226 L 1305.72 430.702 C 1307.45 434.398 1309.29 436.955 1312.5 439.518 L 1313.14 440.22 L 1314.38 442.612 L 1315.2 443.168 L 1316.38 445.64 L 1317.23 446.14 L 1318.34 448.464 L 1318.82 448.964 L 1318.34 448.464 L 1317.23 446.14 L 1316.38 445.64 L 1315.2 443.168 L 1314.38 442.612 L 1313.14 440.22 L 1312.5 439.518 C 1310.87 435.582 1309.14 433.249 1305.72 430.702 L 1305.24 430.226 L 1304.35 429.396 L 1303.07 427.943 L 1301.7 426.155 z M 1290.72 442.1 L 1292.06 443.943 L 1293.41 445.334 L 1293.99 445.995 L 1293.41 445.334 L 1292.06 443.943 L 1290.72 442.1 z M 1277.18 446.005 L 1278 447 L 1278.63 447.637 C 1280.73 453.665 1285.04 460.576 1289.68 465.014 L 1291 467 L 1291.8 467.995 L 1291 467 L 1289.68 465.014 C 1287.61 459.142 1283.21 451.876 1278.63 447.637 L 1278 447 L 1277.18 446.005 z M 1270.01 451.168 L 1271.65 452.448 L 1271.83 453.658 C 1274.51 460.891 1280.87 471.079 1286.54 476.416 L 1286.9 476.995 L 1286.54 476.416 C 1284.66 469.014 1277.42 458.731 1271.83 453.658 L 1271.65 452.448 L 1270.01 451.168 z M 876.392 525.404 C 875.813 527.98 877.274 530.142 878.344 532.414 L 879 535 L 880.435 539.261 L 881 541 L 882.367 545.283 C 882.542 546.122 882.657 547.222 883 548 L 883.995 549.995 L 883 548 C 882.939 547.117 882.589 546.144 882.367 545.283 L 881 541 L 880.435 539.261 L 879 535 C 878.935 534.16 878.573 533.229 878.344 532.414 C 878.049 529.337 878.183 527.984 876.392 525.404 z M 1413.87 498.049 C 1415.98 516.563 1423.58 536.946 1432.18 553.415 L 1432.75 553.995 L 1432.18 553.415 C 1430.33 537.03 1422.31 512.193 1413.87 498.049 z M 885.084 554.005 L 885.323 556.74 L 886.995 557.995 L 885.323 556.74 L 885.084 554.005 z M 887.064 559.005 L 887.305 561.742 L 888.761 562.824 C 890.382 569.146 893.309 576.88 897.515 581.923 L 898.202 583.449 L 899.333 585.646 L 900.253 587.513 L 900.765 587.995 L 900.253 587.513 L 899.333 585.646 L 898.202 583.449 L 897.515 581.923 C 896.149 576.064 892.991 567.249 888.761 562.824 L 887.305 561.742 L 887.064 559.005 z M 1278.3 1532.47 L 1277.42 1533.3 C 1277.01 1533.75 1276.59 1534.2 1276.18 1534.65 C 1266.84 1545.08 1256.82 1564.61 1249.01 1577.13 C 1240.37 1590.98 1178.69 1690.64 1165.76 1691.88 C 1163.97 1690.23 1163.77 1689.76 1163.84 1687.12 C 1163.93 1683.35 1166.89 1678.54 1168.86 1675.46 C 1176.32 1663.81 1184.87 1652.76 1192.73 1641.35 C 1202.96 1626.5 1212.8 1611.29 1222.79 1596.27 C 1238.34 1572.9 1252.51 1548.66 1267.95 1525.25 C 1276.02 1513.01 1286.52 1500.92 1293.25 1487.99 C 1311.58 1452.77 1343.03 1332.89 1342.88 1294.57 C 1338.12 1286.41 1333.54 1278.43 1329.83 1269.73 C 1318.75 1243.8 1311.27 1212.77 1287.55 1195.18 C 1287.18 1199.22 1286.45 1203.87 1287.04 1207.9 C 1289.35 1223.43 1296.92 1233.58 1294.68 1250.39 C 1288.03 1300.38 1200.45 1377.77 1161.23 1410.52 C 1129.38 1437.1 1093.92 1463.44 1055.28 1479.01 C 1053.75 1498.27 1044.75 1517.59 1039.51 1536.15 C 1044.45 1535.75 1057.76 1533.33 1061.88 1535.61 L 1059.05 1537.17 C 1022.66 1552.1 995.809 1548.12 959.73 1554.35 L 953.841 1563.35 C 978.755 1561.55 1003.61 1558.93 1028.52 1557.2 C 1047.4 1555.89 1066.74 1555.86 1085.44 1552.98 C 1082.76 1546.87 1079.84 1536.99 1073.98 1533.3 C 1071.77 1533.76 1069.71 1534.18 1067.45 1534.29 C 1067.07 1532.14 1067.6 1531.09 1068.24 1529.04 C 1065.88 1518.79 1056.86 1504.95 1060.97 1494.36 L 1062.54 1494.23 C 1081.57 1510.61 1129.1 1604.62 1144.14 1632.53 C 1150.91 1645.08 1160.6 1659.04 1165.26 1672.34 C 1165.1 1672.83 1164.93 1673.31 1164.77 1673.8 C 1164.26 1675.39 1163.94 1676.86 1163.66 1678.5 C 1161.01 1678.5 1159.9 1677 1158.13 1675.17 C 1135.64 1651.84 1123.81 1617.84 1107.11 1590.62 C 1100.09 1612.07 1083.06 1668.93 1068 1683.78 C 1068.02 1687.33 1067.85 1691.33 1068.95 1694.73 C 1072.56 1705.93 1079.39 1717.11 1084.56 1727.74 C 1091.2 1741.66 1096.78 1756.06 1101.27 1770.82 C 1110 1799.79 1113.71 1829.2 1117.29 1859.14 C 1136.41 1830.34 1155.45 1800.97 1171.83 1770.52 C 1199.2 1719.63 1220.87 1666.73 1243.68 1613.77 C 1251.77 1595.43 1259.65 1577 1267.33 1558.49 C 1270.73 1550.32 1274.9 1541.77 1277.42 1533.3 L 1278.3 1532.47 L 1278.75 1531.01 L 1278.3 1532.47 z M 1645.55 1668.67 C 1630.56 1680.87 1617.37 1696.57 1604.02 1710.59 C 1574.06 1742.05 1544.95 1774.36 1514.89 1805.69 C 1497.65 1823.65 1477.48 1838.88 1458.85 1855.36 C 1451 1862.3 1426.39 1881.83 1425.49 1891.51 C 1425.45 1891.88 1425.52 1892.25 1425.53 1892.61 C 1427.4 1894.2 1427.9 1894.1 1430.4 1893.83 C 1446.64 1892.03 1486.8 1840.3 1502.47 1828.58 C 1497.53 1840.78 1482.69 1856.72 1474.84 1868.54 C 1472.04 1872.77 1468.16 1878.99 1469.24 1884.19 L 1470.93 1885 C 1480.53 1882.64 1505.17 1861.33 1515.7 1854.51 C 1510.14 1861.01 1504.52 1867.11 1501.22 1875.11 L 1503.08 1876.75 L 1503.59 1876.47 L 1501.69 1874.23 L 1504.5 1875.93 C 1526.64 1861.21 1561.31 1817.27 1579.95 1795.7 C 1590.53 1783.46 1602.07 1771.65 1611.64 1758.61 C 1598.54 1769.63 1584.82 1780.4 1572.41 1792.19 C 1545.9 1817.36 1521.44 1848.1 1487.63 1863.95 L 1600.35 1726.22 C 1614.45 1708.74 1634.62 1687.55 1645.55 1668.67 L 1645.99 1668.18 L 1645.55 1668.67 z M 201.237 1573.29 C 200.258 1583.58 202.896 1595.52 204.171 1605.83 C 209.062 1645.34 217.496 1683.86 225.809 1722.77 C 237.199 1777.49 250.158 1831.87 264.672 1885.85 C 268.223 1898.96 270.982 1912.97 276.059 1925.56 L 276.75 1925.99 L 276.059 1925.56 C 275.976 1911.43 268.981 1886.59 265.961 1871.67 C 256.213 1821.77 245.601 1772.03 234.129 1722.5 C 227.065 1690.61 219.763 1658.66 213.339 1626.64 C 210.359 1611.78 208.731 1596.53 205.212 1581.79 C 204.407 1578.42 203.404 1575.99 201.237 1573.29 z M 651.441 310.5 L 652.49 310.5 L 651.441 310.5 z M 812.149 309.88 C 804.968 319.916 782.754 354.515 783.369 364.66 C 783.403 365.224 783.643 365.757 783.779 366.305 C 790.001 354.658 795.395 342.602 801.597 330.975 C 804.577 325.387 810.313 318.355 812.156 312.448 C 812.427 311.581 812.36 310.734 812.149 309.88 z M 819.423 323.697 C 813.747 332.819 793.454 360.533 794.544 371.199 C 798.798 364.206 820.78 331.806 819.776 325.008 C 819.71 324.56 819.54 324.134 819.423 323.697 z M 643.379 329.5 L 644.176 329.5 L 643.379 329.5 z M 642.366 331.5 L 643.089 331.5 L 642.366 331.5 z M 655.407 331.5 L 656.239 331.5 L 655.407 331.5 z M 651.349 338.5 L 652.212 338.5 L 651.349 338.5 z M 646.532 347.5 L 647.49 347.5 L 646.532 347.5 z M 645.545 349.5 L 646.49 349.5 L 645.545 349.5 z M 644.477 351.974 L 645.022 352.5 L 644.477 351.974 z M 643.289 354.5 L 644.063 354.5 L 643.289 354.5 z M 1026.76 354.5 L 1028.49 354.5 L 1026.76 354.5 z M 664.39 366.5 L 665.056 366.5 L 664.39 366.5 z M 782.512 367.5 L 783.336 367.5 L 782.512 367.5 z M 1467.36 371.5 L 1468.16 371.5 L 1467.36 371.5 z M 793.413 372.5 L 794.076 372.5 L 793.413 372.5 z M 897.304 379.674 C 893.746 389.745 887.183 407.305 891.392 417.909 C 892.117 411.599 898.422 383.101 897.304 379.674 z M 924.434 381.757 C 919.771 389.796 907.994 417.244 909.997 426.682 C 910.119 427.256 910.338 427.805 910.509 428.366 C 913.407 420.003 925.298 388.814 924.434 381.757 z M 1225.2 397.576 C 1237.56 428.141 1253.49 462.554 1279.27 484.149 C 1269.24 464.878 1240.51 409.067 1225.2 397.576 z M 1309.2 405.5 L 1310.09 405.5 L 1309.2 405.5 z M 1285.73 419.668 C 1292.84 438.484 1299.84 450.883 1313.3 465.687 C 1316.15 468.814 1318.86 472.569 1322.19 475.136 C 1316.04 456.887 1299.95 432.301 1285.73 419.668 z M 1325.23 432.5 L 1326.04 432.5 L 1325.23 432.5 z M 1321.41 453.5 L 1322.12 453.5 L 1321.41 453.5 z M 1287.46 478.5 L 1288.3 478.5 L 1287.46 478.5 z M 1207.18 486.936 L 1208.04 487.5 L 1207.18 486.936 z M 827.201 488.708 C 821.854 511.825 831.838 552.269 836.062 575.803 L 854.128 576.146 C 839.494 548.051 832.205 519.817 827.201 488.708 z M 1207.3 490.325 C 1210.25 523.229 1217.32 556.155 1231.02 586.34 C 1232.42 589.418 1234.34 595.036 1237.04 597.088 C 1237.26 597.256 1237.52 597.365 1237.75 597.504 C 1230.59 577.486 1222.63 557.467 1217.6 536.784 C 1213.91 521.638 1212.62 505.427 1208.33 490.594 L 1207.3 490.325 z M 1413.41 496.898 L 1414.49 497.5 L 1413.41 496.898 z M 797.553 525.5 L 798.49 525.5 L 797.553 525.5 z M 798.179 528.5 L 799.006 528.5 L 798.179 528.5 z M 755.387 542.75 C 755.73 563.253 755.555 582.797 760.7 602.832 C 764.575 600.284 768.441 597.437 772.55 595.291 C 774.716 594.345 777.869 593.601 779.163 591.634 C 776.623 587.649 773.553 583.686 771.48 579.449 C 767.449 571.212 760.418 547.691 755.387 542.75 z M 801.178 544.5 L 802 544.5 L 801.178 544.5 z M 801.557 547.5 L 802.49 547.5 L 801.557 547.5 z M 884.327 551.912 L 885.49 552.5 L 884.327 551.912 z M 683.775 581.591 C 685.848 596.39 693.556 648.859 699.995 658.224 C 700.416 655.79 700.149 654.131 699.728 651.738 C 700.543 642.062 702.734 635.237 708.595 627.329 C 702.555 618.804 697.12 610.487 692.631 601.012 C 689.706 594.837 687.376 587.311 683.775 581.591 z M 902.312 591.5 L 903.137 591.5 L 902.312 591.5 z M 903.437 593.5 L 904.262 593.5 L 903.437 593.5 z M 1237.34 598.918 L 1238.49 599.5 L 1237.34 598.918 z M 597.62 683.876 C 575.385 696.107 563.895 722.497 557.196 745.94 C 548.263 777.197 548.729 810.795 564.966 839.44 C 582.262 869.953 621.205 909.32 655.971 918.641 C 666.57 921.482 678.251 919.705 689.053 918.788 C 683.867 894.145 680.354 868.512 676.567 843.595 C 674.99 833.222 674.41 822.119 671.88 811.96 C 671.363 809.881 670.95 808.4 669.152 807.066 C 667.933 806.161 666.51 805.434 665.177 804.711 C 660.102 794.556 657.756 782.786 653.369 772.219 C 654.86 781.271 656.546 790.039 654.904 799.212 C 653.258 808.408 643.158 820.137 644.182 828.593 C 645.48 839.313 656.141 849.621 661.152 859.059 C 665.695 867.617 668.245 877.408 669.286 887.009 L 668.791 893.017 C 664.547 890.044 661.28 875.299 659.081 870.024 C 652.447 854.108 632.745 848.688 629.565 829.995 C 625.902 808.466 655.438 777.485 647.449 765.04 C 645.54 763.845 643.609 762.686 641.656 761.566 C 638.51 756.154 636.306 751.007 634.167 745.14 C 639.317 750.33 643.875 755.666 647.763 761.887 C 648.433 760.073 648.307 758.516 647.573 756.718 C 645.081 750.611 623.176 727.607 617.377 725.731 C 617.069 725.632 616.742 725.603 616.425 725.539 L 615.518 726.765 L 615.958 729.66 C 612.24 729.831 608.52 729.949 604.798 730.015 C 590.583 739.805 583.473 757.458 579.921 773.852 C 578.753 779.244 578.355 785.228 575.955 790.219 C 574.009 787.822 574.792 781.302 575.088 778.092 C 575.283 775.98 575.596 774.166 576.236 772.146 C 576.861 770.172 576.694 771.21 576.587 768.996 C 576.048 757.904 598.794 716.134 606.247 707.088 C 609.421 706.63 611.063 707.432 613.591 709.399 C 627.276 720.048 634.235 737.017 647.016 748.461 C 640.119 728.053 627.431 695.63 606.761 685.22 C 603.79 683.723 600.871 683.675 597.62 683.876 z M 1291.69 1025.72 C 1282.88 1044.84 1272.63 1063.76 1259.95 1080.63 C 1228.48 1122.52 1190.48 1157 1153.3 1193.47 C 1118.23 1227.87 1074.42 1280.21 1027.64 1297.25 C 1007.13 1304.72 985.286 1302.73 965.698 1293.45 C 922.369 1272.93 869.898 1205.78 840.116 1166.95 C 828.41 1151.69 817.307 1135.57 804.941 1120.85 C 808.049 1137.4 811.604 1154.05 813.803 1170.75 C 816.855 1193.91 818.314 1217.35 820.111 1240.63 C 821.386 1257.15 824.262 1276.62 820.83 1292.87 C 828.244 1303.07 836.379 1312.79 844.336 1322.57 C 876.921 1361.03 912.955 1396.44 951.988 1428.34 C 968.542 1442.04 993.509 1455.07 1007.02 1470.9 C 1020.77 1487 1023.2 1531.6 1028.66 1536.51 C 1029.17 1536.12 1029.83 1535.88 1030.18 1535.36 C 1032.36 1532.18 1036.47 1510.18 1038.04 1504.68 C 1041.32 1493.17 1044.68 1482.12 1050.2 1471.44 C 1064.62 1463.67 1078.86 1455.98 1092.45 1446.81 C 1144.92 1411.42 1194.05 1368.09 1237.66 1322.35 C 1251.64 1307.69 1266.11 1292.61 1276.96 1275.41 C 1275.55 1272.8 1274.2 1270.17 1273.62 1267.23 C 1271.04 1253.99 1272.4 1238.53 1272.61 1225.03 C 1273.35 1173.15 1277.26 1121.36 1284.3 1069.96 C 1285.71 1058.91 1293.37 1035.19 1291.69 1025.72 z M 798.758 1174.81 C 789.635 1183.61 779.962 1192.2 772.289 1202.33 C 763.341 1214.14 709.655 1300.63 709.4 1308.6 C 709.057 1319.3 712.68 1331.43 715.239 1341.82 C 735.077 1422.4 775.9 1505.66 813.314 1579.81 C 830.773 1614.41 847.877 1649.14 867.638 1682.52 C 882.283 1665.93 893.946 1645.02 905.272 1626.04 C 919.964 1601.11 934.8 1576.26 949.78 1551.5 C 955.26 1542.08 980.841 1496.36 987.741 1493.86 C 989.025 1497.68 986.753 1502.81 985.603 1506.55 C 991.368 1518.56 999.027 1529.58 1005.59 1541.16 C 1009.93 1540.13 1014.18 1539.18 1018.6 1538.57 C 1012.48 1518.19 1007.23 1497.55 1002.88 1476.72 C 988.309 1472.64 974.243 1460.47 962.263 1451.43 C 905.878 1408.83 838.345 1345.58 803.579 1284.32 C 791.194 1262.5 781.903 1237.92 782.548 1212.51 C 791.297 1239.22 801.625 1262.96 816.028 1287.11 C 812.456 1270.35 802.237 1179.79 798.758 1174.81 z M 1282.79 1226.47 C 1281.95 1239.11 1278.84 1253.4 1279.71 1265.86 L 1280.74 1266.25 L 1281.9 1264.56 C 1285.18 1257.95 1287.8 1251.73 1289.64 1244.55 C 1287.66 1238.48 1285.95 1232.06 1282.79 1226.47 z M 1340.13 1256.7 C 1341.12 1260.22 1342.12 1263.59 1343.59 1266.94 C 1344.1 1265.09 1343.89 1264.12 1343.62 1262.24 L 1344.95 1261.12 C 1347.6 1261.41 1348.84 1261.71 1350.67 1263.78 C 1359.95 1274.3 1357.09 1294.99 1355.39 1307.7 C 1340.59 1418.22 1298.06 1521.39 1255.4 1623.54 C 1229.94 1684.52 1204.05 1745.79 1171 1803.16 C 1145.9 1846.75 1113.62 1892.22 1081.23 1930.59 C 1070.84 1942.89 1060.28 1957.48 1048.26 1968.08 C 1001.39 1934.33 952.258 1877.92 916.885 1832.57 C 892.57 1801.41 867.746 1770.39 846.151 1737.24 C 793.354 1654.71 750.347 1566.32 718.001 1473.84 C 706.225 1440.45 694.981 1406.25 689.278 1371.22 C 685.511 1348.08 680.709 1322.28 683.679 1298.89 C 684.184 1294.92 686.588 1286.12 683.443 1283.17 C 679.885 1284.33 677.751 1287.62 675.438 1290.41 C 674.644 1294.85 673.775 1299.26 673.38 1303.75 C 672.487 1318.19 673.9 1332.83 675.217 1347.21 C 679.147 1390.14 689.935 1430.65 703.275 1471.5 C 709.156 1489.51 714.838 1507.63 721.716 1525.28 C 741.173 1575.23 765.849 1623.36 791.372 1670.44 C 803.164 1692.19 814.78 1714.09 828.014 1735.01 C 861.29 1787.25 898.696 1836.73 939.873 1882.99 C 965.975 1912.58 993.813 1938.75 1022.9 1965.25 C 1030.32 1972.01 1037.28 1980.49 1045.45 1986.21 C 1053.28 1979.3 1061.61 1972.95 1069.13 1965.69 C 1105.67 1930.47 1136.51 1887.6 1163.53 1844.85 C 1213.34 1766.03 1248.49 1679.47 1283.04 1593.25 C 1320.24 1500.39 1361.34 1406.54 1367.74 1305.28 C 1368.8 1288.6 1368.82 1273.4 1358.18 1259.44 C 1352.08 1257.99 1346.39 1257.05 1340.13 1256.7 z M 716.527 1265.12 C 712.046 1266.87 703.337 1269.35 700.46 1272.94 L 701.356 1273.69 L 702.204 1273.21 L 714.693 1270.59 L 717.197 1266.49 L 716.843 1265.27 L 716.527 1265.12 z M 1344.4 1268.5 L 1345.08 1268.5 L 1344.4 1268.5 z M 701.894 1283.3 C 694.229 1291.72 693.02 1299.93 693.554 1311.04 C 695.849 1358.75 713.832 1415.01 729.302 1460.2 C 783.542 1618.58 870.272 1763.88 983.933 1886.78 C 1004.99 1909.2 1028.36 1928.73 1050.55 1949.9 C 1052.54 1947.62 1054.66 1945.38 1056.53 1943.01 L 1061.9 1935.26 C 1015.28 1919.81 909.67 1779.43 881.111 1734.58 C 855.006 1693.59 832.301 1649.95 810.484 1606.56 C 770.093 1526.22 730.712 1442.96 707.707 1355.81 C 702.492 1336.05 694.174 1312.34 701.125 1292.01 C 701.999 1289.45 703.278 1286.94 704.443 1284.51 L 701.894 1283.3 z M 971.685 1533.6 C 969.105 1537.34 965.069 1541.85 964.472 1546.41 L 965.412 1547.49 L 968.709 1547.45 C 971.982 1546.22 974.131 1545.89 976.383 1543.16 C 976.713 1540.16 975.95 1538.48 974.027 1536.14 C 973.317 1535.28 972.525 1534.31 971.685 1533.6 z M 974.759 1547.5 L 976.49 1547.5 L 974.759 1547.5 z M 364.426 1552.5 L 365.49 1552.5 L 364.426 1552.5 z M 359.291 1556.5 L 360.49 1556.5 L 359.291 1556.5 z M 949.448 1574.77 C 938.613 1588.94 892.416 1686.05 878.926 1686.94 C 876.105 1687.13 873.24 1686.02 870.558 1685.24 C 888.238 1719.03 909.273 1750.97 933.345 1780.55 C 942.144 1791.75 950.821 1803.12 959.991 1814.02 C 962.818 1787.26 968.072 1761.54 973.723 1735.26 C 975.052 1729.08 975.529 1721.5 977.535 1715.6 C 978.668 1712.27 980.477 1709.06 982.161 1705.98 C 980.5 1704.12 979.126 1703.3 976.884 1702.23 C 966.658 1686.25 959.12 1623.78 955.683 1602.45 C 954.398 1594.48 953.636 1581.55 949.448 1574.77 z M 1058.45 1684.36 C 1042.69 1686.84 999.05 1690.5 986.877 1696.36 C 985.093 1698.85 985.184 1699.31 985.083 1702.41 L 987.009 1703.23 C 998.904 1701.37 1053.22 1697.52 1059.47 1693.76 C 1060.06 1690.91 1060.08 1688.33 1060.03 1685.44 C 1058.69 1684.31 1059.32 1684.42 1058.45 1684.36 z M 1602.84 1685.16 C 1573.52 1710.74 1542.91 1735 1514.06 1761.1 C 1481.2 1790.84 1450.08 1822.53 1418.6 1853.71 C 1406.09 1866.11 1380.5 1887.88 1373.57 1902.99 L 1373.67 1905 C 1390.44 1897.73 1405.66 1884.26 1419.41 1872.31 C 1452.82 1843.29 1482.66 1811.95 1513.42 1780.28 C 1536.13 1756.9 1559.29 1734.09 1581.41 1710.13 C 1587.09 1703.98 1599.01 1693.33 1602.53 1686.31 C 1602.71 1685.96 1602.74 1685.54 1602.84 1685.16 z"/>
<path transform="translate(0,0)" fill="rgb(0,0,0)" d="M 751.623 311.726 L 752.882 311.212 L 751.623 311.726 z"/>
<path transform="translate(0,0)" fill="rgb(0,0,0)" d="M 750.749 314.677 L 751.623 311.726 L 750.749 314.677 z"/>
<path transform="translate(0,0)" fill="rgb(0,0,0)" d="M 750.215 314.876 L 750.749 314.677 L 750.215 314.876 z"/>
<path transform="translate(0,0)" fill="rgb(0,0,0)" d="M 782.232 324.521 L 782.749 324.005 L 782.232 324.521 z"/>
<path transform="translate(0,0)" fill="rgb(0,0,0)" d="M 831.177 367.912 L 831.798 366.751 L 831.177 367.912 z"/>
<path transform="translate(0,0)" fill="rgb(0,0,0)" d="M 1412.06 403.486 L 1412.97 403.731 L 1412.06 403.486 z"/>
<path transform="translate(0,0)" fill="rgb(0,0,0)" d="M 1324.32 408.354 L 1324.78 408.832 L 1324.32 408.354 z"/>
<path transform="translate(0,0)" fill="rgb(0,0,0)" d="M 1091.5 694.405 C 1099.45 680.029 1117.02 671.376 1132.19 666.918 C 1147.55 662.4 1184.07 659.206 1198.5 665.161 C 1169.94 665.577 1140.86 665.134 1114.64 678.868 C 1106.5 683.135 1099.86 691.105 1091.5 694.405 z"/>
<path transform="translate(0,0)" fill="rgb(0,0,0)" d="M 751.082 674.844 L 751.527 674.354 L 751.082 674.844 z"/>
<path transform="translate(0,0)" fill="rgb(0,0,0)" d="M 888.403 709.725 C 888.347 711.825 888.226 713.922 888.04 716.014 C 887.014 726.774 883.358 737.213 874.669 744.204 C 864.358 752.5 845.916 753.782 833.101 752.172 C 825.25 751.186 818.284 747.845 813.614 741.302 C 807.516 732.756 806.805 721.031 809.124 711.027 C 810.996 702.948 817.981 704.391 824.09 700.71 C 824.368 700.543 824.64 700.367 824.914 700.196 C 824.038 701.736 822.905 703.477 822.363 705.16 C 821.418 708.1 821.871 711.316 823.397 713.978 C 825.161 717.057 828.065 718.655 831.389 719.573 C 836.565 721.002 839.219 719.427 843.613 716.895 C 844.798 716.564 845.733 715.56 846.69 714.801 C 847.864 712.119 847.528 711.935 846.681 709.083 C 841.517 703.763 832.293 700.408 824.914 700.196 C 821.404 698.129 817.415 700.249 814.531 697.489 L 815.669 693.931 L 814.931 693.029 C 803.421 692.942 779.954 704.04 769.731 709.647 C 766.067 711.656 757.625 716.158 756.921 720.478 C 755.561 728.825 772.83 751.979 777.548 759.355 C 760.018 752.862 751.08 740.81 741.009 725.93 C 735.623 724.682 727.693 723.487 723.89 719.174 C 721.339 716.281 720.951 715.033 721.057 711.258 C 725.384 708.892 729.362 711.434 733.505 710.352 C 733.968 710.232 746.56 697.143 749.325 695.21 C 762.545 685.968 778.586 681.238 794.055 677.417 C 822.24 673.136 853.886 672.264 878.275 689.564 C 892.7 699.796 897.795 713.304 900.571 730.04 C 896.791 723.067 892.688 716.398 888.403 709.725 z"/>
<path transform="translate(0,0)" fill="rgb(0,0,0)" d="M 1108.5 719.983 C 1105.8 721.788 1102.29 724.952 1099.08 724.34 L 1098.77 722.07 C 1100.96 716.267 1104.51 710.873 1108.44 706.081 C 1126.5 684.038 1156.87 682.166 1183.23 679.404 C 1206 677.486 1236.74 683.93 1256.24 696.155 C 1270.1 704.841 1280.21 717.613 1283.83 733.67 C 1280.85 728.977 1277.58 724.517 1274.31 720.029 C 1275.31 725.737 1276.47 731.495 1277.17 737.247 C 1277.58 740.583 1277.61 742.905 1275.51 745.574 C 1273.36 745.405 1272.76 745.336 1271.2 743.59 C 1267.63 739.597 1264.94 733.882 1261.68 729.504 C 1250.08 713.91 1235.82 703.555 1216.84 699.264 C 1216.95 699.418 1217.05 699.574 1217.16 699.727 C 1223.79 709.12 1225.67 717.007 1223.83 728.592 C 1222.68 735.844 1220.58 744.706 1214.12 749.082 C 1202 757.296 1174.86 756.155 1160.94 753.409 C 1157.66 751.707 1155.11 749.497 1152.95 746.469 C 1145.79 736.424 1145.83 723.862 1147.55 712.21 C 1152.16 713.563 1156.83 714.726 1161.47 715.952 C 1161.62 716.382 1161.76 716.819 1161.93 717.244 C 1163.71 721.71 1166.07 725.559 1170.67 727.475 C 1174.23 728.962 1177.99 729.059 1181.47 727.344 C 1183.72 726.239 1185.52 724.034 1185.95 721.552 C 1186.38 719.019 1185.35 716.905 1183.77 715.004 C 1178.92 709.168 1170.22 709.5 1163.35 708.945 C 1160.63 706.479 1158.3 703.865 1155.93 701.066 C 1154.56 700.617 1153.72 700.464 1152.33 700.955 C 1147.68 702.6 1143.84 702.548 1139.11 703.372 C 1121.09 706.509 1117.28 718.017 1107.22 730.796 C 1105.93 732.434 1104.38 734.89 1102.28 735.169 L 1101.25 732.683 C 1101.42 728.441 1106.07 723.429 1108.5 719.983 z"/>
<path transform="translate(0,0)" fill="rgb(0,0,0)" d="M 1091.11 694.839 L 1091.5 694.405 L 1091.11 694.839 z"/>
<path transform="translate(0,0)" fill="rgb(0,0,0)" d="M 967.549 709.165 L 967.005 708.198 L 967.549 709.165 z"/>
<path transform="translate(0,0)" fill="rgb(0,0,0)" d="M 967.549 709.165 C 983.801 729.202 989.306 763.49 986.639 788.478 C 984.607 807.51 976.028 832.053 961.779 845.503 C 963.116 835.175 968.772 824.429 971.593 814.323 C 981.161 780.047 978.458 742.731 967.549 709.165 z"/>
<path transform="translate(0,0)" fill="rgb(0,0,0)" d="M 1354.89 889.325 C 1361.41 877.097 1374.23 868.628 1379.61 856.379 C 1387.77 837.817 1370.89 819.699 1374.89 801.152 C 1379.77 778.558 1400.03 760.636 1414.58 743.932 C 1423.29 733.933 1431.48 722.105 1442.79 714.947 C 1444.04 714.995 1444.72 714.991 1446.03 715.19 C 1454.96 716.555 1460.16 725.51 1464.82 732.341 C 1456.13 731.172 1447.41 730.225 1438.66 729.501 C 1430.32 738.429 1423.37 749.597 1415.86 759.31 C 1408.52 768.792 1400.24 777.56 1393.6 787.558 C 1393.97 801.127 1395.17 814.206 1404.05 825.279 C 1406.89 828.82 1410.36 831.828 1413.22 835.329 C 1414.85 837.317 1415.44 838.19 1415.09 840.733 C 1412.59 841.535 1410.51 840.56 1408.23 839.503 C 1395.54 833.607 1389.35 821.355 1384.75 808.947 C 1385.13 821.277 1390.99 833.468 1392.93 845.764 C 1393.1 849.668 1392.94 853.617 1392.9 857.526 C 1384.45 871.771 1367.82 879.687 1354.89 889.325 z M 1384.57 803.355 L 1385.1 804.012 L 1384.57 803.355 z M 1384.6 806.893 L 1385.49 807.5 L 1384.6 806.893 z"/>
<path transform="translate(0,0)" fill="rgb(0,0,0)" d="M 620.49 730.5 L 619.263 730.5 L 620.49 730.5 z"/>
<path transform="translate(0,0)" fill="rgb(0,0,0)" d="M 1466.95 816.396 C 1466.23 817.746 1465.84 818.058 1464.67 818.967 C 1463.7 814.835 1469.41 785.624 1469.61 777.539 C 1469.94 763.938 1466.66 750.913 1466.42 737.434 L 1466.4 736.078 C 1469.8 739.668 1472.98 744.987 1474.71 749.6 C 1482.65 770.802 1476.14 796.701 1466.95 816.396 z"/>
<path transform="translate(0,0)" fill="rgb(0,0,0)" d="M 1457.52 789.36 L 1456.64 789.674 C 1451.18 780.685 1448.46 748.903 1449.05 737.516 C 1449.78 737.978 1450.03 738.059 1450.61 738.862 C 1458.71 750.107 1459.17 776.259 1457.52 789.36 z"/>
<path transform="translate(0,0)" fill="rgb(0,0,0)" d="M 617.323 805.132 L 614.919 806.571 L 613.518 805.518 C 612.374 801.322 612.038 797.209 612.008 792.879 C 611.885 775.59 615.984 751.28 628.454 738.487 C 630.932 739.7 632.752 741.106 634.824 742.877 C 637.122 749.549 627.041 764.2 624.815 771.502 C 621.501 782.377 619.692 794.002 617.323 805.132 z"/>
<path transform="translate(0,0)" fill="rgb(0,0,0)" d="M 1437.91 805.476 C 1436.82 805.553 1436.87 805.795 1436.13 805.027 C 1432.46 801.202 1426.83 758.934 1427.51 752.346 C 1429.63 753.408 1431.02 754.72 1432.3 756.707 C 1440.74 769.881 1441.18 790.625 1437.91 805.476 z"/>
<path transform="translate(0,0)" fill="rgb(0,0,0)" d="M 877.586 759.713 C 870.555 763.792 863.773 766.464 855.869 768.22 C 833.195 773.255 810.83 769.331 791.308 756.805 C 813.402 759.977 832.615 764.89 855.348 762.28 C 863.514 761.343 871.341 758.317 879.356 757.5 L 877.586 759.713 z"/>
<path transform="translate(0,0)" fill="rgb(0,0,0)" d="M 1230.73 762.815 C 1207.76 773.005 1173.9 777.759 1149.99 768.088 C 1145.64 766.329 1137.37 761.792 1135.39 757.263 C 1142.35 758.812 1149.15 761.386 1156.08 763.137 C 1172.53 767.29 1190.05 767.091 1206.69 764.125 C 1212.19 763.144 1228.68 758.249 1233.2 761.104 L 1230.73 762.815 z"/>
<path transform="translate(0,0)" fill="rgb(0,0,0)" d="M 1207.75 840.155 C 1207.67 840.293 1207.62 840.452 1207.5 840.567 C 1205.73 842.395 1205.02 842.834 1202.62 843.326 L 1202.04 841.982 C 1203.5 835.994 1217.69 811.036 1222.08 806.394 C 1224.55 803.778 1228.43 801.676 1231.45 799.718 C 1232.31 799.867 1233.51 800.463 1234.33 800.782 C 1235.06 805.514 1229.2 809.206 1227.88 814.089 C 1229.81 815.535 1229.13 814.681 1230.08 816.491 C 1227.97 824.568 1214.6 832.093 1208.9 838.792 L 1207.75 840.155 z M 1204.95 839.168 L 1205.26 839.587 L 1204.95 839.168 z"/>
<path transform="translate(0,0)" fill="rgb(0,0,0)" d="M 770.493 845.546 L 769.423 845.671 L 769.119 844.131 C 779.472 828.059 804.397 811.485 821.226 802.801 C 822.294 803.213 821.723 802.854 822.634 804.254 C 818.59 810.681 779.487 838.952 770.493 845.546 z"/>
<path transform="translate(0,0)" fill="rgb(0,0,0)" d="M 1222.63 841.482 C 1227.32 832.804 1246.16 805.751 1255.01 803.425 C 1256.47 803.041 1257.91 802.971 1259.41 802.905 C 1258.55 810.998 1234.02 833.264 1226.64 839.081 C 1225.37 840.082 1224.1 840.822 1222.63 841.482 z"/>
<path transform="translate(0,0)" fill="rgb(0,0,0)" d="M 755.665 838.231 L 754.59 836.642 C 757.166 826.595 772.805 814.058 781.413 808.857 L 782.405 809.542 L 782.421 811.04 C 775.335 821.044 764.601 829.777 755.665 838.231 z"/>
<path transform="translate(0,0)" fill="rgb(0,0,0)" d="M 834.469 810.623 L 834.907 810.193 L 834.469 810.623 z"/>
<path transform="translate(0,0)" fill="rgb(0,0,0)" d="M 789.636 848.232 C 797.871 832.179 819.17 819.047 834.469 810.623 C 829.738 819.048 798.521 845.402 789.636 848.232 z"/>
<path transform="translate(0,0)" fill="rgb(0,0,0)" d="M 1195 837.833 C 1193.34 835.334 1192.3 834.664 1192.98 831.579 C 1194.09 826.479 1200.78 822.285 1204.77 819.644 L 1206.05 820.601 L 1206.32 822.514 C 1203.93 828.567 1200.16 833.85 1195 837.833 z"/>
<path transform="translate(0,0)" fill="rgb(0,0,0)" d="M 662.47 886.185 C 662.208 886.133 661.942 886.095 661.683 886.027 C 638.368 879.928 603.692 840.665 591.273 820.624 C 598.497 823.196 659.078 879.568 662.47 886.185 z"/>
<path transform="translate(0,0)" fill="rgb(0,0,0)" d="M 1222.18 841.89 L 1222.63 841.482 L 1222.18 841.89 z"/>
<path transform="translate(0,0)" fill="rgb(0,0,0)" d="M 961.252 845.89 L 961.779 845.503 L 961.252 845.89 z"/>
<path transform="translate(0,0)" fill="rgb(0,0,0)" d="M 1352.41 901.573 C 1351.18 901.694 1351.83 901.796 1350.53 901.001 C 1352.8 897.292 1355.49 893.778 1359.01 891.173 C 1374.99 879.347 1424.06 862.2 1444.49 854.907 C 1446.29 855.103 1445.45 854.779 1446.98 855.991 C 1444.9 860.09 1439.63 863.216 1435.84 865.724 C 1421.28 875.366 1405.73 882.097 1389.2 887.512 C 1376.72 891.599 1363.62 894.586 1352.41 901.573 z"/>
<path transform="translate(0,0)" fill="rgb(0,0,0)" d="M 993.256 947.149 C 992.325 947.519 991.986 947.692 990.93 947.92 C 981.527 949.956 961.042 935.272 953.613 930.157 C 946.631 925.35 939.301 921.077 937.717 912.291 C 953.13 913.77 974.381 925.599 986.046 935.591 C 990.125 939.084 992.743 941.698 993.256 947.149 z"/>
<path transform="translate(0,0)" fill="rgb(0,0,0)" d="M 1017.53 945.043 L 1015.05 945.92 C 1013.37 945.494 1012.05 945.302 1010.73 944.098 C 1009.63 943.089 1010.08 942.084 1010.09 940.697 C 1016.04 929.094 1031.32 922.069 1042.68 916.96 C 1046.14 916.695 1048.06 916.897 1050.78 919.02 L 1050.99 921.463 C 1045.49 931.128 1027.23 939.253 1017.53 945.043 z"/>
<path transform="translate(0,0)" fill="rgb(0,0,0)" d="M 899.754 1032.25 C 890.264 1025.51 879.812 1016.15 872.735 1006.89 C 870.772 1004.32 868.909 1001.83 869.372 998.458 C 871.567 996.717 873 996.332 875.813 996.147 C 887.394 995.385 910.412 1000.66 924.075 1001.41 C 979.303 1004.46 1036.29 1004.69 1091.25 997.631 C 1114.41 994.656 1137.39 989.692 1160.32 985.289 C 1160.73 985.357 1161.15 985.335 1161.53 985.494 C 1163.87 986.482 1164.42 987.446 1165.28 989.614 C 1165.07 991.711 1164.51 993.289 1163.25 995.009 C 1139.62 1027.29 1082.66 1053.48 1043.69 1061.17 C 1010.4 1067.74 965.571 1063.61 933.926 1051.04 C 921.767 1046.2 910.597 1039.51 899.754 1032.25 z M 1112.59 1006.45 C 1067.88 1008.16 1023.29 1011.79 978.545 1013.59 C 952.212 1014.65 925.431 1016.66 899.294 1012.37 C 907.877 1020.5 919.373 1026.71 928.943 1033.75 C 964.394 1055.92 1002.98 1062.55 1044.05 1053.27 C 1067.24 1048.04 1086.58 1038.7 1104.64 1023.33 C 1108.85 1019.75 1113.81 1015.75 1116.9 1011.11 C 1118.11 1009.29 1118.35 1008.95 1118.12 1006.72 C 1116.14 1006.37 1114.59 1006.23 1112.59 1006.45 z"/>
<path transform="translate(0,0)" fill="rgb(0,0,0)" d="M 971.192 1097.51 C 967.619 1095.66 963.449 1093.79 961.273 1090.29 L 961.882 1088.94 C 972.687 1088.82 983.884 1091.76 994.659 1092.92 C 1018.2 1095.44 1039.77 1091.82 1062.46 1086.13 L 1064.37 1086.37 L 1064.74 1088.25 C 1061.44 1093.76 1045.22 1101.79 1038.94 1104.09 C 1017.42 1111.98 991.225 1107.36 971.192 1097.51 z"/>
<path transform="translate(0,0)" fill="rgb(0,0,0)" d="M 1584.3 1108.76 L 1584.05 1108.28 L 1584.3 1108.76 z"/>
<path transform="translate(0,0)" fill="rgb(0,0,0)" d="M 1502.47 1828.58 L 1502.9 1828.12 L 1502.47 1828.58 z"/>
</svg>