<?xml version="1.0" encoding="utf-8" ?><svg xmlns="http://www.w3.org/2000/svg" xmlns:xlink="http://www.w3.org/1999/xlink" width="1024" height="1024" viewBox="0 0 1024 1024"><path fill="white" d="M0 0L0 1024L1024 1024L1024 0L0 0Z"/><path d="M536.777 25.0438C508.064 22.8037 479.245 26.9262 456.662 46.3129C451.226 50.9791 443.408 57.7869 440.812 64.6961L440.583 64.9701L440.812 64.6961L441.188 64.4692C449.65 59.2666 456.246 53.4428 465.692 49.4615C472.7 46.4984 479.943 44.1257 487.346 42.3681C513.738 36.2688 564.057 32.3035 590.128 38.2759C606.854 42.1075 622.96 50.0648 638.281 57.6427L671.542 73.8865C703.205 89.648 737.713 107.305 774.313 103.89C783.299 103.052 792.29 101.198 800.267 96.8285C796.444 101.703 790.699 105.164 785.272 107.974C767.862 116.987 750.217 120.101 731.022 122.428C728.893 122.702 726.759 122.936 724.621 123.132C731.161 128.046 737.586 133.111 743.89 138.323C764.148 155.101 791.678 180.107 820.053 176.494C833.261 174.812 841.808 166.417 850.809 157.466C840.613 175.637 825.941 185.549 805.903 191.149C795.739 193.99 785.179 194.497 774.694 193.653C777.242 196.595 779.875 199.502 781.842 202.877C789.517 216.038 790.479 234.19 789.421 249.093C789.106 253.52 788.294 257.923 787.356 262.257C800.293 279.065 814.744 291.209 834.145 299.93C819.317 296.907 792.828 285.255 782.322 274.272C787.421 298.014 785.777 333.4 772.467 354.234C769.961 358.157 767.092 361.527 763.531 364.529C774.448 347.043 775.19 324.699 773.21 304.676C767.799 335.693 761.831 353.904 738.021 376.259C739.401 384.519 741.512 393.712 740.745 402.094C740.289 407.071 738.181 411.793 736.397 416.408C728.674 436.394 718.34 453.111 705.945 470.478C704.264 472.834 702.67 475.282 700.149 476.804C699.566 477.156 698.154 477.794 697.74 478.269C696.21 480.022 695.357 485.482 694.828 487.721C689.372 510.814 680.363 531.077 666.854 550.594C664.609 553.838 662.373 557.131 659.923 560.223C657.751 562.964 654.942 565.685 653.285 568.75C650.958 573.055 649.875 578.196 648.3 582.823C646.567 587.914 644.466 592.893 643.155 598.118C653.647 605.868 661.662 614.218 668.916 625.159C672.106 629.969 674.89 635.479 679.001 639.555C682.476 643.001 686.266 646.11 689.669 649.633C694.446 654.578 698.893 660.391 704.199 664.737C714.059 672.812 726.1 678.398 734.761 687.935C738.719 692.292 740.374 697.792 741.882 703.351C749.435 705.785 756.797 708.734 764.273 711.384C773.366 714.607 782.434 717.516 791.318 721.309C815.149 731.482 837.892 743.43 860.72 755.628C876.019 763.803 893.564 772.862 907.705 782.702C915.045 787.81 921.76 793.654 928.217 799.825C930.609 802.11 934.116 804.974 935.681 807.864C936.827 809.98 937.308 812.448 938.447 814.596C940.901 819.225 944.406 823.306 946.719 828.006C950.368 835.422 953.341 843.347 956.558 850.966C966.562 874.66 975.38 898.539 984.092 922.719C989.522 937.79 995.662 952.862 1000.49 968.12C1006.32 986.565 1010.44 1005.66 1016.43 1024L666.272 1024L665.144 1022.61C663.707 1022.58 663.088 1023.24 661.892 1024L659.582 1024L659.125 1024L655.415 1024C653.31 995.749 648.804 967.794 648.798 939.415C648.795 926.758 648.959 914.011 649.826 901.384C651.063 883.383 653.079 865.655 652.958 847.56C649.411 858.777 646.65 870.278 642.866 881.411C632.29 911.704 620.263 941.471 606.827 970.609C598.716 988.573 590.59 1006.68 581.172 1024L578.618 1024C580.682 1017.62 583.783 1011.48 586.428 1005.32L605.064 962.835C618.569 932.256 630.723 901.099 641.494 869.454C646.086 856.361 652.887 843.042 652.495 828.941C637.26 860.563 597.99 905.022 572.412 929.537C562.892 938.661 545.437 957.173 531.473 956.736C507.936 956 445.49 911.523 426.377 895.318C414.715 885.429 404.009 874.486 393.554 863.347C400.461 875.408 407.958 887.337 415.636 898.923C420.588 906.394 425.928 913.709 430.437 921.454C436.196 931.346 439.96 941.728 444.925 951.962C448.086 958.479 451.99 964.288 455.594 970.519C453.643 972.768 451.737 974.456 449.377 976.248C451.994 986.438 450.532 997.624 453.099 1007.77C454.473 1013.2 457.641 1018.8 459.853 1024L453.789 1024C453.582 1023.15 453.268 1022.52 452.845 1021.76L452.451 1022.13L452.753 1024L452.12 1024C450.756 1023.1 449.597 1022.25 447.961 1021.93C446.405 1022.38 446.486 1022.6 445.623 1024L161.45 1024C154.12 1000.76 147.868 977.18 140.369 953.988C139.2 956.588 157.127 1016.4 158.971 1024L148.117 1024C136.154 983.813 119.179 939.091 98.1136 902.964C95.0584 897.725 80.5346 873.995 77.0005 871.183C76.703 870.946 75.3925 870.761 74.9593 870.647L75.0952 869.714C80.9713 862.279 97.7052 852.454 106.093 847.229C131.806 831.213 158.365 816.744 184.516 801.475C194.521 795.634 204.767 790.09 214.408 783.662C214.545 781.017 214.569 778.36 214.638 775.712C206.445 779.354 198.628 784.485 190.842 788.95C178.627 795.956 166.388 802.782 154.301 810.022C126.78 826.504 95.566 840.604 73.5104 864.588C68.0127 861.917 63.3916 857.836 58.0789 854.82C54.0596 858.662 49.9675 862.327 46.97 867.05C47.1325 866.953 47.2939 866.854 47.4573 866.759L48.2582 866.298C50.2313 865.149 52.2186 864.145 54.5211 863.858C57.9897 863.425 61.0178 864.819 63.6101 867.033C67.1122 870.023 70.7057 873.942 71.1144 878.686L70.5653 878.82C69.1403 877.075 68.0492 875.295 66.9324 873.348C61.6697 890.453 55.2037 907.23 49.7267 924.281C44.3804 940.924 39.9567 958.046 35.3172 974.906C32.3653 985.634 28.4099 997.022 26.8538 1008.04L26.6496 1008.59L26.8538 1008.04C29.6884 1000.7 31.8344 993.101 34.366 985.654L50.5186 939.28C55.2911 926.179 60.1398 913.106 65.0645 900.062C67.8826 892.561 70.9725 885.067 73.2707 877.392C77.6202 882.967 81.1941 889.323 84.8956 895.345C109.425 935.254 126.231 980.095 142.061 1024L5.37717 1024C5.7468 1016.08 7.06833 1007.88 8.01047 999.996C12.6062 961.455 20.9644 923.456 32.9657 886.544C35.6672 878.196 38.3116 868.067 43.377 860.863C47.4743 855.036 53.8875 850.086 59.1666 845.354C86.1959 820.996 115.388 799.152 146.381 780.091C164.734 768.794 182.762 756.98 200.446 744.663C205.745 740.985 212.53 737.235 216.908 732.572C217.007 732.467 217.101 732.358 217.198 732.251C217.944 724.77 219.63 715.595 223.081 708.878C226.878 701.487 241.234 688.853 249.041 686.304C255.612 673.918 266.701 663.87 276.545 654.073C290.231 640.454 304.142 626.516 319.792 615.114C337.33 602.338 357.577 592.892 377.467 584.446C377.925 562.18 378.845 529.711 371.903 508.578C370.251 512.292 368.808 515.389 365.772 518.216C367.962 511.252 369.602 506.411 367.862 499.065C364.915 501.846 361.765 504.665 357.969 506.216C355.941 507.045 352.581 508.165 350.449 507.319C352.195 503.849 359.407 502.473 362.457 495.287C365.24 488.732 363.389 480.885 360.935 474.523C357.671 486.421 351.454 494.488 341.65 501.752C350.523 490.562 352.885 483.514 353.214 469.395C347.272 462.863 339.744 457.738 333.056 451.993C321.954 442.456 307.601 426.586 305.131 411.668C296.591 422.302 289.694 431.244 275.497 433.491C289.392 427.137 297.484 415.197 303.397 401.47C301.939 393.195 304.292 384.76 306.731 376.927C295.102 362.793 289.07 342.319 285.499 324.657C284.91 347.779 289.855 369.626 296.037 391.704C275.075 355.354 267.889 307.566 274.05 266.271L274.374 266.002L274.05 266.271C264.484 287.55 257.653 316.489 266.188 339.095C267.851 343.501 270.042 347.339 272.703 351.211C269.856 349.604 267.617 346.788 265.762 344.134C249.333 320.631 257.241 276.655 261.96 249.902C257.757 254.604 253.261 259.28 248.198 263.058C236.877 271.505 226.283 273.815 212.452 271.82C217.6 270.6 222.744 270.935 227.816 269.051C240.805 264.224 258.7 248.373 264.495 235.691C263.413 234.395 262.315 233.091 261.385 231.679C255.957 223.435 256.882 213.201 258.938 204.022C265 176.956 286.282 153.223 307.386 136.079C313.526 131.091 321.15 126.893 326.563 121.169C329.562 117.998 331.571 113.055 334.085 109.407C340.704 99.7975 351.002 91.1075 360.78 84.9236C382.432 71.2301 406.888 64.9453 432.066 70.6692C442.721 50.0559 459.891 34.1354 481.948 26.4006C496.608 21.2596 522.351 18.1495 536.777 25.0438ZM507.009 59.6965L506.288 60.1265L505.502 60.4716L506.288 60.1265L507.009 59.6965C514.38 58.4801 521.675 54.8692 529.073 53.2807C534.764 52.0589 541.267 52.615 546.691 50.5659C536.458 50.3729 515.442 53.9914 507.009 59.6965ZM337.769 112.703C338.794 113.163 349.476 105.593 351.026 104.611C369.165 93.1222 393.003 76.2125 414.638 74.3827C420.502 73.8867 426.22 74.9599 432.02 75.5962L432.7 76.1683L432.998 76.3767L432.7 76.1683L432.02 75.5962C431.834 75.4494 431.655 75.2937 431.462 75.1558C426.355 71.4971 409.058 73.4621 403.109 74.4055C384.174 77.4081 363.65 85.3053 349.554 98.6332C345.055 102.887 341.409 107.728 337.769 112.703ZM620.003 75.5025L620.562 75.757L620.958 75.9834C627.965 79.9061 635.666 82.6586 642.792 86.4274C664.56 97.9415 680.79 113.123 696.304 132.013L693.703 130.803L693.503 130.535L693.703 130.803C695.465 133.652 697.935 135.72 699.934 138.351C698.332 137.869 696.911 137.369 695.82 136.024C690.277 129.194 660.239 107.829 651.674 104.343L651.151 104.048L650.709 103.757L649.742 102.815L649.003 102.602L649.742 102.815L650.709 103.757L651.151 104.048L651.674 104.343C655.376 107.473 659.678 109.98 663.638 112.778C673.224 119.551 683.006 127.362 690.375 136.516C682.518 131.523 675.45 124.574 667.249 120.261L667 120.001L666.764 119.74L665.699 119.093L665.133 118.598L664.678 118.199L663.952 117.548L663.102 117.002L663.952 117.548L664.678 118.199L665.133 118.598L665.699 119.093L666.764 119.74L667 120.001L667.249 120.261C671.017 124.11 685.037 139.269 688.44 140.428L687.881 141.344C688.541 143.081 689.042 144.622 690.311 146.01C690.964 145.58 690.847 145.425 691.046 144.702C694.189 146.329 697.655 151.247 700.302 153.806C704.371 157.739 708.774 161.314 712.787 165.309C719.513 172.003 725.656 179.416 731.57 186.83C735.8 192.134 740.233 200.944 744.753 205.242L745.085 205.597L745.658 206.783L746.084 207.11L746.632 208.282L746.91 208.498L746.632 208.282L746.084 207.11L745.658 206.783L745.085 205.597L744.753 205.242C743.497 201.588 740.709 197.78 738.655 194.463C733.223 185.691 727.431 177.077 721.796 168.431C717.893 162.442 713.864 157.396 711.271 150.656C715.382 156.332 719.512 160.296 724.886 164.711C721.969 160.838 718.89 157.079 715.871 153.285C725.01 157.569 729.427 169.661 737.387 175.774C736.112 173.051 714.624 147.039 711.625 144.45C715.03 144.859 733.079 165.1 736.144 168.656C739.181 172.179 742.6 177.614 746.258 180.257L746.576 180.597C746.971 181.16 747.335 181.724 747.805 182.228L747.997 182.468L747.805 182.228C747.456 181.659 746.986 181.125 746.576 180.597L746.258 180.257C746.185 180.113 746.118 179.967 746.039 179.826C742.321 173.232 736.6 167.038 732.14 160.861C727.952 155.064 724.234 148.765 719.786 143.187C700.134 118.555 674.898 98.9571 646.167 86.0162C638.058 82.2849 629.237 77.9108 620.562 75.757L620.003 75.5025ZM470.744 85.7859L470.263 86.1599C464.747 91.6626 462.377 100.554 462.376 108.167C462.375 111.553 462.616 116.196 464.083 119.268L464.376 119.498L464.083 119.268C463.869 103.138 464.007 101.402 470.263 86.1599L470.744 85.7859L470.942 85.0025L470.744 85.7859ZM416.502 86.5025L416.987 86.8721C418.414 88.1048 419.659 88.3401 421.478 88.7256L422.217 89.1143L422.998 89.444L422.217 89.1143L421.478 88.7256C419.976 87.6318 418.79 87.275 416.987 86.8721L416.502 86.5025ZM575.312 57.6241C580.566 59.6375 588.247 59.4234 593.949 60.204C603.596 61.5244 613.34 63.2135 622.731 65.8154C636.355 69.5904 649.988 74.5101 662.962 80.1232C668.938 82.7086 674.695 86.5194 680.824 88.621C680.958 88.6671 681.094 88.7096 681.229 88.7539L681.617 89.0641L682.868 89.6816L683.763 90.1327L684.794 90.6526L684.997 90.932L684.794 90.6526L683.763 90.1327L682.868 89.6816L681.617 89.0641L681.229 88.7539C681.042 88.5625 680.864 88.3613 680.667 88.1797C677.345 85.1149 671.28 82.6714 667.141 80.6693C643.547 68.9867 618.084 61.5399 591.913 58.6686C586.476 58.0884 580.777 57.3877 575.312 57.6241ZM685.503 91.0743L685.75 91.6607L686.497 91.8945L685.75 91.6607L685.503 91.0743ZM615.956 104.761L616.1 105.055L617.024 105.289L617.754 105.771C623.329 109.409 629.584 112.009 635.153 115.705C659.458 131.834 678.552 152.878 696.08 176.001C700.947 182.422 705.494 189.068 710.076 195.693C712.383 199.028 714.79 203.475 717.707 206.216L717.928 206.498L717.707 206.216C716.878 202.746 714.493 199.045 712.791 195.885C708.998 188.844 705.187 181.593 700.612 175.022C696.603 169.264 691.509 163.712 688.19 157.562C695.008 164.32 701.839 171.299 708.193 178.495C711.448 182.18 714.586 187.024 718.233 190.225L718.565 190.622L719.193 191.751L719.438 191.998L719.193 191.751L718.565 190.622L718.233 190.225C712.997 177.86 694.965 162.334 687.382 149.853C695.505 155.318 700.092 163.897 707.114 170.222L707.38 170.498L707.114 170.222C706.876 169.551 706.588 168.988 706.239 168.363C701.733 160.281 694.77 152.437 687.807 146.387C675.953 136.088 632.086 109.529 617.024 105.289C616.867 104.979 616.278 104.882 615.956 104.761ZM429.717 109.865C424.902 111.187 420.202 114.124 415.913 116.67C391.911 130.916 370.189 150.842 352.3 172.164C345.932 179.754 340.9 188.44 334.561 195.934C335.656 187.984 338.401 182.91 340.703 175.555L341 175L341.696 174.262L341.901 173.502L341.696 174.262L341 175L340.703 175.555C336.14 181.5 334.615 188.878 330.65 195.07C330.787 193.204 330.897 191.336 330.981 189.467C329.922 191.084 328.913 192.785 327.753 194.329C328.373 192.551 328.976 190.833 329.339 188.983C325.165 192.416 323.347 204.296 322.841 209.417C323.765 207.475 324.705 205.541 325.661 203.614C324.416 210.168 322.699 215.862 322.249 222.656C323.514 219.757 324.121 216.359 325.03 213.314C326.698 207.726 328.645 202.39 331.09 197.089C327.168 211.02 319.708 255.215 320.958 268.196L321.125 268.126C321.856 260.695 322.488 253.298 323.64 245.911C331.074 198.235 359.923 158.421 398.189 130.168C408.012 122.915 419.757 117.33 428.97 110.433L429.717 109.865L429.998 109.603L429.717 109.865ZM392.543 116.265L391.789 116.604L391.502 116.895L391.789 116.604L392.543 116.265C397.774 114.777 422.623 102.71 427.374 99.4571C418.535 100.866 399.512 110.172 392.543 116.265ZM350.297 124.289C349.53 124.93 349.067 125.027 348.869 126.037C336.481 137.017 320.621 163.18 314.698 178.519C312.772 183.507 311.569 188.915 310.176 194.077C305.72 210.595 301.59 227.69 300.556 244.816C299.752 258.14 299.955 271.133 300.804 284.439C301.427 278.808 301.547 273.161 302.091 267.528C303.915 248.638 306.988 230.045 313.45 212.144C315.446 206.617 317.515 200.822 320.613 195.814C319.035 202.083 316.235 208.206 314.39 214.442C311.63 223.772 310.79 239.705 311.484 249.372C313.012 246.371 316.326 225.665 317.252 221.124C319.521 209.992 321.972 197.232 325.402 186.47C332.271 164.92 344.983 144.766 358.94 127.19C345.111 138.458 330.676 161.593 319.254 175.846C323.362 163.676 329.915 151.671 337.503 141.331C341.144 136.37 345.351 131.597 348.636 126.411L348.869 126.037C349.79 125.623 349.82 125.148 350.297 124.289L350.498 124.048L350.297 124.289ZM723.111 134.002L723.35 134.685L723.997 134.94L723.35 134.685L723.111 134.002ZM332.736 136.261L331.724 136.59L331.416 137.154L331.149 137.385C326.57 140.823 322.781 146.176 319.189 150.599C304.957 168.121 292.042 187.628 288.789 210.521C288.521 212.401 288.429 214.267 288.429 216.164C289.621 211.564 290.475 206.919 291.912 202.38C297.595 184.431 307.768 169.508 318.707 154.44C322.288 149.506 328.788 142.484 331.149 137.385L331.416 137.154L331.724 136.59L332.736 136.261L332.954 135.502L332.736 136.261ZM725.003 136.052L725.198 136.292C725.832 137.404 726.239 138.02 727.313 138.732L727.57 139.101L728.161 139.65L728.627 140.131L728.861 140.361C729.357 141.407 729.992 142.214 730.79 143.044C746.725 159.589 780.45 181.094 803.534 181.389C801.333 179.68 795 179.883 792.064 178.97C785.317 176.871 778.87 173.945 772.525 170.865C761.702 165.61 751.683 159.417 742.325 151.826C737.747 148.113 733.499 143.991 728.861 140.361L728.627 140.131L728.161 139.65L727.57 139.101L727.313 138.732C726.751 137.583 726.198 137.077 725.198 136.292L725.003 136.052ZM567.884 137.574C568.019 138.506 568.605 138.667 569.309 139.246L569.572 139.595L569.822 139.889C573.336 145.987 578.372 151.477 582.543 157.17C587.22 163.551 591.083 170.755 595.975 176.922C601.263 183.588 616.751 195.546 624.221 200.711L624.447 200.948L624.221 200.711C615.839 183.692 599.559 172.482 586.872 158.924C581.128 152.786 576.085 145.456 569.822 139.889L569.572 139.595L569.309 139.246C568.84 138.338 568.726 138.14 567.884 137.574ZM397.5 142.5L397.181 142.806C386.263 151.904 369.774 183.927 365.538 197.459C364.09 202.086 363.579 206.96 363.139 211.77C362.384 220.019 361.377 238.102 363.063 246.016C363.533 245.406 364.668 227.062 364.866 224.87C365.592 217.241 366.201 209.712 369.273 202.587C368.832 210.15 368.335 217.737 368.454 225.315C368.546 224.998 368.643 224.682 368.729 224.364C370.908 216.325 369.612 207.623 371.672 199.486C371.084 198.505 370.745 198.468 371.033 197.303C374.523 183.171 380.136 168.865 387.813 156.526C390.577 152.085 395.254 147.535 397.181 142.806L397.5 142.5L398.156 141.575L397.5 142.5ZM619.503 142.002L619.733 142.287C622.875 147.552 627.703 152.238 631.842 156.76C640.429 166.142 649.034 175.107 658.853 183.229C668.687 191.365 679.178 198.492 688.517 207.26C693.384 211.83 697.837 216.825 702.139 221.923C704.667 224.918 707.316 228.729 710.275 231.241L710.58 231.601L711.179 232.462L710.58 231.601L710.275 231.241C707.672 226.339 703.596 221.673 700.068 217.376C687.412 201.961 672.904 188.238 657.677 175.387C651.877 170.492 645.791 165.931 640.043 160.975C633.08 154.971 626.772 148.188 619.733 142.287L619.503 142.002ZM553.57 144.502L553.786 144.8C556.339 151.488 560.819 157.889 564.559 163.996C580.421 189.894 598.14 213.257 620.391 234.037C623.53 236.969 627.52 241.275 631.256 243.28L631.592 243.582L632.175 244.133L632.682 244.576L632.997 244.886L632.682 244.576L632.175 244.133L631.592 243.582L631.256 243.28C627.821 237.949 621.901 233.357 617.815 228.39C607.206 215.492 596.917 201.047 588.619 186.556C594.719 192.19 599.768 198.694 606.121 204.199C604.775 201.911 603.207 199.756 601.695 197.576C596.552 190.891 590.441 185.623 584.374 179.814C585.852 181.963 587.622 184.14 588.619 186.556C586.972 185.647 585.013 182.848 583.713 181.42C577.13 174.186 570.605 166.807 564.587 159.093C560.938 154.415 557.728 149.219 553.786 144.8L553.57 144.502ZM542.003 152.502L542.304 153.075C545.368 165.336 552.084 176.609 555.207 188.874C551.532 185.179 548.672 180.382 545.743 176.082L545.503 175.502L545.743 176.082C548.809 186.35 552.575 194.843 559.177 203.428L559.423 203.982L559.177 203.428C558.602 199.373 557.517 195.368 556.575 191.383C561.075 200.347 566.466 208.718 571.293 217.489C575.919 225.897 582.855 241.072 588.742 247.965L589.107 248.723L589.664 249.824L589.997 250.498L589.664 249.824L589.107 248.723L588.742 247.965C587.352 242.966 581.139 232.679 578.614 227.361C573.572 216.741 568.915 205.922 563.788 195.345C559.965 187.457 555.732 179.753 551.764 171.934C548.622 165.741 545.992 158.93 542.304 153.075L542.003 152.502ZM316.769 160.555C307.944 173.487 306.425 180.844 301.405 195.072C299.552 200.324 297.047 205.776 295.947 211.231L296.318 211.48C297.357 209.044 298.304 206.615 299.168 204.111C300.769 199.922 302.519 195.792 304.414 191.728C306.994 186.25 318.068 167.156 317.828 162.495C316.21 165.135 314.884 167.872 313.45 170.61C314.354 167.161 315.798 163.947 316.769 160.555L316.998 160.002L316.769 160.555ZM427.5 162L426.839 162.729L426.647 163.186C422.575 167.196 419.452 172.838 416.399 177.655C405.211 195.309 399.17 207.973 396.804 228.998C396.27 233.745 395.555 238.638 395.518 243.418C395.51 244.629 395.537 245.839 395.6 247.048C398.922 231.952 404.034 217.343 409.841 203.027C412.292 196.984 416.346 191.502 417.749 185.034L418.105 184.278L418.377 184.002L418.105 184.278L417.749 185.034C414.707 188.268 412.515 193.692 410.437 197.67C413.043 182.667 421.002 176 426.647 163.186L426.839 162.729L427.5 162L427.915 161.502L427.5 162ZM539.625 163.002L539.906 163.57C540.377 168.645 542.06 173.836 543.302 178.781C544.803 184.755 546.174 190.827 548.011 196.706C553.711 214.945 562.048 232.972 570.386 250.125C572.433 254.336 574.65 260.437 577.745 263.927L578.131 264.716L578.415 264.998L578.131 264.716L577.745 263.927C576.793 260.436 574.912 256.953 573.432 253.652C570.679 247.513 567.9 241.361 565.46 235.089C560.786 223.072 557.644 210.673 553.29 198.587C550.807 191.691 547.498 185.141 544.795 178.337C542.87 173.49 541.514 168.519 539.906 163.57L539.625 163.002ZM467.57 166.828C464.542 168.247 460.411 172.984 459.76 176.336C459.716 176.564 459.755 176.8 459.752 177.031C454.226 184.093 448.858 206.965 447.026 216.504C446.209 220.755 445.885 225.225 444.86 229.412C443.236 236.05 439.845 241.55 438.933 248.531C437.603 258.719 437.978 270.415 439.244 280.585C440.567 291.207 443.774 300.888 448.942 310.246C450.981 309.595 453.022 308.869 455.082 308.294L462.111 306.639C450.093 289.1 442.892 267.61 443.548 246.168C443.779 238.625 445.077 231.163 446.462 223.76C448.314 213.855 450.462 203.675 453.624 194.102C455.453 188.564 458.592 182.653 459.752 177.031L460.13 176.874C462.374 173.215 464.848 170.133 467.57 166.828C471.417 166.124 473.227 166.173 476.528 168.387C483.635 173.153 494.358 188.604 496.704 196.86L496.54 197.756C493.506 197.24 492.082 193.665 489.833 191.788L489.618 191.502L489.833 191.788C490.551 194.089 491.093 195.901 490.911 198.332L492.924 200.523L492.803 201.045C491.331 200.982 490.959 200.447 489.697 199.987C489.463 199.901 489.204 199.916 488.957 199.88L488.423 201.336L487.876 200.944C485.407 199.202 482.604 197.387 479.762 196.348L479.502 196.08L479.762 196.348C482.405 198.903 485.754 200.519 488.539 202.925L487.66 202.78C484.828 202.297 483.055 201.624 480.53 200.238C478.815 199.297 477.29 198.426 475.332 198.184C476.717 199.167 479.17 200.384 479.784 201.929L479.144 202.504L479.818 204.364C476.36 203.748 473.07 202.547 469.701 201.584C472.161 202.969 474.622 204.275 477.168 205.497C470.889 205.52 465.458 205.685 459.455 207.779C448.591 237.908 451.502 276.055 464.787 304.977C464.94 305.316 465.102 305.652 465.273 305.983C481.532 303.427 496.818 301.996 513.268 302.883C516.246 303.044 520.004 302.926 522.859 303.725C525.869 304.567 529.047 306.467 531.763 308.001L531.489 305.986C535.619 308.384 537.919 317.819 540.658 321.941L541.035 322.469L541.476 322.716L541.718 324.445L541.04 325.303C540.87 325.313 540.701 325.346 540.532 325.333C538.423 325.164 536.54 323.119 535.191 321.668L535.003 321.002L535.191 321.668C535.538 322.744 536.323 324.157 535.917 325.209C504.15 320.411 467.828 319.372 436.113 324.909C438.879 334.247 442.1 342.152 447.092 350.576C467.577 342.232 487.482 334.57 509.473 343.84C516.185 346.67 521.017 351.075 524.655 357.381C508.567 345.978 495.177 339.142 474.808 342.697C467.945 343.895 453.169 346.987 448.061 351.483C448.075 352.436 448.152 352.771 448.476 353.626C447.077 354.312 446.523 353.196 445.254 353.342C443.462 353.547 440.685 356.917 438.805 357.742L438.641 357.645C440.701 355.603 442.951 353.738 445.113 351.802C437.518 344.617 432.381 335.428 427.181 326.47C423.577 327.972 420.742 330.538 417.293 332.201C419.895 329.125 422.913 326.387 425.814 323.592C417.103 307.486 412.405 291.614 411.256 273.331C409.882 278.885 410.108 284.995 409.926 290.698C409.098 316.593 411.798 343.674 425.448 366.331C428.487 371.376 432.248 375.663 436.145 380.041C424.016 375.899 411.84 366.736 404.05 356.566C401.695 353.491 399.268 348.691 396.38 346.27L396.122 346.002L396.38 346.27C397.861 353.73 401.198 362.128 404.765 368.801C406.645 372.317 409.309 375.983 410.674 379.694C402.477 370.99 393.349 364.682 386.603 354.473C390.544 376.581 397.958 396.224 410.397 414.983C402.365 408.815 395.268 402.461 389.207 394.26C386.583 390.709 384.225 386.303 381.315 383.087L381.074 382.505L381.315 383.087C384.796 395.352 389.642 408.436 395.297 419.842C386.937 411.286 381.582 401.66 377.036 390.651C375.263 386.356 373.714 381.667 371.449 377.612C366.445 368.653 343.67 344.833 334.504 339.867C323.052 349.217 309.963 379.235 308.374 393.711C306.747 408.532 314.359 422.652 323.402 433.725C333.753 446.399 355 463.222 369.439 471.261C376.64 475.271 384.518 478.392 392.099 481.624C388.885 472.38 383.822 462.929 374.673 458.481C359.557 451.133 346.572 443.754 335.312 430.966C332.995 428.336 330.226 425.253 328.693 422.079C332.669 425.867 336.788 429.469 340.931 433.071C338.513 428.373 336.91 424.198 335.97 418.986C343.987 435.617 354.474 443.968 370.791 451.775C366.525 443.771 357.985 439.171 354.293 431.05C348.952 419.305 356.303 404.156 360.566 393.226C356.637 387.609 352.557 382.099 348.331 376.702C341.412 390.361 342.023 400.389 340.598 415.18C340.418 413.922 340.246 412.663 340.083 411.402C338.406 398.311 338.596 384.376 347 373.498C343.796 369.253 339.891 365.535 336.181 361.735C333.363 366.021 330.32 370.288 328.735 375.217C326.944 380.789 326.738 388.261 323.862 393.25L323.552 392.959C322.691 390.515 323.093 387.4 323.119 384.824C318.565 394.718 319.307 403.576 321.84 413.906C320.726 411.708 319.583 409.508 318.787 407.169C312.135 387.61 326.502 371.973 334.199 355.858L334.629 354.946C340.509 358.173 344.708 363.653 349.013 368.696C354.784 375.456 361.486 382.791 365.65 390.664C371.105 400.981 373.268 413.083 377.243 424.026C374.749 421.227 373.113 418.845 371.867 415.305C371.397 417.642 370.812 420.123 370.77 422.51C370.706 426.197 371.872 431.188 370.529 434.639L369.639 434.728C367.908 433.308 366.497 431.171 365.744 429.064C363.645 423.194 366.875 417.322 369.35 412.152C367.341 408.062 365.703 403.703 363.978 399.485C360.401 406.309 355.834 418.384 356.849 426.218C357.734 433.05 362.594 437.857 367.752 441.856L368.357 441.745L368.957 438.508C369.958 438.486 370.022 439.295 370.505 440.123C373.99 446.096 377.997 451.361 382.192 456.828C393.434 471.479 399.872 488.859 407.361 505.607C422.201 538.793 445.331 564.264 473.344 586.914C490.786 601.017 520.415 624.248 542.066 628.869C553.121 631.228 566.66 630.6 577.887 629.368C584.663 628.624 591.648 627.411 597.513 623.73C610.55 615.548 622.21 596.751 632.089 584.755C639.011 576.35 646.472 568.373 653.279 559.887C663.984 546.543 672.248 531.719 678.658 515.881C683.736 503.334 687.21 490.013 690.443 476.891C700.786 434.914 707.862 387.127 703.154 344.065C700.74 341.181 698.045 338.852 694.952 336.73C696.464 341.296 698.412 345.761 700.172 350.24C695.808 346.186 691.903 341.959 688.626 336.977C682.792 334.076 676.445 332.124 670.298 330.002C675.797 340.452 681.42 347.834 690.703 355.151C676.116 351.409 665.781 340.241 656.989 328.855C650.333 328.814 643.684 329.3 637.105 330.309C628.249 331.603 617.177 335.15 608.299 333.75L608.98 332.774C609.149 332.802 609.317 332.837 609.486 332.858C612.595 333.254 614.555 331.295 616.853 329.551C614.123 329.872 611.434 331.575 608.98 332.774C610.327 330.562 612.535 329.487 614.74 328.253C613.003 326.755 610.292 330.943 608.389 330.729C608.666 329.116 610.811 328.732 611.719 327.255L610.116 326.957C610.43 326.433 610.265 326.624 611.02 326.096C611.265 325.925 611.526 325.778 611.779 325.619C581.071 301.608 573.945 284.873 556.218 251.774C556.403 254.021 556.694 256.265 556.985 258.501C559.852 280.526 567.158 307.107 581.091 324.888C585.483 330.492 590.555 335.041 596.179 339.373C586.274 336.201 577.471 327.874 570.282 320.618C559.339 309.573 551.965 296.981 545.585 282.914C532.596 254.274 527.662 227.82 527.81 196.404C522.642 195.715 514.464 193.677 509.622 195.522C509.499 195.569 508.195 196.082 508.014 196.133C506.537 196.545 505.774 196.097 504.494 195.451L504.495 194.191L504.081 194.002L504.495 194.191L504.494 195.451L504.238 196.187C502.493 194.898 501.391 191.486 500.317 189.542L500.023 189.002L500.317 189.542C500.572 191.028 501.109 192.613 501.209 194.105C501.291 195.337 501.073 196.09 500.265 196.983C496.959 196.038 492.388 186.407 490.344 183.281C486.819 177.89 479.756 166.519 472.772 165.362C470.901 165.052 469.056 165.741 467.57 166.828ZM580.503 166.113L581.05 166.952L581.703 167.677L581.895 167.917C585.09 173.555 588.848 179.312 593.026 184.262C598.769 191.068 628.565 220.096 635.227 223.796L635.602 224.077L636.161 224.647C636.831 225.477 636.929 225.638 637.973 226.024L638.698 226.679L639.138 227.095L639.497 227.397L639.138 227.095L638.698 226.679L637.973 226.024C637.321 225.073 637.152 225.118 636.161 224.647L635.602 224.077L635.227 223.796C629.731 216.38 620.921 210.008 614.42 203.174C603.357 191.546 593.787 178.802 581.895 167.917L581.703 167.677L581.05 166.952L580.503 166.113ZM635.6 167.502L635.821 168.242L636.398 168.423C638.093 171.963 645.074 177.885 648.798 179.111C648.967 179.166 649.144 179.191 649.318 179.231L649.568 179.601L650.162 180.15L650.497 180.498L650.162 180.15L649.568 179.601L649.318 179.231C647.504 176.692 639.156 169.914 636.398 168.423L635.821 168.242L635.6 167.502ZM368.648 168.747L368.087 168.998L368.648 168.747L368.885 168.002L368.648 168.747ZM367.727 170.267L366.697 171.305L366.586 171.716C361.947 176.532 358.864 184.463 355.849 190.389C353.058 195.874 350.033 201.249 347.639 206.925C337.904 230.011 335.682 254.443 336.183 279.239C336.356 287.826 338.107 306.48 342.073 313.77L342.375 313.998L342.073 313.77C342.05 310.689 340.859 307.213 340.273 304.155C339.283 299.149 338.521 294.1 337.988 289.024C335.089 262.577 338.072 233.429 347.909 208.582C352.851 196.099 361.781 185.284 366.271 172.632L366.586 171.716L366.697 171.305L367.727 170.267L367.938 169.502L367.727 170.267ZM400.5 177L399.829 178.009C396.735 181.334 394.234 185.584 391.967 189.512C383.873 203.531 379.902 217.497 380.097 233.698C380.102 234.12 380.133 234.542 380.168 234.963C383.851 226.034 385.399 211.019 388.787 201.028C390.563 195.789 393.005 190.773 395.613 185.907C396.961 183.392 398.906 180.693 399.829 178.009L400.5 177L400.924 176.502L400.5 177ZM423.705 267.688L424.044 268.017C424.497 267.089 424.136 251.437 424.347 248.332C426.254 220.37 432.725 191.623 448.158 167.956C451.389 163.001 455.071 157.666 459.638 153.828C462.524 151.402 465.97 149.362 469.882 149.816C481.418 151.152 485.395 169.25 492.078 176.764C492.292 177.005 492.514 177.238 492.732 177.475L493.113 178.218L493.397 178.498L493.113 178.218L492.732 177.475C490.913 171.221 481.906 156.716 477.234 152.323C474.864 150.095 472.188 148.457 468.842 148.641C461.371 149.051 455.067 155.945 450.532 161.282C430.495 184.864 424.549 207.57 423.369 237.703C422.974 247.791 422.858 257.621 423.705 267.688ZM634.092 183.175C629.859 181.757 626.953 178.462 623.371 175.971C615.29 170.472 607.731 164.246 600.786 157.369C582.581 139.028 559.391 105.922 530.44 107.147C560.607 112.526 574.312 131.364 591.488 154.647C597.495 162.789 603.935 170.503 610.154 178.469C613.127 182.278 615.672 186.502 618.792 190.181C624.897 197.378 636.232 205.286 643.69 212.061C650.787 218.509 658.311 226.575 666.958 230.856C667.267 231.077 667.615 231.384 667.962 231.534L668.702 232.175L669.162 232.571L669.923 232.998L669.162 232.571L668.702 232.175L667.962 231.534L666.958 230.856C664.09 227.776 660.588 225.176 657.61 222.157C646.474 210.863 635.48 199.055 625.423 186.789C632.91 191.89 643.909 203.355 651.71 206.24L652.127 206.563L652.497 206.877L652.127 206.563L651.71 206.24C645.692 199.954 639.953 193.628 632.659 188.81C634.465 189.386 636.347 189.947 638.01 190.87C640.607 192.31 648.542 198.409 650.541 198.698C648.911 197.298 643.705 193.603 643.159 191.698C650.447 194.421 669.438 213.821 678.3 219.611L678.497 219.897L678.3 219.611C674.024 213.11 662.7 203.71 656.817 197.154C653.21 193.134 650.521 188.215 646.786 184.383C644.877 182.423 626.884 165.644 625.737 165.214C633.101 173.429 640.341 181.754 647.456 190.185C643.783 188.298 640.268 186.458 636.948 183.983L637.152 184.051L626.768 175.461C628.879 178.297 631.567 180.71 634.092 183.175ZM365.609 185.284C364.437 187.219 363.298 189.183 362.082 191.089C363.458 185.908 367.2 180.616 367.935 175.53L367.648 175.488C348.057 210.957 343.247 252.722 354.262 291.716C354.769 293.523 355.309 295.32 355.883 297.106C357.471 302.071 359.096 309.569 362.217 313.584C362.731 312.249 359.623 305.36 359.107 303.448C355.747 290.945 353.896 278.085 353.591 265.142C353.212 251.604 354.595 238.074 357.707 224.893C359.113 219.131 361.175 213.491 362.363 207.686C363.416 202.534 363.37 197.212 364.17 192.026C364.525 189.726 365.346 187.624 365.609 185.284L365.88 185.002L365.609 185.284ZM485.445 150.14L485.841 151.831C487.02 149.762 486.487 144.072 486.643 141.51C487.451 128.222 490.936 114.24 499.627 103.821C507.854 93.9577 520.847 87.9365 533.544 86.8537C553.898 85.1178 581.303 97.0557 598.611 107.73C609.595 114.504 619.696 122.747 629.715 130.846C645.587 143.47 660.936 156.739 675.723 170.619C681.864 176.34 687.054 183.686 693.472 188.958C693.581 189.048 693.693 189.134 693.803 189.222L694.074 189.604L694.653 190.157L695.075 190.68L695.673 191.482L695.075 190.68L694.653 190.157L694.074 189.604L693.803 189.222C685.777 174.358 636.901 134.566 621.799 122.899C598.682 105.041 558.368 80.962 528.249 85.0273C515.226 86.7852 503.062 93.3796 495.15 103.976C486.296 115.834 483.359 135.831 485.445 150.14ZM376.5 191L376.165 191.887C373.632 198.472 372.594 204.781 371.51 211.73C370.68 217.056 369.622 222.502 369.248 227.876C368.442 239.464 370.28 251.587 371.968 263.035C373.096 252.446 374.675 242.067 376.68 231.61C377.929 224.569 379.156 217.503 380.837 210.55C382.49 203.71 384.652 196.95 385.94 190.033C380.698 198.632 376.874 208.339 374.279 218.077C373.35 209.17 375.291 200.663 376.165 191.887L376.5 191L376.969 190.002L376.5 191ZM418.685 190.82C413.17 197.283 412.924 200.899 412.077 208.988C415.378 203.394 417.426 197.171 418.685 190.82L418.91 190.513L418.685 190.82ZM400.197 194.271C396.259 198.898 391.231 207.701 389.635 213.506C388.885 216.231 389.071 219.752 387.696 222.19C387.454 220.255 388.004 218.359 388.271 216.449C388.844 212.354 390.64 208.526 391.696 204.537L391.959 204.002L391.696 204.537C386.213 210.864 384.409 230.532 384.406 239.167C384.405 240.327 384.271 241.935 385.09 242.78C385.376 225.624 395.361 210.322 400.197 194.271L400.437 194.002L400.197 194.271ZM639.796 174.11C641.046 176.806 642.994 178.799 644.908 181.032C647.292 183.814 649.609 186.826 652.334 189.276C658.335 194.67 666.409 198.308 673.17 202.768L673.429 202.998L673.17 202.768C664.116 191.254 651.918 182.07 639.796 174.11ZM595.659 180.124C601.147 188.958 615.353 198.359 623.795 204.896C626.66 207.114 629.311 209.589 632.306 211.636L632.621 212.086L632.997 212.408L632.621 212.086L632.306 211.636C627.995 205.45 617.964 198.364 612.18 193.292C608.214 189.814 604.423 185.939 600.262 182.72C598.806 181.593 597.36 180.817 595.659 180.124ZM738.503 229.502L738.842 229.996C739.302 234.577 740.976 239.341 742.143 243.819C744.057 251.169 745.828 258.515 747.02 266.023C748.986 278.414 749.194 291.039 748.761 303.553C748.588 308.554 748.013 313.536 748.031 318.538L748.367 318.432C754.03 295.879 749.622 266.516 743.565 244.444C742.267 239.713 741.069 234.373 738.842 229.996L738.503 229.502ZM778.577 237.978C779.022 246.849 779.303 251.03 784.604 258.715L784.884 258.997L784.604 258.715C784.064 252.264 782.006 243.503 778.577 237.978ZM501.696 183.198L501.934 183.441L502.376 183.303L502.339 182.345C501.928 170.161 503.245 152.814 512.175 143.547C513.602 142.067 515.42 140.252 517.605 140.255C533.409 148.964 539.172 213.527 542.301 232.423C544.527 245.871 548.562 268.544 554.011 280.755C554.075 280.897 554.143 281.038 554.209 281.18L554.5 282L555.214 283.983L555.497 284.498L555.214 283.983L554.5 282L554.209 281.18C552.642 270.08 548.228 259.203 546.205 248.095C541.997 224.997 536.685 155.653 520.884 141.059C519.641 139.911 517.899 138.861 516.129 139.191C513.72 139.64 511.616 142.125 510.2 143.942C501.751 154.789 500.098 169.915 501.696 183.198ZM555.518 285.002L556.305 285.627L556.429 286.998L556.305 285.627L555.518 285.002ZM600.614 290.002L600.836 290.303C602.681 297.581 610.62 309.948 615.925 315.312L623.767 314.191L623.872 313.644C623.36 312.749 623.587 312.917 622.903 312.392C617.839 308.506 613.196 304.579 608.936 299.776C606.183 296.673 603.747 293.256 600.836 290.303L600.614 290.002ZM588.906 269.332C588.909 269.845 588.907 270.359 588.934 270.871C589.596 283.529 594.933 300.657 604.744 309.296L605.096 309.577L605.602 310.202L605.997 310.88L605.602 310.202L605.096 309.577L604.744 309.296C602.697 304.429 599.071 300.028 596.815 295.149C592.975 286.846 591.442 278.034 588.906 269.332ZM383.86 329.568C384.484 344.286 390.371 355.921 400.234 366.693L400.455 366.998L400.234 366.693C398.807 362.319 395.88 357.869 393.989 353.564C390.501 345.625 387.679 337.36 383.86 329.568ZM719.408 420.7L719.465 420.184C720.993 407.421 724.708 401.046 718.279 388.4C717.304 390.079 716.248 391.748 715.449 393.519C719.904 410.377 716.846 412.444 713.621 427.878C712.761 431.996 712.963 436.457 710.881 440.232C709.308 443.085 706.825 444.735 704.16 446.429C703.063 452.425 700.487 461.57 700.445 467.249L700.126 467.498L700.445 467.249C704.613 462.485 710.955 452.903 714.497 447.412C722.452 435.076 734.372 415.371 734.698 400.791C734.867 393.26 733.218 385.497 732.778 377.941C732.566 374.304 733.316 364.245 732.301 361.578C731.843 360.374 731.167 359.905 730.084 359.308C729.17 359.607 729.234 359.379 728.84 360.1C727.922 361.781 727.882 364.132 727.251 365.983C725.865 370.045 718.289 384.893 719.039 387.946C720.045 388.165 720.927 388.388 721.867 388.812C723.052 391.859 724.365 394.962 724.99 398.182C726.392 405.4 723.905 414.381 719.683 420.324C719.593 420.45 719.5 420.574 719.408 420.7ZM393.002 488.502L393.5 489.5L394.129 490.759L394.386 490.998L394.129 490.759L393.5 489.5L393.002 488.502ZM384.75 516.4C382.203 521.696 383.409 557.416 383.44 565.539C383.57 599.261 379.477 671.979 355.901 696.605C358.648 687.328 361.533 678.092 364.556 668.901C358.932 673.424 351.721 677.425 347.038 682.858C347.306 705.816 356.058 735.82 361.875 758.498C363.339 764.205 364.316 771.271 366.816 776.561C368.512 780.15 372.13 783.388 374.938 786.136C379.688 790.785 385.397 797.342 391.331 800.317C396.497 802.908 407.02 803.998 412.999 805.518C431.062 810.11 449.001 815.12 467.019 819.867C476.955 822.484 487.495 824.363 497.128 827.922C475.756 781.299 461.278 731.332 447.37 682.066C440.808 658.823 433.597 635.502 428.565 611.877L428.778 611.579L428.507 610.684C428.581 611.423 428.443 610.945 428.812 611.486C433.048 617.703 450.8 691.021 453.959 702.745C457.448 715.694 461.536 728.678 465.791 741.395C473.441 764.206 482.285 786.598 492.287 808.48C495.183 814.757 497.926 821.434 501.334 827.435C504.536 833.074 509.236 835.992 513.737 840.347C518.686 845.137 521.179 851.788 523.277 858.187C515.238 848.747 506.962 839.61 498.637 830.427C488.297 827.63 477.686 826.601 467.208 824.501C442.254 819.5 416.745 812.823 393.437 802.537C423.343 830.542 457.398 853.81 492.048 875.502C500.617 880.87 509.268 886.103 518 891.199C523.311 894.337 529.083 897.232 533.927 901.052C554.005 883.86 570.262 862.697 585.353 841.125C590.869 833.24 596.98 824.801 600.943 816.013C589.461 819.572 576.621 824.003 566.971 831.27C565.467 835.001 559.947 851.253 556.88 852.94C555.45 849.612 557.675 843.861 558.939 840.697C560.289 837.32 561.594 833.514 563.653 830.505C568.01 824.137 578.022 819.422 584.892 816.476C591.118 813.805 597.58 811.816 604.071 809.911C612.281 793.638 632.779 742.084 633.26 725.335C633.36 721.82 632.03 718.197 630.94 714.905C627.839 705.535 624.434 695.977 623.054 686.164C619.766 695.661 617.36 705.552 614.677 715.238C610.203 731.19 605.94 747.2 601.891 763.264C603.308 731.103 612.542 700.503 619.755 669.333C622.305 658.315 624.255 647.182 626.651 636.133C630.165 619.925 634.154 603.863 638.104 587.762C635.503 590.26 632.894 592.573 631.575 596.022C631.681 596.844 631.831 597.453 632.17 598.211C630.742 598.302 630.986 597.485 629.48 598.185C628.928 599.526 628.801 600.494 628.704 601.916C627.303 602.998 626.652 601.924 625.143 603.251C625.162 604.607 625.42 605.676 624.716 606.865C623.565 606.544 624.135 606.777 623.019 606.133C622.086 606.778 621.841 606.912 621.319 607.965L621.5 608.556C621.842 609.699 622.311 610.706 621.94 611.891L621.239 612.043L618.979 610.428C617.912 610.712 617.936 610.508 617.265 611.494C617.388 612.435 618.515 615.015 618.135 615.628C617.071 614.723 616.831 614.287 615.407 614.181L614.157 615.241L614.306 616.064C615.405 616.78 616.628 617.151 616.931 618.461L616.367 619.043L615.606 618.655C614.26 617.974 613.292 617.358 611.808 617.839L610.196 619.613C609.241 620.583 607.974 621.374 607.851 622.751C609.447 623.99 610.48 624.477 611.235 626.381L610.912 627.407C608.631 626.724 606.774 625.099 604.402 624.716C603.301 625.555 602.729 625.75 602.31 627.098C603.022 627.871 603.722 628.387 604.58 628.975C605.645 629.706 606.143 630.196 606.775 631.308L606.708 632.173L605.721 632.246C604.259 630.964 602.583 628.689 600.711 628.211C599.506 628.563 599.034 628.98 598.174 629.882C598.489 631.598 601.631 632.754 602.582 634.708L602.056 634.952C600.001 633.798 598.324 632.184 596.563 630.634C587.331 634.243 577.595 635.554 567.724 635.66C571.785 638.768 582.13 648.642 583.039 653.555C581.526 653.643 580.016 652.018 578.922 651.026C573.886 646.46 570.681 639.989 565.245 635.855C555.657 636.166 545.917 636.303 536.489 634.251C542.752 638.214 554.538 647.201 557.184 654.227C549.697 647.155 545.384 641.614 536.551 635.602C535.212 634.691 533.815 633.837 532.113 634.217C531.964 634.25 531.825 634.317 531.681 634.368C532.76 636.382 562.619 660.647 567.692 665.355C558.728 662.434 552.432 654.783 545.635 648.56C539.328 642.787 529.535 633.98 522.338 629.709C527.504 636.175 554.58 662.579 561.078 665.713C559.997 665.649 558.833 665.628 557.854 665.101C554.011 663.033 550.389 659.058 547.094 656.16C542.833 652.411 538.385 648.863 534.194 645.036C526.928 638.399 520.042 631.299 511.789 625.834L511.58 625.567L511.789 625.834L512.129 626.434C517.481 635.706 529.028 642.027 537.151 648.871C544.263 654.863 551.675 661.904 557.393 669.251L557.047 669.625C555.363 668.932 554.533 667.176 552.76 667.023L552.172 667.391C549.415 664.989 546.412 662.85 543.714 660.402C534.834 652.346 528.969 645.798 518.044 640.277C522.753 644.361 527.927 647.853 532.571 652.003C539.386 658.094 546.008 665.547 552.354 672.194C540.17 666.939 534.779 656.729 524.975 649.045C521.017 645.943 515.924 644.456 512.231 641.046C509.17 638.22 507.904 634.048 504.307 631.791L503.96 631.536L503.591 631.09L503.216 630.802C502.527 629.143 501.986 628.348 500.692 627.101L500.502 626.636L500.692 627.101C501.327 628.898 501.779 629.55 503.216 630.802L503.591 631.09L503.96 631.536L504.307 631.791C511.781 646.193 531.854 656.463 539.65 671.809C530.619 663.462 521.537 654.933 512.903 646.177C507.096 640.288 501.646 634.043 495.678 628.313C502.031 642.179 518.443 653.433 527.275 666.219L526.388 666.221C513.44 659.597 467.572 607.201 456.689 593.143C450.556 585.221 445.697 576.198 439.39 568.438C433.089 560.686 425.542 554.388 419.701 546.105C411.672 534.717 405.938 522.007 398.916 510.054C396.36 505.702 393.772 501.064 390.973 496.877C388.959 493.864 386.38 491.319 384.475 488.21L384.648 487.681L385.855 487.704C391.653 490.632 392.891 498.228 396.601 502.999C396.694 503.118 396.792 503.233 396.887 503.351C395.802 499.568 394.558 495.581 392.662 492.117C389.985 487.228 387.004 485.507 381.908 483.976C383.671 490.9 388.368 496.901 392.094 502.932C398.017 512.518 409.721 531.136 413.105 541.257C412.498 540.713 411.846 540.222 411.208 539.717L410.408 540.359C407.846 531.492 395.1 512.299 389.899 503.268C387.943 499.872 386.216 495.501 383.794 492.467C382.085 497.65 408.961 535.193 409.267 543.218C406.444 539.81 404.296 535.495 402.031 531.687C395.592 520.86 389.761 509.998 383.804 498.921C383.868 501.035 383.664 503.484 384.224 505.512C385.417 509.83 405.669 543.371 408.446 544.457C408.604 544.519 408.781 544.526 408.936 544.595C409.908 545.028 410.051 545.293 410.454 546.206C408.602 545.626 406.78 544.299 405.093 543.32C406.805 545.378 408.111 547.502 409.453 549.808C402.55 543.421 393.973 528.104 389.516 519.48C387.862 516.28 386.673 512.708 384.649 509.742L383.947 510.452C383.713 512.422 384.226 514.503 384.75 516.4ZM467.002 593.622L467.74 594.273L468.052 595.316L468.703 596.274L468.988 596.497L468.703 596.274L468.052 595.316L467.74 594.273L467.002 593.622ZM465.002 594.503L465.473 595.039L466.22 596.4L466.623 597.217L466.878 597.497L466.623 597.217L466.22 596.4L465.473 595.039L465.002 594.503ZM496.434 618.482L496.561 619.038L497.485 619.5L497.901 619.908L497.485 619.5C497.034 618.692 497.355 619.06 496.434 618.482ZM506.3 629.348C509.384 634.01 514.122 639.12 519.646 640.74L519.882 640.969L519.646 640.74C517.413 636.936 510.474 630.534 506.3 629.348ZM375.947 603.767C357.273 616.884 343.855 631.177 334.081 652.176C323.799 674.265 321.777 695.713 324.902 719.657C325.649 725.38 326.172 731.72 328.154 737.16L328.378 738.032L328.154 737.16C328.053 727.876 325.162 717.3 324.53 707.689C322.648 679.037 333.546 648.597 352.019 626.773C354.689 623.62 357.606 620.685 360.744 617.997C363.738 615.401 374.699 607.996 376.073 605.486C376.447 604.803 376.146 604.453 375.947 603.767ZM938.733 829.334C940.747 834.332 943.397 839.177 945.659 844.078C948.53 850.296 951.121 857.142 954.704 862.968L954.981 863.497L954.704 862.968C952.034 853.37 945.131 836.175 940.116 827.615C938.609 825.043 936.477 822.628 934.651 820.266C933.706 820.46 934.171 820.317 933.258 820.703C931.78 817.425 931.893 813.301 930.628 809.743C907.707 791.375 875.261 778.186 848.24 766.513C827.501 757.445 806.641 748.656 785.665 740.151C774.956 735.823 763.071 733.306 752.867 727.984C749.527 726.241 746.997 723.434 744.525 720.653C745.214 725.706 746.758 729.638 748.954 734.217C768.137 739.72 786.745 747.523 805.167 755.131C828.167 764.382 850.856 774.392 873.194 785.144C884.64 790.761 895.855 796.991 907.105 802.991C912.184 805.7 928.319 813.529 930.898 817.816C932.032 819.701 931.613 823.985 931.411 826.202C929.467 847.617 924.758 870.377 921.281 891.69C916.835 918.951 913.239 946.418 909.223 973.749C907.975 982.238 905.798 991.395 905.504 999.92L905.125 1000.5L905.504 999.92C909.453 982.277 914.061 964.755 917.957 947.095C923.507 921.952 928.374 896.663 932.55 871.255C934.853 857.525 937.905 843.222 938.733 829.334ZM955.033 864.003L955.822 864.615L955.959 865.997L955.822 864.615L955.033 864.003ZM314.924 633.089C311.86 639.421 307.65 645.406 304.131 651.517C289.94 676.167 283.625 695.772 285.757 724.511C287.754 751.428 298.571 775.474 311.161 798.93C315.924 807.802 320.793 816.672 326.388 825.054C337.702 842.006 353.319 861.017 366.73 876.323C374.745 885.471 383.097 895.719 392.29 903.714L392.579 904.107L393.127 904.669L393.4 904.997L393.127 904.669L392.579 904.107L392.29 903.714C387.672 895.549 379.801 888.863 374.514 881.006C353.588 849.905 334.15 817.854 320.952 782.582C307.702 747.171 302.867 703.758 311.466 666.766C313.286 658.938 315.358 651.445 319.024 644.25C326.123 630.313 339.181 616.874 351.496 607.291C354.34 605.071 357.307 603.015 360.384 601.132C363.725 599.116 376.096 593.783 377.38 590.975L376.805 590.699C371.714 592.573 367.212 595.409 362.361 597.772C358.815 599.499 355.158 600.871 351.657 602.721C340.005 608.97 328.848 616.102 318.284 624.055C307.099 632.621 296.835 642.854 286.681 652.622C277.869 661.099 268.514 669.618 260.867 679.164C257.373 683.525 253.761 688.714 252.192 694.129C248.584 706.58 254.732 738.614 258.126 751.642C274.721 815.334 308.834 856.367 357.817 898.652C374.102 912.819 390.828 926.47 407.971 939.584C413.67 943.979 439.002 962.912 441.177 966.872C439.886 967.092 439.082 966.602 437.977 965.959C428.194 960.263 418.747 953.115 409.622 946.411C396.492 936.765 383.619 927.132 371.062 916.733C311.452 867.365 275.3 831.284 253.359 755.118C248.04 734.777 245.484 714.367 247.682 693.379C240.214 698.666 231.553 704.913 227.93 713.57C218.778 735.436 219.762 793.465 224.187 817.357C225.165 822.642 226.833 827.759 228.869 832.729C234.18 845.688 245.497 858.081 255.215 868.072C283.719 897.125 317.736 920.194 355.272 935.927C368.791 941.68 382.722 946.29 396.357 951.736C407.068 956.014 417.424 961.116 428.076 965.518C433.272 967.665 439 969.526 444.477 967.272L444.654 966.649C440.419 963.524 437.209 958.474 433.465 954.723C427.992 949.242 421.996 944.148 416.222 938.983C405.814 929.673 394.745 921.268 384.109 912.246C365.703 896.635 344.692 876.869 329.342 858.38C303.566 827.331 273.851 776.557 267.257 736.268C265.867 727.777 265.789 718.818 266.622 710.266C269.378 681.977 293.556 650.689 314.924 633.089ZM654.543 962.688C653.526 963.862 653.401 963.917 653.292 965.45L654.004 965.013L654.543 962.688L654.914 962.503L654.543 962.688ZM660.193 964.189L659.52 964.404L660.193 964.189L660.419 963.503L660.193 964.189ZM547.138 50.7458C547.504 50.7557 548.146 50.838 548.493 50.7485C547.372 50.4925 547.803 50.3557 547.138 50.7458ZM450.726 71.75L451.099 71.75L450.726 71.75ZM430.261 72.9778L430.544 73.1323L430.261 72.9778ZM450.232 72.3926C447.423 77.4921 446.43 85.1682 448.037 90.7339C448.5 92.3365 449.2 93.9518 449.977 95.4262C449.363 91.5885 448.251 87.3758 448.46 83.4995C448.625 80.4321 450.919 75.0548 450.232 72.3926ZM617.634 74.75L618.245 74.75L617.634 74.75ZM618.882 75.25L619.745 75.25L618.882 75.25ZM432.731 78.7588C428.018 78.8242 422.882 78.9988 418.474 80.8494L418.093 81.4835L419.41 81.5829C424.328 81.3 429.635 81.5001 434.458 80.648L434.891 80.1558C434.535 79.3266 434.634 78.9144 433.551 78.7087C433.282 78.6577 433.004 78.7421 432.731 78.7588ZM499.255 79.5399C489.226 87.914 480.811 99.7147 479.671 113.041C479.104 119.671 480.252 125.808 482.499 132.026L482.994 132.273C480.799 112.977 483.6 99.4421 495.962 84.0465C496.845 82.9463 499.218 80.8372 499.255 79.5399ZM458.163 80.3835C454.121 87.0828 453.318 93.6991 455.198 101.255C456.149 105.081 457.72 108.642 459.396 112.196L459.893 112.29C458.847 106.205 456.513 100.606 456.523 94.3249C456.531 90.1536 458.67 83.7615 458.163 80.3835ZM425.279 90.5807C419.754 92.1044 400.946 97.6795 397.461 101.267C398.661 101.126 399.575 100.852 400.695 100.4L419.517 94.0738C422.688 93.0215 426.144 92.3306 429.086 90.7381C427.729 90.4769 426.644 90.4997 425.279 90.5807ZM611.135 102.75L611.745 102.75L611.135 102.75ZM612.132 103.25L612.745 103.25L612.132 103.25ZM613.38 103.75L614.245 103.75L613.38 103.75ZM614.636 104.25L615.245 104.25L614.636 104.25ZM303.772 146.97C284.512 162.327 262.396 191.857 259.724 216.89C259.11 222.651 260.357 227.334 262.815 232.527L263.988 233.607L264.726 233.249C266.391 227.178 267.145 220.842 268.727 214.723C272.816 198.909 279.509 183.753 287.637 169.608C291.844 162.286 296.665 155.441 302.397 149.224C303.04 148.526 304.267 147.85 303.772 146.97ZM342.19 172.75L342.554 172.75L342.19 172.75ZM368.103 174.75L368.56 174.75L368.103 174.75ZM585.341 176.96L585.816 177.122L585.341 176.96ZM493.726 179.25L494.165 179.25L493.726 179.25ZM638.774 184.118C639.428 185.255 640.376 185.772 641.66 186.069C641.788 186.098 641.92 186.109 642.05 186.129C641.042 185.179 640.466 184.316 639.087 184.011L638.774 184.118ZM377.248 188.75L377.679 188.75L377.248 188.75ZM718.191 207.25L718.563 207.25L718.191 207.25ZM396.804 207.363C392.344 214.099 391.679 220.854 391.345 228.717C391.265 230.604 390.957 232.876 391.253 234.727C391.276 234.873 391.319 235.014 391.351 235.158C392.184 234.432 392.278 232.04 392.473 230.881C394.216 224.009 398.432 214.716 399.24 208.442L398.857 207.953C398.352 208.926 397.885 209.852 397.234 210.738L396.804 207.363ZM576.831 215.359C581.314 222.359 602.505 245.93 610.308 248.608C606.913 245.421 603.481 242.25 600.243 238.902C595.288 233.779 582.122 217.86 576.831 215.359ZM737.684 227.25L738.058 227.25L737.684 227.25ZM738.144 228.455L738.705 228.75L738.144 228.455ZM432.152 259.356C428.121 272.781 430.631 302.289 433.863 316.244C436.595 315.173 439.431 314.198 442.101 312.991L447.218 310.9C439.142 298.85 435.075 285.441 433.162 271.114C432.655 267.316 432.922 263.042 432.152 259.356ZM578.682 265.75L579.111 265.75L578.682 265.75ZM579.212 266.75L579.624 266.75L579.212 266.75ZM621.998 272.89C624.922 286.747 628.924 299.43 635.154 312.184C638.556 311.778 642.008 311.469 645.387 310.91C645.272 308.328 640.925 304.392 639.293 302.167C636.22 297.978 633.506 293.444 630.983 288.907C628.89 285.146 624.623 275.443 621.998 272.89ZM556.659 287.954L557.245 288.25L556.659 287.954ZM557.21 289.25L557.547 289.25L557.21 289.25ZM659.944 291.866C660.867 299.521 662.704 306.66 664.79 314.057C668.029 315.313 671.331 316.92 674.635 317.934C671.713 313.04 668.415 308.407 665.706 303.381C663.781 299.81 662.291 295.086 659.944 291.866ZM696.346 309.761C696.427 316.081 697.351 332.222 701.994 336.963C702.112 337.083 702.255 337.176 702.386 337.282C701.821 335.063 696.428 309.896 696.346 309.761ZM362.685 314.25L363.148 314.25L362.685 314.25ZM363.177 315.25L363.595 315.25L363.177 315.25ZM363.7 316.25L364.127 316.25L363.7 316.25ZM364.201 317.25L364.596 317.25L364.201 317.25ZM364.734 318.25L365.172 318.25L364.734 318.25ZM365.247 319.25L365.686 319.25L365.247 319.25ZM714.305 395.927C712.298 399.897 710.45 403.731 709.329 408.052C708.486 411.301 704.315 442.022 704.783 443.712L705.411 443.667C707.001 442.105 708.217 440.702 709.085 438.625C710.828 434.453 710.895 429.962 711.799 425.602C713.136 419.16 715.226 413.951 715.289 407.22C715.313 404.681 715.594 397.995 714.305 395.927ZM455.658 583.954L456.245 584.25L455.658 583.954ZM476.048 603.21L475.689 603.907L476.153 603.748L476.683 603.064L476.048 603.21ZM474.283 605.2L474.741 605.55L474.403 605.171L474.283 605.2ZM641.71 604.234C640.253 611.332 638.42 618.443 637.184 625.571C650.027 643.369 657.495 666.514 662.768 687.606C665.692 699.299 668.638 711.026 670.599 722.926C677.422 764.335 676.56 805.628 673.618 847.33C672.932 857.053 672.619 866.87 671.628 876.563C670.654 886.091 669.187 895.573 668.038 905.082C669.324 900.717 670.484 896.316 671.516 891.885L688.608 808.202C690.932 796.248 694.131 784.62 695.073 772.418C697.979 734.764 680.525 675.051 664.425 640.993C659.636 630.863 653.778 621.082 647.564 611.764C645.916 609.293 643.965 606.195 641.71 604.234ZM483.207 609.25L483.596 609.25L483.207 609.25ZM486.3 609.474L486.706 609.631L486.3 609.474ZM480.365 611.618L480.739 612.037L480.791 612.033L480.365 611.618ZM495.623 616.25L496.183 616.25L495.623 616.25ZM502.289 620.975L502.678 621.132L502.289 620.975ZM489.344 621.657C489.522 622.854 489.58 623.354 490.6 624.168C490.895 624.403 491.324 624.557 491.673 624.7C491.097 623.396 490.882 622.437 489.735 621.563L489.344 621.657ZM499.961 623.497L500.262 623.64L499.961 623.497ZM501.539 622.891C502.533 625.044 504.639 627.698 506.508 629.167C506.173 627.272 506.038 624.402 504.197 623.332C503.429 622.886 502.391 622.928 501.539 622.891ZM496.906 628.162L497.213 628.96L497.693 628.882L497.438 628.049L496.906 628.162ZM683.286 652.84C699.285 689.608 702.859 718.978 705.241 758.684C708.172 736.518 707.262 711.911 703.646 689.908C703.136 686.803 700.151 675.632 701.708 673.696C704.362 676.927 705.745 682.956 706.768 686.96C714.371 716.714 714.093 753.697 711.083 784.111C708.587 809.047 703.248 833.616 695.171 857.339C689.685 873.12 683.192 888.532 675.731 903.481C670.865 913.202 663.327 925.239 660.22 935.293C658.331 941.408 657.824 947.515 658.669 953.856C669.042 935.16 681.118 917.56 690.489 898.293C712.455 853.129 724.27 786.551 722.7 736.625C722.451 721.872 721.041 707.161 718.483 692.629C722.79 701.714 724.023 713.816 725.185 723.81C730.8 771.315 725.225 819.475 708.905 864.441C701.355 885.688 691.435 907.006 680.146 926.514C676.007 933.666 671.317 940.513 666.938 947.521C665.305 950.134 658.366 959.899 659.533 962.609C660.718 962.295 661.482 960.976 662.218 959.998C668.821 951.223 674.585 941.742 681.012 932.821C688.553 922.354 696.657 912.332 704.059 901.754C709.219 894.378 714.378 886.947 718.918 879.168C732.112 856.561 736.286 831.906 739.506 806.361C743.546 774.315 745.176 744.127 736.78 712.579C735.159 706.49 733.667 700.059 731.117 694.289C731.03 694.092 730.951 693.89 730.86 693.694C729.605 690.986 704.448 672.449 700.893 670.486L700.526 671.603L700.03 671.689C694.793 665.482 689.922 657.639 683.286 652.84ZM328.608 739.465L329.078 739.75L328.608 739.465ZM907.347 880.037C904.651 890.322 904.725 906.618 904.405 917.586L903.209 958.503L901.894 996.586C901.655 1004.4 901.206 1012.32 901.746 1020.13C905.507 988.22 905.227 955.516 906.033 923.408C906.2 915.13 906.445 906.855 906.767 898.582C907.045 892.446 907.701 886.17 907.347 880.037ZM657.612 961.29C656.954 962.833 654.833 966.442 655.548 967.943C655.584 968.019 655.668 968.06 655.729 968.119C656.854 967.131 658.178 966.096 658.42 964.515C658.608 963.289 658.191 962.325 657.612 961.29ZM660.391 969.517C658.754 970.976 657.134 971.996 655.202 973.026C655.438 975.213 655.335 979.223 656.537 981.012C658.039 979.004 659.634 977.49 661.525 975.879C661.282 973.734 661.177 971.544 660.391 969.517ZM440.039 972.664L441.082 976.687C442.564 977.312 443.539 976.379 445.009 975.931L445.433 974.743C444.806 973.628 444.255 973.458 443.014 973.161C442.043 972.928 441.026 972.807 440.039 972.664ZM444.704 980.856L442.786 981.63C442.135 983.238 441.804 984.695 442.548 986.329C442.666 986.588 442.797 986.842 442.922 987.098C444.168 987.361 443.567 987.429 444.725 986.895C446.377 985.974 447.487 985.49 448.233 983.692C448.245 982.899 448.423 982.689 447.856 982.049C447.111 981.209 446.279 980.921 445.174 980.856C445.018 980.846 444.861 980.856 444.704 980.856ZM661.476 983.179C659.725 983.902 657.412 984.389 656.75 986.365C656.226 987.93 657.309 991.247 657.661 992.88L662.518 989.026C662.388 987.226 662.49 984.951 661.696 983.315L661.476 983.179ZM443.339 991.141C443.541 993.698 443.707 996.254 444.094 998.791C445.403 997.961 446.696 997.084 448.073 996.371L448.844 995.934C448.836 994.33 448.738 993.119 448.224 991.595C446.903 990.713 444.934 991.102 443.339 991.141ZM662.549 996.586L662.11 996.804C660.8 997.443 659.704 997.836 658.274 998.117C658.061 1000.96 658.059 1005.49 659.142 1008.07L659.423 1007.62C660.093 1006.54 660.737 1005.61 661.59 1004.68C662.72 1003.44 663.589 1002 663.539 1000.27C663.511 999.286 663.267 997.263 662.549 996.586ZM444.452 1002.28C444.538 1004.02 444.316 1005.93 445.267 1007.4C446.674 1007.3 447.638 1006.38 448.731 1005.57L449.437 1005C449.392 1003.67 449.543 1003.27 448.736 1002.24C447.187 1001.95 445.952 1002.34 444.452 1002.28ZM663.795 1009.45C663.199 1009.96 662.385 1010.87 661.717 1011.22C660.574 1011.8 659.298 1010.95 659.112 1012.69C658.897 1014.72 659.477 1017.2 659.579 1019.27C661.274 1019.28 663.206 1017.72 664.646 1016.84C664.529 1014.33 664.508 1011.88 663.795 1009.45ZM445.473 1011.93C445.524 1013.66 445.258 1015.63 446.173 1017.11C447.586 1017.43 448.6 1016.96 449.909 1016.49C450.103 1015.24 450.225 1014.35 449.997 1013.09C448.98 1012.07 448.461 1011.91 446.964 1011.89C446.467 1011.89 445.97 1011.91 445.473 1011.93Z"/><path d="M536.777 25.0438L536.997 25.3769L536.777 25.0438Z"/><path d="M800.796 95.7994L801.451 95.5793L800.796 95.7994Z"/><path d="M800.518 96.5273L800.796 95.7994L800.518 96.5273Z"/><path d="M800.267 96.8285L800.518 96.5273L800.267 96.8285Z"/><path d="M696.304 132.013L696.497 132.374L696.304 132.013Z"/><path d="M691.977 133.531L691.503 133.118L691.977 133.531Z"/><path d="M691.977 133.531L692.75 134.113L691.977 133.531Z"/><path d="M692.75 134.113L693.77 134.702L692.75 134.113Z"/><path d="M693.77 134.702L693.997 134.954L693.77 134.702Z"/><path d="M699.934 138.351C701.515 138.759 702.688 140.29 703.5 141.643C703.613 141.832 703.706 142.032 703.81 142.227C702.26 141.135 701.051 139.871 699.934 138.351Z"/><path d="M688.44 140.428L689.391 140.998L688.44 140.428Z"/><path d="M703.81 142.227L704.091 142.584L703.81 142.227Z"/><path d="M704.091 142.584L704.653 143.156L704.091 142.584Z"/><path d="M704.653 143.156L704.854 143.396L704.653 143.156Z"/><path d="M704.854 143.396C707.862 145.698 710.898 148.76 713.159 151.788C710.452 150.739 706.257 145.922 704.854 143.396Z"/><path d="M685.449 147.553L685.003 147.094L685.449 147.553Z"/><path d="M685.449 147.553C685.887 148.097 686.385 148.645 686.765 149.229C686.288 148.721 685.874 148.107 685.449 147.553Z"/><path d="M686.765 149.229L687.122 149.573L686.765 149.229Z"/><path d="M687.122 149.573L687.382 149.853L687.122 149.573Z"/><path d="M713.159 151.788L713.497 151.94L713.159 151.788Z"/><path d="M715.512 152.989L715.003 152.624L715.512 152.989Z"/><path d="M715.512 152.989L715.871 153.285L715.512 152.989Z"/><path d="M687.288 156.368L687.111 156.065L687.288 156.368Z"/><path d="M687.288 156.368L688.19 157.562L687.288 156.368Z"/><path d="M318.845 176.672L319.254 175.846L318.845 176.672Z"/><path d="M318.61 176.998L318.845 176.672L318.61 176.998Z"/><path d="M634.092 183.175L634.443 183.384L634.092 183.175Z"/><path d="M625.423 186.789L625.127 186.502L625.423 186.789Z"/><path d="M555.207 188.874L555.442 189.467L555.207 188.874Z"/><path d="M327.64 194.998L327.753 194.329L327.64 194.998Z"/><path d="M320.613 195.814L320.888 195.502L320.613 195.814Z"/><path d="M485.734 203.947C483.26 203.838 481.509 203.829 479.672 202.017C482.022 202.01 483.772 202.715 485.734 203.947Z"/><path d="M325.661 203.614L325.916 203.023L325.661 203.614Z"/><path d="M539.56 307.947C540.661 310.111 541.589 312.153 542.293 314.492C542.798 317.223 544.223 321.287 543.7 323.879L543.071 324.062L541.476 322.716L541.035 322.469L540.658 321.941C539.317 316.268 536.833 310.794 534.243 305.599L539.56 307.947Z"/><path d="M542.293 314.492C542.256 312.776 541.965 310.769 542.873 309.259C544.067 309.799 544.335 311.024 544.766 312.233C545.551 314.438 546.111 316.93 546.404 319.248C546.64 322.025 546.872 324.797 547.214 327.563C545.498 323.362 544.56 318.339 542.293 314.492Z"/><path d="M602.435 334.274C601.718 334.081 601.137 333.914 600.49 333.504C594.666 329.815 590.795 322.123 589.071 315.708C591.772 317.485 601.004 331.038 602.435 334.274Z"/><path d="M600.861 326.677C598.758 324.843 596.856 319.558 596.234 316.856C599.31 319.849 600.611 322.335 600.861 326.677Z"/><path d="M603.928 331.447C602.801 328.284 600.963 324.499 602.125 321.181L603.021 321.758C604.047 324.497 603.941 328.532 603.928 331.447Z"/><path d="M607.273 325.301L606.587 325.37L606.476 323.961L607.592 323.695L607.273 325.301Z"/><path d="M605.802 328.015L605.552 327.685L605.802 328.015Z"/><path d="M609.261 327.694L610.116 326.957L609.261 327.694Z"/><path d="M608.508 328.194C608.676 327.944 609.004 327.851 609.261 327.694L608.508 328.194Z"/><path d="M604.745 331.75L604.165 331.455L604.745 331.75Z"/><path d="M417.022 332.434L417.293 332.201L417.022 332.434Z"/><path d="M603.123 341.697L603.379 341.002L603.123 341.697Z"/><path d="M602.529 341.898L603.123 341.697L602.529 341.898Z"/><path d="M594.598 361.836C594.609 360.435 594.676 359.054 594.925 357.673C595.853 352.512 598.068 344.991 602.529 341.898C601.679 344.459 595.508 360.493 594.598 361.836Z"/><path d="M687.693 364.191C668.395 357.196 646.638 345.46 626.006 354.962C621.31 357.125 617.24 360.085 613.653 363.795C613.548 362.831 613.484 363.272 613.769 362.466C620.129 354.65 628.251 350.512 638.276 349.41C651.525 347.954 676.567 354.853 686.859 363.327C687.3 363.689 687.373 363.805 687.693 364.191Z"/><path d="M272.703 351.211L272.98 351.423L272.703 351.211Z"/><path d="M445.256 373.524L444.836 373.081C442.126 370.176 441.442 365.646 440.153 364.603C437.521 364.661 434.966 365.948 432.533 366.885C447.953 356.678 462.015 352.567 480.466 352.316C486.115 352.239 491.81 352.251 497.365 353.401C506.738 355.343 514.257 360.507 519.502 368.511C520.641 370.248 522.029 372.19 522.249 374.283L521.572 374.749C512.198 368.425 503.744 362.14 492.327 360.159C492.761 367.341 492.414 376.367 487.267 382.068C485.671 383.836 484.061 384.884 481.792 385.557L481.216 385.441C481.304 383.653 484.956 380.341 486.093 378.562C482.989 378.546 478.11 377.896 475.238 378.8C475.523 380.069 476.543 380.598 477.498 381.442C476.309 382.601 473.318 382.824 471.69 382.76C465.393 382.514 460.73 377.506 454.912 375.578C455.749 377.728 456.542 379.908 457.459 382.025C469.289 390.417 491.543 390.912 505.58 388.496C507.822 388.11 509.959 387.58 512.146 386.974C513.02 386.732 512.656 386.774 513.549 386.89C513.035 388.064 512.424 388.268 511.257 388.678C505.878 390.566 500.082 389.866 494.507 390.238C486.033 390.803 478.598 391.836 470.055 390.96C464.538 390.395 457.901 386.759 453.257 383.757L452.8 382.963C454.323 382.797 456.268 384.061 457.69 384.695L457.998 384.919L457.69 384.695C456.792 383.548 455.897 382.392 455.144 381.143C451.532 375.159 452.192 369.522 453.749 363.07C450.631 365.224 446.344 366.235 444.327 369.577C443.98 371.131 444.62 372.155 445.256 373.524ZM471.792 368.34C470.52 369.594 469.828 370.331 469.39 372.084C469.622 373.342 469.719 373.9 470.814 374.745C471.94 375.613 473.606 375.724 474.972 375.884L475.907 374.979C475.67 372.262 473.825 370.051 471.792 368.34Z"/><path d="M690.703 355.151L690.997 355.39L690.703 355.151Z"/><path d="M612.29 381.308C609.883 384.588 608.211 385.976 608.765 390.197C608.058 390.968 607.984 390.816 607.007 390.982C606.467 390.509 606.397 390.012 606.304 389.286C605.715 384.677 608.765 378.116 611.427 374.527C617.85 365.868 628.024 362.146 638.346 360.668C639.93 360.467 641.636 360.495 643.235 360.486C660.654 360.393 679.412 368.172 691.722 380.496C687.747 380.971 683.851 381.492 679.941 382.36C679.858 382.599 679.791 382.844 679.693 383.078C678.245 386.517 673.192 390.026 669.717 391.027C668.444 391.393 667.517 391.364 666.335 390.73C667.398 388.502 674.649 382.941 677.001 379.76C677.116 379.604 677.228 379.445 677.342 379.287C666.803 371.227 653.746 368.679 640.774 367.878C642.484 371.966 644.343 376.331 644.407 380.828C644.467 385.119 642.782 388.143 639.928 391.198C638.634 392.182 637.235 393.03 635.868 393.909L629.232 394.143C636.519 395.472 643.673 396.382 651.1 396.098C657.034 395.871 663.103 395.057 669.031 395.331C668.442 395.496 667.852 395.659 667.262 395.819C653.832 399.446 628.544 400.318 616.075 393.157C613.946 389.303 612.585 385.729 612.29 381.308ZM631.931 378.72C630.981 380.02 630.409 380.84 630.204 382.498C630.82 383.981 631.185 384.216 632.402 385.19C633.552 383.976 634.328 383.259 634.559 381.516C634.005 380.025 633.414 379.425 631.931 378.72ZM637.884 385.658C633.75 386.248 629.846 387.815 625.797 388.367C623.726 388.649 620.819 388.022 618.985 388.827C619.954 390.161 621.783 390.725 623.357 391.189C626.54 391.829 636.915 388.533 639.416 386.592C639.671 386.394 639.857 386.12 640.078 385.883C639.135 385.415 638.9 385.57 637.884 385.658Z"/><path d="M687.693 364.191L687.908 364.397L687.693 364.191Z"/><path d="M724.675 390.207C724.393 389.502 724.201 388.828 724.1 388.073C723.345 382.456 723.892 374.006 727.291 369.339C727.743 371.215 725.334 387.892 724.675 390.207Z"/><path d="M445.256 373.524L445.606 373.797L445.256 373.524Z"/><path d="M410.674 379.694L410.899 379.998L410.674 379.694Z"/><path d="M478.749 386.747L478.129 386.743L478.749 386.747Z"/><path d="M600.917 478.656C602.156 473.781 605.356 469.907 605.778 464.677C606.179 459.7 604.785 454.98 603.206 450.331C598.261 435.769 593.264 427.902 596.515 412.105C597.51 407.271 598.829 402.425 600.661 397.838C602.543 404.065 598.354 417.24 599.17 424.89C600.586 438.152 610.099 450.754 608.506 464.493C607.937 469.401 604.889 475.588 600.917 478.656Z"/><path d="M446.145 429.784C445.709 429.405 445.444 428.955 445.118 428.482C444.928 425.306 445.367 422.158 446.591 419.214L447.407 420.068C447.423 423.337 446.703 426.575 446.145 429.784Z"/><path d="M452.907 432.191C452.238 431.707 452.465 431.956 451.983 431.255C450.399 428.956 451.672 422.548 452.158 419.704C452.67 419.949 452.814 419.908 453.087 420.357C454.401 422.518 453.48 429.753 452.907 432.191Z"/><path d="M719.129 420.998L719.408 420.7L719.129 420.998Z"/><path d="M328.693 422.079L328.264 421.469L328.693 422.079Z"/><path d="M459.304 433.506C458.74 433.167 458.018 432.795 457.704 432.18C456.454 429.726 458.168 423.539 458.648 420.791L459.65 421.578C460.672 424.576 459.535 430.274 459.304 433.506Z"/><path d="M465.998 435.157C465.093 434.61 465.244 434.855 464.769 434.134C463.53 432.254 465.125 425.55 465.558 423.187C466.335 423.614 466.418 423.789 466.866 424.516C467.13 427.956 466.888 431.818 465.998 435.157Z"/><path d="M669.655 441.406C668.846 441.218 669.254 441.429 668.604 440.514C668.504 436.836 668.761 432.628 670.089 429.183C670.926 429.614 670.882 429.732 671.346 430.494C671.424 434.232 670.551 437.806 669.655 441.406Z"/><path d="M674.43 441.304L673.707 441.258C672.819 437.927 674.652 433.864 674.129 430.206C674.712 430.523 675.068 430.612 675.439 431.209C677.136 433.944 675.294 438.492 674.43 441.304Z"/><path d="M679.664 441.577L678.49 441.435C677.011 438.93 678.616 433.868 679.111 431.073L680.245 431.56C681.801 434.178 680.247 438.747 679.664 441.577Z"/><path d="M666.281 443.09C666.113 442.875 665.632 442.29 665.498 442.013C664.269 439.464 665.836 434.417 666.629 431.849L667.404 433.004C667.592 436.076 667.568 440.257 666.281 443.09Z"/><path d="M683.606 442.391C682.635 439.546 683.692 436.519 684.483 433.746C684.573 433.904 684.685 434.052 684.754 434.22C685.68 436.5 684.245 440.115 683.606 442.391Z"/><path d="M596.434 466.037L596.107 466.025C595.469 465.316 597.682 461.715 598.09 460.549C599.415 456.761 599.1 452.685 598.898 448.755C600.432 450.214 600.629 452.209 600.748 454.245C601.008 458.731 599.371 462.739 596.434 466.037Z"/><path d="M584.15 480.782C583.767 480.292 583.898 480.598 583.917 479.811C588.921 475.957 594.814 472.46 600.391 469.496L600.701 469.926C600.861 471.236 600.962 472.099 600.274 473.28C597.493 478.048 589.12 479.954 584.15 480.782Z"/><path d="M566.596 479.331C566.458 479.328 566.321 479.326 566.183 479.322C562.299 479.191 554.542 479.026 551.763 476.061L551.904 475.136L553.302 474.639C557.276 474.81 561.114 475.033 564.895 476.426C566.238 476.921 567.07 477.471 567.67 478.77L566.596 479.331Z"/><path d="M594.468 483.01L594.059 482.337C595.499 481.215 596.915 480.065 598.308 478.886L598.829 479.433L598.794 480.505C597.697 481.875 596.042 482.351 594.468 483.01Z"/><path d="M594.06 484.767L593.322 485.133L593.97 484.717L595.252 484.217L594.06 484.767Z"/><path d="M384.75 516.4C387.088 519.028 388.506 522.735 390.335 525.77C393.157 530.449 396.427 534.832 399.252 539.497C401.65 543.457 403.475 547.729 405.753 551.757C400.417 549.083 387.341 524.839 385.284 518.502C385.06 517.811 384.901 517.11 384.75 516.4ZM394.502 534.003L395 535L395.498 535.497L395 535L394.502 534.003Z"/><path d="M365.55 518.425L365.772 518.216L365.55 518.425Z"/><path d="M612.411 533.484C602.026 532.802 599.557 535.076 590.024 536.835C581.937 538.327 573.408 538.203 565.249 537.483C557.339 536.781 549.506 535.394 541.836 533.338C538.065 532.332 517.204 525.476 515.229 525.857C513.295 526.231 511.53 527.427 509.46 526.92C508.804 526.759 508.146 526.404 507.811 525.807C507.071 524.492 507.176 522.012 507.849 520.64C508.586 519.139 510.154 518.607 511.591 517.962C511.914 517.994 512.238 518.018 512.561 518.056C515.058 518.351 516.063 520.234 517.445 522.089C530.668 523.582 543.393 519.664 556.492 520.068C561.284 520.216 566.071 521.223 570.847 521.656C576.352 522.155 581.787 521.882 587.225 523.095C594.859 524.799 602.241 527.801 609.974 529.002L610.806 529.126L613.109 528.19C613.716 527.942 614.484 527.556 615.125 527.485C616.492 527.334 617.012 527.778 617.955 528.584C617.987 529.705 617.961 530.043 617.303 531.021C616.122 532.775 614.367 533.113 612.411 533.484ZM557.346 525.7C548.529 526.832 539.663 527.544 530.778 527.831C544.059 530.145 556.38 532.942 569.977 533.42C578.424 533.27 586.441 532.379 594.749 530.902C582.904 528.741 569.387 524.524 557.346 525.7Z"/><path d="M413.105 541.257L413.375 541.421L413.105 541.257Z"/><path d="M595.966 556.817L596.484 556.54L595.966 556.817Z"/><path d="M543.275 557.952C559.907 562.153 579.7 562.506 595.966 556.817C591.622 560.999 585.898 564.648 580.076 566.328C568.538 569.656 558.465 566.868 548.27 561.251L543.275 557.952Z"/><path d="M610.196 619.613C612.432 620.626 613.419 621.45 614.322 623.762C613.054 623.443 611.758 623.205 611.009 622.01C610.597 621.355 610.402 620.363 610.196 619.613Z"/><path d="M599.294 638.62C598.631 638.618 597.913 638.651 597.264 638.463C594.899 637.779 593.145 634.885 592.121 632.837C594.953 633.837 597.607 636.188 599.294 638.62Z"/><path d="M590.071 639.038C589.644 640.029 592.229 641.611 592.698 642.999L592.241 643.493C588.928 642.227 588.14 637.805 586.458 634.887L586.171 634.395C589.232 635.666 592.772 638.412 594.884 640.968L594.808 641.524C592.863 641.264 591.621 640.171 590.071 639.038Z"/><path d="M591.092 645.758C590.431 645.863 589.736 645.962 589.074 645.787C585.505 644.846 581.535 639.034 579.802 635.925C582.994 636.848 589.344 642.983 591.092 645.758Z"/><path d="M571.761 663.069C563.983 660.523 557.617 650.331 551.921 644.727C548.882 641.737 545.444 639.084 542.127 636.409C542.855 636.552 543.566 636.686 544.265 636.942C549.711 638.941 569.221 657.617 571.761 663.069Z"/><path d="M558.034 637.985L556.991 638.243L556.107 637.489L556.999 637.202L558.034 637.985Z"/><path d="M587.404 649.7C587.222 649.676 587.04 649.656 586.859 649.629C581.538 648.84 577.157 640.874 574.093 636.831C577.738 638.013 585.209 646.224 587.404 649.7Z"/><path d="M575.566 659.248C570.446 658.178 561.43 647.137 557.263 643.285C554.898 641.099 552.401 639.22 549.738 637.416C550.348 637.401 550.897 637.383 551.492 637.549C557.663 639.277 572.421 653.843 575.566 659.248Z"/><path d="M579.131 656.196C575.521 654.174 561.233 641.034 559.137 637.594C560.05 637.744 560.876 637.944 561.697 638.375C567.176 641.244 577.148 650.287 579.131 656.196Z"/><path d="M557.184 654.227L557.572 654.632L557.184 654.227Z"/><path d="M557.572 654.632L557.997 655.379L557.572 654.632Z"/><path d="M561.078 665.713L561.616 665.851L561.078 665.713Z"/><path d="M544.738 745.436C544.399 745.684 544.621 745.59 544.022 745.53C544.906 742.432 558.249 731.381 561.455 728.027C564.078 725.332 566.411 722.368 568.415 719.185C573.899 710.321 576.351 699.385 578.67 689.312C579.034 689.639 579.096 689.648 579.363 690.14C581.721 694.481 580.266 703.235 578.911 707.814C574.214 723.68 558.871 737.779 544.738 745.436Z"/><path d="M241.091 710.606L241.4 710.004L241.091 710.606Z"/><path d="M367.545 930.709C318.722 902.084 267.202 856.412 247.623 801.855C239.449 779.076 230.87 732.351 241.091 710.606C238.782 724.677 240.141 740.577 242.152 754.675C248.641 800.165 264.908 830.587 295.161 864.673C305.351 876.154 316.524 887.636 328.207 897.597C333.477 902.09 368.122 928.535 368.925 931.237L367.545 930.709Z"/><path d="M582.204 768.824L582.35 768.343L582.204 768.824Z"/><path d="M563.962 828.394C563.347 826.356 562.898 824.672 563.24 822.542C564.96 811.807 570.781 800.676 574.562 790.454C577.202 783.317 579.222 775.803 582.204 768.824C581.28 777.29 573.095 801.454 569.718 810.174C568.029 814.538 565.851 818.795 564.314 823.201C564.007 824.08 564.038 824.773 564.129 825.692C564.233 826.734 564.282 827.361 563.962 828.394Z"/></svg>