<svg version="1.1" xmlns="http://www.w3.org/2000/svg" style="display: block;" viewBox="0 0 2048 2048" width="1024" height="1024">
<path transform="translate(0,0)" fill="rgb(255,255,255)" d="M 0 0 L 0 2048 L 2048 2048 L 2048 0 L 0 0 z"/>
<path transform="translate(0,0)" fill="rgb(0,0,0)" d="M 455.251 735.005 L 455.893 735.46 C 460.653 760.587 475.376 782.288 483.376 806.105 C 484.163 808.448 484.98 810.412 484.302 812.876 C 480.827 813.195 478.113 810.83 475.53 808.652 C 464.965 799.745 456.654 788.545 449.041 777.11 C 420.434 734.138 405.628 682.78 401.686 631.526 C 397.216 580.016 400.356 528.128 411.006 477.532 C 376.511 534.823 353.633 650.009 370.076 715.162 C 375.123 735.158 383.551 753.9 396.428 770.091 C 400.863 775.668 406.118 780.715 410.392 786.383 C 380.64 771.424 350.881 720.956 340.59 690.227 C 305.608 585.772 328.929 471.384 377.204 375.191 C 431.313 267.372 500.834 189.537 598.639 119.711 C 645.01 86.6044 694.798 58.3637 749.063 40.453 C 779.527 30.398 817.117 20.168 848.984 26.9703 C 858.658 29.0353 867.433 32.9633 876.22 37.3932 L 880.305 39.4773 C 956.212 -3.56045 1048.79 7.34644 1129.16 29.5145 C 1226.88 56.4709 1326.72 106.861 1395.7 182.421 C 1417.68 206.506 1437.32 235.209 1453.34 263.588 C 1485.17 319.979 1512.24 379.297 1528.51 442.15 C 1537.45 476.673 1543.36 510.381 1547.14 545.843 C 1551.95 591.053 1547.82 654.552 1574.43 692.22 C 1580.58 700.926 1587.83 707.163 1596.18 713.712 C 1572.75 706.576 1551.38 696.519 1532.84 680.346 C 1526.93 726.737 1515.6 761.548 1494.52 803.388 C 1508.69 847.631 1516.1 889.176 1494.06 932.231 C 1462.59 993.689 1411.97 1003.08 1395.52 1084.73 C 1392.67 1098.9 1390.78 1116.16 1395.11 1130.22 C 1395.9 1132.76 1397.13 1135.14 1398.37 1137.48 C 1381.06 1122.71 1369.77 1086.22 1366.98 1064.32 C 1351.73 1112.77 1321.33 1160.24 1283.45 1193.83 C 1282.37 1225.55 1277.34 1257.43 1277.45 1289.12 C 1331.75 1299.55 1419.01 1320.11 1463.97 1351.79 C 1477.05 1361 1487.86 1372.99 1496.79 1386.21 C 1504.42 1397.52 1510.78 1409.91 1516.14 1422.47 C 1571.35 1435.99 1629.41 1456.16 1660.39 1507.5 C 1664.2 1513.82 1667.03 1520.56 1670.63 1526.93 C 1674.79 1523.86 1678.89 1520.01 1684.48 1520.92 C 1700.88 1523.59 1732.24 1548.91 1747.66 1558.78 C 1755.54 1563.83 1764.42 1568.11 1771.83 1573.8 C 1776.92 1577.71 1781.95 1582.32 1785.42 1587.75 C 1788.26 1592.18 1787.97 1597.92 1786.73 1602.83 C 1784.08 1613.28 1776.03 1623.82 1769.09 1631.86 C 1803.56 1643.18 1897.72 1692.66 1913.89 1724.34 C 1925.28 1746.66 1937.72 1768.54 1947.94 1791.43 C 1984.52 1873.4 2004.57 1959.74 2018.75 2048 L 1745.36 2048 C 1764.7 1964.62 1794.15 1866.45 1845.49 1797.15 C 1856.66 1782.01 1868.74 1767.55 1881.65 1753.85 C 1886.5 1748.8 1899.48 1738.67 1901.81 1732.79 L 1900.03 1732.45 L 1897.42 1731.28 L 1895.99 1730.31 C 1888.95 1725.2 1879.97 1721.22 1872.27 1717.13 C 1855.54 1708.17 1838.65 1699.5 1821.6 1691.13 C 1808.15 1684.62 1750.25 1655.92 1738.08 1660.15 L 1738.31 1661.85 C 1743.84 1666.35 1784.97 1682.22 1794.96 1686.72 C 1820.82 1698.35 1846.17 1711.57 1872.31 1722.47 C 1880.07 1725.7 1887.77 1728.53 1895.99 1730.31 L 1897.42 1731.28 L 1900.03 1732.45 C 1802.47 1817.49 1756.86 1925.7 1723.89 2048 L 1378.33 2048 C 1395.2 2030.98 1413.74 2015.21 1431.01 1998.51 C 1462.04 1968.25 1492.37 1937.29 1522 1905.65 C 1583.89 1839.57 1641.59 1769.12 1698.42 1698.71 C 1715.36 1677.72 1732.41 1656.95 1748.7 1635.44 C 1755.67 1626.23 1763.44 1616.93 1769.09 1606.84 C 1770.8 1603.78 1772.53 1600.3 1772.02 1596.67 C 1770.89 1588.52 1760.35 1582.18 1754.43 1577.56 C 1739.8 1617.75 1701.05 1662.67 1674.33 1697.01 C 1614.11 1775.46 1550.17 1850.98 1482.7 1923.29 C 1442.6 1966.52 1401.38 2009.62 1356.52 2048 L 1334.16 2048 C 1346.21 2035.41 1360.09 2024.4 1372.88 2012.52 C 1401.27 1986.51 1428.97 1959.75 1455.95 1932.27 C 1562.42 1820.63 1660.83 1701.58 1750.42 1575.99 C 1726.31 1562.6 1704.61 1546.62 1682.23 1530.58 C 1597.99 1658.05 1503.61 1778.53 1400.01 1890.84 C 1350.69 1945.21 1300.3 1998.36 1246.15 2048 L 1172.91 2048 C 1190.6 1992.94 1212.41 1938.33 1234.3 1884.81 C 1244.68 1859.41 1256.59 1834.7 1265.41 1808.68 C 1253.41 1820.49 1239.79 1830.92 1226.66 1841.42 C 1160.68 1894.21 1084.59 1940.88 1003.98 1967.32 C 1002.55 1966.57 1001.88 1966.04 1000.24 1966.07 C 998.567 1976.08 999.707 1987.33 999.812 1997.54 L 1000.13 2048 L 983.084 2048 C 982.396 1997.25 983.292 1946.97 984.79 1896.26 C 934.486 1881.31 874.443 1822.64 839.655 1784.2 C 829.677 1773.18 818.415 1761.53 810.727 1748.77 C 818.639 1756.34 825.858 1764.65 833.536 1772.46 C 851.542 1790.77 870.872 1809.63 890.874 1825.71 C 908.492 1839.87 927.021 1853.31 945.564 1866.24 C 958.764 1875.44 972.599 1884.22 984.909 1894.6 C 985.213 1882.43 985.859 1870.27 986.847 1858.14 L 985.699 1857.33 C 970.94 1847.11 954.782 1839.36 940.119 1828.77 C 872.987 1780.31 812.578 1717.41 765.355 1649.51 C 753.01 1631.39 741.133 1612.95 729.735 1594.22 C 722.851 1582.96 716.429 1571.14 708.611 1560.52 C 707.06 1596.52 709.129 1632.16 711.732 1668.06 C 713.395 1691 714.612 1715.68 720.443 1738 C 771.304 1792.43 827.303 1841.82 887.66 1885.48 C 905.852 1898.51 924.319 1911.14 943.049 1923.39 C 952.589 1929.66 964.294 1935.56 972.619 1943.34 C 979.038 1949.34 981.159 1958.57 983.781 1966.63 C 969.102 1961.03 955.508 1952.92 942.004 1944.96 C 878.978 1907.82 820.865 1859.94 769.694 1807.78 C 759.03 1796.91 749.208 1785.16 739.438 1773.49 C 734.277 1767.33 728.941 1759.62 722.825 1754.48 L 722.249 1754.01 L 722.825 1754.48 C 724.956 1778.25 732.611 1803.33 738.465 1826.44 C 751.932 1877.86 766.12 1929.07 781.027 1980.09 C 787.611 2002.55 796.177 2025.31 801.584 2048 L 758.46 2048 C 746.692 2019.73 731.63 1992.67 719.056 1964.7 C 699.053 1919.3 681.076 1873.04 665.177 1826.04 C 651.209 1785.5 637.479 1744.6 630.132 1702.2 C 626.949 1683.83 625.423 1664.86 623.566 1646.3 C 617.581 1586.5 615.738 1526.97 612.272 1467.02 C 619.319 1455.94 629.356 1445.91 638.268 1436.28 C 680.7 1390.38 728.833 1350.1 781.494 1316.42 C 780.304 1316.87 779.121 1317.33 777.947 1317.82 C 739.92 1333.68 625.554 1425.97 610.843 1463.54 C 604.177 1480.56 605.32 1519.8 605.201 1538.65 C 604.904 1585.67 605.856 1636.39 617.631 1682.16 C 621.758 1698.2 628.901 1713.34 633.088 1729.45 C 650.423 1796.14 670.37 1861.48 697.425 1924.98 C 707.838 1949.33 718.707 1973.49 730.026 1997.44 C 738.22 2014.34 747.263 2030.87 754.961 2048 L 713.908 2048 C 699.761 2033.57 685.772 2019.23 672.997 2003.54 C 592.888 1905.21 519.398 1757.26 486.333 1634.73 C 476.61 1598.71 471.102 1562.61 465.112 1525.86 C 442.299 1533.51 420.449 1547.21 400.545 1560.62 C 402.169 1602.48 406.92 1644.07 418.271 1684.48 C 425.614 1710.62 436.406 1736.22 447.866 1760.8 C 499.541 1871.63 578.42 1962.58 664.383 2048 L 643.243 2048 C 626.921 2031.21 610.775 2014.25 594.807 1997.13 C 502.852 1898 406.311 1754.94 391.772 1617.69 C 389.925 1600.26 390.567 1583.1 391.227 1565.63 C 381.636 1574.85 372.055 1588.19 370.481 1601.68 C 368.057 1622.45 377.667 1657.87 382.69 1678.51 C 410.287 1791.89 477.64 1892.43 551.647 1980.92 C 570.609 2003.59 593.901 2023.39 611.549 2046.94 L 612.326 2048 L 383.332 2048 L 382.986 2045.82 L 381.988 2045.52 L 382.233 2048 L 295.769 2048 C 290.8 2031.81 284.736 2015.87 279.453 1999.77 C 252.49 1917.58 226.895 1831.95 181.765 1757.57 C 175.792 1747.73 168.609 1734.92 159.722 1727.59 L 159.236 1727.16 L 159.722 1727.59 L 160.098 1728.35 C 163.983 1736.06 169.037 1743.29 173.472 1750.7 C 180.317 1762.23 186.563 1774.1 192.186 1786.27 C 208.368 1822 219.8 1860.4 231.095 1897.91 C 245.906 1947.11 260.225 1997.5 269.874 2048 L 26.3554 2048 C 33.2167 2021.54 38.9636 1994.8 46.1579 1968.44 C 69.041 1884.59 99.5613 1800.1 143.76 1724.96 C 163.373 1691.62 316.056 1625.33 356.485 1614.61 C 356.594 1609.39 356.673 1604.14 356.986 1598.93 C 359.279 1560.7 408.104 1535.1 438.538 1520.01 C 447.735 1515.45 458.729 1512.5 466.626 1505.83 C 474.199 1499.43 480.19 1489.98 486.936 1482.62 C 505.399 1462.47 523.928 1442.48 544.401 1424.34 C 546.817 1414.81 550.419 1405.16 556.596 1397.39 C 573.317 1376.36 600.983 1374.8 625.366 1369.52 C 639.645 1366.42 654.357 1362.36 667.756 1356.47 C 699.639 1342.44 738.053 1306.65 773.149 1302.44 C 754.604 1283.79 734.466 1266.78 715.854 1248.15 C 676.634 1208.9 628.912 1148.64 613.285 1095.63 C 603.676 1094.6 595.018 1092.89 586.64 1087.68 C 555.371 1068.24 476.672 970.174 468.672 934.003 C 461.178 900.117 476.115 827.046 495.818 797.05 C 486.897 785.017 478.05 772.823 470.162 760.081 C 465.168 752.013 461.051 743.4 455.893 735.46 L 455.251 735.005 z M 754.99 122.985 C 754.4 123.347 753.353 123.845 752.899 124.351 C 736.006 131.585 719.528 145.954 705.559 157.959 C 690.481 170.916 675.252 184.145 661.816 198.816 C 613.306 251.788 567.059 329.147 540.49 395.71 C 506.349 481.243 485.875 587.216 506.214 678.221 C 508.562 688.731 510.628 701.126 514.755 710.994 C 514.882 711.298 515.035 711.59 515.174 711.889 L 515.755 712.995 L 515.174 711.889 C 513.73 698.627 509.723 685.374 507.616 672.149 C 502.784 641.821 504.133 612.743 508.433 582.519 C 515.34 533.978 536.324 436.453 567.867 399.156 C 571.288 395.11 575.265 392.062 579.478 388.897 C 558.285 457.182 544.213 527.477 537.488 598.659 C 535.56 619.291 533.702 640.855 534.151 661.588 C 534.348 670.717 535.476 679.894 536.2 688.995 C 536.957 698.503 536.469 709.983 539.233 719.072 C 541.553 717.528 536.956 669.118 536.723 662.535 C 536 642.084 538.405 620.843 540.651 600.52 C 543.603 573.81 547.053 547.048 553.259 520.867 C 563.445 477.899 582.089 432.465 602.753 393.385 C 593.535 431.077 585.793 470.082 585.125 509.014 L 585.939 509.825 C 586.806 507.793 586.739 508.502 586.822 506.628 C 588.14 476.786 600.469 438.858 616.898 413.907 C 617.12 413.569 617.35 413.237 617.576 412.902 C 605.939 471.918 601.536 532.132 604.464 592.213 C 605.981 566.163 605.997 539.94 609.117 514.006 C 616.709 450.892 640.532 403.393 665.537 346.531 L 666.174 345.801 L 666.794 345.005 L 666.174 345.801 L 665.537 346.531 C 654.553 355.566 631.919 389.458 622.303 402.749 C 617.423 351.993 631.354 329.515 648.677 285.281 L 649.348 283.544 L 649.837 283.005 L 649.348 283.544 C 637.456 294.174 614.166 337.118 603.336 352.607 L 601.912 351.426 C 600.933 347.735 600.848 344.264 600.952 340.477 C 602.727 275.506 672.45 196.911 718.218 153.797 C 729.06 143.583 741.52 135.177 752.279 124.949 L 752.899 124.351 L 754.99 122.985 L 755.995 122.181 L 754.99 122.985 z M 1218.16 127.692 L 1219.98 129.03 L 1221.38 130.363 L 1221.85 130.749 L 1222.43 131.423 C 1230.68 140.923 1240.87 149.076 1249.78 158.035 C 1272.87 181.254 1296.11 205.234 1317.22 230.234 C 1349.48 268.452 1377.01 310.781 1403.6 353.006 C 1409.96 363.112 1417.1 372.874 1422.96 383.279 C 1433.28 401.62 1440.76 421.725 1451.46 439.802 L 1451.99 440.995 L 1451.46 439.802 C 1443.8 411.174 1427.86 384.804 1417.76 356.965 C 1422.22 361.912 1426.71 366.818 1430.89 372.003 C 1431.09 364.508 1431.68 357.204 1433.28 349.858 C 1449.25 380.841 1467.05 412 1480.74 444.069 C 1487.91 460.881 1492.99 478.079 1499.21 495.193 L 1499.56 496.247 L 1499.21 495.193 C 1498.83 488.871 1497.4 482.641 1495.94 476.489 C 1474.96 387.758 1454.87 331.454 1401.2 256.804 C 1386.62 236.536 1371.43 216.167 1354.2 198.057 C 1342.66 185.927 1329.66 169.223 1315.51 160.447 L 1314.81 159.832 L 1313.77 158.918 L 1314.81 159.832 L 1315.51 160.447 C 1329.74 178.14 1344.41 195.605 1357.44 214.227 C 1366.66 227.4 1374.3 241.314 1382.38 255.188 C 1398.42 282.753 1414.89 310.219 1424.17 340.955 C 1420.67 336.205 1417.55 331.075 1414.32 326.133 C 1414.85 332.051 1415.87 337.451 1417.39 343.194 C 1408.96 334.471 1402.26 323.925 1395.28 314.038 C 1386.14 300.983 1376.77 288.094 1367.17 275.376 C 1335.13 233.048 1298.06 196.357 1258.65 160.968 C 1247.18 150.676 1235.17 138.571 1221.85 130.749 L 1221.38 130.363 L 1219.98 129.03 L 1218.16 127.692 z M 1136.01 131.248 L 1137.47 131.701 L 1138.44 132.788 C 1145.09 139.867 1161.45 149.026 1170.08 155.358 C 1183.59 165.277 1196.46 176.14 1209.2 187.016 C 1233.36 207.621 1256.96 229.187 1277.54 253.427 C 1314.85 297.372 1345.79 347.926 1373.7 398.195 C 1382.02 413.172 1391.02 427.795 1398.88 443.012 C 1425.07 493.649 1448.09 552.694 1452.62 609.999 C 1458.21 554.991 1418.45 445.22 1396.04 394.817 C 1365.18 326.125 1319.54 265.089 1262.38 216.059 C 1245.7 201.827 1227.8 188.974 1210.01 176.168 C 1188.12 160.411 1163.7 142.504 1138.44 132.788 L 1137.47 131.701 L 1136.01 131.248 z M 649.883 141.582 C 637.563 145.722 626.023 153.606 614.601 159.851 C 524.885 208.905 442.766 302.425 397.569 393.565 C 373.002 443.105 349.995 513.216 348.978 568.518 C 348.871 574.365 348.358 580.118 349.492 585.894 C 352.425 506.664 381.543 424.873 425.149 359.083 C 431.827 349.008 438.435 338.654 446.242 329.413 C 434.515 362.828 421.098 395.005 417.352 430.593 C 433.021 400.125 448.609 371.586 474.76 348.47 C 446.728 417.757 437.005 496.404 438.352 570.75 C 438.646 586.993 438.487 604.397 442.125 620.289 C 441.793 622.539 441.646 621.413 442.753 623.637 C 442.973 622.053 442.675 621.737 442.125 620.289 C 439.559 585.993 441.073 552.039 445.015 517.93 C 455.674 425.697 481.109 365.334 522.813 283.086 C 513.135 295.124 503.032 310.419 491.249 320.364 L 489.934 319.858 C 489.711 318.534 489.624 317.326 489.814 315.987 C 496.831 266.335 568.617 199.458 607.925 169.473 C 621.057 159.456 636.088 152.01 649.236 142.078 L 649.883 141.582 L 650.995 141.005 L 649.883 141.582 z M 1221.06 294.005 L 1221.57 294.456 C 1226.55 301.286 1233.22 307.247 1239.13 313.316 C 1258.99 333.737 1282.67 356.894 1290.39 385.048 C 1280.81 377.315 1270.09 371.002 1259.92 364.086 C 1252.03 358.723 1244.02 351.778 1235.48 347.598 L 1235.05 347.139 L 1235.48 347.598 C 1243.15 358.817 1259.04 372.68 1268.84 383.368 C 1264.37 382.999 1259.86 382.727 1255.41 382.212 C 1259.28 387.078 1265 393.037 1266.36 399.264 C 1253.7 391.931 1230.31 363.48 1216.62 362.981 C 1217.27 366.134 1220.72 368.878 1222.94 371.159 L 1222.47 372.823 C 1223.76 375.014 1224.59 375.382 1226.65 376.793 L 1225.99 377.942 C 1217.6 377.452 1208.26 373.874 1200.36 370.98 C 1206.33 379.643 1213.26 387.528 1217.62 397.164 C 1204.73 391.529 1192.57 384.491 1180.53 377.264 C 1185.99 383.663 1189.05 391.829 1194.03 398.702 C 1188.17 397.197 1182.22 395.73 1176.62 393.382 C 1166.89 389.298 1156.82 382.97 1146.54 380.715 L 1146.01 380.185 L 1146.54 380.715 C 1154.03 386.921 1163.6 389.892 1170.19 397.222 C 1157.92 391.127 1148.37 383.423 1137.13 375.984 C 1148.4 390.995 1171.67 415.85 1187.46 426.385 L 1187.9 426.859 L 1187.46 426.385 C 1182.5 416.471 1166.7 403.877 1165.11 398.887 L 1166.74 398.016 C 1182.95 399.294 1224 421.393 1240.66 429.056 C 1231.9 420.618 1221.96 412.961 1215.1 402.818 C 1254.12 410.05 1281.69 424.917 1308.73 453.166 C 1296.37 434.548 1279.43 419.6 1267.14 401.076 C 1278.77 405.844 1290.38 410.662 1302.45 414.232 L 1302.84 414.752 L 1302.45 414.232 C 1297.68 406.834 1293.81 399.981 1290.85 391.63 C 1322.43 406.384 1337.28 422.414 1358.38 448.923 L 1358.93 449.982 L 1358.38 448.923 C 1352.32 430.309 1337.85 413.539 1327.07 397.365 C 1331.77 399.929 1336.4 402.489 1341.38 404.483 L 1341.89 404.888 L 1341.38 404.483 C 1333.89 393.766 1326.3 383.114 1318.62 372.528 C 1302.35 367.091 1287.81 349.193 1275.12 337.812 C 1259.97 324.208 1238.7 304.745 1221.57 294.456 L 1221.06 294.005 z M 540.414 330.559 C 533.597 336.828 527.975 344.903 522.067 352.073 C 514.695 360.952 507.163 369.697 499.475 378.305 C 506.496 365.158 509.555 349.151 514.009 334.92 C 502.134 354.232 494.753 374.938 487.809 396.396 C 484.052 411.417 480.386 426.46 476.809 441.525 C 494.217 411.972 513.003 383.386 529.222 353.138 C 532.975 346.139 538.171 338.127 540.414 330.559 L 540.832 330.005 L 540.414 330.559 z M 848.143 362.005 L 848.632 362.482 C 856.044 385.522 907.509 442.816 927.373 453.519 C 928.465 454.108 928.54 454.103 929.537 454.465 L 930.224 455.145 L 932.618 456.4 L 933.143 457.216 L 933.995 457.782 L 933.143 457.216 L 932.618 456.4 L 930.224 455.145 L 929.537 454.465 C 925.095 448.397 916.923 443.059 911.222 437.993 C 902.371 430.141 894.008 421.755 886.181 412.883 C 872.823 397.545 861.943 376.477 848.632 362.482 L 848.143 362.005 z M 807.413 397.376 C 807.16 397.175 806.904 396.977 806.654 396.772 C 783.024 377.378 773.659 345.011 771.034 315.81 C 767.702 278.748 773.103 240.606 783.321 204.965 C 784.93 199.353 793.443 176.536 793.646 173.062 C 790.816 175.364 788.419 183.151 786.872 186.665 C 768.845 227.617 756.528 275.175 751.973 319.793 C 744.344 394.522 766.666 458.925 800.471 524.234 C 813.897 550.173 829.647 577.411 848.592 599.739 C 849.579 600.902 850.613 601.884 851.726 602.922 C 852.446 604.835 852.145 604.686 854 606 L 854.791 606.995 L 854 606 C 853.287 603.748 853.412 604.164 851.726 602.922 C 848.585 596.688 844.088 590.778 840.297 584.883 C 833.898 574.903 827.783 564.742 821.959 554.415 C 797.979 512.25 782.013 466.009 774.868 418.031 C 773.316 406.868 773.442 395.709 772.127 384.556 C 789.906 414.335 813.778 451.81 839.389 475.424 L 839.827 475.968 L 839.389 475.424 C 837.993 468.478 835.377 461.538 833.541 454.675 C 828.098 434.319 822.389 413.551 819.173 392.712 C 829.31 407.778 841.937 421.545 855.473 433.617 C 886.207 461.52 924.446 479.804 965.461 486.208 C 973.464 487.484 981.86 489.025 989.964 488.583 L 989.624 487.664 C 985.718 487.084 981.834 486.361 977.981 485.494 C 901.753 468.899 830.916 392.74 790.131 329.305 C 795.109 352.638 798.919 374.873 807.413 397.376 z M 1067.26 404.017 L 1068.17 404.463 C 1090.46 424.017 1142.66 440.293 1172.35 444.324 C 1149.84 431.177 1131.66 413.1 1110.68 397.981 C 1116.76 407.625 1124.09 417.339 1129.49 427.292 C 1119.05 422.525 1108.22 419.065 1097.48 415.08 C 1087.79 411.486 1078.12 407.277 1068.17 404.463 L 1067.26 404.017 z M 891.244 487.005 L 891.745 487.583 C 893.157 499.009 900.19 511.681 905.183 522.131 C 934.297 583.071 977.518 632.171 1030.61 673.554 C 1032.54 675.063 1034.29 676.442 1036.54 677.484 L 1037.21 678.154 L 1037.99 678.804 L 1037.21 678.154 L 1036.54 677.484 C 1029.33 667.709 1017.26 659.46 1008.58 650.815 C 990.311 632.377 972.918 613.087 956.462 593.01 C 937.948 570.333 922.411 546.566 908.512 520.818 C 902.994 510.596 898.991 498.612 892.688 488.992 L 891.745 487.583 L 891.244 487.005 z M 855.217 608.005 L 855.708 609.496 L 856.805 609.995 L 855.708 609.496 L 855.217 608.005 z M 1168.06 634.005 L 1168.52 634.441 C 1175.66 644.956 1205.06 665.097 1216.38 672.508 C 1258.78 700.256 1315.73 721.486 1366.91 710.739 L 1366.99 710.602 C 1366.35 709.168 1359.77 710.022 1358 710.051 C 1337.79 710.385 1318.04 707.264 1298.51 702.269 C 1262.85 692.951 1229.07 677.539 1198.65 656.715 C 1188.66 649.791 1179.57 641.197 1169.23 634.865 C 1169 634.721 1168.76 634.582 1168.52 634.441 L 1168.06 634.005 z M 1057.12 648.43 C 1062.8 657.911 1082.63 681.405 1091.41 688.342 L 1091.79 688.828 L 1091.41 688.342 C 1086.49 678.693 1066.54 653.708 1057.12 648.43 z M 590.521 699.757 C 586.319 700.593 581.74 700.936 578.352 703.724 C 577.68 705.391 577.326 706.664 577.193 708.459 C 581.585 705.957 587.031 703.44 590.521 699.757 L 590.995 699.218 L 590.521 699.757 z M 597.609 770.278 C 606.044 761.047 622.717 756.243 634.344 752.789 C 629.233 743.243 623.33 734.278 617.896 724.933 C 615.434 720.698 613.508 716.094 610.801 712.02 C 599.481 713.543 588.05 715.879 576.596 715.52 C 572.149 761.21 569.108 805.385 573.649 851.218 C 574.959 853.053 578.343 856.679 577.91 858.85 C 577.841 859.198 576.865 861.039 576.752 861.271 C 572.138 870.802 579.558 897.578 581.563 908.525 C 585.125 927.962 587.881 947.668 591.907 967.002 C 600.357 1007.58 612.226 1048.76 626.524 1087.67 C 650.907 1154.02 696.925 1210.11 747.661 1258.3 C 766.063 1275.78 785.521 1292.26 804.256 1309.41 C 834.384 1336.99 861.571 1366.14 899.372 1383.4 C 933.142 1398.83 969.462 1399.36 1003.97 1386.26 C 1081.34 1356.89 1187.45 1260.23 1236.15 1193.15 C 1255.14 1167 1270.21 1139.18 1283.31 1109.68 C 1288.24 1098.72 1292.57 1087.5 1296.29 1076.08 C 1300.29 1063.79 1323.83 975.48 1328.58 971.271 C 1327.76 985.021 1319.03 1043.61 1325.68 1050.55 C 1328.83 1053.84 1333.16 1055.26 1337.64 1055.2 C 1371.57 1054.74 1417.26 1003.88 1439.42 979.805 C 1466.3 950.583 1493.06 914.166 1491.23 872.405 C 1489.79 839.201 1473.95 770.369 1450.03 747.793 C 1445.43 743.446 1439.99 740.448 1433.51 740.825 C 1422.49 741.467 1411.68 750.142 1404.82 758.382 C 1395.25 769.881 1393.82 784.636 1389.11 798.36 C 1374.21 841.707 1349.63 899.773 1315.15 930.942 C 1322.13 911.286 1324.36 889.094 1326.88 868.484 C 1315.72 891.032 1304.81 910.584 1287.62 929.158 C 1292.7 889.781 1294.59 849.169 1289.89 809.65 C 1286.41 780.416 1279.9 751.451 1275.44 722.346 C 1254.73 721.131 1231.79 713.84 1212.09 707.296 C 1204.27 704.699 1196.23 701.295 1188.18 699.565 C 1164.85 694.549 1121.07 696.999 1095.47 696.945 C 1107.2 710.07 1119.77 721.998 1131.77 734.781 L 1133.43 735.126 C 1143.16 737.105 1152.8 736.545 1162.63 737.234 C 1181.91 738.587 1202.44 748.391 1217.76 759.814 C 1193.95 750.312 1173.82 747.564 1148.13 748.326 C 1150.98 751.657 1153.64 754.848 1155.97 758.58 C 1183.43 763.544 1208.7 768.539 1233.88 781.234 C 1237.12 782.87 1242.92 785.283 1244.89 788.329 C 1245.75 789.66 1245.71 789.774 1246.14 791.107 C 1244.75 792.344 1243.86 792.572 1242.13 793.143 C 1240.5 795.547 1238.28 800.128 1235.6 800.914 L 1234.48 799.351 C 1230.35 803.321 1223.89 822.174 1217.89 830.031 C 1218.16 820.346 1222.91 800.61 1215.53 793.328 C 1209.8 787.685 1198.29 785.053 1190.59 783.174 C 1192.2 808.583 1192.64 829.895 1174.71 850.139 C 1164.61 861.542 1151.13 867.739 1135.98 868.396 C 1121.4 869.028 1106.03 863.391 1095.59 853.197 C 1084.85 842.71 1079.02 827.301 1079.1 812.372 C 1079.15 804.407 1081.02 797.089 1083.18 789.494 C 1066.67 798.651 1045.93 815.489 1037.15 832.457 C 1034.02 838.501 1033.7 845.668 1029.75 851.269 C 1028.98 849.894 1029.31 850.765 1029.22 848.532 L 1028.15 848.445 L 1025.4 852.833 L 1024.06 852.922 C 1021.28 848.517 1022.58 843.079 1023.67 838.215 C 1029.66 811.54 1044.07 789.889 1067.32 775.338 C 1089.53 761.438 1114.23 758.06 1139.93 757.749 C 1123.66 748.655 1090.67 745.774 1072.92 750.559 C 1044.87 758.122 1027.35 786.887 1009.61 807.408 C 1015.77 787.466 1028.16 770.054 1043.49 756.003 C 1067.12 734.334 1078.2 734 1109.07 735.169 C 1092.41 726.29 1075.88 717.183 1059.47 707.85 C 1031.03 711.409 1003.35 714.933 975.727 722.889 C 982.375 740.002 994.916 755.871 1006.15 770.24 C 996.559 766.383 988.016 760.264 979.13 755.054 C 970.395 749.934 961.344 745.317 952.403 740.57 C 876.977 700.523 815.635 657.177 773.889 580.049 C 766.616 566.613 762.037 552.499 755.669 538.743 L 755.14 537.616 C 762.464 579.011 772.924 637.782 793.314 674.508 C 801.09 688.514 811.536 701.036 821.945 713.149 C 830.197 722.752 838.501 732.601 848.252 740.724 C 832.203 732.862 813.973 731.452 796.533 728.448 C 774.038 724.572 751.343 719.743 728.684 717.153 C 696.856 713.516 664.548 712.783 632.57 710.885 C 634.439 724.603 636.197 738.284 640.008 751.628 C 680.173 741.529 700.158 737.08 739.954 753.442 C 766.459 764.34 790.623 785.147 801.848 811.855 C 792.16 800.921 781.38 789.886 769.719 781.094 C 732.985 753.4 688.07 752.23 644.429 758.486 C 646.816 764.622 649.791 770.516 652.632 776.452 C 656.074 775.668 659.536 774.968 663.013 774.354 C 694.239 769.131 732.576 773.679 758.88 792.462 C 779.832 807.423 793.043 828.075 797.308 853.287 C 789.361 844.297 781.757 834.937 773.943 825.821 C 774.357 833.622 774.925 841.897 773.065 849.548 C 770.538 859.94 764.438 869.092 755.071 874.491 C 742.881 881.518 725.398 882.271 712.006 878.505 C 697.223 874.348 685.578 862.572 678.477 849.298 C 668.589 830.812 668.736 812.165 674.542 792.47 C 665.222 794.613 655.758 796.964 646.956 800.759 C 638.728 804.308 630.116 809.434 626.87 818.265 C 622.134 831.149 631.082 849.207 636.604 860.75 C 623.165 853.162 614.25 843.109 604.649 831.279 C 601.831 827.806 598.634 822.742 595.123 820.029 C 593.017 818.402 589.467 817.396 586.949 816.46 C 587.955 815.162 592.412 816.2 594.453 815.725 L 594.053 814.571 C 591.681 813.552 590.047 813.071 588.311 811.072 C 592.374 810.529 596.476 810.209 600.557 809.82 L 600.748 808.875 L 594.982 806.485 L 594.622 805.309 L 605.583 803.517 C 618.67 791.842 633.97 783.761 650.051 777.01 L 649.556 776.363 C 645.412 771.021 642.609 765.295 639.627 759.261 C 625.387 761.654 611.439 766.187 597.609 770.278 z M 1165.17 817.043 L 1166.06 817.963 L 1167.17 819.124 L 1166.06 817.963 L 1165.17 817.043 z M 1161.03 857.56 L 1160.01 857.752 L 1161.03 857.56 C 1161.88 857.234 1162.58 857.026 1163.35 856.56 C 1166.15 854.86 1168.61 850.926 1169.42 847.836 C 1163.53 848.215 1157.47 853.944 1150.75 854.694 C 1150.26 854.748 1149.77 854.778 1149.29 854.82 L 1144.76 855.838 L 1144.19 857.052 C 1146.07 858.663 1149.38 859.939 1151.84 860.234 C 1156.39 860.78 1157.38 856.208 1160.31 853.698 L 1162.64 853.917 L 1161.03 857.56 z M 558.179 965.425 C 549.333 953.424 547.231 937.673 549.566 923.174 C 552.741 903.452 563.569 896.125 562.611 874.403 C 552.97 901.383 538.876 918.476 545.073 948.676 C 536.185 932.746 535.078 915.398 540.078 898.006 C 543.297 886.81 557.662 863.446 557.973 858.854 L 557.162 857.488 C 551.339 859.303 535.14 893.347 531.152 900.919 C 530.311 902.518 529.54 904.128 528.791 905.771 C 529.724 884.686 536.963 868.636 548.163 851.103 L 536.03 840.919 C 535.814 841.132 535.594 841.341 535.382 841.558 C 523.264 853.971 511.679 887.462 512.003 904.875 C 512.031 906.4 512.237 907.891 512.427 909.399 C 512.635 911.048 512.571 910.323 512.423 912.408 C 507.578 908.063 505.93 899.531 505.49 893.317 C 503.863 870.326 514.141 846.094 525.952 826.989 C 518.637 819.495 511.263 812.059 503.83 804.682 C 491.408 834.12 474.534 908.741 486.321 937.893 C 492.342 952.784 501.743 967.09 510.987 980.224 C 525.17 1000.37 580.141 1068.99 599.794 1077.73 C 602.087 1078.75 604.536 1079.51 606.925 1080.27 C 600.984 1057.74 593.378 1035.63 587.399 1013.06 C 572.658 1012.57 557.408 1003.36 547.615 992.76 C 532.52 976.426 521.973 956.846 522.017 934.337 C 536.42 960.782 558.717 983.396 583.339 1000.39 L 583.755 1000.82 L 583.339 1000.39 C 581.983 988.565 577.934 976.083 575.445 964.376 C 570.578 941.699 566.53 918.854 563.31 895.885 C 557.575 919.775 552.125 941.09 558.179 965.425 z M 1390.01 1341.04 L 1392.74 1341.28 L 1394.52 1343.71 L 1395.42 1343.78 L 1396.17 1344.27 C 1404.16 1349.51 1412.94 1353.43 1420.92 1358.69 C 1451.89 1378.85 1477.95 1405.69 1497.2 1437.24 C 1505.09 1449.92 1510.96 1464.83 1519.51 1476.87 L 1519.99 1477.99 L 1519.51 1476.87 C 1515.95 1458.75 1499.89 1432.04 1489.18 1416.81 C 1471.06 1391.04 1427.32 1349.25 1395.42 1343.78 L 1394.52 1343.71 L 1392.74 1341.28 L 1390.01 1341.04 z M 725.817 1423.53 L 725.251 1423.99 L 725.817 1423.53 C 729.506 1418.82 731.766 1409.99 734.458 1404.4 C 739.108 1394.92 744.304 1385.73 750.018 1376.85 C 757.823 1364.79 776.923 1347.83 781.718 1336.54 C 756.914 1356.94 732.06 1391.54 725.817 1423.53 z M 1276.74 1310.95 C 1281.69 1315.74 1288.22 1319.79 1293.76 1323.96 C 1302.46 1330.39 1310.78 1337.33 1318.69 1344.72 C 1349.81 1373.68 1357.77 1396.37 1379.45 1429.78 L 1379.86 1430.99 L 1379.45 1429.78 C 1378.06 1414.53 1368.77 1396.05 1361.15 1383.03 C 1346.55 1358.05 1304.58 1318.31 1276.74 1310.95 z M 1285.35 1515.09 C 1270.2 1482.13 1264.73 1419.54 1263.19 1383.03 C 1261.49 1342.73 1263.5 1301.58 1265.78 1261.32 C 1267.4 1232.68 1268.7 1203.97 1273.17 1175.6 C 1265.16 1186.35 1257.88 1197.72 1249.44 1208.13 C 1240.07 1219.69 1228.94 1230.57 1220.41 1242.7 C 1202.4 1268.3 1189.08 1297.17 1171.18 1323.02 C 1137.18 1372.14 1057.47 1460.68 1007.7 1491.73 C 993.011 1500.89 976.851 1507.44 959.67 1509.94 C 939.445 1512.88 916.268 1513.51 899.13 1500.82 C 888.373 1492.86 880.011 1481.09 872.448 1470.22 C 845.809 1431.9 833.132 1401.15 814.806 1359.07 C 809.469 1346.82 804.565 1330.7 796.558 1320.2 C 793.939 1316.76 789.646 1313.9 786.274 1311.22 C 812.316 1384.26 830.46 1505.44 812.563 1580.76 C 810.87 1561.26 810.459 1541.67 808.699 1522.2 C 796.393 1530.22 786.243 1540.6 775.76 1550.78 C 798.734 1589.93 823.211 1628.16 846.223 1667.29 L 859.236 1671.6 C 915.984 1689.52 978.55 1699.95 1038.15 1698.98 C 1054.5 1668.43 1072.62 1638.88 1088.94 1608.31 C 1104.89 1578.45 1119.41 1546.9 1133.08 1515.92 C 1159.01 1457.14 1178.27 1395.67 1200.27 1335.4 C 1204.6 1323.52 1225.76 1265.29 1225.53 1258 L 1226.66 1257.04 C 1228.63 1277.48 1156.54 1477.64 1144.31 1510.12 C 1135.16 1534.41 1125.2 1558.61 1115.17 1582.55 C 1106.41 1603.47 1097.37 1624.45 1087.71 1644.97 C 1079.54 1662.34 1070.57 1679.53 1063.08 1697.19 C 1106.55 1692.93 1149.35 1683.37 1190.5 1668.71 L 1275.34 1562.73 C 1288.53 1546 1303.82 1528.91 1314.88 1510.75 C 1301.35 1495.37 1287.6 1480.19 1275.97 1463.3 C 1279.29 1480.47 1281.12 1498.14 1285.35 1515.09 z M 1459 1645 L 1458.36 1645.62 C 1450.31 1650.23 1442.84 1659.48 1436.59 1666.43 C 1409.51 1696.56 1386.7 1731.56 1365.4 1765.94 C 1335.21 1814.65 1308.1 1863.94 1282.48 1915.19 C 1274.39 1931.36 1264.65 1948.25 1258.99 1965.45 C 1258.84 1965.93 1258.74 1966.43 1258.61 1966.91 L 1258.09 1967.99 L 1258.61 1966.91 C 1265.29 1959.02 1277.16 1932.21 1283.12 1921.01 C 1302.21 1884.58 1322.15 1848.62 1342.94 1813.14 C 1368.71 1769.97 1395.27 1727.86 1424.8 1687.13 C 1429.44 1680.72 1434.01 1674.16 1439.18 1668.15 C 1445.34 1660.96 1452.42 1654.16 1457.83 1646.39 C 1458.01 1646.14 1458.18 1645.88 1458.36 1645.62 L 1459 1645 L 1459.96 1644.06 L 1459 1645 z M 178.078 1723.52 L 176.607 1724.26 L 175.696 1725.18 L 173.294 1726.34 L 171.553 1727.37 L 171.005 1727.83 L 171.553 1727.37 L 173.294 1726.34 L 175.696 1725.18 L 176.607 1724.26 L 178.078 1723.52 C 186.188 1720.95 194.254 1715.44 201.69 1711.27 C 236.999 1691.48 273.132 1674.01 309.711 1656.74 C 323.057 1650.44 347.875 1641.35 358.962 1633.79 C 331.036 1638.25 202.653 1703.5 178.078 1723.52 z M 794.393 171.5 L 795.168 171.5 L 794.393 171.5 z M 650.449 281.5 L 651.404 281.5 L 650.449 281.5 z M 847.282 360.5 L 848.194 360.5 L 847.282 360.5 z M 725.331 371.702 C 709.917 413.902 710.409 470.895 720.317 514.374 C 722.611 506.828 716.36 478.204 716.252 467.596 C 716.115 454.198 716.631 440.165 718.02 426.836 C 719.11 416.386 726.257 377.031 725.331 371.702 z M 1185.29 390.5 L 1186.49 390.5 L 1185.29 390.5 z M 697.271 494.612 C 672.869 550.705 644.717 608.746 632.513 668.968 C 664.395 663.583 698.763 661.023 730.952 665.019 C 750.876 666.949 770.443 670.024 786.527 682.615 C 779.022 672.127 770.806 662.128 763.513 651.502 C 743.353 622.132 720.344 580.949 709.428 547.338 C 705.725 535.937 703.045 524.287 700.752 512.534 C 699.624 506.749 699.183 500.095 697.271 494.612 z M 988.608 526.635 C 1002.61 561.479 1027.07 614.938 1051.9 642.659 C 1065.23 639.304 1078.9 637.884 1092.55 636.547 L 1097.13 635.648 L 1097.36 634.567 C 1081.57 622.696 1068.27 608.471 1054.29 594.627 C 1039.5 579.994 1024.64 565.637 1010.24 550.609 C 1003.48 543.56 996.408 531.875 988.608 526.635 z M 948.746 621.609 C 949.948 646.281 956.82 673.705 963.413 697.469 C 964.136 692.812 964.786 688.13 965.595 683.487 C 967.652 681.196 969.645 678.798 971.944 676.746 C 977.428 672.126 982.714 667.813 988.833 664.06 L 989.935 663.37 L 990.602 662.963 C 974.203 650.797 962.558 636.256 948.746 621.609 z M 588.194 645.613 C 584.449 661.336 581.535 677.239 578.038 693.015 L 586.927 687.356 C 591.114 685.158 595.27 682.862 599.599 680.952 C 597.575 674.55 591.329 648.424 588.194 645.613 z M 645.264 690.5 L 646.49 690.5 L 645.264 690.5 z M 640.467 690.658 C 638.401 691.501 636.104 691.847 634.986 693.819 L 637.525 694.371 L 643.454 691.699 L 643.64 690.876 L 640.467 690.658 z M 539.569 721.582 C 538.461 725.266 540.032 729.565 540.864 733.231 C 541.021 729.861 541.912 724.897 540.449 721.822 L 539.569 721.582 z M 1152.45 781.111 C 1147.71 783.226 1143.02 784.993 1141.04 790.187 C 1139.73 793.604 1139.79 797.671 1141.54 800.919 C 1143.42 804.419 1148.09 808.076 1152.02 808.874 C 1153.48 809.169 1155.05 809.082 1156.52 809.062 C 1161.91 806.9 1166.43 804.936 1168.89 799.332 C 1170.38 795.938 1170.63 792.015 1169.03 788.612 C 1167.39 785.118 1163.93 782.587 1160.23 781.624 C 1157.72 780.971 1155.02 780.946 1152.45 781.111 z M 1135.84 785.419 L 1136.27 786.127 L 1135.84 785.419 z M 742.33 801.799 C 738.808 805.682 736.784 808.904 736.953 814.31 C 737.075 818.209 738.597 821.818 741.565 824.398 C 744.781 827.194 748.366 828.096 752.542 827.632 C 753.51 827.525 754.467 827.34 755.426 827.174 C 758.476 824.649 761.261 822.401 761.245 818.051 C 761.228 813.583 758.198 809.65 754.818 807.048 C 750.95 804.069 747.196 802.233 742.33 801.799 z M 1109.68 804.279 L 1109.46 806.605 L 1111 805.518 L 1110.65 804.083 L 1109.68 804.279 z M 1116.6 822.508 C 1114.61 825.685 1113.69 826.72 1113.48 830.537 C 1114.6 832.971 1115.58 834.95 1117.39 836.982 C 1118.98 833.575 1120.84 830.027 1119.48 826.196 C 1118.87 824.492 1117.92 823.636 1116.6 822.508 z M 703.384 825.003 C 704.079 825.416 703.792 825.452 704.175 825.359 L 703.384 825.003 z M 1151.02 826.731 C 1140.03 838.086 1125.83 829.61 1119.06 837.338 C 1119.33 839.968 1119.99 841.119 1122.07 842.853 C 1124.14 844.586 1126.84 846.109 1129.29 847.228 C 1132.96 848.12 1136.67 849.198 1140.38 849.886 C 1145.9 847.775 1154.65 844.943 1157.65 839.447 C 1159.04 836.899 1158.76 836.11 1158.16 833.456 C 1156.22 831.196 1153.72 828.068 1151.02 826.731 z M 710.511 836.578 C 707.485 839.102 703.928 841.571 703.42 845.813 C 703.06 848.816 704.606 851.674 706.705 853.701 C 712.282 859.088 720.377 861.471 727.696 863.423 C 733.433 860.999 738.797 858.726 743.837 854.994 C 745.819 850.935 748.314 845.375 747.094 840.799 C 745.372 839.5 745.143 839.184 742.882 839.512 C 736.224 840.48 730.157 846.696 723.886 849.325 C 721.054 845.729 715.997 837.568 711.354 836.625 C 711.078 836.569 710.792 836.593 710.511 836.578 z M 625.766 1389.33 C 606.806 1393.23 576.97 1398.59 565.31 1415.77 C 561.013 1422.1 560.004 1432.24 558.789 1439.69 C 551.588 1483.83 551.757 1529.86 556.969 1574.23 C 559.57 1596.37 565.119 1617.83 568.699 1639.75 L 569.759 1642.6 C 570.44 1627.49 565.639 1605.07 564.342 1589.12 C 561.704 1556.68 555.439 1433.89 578.079 1412.59 C 589.863 1401.5 610.987 1395.39 626.22 1390.45 L 626.117 1389.52 L 625.766 1389.33 z M 1271.14 1412.24 C 1271.92 1418.68 1272.53 1425.2 1273.7 1431.57 C 1287.84 1439.42 1367.65 1487.02 1372.78 1487.44 L 1373.54 1485.76 L 1376.7 1469.49 C 1342.37 1450.11 1308.84 1425.06 1271.14 1412.24 z M 798.229 1433.92 C 780.638 1444.94 762.333 1454.67 744.311 1464.95 C 734.092 1470.78 722.621 1476.65 713.651 1484.26 C 712.622 1492.12 708.908 1507.31 711.715 1514.46 C 712.328 1514.23 713.046 1514.14 713.53 1513.7 C 729.226 1500.62 745.59 1488.36 762.557 1476.98 C 775.472 1468.14 790.331 1459.6 801.761 1448.9 C 801.326 1444.12 801.32 1439 799.345 1434.58 L 798.229 1433.92 z M 1591.14 1491.83 C 1591.64 1502.22 1591.37 1512.32 1588.04 1522.28 C 1574.83 1561.9 1503.88 1657.39 1475.42 1692.39 C 1474.67 1693.31 1474.76 1692.8 1475.06 1693.88 L 1475.99 1693.36 C 1509.02 1656.89 1599.43 1557.42 1596.2 1508.17 C 1595.83 1502.62 1594.27 1496.48 1591.14 1491.83 z M 1318.86 1669.93 C 1292.67 1693.48 1263.23 1714.89 1234.75 1735.62 C 1166.35 1785.4 1082.11 1845.21 998.082 1861.02 C 1000.47 1894.1 997.326 1927.15 999.221 1960.15 C 1000.91 1956.61 1002.5 1953.75 1005.65 1951.31 C 1014.52 1944.44 1027.23 1940.05 1037.4 1935.23 C 1056.81 1926.03 1076.44 1916.87 1095.49 1906.94 C 1140.91 1883.25 1186.59 1851.42 1228.9 1822.36 C 1243.51 1812.32 1257.43 1800.93 1272.63 1791.82 C 1282.91 1768.92 1290.47 1744.61 1299.51 1721.18 C 1304.32 1708.7 1316.85 1681.85 1318.86 1669.93 z"/>
<path transform="translate(0,0)" fill="rgb(0,0,0)" d="M 807.413 397.376 L 807.838 397.889 L 807.413 397.376 z"/>
<path transform="translate(0,0)" fill="rgb(0,0,0)" d="M 1266.36 399.264 L 1266.75 399.813 L 1266.36 399.264 z"/>
<path transform="translate(0,0)" fill="rgb(0,0,0)" d="M 1129.49 427.292 L 1129.93 427.806 L 1129.49 427.292 z"/>
<path transform="translate(0,0)" fill="rgb(0,0,0)" d="M 1216.41 758.5 L 1215.25 758.5 L 1216.41 758.5 z"/>
<path transform="translate(0,0)" fill="rgb(0,0,0)" d="M 597.175 770.763 L 597.609 770.278 L 597.175 770.763 z"/>
<path transform="translate(0,0)" fill="rgb(0,0,0)" d="M 1391.26 909.005 L 1392.07 910.068 C 1391.04 935.953 1375.43 948.805 1367.83 972.456 C 1369.94 971.615 1372.01 970.688 1374.04 969.679 C 1382.13 965.616 1389.6 959.478 1396.57 953.776 C 1423.64 931.663 1442.57 905.643 1453.87 872.614 C 1450.99 911.069 1433.81 933.672 1405.95 959.301 C 1394.7 969.647 1366.77 994.281 1350.47 993.556 C 1347.86 992.134 1346.7 991.687 1345.39 988.848 C 1338.75 974.442 1372.28 938.303 1378.82 924.981 C 1385.67 911.024 1371.96 903.044 1368.2 890.475 C 1366.54 884.919 1366.84 879.014 1368.44 873.482 C 1372.17 860.552 1380.48 848.83 1386.95 837.149 C 1392.29 827.506 1397.26 817.617 1402.28 807.808 C 1406.03 801.507 1409.69 795.083 1413.73 788.964 C 1416.93 784.104 1422.52 776.79 1428.85 776.16 C 1431.87 775.86 1434.36 776.573 1436.76 778.369 C 1452.69 790.304 1455.53 830.002 1457.63 848.356 C 1450.74 827.095 1441.59 805.435 1429.21 786.765 C 1421.92 793.53 1417.12 803.4 1412.83 812.23 C 1420.63 840.589 1425.87 875.047 1416.39 903.438 C 1409.08 925.364 1394 953.394 1372.53 964.097 C 1375.77 959.317 1379.35 954.758 1382.8 950.123 C 1401.13 925.462 1414.32 898.656 1411.67 867.056 C 1410.69 855.445 1407.88 843.91 1406.19 832.376 C 1401.84 839.751 1396.05 849.995 1394.8 858.526 C 1392.75 872.598 1402.85 887.717 1397.65 902.86 C 1396.52 906.152 1395.19 908.609 1392.07 910.068 L 1391.26 909.005 z M 1388.22 877.585 C 1384.8 882.591 1384.6 886.573 1385.57 892.552 C 1386.35 897.372 1388.22 901.819 1390.65 906.019 L 1391.39 907.3 C 1392.72 898.995 1394.89 885.468 1389.11 878.39 C 1388.86 878.08 1388.52 877.854 1388.22 877.585 z"/>
<path transform="translate(0,0)" fill="rgb(0,0,0)" d="M 861.721 894.228 C 859.13 890.408 857.779 882.641 856.235 878.108 C 850.57 861.48 843.945 844.99 836.922 828.896 C 830.397 813.944 823.293 799.488 818.782 783.756 C 823.637 788.473 827.838 795.686 831.748 801.325 C 852.043 830.586 860.029 858.942 861.721 894.228 z"/>
<path transform="translate(0,0)" fill="rgb(0,0,0)" d="M 410.392 786.383 L 410.896 786.846 L 410.392 786.383 z"/>
<path transform="translate(0,0)" fill="rgb(0,0,0)" d="M 1009.09 807.984 L 1009.61 807.408 L 1009.09 807.984 z"/>
<path transform="translate(0,0)" fill="rgb(0,0,0)" d="M 1211.33 855.562 L 1211.78 855.005 L 1211.33 855.562 z"/>
<path transform="translate(0,0)" fill="rgb(0,0,0)" d="M 1072.24 886.13 C 1070.54 885.473 1069.22 884.739 1067.71 883.711 C 1071.67 881.993 1104.09 884.992 1110.8 884.848 C 1147.78 884.056 1179.45 873.433 1211.33 855.562 C 1204.04 868.145 1186.46 877.261 1173.5 882.697 C 1140.52 896.528 1105.7 899.898 1072.24 886.13 z"/>
<path transform="translate(0,0)" fill="rgb(0,0,0)" d="M 765.478 890.544 C 749.118 902.156 730.679 904.409 711.086 902.977 C 686.494 901.18 653.589 891.296 636.89 872.023 C 642.159 873.407 647.48 876.511 652.478 878.717 C 667.701 885.436 682.7 891.385 699.414 893.064 C 716.477 894.779 733.677 893.04 750.565 890.444 C 755.93 889.619 766.608 885.346 771.182 886.548 L 765.478 890.544 z"/>
<path transform="translate(0,0)" fill="rgb(0,0,0)" d="M 623.213 926.516 C 615.977 919.011 612.245 904.558 607.076 895.219 C 604.549 890.654 599.743 885.586 598.023 880.988 C 606.653 884.166 613.515 899.786 617.223 907.787 C 619.902 913.569 622.354 920.174 623.213 926.516 z"/>
<path transform="translate(0,0)" fill="rgb(0,0,0)" d="M 601.59 889.129 L 601.146 888.017 L 601.59 889.129 z"/>
<path transform="translate(0,0)" fill="rgb(0,0,0)" d="M 631.845 930.5 C 630.312 929.838 618.87 901.461 616.234 897.562 C 614.225 894.589 612.825 891.657 611.415 888.362 C 612.583 888.858 613.032 888.962 614.102 889.917 C 623.791 898.557 630.346 918.149 631.845 930.5 z"/>
<path transform="translate(0,0)" fill="rgb(0,0,0)" d="M 601.59 889.129 C 605.176 893.955 612.627 906.816 612.404 912.845 C 607.057 908.918 602.969 895.625 601.59 889.129 z"/>
<path transform="translate(0,0)" fill="rgb(0,0,0)" d="M 572.072 979.413 C 570.397 977.417 568.789 975.392 567.448 973.151 C 556.446 954.772 556.983 932.701 562.149 912.573 C 565.102 916.952 570.405 967.131 573.118 978.539 L 572.072 979.413 z"/>
<path transform="translate(0,0)" fill="rgb(0,0,0)" d="M 623.213 926.516 L 623.754 926.982 L 623.213 926.516 z"/>
<path transform="translate(0,0)" fill="rgb(0,0,0)" d="M 826.45 1016.33 C 833.386 992.939 849.88 970.515 862.554 949.781 C 862.582 968.397 851.198 984.936 852.052 1003.48 C 853.263 1029.79 890.453 1058.04 909.012 1074.93 L 908.862 1076.38 C 902.124 1079.11 888.064 1073.15 881.279 1070.71 C 875.204 1067.84 869.43 1063.95 863.672 1060.48 C 865.011 1064.98 866.138 1069.55 867.313 1074.1 C 846.29 1060.14 831.818 1040.96 826.45 1016.33 z"/>
<path transform="translate(0,0)" fill="rgb(0,0,0)" d="M 884.511 995.294 C 884.028 993.1 884.011 994.156 884.604 991.82 C 887.947 978.644 889.418 964.891 892.369 951.59 C 892.753 952.386 892.95 952.686 893.118 953.662 C 895.304 966.374 890.637 984.181 884.511 995.294 z"/>
<path transform="translate(0,0)" fill="rgb(0,0,0)" d="M 897.775 994.361 C 896.264 989.287 899.951 959.062 901.413 952.572 L 902.874 954.132 C 904.418 965.83 903.717 984.055 897.775 994.361 z"/>
<path transform="translate(0,0)" fill="rgb(0,0,0)" d="M 875.498 993.333 C 873.971 987.881 880.497 961.324 883.271 955.604 C 887.171 965.875 879.162 983.567 875.498 993.333 z"/>
<path transform="translate(0,0)" fill="rgb(0,0,0)" d="M 865.809 991.172 L 864.962 990.943 C 864.995 981.311 868.972 969.217 873.598 960.827 L 874.424 962.085 C 872.061 971.977 868.995 981.526 865.809 991.172 z"/>
<path transform="translate(0,0)" fill="rgb(0,0,0)" d="M 558.179 965.425 L 558.774 965.98 L 558.179 965.425 z"/>
<path transform="translate(0,0)" fill="rgb(0,0,0)" d="M 908.64 991.288 C 907.394 984.87 911.467 973.535 914.04 967.617 C 916.414 974.815 911.437 984.656 908.64 991.288 z"/>
<path transform="translate(0,0)" fill="rgb(0,0,0)" d="M 916.818 1076.21 C 917.584 1073.88 918.446 1071.59 919.402 1069.34 C 924.671 1057.07 932.426 1051.88 944.383 1047.18 C 952.032 1046.6 959.637 1046.34 966.13 1051.08 C 968.599 1052.88 970.628 1054.82 971.173 1057.93 C 967.488 1065.79 954.653 1064.04 947.232 1065.52 C 943.839 1066.2 940.51 1067.54 937.27 1068.73 C 930.488 1071.32 923.67 1073.81 916.818 1076.21 z"/>
<path transform="translate(0,0)" fill="rgb(0,0,0)" d="M 810.848 1168.98 C 809.365 1167.65 807.808 1166.29 806.769 1164.58 C 804.495 1160.83 803.967 1155.82 805.028 1151.6 C 805.813 1148.38 807.912 1145.64 810.816 1144.04 C 812.796 1142.96 814.098 1142.2 816.402 1142.67 C 824.53 1144.35 833.651 1151.8 841.011 1155.75 C 847.52 1159.25 854.894 1162.08 861.987 1164.12 C 920.436 1180.93 984.197 1169.84 1039.71 1147.66 C 1050.15 1143.49 1061.33 1139.18 1071.07 1133.6 C 1079.4 1128.83 1073.59 1128.46 1076.24 1121.92 C 1077.75 1118.18 1081.64 1117.04 1085.05 1115.64 L 1086.39 1115.1 C 1090.79 1114.89 1094.69 1115.56 1098.39 1118.08 C 1102.53 1120.91 1104.56 1124.84 1105.43 1129.71 C 1106 1132.86 1105.71 1135.15 1103.78 1137.8 C 1100.72 1139.42 1099.48 1139 1096.03 1138.51 C 1091.76 1137.89 1067.03 1150.84 1060.48 1153.51 C 977.827 1187.19 906.551 1189.21 821.25 1162.76 C 817.971 1166.57 815.817 1167.96 810.848 1168.98 z"/>
<path transform="translate(0,0)" fill="rgb(0,0,0)" d="M 1398.37 1137.48 L 1399.17 1138.22 L 1398.37 1137.48 z"/>
<path transform="translate(0,0)" fill="rgb(0,0,0)" d="M 1399.17 1138.22 L 1399.99 1139.74 L 1399.17 1138.22 z"/>
<path transform="translate(0,0)" fill="rgb(0,0,0)" d="M 870.427 1218.42 C 908.156 1229.15 941.488 1233.29 978.973 1219.27 C 992.094 1214.36 1004.66 1207.93 1017.94 1203.46 L 1019.16 1203.06 L 1020.05 1204.47 C 1019.72 1205.28 1019.6 1205.66 1019.02 1206.44 C 1006.7 1222.88 975.212 1242.85 955.042 1247.61 C 928.959 1253.77 907.641 1243.61 885.835 1230.2 C 880.492 1226.57 875.494 1222.43 870.427 1218.42 z"/>
<path transform="translate(0,0)" fill="rgb(0,0,0)" d="M 882.762 1619.3 C 878.751 1602.23 876.432 1584.68 873.118 1567.45 C 869.49 1548.57 864.896 1529.7 861.976 1510.71 C 877.467 1536.97 884.236 1589.01 882.762 1619.3 z"/>
<path transform="translate(0,0)" fill="rgb(0,0,0)" d="M 1285.35 1515.09 L 1286.47 1517.7 L 1285.35 1515.09 z"/>
<path transform="translate(0,0)" fill="rgb(0,0,0)" d="M 1286.47 1517.7 L 1286.79 1518.99 L 1286.47 1517.7 z"/>
<path transform="translate(0,0)" fill="rgb(0,0,0)" d="M 805.513 1742.65 L 805.005 1742.15 L 805.513 1742.65 z"/>
<path transform="translate(0,0)" fill="rgb(0,0,0)" d="M 805.513 1742.65 C 807.482 1744.2 808.512 1745.2 809.607 1747.47 C 807.531 1746.05 806.734 1744.83 805.513 1742.65 z"/>
<path transform="translate(0,0)" fill="rgb(0,0,0)" d="M 809.607 1747.47 L 810.177 1748.17 L 809.607 1747.47 z"/>
<path transform="translate(0,0)" fill="rgb(0,0,0)" d="M 810.177 1748.17 L 810.727 1748.77 L 810.177 1748.17 z"/>
<path transform="translate(0,0)" fill="rgb(0,0,0)" d="M 1257.7 1751.76 L 1258.99 1751.24 L 1257.7 1751.76 z"/>
<path transform="translate(0,0)" fill="rgb(0,0,0)" d="M 1256.83 1753.57 L 1257.7 1751.76 L 1256.83 1753.57 z"/>
<path transform="translate(0,0)" fill="rgb(0,0,0)" d="M 1255.67 1754.17 L 1256.83 1753.57 L 1255.67 1754.17 z"/>
<path transform="translate(0,0)" fill="rgb(0,0,0)" d="M 1255.17 1754.71 L 1255.67 1754.17 L 1255.17 1754.71 z"/>
<path transform="translate(0,0)" fill="rgb(0,0,0)" d="M 1007.39 1889.62 C 1012.98 1884.82 1029.23 1881.88 1036.74 1879.28 C 1057.8 1872 1078.73 1862.47 1098.6 1852.4 C 1139.73 1831.26 1179.55 1807.68 1217.87 1781.79 C 1230.35 1773.41 1241.7 1763.03 1254.43 1755.16 L 1255.17 1754.71 C 1254.1 1756.03 1253.08 1757.24 1251.88 1758.45 C 1241.71 1768.61 1229.79 1777.5 1218.56 1786.48 C 1164.67 1829.58 1078.16 1888.43 1007.39 1889.62 z"/>
</svg>