<?xml version="1.0" encoding="utf-8" ?><svg xmlns="http://www.w3.org/2000/svg" xmlns:xlink="http://www.w3.org/1999/xlink" width="1024" height="1024" viewBox="0 0 1024 1024"><path fill="white" d="M0 0L0 1024L1024 1024L1024 0L0 0Z"/><path d="M717.625 711.045L717.887 711.248C717.912 711.412 717.934 711.576 717.962 711.739C719.751 722.4 728.978 741.594 733.234 752.563C743.669 779.463 752.303 807.07 762.292 834.145C764.319 839.64 766.407 845.093 768.812 850.435C771.352 856.077 774.464 861.809 776.117 867.787C776.782 870.191 777.913 875.466 776.224 877.644C772.265 882.75 725.553 893.05 716.327 894.889C697.851 880.574 681.663 862.731 666.352 845.158C665.723 847.554 665.068 849.925 664.669 852.373C683.378 873.274 701.435 890.687 722.048 909.581C737.858 924.072 754.047 938.617 771.554 951.062C779.654 956.82 788.136 962.509 796.679 967.59C801.064 970.197 805.805 972.356 810.07 975.133C800.905 990.919 781.317 1012.41 767.182 1024L750.359 1024C767.274 1009.68 782.85 994.087 797.901 977.852C762.169 959.899 732.785 933.165 703.328 906.695C689 893.819 674.248 881.115 660.782 867.334L659.25 876.279C670.262 889.193 682.864 900.852 695.028 912.647C700.629 918.079 705.909 923.825 711.54 929.225C720.171 937.5 729.39 945.355 738.67 952.891C745.383 958.344 752.442 963.422 759.489 968.434C763.396 971.213 767.66 973.836 771.223 977.03C774.705 980.153 776.138 982.598 777.525 986.991C770.769 999.289 751.026 1014.42 740.131 1024L606.695 1024C613.084 1009.14 618.417 988.948 623.493 973.213C629.298 955.22 635.689 937.338 640.94 919.18C648.088 894.457 653.218 869.39 658.324 844.183C661.157 830.195 664.462 816.146 666.603 802.041C662.853 811.531 660.376 821.922 657.265 831.657C651.149 850.792 644.643 870.067 637.504 888.835C619.984 934.898 597.672 979.68 576.181 1024L572.143 1024C575.115 1015.43 579.992 1006.86 583.906 998.628L603.303 956.806C626.757 906.318 646.467 854.175 662.274 800.796C665.569 789.543 669.855 778.135 672.059 766.623C674.15 755.693 674.204 743.638 674.432 732.506C674.525 727.934 675.334 711.46 674.201 707.8C673.891 706.8 673.612 706.287 672.661 705.807C671.238 709.266 670.336 719.531 669.232 724.317C666.202 737.455 662.32 750.555 658.55 763.503C646.932 803.408 631.915 839.895 612.84 876.744C604.356 893.133 595.887 908.609 585.617 923.959C579.061 908.678 573.383 893.039 566.731 877.796C559.061 890.362 546.683 921.981 542.871 936.502C544.682 944.556 547.537 952.39 549.547 960.405C554.845 981.316 558.71 1002.56 561.117 1024L541.601 1024C537.113 1017.68 531.567 1011.87 526.626 1005.9C518.849 996.564 511.517 986.87 504.655 976.847C499.864 969.856 495.698 962.698 491.706 955.228C488.988 950.144 486.491 944.46 483.102 939.805C481.876 939.16 481.587 938.996 480.219 939.025C479.651 939.784 479.454 939.853 479.362 940.855C478.999 944.833 481.928 950.267 483.451 953.911C494.374 980.041 509.9 1002.5 528.181 1024L479.604 1024C474.691 1014.66 470.086 1005.45 466.084 995.676C465.769 1005.12 465.351 1014.56 464.833 1024L460.002 1024C461.338 1000.08 463.754 976.023 470.334 952.924C471.658 948.276 472.866 943.384 475.151 939.1C470.225 926.997 460.368 882.109 459.878 869.509C455.505 878.35 441.514 909.99 435.969 915.566C434.57 915.677 433.689 915.062 432.644 914.208C427.816 910.265 423.961 903.63 420.514 898.444C396.066 861.656 371.96 797.206 367.937 753.027C366.5 765.685 364.532 780.388 366.216 793.048C367.045 799.283 369.179 805.37 370.962 811.383L378.147 835.783C381.537 847.37 385.354 858.758 388.962 870.27C400.092 905.79 412.023 940.978 428.268 974.562C436.537 991.656 445.982 1007.88 455.984 1024L452.307 1024C418.227 977.79 393.022 904.515 377.633 849.257C374.878 839.366 372.554 829.328 370.246 819.324C368.942 813.674 367.868 807.831 366.125 802.303L365.946 801.751C365.987 809.258 366.917 816.814 367.65 824.281C368.754 836.738 370.201 849.162 371.989 861.539C379.653 916.273 389.984 971.512 407.473 1024L295.576 1024C280.687 1011.99 269.224 999.4 257.35 984.446C252.618 978.486 247.707 972.541 244.128 965.794C252.963 960.358 266.081 955.856 275.834 951.046C297.25 940.485 319.647 928.636 338.252 913.576C347.981 905.702 356.769 896.713 365.453 887.726C365.034 884.629 364.658 881.526 364.324 878.419C340.462 903.127 305.539 924.466 274.755 939.283C261.901 945.47 246.813 950.734 235.148 958.791C250.809 982.435 262.151 1003.36 282.213 1024L271.322 1024C256.201 1008.18 232.821 979.627 223.371 960.232C231.785 955.198 240.592 950.815 249.012 945.764C268.536 934.09 287.564 921.607 306.049 908.349C312.659 903.706 319.29 899.118 325.68 894.173C337.92 884.7 350.216 874.21 363.858 866.823C363.38 863.113 363.282 859.294 363.04 855.558C356.534 860.32 349.943 865.175 343.842 870.448C335.031 878.065 326.85 886.131 317.484 893.122C309.476 889.451 301.023 886.718 292.777 883.627C277.872 878.041 261.89 871.12 248.907 861.821C251.544 849.783 257.937 837.15 263.049 825.848C273.588 802.836 284.488 779.992 295.744 757.323C300.799 747.028 306.7 736.836 311.11 726.265L311.39 726.003L311.11 726.265C294.062 742.154 278.632 778.562 267.579 799.837C260.345 813.762 253.011 827.584 246.201 841.726C242.174 850.09 237.987 858.591 235.245 867.481C247.789 878.573 272.776 886.656 288.573 892.887C295.11 895.465 301.42 898.459 308.165 900.487C303.638 904.034 299.019 907.461 294.312 910.765C288.383 904.485 278.062 901.478 270.187 898.02C258.219 892.764 233.884 881.573 225.269 872.579C227.954 861.139 234.448 849.608 239.454 839.01C253.102 810.117 267.403 781.213 283.704 753.708C287.383 747.5 292.815 742.081 296.221 735.847L296.428 735.623L296.221 735.847C291.352 738.009 287.843 742.183 284.847 746.462C281.246 751.605 278.37 757.3 275.35 762.795C268.145 775.906 261.816 789.204 255.044 802.509C242.885 826.397 229.873 849.527 218.965 874.064C231.85 888.302 274.187 907.904 292.984 911.834C279.447 921.77 264.901 930.641 250.671 939.544C245.048 943.061 221.127 955.767 218.473 959.279C219.288 972.241 254.467 1013.33 263.961 1024L0 1024L0 946.095C4.09055 928.517 9.30203 910.626 16.6577 894.097C23.5829 878.535 31.2906 862.121 44.2507 850.667C50.6269 845.032 58.0577 840.451 65.2815 835.986C84.5708 824.274 105.026 814.601 126.317 807.122C147.111 799.612 168.234 793.465 188.816 785.315C212.114 776.083 235.306 766.586 258.387 756.826C265.156 754.007 271.672 750.47 278.496 747.853C280.668 743.038 283.064 738.441 287.04 734.848C292.109 730.267 298.081 728.816 303.618 725.272C306.794 723.239 309.58 720.449 312.601 718.179C318.316 713.887 324.25 710.117 329.64 705.373C337.975 698.036 345.452 689.577 352.961 681.416C357.371 676.623 361.705 671.601 366.842 667.564C370.675 664.552 374.844 662.26 379.134 659.973C383.076 648.64 388.381 638.556 396.177 629.387C395.303 619.466 394.048 600.096 390.569 591.513C388.253 585.797 381.885 580.643 378.058 575.77C365.092 559.261 354.786 540.118 349.752 519.629C345.192 520.033 340.892 519.819 336.54 518.265C333.494 517.182 330.645 515.611 328.104 513.613C316.202 504.137 293.34 474.337 286.978 460.746C277.626 440.769 277.754 420.709 285.169 400.198C281.707 396.568 277.813 393.419 274.461 389.656C261.428 375.03 249.183 355.327 243.771 336.371C242.131 330.628 242.338 324.705 240.819 319.097C240.738 320.111 240.668 321.126 240.609 322.142C239.56 340.578 243.958 360.069 256.431 374.038C247.758 368.77 242.278 360.071 238.325 350.929C224.861 319.792 231.078 289.499 243.092 259.334C232.365 264.269 215.219 270.917 203.208 267.562C201.463 267.075 199.952 266.251 199.079 264.609C198.575 263.662 198.613 264.079 198.915 263.163C200.122 263.558 201.323 264.205 202.539 264.515C217.083 268.234 246.036 232.668 252.741 221.083C258.074 211.87 261.537 201.463 265.736 191.702C274.612 171.071 284.579 150.036 297.512 131.616C316.415 104.174 341.58 81.6254 370.924 65.8359C396.141 52.3849 434.237 44.3344 461.913 52.7389C466.913 49.6851 471.969 46.7792 477.389 44.5259C502.933 33.9072 528.942 34.2419 555.805 38.2586C587.584 43.0104 602.743 50.2018 629.911 67.2176C652.69 81.4836 672.674 96.971 690.16 117.575C717.057 149.267 731.449 192.823 772.513 209.939C759.724 210.656 747.595 205.935 736.457 200.086C740.272 206.156 744.467 212.187 747.753 218.556C753.385 229.474 757.792 242.808 761.44 254.615C767.476 274.151 770.126 298.48 764.933 318.39C762.893 326.211 759.522 333.447 755.757 340.566C757.345 334.423 758.949 328.327 759.721 322.014C761.635 306.354 760.951 280.117 755.441 265.338C755.589 271.241 756.343 277.125 756.475 283.04C756.908 302.402 755.61 325.105 748.856 343.357C744.767 354.405 738.922 364.641 733.312 374.96C736.325 393.973 738.837 409.96 735.046 429.288C733.434 437.508 730.245 445.861 726.357 453.263C720.94 463.576 701.15 490.045 691.836 496.239C685.023 500.769 678.31 501.57 670.433 499.974C667.822 515.764 664.221 531.175 657.281 545.699C654.247 552.049 649.645 558.236 647.525 564.929C645.576 571.086 645.355 578.161 644.59 584.573C643.024 597.337 641.641 610.123 640.439 622.927C641 623.223 641.558 623.527 642.111 623.837C652.242 629.523 656.244 638.592 659.21 649.301C663.651 650.471 667.514 651.982 671.229 654.769C678.205 660 683.158 667.826 688.327 674.737C694.236 682.64 700.508 690.885 707.684 697.685C711.38 701.188 715.785 703.326 719.975 706.132C724.248 708.993 728.108 712.512 731.706 716.172C737.252 721.813 741.546 730.509 748.165 734.762C756.475 740.101 765.832 744.23 774.571 748.876C807.457 766.36 841.636 781.01 876.274 794.649C903.074 805.202 930.17 814.72 955.901 827.736C966.836 833.266 977.396 839.506 987.514 846.418C993.609 850.622 999.792 855.121 1004.62 860.787C1015 872.976 1019.08 893.169 1024 908.171L1024 1024L776.964 1024C789.331 1011.38 812.046 989.55 815.571 972.564C809.665 968.248 802.662 965.131 796.416 961.258C784.661 953.835 773.121 946.076 761.812 937.99C748.392 928.4 737.2 916.305 724.232 906.231C747.678 897.685 772.25 892.249 795.673 883.543C789.573 874.515 785.153 864.69 780.396 854.925C774.969 843.785 769.466 832.693 764.847 821.184C761.33 812.424 758.493 803.402 755.222 794.547C749.209 778.311 742.935 762.172 736.403 746.137C733.187 738.192 730.398 729.453 726.295 721.963C724.045 717.857 721.374 714.377 717.887 711.248L717.625 711.045ZM556.479 58.7331C557.38 59.9813 564.289 60.7941 566.012 61.1434L566.585 61.3491L566.012 61.1434C563.712 59.2187 559.363 58.83 556.479 58.7331ZM567.503 61.5025L568.5 62L570.483 62.7141L570.997 62.9975L570.483 62.7141L568.5 62L567.503 61.5025ZM513.936 65.2159L512.642 65.6956L511.733 66.1268L510.695 66.6555L509.711 67.1435L508.722 67.6393L508.502 67.9095L508.722 67.6393L509.711 67.1435L510.695 66.6555L511.733 66.1268L512.642 65.6956L513.936 65.2159C520.024 63.9146 525.899 61.4851 532.076 60.3034C537.692 59.229 543.54 59.5964 549.161 58.4989C548.932 58.4754 548.703 58.449 548.473 58.4285C540.442 57.7133 520.091 59.9504 513.936 65.2159ZM403.342 75.7303L403.002 75.8747L403.342 75.7303C404.188 75.6566 404.556 75.5243 405.312 75.1903C404.368 75.0918 404.174 75.3299 403.342 75.7303ZM406.852 74.6532C411.21 75.4034 416.979 74.0416 421.467 73.8162C435.629 73.1049 441.99 76.8004 454.761 81.2512L455.099 81.5725L456.298 82.144L456.613 82.5883L457.803 83.1432L458.108 83.5918L458.911 83.9975L458.108 83.5918L457.803 83.1432L456.613 82.5883L456.298 82.144L455.099 81.5725L454.761 81.2512C454.135 80.6009 453.581 80.1463 452.796 79.6833C440.234 72.2823 420.723 70.8007 406.852 74.6532ZM485.719 109.702L485.396 110.079C484.836 110.466 484.275 110.823 483.774 111.285L483.427 111.604L483.03 111.998L483.427 111.604L483.774 111.285C484.339 110.943 484.87 110.481 485.396 110.079L485.719 109.702C489.682 108.084 493.394 105.519 497.342 103.732C508.374 98.7389 521.757 98.5085 533.547 100.318C600.251 110.559 658.958 184.525 680.24 244.832C684.847 257.887 687.699 271.517 690.562 285.036C690.956 286.899 691.251 290.584 692.33 292.062L692.179 290.132C691.058 274.603 688.96 258.155 684.704 243.184C673.378 203.344 646.956 166.936 616.829 139.089C592.402 116.51 555.971 94.5435 521.91 95.937C509.346 96.4509 494.556 100.04 485.719 109.702ZM371.732 133.287L371.422 133.589C371.089 134.052 370.741 134.481 370.5 135L369.813 135.688L369.333 136.798L368.875 137.076L368.591 137.498L368.875 137.076L369.333 136.798L369.813 135.688L370.5 135C370.852 134.597 371.136 134.044 371.422 133.589L371.732 133.287C374.94 131.016 377.764 126.411 380.427 123.413C394.033 108.095 412.502 94.7023 433.052 90.9232C436.924 90.2112 441.055 90.1565 444.985 89.927L445.42 89.1881C437.66 87.9862 427.003 91.0493 419.807 93.7883C403.462 100.01 390.302 110.314 378.944 123.465C376.424 126.383 373.295 129.787 371.732 133.287ZM465.254 149.326L464.217 149.565L463.918 150.163L463.638 150.354C454.474 154.786 443.702 179.283 440.437 188.654C436.662 199.485 432.843 213.083 433.02 224.685C433.067 224.554 433.117 224.423 433.162 224.291C435.444 217.615 435.514 209.961 437.263 203.056C440.924 188.602 446.601 174.393 454.906 161.974C457.585 157.967 461.089 154.347 463.638 150.354L463.918 150.163L464.217 149.565L465.254 149.326L465.881 148.502L465.254 149.326ZM672.003 151.125L672.249 151.381C683.793 163.095 690.384 177.16 697.62 191.687C698.014 190.078 698.47 188.459 698.735 186.825L701.848 194.345C701.478 190.39 700.932 186.594 700.105 182.709C705.722 193.892 710.553 205.529 715.258 217.121C717.883 223.59 720.215 230.441 723.417 236.629C716.773 203.622 699.96 161.435 673.734 139.463L673.127 138.947C679.532 149.271 689.47 160.71 694.258 171.449C687.565 165.006 681.077 154.878 672.249 151.381L672.003 151.125ZM299.608 154.286C295.801 158.886 292.62 164.377 289.662 169.564C269.837 204.333 256.034 259.737 259.632 299.679C259.957 303.279 260.29 307.29 261.635 310.669C261.545 311.309 261.56 310.88 261.885 311.931C261.944 311.253 261.954 311.682 261.635 310.669C261.512 303.437 259.94 296.292 259.982 288.94C260.141 261.689 265.63 238.197 276.457 213.205C278.85 207.681 281.185 201.559 284.681 196.637C284.414 199.216 283.783 201.486 283.861 204.127L283.924 202.962C284.873 202.614 286.554 194.987 287.265 193.357C287.905 191.889 288.937 190.543 289.884 189.264C288.853 192.844 284.787 209.908 285.235 212.593L285.244 212.598C288.125 201.951 292.63 191.891 296.795 181.702C299.216 175.78 301.29 169.736 303.892 163.884C306.629 157.729 309.922 151.786 312.302 145.482C301.929 160.187 293.61 175.635 284.278 190.941C288.422 178.322 294.353 166.46 299.608 154.286L299.897 154.002L299.608 154.286ZM338.634 164.77C333.716 169.646 324.873 185.849 321.811 192.531C322.731 187.616 325.06 183.236 326.798 178.583L326.998 178.087L326.798 178.583C314.205 191.572 302.53 228.269 300.75 245.811C303.638 238.991 306.605 232.181 309.144 225.222C310.921 220.351 312.243 214.915 314.487 210.273C313.11 216.95 311.479 223.588 311.409 230.437C314.728 224.512 316.598 217.717 318.258 211.165C318.045 215.998 318.014 221.01 317.294 225.791C315.988 234.463 313.005 243.008 311.018 251.548C304.373 280.117 300.64 308.685 307.408 337.703C308.975 344.421 310.475 353.232 314.196 359.064L314.701 360.359L315.124 361.267L315.441 361.998L315.124 361.267L314.701 360.359L314.196 359.064C312.74 351.525 309.784 344.175 308.17 336.597C303.758 315.884 304.208 292.843 307.776 271.981C309.125 264.09 320.421 219.709 324.439 216.883C323.559 220.454 322.149 223.906 321.096 227.435C318.343 236.67 315.883 247.513 316.496 257.205C317.399 256.506 318.07 249.196 318.447 247.56C319.9 241.253 321.605 233.917 324.41 228.096C322.859 235.248 321.895 244.441 321.467 251.775L321.126 251.998L321.467 251.775C324.278 244.591 325.383 236.747 328.319 229.54C331.065 222.801 334.34 216.223 337.311 209.576C340.286 202.919 343.027 195.953 346.416 189.504C349.065 184.465 352.437 179.813 354.972 174.714L355.196 174.255L355.477 174.002L355.196 174.255C349.099 181.062 343.89 188.906 338.927 196.557C336.062 200.972 333.14 206.498 329.415 210.227C331.207 200.055 335.786 191.417 339.794 182.067L340.129 181.322L340.481 181.002L340.129 181.322L339.794 182.067C333.774 187.792 330.53 197.802 326.188 204.906C326.506 203.16 327.321 201.551 327.678 199.82C328.676 194.981 328.969 190.703 330.658 185.932C333.099 179.039 336.624 172.246 338.519 165.217C338.559 165.069 338.595 164.919 338.634 164.77L338.875 164.502L338.634 164.77ZM476.081 168.002L476.35 168.196C480.367 173.112 484.708 177.826 488.146 183.183C492.413 189.832 496.112 196.957 500.034 203.82C511.489 223.864 522.605 243.611 537.241 261.542C539.75 264.616 542.667 268.886 545.785 271.211L545.997 271.446L545.785 271.211C543.81 267.02 540.13 263.007 537.346 259.276C533.685 254.442 530.213 249.469 526.935 244.367C518.964 231.953 511.205 219.296 503.596 206.658C498.096 197.522 492.869 188.14 486.762 179.387C484.005 175.435 480.381 170.872 476.35 168.196L476.081 168.002ZM675.003 168.628L675.237 169.072C678.619 176.996 683.636 183.559 686.047 191.983C678.566 181.055 670.966 169.903 660.741 161.32C675.987 180.78 688.093 200.346 694.891 224.329C696.086 228.546 697.529 232.667 698.213 237.002C699.385 230.36 693.304 209.055 691.577 202.013L692.274 201.494L692.235 195.098C698.225 206.876 703.086 219.522 709.761 230.926L710.1 231.739L710.645 232.828L711.219 234.465L711.617 235.223L711.997 235.998L711.617 235.223L711.219 234.465L710.645 232.828L710.1 231.739L709.761 230.926C709.189 228.298 690.088 179.81 689.584 179.484C689.518 183.14 692.047 187.59 693.508 190.929C689.452 185.491 686.33 178.719 681.009 174.422L680.354 174.218L680.106 173.502L680.354 174.218L681.009 174.422L682.768 178.895C679.869 175.866 678.52 171.794 675.237 169.072L675.003 168.628ZM503.002 171.002L503.267 171.58C503.314 171.766 503.359 171.952 503.408 172.137C506.108 182.311 525.771 222.507 525.185 226.48L524.42 226.505C516.692 219.264 512.218 208.105 505.299 200.035L505 199.5L504.29 198.771L504.097 198.002L504.29 198.771L505 199.5L505.299 200.035C510.77 212.754 519.033 233.03 529.259 242.245L529.497 242.498L529.259 242.245C527.988 239.053 526.76 235.902 525.937 232.557C531.532 238.737 541.187 254.358 546.147 258.211L546.383 258.498L546.147 258.211C543.589 250.718 538.567 244.38 536.051 236.643C538.231 240.468 540.315 244.363 543.305 247.626C541.586 243.461 540.24 239.09 538.091 235.12C533.467 226.577 527.203 218.881 522.542 210.245C515.711 197.587 510.238 184.138 503.267 171.58L503.002 171.002ZM401.698 176.241L401.384 177.27L400.829 178.037C394.835 183.81 390.513 192.719 386.289 199.877C367.393 231.891 357.458 260.175 353.657 297.29C352.832 305.337 351.949 313.439 351.787 321.532C351.596 331.071 351.472 352.75 357.712 359.984L358.12 360.715L358.498 361.498L358.12 360.715L357.712 359.984C356.515 354.215 354.583 348.888 353.875 342.941C348.676 299.312 362.297 250.947 381.657 212.156C387.499 200.453 394.846 189.61 400.829 178.037L401.384 177.27L401.698 176.241L402.497 175.575L401.698 176.241ZM574.016 180.002L574.277 180.541C576.944 188.791 581.964 196.667 586.316 204.122C588.137 207.242 590.544 210.725 591.606 214.173C589.066 211.556 586.699 208.758 584.292 206.019L584.003 205.502L584.292 206.019C587.637 214.642 593.121 222.819 597.158 231.198C590.168 225.854 584.516 218.875 579.166 211.954L579.67 213.154C581.702 218.107 584.559 222.461 587.105 227.146C585.732 225.645 584.317 224.184 582.861 222.764L582.626 222.502L582.861 222.764C584.678 229.474 590.865 240.403 594.519 246.401C594.33 244.772 593.849 242.812 594.584 241.305C596.888 241.923 598.704 245.249 600.686 246.762L600.952 246.998L600.686 246.762C599.92 244.221 597.792 242.015 596.82 239.413C603.158 246.586 607.496 259.001 613.615 265.223L613.876 265.497L613.615 265.223C612.08 257.277 604.65 245.101 601.218 237.117C605.534 241.531 608.818 246.948 613.243 251.193L613.429 251.494L613.243 251.193C611.066 242.925 598.148 228.684 594.812 219.33C596.788 221.151 602.639 228.945 602.983 229.01L603.034 227.565C609.001 234.58 613.088 242.698 619.872 249.121C613.92 237.992 604.792 228.494 599.459 217.085C604.164 221.131 608.66 225.252 612.686 229.986C610.325 225.331 607.919 220.698 605.47 216.089C612.445 224.621 619.741 233.229 625.883 242.379C629.716 248.09 632.856 255.222 637.188 260.451L637.465 260.943L637.188 260.451C635.966 255.4 633.614 250.347 631.74 245.49C634.839 249.261 636.565 254.27 639.242 258.384L639.404 258.997L639.242 258.384C638.352 251.568 634.501 244.776 632.063 238.42L631.764 237.626C634.665 241.097 636.86 244.505 638.701 248.64L638.895 249.529L638.701 248.64C637.965 241.607 633.258 231.404 629.984 225.163C626.121 217.8 612.037 196.122 606.316 190.734L605.925 190.386L605.517 189.592L605.925 190.386L606.316 190.734C607.277 193.686 609.36 196.605 610.889 199.342C615.298 207.235 619.743 215.126 622.024 223.939C618.707 220.198 615.218 216.592 612.031 212.739C607.293 207.011 598.125 193.668 592.783 189.868L592.339 189.719L592.123 189.062L592.339 189.719L592.783 189.868C595.417 195.55 599.291 200.888 602.53 206.262C603.71 208.22 604.549 210.517 605.785 212.389L604.265 211.798L604.016 212.395C604.892 213.659 605.756 214.932 606.605 216.215C602.116 212.649 598.327 208.471 593.544 205.254C596.257 209.446 598.744 213.487 600.348 218.244C596.566 213.796 593.624 208.885 590.429 204.014C585.267 196.146 579.946 188.03 574.277 180.541L574.016 180.002ZM619.079 181.002L619.288 181.749L620.312 182.731L620.57 183.101L621.179 184.01C626.17 196.024 634.806 207.558 641.415 218.809C643.882 223.007 646.038 228.553 649.082 232.258L649.375 232.498L649.082 232.258C647.661 222.177 628.372 191.719 621.179 184.01L620.57 183.101L620.312 182.731L619.288 181.749L619.079 181.002ZM427.5 191L426.78 193.13L426.615 193.637C424.486 196.686 421.545 206.058 422.143 209.825C419.701 215.689 416.13 241.951 417.525 247.783C418.711 246.258 418.418 241.515 418.547 239.45C418.869 233.492 419.496 227.554 420.425 221.66C421.003 217.825 422.103 213.674 422.143 209.825C424.028 207.379 425.997 197.036 426.615 193.637L426.78 193.13L427.5 191L427.934 190.002L427.5 191ZM296.308 192.385C298.347 185.137 301.695 178.272 303.552 170.985C286.619 198.684 281.496 241.725 280.798 273.6C280.671 279.42 279.667 286.853 280.865 292.436C280.905 292.623 280.969 292.805 281.021 292.99L281.367 292.748C281.438 278.747 281.806 264.836 284.129 250.999C287.875 231.706 292.409 212.069 301.322 194.42C303.635 189.84 327.509 153.028 327.355 152.187C315.463 164.301 305.425 178.144 296.308 192.385ZM529.624 196.502L529.888 196.773C534.89 214.379 575.099 272.11 589.79 281.691L590.105 282.082L590.701 282.602L590.997 282.911L590.701 282.602L590.105 282.082L589.79 281.691C587.789 278.661 585.083 275.849 582.865 272.941C577.28 265.619 571.693 258.192 566.449 250.622C556.75 236.619 548.258 221.814 538.329 207.951C535.65 204.211 533.052 200.121 529.888 196.773L529.624 196.502ZM624.126 203.502L624.408 203.756C628.239 216.265 638.681 230.7 644.496 242.709C649.903 253.874 656.246 274.332 662.731 283.441L662.997 283.997L662.731 283.441C662 279.902 660.351 276.272 659.114 272.872C652.202 253.876 645.783 240.039 636.23 222.347C632.812 216.017 629.392 209.013 624.408 203.756L624.126 203.502ZM564.621 207.002L564.873 207.279C569.078 223.787 600.281 275.227 613.737 284.734L613.981 284.993L613.737 284.734C609.652 277.811 604.209 271.673 600.029 264.767C591.729 251.055 583.671 237.233 575.21 223.612C571.851 218.206 568.749 212.301 564.873 207.279L564.621 207.002ZM712.503 237.502L713.349 238.129L713.47 239.498L713.349 238.129L712.503 237.502ZM713.548 240.002L713.667 241.37L714.497 241.998L713.667 241.37L713.548 240.002ZM549.845 242.78C551.694 243.917 553.278 245.159 554.904 246.595C551.181 237.011 541.444 224.508 534.362 216.899C537.594 232.222 541.945 238.711 551.522 250.896C554.467 254.643 557.461 258.821 561.223 261.788L561.591 262.088L562.095 262.709L562.387 262.998L562.095 262.709L561.591 262.088L561.223 261.788C558.625 255.699 553.043 249.138 549.845 242.78ZM715.553 245.002L715.676 246.373L716.488 246.998L715.676 246.373L715.553 245.002ZM716.515 247.502L717 248.5L717.714 250.483L718.102 251.224L718.34 251.993C719.016 256.601 721.328 261.601 722.811 266.051C725.305 273.536 727.287 281.287 728.258 289.127C728.956 294.765 729.133 300.507 729.116 306.186C729.107 309.419 727.677 321.37 728.922 323.375C731.387 302.992 729.566 283.825 723.237 264.294C721.949 260.317 720.621 255.474 718.34 251.993L718.102 251.224L717.714 250.483L717 248.5L716.515 247.502ZM496.609 256.002L496.816 256.616C502.108 281.567 513.041 306.76 526.092 328.569C528.839 333.16 532.015 339.223 536.514 342.287L536.894 342.498L536.514 342.287C536.446 337.305 538.167 334.01 540.333 329.659C539.323 334.674 538.74 339.233 538.833 344.371C540.375 339.084 539.952 334.001 544.739 330.368C544.106 337.028 542.313 344.043 542.304 350.678C544.475 347.235 545.119 337.114 546.947 332.414C547.365 331.34 547.652 330.446 548.763 330.009C550.267 331.394 550.163 334.874 550.299 336.839C550.913 335.922 551.279 334.959 551.533 333.888C551.853 332.535 551.701 330.838 550.691 329.802C548.857 327.917 545.876 326.319 543.763 324.669C538.796 320.747 534.232 316.34 530.141 311.511C520.94 300.802 512.676 288.123 506.203 275.565C503.081 269.51 500.697 262.779 497.086 257.033C496.998 256.893 496.906 256.755 496.816 256.616L496.609 256.002ZM495.712 259.634L496 260.5L496.375 260.998L496 260.5L495.712 259.634ZM520.064 277.502L520.284 277.788C523.447 288.47 547.653 320.787 556.423 327.824C563.092 327.443 569.756 327.003 576.417 326.504L576.464 326.453C576.252 325.655 564.833 320.134 563.025 319.012C550.683 311.354 538.387 300.272 528.989 289.134C526.126 285.742 523.902 281.676 520.9 278.442L520.284 277.788L520.064 277.502ZM593.003 298.002L593.79 298.177L594.43 298.998L593.79 298.177L593.003 298.002ZM596.003 300.095L596.495 300.506L597.239 301.138L598.267 301.701L598.601 302.093L599.797 302.717L600.078 303.105L601.302 303.708L601.576 304.109L602.813 304.7L603.071 305.112L604.3 305.678L604.592 306.102L605.863 306.697C606.237 306.994 606.566 307.296 607 307.5C607.492 307.857 607.953 308.23 608.5 308.5L609.903 309.233C610.245 309.484 610.618 309.819 611 310L612.417 310.708L613.232 311.151L613.605 311.61L614.873 312.163L615.761 312.641L616.798 313.176L617.088 313.597L618.38 314.168L619.258 314.638L620.309 315.151L621.255 315.685L621.609 316.088L622.871 316.672L623.762 317.137L624.807 317.651L625.789 318.145L626.205 318.35C627.187 319.267 628.071 320.261 629.539 320.234C633.007 322.968 639.679 326.895 644.021 327.804C644.765 328.583 644.293 328.31 645.5 328.5L646.784 329.166L646.997 329.432L646.784 329.166L645.5 328.5C644.702 327.866 645.178 328.13 644.021 327.804C641.728 325.242 632.86 321.067 629.539 320.234C629.526 320.201 629.52 320.163 629.498 320.135C628.56 318.935 627.602 318.833 626.205 318.35L625.789 318.145L624.807 317.651L623.762 317.137L622.871 316.672L621.609 316.088L621.255 315.685L620.309 315.151L619.258 314.638L618.38 314.168L617.088 313.597L616.798 313.176L615.761 312.641L614.873 312.163L613.605 311.61L613.232 311.151L612.417 310.708L611 310L609.903 309.233L608.5 308.5C608.046 308.09 607.521 307.815 607 307.5L605.863 306.697L604.592 306.102L604.3 305.678L603.071 305.112L602.813 304.7L601.576 304.109L601.302 303.708L600.078 303.105L599.797 302.717L598.601 302.093L598.267 301.701L597.239 301.138L596.495 300.506L596.003 300.095ZM417.587 250.712C416.26 262.787 420.61 300.243 427.166 310.016L427.711 311.381L428.108 312.264L428.724 313.979L429.115 314.717L429.449 315.497L429.115 314.717L428.724 313.979L428.108 312.264L427.711 311.381L427.166 310.016C426.409 305.02 424.424 299.985 423.194 295.057C420.833 285.415 419.321 275.583 418.677 265.676C418.508 262.692 419.161 252.761 417.587 250.712ZM262.165 313.655L262.5 315C262.499 315.467 262.695 315.903 262.835 316.346L262.5 315C262.502 314.533 262.305 314.098 262.165 313.655ZM595.503 317.074L595.706 317.315C596.33 318.409 596.724 319.011 597.787 319.703L598.121 320.067L598.669 320.631L599.124 321.138L599.455 321.497L599.124 321.138L598.669 320.631L598.121 320.067L597.787 319.703C597.24 318.564 596.7 318.082 595.706 317.315L595.503 317.074ZM600.003 322.049L600.696 322.293L601.071 323.314L601.598 323.633L602.089 324.199L602.316 324.42C603.705 326.867 606.185 329.43 608.664 330.796L608.914 330.998L608.664 330.796C607.296 328.432 604.465 326.049 602.316 324.42L602.089 324.199L601.598 323.633L601.071 323.314L600.696 322.293L600.003 322.049ZM728.107 326.835C727.41 329.163 727.007 331.245 726.863 333.672C726.593 334.394 726.518 334.701 726.5 335.5L726.165 336.846C726.304 336.403 726.5 335.967 726.5 335.5C726.827 334.793 726.832 334.435 726.863 333.672C727.952 331.402 728.068 329.324 728.107 326.835C728.613 326.055 728.422 325.581 728.401 324.673C727.765 325.763 727.938 325.675 728.107 326.835ZM648.503 330.083L649.251 330.295L650.312 331.294L651.287 331.586L652.279 332.184L652.623 332.574L653.865 333.177L654.764 333.634L655.777 334.143L655.997 334.41L655.777 334.143L654.764 333.634L653.865 333.177L652.623 332.574L652.279 332.184L651.287 331.586L650.312 331.294L649.251 330.295L648.503 330.083ZM438.15 329.408C441.014 329.985 442.628 330.667 445.009 332.431L445.72 333.179L446.774 334.281L447.077 334.589C447.465 335.149 447.821 335.71 448.283 336.211L448.495 336.439L448.283 336.211C447.933 335.626 447.501 335.121 447.077 334.589L446.774 334.281L445.72 333.179L445.009 332.431L445.361 331.487C448.217 332.57 450.565 335.135 452.8 337.174L452.998 337.498L452.8 337.174C451.883 335.686 450.669 334.327 449.691 332.853C454.008 335.561 456.838 339.647 460.758 342.754L461.084 343.099C461.481 343.657 461.847 344.218 462.32 344.717L462.575 345.102L463.113 345.691L464.012 346.992L464.653 347.719L465.064 348.173L465.745 349.278L466.102 349.576L466.621 350.197L467.218 351.053L468.988 356.986C448.492 354.438 427.85 353.234 407.197 353.382C408.522 357.203 410.391 360.91 411.62 364.718C411.528 364.603 411.434 364.488 411.343 364.372C409.281 361.738 406.099 353.878 402.678 353.518C401.507 353.395 401.16 353.715 400.408 354.458C399.602 358.723 403.883 365.5 405.979 369.106C420.811 367.078 433.679 368.799 445.748 377.962C449.815 381.049 455.055 385.765 456.745 390.715C451.6 386.41 447.078 381.564 441.46 377.81C430.764 370.664 419.324 368.978 406.795 371.487C408.26 373.565 409.692 375.367 411.485 377.179C412.905 376.965 414.333 376.801 415.764 376.686C426.78 375.853 437.217 379.3 445.61 386.566C450.175 390.518 459.227 402.491 459.305 408.467C459.317 409.441 459.022 409.467 458.412 410.149C456.867 410.668 455.781 410.76 454.158 410.676C455.304 410.298 455.752 410.287 456.57 409.375C456.523 408.993 456.496 408.632 456.393 408.262C454.582 401.737 447.212 395.508 441.571 392.235C441.37 400.63 439.303 406.367 433.358 412.398C434.839 412.378 436.233 412.494 437.702 412.672C427.009 418.189 396.2 415.898 384.586 413.096C380.901 412.207 372.941 408.632 370.478 408.4C369.554 408.313 368.957 408.166 368.095 407.841C368.054 407.708 367.993 407.579 367.972 407.441C367.758 406.017 368.876 404.052 369.567 402.864C377.044 390.037 396.138 380.895 409.916 377.19C407.712 375.637 405.691 373.932 403.646 372.18C395.123 374.116 386.654 376.504 379.242 381.302C376.77 382.903 374.855 385.201 372.219 386.519L371.581 386.245C372.56 385.304 373.107 384.965 373.493 383.642L372.105 382.892C363.916 378.239 354.835 364.348 350.717 356.13C352.408 374.368 356.031 388.759 361.396 406.145C350.535 396.263 341.709 384.552 336.115 370.982C338.912 387.805 340.711 397.74 349.522 412.836C343.16 410.635 338.181 406.475 334.26 401.1C338.521 420.059 342.43 432.533 350.702 450.205C339.767 440.553 335.651 435.522 328.011 423.214C331.257 433.518 333.47 444.043 336.128 454.502C338.985 465.746 342.233 476.921 345.428 488.073C353.182 515.134 361.284 543.004 378.087 566.002C397.287 592.278 425.86 619.765 450.943 640.355C457.985 646.137 464.987 652.131 472.984 656.571C479.774 660.341 486.995 662.509 494.658 663.66C520.54 667.547 545.278 661.553 566.236 646.015C597.992 622.472 641.429 571.031 656.61 534.024C662.539 519.572 665.539 503.622 667.82 488.232C669.822 474.725 671.489 460.976 671.994 447.323C672.544 432.449 670.342 366.27 662.641 356.533C659.089 352.042 645.69 351.847 640.26 351.133C646.699 353.696 651.129 356.364 656.52 360.73C644.604 356.449 638.707 350.988 628.385 344.349L628.096 344.073L627.744 343.807C626.796 342.486 626.167 341.76 624.708 341.017L623.788 340.7L623.547 340.002L623.788 340.7L624.708 341.017C625.55 342.472 626.292 342.987 627.744 343.807L628.096 344.073L628.385 344.349C633.414 350.073 640.162 353.227 646.181 357.664C643.287 357.152 640.774 355.647 638.182 354.32L637.932 353.88L637.533 353.508L637.932 353.88L638.182 354.32C639.217 355.984 641.019 357.354 642.453 358.684C638.265 356.859 634.322 354.513 629.962 353.095C616.313 348.655 595.014 348.466 580.818 349.404C570.101 350.112 559.263 351.509 548.821 354.065C546.666 354.592 543.174 356.195 541.12 355.194L540.994 353.589L541.401 353.003L540.994 353.589L537.003 356.977C537.399 353.814 537.791 350.943 536.793 347.85L536.265 348.125C535.38 350.404 535.339 352.847 535.141 355.263C534.632 351.792 533.927 348.387 533.182 344.959C533.029 344.874 532.874 344.791 532.721 344.704L531.963 344.262C525.651 340.64 519.936 335.051 514.64 330.078C485.915 303.109 475.644 250.685 474.466 212.81C462.793 212.675 450.863 214.384 439.339 216.164C432.884 250.374 434.564 289.802 451.109 320.995C457.815 333.638 467.059 344.957 474.606 357.134C493.723 387.977 494.95 403.735 493.505 438.937C493.15 447.591 493.585 457.176 491.601 465.637C490.94 428.845 496.18 404.443 478.596 369.469C475.415 363.14 472.126 356.228 467.218 351.053L466.621 350.197L466.102 349.576L465.745 349.278L465.064 348.173L464.653 347.719L464.012 346.992C463.789 346.542 463.408 346.101 463.113 345.691L462.575 345.102L462.32 344.717C461.967 344.152 461.496 343.623 461.084 343.099L460.758 342.754C457.387 335.832 452.612 329.439 449.122 322.522C441.511 307.434 435.698 290.253 433.403 273.537C432.176 264.602 431.849 255.498 431.139 246.507C428.017 275.36 428.984 301.67 438.15 329.408ZM656.503 334.578L657.254 334.786L658.227 335.717L658.497 335.913L658.227 335.717L657.254 334.786L656.503 334.578ZM659.003 336.075L659.751 336.293L660.73 337.241L661.136 337.553L662.28 338.148L662.632 338.576L663.777 339.135L663.997 339.407L663.777 339.135L662.632 338.576L662.28 338.148L661.136 337.553L660.73 337.241L659.751 336.293L659.003 336.075ZM664.503 339.614L665 340L665.734 340.641L666.799 341.173L667.095 341.596L668.323 342.194L668.569 342.613L669.799 343.207L669.997 343.498L669.799 343.207L668.569 342.613L668.323 342.194L667.095 341.596L666.799 341.173L665.734 340.641L665 340L664.503 339.614ZM725.5 340C725.278 340.69 725.086 341.278 725 342C724.778 342.69 724.586 343.278 724.5 344L723.821 346.143C723.709 346.572 723.532 347.059 723.5 347.5L722.782 349.63L722.5 350.5L721.786 352.632L721.621 353.137L721.786 352.632L722.5 350.5L722.782 349.63L723.5 347.5C723.672 347.112 723.732 346.562 723.821 346.143L724.5 344C724.756 343.358 724.856 342.675 725 342C725.257 341.358 725.357 340.675 725.5 340L725.835 338.654C725.67 338.948 725.577 339.66 725.5 340ZM365.372 345.709L365.126 345.998L365.372 345.709C369.324 340.265 373.894 337.367 379.644 334.105C377.14 326.011 375.72 318.085 375.209 309.628C375.204 308.02 375.256 306.417 374.988 304.827L374.058 305.457C373.534 309.917 371.782 314.198 370.604 318.519C368.243 327.182 366.053 336.762 365.372 345.709ZM390.286 353.691C391.015 355.704 391.765 356.707 393.307 358.169L393.451 358.498L393.307 358.169C392.633 356.176 391.91 355.034 390.286 353.691ZM315.503 362.502L316.342 363.13L316.462 364.498L316.342 363.13L315.503 362.502ZM752.597 743.003L753.264 743.74L754.326 744.057L754.714 744.347C759.423 749.846 768.452 754.218 774.835 757.809C797.22 770.401 820.111 780.784 843.627 791.01C878.942 806.366 914.749 820.422 950.151 835.566C958.01 838.907 965.792 842.427 973.49 846.125C979.942 849.291 986.336 852.891 992.975 855.628C988.468 851.65 982.006 848.71 976.71 845.857C941.138 826.698 902.786 812.409 865.421 797.2C847.496 789.833 829.68 782.206 811.977 774.321C797.794 767.98 783.862 760.581 770.243 753.121C765.183 750.349 760.283 747.17 755.148 744.563L754.714 744.347L754.326 744.057L753.264 743.74L752.597 743.003ZM83.0761 833.262L82.26 833.599L81.2291 834.152L81.0025 834.409L81.2291 834.152L82.26 833.599L83.0761 833.262C86.8067 832.356 90.9441 829.798 94.4699 828.191C101.417 825.025 108.476 821.924 115.628 819.246C140.923 809.772 166.903 802.344 192.306 793.229C211.1 786.485 229.508 778.349 247.762 770.27C254.505 767.286 266.385 763.047 271.747 758.357C265.387 759.856 258.642 764.052 252.555 766.713C239.854 772.194 227.075 777.489 214.22 782.596C177.86 796.861 139.903 806.639 104.157 822.463C97.3207 825.489 89.0257 828.734 83.0761 833.262ZM990.676 875.246L990.151 875.713C986.356 879.936 983.832 885.916 981.506 891.061C968.939 918.859 963.726 947.77 956.87 977.274L951.56 1000.02C950.638 1003.95 949.383 1008.07 948.872 1012.07C951.905 1005.83 953.487 998.131 955.444 991.45C959.238 978.903 962.699 966.259 965.823 953.529C968.325 943.233 970.322 932.833 973.097 922.601C976.002 911.791 979.575 901.172 983.795 890.805C985.807 885.776 988.334 880.792 990.151 875.713L990.676 875.246L990.901 874.502L990.676 875.246ZM46.1663 856.715C40.9435 880.155 55.7822 976.289 62.039 1001.95L62.3735 1002.5L62.039 1001.95C62.0165 997.04 61.0203 992.022 60.4139 987.15L57.3512 961.349C54.2418 934.632 51.4077 907.884 48.8492 881.108C48.4451 876.921 47.6517 858.96 46.1663 856.715ZM571.635 63.25L572.245 63.25L571.635 63.25ZM572.633 63.75L573.245 63.75L572.633 63.75ZM575.132 64.75L575.745 64.75L575.132 64.75ZM507.635 68.25L508.245 68.25L507.635 68.25ZM543.636 71.9921L541.922 72.4135L541.933 72.8345C544.517 73.037 547.037 73.0394 549.625 72.9878L550.784 72.7934C549.08 71.8605 545.606 71.9271 543.636 71.9921ZM536.118 72.9002L536.342 73.157L536.465 73.0895L536.74 72.7695L536.118 72.9002ZM552.972 72.6567C555.178 73.269 556.882 73.5308 559.168 73.3645L559.529 73.3407C557.15 72.6981 555.406 72.4887 552.972 72.6567ZM560.631 73.25L561.245 73.25L560.631 73.25ZM562.145 73.7845C562.976 73.9547 563.037 74.0911 563.854 73.7416C562.966 73.5038 563.008 73.3252 562.145 73.7845ZM565.131 74.25L565.745 74.25L565.131 74.25ZM406.632 74.75L407.245 74.75L406.632 74.75ZM401.631 75.75L402.245 75.75L401.631 75.75ZM490.485 110.554C487.435 111.928 483.767 114.526 482.684 117.906C482.334 118.998 482.316 119.794 482.78 120.833C482.842 120.698 482.903 120.563 482.967 120.43C484.129 118.021 485.904 116.036 488.5 115.187C491.917 114.069 495.582 114.962 498.639 116.676C510.122 123.117 530.417 152.411 537.013 164.722C538.706 168.137 540.302 171.669 542.216 174.962C537.035 157.049 518.094 121.248 501.712 112.53C497.79 110.442 494.775 110.273 490.485 110.554ZM454.381 118.151C426.3 121.841 396.671 148.945 379.837 170.941C362.501 193.592 353.616 218.046 348.922 245.981C346.796 258.634 345.574 272.016 346.449 284.835L346.742 284.991C346.948 283.204 347.131 281.414 347.292 279.623C351.464 227.704 374.965 173.736 415.155 139.717C424.904 131.464 436.709 124.241 448.956 120.429C452.271 119.397 455.739 119.055 459.001 118.072C457.428 117.909 455.955 118.021 454.381 118.151ZM502.739 170.25L503.187 170.25L502.739 170.25ZM478.041 182.846C478.734 189.909 479.51 196.933 480.797 203.917C482.138 211.193 492.169 255.077 495.431 258.438C495.564 258.575 495.733 258.672 495.883 258.789C490.618 239.823 484.919 220.941 481.104 201.607C480.42 198.142 479.792 184.616 478.041 182.846ZM499.209 189.75L499.578 189.75L499.209 189.75ZM500.704 192.25L501.082 192.25L500.704 192.25ZM502.191 194.75L502.572 194.75L502.191 194.75ZM502.77 195.75L503.245 195.75L502.77 195.75ZM503.659 197.25L504.045 197.25L503.659 197.25ZM712.18 236.75L712.586 236.75L712.18 236.75ZM409.736 237.872C408.059 245.183 407.652 253.158 406.701 260.616C403.735 283.869 401.137 306.437 402.537 329.941L422.398 329.579L427.956 329.621C415.041 308.151 407.88 286.853 408.442 261.521C408.613 253.807 410.286 245.498 409.736 237.872ZM714.682 242.75L715.084 242.75L714.682 242.75ZM529.729 243.25L530.245 243.25L529.729 243.25ZM715.16 243.954L715.745 244.25L715.16 243.954ZM300.767 245.75L301.245 245.75L300.767 245.75ZM663.226 284.75L663.556 284.75L663.226 284.75ZM593.246 314.75L593.745 314.75L593.246 314.75ZM429.693 316.456L430.245 316.75L429.693 316.456ZM263.171 318.184L263.498 318.507L263.171 318.184ZM430.238 317.75L430.617 317.75L430.238 317.75ZM430.651 318.75L431.024 318.75L430.651 318.75ZM263.672 320.184L263.998 320.507L263.672 320.184ZM431.664 321.25L432.032 321.25L431.664 321.25ZM264.622 323.46L265.126 323.75L264.622 323.46ZM647.637 329.75L648.245 329.75L647.637 329.75ZM431.95 333.75L432.516 333.75L431.95 333.75ZM538.359 345.98L538.582 346.131L538.359 345.98ZM721.245 354.486L721.531 354.75L721.245 354.486ZM387.387 354.672C380.056 355.9 372.377 357.387 365.544 360.409C367.715 368.21 369.714 376.668 374.803 383.148L378.435 380.404C385.947 375.366 393.272 372.577 401.813 369.828C399.599 366.887 391.226 355.697 388.004 354.742C387.789 354.678 387.598 354.678 387.387 354.672ZM720.743 355.986L721.017 356.25L720.743 355.986ZM717.337 364.141C709.344 365.373 703.187 372.165 698.585 378.396C684.99 396.8 688.078 410.36 690.097 431.543C687.494 425.152 684.923 419.368 683.884 412.496C677.433 429.974 677.049 439.978 675.851 457.983C677.8 457.428 679.794 456.936 681.672 456.172C682.619 454.112 683.5 452.106 683.98 449.877C684.934 445.45 684.553 438.55 687.164 434.858C688.897 438.134 687.616 445.966 687.423 449.713C690.921 446.353 698.299 442.754 698.422 437.542C698.495 434.409 696.841 431.281 695.547 428.504C687.976 412.251 686.329 403.77 699.787 389.869C703.672 385.856 709.575 380.542 715.424 380.296C717.363 380.973 718.298 382.013 719.158 383.819C725.544 397.235 722.042 421.03 716.89 434.526C712.344 446.438 705.609 453.373 695.897 461.168C692.093 464.221 688.357 467.232 683.863 469.213C680.282 470.792 676.617 471.517 672.771 472.11C683.597 467.154 691.721 459.416 701.109 452.234C712.589 440.606 720.055 424.987 719.965 408.419C719.922 400.642 717.727 392.158 713.753 385.457C710.352 387.463 707.177 389.679 703.983 391.998C709.084 401.271 711.012 409.449 710.33 420.078C708.008 411.698 706.189 402.408 701.681 394.869C697.441 399.677 694.484 404.881 694.92 411.517C695.536 420.894 707.414 435.573 700.461 443.324C697.993 446.074 694.334 447.442 691.564 449.823C688.905 452.108 686.975 455.69 683.98 457.507C682.482 458.416 681 458.695 679.261 458.703C678.082 458.708 676.909 458.547 675.744 458.381C674.318 470.147 671.369 484.878 671.221 496.317C679.64 496.937 685.301 495.898 691.863 490.218C697.286 485.523 701.391 479.505 705.712 473.834C721.12 453.614 730.982 438.237 732.655 411.764C733.414 399.75 732.341 376.934 723.792 367.466C721.822 365.285 720.276 364.364 717.337 364.141ZM316.714 365.25L317.09 365.25L316.714 365.25ZM296.732 382.224C293.99 389.406 290.762 396.602 288.482 403.935C282.842 422.071 283.539 440.543 291.198 457.983C295.86 468.6 320.344 501.038 329.033 508.78C330.838 510.388 332.762 511.538 335.013 512.428C339.21 514.087 343.562 514.279 348.008 514.459C345.255 502.436 341.892 490.355 338.191 478.585C330.16 478.018 326.287 473.284 321.088 467.763C314.879 460.332 311.304 452.885 312.224 442.95C312.914 435.49 315.822 430.188 319.509 423.782C316.516 419.317 314.309 414.221 311.089 409.953C308.672 414.859 307.057 419.643 306.33 425.088C305.989 427.65 306.175 431.2 305.21 433.515C303.994 432.62 303.637 430.637 303.425 429.167C302.434 422.301 304.766 413.813 308.558 408.08C305.638 406.369 302.866 405.684 299.546 405.204C296.633 415.667 293.106 430.527 295.348 441.226C289.301 430.369 291.524 417.427 294.841 405.945C295.859 402.422 297.129 396.642 300.327 394.482C301.422 393.743 302.913 393.492 304.183 393.193C304.433 390.565 300.313 386.031 298.66 384.055C298.036 383.309 297.54 382.768 296.732 382.224ZM429.1 387.822C428.18 388.564 427.265 389.64 426.091 389.792C424.242 390.032 422.698 390.338 420.988 391.081L421.112 391.342C422.91 391.765 424.543 392.01 426.391 392.049L427.211 391.644C428.887 392.393 429.738 393.074 431.578 392.781C432.525 391.78 432.865 391.815 432.944 390.38C432.066 389.284 431.07 388.002 429.573 387.826C429.417 387.807 429.258 387.823 429.1 387.822ZM398.577 389.411C389.726 394.344 380.324 400.784 372.983 407.811C379.701 410.35 386.518 411.577 393.548 412.889C401.731 414.327 410.091 415.213 418.412 414.845C412.91 414.176 409.24 413.273 405.564 408.714C401.526 403.706 399.193 396.053 399.136 389.692L398.577 389.411ZM418.68 392.266C417.751 393.811 417.289 394.656 417.619 396.561C417.877 398.049 418.658 398.732 419.703 399.695C420.704 399.986 421.453 400.131 422.497 400.096C423.594 398.582 424.637 396.978 424.322 395.014C424.211 394.32 423.697 393.657 423.157 393.227C422.057 392.353 420.034 392.37 418.68 392.266ZM426.388 392.962L426.73 393.126L426.388 392.962ZM304.409 394.346C302.904 397.184 301.284 399.988 300.263 403.044C306.312 403.375 310.799 403.631 315.009 408.573C318.899 413.138 321.305 418.598 325.458 423.107L326.592 423.763C328.176 420.184 324.446 412.47 323.131 408.95C315.833 406.322 309.164 400.457 304.409 394.346ZM407.512 396.755C407.385 398.112 407.062 398.972 407.716 400.207C409.289 400.506 410.874 399.972 412.473 399.942C412.685 398.618 412.807 398.342 412.276 397.135C410.704 396.492 409.17 396.684 407.512 396.755ZM410.149 401.368L410.623 402.037L411.488 401.594L410.897 400.941L410.149 401.368ZM407.983 402.821C407.084 404.093 406.781 404.187 406.921 405.712C407.88 406.355 408.432 406.406 409.575 406.442C410.471 405.362 411.2 404.836 411.403 403.411C410.243 402.665 409.331 402.86 407.983 402.821ZM320.504 424.788C315.73 432.354 314.404 443.891 316.368 452.613C318.127 460.428 323.214 469.998 330.232 474.254C331.288 474.895 332.364 475.351 333.518 475.777C334.78 476.228 336.282 477.058 337.609 476.611C335.511 467.638 333.208 458.707 331.179 449.719C329.856 443.863 329.306 435.983 326.713 430.613C325.628 428.363 322.857 426.277 320.813 424.961C320.714 424.897 320.607 424.845 320.504 424.788ZM639.249 577.848C620.27 604.016 585.371 645.666 558.599 662.821C547.896 669.679 536.352 674.431 523.768 676.386C504.585 679.367 485.935 676.707 470.112 665.062C449.744 650.072 428.877 630.359 411.055 612.292C407.013 608.195 403.395 603.662 399.332 599.614C402.06 618.955 405.387 638.071 407.083 657.555C407.655 664.926 408.072 672.309 408.334 679.697C408.419 682.974 407.834 686.876 408.554 690.026C409.855 695.712 413.93 701.969 416.898 706.925C434.515 736.342 461.36 766.725 488.836 787.353C499.139 795.088 509.686 801.103 517.825 811.321C520.567 808.627 523.918 806.138 527.956 806.297C531.666 806.443 534.349 808.415 536.704 811.111C542.604 817.865 547.169 826.609 551.503 834.423C565.654 859.938 578.953 887.282 587.773 915.143C596.199 899.849 604.046 884.242 611.296 868.357C625.262 837.726 637.72 806.431 648.626 774.582C656.838 751.009 664.925 727.113 669.764 702.592C665.876 693.087 661.704 683.563 658.858 673.681C654.207 657.531 655.333 637.166 639.74 627.046C639.228 632.425 638.44 637.919 638.416 643.321C642.11 646.722 643.802 649.822 644.027 654.954C644.929 675.544 618.436 715.958 605.888 732.569C599.147 741.404 591.916 749.854 584.228 757.879C562.497 780.567 541.785 795.677 514.11 810.267L514.633 809.684C521.055 802.616 530.379 797.044 538.041 791.282C544.6 786.348 550.818 780.906 556.915 775.417C580.998 753.512 602.309 728.74 620.369 701.654C623.625 696.693 627.673 691.211 629.358 685.497C631.133 679.475 630.853 672.138 631.304 665.874C632.188 653.622 633.032 641.318 634.116 629.085C635.147 618.429 636.282 607.783 637.519 597.148C638.214 591.383 639.466 585.28 639.509 579.483C639.513 578.903 639.384 578.406 639.249 577.848ZM397.167 636.369C388.654 648.928 386.018 661.909 382.222 676.291C379.883 685.156 375.939 693.68 373.841 702.528C369.267 721.814 373.232 751.778 376.906 770.983C383.418 805.016 405.892 867.235 423.429 896.57C426.595 901.866 430.49 906.695 434.381 911.467C439.919 895.744 447.931 880.386 455.394 865.485C460.365 855.966 485.981 808.565 495.19 806.146C500.205 804.828 509.241 810.773 513.692 813.108C505.236 800.705 490.487 794.524 478.824 785.461C442.446 757.194 402.142 708.8 392.333 662.988C394.068 658.776 396.397 654.996 398.94 651.227C398.86 648.083 399.205 638.644 397.167 636.369ZM739.616 733.269C742.902 744.872 748.843 756.22 753.176 767.525C758.762 782.094 763.938 796.818 769.836 811.267C779.622 835.241 793.5 864.263 806.536 886.702C785.985 898.093 761.759 905.164 739.005 910.614L745.842 911.308C762.149 910.223 800.119 900.353 811.154 887.829C806.688 877.409 801.335 867.412 796.37 857.229C785.004 833.919 773.472 810.674 763.359 786.781C758.7 775.773 746.579 739.72 739.616 733.269ZM525.085 811.483C520.291 814.696 517.754 817.833 516.218 823.451L531.121 824.076C533.864 824.409 536.651 824.656 539.364 825.177C536.994 820.956 533.186 813.026 528.144 811.603C527.172 811.329 526.077 811.436 525.085 811.483ZM494.9 811.886C491.484 816.566 488.116 821.226 485.023 826.13C490.956 825.608 496.934 824.913 502.879 824.602C505.908 824.335 511.196 824.62 513.831 823.367C514.448 822.335 514.429 822.372 514.191 821.192C510.372 816.278 500.635 813.971 494.9 811.886ZM500.643 830.097C487.937 832.861 475.569 842.959 468.646 853.81C467.617 855.423 464.271 860.283 464.391 861.925L464.868 861.924C476.046 849.959 487.92 840.382 501.088 830.703L501.024 830.167L500.643 830.097ZM80.1356 834.75L80.745 834.75L80.1356 834.75ZM79.136 835.25L79.745 835.25L79.136 835.25ZM78.1355 835.75L78.745 835.75L78.1355 835.75ZM551.851 848.002C524 862.579 489.641 880.58 472.2 907.762C472.859 911.63 473.716 920.142 476.256 923.116C490.373 901.894 511.91 883.651 533.223 869.81C540.621 865.005 548.7 860.95 555.899 855.907C554.828 853.29 553.828 850.074 551.851 848.002ZM993.134 855.75L993.745 855.75L993.134 855.75ZM549.918 901.922C543.972 905.302 511.436 924.128 509.856 928.295L510.471 928.522C525.714 928.2 531.718 927.622 544.686 918.949C545.721 916.09 550.795 904.149 550.437 902.095L549.918 901.922ZM521.628 935.811C526.374 945.113 533.584 953.601 539.359 962.312C543.161 968.046 545.993 974.194 549.514 980.055C546.721 966.989 543.253 955.505 534.694 945.015C532.395 942.197 529.867 939.32 526.805 937.304C525.179 936.233 523.529 935.952 521.628 935.811ZM948.763 1012.48L949.063 1012.75L948.763 1012.48Z"/><path d="M694.258 171.449L694.661 172.166L694.258 171.449Z"/><path d="M694.661 172.166L695.078 172.652L694.661 172.166Z"/><path d="M695.078 172.652L695.642 173.687L695.078 172.652Z"/><path d="M695.642 173.687L695.875 173.998L695.642 173.687Z"/><path d="M682.768 178.895L683.159 179.69L682.768 178.895Z"/><path d="M683.159 179.69L683.571 180.177L683.159 179.69Z"/><path d="M683.571 180.177L684.169 181.343L683.571 180.177Z"/><path d="M684.169 181.343L684.415 181.998L684.169 181.343Z"/><path d="M296.085 192.931L296.308 192.385L296.085 192.931Z"/><path d="M321.366 193.904L321.811 192.531L321.366 193.904Z"/><path d="M321.155 194.539L321.366 193.904L321.155 194.539Z"/><path d="M284.681 196.637L284.913 196.057L284.681 196.637Z"/><path d="M690.759 201.286L690.593 200.508L690.759 201.286Z"/><path d="M690.759 201.286L691.577 202.013L690.759 201.286Z"/><path d="M329.125 210.498L329.415 210.227L329.125 210.498Z"/><path d="M605.785 212.389L605.903 212.975L605.785 212.389Z"/><path d="M591.606 214.173L591.884 214.498L591.606 214.173Z"/><path d="M594.812 219.33L594.61 219.004L594.812 219.33Z"/><path d="M623.24 229.919C620.109 227.031 617.931 223.954 616.855 219.783C619.549 223.013 622.088 225.776 623.24 229.919Z"/><path d="M602.302 226.788L602.003 226.002L602.302 226.788Z"/><path d="M587.105 227.146L587.385 227.498L587.105 227.146Z"/><path d="M602.302 226.788L603.034 227.565L602.302 226.788Z"/><path d="M626.817 238.019C624.253 235.39 621.825 232.011 620.154 228.746C623.413 231.469 625.305 233.971 626.817 238.019Z"/><path d="M623.24 229.919L623.463 230.402L623.24 229.919Z"/><path d="M597.158 231.198L597.564 231.672L597.158 231.198Z"/><path d="M597.564 231.672L597.871 231.998L597.564 231.672Z"/><path d="M626.021 232.497L625.503 231.502L626.021 232.497Z"/><path d="M626.021 232.497L626.375 232.998L626.021 232.497Z"/><path d="M626.951 234.056L626.593 233.511L626.951 234.056Z"/><path d="M626.951 234.056L627.729 235.394L626.951 234.056Z"/><path d="M627.729 235.394L628.113 236.253L627.729 235.394Z"/><path d="M628.113 236.253L628.354 236.671L628.113 236.253Z"/><path d="M631.5 237L631.078 236.002L631.5 237Z"/><path d="M628.354 236.671C629.897 238.38 630.928 240.317 631.644 242.51C629.976 240.845 629.025 238.926 628.354 236.671Z"/><path d="M631.5 237L631.764 237.626L631.5 237Z"/><path d="M626.817 238.019L627.475 239.002L626.817 238.019Z"/><path d="M596.82 239.413L596.623 239.041L596.82 239.413Z"/><path d="M627.475 239.002L628.183 240.179L627.475 239.002Z"/><path d="M628.183 240.179L628.366 240.438L628.183 240.179Z"/><path d="M549.845 242.78L549.609 242.56L549.845 242.78Z"/><path d="M449.691 332.853L449.536 332.555L449.691 332.853Z"/><path d="M646.181 357.664L646.497 357.874L646.181 357.664Z"/><path d="M547.234 389.454C550.919 379.729 559.978 371.869 569.288 367.714C582.036 362.026 599.287 362.57 612.149 367.609C618.009 369.884 623.458 373.099 628.283 377.128L628.8 377.89C624.95 376.883 619.606 373.22 615.506 371.574C599.726 365.236 580.025 363.767 564.863 372.652C556.69 377.441 553.599 383.135 547.234 389.454Z"/><path d="M411.62 364.718L411.891 364.998L411.62 364.718Z"/><path d="M597.285 408.946C604.408 408.693 611.443 407.611 618.455 406.389C602.018 412.121 576.373 415.25 559.69 410.039C565.495 409.932 571.211 411.08 577.056 410.907C576.601 410.516 576.159 410.123 575.723 409.711C569.227 403.587 566.342 396.375 566.111 387.532C556.328 392.718 554.213 399.484 546.651 406.285C549.211 399.216 552.966 392.115 557.997 386.479C566.352 377.119 577.168 375.387 589.126 374.665C603.054 374.616 614.024 379.224 625.926 386.027C629.912 388.305 633.984 391.041 638.562 391.94C643.543 392.918 649.147 391.722 654.222 391.563C645.239 394.43 637.24 395.172 627.886 394.192C628.162 394.76 628.429 395.315 628.647 395.908C629.418 398.004 630.222 400.225 629.214 402.318C627.401 402.446 625.437 398.981 624.492 397.643C619.272 390.254 613.398 387.222 604.717 385.555C605.535 389.004 606.569 392.589 606.192 396.158C605.571 402.038 601.554 405.448 597.285 408.946ZM589.541 382.707C588.358 383.98 587.919 384.266 587.575 386.013C588.2 387.231 588.282 387.306 589.49 387.952L590.747 387.911C590.787 387.343 590.832 386.775 590.884 386.207C591.948 386.991 591.757 388.422 592.903 388.516L593.085 386.535C594.071 386.595 594.863 387.02 595.765 387.399C596.069 388.976 596.317 390.601 596.787 392.138C598.125 392.97 598.703 393.003 600.213 392.963C601.218 392.377 601.781 392.206 601.987 390.935C602.174 389.774 601.641 388.531 600.848 387.705C598.787 385.559 593.964 384.648 591.058 384.319L589.541 382.707ZM586.759 390.548C586.538 392.522 586.23 394.244 586.869 396.168C587.756 397.072 588.111 397.502 589.483 397.537C589.934 397.549 590.652 397.387 591.11 397.296C591.489 395.393 592.153 393.407 591.459 391.525C589.843 390.279 588.777 390.397 586.759 390.548ZM597.438 394.977L597.893 395.131L597.438 394.977ZM575.278 398.826C575.127 401.238 575.094 402.363 576.811 404.237C579.164 406.803 582.749 408.216 586.25 408.082C586.742 408.063 586.912 407.965 587.321 407.802C588.086 406.449 588.653 405.808 588.644 404.234C585.627 403.419 583.059 403.426 580.565 401.359C578.863 399.948 577.623 398.686 575.278 398.826ZM595.02 401.201C593.431 402.483 592.967 402.788 592.17 404.738L592.384 405.542C593.549 406.019 593.592 405.953 594.812 405.595C596.243 404.815 597.407 404.261 598.354 402.872L598.254 401.895C597.078 401.152 596.364 401.207 595.02 401.201Z"/><path d="M371.065 384.092L370.856 383.378L372.105 382.892L371.764 384.511L371.065 384.092Z"/><path d="M546.903 390.227L547.234 389.454L546.903 390.227Z"/><path d="M546.622 390.498L546.903 390.227L546.622 390.498Z"/><path d="M456.745 390.715L456.955 390.982L456.745 390.715Z"/><path d="M624.834 404.896L625.413 404.018L624.834 404.896Z"/><path d="M623.503 404.994L624.834 404.896L623.503 404.994Z"/><path d="M621.5 405.5L622.366 405.212L621.5 405.5Z"/><path d="M619.355 406.172L621.5 405.5L619.355 406.172Z"/><path d="M618.455 406.389L619.355 406.172L618.455 406.389Z"/><path d="M386.411 409.907C382.875 410.264 376.627 408.961 373.641 407.043C377.737 407.238 382.708 408.139 386.411 409.907Z"/><path d="M620.685 431.984C616.26 432.266 604.515 434.682 601.381 433.743C607.785 432.312 613.854 431.347 620.379 430.669C626.448 430.204 634.403 430.256 640.255 432.029L640.499 432.51C638.54 433.052 635.582 432.087 633.499 431.925C629.309 431.601 624.895 431.921 620.685 431.984Z"/><path d="M375.997 445.163C383.74 439.124 397.346 438.492 406.708 439.676C407.246 439.744 407.382 439.786 407.849 439.896C405.388 441.558 396.836 440.318 393.408 440.717C387.295 441.428 381.889 443.76 375.997 445.163Z"/><path d="M635.625 442.516C633.037 442.467 614.911 443.018 613.896 442.309L616.029 441.576C620.39 441.359 624.831 441.27 629.196 441.353C630.835 441.384 636.762 441.324 637.821 442.416L635.625 442.516Z"/><path d="M296.635 443.25L296.117 442.956L296.635 443.25Z"/><path d="M610.118 443.389C608.666 443.644 607.51 443.773 606.041 443.672C607.053 442.859 608.609 442.879 609.888 442.668C611.114 442.427 611.86 442.272 613.104 442.571C612.346 443.385 611.203 443.25 610.118 443.389Z"/><path d="M604.749 443.749L604.129 443.748L604.749 443.749Z"/><path d="M336.619 495.615C332.891 493.205 329.568 488.493 326.444 485.265C314.468 472.89 301.937 461.862 296.912 444.831C300.531 448.746 303.111 454.114 306.641 458.271C316.895 470.35 330.775 480.418 336.619 495.615Z"/><path d="M375.293 445.641L375.997 445.163L375.293 445.641Z"/><path d="M374.238 446.119L375.293 445.641L374.238 446.119Z"/><path d="M374.002 446.384L374.238 446.119L374.002 446.384Z"/><path d="M381.524 454.203C387.56 450 398.509 448.467 405.672 449.248C403.873 450.552 400.061 450.268 397.853 450.545C392.182 451.258 387.041 453.075 381.524 454.203Z"/><path d="M634.778 453.52C632.37 453.663 616.661 454.002 615.644 453.127C622.053 452.413 628.465 451.841 634.778 453.52Z"/><path d="M634.778 453.52L634.997 453.874L634.778 453.52Z"/><path d="M381.002 454.481L381.524 454.203L381.002 454.481Z"/><path d="M384.625 460.909C382.462 461.514 380.446 462.121 378.185 462.217C383.309 459.324 390.589 458.266 396.387 457.696C398.996 457.353 401.56 457.465 404.182 457.537C397.631 458.929 391.223 459.248 384.625 460.909Z"/><path d="M334.538 470.73C333.004 470.173 331.682 469.67 330.72 468.281C329.16 466.03 329.557 463.341 330.005 460.812C332.334 462.573 333.871 467.938 334.538 470.73Z"/><path d="M495.342 476.315C499.435 473.776 502.543 471.748 507.445 471.119C511.943 471.169 515.09 473.586 518.538 476.134C514.733 475.895 510.907 475.259 507.124 474.766C503.192 475.191 499.29 475.906 495.342 476.315Z"/><path d="M541.635 501.545L541.212 501.107C542.995 498.644 549.339 496.859 552.218 494.912C554.614 493.292 555.398 490.686 555.869 487.981C556.004 488.261 556.154 488.533 556.272 488.819C556.962 490.491 556.747 492.314 555.932 493.889C553.621 498.361 546.142 500.316 541.635 501.545Z"/><path d="M482.424 504.38C479.346 503.538 476.049 502.619 473.213 501.145C471.23 500.114 469.135 498.588 468.585 496.294C468.074 494.162 468.993 492.603 470.058 490.854C470.071 490.909 470.093 490.962 470.096 491.018C470.112 491.356 470.103 491.695 470.113 492.034C470.31 498.256 478.447 499.43 481.978 502.889C482.612 503.511 482.426 503.553 482.424 504.38Z"/><path d="M515.226 502.264C519.704 497.968 525.652 493.745 531.845 492.57C533.676 492.793 534.774 492.905 536.098 494.332C536.473 495.534 536.564 495.54 536.053 496.674C531.902 499.633 524.488 499.576 519.484 500.795L515.226 502.264Z"/><path d="M506.336 502.368C501.587 501.222 493.469 501.043 489.586 499.444C488.253 498.895 487.972 498.341 487.377 497.08C487.486 495.576 487.973 494.785 488.756 493.558C496.275 492.76 501.224 497.771 506.791 502.044L506.336 502.368Z"/><path d="M513.67 524.412C506.546 523.59 499.693 521.196 493.607 517.402C499.623 518.429 505.269 521.644 511.27 523.078C515.861 521.7 520.126 519.197 524.786 518.116L525.176 518.544C521.372 520.575 517.57 522.568 513.67 524.412Z"/><path d="M451.739 554.837C447.284 551.357 432.715 540.831 432.197 535.528C432.044 533.968 432.373 533.656 433.226 532.432C435.865 531.271 442.127 534.516 444.851 535.448C465.655 542.565 530.364 539.573 553.421 535.877C564.483 534.103 576.212 531.418 586.267 526.452C587.062 526.414 588.248 526.347 589.009 526.653C590.356 527.194 590.581 527.701 591.245 528.893C591.293 531.149 590.203 532.7 588.923 534.469C585.874 538.683 581.812 542.613 578.117 546.274C563.606 560.653 547.598 571.861 526.967 574.945C498.589 579.187 474.369 571.68 451.739 554.837ZM567.838 537.61C542.155 542.974 516.296 544.475 490.114 544.57C479.823 544.608 469.442 544.765 459.228 543.305C460.092 549.011 461.639 553.679 466.448 557.299C468.092 558.537 469.911 559.529 471.707 560.525C493.688 570.337 518.253 573.671 541.197 564.833C549.176 561.759 564.984 553.776 568.548 545.884C569.642 543.46 569.998 540.605 570.333 537.983L569.812 537.422L567.838 537.61Z"/><path d="M532.75 532.745C528.091 532.642 523.466 533.201 518.811 533.086C519.636 532.29 521.25 532.34 522.387 532.164C526.998 531.574 531.989 531.825 536.603 532.331L536.321 532.667L532.75 532.745Z"/><path d="M495.621 534.419C492.172 534.598 488.531 534.875 485.117 534.323C488.48 533.563 491.952 533.443 495.382 533.197C498.882 532.753 502.426 532.788 505.917 533.3C503.936 534.523 498.071 534.276 495.621 534.419Z"/><path d="M540.433 581.855L540.997 581.614L540.433 581.855Z"/><path d="M491.76 583.57L491.753 583.217C492.681 582.574 500.505 584.592 502.289 584.837C518.699 587.091 524.911 584.203 539.996 581.918L540.433 581.855C540.032 582.112 539.616 582.347 539.192 582.565C526.481 589.083 504.976 587.698 491.76 583.57Z"/><path d="M478.672 589.017C489.692 595.501 502.574 599.797 515.493 598.994C526.401 598.315 540.105 593.488 547.469 585.078C547.675 585.336 547.676 585.276 547.689 585.727C547.74 587.391 546.444 589.271 545.444 590.51C538.922 598.592 527.32 603.386 517.171 604.297C503.757 605.501 492.45 602.063 482.088 593.523C480.776 592.174 479.75 590.554 478.672 589.017Z"/><path d="M590.205 652.579L590.439 652.003L590.205 652.579Z"/><path d="M547.286 739.47C548.719 735.628 550.842 731.822 552.563 728.077C557.624 717.06 562.923 706.289 568.444 695.5C575.748 681.224 582.727 666.762 590.205 652.579C588.942 658.273 585.722 664.171 583.383 669.509C575.334 687.882 567.321 704.568 557.607 722.155C554.453 727.867 551.383 734.397 547.286 739.47Z"/><path d="M546.881 740.221L547.286 739.47L546.881 740.221Z"/><path d="M546.364 741.21L546.881 740.221L546.364 741.21Z"/><path d="M546.104 741.497L546.364 741.21L546.104 741.497Z"/></svg>