<?xml version="1.0" encoding="utf-8" ?><svg xmlns="http://www.w3.org/2000/svg" xmlns:xlink="http://www.w3.org/1999/xlink" width="1024" height="1024" viewBox="0 0 1024 1024"><path fill="white" d="M0 0L0 1024L1024 1024L1024 0L0 0Z"/><path d="M373.289 37.2104C383.359 26.0656 411.127 16.0537 426.157 15.258C438.279 14.6164 450.825 17.0065 460.041 25.4099C465.335 30.2375 469.386 37.2385 469.766 44.4973C469.84 45.903 469.793 47.329 469.763 48.7359C478.457 37.0352 493.14 32.2287 507.064 30.2304C523.485 27.8737 541.232 29.8908 556.928 35.1287C598.265 48.9239 645.233 89.7209 690.656 77.6368C701.673 74.706 710.75 68.9867 717.627 59.8088C719.188 57.7262 720.611 55.5171 722.032 53.337C716.377 72.5485 703.743 90.2839 685.975 100.076C682.779 101.837 679.506 103.171 676.051 104.329C681.825 107.365 687.46 110.446 692.684 114.391C705.347 123.955 717.279 138.691 724.357 152.797C728.604 161.259 731.723 170.139 734.93 179.027C729.923 173.62 723.192 170.958 717.557 166.414C710.741 160.918 704.623 154.561 697.811 149.038C676.453 131.72 651.754 115.861 626.546 104.851L626.498 105.084C632.911 109.431 639.901 112.634 646.248 117.16C661.731 128.201 676.118 140.62 691.77 151.488C700.583 157.666 709.541 163.635 718.637 169.39C723.813 172.691 729.315 175.724 734.272 179.339C761.03 198.855 782.199 227.292 788.437 260.29C790.011 268.618 790.363 277.691 789.361 286.114C786.155 266.186 775.753 249.657 762.459 234.862C758.015 229.915 753.156 224.791 747.706 220.939C747.092 220.505 746.46 220.111 745.788 219.775L745.566 219.575L745.788 219.775C749.756 226.442 754.308 232.673 757.804 239.634C770.394 264.7 777.789 299.251 770.763 326.919C768.763 334.794 765.649 343.334 761.91 350.576C762.95 333.696 762.061 319.403 755.501 303.576C755.742 311.875 756.158 320.248 755.384 328.53C753.575 347.905 744.194 365.206 736.207 382.575C744.615 389.293 755.382 391.531 765.924 391.1C754.106 400.665 741.183 406.325 725.67 404.828C725.153 404.778 724.639 404.7 724.125 404.625C727.872 423.79 730.972 441.921 725.31 461.065C723.801 466.168 721.877 471.313 718.943 475.784C715.304 481.33 710.21 486.537 705.989 491.7C695.098 505.017 684.803 520.658 666.77 524.06C666.435 524.126 666.1 524.188 665.763 524.244C656.814 548.762 655.816 554.921 638.617 576.248C637.624 587.665 637.406 599.341 635.947 610.686C656.98 616.541 720.329 636.833 731.082 655.169C734.859 661.61 737.502 668.342 741.723 674.641C750.205 687.301 760.756 696.792 772.282 706.535C775.485 709.243 778.773 712.486 782.442 714.513C784.604 715.708 787.38 716.349 789.753 717.019C803.164 720.806 813.882 725.321 821.899 737.308C824.656 741.429 827.059 746.145 830.593 749.658C836.316 755.349 846.309 762.113 850.04 769.048C851.536 771.826 851.255 776.628 852.892 779.005C854.173 780.864 871.993 788.486 875.141 790.099C900.674 803.181 943.102 827.775 964.101 846.908C971.002 853.196 976.832 859.838 981.232 868.104C990.863 886.193 996.294 907.406 1001.24 927.198C1009.27 959.323 1015.12 991.588 1021.74 1024L924.158 1024C928.818 1007.82 932.67 991.348 937.29 975.129C945.809 945.968 954.055 916.728 962.026 887.413C964.266 879.42 967.008 871.564 969.155 863.55L969.422 863.003L969.155 863.55C964.669 871.017 962.146 881.376 959.302 889.643C949.166 919.739 940.446 950.294 933.171 981.207L926.004 1012.24C925.131 1016.1 924.562 1020.2 923.522 1024L742.378 1024C745.287 994.443 748.644 964.738 750.575 935.103C746.493 940.526 737.79 949.904 735.446 955.679C733.7 959.981 730.692 1015.07 729.992 1024L666.232 1024C682.132 1004.06 700.218 985.692 716.759 966.264C737.402 942.019 758.21 917.56 777.027 891.856C793.525 869.318 808.446 845.558 822.965 821.732C830.18 809.892 843.429 789.543 845.638 776.057C845.203 774.931 844.733 773.825 844.119 772.784C840.219 766.18 832.388 761.374 827.113 755.818C824.455 753.018 822.387 749.622 820.191 746.455C811.878 734.467 805.911 728.197 791.521 724.5C795.334 728.497 798.993 733.114 799.835 738.748C800.31 741.928 799.693 744.897 798.67 747.896C793.719 762.413 783.542 779.566 776.33 793.294C755.42 833.21 733.141 872.395 709.534 910.777C696.527 931.723 683.093 952.401 669.24 972.799C663.045 981.85 656.515 990.909 649.654 999.464C643.093 1007.65 636.136 1015.57 629.896 1024L589.138 1024C598.893 1003.19 606.281 981.039 613.698 959.322C623.611 930.897 632.315 902.065 639.785 872.903C642.66 861.912 645.719 850.975 648.042 839.852C614.679 874.909 561.322 907.909 515.701 923.887C481.422 916.598 431.48 887.183 402.666 866.585C395.974 861.801 389.843 856.31 383.314 851.318L383.115 851.033L383.314 851.318C385.534 862.073 394.593 880.97 398.969 891.804C411.581 923.03 424.138 954.275 438.443 984.773C444.658 998.025 450.664 1011.59 458.475 1024L412.66 1024C406.274 1018.26 399.724 1012.68 393.502 1006.77C341.252 957.378 297.101 900.074 262.669 836.957C249.701 812.994 237.823 788.051 229.789 761.957C227.088 753.184 223.961 741.57 228.769 732.998C230.8 729.379 233.307 727.777 237.211 726.636L237.869 726.449L237.353 726.103C233.504 725.787 229.324 728.202 225.831 729.568C224.435 730.114 223.316 730.554 222.091 731.448C214.897 736.701 209.876 745.203 203.858 751.723C198.622 757.396 192.702 762.558 187.763 768.485C186.733 769.722 184.589 772.055 184.506 773.62C184.105 781.255 194.041 801.409 197.749 808.971C210.303 834.728 224.606 859.596 240.555 883.401C255.553 905.315 272.215 925.904 288.993 946.457C303.201 963.862 317.643 981.526 333.002 997.933C341.428 1006.93 350.398 1015.45 359.283 1024L295.397 1024C292.479 1001.89 293.373 979.245 290.982 957.074C285.921 952.535 281.546 947.666 277.457 942.243L277.124 942.003L277.457 942.243L279.437 989.953C279.832 1001.19 279.8 1012.83 280.91 1024L103.03 1024C96.275 996.27 89.9233 968.245 81.6932 940.908C73.6475 914.184 63.6183 887.734 53.4443 861.751C53.2851 864.736 75.938 934.276 78.4409 942.537L102.393 1024L2.44565 1024C5.05956 1012.82 7.01455 1001.58 9.29828 990.344C14.881 962.868 20.5711 935.211 28.1167 908.202C31.2694 896.916 34.2335 885.4 38.9755 874.658C42.8297 865.928 48.0066 857.294 54.8777 850.598C62.5221 843.149 71.5333 837.794 80.3489 831.915C103.202 816.674 126.464 802.57 151.041 790.246C159.057 786.227 167.194 782.088 175.549 778.817C176.044 776.806 176.583 774.754 177.313 772.812C178.366 770.014 179.872 767.229 181.756 764.908C186.481 759.087 192.451 754.203 197.597 748.749C203.615 742.37 212.855 727.234 220.256 724.072C230.476 719.706 239.833 718.499 250.846 718.48C255.139 716.069 259.088 712.634 262.623 709.236C278.014 694.443 280.816 678.949 293.092 663.694C297.152 658.649 301.905 654.905 307.521 651.715C322.584 643.161 339.556 638.087 355.492 631.429C364.164 627.805 372.508 622.86 381.245 619.563C382.644 619.036 384.133 618.84 385.61 618.673C383.83 607.982 382.024 585.576 378.514 576.812C376.787 572.498 371.91 569.291 369.478 565.178C361.732 552.073 356.139 536.979 351.93 522.386C349.398 522.941 346.945 523.305 344.346 523.087C328.968 521.797 307.877 501.463 298.38 489.627C283.922 471.609 280.602 446.679 283.075 424.299C278.792 428.026 274.417 431.348 269.011 433.273C260.665 436.246 248.974 435.988 240.983 432.159L240.816 431.594C241.949 431.769 243.087 431.924 244.235 431.95C250.202 432.083 256.41 429.53 260.707 425.443C268.786 417.758 272.116 405.985 272.527 395.141C260.531 380.769 250.134 363.899 245.425 345.576C244.22 340.887 243.825 335.903 242.968 331.134C241.645 347.074 242.639 362.498 251.656 376.239C254.111 379.979 257.095 383.118 259.754 386.674C247.317 381.597 236.055 365.365 230.589 353.608C227.115 346.136 224.931 337.991 223.596 329.878C217.814 294.754 231.854 263.337 243.464 231.185C232.06 234.633 220.177 235.821 208.398 233.781C195.974 231.631 183.642 226.161 176.205 215.622C181.105 218.89 186.25 220.383 192.089 220.722C215.998 222.107 237.281 207.641 254.397 192.355C256.591 185.697 257.784 178.768 260.187 172.148C269.232 147.236 285.855 124.179 305.866 106.967C334.451 82.38 381.434 57.9867 419.46 55.3192C430.514 54.5437 438.858 56.7444 449.423 57.4638L449.985 57.4973C443.266 55.0742 436.444 52.7381 429.552 50.8525C399.642 42.6696 376.182 48.105 349.788 63.1811C357.867 55.4912 369.456 49.5277 380.002 46.1423C399.135 40.0007 421.817 41.9583 440.306 49.5167C446.511 52.0533 452.41 55.5363 458.382 58.5814C452.666 46.9496 444.509 37.7322 432.568 32.2213C411.602 22.5453 393.28 29.9849 373.289 37.2104ZM494.491 66.6684L493.826 67.1689L493.502 67.4227L493.826 67.1689L494.491 66.6684C500.021 64.5827 505.709 62.3131 511.49 61.0477C542.655 54.2268 577.598 61.7614 607.273 71.8842C616.736 75.1125 631.031 81.5203 640.961 82.1289L641.497 82.4224L640.961 82.1289C635.528 79.4617 628.739 77.9957 622.953 76.0015C596.397 66.8495 569.578 58.0614 541.217 57.1771C530.375 56.839 502.956 58.7459 494.491 66.6684ZM288.025 193.016C295.582 166.848 314.844 146.208 334.866 128.593C357.803 108.413 387.756 88.6655 419.065 86.7661C428.876 86.1708 438.064 87.9174 447.749 88.5469L447.998 88.875L447.749 88.5469C443.721 86.7191 438.837 86.023 434.472 85.479C419.022 83.554 404.566 84.9864 389.956 90.5102C330.025 113.168 278.63 171.644 253.014 229.162C246.476 243.844 239.942 260.49 237.098 276.347C245.163 249.311 257.694 223.814 274.171 200.912C276.879 197.205 279.522 193.234 282.694 189.917C278.966 196.38 276.208 201.946 274.47 209.271C277.098 205.418 277.972 200.508 280.623 196.809C279.515 203.046 275.551 208.267 274.305 214.433L274.07 214.998L274.305 214.433C276.062 212.31 277.376 209.077 278.685 206.611C276.818 214.122 272.744 220.917 270.862 228.608C272.139 226.04 274.669 219.367 277.138 218.267C277.268 223.086 274.192 231.907 273.085 237.123C269.464 254.181 265.427 280.527 267.729 297.685C267.79 298.139 267.851 298.593 267.889 299.049C267.96 299.89 267.991 300.246 268.383 301.021C268.611 288.213 268.741 275.481 270.419 262.753C273.739 237.591 283.765 213.864 296.501 192.138C298.813 188.193 301.037 184.166 303.62 180.391C307.461 174.777 312.349 169.022 315.192 162.848L315.5 162.5L315.913 162.002L315.5 162.5L315.192 162.848C306.723 170.627 300.334 182.076 294.075 191.638C291.974 194.846 289.853 198.583 287.301 201.406C288.487 197.299 289.859 193.21 292.045 189.513C293.305 187.382 294.991 185.407 295.835 183.071L295.3 183.049C292.736 186.258 290.652 189.801 288.025 193.016ZM322.944 103.451L322.376 103.756C317.355 106.023 312.83 110.489 308.764 114.169C293.063 128.376 280.564 143.153 272.944 163.23C271.22 167.773 269.104 172.931 268.508 177.78L268.854 177.297C272.931 171.508 276.249 165.133 279.873 159.055C285.197 150.125 290.905 141.268 296.941 132.8C301.724 126.091 306.956 119.442 312.62 113.46C315.759 110.143 319.357 107.137 322.376 103.756L322.944 103.451L323.481 103.002L322.944 103.451ZM670.003 110.096L670.5 110.5C670.757 110.68 671.183 111.051 671.476 111.144C678.588 118.536 689.235 122.707 696.601 129.804C701.737 134.752 707.015 140.464 711.261 146.2C713.828 149.667 716.301 154.467 719.271 157.423L719.46 157.998L719.271 157.423C719.111 156.746 718.901 156.128 718.615 155.492C711.356 139.352 697.803 128.229 683.613 118.47C679.87 115.896 675.724 112.746 671.476 111.144L670.5 110.5L670.003 110.096ZM536.377 111.703L536.907 111.852C554.131 117.753 565.909 122.822 580.605 133.813C600.143 148.424 616.57 166.712 631.39 185.983C667.209 232.557 681.114 262.806 689.406 320.627C689.638 312.608 688.323 304.454 687.196 296.532C681.278 254.952 664.428 209.717 637.331 177.22C614.631 149.997 573.401 115.157 536.907 111.852L536.377 111.703ZM428.807 155.787C424.364 159.047 420.588 164.2 417.09 168.463C398.884 190.65 384.061 215.408 373.102 241.934C370.217 248.916 367.309 256.023 365.914 263.474L366.383 262.671C370.054 256.254 372.672 248.542 375.824 241.807C382.671 227.172 390.165 212.083 398.404 198.19C403.772 189.072 409.7 180.295 416.155 171.911C419.294 167.826 426.849 159.788 428.807 155.787L428.998 155.502L428.807 155.787ZM674.523 158.107L675.235 158.322L675.452 158.883C677.756 161.828 680.596 164.423 683.24 167.068C681.412 166.095 679.579 164.971 677.64 164.249C677.851 164.951 678.051 165.657 678.241 166.365C675.943 165.832 673.847 164.794 671.7 163.838L671.42 163.392L671.003 163.112L671.42 163.392L671.7 163.838C674.619 166.439 678.11 168.578 680.894 171.27C674.032 168.99 670.696 162.76 664.825 159.096C670.136 167.156 677.719 170.544 681.74 180.248C679.099 179.719 676.201 178.323 673.644 178.127C673.749 178.7 673.824 179.297 673.989 179.856C672.477 178.425 671.008 176.942 669.314 175.725C674.493 183.194 680.486 189.027 686.538 195.712C691.887 201.62 696.931 207.9 701.73 214.26C706.295 220.35 710.399 226.773 714.007 233.475C716.036 237.21 717.83 241.472 720.219 244.956L720.617 245.727L720.949 246.498L720.617 245.727L720.219 244.956C719.113 240.016 716.967 235.011 714.901 230.407C710.881 221.415 705.95 212.859 700.185 204.873C695.507 198.347 690.435 192.185 686.432 185.201C687.712 186.678 688.899 188.162 690.527 189.275L690.928 187.859L692.315 188.345L692.434 188.998L692.315 188.345C690.257 185.275 689.251 182.394 688.374 178.813C695.537 184.784 701.697 191.172 707.964 198.074C710.986 201.401 713.859 205.174 717.152 208.217L717.397 208.498L717.152 208.217C710.663 194.341 688.381 165.992 675.452 158.883L675.235 158.322L674.523 158.107ZM328.721 170.759L328.279 171.171C319.015 180.586 298.553 221.622 296.818 235.045L296.634 235.599L296.818 235.045C298.718 232.462 304.219 216.897 306.563 212.106C311.492 202.029 317.132 192.199 322.411 182.291C324.368 178.617 326.683 175.013 328.279 171.171L328.721 170.759L328.942 170.002L328.721 170.759ZM647.113 176.002L647.5 176.5L648.137 177.243L648.336 177.691C651.378 185.788 658.691 198.563 665.381 204.021L665.767 204.566L665.381 204.021C662.994 198.567 652.28 181.843 648.336 177.691L648.137 177.243L647.5 176.5L647.113 176.002ZM663.343 178.575L664 179.5L664.338 179.834C665.545 181.923 666.799 183.694 667.15 186.114L666.9 185.919C668.907 190.643 671.509 193.714 675.405 197.021C675.875 198.348 676.229 198.495 677.358 199.376L677.483 199.92L677.358 199.376C676.733 198.085 676.744 197.632 675.405 197.021C674.71 195.917 673.932 194.979 673.995 193.617C676.907 194.216 681.547 200.728 683.582 203.045L683.591 202.705C678.821 194.318 671.505 186.229 664.338 179.834L664 179.5L663.343 178.575ZM418.531 188.535L418.216 189.117C410.243 198.393 399.25 216.809 393.887 228.013C386.548 243.348 376.258 272.423 373.763 289.096C374.808 286.624 375.725 284.176 376.541 281.618C383.97 259.146 393.933 240.591 405.806 220.193C403.344 223.02 401.258 225.965 399.186 229.087C402.582 220.254 406.46 211.613 410.803 203.204C413.176 198.594 416.365 193.93 418.216 189.117L418.531 188.535L418.927 188.002L418.531 188.535ZM664.977 190.427L664.849 191.117C665.862 192.509 667.246 193.036 668.748 193.764L669.068 194.104L669.473 194.498L669.068 194.104L668.748 193.764C667.665 192.305 666.553 191.32 664.977 190.427ZM657.707 187.564C659.588 190.416 662.54 193.062 665.162 195.23L665.388 195.498L665.162 195.23C664.004 191.981 660.482 189.456 657.707 187.564ZM663.743 176.589C668.641 183.39 675.265 189.127 680.763 195.456L681.099 196.227L681.636 197.263L681.893 197.498L681.636 197.263L681.099 196.227L680.763 195.456C678.581 188.73 669.52 180.555 663.743 176.589ZM609.509 200.082L609.78 200.29C613.893 207.533 621.262 213.498 627.658 218.714L627.877 218.998L627.658 218.714C627.561 218.25 627.563 218.182 627.36 217.672C624.739 211.058 616.338 202.912 609.78 200.29L609.509 200.082ZM367.716 200.79C361.353 207.815 354.977 220.777 348.984 229.117L349.287 228.298C351.952 221.181 355.981 214.37 359.39 207.57C353.753 213.516 350.424 221.735 345.379 228.151C347.453 214.719 360.236 200.008 366.015 187.654C351.656 203.978 334.468 236.017 330.902 257.26L330.625 257.498L330.902 257.26C334.936 252.078 335.614 243.375 341.554 236.768L339.771 241.596L339.331 242.141L339.771 241.596C339.829 241.658 339.911 241.704 339.944 241.782C340.533 243.187 338.536 247.857 338.033 249.492C339.699 246.612 341.488 243.441 342.412 240.231C342.672 239.327 342.706 239.014 343.274 238.24C343.74 241.077 341.34 245.643 340.482 248.45C337.517 258.149 335.17 268.298 332.973 278.201C330.16 290.875 326.696 308.643 327.723 321.519L328.238 321.351C331.675 285.353 338.758 263.321 353.656 230.692C356.152 225.134 358.746 219.621 361.438 214.155C363.558 209.892 366.397 205.36 367.716 200.79L367.942 200.502L367.716 200.79ZM546.027 204.002L546.249 204.253C550.106 208.873 585.914 240.521 589.234 242.209L589.427 242.43L589.234 242.209C585.48 235.484 554.478 208.47 546.249 204.253L546.027 204.002ZM566.503 207.583L567.031 207.973L568.004 208.648C574.988 215.512 582.109 221.364 587.158 229.92C578.38 225.227 569.856 216.847 561.058 213.251L560.606 213.002L561.058 213.251C566.242 218.703 572.743 224.537 578.924 228.769C583.186 231.687 587.747 234.167 591.916 237.224C596.944 240.91 602.178 246.047 607.767 248.724L608.105 249.075L608.707 249.597L608.997 249.887L608.707 249.597L608.105 249.075L607.767 248.724C603.492 241.808 595.128 237.804 590.76 230.881C596.274 233.52 601.588 238.279 606.696 241.721C597.033 231.098 580.89 214.906 568.004 208.648L567.031 207.973L566.503 207.583ZM627.92 210.234C630.624 212.195 631.373 215.616 634.12 217.723L634.382 217.998L634.12 217.723C632.689 214.159 631.178 210.597 629.926 206.966C634.513 210.888 637.253 216.976 641.753 220.74L642.083 221.098L642.495 221.906L642.083 221.098L641.753 220.74C638.135 210.094 627.953 197.542 619.595 190.202C623.448 195.457 626.637 200.725 629.415 206.622C622.428 200.983 614.993 196.576 606.759 193.014C610.648 195.641 614.23 198.759 617.709 201.9C620.463 204.385 626.955 212.793 629.917 213.447L627.92 210.234ZM590.503 214.09L591.245 214.309L591.431 214.833C596.886 222.292 604.966 228.893 611.686 235.223C618.212 241.358 624.421 247.823 630.287 254.592C632.099 256.68 634.052 259.641 636.274 261.195L636.452 261.498L636.274 261.195C632.548 250.179 619.007 239.537 614.402 229.185C618.073 231.787 620.366 235.378 623.777 238.19L623.965 238.438L623.777 238.19C622.384 233.623 617.659 229.639 616.333 223.703L618.594 226.262L618.879 226.498L618.594 226.262L618.209 224.034L618.679 223.539C622.356 224.821 625.386 229.484 628.676 231.727L628.894 231.998L628.676 231.727C626.551 227.734 623.269 224.709 620.896 220.913C621.165 221.12 621.437 221.324 621.703 221.536C624.066 223.411 625.575 225.865 628.128 227.613C627.413 225.762 625.874 224.078 624.675 222.481C616.705 211.87 605.964 203.063 594.228 196.82C604.899 207.618 610.271 211.168 614.266 226.32L613.85 226.06C603.738 219.625 594.433 210.61 583.258 206.042C590.619 212.075 603.759 219.621 608.195 228.138C602.429 225.313 597.109 218.41 591.431 214.833L591.245 214.309L590.503 214.09ZM472.125 223.502L472.457 223.785C472.788 229.79 473.517 235.894 473.5 241.901C472.05 237.809 471.398 233.892 470.808 229.61L470.453 229.447L470.546 229.412C470.623 234.74 471.253 239.634 472.2 244.867L471.973 244.38C469.431 238.787 467.483 232.707 465.989 226.758C464.878 222.332 464.37 215.774 462.269 211.928C462.024 231.578 475.561 264.073 483.492 282.829C485.05 286.513 486.966 293.184 489.673 295.969L489.957 296.497L489.673 295.969C487.854 287.677 484.171 279.738 482.373 271.351C478.975 255.506 478.33 239.026 472.457 223.785L472.125 223.502ZM495.012 206.493C495.411 211.179 497.095 216.279 498.383 220.823C503.79 239.887 511.19 256.736 523.697 272.339C526.511 275.849 529.489 279.596 532.918 282.507L532.957 282.945L533.625 283.428L533.62 283.029L532.918 282.507C529.142 275.735 523.964 269.609 520.094 262.404C513.592 250.298 507.299 237.755 502.031 225.057C499.552 219.079 497.756 212.81 495.187 206.89L495.012 206.493ZM487.225 252.557C494.095 267.321 495.542 286.911 503.155 301.426L503.394 301.998L503.155 301.426C501.129 291.852 498.568 282.357 496.339 272.824C493.935 262.543 491.819 252.179 489.194 241.952C486.347 230.859 482.722 219.773 480.588 208.522C479.774 204.226 477.122 179.421 475.746 177.786C475.655 185.665 476.743 193.763 477.353 201.63C478.743 219.377 480.433 244.354 486.103 261.108L485.52 255.831C487.766 261.875 488.844 268.623 490.385 274.909C489.758 267.469 488.222 259.973 487.225 252.557ZM638.003 357.1L638.298 357.333C644.279 362.111 650.303 366.915 656.02 372.006C659.557 375.157 662.943 378.859 666.665 381.743L666.9 381.998L666.665 381.743C665.87 379.247 663.985 376.513 662.526 374.33C657.704 367.113 646.839 359 638.298 357.333L638.003 357.1ZM558.691 383.714C552.926 382.719 547.484 379.292 542.378 376.593C526.464 368.183 510.48 359.223 497.215 346.868C490.168 340.305 484.084 332.564 478.547 324.7C474.145 318.486 470.091 312.033 466.402 305.372C467.846 310.726 470.047 315.685 472.583 320.609C477.322 329.813 483.237 338.518 488.666 347.334C494.349 356.562 499.929 366.742 506.739 375.169C497.667 370.124 488.711 364.131 481.063 357.092C476.533 352.922 472.577 348.138 468.669 343.393C453.281 324.707 441.551 304.07 434.882 280.696C430.556 265.531 428.83 249.965 428.626 234.231C425.184 239.933 422.857 246.929 420.501 253.156C414.859 268.239 410.093 283.635 406.227 299.268C402.854 313.244 400.263 327.41 396.034 341.17C411.194 339.812 453.98 339.779 465.035 349.354C467.489 351.479 469.487 355.056 469.656 358.346C469.715 359.499 469.454 360.224 468.863 361.186C467.067 362.425 465.294 362.162 463.167 362.037C455.42 361.583 447.634 359.917 439.922 358.956C424.063 356.98 407.87 355.585 391.883 355.482L391.646 355.88C389.526 359.507 387.981 363.446 385.964 367.138C382.473 373.526 378.102 379.279 373.558 384.943C376.218 378.036 384.922 360.416 383.827 353.312C382.025 350.859 377.53 350.028 374.917 348.303C366.741 366.443 361.53 376.394 347.655 391.454C346.604 398.134 346.28 404.908 346.69 411.658C347.529 426.485 352.707 457.737 360.489 469.958C351.894 462.189 345.248 452.181 339.687 442.084C337.525 438.16 335.644 433.838 333.034 430.202C335.169 437.411 336.146 444.874 337.605 452.236C339.647 462.543 341.958 472.636 343.322 483.081C338.719 474.024 334.51 464.895 331.098 455.317C326.331 441.932 319.338 404.927 305.828 400.2C303.03 399.221 299.742 399.083 297.087 400.548C293.297 402.639 291.443 407.159 290.419 411.147C286.265 427.341 289.504 463.148 298.048 477.375C304.269 487.734 330.3 513.415 341.751 516.321C344.747 517.082 347.728 516.738 350.731 516.215C349.545 511 346.682 497.582 344.173 493.385C344.015 491.641 343.581 489.97 344.286 488.347L345.24 488.35C352.306 495.291 359.92 522.35 363.677 532.727C366.302 539.978 369.178 547.41 372.621 554.309C374.7 558.473 377.011 562.336 380.004 565.903C388.535 576.074 399.079 585.25 408.554 594.585C425.962 611.736 443.201 630.001 462.816 644.647C469.365 649.536 476.377 653.825 484.163 656.426C503.331 662.829 531.919 661.943 550.065 652.73C569.073 643.078 589.206 619.541 604.017 604.032C615.865 591.626 628.222 579.106 638.711 565.543C643.598 559.224 648.308 552.35 651.5 545.008C661.663 521.629 664.466 492.97 672.432 468.744C675.478 467.567 678.304 466.392 680.528 463.906C685.874 457.931 684.351 448.945 683.874 441.594C679.283 450.895 674.683 458.131 667.667 465.802C672.421 440.301 676.695 411.388 668.712 386.108C657.721 378.747 643.842 372.2 631.371 367.911C624.737 365.63 617.885 363.947 611.17 361.913C605.67 360.247 599.3 357.514 593.549 357.503C589.23 357.495 584.708 358.432 580.433 359.032C571.092 360.343 561.809 361.765 552.352 361.6C548.675 358.352 546.321 354.007 543.775 349.874C552.092 346.917 559.856 344.863 568.591 343.644C545.012 332.507 526.508 311.658 510.905 291.251C518.039 314.394 529.047 341.808 542.39 361.967C547.375 369.498 553.453 376.346 558.691 383.714ZM509.9 35.6952C497.191 37.1978 485.041 38.4971 476.545 49.1774C474.21 52.1118 472.2 55.2076 470.338 58.457C478.08 52.8056 486.317 48.6011 495.383 45.4929C511.704 39.4403 528.4 36.9361 545.795 39.158C535.636 35.0972 520.646 34.368 509.9 35.6952ZM441.944 98.1761C408.163 103.148 376.711 128.279 356.766 155.069C315.893 209.967 300.41 288.401 309.347 355.652L309.747 355.845L309.85 355.122C309.273 333.119 310.692 311.108 314.089 289.361C321.869 241.047 343.414 175.792 377.257 139.668C391.058 124.936 409.021 112.611 427.569 104.573C431.286 102.962 442.65 99.584 444.993 98.1348C443.899 97.9082 443.044 98.0239 441.944 98.1761ZM623.634 103.75L624.245 103.75L623.634 103.75ZM624.635 104.25L625.245 104.25L624.635 104.25ZM498.307 149.822C502.564 163.293 508.799 176.757 514.791 189.555C520.412 201.558 526.146 213.494 533.141 224.77C552.189 255.156 579.003 279.906 610.814 296.464C613.734 297.982 617.077 300.017 620.34 300.596C577.608 276.149 557.054 253.142 531.742 211.699C524.916 200.523 517.974 189.357 511.853 177.775C509.319 172.98 500.849 152.072 498.307 149.822ZM719.703 158.75L720.05 158.75L719.703 158.75ZM329.192 169.25L329.602 169.25L329.192 169.25ZM453.814 170.288C450.705 191.92 449.675 222.257 459.255 242.126C459.337 234.895 457.614 227.195 456.477 220.04C455.069 211.174 453.935 202.281 453.547 193.303C453.316 187.975 455.177 174.042 453.814 170.288ZM329.266 173.895C323.988 184.163 318.574 194.294 313.991 204.908C303.716 228.704 296.368 256.032 294.877 281.949C294.543 287.756 293.677 294.955 295.278 300.533C296.008 282.488 296.896 265.276 301.735 247.752C305.1 235.568 329.793 179.961 329.266 173.895ZM692.61 189.75L693.092 189.75L692.61 189.75ZM607.659 193.75L608.245 193.75L607.659 193.75ZM581.633 205.25L582.245 205.25L581.633 205.25ZM359.71 206.25L360.109 206.25L359.71 206.25ZM296.24 236.987L296.518 237.25L296.24 236.987ZM295.713 238.75L296.058 238.75L295.713 238.75ZM338.209 248.75L338.745 248.75L338.209 248.75ZM365.739 263.987L366.007 264.25L365.739 263.987ZM490.184 297.25L490.518 297.25L490.184 297.25ZM620.135 300.75L620.745 300.75L620.135 300.75ZM621.134 301.25L621.743 301.25L621.134 301.25ZM388.857 311.859C385.639 318.923 376.55 338.26 376.697 345.08L385.42 343.01C386.725 335.379 390.103 319.236 388.857 311.859ZM565.355 327.932C569.78 332.894 573.938 337.759 579.346 341.691L585.467 340.25C585.381 340.058 585.368 339.812 585.21 339.674C583.624 338.294 580.16 337.189 578.212 336.03C573.883 333.454 569.804 330.261 565.355 327.932ZM709.446 389.243C707.094 392.406 698.22 403.465 698.145 406.77C702.181 407.375 704.179 406.979 706.816 410.738C712.744 419.187 710.791 433.636 708.868 443.065C708.67 444.067 708.452 445.064 708.215 446.057C706.895 437.959 707.348 417.194 701.102 412.445C699.712 411.388 698.323 411.628 696.685 411.732C695.078 412.879 687.887 432.115 687.478 434.658C687.01 437.569 687.681 440.819 688.04 443.732C689.916 458.972 688.729 463.018 677.027 473.147C676.068 478.031 675.041 482.913 674.153 487.809C683.776 480.489 694.225 472.022 696.071 459.277C697.187 451.57 695.169 443.839 692.782 436.574L693.14 436.522L694.593 438.572C699.398 448.725 699.602 458.88 695.783 469.422C691.423 481.458 683.153 488.322 672.87 495.34L667.174 517.58C672.059 516.204 676.233 514.568 680.38 511.581C689.824 504.779 708.355 482.444 714.105 472.206C725.625 451.695 722.504 422.943 716.153 401.028C715.144 397.546 713.289 391.691 710.185 389.624C709.954 389.471 709.692 389.37 709.446 389.243ZM631.405 590.893C619.955 607.163 607.036 622.479 594.992 638.331C584.467 652.184 574.073 665.998 563.271 679.645C556.282 688.474 549.084 698.303 540.495 705.647C534.167 711.058 526.99 714.44 518.782 715.871C506.809 717.959 491.538 716.665 481.356 709.49C470.123 701.575 458.269 686.672 449.005 676.175C428.138 652.532 407.34 629.272 389.473 603.185C394.297 633.96 403.35 700.654 393.511 729.546C393.339 730.05 393.143 731.149 392.703 731.409C392.723 727.605 393.764 723.511 394.055 719.656C394.588 712.598 394.231 705.508 393.909 698.449C385.167 706.903 373.825 714.778 362.107 718.41C362.183 737.312 367.013 753.272 376.932 769.35C407.166 814.912 465.173 849.784 514.088 872.357C520.794 868.317 527.922 865.049 534.79 861.299C544.681 855.778 554.376 849.914 563.86 843.72C608.312 814.677 649.296 770.372 664.859 718.778C659.107 714.315 652.668 710.77 647.032 706.17C641.789 701.89 637.323 696.65 631.973 692.534C631.832 702.97 631.828 713.248 632.676 723.654C626.029 701.295 627.836 675.54 628.618 652.434C628.987 641.555 629.222 630.651 629.841 619.782C630.313 611.492 632.619 598.57 631.405 590.893ZM664.286 738.868C641.581 791.408 604.533 828.443 556.493 858.574C544.491 866.101 531.582 874.229 518.385 879.454C516.906 880.039 515.409 880.598 513.877 881.028C504.216 878.052 495.07 873.123 486.085 868.562C446.421 848.425 388.765 810.319 367.463 770.769C366.241 768.501 365.182 766.151 364.023 763.851C365.441 776.249 367.077 788.696 369.642 800.917C372.435 813.561 374.813 826.78 378.752 839.105C410.18 865.687 451.806 889.682 488.44 908.416C496.972 912.779 506.294 918.308 515.443 921.133C522.427 918.928 529.676 913.504 536.178 909.923C572.215 890.077 607.538 869.439 637.028 840.324C641.213 836.192 646.713 831.53 649.535 826.33C653.048 819.857 664.996 745.334 664.286 738.868Z"/><path d="M373.002 37.423L373.289 37.2104L373.002 37.423Z"/><path d="M349.353 63.5691L349.788 63.1811L349.353 63.5691Z"/><path d="M348.597 63.9975L349.353 63.5691L348.597 63.9975Z"/><path d="M680.894 171.27L681.67 171.662L680.894 171.27Z"/><path d="M681.67 171.662L682.143 172.088L681.67 171.662Z"/><path d="M682.143 172.088L683.181 172.66L682.143 172.088Z"/><path d="M683.181 172.66L683.441 172.897L683.181 172.66Z"/><path d="M673.989 179.856L674.687 180.067L673.989 179.856Z"/><path d="M674.687 180.067L675.149 181.222L674.687 180.067Z"/><path d="M675.149 181.222L675.58 181.659L675.149 181.222Z"/><path d="M675.58 181.659L676.197 182.835L675.58 181.659Z"/><path d="M676.197 182.835L676.596 183.087L676.197 182.835Z"/><path d="M676.596 183.087C677.181 183.604 677.505 183.664 677.635 184.458C676.611 183.802 676.96 184.257 676.596 183.087Z"/><path d="M280.623 196.809L280.869 196.502L280.623 196.809Z"/><path d="M280.988 201.75L280.716 201.491L280.988 201.75Z"/><path d="M287.072 201.909L287.301 201.406L287.072 201.909Z"/><path d="M279.785 204.887L279.926 203.502L279.785 204.887Z"/><path d="M279.06 205.498L279.785 204.887L279.06 205.498Z"/><path d="M278.685 206.611L278.931 206.002L278.685 206.611Z"/><path d="M627.92 210.234L627.584 210.002L627.92 210.234Z"/><path d="M620.024 219.998L619.589 219.556L620.024 219.998Z"/><path d="M620.024 219.998L620.679 220.696L620.024 219.998Z"/><path d="M620.679 220.696L620.896 220.913L620.679 220.696Z"/><path d="M616.333 223.703L616.078 223.056L616.333 223.703Z"/><path d="M345.134 228.498L345.379 228.151L345.134 228.498Z"/><path d="M608.195 228.138L608.412 228.375L608.195 228.138Z"/><path d="M590.76 230.881L590.503 230.633L590.76 230.881Z"/><path d="M341.554 236.768L341.873 236.502L341.554 236.768Z"/><path d="M372.016 389.711C382.31 380.424 413.219 372.6 426.643 373.266C443.4 374.097 453.356 382.301 465.326 393.051L465.387 394.134C463.312 394.605 460.367 392.855 458.641 391.79C454.195 389.045 450.492 385.238 446.139 382.379C434.522 374.75 419.172 374.204 406.019 377.143C398.391 378.848 391.171 381.37 384.025 384.511C380.133 386.222 376.06 388.466 372.016 389.711Z"/><path d="M590.875 376.552C574.774 377.991 572.821 386.942 561.164 393.549C559.697 394.381 557.739 395.301 556.036 394.835C556.056 393.803 556.314 393.575 556.963 392.803C558.86 390.547 561.443 388.633 563.75 386.824C574.64 378.285 586.182 374.761 599.88 373.682C600.38 373.661 600.88 373.631 601.38 373.634C616.089 373.708 633.261 377.759 644.058 388.251C627.323 380.792 609.374 375.107 590.875 376.552Z"/><path d="M392.926 422.779C386.706 419.931 379.097 412.294 376.574 405.879C376.139 404.772 375.993 403.658 375.807 402.496C375.76 402.203 375.706 401.912 375.655 401.62C372.961 400.224 370.031 398.966 367.726 396.973L367.699 396.251C367.986 396.232 368.273 396.215 368.56 396.193C378.017 395.445 385.341 389.705 394.037 386.62C409.865 381.005 436.36 381.056 450.057 392.057C456.825 397.492 459.799 405.665 461.235 413.951C459.732 412.486 458.124 411.055 456.775 409.447C451.397 402.758 447.282 397.108 439.287 393.375C440.595 401.798 440.09 410.861 434.707 417.917C431.43 422.211 426.595 425.038 421.194 425.549C416.409 426.045 411.632 424.537 407.999 421.383C402.929 416.96 400.761 409.96 400.426 403.411C400.234 399.663 400.514 395.928 400.948 392.207C393.879 396.243 388.158 401.197 382.337 406.852C384.207 413.669 387.798 418.103 392.926 422.779ZM419.282 394.831C418.571 396.15 417.916 397.487 418.291 399.031C418.619 400.385 419.315 401.313 420.509 402.045C421.02 402.358 421.866 402.525 422.422 402.674C423.435 401.375 424.149 400.218 423.905 398.497C423.691 396.992 423.127 396.385 422.1 395.385C421.102 395.009 420.347 394.876 419.282 394.831ZM411.548 412.702C410.906 413.912 409.833 415.194 410.281 416.633C410.923 418.702 413.124 420.033 415.048 420.684C418.805 421.955 424.386 422.262 428.024 420.431C429.084 419.897 430.062 419.031 430.917 418.213C431.416 416.851 432.123 415.495 431.853 414.022C430.701 414.113 430.42 414.407 429.447 415.006C426.4 416.883 423.358 417.569 419.82 416.779C416.833 416.113 414.139 414.266 411.548 412.702Z"/><path d="M558.691 383.714L558.96 383.911L558.691 383.714Z"/><path d="M559.837 414.78C561.417 407.434 564.119 399.963 569.197 394.269C576.815 385.725 589.159 384.215 599.905 383.716C614.912 384.165 625.437 387.5 639.095 393.31C642.093 394.585 646.015 395.838 648.58 397.831C649.43 398.492 649.214 398.129 649.329 399.119C646.398 400.239 643.211 399.477 640.235 398.901L640.811 399.377C644.307 402.305 647.528 403.878 651.81 405.387C648.73 406.331 645.955 406.869 642.716 406.837C641.114 410.666 639.569 414.691 637.153 418.092C635.856 419.917 633.305 423.297 630.986 423.664C630.045 421.205 635.074 410.696 635.765 406.739L635.885 406.018C632.779 401.72 628.26 398.791 623.572 396.47C621.411 395.4 618.382 393.66 615.952 394.466C615.141 395.847 615.451 398.067 615.473 399.66C615.157 406.554 614.866 413.128 610.473 418.872C607.501 422.759 603.184 425.686 598.255 426.264C593.157 426.841 588.053 425.247 584.189 421.872C577.131 415.767 576.224 407.069 575.416 398.421C568.766 402.631 565.18 409.271 559.837 414.78ZM598.074 393.655C596.348 393.884 595.354 394.063 593.96 395.137L593.354 396.352C593.808 397.467 593.957 397.909 595.205 398.37C596.013 398.669 597.216 398.661 598.084 398.735C599.818 398.262 600.866 397.964 602.134 396.658L602.525 395.472C601.946 394.374 601.874 394.074 600.565 393.773C599.812 393.599 598.852 393.665 598.074 393.655ZM594.792 399.935L593.351 402.023L593.987 402.565L594.971 402.005C595.003 401.198 595.002 400.73 594.792 399.935ZM580.097 407.77C579.282 409.556 580.011 411.686 580.646 413.452C581.986 417.174 584.989 419.971 588.56 421.572C592.712 423.434 597.74 423.697 601.974 421.947C605.052 420.675 606.737 418.728 608.354 415.892C608.779 414.342 608.671 414.253 607.889 412.861C607.557 412.27 607.31 412.027 606.719 411.71C602.045 415.462 600.767 418.975 593.927 418.121C586.001 417.132 585.327 409.559 580.097 407.77Z"/><path d="M259.754 386.674L259.982 386.917L259.754 386.674Z"/><path d="M371.327 390.153L372.016 389.711L371.327 390.153Z"/><path d="M370.864 390.612L371.327 390.153L370.864 390.612Z"/><path d="M370.301 391.081L370.864 390.612L370.301 391.081Z"/><path d="M370.002 391.38L370.301 391.081L370.002 391.38Z"/><path d="M309.352 465.912C311.978 471.615 314.501 475.955 319.231 480.192L319.436 480.4L319.231 480.192C317.319 474.212 316.006 468.466 318.965 462.501C320.792 458.818 323.736 455.956 326.814 453.313C324.103 447.142 320.428 441.285 317.076 435.44C312.626 445.892 311.01 456.868 310.106 468.115C308.234 453.485 310.183 445.649 314.01 431.734C310.923 426.237 307.056 421.316 303.777 415.957C299.539 422.909 298.671 432.089 297.296 439.991C296.553 433.868 295.567 418.678 299.268 413.527C299.896 412.654 300.39 412.344 301.33 411.884C303.329 411.81 304.606 412.591 306.04 413.887C316.028 422.914 325.354 441.943 328.711 454.73C323.829 461.269 321.005 466.897 322.254 475.356C322.619 477.831 323.296 480.09 324.161 482.439C330.517 487.65 337.714 489.122 344.173 493.385C344.217 494.312 344.501 495.242 344.706 496.147C342.804 496.178 341.465 494.28 339.706 493.66C334.273 491.743 329.554 490.628 324.504 487.628C315.701 482.398 311.788 475.698 309.352 465.912Z"/><path d="M392.926 422.779L393.703 423.126L392.926 422.779Z"/><path d="M393.703 423.126L393.998 423.393L393.703 423.126Z"/><path d="M438.737 427.85C426.977 430.137 411.201 430.414 400.225 425.041C406.003 424.854 412.346 427.583 418.247 428.04C423.145 428.42 435.113 426.275 438.737 427.85Z"/><path d="M619.203 428.39C606.167 431.904 590.869 431.459 577.993 427.544C584.762 427.1 593.45 429.702 600.84 429.594C605.109 429.532 616.074 427.184 619.203 428.39Z"/><path d="M509.332 460.11C513.34 458.802 519.495 458.334 523.311 460.369C523.79 460.624 524.027 460.808 524.503 461.13C519.331 460.015 514.612 459.975 509.332 460.11Z"/><path d="M508.466 460.356L509.332 460.11L508.466 460.356Z"/><path d="M524.503 461.13L525.207 461.645L524.503 461.13Z"/><path d="M525.207 461.645L526.317 462.175L525.207 461.645Z"/><path d="M526.317 462.175L527.494 463.018C527.084 462.812 526.685 462.451 526.317 462.175Z"/><path d="M505.496 464.658C509.912 462.016 515.825 462.02 520.715 463.18C522.839 463.684 526.158 464.635 527.746 466.125C525.861 466.213 523.771 465.293 521.956 464.812C516.09 463.256 511.433 463.665 505.496 464.658Z"/><path d="M527.494 463.018L528.22 463.642L527.494 463.018Z"/><path d="M528.22 463.642L528.497 463.904L528.22 463.642Z"/><path d="M504.794 465.143L505.496 464.658L504.794 465.143Z"/><path d="M504.002 465.454L504.794 465.143L504.002 465.454Z"/><path d="M502.88 466.329L503.498 465.53L502.88 466.329Z"/><path d="M501.502 466.459L502.88 466.329L501.502 466.459Z"/><path d="M527.746 466.125L527.997 466.417L527.746 466.125Z"/><path d="M503.51 468.644C507.549 465.968 514.368 465.798 518.999 466.751C520.667 467.094 522.13 467.655 523.504 468.658C516.073 467.068 510.9 467.258 503.51 468.644Z"/><path d="M529.015 466.693L528.503 466.605L529.015 466.693Z"/><path d="M529.015 466.693C529.801 467.278 530.165 467.567 530.5 468.5C529.89 467.967 529.489 467.345 529.015 466.693Z"/><path d="M502.788 469.149L503.51 468.644L502.788 469.149Z"/><path d="M523.504 468.658L524.206 469.144L523.504 468.658Z"/><path d="M530.5 468.5L531.203 469.907L530.5 468.5Z"/><path d="M501.737 469.618L502.788 469.149L501.737 469.618Z"/><path d="M524.206 469.144C524.616 469.414 525.122 469.687 525.48 470.021C525.038 469.797 524.61 469.433 524.206 469.144Z"/><path d="M501.502 469.885L501.737 469.618L501.502 469.885Z"/><path d="M531.203 469.907L531.382 470.498L531.203 469.907Z"/><path d="M510.883 471.188C509.68 471.378 508.681 471.586 507.475 471.264C508.907 470.415 510.751 470.356 512.377 470.141C513.684 470.035 515.165 469.709 516.387 470.275C514.694 471.226 512.778 471.108 510.883 471.188Z"/><path d="M525.48 470.021L526.155 470.703L525.48 470.021Z"/><path d="M526.155 470.703L526.497 471.395L526.155 470.703Z"/><path d="M506.249 471.748L505.629 471.746L506.249 471.748Z"/><path d="M522.026 473.656C517.427 472.854 512.73 472.626 508.12 473.554C507.203 473.738 504.985 474.58 504.31 474.095L504.359 473.744C508.598 472.53 516.886 470.705 520.952 472.934C521.393 473.176 521.589 473.342 522.026 473.656Z"/><path d="M522.026 473.656L523.379 474.221L522.026 473.656Z"/><path d="M523.379 474.221L524.259 474.616L523.379 474.221Z"/><path d="M524.259 474.616L525.309 475.16L524.259 474.616Z"/><path d="M525.309 475.16L526.288 475.643L525.309 475.16Z"/><path d="M526.288 475.643L527.233 476.213L526.288 475.643Z"/><path d="M527.233 476.213L527.619 476.577L527.233 476.213Z"/><path d="M527.619 476.577L527.997 476.889L527.619 476.577Z"/><path d="M541.5 493.5L541.003 493.079L541.5 493.5Z"/><path d="M483.264 493.832L483.997 493.61L483.264 493.832Z"/><path d="M541.5 493.5C542.455 493.757 542.734 493.823 543.5 494.5C542.643 494.239 542.227 493.991 541.5 493.5Z"/><path d="M482.901 494.751L483.264 493.832L482.901 494.751Z"/><path d="M482.35 495.094L482.901 494.751L482.35 495.094Z"/><path d="M543.5 494.5L544.188 495.188L543.5 494.5Z"/><path d="M481.869 495.652L482.35 495.094L481.869 495.652Z"/><path d="M544.188 495.188L544.9 495.498L544.188 495.188Z"/><path d="M481.362 496.13L481.869 495.652L481.362 496.13Z"/><path d="M480.884 497.28L481.362 496.13L480.884 497.28Z"/><path d="M480.599 497.497L480.884 497.28L480.599 497.497Z"/><path d="M524.104 508.122C521.283 510.227 518.296 512.565 515.048 513.971C509.157 516.523 504.29 511.312 499.136 509.29C496.335 508.191 493.223 507.997 490.486 506.732C489.069 506.076 488.48 505.401 487.915 503.975C488.329 502.297 488.685 502.111 489.906 500.961C493.936 500.511 497.658 501.543 501.243 503.313L502.88 506.546C503.43 507.659 503.91 508.767 504.699 509.741C506.288 511.704 508.68 513.601 511.299 513.725C517.577 514.021 520.261 506.496 524.256 503.004C525.943 501.53 527.945 500.551 530.229 500.862C532.768 501.208 534.228 502.332 535.779 504.297C534.699 506.119 533.15 506.914 531.379 507.991C528.951 507.952 526.53 508.045 524.104 508.122Z"/><path d="M540.082 502.25L539.658 501.994L540.082 502.25Z"/><path d="M569.315 554.749C567.484 555.919 565.623 557.04 563.734 558.113C539.714 571.769 509.591 573.842 483.25 566.524C473.368 563.779 447.109 554.027 442.262 544.711C441.407 543.069 441.741 542.102 442.301 540.478C449.491 539.541 461.489 542.254 469.432 542.44C477.801 542.636 486.145 541.332 494.504 541.234C500.116 541.168 505.672 542.17 511.276 542.263C516.998 542.358 522.789 541.531 528.504 541.198C540.235 540.514 552.025 541.223 563.767 541.118C568.866 541.073 574.75 540.051 579.765 540.749C580.715 540.881 581.099 541.171 581.782 541.833C582.516 542.544 582.298 542.7 582.307 543.647C579.841 548.258 573.495 551.757 569.315 554.749ZM496.311 545.717C484.863 546.526 473.447 547.366 461.964 547.483C464.899 554.62 471.519 557.998 478.324 560.814C495.326 567.849 510.907 569.592 528.903 565.935C539.669 563.631 554.997 560.397 561.684 550.651C562.492 549.473 562.971 548.472 562.829 547.017C561.408 545.478 557.44 545.468 555.314 545.388C544.192 544.975 532.803 545.806 521.649 545.907C513.275 545.983 504.641 545.267 496.311 545.717Z"/><path d="M532.154 590.996C522.017 595.623 507.809 596.29 497.151 593.062C494.613 592.294 491.288 591.155 489.998 588.683C498.77 587.808 510.644 590.043 520.657 589.387C524.127 589.16 530.454 587.835 533.503 589.323L533.501 590.092L532.154 590.996Z"/><path d="M545.736 844.596C545.655 843.481 545.891 842.52 546.243 841.468C548.964 833.315 552.436 825.315 555.387 817.227C558.962 807.153 562.328 797.005 565.481 786.791C574.982 757.864 583.249 728.546 590.261 698.917C592.783 687.818 595.176 676.689 597.438 665.534C599.265 656.666 600.805 647.688 603.83 639.133C603.841 646.341 600.822 660.331 599.579 668.076C590.028 729.157 571.902 788.584 545.736 844.596Z"/><path d="M436.469 698.785L436.125 698.503L436.469 698.785Z"/><path d="M436.469 698.785C439.276 705.621 441.039 713.146 443.253 720.212C447.744 734.706 452.42 749.142 457.281 763.516C465.171 786.64 473.104 809.881 481.69 832.754C484.57 840.425 488.499 847.775 491.202 855.486C476.122 837.937 438.564 723.523 436.469 698.785Z"/><path d="M392.504 732.75L392.206 732.456L392.504 732.75Z"/><path d="M371.131 1024C356.818 1013.46 344.374 1000.54 332.017 987.82C281.949 936.292 235.01 873.735 207.968 806.811C204.171 797.413 199.247 787.021 197.684 777.005C196.348 768.438 198.963 761.327 203.866 754.435C219.241 822.021 264.639 893.546 309.222 945.685C325 963.815 341.549 981.261 358.822 997.973C367.606 1006.6 376.231 1015.86 385.458 1024L371.131 1024Z"/><path d="M649.075 1024C666.554 1001.24 685.441 979.409 703.287 956.915C727.844 926.111 750.819 894.076 772.121 860.936C784.452 841.22 795.987 821.017 806.699 800.375C812.498 788.996 821.075 768.278 828.241 758.809C830.592 761.359 832.881 763.974 835.549 766.2C830.782 782.507 822.341 797.857 814.481 812.859C780.402 877.901 740.053 932.728 691.857 987.933C681.308 1000.02 670.99 1012.49 659.817 1024L649.075 1024Z"/><path d="M491.202 855.486L491.624 856.214L491.202 855.486Z"/><path d="M491.624 856.214L491.877 856.497L491.624 856.214Z"/></svg>