<?xml version="1.0" encoding="utf-8" ?><svg xmlns="http://www.w3.org/2000/svg" xmlns:xlink="http://www.w3.org/1999/xlink" width="1024" height="1024" viewBox="0 0 1024 1024"><path fill="white" d="M0 0L0 1024L1024 1024L1024 0L0 0Z"/><path d="M248.76 116.886C253.594 118.428 258.409 120.449 263.449 121.194C274.394 122.812 287.163 116.51 296.614 111.642C312.616 103.399 327.096 93.3413 342.453 84.084C358.357 74.4974 375.38 65.7014 392.268 57.9968C401.852 53.6245 411.762 48.9816 422.202 47.1436C429.028 45.9419 435.673 46.1231 442.307 48.211C445.961 49.3612 449.412 50.9963 452.84 52.6864C458.585 48.8498 464.292 45.0548 470.559 42.0986C505.17 25.7707 548.321 24.0622 585.437 31.4652C618.554 38.0705 647.361 52.8899 675.225 71.4395C685.466 78.257 695.561 85.522 705.011 93.4047C716.59 103.063 727.599 113.797 739.926 122.505C755.241 133.324 775.906 141.828 794.782 141.765C802.584 141.738 809.415 141.297 816.114 136.777C817.036 136.155 818.402 134.712 819.49 134.805C820.181 136.785 820.093 138.136 819.154 140.024C812.374 153.652 790.491 164.659 776.425 168.81C769.535 170.843 763.948 170.04 757.195 168.237C788.145 197.795 806.862 230.581 807.998 274.389C808.406 290.11 805.611 312.248 795.661 325.049C795.668 312.592 791.17 298.909 784.284 288.551L783.882 287.771L783.511 287.002L783.882 287.771L784.284 288.551C786.516 296.341 789.43 304.015 790.712 312.046C791.587 317.527 790.915 322.99 791.512 328.434C792.757 339.784 801.683 350.686 811.382 356.158C817.042 359.35 822.711 360.523 829.198 360.506C818.918 365.136 806.39 369.284 795.182 365.266C793.833 364.782 792.514 364.132 791.218 363.522C792.534 384.139 781.967 398.821 769.952 414.302C776.281 434.167 777.508 453.674 767.651 472.771C758.376 490.738 739.109 503.805 721.367 512.336C715.7 527.781 705.833 544.013 705.198 560.487C701.348 548.376 702.466 537.105 702.405 524.677C699.528 540.556 699.432 558.662 708.967 572.558C712.376 577.525 716.48 580.269 721.982 582.48C714.292 585.174 706.193 586.047 698.638 582.231C693.13 579.449 689.598 575.255 686.616 570.032C677.197 587.426 665.913 604.193 649.123 615.298C652.968 605.877 658.474 597.328 662.224 587.919C655.84 596.709 649.528 605.277 641.404 612.586C638.745 623.436 636.662 634.418 633.442 645.128C673.639 664.931 715.353 686.173 746.585 719.121C751.487 724.293 756.399 729.598 760.439 735.485C764.232 741.012 767.114 747.331 771.943 752.062C781.639 761.564 802.728 773.027 806.815 786.006C807.41 787.893 807.511 790.023 807.602 791.993C816.902 796.068 825.816 801.259 834.835 805.927C859.087 818.479 882.732 831.529 906.134 845.599C912.9 849.667 921.364 853.341 927.306 858.432C928.472 859.43 929.243 860.728 929.812 862.138C930.651 864.217 931.12 866.809 932.323 868.69C934.97 872.827 939.605 876.521 942.857 880.295C947.458 885.635 951.442 891.945 955.277 897.858C977.711 932.452 1002.71 984.226 1012.45 1024L880.087 1024C882.186 1008.12 884.919 992.444 887.658 976.672C894.738 935.917 901.89 903.536 920.124 866.106L915.168 863.381C891.674 902.921 878.338 946.39 868.464 991.035C866.059 1001.91 863.225 1012.96 861.764 1024L731.768 1024C764.119 962.713 785.176 896.103 793.932 827.357C795.691 813.649 797.736 799.38 797.495 785.535C794.172 781.703 790.21 778.418 786.295 775.215C788.236 792.673 789.412 810.399 788.203 827.957C784.691 878.933 761.757 939.226 739.085 984.845C732.501 998.092 724.849 1010.82 718.119 1024L713.334 1024C717.353 1015.79 722.591 1007.99 727.041 999.987C733.11 989.074 738.552 977.69 743.89 966.399C750.787 951.809 756.526 936.843 761.995 921.673C777.047 879.917 787.586 838.692 784.685 794.036C784.22 786.869 783.939 779.401 782.311 772.383C775.103 765.792 767.398 760.187 760.498 753.171C758.988 765.46 758.654 777.829 756.914 790.144C752.451 820.344 746.615 850.325 739.423 879.993C733.082 906.905 726.235 933.538 717.504 959.794C713.405 972.12 709.115 984.461 704.298 996.523C700.623 1005.72 696.474 1014.73 692.961 1024L679.099 1024C689.657 995.131 700.409 966.63 709.557 937.247C714.399 921.698 717.998 905.76 722.03 889.992C732.135 850.475 740.824 810.777 745.982 770.292C747.212 760.642 748.642 750.944 749.247 741.235L743.567 734.279C742.148 761.541 738.838 788.673 733.662 815.477C731.029 828.854 727.591 842.101 724.591 855.402C712.076 912.633 695.731 968.959 675.666 1024L666.562 1024C671.744 1007.78 678.446 992.006 683.764 975.822C696.343 936.953 707.557 897.656 717.385 858.002C725.271 825.852 732.446 793.822 736.447 760.915C737.666 750.89 739.42 740.594 739.67 730.517C714.279 699.699 667.005 672.497 631.506 654.831C628.947 664.531 627.099 674.402 624.311 684.046C639.188 702.084 653.261 716.444 664.278 737.509C668.004 744.634 673.381 753.817 674.347 761.815C674.935 766.684 674.313 771.958 674.067 776.855C673.404 790.065 672.138 803.083 670.814 816.237C666.551 862.379 660.294 908.315 652.059 953.916C647.709 978.314 644.123 1000.24 636.675 1024L625.066 1024C626.996 1001.66 633.077 979.356 638.249 957.59C642.669 938.99 646.625 920.006 649.87 901.16C636.645 910.71 624.215 921.262 611.277 931.164C603.456 937.151 535.975 987.927 533.02 988.555C531.939 988.785 531.724 988.596 530.831 988.065C529.38 984.352 531.614 955.866 532.086 950.257C532.312 947.563 532.648 944.964 534.138 942.639C538.721 935.487 548.674 927.767 555.248 922.232C564.529 914.419 573.815 906.491 583.5 899.184C600.55 886.321 618.438 874.475 635.939 862.231C641.839 858.103 648.928 854.373 654.21 849.559C655.167 848.688 656.175 847.917 656.254 846.603C648.984 847.975 574.354 903.104 564.148 911.708C557.014 917.724 534.382 936.237 531.53 944.32C528.277 953.541 529.346 976.599 528.396 987.745C516.745 981.439 505.566 972.788 494.606 965.316C473.235 950.747 449.573 936.746 431.653 917.882C426.552 912.512 422.427 906.584 417.87 900.788L417.604 900.503L417.87 900.788C421.319 913.653 429.999 931.712 435.221 944.366C446 970.488 456.81 999.094 469.788 1024L428.792 1024C409.245 1010.53 392.033 991.853 376.276 974.202C351.241 946.157 327.552 915.785 307.695 883.837C287.56 851.443 259.63 790.235 253.524 753.02C252.01 743.789 252.052 734.828 252.579 725.535C247.157 728.571 241.46 732.043 236.561 735.863C236.456 741.43 236.552 746.944 237.01 752.495C242.768 822.266 291.39 908.562 334.823 962.261C353.441 985.28 372.772 1004.94 395.309 1024L388.12 1024C371.786 1010.18 357.238 994.299 343.202 978.184C298.462 926.817 256.524 857.532 240.359 790.91C237.912 780.829 235.649 770.697 234.798 760.336C234.161 752.58 234.492 744.964 235.021 737.223C230.626 740.517 226.57 744.055 222.777 748.03C219.842 757.857 219.806 769.726 220.769 779.847C222.564 798.706 230.501 817.44 237.859 834.758C263.593 895.33 300.113 956.196 345.771 1003.74C352.424 1010.67 358.979 1017.9 366.413 1024L168.55 1024C166.246 1014.39 163.394 1004.76 160.45 995.321C149.24 959.567 130.624 926.574 105.814 898.494C99.5938 891.319 92.7307 883.162 84.2405 878.711C92.8691 870.896 102.316 864.185 111.816 857.496C135.774 840.626 160.255 826.598 185.561 811.922C195.787 805.991 205.544 799.3 215.813 793.441L212.14 782.871C193.859 792.79 176.439 804.027 158.869 815.133C147.55 822.287 135.861 828.838 124.762 836.346C106.449 848.734 89.2948 863.143 72.8073 877.853C111.919 900.816 144.504 982.669 158.68 1024L15.262 1024C22.0091 988.672 31.0595 953.822 42.3554 919.675C45.8103 909.25 52.797 886.804 58.9616 878.192C63.6261 871.676 71.0996 866.068 77.1419 860.816C90.4757 849.225 103.991 837.904 118.561 827.873C131.941 818.661 146.211 810.464 160.057 801.964C176.657 791.774 192.81 781.76 210.241 773.011C210.509 768.091 210.816 763.194 211.523 758.312C212.277 753.115 213.289 747.81 216.217 743.345C222.756 733.375 244.009 722.514 254.288 714.811C258.029 698.809 263.219 704.087 273.194 694.637C300.053 669.193 327.007 646.79 361.645 632.546C369.12 629.536 376.653 626.673 384.241 623.959C388.284 622.514 395.324 621.182 398.593 618.909C399.45 618.313 399.181 618.659 399.357 617.564C397.822 615.96 395.2 615.3 393.151 614.518C388.692 607.37 385.371 599.084 381.591 591.525C378.971 593.123 376.408 594.488 373.49 595.472C364.947 598.351 355.697 598.169 347.566 594.179C357.372 592.94 365.613 588.184 371.826 580.489C373.838 577.997 378.291 572.784 377.586 569.396C377.134 567.225 375.188 565.425 373.392 564.285C370.089 567.243 368.572 573.528 367.039 577.638C363.476 571.969 359.116 566.789 355.45 561.176C348.546 550.608 345.618 539.353 342.247 527.362C334.077 524.975 326.194 521.696 318.743 517.583C296.672 505.365 280.525 486.488 273.561 462.114C268.032 442.762 270.495 425.062 280.199 407.598C274.341 401.592 268.458 395.579 263.062 389.149C248.459 371.753 237.186 349.693 236.294 326.643C235.967 318.219 236.974 309.75 237.717 301.37C237.66 301.545 237.599 301.719 237.545 301.895C235.459 308.713 234.289 316.063 233.143 323.099C229.786 343.702 229.533 358.658 239.364 377.526C237.925 376.291 236.725 374.947 235.542 373.471C229.804 366.31 224.719 358.408 221.531 349.763C215.233 332.683 215.317 307.824 217.299 289.743C222.534 242.004 250.585 190.496 283.904 156.481C291.899 148.319 301.128 141.398 310.042 134.28C303.377 134.57 296.571 134.916 289.916 134.394C276.444 133.338 257.782 127.542 248.76 116.886ZM320.041 105.763L319.502 105.998L320.041 105.763C326.376 104.318 340.645 96.702 347.257 93.551C359.673 87.6345 372.3 81.8375 385.15 76.9348C392.294 74.2092 399.273 72.1283 406.805 70.7442C411.564 69.8697 420.264 69.7657 424.215 68.0301C394.042 64.5472 367.163 79.9511 341.562 93.7889C334.657 97.5214 326.211 100.998 320.041 105.763ZM657.503 111.095L657.805 111.338L658.171 111.62C666.771 118.146 676.244 123.38 684.751 130.13C692.706 136.441 700.959 145.433 708.655 150.908C701.558 163.554 695.224 176.709 685.831 187.857C662.927 159.773 633.402 131.955 598.861 119.179C604.666 123.203 610.884 126.565 616.636 130.674C639.208 146.799 665.596 170.559 681.285 193.544C671.787 202.861 661.079 207.587 649.735 214.022L654.778 219.071C666.705 216.371 677.874 212.126 689.522 208.573C710.035 240.607 722.863 275.204 732.638 311.747C732.172 303.226 729.704 294.332 727.576 286.078C720.419 258.321 710.936 231.853 696.272 207.105C698.343 206.187 700.403 205.19 702.553 204.471C709.816 215.09 716.32 226.208 722.016 237.744C724.891 243.535 727.059 250.65 730.732 255.917L730.947 256.498L730.732 255.917C729.459 246.791 712.875 209.803 707.124 202.068C716.541 193.91 722.893 185.417 729.416 174.916C738.568 184.14 750.527 203.48 757.029 215.317C760.179 221.051 762.899 227.242 766.508 232.683C763.35 220.991 757.908 209.145 752.302 198.413C735.037 165.955 708.914 139.065 676.97 120.867C670.84 117.355 664.576 113.455 657.805 111.338L657.503 111.095ZM330.794 118.171L330.511 118.414L330.794 118.171C335.74 115.953 340.383 112.679 345.22 110.164C352.007 106.634 359.014 103.951 366.154 101.258C375.257 97.7448 384.453 94.4794 393.734 91.4658C398.658 89.8919 404.756 88.9512 409.317 86.6671C406.869 86.6927 404.397 86.9369 401.956 87.1325C380.341 88.8644 360.285 96.6492 342.413 108.83C338.409 111.56 333.946 114.469 330.794 118.171ZM521.467 54.043L520.987 54.2366C525.8 54.2342 530.615 53.7918 535.437 53.7589C543.63 53.703 551.906 54.1896 560.074 54.8069C606.203 58.2931 648.995 75.2142 687.973 99.623C699.088 106.584 709.899 114.075 720.801 121.366C725.952 124.811 731.405 129.09 737.045 131.659C737.183 131.721 737.322 131.78 737.461 131.84L738.483 132.516L738.997 132.886L738.483 132.516L737.461 131.84C734.375 128.304 729.6 125.211 725.916 122.264C706.098 106.147 684.885 91.8254 662.528 79.4681C628.01 60.9512 589.426 51.3184 550.255 51.4384C540.841 51.411 530.537 51.3461 521.467 54.043ZM642.503 132.107L643.246 132.336L643.399 132.753C647.249 137.65 653.422 141.118 657.874 145.58C664.172 151.891 672.474 162.79 678.719 167.733L679.062 168.129L679.728 169.222L679.997 169.411L679.728 169.222L679.062 168.129L678.719 167.733C674.403 158.769 652.866 136.758 643.399 132.753L643.246 132.336L642.503 132.107ZM561.003 179.066L561.551 179.315C568.041 183.479 575.581 186.373 582.387 190.09C598.649 198.841 614.4 208.513 629.561 219.057C615.865 224.112 601.579 226.448 587.222 228.734C589.936 230.827 592.684 232.856 595.102 235.294C609.719 232.977 623.438 229.731 637.457 224.992C653.532 235.267 668.104 247.722 680.757 262C685.452 267.277 694.303 279.058 699.263 282.744L699.589 283.096L700.109 283.696L701.024 284.972L701.679 285.698L702.077 286.151L702.676 286.973L702.077 286.151L701.679 285.698L701.024 284.972C700.797 284.529 700.409 284.096 700.109 283.696L699.589 283.096L699.263 282.744C698.815 281.952 698.9 282.047 698.487 281.462C694.455 275.748 689.785 270.428 685.454 264.936C679.459 257.334 673.438 249.634 666.809 242.565C645.662 220.014 619.282 203.709 591.328 190.95C582.221 186.794 571.446 181.166 561.551 179.315L561.003 179.066ZM360 195.5L359.666 195.809C355.295 198.375 351.191 202.336 347.486 205.804C325.824 226.075 309.695 254.366 302.237 283.046C296.84 303.801 296.763 326.026 303.484 346.515L304.063 348.026C304.752 345.677 303.608 341.214 303.31 338.709C301.644 324.712 301.932 309.888 304.611 296.05C310.068 267.859 327.874 237.526 344.522 214.426C348.179 209.352 357.265 200.344 359.666 195.809L360 195.5L360.498 195.002L360 195.5ZM538.076 196.502L538.334 196.709C546.995 207.795 560.358 221.203 570.57 231.234C558.562 233.342 546.5 235.124 534.396 236.578C548.436 237.802 562.011 238.586 576.094 237.393C589.062 243.221 598.495 255.538 611.509 261.358C611.811 261.57 612.146 261.861 612.485 262.003L612.997 262.451L612.485 262.003L611.509 261.358C608.359 257.983 604.181 255.205 600.577 252.315C594.084 247.107 587.564 241.818 581.336 236.293C571.263 227.359 561.657 217.741 551.783 208.572C547.526 204.618 543.167 199.923 538.334 196.709L538.076 196.502ZM298.162 197.757C295.194 199.084 293.46 201.16 291.527 203.706C289.443 199.19 287.037 194.819 284.801 190.377C293.479 173.31 319.39 151.86 335.177 141.056C341.43 136.776 348.31 133.2 354.274 128.546C345.725 132.113 337.041 135.564 328.915 140.041C287.783 162.705 259.346 199.876 241.647 242.77C234.362 260.427 228.165 278.323 226.389 297.451C226.182 299.683 225.47 302.825 225.915 304.99C226.663 302.291 227.01 299.533 227.773 296.839C233.021 278.319 240.354 261.882 249.953 245.238C254.661 237.213 259.248 229.267 264.923 221.874C262.895 227.237 261.633 232.848 260.26 238.406C253.746 264.763 250.878 292.955 255.217 319.928C256.071 290.977 259.688 264.57 272.503 238.228C275.181 232.723 278.049 226.963 281.478 221.895C273.971 247.965 266.797 272.92 271.186 300.388L271.292 299.698C272.049 294.586 271.833 289.408 272.519 284.3C275.348 263.671 281.981 243.746 292.08 225.537C298.983 231.125 306.767 233.174 315.337 234.914L318.272 232.221C308.233 224.655 299.986 216.557 293.039 206.013C294.921 203.513 296.904 200.62 298.162 197.757L298.396 197.565L298.162 197.757ZM530.003 253.584L530.816 254.243L530.918 254.927C532.618 260.136 560.161 294.965 565.697 301.173C569.994 305.993 574.535 310.375 579.422 314.588C584.21 313.268 588.904 312.305 593.865 311.948C594.26 311.99 594.797 311.865 595.195 311.816C593.951 309.817 576.794 298.155 573.247 295.254C566.565 289.786 560.018 284.152 553.386 278.624C550.288 276.04 546.696 273.606 543.941 270.674C539.299 265.733 536.07 259.43 530.918 254.927L530.816 254.243L530.003 253.584ZM431.696 216.219C432.035 217.093 431.984 216.819 432.117 217.557C435.88 238.332 445.217 256.496 457.692 273.34C460.729 277.44 463.828 281.949 467.743 285.252L467.991 285.498L467.743 285.252C467.689 285.124 467.636 284.995 467.58 284.867C464.329 277.452 459.184 270.893 455.859 263.401C440.767 229.388 431.237 185.942 444.85 150.11C446.024 147.048 447.423 144.076 449.034 141.22C429.752 162.084 420.274 198.107 421.364 225.899C422.356 251.205 432.459 274.353 448.658 293.653L448.886 293.998L448.658 293.653C447.19 288.309 443.994 283.373 442.183 278.108C435.904 259.858 431.364 235.371 431.696 216.219ZM473.575 207.499C474.201 211.712 475.105 215.878 476.281 219.971C483.058 243.849 495.187 262.894 512.6 280.471C516.406 284.313 520.587 288.95 525.305 291.589L525.497 291.88L525.305 291.589C509.205 271.966 495.843 251.14 483.808 228.776C480.321 222.297 477.565 214.286 474.081 208.344L473.575 207.499ZM450.094 302.002L450.305 302.305C453.875 314.061 475.069 343.708 484.469 351.409C490.431 356.293 498.425 359.832 503.926 364.666C489.95 361.576 476.792 351.976 464.309 345.307L464.119 345.091L464.309 345.307C465.209 348.565 466.546 351.115 468.582 353.799C427.081 340.581 405.557 341.179 363.605 349.454C363.36 359.525 363.19 370.152 364.775 380.119C355.577 365.857 349.584 352.838 348.061 335.705C346.214 356.907 348.722 376.408 358.406 395.559C346.384 383.238 341.36 368.129 337.217 351.831C337.323 360.11 337.418 368.322 338.771 376.516C343.368 404.36 358.056 433.865 377.132 454.569C366.236 450.879 355.905 446.896 347.205 439.135C343.698 436.006 340.44 432.14 336.735 429.303L336.511 429.058L336.735 429.303C342.264 440.19 354.172 445.987 360.222 456.085C356.56 454.081 352.859 452.147 349.47 449.696C353.825 470.066 360.939 490.91 367.337 510.744C371.685 524.223 377.025 543.149 383.854 555.26C404.547 591.958 460.677 639.152 496.034 662.046C501.121 665.34 506.722 668.855 512.59 670.555C521.795 673.22 538.413 672.062 547.918 670.022C562.335 666.927 573.641 657.413 584.83 648.364C612.819 625.727 639.26 598.295 658.663 567.852C677.376 538.491 686.127 504.289 693.304 470.588C695.125 462.041 697.64 452.974 698.259 444.249C694.737 445.525 690.514 447.536 686.756 447.576C697.02 439.338 704.825 425.353 710.399 413.597C699.463 427.344 690.27 438.513 672.414 442.688C684.458 432.997 693.074 421.398 699.136 407.183C697.345 409.842 695.484 412.481 693.417 414.933C691.202 417.561 685.679 424.021 682.15 424.314C681.225 422.104 686.896 409.014 687.757 405.95C691.118 393.997 692.398 381.015 692.505 368.606C679.353 360.915 669.732 353.187 659.35 342.062C651.252 340.822 643.27 341.224 635.252 340.27C631.653 339.842 628.617 337.144 624.914 336.751C608.921 335.056 581.803 341.057 566.779 347.039C569.94 353.041 574.884 357.957 581.085 360.726C588.347 356.46 595.526 353.656 603.946 352.697C618.379 351.053 637.363 355.103 648.912 364.212C630.336 357.017 610.022 351.42 590.818 359.927C580.726 364.398 574.747 371.923 567.859 380.206C569.142 372.887 574.661 367.516 579.539 362.361C573.925 361.705 568.279 361.242 562.746 360.047C546.764 356.596 531.01 347.693 519.118 336.556C514.93 332.633 511.22 328.17 507.346 323.938C508.453 327.598 509.654 331.205 511.162 334.723C517.794 350.198 526.539 358.269 541.91 364.407C534.766 363.512 527.63 362.576 520.696 360.561C497.168 353.728 478.481 336.62 462.785 318.459C458.537 313.544 455.265 307.623 450.868 302.9L450.305 302.305L450.094 302.002ZM279.472 381.014C280.082 384.784 281.689 388.652 283.284 392.106C289.664 405.918 298.74 416.836 311.096 425.687C314.19 427.904 317.641 430.382 321.235 431.69L321.497 431.924L321.235 431.69C316.714 425.971 308.631 420.459 303.27 415.005C296.413 408.106 290.44 400.381 285.489 392.009C283.546 388.699 282.039 385.101 280.012 381.863L279.472 381.014ZM455.268 152.44C454.173 161.995 454.336 171.694 454.395 181.296C454.556 207.168 455.43 240.215 465.715 264.187C464.777 258.569 463.668 252.926 463.057 247.263C468.408 247.891 474.226 247.79 479.551 246.934L477.783 241.163C472.655 241.396 467.71 242.066 462.667 242.986C458.498 211.983 457.215 183.447 455.268 152.44ZM377.383 218.009C371.567 224.282 365.9 230.739 361.268 237.958C350.963 254.017 345.022 275.108 343.257 294.131C344.367 290.787 345.457 287.436 346.527 284.078C350.86 271.649 355.978 259.748 361.783 247.93C366.574 247.715 371.399 247.62 376.147 246.912C371.85 246.132 367.483 245.475 363.235 244.468C367.512 235.523 372.476 227.012 377.69 218.584L377.383 218.009ZM335.126 237.854C334.314 239.61 333.468 241.356 332.774 243.163C339.515 244.885 346.56 245.702 353.442 246.696C354.22 245.775 354.315 245.999 354.27 244.69C350.302 241.48 340.192 239.411 335.126 237.854ZM412.586 239.786C392.366 271.404 374.787 304.064 364.81 340.446C369.658 333.971 373.174 329.516 380.872 326.25C400.701 319.047 419.48 319.018 440.193 320.733C434.446 309.566 428.227 298.792 424.463 286.728C422.667 281.025 421.069 275.261 419.672 269.447C418.242 263.326 415.013 244.003 412.586 239.786ZM529.949 279.421C536.556 295.151 544.113 310.679 553.284 325.083C558.494 322 563.676 319.763 569.378 317.762L575.941 315.357C558.689 306.704 542.728 293.849 529.949 279.421ZM449.712 301.25L450.112 301.25L449.712 301.25ZM732.589 310.75L733.002 310.75L732.589 310.75ZM659.563 329.351C661.133 330.915 662.815 333.018 664.687 334.17C664.194 332.652 663.865 331.267 662.366 330.437C661.519 329.967 660.479 329.667 659.563 329.351ZM703.262 329.728C704.252 342.474 703.776 355.523 702.877 368.266L703.556 367.898C704.895 360.664 707.012 336.312 703.262 329.728ZM741.327 382.776C732.077 396.973 725.292 412.524 715.631 426.471C715.203 427.088 714.978 427.723 714.774 428.437L715.406 428.802C723.487 423.407 731.809 410.251 739.264 402.842C744.963 405.672 748.462 409.67 750.48 415.792C753.637 425.366 752.633 436.396 749.446 445.814C748.289 433.042 748.852 420.336 740.356 409.84C736.8 414.265 733.347 418.864 729.436 422.982C731.985 426.403 733.182 431.612 732.528 435.88C732.411 436.644 732.314 436.794 732.054 437.419C731.016 437.272 731.445 437.506 730.71 436.514C728.662 433.749 727.962 430.073 726.225 427.08C723.566 429.749 720.967 432.551 717.88 434.732C719.619 442.865 720.055 449.885 719.309 458.176C719.447 458.071 719.586 457.967 719.722 457.86C723.267 455.069 726.48 447.112 730.394 445.909L731.072 446.463C731.491 450.975 727.073 457.73 724.208 461.181C722.726 462.967 721.114 464.405 719.318 465.855C716.13 475.281 710.899 481.04 703.953 487.956C705.164 488.697 706.146 488.404 707.521 488.129C719.136 485.804 729.081 475.019 734.918 465.346C736.44 462.825 737.838 460.216 739.249 457.632C737.204 469.948 732.395 479.676 722.075 487.15C718.021 490.086 711.165 493.649 706.026 492.937C703.003 492.518 699.29 491.037 696.289 491.432C692.8 497.333 692.118 511.72 690.21 519.049C717.279 510.887 742.882 495.48 756.489 469.877C766.179 451.645 767.53 429.72 761.45 410.13C757.852 398.54 751.216 389.632 741.327 382.776ZM285.53 414.26C277.451 434.785 278.718 451.38 287.4 471.464C295.639 490.523 317.525 507.741 336.511 515.146C343.967 518.054 351.965 519.974 359.986 520.121C358.061 513.292 356.013 506.497 353.842 499.741C338.776 499.043 325.64 493.407 315.455 482.136C307.974 473.858 304.026 464.236 304.646 453.041C304.649 452.987 304.655 452.934 304.66 452.881C305.416 446.542 306.561 440.638 308.535 434.569C307.807 452.173 303.28 463.93 316.768 478.424C323.316 485.46 330.386 488.834 339.412 491.702C334.125 486.205 328.335 480.737 324.643 473.981C322.015 469.172 320.247 463.514 319.269 458.135C318.08 451.6 319.034 442.408 314.708 437.027C311.49 433.026 302.358 428.127 297.873 424.34C293.942 437.158 293.119 445.859 293.551 459.207C289.701 449.603 288.081 433.747 292.258 424.047C292.6 423.265 292.961 422.492 293.342 421.729C290.749 419.232 288.088 416.79 285.53 414.26ZM710.313 435.935C706.937 437.832 704.351 440.155 701.339 442.523C700.642 452.044 699.687 461.545 698.477 471.015C697.891 475.663 696.783 480.448 696.45 485.086C696.368 486.223 696.26 487.142 696.812 488.179L697.733 487.674C708.176 477.179 712.382 461.758 712.418 447.233C712.426 444.084 712.651 438.877 711.178 436.094L710.313 435.935ZM324.802 442.039C323.506 459.616 330.415 473.698 341.837 486.788C344.84 490.229 347.46 492.509 351.85 494.019C349.99 485.654 346.763 477.436 344.134 469.277C341.911 462.384 340.115 455.356 337.623 448.552C333.421 446.175 329.177 444.067 324.802 442.039ZM409.999 600.961C413.214 628.136 411.401 688.157 400.857 712.429C397.49 720.179 391.446 726.152 386.819 733.087C401.76 764.058 420.04 792.479 444.492 816.861C449.554 821.909 454.876 827.273 460.703 831.424C465.222 834.644 470.515 837.149 475.369 839.837C498.576 852.688 522.931 862.596 547.725 871.976C578.254 851.557 609.173 827.805 630.034 797.133C633.782 791.623 637.642 785.6 640.065 779.363C626.594 764.936 617.625 747.555 611.218 729.026C609.353 736.831 606.994 744.556 604.591 752.211C599.007 768.751 593.78 785.388 587.274 801.602C590.967 775.747 598.376 750.47 604.577 725.137C607.577 712.886 610.199 700.548 613.284 688.318C616.47 675.69 620.122 663.216 623.467 650.636C626.062 640.872 628.414 631.02 631.32 621.344C629.648 623.098 627.251 625.134 626.071 627.232C622.917 632.836 621.45 642.871 619.398 649.296C613.272 668.479 599.858 704.238 587.536 719.446C584.598 723.04 580.979 726.019 576.888 728.213C569.028 732.398 558.897 732.549 550.143 732.73C545.787 732.821 541.378 732.644 537.157 731.474C523.214 727.609 510.217 714.897 499.991 705C473.906 679.754 451.427 650.999 427.981 623.368C421.975 616.29 417.162 606.776 409.999 600.961ZM398.245 626.94C355.248 643.093 326.257 660.28 291.752 690.873C285.412 696.493 278.876 702.025 272.849 707.977C273.222 718.476 275.219 728.702 277.424 738.944C289.106 793.212 315.677 847.869 346.786 893.559C362.76 917.019 380.985 938.691 399.224 960.394C413.473 976.046 426.632 992.882 441.464 1007.98C434.152 989.875 423.38 973.328 416.657 954.891C409.887 936.33 404.875 917.081 399.338 898.121C392.632 875.162 385.758 852.446 380.414 829.109C373.394 797.53 368.487 765.519 365.726 733.287C364.256 717.313 361.358 695.043 367.607 679.974C373.188 666.518 387.174 657.242 399.642 650.92C399.904 646.761 400.901 630.058 398.983 627L398.245 626.94ZM269.445 709.512L264.002 712.259C263.02 729.16 266.254 744.554 270.496 760.748C289.763 834.311 344.35 917.715 394.576 974.144C404.315 985.085 414.492 995.366 425.002 1005.56C430.549 1010.93 436.063 1016.7 442.288 1021.3L444.544 1022.97L445.107 1022.77C442.829 1018.28 430.63 1007.31 426.495 1002.89C417.988 993.811 409.703 984.532 401.647 975.054C369.389 936.729 340.066 896.627 316.243 852.464C299.881 822.131 286.009 789.046 277.267 755.672C274.188 743.919 271.512 732.521 270.497 720.384C270.322 718.29 270.575 710.861 269.445 709.512ZM398.888 841.478C405.379 853.432 483.736 910.005 500.111 922.351C504.654 925.776 524.95 942.258 528.474 943.367C528.763 943.458 529.063 943.509 529.358 943.581C524.034 936.941 511.878 928.835 504.874 923.499L457.708 887.926C442.933 876.829 428.335 865.498 413.919 853.939C408.838 849.869 403.996 845.503 398.888 841.478Z"/><path d="M248.76 116.886L248.502 116.624L248.76 116.886Z"/><path d="M375.734 376.771C383.937 366.335 400.432 359.764 413.262 358.159C426.207 356.539 439.665 359.552 450.04 367.629C452.854 369.82 457.206 373.512 458.774 376.739C456.368 375.543 454.072 373.749 451.825 372.263C444.808 367.623 438.033 363.826 429.664 362.185C414.992 359.309 399.06 362.706 386.114 369.901C382.43 371.949 379.223 374.449 375.734 376.771Z"/><path d="M564.404 402.612C565.745 395.25 568.14 388.353 572.684 382.321C581.307 370.877 593.353 365.629 607.247 363.665C609.969 363.273 612.896 363.252 615.644 363.26C629.466 363.3 650.249 367.261 660.23 377.735C661.772 379.354 662.861 381.294 662.73 383.584C662.305 391.021 655.027 399.721 649.815 404.587C652.052 396.883 653.79 390.233 652.831 382.174C645.47 377.029 636.766 374.479 627.962 373.172C633.381 378.976 636.307 385.117 636.942 393.058C637.603 401.335 635.594 408.79 630.141 415.168C627.199 417.911 624.041 420.357 620.313 421.94C615.101 424.154 609.064 424.404 603.834 422.11C597.73 419.432 593.793 413.961 591.42 407.924C587.637 398.298 588.53 388.366 592.557 379.001C581.198 384.734 572.76 393.203 564.404 402.612ZM601.259 375.039C598.183 376.066 595.835 377.213 594.364 380.273C593.165 382.765 593.227 385.642 594.25 388.183C595.555 391.425 598.15 393.904 601.386 395.181C602.214 395.507 603.033 395.699 603.902 395.878C606.875 394.492 608.997 392.672 610.207 389.547C611.303 386.719 611.326 383.523 610.052 380.745C608.935 378.284 606.837 376.404 604.27 375.561C603.265 375.234 602.307 375.114 601.259 375.039ZM626.028 406.102C617.37 408.242 611.049 415.987 601.985 410.527C601.638 410.317 601.294 410.104 600.952 409.886C600.867 410.83 601.489 411.247 602.03 411.99C606.058 415.173 610.551 416.192 615.672 415.571C619.128 415.152 622.827 413.759 624.976 410.896C625.993 409.539 626.22 408.221 626.362 406.574L626.028 406.102Z"/><path d="M648.912 364.212L649.683 364.68L648.912 364.212Z"/><path d="M503.926 364.666L504.498 364.913L503.926 364.666Z"/><path d="M649.683 364.68L649.968 364.906L649.683 364.68Z"/><path d="M370.076 404.28C371.121 396.982 374.265 390.145 379.127 384.601C388.564 373.68 402.867 369.237 416.829 368.214C425.896 367.676 435.718 369.505 443.786 373.74C456.052 380.178 463.963 392.711 467.893 405.6C460.993 398.734 454.086 392.3 446.489 386.206C448.216 389.713 449.724 392.803 450.463 396.683C452.085 405.192 450.838 415.111 445.761 422.276C442.633 426.691 438.196 429.74 432.782 430.481C426.268 431.372 420.783 428.687 415.723 424.906C411.999 421.409 409.308 417.7 407.839 412.737C404.357 400.976 408.413 389.149 414.199 378.847C395.604 383.37 388.243 389.695 376.829 404.634L370.076 404.28ZM414.263 383.538C412.198 385.479 410.99 387.336 410.911 390.251C410.837 393.001 411.645 395.755 413.612 397.741C414.967 399.109 416.967 400.035 418.914 399.922C419.662 399.879 420.289 399.799 420.997 399.583C423.183 397.167 424.813 394.938 424.706 391.541C424.632 389.222 423.803 387.079 422.005 385.559C419.664 383.578 417.474 383.303 414.511 383.522L414.263 383.538ZM441.211 409.265C439.557 412.328 438.356 415.112 434.794 416.264C431.719 417.259 427.815 416.071 424.893 415.012C423.968 413.555 422.934 411.294 421.337 410.547C420.627 411.562 420.885 413.256 421.082 414.451C421.12 414.683 421.174 414.911 421.22 415.141C422.986 418.133 424.599 419.767 428.055 420.64C431.528 421.517 435.756 421.29 438.794 419.22C440.598 417.99 441.734 416.284 441.976 414.098C442.153 412.497 441.874 410.724 441.211 409.265Z"/><path d="M375.412 377.086L375.734 376.771L375.412 377.086Z"/><path d="M458.774 376.739L459.066 377.076L458.774 376.739Z"/><path d="M239.364 377.526L239.766 378.053L239.364 377.526Z"/><path d="M374.834 377.646L375.412 377.086L374.834 377.646Z"/><path d="M459.066 377.076L459.422 377.427L459.066 377.076Z"/><path d="M374.338 378.098L374.834 377.646L374.338 378.098Z"/><path d="M373.828 378.606L374.338 378.098L373.828 378.606Z"/><path d="M373.342 379.107L373.828 378.606L373.342 379.107Z"/><path d="M373.002 379.458L373.342 379.107L373.002 379.458Z"/><path d="M567.611 380.498L567.859 380.206L567.611 380.498Z"/><path d="M645.236 419.91L645.497 419.621L645.236 419.91Z"/><path d="M582.686 430.894C584.4 428.509 615.453 426.369 620.472 425.492C628.69 424.055 636.613 421.582 644.754 420L645.236 419.91C631.092 431.962 600.616 432.001 582.686 430.894Z"/><path d="M387.813 426.892L387.502 426.624L387.813 426.892Z"/><path d="M387.813 426.892C404.151 428.892 420.244 433.279 436.651 435.33C439.162 435.644 450.334 435.935 451.798 437.034C448.365 437.981 444.274 437.729 440.715 437.754C424.018 437.869 404.17 436.552 389.436 427.981C388.873 427.651 388.331 427.288 387.813 426.892Z"/><path d="M500.937 515.579C494.644 508.423 485.834 490.954 489.941 481.356C492.611 475.114 497.695 470.456 499.781 463.761C502.143 456.182 501.607 448.198 501.673 440.365C503.316 447.497 504.836 460.288 503.155 467.431C502.585 469.853 501.303 472.25 499.945 474.324C498.293 476.847 494.973 480.385 494.253 483.237C492.01 492.117 509.773 515.806 514.302 523.941L513.98 524.599C513.366 524.83 513.361 524.869 512.594 524.944C505.96 525.595 489.143 515.961 483.734 511.893C481.48 510.084 479.016 508.001 477.384 505.594C475.886 503.386 475.184 499.789 475.711 497.17C476.783 497.577 476.493 497.346 477.247 498.027C484.699 504.756 492.544 510.119 500.937 515.579Z"/><path d="M686.503 447.875L686.756 447.576L686.503 447.875Z"/><path d="M630.765 464.757L629.633 465.568L628.874 465.247C628.706 463.931 628.799 463.298 629.489 462.137C632.585 456.931 638.682 453.546 644.376 452.064C645.235 452.127 646.074 452.329 646.919 452.493L647.425 453.287C645.589 456.864 635.003 461.659 631.264 464.386L630.765 464.757Z"/><path d="M638.379 471.085L637.464 470.289C637.331 468.969 637.448 468.372 638.141 467.221C641.145 462.234 648.023 457.754 653.595 456.548L654.371 456.978L654.334 458.093C651.115 462.346 642.885 467.464 638.379 471.085Z"/><path d="M377.02 480.695C376.383 481.055 375.915 481.164 375.21 481.327L374.757 480.747C374.942 478.515 375.919 476.473 376.892 474.48C380.775 466.52 387.702 461.87 395.861 459.07C397.29 459.043 398.122 458.771 399.35 459.582C399.38 462.07 395.702 463.31 393.794 464.57C386.889 469.13 382.11 474.21 377.02 480.695Z"/><path d="M391.739 476.194C390.834 476.739 390.059 477.073 389.047 477.372L388.643 476.611C388.846 475.862 389.085 475.244 389.547 474.611C392.999 469.892 398.127 466.672 403.878 465.613C405.719 465.506 408.095 465.393 409.596 466.496C408.11 468.135 404.354 468.933 402.238 469.988C398.627 471.788 395.176 474.081 391.739 476.194Z"/><path d="M511.569 474.307L511.274 474.338C508.98 474.596 507.133 474.172 504.925 473.654C507.387 473.4 509.303 473.151 511.569 474.307Z"/><path d="M512.623 480.269C507.622 478.499 503.083 479.998 498.125 479.086L498.488 478.408C500.715 476.694 503.206 476.232 505.877 475.559C512.563 475.584 516.866 479.389 521.317 483.871C518.466 482.529 515.566 481.392 512.623 480.269Z"/><path d="M536.612 510.911C534.271 511.382 532.633 513.089 530.324 513.732L529.906 513.191C530.176 512.309 530.462 511.59 530.951 510.796C532.888 507.652 537.63 506.454 540.992 505.572C543.116 505.527 545.844 505.501 547.817 506.386C548.955 506.897 549.576 507.313 550.093 508.475C550.001 508.59 549.925 508.721 549.817 508.822C547.838 510.663 539.436 510.617 536.612 510.911Z"/><path d="M455.466 551.915C460.428 551.467 465.558 551.772 470.542 551.772C480.339 551.771 490.196 551.758 499.985 551.368C539.433 549.796 571.245 544.564 609.305 534.043C609.597 533.96 609.912 534.049 610.214 534.07C609.942 536.415 607.657 539.539 606.44 541.634C595.471 560.508 574.647 572.738 554.015 578.052C525.441 585.412 497.863 581.38 472.495 566.536C466.19 562.45 459.888 558.097 455.466 551.915ZM580.557 546.174C566.462 548.625 552.6 551.969 538.371 553.745C520.78 555.939 503.384 555.964 485.722 556.495C486.037 560.504 486.423 564.521 486.646 568.535L495.125 571.652C520.267 579.578 549.454 578.309 573.119 566.081C577.263 563.924 581.212 561.412 584.921 558.574C584.307 555.842 582.88 547.751 580.557 546.174Z"/><path d="M513.775 600.928C532.894 603.448 543.902 602.14 562.145 595.621L557.733 600.001C549.944 605.687 541.695 610.753 531.602 609.093C525.561 608.099 518.441 604.858 513.775 600.928Z"/><path d="M513.775 600.928L513.503 600.625L513.775 600.928Z"/><path d="M439.923 644.321L439.624 644.003L439.923 644.321Z"/><path d="M439.923 644.321C444.108 650.49 446.892 658.502 449.707 665.389C457.207 683.743 463.517 702.303 470.149 720.964C477.089 740.026 484.394 758.953 492.059 777.735C497.281 790.738 503.14 804.076 509.599 816.522C512.729 822.555 516.941 828.57 519.695 834.688C515.636 831.286 511.954 824.94 508.978 820.525C502.174 810.429 496.63 799.535 491.2 788.656C471.592 749.377 457.988 708.395 446.124 666.254C444.118 659.129 440.916 651.63 439.923 644.321Z"/><path d="M519.695 834.688L520.061 835.162L519.695 834.688Z"/><path d="M520.061 835.162L520.724 836.255L520.061 835.162Z"/><path d="M520.724 836.255L521.086 836.601L520.724 836.255Z"/><path d="M521.086 836.601L521.389 836.997L521.086 836.601Z"/></svg>