<?xml version="1.0" encoding="utf-8" ?><svg xmlns="http://www.w3.org/2000/svg" xmlns:xlink="http://www.w3.org/1999/xlink" width="1024" height="1024" viewBox="0 0 1024 1024"><path fill="#FEFEFE" d="M0 0L1024 0L1024 1024L0 1024L0 0ZM568.029 46.5015C557.616 55.4255 552.076 84.0677 548.552 97.8287C535.11 99.9756 521.699 101.633 508.318 104.267C500.49 94.6486 465.787 56.0194 454.563 55.165C453.143 55.0568 451.727 55.4344 450.748 56.5175C444.581 63.3412 449.012 97.7167 450.422 107.693C451.503 115.363 452.773 123.006 454.23 130.614C455.485 137.025 457.167 143.527 457.69 150.039L455.373 155.093C456.069 156.526 456.724 157.947 457.635 159.261C456.507 165.721 454.411 170.576 448.894 174.558C444.053 178.052 438.432 179.698 432.626 180.717C430.371 181.112 427.869 181.342 425.741 182.217C424.259 182.826 423.645 183.474 423.033 184.925C423.455 187.757 426.218 190.313 428.433 191.932C431.752 194.359 435.438 195.023 439.367 195.841L438.817 196.159C433.155 199.364 421.243 199.904 419.161 203.223C419.211 204.602 419.398 205.163 420.423 206.142C424.877 210.397 432.7 211.832 438.564 212.419C434.554 214.02 423.922 216.539 421.983 220.571C421.612 221.342 421.838 221.853 421.946 222.663C424.763 226.631 430.833 227.701 435.285 228.9C433.322 230.414 424.566 235.782 424.265 238.029C424.085 239.378 424.345 240.901 425.221 241.976C426.837 243.961 460.674 246.91 466.677 248.193C465.867 250.328 465.114 252.508 464.196 254.598C454.461 256.54 444.467 258.206 435.02 261.282C413.14 268.405 397.251 284.994 384.782 303.718C374.407 319.298 366.582 336.292 359.049 353.371C346.522 381.77 335.94 410.583 325.459 439.769C319.218 441.066 301.82 443.35 298.47 448.569C297.478 450.113 297.86 452.04 298.087 453.794C298.865 459.787 300.954 465.986 302.471 471.846L308.614 496.42L324.704 556.532C328.648 571.683 332.095 587.203 336.663 602.169C337.323 604.331 338.522 608.935 340.298 610.283C346.769 612.48 414.761 590.753 428.125 588.672C425.589 594.098 421.718 598.883 418.053 603.588C404.399 621.114 391.35 631.784 370.135 639.402C353.234 645.471 335.578 647.164 317.727 647.056C316.395 638.4 317.873 625.849 310.1 620.084C302.904 614.747 282.192 609.242 273.216 608.016C268.153 607.324 262.781 607.13 257.724 607.995C249.519 609.397 245.539 614.629 240.021 620.076C224.747 616.427 202.549 614.997 188.535 623.64C176.392 631.129 168.187 664.189 165.208 678.107C162.709 689.783 161.399 700.887 165.44 712.324C161.769 729.11 156.882 757.867 158.814 774.82C159.393 779.897 160.857 785.141 163.582 789.498C166.315 793.868 170.204 797.519 174.378 800.491C187.867 810.096 203.534 817.32 218.414 824.493C238.945 834.39 259.318 843.8 280.496 852.235C287.128 854.877 294.055 858.392 301.016 860.008C309.208 861.91 347.471 859.811 356.249 857.199C365.703 841.699 368.25 776.873 371.247 755.381C376.307 753.753 381.358 750.059 385.834 747.178C406.085 734.141 421.071 720.714 433.767 699.834C432.09 721.015 429.341 742.132 426.998 763.248C423.957 791.69 420.746 820.113 417.368 848.517C415.85 860.577 414.192 872.62 412.392 884.642C411.15 893.208 409.623 901.901 409.198 910.553C411.827 911.369 415.092 911.867 417.405 913.331C417.475 914.553 417.319 915.116 416.509 916.077C413.231 919.974 406.583 922.535 402.024 924.591C393.005 928.656 383.889 932.981 374.512 936.144C358.884 941.416 327.444 944.242 327.928 966.377C327.996 969.465 328.784 972.676 331.118 974.847C338.196 981.433 358.757 979.685 368.243 979.024C375.3 978.539 382.311 977.532 389.219 976.011C404.488 972.791 419.52 968.004 434.413 963.384C442.174 960.977 450.537 958.89 457.93 955.514C461.123 954.056 464.557 952.081 466.861 949.408C471.066 944.529 470.795 937.696 470.165 931.695C469.698 927.246 469.418 922.56 466.087 919.22L465.119 918.969C465.302 917.728 465.675 917.261 466.493 916.326C471.802 913.586 483.592 915.724 489.877 915.477C497.968 895.043 503.15 872.843 509.149 851.692L547.726 711.06L560.403 663.456C562.587 655.346 564.475 647.024 567.212 639.086C568.853 666.268 565.003 694.474 562.418 721.54C557.466 773.395 551.682 828.09 541.375 879.055C540.118 885.363 538.745 891.648 537.257 897.906C536.417 901.381 534.773 905.652 534.572 909.178C534.498 910.47 534.762 911.432 535.712 912.318C538.731 915.136 550.85 913.254 551.42 915.697C551.657 916.71 551.202 917.695 550.55 918.389L549.826 918.558C547.302 919.168 545.832 919.524 544.415 921.813C540.448 928.221 540.828 942.334 542.581 949.49C543.191 951.977 544.908 953.749 547.075 955.033C549.536 956.492 552.086 956.974 554.888 957.242C567.565 958.455 580.785 957.135 593.538 957.28C619.628 957.577 645.633 959.313 671.736 958.05C679.187 957.69 687.013 957.616 694.222 955.507C698.76 954.18 702.788 951.966 705.009 947.59C706.811 944.038 706.84 939.971 705.493 936.26C703.449 930.629 698.124 926.833 692.817 924.523C676.204 917.293 647.392 918.444 628.488 917.344C616.605 916.652 604.799 915.458 592.952 914.337C589.227 913.985 585.461 914.009 581.756 913.584C590.812 911.312 601.165 911.815 609.802 908.512C623.909 863.724 630.867 816.548 637.93 770.256C646.081 718.321 653.249 666.236 659.429 614.029L666.705 551.534C667.935 541.319 668.662 530.751 670.708 520.67C672.319 520.104 673.972 519.588 675.542 518.919C678.722 511.563 679.612 503.52 681.189 495.72C685.405 505.752 700.982 544.591 706.448 550.192C711.081 551.765 715.511 548.737 719.888 547.477C721.133 549.103 722.881 551.961 725.063 552.303C729.296 552.966 745.607 545.379 750.427 543.345C758.504 549.44 776.179 548.937 785.765 547.615C795.081 546.33 805.095 543.014 811.056 535.292C814.342 531.037 815.981 525.76 815.289 520.393C815.097 518.904 814.685 517.448 814.28 516.006C823.237 512.396 858.71 497.93 863.908 492.629C864.416 490.173 863.912 487.363 863.425 484.921C862.021 477.88 859.931 470.893 858.122 463.941L847.18 422.447C842.247 403.685 838.322 384.437 832.534 365.942C831.681 363.216 830.724 360.577 829.176 358.161C826.85 357.212 824.071 358.49 821.89 359.397C818.135 360.959 814.525 362.854 810.717 364.289C809.302 361.089 808.018 357.333 805.884 354.57C800.133 353.355 791 362.654 785.277 361.737C785.05 360.898 784.986 361.225 785.389 360.43C786.069 359.09 787.848 358.019 789.05 357.122C787.89 352.753 786.073 340.741 782.027 338.421C780.92 337.786 779.469 338.001 778.314 338.403C772.585 340.399 766.862 344.459 761.28 347.082C760.614 344.298 759.843 338.263 757.013 336.738C755.189 335.755 753.295 336.419 751.5 337.154C741.477 341.256 729.417 350.325 718.946 355.321L704.471 315.895C694.383 288.868 688.582 272.129 660.403 258.923C645.845 252.1 630.166 248.645 614.486 245.542C650.768 238.479 683.344 219.813 704.298 188.831C707.018 184.808 709.795 180.62 712.16 176.389C711.403 172.898 710.936 169.765 707.718 167.637C700.744 163.024 665.827 166.683 655.96 167.548C654.316 160.404 652.816 145.882 646.584 141.731C642.158 138.783 636.013 139.727 631 140.138C625.407 134.784 620.533 128.748 614.864 123.477C609.068 118.089 602.548 113.519 596.78 108.159C594.682 94.9357 583.543 55.3035 573.15 47.3769C571.49 46.1111 569.985 46.2321 568.029 46.5015Z"/><path fill="#212121" d="M548.552 97.8287C552.076 84.0677 557.616 55.4255 568.029 46.5015C569.985 46.2321 571.49 46.1111 573.15 47.3769C583.543 55.3035 594.682 94.9357 596.78 108.159C602.548 113.519 609.068 118.089 614.864 123.477C620.533 128.748 625.407 134.784 631 140.138C636.013 139.727 642.158 138.783 646.584 141.731C652.816 145.882 654.316 160.404 655.96 167.548C665.827 166.683 700.744 163.024 707.718 167.637C710.936 169.765 711.403 172.898 712.16 176.389C709.795 180.62 707.018 184.808 704.298 188.831C683.344 219.813 650.768 238.479 614.486 245.542C630.166 248.645 645.845 252.1 660.403 258.923C688.582 272.129 694.383 288.868 704.471 315.895L718.946 355.321C729.417 350.325 741.477 341.256 751.5 337.154C753.295 336.419 755.189 335.755 757.013 336.738C759.843 338.263 760.614 344.298 761.28 347.082C766.862 344.459 772.585 340.399 778.314 338.403C779.469 338.001 780.92 337.786 782.027 338.421C786.073 340.741 787.89 352.753 789.05 357.122C787.848 358.019 786.069 359.09 785.389 360.43C784.986 361.225 785.05 360.898 785.277 361.737C791 362.654 800.133 353.355 805.884 354.57C808.018 357.333 809.302 361.089 810.717 364.289C814.525 362.854 818.135 360.959 821.89 359.397C824.071 358.49 826.85 357.212 829.176 358.161C830.724 360.577 831.681 363.216 832.534 365.942C838.322 384.437 842.247 403.685 847.18 422.447L858.122 463.941C859.931 470.893 862.021 477.88 863.425 484.921C863.912 487.363 864.416 490.173 863.908 492.629C858.71 497.93 823.237 512.396 814.28 516.006C814.685 517.448 815.097 518.904 815.289 520.393C815.981 525.76 814.342 531.037 811.056 535.292C805.095 543.014 795.081 546.33 785.765 547.615C776.179 548.937 758.504 549.44 750.427 543.345C745.607 545.379 729.296 552.966 725.063 552.303C722.881 551.961 721.133 549.103 719.888 547.477C715.511 548.737 711.081 551.765 706.448 550.192C700.982 544.591 685.405 505.752 681.189 495.72C679.612 503.52 678.722 511.563 675.542 518.919C673.972 519.588 672.319 520.104 670.708 520.67C668.662 530.751 667.935 541.319 666.705 551.534L659.429 614.029C653.249 666.236 646.081 718.321 637.93 770.256C630.867 816.548 623.909 863.724 609.802 908.512C601.165 911.815 590.812 911.312 581.756 913.584C585.461 914.009 589.227 913.985 592.952 914.337C604.799 915.458 616.605 916.652 628.488 917.344C647.392 918.444 676.204 917.293 692.817 924.523C698.124 926.833 703.449 930.629 705.493 936.26C706.84 939.971 706.811 944.038 705.009 947.59C702.788 951.966 698.76 954.18 694.222 955.507C687.013 957.616 679.187 957.69 671.736 958.05C645.633 959.313 619.628 957.577 593.538 957.28C580.785 957.135 567.565 958.455 554.888 957.242C552.086 956.974 549.536 956.492 547.075 955.033C544.908 953.749 543.191 951.977 542.581 949.49C540.828 942.334 540.448 928.221 544.415 921.813C545.832 919.524 547.302 919.168 549.826 918.558L550.55 918.389C551.202 917.695 551.657 916.71 551.42 915.697C550.85 913.254 538.731 915.136 535.712 912.318C534.762 911.432 534.498 910.47 534.572 909.178C534.773 905.652 536.417 901.381 537.257 897.906C538.745 891.648 540.118 885.363 541.375 879.055C551.682 828.09 557.466 773.395 562.418 721.54C565.003 694.474 568.853 666.268 567.212 639.086C564.475 647.024 562.587 655.346 560.403 663.456L547.726 711.06L509.149 851.692C503.15 872.843 497.968 895.043 489.877 915.477C483.592 915.724 471.802 913.586 466.493 916.326C465.675 917.261 465.302 917.728 465.119 918.969L466.087 919.22C469.418 922.56 469.698 927.246 470.165 931.695C470.795 937.696 471.066 944.529 466.861 949.408C464.557 952.081 461.123 954.056 457.93 955.514C450.537 958.89 442.174 960.977 434.413 963.384C419.52 968.004 404.488 972.791 389.219 976.011C382.311 977.532 375.3 978.539 368.243 979.024C358.757 979.685 338.196 981.433 331.118 974.847C328.784 972.676 327.996 969.465 327.928 966.377C327.444 944.242 358.884 941.416 374.512 936.144C383.889 932.981 393.005 928.656 402.024 924.591C406.583 922.535 413.231 919.974 416.509 916.077C417.319 915.116 417.475 914.553 417.405 913.331C415.092 911.867 411.827 911.369 409.198 910.553C409.623 901.901 411.15 893.208 412.392 884.642C414.192 872.62 415.85 860.577 417.368 848.517C420.746 820.113 423.957 791.69 426.998 763.248C429.341 742.132 432.09 721.015 433.767 699.834C421.071 720.714 406.085 734.141 385.834 747.178C381.358 750.059 376.307 753.753 371.247 755.381C368.25 776.873 365.703 841.699 356.249 857.199C347.471 859.811 309.208 861.91 301.016 860.008C294.055 858.392 287.128 854.877 280.496 852.235C259.318 843.8 238.945 834.39 218.414 824.493C203.534 817.32 187.867 810.096 174.378 800.491C170.204 797.519 166.315 793.868 163.582 789.498C160.857 785.141 159.393 779.897 158.814 774.82C156.882 757.867 161.769 729.11 165.44 712.324C161.399 700.887 162.709 689.783 165.208 678.107C168.187 664.189 176.392 631.129 188.535 623.64C202.549 614.997 224.747 616.427 240.021 620.076C245.539 614.629 249.519 609.397 257.724 607.995C262.781 607.13 268.153 607.324 273.216 608.016C282.192 609.242 302.904 614.747 310.1 620.084C317.873 625.849 316.395 638.4 317.727 647.056C335.578 647.164 353.234 645.471 370.135 639.402C391.35 631.784 404.399 621.114 418.053 603.588C421.718 598.883 425.589 594.098 428.125 588.672C414.761 590.753 346.769 612.48 340.298 610.283C338.522 608.935 337.323 604.331 336.663 602.169C332.095 587.203 328.648 571.683 324.704 556.532L308.614 496.42L302.471 471.846C300.954 465.986 298.865 459.787 298.087 453.794C297.86 452.04 297.478 450.113 298.47 448.569C301.82 443.35 319.218 441.066 325.459 439.769C335.94 410.583 346.522 381.77 359.049 353.371C366.582 336.292 374.407 319.298 384.782 303.718C397.251 284.994 413.14 268.405 435.02 261.282C444.467 258.206 454.461 256.54 464.196 254.598C465.114 252.508 465.867 250.328 466.677 248.193C460.674 246.91 426.837 243.961 425.221 241.976C424.345 240.901 424.085 239.378 424.265 238.029C424.566 235.782 433.322 230.414 435.285 228.9C430.833 227.701 424.763 226.631 421.946 222.663C421.838 221.853 421.612 221.342 421.983 220.571C423.922 216.539 434.554 214.02 438.564 212.419C432.7 211.832 424.877 210.397 420.423 206.142C419.398 205.163 419.211 204.602 419.161 203.223C421.243 199.904 433.155 199.364 438.817 196.159L439.367 195.841C435.438 195.023 431.752 194.359 428.433 191.932C426.218 190.313 423.455 187.757 423.033 184.925C423.645 183.474 424.259 182.826 425.741 182.217C427.869 181.342 430.371 181.112 432.626 180.717C438.432 179.698 444.053 178.052 448.894 174.558C454.411 170.576 456.507 165.721 457.635 159.261C456.724 157.947 456.069 156.526 455.373 155.093L457.69 150.039C457.167 143.527 455.485 137.025 454.23 130.614C452.773 123.006 451.503 115.363 450.422 107.693C449.012 97.7167 444.581 63.3412 450.748 56.5175C451.727 55.4344 453.143 55.0568 454.563 55.165C465.787 56.0194 500.49 94.6486 508.318 104.267C521.699 101.633 535.11 99.9756 548.552 97.8287ZM570.036 54.4159C564.75 64.3213 561.76 74.4958 559.232 85.3612C558.037 90.4958 557.236 96.6565 554.937 101.374C553.984 103.33 553.092 104.091 550.988 104.729C544.78 106.61 537.703 106.513 531.283 107.399C524.826 108.291 518.434 109.98 511.946 110.597C509.665 110.814 507.509 110.709 505.239 110.448C498.901 105.306 493.697 98.1878 488.3 92.0438C479.001 81.4566 467.555 70.5087 455.618 63.0419C452.561 93.209 459.979 122.845 465.251 152.351C468.138 152.506 471.107 152.542 473.972 152.907C494.242 154.085 514.434 155.779 534.681 157.247C536.437 153.313 538.703 151.62 542.732 150.103C550.868 147.042 582.82 143.445 590.425 146.942C593.74 148.466 596.024 152.409 597.662 155.512C600.206 154.967 602.724 154.411 605.312 154.116C605.832 150.535 606.556 147.03 609.631 144.737C613.184 142.088 618.858 142.298 623.096 142.056C616.584 134.306 609.375 127.171 601.558 120.739C598.043 117.897 593.641 115.562 590.445 112.433C589.482 107.329 588.669 102.145 587.389 97.1111C584.974 87.6114 577.034 60.5981 570.036 54.4159ZM639.095 146.21C633.223 146.685 618.071 146.281 614.079 150.882C612.799 152.358 612.407 154.451 612.634 156.348C612.937 158.885 615.3 169.197 617.34 170.723C618.902 171.892 621.058 171.142 622.747 170.719C631.579 169.735 640.426 168.886 649.285 168.172C648.236 163.794 645.222 148.36 641.401 146.412C640.709 146.059 639.838 146.174 639.095 146.21ZM578.51 151.724C572.752 152.069 543.924 154.142 541.303 157.597C539.011 160.617 541.63 169.915 542.4 173.336C543.322 177.435 544.825 182.529 548.611 184.898C550.667 186.184 552.816 186.022 555.122 185.734C564.624 184.892 584.701 180.681 593.133 176.896C595.231 170.243 593.677 162.828 590.409 156.719C589.344 154.73 587.852 152.72 585.565 152.135C583.391 151.579 580.76 151.734 578.51 151.724ZM464.8 159.156C463.225 167.778 460.332 174.808 452.831 180.069C446.446 184.547 439.004 185.707 431.513 187.109C435.798 188.301 453.304 190.352 455.007 192.17C455.034 193.501 454.822 194.013 453.855 194.973C449.623 199.18 438.65 203.267 432.956 205.721C438.819 206.625 453.924 205.758 457.171 207.218L457.8 208.136C457.389 209.787 456.321 210.642 454.923 211.513C451.93 213.378 448.345 214.297 445.145 215.773C440.876 217.743 436.948 220.238 432.454 221.712C440.805 223.239 449.055 222.054 457.123 223.291C458.075 223.437 458.638 223.599 459.36 224.276C459.853 225.636 459.809 226.322 459.625 227.71C456.993 230.134 449.338 229.639 445.814 229.774C442.181 232.511 438.653 235.237 434.551 237.257C443.176 238.74 451.929 239.353 460.602 240.502C483.179 243.491 518.423 249.709 537.843 261.214C547.367 266.856 555.817 274.984 562.163 284.036C565.03 288.125 567.614 292.458 570.284 296.679C571.826 285.696 578.288 263.964 584.417 254.996C587.519 250.818 591.241 246.378 595.961 243.979C603.826 239.981 613.366 239.117 621.838 236.922C648.694 229.964 675.538 215.878 692.39 193.19C686.908 192.423 682.496 191.043 678.884 186.492C675.688 182.465 675.025 177.874 675.271 172.893C664.156 173.484 653.052 174.269 641.964 175.249C634.504 175.96 626.144 177.67 618.681 177.169C615.786 176.975 613.428 176.598 611.268 174.55C607.633 171.104 606.688 161.413 603.637 161.598C602.612 161.66 602.158 161.983 601.325 162.525C599.566 165.125 600.551 169.055 600.693 172.027C600.866 175.641 599.809 179.379 596.989 181.807C591.345 186.666 570.973 189.236 563.194 190.75C556.854 191.983 549.416 193.163 543.792 189.107C537.017 184.219 535.674 171.847 534.062 164.113C526.242 163.088 518.257 162.806 510.386 162.284C495.185 161.335 479.989 160.292 464.8 159.156ZM601.535 248.429C591.131 254.586 584.532 265.376 581.57 276.945C581.332 277.879 581.111 278.818 580.908 279.76C585.243 281.988 588.12 285.857 591.099 289.59L595.745 295.812C598.861 286.303 606.574 257.902 603.492 248.829C602.644 248.384 602.579 248.397 601.535 248.429ZM472.535 248.889C471.767 252.674 471.104 256.536 470.137 260.275C482.239 276.814 514.608 298.305 532.159 309.396C535.081 305.883 537.566 302.036 540.122 298.254C544.321 292.696 548.96 287.634 553.854 282.686C548.98 277.716 544.003 272.93 538.18 269.063C519.316 256.537 494.408 252.852 472.535 248.889ZM435.458 268.541C406.656 277.47 388.051 310.306 374.831 335.372C364.87 354.259 357.384 374.926 349.557 394.782C344.567 407.44 339.827 420.091 335.347 432.94C333.167 439.194 330.663 445.511 329.107 451.952C336.981 459.658 345.915 461.58 356.65 461.516L357.297 461.509C368.018 461.213 376.774 458.899 386.798 455.206C397.526 437.959 408.191 420.768 419.34 403.785C439.761 372.68 470.493 335.958 461.261 296.032C459.134 286.832 453.398 275.717 444.996 270.8C442.055 269.08 438.855 268.339 435.458 268.541ZM663.833 269.959C664.565 280.673 665.924 291.343 666.967 302.03C668.409 316.794 669.44 331.577 670.615 346.362C671.527 357.837 672.683 369.245 673.117 380.756C681.455 376.933 689.909 372.201 697.74 367.42C702.484 364.7 707.534 362.146 711.988 358.98C707.827 346.734 703.218 334.684 698.767 322.544C694.376 310.566 690.604 296.892 683.298 286.328C678.64 279.532 672.299 274.061 664.895 270.449C664.544 270.278 664.193 270.109 663.833 269.959ZM608.681 272.362L608.56 272.786C605.783 282.79 605.303 296.088 598.476 304.343C597.2 304.825 596.944 304.969 595.614 304.379C592.069 302.804 585.91 291.769 580.092 288.115C579.182 294.702 579.313 303.831 576.53 309.799C575.499 310.526 574.53 311.056 573.398 311.594C572.117 316.561 575.515 340.747 576.411 347.472C576.667 352.119 575.998 363.979 579.346 367.29C579.994 367.931 580.282 367.828 581.125 367.958C586.081 365.861 592.141 350.246 594.384 344.726C596.825 338.717 599.129 332.611 600.878 326.361C603.844 315.762 610.718 283.276 608.681 272.362ZM556.7 288.367C550.887 294.175 546.058 300.702 541.316 307.387C539.175 310.405 537.047 314.268 534.405 316.832C525.726 312.538 517.525 307.338 509.941 301.318C518.511 314.211 527.168 326.459 538.193 337.402C548.081 346.801 559.201 357.407 571.145 364.088C569.996 346.66 567.598 329.258 566.863 311.835C563.557 308.229 558.48 294.166 557.149 288.822L556.7 288.367ZM753.172 343.011C726.526 357.918 700.3 373.761 673.419 388.24C673.662 390.289 673.846 396.706 675.102 397.983C684.213 391.911 693.932 386.803 703.474 381.448L732.669 364.718C739.696 360.722 747.633 357.219 753.914 352.109C754.263 349.256 754.915 345.908 753.658 343.219L753.172 343.011ZM778.554 345.049C772.486 348.023 765.499 350.769 760.082 354.842C761.383 357.549 762.731 360.083 764.364 362.608C769.925 359.554 775.53 356.58 781.177 353.689C780.617 351.13 780.243 347.085 778.554 345.049ZM458.203 355.338C453.078 364.014 448.479 372.892 443.012 381.381C440.623 385.09 424.397 407.402 424.354 409.303L425.435 409.39C437.124 406.844 448.641 403.421 460.131 400.108C459.073 390.514 458.89 380.753 458.678 371.107C458.583 366.8 459.353 359.241 458.203 355.338ZM754.015 359.933C739.199 367.977 724.797 376.679 710.146 385.007C700.914 390.253 691.307 395.016 682.197 400.438C682.895 403.236 683.552 408.637 686.053 410.361C686.844 410.247 687.036 410.222 687.714 409.743C711.16 395.432 736.502 384.142 760.106 370.139C759.045 366.189 757.615 362.287 754.015 359.933ZM778.715 360.999C775.829 362.429 767.681 365.559 766.385 368.268L767.067 368.534C770.067 367.026 778.303 364.431 779.369 361.49L778.715 360.999ZM799.217 362.898C793.848 364.906 787.051 370.586 781.947 369.362C780.225 368.949 779.074 369.137 777.409 369.701C770.954 371.888 764.552 375.598 758.429 378.626C737.445 389.002 717.38 401.114 696.523 411.71C697.874 414.716 699.367 417.463 701.116 420.256L702.129 421.218C704.949 420.635 728.305 406.902 732.719 404.447C746.462 396.807 760.137 389.109 774.141 381.947C783.384 377.22 792.981 373.071 802.117 368.161C801.664 366.425 801.365 364.561 800.164 363.174L799.217 362.898ZM824.475 365.011C816.014 368.039 808.386 372.495 800.316 376.365C791.747 380.473 783.017 384.353 774.605 388.774C755.246 398.95 736.12 410.378 716.667 420.242C718.712 424.695 721.191 428.918 723.897 433.002C724.503 433.397 724.822 433.858 725.584 433.691C728.273 433.101 737.926 426.378 741.059 424.594L796.163 393.691C806.661 387.815 817.719 379.972 829.206 376.433C828.455 373.651 827.356 366.738 825.338 364.864L824.475 365.011ZM578.021 389.436C576.25 390.407 575.525 392.579 576.357 394.42C577.189 396.261 579.298 397.151 581.198 396.464C582.564 395.969 583.538 394.75 583.719 393.308C583.899 391.867 583.257 390.445 582.055 389.628C580.854 388.812 579.296 388.737 578.021 389.436ZM502.111 396.597C489.109 399.734 476.259 403.44 463.286 406.689C448.422 410.412 432.954 413.744 418.477 418.711C413.181 424.746 393.795 455.431 391.076 462.571C388.213 470.091 389.177 476.711 384.897 485.344C388.783 491.052 392.289 496.99 396.384 502.56C406.851 516.794 424.807 536.649 442.747 540.568C444.246 540.896 445.818 541.044 447.343 541.182L448.184 541.196C456.952 541.291 473.723 537.019 480.639 543.637C482.379 545.302 483.082 547.643 483.068 550.005C483.052 552.571 482.198 554.517 480.341 556.282C479.065 557.495 477.387 558.363 475.851 559.205C491.239 558.382 506.113 554.264 520.944 550.345C526.815 548.794 532.772 546.951 538.763 545.967C536.985 538.025 534.753 530.204 532.868 522.29C525.146 490.951 517.808 459.519 510.857 428C509.706 422.834 505.845 399.513 503.639 396.656L502.111 396.597ZM534.477 396.66C529.327 397.596 524.207 398.683 519.121 399.922C517.427 399.261 516.065 398.62 514.223 398.791C513.046 399.504 512.963 399.549 512.431 400.81C513.568 412.545 518.282 428.398 520.926 440.409C528.672 474.883 536.803 509.269 545.319 543.561L549.522 541.464C539.37 494.94 528.965 448.472 518.308 402.061L533.243 399.71C535.105 410.432 537.157 421.12 539.399 431.768L553.285 499.313C555.484 510.121 558.744 521.453 559.708 532.418L554.902 534.569C555.504 538.011 556.27 541.507 556.637 544.978C549.137 548.403 544.265 552.166 536.086 554.514C544.975 556.367 565.564 560.614 573.28 555.292C580.575 550.26 583.408 536.717 584.698 528.517C577.385 529.072 570.056 529.748 562.734 530.135C558.825 503.693 552.194 477.271 546.647 451.112C543.176 434.74 540.695 418.119 537.077 401.793C536.694 400.063 536.409 398.267 535.295 396.842L534.477 396.66ZM581.825 429.84C579.857 430.771 579.023 433.124 579.966 435.086C580.908 437.047 583.267 437.866 585.223 436.912C587.161 435.965 587.972 433.632 587.037 431.688C586.103 429.743 583.774 428.918 581.825 429.84ZM321.155 447.593C316.783 448.53 309.038 449.067 305.693 452.121C303.819 455.699 308.764 468.631 309.833 472.861L310.337 474.379C312.981 472.14 311.527 458.28 321.274 449.86C321.987 449.244 322.205 449.089 322.451 448.218L322.039 447.594L321.155 447.593ZM323.425 455.766C319.785 462.22 315.444 473.324 317.374 480.82C318.505 485.213 321.907 488.461 325.751 490.631C337.033 496.998 353.946 496.385 365.996 492.776C369.397 491.757 372.24 490.401 375.219 488.475C380.37 482.494 382.838 471.467 383.246 463.777C367.17 468.136 346.037 472.145 330.886 462.592C328.158 460.872 325.948 457.091 323.425 455.766ZM586.449 469.753C584.537 470.486 583.569 472.62 584.276 474.542C584.984 476.464 587.105 477.46 589.037 476.778C590.309 476.328 591.241 475.229 591.476 473.9C591.711 472.572 591.213 471.22 590.172 470.361C589.131 469.502 587.709 469.27 586.449 469.753ZM787.391 487.12L787.594 487.646C789.935 493.602 799.249 510.294 796.885 515.965C795.951 516.902 795.942 516.988 794.641 517.139C790.049 514.727 788.386 496.878 773.242 488.102L773.539 488.738C776.364 494.686 787.93 509.646 786.427 515.992C786.072 517.488 785.539 517.71 784.317 518.403C782.979 518.468 782.436 518.396 781.288 517.693C779.251 514.931 778.682 511.507 777.076 508.518C774.912 504.489 767.486 495.787 762.691 495.3C762.536 495.284 762.379 495.309 762.223 495.314C761.819 496.182 761.824 495.786 762.136 496.742C764.169 502.967 775.392 511.602 772.087 520.216C772.018 520.397 771.925 520.569 771.843 520.745C770.36 520.535 769.192 520.592 768.146 519.358C764.251 514.762 758.579 502.338 752.002 501.146C751.051 500.973 750.674 501.22 749.785 501.507C749.701 501.896 749.53 502.275 749.533 502.672C749.538 503.8 758.275 523.269 759.423 526.963C760.767 531.269 761.496 535.744 761.587 540.254C773.903 541.757 791.067 542.922 801.569 535.001C805.153 532.299 807.752 528.406 808.313 523.9C809.581 513.726 801.168 500.304 795.016 492.844C792.966 490.358 790.76 487.476 787.391 487.12ZM314.416 490.424C316.867 505.346 322.397 520.234 326.263 534.88L337.716 578.687C339.847 586.931 341.713 595.358 344.201 603.496C363.776 599.536 383.429 593.665 402.605 588.071C408.217 586.574 413.855 585.139 419.446 583.569C391.212 566.944 361.637 548.735 342.068 521.794C336.667 514.359 332.4 506.414 328.179 498.285C322.35 497.008 318.742 494.274 314.416 490.424ZM380.951 492.194C370.01 501.245 353.663 502.777 340.022 501.519C339.319 501.454 338.616 501.382 337.914 501.303C355.999 536.55 388.632 557.153 421.492 576.851C432.563 583.488 444.155 591.205 456.51 595.143C461.15 596.622 466.006 597.007 470.516 594.855L470.758 594.112C466.01 590.19 457.193 591.878 453.411 585.863C453.373 584.646 453.341 584.025 454.308 583.089C454.603 582.803 455.116 582.603 455.49 582.436C472.595 587.913 483.882 589.33 500.755 581.291C502.237 580.236 503.58 579.464 504.351 577.769C504.234 576.517 504.321 576.462 503.418 575.611C499.634 575.178 496.142 577.883 492.526 578.674C485.945 580.114 462.506 582.287 458.099 576.043C457.605 575.343 457.741 574.803 457.712 573.987C458.475 572.661 458.996 571.819 460.32 570.955C463.483 571.386 466.285 573.039 469.405 573.515C476.195 574.552 492.622 574.031 498.161 569.646C498.93 569.038 499.014 568.589 499.411 567.723C499.138 566.21 498.989 566.039 497.947 564.893C493.178 563.016 484.673 565.104 479.493 565.355C472.57 565.691 458.914 564.921 453.413 560.329L453.43 559.134C457.857 554.911 476.404 555.707 476.598 548.926C474.827 547.002 471.767 546.931 469.249 546.833C462.952 546.589 456.688 547.889 450.394 547.899C430.993 547.93 416.157 535.253 403.523 521.727C398.22 516.048 393.132 509.892 388.619 503.568C386.195 500.171 383.938 494.916 380.951 492.194ZM802.562 492.41C804.643 495.821 809.817 506.291 812.759 507.696C813.965 507.26 814.867 506.836 815.944 506.109C817.198 503.587 817.843 501.307 816.891 498.537C816.075 496.159 814.05 494.718 811.846 493.722C808.911 492.394 805.728 492.388 802.562 492.41ZM662.536 522.749C639.732 526.343 616.243 526.968 593.213 528.355C594.705 534.893 596.485 541.028 599.057 547.242C600.152 549.115 600.987 550.441 603.205 551.049C611.664 553.371 642.495 545.173 649.871 540.504C655.81 536.746 661.194 531.311 662.657 524.202C662.884 523.098 662.98 523.522 662.536 522.749ZM434.271 591.773C419.621 619.554 396.534 638.742 366.582 648.102C356.95 651.112 347.401 651.781 337.541 653.253C348.949 658.179 365.683 662.474 370.677 675.145C375.015 686.149 373.961 713.891 373.091 726.075C372.611 733.378 371.64 740.848 371.57 748.148C377.756 743.773 384.363 740.091 390.623 735.841C406.324 725.183 418.539 711.932 428.096 695.584C431.341 690.032 434.984 684.38 436.082 677.938C437.792 667.9 438.126 657.38 439.308 647.241C440.586 636.727 441.793 626.204 442.927 615.673C443.581 609.665 444.514 603.517 444.555 597.467C441.155 595.589 437.551 593.839 434.271 591.773ZM260.555 619.391C258.566 621.111 256.564 622.816 254.549 624.506C269.338 628.191 284.439 633.59 298.626 639.182C300.171 639.73 300.924 640.287 302.524 639.818C303.962 637.498 302.787 633.307 302.43 630.692C290.465 624.696 274.136 619.164 260.555 619.391ZM206.594 625.18C200.188 626.075 192.652 627.545 188.409 632.91C179.57 644.085 168.214 688.572 170.061 702.251C170.967 708.962 174.175 713.558 179.539 717.468C188.367 723.905 212.683 734.943 223.563 737.494C225.031 732.684 226.959 717.757 231.087 715.538C233.23 714.386 235.573 715.11 237.699 715.866C240.364 716.815 244.259 717.714 245.766 720.288C246.371 727.283 242.634 737.701 241.16 744.795L250.28 748.023C257.669 750.406 271.426 756.505 278.964 752.738C287.16 748.642 290.25 736.92 292.661 728.864C298.995 707.706 303.545 686.085 309.292 664.784C303.479 659.63 296.016 655.266 289.088 651.813C276.527 645.554 262.816 641.043 249.64 636.25C239.365 632.512 228.475 628 217.814 625.686C214.403 624.946 211.218 624.735 207.744 625.021C207.195 625.066 207.072 625.096 206.594 625.18ZM308.168 655.526C312.662 659.205 314.484 661.729 316.134 667.372C320.728 664.823 330.251 661.153 335.465 662.456C336.655 663.601 336.76 664.956 336.798 666.54C337.006 674.996 333.943 684.805 332.382 693.108C329.999 706.288 327.702 719.484 325.492 732.695C321.757 754.825 320.472 777.282 317.864 799.557L313.544 834.445C312.736 840.81 311.538 847.356 311.269 853.759C319.195 853.646 327.199 853.746 335.1 853.097C340.843 852.819 346.56 852.149 352.211 851.09C358.015 828.07 373.414 693.152 362.847 676.112C358.164 668.56 333.791 659.4 324.964 657.676C319.443 656.598 313.758 656.126 308.168 655.526ZM328.518 669.46C323.701 671.537 318.584 674.332 313.618 675.887C311.021 688.594 309.066 701.417 306.924 714.207C302.275 740.496 298.61 766.95 295.935 793.513C294.749 805.598 293.707 817.697 292.81 829.806C292.366 836.221 292.284 842.706 291.696 849.101L296.795 851.44L303.321 854.266C307.458 835.535 308.734 815.528 310.872 796.45C312.585 781.163 313.879 765.763 315.865 750.515C317.823 735.476 320.506 720.459 323.043 705.505C323.979 699.986 330.338 672.739 328.982 669.581L328.518 669.46ZM170.734 720.14C168.762 735.992 162.457 764.076 166.479 779.29C167.214 782.071 168.735 784.721 170.481 786.984C183.625 804.018 247.415 830.807 269.159 840.26C267.53 825.787 268.661 810.619 270.81 796.23C272.765 784.34 275.076 772.512 277.74 760.761C264.882 760.653 251.82 755.829 239.585 752.159C239.164 757.143 237.72 761.644 236.826 766.509C235.883 771.643 235.606 776.995 235.115 782.197C234.953 783.906 234.987 788.542 233.724 789.654C232.612 790.632 231.406 791.066 229.941 790.938C227.191 790.698 223.605 789.675 221.871 787.354C218.432 782.749 221.362 769.746 221.55 763.913C219.137 763.176 216.665 762.637 215.325 760.278C212.892 755.996 214.938 748.955 216.365 744.522C216.506 744.084 216.669 743.654 216.828 743.223C206.589 738.622 196.117 734.246 186.175 729.035C181.048 726.348 176.001 722.377 170.734 720.14ZM293.789 747.382C291.322 751.048 288.827 754.098 285.577 757.11C280.696 779.383 271.345 821.617 277.606 843.381L278.124 843.846L284.386 845.986C285.798 825.05 287.607 804.143 289.812 783.276C290.814 774.209 294.306 755.345 293.789 747.382ZM222.008 748.29C221.513 750.744 220.97 753.145 220.868 755.654C224.268 757.625 227.037 758.601 230.981 759.123C231.507 756.717 232.008 754.377 232.205 751.914C228.831 750.588 225.469 749.369 222.008 748.29ZM424.676 912.617C424.939 914.228 424.987 915.931 426.111 917.195C430.285 919.168 446.063 923.332 450.287 922.068C450.696 919.297 450.994 916.662 451.019 913.855C442.303 913.351 433.4 912.513 424.676 912.617ZM578.327 913.755C571.356 914.23 564.451 914.427 557.466 914.48C557.466 916.813 557.012 920.313 558.642 922.192C559.786 923.511 562.014 923.907 563.64 924.296C568.344 925.332 574.361 926.728 578.684 923.801C579.919 922.965 580.97 921.608 581.187 920.1C581.456 918.223 580.514 915.759 580.011 913.971C578.951 913.499 579.511 913.581 578.327 913.755ZM593.602 921.419C584.941 927.727 578.693 933.401 567.05 931.496C560.955 930.499 555.323 928.075 549.71 925.607C549.395 928.595 548.02 934.857 549.667 937.317C557.579 940.918 607.077 941.517 619.125 941.678C625.109 941.943 631.1 942.051 637.091 942.002C637.888 935.881 639.681 931.213 641.726 925.469C640.484 924.677 640.363 924.479 638.917 924.577C636.302 926.73 635.954 934.019 631.574 933.726C630.181 933.632 629.882 933.242 629.021 932.278C628.464 930.119 630.197 925.102 629.004 924.046C627.513 923.978 627.224 923.905 625.947 924.635C624.813 927.242 625.836 930.514 622.556 931.571C621.307 931.974 620.011 931.581 618.884 931.057C616.242 928.041 619.605 923.45 615.427 923.237C614.402 923.185 613.437 923.463 612.72 924.241C611.206 925.884 611.162 928.223 609.162 929.483C607.812 929.673 607.286 929.637 606.071 929.006C605.219 927.597 605.436 926.722 605.61 925.18C605.697 924.35 605.792 923.521 605.896 922.693C605.059 921.834 604.854 921.82 603.67 921.545C601.647 922.046 599.227 924.145 597.308 923.457C596.008 922.991 594.889 921.865 593.602 921.419ZM418.126 922.352L416.421 924.003C416.663 925.182 416.717 925.149 417.671 925.79C420.283 927.544 423.134 927.504 424.202 930.893C423.93 932.437 423.648 933.096 422.699 934.344C420.962 935.226 419.527 935.072 417.733 934.507C414.769 933.573 409.235 929.938 406.392 930.924L406.369 931.678C408.684 933.69 415.3 934.701 415.994 937.719C416.299 939.043 415.903 940.633 415.234 941.76C413.865 942.565 412.988 942.798 411.404 942.446C406.988 941.464 398.538 934.81 394.391 936.033L393.88 936.848C397.191 940.99 404.574 940.385 405.979 946.833C405.676 948.085 405.609 948.435 404.387 949.114C402.416 950.208 399.562 949.043 397.784 948.182C391.693 945.236 386.539 941.832 379.881 940.079C380.004 940.187 380.124 940.299 380.249 940.405C382.884 942.633 392.066 945.4 392.214 948.986C392.257 950.006 391.979 950.47 391.514 951.339C390.145 952.208 389.357 952.53 387.727 952.202C382.551 951.158 376.773 946.979 372.183 944.356C363.55 946.865 354.465 949.009 346.164 952.47C342.234 954.606 338.894 956.481 335.916 959.92C371.088 965.01 404.935 955.008 437.528 942.926C444.666 940.28 454.013 937.809 460.071 933.108C461.418 932.062 462.175 931.219 462.296 929.436C462.4 927.911 462.126 926.121 461.003 925.015C460.404 924.426 459.726 924.414 458.942 924.217C455.724 924.764 453.992 928.342 450.77 928.982C443.12 930.504 426.582 924.014 418.126 922.352ZM650.128 925.423C646.687 930.748 644.788 935.771 643.544 941.971C658.648 943.01 674.698 942.805 689.691 940.778C691.809 940.319 695.627 939.938 696.979 938.104C697.267 937.713 697.296 937.63 697.195 937.161C696.734 935.023 694.111 933.263 692.341 932.273C680.905 925.877 663.081 925.276 650.128 925.423ZM462.501 940.42C439.184 952.648 394.579 965.953 368.146 967.734C360.914 968.221 353.552 968.469 346.311 968.095C343.439 967.946 338.505 966.881 335.88 967.862C335.686 968.871 335.564 968.488 336.146 969.303C336.695 970.071 337.214 970.53 337.945 971.106C370.114 977.063 407.036 964.907 437.307 954.925C444.728 952.479 453.464 950.848 459.995 946.411C461.573 945.34 463.032 943.789 463.457 941.879C463.654 940.992 463.596 941.272 463.013 940.466L462.501 940.42ZM549.366 945.175C549.218 946.785 549.268 946.93 550.049 948.35C552.806 949.867 556.032 950.219 559.134 950.444C569.268 951.177 579.771 949.912 589.971 950.017C616.934 950.293 643.625 951.877 670.631 950.862C677.857 950.591 686.289 950.822 693.235 948.739C693.975 948.517 694.667 948.237 695.379 947.94L696.507 946.803C694.029 946.561 690.785 947.652 688.176 947.861C680.077 948.527 671.957 948.904 663.831 948.994C642.529 949.239 621.337 948.821 600.046 948.203C583.069 947.709 566.237 947.339 549.366 945.175Z"/><path fill="#FEFEFE" d="M455.618 63.0419C467.555 70.5087 479.001 81.4566 488.3 92.0438C493.697 98.1878 498.901 105.306 505.239 110.448C507.509 110.709 509.665 110.814 511.946 110.597C518.434 109.98 524.826 108.291 531.283 107.399C537.703 106.513 544.78 106.61 550.988 104.729C553.092 104.091 553.984 103.33 554.937 101.374C557.236 96.6565 558.037 90.4958 559.232 85.3612C561.76 74.4958 564.75 64.3213 570.036 54.4159C577.034 60.5981 584.974 87.6114 587.389 97.1111C588.669 102.145 589.482 107.329 590.445 112.433C593.641 115.562 598.043 117.897 601.558 120.739C609.375 127.171 616.584 134.306 623.096 142.056C618.858 142.298 613.184 142.088 609.631 144.737C606.556 147.03 605.832 150.535 605.312 154.116C602.724 154.411 600.206 154.967 597.662 155.512C596.024 152.409 593.74 148.466 590.425 146.942C582.82 143.445 550.868 147.042 542.732 150.103C538.703 151.62 536.437 153.313 534.681 157.247C514.434 155.779 494.242 154.085 473.972 152.907C471.107 152.542 468.138 152.506 465.251 152.351C459.979 122.845 452.561 93.209 455.618 63.0419ZM571.708 66.6656C567.024 72.3107 567.71 85.1892 568.379 92.1049C568.613 94.5238 568.955 96.6551 570.503 98.5836C571.802 99.1966 571.831 99.2581 573.218 98.9281C574.486 97.4249 574.707 96.7783 574.543 94.8046C574.085 89.2962 573.309 84.1235 573.725 78.5692C575.654 82.5803 576.693 86.8373 577.843 91.1191C578.568 93.8479 580.751 104.626 582.546 105.991C583.464 106.69 584.206 106.806 585.297 106.64C587.061 102.2 577.783 76.547 575.41 71.1049C574.816 69.7425 574.136 68.4436 573.296 67.215C572.782 67.0278 572.241 66.7851 571.708 66.6656ZM460.98 78.8517C459.183 85.2757 468.944 118.446 472.789 124.92C473.432 126.004 474.016 126.69 475.139 127.311L476.291 127.149C477.353 125.47 476.936 123.435 476.544 121.59C474.381 111.41 469.285 101.271 468.216 90.9281L468.577 90.4703L469.664 91.3628C473.506 95.6578 476.937 100.144 480.183 104.897C482.255 107.929 484.305 111.736 486.824 114.38C487.848 115.456 489.59 116.507 491.089 116.602C491.827 116.649 491.659 116.567 492.342 116.055C493.017 112.574 489.17 107.5 487.305 104.723C483.33 98.8065 469.94 79.8623 463.684 78.9621C462.774 78.8311 461.896 78.8281 460.98 78.8517Z"/><path fill="#212121" d="M573.725 78.5692C573.309 84.1235 574.085 89.2962 574.543 94.8046C574.707 96.7783 574.486 97.4249 573.218 98.9281C571.831 99.2581 571.802 99.1966 570.503 98.5836C568.955 96.6551 568.613 94.5238 568.379 92.1049C567.71 85.1892 567.024 72.3107 571.708 66.6656C572.241 66.7851 572.782 67.0278 573.296 67.215C574.136 68.4436 574.816 69.7425 575.41 71.1049C577.783 76.547 587.061 102.2 585.297 106.64C584.206 106.806 583.464 106.69 582.546 105.991C580.751 104.626 578.568 93.8479 577.843 91.1191C576.693 86.8373 575.654 82.5803 573.725 78.5692Z"/><path fill="#212121" d="M469.664 91.3628L468.577 90.4703L468.216 90.9281C469.285 101.271 474.381 111.41 476.544 121.59C476.936 123.435 477.353 125.47 476.291 127.149L475.139 127.311C474.016 126.69 473.432 126.004 472.789 124.92C468.944 118.446 459.183 85.2757 460.98 78.8517C461.896 78.8281 462.774 78.8311 463.684 78.9621C469.94 79.8623 483.33 98.8065 487.305 104.723C489.17 107.5 493.017 112.574 492.342 116.055C491.659 116.567 491.827 116.649 491.089 116.602C489.59 116.507 487.848 115.456 486.824 114.38C484.305 111.736 482.255 107.929 480.183 104.897C476.937 100.144 473.506 95.6578 469.664 91.3628Z"/><path fill="#FEFEFE" d="M622.747 170.719C621.058 171.142 618.902 171.892 617.34 170.723C615.3 169.197 612.937 158.885 612.634 156.348C612.407 154.451 612.799 152.358 614.079 150.882C618.071 146.281 633.223 146.685 639.095 146.21C639.838 146.174 640.709 146.059 641.401 146.412C645.222 148.36 648.236 163.794 649.285 168.172C640.426 168.886 631.579 169.735 622.747 170.719ZM621.74 151.338C619.728 152.314 617.09 154.038 616.582 156.453C616.432 157.161 616.486 157.361 616.534 158.019C617.269 158.729 617.557 159.001 618.632 159.104C618.79 159.119 618.949 159.085 619.107 159.075C621.118 158.041 623.709 157.008 624.409 154.656C624.641 153.877 624.313 153.496 624.038 152.783C623.276 152.173 622.664 151.671 621.74 151.338ZM625.644 159.063C623.608 160.098 621.715 160.79 621.079 163.184C620.868 163.974 621.222 164.23 621.579 164.909C622.764 165.577 623.36 165.664 624.714 165.606C626.828 164.909 628.271 164.435 629.296 162.308C629.749 161.368 629.641 161.226 629.574 160.248C628.744 159.35 628.564 159.094 627.272 159.006C626.845 158.977 626.091 159.036 625.644 159.063Z"/><path fill="#FEFEFE" d="M555.122 185.734C552.816 186.022 550.667 186.184 548.611 184.898C544.825 182.529 543.322 177.435 542.4 173.336C541.63 169.915 539.011 160.617 541.303 157.597C543.924 154.142 572.752 152.069 578.51 151.724C580.76 151.734 583.391 151.579 585.565 152.135C587.852 152.72 589.344 154.73 590.409 156.719C593.677 162.828 595.231 170.243 593.133 176.896C584.701 180.681 564.624 184.892 555.122 185.734ZM567.718 162.927C564.742 164.716 560.78 166.446 559.301 169.756C559.458 171.089 559.576 171.151 560.497 172.149C561.618 172.378 562.146 172.423 563.227 172.025C566.125 170.538 570.937 168.633 572.388 165.506C572.699 164.837 572.477 164.475 572.332 163.804C570.985 162.909 569.308 162.66 567.718 162.927Z"/><path fill="#212121" d="M619.107 159.075C618.949 159.085 618.79 159.119 618.632 159.104C617.557 159.001 617.269 158.729 616.534 158.019C616.486 157.361 616.432 157.161 616.582 156.453C617.09 154.038 619.728 152.314 621.74 151.338C622.664 151.671 623.276 152.173 624.038 152.783C624.313 153.496 624.641 153.877 624.409 154.656C623.709 157.008 621.118 158.041 619.107 159.075Z"/><path fill="#FEFEFE" d="M431.513 187.109C439.004 185.707 446.446 184.547 452.831 180.069C460.332 174.808 463.225 167.778 464.8 159.156C479.989 160.292 495.185 161.335 510.386 162.284C518.257 162.806 526.242 163.088 534.062 164.113C535.674 171.847 537.017 184.219 543.792 189.107C549.416 193.163 556.854 191.983 563.194 190.75C570.973 189.236 591.345 186.666 596.989 181.807C599.809 179.379 600.866 175.641 600.693 172.027C600.551 169.055 599.566 165.125 601.325 162.525C602.158 161.983 602.612 161.66 603.637 161.598C606.688 161.413 607.633 171.104 611.268 174.55C613.428 176.598 615.786 176.975 618.681 177.169C626.144 177.67 634.504 175.96 641.964 175.249C653.052 174.269 664.156 173.484 675.271 172.893C675.025 177.874 675.688 182.465 678.884 186.492C682.496 191.043 686.908 192.423 692.39 193.19C675.538 215.878 648.694 229.964 621.838 236.922C613.366 239.117 603.826 239.981 595.961 243.979C591.241 246.378 587.519 250.818 584.417 254.996C578.288 263.964 571.826 285.696 570.284 296.679C567.614 292.458 565.03 288.125 562.163 284.036C555.817 274.984 547.367 266.856 537.843 261.214C518.423 249.709 483.179 243.491 460.602 240.502C451.929 239.353 443.176 238.74 434.551 237.257C438.653 235.237 442.181 232.511 445.814 229.774C449.338 229.639 456.993 230.134 459.625 227.71C459.809 226.322 459.853 225.636 459.36 224.276C458.638 223.599 458.075 223.437 457.123 223.291C449.055 222.054 440.805 223.239 432.454 221.712C436.948 220.238 440.876 217.743 445.145 215.773C448.345 214.297 451.93 213.378 454.923 211.513C456.321 210.642 457.389 209.787 457.8 208.136L457.171 207.218C453.924 205.758 438.819 206.625 432.956 205.721C438.65 203.267 449.623 199.18 453.855 194.973C454.822 194.013 455.034 193.501 455.007 192.17C453.304 190.352 435.798 188.301 431.513 187.109ZM670.42 194.448C645.192 209.514 622.272 217.053 592.782 209.769C589.066 208.852 579.402 206.77 577.423 203.276C576.127 200.988 577.441 197.625 575.686 195.687C574.468 195.25 573.222 195.561 572.067 196.086C570.806 196.659 570.141 197.516 569.73 198.824C569.18 200.571 569.311 202.402 569.514 204.189C575.28 212.384 588.403 215.476 597.711 217.106C622.82 221.503 649.648 216.431 670.639 201.582C672.248 200.444 673.982 199.397 674.58 197.424C674.272 196.282 674.107 195.65 672.988 194.992C672.225 194.543 671.271 194.491 670.42 194.448Z"/><path fill="#212121" d="M624.714 165.606C623.36 165.664 622.764 165.577 621.579 164.909C621.222 164.23 620.868 163.974 621.079 163.184C621.715 160.79 623.608 160.098 625.644 159.063C626.091 159.036 626.845 158.977 627.272 159.006C628.564 159.094 628.744 159.35 629.574 160.248C629.641 161.226 629.749 161.368 629.296 162.308C628.271 164.435 626.828 164.909 624.714 165.606Z"/><path fill="#212121" d="M563.227 172.025C562.146 172.423 561.618 172.378 560.497 172.149C559.576 171.151 559.458 171.089 559.301 169.756C560.78 166.446 564.742 164.716 567.718 162.927C569.308 162.66 570.985 162.909 572.332 163.804C572.477 164.475 572.699 164.837 572.388 165.506C570.937 168.633 566.125 170.538 563.227 172.025Z"/><path fill="#212121" d="M569.514 204.189C569.311 202.402 569.18 200.571 569.73 198.824C570.141 197.516 570.806 196.659 572.067 196.086C573.222 195.561 574.468 195.25 575.686 195.687C577.441 197.625 576.127 200.988 577.423 203.276C579.402 206.77 589.066 208.852 592.782 209.769C622.272 217.053 645.192 209.514 670.42 194.448C671.271 194.491 672.225 194.543 672.988 194.992C674.107 195.65 674.272 196.282 674.58 197.424C673.982 199.397 672.248 200.444 670.639 201.582C649.648 216.431 622.82 221.503 597.711 217.106C588.403 215.476 575.28 212.384 569.514 204.189Z"/><path fill="#FEFEFE" d="M580.908 279.76C581.111 278.818 581.332 277.879 581.57 276.945C584.532 265.376 591.131 254.586 601.535 248.429C602.579 248.397 602.644 248.384 603.492 248.829C606.574 257.902 598.861 286.303 595.745 295.812L591.099 289.59C588.12 285.857 585.243 281.988 580.908 279.76Z"/><path fill="#FEFEFE" d="M470.137 260.275C471.104 256.536 471.767 252.674 472.535 248.889C494.408 252.852 519.316 256.537 538.18 269.063C544.003 272.93 548.98 277.716 553.854 282.686C548.96 287.634 544.321 292.696 540.122 298.254C537.566 302.036 535.081 305.883 532.159 309.396C514.608 298.305 482.239 276.814 470.137 260.275Z"/><path fill="#FEFEFE" d="M329.107 451.952C330.663 445.511 333.167 439.194 335.347 432.94C339.827 420.091 344.567 407.44 349.557 394.782C357.384 374.926 364.87 354.259 374.831 335.372C388.051 310.306 406.656 277.47 435.458 268.541C438.855 268.339 442.055 269.08 444.996 270.8C453.398 275.717 459.134 286.832 461.261 296.032C470.493 335.958 439.761 372.68 419.34 403.785C408.191 420.768 397.526 437.959 386.798 455.206C376.774 458.899 368.018 461.213 357.297 461.509L356.65 461.516C345.915 461.58 336.981 459.658 329.107 451.952Z"/><path fill="#FEFEFE" d="M673.117 380.756C672.683 369.245 671.527 357.837 670.615 346.362C669.44 331.577 668.409 316.794 666.967 302.03C665.924 291.343 664.565 280.673 663.833 269.959C664.193 270.109 664.544 270.278 664.895 270.449C672.299 274.061 678.64 279.532 683.298 286.328C690.604 296.892 694.376 310.566 698.767 322.544C703.218 334.684 707.827 346.734 711.988 358.98C707.534 362.146 702.484 364.7 697.74 367.42C689.909 372.201 681.455 376.933 673.117 380.756Z"/><path fill="#FEFEFE" d="M580.092 288.115C585.91 291.769 592.069 302.804 595.614 304.379C596.944 304.969 597.2 304.825 598.476 304.343C605.303 296.088 605.783 282.79 608.56 272.786L608.681 272.362C610.718 283.276 603.844 315.762 600.878 326.361C599.129 332.611 596.825 338.717 594.384 344.726C592.141 350.246 586.081 365.861 581.125 367.958C580.282 367.828 579.994 367.931 579.346 367.29C575.998 363.979 576.667 352.119 576.411 347.472C575.515 340.747 572.117 316.561 573.398 311.594C574.53 311.056 575.499 310.526 576.53 309.799C579.313 303.831 579.182 294.702 580.092 288.115Z"/><path fill="#FEFEFE" d="M534.405 316.832C537.047 314.268 539.175 310.405 541.316 307.387C546.058 300.702 550.887 294.175 556.7 288.367L557.149 288.822C558.48 294.166 563.557 308.229 566.863 311.835C567.598 329.258 569.996 346.66 571.145 364.088C559.201 357.407 548.081 346.801 538.193 337.402C527.168 326.459 518.511 314.211 509.941 301.318C517.525 307.338 525.726 312.538 534.405 316.832Z"/><path fill="#FEFEFE" d="M673.419 388.24C700.3 373.761 726.526 357.918 753.172 343.011L753.658 343.219C754.915 345.908 754.263 349.256 753.914 352.109C747.633 357.219 739.696 360.722 732.669 364.718L703.474 381.448C693.932 386.803 684.213 391.911 675.102 397.983C673.846 396.706 673.662 390.289 673.419 388.24Z"/><path fill="#FEFEFE" d="M760.082 354.842C765.499 350.769 772.486 348.023 778.554 345.049C780.243 347.085 780.617 351.13 781.177 353.689C775.53 356.58 769.925 359.554 764.364 362.608C762.731 360.083 761.383 357.549 760.082 354.842Z"/><path fill="#FEFEFE" d="M425.435 409.39L424.354 409.303C424.397 407.402 440.623 385.09 443.012 381.381C448.479 372.892 453.078 364.014 458.203 355.338C459.353 359.241 458.583 366.8 458.678 371.107C458.89 380.753 459.073 390.514 460.131 400.108C448.641 403.421 437.124 406.844 425.435 409.39Z"/><path fill="#FEFEFE" d="M682.197 400.438C691.307 395.016 700.914 390.253 710.146 385.007C724.797 376.679 739.199 367.977 754.015 359.933C757.615 362.287 759.045 366.189 760.106 370.139C736.502 384.142 711.16 395.432 687.714 409.743C687.036 410.222 686.844 410.247 686.053 410.361C683.552 408.637 682.895 403.236 682.197 400.438Z"/><path fill="#FEFEFE" d="M767.067 368.534L766.385 368.268C767.681 365.559 775.829 362.429 778.715 360.999L779.369 361.49C778.303 364.431 770.067 367.026 767.067 368.534Z"/><path fill="#FEFEFE" d="M696.523 411.71C717.38 401.114 737.445 389.002 758.429 378.626C764.552 375.598 770.954 371.888 777.409 369.701C779.074 369.137 780.225 368.949 781.947 369.362C787.051 370.586 793.848 364.906 799.217 362.898L800.164 363.174C801.365 364.561 801.664 366.425 802.117 368.161C792.981 373.071 783.384 377.22 774.141 381.947C760.137 389.109 746.462 396.807 732.719 404.447C728.305 406.902 704.949 420.635 702.129 421.218L701.116 420.256C699.367 417.463 697.874 414.716 696.523 411.71Z"/><path fill="#FEFEFE" d="M716.667 420.242C736.12 410.378 755.246 398.95 774.605 388.774C783.017 384.353 791.747 380.473 800.316 376.365C808.386 372.495 816.014 368.039 824.475 365.011L825.338 364.864C827.356 366.738 828.455 373.651 829.206 376.433C817.719 379.972 806.661 387.815 796.163 393.691L741.059 424.594C737.926 426.378 728.273 433.101 725.584 433.691C724.822 433.858 724.503 433.397 723.897 433.002C721.191 428.918 718.712 424.695 716.667 420.242Z"/><path fill="#FEFEFE" d="M581.198 396.464C579.298 397.151 577.189 396.261 576.357 394.42C575.525 392.579 576.25 390.407 578.021 389.436C579.296 388.737 580.854 388.812 582.055 389.628C583.257 390.445 583.899 391.867 583.719 393.308C583.538 394.75 582.564 395.969 581.198 396.464Z"/><path fill="#FEFEFE" d="M418.477 418.711C432.954 413.744 448.422 410.412 463.286 406.689C476.259 403.44 489.109 399.734 502.111 396.597L503.639 396.656C505.845 399.513 509.706 422.834 510.857 428C517.808 459.519 525.146 490.951 532.868 522.29C534.753 530.204 536.985 538.025 538.763 545.967C532.772 546.951 526.815 548.794 520.944 550.345C506.113 554.264 491.239 558.382 475.851 559.205C477.387 558.363 479.065 557.495 480.341 556.282C482.198 554.517 483.052 552.571 483.068 550.005C483.082 547.643 482.379 545.302 480.639 543.637C473.723 537.019 456.952 541.291 448.184 541.196L447.343 541.182C445.818 541.044 444.246 540.896 442.747 540.568C424.807 536.649 406.851 516.794 396.384 502.56C392.289 496.99 388.783 491.052 384.897 485.344C389.177 476.711 388.213 470.091 391.076 462.571C393.795 455.431 413.181 424.746 418.477 418.711Z"/><path fill="#FEFEFE" d="M519.121 399.922C524.207 398.683 529.327 397.596 534.477 396.66L535.295 396.842C536.409 398.267 536.694 400.063 537.077 401.793C540.695 418.119 543.176 434.74 546.647 451.112C552.194 477.271 558.825 503.693 562.734 530.135C570.056 529.748 577.385 529.072 584.698 528.517C583.408 536.717 580.575 550.26 573.28 555.292C565.564 560.614 544.975 556.367 536.086 554.514C544.265 552.166 549.137 548.403 556.637 544.978C556.27 541.507 555.504 538.011 554.902 534.569L559.708 532.418C558.744 521.453 555.484 510.121 553.285 499.313L539.399 431.768C537.157 421.12 535.105 410.432 533.243 399.71L518.308 402.061C528.965 448.472 539.37 494.94 549.522 541.464L545.319 543.561C536.803 509.269 528.672 474.883 520.926 440.409C518.282 428.398 513.568 412.545 512.431 400.81C512.963 399.549 513.046 399.504 514.223 398.791C516.065 398.62 517.427 399.261 519.121 399.922Z"/><path fill="#FEFEFE" d="M585.223 436.912C583.267 437.866 580.908 437.047 579.966 435.086C579.023 433.124 579.857 430.771 581.825 429.84C583.774 428.918 586.103 429.743 587.037 431.688C587.972 433.632 587.161 435.965 585.223 436.912Z"/><path fill="#FEFEFE" d="M309.833 472.861C308.764 468.631 303.819 455.699 305.693 452.121C309.038 449.067 316.783 448.53 321.155 447.593L322.039 447.594L322.451 448.218C322.205 449.089 321.987 449.244 321.274 449.86C311.527 458.28 312.981 472.14 310.337 474.379L309.833 472.861Z"/><path fill="#FEFEFE" d="M375.219 488.475C372.24 490.401 369.397 491.757 365.996 492.776C353.946 496.385 337.033 496.998 325.751 490.631C321.907 488.461 318.505 485.213 317.374 480.82C315.444 473.324 319.785 462.22 323.425 455.766C325.948 457.091 328.158 460.872 330.886 462.592C346.037 472.145 367.17 468.136 383.246 463.777C382.838 471.467 380.37 482.494 375.219 488.475ZM324.503 475.801C324.212 477.287 324.103 478.057 324.913 479.455C326.949 482.97 333.391 484.078 337.09 484.725C345.989 486.283 358.097 486.454 366.657 483.247C367.292 481.851 367.423 481.298 367.187 479.716C366.426 478.865 366.303 478.66 365.101 478.557C358.991 478.031 352.572 480.513 346.239 480.07C338.837 479.553 331.505 476.012 324.503 475.801Z"/><path fill="#FEFEFE" d="M589.037 476.778C587.105 477.46 584.984 476.464 584.276 474.542C583.569 472.62 584.537 470.486 586.449 469.753C587.709 469.27 589.131 469.502 590.172 470.361C591.213 471.22 591.711 472.572 591.476 473.9C591.241 475.229 590.309 476.328 589.037 476.778Z"/><path fill="#212121" d="M366.657 483.247C358.097 486.454 345.989 486.283 337.09 484.725C333.391 484.078 326.949 482.97 324.913 479.455C324.103 478.057 324.212 477.287 324.503 475.801C331.505 476.012 338.837 479.553 346.239 480.07C352.572 480.513 358.991 478.031 365.101 478.557C366.303 478.66 366.426 478.865 367.187 479.716C367.423 481.298 367.292 481.851 366.657 483.247Z"/><path fill="#FEFEFE" d="M773.242 488.102C788.386 496.878 790.049 514.727 794.641 517.139C795.942 516.988 795.951 516.902 796.885 515.965C799.249 510.294 789.935 493.602 787.594 487.646L787.391 487.12C790.76 487.476 792.966 490.358 795.016 492.844C801.168 500.304 809.581 513.726 808.313 523.9C807.752 528.406 805.153 532.299 801.569 535.001C791.067 542.922 773.903 541.757 761.587 540.254C761.496 535.744 760.767 531.269 759.423 526.963C758.275 523.269 749.538 503.8 749.533 502.672C749.53 502.275 749.701 501.896 749.785 501.507C750.674 501.22 751.051 500.973 752.002 501.146C758.579 502.338 764.251 514.762 768.146 519.358C769.192 520.592 770.36 520.535 771.843 520.745C771.925 520.569 772.018 520.397 772.087 520.216C775.392 511.602 764.169 502.967 762.136 496.742C761.824 495.786 761.819 496.182 762.223 495.314C762.379 495.309 762.536 495.284 762.691 495.3C767.486 495.787 774.912 504.489 777.076 508.518C778.682 511.507 779.251 514.931 781.288 517.693C782.436 518.396 782.979 518.468 784.317 518.403C785.539 517.71 786.072 517.488 786.427 515.992C787.93 509.646 776.364 494.686 773.539 488.738L773.242 488.102Z"/><path fill="#FEFEFE" d="M344.201 603.496C341.713 595.358 339.847 586.931 337.716 578.687L326.263 534.88C322.397 520.234 316.867 505.346 314.416 490.424C318.742 494.274 322.35 497.008 328.179 498.285C332.4 506.414 336.667 514.359 342.068 521.794C361.637 548.735 391.212 566.944 419.446 583.569C413.855 585.139 408.217 586.574 402.605 588.071C383.429 593.665 363.776 599.536 344.201 603.496Z"/><path fill="#FEFEFE" d="M337.914 501.303C338.616 501.382 339.319 501.454 340.022 501.519C353.663 502.777 370.01 501.245 380.951 492.194C383.938 494.916 386.195 500.171 388.619 503.568C393.132 509.892 398.22 516.048 403.523 521.727C416.157 535.253 430.993 547.93 450.394 547.899C456.688 547.889 462.952 546.589 469.249 546.833C471.767 546.931 474.827 547.002 476.598 548.926C476.404 555.707 457.857 554.911 453.43 559.134L453.413 560.329C458.914 564.921 472.57 565.691 479.493 565.355C484.673 565.104 493.178 563.016 497.947 564.893C498.989 566.039 499.138 566.21 499.411 567.723C499.014 568.589 498.93 569.038 498.161 569.646C492.622 574.031 476.195 574.552 469.405 573.515C466.285 573.039 463.483 571.386 460.32 570.955C458.996 571.819 458.475 572.661 457.712 573.987C457.741 574.803 457.605 575.343 458.099 576.043C462.506 582.287 485.945 580.114 492.526 578.674C496.142 577.883 499.634 575.178 503.418 575.611C504.321 576.462 504.234 576.517 504.351 577.769C503.58 579.464 502.237 580.236 500.755 581.291C483.882 589.33 472.595 587.913 455.49 582.436C455.116 582.603 454.603 582.803 454.308 583.089C453.341 584.025 453.373 584.646 453.411 585.863C457.193 591.878 466.01 590.19 470.758 594.112L470.516 594.855C466.006 597.007 461.15 596.622 456.51 595.143C444.155 591.205 432.563 583.488 421.492 576.851C388.632 557.153 355.999 536.55 337.914 501.303Z"/><path fill="#FEFEFE" d="M815.944 506.109C814.867 506.836 813.965 507.26 812.759 507.696C809.817 506.291 804.643 495.821 802.562 492.41C805.728 492.388 808.911 492.394 811.846 493.722C814.05 494.718 816.075 496.159 816.891 498.537C817.843 501.307 817.198 503.587 815.944 506.109Z"/><path fill="#FEFEFE" d="M593.213 528.355C616.243 526.968 639.732 526.343 662.536 522.749C662.98 523.522 662.884 523.098 662.657 524.202C661.194 531.311 655.81 536.746 649.871 540.504C642.495 545.173 611.664 553.371 603.205 551.049C600.987 550.441 600.152 549.115 599.057 547.242C596.485 541.028 594.705 534.893 593.213 528.355Z"/><path fill="#FEFEFE" d="M337.541 653.253C347.401 651.781 356.95 651.112 366.582 648.102C396.534 638.742 419.621 619.554 434.271 591.773C437.551 593.839 441.155 595.589 444.555 597.467C444.514 603.517 443.581 609.665 442.927 615.673C441.793 626.204 440.586 636.727 439.308 647.241C438.126 657.38 437.792 667.9 436.082 677.938C434.984 684.38 431.341 690.032 428.096 695.584C418.539 711.932 406.324 725.183 390.623 735.841C384.363 740.091 377.756 743.773 371.57 748.148C371.64 740.848 372.611 733.378 373.091 726.075C373.961 713.891 375.015 686.149 370.677 675.145C365.683 662.474 348.949 658.179 337.541 653.253Z"/><path fill="#FEFEFE" d="M254.549 624.506C256.564 622.816 258.566 621.111 260.555 619.391C274.136 619.164 290.465 624.696 302.43 630.692C302.787 633.307 303.962 637.498 302.524 639.818C300.924 640.287 300.171 639.73 298.626 639.182C284.439 633.59 269.338 628.191 254.549 624.506Z"/><path fill="#FEFEFE" d="M223.563 737.494C212.683 734.943 188.367 723.905 179.539 717.468C174.175 713.558 170.967 708.962 170.061 702.251C168.214 688.572 179.57 644.085 188.409 632.91C192.652 627.545 200.188 626.075 206.594 625.18C207.072 625.096 207.195 625.066 207.744 625.021C211.218 624.735 214.403 624.946 217.814 625.686C228.475 628 239.365 632.512 249.64 636.25C262.816 641.043 276.527 645.554 289.088 651.813C296.016 655.266 303.479 659.63 309.292 664.784C303.545 686.085 298.995 707.706 292.661 728.864C290.25 736.92 287.16 748.642 278.964 752.738C271.426 756.505 257.669 750.406 250.28 748.023L241.16 744.795C242.634 737.701 246.371 727.283 245.766 720.288C244.259 717.714 240.364 716.815 237.699 715.866C235.573 715.11 233.23 714.386 231.087 715.538C226.959 717.757 225.031 732.684 223.563 737.494Z"/><path fill="#FEFEFE" d="M316.134 667.372C314.484 661.729 312.662 659.205 308.168 655.526C313.758 656.126 319.443 656.598 324.964 657.676C333.791 659.4 358.164 668.56 362.847 676.112C373.414 693.152 358.015 828.07 352.211 851.09C346.56 852.149 340.843 852.819 335.1 853.097C327.199 853.746 319.195 853.646 311.269 853.759C311.538 847.356 312.736 840.81 313.544 834.445L317.864 799.557C320.472 777.282 321.757 754.825 325.492 732.695C327.702 719.484 329.999 706.288 332.382 693.108C333.943 684.805 337.006 674.996 336.798 666.54C336.76 664.956 336.655 663.601 335.465 662.456C330.251 661.153 320.728 664.823 316.134 667.372Z"/><path fill="#FEFEFE" d="M313.618 675.887C318.584 674.332 323.701 671.537 328.518 669.46L328.982 669.581C330.338 672.739 323.979 699.986 323.043 705.505C320.506 720.459 317.823 735.476 315.865 750.515C313.879 765.763 312.585 781.163 310.872 796.45C308.734 815.528 307.458 835.535 303.321 854.266L296.795 851.44L291.696 849.101C292.284 842.706 292.366 836.221 292.81 829.806C293.707 817.697 294.749 805.598 295.935 793.513C298.61 766.95 302.275 740.496 306.924 714.207C309.066 701.417 311.021 688.594 313.618 675.887Z"/><path fill="#FEFEFE" d="M269.159 840.26C247.415 830.807 183.625 804.018 170.481 786.984C168.735 784.721 167.214 782.071 166.479 779.29C162.457 764.076 168.762 735.992 170.734 720.14C176.001 722.377 181.048 726.348 186.175 729.035C196.117 734.246 206.589 738.622 216.828 743.223C216.669 743.654 216.506 744.084 216.365 744.522C214.938 748.955 212.892 755.996 215.325 760.278C216.665 762.637 219.137 763.176 221.55 763.913C221.362 769.746 218.432 782.749 221.871 787.354C223.605 789.675 227.191 790.698 229.941 790.938C231.406 791.066 232.612 790.632 233.724 789.654C234.987 788.542 234.953 783.906 235.115 782.197C235.606 776.995 235.883 771.643 236.826 766.509C237.72 761.644 239.164 757.143 239.585 752.159C251.82 755.829 264.882 760.653 277.74 760.761C275.076 772.512 272.765 784.34 270.81 796.23C268.661 810.619 267.53 825.787 269.159 840.26Z"/><path fill="#FEFEFE" d="M285.577 757.11C288.827 754.098 291.322 751.048 293.789 747.382C294.306 755.345 290.814 774.209 289.812 783.276C287.607 804.143 285.798 825.05 284.386 845.986L278.124 843.846L277.606 843.381C271.345 821.617 280.696 779.383 285.577 757.11Z"/><path fill="#FEFEFE" d="M220.868 755.654C220.97 753.145 221.513 750.744 222.008 748.29C225.469 749.369 228.831 750.588 232.205 751.914C232.008 754.377 231.507 756.717 230.981 759.123C227.037 758.601 224.268 757.625 220.868 755.654Z"/><path fill="#FEFEFE" d="M450.287 922.068C446.063 923.332 430.285 919.168 426.111 917.195C424.987 915.931 424.939 914.228 424.676 912.617C433.4 912.513 442.303 913.351 451.019 913.855C450.994 916.662 450.696 919.297 450.287 922.068Z"/><path fill="#FEFEFE" d="M557.466 914.48C564.451 914.427 571.356 914.23 578.327 913.755C579.511 913.581 578.951 913.499 580.011 913.971C580.514 915.759 581.456 918.223 581.187 920.1C580.97 921.608 579.919 922.965 578.684 923.801C574.361 926.728 568.344 925.332 563.64 924.296C562.014 923.907 559.786 923.511 558.642 922.192C557.012 920.313 557.466 916.813 557.466 914.48Z"/><path fill="#FEFEFE" d="M549.71 925.607C555.323 928.075 560.955 930.499 567.05 931.496C578.693 933.401 584.941 927.727 593.602 921.419C594.889 921.865 596.008 922.991 597.308 923.457C599.227 924.145 601.647 922.046 603.67 921.545C604.854 921.82 605.059 921.834 605.896 922.693C605.792 923.521 605.697 924.35 605.61 925.18C605.436 926.722 605.219 927.597 606.071 929.006C607.286 929.637 607.812 929.673 609.162 929.483C611.162 928.223 611.206 925.884 612.72 924.241C613.437 923.463 614.402 923.185 615.427 923.237C619.605 923.45 616.242 928.041 618.884 931.057C620.011 931.581 621.307 931.974 622.556 931.571C625.836 930.514 624.813 927.242 625.947 924.635C627.224 923.905 627.513 923.978 629.004 924.046C630.197 925.102 628.464 930.119 629.021 932.278C629.882 933.242 630.181 933.632 631.574 933.726C635.954 934.019 636.302 926.73 638.917 924.577C640.363 924.479 640.484 924.677 641.726 925.469C639.681 931.213 637.888 935.881 637.091 942.002C631.1 942.051 625.109 941.943 619.125 941.678C607.077 941.517 557.579 940.918 549.667 937.317C548.02 934.857 549.395 928.595 549.71 925.607Z"/><path fill="#FEFEFE" d="M379.881 940.079C386.539 941.832 391.693 945.236 397.784 948.182C399.562 949.043 402.416 950.208 404.387 949.114C405.609 948.435 405.676 948.085 405.979 946.833C404.574 940.385 397.191 940.99 393.88 936.848L394.391 936.033C398.538 934.81 406.988 941.464 411.404 942.446C412.988 942.798 413.865 942.565 415.234 941.76C415.903 940.633 416.299 939.043 415.994 937.719C415.3 934.701 408.684 933.69 406.369 931.678L406.392 930.924C409.235 929.938 414.769 933.573 417.733 934.507C419.527 935.072 420.962 935.226 422.699 934.344C423.648 933.096 423.93 932.437 424.202 930.893C423.134 927.504 420.283 927.544 417.671 925.79C416.717 925.149 416.663 925.182 416.421 924.003L418.126 922.352C426.582 924.014 443.12 930.504 450.77 928.982C453.992 928.342 455.724 924.764 458.942 924.217C459.726 924.414 460.404 924.426 461.003 925.015C462.126 926.121 462.4 927.911 462.296 929.436C462.175 931.219 461.418 932.062 460.071 933.108C454.013 937.809 444.666 940.28 437.528 942.926C404.935 955.008 371.088 965.01 335.916 959.92C338.894 956.481 342.234 954.606 346.164 952.47C354.465 949.009 363.55 946.865 372.183 944.356C376.773 946.979 382.551 951.158 387.727 952.202C389.357 952.53 390.145 952.208 391.514 951.339C391.979 950.47 392.257 950.006 392.214 948.986C392.066 945.4 382.884 942.633 380.249 940.405C380.124 940.299 380.004 940.187 379.881 940.079Z"/><path fill="#FEFEFE" d="M643.544 941.971C644.788 935.771 646.687 930.748 650.128 925.423C663.081 925.276 680.905 925.877 692.341 932.273C694.111 933.263 696.734 935.023 697.195 937.161C697.296 937.63 697.267 937.713 696.979 938.104C695.627 939.938 691.809 940.319 689.691 940.778C674.698 942.805 658.648 943.01 643.544 941.971Z"/><path fill="#FEFEFE" d="M337.945 971.106C337.214 970.53 336.695 970.071 336.146 969.303C335.564 968.488 335.686 968.871 335.88 967.862C338.505 966.881 343.439 967.946 346.311 968.095C353.552 968.469 360.914 968.221 368.146 967.734C394.579 965.953 439.184 952.648 462.501 940.42L463.013 940.466C463.596 941.272 463.654 940.992 463.457 941.879C463.032 943.789 461.573 945.34 459.995 946.411C453.464 950.848 444.728 952.479 437.307 954.925C407.036 964.907 370.114 977.063 337.945 971.106Z"/><path fill="#FEFEFE" d="M695.379 947.94C694.667 948.237 693.975 948.517 693.235 948.739C686.289 950.822 677.857 950.591 670.631 950.862C643.625 951.877 616.934 950.293 589.971 950.017C579.771 949.912 569.268 951.177 559.134 950.444C556.032 950.219 552.806 949.867 550.049 948.35C549.268 946.93 549.218 946.785 549.366 945.175C566.237 947.339 583.069 947.709 600.046 948.203C621.337 948.821 642.529 949.239 663.831 948.994C671.957 948.904 680.077 948.527 688.176 947.861C690.785 947.652 694.029 946.561 696.507 946.803L695.379 947.94Z"/></svg>