<?xml version="1.0" encoding="utf-8" ?><svg xmlns="http://www.w3.org/2000/svg" xmlns:xlink="http://www.w3.org/1999/xlink" width="1024" height="1024" viewBox="0 0 1024 1024"><path fill="#FEFEFE" d="M0 0L1024 0L1024 1024L0 1024L0 0ZM266.05 76.7531C267.227 81.8238 276.67 90.9441 279.916 96.173C286.588 106.922 291.772 119.559 296.301 131.357C297.532 134.564 300.735 146.331 303.484 147.805C304.125 148.148 304.967 147.966 305.67 147.949C305.687 135.997 292.252 106.26 285.868 95.8108C282.993 91.1223 279.613 86.7635 275.788 82.8125C273.309 80.292 269.7 76.9101 266.05 76.7531ZM381.968 87.7363C379.074 93.4606 367.563 140.661 368.83 144.87C369.008 145.459 369.444 146.023 369.812 146.506C371.874 145.397 372.203 144.642 372.867 142.411C374.929 135.482 385.839 92.7395 382.47 88.2142C382.332 88.0289 382.135 87.8956 381.968 87.7363ZM490.439 92.7998C480.404 102.206 440.118 152.919 437.792 164.228C438.158 165.4 438.59 165.831 439.501 166.639C440.786 165.942 441.834 165.247 442.738 164.078C448.282 156.903 452.833 148.555 458.055 141.093C465.301 130.74 472.871 120.525 480.335 110.326C483.713 105.711 489.563 99.7973 491.503 94.4661L491.352 93.3245L490.439 92.7998ZM616.093 135.59C601.108 139.141 586.518 144.893 572.255 150.626C548.647 160.115 525.806 170.665 502.773 181.448C499.053 183.189 484.019 189.289 482.041 192.124C481.96 192.241 481.908 192.375 481.842 192.501C482.628 193.133 482.186 192.99 483.156 192.965C496.366 189.352 508.671 183.303 521.243 177.992C542.567 168.984 563.758 160.043 584.874 150.547C594.57 146.186 605.219 142.958 614.628 138.172C615.695 137.63 616.627 137.237 617.24 136.163C616.412 135.545 616.824 135.661 616.093 135.59ZM173.821 154.59C173.764 155.43 173.469 156.029 174.082 156.7C174.958 157.658 176.035 158.045 177.255 158.396C190.357 162.164 204.299 163.739 217.69 167.876C228.989 171.367 238.691 177.445 249.194 180.851C249.395 180.112 249.923 179.047 249.556 178.343C245.351 170.273 208.134 159.969 198.402 157.72C190.87 155.98 181.539 153.77 173.821 154.59ZM324.43 171.112C301.611 175.852 278.399 188.713 265.461 208.493C256.159 222.715 255.427 241.846 258.91 257.976C264.155 282.267 281.838 304.951 302.624 318.097C325.915 332.828 352.54 340.267 379.929 334.056C410.759 327.065 438.936 307.548 455.636 280.615C466.141 263.672 471.61 242.492 466.843 222.791C462.656 205.483 450.041 193.094 435.201 184.127C431.948 182.161 428.601 180.284 425.127 178.734C421.995 177.167 418.311 174.843 414.647 175.68C414.422 175.732 414.223 175.86 414.01 175.95L413.857 177.356C417.514 181.532 424.222 183.732 429.019 186.52C450.186 198.817 463.855 215.586 462.118 241.073C460.448 265.586 446.141 288.21 427.891 304C407.826 321.36 380.489 332.933 353.66 330.899C327.345 328.904 300.34 314.264 283.255 294.339C270.32 279.254 261.24 257.171 262.781 237.075C264.029 220.8 271.49 207.732 283.87 197.194C288.235 193.515 292.974 190.305 298.009 187.617C302.272 185.333 325.37 176.646 326.633 173.975C326.447 172.726 326.291 172.54 325.489 171.549L324.43 171.112ZM745.279 206.152C731.594 208.133 719.251 215.45 710.945 226.505C710.415 227.219 709.928 227.94 709.441 228.685C700.212 221.461 685.045 219.917 673.777 221.272C666.824 222.108 660.427 224.239 655.966 229.99C652.723 234.17 651.687 238.582 651.072 243.69C639.947 242.214 629.72 241.778 620.333 249.008C614.922 253.229 611.422 259.438 610.61 266.253C609.877 272.427 611.521 278.857 615.478 283.694C622.162 291.862 633.154 296.544 643.487 297.44C652.775 298.245 662.501 296.511 670.217 291.079C682.599 303.702 695.942 307.474 713.549 307.559C723.045 307.605 733.125 305.747 741.776 301.762C747.503 298.922 751.62 295.807 755.531 290.715C767.184 300.464 781.763 305.188 797.009 303.918C808.26 302.98 817.26 298.796 825.415 291.099C837.836 294.482 853.983 297.542 865.823 290.731C870.425 288.083 874.419 284.006 875.791 278.757C877.056 273.914 876.111 268.482 873.482 264.242C869.66 258.078 862.466 254.127 855.488 252.69C851.1 251.786 846.727 251.892 842.275 252.042C838.402 243.831 832.701 237.591 824.009 234.487C811.848 230.143 797.086 232.639 785.267 236.878C783.895 227.324 778.808 218.004 771.047 212.13C763.306 206.271 754.701 205.203 745.279 206.152ZM225.044 244.142C213.244 246.389 188.822 253.746 180.219 262.298L179.923 263.392C180.834 264.205 181.322 264.26 182.502 264.161C183.213 264.102 183.962 263.896 184.652 263.741C192.17 260.692 199.71 257.503 207.404 254.926C213.631 252.84 220.311 251.344 226.308 248.691C227.939 247.97 229.535 247.311 230.445 245.692L230.348 244.621C228.633 243.524 226.988 243.882 225.044 244.142ZM494.34 253.191L494.747 254.606C501.596 257.742 534.221 260.217 543.906 261.641C554.415 263.235 564.912 264.905 575.396 266.653C583.523 268.032 592.025 269.908 600.286 270.021C600.332 269.158 600.649 268.227 600.074 267.518C596.384 262.964 542.243 256.066 533.357 255.114C524.245 254.137 515.03 253.349 505.868 253.057C502.051 252.935 498.139 252.801 494.34 253.191ZM457.876 304.709C459.134 308.654 480.125 334.647 484.433 340.567C487.797 345.19 490.791 350.068 493.804 354.924C494.857 355.379 494.348 355.312 495.307 355.253C496.218 347.321 482.449 328.02 477.367 321.588C473.848 317.133 464.131 305.791 458.547 304.78C458.326 304.74 458.1 304.733 457.876 304.709ZM270.605 318.345C266.311 321.015 262.591 324.551 258.969 328.054C249.652 337.066 181.907 407.442 179.987 414.842C179.744 415.775 179.723 415.894 180.15 416.791L181.205 416.666C189.485 409.617 198.163 397.975 205.963 389.734C222.248 372.531 239.345 355.918 256.3 339.376C259.948 335.817 271.238 326.251 272.039 321.509C272.219 320.442 272.121 319.36 271.224 318.638C271.046 318.495 270.811 318.443 270.605 318.345ZM560.445 346.959C558.918 347.698 557.947 347.945 557.337 349.726C555.561 354.92 556.208 365.66 555.813 371.541C555.126 381.761 554.149 392.312 552.361 402.4C537.904 403.692 523.897 406.09 510.035 410.459C502.855 392.994 486.078 376.245 468.691 369.046C465.395 367.682 462.198 366.891 458.691 366.277C457.059 367.024 455.394 367.727 453.82 368.591C451.971 377.191 452.442 385.701 453.05 394.412C454.771 419.112 459.8 436.08 451.949 460.773C449.848 467.379 447.393 473.8 444.103 479.912C440.588 486.443 434.955 495.826 428.731 500.013C425.589 502.127 411.96 506.679 411.18 508.8C411.918 512.357 415.935 515.476 418.861 517.408C413.248 533.453 394.831 553.181 383.922 566.832C376.211 565.236 368.79 566.94 362.226 571.209C348.43 580.182 340.213 599.414 337.108 614.947C334.29 629.047 334.705 643.679 343.042 655.954C346.043 660.372 349.822 663.957 354.337 666.792C354.859 692.482 363.332 717.914 382.303 736.061C393.064 746.355 406.761 753.692 420.799 758.37C419.738 762.404 417.006 770.329 419.7 774.175C420.396 775.167 421.368 775.583 422.544 775.712C423.58 775.826 424.653 775.293 425.573 774.898C426.049 775.945 426.301 776.878 426.566 777.999C426.93 779.536 427.272 780.646 428.668 781.551C429.582 782.144 430.597 781.984 431.596 781.687C432.327 781.469 433.048 781.209 433.766 780.955C436.874 781.721 438.258 785.022 441.704 783.267C444.266 781.961 445.489 778.014 445.907 775.428C446.258 773.26 446.239 771.113 446.19 768.926C448.666 770.438 451.196 772.487 454.268 771.866C455.661 771.584 456.766 770.77 457.499 769.572C460.635 764.451 458.572 755.606 457.738 749.915C462.442 749.899 466.333 749.503 470.827 748.037C468.691 760.767 465.744 773.347 462.004 785.701C472.662 796.224 483.797 801.725 497.617 806.993C497.055 816.497 495.193 826.129 493.945 835.577C492.155 849.123 490.642 862.688 488.986 876.248C487.339 889.736 485.581 902.864 485.102 916.473C492.119 930.037 518.827 939 532.975 943.519C543.242 946.798 561.043 951.666 571.269 946.138C573.771 944.785 575.682 942.644 576.478 939.887C577.264 937.161 576.816 934.274 575.432 931.82C569.681 921.625 530.304 903.066 518.794 895.105C518.803 880.023 523.557 860.498 526.281 845.295C528.417 833.38 529.958 821.225 532.486 809.401C540.945 808.361 549.089 807.1 557.371 805.026C558.106 801.823 558.923 798.613 559.502 795.379C560.084 797.549 560.628 799.666 560.945 801.896C561.964 803.191 562.604 803.791 564.291 803.981C566.586 804.24 569.131 803.677 571.404 803.332C567.655 824.99 564.424 846.683 560.895 868.368C559.131 879.206 556.091 890.886 555.7 901.826C555.595 904.78 555.5 907.372 557.19 909.92C563.658 919.673 597.993 928.288 609.555 930.307C619.158 931.984 633.635 933.292 642.157 927.48C644.436 925.925 646.204 923.697 646.643 920.918C647.078 918.169 646.052 915.705 644.367 913.568C636.251 903.271 601.964 892.1 589.308 886.45C590.351 876.078 592.538 865.738 594.466 855.5C598.161 835.887 602.254 816.372 606.152 796.8C615.444 793.748 640.763 785.495 646.97 778.943C647.91 775.25 639.664 759.554 637.925 754.874C633.426 742.769 629.826 730.394 626.206 718.008C624.895 713.52 622.909 708.634 622.18 704.037C631.722 697.209 633.317 699.993 641.823 696.223C656.284 689.813 665.514 670.823 667.975 656.049C671.367 635.69 665.518 609.95 653.419 593.202C649.3 587.498 644.378 583.414 639.302 578.655C650.567 568.889 660.507 556.935 669.639 545.176C696.291 510.857 717.71 473.149 731.912 432.017C734.849 423.51 738.811 413.473 739.579 404.495C739.783 402.11 739.667 399.118 738.173 397.119C737.456 396.159 736.364 395.587 735.173 395.484C732.579 395.259 730.189 397.31 728.486 399.008C727.486 400.006 726.579 401.133 725.671 402.214C726.454 396.415 728.333 387.903 724.512 382.908C723.844 382.035 722.924 381.308 721.781 381.299C719.648 381.283 717.954 382.98 716.651 384.489C714.211 387.313 712.411 390.543 711.036 393.999C710.937 389.177 710.858 382.787 707.052 379.244C706.071 378.332 705.259 377.991 703.928 377.748C701.945 378.093 700.917 379.062 699.83 380.674C694.115 389.143 692.797 401.399 690.909 411.169C689.901 409.908 689.089 408.614 687.526 408.023C686.101 408.145 685.838 408.274 684.647 409.076C681.388 415.031 680.163 421.889 677.979 428.278C673.478 441.445 668.415 455.847 662.583 468.481C656.097 467.224 649.71 466.306 643.651 463.544C648.312 456.17 651.126 448.794 649.254 439.957C647.267 430.583 640.734 422.4 632.675 417.43C625.296 412.879 615.836 410.26 607.397 408.633C602.885 389.975 584.739 360.395 568.054 350.16C565.666 348.695 563.232 347.445 560.445 346.959ZM337.273 368.173C331.282 376.675 327.677 389.185 324.225 398.956C317.106 419.104 310.762 439.43 304.377 459.817C303.082 463.952 297.021 480.286 297.439 483.811C297.524 484.531 297.553 484.509 297.791 485.076C298.949 485.494 298.41 485.456 299.387 485.355C302.045 479.795 303.96 473.764 306.063 467.964C310.278 456.236 314.413 444.478 318.468 432.693C324.706 414.972 332.093 397.335 337.639 379.406C338.325 377.189 340.239 371.945 339.291 369.785C338.803 368.673 338.315 368.561 337.273 368.173ZM388.561 377.783C387.121 379.883 387.23 382.526 387.197 384.986C387.018 398.249 388.575 411.64 389.113 424.897C389.768 441.019 389.303 457.048 390.832 473.134C390.972 474.604 390.87 477.237 391.376 478.557C391.491 478.857 391.681 479.122 391.834 479.405L392.743 479.053C395.418 450.528 395.819 422.563 392.652 394.083C392.163 389.687 391.935 381.954 389.426 378.297L388.561 377.783ZM720.311 734.702C699.895 736.856 669.685 743.885 652.372 754.565C667.032 753.284 681.095 747.619 695.424 744.494C737.88 735.232 776.413 742.353 816.67 757.132C810.874 760.518 801.745 764.655 798.024 770.369L798.058 771.499C799.225 772.191 799.42 772.039 800.79 771.868C809.757 768.485 818.22 763.565 826.792 759.3C835.236 755.098 844.429 751.414 853.442 748.648C859.211 746.877 865.113 745.227 870.998 743.889C873.864 743.237 877.912 743.128 880.512 741.977C880.846 741.829 881.04 741.473 881.304 741.221C879.115 739.322 870.6 739.4 867.549 739.627C851.196 740.84 833.863 749.378 818.927 755.802C808.133 745.467 770.164 737.78 754.645 735.861C745.139 734.665 735.557 734.181 725.978 734.414C724.164 734.449 722.09 734.359 720.311 734.702ZM358.626 745.678C355.212 746.123 348.98 746.527 346.704 749.357L346.691 750.128C347.74 750.311 348.564 750.432 349.623 750.284C353.071 749.882 359.292 749.318 361.536 746.514L361.246 745.838C360.32 745.678 359.563 745.589 358.626 745.678ZM336.903 747.698C319.688 749.708 297.601 758.204 281.897 765.55C274.452 769.033 267.122 774.381 259 776.05C250.999 777.693 242.132 776.129 234.011 776.156C218.765 776.206 186.397 780.171 173.442 787.364L172.954 788.213C174.504 789.397 176.266 789.1 178.148 789.012C195.559 786.887 213.058 784.034 230.565 782.965C239.276 782.433 248.842 784.324 257.329 782.973C266.358 781.536 276.578 774.763 284.994 771.011C296.697 765.793 308.928 760.919 321.192 757.205C325.434 755.921 337.603 753.715 340.283 750.643C340.637 750.237 340.705 749.946 340.875 749.481C340.568 748.772 340.646 748.491 339.878 748.173C338.864 747.752 337.985 747.758 336.903 747.698ZM165.497 789.65C161.141 790.098 155.227 791.103 151.745 793.901C151.503 794.638 151.581 794.229 151.574 795.138C151.984 795.209 152.773 795.41 153.178 795.389C156.505 794.437 164.885 792.982 167.036 790.458C166.41 789.686 166.406 789.84 165.497 789.65Z"/><path fill="#010101" d="M305.67 147.949C304.967 147.966 304.125 148.148 303.484 147.805C300.735 146.331 297.532 134.564 296.301 131.357C291.772 119.559 286.588 106.922 279.916 96.173C276.67 90.9441 267.227 81.8238 266.05 76.7531C269.7 76.9101 273.309 80.292 275.788 82.8125C279.613 86.7635 282.993 91.1223 285.868 95.8108C292.252 106.26 305.687 135.997 305.67 147.949Z"/><path fill="#010101" d="M369.812 146.506C369.444 146.023 369.008 145.459 368.83 144.87C367.563 140.661 379.074 93.4606 381.968 87.7363C382.135 87.8956 382.332 88.0289 382.47 88.2142C385.839 92.7395 374.929 135.482 372.867 142.411C372.203 144.642 371.874 145.397 369.812 146.506Z"/><path fill="#010101" d="M439.501 166.639C438.59 165.831 438.158 165.4 437.792 164.228C440.118 152.919 480.404 102.206 490.439 92.7998L491.352 93.3245L491.503 94.4661C489.563 99.7973 483.713 105.711 480.335 110.326C472.871 120.525 465.301 130.74 458.055 141.093C452.833 148.555 448.282 156.903 442.738 164.078C441.834 165.247 440.786 165.942 439.501 166.639Z"/><path fill="#010101" d="M483.156 192.965C482.186 192.99 482.628 193.133 481.842 192.501C481.908 192.375 481.96 192.241 482.041 192.124C484.019 189.289 499.053 183.189 502.773 181.448C525.806 170.665 548.647 160.115 572.255 150.626C586.518 144.893 601.108 139.141 616.093 135.59C616.824 135.661 616.412 135.545 617.24 136.163C616.627 137.237 615.695 137.63 614.628 138.172C605.219 142.958 594.57 146.186 584.874 150.547C563.758 160.043 542.567 168.984 521.243 177.992C508.671 183.303 496.366 189.352 483.156 192.965Z"/><path fill="#010101" d="M249.194 180.851C238.691 177.445 228.989 171.367 217.69 167.876C204.299 163.739 190.357 162.164 177.255 158.396C176.035 158.045 174.958 157.658 174.082 156.7C173.469 156.029 173.764 155.43 173.821 154.59C181.539 153.77 190.87 155.98 198.402 157.72C208.134 159.969 245.351 170.273 249.556 178.343C249.923 179.047 249.395 180.112 249.194 180.851Z"/><path fill="#010101" d="M425.127 178.734C428.601 180.284 431.948 182.161 435.201 184.127C450.041 193.094 462.656 205.483 466.843 222.791C471.61 242.492 466.141 263.672 455.636 280.615C438.936 307.548 410.759 327.065 379.929 334.056C352.54 340.267 325.915 332.828 302.624 318.097C281.838 304.951 264.155 282.267 258.91 257.976C255.427 241.846 256.159 222.715 265.461 208.493C278.399 188.713 301.611 175.852 324.43 171.112L325.489 171.549C326.291 172.54 326.447 172.726 326.633 173.975C325.37 176.646 302.272 185.333 298.009 187.617C292.974 190.305 288.235 193.515 283.87 197.194C271.49 207.732 264.029 220.8 262.781 237.075C261.24 257.171 270.32 279.254 283.255 294.339C300.34 314.264 327.345 328.904 353.66 330.899C380.489 332.933 407.826 321.36 427.891 304C446.141 288.21 460.448 265.586 462.118 241.073C463.855 215.586 450.186 198.817 429.019 186.52C424.222 183.732 417.514 181.532 413.857 177.356L414.01 175.95C414.223 175.86 414.422 175.732 414.647 175.68C418.311 174.843 421.995 177.167 425.127 178.734Z"/><path fill="#010101" d="M709.441 228.685C709.928 227.94 710.415 227.219 710.945 226.505C719.251 215.45 731.594 208.133 745.279 206.152C754.701 205.203 763.306 206.271 771.047 212.13C778.808 218.004 783.895 227.324 785.267 236.878C797.086 232.639 811.848 230.143 824.009 234.487C832.701 237.591 838.402 243.831 842.275 252.042C846.727 251.892 851.1 251.786 855.488 252.69C862.466 254.127 869.66 258.078 873.482 264.242C876.111 268.482 877.056 273.914 875.791 278.757C874.419 284.006 870.425 288.083 865.823 290.731C853.983 297.542 837.836 294.482 825.415 291.099C817.26 298.796 808.26 302.98 797.009 303.918C781.763 305.188 767.184 300.464 755.531 290.715C751.62 295.807 747.503 298.922 741.776 301.762C733.125 305.747 723.045 307.605 713.549 307.559C695.942 307.474 682.599 303.702 670.217 291.079C662.501 296.511 652.775 298.245 643.487 297.44C633.154 296.544 622.162 291.862 615.478 283.694C611.521 278.857 609.877 272.427 610.61 266.253C611.422 259.438 614.922 253.229 620.333 249.008C629.72 241.778 639.947 242.214 651.072 243.69C651.687 238.582 652.723 234.17 655.966 229.99C660.427 224.239 666.824 222.108 673.777 221.272C685.045 219.917 700.212 221.461 709.441 228.685ZM751.404 211.74C737.792 213.022 725.315 217.566 716.422 228.479C714.389 230.973 712.692 233.834 710.987 236.559C710.32 236.523 709.847 236.683 709.356 236.154C707.981 234.668 707.852 232.093 706.79 230.345C704.754 226.995 693.21 225.391 689.44 224.939C680.99 223.925 669.816 224.391 662.857 229.836C658.068 233.582 656.732 238.314 655.717 244.007C657.716 245.277 660.538 246.692 661.237 249.129C661.281 249.282 661.286 249.443 661.311 249.6C660.395 250.651 659.822 250.625 658.454 250.681C656.235 250.772 654.266 249.508 652.341 248.561C646.388 245.633 636.689 246.241 630.534 248.395C624.153 250.639 618.995 255.437 616.296 261.638C614.376 265.965 614.029 270.842 615.881 275.259C618.805 282.234 626.521 287.418 633.403 289.987C642.618 293.428 655.069 293.828 664.123 289.619C665.295 289.074 666.443 288.443 667.557 287.789C667.518 285.545 667.221 283.122 668.077 281.013C668.95 280.253 669.359 279.845 670.625 279.965C671.858 280.082 677.978 290.531 680.825 292.83C694.083 303.53 718.577 303.114 734.094 298.664C740.928 295.928 745.474 292.793 750.825 287.759C749.064 285.35 748.478 284.132 748.915 281.183C749.448 280.543 749.313 280.395 750.057 280.37C753.478 280.251 764.068 290.388 768.507 292.695C782.709 300.078 804.887 301.398 817.37 289.86C820.329 287.125 822.217 282.791 825.495 280.612C826.82 280.757 827.146 280.878 828.055 281.982C828.955 283.076 828.989 284.232 828.605 285.528C828.349 286.389 827.963 287.237 827.616 288.066C828.077 289.05 827.734 288.768 828.778 289.161C836.431 292.041 853.654 290.833 861.251 286.968C865.228 284.945 868.468 281.823 869.876 277.509C870.952 274.211 870.408 270.893 868.697 267.918C864.751 261.054 857.276 257.631 849.919 255.786C847.523 255.185 840.109 256.908 839.384 256.569C838.958 256.37 837.904 254.971 837.635 254.574C836.25 252.535 835.207 250.21 833.913 248.103C830.469 242.502 824.392 239.526 818.217 238.019C810.509 236.137 801.036 237.114 793.314 238.597C790.976 239.045 784.369 240.956 782.339 240.587C782.003 240.526 781.738 240.264 781.438 240.102C779.57 237.055 778.881 233.454 777.505 230.172C773.769 221.256 766.597 214.875 757.149 212.632C755.317 212.197 753.286 211.816 751.404 211.74Z"/><path fill="#FEFEFE" d="M655.717 244.007C656.732 238.314 658.068 233.582 662.857 229.836C669.816 224.391 680.99 223.925 689.44 224.939C693.21 225.391 704.754 226.995 706.79 230.345C707.852 232.093 707.981 234.668 709.356 236.154C709.847 236.683 710.32 236.523 710.987 236.559C712.692 233.834 714.389 230.973 716.422 228.479C725.315 217.566 737.792 213.022 751.404 211.74C753.286 211.816 755.317 212.197 757.149 212.632C766.597 214.875 773.769 221.256 777.505 230.172C778.881 233.454 779.57 237.055 781.438 240.102C781.738 240.264 782.003 240.526 782.339 240.587C784.369 240.956 790.976 239.045 793.314 238.597C801.036 237.114 810.509 236.137 818.217 238.019C824.392 239.526 830.469 242.502 833.913 248.103C835.207 250.21 836.25 252.535 837.635 254.574C837.904 254.971 838.958 256.37 839.384 256.569C840.109 256.908 847.523 255.185 849.919 255.786C857.276 257.631 864.751 261.054 868.697 267.918C870.408 270.893 870.952 274.211 869.876 277.509C868.468 281.823 865.228 284.945 861.251 286.968C853.654 290.833 836.431 292.041 828.778 289.161C827.734 288.768 828.077 289.05 827.616 288.066C827.963 287.237 828.349 286.389 828.605 285.528C828.989 284.232 828.955 283.076 828.055 281.982C827.146 280.878 826.82 280.757 825.495 280.612C822.217 282.791 820.329 287.125 817.37 289.86C804.887 301.398 782.709 300.078 768.507 292.695C764.068 290.388 753.478 280.251 750.057 280.37C749.313 280.395 749.448 280.543 748.915 281.183C748.478 284.132 749.064 285.35 750.825 287.759C745.474 292.793 740.928 295.928 734.094 298.664C718.577 303.114 694.083 303.53 680.825 292.83C677.978 290.531 671.858 280.082 670.625 279.965C669.359 279.845 668.95 280.253 668.077 281.013C667.221 283.122 667.518 285.545 667.557 287.789C666.443 288.443 665.295 289.074 664.123 289.619C655.069 293.828 642.618 293.428 633.403 289.987C626.521 287.418 618.805 282.234 615.881 275.259C614.029 270.842 614.376 265.965 616.296 261.638C618.995 255.437 624.153 250.639 630.534 248.395C636.689 246.241 646.388 245.633 652.341 248.561C654.266 249.508 656.235 250.772 658.454 250.681C659.822 250.625 660.395 250.651 661.311 249.6C661.286 249.443 661.281 249.282 661.237 249.129C660.538 246.692 657.716 245.277 655.717 244.007Z"/><path fill="#010101" d="M184.652 263.741C183.962 263.896 183.213 264.102 182.502 264.161C181.322 264.26 180.834 264.205 179.923 263.392L180.219 262.298C188.822 253.746 213.244 246.389 225.044 244.142C226.988 243.882 228.633 243.524 230.348 244.621L230.445 245.692C229.535 247.311 227.939 247.97 226.308 248.691C220.311 251.344 213.631 252.84 207.404 254.926C199.71 257.503 192.17 260.692 184.652 263.741Z"/><path fill="#010101" d="M600.286 270.021C592.025 269.908 583.523 268.032 575.396 266.653C564.912 264.905 554.415 263.235 543.906 261.641C534.221 260.217 501.596 257.742 494.747 254.606L494.34 253.191C498.139 252.801 502.051 252.935 505.868 253.057C515.03 253.349 524.245 254.137 533.357 255.114C542.243 256.066 596.384 262.964 600.074 267.518C600.649 268.227 600.332 269.158 600.286 270.021Z"/><path fill="#010101" d="M495.307 355.253C494.348 355.312 494.857 355.379 493.804 354.924C490.791 350.068 487.797 345.19 484.433 340.567C480.125 334.647 459.134 308.654 457.876 304.709C458.1 304.733 458.326 304.74 458.547 304.78C464.131 305.791 473.848 317.133 477.367 321.588C482.449 328.02 496.218 347.321 495.307 355.253Z"/><path fill="#010101" d="M181.205 416.666L180.15 416.791C179.723 415.894 179.744 415.775 179.987 414.842C181.907 407.442 249.652 337.066 258.969 328.054C262.591 324.551 266.311 321.015 270.605 318.345C270.811 318.443 271.046 318.495 271.224 318.638C272.121 319.36 272.219 320.442 272.039 321.509C271.238 326.251 259.948 335.817 256.3 339.376C239.345 355.918 222.248 372.531 205.963 389.734C198.163 397.975 189.485 409.617 181.205 416.666Z"/><path fill="#010101" d="M552.361 402.4C554.149 392.312 555.126 381.761 555.813 371.541C556.208 365.66 555.561 354.92 557.337 349.726C557.947 347.945 558.918 347.698 560.445 346.959C563.232 347.445 565.666 348.695 568.054 350.16C584.739 360.395 602.885 389.975 607.397 408.633C615.836 410.26 625.296 412.879 632.675 417.43C640.734 422.4 647.267 430.583 649.254 439.957C651.126 448.794 648.312 456.17 643.651 463.544C649.71 466.306 656.097 467.224 662.583 468.481C668.415 455.847 673.478 441.445 677.979 428.278C680.163 421.889 681.388 415.031 684.647 409.076C685.838 408.274 686.101 408.145 687.526 408.023C689.089 408.614 689.901 409.908 690.909 411.169C692.797 401.399 694.115 389.143 699.83 380.674C700.917 379.062 701.945 378.093 703.928 377.748C705.259 377.991 706.071 378.332 707.052 379.244C710.858 382.787 710.937 389.177 711.036 393.999C712.411 390.543 714.211 387.313 716.651 384.489C717.954 382.98 719.648 381.283 721.781 381.299C722.924 381.308 723.844 382.035 724.512 382.908C728.333 387.903 726.454 396.415 725.671 402.214C726.579 401.133 727.486 400.006 728.486 399.008C730.189 397.31 732.579 395.259 735.173 395.484C736.364 395.587 737.456 396.159 738.173 397.119C739.667 399.118 739.783 402.11 739.579 404.495C738.811 413.473 734.849 423.51 731.912 432.017C717.71 473.149 696.291 510.857 669.639 545.176C660.507 556.935 650.567 568.889 639.302 578.655C644.378 583.414 649.3 587.498 653.419 593.202C665.518 609.95 671.367 635.69 667.975 656.049C665.514 670.823 656.284 689.813 641.823 696.223C633.317 699.993 631.722 697.209 622.18 704.037C622.909 708.634 624.895 713.52 626.206 718.008C629.826 730.394 633.426 742.769 637.925 754.874C639.664 759.554 647.91 775.25 646.97 778.943C640.763 785.495 615.444 793.748 606.152 796.8C602.254 816.372 598.161 835.887 594.466 855.5C592.538 865.738 590.351 876.078 589.308 886.45C601.964 892.1 636.251 903.271 644.367 913.568C646.052 915.705 647.078 918.169 646.643 920.918C646.204 923.697 644.436 925.925 642.157 927.48C633.635 933.292 619.158 931.984 609.555 930.307C597.993 928.288 563.658 919.673 557.19 909.92C555.5 907.372 555.595 904.78 555.7 901.826C556.091 890.886 559.131 879.206 560.895 868.368C564.424 846.683 567.655 824.99 571.404 803.332C569.131 803.677 566.586 804.24 564.291 803.981C562.604 803.791 561.964 803.191 560.945 801.896C560.628 799.666 560.084 797.549 559.502 795.379C558.923 798.613 558.106 801.823 557.371 805.026C549.089 807.1 540.945 808.361 532.486 809.401C529.958 821.225 528.417 833.38 526.281 845.295C523.557 860.498 518.803 880.023 518.794 895.105C530.304 903.066 569.681 921.625 575.432 931.82C576.816 934.274 577.264 937.161 576.478 939.887C575.682 942.644 573.771 944.785 571.269 946.138C561.043 951.666 543.242 946.798 532.975 943.519C518.827 939 492.119 930.037 485.102 916.473C485.581 902.864 487.339 889.736 488.986 876.248C490.642 862.688 492.155 849.123 493.945 835.577C495.193 826.129 497.055 816.497 497.617 806.993C483.797 801.725 472.662 796.224 462.004 785.701C465.744 773.347 468.691 760.767 470.827 748.037C466.333 749.503 462.442 749.899 457.738 749.915C458.572 755.606 460.635 764.451 457.499 769.572C456.766 770.77 455.661 771.584 454.268 771.866C451.196 772.487 448.666 770.438 446.19 768.926C446.239 771.113 446.258 773.26 445.907 775.428C445.489 778.014 444.266 781.961 441.704 783.267C438.258 785.022 436.874 781.721 433.766 780.955C433.048 781.209 432.327 781.469 431.596 781.687C430.597 781.984 429.582 782.144 428.668 781.551C427.272 780.646 426.93 779.536 426.566 777.999C426.301 776.878 426.049 775.945 425.573 774.898C424.653 775.293 423.58 775.826 422.544 775.712C421.368 775.583 420.396 775.167 419.7 774.175C417.006 770.329 419.738 762.404 420.799 758.37C406.761 753.692 393.064 746.355 382.303 736.061C363.332 717.914 354.859 692.482 354.337 666.792C349.822 663.957 346.043 660.372 343.042 655.954C334.705 643.679 334.29 629.047 337.108 614.947C340.213 599.414 348.43 580.182 362.226 571.209C368.79 566.94 376.211 565.236 383.922 566.832C394.831 553.181 413.248 533.453 418.861 517.408C415.935 515.476 411.918 512.357 411.18 508.8C411.96 506.679 425.589 502.127 428.731 500.013C434.955 495.826 440.588 486.443 444.103 479.912C447.393 473.8 449.848 467.379 451.949 460.773C459.8 436.08 454.771 419.112 453.05 394.412C452.442 385.701 451.971 377.191 453.82 368.591C455.394 367.727 457.059 367.024 458.691 366.277C462.198 366.891 465.395 367.682 468.691 369.046C486.078 376.245 502.855 392.994 510.035 410.459C523.897 406.09 537.904 403.692 552.361 402.4ZM418.633 672.354C419.95 672.822 421.229 673.282 422.626 673.457C424.564 673.7 428.119 674.63 429.927 674.05C431.337 673.598 431.976 672.248 432.363 670.976C431.91 669.907 431.827 669.954 430.774 669.428C429.404 669.646 428.186 669.755 426.799 669.743C425.562 668.985 425.359 668.882 424.724 667.594C424.869 666.737 425.182 665.601 425.12 664.745C425.034 663.551 423.719 662.868 422.88 662.177C424.281 661.163 425.702 660.202 427.155 659.264C428.82 659.442 429.438 660.623 430.58 661.803C430.709 662.034 430.845 662.261 430.967 662.496C431.819 664.145 431.266 666.266 431.976 668.169L432.515 668.023L433.993 664C433.555 663.439 433.187 663.016 432.683 662.532L432.746 661.914C435.06 659.986 435.337 657.003 435.99 654.219C433.859 652.3 431.729 651.217 429.143 650.073C425.63 650.634 421.674 651.747 419.389 654.699C415.538 659.675 417.96 666.687 418.633 672.354ZM562.201 353.771C560.97 359.631 561.259 366.002 560.831 371.977C560.111 382.021 558.97 392.155 557.137 402.058C558.892 402.038 561.135 402.285 562.741 401.533C564.882 395.634 563.489 366.668 566.514 364.491C571.307 364.892 578.554 373.113 581.702 376.808C583.232 378.603 584.667 380.66 585.706 382.776C589.652 390.666 593.657 398.518 595.508 407.213C597.617 407.67 599.608 408.209 601.781 408.028L602.284 407.556C601.424 403.82 599.103 399.957 597.416 396.502C588.959 379.186 578.155 364.696 562.201 353.771ZM569.083 370.135C568.545 380.862 567.791 391.627 567.498 402.362C575.58 403.375 583.774 404.257 591.669 406.326L592.042 405.787C589.169 396.465 578.693 374.812 569.811 370.465C569.572 370.348 569.326 370.245 569.083 370.135ZM457.578 373.971C456.336 413.693 470.227 435.584 450.997 476.266C460.837 465.983 471.169 456.531 482.636 448.075C485.29 436.9 489.472 429.257 499.457 423.118C508.85 417.343 521.438 415.116 532.181 417.746C543.926 420.621 552.406 427.971 560.568 436.469C566.648 435.848 572.924 434.999 579.032 434.932C581.494 426.538 585.454 419.477 593.376 415.102C594.758 414.339 596.223 413.713 597.671 413.09C580.819 410.152 565.187 407.046 547.88 408.578C541.809 409.254 535.805 410.04 529.818 411.267C521.779 412.915 493.196 421.573 486.722 419.623L486.381 418.977C487.896 416.402 490.205 415.876 492.833 414.907C487.733 404.086 475.681 392.494 464.444 388.22C466.584 396.205 468.51 404.35 471.016 412.224C472.15 415.791 474.175 419.107 475.04 422.721C475.425 424.33 475.864 426.359 475.297 427.98C475.111 428.513 474.86 428.418 474.301 428.612C470.59 426.767 469.736 422.969 468.513 419.313C465.747 411.046 458.354 389.14 459.757 381.243L460.477 380.735C474.78 387.285 491.029 397.033 496.821 412.566C496.98 412.995 497.136 413.424 497.289 413.856C500.111 413.134 502.944 412.436 505.756 411.675C496.844 395.647 483.901 380.655 465.642 375.42C462.998 374.662 460.3 374.316 457.578 373.971ZM703.073 383.74C700.379 388.413 698.33 393.073 697.286 398.391C696.181 404.014 696.966 423.493 693.766 426.395C692.727 426.071 692.534 425.92 691.971 424.914C690.181 421.712 690.269 417.304 687.981 414.408L687.356 414.526C686.186 417.289 685.449 420.517 685.119 423.495C694.979 433.351 708.392 441.098 721.169 446.374C723.349 441.899 724.855 437.109 726.49 432.414C728.995 425.42 735.713 408.697 734.332 401.964L733.599 401.58C728.815 403.668 726.878 412.412 722.079 413.216C720.513 406.664 721.67 393.431 721.421 385.947C717.279 391.294 713.533 397.352 712.126 404.021C711.661 406.221 711.331 408.507 709.464 409.941C708.49 409.483 708.729 409.808 708.345 408.861C705.786 402.565 709.729 387.857 703.073 383.74ZM605.994 416.105C598.005 418.272 591.047 421.739 586.662 429.212C583.719 434.311 582.25 440.128 582.418 446.014C588.909 456.11 599.799 468.165 612.054 470.884C615.731 471.7 618.734 471.328 622.384 470.825C629.45 469.439 636.434 465.271 640.506 459.23C644.096 453.904 645.173 447.491 643.852 441.246C642.176 433.09 637.219 425.983 630.144 421.594C623.25 417.293 614.072 415.374 605.994 416.105ZM518.536 422.192C508.353 423.263 499.627 426.782 492.974 434.867C488.927 439.785 487.094 444.947 486.034 451.185C480.503 455.721 474.723 460.072 469.402 464.848C461.288 472.132 453.745 480.106 446.106 487.883C450.521 485.269 454.392 481.714 458.382 478.495C467.511 471.127 477.36 462.708 487.736 457.294C489.302 463.23 491.105 468.474 494.781 473.461C501.066 481.035 509.457 485.996 519.367 486.93C529.678 487.902 539.811 484.942 547.723 478.223C554.374 472.574 558.23 465.019 559.597 456.476C560.067 453.544 560.07 450.562 560.822 447.685C566.848 447.442 572.977 447.549 578.98 447.012L578.812 439.463C571.841 439.729 564.763 439.931 557.918 441.371C549.506 431.057 540.372 423.608 526.676 422.179C524.038 421.904 521.17 421.883 518.536 422.192ZM683.406 429.973C678.19 443.917 672.421 457.73 667.33 471.7C666.059 475.185 666.463 479.216 665.038 482.579C662.299 489.038 657.445 495.235 653.39 500.958C648.307 508.134 639.228 520.971 632.318 525.926C631.021 526.857 627.508 528.833 627.992 530.534C629.468 531.71 630.658 532.24 632.585 532.145C633.629 531.488 634.221 531.084 634.501 529.809C634.73 528.768 634.754 527.618 634.827 526.555C635.125 528.249 635.509 529.581 634.766 531.221C633.818 532.226 633.33 532.575 631.986 532.916C629.758 532.636 627.138 530.802 625.022 531.206L623.016 532.89C627.657 540.985 631.651 550.935 634.446 559.857C635.493 563.203 635.536 569.517 637.901 572.056L639.106 571.182C667.933 543.185 690.705 508.789 708.472 472.909C712.001 465.781 715.809 458.648 718.607 451.193C710.183 447.873 702.199 443.531 694.834 438.265C691.007 435.561 687.41 432.4 683.406 429.973ZM564.128 451.524C564.079 462.727 561.032 471.615 552.961 479.623C545.05 487.472 534.9 491.366 523.794 491.252C513.128 491.143 502.25 488.01 494.62 480.228C489.932 475.446 486.982 469.421 485.245 463.009C476.961 469.464 468.709 475.962 460.492 482.501C448.237 492.389 433.406 507.105 418.047 511.608C424.618 515.691 430.855 520.52 437.695 524.125C445.956 528.48 454.773 531.813 463.492 535.111C491.791 545.815 519.468 551.803 549.843 550.731C560.145 550.367 570.327 549.5 580.385 547.109C584.926 546.03 589.334 544.608 593.716 543.013C623.722 531.722 646.779 508.195 659.748 479.046C660.446 477.476 661.06 476.192 660.692 474.503C655.817 471.256 646.014 469.615 640.179 467.834C633.327 472.8 627.917 475.283 619.528 476.211C620.074 483.451 620.326 490.17 615.165 495.993C611.8 499.789 607.231 501.904 602.629 503.782C602.619 510.001 599.016 518.52 594.527 522.819C591.684 525.541 588.018 526.817 584.102 526.619C577.775 526.299 572.216 522.318 568.216 517.635C564.46 513.238 562.168 507.936 559.768 502.735C557.861 501.643 555.854 500.558 555.386 498.218C555.225 497.411 555.6 497.261 556.049 496.656C560.412 494.897 567.287 498.812 572.068 499.293C579.093 499.999 586.005 500.122 593.033 499.425C592.064 496.851 591.375 494.407 590.828 491.715C586.482 489.976 582.772 488.448 580.661 483.909C579.229 480.831 579.304 477.121 580.557 473.996C581.779 470.949 584.431 467.969 587.526 466.738C589.193 466.075 591.111 465.822 592.862 465.456C587.314 461.229 583.422 457.494 579.954 451.431C574.679 451.415 569.403 451.445 564.128 451.524ZM607.16 475.51C608.014 478.553 608.905 481.432 607.343 484.447C604.931 489.1 595.636 488.976 595.106 494.691C595.539 496.309 596.014 496.872 597.198 498.059C598.791 498.496 599.617 498.1 601.2 497.705C605.712 496.259 609.872 493.985 612.065 489.598C614.006 485.716 613.958 481.318 613.981 477.078L607.16 475.51ZM564.183 503.816L564.576 504.254C569.919 510.309 574.72 520.317 583.863 521.258C586.275 521.506 589.079 520.621 590.891 519.007C591.535 518.434 592.025 517.744 592.529 517.051C594.077 513.082 595.312 509.067 596.521 504.987C589.872 505.391 583.25 505.814 576.59 505.329C572.423 505.026 568.331 504.169 564.183 503.816ZM423.249 520.84C418.74 529.814 412.6 539.28 406.364 547.174C394.746 561.881 381.547 574.742 375.028 592.763C382.895 599.619 384.719 605.669 385.376 615.781C386.273 629.597 382.476 645.788 373.147 656.368C369.208 660.836 364.399 663.622 358.986 665.978C359.129 668.967 358.705 676.752 360.59 678.896C360.756 678.832 360.917 678.753 361.088 678.705C362.781 678.223 366.081 678.244 367.643 678.912L367.733 679.867C365.717 681.911 363.612 681.796 360.892 682.134C364.882 701.626 373.194 719.879 387.683 733.827C388.987 732.603 390.537 730.74 392.229 730.127C392.678 731.114 392.558 731.339 392.488 732.396C392.286 735.443 393.118 737.884 395.175 740.17C398.482 743.844 403.719 746.045 408.106 748.183C412.389 750.246 416.631 752.073 421.17 753.497C422.803 741.751 423.532 729.86 425.288 718.149C424.363 717.087 423.428 716.046 422.582 714.92C423.812 708.131 424.988 701.314 426.417 694.565C427.588 689.03 429.132 683.512 429.886 677.904C424.227 678.374 419.831 677.321 414.796 674.685C413.906 669.495 413.085 664.326 412.449 659.097C414.575 653.989 418.078 649.244 423.306 646.979C426.111 645.764 429.506 645.413 432.407 646.53C434.017 647.15 435.404 648.399 436.642 649.57C441.806 633.203 445.583 616.344 450.176 599.796C451.847 593.775 453.294 587.616 455.464 581.752C457.639 575.875 460.455 570.321 463.266 564.732C459.606 558.784 458.434 545.694 457.657 538.553C446.067 533.289 433.295 528.938 423.249 520.84ZM463.986 540.895C464.755 547.173 465.734 553.836 467.299 559.961L474.475 552.787L481.615 547.227L463.986 540.895ZM604.733 545.368C602.77 554.706 600.56 568.912 595.654 576.911C590.744 575.174 586.686 572.591 582.382 569.701C588.07 593.953 590.345 619.388 592.613 644.175C594.574 665.61 596.552 687.027 596.914 708.564L606.878 705.156C616.553 700.915 630.993 694.846 636.556 685.299C636.139 672.387 608.324 549.053 604.733 545.368ZM599.018 547.556C589.112 550.883 579.739 553.072 569.376 554.544C572.399 557.251 576.145 559.133 579.494 561.409C583.926 564.672 588.3 568.39 592.931 571.315C593.858 567.898 599.683 549.773 599.309 547.808L599.018 547.556ZM487.401 549.92C482.635 552.535 478.747 555.232 474.787 558.951C481.901 581.376 480.838 601.896 478.173 624.846C476.958 635.313 475.612 645.624 473.795 656.008C472.627 662.682 469.097 677.2 469.396 683.384C470.543 683.732 471.197 683.533 472.255 683.022C472.856 682.732 473.171 682.519 473.713 682.181C495.865 658.869 500.111 602.029 499.32 570.395C499.206 565.83 499.094 561.046 498.275 556.547C495.495 553.742 492.151 549.883 487.872 549.868C487.714 549.867 487.558 549.903 487.401 549.92ZM499.324 551.19C502.318 555.039 511.541 560.059 516.083 563.659C524.364 570.222 532.675 577.483 539.856 585.222C542.715 580.842 545.666 576.524 548.707 572.269C552.504 566.555 556.441 560.936 560.513 555.416C537.124 556.732 522.086 555.097 499.324 551.19ZM565.28 558.21C561.514 564.158 557.717 570.049 553.663 575.806C559.302 607.696 562.83 639.925 564.223 672.28C564.934 686.867 565.812 702.294 564.458 716.848L578.892 713.962C583.456 712.88 588.008 711.867 592.305 709.93C589.644 693.382 589.235 676.04 587.991 659.302C585.728 628.861 583.114 597.203 578.197 567.102C573.918 564.188 569.678 560.91 565.28 558.21ZM503.419 560.226C504.934 591.371 502.022 659.315 480.044 682.597C476.509 686.342 473.621 687.421 468.625 688.075C467.598 693.935 466.496 699.826 465.751 705.729C485.91 717.157 508.465 721.148 531.441 720.569C540.543 720.308 550.695 719.872 559.55 717.683C559.733 683.831 558.101 649.993 554.662 616.315C553.423 604.83 552.283 592.872 549.799 581.588C549.659 581.755 549.517 581.921 549.378 582.09C547.266 584.659 543.977 592.079 540.869 592.332C539.112 592.474 537.601 590.75 536.373 589.647C525.25 579.657 515.64 569.016 503.419 560.226ZM470.313 562.904C466.784 566.16 465.193 569.828 463.467 574.226C458.575 586.69 455.616 600.451 452.186 613.408C443.372 646.707 436.228 680.432 427.546 713.75C430.534 715.225 433.521 716.83 436.614 718.067C443.39 720.2 449.862 721.819 457.001 721.846C460.233 705.689 462.597 689.385 465.417 673.155C469.517 649.557 474.178 625.533 475.513 601.598C475.978 593.268 475.243 569.436 470.702 563.332C470.587 563.177 470.443 563.046 470.313 562.904ZM638.619 583.364L638.462 602.114C643.256 602.157 646.722 602.609 651.15 604.543C653.864 609.841 660.132 624.316 658.285 630.034C657.752 631.685 656.527 632.82 654.975 633.531C649.206 636.173 638.286 634.635 632.214 633.099L632.296 633.837C633.817 646.947 643.129 672.912 640.807 684.482C640.121 687.904 637.777 691.164 635.823 694.013L636.444 694.4C642.098 692.88 648.163 687.46 651.391 682.666C651.653 678.253 652.106 660.033 653.915 657.292C655.286 655.216 657.817 653.421 659.56 651.558C661.216 649.788 662.66 647.76 664.091 645.805C663.225 635.936 662.186 624.934 658.74 615.58C657.88 613.245 655.018 612.239 654.339 609.821C653.914 608.307 655.176 607.869 655.166 606.804C655.162 606.355 653.654 604.048 653.364 603.521C649.311 596.175 644.913 589.069 638.619 583.364ZM371.508 587.358C362.819 592.841 359.903 602.661 357.71 612.264C355.558 621.684 355.502 630.406 356.775 639.93C358.588 635.143 359.67 629.941 360.992 624.99C363.229 616.579 365.549 608.191 367.951 599.826C368.981 596.299 372.146 591.085 372.084 587.627L371.508 587.358ZM373.597 597.892C368.776 616.349 359.638 642.528 358.896 660.836L364.295 657.705C372.224 652.897 376.523 644.603 378.683 635.823C381.437 624.623 381.325 609.897 375.064 599.802C374.596 599.048 374.216 598.532 373.597 597.892ZM637.921 607.049C637.478 611.704 636.889 616.394 636.749 621.068C639.756 623.507 640.046 624.942 640.61 628.613C644.572 628.847 648.415 628.927 652.379 628.709C653.699 626.06 652.104 620.66 651.189 617.865C650.09 614.506 648.787 611.634 646.583 608.836C643.701 607.813 640.939 607.422 637.921 607.049ZM662.248 655.893C660.812 658.334 659.661 660.501 657.311 662.211C656.906 665.462 655.838 669.904 656.305 673.126C658.891 669.284 662.51 660.6 662.248 655.893ZM427.382 660.734C426.357 663.1 426.064 665.329 426.937 667.79C427.75 668.47 428.236 668.676 429.274 668.884C429.561 666.653 430.023 664.45 429.538 662.226C428.826 661.566 428.27 661.131 427.382 660.734ZM617.185 706.516C586.049 721.808 542.797 729.127 508.332 724.813C498.293 723.557 488.22 720.885 478.649 717.639C477.797 725.334 477.491 733.052 476.737 740.751C475.248 755.959 472.531 770.178 468.147 784.809C483.228 797.245 499.359 804.588 519.089 804.982C530.24 805.234 542.548 803.286 553.543 801.418C554.191 794.191 555.187 771.286 557.692 766.133L558.476 765.859C560.989 768.538 564.144 793.437 565.765 799.294C572.999 797.943 580.35 797.403 587.561 796.004C603.479 792.915 628.048 785.056 641.43 776.343C631.345 757.958 626.442 737.647 620.35 717.746C619.806 715.97 618.103 706.906 617.185 706.516ZM464.852 710.759C463.105 715.234 457.32 738.907 457.468 743.26C457.488 743.834 457.483 744.411 457.499 744.985C460.571 744.917 463.561 744.822 466.609 744.383L470.794 743.69C471.516 734.597 471.604 724.718 473.408 715.805C470.568 714.11 467.746 712.361 464.852 710.759ZM429.91 719.615C427.01 732.642 427.422 746.341 425 759.485C424.51 762.141 422.175 768.887 423.353 771.204L424.197 771.449C427.386 768.662 426.15 764.327 428.298 761.242C430.799 762.262 431.979 765.611 433.131 767.931C433.862 767.115 433.937 766.838 434.304 765.847C434.71 764.75 434.938 764.177 435.95 763.504L436.748 763.475C439.57 767.557 435.597 775.748 439.063 779.162C440.219 779.003 440.011 778.992 440.738 778.222C441.885 773.223 441.445 769.17 440.881 764.163C441.079 764.084 441.279 764.008 441.476 763.926C443.238 763.191 444.075 762.692 445.181 761.152C446.014 759.992 447.288 758.336 448.698 758.057C451.062 760.4 451.973 764.356 453.311 767.369C453.429 752.4 450.516 742.049 454.275 726.651C445.36 725.862 437.855 723.661 429.91 719.615ZM431.138 767.849C430.76 770.413 429.734 774.938 430.993 777.245C431.198 777.114 431.467 777.031 431.585 776.818C432.504 774.397 434.03 771.583 433.493 768.988C432.713 768.326 432.118 768.121 431.138 767.849ZM599.28 798.648C591.891 799.945 583.862 800.647 576.689 802.751C575.637 810.282 569.503 844.402 570.332 848.822C571.797 849.657 573.184 850.013 574.816 850.407C580.141 851.28 584.131 851.537 589.462 850.7C591.984 838.723 593.95 826.626 596.515 814.669C597.625 809.491 599.525 804.385 600.452 799.207L599.908 798.586L599.28 798.648ZM502.207 807.822C501.636 816.762 500.645 825.617 499.523 834.504C498.824 840.037 497.676 845.876 497.64 851.434C497.628 853.224 497.658 854.452 498.745 855.864C502.531 857.626 512.805 858.773 516.903 858.007C517.702 857.857 518.029 857.575 518.33 856.874C518.728 855.946 518.874 855.104 519.058 854.119C521.96 839.377 523.549 824.166 526.903 809.564C518.732 809.654 510.247 809.38 502.207 807.822ZM569.343 853.709C567.664 860.882 561.13 895.135 562.357 900.77C566.144 905.174 579.708 908.635 585.433 910.517C586.554 908.044 587.742 905.853 589.266 903.6C592.138 900.231 595.232 897.332 598.695 894.575C593.889 892.475 589.139 890.362 584.491 887.921C584.243 876.919 587.181 866.562 588.81 855.784C581.454 857.082 576.341 856.089 569.343 853.709ZM496.836 860.233C495.412 867.146 494.864 874.145 493.923 881.129C499.004 883.021 508.817 886.094 514.101 884.314L514.366 883.906C515.527 876.617 516.321 869.281 517.45 861.997C510.222 862.773 503.798 862.435 496.836 860.233ZM493.796 886.189C492.049 893.363 491.345 901.632 491.412 909.008C498.913 912.553 505.659 917.509 513.41 920.471C514.163 917.55 514.857 915.017 516.892 912.673C519.803 909.526 522.459 906.589 526.18 904.375C521.774 901.66 517.444 899.046 513.519 895.639C513.625 893.41 513.67 891.16 513.882 888.939C505.084 889.608 501.948 888.042 493.796 886.189ZM608.414 898.811C605.223 902.081 597.255 909.471 596.421 913.792C599.329 915.408 603.402 915.844 606.679 916.363L607.721 916.216C610.715 911.261 614.277 906.904 618.206 902.67C614.989 901.379 611.522 900.311 608.414 898.811ZM536.61 909.984C533.048 915.221 527.428 918.456 523.946 924.025C527.976 925.685 531.991 927.441 536.084 928.939C539.567 924.127 543.681 920.669 548.222 916.868C544.146 914.875 539.934 913.143 536.61 909.984ZM639.181 915.455C637.471 917.448 635.562 919.067 635.718 921.852C636.594 922.542 636.952 922.533 638.026 922.692C639.626 921.918 640.026 921.755 641.087 920.248C641.339 918.932 641.326 918.129 640.601 916.944C640.281 916.42 639.61 915.864 639.181 915.455ZM563.408 928.623L561.158 933.113C563.959 934.128 567.175 934.944 568.967 937.498C568.33 937.984 567.714 938.389 567.034 938.807L567.094 939.672L567.927 940.155C569.536 939.28 570.409 939.006 571.402 937.438C571.507 935.506 571.067 934.183 569.735 932.772C568.128 931.07 565.633 929.339 563.408 928.623Z"/><path fill="#FEFEFE" d="M557.137 402.058C558.97 392.155 560.111 382.021 560.831 371.977C561.259 366.002 560.97 359.631 562.201 353.771C578.155 364.696 588.959 379.186 597.416 396.502C599.103 399.957 601.424 403.82 602.284 407.556L601.781 408.028C599.608 408.209 597.617 407.67 595.508 407.213C593.657 398.518 589.652 390.666 585.706 382.776C584.667 380.66 583.232 378.603 581.702 376.808C578.554 373.113 571.307 364.892 566.514 364.491C563.489 366.668 564.882 395.634 562.741 401.533C561.135 402.285 558.892 402.038 557.137 402.058Z"/><path fill="#010101" d="M299.387 485.355C298.41 485.456 298.949 485.494 297.791 485.076C297.553 484.509 297.524 484.531 297.439 483.811C297.021 480.286 303.082 463.952 304.377 459.817C310.762 439.43 317.106 419.104 324.225 398.956C327.677 389.185 331.282 376.675 337.273 368.173C338.315 368.561 338.803 368.673 339.291 369.785C340.239 371.945 338.325 377.189 337.639 379.406C332.093 397.335 324.706 414.972 318.468 432.693C314.413 444.478 310.278 456.236 306.063 467.964C303.96 473.764 302.045 479.795 299.387 485.355Z"/><path fill="#FEFEFE" d="M567.498 402.362C567.791 391.627 568.545 380.862 569.083 370.135C569.326 370.245 569.572 370.348 569.811 370.465C578.693 374.812 589.169 396.465 592.042 405.787L591.669 406.326C583.774 404.257 575.58 403.375 567.498 402.362Z"/><path fill="#FEFEFE" d="M450.997 476.266C470.227 435.584 456.336 413.693 457.578 373.971C460.3 374.316 462.998 374.662 465.642 375.42C483.901 380.655 496.844 395.647 505.756 411.675C502.944 412.436 500.111 413.134 497.289 413.856C497.136 413.424 496.98 412.995 496.821 412.566C491.029 397.033 474.78 387.285 460.477 380.735L459.757 381.243C458.354 389.14 465.747 411.046 468.513 419.313C469.736 422.969 470.59 426.767 474.301 428.612C474.86 428.418 475.111 428.513 475.297 427.98C475.864 426.359 475.425 424.33 475.04 422.721C474.175 419.107 472.15 415.791 471.016 412.224C468.51 404.35 466.584 396.205 464.444 388.22C475.681 392.494 487.733 404.086 492.833 414.907C490.205 415.876 487.896 416.402 486.381 418.977L486.722 419.623C493.196 421.573 521.779 412.915 529.818 411.267C535.805 410.04 541.809 409.254 547.88 408.578C565.187 407.046 580.819 410.152 597.671 413.09C596.223 413.713 594.758 414.339 593.376 415.102C585.454 419.477 581.494 426.538 579.032 434.932C572.924 434.999 566.648 435.848 560.568 436.469C552.406 427.971 543.926 420.621 532.181 417.746C521.438 415.116 508.85 417.343 499.457 423.118C489.472 429.257 485.29 436.9 482.636 448.075C471.169 456.531 460.837 465.983 450.997 476.266Z"/><path fill="#010101" d="M392.743 479.053L391.834 479.405C391.681 479.122 391.491 478.857 391.376 478.557C390.87 477.237 390.972 474.604 390.832 473.134C389.303 457.048 389.768 441.019 389.113 424.897C388.575 411.64 387.018 398.249 387.197 384.986C387.23 382.526 387.121 379.883 388.561 377.783L389.426 378.297C391.935 381.954 392.163 389.687 392.652 394.083C395.819 422.563 395.418 450.528 392.743 479.053Z"/><path fill="#FEFEFE" d="M685.119 423.495C685.449 420.517 686.186 417.289 687.356 414.526L687.981 414.408C690.269 417.304 690.181 421.712 691.971 424.914C692.534 425.92 692.727 426.071 693.766 426.395C696.966 423.493 696.181 404.014 697.286 398.391C698.33 393.073 700.379 388.413 703.073 383.74C709.729 387.857 705.786 402.565 708.345 408.861C708.729 409.808 708.49 409.483 709.464 409.941C711.331 408.507 711.661 406.221 712.126 404.021C713.533 397.352 717.279 391.294 721.421 385.947C721.67 393.431 720.513 406.664 722.079 413.216C726.878 412.412 728.815 403.668 733.599 401.58L734.332 401.964C735.713 408.697 728.995 425.42 726.49 432.414C724.855 437.109 723.349 441.899 721.169 446.374C708.392 441.098 694.979 433.351 685.119 423.495Z"/><path fill="#FEFEFE" d="M582.418 446.014C582.25 440.128 583.719 434.311 586.662 429.212C591.047 421.739 598.005 418.272 605.994 416.105C614.072 415.374 623.25 417.293 630.144 421.594C637.219 425.983 642.176 433.09 643.852 441.246C645.173 447.491 644.096 453.904 640.506 459.23C636.434 465.271 629.45 469.439 622.384 470.825C618.734 471.328 615.731 471.7 612.054 470.884C599.799 468.165 588.909 456.11 582.418 446.014ZM609.969 418.645C602.628 420.117 595.926 424.221 591.635 430.44C588.936 434.353 587.115 439.202 587.981 444.004C589.185 450.679 595.047 456.165 600.525 459.727C607.394 464.193 617.49 467.456 625.698 465.693C630.412 464.681 632.966 462.48 635.479 458.502C637.019 454.494 637.724 450.207 638.582 446.013C637.44 447.771 636.464 449.619 634.702 450.818C632.325 450.827 630.314 448.713 628.689 447.102C626.793 445.224 623.589 441.782 623.614 439.006C623.624 437.978 624.062 437.135 624.945 436.599C626.169 435.856 628.603 435.881 629.934 436.404C633.118 437.654 636.433 441.359 638.206 444.152C636.739 435.459 633.954 428.83 626.459 423.569C622.098 420.508 615.362 417.752 609.969 418.645Z"/><path fill="#010101" d="M635.479 458.502C632.966 462.48 630.412 464.681 625.698 465.693C617.49 467.456 607.394 464.193 600.525 459.727C595.047 456.165 589.185 450.679 587.981 444.004C587.115 439.202 588.936 434.353 591.635 430.44C595.926 424.221 602.628 420.117 609.969 418.645C615.362 417.752 622.098 420.508 626.459 423.569C633.954 428.83 636.739 435.459 638.206 444.152C636.433 441.359 633.118 437.654 629.934 436.404C628.603 435.881 626.169 435.856 624.945 436.599C624.062 437.135 623.624 437.978 623.614 439.006C623.589 441.782 626.793 445.224 628.689 447.102C630.314 448.713 632.325 450.827 634.702 450.818C636.464 449.619 637.44 447.771 638.582 446.013C637.724 450.207 637.019 454.494 635.479 458.502ZM595.604 428.7C594.574 430.177 593.579 431.387 593.86 433.302C594.197 435.593 595.458 437.001 597.284 438.323C598.635 439.301 599.97 439.701 601.585 440.017C602.496 439.102 603.192 438.378 603.206 437.002C603.23 434.603 601.089 432.704 599.397 431.318C598.206 430.343 596.905 429.519 595.604 428.7ZM590.793 436.214C589.386 439.506 589.334 441.521 590.678 444.897C593.8 452.737 603.537 457.939 610.955 460.896C612.756 461.614 614.591 462.06 616.496 462.395L616.866 461.506C615.04 458.442 609.747 457.564 607.062 454.961C600.913 448.999 598.307 442.451 590.793 436.214ZM615.46 439.509C614.307 440.305 612.621 441.277 612.149 442.67C611.74 443.877 612.084 444.866 612.743 445.885C614.293 448.282 619.681 450.827 622.268 451.978C623.513 451.382 625.204 450.805 625.714 449.406C626.295 447.812 625.991 445.99 625.167 444.538C624.097 442.652 621.42 440.116 619.243 439.612C618.06 439.339 616.669 439.466 615.46 439.509Z"/><path fill="#FEFEFE" d="M486.034 451.185C487.094 444.947 488.927 439.785 492.974 434.867C499.627 426.782 508.353 423.263 518.536 422.192C521.17 421.883 524.038 421.904 526.676 422.179C540.372 423.608 549.506 431.057 557.918 441.371C564.763 439.931 571.841 439.729 578.812 439.463L578.98 447.012C572.977 447.549 566.848 447.442 560.822 447.685C560.07 450.562 560.067 453.544 559.597 456.476C558.23 465.019 554.374 472.574 547.723 478.223C539.811 484.942 529.678 487.902 519.367 486.93C509.457 485.996 501.066 481.035 494.781 473.461C491.105 468.474 489.302 463.23 487.736 457.294C477.36 462.708 467.511 471.127 458.382 478.495C454.392 481.714 450.521 485.269 446.106 487.883C453.745 480.106 461.288 472.132 469.402 464.848C474.723 460.072 480.503 455.721 486.034 451.185ZM515.276 426.151C506.457 429.312 498.726 433.147 494.611 442.157C491.572 448.809 492.426 456.26 495.052 462.888C498.129 470.653 503.712 476.518 511.447 479.735C517.372 482.199 523.325 482.4 529.591 481.397C536.149 480.481 542.771 477.387 546.895 472.077C551.046 466.732 552.605 459.348 551.651 452.709C550.474 444.519 545.299 437.433 538.708 432.667C531.407 427.386 524.268 425.404 515.276 426.151Z"/><path fill="#010101" d="M529.591 481.397C523.325 482.4 517.372 482.199 511.447 479.735C503.712 476.518 498.129 470.653 495.052 462.888C492.426 456.26 491.572 448.809 494.611 442.157C498.726 433.147 506.457 429.312 515.276 426.151C524.268 425.404 531.407 427.386 538.708 432.667C545.299 437.433 550.474 444.519 551.651 452.709C552.605 459.348 551.046 466.732 546.895 472.077C542.771 477.387 536.149 480.481 529.591 481.397ZM526.462 429.562L520.653 431.52C521.607 433.747 522.507 435.827 523.92 437.817C526.491 437.698 529.051 437.592 531.625 437.596C533.676 437.061 535.164 436.074 536.919 434.932C533.828 432.454 530.587 429.9 526.462 429.562ZM511.69 431.584C507.129 433.469 502.467 436.418 500.388 441.13C499.78 442.508 499.5 444.049 500.126 445.485C500.892 447.244 502.69 448.194 504.45 448.668C505.74 449.015 507.121 449.191 508.441 449.4C512.447 448.65 515.423 446.724 517.671 443.264C519.141 441 520.074 438.142 519.357 435.46C518.916 433.809 517.604 432.566 516.08 431.893C514.846 431.348 513.016 431.557 511.69 431.584ZM541.039 441.262C539.761 443.348 539.279 444.901 539.954 447.343C540.454 449.152 541.95 451.223 543.65 452.07C544.347 452.417 545.1 452.638 545.841 452.868C546.905 450.539 547.506 447.962 546.602 445.461C546.056 443.951 544.971 442.582 543.482 441.923C542.707 441.576 541.883 441.352 541.039 441.262ZM517.564 447.637C516.282 449.16 515.167 450.562 515.37 452.697C515.479 453.855 516.158 454.924 517.121 455.567C518.086 456.211 519.287 456.375 520.406 456.578C521.434 455.474 522.214 454.931 522.287 453.283C522.36 451.623 521.438 450.06 520.191 449.029C519.388 448.365 518.542 447.964 517.564 447.637ZM497.384 457.911C497.67 460.476 498.881 462.707 500.87 464.377C502.25 465.535 503.151 465.711 504.861 465.672C504.992 463.661 504.272 461.446 502.883 459.945C501.289 458.223 499.961 457.967 497.686 457.923C497.585 457.921 497.485 457.915 497.384 457.911ZM525.629 460.986C525.448 462.32 525.092 463.236 526.02 464.418C526.852 465.48 528.661 465.952 529.899 466.373C530.186 464.866 530.474 463.724 529.99 462.214C528.552 460.918 527.552 460.927 525.629 460.986Z"/><path fill="#FEFEFE" d="M601.585 440.017C599.97 439.701 598.635 439.301 597.284 438.323C595.458 437.001 594.197 435.593 593.86 433.302C593.579 431.387 594.574 430.177 595.604 428.7C596.905 429.519 598.206 430.343 599.397 431.318C601.089 432.704 603.23 434.603 603.206 437.002C603.192 438.378 602.496 439.102 601.585 440.017Z"/><path fill="#FEFEFE" d="M520.653 431.52L526.462 429.562C530.587 429.9 533.828 432.454 536.919 434.932C535.164 436.074 533.676 437.061 531.625 437.596C529.051 437.592 526.491 437.698 523.92 437.817C522.507 435.827 521.607 433.747 520.653 431.52Z"/><path fill="#FEFEFE" d="M623.016 532.89L625.022 531.206C627.138 530.802 629.758 532.636 631.986 532.916C633.33 532.575 633.818 532.226 634.766 531.221C635.509 529.581 635.125 528.249 634.827 526.555C634.754 527.618 634.73 528.768 634.501 529.809C634.221 531.084 633.629 531.488 632.585 532.145C630.658 532.24 629.468 531.71 627.992 530.534C627.508 528.833 631.021 526.857 632.318 525.926C639.228 520.971 648.307 508.134 653.39 500.958C657.445 495.235 662.299 489.038 665.038 482.579C666.463 479.216 666.059 475.185 667.33 471.7C672.421 457.73 678.19 443.917 683.406 429.973C687.41 432.4 691.007 435.561 694.834 438.265C702.199 443.531 710.183 447.873 718.607 451.193C715.809 458.648 712.001 465.781 708.472 472.909C690.705 508.789 667.933 543.185 639.106 571.182L637.901 572.056C635.536 569.517 635.493 563.203 634.446 559.857C631.651 550.935 627.657 540.985 623.016 532.89Z"/><path fill="#FEFEFE" d="M508.441 449.4C507.121 449.191 505.74 449.015 504.45 448.668C502.69 448.194 500.892 447.244 500.126 445.485C499.5 444.049 499.78 442.508 500.388 441.13C502.467 436.418 507.129 433.469 511.69 431.584C513.016 431.557 514.846 431.348 516.08 431.893C517.604 432.566 518.916 433.809 519.357 435.46C520.074 438.142 519.141 441 517.671 443.264C515.423 446.724 512.447 448.65 508.441 449.4Z"/><path fill="#FEFEFE" d="M616.496 462.395C614.591 462.06 612.756 461.614 610.955 460.896C603.537 457.939 593.8 452.737 590.678 444.897C589.334 441.521 589.386 439.506 590.793 436.214C598.307 442.451 600.913 448.999 607.062 454.961C609.747 457.564 615.04 458.442 616.866 461.506L616.496 462.395Z"/><path fill="#FEFEFE" d="M622.268 451.978C619.681 450.827 614.293 448.282 612.743 445.885C612.084 444.866 611.74 443.877 612.149 442.67C612.621 441.277 614.307 440.305 615.46 439.509C616.669 439.466 618.06 439.339 619.243 439.612C621.42 440.116 624.097 442.652 625.167 444.538C625.991 445.99 626.295 447.812 625.714 449.406C625.204 450.805 623.513 451.382 622.268 451.978Z"/><path fill="#FEFEFE" d="M545.841 452.868C545.1 452.638 544.347 452.417 543.65 452.07C541.95 451.223 540.454 449.152 539.954 447.343C539.279 444.901 539.761 443.348 541.039 441.262C541.883 441.352 542.707 441.576 543.482 441.923C544.971 442.582 546.056 443.951 546.602 445.461C547.506 447.962 546.905 450.539 545.841 452.868Z"/><path fill="#FEFEFE" d="M520.406 456.578C519.287 456.375 518.086 456.211 517.121 455.567C516.158 454.924 515.479 453.855 515.37 452.697C515.167 450.562 516.282 449.16 517.564 447.637C518.542 447.964 519.388 448.365 520.191 449.029C521.438 450.06 522.36 451.623 522.287 453.283C522.214 454.931 521.434 455.474 520.406 456.578Z"/><path fill="#FEFEFE" d="M485.245 463.009C486.982 469.421 489.932 475.446 494.62 480.228C502.25 488.01 513.128 491.143 523.794 491.252C534.9 491.366 545.05 487.472 552.961 479.623C561.032 471.615 564.079 462.727 564.128 451.524C569.403 451.445 574.679 451.415 579.954 451.431C583.422 457.494 587.314 461.229 592.862 465.456C591.111 465.822 589.193 466.075 587.526 466.738C584.431 467.969 581.779 470.949 580.557 473.996C579.304 477.121 579.229 480.831 580.661 483.909C582.772 488.448 586.482 489.976 590.828 491.715C591.375 494.407 592.064 496.851 593.033 499.425C586.005 500.122 579.093 499.999 572.068 499.293C567.287 498.812 560.412 494.897 556.049 496.656C555.6 497.261 555.225 497.411 555.386 498.218C555.854 500.558 557.861 501.643 559.768 502.735C562.168 507.936 564.46 513.238 568.216 517.635C572.216 522.318 577.775 526.299 584.102 526.619C588.018 526.817 591.684 525.541 594.527 522.819C599.016 518.52 602.619 510.001 602.629 503.782C607.231 501.904 611.8 499.789 615.165 495.993C620.326 490.17 620.074 483.451 619.528 476.211C627.917 475.283 633.327 472.8 640.179 467.834C646.014 469.615 655.817 471.256 660.692 474.503C661.06 476.192 660.446 477.476 659.748 479.046C646.779 508.195 623.722 531.722 593.716 543.013C589.334 544.608 584.926 546.03 580.385 547.109C570.327 549.5 560.145 550.367 549.843 550.731C519.468 551.803 491.791 545.815 463.492 535.111C454.773 531.813 445.956 528.48 437.695 524.125C430.855 520.52 424.618 515.691 418.047 511.608C433.406 507.105 448.237 492.389 460.492 482.501C468.709 475.962 476.961 469.464 485.245 463.009Z"/><path fill="#FEFEFE" d="M504.861 465.672C503.151 465.711 502.25 465.535 500.87 464.377C498.881 462.707 497.67 460.476 497.384 457.911C497.485 457.915 497.585 457.921 497.686 457.923C499.961 457.967 501.289 458.223 502.883 459.945C504.272 461.446 504.992 463.661 504.861 465.672Z"/><path fill="#FEFEFE" d="M529.899 466.373C528.661 465.952 526.852 465.48 526.02 464.418C525.092 463.236 525.448 462.32 525.629 460.986C527.552 460.927 528.552 460.918 529.99 462.214C530.474 463.724 530.186 464.866 529.899 466.373Z"/><path fill="#FEFEFE" d="M601.2 497.705C599.617 498.1 598.791 498.496 597.198 498.059C596.014 496.872 595.539 496.309 595.106 494.691C595.636 488.976 604.931 489.1 607.343 484.447C608.905 481.432 608.014 478.553 607.16 475.51L613.981 477.078C613.958 481.318 614.006 485.716 612.065 489.598C609.872 493.985 605.712 496.259 601.2 497.705Z"/><path fill="#FEFEFE" d="M592.529 517.051C592.025 517.744 591.535 518.434 590.891 519.007C589.079 520.621 586.275 521.506 583.863 521.258C574.72 520.317 569.919 510.309 564.576 504.254L564.183 503.816C568.331 504.169 572.423 505.026 576.59 505.329C583.25 505.814 589.872 505.391 596.521 504.987C595.312 509.067 594.077 513.082 592.529 517.051Z"/><path fill="#FEFEFE" d="M375.028 592.763C381.547 574.742 394.746 561.881 406.364 547.174C412.6 539.28 418.74 529.814 423.249 520.84C433.295 528.938 446.067 533.289 457.657 538.553C458.434 545.694 459.606 558.784 463.266 564.732C460.455 570.321 457.639 575.875 455.464 581.752C453.294 587.616 451.847 593.775 450.176 599.796C445.583 616.344 441.806 633.203 436.642 649.57C435.404 648.399 434.017 647.15 432.407 646.53C429.506 645.413 426.111 645.764 423.306 646.979C418.078 649.244 414.575 653.989 412.449 659.097C413.085 664.326 413.906 669.495 414.796 674.685C419.831 677.321 424.227 678.374 429.886 677.904C429.132 683.512 427.588 689.03 426.417 694.565C424.988 701.314 423.812 708.131 422.582 714.92C423.428 716.046 424.363 717.087 425.288 718.149C423.532 729.86 422.803 741.751 421.17 753.497C416.631 752.073 412.389 750.246 408.106 748.183C403.719 746.045 398.482 743.844 395.175 740.17C393.118 737.884 392.286 735.443 392.488 732.396C392.558 731.339 392.678 731.114 392.229 730.127C390.537 730.74 388.987 732.603 387.683 733.827C373.194 719.879 364.882 701.626 360.892 682.134C363.612 681.796 365.717 681.911 367.733 679.867L367.643 678.912C366.081 678.244 362.781 678.223 361.088 678.705C360.917 678.753 360.756 678.832 360.59 678.896C358.705 676.752 359.129 668.967 358.986 665.978C364.399 663.622 369.208 660.836 373.147 656.368C382.476 645.788 386.273 629.597 385.376 615.781C384.719 605.669 382.895 599.619 375.028 592.763ZM428.738 540.608C427.724 541.691 426.72 542.71 425.946 543.987C421.578 545.202 413.926 546.98 411.517 551.339C410.796 552.644 410.941 553.094 411.152 554.505C411.914 555.583 412.309 556.316 413.571 556.836L415.984 556.368C420.495 560.073 424.206 564.545 428.99 567.959C432.607 567.57 443.445 561.188 445.625 558.111C446.572 556.774 446.821 555.285 446.433 553.699C445.232 548.78 438.628 543.555 434.409 541.096C432.67 540.083 430.64 540.391 428.738 540.608ZM404.39 584.516C398.067 586.672 392.896 589.705 389.866 595.963C387.336 601.187 387.56 607.876 389.455 613.295C390.603 616.579 392.638 619.706 395.856 621.26C399.404 622.974 403.023 621.9 406.472 620.527C407.429 620.147 408.222 619.631 409.066 619.052C409.206 618.953 409.344 618.852 409.485 618.756C415.771 614.452 425.146 622.591 427.675 611.011C428.78 605.952 426.491 600.381 423.668 596.276C419.699 590.504 413.145 586.014 406.206 584.729C405.615 584.62 404.989 584.531 404.39 584.516ZM441.521 585.287C440.413 585.445 439.355 585.528 438.245 585.624C436.972 585.735 436.116 586.33 435.068 586.993L434.87 588.175C436.19 588.896 437.002 589.196 438.494 589.371C440.678 588.883 443.009 588.706 444.314 586.657C444.417 586.495 444.496 586.318 444.588 586.148L444.187 585.116C442.959 584.841 442.73 584.903 441.521 585.287ZM391.463 662.503C385.15 664.284 382.492 673.458 378.993 673.716C377.469 673.828 376.496 673.83 375.274 674.865C374.705 676.049 374.351 676.744 374.723 678.056C375.634 681.272 382.497 689.988 385.326 691.927L385.901 692.328C387.474 692.269 388.575 692.175 389.748 690.998C390.824 689.918 391.763 688.661 392.698 687.461C393.964 685.836 394.718 685.224 396.602 684.462C398.849 683.554 400.789 682.857 401.858 680.507C402.304 679.526 402.522 678.41 402.155 677.363C401.18 674.581 397.503 674.024 396.282 671.712C394.729 668.772 397.235 664.098 392.955 662.831C392.532 662.705 391.851 662.581 391.463 662.503ZM393.198 712.229C391.664 714.027 390.222 715.856 388.806 717.748C389.192 720.003 389.376 722.249 390.627 724.211L391.254 724.547C393.139 722.492 392.418 718.245 394.578 716.636C397.306 718.846 400.256 721.776 400.501 725.506C400.599 727.007 400.216 728.617 399.103 729.69C398.51 730.262 397.534 730.709 396.806 731.105C396.573 733.826 396.095 735.93 397.06 738.554L397.814 738.945C399.495 737.504 399.611 735.631 400.901 734.051C401.627 733.161 402.841 732.604 403.374 731.594C403.901 730.594 404.086 729.08 404.179 727.971C404.504 724.08 402.756 720.418 400.216 717.564C398.219 715.321 395.842 713.619 393.198 712.229Z"/><path fill="#010101" d="M425.946 543.987C426.72 542.71 427.724 541.691 428.738 540.608C430.64 540.391 432.67 540.083 434.409 541.096C438.628 543.555 445.232 548.78 446.433 553.699C446.821 555.285 446.572 556.774 445.625 558.111C443.445 561.188 432.607 567.57 428.99 567.959C424.206 564.545 420.495 560.073 415.984 556.368L413.571 556.836C412.309 556.316 411.914 555.583 411.152 554.505C410.941 553.094 410.796 552.644 411.517 551.339C413.926 546.98 421.578 545.202 425.946 543.987ZM432.267 544.407C430.845 545.335 429.377 546.565 427.865 547.312C424.577 548.937 419.936 549.657 417.148 551.989C417.671 553.84 427.028 560.321 429.2 562.428C430.364 563.091 430.564 563.347 431.874 563.217C435.573 560.379 439.366 557.944 443.143 555.267C441.553 551.665 437.112 545.639 433.149 544.547C432.862 544.468 432.561 544.454 432.267 544.407Z"/><path fill="#FEFEFE" d="M467.299 559.961C465.734 553.836 464.755 547.173 463.986 540.895L481.615 547.227L474.475 552.787L467.299 559.961Z"/><path fill="#FEFEFE" d="M429.2 562.428C427.028 560.321 417.671 553.84 417.148 551.989C419.936 549.657 424.577 548.937 427.865 547.312C429.377 546.565 430.845 545.335 432.267 544.407C432.561 544.454 432.862 544.468 433.149 544.547C437.112 545.639 441.553 551.665 443.143 555.267C439.366 557.944 435.573 560.379 431.874 563.217C430.564 563.347 430.364 563.091 429.2 562.428ZM432.598 550.097L433.268 551.175C431.963 553.356 428.377 552.405 426.776 554.324C427.568 555.541 428.315 556.149 429.736 556.482C432.377 557.102 435.377 556.948 437.791 555.72L437.591 552.581L437.051 552.106C435.37 553.398 434.242 554.631 432.072 554.786L431.475 554.247C432.463 552.706 434.131 552.561 435.003 550.893C434.073 549.924 433.879 550.184 432.598 550.097Z"/><path fill="#FEFEFE" d="M595.654 576.911C600.56 568.912 602.77 554.706 604.733 545.368C608.324 549.053 636.139 672.387 636.556 685.299C630.993 694.846 616.553 700.915 606.878 705.156L596.914 708.564C596.552 687.027 594.574 665.61 592.613 644.175C590.345 619.388 588.07 593.953 582.382 569.701C586.686 572.591 590.744 575.174 595.654 576.911Z"/><path fill="#FEFEFE" d="M569.376 554.544C579.739 553.072 589.112 550.883 599.018 547.556L599.309 547.808C599.683 549.773 593.858 567.898 592.931 571.315C588.3 568.39 583.926 564.672 579.494 561.409C576.145 559.133 572.399 557.251 569.376 554.544Z"/><path fill="#010101" d="M437.791 555.72C435.377 556.948 432.377 557.102 429.736 556.482C428.315 556.149 427.568 555.541 426.776 554.324C428.377 552.405 431.963 553.356 433.268 551.175L432.598 550.097C433.879 550.184 434.073 549.924 435.003 550.893C434.131 552.561 432.463 552.706 431.475 554.247L432.072 554.786C434.242 554.631 435.37 553.398 437.051 552.106L437.591 552.581L437.791 555.72Z"/><path fill="#FEFEFE" d="M474.787 558.951C478.747 555.232 482.635 552.535 487.401 549.92C487.558 549.903 487.714 549.867 487.872 549.868C492.151 549.883 495.495 553.742 498.275 556.547C499.094 561.046 499.206 565.83 499.32 570.395C500.111 602.029 495.865 658.869 473.713 682.181C473.171 682.519 472.856 682.732 472.255 683.022C471.197 683.533 470.543 683.732 469.396 683.384C469.097 677.2 472.627 662.682 473.795 656.008C475.612 645.624 476.958 635.313 478.173 624.846C480.838 601.896 481.901 581.376 474.787 558.951Z"/><path fill="#FEFEFE" d="M539.856 585.222C532.675 577.483 524.364 570.222 516.083 563.659C511.541 560.059 502.318 555.039 499.324 551.19C522.086 555.097 537.124 556.732 560.513 555.416C556.441 560.936 552.504 566.555 548.707 572.269C545.666 576.524 542.715 580.842 539.856 585.222Z"/><path fill="#FEFEFE" d="M553.663 575.806C557.717 570.049 561.514 564.158 565.28 558.21C569.678 560.91 573.918 564.188 578.197 567.102C583.114 597.203 585.728 628.861 587.991 659.302C589.235 676.04 589.644 693.382 592.305 709.93C588.008 711.867 583.456 712.88 578.892 713.962L564.458 716.848C565.812 702.294 564.934 686.867 564.223 672.28C562.83 639.925 559.302 607.696 553.663 575.806Z"/><path fill="#FEFEFE" d="M468.625 688.075C473.621 687.421 476.509 686.342 480.044 682.597C502.022 659.315 504.934 591.371 503.419 560.226C515.64 569.016 525.25 579.657 536.373 589.647C537.601 590.75 539.112 592.474 540.869 592.332C543.977 592.079 547.266 584.659 549.378 582.09C549.517 581.921 549.659 581.755 549.799 581.588C552.283 592.872 553.423 604.83 554.662 616.315C558.101 649.993 559.733 683.831 559.55 717.683C550.695 719.872 540.543 720.308 531.441 720.569C508.465 721.148 485.91 717.157 465.751 705.729C466.496 699.826 467.598 693.935 468.625 688.075Z"/><path fill="#FEFEFE" d="M427.546 713.75C436.228 680.432 443.372 646.707 452.186 613.408C455.616 600.451 458.575 586.69 463.467 574.226C465.193 569.828 466.784 566.16 470.313 562.904C470.443 563.046 470.587 563.177 470.702 563.332C475.243 569.436 475.978 593.268 475.513 601.598C474.178 625.533 469.517 649.557 465.417 673.155C462.597 689.385 460.233 705.689 457.001 721.846C449.862 721.819 443.39 720.2 436.614 718.067C433.521 716.83 430.534 715.225 427.546 713.75Z"/><path fill="#FEFEFE" d="M638.462 602.114L638.619 583.364C644.913 589.069 649.311 596.175 653.364 603.521C653.654 604.048 655.162 606.355 655.166 606.804C655.176 607.869 653.914 608.307 654.339 609.821C655.018 612.239 657.88 613.245 658.74 615.58C662.186 624.934 663.225 635.936 664.091 645.805C662.66 647.76 661.216 649.788 659.56 651.558C657.817 653.421 655.286 655.216 653.915 657.292C652.106 660.033 651.653 678.253 651.391 682.666C648.163 687.46 642.098 692.88 636.444 694.4L635.823 694.013C637.777 691.164 640.121 687.904 640.807 684.482C643.129 672.912 633.817 646.947 632.296 633.837L632.214 633.099C638.286 634.635 649.206 636.173 654.975 633.531C656.527 632.82 657.752 631.685 658.285 630.034C660.132 624.316 653.864 609.841 651.15 604.543C646.722 602.609 643.256 602.157 638.462 602.114Z"/><path fill="#010101" d="M409.066 619.052C408.222 619.631 407.429 620.147 406.472 620.527C403.023 621.9 399.404 622.974 395.856 621.26C392.638 619.706 390.603 616.579 389.455 613.295C387.56 607.876 387.336 601.187 389.866 595.963C392.896 589.705 398.067 586.672 404.39 584.516C404.989 584.531 405.615 584.62 406.206 584.729C413.145 586.014 419.699 590.504 423.668 596.276C426.491 600.381 428.78 605.952 427.675 611.011C425.146 622.591 415.771 614.452 409.485 618.756C409.344 618.852 409.206 618.953 409.066 619.052ZM402.013 590.013C398.04 592.268 395.619 595.284 394.456 599.752C393.421 603.73 393.92 609.29 396.062 612.844C396.899 614.234 398.15 615.335 399.805 615.595C401.833 615.913 404.395 615.056 405.958 613.756C406.653 613.178 407.261 612.487 407.885 611.836C408.498 611.198 408.196 611.418 408.913 611.066L409.231 611.608C410.634 611.092 411.095 611.039 412.53 611.365C415.284 611.998 418.089 612.383 420.911 612.516C421.251 606.206 420.58 601.506 416.093 596.594C412.343 592.487 407.545 590.216 402.013 590.013Z"/><path fill="#010101" d="M438.494 589.371C437.002 589.196 436.19 588.896 434.87 588.175L435.068 586.993C436.116 586.33 436.972 585.735 438.245 585.624C439.355 585.528 440.413 585.445 441.521 585.287C442.73 584.903 442.959 584.841 444.187 585.116L444.588 586.148C444.496 586.318 444.417 586.495 444.314 586.657C443.009 588.706 440.678 588.883 438.494 589.371Z"/><path fill="#FEFEFE" d="M356.775 639.93C355.502 630.406 355.558 621.684 357.71 612.264C359.903 602.661 362.819 592.841 371.508 587.358L372.084 587.627C372.146 591.085 368.981 596.299 367.951 599.826C365.549 608.191 363.229 616.579 360.992 624.99C359.67 629.941 358.588 635.143 356.775 639.93Z"/><path fill="#FEFEFE" d="M409.231 611.608L408.913 611.066C408.196 611.418 408.498 611.198 407.885 611.836C407.261 612.487 406.653 613.178 405.958 613.756C404.395 615.056 401.833 615.913 399.805 615.595C398.15 615.335 396.899 614.234 396.062 612.844C393.92 609.29 393.421 603.73 394.456 599.752C395.619 595.284 398.04 592.268 402.013 590.013C407.545 590.216 412.343 592.487 416.093 596.594C420.58 601.506 421.251 606.206 420.911 612.516C418.089 612.383 415.284 611.998 412.53 611.365C411.095 611.039 410.634 611.092 409.231 611.608ZM404.818 599.48C403.966 601.286 403.015 602.791 403.956 604.787C404.326 605.572 404.956 606.332 405.777 606.677C406.663 607.049 407.665 607.159 408.479 606.581C408.993 606.216 409.494 605.423 409.886 604.918L410.366 605.033L411.387 606.147L412.458 605.873C412.982 604.888 413.056 604.781 412.666 603.658C412.047 601.876 410.439 600.665 408.746 599.966C407.515 599.459 406.126 599.479 404.818 599.48Z"/><path fill="#FEFEFE" d="M358.896 660.836C359.638 642.528 368.776 616.349 373.597 597.892C374.216 598.532 374.596 599.048 375.064 599.802C381.325 609.897 381.437 624.623 378.683 635.823C376.523 644.603 372.224 652.897 364.295 657.705L358.896 660.836Z"/><path fill="#010101" d="M410.366 605.033L409.886 604.918C409.494 605.423 408.993 606.216 408.479 606.581C407.665 607.159 406.663 607.049 405.777 606.677C404.956 606.332 404.326 605.572 403.956 604.787C403.015 602.791 403.966 601.286 404.818 599.48C406.126 599.479 407.515 599.459 408.746 599.966C410.439 600.665 412.047 601.876 412.666 603.658C413.056 604.781 412.982 604.888 412.458 605.873L411.387 606.147L410.366 605.033Z"/><path fill="#FEFEFE" d="M636.749 621.068C636.889 616.394 637.478 611.704 637.921 607.049C640.939 607.422 643.701 607.813 646.583 608.836C648.787 611.634 650.09 614.506 651.189 617.865C652.104 620.66 653.699 626.06 652.379 628.709C648.415 628.927 644.572 628.847 640.61 628.613C640.046 624.942 639.756 623.507 636.749 621.068Z"/><path fill="#FEFEFE" d="M430.58 661.803C429.438 660.623 428.82 659.442 427.155 659.264C425.702 660.202 424.281 661.163 422.88 662.177C423.719 662.868 425.034 663.551 425.12 664.745C425.182 665.601 424.869 666.737 424.724 667.594C425.359 668.882 425.562 668.985 426.799 669.743C428.186 669.755 429.404 669.646 430.774 669.428C431.827 669.954 431.91 669.907 432.363 670.976C431.976 672.248 431.337 673.598 429.927 674.05C428.119 674.63 424.564 673.7 422.626 673.457C421.229 673.282 419.95 672.822 418.633 672.354C417.96 666.687 415.538 659.675 419.389 654.699C421.674 651.747 425.63 650.634 429.143 650.073C431.729 651.217 433.859 652.3 435.99 654.219C435.337 657.003 435.06 659.986 432.746 661.914C432.052 661.809 431.283 661.831 430.58 661.803Z"/><path fill="#FEFEFE" d="M657.311 662.211C659.661 660.501 660.812 658.334 662.248 655.893C662.51 660.6 658.891 669.284 656.305 673.126C655.838 669.904 656.906 665.462 657.311 662.211Z"/><path fill="#FEFEFE" d="M429.274 668.884C428.236 668.676 427.75 668.47 426.937 667.79C426.064 665.329 426.357 663.1 427.382 660.734C428.27 661.131 428.826 661.566 429.538 662.226C430.023 664.45 429.561 666.653 429.274 668.884Z"/><path fill="#FEFEFE" d="M430.58 661.803C431.283 661.831 432.052 661.809 432.746 661.914L432.683 662.532C433.187 663.016 433.555 663.439 433.993 664L432.515 668.023L431.976 668.169C431.266 666.266 431.819 664.145 430.967 662.496C430.845 662.261 430.709 662.034 430.58 661.803Z"/><path fill="#010101" d="M385.901 692.328L385.326 691.927C382.497 689.988 375.634 681.272 374.723 678.056C374.351 676.744 374.705 676.049 375.274 674.865C376.496 673.83 377.469 673.828 378.993 673.716C382.492 673.458 385.15 664.284 391.463 662.503C391.851 662.581 392.532 662.705 392.955 662.831C397.235 664.098 394.729 668.772 396.282 671.712C397.503 674.024 401.18 674.581 402.155 677.363C402.522 678.41 402.304 679.526 401.858 680.507C400.789 682.857 398.849 683.554 396.602 684.462C394.718 685.224 393.964 685.836 392.698 687.461C391.763 688.661 390.824 689.918 389.748 690.998C388.575 692.175 387.474 692.269 385.901 692.328ZM390.682 666.206C387.698 671.857 385.166 673.935 379.676 677.078C382.411 680.78 384.908 684.54 387.303 688.471C388.248 687.189 389.401 686.044 389.345 684.368C388.733 683.146 388.061 682.358 387.151 681.36C386.979 679.659 386.953 678.081 387.041 676.375C387.27 676.425 387.497 676.486 387.729 676.525C388.867 676.716 389.876 676.601 391.009 676.478C392.197 677.061 392.22 677.048 392.763 678.249C392.582 679.603 391.996 681.118 392.781 682.26C394.711 681.469 396.346 680.653 398.042 679.433L398.249 678.634C396.951 676.945 395.439 675.644 393.845 674.249C393.305 671.82 392.91 667.646 390.682 666.206Z"/><path fill="#FEFEFE" d="M379.676 677.078C385.166 673.935 387.698 671.857 390.682 666.206C392.91 667.646 393.305 671.82 393.845 674.249C395.439 675.644 396.951 676.945 398.249 678.634L398.042 679.433C396.346 680.653 394.711 681.469 392.781 682.26C391.996 681.118 392.582 679.603 392.763 678.249C392.22 677.048 392.197 677.061 391.009 676.478C389.876 676.601 388.867 676.716 387.729 676.525C387.497 676.486 387.27 676.425 387.041 676.375C386.953 678.081 386.979 679.659 387.151 681.36C388.061 682.358 388.733 683.146 389.345 684.368C389.401 686.044 388.248 687.189 387.303 688.471C384.908 684.54 382.411 680.78 379.676 677.078Z"/><path fill="#FEFEFE" d="M478.649 717.639C488.22 720.885 498.293 723.557 508.332 724.813C542.797 729.127 586.049 721.808 617.185 706.516C618.103 706.906 619.806 715.97 620.35 717.746C626.442 737.647 631.345 757.958 641.43 776.343C628.048 785.056 603.479 792.915 587.561 796.004C580.35 797.403 572.999 797.943 565.765 799.294C564.144 793.437 560.989 768.538 558.476 765.859L557.692 766.133C555.187 771.286 554.191 794.191 553.543 801.418C542.548 803.286 530.24 805.234 519.089 804.982C499.359 804.588 483.228 797.245 468.147 784.809C472.531 770.178 475.248 755.959 476.737 740.751C477.491 733.052 477.797 725.334 478.649 717.639Z"/><path fill="#FEFEFE" d="M457.499 744.985C457.483 744.411 457.488 743.834 457.468 743.26C457.32 738.907 463.105 715.234 464.852 710.759C467.746 712.361 470.568 714.11 473.408 715.805C471.604 724.718 471.516 734.597 470.794 743.69L466.609 744.383C463.561 744.822 460.571 744.917 457.499 744.985Z"/><path fill="#010101" d="M388.806 717.748C390.222 715.856 391.664 714.027 393.198 712.229C395.842 713.619 398.219 715.321 400.216 717.564C402.756 720.418 404.504 724.08 404.179 727.971C404.086 729.08 403.901 730.594 403.374 731.594C402.841 732.604 401.627 733.161 400.901 734.051C399.611 735.631 399.495 737.504 397.814 738.945L397.06 738.554C396.095 735.93 396.573 733.826 396.806 731.105C397.534 730.709 398.51 730.262 399.103 729.69C400.216 728.617 400.599 727.007 400.501 725.506C400.256 721.776 397.306 718.846 394.578 716.636C392.418 718.245 393.139 722.492 391.254 724.547L390.627 724.211C389.376 722.249 389.192 720.003 388.806 717.748Z"/><path fill="#FEFEFE" d="M440.738 778.222C440.011 778.992 440.219 779.003 439.063 779.162C435.597 775.748 439.57 767.557 436.748 763.475L435.95 763.504C434.938 764.177 434.71 764.75 434.304 765.847C433.937 766.838 433.862 767.115 433.131 767.931C431.979 765.611 430.799 762.262 428.298 761.242C426.15 764.327 427.386 768.662 424.197 771.449L423.353 771.204C422.175 768.887 424.51 762.141 425 759.485C427.422 746.341 427.01 732.642 429.91 719.615C437.855 723.661 445.36 725.862 454.275 726.651C450.516 742.049 453.429 752.4 453.311 767.369C451.973 764.356 451.062 760.4 448.698 758.057C447.288 758.336 446.014 759.992 445.181 761.152C444.075 762.692 443.238 763.191 441.476 763.926C441.279 764.008 441.079 764.084 440.881 764.163C441.445 769.17 441.885 773.223 440.738 778.222Z"/><path fill="#010101" d="M652.372 754.565C669.685 743.885 699.895 736.856 720.311 734.702C722.09 734.359 724.164 734.449 725.978 734.414C735.557 734.181 745.139 734.665 754.645 735.861C770.164 737.78 808.133 745.467 818.927 755.802C833.863 749.378 851.196 740.84 867.549 739.627C870.6 739.4 879.115 739.322 881.304 741.221C881.04 741.473 880.846 741.829 880.512 741.977C877.912 743.128 873.864 743.237 870.998 743.889C865.113 745.227 859.211 746.877 853.442 748.648C844.429 751.414 835.236 755.098 826.792 759.3C818.22 763.565 809.757 768.485 800.79 771.868C799.42 772.039 799.225 772.191 798.058 771.499L798.024 770.369C801.745 764.655 810.874 760.518 816.67 757.132C776.413 742.353 737.88 735.232 695.424 744.494C681.095 747.619 667.032 753.284 652.372 754.565Z"/><path fill="#010101" d="M349.623 750.284C348.564 750.432 347.74 750.311 346.691 750.128L346.704 749.357C348.98 746.527 355.212 746.123 358.626 745.678C359.563 745.589 360.32 745.678 361.246 745.838L361.536 746.514C359.292 749.318 353.071 749.882 349.623 750.284Z"/><path fill="#010101" d="M178.148 789.012C176.266 789.1 174.504 789.397 172.954 788.213L173.442 787.364C186.397 780.171 218.765 776.206 234.011 776.156C242.132 776.129 250.999 777.693 259 776.05C267.122 774.381 274.452 769.033 281.897 765.55C297.601 758.204 319.688 749.708 336.903 747.698C337.985 747.758 338.864 747.752 339.878 748.173C340.646 748.491 340.568 748.772 340.875 749.481C340.705 749.946 340.637 750.237 340.283 750.643C337.603 753.715 325.434 755.921 321.192 757.205C308.928 760.919 296.697 765.793 284.994 771.011C276.578 774.763 266.358 781.536 257.329 782.973C248.842 784.324 239.276 782.433 230.565 782.965C213.058 784.034 195.559 786.887 178.148 789.012Z"/><path fill="#FEFEFE" d="M431.585 776.818C431.467 777.031 431.198 777.114 430.993 777.245C429.734 774.938 430.76 770.413 431.138 767.849C432.118 768.121 432.713 768.326 433.493 768.988C434.03 771.583 432.504 774.397 431.585 776.818Z"/><path fill="#010101" d="M153.178 795.389C152.773 795.41 151.984 795.209 151.574 795.138C151.581 794.229 151.503 794.638 151.745 793.901C155.227 791.103 161.141 790.098 165.497 789.65C166.406 789.84 166.41 789.686 167.036 790.458C164.885 792.982 156.505 794.437 153.178 795.389Z"/><path fill="#FEFEFE" d="M576.689 802.751C583.862 800.647 591.891 799.945 599.28 798.648L599.908 798.586L600.452 799.207C599.525 804.385 597.625 809.491 596.515 814.669C593.95 826.626 591.984 838.723 589.462 850.7C584.131 851.537 580.141 851.28 574.816 850.407C573.184 850.013 571.797 849.657 570.332 848.822C569.503 844.402 575.637 810.282 576.689 802.751Z"/><path fill="#FEFEFE" d="M519.058 854.119C518.874 855.104 518.728 855.946 518.33 856.874C518.029 857.575 517.702 857.857 516.903 858.007C512.805 858.773 502.531 857.626 498.745 855.864C497.658 854.452 497.628 853.224 497.64 851.434C497.676 845.876 498.824 840.037 499.523 834.504C500.645 825.617 501.636 816.762 502.207 807.822C510.247 809.38 518.732 809.654 526.903 809.564C523.549 824.166 521.96 839.377 519.058 854.119Z"/><path fill="#FEFEFE" d="M585.433 910.517C579.708 908.635 566.144 905.174 562.357 900.77C561.13 895.135 567.664 860.882 569.343 853.709C576.341 856.089 581.454 857.082 588.81 855.784C587.181 866.562 584.243 876.919 584.491 887.921C589.139 890.362 593.889 892.475 598.695 894.575C595.232 897.332 592.138 900.231 589.266 903.6C587.742 905.853 586.554 908.044 585.433 910.517Z"/><path fill="#FEFEFE" d="M493.923 881.129C494.864 874.145 495.412 867.146 496.836 860.233C503.798 862.435 510.222 862.773 517.45 861.997C516.321 869.281 515.527 876.617 514.366 883.906L514.101 884.314C508.817 886.094 499.004 883.021 493.923 881.129Z"/><path fill="#FEFEFE" d="M491.412 909.008C491.345 901.632 492.049 893.363 493.796 886.189C501.948 888.042 505.084 889.608 513.882 888.939C513.67 891.16 513.625 893.41 513.519 895.639C517.444 899.046 521.774 901.66 526.18 904.375C522.459 906.589 519.803 909.526 516.892 912.673C514.857 915.017 514.163 917.55 513.41 920.471C505.659 917.509 498.913 912.553 491.412 909.008Z"/><path fill="#FEFEFE" d="M606.679 916.363C603.402 915.844 599.329 915.408 596.421 913.792C597.255 909.471 605.223 902.081 608.414 898.811C611.522 900.311 614.989 901.379 618.206 902.67C614.277 906.904 610.715 911.261 607.721 916.216L606.679 916.363Z"/><path fill="#FEFEFE" d="M523.946 924.025C527.428 918.456 533.048 915.221 536.61 909.984C539.934 913.143 544.146 914.875 548.222 916.868C543.681 920.669 539.567 924.127 536.084 928.939C531.991 927.441 527.976 925.685 523.946 924.025Z"/><path fill="#FEFEFE" d="M638.026 922.692C636.952 922.533 636.594 922.542 635.718 921.852C635.562 919.067 637.471 917.448 639.181 915.455C639.61 915.864 640.281 916.42 640.601 916.944C641.326 918.129 641.339 918.932 641.087 920.248C640.026 921.755 639.626 921.918 638.026 922.692Z"/><path fill="#FEFEFE" d="M561.158 933.113L563.408 928.623C565.633 929.339 568.128 931.07 569.735 932.772C571.067 934.183 571.507 935.506 571.402 937.438C570.409 939.006 569.536 939.28 567.927 940.155L567.094 939.672L567.034 938.807C567.714 938.389 568.33 937.984 568.967 937.498C567.175 934.944 563.959 934.128 561.158 933.113Z"/></svg>