<?xml version="1.0" encoding="utf-8" ?><svg xmlns="http://www.w3.org/2000/svg" xmlns:xlink="http://www.w3.org/1999/xlink" width="1024" height="1024" viewBox="0 0 1024 1024"><path fill="#FEFEFE" d="M0 0L1024 0L1024 1024L0 1024L0 0ZM600.004 69.7948C599.143 70.6282 598.368 71.3855 597.919 72.5253C596.758 75.4674 597.126 95.4965 597.046 100.355C596.599 129.196 596.667 158.042 597.249 186.881C597.628 205.559 598.488 224.225 598.58 242.907C598.656 294.526 597.476 346.139 595.041 397.701C594.412 412.458 593.943 427.221 593.636 441.988C593.452 449.792 593.848 457.889 593 465.634C585.956 466.261 578.827 465.665 571.827 466.558C571.676 480.105 572.069 493.703 572.109 507.257L572.339 622.147C572.317 630.113 573.61 658.879 571.454 664.398L570.71 664.726C570.427 664.347 570.04 664.027 569.861 663.589C568.552 660.387 568.589 632.621 568.495 627.986C567.406 577.895 567.297 527.786 568.168 477.69C568.47 454.001 569.305 430.333 569.479 406.629C569.512 402.082 570.482 377.553 569.017 375.097C568.786 374.71 568.17 374.421 567.752 374.366C560.705 373.433 552.589 374.774 545.462 375.249L510.135 377.393C503.862 377.765 497.44 378.45 491.162 378.448C490.162 356.563 490.367 334.646 489.834 312.75L486.001 151.027L485.025 100.226C484.925 92.934 485.435 85.2484 484.949 78.0115C484.848 76.5204 484.511 75.4374 483.829 74.1194C482.742 73.3575 482.659 73.3727 481.325 73.4036C480.171 74.2137 479.889 74.3219 479.545 75.7643C478.195 81.4199 479.225 89.3157 479.366 95.1936L480.18 130.178L483.801 327.781C480.411 325.345 477.048 322.983 473.326 321.073C459.929 314.198 442.934 309.964 431.626 299.74C438.529 296.752 442.855 292.252 445.652 285.24C449.244 276.237 448.148 267.023 446.201 257.806C437.264 253.423 426.338 254.927 416.597 255.036C412.481 245.438 407.637 236.454 402.214 227.545L402.303 226.794C404.33 210.502 410.492 189.985 415.415 174.134C416.191 171.635 421.087 158.731 420.891 157.503C420.812 157.006 420.404 156.621 420.161 156.18C419.02 155.508 418.408 155.708 417.18 156.055C413.383 157.125 409.599 159.232 406.037 160.918C384.706 171.012 368.541 184.671 351.718 201.026C346.414 201.068 341.163 201.181 335.869 201.551C331.103 195.003 327.112 187.934 322.575 181.229C313.351 167.599 303.189 154.965 291.341 143.54C288.711 141.003 284.7 136.467 281.006 135.773C279.796 135.545 279.355 135.783 278.257 136.23C274.51 140.789 275.735 204.215 276.578 212.846C279.785 245.678 282.1 243.327 263.729 271.626C260.118 277.189 247.101 294.505 246.31 299.421C246.102 300.717 246.743 301.627 247.701 302.443C249.388 303.88 251.485 304.996 253.385 306.132C251.424 309.948 243.324 321.297 244.095 324.754C244.473 326.444 245.473 327.49 246.948 328.257C248.283 328.935 249.633 329.582 250.997 330.199C244.021 355.945 223.394 374.767 208.153 395.659C206.016 398.589 204.887 402.129 202.845 405.157C195.192 416.508 187.125 427.453 180.109 439.242C176.4 445.473 172.485 451.882 169.519 458.5C166.174 465.963 163.563 473.945 160.922 481.68C146.322 524.431 137.605 570.101 133.283 615.023C132.01 628.252 130.086 643.384 131.879 656.639C134.155 673.47 142.565 689.401 150.934 703.975C166.048 730.299 186.644 753.704 207.355 775.702C209.862 791.514 209.825 807.983 214.405 823.407C218.077 833.111 229.291 837.935 237.194 843.794C238.501 850.713 240.922 857.608 242.887 864.37C246.651 877.114 250.325 889.884 253.91 902.679C233.181 909.284 212.834 917.029 192.249 924.058C171.91 930.935 151.637 938.007 131.433 945.271C125.258 947.462 118.865 949.211 112.751 951.542C111.152 952.151 109.978 952.788 108.852 954.078C108.439 955.315 108.351 955.864 108.688 957.131C110.101 958.15 111.395 958.052 113.049 957.766C121.51 956.307 135.882 950.02 144.551 947.032L213.212 923.357C226.671 918.601 242.264 912.132 255.996 908.923C260.322 923.494 264.362 938.118 268.82 952.655C269.548 955.026 270.121 959.197 271.429 961.159C271.714 961.586 272.205 961.832 272.593 962.168C274.09 962.338 274.088 962.467 275.269 961.564C276.139 959.334 275.899 957.343 275.472 955.022C273.623 944.98 269.573 934.845 266.851 924.99C259.618 899.004 252.073 873.105 244.218 847.3C250.089 850.022 255.986 853.022 262.072 855.227C278.514 861.187 297.153 864.235 314.6 865.005C308.888 875.573 298.731 886.309 289.365 893.856C286.353 896.283 276.956 900.048 276.328 903.503C276.862 904.79 276.918 905.189 278.034 905.985C283.415 906.394 292.161 899.027 296.072 895.643C306.106 886.962 315.366 875.84 322.908 864.956C346.414 863.76 363.675 863.032 384.131 849.486C384.7 841.235 384.721 833.052 383.605 824.847C390 822.62 396.541 821.073 402.998 819.079C402.782 829.572 403.549 840.065 403.534 850.56C403.521 859.899 402.538 869.194 402.489 878.531C402.401 895.414 403.496 912.278 404.486 929.126C404.972 937.393 404.895 946.316 406.399 954.434C406.776 956.464 407.359 959.128 408.914 960.61C409.1 960.788 409.299 960.952 409.492 961.123C410.496 960.567 410.609 960.78 410.953 959.577C412.108 955.543 410.932 950.279 410.508 946.156C407.872 920.551 407.646 894.367 407.388 868.646C414.644 860.339 421.215 847.939 423.549 837.135C425.031 836.309 426.494 835.449 428.054 834.775L428.394 835.417C431.687 841.695 433.496 848.767 435.692 855.478C437.915 862.116 440.269 868.709 442.752 875.254C448.599 890.663 455.855 905.604 462.335 920.765C467.542 932.95 471.96 945.744 478.037 957.517C478.757 958.913 479.246 959.982 480.686 960.752C481.906 960.398 482.14 960.221 482.776 959.011C483.391 957.84 483.309 955.87 482.891 954.673C480.784 948.641 477.644 942.725 475.168 936.813C470.647 926.017 466.536 915.075 461.832 904.348C454.679 888.035 446.869 872.057 441.805 854.897C451.067 851.806 460.362 848.812 469.687 845.916C477.144 843.664 484.952 841.854 492.071 838.651C494.114 837.731 495.872 836.565 497.529 835.058C496.477 776.331 497.467 717.553 496.872 658.819C520.556 664.276 544.685 668.043 568.538 672.708C577.447 674.451 586.645 675.987 595.414 678.315C595.984 715.711 595.901 753.185 595.867 790.589C595.846 803.281 595.911 815.973 596.062 828.663C596.091 835.566 595.705 842.767 596.248 849.632C596.4 851.566 596.654 854.409 598.233 855.766C598.847 856.293 599.212 856.028 599.945 855.93C601.877 854.195 602.084 852.853 602.219 850.321C602.415 846.635 602.074 842.814 602.02 839.119C601.931 833.032 602.072 826.935 602.069 820.846L601.951 751.212L599.84 481.98C599.762 430.807 602.23 379.742 603.775 328.605C604.108 317.59 604.809 306.569 604.954 295.551C605.254 272.838 605.424 249.96 604.872 227.251C604.155 197.762 602.602 168.385 602.679 138.862C602.78 124.318 603.006 109.775 603.357 95.2348C603.517 88.093 604.228 80.5401 603.746 73.4261C603.675 72.3832 603.443 71.6803 602.899 70.7702C601.866 70.1634 601.195 69.9331 600.004 69.7948ZM623.839 73.2612C622.589 75.198 622.347 76.3625 622.301 78.6582C621.972 95.2103 622.777 111.873 623.044 128.426C623.356 154.421 623.444 180.418 623.306 206.415C622.613 286.401 619.938 366.523 622.165 446.496C623.592 497.74 626.304 549.084 628.843 600.285C630.139 626.404 631.78 652.608 632.349 678.751L633.225 735.365C633.536 751.064 634.2 766.859 634.203 782.554L634.177 827.867C634.216 833.961 633.595 841.179 634.76 847.145C634.949 848.113 635.278 848.935 635.7 849.819L637.211 850.319C639.102 848.883 639.989 846.949 640.382 844.621C640.975 841.107 640.13 836.745 640.075 833.12L639.838 804.133L638.364 685.661C658.36 690.676 678.887 694.204 699.077 698.442C754.964 710.244 811.019 721.231 867.226 731.399C888.528 735.563 909.803 739.864 931.05 744.302C942.992 746.913 954.82 750.197 966.856 752.354C968.635 752.672 969.857 752.783 971.549 751.982C972.49 750.807 972.632 750.852 972.522 749.373C971.579 748.27 970.749 747.714 969.385 747.191C964.162 745.187 958.05 744.423 952.586 743.197C945.945 741.707 939.405 739.901 932.69 738.749L931.065 472.125L930.997 411.499C930.985 401.857 932.125 390.672 930.117 381.24C927.895 380.188 924.752 380.266 922.303 380.241C909.38 380.11 896.318 381.378 883.379 381.73C865.788 382.209 848.214 381.897 830.641 383.04L831.542 574.75C832.185 611.996 832.496 649.248 832.473 686.5C832.514 694.515 833.106 702.559 833.029 710.566C833.009 712.649 832.791 714.498 831.957 716.415L831.229 716.983C829.936 716.651 829.923 716.645 829.128 715.574C828.195 710.339 828.407 704.83 828.292 699.526C828.11 691.087 827.893 682.679 827.876 674.235C827.967 651.447 827.808 628.659 827.398 605.875L826.132 410.009C826.082 399.456 827.786 335.03 825.592 329.619C824.376 328.64 823.13 328.441 821.605 328.358C817.059 328.112 812.342 328.481 807.778 328.567C797.321 328.751 786.866 329.048 776.416 329.458C764.318 329.941 752.225 330.522 740.136 331.2C731.489 331.614 722.706 331.727 714.1 332.634C712.822 332.769 711.049 332.789 710.063 333.616C708.577 344.841 709.721 356.808 709.954 368.126L711.055 425.881L712.507 595.113L713.678 657.158C713.953 667.708 714.812 678.455 714.589 688.994C714.547 691.012 714.547 693.808 712.912 695.217C711.714 695.269 711.681 695.124 710.703 694.398C708.926 689.143 709.601 679.923 709.416 674.245C708.639 650.4 708.602 626.617 708.437 602.769C708.39 595.986 707.946 589.22 707.847 582.44C707.677 556.952 707.267 531.466 706.617 505.985C706.31 491.623 706.653 477.211 706.054 462.866C680.441 462.84 654.633 465.649 629.049 464.949C628.119 457.942 628.322 450.602 628.157 443.526C627.836 431.331 627.63 419.132 627.539 406.933C627.057 368.104 627.354 329.269 628.43 290.452C628.962 257.65 629.269 224.845 629.352 192.039C629.381 178.729 628.951 165.411 629.252 152.104C645.588 148.517 662.363 144.712 678.948 142.574C679.044 142.683 679.138 142.794 679.236 142.901C684.367 148.508 705.642 149.034 713.613 149.271C735.563 149.925 817.203 147.371 831.078 133.425C832.172 132.325 833.106 130.724 833.012 129.117C832.918 127.52 831.789 126.223 830.546 125.341C810.464 111.104 726.453 127.803 701.284 132.298C681.253 135.776 661.27 139.529 641.342 143.554C637.226 144.398 633.125 145.273 628.978 145.952L628.817 135.421C647.135 131.023 665.984 127.954 684.559 124.804L757.214 112.553C765.66 111.103 774.394 110.246 782.748 108.449C784.694 108.031 787.192 107.353 788.425 105.665C788.893 105.024 788.751 104.794 788.726 104.065C787.906 102.999 787.471 102.515 786.105 102.245C781.187 101.277 755.938 106.747 749.299 107.88L628.721 129.236C628.461 117.915 628.124 106.57 628.11 95.2459C628.102 89.3025 628.789 83.1472 628.26 77.2461C628.17 76.2442 628.024 75.1505 627.237 74.4504C626.259 73.579 625.083 73.4675 623.839 73.2612ZM189.998 268.336C186.971 270.641 183.518 272.972 181.662 276.371L181.656 277.434C182.626 278.17 182.619 278.047 183.744 278.142C186.804 275.836 190.258 273.522 191.965 269.984L191.901 268.83C191.082 268.368 190.99 268.31 189.998 268.336ZM105.5 275.242C103.99 276.414 102.529 277.448 101.436 279.041L101.46 280.028C101.896 280.098 102.35 280.225 102.789 280.174C104.216 279.175 105.923 278.239 106.73 276.654C106.356 275.635 106.614 275.815 105.5 275.242ZM106.278 365.35C103.04 367.148 97.2538 369.579 95.1883 372.601L95.3066 373.599C95.7572 373.741 96.2489 373.956 96.7202 373.984C100.083 372.735 105.913 370.873 107.975 367.702C108.284 367.226 108.295 366.994 108.399 366.496C107.641 365.464 107.558 365.584 106.278 365.35ZM139.596 461.853C136.439 464.121 130.662 467.357 129.094 470.837L129.475 471.826L130.664 471.855C134.348 470.004 139.7 467.481 141.325 463.461L141.046 462.476L139.596 461.853ZM59.494 486.915C56.8458 488.548 51.3061 491.371 50.4115 494.485C50.1979 495.229 50.787 495.602 51.2033 496.169C54.1007 494.791 58.9208 492.381 60.1597 489.248C60.4278 488.57 60.2146 488.13 60.084 487.451L59.494 486.915ZM87.6545 566.413C85.2134 568.131 80.5819 570.555 79.7007 573.463C80.4681 574.078 80.0731 573.905 80.8277 574.098C83.2503 572.269 87.1232 569.781 88.3881 566.981C87.8102 566.406 88.103 566.506 87.6545 566.413ZM75.585 684.885C73.8202 686.132 71.788 687.234 70.7726 689.198L70.9465 690.474C71.5795 690.948 72.1638 691.395 72.8588 691.777C74.6162 690.137 77.0536 688.341 77.1593 685.763C76.49 685.158 76.5368 685.096 75.585 684.885ZM97.7255 742.375C94.398 744.374 90.4803 746.509 88.3205 749.844L88.1906 751.176C89.0488 751.792 89.1805 751.856 90.2313 751.925C93.0203 750.002 99.0391 746.718 100.051 743.551L99.5322 742.608C98.9313 742.501 98.3367 742.338 97.7255 742.375ZM160.884 782.871C158.72 784.214 156.404 785.386 154.878 787.473L154.675 788.672L155.706 789.949C158.042 788.56 160.81 787.277 162.025 784.725C161.733 783.679 161.707 783.568 160.884 782.871ZM101.959 837.417C99.4638 838.834 97.0217 839.962 95.7986 842.696C95.9713 843.896 96.0318 844.011 96.837 844.92C98.9063 843.018 101.17 841.201 102.722 838.839L102.672 838.002L101.959 837.417ZM184.923 841.77C183.543 842.839 182.061 843.776 181.198 845.332L181.35 846.275L182.313 846.689C183.777 845.566 185.418 844.525 186.336 842.888L186.028 842.023L184.923 841.77ZM211.179 877.458C209.593 878.621 207.284 880.157 206.925 882.267C206.901 882.407 206.916 882.55 206.912 882.692L207.638 883.111C208.309 882.864 209.053 882.641 209.693 882.328C211.561 881.244 213.366 880.365 214.687 878.604L214.48 877.782C213.233 877.309 212.499 877.314 211.179 877.458ZM104.376 909.372C102.379 910.642 99.2291 912.348 98.4553 914.7C98.403 914.859 98.3944 915.029 98.3639 915.193L98.962 915.91L100.74 915.875C102.82 914.443 105.26 913.09 106.813 911.075L106.841 910.185C105.94 909.527 105.486 909.423 104.376 909.372Z"/><path fill="#212121" d="M593 465.634C593.848 457.889 593.452 449.792 593.636 441.988C593.943 427.221 594.412 412.458 595.041 397.701C597.476 346.139 598.656 294.526 598.58 242.907C598.488 224.225 597.628 205.559 597.249 186.881C596.667 158.042 596.599 129.196 597.046 100.355C597.126 95.4965 596.758 75.4674 597.919 72.5253C598.368 71.3855 599.143 70.6282 600.004 69.7948C601.195 69.9331 601.866 70.1634 602.899 70.7702C603.443 71.6803 603.675 72.3832 603.746 73.4261C604.228 80.5401 603.517 88.093 603.357 95.2348C603.006 109.775 602.78 124.318 602.679 138.862C602.602 168.385 604.155 197.762 604.872 227.251C605.424 249.96 605.254 272.838 604.954 295.551C604.809 306.569 604.108 317.59 603.775 328.605C602.23 379.742 599.762 430.807 599.84 481.98L601.951 751.212L602.069 820.846C602.072 826.935 601.931 833.032 602.02 839.119C602.074 842.814 602.415 846.635 602.219 850.321C602.084 852.853 601.877 854.195 599.945 855.93C599.212 856.028 598.847 856.293 598.233 855.766C596.654 854.409 596.4 851.566 596.248 849.632C595.705 842.767 596.091 835.566 596.062 828.663C595.911 815.973 595.846 803.281 595.867 790.589C595.901 753.185 595.984 715.711 595.414 678.315C586.645 675.987 577.447 674.451 568.538 672.708C544.685 668.043 520.556 664.276 496.872 658.819C497.467 717.553 496.477 776.331 497.529 835.058C495.872 836.565 494.114 837.731 492.071 838.651C484.952 841.854 477.144 843.664 469.687 845.916C460.362 848.812 451.067 851.806 441.805 854.897C446.869 872.057 454.679 888.035 461.832 904.348C466.536 915.075 470.647 926.017 475.168 936.813C477.644 942.725 480.784 948.641 482.891 954.673C483.309 955.87 483.391 957.84 482.776 959.011C482.14 960.221 481.906 960.398 480.686 960.752C479.246 959.982 478.757 958.913 478.037 957.517C471.96 945.744 467.542 932.95 462.335 920.765C455.855 905.604 448.599 890.663 442.752 875.254C440.269 868.709 437.915 862.116 435.692 855.478C433.496 848.767 431.687 841.695 428.394 835.417L428.054 834.775C426.494 835.449 425.031 836.309 423.549 837.135C421.215 847.939 414.644 860.339 407.388 868.646C407.646 894.367 407.872 920.551 410.508 946.156C410.932 950.279 412.108 955.543 410.953 959.577C410.609 960.78 410.496 960.567 409.492 961.123C409.299 960.952 409.1 960.788 408.914 960.61C407.359 959.128 406.776 956.464 406.399 954.434C404.895 946.316 404.972 937.393 404.486 929.126C403.496 912.278 402.401 895.414 402.489 878.531C402.538 869.194 403.521 859.899 403.534 850.56C403.549 840.065 402.782 829.572 402.998 819.079C396.541 821.073 390 822.62 383.605 824.847C384.721 833.052 384.7 841.235 384.131 849.486C363.675 863.032 346.414 863.76 322.908 864.956C315.366 875.84 306.106 886.962 296.072 895.643C292.161 899.027 283.415 906.394 278.034 905.985C276.918 905.189 276.862 904.79 276.328 903.503C276.956 900.048 286.353 896.283 289.365 893.856C298.731 886.309 308.888 875.573 314.6 865.005C297.153 864.235 278.514 861.187 262.072 855.227C255.986 853.022 250.089 850.022 244.218 847.3C252.073 873.105 259.618 899.004 266.851 924.99C269.573 934.845 273.623 944.98 275.472 955.022C275.899 957.343 276.139 959.334 275.269 961.564C274.088 962.467 274.09 962.338 272.593 962.168C272.205 961.832 271.714 961.586 271.429 961.159C270.121 959.197 269.548 955.026 268.82 952.655C264.362 938.118 260.322 923.494 255.996 908.923C242.264 912.132 226.671 918.601 213.212 923.357L144.551 947.032C135.882 950.02 121.51 956.307 113.049 957.766C111.395 958.052 110.101 958.15 108.688 957.131C108.351 955.864 108.439 955.315 108.852 954.078C109.978 952.788 111.152 952.151 112.751 951.542C118.865 949.211 125.258 947.462 131.433 945.271C151.637 938.007 171.91 930.935 192.249 924.058C212.834 917.029 233.181 909.284 253.91 902.679C250.325 889.884 246.651 877.114 242.887 864.37C240.922 857.608 238.501 850.713 237.194 843.794C229.291 837.935 218.077 833.111 214.405 823.407C209.825 807.983 209.862 791.514 207.355 775.702C186.644 753.704 166.048 730.299 150.934 703.975C142.565 689.401 134.155 673.47 131.879 656.639C130.086 643.384 132.01 628.252 133.283 615.023C137.605 570.101 146.322 524.431 160.922 481.68C163.563 473.945 166.174 465.963 169.519 458.5C172.485 451.882 176.4 445.473 180.109 439.242C187.125 427.453 195.192 416.508 202.845 405.157C204.887 402.129 206.016 398.589 208.153 395.659C223.394 374.767 244.021 355.945 250.997 330.199C249.633 329.582 248.283 328.935 246.948 328.257C245.473 327.49 244.473 326.444 244.095 324.754C243.324 321.297 251.424 309.948 253.385 306.132C251.485 304.996 249.388 303.88 247.701 302.443C246.743 301.627 246.102 300.717 246.31 299.421C247.101 294.505 260.118 277.189 263.729 271.626C282.1 243.327 279.785 245.678 276.578 212.846C275.735 204.215 274.51 140.789 278.257 136.23C279.355 135.783 279.796 135.545 281.006 135.773C284.7 136.467 288.711 141.003 291.341 143.54C303.189 154.965 313.351 167.599 322.575 181.229C327.112 187.934 331.103 195.003 335.869 201.551C341.163 201.181 346.414 201.068 351.718 201.026C368.541 184.671 384.706 171.012 406.037 160.918C409.599 159.232 413.383 157.125 417.18 156.055C418.408 155.708 419.02 155.508 420.161 156.18C420.404 156.621 420.812 157.006 420.891 157.503C421.087 158.731 416.191 171.635 415.415 174.134C410.492 189.985 404.33 210.502 402.303 226.794L402.214 227.545C407.637 236.454 412.481 245.438 416.597 255.036C426.338 254.927 437.264 253.423 446.201 257.806C448.148 267.023 449.244 276.237 445.652 285.24C442.855 292.252 438.529 296.752 431.626 299.74C442.934 309.964 459.929 314.198 473.326 321.073C477.048 322.983 480.411 325.345 483.801 327.781L480.18 130.178L479.366 95.1936C479.225 89.3157 478.195 81.4199 479.545 75.7643C479.889 74.3219 480.171 74.2137 481.325 73.4036C482.659 73.3727 482.742 73.3575 483.829 74.1194C484.511 75.4374 484.848 76.5204 484.949 78.0115C485.435 85.2484 484.925 92.934 485.025 100.226L486.001 151.027L489.834 312.75C490.367 334.646 490.162 356.563 491.162 378.448C497.44 378.45 503.862 377.765 510.135 377.393L545.462 375.249C552.589 374.774 560.705 373.433 567.752 374.366C568.17 374.421 568.786 374.71 569.017 375.097C570.482 377.553 569.512 402.082 569.479 406.629C569.305 430.333 568.47 454.001 568.168 477.69C567.297 527.786 567.406 577.895 568.495 627.986C568.589 632.621 568.552 660.387 569.861 663.589C570.04 664.027 570.427 664.347 570.71 664.726L571.454 664.398C573.61 658.879 572.317 630.113 572.339 622.147L572.109 507.257C572.069 493.703 571.676 480.105 571.827 466.558C578.827 465.665 585.956 466.261 593 465.634ZM283.029 143.861C286.679 155.184 295.068 164.083 300.832 174.359C306.148 183.836 309.195 193.954 312.846 204.092C313.722 206.522 313.997 211.069 312.927 213.419C312.674 213.975 312.679 213.862 312.151 214.196C310.843 213.724 310.17 213.04 309.579 211.761C307.411 207.067 306.871 201.398 305.102 196.482C301.586 186.709 289.187 162.496 282.034 154.498C280.242 169.128 280.675 184.656 281.496 199.367C282.357 214.796 288.373 237.233 282.359 251.417C277.32 263.303 269.359 274.437 262.012 284.992C258.657 289.812 254.604 294.757 252.143 300.093C254.62 300.699 257.116 301.134 259.296 302.512C260.056 304.362 259.363 305.912 258.611 307.696C256.218 313.372 252.624 318.92 249.552 324.27C251.273 324.987 256.012 326.423 256.598 328.322C258.014 332.914 250.484 346.675 249.076 351.887C257.064 365.124 295.799 397.212 309.405 405.188C318.176 410.287 327.636 414.094 337.493 416.493C347.492 418.982 356.639 419.22 366.781 417.634C363.065 397.745 365.031 380.806 369.382 361.191C352.684 358.396 336.978 355.133 321.34 348.437C318.749 347.327 314.811 346.182 313.239 343.763C312.697 342.928 312.852 342.722 312.882 341.779C313.815 340.746 313.91 340.701 315.269 340.39C319.618 341.446 323.745 343.581 327.884 345.263C332.513 347.143 337.338 348.708 342.123 350.14C366.72 357.501 405.866 360.974 431.127 357.699C440.868 356.589 449.798 354.556 458.712 350.408C440.721 350.651 423.716 348.208 406.334 343.715C403.009 342.856 397.864 342.036 395.197 339.77L395.525 339.035C399.971 337.6 416.398 341.799 422.042 342.593C436.576 344.638 450.798 345.317 465.451 344.355C461.956 342.286 457.375 340.129 456.147 335.884C455.695 334.323 455.946 332.699 456.825 331.334C459.194 327.657 464.167 326.703 468.054 325.522C437.543 311.8 425.109 305.807 400.81 281.781C397.245 290.261 393.643 297.905 384.423 301.548C376.856 304.537 368.37 302.971 361.171 299.716C349.236 294.321 342.005 284.518 334.423 274.269C320.892 275.106 306.322 275.558 293.088 278.6C289.852 281.6 285.18 289.888 280.632 289.966C279.81 289.98 279.723 289.531 279.232 288.965C278.172 283.578 283.243 275.135 286.246 270.8C288.937 266.915 291.501 266.048 295.961 265.273C307.267 263.31 318.971 262.589 330.402 261.605C347.611 260.032 364.843 258.719 382.091 257.666C391.681 257.092 401.294 257.03 410.839 255.881C400.102 234.446 391.596 218.545 367.048 210.357C356.738 206.918 344.177 205.737 333.503 207.985C326.683 200.039 321.387 190.222 315.575 181.485C308.546 170.919 300.67 161.546 292.026 152.267C289.533 149.59 286.405 145.338 283.029 143.861ZM406.407 166.494C392.913 172.104 368.545 191.661 358.677 202.781L363.882 203.595C368.721 204.724 373.299 206.286 377.983 207.923C383.146 199.204 388.401 190.67 394.42 182.51C395.761 180.692 406.672 167.277 406.795 166.867L406.407 166.494ZM410.431 168.479C398.809 180.837 390.46 195.963 381.431 210.189C383.89 211.786 386.445 213.311 388.752 215.121C391.578 217.386 394.289 219.74 396.978 222.166C399.108 214.584 400.499 206.833 402.551 199.234C405.012 190.12 408.131 181.119 410.4 171.966C410.733 170.624 410.972 169.766 410.431 168.479ZM411.142 266.325C410.928 270.115 424.4 290.478 427.369 293.911C428.481 295.197 429.231 295.574 430.958 295.605C431.112 295.608 431.266 295.6 431.421 295.597C431.274 289.692 419.332 272.238 414.748 267.856C413.488 266.651 412.791 266.582 411.142 266.325ZM360.192 266.741C359.656 268.28 359.242 268.64 360.052 270.197C362.59 275.077 368.386 282.183 371.674 287.377C373.012 289.491 375.986 295.432 377.596 296.845C377.885 297.099 378.301 297.15 378.654 297.302C379.73 297.173 380.804 297.035 381.878 296.888L382.474 296.073C381.548 291.892 366.497 269.966 362.778 267.306C362.063 266.795 361.049 266.844 360.192 266.741ZM483.318 342.35C478.148 346.43 472.979 350.554 467.077 353.546C443.879 365.312 410.93 365.753 385.409 362.744C381.819 362.325 378.234 361.871 374.652 361.384C374.011 364.825 373.507 368.223 373.147 371.704C383.584 388.368 396.453 403.744 409.136 418.735C413.416 423.794 418.819 428.539 422.64 433.891C423.401 434.957 423.402 435.89 423.188 437.15C420.435 441.124 411.841 442.851 407.271 444.337C408.486 454.212 411.213 463.995 413.305 473.712C415.211 482.562 416.549 491.615 417.81 500.579C422.829 536.256 424.766 572.195 432.123 607.551C438.865 638.547 445.78 669.504 452.867 700.423C458.389 724.523 466.604 753.299 466.511 777.806C466.418 783.215 465.827 788.272 461.651 792.183C460.531 793.232 459.277 794.089 457.997 794.928C458.963 802.77 461.151 811.679 455.805 818.447C451.885 823.409 444.128 827.481 438.467 829.981C439.085 839.402 434.994 838.333 439.516 848.939C449.398 845.765 459.202 842.487 469.158 839.538C476.259 837.435 484.065 835.745 490.875 832.844C491.556 817.175 491.092 801.508 491.039 785.832L490.75 708.567C490.257 619.4 488.863 530.241 486.569 441.102C486.168 416.733 485.554 392.368 484.728 368.009C484.563 362.066 485.092 347.687 483.723 342.721L483.318 342.35ZM372.135 379.33C371.764 382.658 371.468 385.928 371.417 389.277C380.005 393.587 398.684 424.737 406.696 434C397.568 438.035 387.978 445.579 382.63 454.077C385.415 452.529 387.939 450.794 390.506 448.907C394.482 446.162 398.484 443.14 402.808 440.972C407.453 438.643 412.341 437.137 417.094 435.109C405.458 424.146 394.778 411.247 385.295 398.388C381.991 393.909 375.464 382.279 372.135 379.33ZM211.659 402.819C210.538 404.13 210.01 404.462 209.8 406.21C210.281 407.47 210.779 408.403 211.778 409.335C218.291 415.411 227.026 420.405 234.427 425.355C245.334 432.649 256.765 441.383 268.793 446.705C271.941 448.098 276.636 449.98 280.031 448.711C285.751 446.572 294.142 435.89 298.435 431.309L298.834 430.18C295.711 431.236 281.938 444.898 277.506 448.054C264.282 438.32 250.209 429.485 236.697 420.111C229.009 414.778 221.606 408.457 213.683 403.569C213.063 403.186 212.367 402.966 211.659 402.819ZM521.018 411.174C519.635 411.459 517.104 411.821 516.383 413.256C515.529 414.955 515.67 430.635 516.449 432.797C516.804 433.781 517.744 434.251 518.685 434.555C520.58 435.165 522.89 434.974 524.849 434.931C526.503 434.528 528.009 434.3 529.32 433.132C530.842 430.393 530.368 416.315 529.458 413.111C529.268 412.443 529.222 412.011 528.548 411.684C526.46 410.669 523.3 411.07 521.018 411.174ZM496.112 411.63C494.53 412.097 493.224 412.315 492.191 413.712C491.689 418.39 491.188 431.197 492.75 435.283C495.37 436.529 498.666 435.85 501.463 435.505C502.896 434.854 503.734 434.7 504.508 433.195C506.203 429.901 505.531 415.906 503.946 412.609C501.786 411.025 498.65 411.498 496.112 411.63ZM315.435 414.313L323.145 426.101C342.752 429.898 348.506 432.975 369.514 429.537L367.788 422.203C354.584 425.56 340.417 423.155 327.708 418.837C323.683 417.47 319.506 415.32 315.435 414.313ZM199.642 428.499C204.712 432.24 212.958 436.961 219.395 437.061C214.851 432.671 205.743 429.848 199.642 428.499ZM325.694 431.339C328.597 438.266 331.636 445.158 333.847 452.344C340.769 474.834 343.14 498.871 346.771 522.027C351.597 552.804 357.087 581.767 360.336 613.01C363.463 643.077 364.241 673.318 367.053 703.421C370.239 737.523 375.637 771.135 380.217 805.042C389.693 803.689 399.648 801.917 408.312 797.676L412.82 796.064C408.008 765.651 404.296 735.081 399.658 704.639C392.598 658.29 384.866 612.138 380.187 565.471C377.277 536.441 376.016 507.451 374.201 478.346C373.263 463.302 373.516 447.438 370.008 432.761C359.126 439.167 341.18 435.366 329.804 432.423L325.694 431.339ZM314.264 445.441C310.97 449.392 307.952 453.56 304.623 457.482C301.53 461.128 289.283 473.226 288.039 476.542L288.439 476.911C293.927 472.476 313.186 453.382 314.615 446.379C314.649 446.21 314.648 446.037 314.664 445.865L314.264 445.441ZM251.478 452.372C253.21 456.446 261.982 470.816 265.673 472.504C265.877 472.597 266.09 472.669 266.299 472.752C265.036 466.491 258.338 457.037 253.162 453.26C252.644 452.882 252.071 452.608 251.478 452.372ZM521.291 454.171C519.874 454.756 518.476 455.159 517.794 456.65C516.01 460.546 516.438 471.987 518.041 475.86C518.368 476.651 519.337 477.002 520.127 477.234C522.4 477.9 525.45 477.559 527.819 477.504C529.28 476.854 530.139 476.737 530.887 475.191C532.266 472.343 531.931 458.389 530.602 455.702C530.193 454.875 528.862 454.448 527.996 454.279C525.828 453.855 523.487 454.07 521.291 454.171ZM546.455 454.077C544.984 454.801 543.645 455.299 543.031 456.944C541.941 459.869 541.681 473.085 542.924 475.623C543.447 476.691 544.393 477.018 545.48 477.293C548.055 477.944 551.219 477.624 553.871 477.552C555.369 476.756 556.332 476.446 556.813 474.6C558.03 469.928 558.278 459.564 555.976 455.322C553.473 453.319 549.48 453.796 546.455 454.077ZM327.658 458.812C325.12 462.565 322.892 465.946 321.564 470.332C326.118 486.842 332.494 503.199 338.371 519.304C338.787 520.45 338.932 521.433 339.867 522.247C340.365 517.582 329.876 461.501 328.086 459.301C327.95 459.133 327.801 458.975 327.658 458.812ZM384.301 462.781L384.51 463.47C385.955 468.106 388.084 472.347 390.726 476.415C392.655 479.386 395.276 482.437 396.394 485.818C398.165 491.172 398.231 497.597 398.659 503.215C399.89 519.354 400.147 535.555 400.89 551.722C401.175 557.927 401.991 589 403.708 591.811C403.949 591.678 404.248 591.599 404.411 591.377C403.98 566.659 403.521 542.186 402.079 517.483C401.713 510.626 401.211 503.777 400.571 496.94C400.133 492.254 398.871 486.573 399.417 481.981C396.457 477.359 388.851 465.28 384.301 462.781ZM404.136 462.847C404.496 480.36 407.473 498.118 409.296 515.542C414.811 564.937 422.189 614.105 431.414 662.943C437.649 694.621 445.297 726.049 451.67 757.709C452.812 763.384 453.849 769.131 454.545 774.878C454.997 778.607 455.105 782.466 455.853 786.145C456.049 787.108 456.213 787.7 456.912 788.426C457.63 787.959 457.956 787.603 458.406 786.875C462.745 778.527 460.452 765.672 459.061 756.746C456.59 740.902 452.33 725.293 448.83 709.651L434.316 642.994C431.26 628.704 427.971 614.448 425.428 600.055C421.562 577.965 418.504 555.741 416.261 533.428C414.301 515.54 412.268 498.07 408.816 480.382C407.821 475.284 407.123 469.796 405.574 464.864C405.291 463.964 404.872 463.407 404.136 462.847ZM284.498 482.911C284.421 484.17 284.602 484.894 285.205 486.013C288.123 491.428 292.139 496.57 295.587 501.672C301.486 510.398 307.342 519.379 312.662 528.466C325.066 550.018 335.532 572.63 343.935 596.034C346.843 603.953 349.163 615.545 352.356 622.339C352.623 613.578 351.287 604.144 348.93 595.736C341.206 568.179 312.036 508.101 292.268 487.421C290.14 485.195 288.258 482.905 284.98 482.903C284.819 482.903 284.658 482.908 284.498 482.911ZM380.477 482.846C378.716 491.176 385.662 567.208 388.589 577.195C390.215 572.568 385.644 507.843 384.466 498.044C383.947 493.721 383.33 488.753 381.579 484.728C381.278 484.038 380.9 483.465 380.477 482.846ZM582.698 497.076C581.447 497.913 580.797 498.192 580.562 499.745C579.914 504.028 579.218 516.122 582.185 519.407C582.886 520.184 584.281 520.142 585.26 520.101C586.944 520.028 588.63 519.892 590.311 519.765C591.358 519.166 591.977 519.067 592.346 517.849C593.494 514.058 593.543 501.472 591.687 498.033C589.083 496.407 585.645 496.934 582.698 497.076ZM522.851 498.064C521.183 498.527 518.345 499.055 517.449 500.779C516.176 503.228 516.972 517.128 518.036 519.852C520.347 521.926 522.87 521.825 525.809 521.981C527.554 521.668 529.35 521.534 530.78 520.402C531.923 517.895 532.005 503.347 531.117 500.532C530.774 499.446 529.825 498.94 528.806 498.578C526.944 497.918 524.794 498.004 522.851 498.064ZM494.779 499.618C492.827 502.487 494.006 518.759 494.131 522.892C497.457 523.167 500.64 523.464 503.892 522.476C506.656 519.286 505.772 510.214 505.473 505.996C505.332 503.999 505.111 502.217 504.017 500.495C501.387 498.745 497.78 499.423 494.779 499.618ZM274.592 532.253C273.542 533.797 272.892 535.4 272.313 537.162C268.827 547.78 266.371 558.782 263.075 569.474C259.898 579.78 253.44 595.722 252.201 605.812C252.395 606.38 252.486 606.737 252.884 607.197C260.399 597.208 277.014 545.727 275.332 533.058L274.592 532.253ZM585.112 540.637C583.565 540.952 582.349 541.051 581.26 542.312C580.564 547.646 580.509 556.906 582.16 561.965C584.542 563.879 586.75 563.546 589.618 563.426C591.222 563.157 592.602 563.188 593.896 562.176C594.316 558.346 595.16 544.167 593.518 541.249C590.903 540.155 587.895 540.491 585.112 540.637ZM521.662 541.585C520.253 542.19 518.538 542.694 517.858 544.186C515.737 548.841 516.441 559.699 518.441 564.233C520.724 565.815 524.384 565.402 527.085 565.389C528.602 564.992 529.834 564.766 531.001 563.634C531.91 560.826 532.303 545.719 530.782 543.571C529.237 541.39 525.921 541.428 523.598 541.497C522.952 541.514 522.307 541.543 521.662 541.585ZM254.525 563.298C251.421 570.195 249.431 577.831 247.253 585.062C241.626 603.748 237.135 622.673 231.765 641.404C231.601 641.367 231.436 641.332 231.273 641.292C226.536 640.132 220.613 635.83 215.796 636.456C214.885 637.354 215.076 637.296 214.935 638.471C215.741 639.562 216.53 640.162 217.611 640.952C222.697 643.896 228.184 646.332 233.652 648.48C237.774 638.552 240.948 621.076 243.689 609.932C246.981 596.553 251.013 583.292 253.966 569.843C254.327 568.201 255.231 565.289 254.707 563.674C254.664 563.541 254.586 563.423 254.525 563.298ZM546.832 583.612C545.415 584.441 544.638 584.574 544.174 586.296C543.25 589.727 542.767 603.17 544.936 606.024C545.794 607.152 548.686 607.097 549.946 607.097C551.953 607.097 553.975 606.935 555.977 606.804C557.285 606.178 557.731 606.152 558.228 604.699C559.082 602.203 559.261 586.45 557.768 584.53C556.829 583.323 553.352 583.325 551.984 583.341C550.269 583.362 548.543 583.5 546.832 583.612ZM495.56 583.905C495.248 591.34 494.581 600.063 495.84 607.356C497.139 608.253 498.371 608.169 499.898 607.876C501.269 607.613 502.645 607.289 503.946 606.776C505.23 603.103 505.73 589.584 504.159 585.978C503.776 585.1 503.108 584.655 502.24 584.29C500.342 583.493 497.591 583.829 495.56 583.905ZM521.637 584.128C518.484 587.249 519.015 592.52 518.992 596.697C518.977 599.326 518.619 604.821 520.454 606.902C521.559 608.156 523.968 608.27 525.5 608.135C527.352 607.972 529.263 607.557 531.082 607.193C532.76 606.116 533.763 605.616 534.198 603.514C534.969 599.784 535.877 588.849 533.884 585.695C533.15 584.533 530.775 584.287 529.548 584.152C526.999 583.873 524.199 583.977 521.637 584.128ZM583.812 627.02C582.25 628.265 581.517 629.184 581.275 631.218C580.721 635.88 580.187 642.894 581.841 647.3C583.287 648.811 584.859 648.928 586.818 648.973C587.836 648.997 588.854 648.997 589.871 648.97C591.397 648.476 592.273 648.379 593.374 647.185C593.666 643.676 594.374 631.036 592.693 628.452C589.991 626.599 586.97 626.795 583.812 627.02ZM240.444 660.963C246.728 683.457 280.372 735.927 296.714 754.074C298.278 755.811 300.754 759.175 302.78 760.163C302.991 760.266 303.222 760.325 303.45 760.383C303.191 758.654 302.654 757.36 301.755 755.864C293.525 742.168 284.228 728.963 275.59 715.507C270.25 707.189 244.008 663.779 240.849 661.236C240.722 661.134 240.579 661.054 240.444 660.963ZM432.524 703.35C432.671 712.941 434.883 722.934 435.997 732.492C438.262 751.926 440.166 771.417 443.373 790.729C444.71 798.785 445.999 807.383 448.663 815.111L449.467 815.731C450.418 815.191 450.561 815.018 451.149 814.157C452.121 812.165 452.963 810.538 452.77 808.277C452.264 802.356 450.291 796.339 449.351 790.439C446.555 772.609 443.511 754.818 440.22 737.073C438.348 726.549 436.952 714.526 433.286 704.497C433.027 703.79 433.089 703.99 432.524 703.35ZM161.282 705.359C178.055 740.148 230.613 794.055 262.302 816.898L264.853 813.74C266.065 811.88 267.348 810.037 268.448 808.109C238.638 783.474 209.814 757.67 182.042 730.757C177.799 726.629 173.776 721.976 170.19 717.273C167.711 714.024 164.436 707.739 161.282 705.359ZM355.861 706.753C352.418 714.092 367.087 825.736 371.609 837.729C371.924 838.566 372.369 839.263 372.872 839.996C374.149 836.515 373.425 831.842 373.1 828.202C371.438 809.604 368.415 791.128 365.662 772.671C363.826 760.356 362.334 747.975 360.559 735.647C359.812 730.459 358.078 711.883 356.652 707.868C356.424 707.224 356.358 707.273 355.861 706.753ZM316.069 742.225C315.373 743.199 315.219 743.27 315.405 744.5C316.191 749.704 318.208 754.497 318.631 759.866C320.12 778.784 309.902 798.836 299.448 813.988C297.098 817.406 294.523 820.662 291.738 823.736C289.986 825.668 282.613 831.747 282.12 833.628L283.25 833.577C300.996 822.963 315.314 796.445 320.284 776.903C322.662 767.548 324.589 753.762 319.538 744.886C318.626 743.286 317.845 742.705 316.069 742.225ZM411.492 804.074C406.663 805.502 401.768 806.833 396.979 808.384C397.2 809.811 397.177 812.182 398.31 813.017L398.741 813.001C402.495 811.8 410.666 810.132 413.128 807.179C413.188 805.751 413.199 805.252 411.968 804.256C411.836 804.15 411.65 804.135 411.492 804.074ZM414.089 815.041L405.462 817.961L407.781 858.09L408.6 858.148L409.728 857.098C413.207 850.238 416.528 843.383 419.604 836.333C417.235 832.037 415.854 816.407 414.089 815.041Z"/><path fill="#212121" d="M638.364 685.661L639.838 804.133L640.075 833.12C640.13 836.745 640.975 841.107 640.382 844.621C639.989 846.949 639.102 848.883 637.211 850.319L635.7 849.819C635.278 848.935 634.949 848.113 634.76 847.145C633.595 841.179 634.216 833.961 634.177 827.867L634.203 782.554C634.2 766.859 633.536 751.064 633.225 735.365L632.349 678.751C631.78 652.608 630.139 626.404 628.843 600.285C626.304 549.084 623.592 497.74 622.165 446.496C619.938 366.523 622.613 286.401 623.306 206.415C623.444 180.418 623.356 154.421 623.044 128.426C622.777 111.873 621.972 95.2103 622.301 78.6582C622.347 76.3625 622.589 75.198 623.839 73.2612C625.083 73.4675 626.259 73.579 627.237 74.4504C628.024 75.1505 628.17 76.2442 628.26 77.2461C628.789 83.1472 628.102 89.3025 628.11 95.2459C628.124 106.57 628.461 117.915 628.721 129.236L749.299 107.88C755.938 106.747 781.187 101.277 786.105 102.245C787.471 102.515 787.906 102.999 788.726 104.065C788.751 104.794 788.893 105.024 788.425 105.665C787.192 107.353 784.694 108.031 782.748 108.449C774.394 110.246 765.66 111.103 757.214 112.553L684.559 124.804C665.984 127.954 647.135 131.023 628.817 135.421L628.978 145.952C633.125 145.273 637.226 144.398 641.342 143.554C661.27 139.529 681.253 135.776 701.284 132.298C726.453 127.803 810.464 111.104 830.546 125.341C831.789 126.223 832.918 127.52 833.012 129.117C833.106 130.724 832.172 132.325 831.078 133.425C817.203 147.371 735.563 149.925 713.613 149.271C705.642 149.034 684.367 148.508 679.236 142.901C679.138 142.794 679.044 142.683 678.948 142.574C662.363 144.712 645.588 148.517 629.252 152.104C628.951 165.411 629.381 178.729 629.352 192.039C629.269 224.845 628.962 257.65 628.43 290.452C627.354 329.269 627.057 368.104 627.539 406.933C627.63 419.132 627.836 431.331 628.157 443.526C628.322 450.602 628.119 457.942 629.049 464.949C654.633 465.649 680.441 462.84 706.054 462.866C706.653 477.211 706.31 491.623 706.617 505.985C707.267 531.466 707.677 556.952 707.847 582.44C707.946 589.22 708.39 595.986 708.437 602.769C708.602 626.617 708.639 650.4 709.416 674.245C709.601 679.923 708.926 689.143 710.703 694.398C711.681 695.124 711.714 695.269 712.912 695.217C714.547 693.808 714.547 691.012 714.589 688.994C714.812 678.455 713.953 667.708 713.678 657.158L712.507 595.113L711.055 425.881L709.954 368.126C709.721 356.808 708.577 344.841 710.063 333.616C711.049 332.789 712.822 332.769 714.1 332.634C722.706 331.727 731.489 331.614 740.136 331.2C752.225 330.522 764.318 329.941 776.416 329.458C786.866 329.048 797.321 328.751 807.778 328.567C812.342 328.481 817.059 328.112 821.605 328.358C823.13 328.441 824.376 328.64 825.592 329.619C827.786 335.03 826.082 399.456 826.132 410.009L827.398 605.875C827.808 628.659 827.967 651.447 827.876 674.235C827.893 682.679 828.11 691.087 828.292 699.526C828.407 704.83 828.195 710.339 829.128 715.574C829.923 716.645 829.936 716.651 831.229 716.983L831.957 716.415C832.791 714.498 833.009 712.649 833.029 710.566C833.106 702.559 832.514 694.515 832.473 686.5C832.496 649.248 832.185 611.996 831.542 574.75L830.641 383.04C848.214 381.897 865.788 382.209 883.379 381.73C896.318 381.378 909.38 380.11 922.303 380.241C924.752 380.266 927.895 380.188 930.117 381.24C932.125 390.672 930.985 401.857 930.997 411.499L931.065 472.125L932.69 738.749C939.405 739.901 945.945 741.707 952.586 743.197C958.05 744.423 964.162 745.187 969.385 747.191C970.749 747.714 971.579 748.27 972.522 749.373C972.632 750.852 972.49 750.807 971.549 751.982C969.857 752.783 968.635 752.672 966.856 752.354C954.82 750.197 942.992 746.913 931.05 744.302C909.803 739.864 888.528 735.563 867.226 731.399C811.019 721.231 754.964 710.244 699.077 698.442C678.887 694.204 658.36 690.676 638.364 685.661ZM791.764 125.708C775.56 126.586 759.688 128.971 743.649 131.337C724.78 134.051 705.973 137.18 687.242 140.724C698.442 143.356 711.354 144.552 722.875 144.201C734.354 143.931 745.888 143.822 757.344 143.069C768.576 142.331 817.607 138.113 824.993 130.575C825.116 130.45 825.215 130.303 825.327 130.168C824.982 129.179 825.29 129.487 824.319 129.038C817.992 126.113 798.894 125.322 791.764 125.708ZM802.748 369.599C801.038 370.449 800.203 371.043 799.603 372.916C798.311 376.953 797.602 387.775 799.958 391.367C800.777 392.615 802.264 392.934 803.661 392.987C805.735 393.064 807.823 392.841 809.883 392.63C811.326 392.175 812.013 392.13 813.026 390.973C814.142 385.579 814.269 377.019 813.008 371.705C811.639 370.122 810.184 369.717 808.148 369.564C806.357 369.43 804.54 369.523 802.748 369.599ZM776.323 370.111C774.084 372.007 773.798 373.163 773.549 376.006C773.203 379.956 772.32 388.565 774.836 391.821C775.947 393.258 778.605 393.42 780.263 393.473C781.997 393.529 783.893 393.447 785.604 393.194C786.834 392.382 787.755 392.018 788.111 390.462C789.006 386.54 789.65 375.096 787.355 371.804C786.576 370.686 785.104 370.189 783.794 369.986C781.424 369.62 778.698 369.845 776.323 370.111ZM728.065 371.616C726.179 372.182 724.692 372.51 723.766 374.441C721.821 378.494 723.004 390.621 723.829 395.14C726.616 397.044 730.509 396.526 733.743 396.476C735.167 396.098 736.627 395.851 737.416 394.459C739.526 390.732 738.967 377.876 737.454 373.839C737.024 372.692 736.786 372.573 735.635 372.118C733.573 371.303 730.29 371.611 728.065 371.616ZM900.846 409.642C899.24 410.289 898.311 410.611 897.658 412.296C895.94 416.733 894.976 426.755 897.102 430.982C897.918 432.605 899.606 433.944 901.357 434.422C903.519 435.011 906.644 434.846 908.833 434.528C910.751 433.506 911.983 432.637 912.667 430.495C914.075 426.088 914.77 417.38 912.554 413.267C911.604 411.503 909.685 410.014 907.714 409.604C905.566 409.157 903.023 409.462 900.846 409.642ZM755.164 413.179C753.568 413.438 750.655 413.644 749.729 415.239C748.044 418.139 748.851 432.426 749.812 435.781C752.016 437.918 755.684 437.408 758.584 437.411C760.376 437.124 761.86 437.041 763.259 435.809C764.55 432.564 764.645 418.485 763.447 415.192C763.199 414.514 762.406 414.045 761.761 413.761C759.886 412.932 757.19 413.168 755.164 413.179ZM781.249 413.203C778.439 413.513 776.053 413.523 774.07 415.843C773.254 419.334 772.723 432.772 774.447 435.721C775.554 437.616 778.665 437.825 780.575 437.96C780.997 437.988 781.418 438.013 781.84 438.033C783.505 437.789 786.704 437.664 787.739 436.212C789.744 433.399 789.102 419.558 788.387 416.032C787.317 414.55 786.434 413.877 784.596 413.566C783.486 413.379 782.371 413.282 781.249 413.203ZM846.567 413.161C845.178 414.043 844.533 414.39 844.159 416.118C843.451 419.386 843.011 432.708 844.731 435.196C845.519 436.336 848.175 436.527 849.437 436.598C851.77 436.728 854.158 436.59 856.493 436.525C857.679 435.736 858.34 435.419 858.691 433.981C859.778 429.54 859.674 419.563 858.437 415.03C857.409 413.658 856.342 413.182 854.684 412.965C852.068 412.623 849.197 412.989 846.567 413.161ZM900.557 454.569C899.143 455.375 897.727 455.98 897.183 457.627C896.099 460.914 896.577 473.262 897.996 476.196C898.465 477.166 899.625 477.464 900.611 477.69C903.393 478.327 906.632 478.064 909.471 478C911.037 477.176 911.839 476.636 912.393 474.827C913.796 470.251 914.022 460.605 911.898 456.305C909.328 453.987 905.146 454.32 901.877 454.486C901.437 454.509 900.996 454.536 900.557 454.569ZM873.118 455.579C871.296 457.097 870.816 458.023 870.593 460.387C870.283 463.682 869.345 475.049 871.694 477.533C873.902 479.868 880.015 478.781 882.877 478.326C884.148 477.597 885.106 477.277 885.563 475.753C886.827 471.529 886.963 460.356 884.636 456.614C881.601 454.511 876.659 455.317 873.118 455.579ZM807.23 456.209C804.063 456.348 801.591 456.13 799.196 458.533C798.029 463.394 798.131 472.278 799.19 477.215C800.894 479.139 802.604 479.297 805.045 479.565C808.132 479.256 811.337 479.344 813.654 477.002C814.347 472.655 814.802 461.508 813.303 457.579C811.45 456.277 809.427 456.285 807.23 456.209ZM753.089 456.552C751.806 456.994 750.373 457.316 749.709 458.617C747.708 462.54 748.182 473.715 749.802 477.814C750.157 478.712 750.299 478.995 751.143 479.478C753.385 480.759 758.842 480.016 761.5 479.987C762.958 479.342 763.581 479.355 764.099 477.663C765.003 474.708 765.314 460.726 763.534 458.124C762.81 457.066 760.628 456.629 759.428 456.524C757.346 456.34 755.178 456.486 753.089 456.552ZM682.345 495.165C680.822 495.791 679.99 495.939 678.971 497.262C678.092 501.963 677.387 513.622 680.048 517.774C683.166 519.583 686.895 519.048 690.356 518.753C691.61 518.138 692.827 517.873 693.397 516.481C694.352 514.152 694.495 499.841 693.23 497.53C692.515 496.223 691.086 495.459 689.656 495.224C687.36 494.847 684.663 494.985 682.345 495.165ZM655.362 496.106C653.961 496.973 653.032 497.262 652.714 499.032C651.848 503.84 651.537 513.278 653.509 517.705C654.894 519.095 656.465 519.184 658.326 519.191C660.499 519.199 662.67 519.06 664.836 518.904C665.535 518.587 666.701 518.302 667.03 517.584C667.997 515.471 667.828 500.241 666.744 498.212C666.068 496.946 664.597 496.16 663.216 495.957C660.758 495.596 657.832 495.894 655.362 496.106ZM901.965 496.162C900.437 496.606 899.404 496.872 898.267 498.073C896.43 502.803 896.893 513.102 898.733 517.832C900.208 519.449 901.985 519.904 904.119 520.015C905.935 520.11 907.787 519.98 909.603 519.895C911.273 518.905 912.252 518.14 912.733 516.182C913.719 512.169 914.532 501.138 911.889 497.795C910.435 495.957 907.52 496.017 905.427 496.011C904.271 496.006 903.116 496.056 901.965 496.162ZM631.064 497.499C631.111 503.092 629.996 514.308 632.751 518.979C634.13 519.887 634.907 520.23 636.566 519.917C637.836 519.678 638.945 519.284 640.098 518.717C641.378 515.395 642.134 501.844 640.667 498.671C640.348 497.98 639.343 497.684 638.632 497.518C636.344 496.981 633.415 497.38 631.064 497.499ZM777.362 497.594C775.942 498.401 774.895 498.933 774.35 500.586C773.099 504.384 772.737 514.568 774.611 518.136C775.281 519.41 775.942 519.938 777.32 520.354C779.682 521.067 783.386 520.75 785.855 520.62C787.444 519.574 788.158 519.001 788.576 517.1C789.603 512.429 789.996 503.087 787.547 498.92C784.666 496.758 780.766 497.279 777.362 497.594ZM681.175 538.165C679.605 539.259 678.853 539.711 678.557 541.743C677.863 546.512 677.395 554.747 678.907 559.299C680.198 560.773 681.705 561.164 683.61 561.299C685.856 561.458 688.26 561.165 690.487 560.869C692.022 559.88 692.715 559.303 693.092 557.391C693.938 553.099 694.641 542.587 692.07 538.938C688.974 537.056 684.646 537.834 681.175 538.165ZM634.379 538.463C633.185 539.102 632.546 539.136 632.241 540.547C631.62 543.413 632.335 559.86 633.935 561.966C635.586 562.589 637.163 562.336 638.881 562.204C640.061 561.47 640.499 561.177 640.766 559.76C641.645 555.095 641.688 544.646 640.046 540.295C638.345 538.629 636.637 538.613 634.379 538.463ZM659.466 538.701C657.813 538.838 653.843 538.797 652.839 540.314C651.094 542.951 651.899 557.43 652.714 560.676C653.54 561.667 654.154 561.858 655.413 561.989C657.238 562.181 659.221 562.031 661.06 562.004C663.009 561.781 665.429 561.819 666.677 560.055C667.476 558.927 667.444 544.447 667.006 542.859C666.622 541.469 666.007 540.225 664.718 539.449C663.214 538.545 661.152 538.714 659.466 538.701ZM876.256 538.711C874.672 538.839 872.63 538.754 871.496 540.031C868.533 543.368 869.499 552.891 870.087 557.069C870.299 558.578 870.585 560.016 871.179 561.422C873.596 562.857 876.437 562.696 879.174 562.765C880.667 562.531 882.093 562.38 883.121 561.123C885.901 557.727 885.583 546.685 884.667 542.529C884.372 541.187 883.936 540.216 882.705 539.509C880.99 538.526 878.167 538.741 876.256 538.711ZM848.409 539.104C847.002 539.658 845.689 540.068 844.952 541.511C843.019 545.3 843.179 555.646 844.705 559.543C845.186 560.772 845.866 561.573 847.095 562.111C849.383 563.112 853.396 562.58 855.912 562.503C857.607 561.854 858.138 561.778 859.28 560.308C859.898 557.07 860.362 543.433 858.305 540.924C856.725 538.997 854.188 538.986 851.915 538.982C850.745 538.982 849.576 539.023 848.409 539.104ZM778.467 540.066C776.97 540.761 775.639 541.258 774.6 542.605C773.395 547.032 772.935 558.385 775.206 562.41C778.096 564.26 781.626 563.99 784.911 563.537C786.107 563.01 787.438 562.751 788.027 561.475C789.239 558.85 789.451 544.617 787.939 541.841C787.405 540.861 785.795 540.311 784.741 540.122C782.731 539.76 780.501 539.983 778.467 540.066ZM728.382 541.103C726.929 541.758 725.717 542.192 725.046 543.757C723.778 546.711 723.694 559.209 724.82 561.944C725.31 563.133 726.274 563.585 727.445 563.961C729.726 564.692 733.012 564.442 735.382 564.183C736.725 563.605 737.679 563.302 738.437 561.96C738.957 558.082 740.059 545.437 737.604 542.397C735.944 540.34 730.76 540.972 728.382 541.103ZM901.495 580.071C899.953 580.724 898.456 581.163 897.443 582.575C896.321 587.749 896.463 597.635 898.809 602.382C901.192 604.315 905.134 604.111 908.061 603.816C908.328 603.789 908.595 603.755 908.861 603.725C910.495 602.914 911.608 602.545 912.157 600.637C913.304 596.656 913.909 584.813 911.392 581.477C910.551 580.363 909.142 579.971 907.798 579.882C905.732 579.745 903.557 579.932 901.495 580.071ZM638.769 581.205C637.505 581.322 635.633 581.17 634.649 581.952C634.196 589.224 634.198 597.256 635.065 604.487C637.055 606.052 639.963 605.614 642.395 605.554C643.71 604.961 644.774 604.755 645.196 603.201C646.372 598.87 647.568 586.852 644.705 583.191C643.615 581.797 642.554 581.387 640.826 581.275C640.141 581.234 639.455 581.211 638.769 581.205ZM680.186 581.057C678.535 582.246 677.805 582.716 677.469 584.853C676.842 588.847 675.807 599.801 678.329 603.116C679.118 604.152 680.644 604.518 681.896 604.62C684.046 604.795 686.291 604.573 688.442 604.447C689.569 603.898 690.091 603.849 690.556 602.611C691.88 599.08 691.684 586.2 689.843 582.877C689.2 581.717 688.507 581.363 687.208 581.08C685.093 580.618 682.359 580.981 680.186 581.057ZM873.363 581.072C872.111 581.955 870.798 582.651 870.445 584.239C869.759 587.32 869.69 601.144 871.72 603.488C873.088 605.068 874.847 605.163 876.771 605.11C878.689 605.057 880.525 604.845 882.407 604.454C883.642 603.625 884.534 603.259 884.911 601.699C885.82 597.94 886.367 585.34 884.14 582.234C883.41 581.216 881.708 581.011 880.54 580.936C878.168 580.784 875.737 580.964 873.363 581.072ZM753.986 581.576C752.569 582.231 751.326 582.646 750.482 584.044C749.701 589.468 749.254 598.75 751.055 603.922C753.843 605.993 757.838 605.645 761.149 605.364C762.875 604.266 763.826 603.803 764.329 601.68C765.386 597.222 766.444 588.405 763.774 584.492C762.641 582.832 761.161 581.795 759.16 581.533C757.477 581.313 755.678 581.483 753.986 581.576ZM728.238 582.135C726.773 582.817 725.761 583.255 724.782 584.614C724.071 587.637 723.846 600.882 725.224 603.272C725.972 604.57 727.132 605.4 728.614 605.668C730.896 606.08 733.603 605.918 735.883 605.624C737.32 604.956 738.301 604.531 738.943 602.966C740.364 599.502 740.623 587.369 738.845 584.136C738.317 583.175 737.334 582.67 736.288 582.403C733.82 581.773 730.781 582.047 728.238 582.135ZM874.41 624.076C872.99 624.698 871.844 625.108 871.153 626.609C869.519 630.16 869.375 639.591 870.935 643.136C871.705 644.887 873.132 646.27 874.934 646.894C876.703 647.507 879.157 647.088 880.995 646.942C882.339 646.459 883.574 646.177 884.447 644.964C885.181 641.617 885.904 628.844 884.052 625.992C883.09 624.51 880.305 624.059 878.705 624.02C877.273 623.999 875.841 624.017 874.41 624.076ZM755.084 625.1C753.588 625.844 752.106 626.381 751.166 627.834C750.667 630.749 750.223 643.311 751.861 645.754C752.747 647.075 754.074 647.789 755.629 647.99C757.435 648.224 759.405 648.04 761.222 647.971C762.557 647.355 763.6 647.126 764.152 645.62C765.603 641.656 766.182 631.811 764.093 628.061C763.322 626.677 762.183 625.514 760.594 625.135C758.822 624.713 756.876 624.936 755.084 625.1ZM804.295 625.089C803.074 625.938 802.146 626.544 801.766 628.082C800.72 632.309 799.987 641.937 802.629 645.468C803.637 646.816 805.208 647.756 806.892 647.911C808.958 648.102 811.048 647.793 813.071 647.401C814.557 646.387 815.199 645.908 815.577 644.114C816.493 639.771 817.028 630.256 814.474 626.497C811.43 624.43 807.81 624.832 804.295 625.089ZM654.04 626.116C651.547 628.473 651.939 631.82 651.858 635.032C651.776 638.316 651.016 645.188 652.983 647.976C655.719 649.838 659.247 649.84 662.422 649.185C662.74 649.119 663.056 649.043 663.373 648.972C664.673 648.025 665.514 647.397 665.816 645.73C666.732 640.683 667.131 631.384 664.184 627.079C661.504 625.17 657.168 625.976 654.04 626.116Z"/><path fill="#FEFEFE" d="M687.242 140.724C705.973 137.18 724.78 134.051 743.649 131.337C759.688 128.971 775.56 126.586 791.764 125.708C798.894 125.322 817.992 126.113 824.319 129.038C825.29 129.487 824.982 129.179 825.327 130.168C825.215 130.303 825.116 130.45 824.993 130.575C817.607 138.113 768.576 142.331 757.344 143.069C745.888 143.822 734.354 143.931 722.875 144.201C711.354 144.552 698.442 143.356 687.242 140.724Z"/><path fill="#FEFEFE" d="M282.034 154.498C289.187 162.496 301.586 186.709 305.102 196.482C306.871 201.398 307.411 207.067 309.579 211.761C310.17 213.04 310.843 213.724 312.151 214.196C312.679 213.862 312.674 213.975 312.927 213.419C313.997 211.069 313.722 206.522 312.846 204.092C309.195 193.954 306.148 183.836 300.832 174.359C295.068 164.083 286.679 155.184 283.029 143.861C286.405 145.338 289.533 149.59 292.026 152.267C300.67 161.546 308.546 170.919 315.575 181.485C321.387 190.222 326.683 200.039 333.503 207.985C344.177 205.737 356.738 206.918 367.048 210.357C391.596 218.545 400.102 234.446 410.839 255.881C401.294 257.03 391.681 257.092 382.091 257.666C364.843 258.719 347.611 260.032 330.402 261.605C318.971 262.589 307.267 263.31 295.961 265.273C291.501 266.048 288.937 266.915 286.246 270.8C283.243 275.135 278.172 283.578 279.232 288.965C279.723 289.531 279.81 289.98 280.632 289.966C285.18 289.888 289.852 281.6 293.088 278.6C306.322 275.558 320.892 275.106 334.423 274.269C342.005 284.518 349.236 294.321 361.171 299.716C368.37 302.971 376.856 304.537 384.423 301.548C393.643 297.905 397.245 290.261 400.81 281.781C425.109 305.807 437.543 311.8 468.054 325.522C464.167 326.703 459.194 327.657 456.825 331.334C455.946 332.699 455.695 334.323 456.147 335.884C457.375 340.129 461.956 342.286 465.451 344.355C450.798 345.317 436.576 344.638 422.042 342.593C416.398 341.799 399.971 337.6 395.525 339.035L395.197 339.77C397.864 342.036 403.009 342.856 406.334 343.715C423.716 348.208 440.721 350.651 458.712 350.408C449.798 354.556 440.868 356.589 431.127 357.699C405.866 360.974 366.72 357.501 342.123 350.14C337.338 348.708 332.513 347.143 327.884 345.263C323.745 343.581 319.618 341.446 315.269 340.39C313.91 340.701 313.815 340.746 312.882 341.779C312.852 342.722 312.697 342.928 313.239 343.763C314.811 346.182 318.749 347.327 321.34 348.437C336.978 355.133 352.684 358.396 369.382 361.191C365.031 380.806 363.065 397.745 366.781 417.634C356.639 419.22 347.492 418.982 337.493 416.493C327.636 414.094 318.176 410.287 309.405 405.188C295.799 397.212 257.064 365.124 249.076 351.887C250.484 346.675 258.014 332.914 256.598 328.322C256.012 326.423 251.273 324.987 249.552 324.27C252.624 318.92 256.218 313.372 258.611 307.696C259.363 305.912 260.056 304.362 259.296 302.512C257.116 301.134 254.62 300.699 252.143 300.093C254.604 294.757 258.657 289.812 262.012 284.992C269.359 274.437 277.32 263.303 282.359 251.417C288.373 237.233 282.357 214.796 281.496 199.367C280.675 184.656 280.242 169.128 282.034 154.498Z"/><path fill="#FEFEFE" d="M358.677 202.781C368.545 191.661 392.913 172.104 406.407 166.494L406.795 166.867C406.672 167.277 395.761 180.692 394.42 182.51C388.401 190.67 383.146 199.204 377.983 207.923C373.299 206.286 368.721 204.724 363.882 203.595L358.677 202.781Z"/><path fill="#FEFEFE" d="M381.431 210.189C390.46 195.963 398.809 180.837 410.431 168.479C410.972 169.766 410.733 170.624 410.4 171.966C408.131 181.119 405.012 190.12 402.551 199.234C400.499 206.833 399.108 214.584 396.978 222.166C394.289 219.74 391.578 217.386 388.752 215.121C386.445 213.311 383.89 211.786 381.431 210.189Z"/><path fill="#FEFEFE" d="M431.421 295.597C431.266 295.6 431.112 295.608 430.958 295.605C429.231 295.574 428.481 295.197 427.369 293.911C424.4 290.478 410.928 270.115 411.142 266.325C412.791 266.582 413.488 266.651 414.748 267.856C419.332 272.238 431.274 289.692 431.421 295.597Z"/><path fill="#FEFEFE" d="M381.878 296.888C380.804 297.035 379.73 297.173 378.654 297.302C378.301 297.15 377.885 297.099 377.596 296.845C375.986 295.432 373.012 289.491 371.674 287.377C368.386 282.183 362.59 275.077 360.052 270.197C359.242 268.64 359.656 268.28 360.192 266.741C361.049 266.844 362.063 266.795 362.778 267.306C366.497 269.966 381.548 291.892 382.474 296.073L381.878 296.888Z"/><path fill="#1E1E1E" d="M183.744 278.142C182.619 278.047 182.626 278.17 181.656 277.434L181.662 276.371C183.518 272.972 186.971 270.641 189.998 268.336C190.99 268.31 191.082 268.368 191.901 268.83L191.965 269.984C190.258 273.522 186.804 275.836 183.744 278.142Z"/><path fill="#1E1E1E" d="M102.789 280.174C102.35 280.225 101.896 280.098 101.46 280.028L101.436 279.041C102.529 277.448 103.99 276.414 105.5 275.242C106.614 275.815 106.356 275.635 106.73 276.654C105.923 278.239 104.216 279.175 102.789 280.174Z"/><path fill="#FEFEFE" d="M374.652 361.384C378.234 361.871 381.819 362.325 385.409 362.744C410.93 365.753 443.879 365.312 467.077 353.546C472.979 350.554 478.148 346.43 483.318 342.35L483.723 342.721C485.092 347.687 484.563 362.066 484.728 368.009C485.554 392.368 486.168 416.733 486.569 441.102C488.863 530.241 490.257 619.4 490.75 708.567L491.039 785.832C491.092 801.508 491.556 817.175 490.875 832.844C484.065 835.745 476.259 837.435 469.158 839.538C459.202 842.487 449.398 845.765 439.516 848.939C434.994 838.333 439.085 839.402 438.467 829.981C444.128 827.481 451.885 823.409 455.805 818.447C461.151 811.679 458.963 802.77 457.997 794.928C459.277 794.089 460.531 793.232 461.651 792.183C465.827 788.272 466.418 783.215 466.511 777.806C466.604 753.299 458.389 724.523 452.867 700.423C445.78 669.504 438.865 638.547 432.123 607.551C424.766 572.195 422.829 536.256 417.81 500.579C416.549 491.615 415.211 482.562 413.305 473.712C411.213 463.995 408.486 454.212 407.271 444.337C411.841 442.851 420.435 441.124 423.188 437.15C423.402 435.89 423.401 434.957 422.64 433.891C418.819 428.539 413.416 423.794 409.136 418.735C396.453 403.744 383.584 388.368 373.147 371.704C373.507 368.223 374.011 364.825 374.652 361.384ZM460.015 453.902C458.978 454.793 458.842 456.349 459.708 457.407C460.573 458.465 462.125 458.639 463.204 457.8C463.926 457.238 464.286 456.329 464.146 455.425C464.006 454.522 463.387 453.765 462.528 453.449C461.67 453.132 460.708 453.306 460.015 453.902ZM451.72 512.91C450.737 513.584 450.476 514.921 451.133 515.915C451.79 516.91 453.123 517.194 454.129 516.554C454.794 516.13 455.18 515.38 455.137 514.592C455.094 513.804 454.629 513.1 453.921 512.751C453.213 512.403 452.371 512.463 451.72 512.91Z"/><path fill="#212121" d="M96.7202 373.984C96.2489 373.956 95.7572 373.741 95.3066 373.599L95.1883 372.601C97.2538 369.579 103.04 367.148 106.278 365.35C107.558 365.584 107.641 365.464 108.399 366.496C108.295 366.994 108.284 367.226 107.975 367.702C105.913 370.873 100.083 372.735 96.7202 373.984Z"/><path fill="#FEFEFE" d="M809.883 392.63C807.823 392.841 805.735 393.064 803.661 392.987C802.264 392.934 800.777 392.615 799.958 391.367C797.602 387.775 798.311 376.953 799.603 372.916C800.203 371.043 801.038 370.449 802.748 369.599C804.54 369.523 806.357 369.43 808.148 369.564C810.184 369.717 811.639 370.122 813.008 371.705C814.269 377.019 814.142 385.579 813.026 390.973C812.013 392.13 811.326 392.175 809.883 392.63Z"/><path fill="#FEFEFE" d="M785.604 393.194C783.893 393.447 781.997 393.529 780.263 393.473C778.605 393.42 775.947 393.258 774.836 391.821C772.32 388.565 773.203 379.956 773.549 376.006C773.798 373.163 774.084 372.007 776.323 370.111C778.698 369.845 781.424 369.62 783.794 369.986C785.104 370.189 786.576 370.686 787.355 371.804C789.65 375.096 789.006 386.54 788.111 390.462C787.755 392.018 786.834 392.382 785.604 393.194Z"/><path fill="#FEFEFE" d="M733.743 396.476C730.509 396.526 726.616 397.044 723.829 395.14C723.004 390.621 721.821 378.494 723.766 374.441C724.692 372.51 726.179 372.182 728.065 371.616C730.29 371.611 733.573 371.303 735.635 372.118C736.786 372.573 737.024 372.692 737.454 373.839C738.967 377.876 739.526 390.732 737.416 394.459C736.627 395.851 735.167 396.098 733.743 396.476Z"/><path fill="#FEFEFE" d="M371.417 389.277C371.468 385.928 371.764 382.658 372.135 379.33C375.464 382.279 381.991 393.909 385.295 398.388C394.778 411.247 405.458 424.146 417.094 435.109C412.341 437.137 407.453 438.643 402.808 440.972C398.484 443.14 394.482 446.162 390.506 448.907C387.939 450.794 385.415 452.529 382.63 454.077C387.978 445.579 397.568 438.035 406.696 434C398.684 424.737 380.005 393.587 371.417 389.277Z"/><path fill="#FEFEFE" d="M298.435 431.309C294.142 435.89 285.751 446.572 280.031 448.711C276.636 449.98 271.941 448.098 268.793 446.705C256.765 441.383 245.334 432.649 234.427 425.355C227.026 420.405 218.291 415.411 211.778 409.335C210.779 408.403 210.281 407.47 209.8 406.21C210.01 404.462 210.538 404.13 211.659 402.819C212.367 402.966 213.063 403.186 213.683 403.569C221.606 408.457 229.009 414.778 236.697 420.111C250.209 429.485 264.282 438.32 277.506 448.054C281.938 444.898 295.711 431.236 298.834 430.18L298.435 431.309Z"/><path fill="#FEFEFE" d="M908.833 434.528C906.644 434.846 903.519 435.011 901.357 434.422C899.606 433.944 897.918 432.605 897.102 430.982C894.976 426.755 895.94 416.733 897.658 412.296C898.311 410.611 899.24 410.289 900.846 409.642C903.023 409.462 905.566 409.157 907.714 409.604C909.685 410.014 911.604 411.503 912.554 413.267C914.77 417.38 914.075 426.088 912.667 430.495C911.983 432.637 910.751 433.506 908.833 434.528Z"/><path fill="#FEFEFE" d="M524.849 434.931C522.89 434.974 520.58 435.165 518.685 434.555C517.744 434.251 516.804 433.781 516.449 432.797C515.67 430.635 515.529 414.955 516.383 413.256C517.104 411.821 519.635 411.459 521.018 411.174C523.3 411.07 526.46 410.669 528.548 411.684C529.222 412.011 529.268 412.443 529.458 413.111C530.368 416.315 530.842 430.393 529.32 433.132C528.009 434.3 526.503 434.528 524.849 434.931Z"/><path fill="#FEFEFE" d="M501.463 435.505C498.666 435.85 495.37 436.529 492.75 435.283C491.188 431.197 491.689 418.39 492.191 413.712C493.224 412.315 494.53 412.097 496.112 411.63C498.65 411.498 501.786 411.025 503.946 412.609C505.531 415.906 506.203 429.901 504.508 433.195C503.734 434.7 502.896 434.854 501.463 435.505Z"/><path fill="#FEFEFE" d="M758.584 437.411C755.684 437.408 752.016 437.918 749.812 435.781C748.851 432.426 748.044 418.139 749.729 415.239C750.655 413.644 753.568 413.438 755.164 413.179C757.19 413.168 759.886 412.932 761.761 413.761C762.406 414.045 763.199 414.514 763.447 415.192C764.645 418.485 764.55 432.564 763.259 435.809C761.86 437.041 760.376 437.124 758.584 437.411Z"/><path fill="#FEFEFE" d="M781.84 438.033C781.418 438.013 780.997 437.988 780.575 437.96C778.665 437.825 775.554 437.616 774.447 435.721C772.723 432.772 773.254 419.334 774.07 415.843C776.053 413.523 778.439 413.513 781.249 413.203C782.371 413.282 783.486 413.379 784.596 413.566C786.434 413.877 787.317 414.55 788.387 416.032C789.102 419.558 789.744 433.399 787.739 436.212C786.704 437.664 783.505 437.789 781.84 438.033Z"/><path fill="#FEFEFE" d="M856.493 436.525C854.158 436.59 851.77 436.728 849.437 436.598C848.175 436.527 845.519 436.336 844.731 435.196C843.011 432.708 843.451 419.386 844.159 416.118C844.533 414.39 845.178 414.043 846.567 413.161C849.197 412.989 852.068 412.623 854.684 412.965C856.342 413.182 857.409 413.658 858.437 415.03C859.674 419.563 859.778 429.54 858.691 433.981C858.34 435.419 857.679 435.736 856.493 436.525Z"/><path fill="#FEFEFE" d="M323.145 426.101L315.435 414.313C319.506 415.32 323.683 417.47 327.708 418.837C340.417 423.155 354.584 425.56 367.788 422.203L369.514 429.537C348.506 432.975 342.752 429.898 323.145 426.101Z"/><path fill="#FEFEFE" d="M219.395 437.061C212.958 436.961 204.712 432.24 199.642 428.499C205.743 429.848 214.851 432.671 219.395 437.061Z"/><path fill="#FEFEFE" d="M380.217 805.042C375.637 771.135 370.239 737.523 367.053 703.421C364.241 673.318 363.463 643.077 360.336 613.01C357.087 581.767 351.597 552.804 346.771 522.027C343.14 498.871 340.769 474.834 333.847 452.344C331.636 445.158 328.597 438.266 325.694 431.339L329.804 432.423C341.18 435.366 359.126 439.167 370.008 432.761C373.516 447.438 373.263 463.302 374.201 478.346C376.016 507.451 377.277 536.441 380.187 565.471C384.866 612.138 392.598 658.29 399.658 704.639C404.296 735.081 408.008 765.651 412.82 796.064L408.312 797.676C399.648 801.917 389.693 803.689 380.217 805.042Z"/><path fill="#FEFEFE" d="M288.439 476.911L288.039 476.542C289.283 473.226 301.53 461.128 304.623 457.482C307.952 453.56 310.97 449.392 314.264 445.441L314.664 445.865C314.648 446.037 314.649 446.21 314.615 446.379C313.186 453.382 293.927 472.476 288.439 476.911Z"/><path fill="#FEFEFE" d="M266.299 472.752C266.09 472.669 265.877 472.597 265.673 472.504C261.982 470.816 253.21 456.446 251.478 452.372C252.071 452.608 252.644 452.882 253.162 453.26C258.338 457.037 265.036 466.491 266.299 472.752Z"/><path fill="#1E1E1E" d="M463.204 457.8C462.125 458.639 460.573 458.465 459.708 457.407C458.842 456.349 458.978 454.793 460.015 453.902C460.708 453.306 461.67 453.132 462.528 453.449C463.387 453.765 464.006 454.522 464.146 455.425C464.286 456.329 463.926 457.238 463.204 457.8Z"/><path fill="#FEFEFE" d="M527.819 477.504C525.45 477.559 522.4 477.9 520.127 477.234C519.337 477.002 518.368 476.651 518.041 475.86C516.438 471.987 516.01 460.546 517.794 456.65C518.476 455.159 519.874 454.756 521.291 454.171C523.487 454.07 525.828 453.855 527.996 454.279C528.862 454.448 530.193 454.875 530.602 455.702C531.931 458.389 532.266 472.343 530.887 475.191C530.139 476.737 529.28 476.854 527.819 477.504Z"/><path fill="#FEFEFE" d="M553.871 477.552C551.219 477.624 548.055 477.944 545.48 477.293C544.393 477.018 543.447 476.691 542.924 475.623C541.681 473.085 541.941 459.869 543.031 456.944C543.645 455.299 544.984 454.801 546.455 454.077C549.48 453.796 553.473 453.319 555.976 455.322C558.278 459.564 558.03 469.928 556.813 474.6C556.332 476.446 555.369 476.756 553.871 477.552Z"/><path fill="#FEFEFE" d="M909.471 478C906.632 478.064 903.393 478.327 900.611 477.69C899.625 477.464 898.465 477.166 897.996 476.196C896.577 473.262 896.099 460.914 897.183 457.627C897.727 455.98 899.143 455.375 900.557 454.569C900.996 454.536 901.437 454.509 901.877 454.486C905.146 454.32 909.328 453.987 911.898 456.305C914.022 460.605 913.796 470.251 912.393 474.827C911.839 476.636 911.037 477.176 909.471 478Z"/><path fill="#FEFEFE" d="M882.877 478.326C880.015 478.781 873.902 479.868 871.694 477.533C869.345 475.049 870.283 463.682 870.593 460.387C870.816 458.023 871.296 457.097 873.118 455.579C876.659 455.317 881.601 454.511 884.636 456.614C886.963 460.356 886.827 471.529 885.563 475.753C885.106 477.277 884.148 477.597 882.877 478.326Z"/><path fill="#FEFEFE" d="M805.045 479.565C802.604 479.297 800.894 479.139 799.19 477.215C798.131 472.278 798.029 463.394 799.196 458.533C801.591 456.13 804.063 456.348 807.23 456.209C809.427 456.285 811.45 456.277 813.303 457.579C814.802 461.508 814.347 472.655 813.654 477.002C811.337 479.344 808.132 479.256 805.045 479.565Z"/><path fill="#FEFEFE" d="M761.5 479.987C758.842 480.016 753.385 480.759 751.143 479.478C750.299 478.995 750.157 478.712 749.802 477.814C748.182 473.715 747.708 462.54 749.709 458.617C750.373 457.316 751.806 456.994 753.089 456.552C755.178 456.486 757.346 456.34 759.428 456.524C760.628 456.629 762.81 457.066 763.534 458.124C765.314 460.726 765.003 474.708 764.099 477.663C763.581 479.355 762.958 479.342 761.5 479.987Z"/><path fill="#FEFEFE" d="M321.564 470.332C322.892 465.946 325.12 462.565 327.658 458.812C327.801 458.975 327.95 459.133 328.086 459.301C329.876 461.501 340.365 517.582 339.867 522.247C338.932 521.433 338.787 520.45 338.371 519.304C332.494 503.199 326.118 486.842 321.564 470.332Z"/><path fill="#1E1E1E" d="M130.664 471.855L129.475 471.826L129.094 470.837C130.662 467.357 136.439 464.121 139.596 461.853L141.046 462.476L141.325 463.461C139.7 467.481 134.348 470.004 130.664 471.855Z"/><path fill="#FEFEFE" d="M404.411 591.377C404.248 591.599 403.949 591.678 403.708 591.811C401.991 589 401.175 557.927 400.89 551.722C400.147 535.555 399.89 519.354 398.659 503.215C398.231 497.597 398.165 491.172 396.394 485.818C395.276 482.437 392.655 479.386 390.726 476.415C388.084 472.347 385.955 468.106 384.51 463.47L384.301 462.781C388.851 465.28 396.457 477.359 399.417 481.981C398.871 486.573 400.133 492.254 400.571 496.94C401.211 503.777 401.713 510.626 402.079 517.483C403.521 542.186 403.98 566.659 404.411 591.377Z"/><path fill="#FEFEFE" d="M458.406 786.875C457.956 787.603 457.63 787.959 456.912 788.426C456.213 787.7 456.049 787.108 455.853 786.145C455.105 782.466 454.997 778.607 454.545 774.878C453.849 769.131 452.812 763.384 451.67 757.709C445.297 726.049 437.649 694.621 431.414 662.943C422.189 614.105 414.811 564.937 409.296 515.542C407.473 498.118 404.496 480.36 404.136 462.847C404.872 463.407 405.291 463.964 405.574 464.864C407.123 469.796 407.821 475.284 408.816 480.382C412.268 498.07 414.301 515.54 416.261 533.428C418.504 555.741 421.562 577.965 425.428 600.055C427.971 614.448 431.26 628.704 434.316 642.994L448.83 709.651C452.33 725.293 456.59 740.902 459.061 756.746C460.452 765.672 462.745 778.527 458.406 786.875Z"/><path fill="#FEFEFE" d="M352.356 622.339C349.163 615.545 346.843 603.953 343.935 596.034C335.532 572.63 325.066 550.018 312.662 528.466C307.342 519.379 301.486 510.398 295.587 501.672C292.139 496.57 288.123 491.428 285.205 486.013C284.602 484.894 284.421 484.17 284.498 482.911C284.658 482.908 284.819 482.903 284.98 482.903C288.258 482.905 290.14 485.195 292.268 487.421C312.036 508.101 341.206 568.179 348.93 595.736C351.287 604.144 352.623 613.578 352.356 622.339Z"/><path fill="#FEFEFE" d="M388.589 577.195C385.662 567.208 378.716 491.176 380.477 482.846C380.9 483.465 381.278 484.038 381.579 484.728C383.33 488.753 383.947 493.721 384.466 498.044C385.644 507.843 390.215 572.568 388.589 577.195Z"/><path fill="#212121" d="M51.2033 496.169C50.787 495.602 50.1979 495.229 50.4115 494.485C51.3061 491.371 56.8458 488.548 59.494 486.915L60.084 487.451C60.2146 488.13 60.4278 488.57 60.1597 489.248C58.9208 492.381 54.1007 494.791 51.2033 496.169Z"/><path fill="#FEFEFE" d="M690.356 518.753C686.895 519.048 683.166 519.583 680.048 517.774C677.387 513.622 678.092 501.963 678.971 497.262C679.99 495.939 680.822 495.791 682.345 495.165C684.663 494.985 687.36 494.847 689.656 495.224C691.086 495.459 692.515 496.223 693.23 497.53C694.495 499.841 694.352 514.152 693.397 516.481C692.827 517.873 691.61 518.138 690.356 518.753Z"/><path fill="#FEFEFE" d="M664.836 518.904C662.67 519.06 660.499 519.199 658.326 519.191C656.465 519.184 654.894 519.095 653.509 517.705C651.537 513.278 651.848 503.84 652.714 499.032C653.032 497.262 653.961 496.973 655.362 496.106C657.832 495.894 660.758 495.596 663.216 495.957C664.597 496.16 666.068 496.946 666.744 498.212C667.828 500.241 667.997 515.471 667.03 517.584C666.701 518.302 665.535 518.587 664.836 518.904Z"/><path fill="#FEFEFE" d="M909.603 519.895C907.787 519.98 905.935 520.11 904.119 520.015C901.985 519.904 900.208 519.449 898.733 517.832C896.893 513.102 896.43 502.803 898.267 498.073C899.404 496.872 900.437 496.606 901.965 496.162C903.116 496.056 904.271 496.006 905.427 496.011C907.52 496.017 910.435 495.957 911.889 497.795C914.532 501.138 913.719 512.169 912.733 516.182C912.252 518.14 911.273 518.905 909.603 519.895Z"/><path fill="#FEFEFE" d="M590.311 519.765C588.63 519.892 586.944 520.028 585.26 520.101C584.281 520.142 582.886 520.184 582.185 519.407C579.218 516.122 579.914 504.028 580.562 499.745C580.797 498.192 581.447 497.913 582.698 497.076C585.645 496.934 589.083 496.407 591.687 498.033C593.543 501.472 593.494 514.058 592.346 517.849C591.977 519.067 591.358 519.166 590.311 519.765Z"/><path fill="#FEFEFE" d="M640.098 518.717C638.945 519.284 637.836 519.678 636.566 519.917C634.907 520.23 634.13 519.887 632.751 518.979C629.996 514.308 631.111 503.092 631.064 497.499C633.415 497.38 636.344 496.981 638.632 497.518C639.343 497.684 640.348 497.98 640.667 498.671C642.134 501.844 641.378 515.395 640.098 518.717Z"/><path fill="#FEFEFE" d="M785.855 520.62C783.386 520.75 779.682 521.067 777.32 520.354C775.942 519.938 775.281 519.41 774.611 518.136C772.737 514.568 773.099 504.384 774.35 500.586C774.895 498.933 775.942 498.401 777.362 497.594C780.766 497.279 784.666 496.758 787.547 498.92C789.996 503.087 789.603 512.429 788.576 517.1C788.158 519.001 787.444 519.574 785.855 520.62Z"/><path fill="#FEFEFE" d="M525.809 521.981C522.87 521.825 520.347 521.926 518.036 519.852C516.972 517.128 516.176 503.228 517.449 500.779C518.345 499.055 521.183 498.527 522.851 498.064C524.794 498.004 526.944 497.918 528.806 498.578C529.825 498.94 530.774 499.446 531.117 500.532C532.005 503.347 531.923 517.895 530.78 520.402C529.35 521.534 527.554 521.668 525.809 521.981Z"/><path fill="#FEFEFE" d="M494.131 522.892C494.006 518.759 492.827 502.487 494.779 499.618C497.78 499.423 501.387 498.745 504.017 500.495C505.111 502.217 505.332 503.999 505.473 505.996C505.772 510.214 506.656 519.286 503.892 522.476C500.64 523.464 497.457 523.167 494.131 522.892Z"/><path fill="#1E1E1E" d="M454.129 516.554C453.123 517.194 451.79 516.91 451.133 515.915C450.476 514.921 450.737 513.584 451.72 512.91C452.371 512.463 453.213 512.403 453.921 512.751C454.629 513.1 455.094 513.804 455.137 514.592C455.18 515.38 454.794 516.13 454.129 516.554Z"/><path fill="#FEFEFE" d="M252.884 607.197C252.486 606.737 252.395 606.38 252.201 605.812C253.44 595.722 259.898 579.78 263.075 569.474C266.371 558.782 268.827 547.78 272.313 537.162C272.892 535.4 273.542 533.797 274.592 532.253L275.332 533.058C277.014 545.727 260.399 597.208 252.884 607.197Z"/><path fill="#FEFEFE" d="M690.487 560.869C688.26 561.165 685.856 561.458 683.61 561.299C681.705 561.164 680.198 560.773 678.907 559.299C677.395 554.747 677.863 546.512 678.557 541.743C678.853 539.711 679.605 539.259 681.175 538.165C684.646 537.834 688.974 537.056 692.07 538.938C694.641 542.587 693.938 553.099 693.092 557.391C692.715 559.303 692.022 559.88 690.487 560.869Z"/><path fill="#FEFEFE" d="M638.881 562.204C637.163 562.336 635.586 562.589 633.935 561.966C632.335 559.86 631.62 543.413 632.241 540.547C632.546 539.136 633.185 539.102 634.379 538.463C636.637 538.613 638.345 538.629 640.046 540.295C641.688 544.646 641.645 555.095 640.766 559.76C640.499 561.177 640.061 561.47 638.881 562.204Z"/><path fill="#FEFEFE" d="M661.06 562.004C659.221 562.031 657.238 562.181 655.413 561.989C654.154 561.858 653.54 561.667 652.714 560.676C651.899 557.43 651.094 542.951 652.839 540.314C653.843 538.797 657.813 538.838 659.466 538.701C661.152 538.714 663.214 538.545 664.718 539.449C666.007 540.225 666.622 541.469 667.006 542.859C667.444 544.447 667.476 558.927 666.677 560.055C665.429 561.819 663.009 561.781 661.06 562.004Z"/><path fill="#FEFEFE" d="M879.174 562.765C876.437 562.696 873.596 562.857 871.179 561.422C870.585 560.016 870.299 558.578 870.087 557.069C869.499 552.891 868.533 543.368 871.496 540.031C872.63 538.754 874.672 538.839 876.256 538.711C878.167 538.741 880.99 538.526 882.705 539.509C883.936 540.216 884.372 541.187 884.667 542.529C885.583 546.685 885.901 557.727 883.121 561.123C882.093 562.38 880.667 562.531 879.174 562.765Z"/><path fill="#FEFEFE" d="M855.912 562.503C853.396 562.58 849.383 563.112 847.095 562.111C845.866 561.573 845.186 560.772 844.705 559.543C843.179 555.646 843.019 545.3 844.952 541.511C845.689 540.068 847.002 539.658 848.409 539.104C849.576 539.023 850.745 538.982 851.915 538.982C854.188 538.986 856.725 538.997 858.305 540.924C860.362 543.433 859.898 557.07 859.28 560.308C858.138 561.778 857.607 561.854 855.912 562.503Z"/><path fill="#FEFEFE" d="M784.911 563.537C781.626 563.99 778.096 564.26 775.206 562.41C772.935 558.385 773.395 547.032 774.6 542.605C775.639 541.258 776.97 540.761 778.467 540.066C780.501 539.983 782.731 539.76 784.741 540.122C785.795 540.311 787.405 540.861 787.939 541.841C789.451 544.617 789.239 558.85 788.027 561.475C787.438 562.751 786.107 563.01 784.911 563.537Z"/><path fill="#FEFEFE" d="M589.618 563.426C586.75 563.546 584.542 563.879 582.16 561.965C580.509 556.906 580.564 547.646 581.26 542.312C582.349 541.051 583.565 540.952 585.112 540.637C587.895 540.491 590.903 540.155 593.518 541.249C595.16 544.167 594.316 558.346 593.896 562.176C592.602 563.188 591.222 563.157 589.618 563.426Z"/><path fill="#FEFEFE" d="M735.382 564.183C733.012 564.442 729.726 564.692 727.445 563.961C726.274 563.585 725.31 563.133 724.82 561.944C723.694 559.209 723.778 546.711 725.046 543.757C725.717 542.192 726.929 541.758 728.382 541.103C730.76 540.972 735.944 540.34 737.604 542.397C740.059 545.437 738.957 558.082 738.437 561.96C737.679 563.302 736.725 563.605 735.382 564.183Z"/><path fill="#FEFEFE" d="M527.085 565.389C524.384 565.402 520.724 565.815 518.441 564.233C516.441 559.699 515.737 548.841 517.858 544.186C518.538 542.694 520.253 542.19 521.662 541.585C522.307 541.543 522.952 541.514 523.598 541.497C525.921 541.428 529.237 541.39 530.782 543.571C532.303 545.719 531.91 560.826 531.001 563.634C529.834 564.766 528.602 564.992 527.085 565.389Z"/><path fill="#FEFEFE" d="M231.765 641.404C237.135 622.673 241.626 603.748 247.253 585.062C249.431 577.831 251.421 570.195 254.525 563.298C254.586 563.423 254.664 563.541 254.707 563.674C255.231 565.289 254.327 568.201 253.966 569.843C251.013 583.292 246.981 596.553 243.689 609.932C240.948 621.076 237.774 638.552 233.652 648.48C228.184 646.332 222.697 643.896 217.611 640.952C216.53 640.162 215.741 639.562 214.935 638.471C215.076 637.296 214.885 637.354 215.796 636.456C220.613 635.83 226.536 640.132 231.273 641.292C231.436 641.332 231.601 641.367 231.765 641.404Z"/><path fill="#1E1E1E" d="M80.8277 574.098C80.0731 573.905 80.4681 574.078 79.7007 573.463C80.5819 570.555 85.2134 568.131 87.6545 566.413C88.103 566.506 87.8102 566.406 88.3881 566.981C87.1232 569.781 83.2503 572.269 80.8277 574.098Z"/><path fill="#FEFEFE" d="M908.861 603.725C908.595 603.755 908.328 603.789 908.061 603.816C905.134 604.111 901.192 604.315 898.809 602.382C896.463 597.635 896.321 587.749 897.443 582.575C898.456 581.163 899.953 580.724 901.495 580.071C903.557 579.932 905.732 579.745 907.798 579.882C909.142 579.971 910.551 580.363 911.392 581.477C913.909 584.813 913.304 596.656 912.157 600.637C911.608 602.545 910.495 602.914 908.861 603.725Z"/><path fill="#FEFEFE" d="M642.395 605.554C639.963 605.614 637.055 606.052 635.065 604.487C634.198 597.256 634.196 589.224 634.649 581.952C635.633 581.17 637.505 581.322 638.769 581.205C639.455 581.211 640.141 581.234 640.826 581.275C642.554 581.387 643.615 581.797 644.705 583.191C647.568 586.852 646.372 598.87 645.196 603.201C644.774 604.755 643.71 604.961 642.395 605.554Z"/><path fill="#FEFEFE" d="M688.442 604.447C686.291 604.573 684.046 604.795 681.896 604.62C680.644 604.518 679.118 604.152 678.329 603.116C675.807 599.801 676.842 588.847 677.469 584.853C677.805 582.716 678.535 582.246 680.186 581.057C682.359 580.981 685.093 580.618 687.208 581.08C688.507 581.363 689.2 581.717 689.843 582.877C691.684 586.2 691.88 599.08 690.556 602.611C690.091 603.849 689.569 603.898 688.442 604.447Z"/><path fill="#FEFEFE" d="M882.407 604.454C880.525 604.845 878.689 605.057 876.771 605.11C874.847 605.163 873.088 605.068 871.72 603.488C869.69 601.144 869.759 587.32 870.445 584.239C870.798 582.651 872.111 581.955 873.363 581.072C875.737 580.964 878.168 580.784 880.54 580.936C881.708 581.011 883.41 581.216 884.14 582.234C886.367 585.34 885.82 597.94 884.911 601.699C884.534 603.259 883.642 603.625 882.407 604.454Z"/><path fill="#FEFEFE" d="M761.149 605.364C757.838 605.645 753.843 605.993 751.055 603.922C749.254 598.75 749.701 589.468 750.482 584.044C751.326 582.646 752.569 582.231 753.986 581.576C755.678 581.483 757.477 581.313 759.16 581.533C761.161 581.795 762.641 582.832 763.774 584.492C766.444 588.405 765.386 597.222 764.329 601.68C763.826 603.803 762.875 604.266 761.149 605.364Z"/><path fill="#FEFEFE" d="M735.883 605.624C733.603 605.918 730.896 606.08 728.614 605.668C727.132 605.4 725.972 604.57 725.224 603.272C723.846 600.882 724.071 587.637 724.782 584.614C725.761 583.255 726.773 582.817 728.238 582.135C730.781 582.047 733.82 581.773 736.288 582.403C737.334 582.67 738.317 583.175 738.845 584.136C740.623 587.369 740.364 599.502 738.943 602.966C738.301 604.531 737.32 604.956 735.883 605.624Z"/><path fill="#FEFEFE" d="M555.977 606.804C553.975 606.935 551.953 607.097 549.946 607.097C548.686 607.097 545.794 607.152 544.936 606.024C542.767 603.17 543.25 589.727 544.174 586.296C544.638 584.574 545.415 584.441 546.832 583.612C548.543 583.5 550.269 583.362 551.984 583.341C553.352 583.325 556.829 583.323 557.768 584.53C559.261 586.45 559.082 602.203 558.228 604.699C557.731 606.152 557.285 606.178 555.977 606.804Z"/><path fill="#FEFEFE" d="M503.946 606.776C502.645 607.289 501.269 607.613 499.898 607.876C498.371 608.169 497.139 608.253 495.84 607.356C494.581 600.063 495.248 591.34 495.56 583.905C497.591 583.829 500.342 583.493 502.24 584.29C503.108 584.655 503.776 585.1 504.159 585.978C505.73 589.584 505.23 603.103 503.946 606.776Z"/><path fill="#FEFEFE" d="M531.082 607.193C529.263 607.557 527.352 607.972 525.5 608.135C523.968 608.27 521.559 608.156 520.454 606.902C518.619 604.821 518.977 599.326 518.992 596.697C519.015 592.52 518.484 587.249 521.637 584.128C524.199 583.977 526.999 583.873 529.548 584.152C530.775 584.287 533.15 584.533 533.884 585.695C535.877 588.849 534.969 599.784 534.198 603.514C533.763 605.616 532.76 606.116 531.082 607.193Z"/><path fill="#FEFEFE" d="M880.995 646.942C879.157 647.088 876.703 647.507 874.934 646.894C873.132 646.27 871.705 644.887 870.935 643.136C869.375 639.591 869.519 630.16 871.153 626.609C871.844 625.108 872.99 624.698 874.41 624.076C875.841 624.017 877.273 623.999 878.705 624.02C880.305 624.059 883.09 624.51 884.052 625.992C885.904 628.844 885.181 641.617 884.447 644.964C883.574 646.177 882.339 646.459 880.995 646.942Z"/><path fill="#FEFEFE" d="M761.222 647.971C759.405 648.04 757.435 648.224 755.629 647.99C754.074 647.789 752.747 647.075 751.861 645.754C750.223 643.311 750.667 630.749 751.166 627.834C752.106 626.381 753.588 625.844 755.084 625.1C756.876 624.936 758.822 624.713 760.594 625.135C762.183 625.514 763.322 626.677 764.093 628.061C766.182 631.811 765.603 641.656 764.152 645.62C763.6 647.126 762.557 647.355 761.222 647.971Z"/><path fill="#FEFEFE" d="M813.071 647.401C811.048 647.793 808.958 648.102 806.892 647.911C805.208 647.756 803.637 646.816 802.629 645.468C799.987 641.937 800.72 632.309 801.766 628.082C802.146 626.544 803.074 625.938 804.295 625.089C807.81 624.832 811.43 624.43 814.474 626.497C817.028 630.256 816.493 639.771 815.577 644.114C815.199 645.908 814.557 646.387 813.071 647.401Z"/><path fill="#FEFEFE" d="M663.373 648.972C663.056 649.043 662.74 649.119 662.422 649.185C659.247 649.84 655.719 649.838 652.983 647.976C651.016 645.188 651.776 638.316 651.858 635.032C651.939 631.82 651.547 628.473 654.04 626.116C657.168 625.976 661.504 625.17 664.184 627.079C667.131 631.384 666.732 640.683 665.816 645.73C665.514 647.397 664.673 648.025 663.373 648.972Z"/><path fill="#FEFEFE" d="M589.871 648.97C588.854 648.997 587.836 648.997 586.818 648.973C584.859 648.928 583.287 648.811 581.841 647.3C580.187 642.894 580.721 635.88 581.275 631.218C581.517 629.184 582.25 628.265 583.812 627.02C586.97 626.795 589.991 626.599 592.693 628.452C594.374 631.036 593.666 643.676 593.374 647.185C592.273 648.379 591.397 648.476 589.871 648.97Z"/><path fill="#FEFEFE" d="M303.45 760.383C303.222 760.325 302.991 760.266 302.78 760.163C300.754 759.175 298.278 755.811 296.714 754.074C280.372 735.927 246.728 683.457 240.444 660.963C240.579 661.054 240.722 661.134 240.849 661.236C244.008 663.779 270.25 707.189 275.59 715.507C284.228 728.963 293.525 742.168 301.755 755.864C302.654 757.36 303.191 758.654 303.45 760.383Z"/><path fill="#1E1E1E" d="M72.8588 691.777C72.1638 691.395 71.5795 690.948 70.9465 690.474L70.7726 689.198C71.788 687.234 73.8202 686.132 75.585 684.885C76.5368 685.096 76.49 685.158 77.1593 685.763C77.0536 688.341 74.6162 690.137 72.8588 691.777Z"/><path fill="#FEFEFE" d="M451.149 814.157C450.561 815.018 450.418 815.191 449.467 815.731L448.663 815.111C445.999 807.383 444.71 798.785 443.373 790.729C440.166 771.417 438.262 751.926 435.997 732.492C434.883 722.934 432.671 712.941 432.524 703.35C433.089 703.99 433.027 703.79 433.286 704.497C436.952 714.526 438.348 726.549 440.22 737.073C443.511 754.818 446.555 772.609 449.351 790.439C450.291 796.339 452.264 802.356 452.77 808.277C452.963 810.538 452.121 812.165 451.149 814.157Z"/><path fill="#FEFEFE" d="M262.302 816.898C230.613 794.055 178.055 740.148 161.282 705.359C164.436 707.739 167.711 714.024 170.19 717.273C173.776 721.976 177.799 726.629 182.042 730.757C209.814 757.67 238.638 783.474 268.448 808.109C267.348 810.037 266.065 811.88 264.853 813.74L262.302 816.898Z"/><path fill="#FEFEFE" d="M372.872 839.996C372.369 839.263 371.924 838.566 371.609 837.729C367.087 825.736 352.418 714.092 355.861 706.753C356.358 707.273 356.424 707.224 356.652 707.868C358.078 711.883 359.812 730.459 360.559 735.647C362.334 747.975 363.826 760.356 365.662 772.671C368.415 791.128 371.438 809.604 373.1 828.202C373.425 831.842 374.149 836.515 372.872 839.996Z"/><path fill="#2B2B2B" d="M90.2313 751.925C89.1805 751.856 89.0488 751.792 88.1906 751.176L88.3205 749.844C90.4803 746.509 94.398 744.374 97.7255 742.375C98.3367 742.338 98.9313 742.501 99.5322 742.608L100.051 743.551C99.0391 746.718 93.0203 750.002 90.2313 751.925Z"/><path fill="#FEFEFE" d="M283.25 833.577L282.12 833.628C282.613 831.747 289.986 825.668 291.738 823.736C294.523 820.662 297.098 817.406 299.448 813.988C309.902 798.836 320.12 778.784 318.631 759.866C318.208 754.497 316.191 749.704 315.405 744.5C315.219 743.27 315.373 743.199 316.069 742.225C317.845 742.705 318.626 743.286 319.538 744.886C324.589 753.762 322.662 767.548 320.284 776.903C315.314 796.445 300.996 822.963 283.25 833.577Z"/><path fill="#212121" d="M155.706 789.949L154.675 788.672L154.878 787.473C156.404 785.386 158.72 784.214 160.884 782.871C161.707 783.568 161.733 783.679 162.025 784.725C160.81 787.277 158.042 788.56 155.706 789.949Z"/><path fill="#FEFEFE" d="M396.979 808.384C401.768 806.833 406.663 805.502 411.492 804.074C411.65 804.135 411.836 804.15 411.968 804.256C413.199 805.252 413.188 805.751 413.128 807.179C410.666 810.132 402.495 811.8 398.741 813.001L398.31 813.017C397.177 812.182 397.2 809.811 396.979 808.384Z"/><path fill="#FEFEFE" d="M405.462 817.961L414.089 815.041C415.854 816.407 417.235 832.037 419.604 836.333C416.528 843.383 413.207 850.238 409.728 857.098L408.6 858.148L407.781 858.09L405.462 817.961Z"/><path fill="#1E1E1E" d="M96.837 844.92C96.0318 844.011 95.9713 843.896 95.7986 842.696C97.0217 839.962 99.4638 838.834 101.959 837.417L102.672 838.002L102.722 838.839C101.17 841.201 98.9063 843.018 96.837 844.92Z"/><path fill="#1E1E1E" d="M182.313 846.689L181.35 846.275L181.198 845.332C182.061 843.776 183.543 842.839 184.923 841.77L186.028 842.023L186.336 842.888C185.418 844.525 183.777 845.566 182.313 846.689Z"/><path fill="#1E1E1E" d="M209.693 882.328C209.053 882.641 208.309 882.864 207.638 883.111L206.912 882.692C206.916 882.55 206.901 882.407 206.925 882.267C207.284 880.157 209.593 878.621 211.179 877.458C212.499 877.314 213.233 877.309 214.48 877.782L214.687 878.604C213.366 880.365 211.561 881.244 209.693 882.328Z"/><path fill="#212121" d="M100.74 915.875L98.962 915.91L98.3639 915.193C98.3944 915.029 98.403 914.859 98.4553 914.7C99.2291 912.348 102.379 910.642 104.376 909.372C105.486 909.423 105.94 909.527 106.841 910.185L106.813 911.075C105.26 913.09 102.82 914.443 100.74 915.875Z"/></svg>