<?xml version="1.0" encoding="utf-8" ?><svg xmlns="http://www.w3.org/2000/svg" xmlns:xlink="http://www.w3.org/1999/xlink" width="1024" height="1024" viewBox="0 0 1024 1024"><path fill="#FEFEFE" d="M0 0L1024 0L1024 1024L0 1024L0 0ZM258.587 125.233C254.908 136.724 255.921 174.451 255.893 188.184L256.054 268.739L257.196 473.945C257.243 482.748 256.983 491.584 257.141 500.375C257.309 509.793 258.808 537.736 256.969 545.102C248.561 546.557 234.29 545.421 225.465 544.973C221.045 532.128 212.795 512.806 199.682 506.635C196.973 505.361 193.407 504.447 190.511 505.645C187.235 506.999 185.114 510.844 184.04 514.041C182.669 518.122 183.784 523.653 184.763 527.762C187.168 537.854 191.544 547.507 195.044 557.25C200.14 571.436 205.003 585.907 209.662 600.241C215.406 617.914 223.149 636.724 227.393 654.592C237.189 695.832 234.745 738.637 236.052 780.701L237.478 829.706C237.696 837.651 237.286 846.162 238.236 854.015C238.449 855.779 238.813 857.629 239.668 859.207C240.568 860.87 241.931 861.962 243.79 862.4C245.111 862.712 246.872 862.825 248.115 862.185C249.969 861.232 250.438 858.876 250.75 857.018C251.546 852.263 250.995 847.215 250.927 842.413C250.89 836.467 250.91 830.52 250.989 824.575C251.153 809.901 251.74 795.289 251.563 780.604C251.442 770.627 250.63 760.668 250.523 750.692C250.408 739.956 250.75 729.194 250.512 718.462C263.45 719.357 276.481 719.026 289.446 719.025C300.84 719.024 312.242 719.343 323.633 719.103C334.207 718.881 344.89 718.21 355.463 718.451C355.712 729.185 355.94 787.467 353.462 793.952C352.25 797.127 350.454 800.2 348.999 803.284L339.781 822.952C338.306 826.062 336.121 829.529 335.521 832.934C335.169 834.934 335.295 836.256 336.862 837.68C342.406 842.721 352.4 846.105 359.253 849.2C359.397 852.741 358.544 858.351 361.011 861.122C361.365 861.519 361.753 861.705 362.193 861.959C363.455 861.805 364.02 861.513 364.851 860.509C366.848 858.1 366.352 855.45 366.118 852.584C374.523 856.894 394.817 866.488 403.908 863.221C405.393 862.688 406.619 861.727 407.246 860.24C407.722 859.112 407.871 858.031 407.445 856.846C407.222 856.223 406.647 855.605 406.258 855.075C405.906 854.594 405.57 854.097 405.224 853.611L405.428 853.101C413.907 854.565 427.494 859.788 435.379 854.472C436.417 853.772 437.165 853.165 437.653 851.978C437.768 850.003 436.962 848.712 435.671 847.28C429.454 840.386 419.92 837.223 412.761 831.6C408.786 828.477 404.995 824.001 401.875 820.032L402.096 819.353C404.139 813.202 407.031 807.231 409.571 801.26C414.974 788.563 420.531 776.012 426.157 763.415C431.997 750.338 437.009 736.838 442.612 723.649C447.886 711.233 454.535 698.566 457.078 685.259C458.517 677.726 458.385 670.503 454.995 663.494C451.461 656.188 445.604 651.314 437.958 648.71C425.771 644.56 406.311 643.054 393.153 642.536C386.236 642.264 379.04 642.494 372.197 641.475C372.719 634.845 373.497 604.134 375.021 600.586L378.029 598.577L379.473 599.366C378.393 602.36 376.754 605.775 378.105 608.944C379.053 611.167 381.099 612.426 383.301 613.186C393.513 616.71 431.051 615.485 443.377 615.511L513.227 615.545C514.301 638.737 513.959 662.156 513.937 685.372C513.926 697.997 514.647 710.614 514.567 723.244C514.447 742.15 513.442 761.135 512.914 780.047C512.638 788.777 512.565 797.513 512.696 806.247C512.819 814.245 513.221 822.264 512.544 830.248L512.094 830.654C505.182 836.777 496.97 842.434 488.404 845.905C479.982 849.318 471.042 851.598 462.101 853.167C457.085 854.048 451.467 854.481 446.648 856.109C444.721 856.76 442.682 857.917 441.634 859.716C441.598 860.649 441.384 860.611 441.961 861.186C443.482 862.698 446.534 862.923 448.583 863.062C454.119 863.439 459.79 863.155 465.347 863.238L510.997 863.787C532.19 864.425 553.393 864.684 574.596 864.562C583.035 864.559 592.165 865.253 600.541 864.427C602.688 864.216 604.534 863.96 605.935 862.223C605.667 860.559 605.179 859.745 603.818 858.714C600.67 856.33 596.322 854.74 592.638 853.396C570.361 845.267 546.611 847.509 527.687 831.005C528.316 824.005 528.134 816.987 528.296 809.966C528.617 798.51 529.038 787.056 529.56 775.607C530.451 756.499 530.718 737.349 531.693 718.257C532.02 711.834 533.234 705.522 533.396 699.065C533.711 686.533 532.718 674.024 533.069 661.489C533.497 646.183 534.812 630.98 535.045 615.652L535.854 615.606C546.345 615.061 557.117 616.031 567.677 615.913C580.801 615.766 666.233 613.452 671.664 606.528C673.064 604.744 673.151 601.775 673.377 599.628C671.128 593.717 667.741 589.05 661.791 586.35C653.734 582.694 642.918 582.722 634.196 582.028C615.206 580.534 596.173 579.661 577.126 579.412C564.591 579.239 552.014 579.502 539.491 579.2C540.105 575.295 540.484 571.109 541.778 567.372C549.995 566.167 565.062 567.115 573.894 567.228C588.553 567.417 603.225 567.152 617.887 567.187C674.67 567.665 731.456 567.598 788.238 566.986C785.764 574.974 782.758 582.781 780.5 590.834C773.175 617.649 769.145 645.257 768.501 673.047C768.404 680.17 769.498 687.167 769.588 694.26C762.82 691.844 756.436 690.696 749.258 690.462C744.803 683.859 739.479 676.723 731.155 675.123C725.401 674.017 719.15 675.594 714.366 678.899C709.393 682.334 705.457 687.734 702.925 693.165C688.94 692.952 649.052 694.206 639.51 703.263C637.784 704.9 636.587 706.994 636.523 709.415C636.439 712.597 638.231 716.405 640.503 718.585C643.291 721.26 647.137 721.824 650.764 722.602C648.882 749.969 650.256 777.455 650.481 804.861C650.555 816.21 650.552 827.559 650.471 838.908C650.448 844.897 650.125 851.077 650.517 857.04C650.62 858.612 650.723 861.73 651.85 862.842C653.303 864.275 655.604 864.954 657.616 864.819C659.594 864.687 661.603 863.787 662.901 862.269C665.964 858.684 663.337 854.999 664.642 851.252C666.134 852.844 666.122 856.808 667.795 859.059C673.944 867.331 689.109 868.704 698.543 868.998C716.346 869.551 759.213 868.578 774.894 862.934C777.252 862.085 779.158 860.719 781 859.054C782.859 860.193 784.796 861.41 787.083 861.024C788.424 860.797 789.443 859.923 790.114 858.78C791.198 856.932 791.403 854.68 791.484 852.585C791.824 843.83 791.413 834.923 791.394 826.154L791.333 756.83C791.349 738.413 791.084 720.375 792.875 702.005C795.812 673.799 802.356 646.086 812.348 619.546C815.319 611.665 818.367 603.762 821.73 596.041C829.1 579.12 845.556 547.887 839.65 529.678C838.322 525.584 835.972 523.08 832.265 521.036C828.498 520.852 825.195 520.971 821.508 521.943L822.465 243.091L822.875 169.614C822.957 157.804 823.509 146.036 823.02 134.221C822.908 131.514 822.785 128.038 821.224 125.767L820.56 125.671C819.239 127.119 819.223 131.059 819.105 133.017C818.27 146.877 818.572 160.919 818.524 174.804L818.139 237.615L817.178 468.229L817.177 505.856C817.175 512.091 817.498 518.528 817.053 524.739C809.216 531.506 803.207 538.531 798.051 547.544L735.522 547.472C713.631 547.675 691.737 547.663 669.846 547.437C680.352 531.726 693.501 517.446 704.957 502.379C709.054 496.99 713.892 491.265 716.925 485.189C708.326 493.782 701.019 503.767 693.516 513.313C685.878 523.031 677.808 532.804 671.052 543.152L668.309 547.481L614.01 547.834C604.376 547.911 593.789 548.8 584.234 547.807C583.76 546.87 583.798 546.756 584.101 545.779C585.667 540.722 605.174 517.772 609.725 512.089C616.945 503.035 624.027 493.872 630.969 484.604C634.996 479.281 639.378 473.986 642.804 468.256C631.562 478.336 622.621 491.945 613.359 503.843C603.46 516.558 592.858 529.055 583.957 542.486C584.315 533.468 583.965 524.454 583.942 515.434C583.888 494.396 583.67 473.032 584.537 452.025C593.516 444.008 619.102 411.322 625.604 400.659C620.37 404.505 613.577 414.919 609.211 420.494C601.246 430.665 593.26 441.128 584.527 450.646C584.343 420.735 585.629 390.807 585.276 360.925C601.005 340.247 616.869 319.671 632.867 299.2C643.457 285.887 653.895 272.454 664.18 258.904C668.637 253.075 673.437 247.328 677.656 241.339C678.511 240.124 679.278 238.95 679.56 237.471L679.083 237.037C677.541 237.431 676.581 238.615 675.574 239.778C667.71 248.864 660.848 259.253 653.466 268.781C643.094 282.169 632.541 295.459 622.3 308.943C610.075 325.039 598.107 341.391 585.531 357.211C586.045 332.724 585.899 308.187 586.082 283.693C586.203 267.516 586.92 251.134 586.371 234.984C591.274 228.057 596.842 221.52 602.132 214.875L631.82 177.394C637.376 170.242 643.414 163.091 648.048 155.299C638.427 164.237 630.574 176.278 622.392 186.587C610.54 201.522 598.183 216.135 586.758 231.399L586.9 171.169C586.935 161.97 587.624 151.372 586.97 142.359C586.86 140.855 586.68 139.686 586.011 138.332L585.193 138.189C583.895 139.488 583.573 140.652 583.456 142.43C582.308 159.96 582.63 177.876 582.407 195.458L581.397 280.506C581.074 330.543 579.475 380.603 579.52 430.633C579.59 457.531 579.504 484.43 579.263 511.327C579.205 520.465 579.323 529.62 579.205 538.754C579.165 541.844 578.719 544.993 578.88 548.076C578.955 549.522 579.094 550.633 579.783 551.912C586.982 553.674 598.976 552.517 606.556 552.452L662.429 551.776C706.65 551.304 750.93 551.816 795.16 551.85C793.761 555.247 792.306 558.62 790.794 561.969C780.158 562.983 769.2 562.467 758.509 562.484L702.257 562.386C648.795 562.167 595.332 562.22 541.87 562.544C541.854 560.564 541.983 558.698 541.109 556.867C539.684 555.604 538.96 555.631 537.07 555.719C529.323 556.077 521.144 556.649 513.441 557.455L513.05 562.874C501.975 562.955 490.58 563.832 479.559 563.321C490.477 543.272 504.575 524.918 515.49 504.934L515.009 504.482C512.386 501.97 510.567 499.06 508.548 496.064C504.4 496.505 484.243 514.484 480.696 518.481C480.51 518.365 480.322 518.25 480.136 518.132C476.269 515.673 472.977 512.466 469.296 509.742C461.114 503.686 442.272 490.783 432.536 490.548L431.539 491.025C431.562 492.241 431.906 492.734 432.784 493.541C436.308 496.778 442.934 497.976 447.26 500.26C456.202 504.98 464.261 510.991 472.791 516.363C464.286 514.042 456.262 510.346 447.991 507.339C440.201 504.507 432.094 502.324 424.437 499.169L424.127 499.687C420.736 505.47 402.5 546.473 400.71 547.755C399.759 548.436 375.759 555.917 371.594 557.612C368.14 545.197 364.264 532.704 361.697 520.075C365.223 518.469 370.798 516.634 372.406 512.745C373.212 510.797 372.605 508.631 371.74 506.815C369.751 502.643 366.222 497.535 363.12 494.119C367.585 488.283 373.517 479.617 381.431 478.839C386.422 478.347 391.828 479.755 396.901 479.728C409.726 479.66 418.005 474.031 427.515 466.147C430.225 463.9 433.419 461.656 435.732 459.026C437.274 457.273 438.317 455.124 438.153 452.744C438.039 451.087 437.416 449.013 436.053 447.955C431.498 444.416 421.946 445.669 416.307 444.743C408.651 443.486 398.655 440.561 392.215 436.139C386.177 431.992 384.849 425.755 381.48 419.734C378.901 415.123 375.134 410.658 371.066 407.303C371.1 398.88 368.989 390.716 367.955 382.401C367.332 377.387 367.348 372.193 366.451 367.236C366.153 365.588 365.677 364.102 364.963 362.59C364.105 362.04 363.567 361.74 362.469 361.92C360.189 362.293 358.864 364.961 357.938 366.779C356.502 369.599 355.134 372.369 354.065 375.356C352.479 379.785 347.934 398.441 345.694 400.571C343.703 400.26 342.699 399.257 341.526 397.653C337.621 392.317 330.281 368.166 325.489 366.905C321.898 368.852 318.496 382.084 317.268 386.204C314.381 395.89 312.652 405.903 309.924 415.648C306.209 428.914 300.866 441.977 295.369 454.598C294.312 457.024 292.85 462.174 290.933 463.819C290.763 463.83 290.594 463.84 290.425 463.853C288.956 463.969 288.155 464.081 286.923 464.985C285.288 467.514 281.973 482.099 282.611 484.992C282.864 486.141 284.537 487.198 285.537 487.7C287.358 488.612 289.316 489.312 291.216 490.042C284.203 500.551 281.648 516.462 275.563 528.363C275.397 503.968 276.016 479.652 276.369 455.271C276.535 443.821 275.945 432.32 276.566 420.882C286.427 408.048 297.505 396.018 307.822 383.538L379.124 296.647C386.486 287.704 393.737 278.671 400.876 269.549C404.985 264.327 409.812 258.941 412.812 253.001C404.275 261.445 396.916 271.512 389.324 280.814L348.28 331.154L304.504 384.446C295.189 395.582 284.856 406.145 276.481 418.024L277.07 266.251L277.544 201.565C277.657 190.782 279.769 135.026 276.863 127.943L276.102 127.709C271.671 133.892 272.426 300.335 272.298 320.517C272.066 357.109 271.415 393.762 271.663 430.349C271.853 458.344 272.483 486.389 272.028 514.383C271.921 520.959 272.998 527.992 272.243 534.474C271.099 544.294 265.5 553.883 262.097 563.106C252.057 562.307 241.959 562.376 231.893 562.249C230.803 558.081 229.312 554.156 227.583 550.213C233.059 550.39 257.829 552.454 260.873 550.038C261.436 549.592 261.783 549.095 261.861 548.401C263.036 537.887 261.848 522.046 261.98 510.94C262.092 501.491 262.543 492.058 262.502 482.606C262.359 449.726 261.026 416.851 260.784 383.981L259.904 220.659L260.245 160C260.338 150.192 260.89 140.385 260.507 130.575C260.439 128.848 260.35 127.614 259.564 126.041L258.587 125.233ZM568.432 136.702C564.802 144.278 564.312 238.369 563.553 256.858C557.796 262.774 552.934 269.568 547.924 276.113L531.032 297.865C524.081 306.737 516.916 315.434 509.996 324.332C505.744 329.799 501.079 335.132 498.04 341.39C514.119 322.898 528.992 303.321 543.987 283.951C550.405 275.661 556.587 266.893 563.468 259C562.273 289.69 562.456 320.364 562.112 351.069C561.974 363.324 562.392 375.794 561.584 388.008C555.215 393.686 550.025 401.913 544.537 408.543C531.357 424.466 517.464 440.139 504.952 456.585C503.896 457.973 502.624 459.468 502.244 461.179L503.149 460.492L502.26 461.073C502.72 460.176 502.165 461.008 503.363 460.315C506.627 458.424 556.158 396.723 561.489 389.424C561.732 395.776 562.117 402.247 561.54 408.586C561.48 418.073 561.737 478.576 560.257 482.357C558.04 488.022 550.58 494.85 546.671 499.931C540.038 508.551 530.886 517.193 526.725 527.262C526.859 527.138 526.994 527.016 527.125 526.889C531.499 522.685 535.109 517.178 538.789 512.346C545.702 503.268 552.697 493.862 560.244 485.305L560.766 485.591C561.014 491.251 560.511 496.954 560.537 502.628C560.686 517.904 560.758 533.181 560.752 548.457C553.328 548.293 513.713 547.47 509.522 549.075L508.687 549.962C509.206 551.056 509.367 551.168 510.487 551.582C513.247 552.604 560.204 552.88 564.648 551.9C565.389 550.623 565.338 550.059 565.35 548.585C565.412 439.296 566.34 330.009 568.134 220.734C568.572 198.5 569.684 176.297 570.001 154.048C570.058 150.088 570.881 141.212 570.035 137.937C569.767 136.899 569.275 137.005 568.432 136.702ZM363.409 146.425C358.69 150.262 339.996 173.6 337.667 179.006L337.866 180.375C343.035 174.439 361.659 152.87 363.495 147.178L363.409 146.425ZM499.217 147.339C494.46 152.282 484.018 164.413 482.209 170.521L482.548 170.789C485.873 166.929 499.135 151.691 499.828 148.041L499.217 147.339ZM740.454 150.48C731.564 159.734 723.745 170.558 715.706 180.564C711.527 185.766 705.808 191.476 702.645 197.306C702.806 198.581 702.559 198.022 703.37 198.991C709.893 191.288 738.644 156.36 740.685 151.011L740.454 150.48ZM393.737 160.489C385.579 168.669 378.367 178.488 371.112 187.487L334.981 232.623C328.117 241.305 313.503 257.923 308.699 266.838L308.809 268.106C318.848 257.919 392.952 164.091 393.694 161.459C393.782 161.147 393.723 160.812 393.737 160.489ZM553.889 167.386C549.037 173.16 516.245 214.736 514.848 218.591L515.385 219.407C520.451 214.967 524.625 208.557 528.758 203.237C537.527 191.949 546.493 180.65 554.349 168.696C554.316 167.623 554.524 168.036 553.889 167.386ZM751.196 245.983C745.855 251.398 741.321 257.939 736.751 264.013C730.704 272.073 724.596 280.088 718.43 288.057C699.79 312.204 680.451 335.896 662.085 360.25C660.928 361.785 658.564 364.427 658.184 366.336C658.138 366.57 658.198 366.812 658.204 367.05C669.258 353.507 750.875 252.208 751.196 245.983ZM467.858 269.907C463.385 274.954 448.426 292.428 446.672 297.77L447.287 298.657C453.497 292.067 463.895 278.769 468.186 270.947C468.097 270.044 468.292 270.351 467.858 269.907ZM516.703 281.339C514.606 284.052 506.658 292.613 506.98 295.831L507.206 296.053C509.993 292.887 516.682 286.501 517.337 282.269L516.703 281.339ZM332.516 282.325C327.958 287.183 319.487 298.212 316.633 304.066L316.757 304.844L317.327 304.655C322.694 298.534 329.509 290.704 333.073 283.405L332.981 282.577L332.516 282.325ZM431.314 315.926C427.088 320.074 414.13 335.559 412.695 340.76L413.207 341.595C416.74 337.693 430.734 320.974 431.875 316.97L431.314 315.926ZM467.437 381.286C463.86 384.924 435.981 417.766 435.875 420.798L436.544 421.207C440.225 416.814 467.608 384.958 468.173 381.794L467.437 381.286ZM778.154 390.001C773.048 395.69 737.156 441.935 737.226 445.037C741.678 439.734 777.998 394.495 778.215 390.346C778.221 390.229 778.175 390.116 778.154 390.001ZM481.735 397.364C478.036 400.392 467.049 413.982 466.176 418.249L466.886 419.277C469.293 416.116 482.292 400.683 482.222 397.942L481.735 397.364ZM692.483 403.294C688.582 407.428 682.489 413.496 680.601 418.877L681.023 419.451L681.368 419.478C683.724 416.748 693.064 406.987 693.31 404L692.483 403.294ZM791.365 461.992C786.632 467.213 782.047 472.567 777.618 478.048C770.974 486.338 764.887 495.126 758.593 503.684C755.129 508.395 751.109 513.019 748.033 517.958C747.389 518.992 747.171 519.383 747.135 520.582C751.722 516.249 790.8 466.203 791.358 462.394C791.377 462.261 791.363 462.126 791.365 461.992Z"/><path fill="#010101" d="M225.465 544.973C234.29 545.421 248.561 546.557 256.969 545.102C258.808 537.736 257.309 509.793 257.141 500.375C256.983 491.584 257.243 482.748 257.196 473.945L256.054 268.739L255.893 188.184C255.921 174.451 254.908 136.724 258.587 125.233L259.564 126.041C260.35 127.614 260.439 128.848 260.507 130.575C260.89 140.385 260.338 150.192 260.245 160L259.904 220.659L260.784 383.981C261.026 416.851 262.359 449.726 262.502 482.606C262.543 492.058 262.092 501.491 261.98 510.94C261.848 522.046 263.036 537.887 261.861 548.401C261.783 549.095 261.436 549.592 260.873 550.038C257.829 552.454 233.059 550.39 227.583 550.213C229.312 554.156 230.803 558.081 231.893 562.249C241.959 562.376 252.057 562.307 262.097 563.106C265.5 553.883 271.099 544.294 272.243 534.474C272.998 527.992 271.921 520.959 272.028 514.383C272.483 486.389 271.853 458.344 271.663 430.349C271.415 393.762 272.066 357.109 272.298 320.517C272.426 300.335 271.671 133.892 276.102 127.709L276.863 127.943C279.769 135.026 277.657 190.782 277.544 201.565L277.07 266.251L276.481 418.024C284.856 406.145 295.189 395.582 304.504 384.446L348.28 331.154L389.324 280.814C396.916 271.512 404.275 261.445 412.812 253.001C409.812 258.941 404.985 264.327 400.876 269.549C393.737 278.671 386.486 287.704 379.124 296.647L307.822 383.538C297.505 396.018 286.427 408.048 276.566 420.882C275.945 432.32 276.535 443.821 276.369 455.271C276.016 479.652 275.397 503.968 275.563 528.363C281.648 516.462 284.203 500.551 291.216 490.042C289.316 489.312 287.358 488.612 285.537 487.7C284.537 487.198 282.864 486.141 282.611 484.992C281.973 482.099 285.288 467.514 286.923 464.985C288.155 464.081 288.956 463.969 290.425 463.853C290.594 463.84 290.763 463.83 290.933 463.819C292.85 462.174 294.312 457.024 295.369 454.598C300.866 441.977 306.209 428.914 309.924 415.648C312.652 405.903 314.381 395.89 317.268 386.204C318.496 382.084 321.898 368.852 325.489 366.905C330.281 368.166 337.621 392.317 341.526 397.653C342.699 399.257 343.703 400.26 345.694 400.571C347.934 398.441 352.479 379.785 354.065 375.356C355.134 372.369 356.502 369.599 357.938 366.779C358.864 364.961 360.189 362.293 362.469 361.92C363.567 361.74 364.105 362.04 364.963 362.59C365.677 364.102 366.153 365.588 366.451 367.236C367.348 372.193 367.332 377.387 367.955 382.401C368.989 390.716 371.1 398.88 371.066 407.303C375.134 410.658 378.901 415.123 381.48 419.734C384.849 425.755 386.177 431.992 392.215 436.139C398.655 440.561 408.651 443.486 416.307 444.743C421.946 445.669 431.498 444.416 436.053 447.955C437.416 449.013 438.039 451.087 438.153 452.744C438.317 455.124 437.274 457.273 435.732 459.026C433.419 461.656 430.225 463.9 427.515 466.147C418.005 474.031 409.726 479.66 396.901 479.728C391.828 479.755 386.422 478.347 381.431 478.839C373.517 479.617 367.585 488.283 363.12 494.119C366.222 497.535 369.751 502.643 371.74 506.815C372.605 508.631 373.212 510.797 372.406 512.745C370.798 516.634 365.223 518.469 361.697 520.075C364.264 532.704 368.14 545.197 371.594 557.612C375.759 555.917 399.759 548.436 400.71 547.755C402.5 546.473 420.736 505.47 424.127 499.687L424.437 499.169C432.094 502.324 440.201 504.507 447.991 507.339C456.262 510.346 464.286 514.042 472.791 516.363C464.261 510.991 456.202 504.98 447.26 500.26C442.934 497.976 436.308 496.778 432.784 493.541C431.906 492.734 431.562 492.241 431.539 491.025L432.536 490.548C442.272 490.783 461.114 503.686 469.296 509.742C472.977 512.466 476.269 515.673 480.136 518.132C480.322 518.25 480.51 518.365 480.696 518.481C484.243 514.484 504.4 496.505 508.548 496.064C510.567 499.06 512.386 501.97 515.009 504.482L515.49 504.934C504.575 524.918 490.477 543.272 479.559 563.321C490.58 563.832 501.975 562.955 513.05 562.874L513.441 557.455C521.144 556.649 529.323 556.077 537.07 555.719C538.96 555.631 539.684 555.604 541.109 556.867C541.983 558.698 541.854 560.564 541.87 562.544C595.332 562.22 648.795 562.167 702.257 562.386L758.509 562.484C769.2 562.467 780.158 562.983 790.794 561.969C792.306 558.62 793.761 555.247 795.16 551.85C750.93 551.816 706.65 551.304 662.429 551.776L606.556 552.452C598.976 552.517 586.982 553.674 579.783 551.912C579.094 550.633 578.955 549.522 578.88 548.076C578.719 544.993 579.165 541.844 579.205 538.754C579.323 529.62 579.205 520.465 579.263 511.327C579.504 484.43 579.59 457.531 579.52 430.633C579.475 380.603 581.074 330.543 581.397 280.506L582.407 195.458C582.63 177.876 582.308 159.96 583.456 142.43C583.573 140.652 583.895 139.488 585.193 138.189L586.011 138.332C586.68 139.686 586.86 140.855 586.97 142.359C587.624 151.372 586.935 161.97 586.9 171.169L586.758 231.399C598.183 216.135 610.54 201.522 622.392 186.587C630.574 176.278 638.427 164.237 648.048 155.299C643.414 163.091 637.376 170.242 631.82 177.394L602.132 214.875C596.842 221.52 591.274 228.057 586.371 234.984C586.92 251.134 586.203 267.516 586.082 283.693C585.899 308.187 586.045 332.724 585.531 357.211C598.107 341.391 610.075 325.039 622.3 308.943C632.541 295.459 643.094 282.169 653.466 268.781C660.848 259.253 667.71 248.864 675.574 239.778C676.581 238.615 677.541 237.431 679.083 237.037L679.56 237.471C679.278 238.95 678.511 240.124 677.656 241.339C673.437 247.328 668.637 253.075 664.18 258.904C653.895 272.454 643.457 285.887 632.867 299.2C616.869 319.671 601.005 340.247 585.276 360.925C585.629 390.807 584.343 420.735 584.527 450.646C593.26 441.128 601.246 430.665 609.211 420.494C613.577 414.919 620.37 404.505 625.604 400.659C619.102 411.322 593.516 444.008 584.537 452.025C583.67 473.032 583.888 494.396 583.942 515.434C583.965 524.454 584.315 533.468 583.957 542.486C592.858 529.055 603.46 516.558 613.359 503.843C622.621 491.945 631.562 478.336 642.804 468.256C639.378 473.986 634.996 479.281 630.969 484.604C624.027 493.872 616.945 503.035 609.725 512.089C605.174 517.772 585.667 540.722 584.101 545.779C583.798 546.756 583.76 546.87 584.234 547.807C593.789 548.8 604.376 547.911 614.01 547.834L668.309 547.481L671.052 543.152C677.808 532.804 685.878 523.031 693.516 513.313C701.019 503.767 708.326 493.782 716.925 485.189C713.892 491.265 709.054 496.99 704.957 502.379C693.501 517.446 680.352 531.726 669.846 547.437C691.737 547.663 713.631 547.675 735.522 547.472L798.051 547.544C803.207 538.531 809.216 531.506 817.053 524.739C817.498 518.528 817.175 512.091 817.177 505.856L817.178 468.229L818.139 237.615L818.524 174.804C818.572 160.919 818.27 146.877 819.105 133.017C819.223 131.059 819.239 127.119 820.56 125.671L821.224 125.767C822.785 128.038 822.908 131.514 823.02 134.221C823.509 146.036 822.957 157.804 822.875 169.614L822.465 243.091L821.508 521.943C825.195 520.971 828.498 520.852 832.265 521.036C835.972 523.08 838.322 525.584 839.65 529.678C845.556 547.887 829.1 579.12 821.73 596.041C818.367 603.762 815.319 611.665 812.348 619.546C802.356 646.086 795.812 673.799 792.875 702.005C791.084 720.375 791.349 738.413 791.333 756.83L791.394 826.154C791.413 834.923 791.824 843.83 791.484 852.585C791.403 854.68 791.198 856.932 790.114 858.78C789.443 859.923 788.424 860.797 787.083 861.024C784.796 861.41 782.859 860.193 781 859.054C779.158 860.719 777.252 862.085 774.894 862.934C759.213 868.578 716.346 869.551 698.543 868.998C689.109 868.704 673.944 867.331 667.795 859.059C666.122 856.808 666.134 852.844 664.642 851.252C663.337 854.999 665.964 858.684 662.901 862.269C661.603 863.787 659.594 864.687 657.616 864.819C655.604 864.954 653.303 864.275 651.85 862.842C650.723 861.73 650.62 858.612 650.517 857.04C650.125 851.077 650.448 844.897 650.471 838.908C650.552 827.559 650.555 816.21 650.481 804.861C650.256 777.455 648.882 749.969 650.764 722.602C647.137 721.824 643.291 721.26 640.503 718.585C638.231 716.405 636.439 712.597 636.523 709.415C636.587 706.994 637.784 704.9 639.51 703.263C649.052 694.206 688.94 692.952 702.925 693.165C705.457 687.734 709.393 682.334 714.366 678.899C719.15 675.594 725.401 674.017 731.155 675.123C739.479 676.723 744.803 683.859 749.258 690.462C756.436 690.696 762.82 691.844 769.588 694.26C769.498 687.167 768.404 680.17 768.501 673.047C769.145 645.257 773.175 617.649 780.5 590.834C782.758 582.781 785.764 574.974 788.238 566.986C731.456 567.598 674.67 567.665 617.887 567.187C603.225 567.152 588.553 567.417 573.894 567.228C565.062 567.115 549.995 566.167 541.778 567.372C540.484 571.109 540.105 575.295 539.491 579.2C552.014 579.502 564.591 579.239 577.126 579.412C596.173 579.661 615.206 580.534 634.196 582.028C642.918 582.722 653.734 582.694 661.791 586.35C667.741 589.05 671.128 593.717 673.377 599.628C673.151 601.775 673.064 604.744 671.664 606.528C666.233 613.452 580.801 615.766 567.677 615.913C557.117 616.031 546.345 615.061 535.854 615.606L535.045 615.652C534.812 630.98 533.497 646.183 533.069 661.489C532.718 674.024 533.711 686.533 533.396 699.065C533.234 705.522 532.02 711.834 531.693 718.257C530.718 737.349 530.451 756.499 529.56 775.607C529.038 787.056 528.617 798.51 528.296 809.966C528.134 816.987 528.316 824.005 527.687 831.005C546.611 847.509 570.361 845.267 592.638 853.396C596.322 854.74 600.67 856.33 603.818 858.714C605.179 859.745 605.667 860.559 605.935 862.223C604.534 863.96 602.688 864.216 600.541 864.427C592.165 865.253 583.035 864.559 574.596 864.562C553.393 864.684 532.19 864.425 510.997 863.787L465.347 863.238C459.79 863.155 454.119 863.439 448.583 863.062C446.534 862.923 443.482 862.698 441.961 861.186C441.384 860.611 441.598 860.649 441.634 859.716C442.682 857.917 444.721 856.76 446.648 856.109C451.467 854.481 457.085 854.048 462.101 853.167C471.042 851.598 479.982 849.318 488.404 845.905C496.97 842.434 505.182 836.777 512.094 830.654L512.544 830.248C513.221 822.264 512.819 814.245 512.696 806.247C512.565 797.513 512.638 788.777 512.914 780.047C513.442 761.135 514.447 742.15 514.567 723.244C514.647 710.614 513.926 697.997 513.937 685.372C513.959 662.156 514.301 638.737 513.227 615.545L443.377 615.511C431.051 615.485 393.513 616.71 383.301 613.186C381.099 612.426 379.053 611.167 378.105 608.944C376.754 605.775 378.393 602.36 379.473 599.366L378.029 598.577L375.021 600.586C373.497 604.134 372.719 634.845 372.197 641.475C379.04 642.494 386.236 642.264 393.153 642.536C406.311 643.054 425.771 644.56 437.958 648.71C445.604 651.314 451.461 656.188 454.995 663.494C458.385 670.503 458.517 677.726 457.078 685.259C454.535 698.566 447.886 711.233 442.612 723.649C437.009 736.838 431.997 750.338 426.157 763.415C420.531 776.012 414.974 788.563 409.571 801.26C407.031 807.231 404.139 813.202 402.096 819.353L401.875 820.032C404.995 824.001 408.786 828.477 412.761 831.6C419.92 837.223 429.454 840.386 435.671 847.28C436.962 848.712 437.768 850.003 437.653 851.978C437.165 853.165 436.417 853.772 435.379 854.472C427.494 859.788 413.907 854.565 405.428 853.101L405.224 853.611C405.57 854.097 405.906 854.594 406.258 855.075C406.647 855.605 407.222 856.223 407.445 856.846C407.871 858.031 407.722 859.112 407.246 860.24C406.619 861.727 405.393 862.688 403.908 863.221C394.817 866.488 374.523 856.894 366.118 852.584C366.352 855.45 366.848 858.1 364.851 860.509C364.02 861.513 363.455 861.805 362.193 861.959C361.753 861.705 361.365 861.519 361.011 861.122C358.544 858.351 359.397 852.741 359.253 849.2C352.4 846.105 342.406 842.721 336.862 837.68C335.295 836.256 335.169 834.934 335.521 832.934C336.121 829.529 338.306 826.062 339.781 822.952L348.999 803.284C350.454 800.2 352.25 797.127 353.462 793.952C355.94 787.467 355.712 729.185 355.463 718.451C344.89 718.21 334.207 718.881 323.633 719.103C312.242 719.343 300.84 719.024 289.446 719.025C276.481 719.026 263.45 719.357 250.512 718.462C250.75 729.194 250.408 739.956 250.523 750.692C250.63 760.668 251.442 770.627 251.563 780.604C251.74 795.289 251.153 809.901 250.989 824.575C250.91 830.52 250.89 836.467 250.927 842.413C250.995 847.215 251.546 852.263 250.75 857.018C250.438 858.876 249.969 861.232 248.115 862.185C246.872 862.825 245.111 862.712 243.79 862.4C241.931 861.962 240.568 860.87 239.668 859.207C238.813 857.629 238.449 855.779 238.236 854.015C237.286 846.162 237.696 837.651 237.478 829.706L236.052 780.701C234.745 738.637 237.189 695.832 227.393 654.592C223.149 636.724 215.406 617.914 209.662 600.241C205.003 585.907 200.14 571.436 195.044 557.25C191.544 547.507 187.168 537.854 184.763 527.762C183.784 523.653 182.669 518.122 184.04 514.041C185.114 510.844 187.235 506.999 190.511 505.645C193.407 504.447 196.973 505.361 199.682 506.635C212.795 512.806 221.045 532.128 225.465 544.973ZM465.469 857.511C464.277 857.494 463.101 857.357 461.994 857.868C464.687 858.643 467.355 858.613 470.135 858.487C510.954 857.337 551.762 860.257 592.593 858.965C586.562 856.564 580.532 855.478 574.192 854.235C560.193 851.49 546.425 849.245 533.727 842.296C529.928 840.216 526.897 836.651 523.276 834.261C521.586 833.147 519.695 832.373 517.71 833.175C513.388 834.921 509.41 840.025 505.562 842.847C494.432 851.011 478.807 854.908 465.469 857.511ZM361.261 372.128C358.123 381.381 354.821 391.175 352.718 400.712C354.783 401.53 356.836 402.451 359.008 402.937L365.111 404.868C364.401 393.927 362.349 383.051 361.261 372.128ZM326.091 374.856C320.486 388.912 317.792 407.984 312.959 423.212C308.413 437.533 300.985 451.116 296.836 465.511C320.68 468.737 339.799 475.997 358.384 491.394C361.392 484.671 367.101 476.644 374.183 473.878C380.331 471.477 387.644 472.982 394.032 473.572C405.223 474.245 414.905 469.927 423.223 462.598C418.888 460.244 413.821 457.482 412.392 452.368C411.981 450.9 412.079 449.559 412.285 448.07C401.409 445.564 388 442.919 381.726 432.637C379.899 429.643 378.538 426.251 376.945 423.12C372.2 413.793 365.471 410.158 355.648 407.361C354.963 407.166 354.315 407.116 353.608 407.12C352.753 408.706 353.128 410.132 351.778 411.378C348.817 410.704 345.388 405.982 342.079 404.184C344.366 407.27 346.399 409.369 346.309 413.38L345.755 414.422C344.699 414.666 344.497 414.727 343.508 414.132C338.713 411.252 328.251 381.619 326.091 374.856ZM291.222 469.387C290.339 473.96 289.308 478.552 288.642 483.161C300.479 490.377 315.493 492.877 328.307 498.028C332.443 499.69 346.676 507.259 348.992 507.468C349.987 506.71 349.78 506.897 350.035 505.834C350.798 502.347 354.024 499.359 355.967 496.412C333.518 478.764 318.928 474.614 291.222 469.387ZM295.095 491.6C291.157 507.092 284.134 522.144 278.076 536.924C275.237 543.852 272.898 550.999 269.814 557.821C261.7 575.765 246.937 600.704 245.459 620.304C245.06 625.599 248.058 631.466 248.81 636.748C257.552 635.094 265.454 634.766 274.305 635.174C298.231 636.276 308.556 642.88 329.287 653.03C336.486 638.763 341.679 625.84 343.885 609.893C338.026 610.98 331.99 612.379 326.02 612.575C317.091 607.596 314.194 597.975 311.577 588.653C308.592 578.023 301.367 532.023 305.496 524.154C305.842 523.496 306.514 523.308 307.136 522.961C308.219 523.341 307.947 523.008 308.371 523.899C309.881 527.072 309.562 533.732 309.885 537.378C311.108 554.92 314.747 595.423 326.049 607.743C344.469 604.491 361.416 599.861 378.851 593.051C378.194 582.54 374.978 573.003 370.097 563.666C364.929 565.142 344.56 570.249 340.374 568.122C339.745 567.803 339.704 567.718 339.242 567.295C339.015 565.926 339.084 565.822 339.691 564.562C341.632 562.999 344.57 563.089 346.977 562.583C344.894 555.121 333.882 518.326 334.792 512.414C336.065 511.765 336.049 512.072 337.338 512.484C344.135 518.78 349.194 559.803 353.433 561.18L356.242 560.595C357.505 551.992 344.159 519.954 345.197 515.964C345.301 515.567 346.444 514.612 346.775 514.294C337.893 504.556 319.278 501.075 307.036 496.711C302.966 495.261 299.017 493.406 295.095 491.6ZM359.975 500.283C357.687 503.345 355.488 506.318 353.707 509.708C355.474 511.678 357.18 513.86 359.314 515.437L360.176 515.245C362.442 513.976 364.907 512.796 367.006 511.271C365.602 507.951 363.391 501.861 359.975 500.283ZM508.793 501.932C504.49 504.518 489.347 514.741 487.947 518.826L488.878 519.349L494.048 518.172C498.695 514.059 506.46 508.681 509.388 503.219C509.129 502.101 509.411 502.481 508.793 501.932ZM192.869 509.889C190.273 511.789 189.202 514.444 188.661 517.569C187.939 521.737 190.637 528.902 191.873 532.873C194.711 541.993 198.357 550.904 201.57 559.9C206.717 574.311 211.507 588.873 216.532 603.33C220.699 615.322 225.242 627.329 228.852 639.496C233.463 655.033 236.967 670.699 238.563 686.843L241.514 684.238C243.637 683.241 245.704 682.281 247.936 681.541C248.052 658.754 241.987 636.876 237.397 614.758C235.45 605.378 234.676 595.77 232.66 586.403C228.781 568.379 216.522 528.911 203.911 516.273C200.667 513.022 197.428 510.778 192.869 509.889ZM425.217 512.357C418.955 520.116 410.175 539.28 407.411 549.036C411.354 555.094 415.611 561.079 418.515 567.726C423.51 566.065 428.632 564.814 433.83 563.985C437.345 563.406 459.703 561.905 461.195 560.477L460.867 559.058L460.134 558.625L459.28 559.522C459.089 559.445 458.903 559.357 458.708 559.292C455.235 558.137 449.788 559.084 447.088 556.293L447.111 555.266C451.889 551.164 465.412 555.779 469.454 550.502L469.422 549.506C464.668 545.736 452.936 552.025 446.75 546.366C451.145 541.053 467.589 544.884 471.069 538.054L470.964 537.062C468.529 535.319 459.702 537.444 456.65 537.95C451.572 538.793 445.159 540.726 440.083 539.688L439.613 539.162C443.23 534.716 460.303 532.08 461.973 530.469C461.848 529.57 462.049 529.737 461.342 529.217C458.46 527.1 452.416 528.227 449.082 528.961C442.419 530.427 434.535 533.208 428.693 536.773C425.769 538.558 423.125 540.922 420.034 542.423C418.55 543.144 417.786 543.323 416.193 543.066C415.467 541.644 415.53 540.801 415.993 539.27C418.166 532.076 427.87 519.129 425.217 512.357ZM350.923 514.245C350.567 515.673 350.365 516.75 350.704 518.201C352.526 525.988 355.79 533.614 357.942 541.347C359.535 547.07 360.077 553.77 362.314 559.189C363.546 559.697 364.59 559.366 365.842 559.118C365.731 552.16 358.721 527.013 355.82 520.449C354.917 518.407 353.803 516.746 352.201 515.182C351.62 514.615 351.73 514.752 350.923 514.245ZM430.194 521.33C428.052 524.765 426.493 528.598 424.817 532.279L425.098 532.831L425.387 532.89C428.26 531.237 429.106 529.898 429.98 526.709C430.412 525.136 430.879 523.314 430.6 521.711L430.194 521.33ZM826.13 526.08C811.539 531.648 802.948 548.655 796.88 562.07C782.982 592.796 768.404 663.528 775.404 696.586C778.416 699.871 781.497 703.092 784.644 706.247L785.515 707.058C786.304 706.356 786.168 706.344 786.337 705.375C787.349 699.542 787.679 693.598 788.505 687.734C789.466 680.912 790.921 674.124 792.346 667.384C796.621 647.165 802.763 627.716 810.28 608.495C818.779 586.764 833.477 562.827 834.895 539.334C835.125 535.517 835.084 530.865 832.366 527.866C831.189 526.567 829.76 526.088 828.057 526.049C827.414 526.04 826.771 526.05 826.13 526.08ZM477.476 545.737C476.338 548.002 473.398 552.437 473.466 554.792L474.163 554.729C476.009 552.64 478.486 550.504 479.238 547.774C478.771 546.63 478.48 546.489 477.476 545.737ZM402.352 552.818C401.019 553.637 399.654 554.24 399.004 555.742C402.2 563.314 405.392 570.816 407.627 578.741C408.31 578.942 408.589 579.002 409.321 578.945C410.826 578.045 412.042 577.269 412.571 575.464C413.989 570.626 409.983 562.134 407.453 557.932C406.125 555.727 404.967 553.494 402.352 552.818ZM391.242 556.461L375.558 561.696C379.097 571.052 382.136 580.244 383.975 590.113C385.087 590.261 385.18 590.071 386.159 589.624C391.787 587.092 397.701 584.786 402.811 581.286C401.836 575.002 397.562 560.702 392.459 556.588L391.242 556.461ZM518.454 561.646C520.306 567.173 520.734 573.873 521.065 579.679C524.255 579.712 531.924 580.563 534.361 578.875L534.343 578.089C535.134 572.635 536.295 566.932 536.598 561.442C530.688 561.159 524.215 562.849 518.454 561.646ZM509.116 567.267C498.986 567.962 488.266 567.92 478.136 567.394C475.609 571.988 472.982 576.544 470.911 581.367L477.047 581.441L515.817 579.67C515.417 577.139 514.996 574.619 514.727 572.07C514.565 570.527 514.091 568.695 512.953 567.574C512.195 566.829 510.123 567.176 509.116 567.267ZM233.769 567.673C237.191 580.993 240.371 594.472 242.255 608.11C243.474 603.676 244.729 599.034 246.726 594.876C250.421 585.555 255.412 576.721 258.94 567.398C251.489 568.573 241.161 569.153 233.769 567.673ZM410.306 584.072C408.524 584.677 406.272 585.161 404.862 586.44L405.254 586.98L410.51 584.854L410.581 584.265L410.306 584.072ZM549.593 585.854L548.986 585.904C534.502 587.012 519.619 586.276 505.094 586.438C489.161 586.615 473.214 587.616 457.296 588.313C441.032 589.026 394.89 589.309 384.398 601.699C383.619 602.618 383.274 603.414 382.928 604.553C383.166 606.021 383.174 606.386 384.377 607.389C386.372 609.053 391.827 609.189 394.396 609.33C408.677 610.11 423.235 609.168 437.531 608.815C449.649 608.517 461.836 608.861 473.96 608.94C482.415 608.995 490.93 608.706 499.375 609.044L613.069 606.654C628.503 606.175 653.183 606.5 667.478 603.126C666.561 598.636 665.741 595.076 661.607 592.445C659.007 590.791 655.742 590.054 652.712 589.663C641.608 588.233 629.712 588.673 618.523 588.301C602.961 587.785 587.376 586.734 571.816 586.415C566.629 586.309 553.974 587.58 549.593 585.854ZM368.767 602.52C366.851 603.289 364.947 604.098 362.981 604.731C362.887 621.369 360.921 637.945 357.121 654.144C355.865 659.554 352.546 665.63 352.185 671.002L352.883 671.604C357.571 669.687 359.427 665.962 361.318 661.488C368.246 645.089 370.769 620.807 369.544 602.985L368.767 602.52ZM356.731 606.601C354.067 607.189 351.386 607.735 348.748 608.428C347.574 619.642 345.299 629.69 341.017 640.154C337.481 648.793 332.601 658.101 330.931 667.312C332.967 667.533 334.966 667.696 336.938 668.281C339.394 668.661 343.705 668.828 345.59 670.297C345.857 670.505 346.146 670.684 346.423 670.878C350.451 667.799 355.751 633.95 356.669 627.046C357.491 620.862 358.668 613.424 357.998 607.239L357.398 606.612L356.731 606.601ZM415.679 667.007C422.095 670.548 428.066 673.871 430.184 681.448C431.696 686.859 430.902 691.8 429.257 697.047C425.549 708.868 418.249 719.825 412.639 730.811C408.427 739.061 404.81 747.669 400.928 756.081L382.858 794.713C378.899 803.208 373.477 811.13 370.442 820.039C371.803 821.512 373.136 823.207 374.842 824.281C378.868 812.685 384.7 801.595 389.831 790.449C398.551 771.505 407.216 752.527 416.461 733.828C422.723 721.164 431.148 708.116 434.696 694.401C436.045 689.19 435.867 683.083 433.471 678.183C430.787 672.696 425.573 669.581 419.945 667.776C418.522 667.32 417.165 667.102 415.679 667.007ZM726.087 680.578C719.214 682.095 714.618 685.179 710.815 691.238C707.592 696.373 702.571 711.308 703.468 716.899C703.5 717.098 703.568 717.29 703.617 717.486L704.407 717.863C706.16 716.872 706.544 715.404 707.064 713.549C709.466 704.984 710.373 694.914 719.099 690.241C722.442 688.452 726.909 687.816 730.56 688.963C733.97 690.035 736.347 692.778 737.81 695.941C745.299 712.138 742.623 730.249 745.139 747.463C745.318 748.287 745.38 749.832 746.078 750.314C747.04 750.977 748.21 751.251 749.315 751.59C752.915 754.729 754.46 775.18 756.241 781.013C756.27 781.11 756.297 781.206 756.325 781.303C758.635 780.784 760.939 780.268 763.266 779.834C761.169 771.365 756.344 763.788 754.293 755.114C752.094 745.816 750.203 736.132 748.889 726.658C747.072 713.563 748.656 690.721 735.352 682.743C732.349 680.942 729.527 680.294 726.087 680.578ZM357.739 683.448C355.608 686.142 353.381 688.516 350.896 690.886C360.017 691.47 370.662 689.713 377.335 697.371C379.866 700.277 381.734 704.379 381.465 708.3C381.28 710.99 380.325 713.588 378.209 715.353C377.351 716.068 376.395 716.686 375.465 717.302C372.547 717.473 369.567 717.546 366.665 717.886C366.51 732.165 365.67 747.205 367.192 761.406C368.224 761.046 368.495 759.794 368.971 758.831C374.261 745.998 397.142 704.35 392.264 691.848C391.331 689.454 389.609 688.187 387.264 687.296C381.007 684.92 364.459 683.366 357.739 683.448ZM254.503 686.162C249.689 686.793 244.802 688.293 241.644 692.268C239.259 695.269 239.383 698.607 239.964 702.229C240.37 704.761 241.237 708.096 243.372 709.763C245.554 711.466 249.292 711.977 252.016 712.289C259.515 713.149 267.526 712.72 275.082 712.799C294.249 712.962 313.418 712.896 332.584 712.601C341.561 712.526 350.937 711.918 359.875 712.482C364.709 712.5 370.144 713.207 374.533 710.912C375.631 709.28 375.644 707.788 375.262 705.845C374.727 703.126 373.18 700.957 370.817 699.507C364.671 695.734 355.42 696.53 348.499 696.454C339.333 696.354 329.088 696.255 320.036 694.937C298.769 691.84 275.863 685.303 254.503 686.162ZM724.241 694.462C720.91 695.525 719.197 696.107 717.512 699.372C715.115 704.017 713.148 710.957 713.293 716.204L713.736 716.769C717.912 717.06 722.034 716.459 726.203 716.501C730.167 716.193 734.302 716.083 738.194 715.287C736.179 708.427 734.609 700.803 730.474 694.859C728.592 694.667 726.065 694.071 724.241 694.462ZM750.89 695.727C752.119 702.363 752.985 708.811 753.271 715.567C762.156 714.054 771.529 714.024 780.53 713.509L781.418 713.023C779.122 707.213 773.213 701.428 767.574 698.853C762.485 696.529 756.41 696.118 750.89 695.727ZM689.359 698.713C679.995 699.397 649.49 700.507 643.265 707.49C642.63 708.202 642.124 709.29 642.249 710.244C642.494 712.127 644.032 713.529 645.549 714.525C649.136 716.881 654.018 716.482 658.125 716.595C670.348 718.319 683.777 717.996 696.137 717.794C697.663 711.236 699.153 704.631 701.575 698.332C697.544 698.43 693.363 698.299 689.359 698.713ZM240.874 716.119C239.605 721.449 240.872 731.532 240.889 737.495C240.949 758.803 241.508 780.073 241.968 801.372C242.318 817.601 242.53 834.185 243.789 850.361C243.975 852.761 244.269 855.286 245.275 857.488C246.919 851.723 245.927 837.583 246.018 830.753C246.475 808.881 246.586 787.004 246.352 765.128C246.193 749.495 245.53 733.83 245.669 718.2C244.127 717.455 242.532 716.544 240.874 716.119ZM361.626 717.897C360.6 719.017 360.491 719.179 360.368 720.741C359.475 732.023 360.525 743.761 360.445 755.114C360.406 760.595 360.511 766.158 360.142 771.624C359.977 774.058 359.291 776.645 359.282 779.049C359.28 779.64 359.33 779.785 359.432 780.297L359.955 780.254C361.516 776.417 361.824 771.675 362.109 767.571C362.414 763.184 363.114 720.419 362.135 718.527C361.984 718.235 361.837 718.109 361.626 717.897ZM760.618 719.78L753.957 720.037C755.905 730.557 756.735 742.274 759.997 752.397C762.489 753.237 764.821 754.112 767.18 755.289L771.592 757.486C772.41 744.828 772.484 731.924 772.177 719.245L760.618 719.78ZM778.522 719.799L777.106 720.149C775.746 723.208 776.265 755.719 777.12 760.218C781.106 763.263 782.446 767.477 783.127 772.317C784.543 782.384 782.776 793.18 779.262 802.661C778.498 804.722 776.415 806.515 776.219 808.644C774.995 821.988 779.832 837.197 781.894 850.383C782.067 851.927 782.04 853.573 782.995 854.859C784.11 855.332 784.032 855.099 785.091 854.672C786.444 845.204 785.432 827.998 785.275 817.724C785.024 801.272 785.234 784.753 785.175 768.292L785.163 734.656C785.122 729.959 785.548 724.887 784.77 720.251C782.906 719.032 780.652 719.538 778.522 719.799ZM727.552 722.288C722.272 722.625 716.955 722.504 711.667 722.498C710.315 727.6 705.445 747.477 707.276 751.949C710.104 752.408 713.283 751.702 716.119 751.369C723.504 750.457 730.747 750.441 738.172 750.458C737.188 741.232 736.012 731.06 736.74 721.811C733.684 721.967 730.6 722.04 727.552 722.288ZM654.823 722.625C655.033 732.221 654.44 741.938 654.406 751.556C654.363 763.661 654.587 856.391 655.655 858.37C656.658 858.937 657.325 859.023 658.512 858.661C658.713 858.6 658.869 858.439 659.047 858.328C659.627 844.75 660.102 728.003 658.42 723.88C657.105 722.803 656.474 722.861 654.823 722.625ZM701.869 722.713C700.426 727.934 693.551 752.921 694.976 756.6L696.247 756.159L700.798 753.265C702.342 747.606 702.16 741.311 703.045 735.495C703.548 732.184 705.503 726.44 704.964 723.323C703.88 722.933 703.019 722.778 701.869 722.713ZM663.072 723.325C664.278 735.267 663.985 747.602 663.959 759.594C663.932 772.245 664.186 784.899 664.1 797.547C663.995 812.839 663.525 828.277 664.759 843.534C667.334 834.062 669.508 824.595 670.917 814.882C672.212 809.125 674.604 802.262 674.771 796.44C674.87 792.999 672.173 789.2 671.691 785.688C670.471 776.801 681.253 762.165 688.386 757.292C689.721 745.713 692.852 734.838 694.955 723.454C684.789 724.827 673.357 723.547 663.072 723.325ZM736.268 756.234C721.424 756.588 708.026 757.748 693.667 761.826C693.215 768.003 692.968 784.752 688.542 788.781C687.587 789.65 686.396 790.211 685.08 790.059C684.119 789.949 683.152 789.622 682.22 789.371C681.147 789.082 680.373 788.801 679.296 789.269L678.418 790.451C679.958 794.88 716.006 814.514 722.44 817.708C723.792 818.378 725.202 818.996 726.625 819.493C729.134 818.952 731.637 818.447 734.086 817.672C747.561 812.731 764.213 808.446 774.865 798.537L773.22 791.935C769.431 788.263 765.669 784.533 761.108 781.82C763.655 784.411 769.021 788.809 768.917 792.806C768.894 793.719 768.459 794.045 767.956 794.755C766.845 795.062 766.673 795.094 765.62 794.422C760.985 791.462 760.013 787.126 753.766 786.825C751.808 785.665 751.146 782.86 750.63 780.775C748.657 772.795 747.706 764.349 746.174 756.253C742.884 756.245 739.554 756.125 736.268 756.234ZM760.63 758.241C762.698 766.226 766.682 777.479 771.522 784.122C771.948 777.029 770.331 769.254 769.595 762.156C766.642 760.626 763.77 759.338 760.63 758.241ZM687.115 763.84C684.079 767.218 676.745 779.322 676.961 783.588C676.974 783.849 677.023 784.107 677.054 784.367C680.06 783.79 683.161 783.338 686.129 782.611C686.497 777.865 688.412 767.734 687.115 763.84ZM774.286 764.102C774.829 772.08 775.396 781.661 777.756 789.271L778.354 789.186C778.718 784.297 779.663 769.772 776.937 765.912C776.294 765.002 775.26 764.559 774.286 764.102ZM679.283 797.801C677.558 808.26 676.128 818.828 674.109 829.232C672.976 835.069 670.904 841.056 670.447 846.979C670.258 849.431 670.162 852.645 671.697 854.73C675.075 859.317 683.096 860.336 688.392 860.906C704.524 862.641 764.969 861.96 776.386 854.664C776.957 853.321 777.145 852.429 776.945 850.97C775.012 836.865 770.636 823.533 770.824 809.08C760.655 815.229 739.69 822.274 727.744 824.986C711.553 818.623 693.871 807.381 679.283 797.801ZM349.741 818.16C345.431 820.806 342.174 829.718 340.544 834.329C345.926 837.504 351.913 839.653 357.563 842.311C368.856 847.623 381.212 855.579 393.683 857.227C396.339 857.553 399.047 858.084 401.709 857.66L402.03 857.015C399.726 851.823 390.875 846.862 386.539 842.974C379.325 836.506 373.031 828.779 365.612 822.591C363.7 820.996 361.629 819.662 359.302 818.754C356.061 817.489 353.141 817.725 349.741 818.16ZM385.713 820.087C383.963 820.518 382.798 820.774 381.863 822.483C380.739 824.535 380.36 827.349 379.842 829.627C390.012 842.115 403.743 848.042 419.513 849.653C421.633 849.867 423.755 850.069 425.877 850.257C427.285 850.357 428.456 850.724 429.704 850.013C427.339 846.629 411.592 837.03 406.796 832.963C403.23 829.937 400.818 825.813 397.309 822.832C395.744 821.503 393.756 820.472 391.727 820.104C389.812 819.756 387.653 819.933 385.713 820.087Z"/><path fill="#010101" d="M563.553 256.858C564.312 238.369 564.802 144.278 568.432 136.702C569.275 137.005 569.767 136.899 570.035 137.937C570.881 141.212 570.058 150.088 570.001 154.048C569.684 176.297 568.572 198.5 568.134 220.734C566.34 330.009 565.412 439.296 565.35 548.585C565.338 550.059 565.389 550.623 564.648 551.9C560.204 552.88 513.247 552.604 510.487 551.582C509.367 551.168 509.206 551.056 508.687 549.962L509.522 549.075C513.713 547.47 553.328 548.293 560.752 548.457C560.758 533.181 560.686 517.904 560.537 502.628C560.511 496.954 561.014 491.251 560.766 485.591L560.244 485.305C552.697 493.862 545.702 503.268 538.789 512.346C535.109 517.178 531.499 522.685 527.125 526.889C526.994 527.016 526.859 527.138 526.725 527.262C530.886 517.193 540.038 508.551 546.671 499.931C550.58 494.85 558.04 488.022 560.257 482.357C561.737 478.576 561.48 418.073 561.54 408.586C562.117 402.247 561.732 395.776 561.489 389.424C556.158 396.723 506.627 458.424 503.363 460.315C502.165 461.008 502.72 460.176 502.26 461.073L503.149 460.492L502.244 461.179C502.624 459.468 503.896 457.973 504.952 456.585C517.464 440.139 531.357 424.466 544.537 408.543C550.025 401.913 555.215 393.686 561.584 388.008C562.392 375.794 561.974 363.324 562.112 351.069C562.456 320.364 562.273 289.69 563.468 259C556.587 266.893 550.405 275.661 543.987 283.951C528.992 303.321 514.119 322.898 498.04 341.39C501.079 335.132 505.744 329.799 509.996 324.332C516.916 315.434 524.081 306.737 531.032 297.865L547.924 276.113C552.934 269.568 557.796 262.774 563.553 256.858Z"/><path fill="#010101" d="M337.866 180.375L337.667 179.006C339.996 173.6 358.69 150.262 363.409 146.425L363.495 147.178C361.659 152.87 343.035 174.439 337.866 180.375Z"/><path fill="#010101" d="M482.548 170.789L482.209 170.521C484.018 164.413 494.46 152.282 499.217 147.339L499.828 148.041C499.135 151.691 485.873 166.929 482.548 170.789Z"/><path fill="#010101" d="M703.37 198.991C702.559 198.022 702.806 198.581 702.645 197.306C705.808 191.476 711.527 185.766 715.706 180.564C723.745 170.558 731.564 159.734 740.454 150.48L740.685 151.011C738.644 156.36 709.893 191.288 703.37 198.991Z"/><path fill="#010101" d="M308.809 268.106L308.699 266.838C313.503 257.923 328.117 241.305 334.981 232.623L371.112 187.487C378.367 178.488 385.579 168.669 393.737 160.489C393.723 160.812 393.782 161.147 393.694 161.459C392.952 164.091 318.848 257.919 308.809 268.106Z"/><path fill="#010101" d="M515.385 219.407L514.848 218.591C516.245 214.736 549.037 173.16 553.889 167.386C554.524 168.036 554.316 167.623 554.349 168.696C546.493 180.65 537.527 191.949 528.758 203.237C524.625 208.557 520.451 214.967 515.385 219.407Z"/><path fill="#010101" d="M658.204 367.05C658.198 366.812 658.138 366.57 658.184 366.336C658.564 364.427 660.928 361.785 662.085 360.25C680.451 335.896 699.79 312.204 718.43 288.057C724.596 280.088 730.704 272.073 736.751 264.013C741.321 257.939 745.855 251.398 751.196 245.983C750.875 252.208 669.258 353.507 658.204 367.05Z"/><path fill="#010101" d="M447.287 298.657L446.672 297.77C448.426 292.428 463.385 274.954 467.858 269.907C468.292 270.351 468.097 270.044 468.186 270.947C463.895 278.769 453.497 292.067 447.287 298.657Z"/><path fill="#010101" d="M507.206 296.053L506.98 295.831C506.658 292.613 514.606 284.052 516.703 281.339L517.337 282.269C516.682 286.501 509.993 292.887 507.206 296.053Z"/><path fill="#010101" d="M317.327 304.655L316.757 304.844L316.633 304.066C319.487 298.212 327.958 287.183 332.516 282.325L332.981 282.577L333.073 283.405C329.509 290.704 322.694 298.534 317.327 304.655Z"/><path fill="#010101" d="M413.207 341.595L412.695 340.76C414.13 335.559 427.088 320.074 431.314 315.926L431.875 316.97C430.734 320.974 416.74 337.693 413.207 341.595Z"/><path fill="#FEFEFE" d="M352.718 400.712C354.821 391.175 358.123 381.381 361.261 372.128C362.349 383.051 364.401 393.927 365.111 404.868L359.008 402.937C356.836 402.451 354.783 401.53 352.718 400.712Z"/><path fill="#FEFEFE" d="M296.836 465.511C300.985 451.116 308.413 437.533 312.959 423.212C317.792 407.984 320.486 388.912 326.091 374.856C328.251 381.619 338.713 411.252 343.508 414.132C344.497 414.727 344.699 414.666 345.755 414.422L346.309 413.38C346.399 409.369 344.366 407.27 342.079 404.184C345.388 405.982 348.817 410.704 351.778 411.378C353.128 410.132 352.753 408.706 353.608 407.12C354.315 407.116 354.963 407.166 355.648 407.361C365.471 410.158 372.2 413.793 376.945 423.12C378.538 426.251 379.899 429.643 381.726 432.637C388 442.919 401.409 445.564 412.285 448.07C412.079 449.559 411.981 450.9 412.392 452.368C413.821 457.482 418.888 460.244 423.223 462.598C414.905 469.927 405.223 474.245 394.032 473.572C387.644 472.982 380.331 471.477 374.183 473.878C367.101 476.644 361.392 484.671 358.384 491.394C339.799 475.997 320.68 468.737 296.836 465.511ZM364.452 437.098C361.964 437.634 358.222 438.729 356.651 440.968C356.226 441.574 356.308 441.482 356.35 442.099C357.173 442.895 358.03 443.4 359.209 443.348C361.818 443.231 364.385 442.444 367.047 442.386C368.833 442.901 370.672 443.691 372.502 443.05L373.142 442.064C372.77 440.507 371.758 439.477 370.447 438.607C368.767 437.493 366.437 437.125 364.452 437.098Z"/><path fill="#010101" d="M436.544 421.207L435.875 420.798C435.981 417.766 463.86 384.924 467.437 381.286L468.173 381.794C467.608 384.958 440.225 416.814 436.544 421.207Z"/><path fill="#010101" d="M737.226 445.037C737.156 441.935 773.048 395.69 778.154 390.001C778.175 390.116 778.221 390.229 778.215 390.346C777.998 394.495 741.678 439.734 737.226 445.037Z"/><path fill="#010101" d="M466.886 419.277L466.176 418.249C467.049 413.982 478.036 400.392 481.735 397.364L482.222 397.942C482.292 400.683 469.293 416.116 466.886 419.277Z"/><path fill="#010101" d="M681.368 419.478L681.023 419.451L680.601 418.877C682.489 413.496 688.582 407.428 692.483 403.294L693.31 404C693.064 406.987 683.724 416.748 681.368 419.478Z"/><path fill="#010101" d="M367.047 442.386C364.385 442.444 361.818 443.231 359.209 443.348C358.03 443.4 357.173 442.895 356.35 442.099C356.308 441.482 356.226 441.574 356.651 440.968C358.222 438.729 361.964 437.634 364.452 437.098C366.437 437.125 368.767 437.493 370.447 438.607C371.758 439.477 372.77 440.507 373.142 442.064L372.502 443.05C370.672 443.691 368.833 442.901 367.047 442.386Z"/><path fill="#010101" d="M747.135 520.582C747.171 519.383 747.389 518.992 748.033 517.958C751.109 513.019 755.129 508.395 758.593 503.684C764.887 495.126 770.974 486.338 777.618 478.048C782.047 472.567 786.632 467.213 791.365 461.992C791.363 462.126 791.377 462.261 791.358 462.394C790.8 466.203 751.722 516.249 747.135 520.582Z"/><path fill="#FEFEFE" d="M288.642 483.161C289.308 478.552 290.339 473.96 291.222 469.387C318.928 474.614 333.518 478.764 355.967 496.412C354.024 499.359 350.798 502.347 350.035 505.834C349.78 506.897 349.987 506.71 348.992 507.468C346.676 507.259 332.443 499.69 328.307 498.028C315.493 492.877 300.479 490.377 288.642 483.161Z"/><path fill="#FEFEFE" d="M248.81 636.748C248.058 631.466 245.06 625.599 245.459 620.304C246.937 600.704 261.7 575.765 269.814 557.821C272.898 550.999 275.237 543.852 278.076 536.924C284.134 522.144 291.157 507.092 295.095 491.6C299.017 493.406 302.966 495.261 307.036 496.711C319.278 501.075 337.893 504.556 346.775 514.294C346.444 514.612 345.301 515.567 345.197 515.964C344.159 519.954 357.505 551.992 356.242 560.595L353.433 561.18C349.194 559.803 344.135 518.78 337.338 512.484C336.049 512.072 336.065 511.765 334.792 512.414C333.882 518.326 344.894 555.121 346.977 562.583C344.57 563.089 341.632 562.999 339.691 564.562C339.084 565.822 339.015 565.926 339.242 567.295C339.704 567.718 339.745 567.803 340.374 568.122C344.56 570.249 364.929 565.142 370.097 563.666C374.978 573.003 378.194 582.54 378.851 593.051C361.416 599.861 344.469 604.491 326.049 607.743C314.747 595.423 311.108 554.92 309.885 537.378C309.562 533.732 309.881 527.072 308.371 523.899C307.947 523.008 308.219 523.341 307.136 522.961C306.514 523.308 305.842 523.496 305.496 524.154C301.367 532.023 308.592 578.023 311.577 588.653C314.194 597.975 317.091 607.596 326.02 612.575C331.99 612.379 338.026 610.98 343.885 609.893C341.679 625.84 336.486 638.763 329.287 653.03C308.556 642.88 298.231 636.276 274.305 635.174C265.454 634.766 257.552 635.094 248.81 636.748Z"/><path fill="#FEFEFE" d="M353.707 509.708C355.488 506.318 357.687 503.345 359.975 500.283C363.391 501.861 365.602 507.951 367.006 511.271C364.907 512.796 362.442 513.976 360.176 515.245L359.314 515.437C357.18 513.86 355.474 511.678 353.707 509.708Z"/><path fill="#FEFEFE" d="M488.878 519.349L487.947 518.826C489.347 514.741 504.49 504.518 508.793 501.932C509.411 502.481 509.129 502.101 509.388 503.219C506.46 508.681 498.695 514.059 494.048 518.172L488.878 519.349Z"/><path fill="#FEFEFE" d="M238.563 686.843C236.967 670.699 233.463 655.033 228.852 639.496C225.242 627.329 220.699 615.322 216.532 603.33C211.507 588.873 206.717 574.311 201.57 559.9C198.357 550.904 194.711 541.993 191.873 532.873C190.637 528.902 187.939 521.737 188.661 517.569C189.202 514.444 190.273 511.789 192.869 509.889C197.428 510.778 200.667 513.022 203.911 516.273C216.522 528.911 228.781 568.379 232.66 586.403C234.676 595.77 235.45 605.378 237.397 614.758C241.987 636.876 248.052 658.754 247.936 681.541C245.704 682.281 243.637 683.241 241.514 684.238L238.563 686.843Z"/><path fill="#FEFEFE" d="M407.411 549.036C410.175 539.28 418.955 520.116 425.217 512.357C427.87 519.129 418.166 532.076 415.993 539.27C415.53 540.801 415.467 541.644 416.193 543.066C417.786 543.323 418.55 543.144 420.034 542.423C423.125 540.922 425.769 538.558 428.693 536.773C434.535 533.208 442.419 530.427 449.082 528.961C452.416 528.227 458.46 527.1 461.342 529.217C462.049 529.737 461.848 529.57 461.973 530.469C460.303 532.08 443.23 534.716 439.613 539.162L440.083 539.688C445.159 540.726 451.572 538.793 456.65 537.95C459.702 537.444 468.529 535.319 470.964 537.062L471.069 538.054C467.589 544.884 451.145 541.053 446.75 546.366C452.936 552.025 464.668 545.736 469.422 549.506L469.454 550.502C465.412 555.779 451.889 551.164 447.111 555.266L447.088 556.293C449.788 559.084 455.235 558.137 458.708 559.292C458.903 559.357 459.089 559.445 459.28 559.522L460.134 558.625L460.867 559.058L461.195 560.477C459.703 561.905 437.345 563.406 433.83 563.985C428.632 564.814 423.51 566.065 418.515 567.726C415.611 561.079 411.354 555.094 407.411 549.036Z"/><path fill="#FEFEFE" d="M365.842 559.118C364.59 559.366 363.546 559.697 362.314 559.189C360.077 553.77 359.535 547.07 357.942 541.347C355.79 533.614 352.526 525.988 350.704 518.201C350.365 516.75 350.567 515.673 350.923 514.245C351.73 514.752 351.62 514.615 352.201 515.182C353.803 516.746 354.917 518.407 355.82 520.449C358.721 527.013 365.731 552.16 365.842 559.118Z"/><path fill="#FEFEFE" d="M425.387 532.89L425.098 532.831L424.817 532.279C426.493 528.598 428.052 524.765 430.194 521.33L430.6 521.711C430.879 523.314 430.412 525.136 429.98 526.709C429.106 529.898 428.26 531.237 425.387 532.89Z"/><path fill="#FEFEFE" d="M775.404 696.586C768.404 663.528 782.982 592.796 796.88 562.07C802.948 548.655 811.539 531.648 826.13 526.08C826.771 526.05 827.414 526.04 828.057 526.049C829.76 526.088 831.189 526.567 832.366 527.866C835.084 530.865 835.125 535.517 834.895 539.334C833.477 562.827 818.779 586.764 810.28 608.495C802.763 627.716 796.621 647.165 792.346 667.384C790.921 674.124 789.466 680.912 788.505 687.734C787.679 693.598 787.349 699.542 786.337 705.375C786.168 706.344 786.304 706.356 785.515 707.058L784.644 706.247C781.497 703.092 778.416 699.871 775.404 696.586Z"/><path fill="#FEFEFE" d="M474.163 554.729L473.466 554.792C473.398 552.437 476.338 548.002 477.476 545.737C478.48 546.489 478.771 546.63 479.238 547.774C478.486 550.504 476.009 552.64 474.163 554.729Z"/><path fill="#FEFEFE" d="M409.321 578.945C408.589 579.002 408.31 578.942 407.627 578.741C405.392 570.816 402.2 563.314 399.004 555.742C399.654 554.24 401.019 553.637 402.352 552.818C404.967 553.494 406.125 555.727 407.453 557.932C409.983 562.134 413.989 570.626 412.571 575.464C412.042 577.269 410.826 578.045 409.321 578.945Z"/><path fill="#FEFEFE" d="M375.558 561.696L391.242 556.461L392.459 556.588C397.562 560.702 401.836 575.002 402.811 581.286C397.701 584.786 391.787 587.092 386.159 589.624C385.18 590.071 385.087 590.261 383.975 590.113C382.136 580.244 379.097 571.052 375.558 561.696Z"/><path fill="#FEFEFE" d="M521.065 579.679C520.734 573.873 520.306 567.173 518.454 561.646C524.215 562.849 530.688 561.159 536.598 561.442C536.295 566.932 535.134 572.635 534.343 578.089L534.361 578.875C531.924 580.563 524.255 579.712 521.065 579.679Z"/><path fill="#FEFEFE" d="M478.136 567.394C488.266 567.92 498.986 567.962 509.116 567.267C510.123 567.176 512.195 566.829 512.953 567.574C514.091 568.695 514.565 570.527 514.727 572.07C514.996 574.619 515.417 577.139 515.817 579.67L477.047 581.441L470.911 581.367C472.982 576.544 475.609 571.988 478.136 567.394Z"/><path fill="#FEFEFE" d="M242.255 608.11C240.371 594.472 237.191 580.993 233.769 567.673C241.161 569.153 251.489 568.573 258.94 567.398C255.412 576.721 250.421 585.555 246.726 594.876C244.729 599.034 243.474 603.676 242.255 608.11Z"/><path fill="#2E2E30" d="M405.254 586.98L404.862 586.44C406.272 585.161 408.524 584.677 410.306 584.072L410.581 584.265L410.51 584.854L405.254 586.98Z"/><path fill="#FEFEFE" d="M499.375 609.044C490.93 608.706 482.415 608.995 473.96 608.94C461.836 608.861 449.649 608.517 437.531 608.815C423.235 609.168 408.677 610.11 394.396 609.33C391.827 609.189 386.372 609.053 384.377 607.389C383.174 606.386 383.166 606.021 382.928 604.553C383.274 603.414 383.619 602.618 384.398 601.699C394.89 589.309 441.032 589.026 457.296 588.313C473.214 587.616 489.161 586.615 505.094 586.438C519.619 586.276 534.502 587.012 548.986 585.904L549.593 585.854C553.974 587.58 566.629 586.309 571.816 586.415C587.376 586.734 602.961 587.785 618.523 588.301C629.712 588.673 641.608 588.233 652.712 589.663C655.742 590.054 659.007 590.791 661.607 592.445C665.741 595.076 666.561 598.636 667.478 603.126C653.183 606.5 628.503 606.175 613.069 606.654L499.375 609.044Z"/><path fill="#FEFEFE" d="M362.981 604.731C364.947 604.098 366.851 603.289 368.767 602.52L369.544 602.985C370.769 620.807 368.246 645.089 361.318 661.488C359.427 665.962 357.571 669.687 352.883 671.604L352.185 671.002C352.546 665.63 355.865 659.554 357.121 654.144C360.921 637.945 362.887 621.369 362.981 604.731Z"/><path fill="#FEFEFE" d="M348.748 608.428C351.386 607.735 354.067 607.189 356.731 606.601L357.398 606.612L357.998 607.239C358.668 613.424 357.491 620.862 356.669 627.046C355.751 633.95 350.451 667.799 346.423 670.878C346.146 670.684 345.857 670.505 345.59 670.297C343.705 668.828 339.394 668.661 336.938 668.281C334.966 667.696 332.967 667.533 330.931 667.312C332.601 658.101 337.481 648.793 341.017 640.154C345.299 629.69 347.574 619.642 348.748 608.428Z"/><path fill="#FEFEFE" d="M370.442 820.039C373.477 811.13 378.899 803.208 382.858 794.713L400.928 756.081C404.81 747.669 408.427 739.061 412.639 730.811C418.249 719.825 425.549 708.868 429.257 697.047C430.902 691.8 431.696 686.859 430.184 681.448C428.066 673.871 422.095 670.548 415.679 667.007C417.165 667.102 418.522 667.32 419.945 667.776C425.573 669.581 430.787 672.696 433.471 678.183C435.867 683.083 436.045 689.19 434.696 694.401C431.148 708.116 422.723 721.164 416.461 733.828C407.216 752.527 398.551 771.505 389.831 790.449C384.7 801.595 378.868 812.685 374.842 824.281C373.136 823.207 371.803 821.512 370.442 820.039Z"/><path fill="#FEFEFE" d="M745.139 747.463C742.623 730.249 745.299 712.138 737.81 695.941C736.347 692.778 733.97 690.035 730.56 688.963C726.909 687.816 722.442 688.452 719.099 690.241C710.373 694.914 709.466 704.984 707.064 713.549C706.544 715.404 706.16 716.872 704.407 717.863L703.617 717.486C703.568 717.29 703.5 717.098 703.468 716.899C702.571 711.308 707.592 696.373 710.815 691.238C714.618 685.179 719.214 682.095 726.087 680.578C729.527 680.294 732.349 680.942 735.352 682.743C748.656 690.721 747.072 713.563 748.889 726.658C750.203 736.132 752.094 745.816 754.293 755.114C756.344 763.788 761.169 771.365 763.266 779.834C760.939 780.268 758.635 780.784 756.325 781.303C756.297 781.206 756.27 781.11 756.241 781.013C754.46 775.18 752.915 754.729 749.315 751.59C748.21 751.251 747.04 750.977 746.078 750.314C745.38 749.832 745.318 748.287 745.139 747.463Z"/><path fill="#FEFEFE" d="M350.896 690.886C353.381 688.516 355.608 686.142 357.739 683.448C364.459 683.366 381.007 684.92 387.264 687.296C389.609 688.187 391.331 689.454 392.264 691.848C397.142 704.35 374.261 745.998 368.971 758.831C368.495 759.794 368.224 761.046 367.192 761.406C365.67 747.205 366.51 732.165 366.665 717.886C369.567 717.546 372.547 717.473 375.465 717.302C376.395 716.686 377.351 716.068 378.209 715.353C380.325 713.588 381.28 710.99 381.465 708.3C381.734 704.379 379.866 700.277 377.335 697.371C370.662 689.713 360.017 691.47 350.896 690.886Z"/><path fill="#FEFEFE" d="M359.875 712.482C350.937 711.918 341.561 712.526 332.584 712.601C313.418 712.896 294.249 712.962 275.082 712.799C267.526 712.72 259.515 713.149 252.016 712.289C249.292 711.977 245.554 711.466 243.372 709.763C241.237 708.096 240.37 704.761 239.964 702.229C239.383 698.607 239.259 695.269 241.644 692.268C244.802 688.293 249.689 686.793 254.503 686.162C275.863 685.303 298.769 691.84 320.036 694.937C329.088 696.255 339.333 696.354 348.499 696.454C355.42 696.53 364.671 695.734 370.817 699.507C373.18 700.957 374.727 703.126 375.262 705.845C375.644 707.788 375.631 709.28 374.533 710.912C370.144 713.207 364.709 712.5 359.875 712.482Z"/><path fill="#FEFEFE" d="M726.203 716.501C722.034 716.459 717.912 717.06 713.736 716.769L713.293 716.204C713.148 710.957 715.115 704.017 717.512 699.372C719.197 696.107 720.91 695.525 724.241 694.462C726.065 694.071 728.592 694.667 730.474 694.859C734.609 700.803 736.179 708.427 738.194 715.287C734.302 716.083 730.167 716.193 726.203 716.501Z"/><path fill="#FEFEFE" d="M753.271 715.567C752.985 708.811 752.119 702.363 750.89 695.727C756.41 696.118 762.485 696.529 767.574 698.853C773.213 701.428 779.122 707.213 781.418 713.023L780.53 713.509C771.529 714.024 762.156 714.054 753.271 715.567Z"/><path fill="#FEFEFE" d="M658.125 716.595C654.018 716.482 649.136 716.881 645.549 714.525C644.032 713.529 642.494 712.127 642.249 710.244C642.124 709.29 642.63 708.202 643.265 707.49C649.49 700.507 679.995 699.397 689.359 698.713C693.363 698.299 697.544 698.43 701.575 698.332C699.153 704.631 697.663 711.236 696.137 717.794C683.777 717.996 670.348 718.319 658.125 716.595Z"/><path fill="#FEFEFE" d="M245.275 857.488C244.269 855.286 243.975 852.761 243.789 850.361C242.53 834.185 242.318 817.601 241.968 801.372C241.508 780.073 240.949 758.803 240.889 737.495C240.872 731.532 239.605 721.449 240.874 716.119C242.532 716.544 244.127 717.455 245.669 718.2C245.53 733.83 246.193 749.495 246.352 765.128C246.586 787.004 246.475 808.881 246.018 830.753C245.927 837.583 246.919 851.723 245.275 857.488Z"/><path fill="#FEFEFE" d="M359.955 780.254L359.432 780.297C359.33 779.785 359.28 779.64 359.282 779.049C359.291 776.645 359.977 774.058 360.142 771.624C360.511 766.158 360.406 760.595 360.445 755.114C360.525 743.761 359.475 732.023 360.368 720.741C360.491 719.179 360.6 719.017 361.626 717.897C361.837 718.109 361.984 718.235 362.135 718.527C363.114 720.419 362.414 763.184 362.109 767.571C361.824 771.675 361.516 776.417 359.955 780.254Z"/><path fill="#FEFEFE" d="M753.957 720.037L760.618 719.78L772.177 719.245C772.484 731.924 772.41 744.828 771.592 757.486L767.18 755.289C764.821 754.112 762.489 753.237 759.997 752.397C756.735 742.274 755.905 730.557 753.957 720.037Z"/><path fill="#FEFEFE" d="M777.12 760.218C776.265 755.719 775.746 723.208 777.106 720.149L778.522 719.799C780.652 719.538 782.906 719.032 784.77 720.251C785.548 724.887 785.122 729.959 785.163 734.656L785.175 768.292C785.234 784.753 785.024 801.272 785.275 817.724C785.432 827.998 786.444 845.204 785.091 854.672C784.032 855.099 784.11 855.332 782.995 854.859C782.04 853.573 782.067 851.927 781.894 850.383C779.832 837.197 774.995 821.988 776.219 808.644C776.415 806.515 778.498 804.722 779.262 802.661C782.776 793.18 784.543 782.384 783.127 772.317C782.446 767.477 781.106 763.263 777.12 760.218Z"/><path fill="#FEFEFE" d="M711.667 722.498C716.955 722.504 722.272 722.625 727.552 722.288C730.6 722.04 733.684 721.967 736.74 721.811C736.012 731.06 737.188 741.232 738.172 750.458C730.747 750.441 723.504 750.457 716.119 751.369C713.283 751.702 710.104 752.408 707.276 751.949C705.445 747.477 710.315 727.6 711.667 722.498Z"/><path fill="#FEFEFE" d="M659.047 858.328C658.869 858.439 658.713 858.6 658.512 858.661C657.325 859.023 656.658 858.937 655.655 858.37C654.587 856.391 654.363 763.661 654.406 751.556C654.44 741.938 655.033 732.221 654.823 722.625C656.474 722.861 657.105 722.803 658.42 723.88C660.102 728.003 659.627 844.75 659.047 858.328Z"/><path fill="#FEFEFE" d="M696.247 756.159L694.976 756.6C693.551 752.921 700.426 727.934 701.869 722.713C703.019 722.778 703.88 722.933 704.964 723.323C705.503 726.44 703.548 732.184 703.045 735.495C702.16 741.311 702.342 747.606 700.798 753.265L696.247 756.159Z"/><path fill="#FEFEFE" d="M664.759 843.534C663.525 828.277 663.995 812.839 664.1 797.547C664.186 784.899 663.932 772.245 663.959 759.594C663.985 747.602 664.278 735.267 663.072 723.325C673.357 723.547 684.789 724.827 694.955 723.454C692.852 734.838 689.721 745.713 688.386 757.292C681.253 762.165 670.471 776.801 671.691 785.688C672.173 789.2 674.87 792.999 674.771 796.44C674.604 802.262 672.212 809.125 670.917 814.882C669.508 824.595 667.334 834.062 664.759 843.534Z"/><path fill="#FEFEFE" d="M693.667 761.826C708.026 757.748 721.424 756.588 736.268 756.234C739.554 756.125 742.884 756.245 746.174 756.253C747.706 764.349 748.657 772.795 750.63 780.775C751.146 782.86 751.808 785.665 753.766 786.825C760.013 787.126 760.985 791.462 765.62 794.422C766.673 795.094 766.845 795.062 767.956 794.755C768.459 794.045 768.894 793.719 768.917 792.806C769.021 788.809 763.655 784.411 761.108 781.82C765.669 784.533 769.431 788.263 773.22 791.935L774.865 798.537C764.213 808.446 747.561 812.731 734.086 817.672C731.637 818.447 729.134 818.952 726.625 819.493C725.202 818.996 723.792 818.378 722.44 817.708C716.006 814.514 679.958 794.88 678.418 790.451L679.296 789.269C680.373 788.801 681.147 789.082 682.22 789.371C683.152 789.622 684.119 789.949 685.08 790.059C686.396 790.211 687.587 789.65 688.542 788.781C692.968 784.752 693.215 768.003 693.667 761.826ZM718.447 776.05C716.129 776.917 714.408 778.17 713.452 780.529C712.867 781.973 713.042 783.652 713.751 785.012C714.598 786.638 716.062 787.834 717.86 788.239C718.999 788.495 720.241 788.435 721.402 788.418C723.747 787.581 725.617 786.825 726.716 784.444C727.398 782.966 727.353 781.344 726.683 779.881C725.895 778.159 724.286 776.993 722.569 776.3C721.365 775.814 719.721 776.004 718.447 776.05Z"/><path fill="#FEFEFE" d="M771.522 784.122C766.682 777.479 762.698 766.226 760.63 758.241C763.77 759.338 766.642 760.626 769.595 762.156C770.331 769.254 771.948 777.029 771.522 784.122Z"/><path fill="#FEFEFE" d="M677.054 784.367C677.023 784.107 676.974 783.849 676.961 783.588C676.745 779.322 684.079 767.218 687.115 763.84C688.412 767.734 686.497 777.865 686.129 782.611C683.161 783.338 680.06 783.79 677.054 784.367Z"/><path fill="#FEFEFE" d="M778.354 789.186L777.756 789.271C775.396 781.661 774.829 772.08 774.286 764.102C775.26 764.559 776.294 765.002 776.937 765.912C779.663 769.772 778.718 784.297 778.354 789.186Z"/><path fill="#010101" d="M721.402 788.418C720.241 788.435 718.999 788.495 717.86 788.239C716.062 787.834 714.598 786.638 713.751 785.012C713.042 783.652 712.867 781.973 713.452 780.529C714.408 778.17 716.129 776.917 718.447 776.05C719.721 776.004 721.365 775.814 722.569 776.3C724.286 776.993 725.895 778.159 726.683 779.881C727.353 781.344 727.398 782.966 726.716 784.444C725.617 786.825 723.747 787.581 721.402 788.418Z"/><path fill="#FEFEFE" d="M776.386 854.664C764.969 861.96 704.524 862.641 688.392 860.906C683.096 860.336 675.075 859.317 671.697 854.73C670.162 852.645 670.258 849.431 670.447 846.979C670.904 841.056 672.976 835.069 674.109 829.232C676.128 818.828 677.558 808.26 679.283 797.801C693.871 807.381 711.553 818.623 727.744 824.986C739.69 822.274 760.655 815.229 770.824 809.08C770.636 823.533 775.012 836.865 776.945 850.97C777.145 852.429 776.957 853.321 776.386 854.664Z"/><path fill="#FEFEFE" d="M340.544 834.329C342.174 829.718 345.431 820.806 349.741 818.16C353.141 817.725 356.061 817.489 359.302 818.754C361.629 819.662 363.7 820.996 365.612 822.591C373.031 828.779 379.325 836.506 386.539 842.974C390.875 846.862 399.726 851.823 402.03 857.015L401.709 857.66C399.047 858.084 396.339 857.553 393.683 857.227C381.212 855.579 368.856 847.623 357.563 842.311C351.913 839.653 345.926 837.504 340.544 834.329Z"/><path fill="#FEFEFE" d="M379.842 829.627C380.36 827.349 380.739 824.535 381.863 822.483C382.798 820.774 383.963 820.518 385.713 820.087C387.653 819.933 389.812 819.756 391.727 820.104C393.756 820.472 395.744 821.503 397.309 822.832C400.818 825.813 403.23 829.937 406.796 832.963C411.592 837.03 427.339 846.629 429.704 850.013C428.456 850.724 427.285 850.357 425.877 850.257C423.755 850.069 421.633 849.867 419.513 849.653C403.743 848.042 390.012 842.115 379.842 829.627Z"/><path fill="#FEFEFE" d="M465.469 857.511C478.807 854.908 494.432 851.011 505.562 842.847C509.41 840.025 513.388 834.921 517.71 833.175C519.695 832.373 521.586 833.147 523.276 834.261C526.897 836.651 529.928 840.216 533.727 842.296C546.425 849.245 560.193 851.49 574.192 854.235C580.532 855.478 586.562 856.564 592.593 858.965C551.762 860.257 510.954 857.337 470.135 858.487L465.469 857.511Z"/><path fill="#8B888A" d="M470.135 858.487C467.355 858.613 464.687 858.643 461.994 857.868C463.101 857.357 464.277 857.494 465.469 857.511L470.135 858.487Z"/></svg>