<?xml version="1.0" encoding="utf-8" ?><svg xmlns="http://www.w3.org/2000/svg" xmlns:xlink="http://www.w3.org/1999/xlink" width="1024" height="1024" viewBox="0 0 1024 1024"><path fill="#FEFEFE" d="M0 0L117.483 0C124.021 7.18417 130.481 14.3694 135.885 22.4728C148.248 41.0123 156.16 65.5284 158.664 87.6191C117.437 92.5578 68.612 92.7024 28.072 83.4378C18.3778 81.2224 9.48985 77.2842 0 74.6774L0 0Z"/><path d="M117.483 0L129.322 0C145.535 17.6731 156.875 40.6298 162.766 63.8013C164.691 71.3759 165.712 79.0991 167.48 86.6899C203.759 82.6786 237.887 74.3018 272.513 62.9334C288.814 57.5816 305.181 51.8095 320.93 44.979C334.371 39.1493 347.466 32.4027 360.566 25.8535C376.48 17.8968 392.99 10.0529 407.703 0L493.766 0C496.802 14.3994 499.67 28.8335 502.37 43.2994C503.299 48.3357 504.904 54.1114 505.178 59.1802C505.24 60.3212 504.994 61.6167 504.335 62.5694C503.459 63.8352 502.248 64.1754 500.871 64.5933C499.002 64.2938 497.721 63.6726 496.166 62.5851C485.174 54.8971 432.418 1.43129 426.091 0.735879C422.781 0.372074 403.273 12.7234 399.368 15.4206C399.206 15.5328 399.048 15.6525 398.888 15.7684L398.918 16.5059C399.274 24.3546 400.932 32.2034 401.718 40.0332C403.244 55.248 404.176 70.5293 405.593 85.758C406.193 92.1977 408.081 100.847 407.63 106.947C407.541 108.154 407.141 109.11 406.28 109.974C405.349 110.906 404.079 111.418 402.762 111.395C401.395 111.383 400.257 110.89 399.196 110.073C395.411 107.159 392.165 103.088 388.714 99.7584C376.074 87.5616 364.45 74.5711 352.118 62.0913C347.264 57.1784 342.478 51.7876 337.076 47.4916C327.398 50.9955 318.17 55.8104 308.459 59.3849C307.789 84.2778 306.62 109.155 304.953 134.001C304.468 141.227 304.838 149.055 303.715 156.157C303.55 157.204 303.308 158.193 302.505 158.954C301.424 159.979 299.905 160.242 298.475 160.016C292.911 159.136 283.77 144.549 280.538 139.662C267.757 120.335 256.166 99.8394 242.293 81.278C234.957 83.3144 203.759 89.1414 199.925 92.0992C197.282 97.4773 197.025 105.549 195.741 111.505C191.616 130.626 186.692 149.736 183.448 169.028C182.552 174.353 183.074 180.433 181.603 185.534C181.214 186.884 180.553 187.589 179.252 188.17C177.678 188.871 175.26 188.593 173.791 187.747C167.974 184.397 162.268 165.868 159.176 159.419C147.517 179.952 143.812 186.685 122.789 198.253C124.775 204.08 131.487 222.523 129.441 227.636C127.465 229.548 124.281 228.564 122.775 230.739C125.084 247.049 131.34 262.693 132.162 279.262C162.009 302.635 183.44 337.069 188.013 375.075C191.73 405.965 187.156 439.281 176.108 468.333C180.268 479.108 182.972 490.969 185.4 502.245C190.443 525.665 193.784 549.172 198.006 572.715C200.507 586.668 216.268 666.322 214.562 675.671C213.743 676.818 213.079 677.409 211.564 677.447C210.82 677.466 209.963 677.441 209.434 676.862C207.936 675.219 207.335 672.169 206.833 670.032C202.772 652.733 200.391 634.933 197.355 617.429C191.085 581.286 185.043 545.017 178.16 508.986C176.379 499.664 173.397 490.671 171.479 481.424C169.081 487.069 166.804 492.867 163.966 498.307C161.302 503.412 158.074 508.207 155.524 513.378C154.277 515.907 154.105 518.836 152.653 521.166C157.47 537.293 161.376 553.653 165.373 569.997C170.277 590.052 175.202 610.394 178.624 630.753C179.451 635.67 181.202 641.04 181.279 646.009C181.311 648.116 180.813 650.303 179.746 652.131C179.043 653.334 177.965 654.478 176.575 654.84C175.111 655.221 173.716 654.594 172.61 653.674C170.875 652.232 169.641 650.091 168.626 648.101C164.703 640.409 161.638 632.083 158.04 624.211C150.25 607.166 142.093 590.085 135.053 572.732C128.789 556.865 122.717 540.923 116.838 524.909C104.359 521.108 91.892 516.712 80.3676 510.527C58.1974 498.628 37.7693 478.922 23.4019 458.455C16.4743 448.586 10.5789 437.962 4.90674 427.337C3.22657 424.19 1.7597 420.861 0 417.77L0 396.969C3.89488 403.895 6.78095 411.613 10.4367 418.71C26.9684 450.808 44.1337 475.677 74.271 496.56C92.6559 509.298 120.153 521.349 142.79 517.25C150.039 509.638 164.037 480.216 166.61 469.587C167.265 466.879 164.405 464.559 165.74 461.621C166.262 460.47 167.085 460.228 168.177 459.813C169.247 459.407 169.847 459.206 170.61 458.297C180.094 430.681 183.531 396.743 178.029 367.939C171.873 335.712 151.457 302.688 124.026 284.319C105.708 272.051 84.7938 267.363 63.128 271.787C33.5306 277.83 15.8039 299.297 0 323.152L0 307.045C11.4633 289.356 30.7574 273.207 50.8181 266.493C67.9959 260.745 89.0912 260.516 106.312 266.212C112.097 268.126 117.494 270.923 122.945 273.615C121.291 259.611 117.339 245.342 113.364 231.855C107.751 232.331 91.6576 236.023 87.4105 233.314C86.3309 232.626 85.6217 231.78 85.1185 230.619C82.711 225.062 81.9045 211.392 79.4568 203.919L79.2209 203.213C77.4574 203.168 75.6805 203.11 73.9258 202.921C55.5745 200.941 11.9078 178.416 0 163.665L0 153.586C5.30727 157.534 10.1251 162.206 15.3812 166.251C27.4801 175.562 41.6469 183.829 55.8373 189.416C72.693 196.052 82.2567 196.767 100.021 194.947C107.025 194.23 114.089 193.164 120.577 190.296C137.979 182.603 146.922 165.653 153.524 148.82C151.365 142.63 134.789 101.154 132.303 99.7859C128.096 97.4719 114.404 99.0771 109.437 100.344C105.509 108.781 102.162 117.576 98.5773 126.168C93.4776 138.514 88.1776 150.777 82.6795 162.951C79.536 170.033 76.6751 177.762 72.7969 184.457C71.8504 186.091 70.3172 188.762 68.3753 189.323C66.0952 189.982 63.1696 188.215 61.1465 187.291C58.0543 177.006 56.2754 166.019 53.7907 155.538C49.026 135.439 43.8752 115.291 40.0102 95.0025C36.2095 93.5198 29.8602 91.6919 25.8011 91.6998C24.0423 91.7032 22.1135 93.1171 20.851 94.2272C14.2831 100.003 6.75103 110.134 0 116.909L0 74.6774C9.48985 77.2842 18.3778 81.2224 28.072 83.4378C68.612 92.7024 117.437 92.5578 158.664 87.6191C156.16 65.5284 148.248 41.0123 135.885 22.4728C130.481 14.3694 124.021 7.18417 117.483 0ZM112.767 201.204C104.665 202.492 96.6697 203.565 88.4824 204.119L88.687 204.792C90.4672 210.764 90.9096 219.999 93.2653 225.274C94.6266 225.63 95.6176 225.512 96.9761 225.317C104.943 224.218 113.532 223.583 121.261 221.312C120.159 217.763 116.268 202.449 113.979 201.121L112.767 201.204ZM143.355 525.667C137.763 526.728 132.178 526.6 126.51 526.47C128.604 534.107 131.868 541.611 134.689 549.01C143.773 572.268 153.682 595.196 164.395 617.75C166.256 621.802 167.981 626.017 170.121 629.926C166.835 611.779 161.892 593.832 157.63 575.888C154.51 562.752 151.397 549.689 147.695 536.704C146.667 533.096 145.93 529.416 144.592 525.901C143.61 525.502 144.027 525.46 143.355 525.667Z"/><path fill="#FEFEFE" d="M129.322 0L407.703 0C392.99 10.0529 376.48 17.8968 360.566 25.8535C347.466 32.4027 334.371 39.1493 320.93 44.979C305.181 51.8095 288.814 57.5816 272.513 62.9334C237.887 74.3018 203.759 82.6786 167.48 86.6899C165.712 79.0991 164.691 71.3759 162.766 63.8013C156.875 40.6298 145.535 17.6731 129.322 0Z"/><path fill="#FEFEFE" d="M493.766 0L571.092 0C569.957 5.86019 564.086 29.5822 567.483 34.2129C568.359 35.4076 569.843 36.0579 571.297 36.1131C573.011 36.1782 574.525 35.5512 575.954 34.6536C584.946 29.004 603.928 10.3455 611.965 2.27461C612.715 1.52087 613.461 0.762654 614.202 0L670.961 0C668.344 12.0715 667.712 24.2498 666.012 36.4433C664.652 46.2053 656.134 84.3563 660.523 91.0398C661.195 92.0629 662.002 92.7876 663.237 93.0191C665.639 93.4692 668.857 91.0967 670.59 89.634C682.395 79.672 694.777 66.6722 705.707 55.5766C711.481 49.7144 721.596 38.6866 728.365 34.5908C733.599 37.6763 748.694 47.0324 752.504 51.1114C752.298 73.4072 751.259 95.6217 751.357 117.945C751.387 124.615 750.627 132.535 751.639 139.086C751.929 140.896 752.796 142.565 754.11 143.842C755.21 144.903 756.616 145.61 758.171 145.572C760.057 145.527 761.603 143.953 762.888 142.731C770.87 135.146 777.885 125.949 785.195 117.692C795.237 106.352 805.68 95.3697 815.491 83.8287C821.683 86.3412 827.65 89.3195 833.751 92.0348C837.544 93.7228 841.563 95.1136 845.242 97.023C838.209 126.564 837.268 149.435 846.422 178.767C849.065 187.235 852.127 195.592 856.824 203.163C861.562 210.802 868.182 219.008 875.892 223.819C879.335 225.967 883.069 227.666 886.453 229.895C853.986 240.813 831.908 257.039 816.479 288.303C811.194 299.167 807.183 310.607 804.527 322.394C798.878 347.961 798.445 384.76 806.959 409.396C815.789 434.947 828.395 450.438 850.457 465.635L850.442 466.327C850.082 479.856 846.509 493.83 844.328 507.166C841.464 524.284 839.696 541.566 839.032 558.908C838.848 563.117 837.773 573.907 840.719 577.095C841.111 577.519 841.596 577.771 842.08 578.061C843.349 577.901 843.569 577.813 844.351 576.67C846.695 573.246 846.463 554.449 846.751 549.45C847.87 530.052 851.086 511.32 854.262 492.187C855.53 484.555 856.358 476.829 857.745 469.225C861.893 470.591 866.125 471.843 870.211 473.378L869.989 474.038C867.504 481.283 854.846 502.281 858.606 508.657C859.437 510.067 860.88 510.77 862.445 510.986C865.475 511.403 868.839 510.151 871.61 509.029C869.194 519.123 855.829 577.954 858.285 583.298C858.791 584.399 859.809 585.093 860.964 585.357C862.196 585.639 863.07 585.077 864.015 584.415C865.642 578.675 866.113 572.389 867.213 566.502C870.677 547.963 873.569 528.85 879.322 510.863C883.952 513.515 893.196 519.742 898.545 518.354C899.554 518.092 899.879 517.693 900.487 516.834C904.126 511.695 900.496 483.008 899.094 476.591C927.926 474.461 955.609 464.972 975.001 442.636C991.006 424.201 999.649 401.332 1005.84 378.046C1007.98 369.966 1009.98 361.937 1010.95 353.611C1012.03 344.313 1012.05 335.079 1011.36 325.752C1009.27 297.611 996.032 266.196 974.385 247.667C966.405 240.836 956.704 236.238 947.145 232.087C951.773 230.005 956.604 228.423 961.294 226.484C971.376 222.25 981.373 217.819 991.28 213.191C1002.61 207.78 1013.05 201.192 1024 195.166L1024 1024L0 1024L0 417.77C1.7597 420.861 3.22657 424.19 4.90674 427.337C10.5789 437.962 16.4743 448.586 23.4019 458.455C37.7693 478.922 58.1974 498.628 80.3676 510.527C91.892 516.712 104.359 521.108 116.838 524.909C122.717 540.923 128.789 556.865 135.053 572.732C142.093 590.085 150.25 607.166 158.04 624.211C161.638 632.083 164.703 640.409 168.626 648.101C169.641 650.091 170.875 652.232 172.61 653.674C173.716 654.594 175.111 655.221 176.575 654.84C177.965 654.478 179.043 653.334 179.746 652.131C180.813 650.303 181.311 648.116 181.279 646.009C181.202 641.04 179.451 635.67 178.624 630.753C175.202 610.394 170.277 590.052 165.373 569.997C161.376 553.653 157.47 537.293 152.653 521.166C154.105 518.836 154.277 515.907 155.524 513.378C158.074 508.207 161.302 503.412 163.966 498.307C166.804 492.867 169.081 487.069 171.479 481.424C173.397 490.671 176.379 499.664 178.16 508.986C185.043 545.017 191.085 581.286 197.355 617.429C200.391 634.933 202.772 652.733 206.833 670.032C207.335 672.169 207.936 675.219 209.434 676.862C209.963 677.441 210.82 677.466 211.564 677.447C213.079 677.409 213.743 676.818 214.562 675.671C216.268 666.322 200.507 586.668 198.006 572.715C193.784 549.172 190.443 525.665 185.4 502.245C182.972 490.969 180.268 479.108 176.108 468.333C187.156 439.281 191.73 405.965 188.013 375.075C183.44 337.069 162.009 302.635 132.162 279.262C131.34 262.693 125.084 247.049 122.775 230.739C124.281 228.564 127.465 229.548 129.441 227.636C131.487 222.523 124.775 204.08 122.789 198.253C143.812 186.685 147.517 179.952 159.176 159.419C162.268 165.868 167.974 184.397 173.791 187.747C175.26 188.593 177.678 188.871 179.252 188.17C180.553 187.589 181.214 186.884 181.603 185.534C183.074 180.433 182.552 174.353 183.448 169.028C186.692 149.736 191.616 130.626 195.741 111.505C197.025 105.549 197.282 97.4773 199.925 92.0992C203.759 89.1414 234.957 83.3144 242.293 81.278C256.166 99.8394 267.757 120.335 280.538 139.662C283.77 144.549 292.911 159.136 298.475 160.016C299.905 160.242 301.424 159.979 302.505 158.954C303.308 158.193 303.55 157.204 303.715 156.157C304.838 149.055 304.468 141.227 304.953 134.001C306.62 109.155 307.789 84.2778 308.459 59.3849C318.17 55.8104 327.398 50.9955 337.076 47.4916C342.478 51.7876 347.264 57.1784 352.118 62.0913C364.45 74.5711 376.074 87.5616 388.714 99.7584C392.165 103.088 395.411 107.159 399.196 110.073C400.257 110.89 401.395 111.383 402.762 111.395C404.079 111.418 405.349 110.906 406.28 109.974C407.141 109.11 407.541 108.154 407.63 106.947C408.081 100.847 406.193 92.1977 405.593 85.758C404.176 70.5293 403.244 55.248 401.718 40.0332C400.932 32.2034 399.274 24.3546 398.918 16.5059L398.888 15.7684C399.048 15.6525 399.206 15.5328 399.368 15.4206C403.273 12.7234 422.781 0.372074 426.091 0.735879C432.418 1.43129 485.174 54.8971 496.166 62.5851C497.721 63.6726 499.002 64.2938 500.871 64.5933C502.248 64.1754 503.459 63.8352 504.335 62.5694C504.994 61.6167 505.24 60.3212 505.178 59.1802C504.904 54.1114 503.299 48.3357 502.37 43.2994C499.67 28.8335 496.802 14.3994 493.766 0ZM445.577 272.174C433.486 273.709 423.679 279.472 416.259 289.134C411.444 295.403 408.32 302.382 409.367 310.489C410.628 320.257 416.726 327.025 424.231 332.727C403.602 361.3 386.8 403.905 392.508 439.471C393.183 443.77 394.372 447.971 396.048 451.987C383.834 441.835 376.119 426.232 368.098 412.768C364.298 406.389 360.628 400.074 355.106 395.009C362.476 385.753 366.75 371.797 365.289 359.971C364.824 356.206 363.592 351.317 360.426 348.925C358.723 347.637 356.539 347.484 354.509 347.875C351.033 348.543 348.74 350.13 346.061 352.334C343.692 343.978 339.816 328.176 331.588 323.766C329.901 322.862 328.092 322.711 326.289 323.357C324.387 324.039 322.959 325.293 322.123 327.141C321.074 329.455 321.092 333.011 320.893 335.557C317.904 332.578 313.369 327.817 308.897 327.611C307.369 327.541 306.144 328.063 305.134 329.203C303.186 331.403 302.961 334.672 302.564 337.457C298.9 337.37 293.957 335.158 290.774 337.968C289.119 339.429 289.081 341.778 289.21 343.807C289.364 346.237 290.284 348.27 291.108 350.515L284.976 350.404C282.178 352.891 280.772 354.406 280.557 358.252C280.035 367.618 292.021 394.445 297.248 402.342C297.239 403.791 297.019 404.121 295.949 405.107C295.154 405.839 294.136 406.423 293.591 407.388C290.585 412.713 289.159 423.98 288.591 430.061C284.615 472.636 299.246 519.327 326.63 552.165C334.42 561.506 343.548 570.56 353.567 577.463C348.235 599.066 346.255 619.264 347.706 641.538C348.593 655.146 352.191 670.023 356.759 682.894C358.728 688.442 361.839 693.634 362.817 699.488C363.716 704.869 363.416 710.691 363.511 716.15C363.652 724.281 363.909 732.455 364.644 740.556C366.453 761.266 368.901 781.914 371.983 802.472C373.624 813.25 375.769 823.963 377.572 834.716C379.674 847.255 382.132 859.654 384.725 872.099C386.255 879.439 387.543 886.884 389.839 894.031C385.478 893.959 378.674 893.592 375.166 896.553C374.5 897.704 374.284 898.586 374.604 899.887C375.682 904.275 378.809 906.45 380.894 910.146C368.776 915.43 321.037 929.767 316.472 941.064C314.714 945.415 315.248 949.921 317.158 954.122C319.019 958.216 322.287 961.012 326.509 962.457C332.771 964.6 340.114 965.185 346.673 966.015C356.596 967.271 366.631 968.455 376.648 968.488C395.19 968.548 413.75 965.448 432.07 962.924C440.51 961.761 451.166 961.438 458.812 957.661C461.595 956.286 462.69 954.42 463.551 951.48C465.807 943.78 465.625 922.465 465.264 913.765C465.023 907.958 464.227 901.749 464.996 895.975C465.745 890.342 473.162 876.811 475.751 870.712C479.357 862.216 482.572 853.556 486.157 845.055C486.907 846.314 487.637 847.583 488.453 848.801C493.539 849.515 529.079 849.414 531.833 846.842C532.806 845.934 532.955 845.513 532.92 844.29C530.85 842.025 527.162 841.699 524.243 841.568C512.02 841.019 499.213 841.881 486.997 842.599L487.203 841.911C489.947 832.97 509.183 792.435 506.966 786.759C506.287 785.022 504.782 784.371 503.196 783.726C501.729 783.87 500.873 784.133 499.867 785.268C497.617 787.806 467.867 862.17 464.659 871.571L418.358 869.746C410.291 869.501 401.569 870.094 393.598 869.05C389.932 850.589 387.121 832.009 384.084 813.441C381.981 800.577 379.236 787.238 378.313 774.26C392.951 772.684 417.317 762.628 426.728 750.896C427.621 749.783 428.542 748.178 428.247 746.693C428.078 745.84 427.475 745.288 426.909 744.683C425.022 743.889 423.878 743.986 422.05 744.774C418.285 746.397 415.229 749.391 411.755 751.511C401.386 757.841 389.074 763.102 377.277 765.884C373.721 747.471 375.048 727.288 372.814 708.647C417.902 745.706 492.182 750.962 548.123 745.532C564.439 743.948 580.091 741.156 596.085 737.656C621.548 730.617 643.192 723.671 664.312 707.013C666.081 723.66 667.035 740.903 665.508 757.603C656.471 756.336 647.799 755.127 639.405 751.31C636.312 749.904 633.21 748.294 630.396 746.383C626.273 743.583 621.77 737.827 616.369 738.939C615.455 739.703 615.021 740.058 614.894 741.356C614.601 744.365 617.052 747.148 619.076 749.026C631.916 760.939 648.43 765.848 665.686 765.942C663.634 777.348 664.039 790.013 663.295 801.609C661.93 820.544 660.133 839.444 657.907 858.296C644.667 860.713 631.404 863.007 618.121 865.177C608.666 866.644 598.84 867.578 589.548 869.803C585.15 859.748 551.823 785.412 544.49 782.008C543.204 781.41 542.091 781.373 540.792 781.937C539.897 782.326 539.696 782.822 539.132 783.571C538.655 785.694 539.298 787.417 540.073 789.4C544.489 800.692 551.007 811.704 556.471 822.539C564.023 837.744 571.3 853.085 578.299 868.553C582.102 876.821 586.863 885.772 589.018 894.626C589.861 898.094 589.08 903.04 588.995 906.653C588.758 916.796 587.526 943.67 592.419 951.487C594.371 954.605 601.687 955.79 605.118 956.38C617.219 958.464 629.554 959.144 641.743 960.569C648.601 961.371 655.503 963.062 662.396 963.373C679.598 964.151 723.025 962.237 736.601 952.535C739.69 950.328 740.888 948.292 742.264 944.802L742.35 944.591C741.218 937.203 737.832 932.708 731.863 928.298C719.44 919.119 702.223 913.415 687.542 908.678C685.249 907.938 677.101 906.337 675.909 904.449C676.222 904.427 676.536 904.413 676.848 904.383C678.775 904.197 680.215 903 681.353 901.498C682.361 900.166 682.996 898.595 682.789 896.907C682.423 893.937 680.552 891.302 678.118 889.654C674.354 887.106 669.451 886.376 665.259 884.772C668.319 864.508 669.899 843.765 671.688 823.347C675.317 781.927 678.925 736.21 674.03 694.775C677.815 690.328 684.162 681.181 684.353 675.273C683.805 674.363 683.273 673.462 682.783 672.519C684.465 666.349 688.011 660.915 689.5 654.655C694.429 633.923 689.288 606.852 683.69 586.543C681.993 580.386 679.774 574.383 677.963 568.26C684.937 563.474 690.847 556.55 696.732 550.484C726.099 520.212 755.731 478.89 763.6 436.554C766.63 420.253 769.203 399.054 762.826 383.559C767.132 375.188 782.723 342.407 780.208 334.697C779.758 333.319 778.872 332.068 777.579 331.362C775.06 329.989 772.327 330.877 769.831 331.752C771.443 327.472 773.184 323.379 771.13 318.862C770.33 317.104 768.957 315.604 767.118 314.936C764.852 314.114 762.302 314.64 760.219 315.731C758.472 316.647 757.03 318.022 755.622 319.379C756.412 315.545 757.536 311.056 755.311 307.458C754.63 306.356 753.656 305.61 752.367 305.347C749.5 304.761 746.524 306.414 744.399 308.169C741.718 310.384 739.955 313.403 738.059 316.275C738.054 311.775 738.754 305.393 735.313 301.852C734.2 300.708 732.568 299.731 730.939 299.726C728.959 299.719 727.299 301.025 726.078 302.461C719.678 309.984 717.344 322.824 712.969 331.729C709.806 329.619 705.115 325.997 701.089 326.812C698.783 327.279 697.122 329.011 695.963 330.964C691.552 338.401 691.117 350.912 693.379 359.079C694.676 363.763 696.905 368.019 699.033 372.361C683.118 394.233 655.041 425.977 628.424 433.842C633.267 401.902 625.205 369.347 606.016 343.359C605.202 342.244 604.361 341.149 603.493 340.076C612.025 333.851 617.437 325.657 619.124 315.134C620.384 307.273 619.404 300.092 614.55 293.538C607.734 284.335 596.47 277.922 585.16 276.381C577.201 275.297 569.451 276.934 563.063 281.958C557.633 286.228 553.966 292.065 553.05 298.981C552.78 301.019 553.042 303.147 553.207 305.185C548.307 304.715 543.471 303.297 538.579 302.603C521.69 300.205 505.078 299.929 488.256 303.174C485.63 303.681 474.481 307.064 472.53 305.514C471.232 294.858 470.742 284.135 461.536 276.964C456.901 273.354 451.474 271.476 445.577 272.174ZM880.937 520.849C873.742 529.015 868.625 594.552 867.143 609.827C865.089 600.174 861.708 586.183 852.644 580.564C849.794 578.798 846.146 577.838 842.825 578.612C836.46 580.096 830.835 587.875 827.733 593.291C815.221 615.138 816.7 643.418 817.589 667.701L817.346 667.007C810.459 647.048 805.52 599.932 785.548 590.32C781.732 588.484 777.252 587.958 773.244 589.491C768.158 591.436 765.071 596.406 763.065 601.223C754.153 622.623 760.286 659.007 769.065 679.792C770.809 683.922 772.919 687.946 775.071 691.877C764.389 707.88 759.442 722.055 763.235 741.5C764.812 749.583 767.893 756.849 771.081 764.392C752.417 772.22 733.223 800.514 725.715 818.667C724.503 821.595 723.55 824.61 722.626 827.638C713.732 827.583 704.839 827.442 695.948 827.218C691.31 827.117 686.126 826.559 681.539 827.242C679.706 827.515 678.18 827.914 676.78 829.18C676.592 829.971 676.366 830.079 676.851 830.827C677.903 832.449 679.729 833.401 681.595 833.757C685.169 834.439 716.095 835.074 719.535 834.498C716.769 847.826 712.924 867.969 720.797 880.219C722.225 882.44 724.175 884.227 726.853 884.682C729.885 885.197 733.322 883.833 735.656 881.947C738.873 879.347 741.657 875.779 744.528 872.791C750.504 866.571 758.977 857.839 765.519 852.484C764.161 855.107 762.526 857.852 761.704 860.699C759.787 867.334 759.967 877.029 760.918 883.878C762.717 907.101 766.734 936.291 785.562 952.297C792.581 958.264 801.126 962.13 810.512 961.159C814.433 960.753 818.28 959.467 820.812 956.29C823.387 953.059 824.036 949.056 824.635 945.096C827.492 926.217 829.916 916.603 851.321 913.633C853.469 913.335 856.104 912.87 858.104 913.806C859.454 915.321 859.529 919.974 859.82 922.058C861.484 933.961 864.053 956.949 879.392 957.947C887.658 958.484 895.942 954.098 901.864 948.641C917.658 934.088 925.132 910.235 925.853 889.249C926.783 862.139 921.545 836.362 912.45 810.86C916.283 809.647 919.64 807.357 922.954 805.135C938.686 794.585 953.693 778.906 962.354 761.986C964.228 758.326 965.793 753.978 964.59 749.859C963.743 746.958 961.469 744.645 958.772 743.362C956.254 742.164 953.526 742.457 950.863 742.926C944.82 743.99 938.842 746.458 933.043 748.439C921.356 752.432 909.625 756.844 897.769 760.284C896.222 755.74 895.127 750.722 892.139 746.889C897.963 732.216 900.005 717.708 893.449 702.752C888.782 692.1 881.181 682.994 871.535 676.498C869.621 638.093 874.907 599.501 879.949 561.503C880.869 554.564 886.393 527.201 884.305 522.064C883.031 521.046 882.514 521.077 880.937 520.849ZM183.569 651.854C183.363 652.095 183.159 652.338 182.95 652.576C182.059 653.595 181.021 654.361 179.937 655.158C179.383 658.156 183.193 672.58 184.998 675.255C185.59 676.132 186.906 676.636 187.837 677.071C189.303 675.976 190.32 675.392 190.596 673.432C191.14 669.559 187.898 655.853 185.527 653.097C184.937 652.412 184.388 652.174 183.569 651.854ZM253.949 675.585C247.308 677.524 243.761 680.936 239.012 685.772C216.845 678.346 197.163 680.155 176.231 690.627C165.094 696.198 156.614 704.144 149.377 714.152C143.351 712.455 133.45 709.889 127.635 713.221C126.165 714.063 125.029 715.363 124.584 717.015C123.781 720.001 125.227 723.176 126.824 725.635C129.908 730.382 134.662 735.613 139.449 738.66C137.476 750.056 135.936 761.368 135.302 772.925L134.744 773.259C129.464 776.369 123.777 778.721 118.45 781.755C105.615 789.065 55.572 818.784 52.1446 833.645C51.8864 834.764 51.7767 836.09 52.0674 837.215C52.2173 837.794 53.6512 840.563 53.5484 840.824C53.4462 841.085 53.1031 841.163 52.8804 841.332C46.4365 841.962 28.5421 838.094 24.1899 842.976C23.9373 844.277 23.8596 844.481 24.3465 845.695C26.5887 847.201 29.2632 847.708 31.9074 848.067C40.4723 849.231 49.4002 849.183 58.0409 849.427C77.9662 849.988 97.8874 849.76 117.82 850.249C117.484 859.398 117.021 868.534 117.675 877.68C119.577 904.253 130.05 931.369 148.366 950.948C156.743 959.903 166.869 966.483 178.763 969.701C184.324 970.868 190.81 972.787 196.024 969.484C200.305 966.773 202.106 961.621 203.05 956.877C205.871 942.711 198.989 922.299 213.127 912.836C216.023 910.898 219.397 909.695 222.756 908.842C235.519 927.169 253.07 949.882 276.315 954.111C282.726 955.277 290.987 955.044 296.529 951.311C300.209 948.832 302.237 944.97 302.874 940.64C305.664 921.674 290.9 902.914 287.766 884.785C285.301 870.53 285.874 855.179 285.398 840.73C285.183 834.213 284.546 827.652 283.912 821.162C305.26 820.803 326.035 820.011 346.134 811.764C350.839 809.834 355.584 807.869 359.143 804.088C361.188 801.916 362.604 799.217 362.355 796.169C362.108 793.14 360.275 790.671 357.911 788.887C350.076 782.972 338.566 782.944 329.234 781.43C324.423 780.65 319.622 779.587 314.895 778.403C299.616 774.575 284.293 768.765 271.119 760.055C270.717 737.185 270.35 722.421 257.482 702.495C260.892 696.563 264.692 688.57 262.973 681.578C262.47 679.529 261.374 677.78 259.517 676.711C257.735 675.685 255.96 675.523 253.949 675.585ZM503.054 771.092C502.026 772.153 500.656 773.378 500.501 774.938C500.369 776.27 500.754 777.146 501.637 778.114C505.798 782.677 530.558 780.837 536.864 780.265C538.68 780.1 540.33 779.753 542.081 779.256C542.756 779.065 543.429 778.887 544.102 778.685C545.914 777.78 548.003 776.887 548.708 774.813C548.96 774.074 548.637 773.732 548.37 773.051C546.617 771.715 544.648 771.21 542.467 771.001C537.712 770.544 532.538 771.141 527.75 771.322C519.59 771.631 511.196 771.762 503.054 771.092ZM1005.26 808.701L960.516 812.919C952.438 813.703 943.773 813.98 935.88 815.836C934.67 816.12 933.833 816.354 932.974 817.309C932.553 818.524 932.546 819.003 932.918 820.234C934.223 821.746 935.774 822.076 937.704 822.228C941.016 822.488 944.598 821.939 947.888 821.547L991.231 817.925C998.371 817.271 1005.97 816.914 1013 815.521C1014.83 815.157 1017.78 814.449 1019.15 813.058C1019.48 812.719 1019.56 812.436 1019.73 812.03C1018.95 810.516 1017.93 810.026 1016.33 809.48C1012.88 808.305 1008.87 808.096 1005.26 808.701ZM304.404 837.613C302.757 838.564 300.738 839.414 300.28 841.441C300.085 842.302 300.51 842.61 300.922 843.33C307.931 847.584 349.077 845.151 358.758 844.422C360.301 844.161 361.816 844.1 363.013 842.997C363.377 841.813 363.652 840.742 363.05 839.548C362.483 838.424 361.881 837.948 360.67 837.642C355.869 836.431 347.868 837.368 342.725 837.405L304.404 837.613Z"/><path d="M571.092 0L614.202 0C613.461 0.762654 612.715 1.52087 611.965 2.27461C603.928 10.3455 584.946 29.004 575.954 34.6536C574.525 35.5512 573.011 36.1782 571.297 36.1131C569.843 36.0579 568.359 35.4076 567.483 34.2129C564.086 29.5822 569.957 5.86019 571.092 0Z"/><path d="M670.961 0L698.074 0C704.122 5.68428 711.058 10.5698 717.652 15.6024C725.987 21.9626 734.306 28.9263 743.105 34.6169C757.549 43.9591 773.291 51.6375 788.443 59.7797C808.067 70.3252 827.548 80.7051 848.478 88.5375C864.887 49.5304 881.648 28.4783 912.391 0L925.243 0C918.592 6.53779 911.304 12.3598 904.624 18.8457C889.06 33.8964 876.065 51.3933 866.153 70.6423C862.848 77.2094 859.309 83.7937 857.487 90.9573C867.853 96.12 882.946 100.651 894.227 103.89C918.949 110.988 943.941 116.716 969.642 118.77C977.631 119.409 985.514 119.218 993.496 119.56C1003.74 119.998 1013.73 120.436 1024 120.397L1024 154.376C1016.56 168.161 1011.94 183.278 1004.48 197.162C1010.64 193.385 1017.33 188.421 1024 185.771L1024 195.166C1013.05 201.192 1002.61 207.78 991.28 213.191C981.373 217.819 971.376 222.25 961.294 226.484C956.604 228.423 951.773 230.005 947.145 232.087C956.704 236.238 966.405 240.836 974.385 247.667C996.032 266.196 1009.27 297.611 1011.36 325.752C1012.05 335.079 1012.03 344.313 1010.95 353.611C1009.98 361.937 1007.98 369.966 1005.84 378.046C999.649 401.332 991.006 424.201 975.001 442.636C955.609 464.972 927.926 474.461 899.094 476.591C900.496 483.008 904.126 511.695 900.487 516.834C899.879 517.693 899.554 518.092 898.545 518.354C893.196 519.742 883.952 513.515 879.322 510.863C873.569 528.85 870.677 547.963 867.213 566.502C866.113 572.389 865.642 578.675 864.015 584.415C863.07 585.077 862.196 585.639 860.964 585.357C859.809 585.093 858.791 584.399 858.285 583.298C855.829 577.954 869.194 519.123 871.61 509.029C868.839 510.151 865.475 511.403 862.445 510.986C860.88 510.77 859.437 510.067 858.606 508.657C854.846 502.281 867.504 481.283 869.989 474.038L870.211 473.378C866.125 471.843 861.893 470.591 857.745 469.225C856.358 476.829 855.53 484.555 854.262 492.187C851.086 511.32 847.87 530.052 846.751 549.45C846.463 554.449 846.695 573.246 844.351 576.67C843.569 577.813 843.349 577.901 842.08 578.061C841.596 577.771 841.111 577.519 840.719 577.095C837.773 573.907 838.848 563.117 839.032 558.908C839.696 541.566 841.464 524.284 844.328 507.166C846.509 493.83 850.082 479.856 850.442 466.327L850.457 465.635C828.395 450.438 815.789 434.947 806.959 409.396C798.445 384.76 798.878 347.961 804.527 322.394C807.183 310.607 811.194 299.167 816.479 288.303C831.908 257.039 853.986 240.813 886.453 229.895C883.069 227.666 879.335 225.967 875.892 223.819C868.182 219.008 861.562 210.802 856.824 203.163C852.127 195.592 849.065 187.235 846.422 178.767C837.268 149.435 838.209 126.564 845.242 97.023C841.563 95.1136 837.544 93.7228 833.751 92.0348C827.65 89.3195 821.683 86.3412 815.491 83.8287C805.68 95.3697 795.237 106.352 785.195 117.692C777.885 125.949 770.87 135.146 762.888 142.731C761.603 143.953 760.057 145.527 758.171 145.572C756.616 145.61 755.21 144.903 754.11 143.842C752.796 142.565 751.929 140.896 751.639 139.086C750.627 132.535 751.387 124.615 751.357 117.945C751.259 95.6217 752.298 73.4072 752.504 51.1114C748.694 47.0324 733.599 37.6763 728.365 34.5908C721.596 38.6866 711.481 49.7144 705.707 55.5766C694.777 66.6722 682.395 79.672 670.59 89.634C668.857 91.0967 665.639 93.4692 663.237 93.0191C662.002 92.7876 661.195 92.0629 660.523 91.0398C656.134 84.3563 664.652 46.2053 666.012 36.4433C667.712 24.2498 668.344 12.0715 670.961 0ZM854.012 99.6943C844.162 128.689 847.479 164.962 860.867 192.372C868.447 207.891 881.367 219.385 897.84 224.866C904.542 227.096 911.027 226.598 917.965 226.642C923.149 226.674 928.67 227.681 933.805 227.061C947.589 225.397 969.72 214.54 982.443 208.085C984.586 207.015 986.674 205.839 988.701 204.562C983.767 195.476 980.857 174.614 978.22 163.534C977.01 157.885 971.824 130.872 969.168 127.959C963.3 125.119 948.91 124.677 941.954 124.085L941.441 124.619C936.215 130.097 932.558 137.45 928.674 143.929L906.831 180.016C902.818 186.685 898.912 194.675 893.933 200.646C892.768 202.044 891.8 202.969 889.997 203.428C888.426 203.114 887.494 202.77 886.518 201.435C885.66 200.261 885.314 198.779 885.113 197.365C884.005 189.527 883.797 181.405 883.054 173.503C881.609 158.136 879.91 142.768 878.222 127.425C877.666 122.379 877.795 112.06 874.969 107.923C872.619 104.481 858.569 101.036 854.012 99.6943ZM910.819 235.275C883.22 236.747 858.96 247.202 840.347 267.971C814.781 296.5 807.303 339.303 809.639 376.571C811.281 402.766 822.043 431.193 842.196 448.774C857.127 461.799 877.943 469.371 897.843 467.966C899.19 467.868 900.535 467.75 901.879 467.612C927.738 465.561 952.484 455.863 969.583 435.817C991.447 410.184 1005.99 359.491 1003.25 326.505C1001.1 300.613 988.804 271.047 968.593 254.204C953.32 241.476 930.795 233.392 910.819 235.275ZM878.401 475.381C874.722 484.871 868.728 493.581 865.85 503.357C867.63 502.543 869.364 501.719 871.088 500.789C872.96 499.779 874.678 499.264 876.774 499.92C879.048 500.63 880.662 502.543 882.677 503.684C886.43 505.731 890.145 507.734 894.076 509.426C893.988 498.567 892.475 487.752 892.227 476.873C887.634 476.361 883.007 475.716 878.401 475.381Z"/><path fill="#FEFEFE" d="M698.074 0L912.391 0C881.648 28.4783 864.887 49.5304 848.478 88.5375C827.548 80.7051 808.067 70.3252 788.443 59.7797C773.291 51.6375 757.549 43.9591 743.105 34.6169C734.306 28.9263 725.987 21.9626 717.652 15.6024C711.058 10.5698 704.122 5.68428 698.074 0Z"/><path fill="#FEFEFE" d="M925.243 0L1024 0L1024 120.397C1013.73 120.436 1003.74 119.998 993.496 119.56C985.514 119.218 977.631 119.409 969.642 118.77C943.941 116.716 918.949 110.988 894.227 103.89C882.946 100.651 867.853 96.12 857.487 90.9573C859.309 83.7937 862.848 77.2094 866.153 70.6423C876.065 51.3933 889.06 33.8964 904.624 18.8457C911.304 12.3598 918.592 6.53779 925.243 0Z"/><path fill="#FEFEFE" d="M0 116.909C6.75103 110.134 14.2831 100.003 20.851 94.2272C22.1135 93.1171 24.0423 91.7032 25.8011 91.6998C29.8602 91.6919 36.2095 93.5198 40.0102 95.0025C43.8752 115.291 49.026 135.439 53.7907 155.538C56.2754 166.019 58.0543 177.006 61.1465 187.291C63.1696 188.215 66.0952 189.982 68.3753 189.323C70.3172 188.762 71.8504 186.091 72.7969 184.457C76.6751 177.762 79.536 170.033 82.6795 162.951C88.1776 150.777 93.4776 138.514 98.5773 126.168C102.162 117.576 105.509 108.781 109.437 100.344C114.404 99.0771 128.096 97.4719 132.303 99.7859C134.789 101.154 151.365 142.63 153.524 148.82C146.922 165.653 137.979 182.603 120.577 190.296C114.089 193.164 107.025 194.23 100.021 194.947C82.2567 196.767 72.693 196.052 55.8373 189.416C41.6469 183.829 27.4801 175.562 15.3812 166.251C10.1251 162.206 5.30727 157.534 0 153.586L0 116.909Z"/><path fill="#FEFEFE" d="M988.701 204.562C986.674 205.839 984.586 207.015 982.443 208.085C969.72 214.54 947.589 225.397 933.805 227.061C928.67 227.681 923.149 226.674 917.965 226.642C911.027 226.598 904.542 227.096 897.84 224.866C881.367 219.385 868.447 207.891 860.867 192.372C847.479 164.962 844.162 128.689 854.012 99.6943C858.569 101.036 872.619 104.481 874.969 107.923C877.795 112.06 877.666 122.379 878.222 127.425C879.91 142.768 881.609 158.136 883.054 173.503C883.797 181.405 884.005 189.527 885.113 197.365C885.314 198.779 885.66 200.261 886.518 201.435C887.494 202.77 888.426 203.114 889.997 203.428C891.8 202.969 892.768 202.044 893.933 200.646C898.912 194.675 902.818 186.685 906.831 180.016L928.674 143.929C932.558 137.45 936.215 130.097 941.441 124.619L941.954 124.085C948.91 124.677 963.3 125.119 969.168 127.959C971.824 130.872 977.01 157.885 978.22 163.534C980.857 174.614 983.767 195.476 988.701 204.562Z"/><path fill="#FEFEFE" d="M1004.48 197.162C1011.94 183.278 1016.56 168.161 1024 154.376L1024 185.771C1017.33 188.421 1010.64 193.385 1004.48 197.162Z"/><path fill="#FEFEFE" d="M0 163.665C11.9078 178.416 55.5745 200.941 73.9258 202.921C75.6805 203.11 77.4574 203.168 79.2209 203.213L79.4568 203.919C81.9045 211.392 82.711 225.062 85.1185 230.619C85.6217 231.78 86.3309 232.626 87.4105 233.314C91.6576 236.023 107.751 232.331 113.364 231.855C117.339 245.342 121.291 259.611 122.945 273.615C117.494 270.923 112.097 268.126 106.312 266.212C89.0912 260.516 67.9959 260.745 50.8181 266.493C30.7574 273.207 11.4633 289.356 0 307.045L0 163.665Z"/><path fill="#FEFEFE" d="M88.4824 204.119C96.6697 203.565 104.665 202.492 112.767 201.204L113.979 201.121C116.268 202.449 120.159 217.763 121.261 221.312C113.532 223.583 104.943 224.218 96.9761 225.317C95.6176 225.512 94.6266 225.63 93.2653 225.274C90.9096 219.999 90.4672 210.764 88.687 204.792L88.4824 204.119Z"/><path fill="#FEFEFE" d="M901.879 467.612C900.535 467.75 899.19 467.868 897.843 467.966C877.943 469.371 857.127 461.799 842.196 448.774C822.043 431.193 811.281 402.766 809.639 376.571C807.303 339.303 814.781 296.5 840.347 267.971C858.96 247.202 883.22 236.747 910.819 235.275C930.795 233.392 953.32 241.476 968.593 254.204C988.804 271.047 1001.1 300.613 1003.25 326.505C1005.99 359.491 991.447 410.184 969.583 435.817C952.484 455.863 927.738 465.561 901.879 467.612Z"/><path fill="#FEFEFE" d="M0 323.152C15.8039 299.297 33.5306 277.83 63.128 271.787C84.7938 267.363 105.708 272.051 124.026 284.319C151.457 302.688 171.873 335.712 178.029 367.939C183.531 396.743 180.094 430.681 170.61 458.297C169.847 459.206 169.247 459.407 168.177 459.813C167.085 460.228 166.262 460.47 165.74 461.621C164.405 464.559 167.265 466.879 166.61 469.587C164.037 480.216 150.039 509.638 142.79 517.25C120.153 521.349 92.6559 509.298 74.271 496.56C44.1337 475.677 26.9684 450.808 10.4367 418.71C6.78095 411.613 3.89488 403.895 0 396.969L0 323.152Z"/><path d="M424.231 332.727C416.726 327.025 410.628 320.257 409.367 310.489C408.32 302.382 411.444 295.403 416.259 289.134C423.679 279.472 433.486 273.709 445.577 272.174C451.474 271.476 456.901 273.354 461.536 276.964C470.742 284.135 471.232 294.858 472.53 305.514C474.481 307.064 485.63 303.681 488.256 303.174C505.078 299.929 521.69 300.205 538.579 302.603C543.471 303.297 548.307 304.715 553.207 305.185C553.042 303.147 552.78 301.019 553.05 298.981C553.966 292.065 557.633 286.228 563.063 281.958C569.451 276.934 577.201 275.297 585.16 276.381C596.47 277.922 607.734 284.335 614.55 293.538C619.404 300.092 620.384 307.273 619.124 315.134C617.437 325.657 612.025 333.851 603.493 340.076C604.361 341.149 605.202 342.244 606.016 343.359C625.205 369.347 633.267 401.902 628.424 433.842C655.041 425.977 683.118 394.233 699.033 372.361C696.905 368.019 694.676 363.763 693.379 359.079C691.117 350.912 691.552 338.401 695.963 330.964C697.122 329.011 698.783 327.279 701.089 326.812C705.115 325.997 709.806 329.619 712.969 331.729C717.344 322.824 719.678 309.984 726.078 302.461C727.299 301.025 728.959 299.719 730.939 299.726C732.568 299.731 734.2 300.708 735.313 301.852C738.754 305.393 738.054 311.775 738.059 316.275C739.955 313.403 741.718 310.384 744.399 308.169C746.524 306.414 749.5 304.761 752.367 305.347C753.656 305.61 754.63 306.356 755.311 307.458C757.536 311.056 756.412 315.545 755.622 319.379C757.03 318.022 758.472 316.647 760.219 315.731C762.302 314.64 764.852 314.114 767.118 314.936C768.957 315.604 770.33 317.104 771.13 318.862C773.184 323.379 771.443 327.472 769.831 331.752C772.327 330.877 775.06 329.989 777.579 331.362C778.872 332.068 779.758 333.319 780.208 334.697C782.723 342.407 767.132 375.188 762.826 383.559C769.203 399.054 766.63 420.253 763.6 436.554C755.731 478.89 726.099 520.212 696.732 550.484C690.847 556.55 684.937 563.474 677.963 568.26C679.774 574.383 681.993 580.386 683.69 586.543C689.288 606.852 694.429 633.923 689.5 654.655C688.011 660.915 684.465 666.349 682.783 672.519C683.273 673.462 683.805 674.363 684.353 675.273C684.162 681.181 677.815 690.328 674.03 694.775C678.925 736.21 675.317 781.927 671.688 823.347C669.899 843.765 668.319 864.508 665.259 884.772C669.451 886.376 674.354 887.106 678.118 889.654C680.552 891.302 682.423 893.937 682.789 896.907C682.996 898.595 682.361 900.166 681.353 901.498C680.215 903 678.775 904.197 676.848 904.383C676.536 904.413 676.222 904.427 675.909 904.449C677.101 906.337 685.249 907.938 687.542 908.678C702.223 913.415 719.44 919.119 731.863 928.298C737.832 932.708 741.218 937.203 742.35 944.591L742.264 944.802C740.888 948.292 739.69 950.328 736.601 952.535C723.025 962.237 679.598 964.151 662.396 963.373C655.503 963.062 648.601 961.371 641.743 960.569C629.554 959.144 617.219 958.464 605.118 956.38C601.687 955.79 594.371 954.605 592.419 951.487C587.526 943.67 588.758 916.796 588.995 906.653C589.08 903.04 589.861 898.094 589.018 894.626C586.863 885.772 582.102 876.821 578.299 868.553C571.3 853.085 564.023 837.744 556.471 822.539C551.007 811.704 544.489 800.692 540.073 789.4C539.298 787.417 538.655 785.694 539.132 783.571C539.696 782.822 539.897 782.326 540.792 781.937C542.091 781.373 543.204 781.41 544.49 782.008C551.823 785.412 585.15 859.748 589.548 869.803C598.84 867.578 608.666 866.644 618.121 865.177C631.404 863.007 644.667 860.713 657.907 858.296C660.133 839.444 661.93 820.544 663.295 801.609C664.039 790.013 663.634 777.348 665.686 765.942C648.43 765.848 631.916 760.939 619.076 749.026C617.052 747.148 614.601 744.365 614.894 741.356C615.021 740.058 615.455 739.703 616.369 738.939C621.77 737.827 626.273 743.583 630.396 746.383C633.21 748.294 636.312 749.904 639.405 751.31C647.799 755.127 656.471 756.336 665.508 757.603C667.035 740.903 666.081 723.66 664.312 707.013C643.192 723.671 621.548 730.617 596.085 737.656C580.091 741.156 564.439 743.948 548.123 745.532C492.182 750.962 417.902 745.706 372.814 708.647C375.048 727.288 373.721 747.471 377.277 765.884C389.074 763.102 401.386 757.841 411.755 751.511C415.229 749.391 418.285 746.397 422.05 744.774C423.878 743.986 425.022 743.889 426.909 744.683C427.475 745.288 428.078 745.84 428.247 746.693C428.542 748.178 427.621 749.783 426.728 750.896C417.317 762.628 392.951 772.684 378.313 774.26C379.236 787.238 381.981 800.577 384.084 813.441C387.121 832.009 389.932 850.589 393.598 869.05C401.569 870.094 410.291 869.501 418.358 869.746L464.659 871.571C467.867 862.17 497.617 787.806 499.867 785.268C500.873 784.133 501.729 783.87 503.196 783.726C504.782 784.371 506.287 785.022 506.966 786.759C509.183 792.435 489.947 832.97 487.203 841.911L486.997 842.599C499.213 841.881 512.02 841.019 524.243 841.568C527.162 841.699 530.85 842.025 532.92 844.29C532.955 845.513 532.806 845.934 531.833 846.842C529.079 849.414 493.539 849.515 488.453 848.801C487.637 847.583 486.907 846.314 486.157 845.055C482.572 853.556 479.357 862.216 475.751 870.712C473.162 876.811 465.745 890.342 464.996 895.975C464.227 901.749 465.023 907.958 465.264 913.765C465.625 922.465 465.807 943.78 463.551 951.48C462.69 954.42 461.595 956.286 458.812 957.661C451.166 961.438 440.51 961.761 432.07 962.924C413.75 965.448 395.19 968.548 376.648 968.488C366.631 968.455 356.596 967.271 346.673 966.015C340.114 965.185 332.771 964.6 326.509 962.457C322.287 961.012 319.019 958.216 317.158 954.122C315.248 949.921 314.714 945.415 316.472 941.064C321.037 929.767 368.776 915.43 380.894 910.146C378.809 906.45 375.682 904.275 374.604 899.887C374.284 898.586 374.5 897.704 375.166 896.553C378.674 893.592 385.478 893.959 389.839 894.031C387.543 886.884 386.255 879.439 384.725 872.099C382.132 859.654 379.674 847.255 377.572 834.716C375.769 823.963 373.624 813.25 371.983 802.472C368.901 781.914 366.453 761.266 364.644 740.556C363.909 732.455 363.652 724.281 363.511 716.15C363.416 710.691 363.716 704.869 362.817 699.488C361.839 693.634 358.728 688.442 356.759 682.894C352.191 670.023 348.593 655.146 347.706 641.538C346.255 619.264 348.235 599.066 353.567 577.463C343.548 570.56 334.42 561.506 326.63 552.165C299.246 519.327 284.615 472.636 288.591 430.061C289.159 423.98 290.585 412.713 293.591 407.388C294.136 406.423 295.154 405.839 295.949 405.107C297.019 404.121 297.239 403.791 297.248 402.342C292.021 394.445 280.035 367.618 280.557 358.252C280.772 354.406 282.178 352.891 284.976 350.404L291.108 350.515C290.284 348.27 289.364 346.237 289.21 343.807C289.081 341.778 289.119 339.429 290.774 337.968C293.957 335.158 298.9 337.37 302.564 337.457C302.961 334.672 303.186 331.403 305.134 329.203C306.144 328.063 307.369 327.541 308.897 327.611C313.369 327.817 317.904 332.578 320.893 335.557C321.092 333.011 321.074 329.455 322.123 327.141C322.959 325.293 324.387 324.039 326.289 323.357C328.092 322.711 329.901 322.862 331.588 323.766C339.816 328.176 343.692 343.978 346.061 352.334C348.74 350.13 351.033 348.543 354.509 347.875C356.539 347.484 358.723 347.637 360.426 348.925C363.592 351.317 364.824 356.206 365.289 359.971C366.75 371.797 362.476 385.753 355.106 395.009C360.628 400.074 364.298 406.389 368.098 412.768C376.119 426.232 383.834 441.835 396.048 451.987C394.372 447.971 393.183 443.77 392.508 439.471C386.8 403.905 403.602 361.3 424.231 332.727ZM444.529 280.114C434.637 282.064 425.88 289.071 420.313 297.347C417.631 301.332 415.825 305.593 416.937 310.456C417.979 315.014 422.038 323.15 426.14 325.506C429.086 327.199 434.65 326.239 435.861 329.449C435.78 331.902 426.28 343.53 424.324 346.706C405.414 377.405 390.527 421.648 406.188 456.495C410.033 465.051 420.602 478.054 427.124 485.015C442.977 501.937 460.946 508.865 482.776 514.845C482.747 512.129 482.758 510.029 484.689 507.945C485.943 506.591 487.515 506.065 489.334 506.046C493.231 506.006 496.627 508.237 499.216 510.952C500.113 511.893 500.92 512.902 501.708 513.934C511.609 513.914 522.235 514.507 531.987 512.661C534.916 508.66 537.002 506.803 541.755 505.093C544.25 505.962 546.213 506.848 548.42 508.339C548.463 508.368 548.506 508.395 548.548 508.424C563.797 505.969 578.016 499.173 589.504 488.85C610.272 470.614 619.377 452.927 621.105 424.928C622.522 401.965 617.401 382.415 607.937 361.786C605.358 356.166 602.464 351.117 598.897 346.081C596.891 343.247 594.306 340.367 592.721 337.315C592.163 336.24 592.23 336.042 592.509 334.924C594.358 333.975 596.041 335.181 597.897 335.083C599.315 335.008 605.977 326.435 606.772 325.117C608.021 323.087 609.007 320.907 609.708 318.63C611.477 312.976 611.687 306.494 608.936 301.113C604.943 293.302 596.392 287.846 588.179 285.432C582.307 283.707 576.056 283.202 570.54 286.348C565.971 288.953 561.805 294.592 561.03 299.902C560.277 305.065 566.653 313.252 562.705 317.469C558.997 318.556 548.465 312.793 544.179 311.657C540.413 310.659 536.476 310.046 532.616 309.535C513.187 306.963 494.882 308.334 476.162 314.154C473.148 315.091 466.484 317.974 463.497 316.554C462.953 316.295 462.591 315.969 462.134 315.602C461.561 313.067 463.938 309.346 464.424 306.717C465.989 298.254 462.888 287.065 455.399 282.277C451.822 279.99 448.631 279.819 444.529 280.114ZM729.737 308.819C726.067 317.86 722.967 326.976 718.407 335.642C724.579 342.368 729.629 349.22 731.722 358.235C732.079 359.77 732.694 361.733 732.603 363.308C732.545 364.316 732.293 364.919 731.825 365.79C730.599 366.719 729.98 366.691 728.507 366.72C727.37 366.263 726.249 365.881 725.718 364.672C724.951 362.925 724.848 360.581 724.169 358.7C721.068 350.112 715.152 340.177 706.998 335.49C706.005 334.919 705.171 334.724 704.046 334.59C702.746 335.089 702.115 335.361 701.482 336.665C697.865 344.113 699.996 355.6 703.118 362.845C704.527 366.035 706.241 369.081 708.236 371.942C719.789 372.547 731.709 372.547 742.867 375.847C746.975 377.035 751.027 378.141 754.912 379.962C760.671 373.57 768.455 348.925 771.07 340.246C768.619 341.857 765.057 344.23 761.962 343.401C760.703 343.064 760.013 342.127 759.531 340.985C757.232 335.536 762.214 326.405 764.074 321.181C760.418 324.55 756.432 330.509 752.873 333.189C752.016 333.834 751.155 333.99 750.107 333.956C748.903 333.916 747.76 333.595 746.877 332.719C745.545 331.397 745.516 329.177 745.754 327.444C746.418 322.625 748.789 317.911 749.899 313.135L749.368 313.76C745.528 318.344 740.528 331.327 733.994 331.515C731.659 331.583 730.094 330.237 728.681 328.588L728.036 327.821C728.559 323.426 731.486 312.891 730.153 309.205L729.737 308.819ZM328.523 331.193C328.477 335.235 330.418 345.664 327.356 348.373C326.685 348.966 325.976 348.986 325.099 348.945C321.06 348.76 313.354 337.659 308.759 334.597L309.01 335.386C310.209 339.102 315.879 347.921 314.024 351.411C313.459 352.474 312.41 353.326 311.213 353.548C308.652 354.025 306.071 351.922 304.286 350.377C301.308 347.799 298.877 344.595 295.555 342.439L295.81 343.135C297.924 348.825 303.15 354.037 302.464 360.409C301.697 361.603 301.555 361.893 300.087 362.247C296.4 363.133 290.148 359.466 286.807 357.878C291.338 371.83 296.393 386.965 304.645 399.201C309.486 397.459 314.316 395.582 319.294 394.266C328.784 391.945 336.61 391.694 346.229 393.229C353.736 383.613 359.743 372.594 357.957 359.864C357.754 358.418 357.318 357.656 356.371 356.571C355.13 356.059 354.826 355.906 353.474 356.354C348.501 358.003 339.843 370.681 337.371 375.37C335.767 378.413 334.271 383.351 332.11 385.923C331.259 386.936 329.948 387.153 328.738 386.672C327.669 386.247 327.423 385.973 326.804 385.068C326.08 377.891 333.184 366.889 337.513 361.553C338.271 360.619 339.037 359.718 339.882 358.862C338.904 352.647 334.029 335.375 328.997 331.498C328.848 331.383 328.681 331.295 328.523 331.193ZM489.731 512.434C489.709 513.021 489.501 514.191 489.645 514.714C490.446 517.623 493.273 521.018 494.667 523.809C498.351 531.184 501.109 539.757 502.638 547.864C504.445 557.44 500.317 571.257 501.547 576.744C502.096 577.19 502.181 577.505 502.947 577.391C504.038 577.229 504.827 576.615 505.721 576.016C510.653 568.891 510.326 554.082 508.85 545.888C506.855 534.808 500.86 519.859 491.223 513.339C490.503 512.852 490.57 512.913 489.731 512.434ZM540.465 512.797C532.974 521.559 530.549 534.91 531.461 546.193C532.02 553.108 534.236 569.125 539.102 574.193C540.427 573.665 541.201 573.59 542.005 572.385C542.415 563.38 536.665 553.268 536.769 543.112C536.824 537.781 538.564 530.945 539.945 525.798C540.807 522.582 543.37 516.992 543.088 513.84C542.195 513.291 541.485 513.036 540.465 512.797ZM668.318 686.016C666.624 687.446 664.643 688.804 663.585 690.784C663.602 691.668 663.435 691.859 664.024 692.563C665.662 690.611 667.594 688.668 668.668 686.342L668.318 686.016ZM368.739 691.251C370.23 693.28 371.606 695.998 373.793 697.303L374.966 697.265C375.076 695.578 375.205 695.407 373.979 694.14C372.76 692.881 370.378 691.785 368.739 691.251ZM652.092 698.015C647.254 700.587 642.316 703.086 637.658 705.975C637.526 707.433 636.754 710.899 637.558 711.987C642.22 709.592 649.472 706.576 652.467 702.047C652.768 700.583 652.73 699.787 652.43 698.365L652.092 698.015ZM383.227 702.278C383.177 703.551 382.976 703.93 383.846 704.928C386.722 708.23 391.765 710.786 395.603 712.81C395.711 711.139 396.141 709.688 395.116 708.229C393.274 705.605 386.279 702.471 383.227 702.278ZM624.404 711.558C618.11 713.524 612.058 716.137 605.769 718.079C605.684 719.52 605.284 721.579 606.095 722.803C606.584 722.871 607.04 722.98 607.533 722.91C613.738 721.257 619.82 719.485 625.859 717.283C626.098 715.557 626.64 713.497 625.976 711.855C624.84 711.431 625.371 711.478 624.404 711.558ZM405.182 712.419L405.696 717.525C410.891 719.863 416.193 721.831 421.508 723.867C421.513 722.221 421.758 720.187 420.981 718.716C415.742 716.527 410.37 714.74 405.182 712.419ZM592.765 721.586C588.115 722.696 583.464 723.85 578.786 724.833C574.949 725.64 570.69 726.059 567.047 727.494C566.356 728.779 566.475 729.894 566.516 731.3L567.002 731.994L569.114 731.971C577.83 730.652 586.468 728.863 594.991 726.612C594.987 724.944 595.01 723.385 594.624 721.755C593.454 721.299 594.072 721.373 592.765 721.586ZM432.639 722.601C432.4 724.354 432.064 725.003 432.92 726.593C437.514 729.81 443.894 729.85 449.217 731.29C449.515 729.761 449.96 728.479 449.541 726.949C444.486 724.633 438.104 723.814 432.639 722.601ZM460.629 728.354C460.47 729.983 460.055 731.831 460.806 733.344C466.301 735.898 475.773 735.764 481.868 736.007C481.904 734.414 482.167 732.684 481.412 731.231C475.021 729.347 467.293 729.173 460.629 728.354ZM551.681 728.685C545.811 729.501 532.665 729.506 528.242 730.952C527.588 732.422 527.566 733.466 527.596 735.027L528.042 735.795C529.833 736.025 531.498 736.022 533.301 735.952C538.999 735.527 550.856 735.724 555.562 733.298C556.154 732.213 556.305 731.853 555.904 730.572C555.729 730.014 554.966 728.87 554.459 728.66C553.579 728.295 552.589 728.565 551.681 728.685ZM491.978 730.909C491.997 732.602 491.755 734.795 492.612 736.274C500.338 737.385 509.133 736.436 516.99 736.309L516.418 731L491.978 730.909ZM656.53 868.731C644.11 870.692 631.775 873.089 619.362 875.069C610.639 876.461 601.775 877.361 593.105 878.995L596.499 887.743C600.144 889.287 648.203 883.741 656.426 883.123C656.681 879.904 658.172 871.236 656.53 868.731ZM395.247 878.478C395.796 882.516 396.846 886.476 397.797 890.434C403.792 890.651 453.884 893.497 456.104 892.301C456.61 891.486 457.071 890.778 457.442 889.893C458.43 886.886 459.689 884.269 461.212 881.497C439.461 877.98 417.013 881.047 395.247 878.478ZM653.288 892.704C642.035 894.103 630.763 895.341 619.474 896.417C612.677 897.076 605.739 897.436 599 898.459C598.931 911.105 598.447 923.679 598.603 936.342C618.762 937.043 638.892 940.336 659.035 941.688C674.077 942.698 690.237 942.232 705.246 940.473C712.231 939.655 720.591 938.574 727.168 935.921L727.621 935.167C726.918 934.251 726.28 933.934 725.25 933.437C719.437 929.953 697.515 917.957 691.476 919.317C690.084 919.631 689.141 920.501 688.425 921.703C686.699 924.599 686.219 930.282 682.911 931.661C680.962 931.572 679.43 929.754 678.198 928.41C676.418 926.469 674.921 924.294 674.141 921.764C674.299 919.058 676.47 916.221 677.84 913.903C674.807 913.271 671.529 912.201 668.657 913.92C665.378 915.882 665.315 921.013 660.395 919.769C658.969 919.409 658.565 918.842 657.809 917.65C657.452 914.654 659.732 911.549 659.043 908.945C653.201 907.109 643.371 915.551 638.532 910.591C637.986 909.217 638.031 908.578 638.23 907.164C640.351 903.388 648.581 901.672 652.5 900.573C659.477 898.615 666.579 897.385 673.732 896.282C668.464 894.17 658.884 891.439 653.288 892.704ZM398.622 900.67C395.063 901.601 391.867 902.123 388.174 902.214L388.803 902.468C394.141 904.576 410.937 906.39 412.714 912.279C413.06 913.427 412.677 914.284 412.068 915.252C411.267 916.525 409.63 917.257 408.194 917.376C405.858 917.569 403.075 916.523 400.825 915.908L393.794 918.326C393.974 920.962 394.697 925.174 392.626 927.241C391.779 928.085 390.901 928.233 389.762 927.98C386.239 927.196 384.316 922.035 382.999 919.193C379.409 920.434 375.828 921.713 372.222 922.907C374.65 925.505 378.87 929.108 378.684 933.051C378.626 934.265 378.347 934.537 377.622 935.445C375.804 936.181 374.342 935.96 372.566 935.208C368.479 933.478 365.391 929.964 363.71 925.936C354.994 929.773 336.488 936.568 329.921 941.248C333.985 941.898 338.038 942.613 342.079 943.392C362.689 947.493 383.811 948.371 404.691 945.995C421.573 943.939 438.443 940.437 455.424 939.33C456.803 927.098 455.658 914.487 455.349 902.193C448.695 901.261 441.966 901.518 435.264 901.281C423.229 900.855 410.63 899.695 398.622 900.67ZM732.689 941.919C710.694 952.074 672.944 950.58 649.075 948.844C638.471 948.072 627.682 946.682 617.158 945.148C612.441 944.461 607.701 943.441 602.964 942.952C601.802 942.832 600.78 942.545 599.845 943.277C599.705 944.74 599.977 945.394 600.539 946.703L601.587 947.463C613.279 949.17 625.048 950.353 636.771 951.836C644.404 952.801 652.139 954.27 659.807 954.765C674.963 955.743 720.769 954.849 732.501 945.948C733.559 945.145 733.751 944.775 734.195 943.576C733.74 942.475 733.742 942.473 732.689 941.919ZM453.352 945.603C424.179 951.585 394.527 957.096 364.665 954.533C356.447 953.828 348.124 952.496 339.979 951.175C335.575 950.46 329.971 948.657 325.566 949.034L325.088 949.789C325.507 951.28 326.205 952.252 327.099 953.477C332.481 956.065 339.754 956.469 345.7 957.149C377.58 960.793 395.687 958.887 427.011 954.455C435.962 953.189 445.122 952.328 453.95 950.423C454.778 949.501 455.083 949.042 455.183 947.722C455.222 947.201 454.923 946.343 454.796 945.867C454.213 945.647 453.982 945.503 453.352 945.603Z"/><path fill="#FEFEFE" d="M482.776 514.845C460.946 508.865 442.977 501.937 427.124 485.015C420.602 478.054 410.033 465.051 406.188 456.495C390.527 421.648 405.414 377.405 424.324 346.706C426.28 343.53 435.78 331.902 435.861 329.449C434.65 326.239 429.086 327.199 426.14 325.506C422.038 323.15 417.979 315.014 416.937 310.456C415.825 305.593 417.631 301.332 420.313 297.347C425.88 289.071 434.637 282.064 444.529 280.114C448.631 279.819 451.822 279.99 455.399 282.277C462.888 287.065 465.989 298.254 464.424 306.717C463.938 309.346 461.561 313.067 462.134 315.602C462.591 315.969 462.953 316.295 463.497 316.554C466.484 317.974 473.148 315.091 476.162 314.154C494.882 308.334 513.187 306.963 532.616 309.535C536.476 310.046 540.413 310.659 544.179 311.657C548.465 312.793 558.997 318.556 562.705 317.469C566.653 313.252 560.277 305.065 561.03 299.902C561.805 294.592 565.971 288.953 570.54 286.348C576.056 283.202 582.307 283.707 588.179 285.432C596.392 287.846 604.943 293.302 608.936 301.113C611.687 306.494 611.477 312.976 609.708 318.63C609.007 320.907 608.021 323.087 606.772 325.117C605.977 326.435 599.315 335.008 597.897 335.083C596.041 335.181 594.358 333.975 592.509 334.924C592.23 336.042 592.163 336.24 592.721 337.315C594.306 340.367 596.891 343.247 598.897 346.081C602.464 351.117 605.358 356.166 607.937 361.786C617.401 382.415 622.522 401.965 621.105 424.928C619.377 452.927 610.272 470.614 589.504 488.85C578.016 499.173 563.797 505.969 548.548 508.424C548.506 508.395 548.463 508.368 548.42 508.339C546.213 506.848 544.25 505.962 541.755 505.093C537.002 506.803 534.916 508.66 531.987 512.661C522.235 514.507 511.609 513.914 501.708 513.934C500.92 512.902 500.113 511.893 499.216 510.952C496.627 508.237 493.231 506.006 489.334 506.046C487.515 506.065 485.943 506.591 484.689 507.945C482.758 510.029 482.747 512.129 482.776 514.845ZM520.275 335.696C504.835 337.709 463.761 347.619 454.159 359.611C453.035 361.015 452.19 362.714 452.606 364.562C453.042 366.496 454.597 367.703 456.293 368.509C468.635 374.374 487.724 369.789 501.355 371.328C515.907 372.972 530.084 378.176 544.663 378.969C551.2 379.325 557.939 379.071 564.113 376.67C568.029 375.146 572.141 372.602 573.89 368.587C574.384 367.454 574.554 366.232 574.721 365.017C588.5 383.272 594.487 413.949 591.363 436.487C589.073 453.007 581.34 468.596 567.864 478.74C546.211 495.039 510.517 498.961 484.161 495.031C466.643 492.419 447.629 484.272 436.774 469.696C425.639 454.743 425.856 429.824 428.553 412.193C428.742 410.967 428.94 409.743 429.15 408.52C430.513 402.863 431.964 397.227 433.503 391.614C435.333 385.174 440.987 371.283 440.621 365.446C439.659 364.249 439.688 364.138 438.199 363.843C434.625 365.161 432.909 369.011 431.412 372.278C428.452 378.738 426.533 385.564 424.614 392.384C418.504 414.104 414.751 437.764 422.917 459.551C429.193 476.297 441.844 487.43 457.868 494.657C485.986 507.338 524.941 506.111 553.585 495.217C572.089 488.179 586.263 475.645 594.265 457.354C603.941 435.24 601.295 402.297 592.379 380.072C585.494 362.91 573.464 347.792 556.142 340.379C544.456 335.379 532.802 334.756 520.275 335.696ZM538.135 384.125C536.738 385.105 536.413 385.577 535.819 387.177C535.938 388.407 535.947 388.527 536.736 389.47C540.613 390.903 545.212 390.824 549.325 392.112C554.721 393.801 559.99 397.353 565.589 398.023C566.666 397.049 567.066 396.604 567.498 395.158C567.014 393.211 566.187 392.377 564.494 391.323C557.371 386.885 546.539 383.707 538.135 384.125ZM479.399 388.17C472.469 389.253 457.509 393.06 453.117 398.794C452.219 399.966 452.23 400.729 452.303 402.148C453.105 403.211 453.223 403.342 454.463 403.809L456.624 403.211C461.425 401.083 466.239 399.029 471.253 397.444C474.686 396.358 478.606 395.627 481.873 394.165C482.929 393.692 483.828 393.39 484.31 392.23C484.758 391.151 484.606 390.214 484.204 389.176C482.854 388.093 481.97 387.859 480.212 388.066C479.941 388.098 479.67 388.135 479.399 388.17ZM557.796 410.235C553.431 410.538 545.201 411.195 542.226 414.766C541.437 415.713 541.441 416.267 541.281 417.448C541.759 418.68 541.798 418.984 542.845 419.755C546.288 419.627 549.509 418.31 552.942 417.969C557.841 417.572 567.131 418.027 570.521 414.326L570.695 413.126C569.275 411.317 566.518 410.658 564.311 410.423C562.17 410.194 559.95 410.247 557.796 410.235ZM470.271 414.693C465.763 415.036 456.843 414.957 453.743 418.549C453.256 419.114 453.237 419.223 452.934 419.816C453.242 420.825 453.33 421.006 454.313 421.547C458.046 423.602 464.11 422.447 468.132 422.092C471.996 422.103 480.193 423.366 483.379 421.157C484.099 420.025 484.343 419.489 484.333 418.141C483.693 416.706 482.72 416.098 481.281 415.606C478.313 414.593 473.385 414.431 470.271 414.693ZM502.263 417.765C499.004 418.064 493.751 418.571 491.472 421.106C490.57 422.11 490.38 423.152 490.553 424.456C491.149 428.959 498.387 433.702 502.004 435.935C504.139 437.252 505.871 438.177 508.44 438.025C512.266 435.37 520.902 428.732 521.695 423.898C521.908 422.599 521.757 421.459 520.863 420.437C517.363 416.438 507.187 417.593 502.263 417.765ZM553.446 422.312C551.289 422.365 548.003 422.011 546.402 423.678C545.499 424.618 544.923 425.943 545.011 427.245C545.066 428.044 545.515 428.672 546.138 429.174C549.835 432.158 562.331 430.537 567.125 430.402C570.157 430.411 572.904 430.657 575.307 428.469C575.586 427.777 575.833 427.614 575.536 426.853C574.809 424.989 572.683 423.921 570.897 423.3C565.86 421.546 558.686 421.703 553.446 422.312ZM460.616 426.769C457.653 427.021 453.371 426.973 451.221 429.356C450.402 430.263 450.333 430.823 450.283 431.952C451.66 433.661 453.347 433.925 455.47 434.126C459.525 434.51 463.808 434.153 467.875 434.031C471.002 434.117 474.888 434.773 477.666 433.133C478.234 432.04 478.525 431.242 478.071 430.003C477.52 428.495 476.32 427.657 474.851 427.186C470.455 425.775 465.171 427.085 460.616 426.769ZM529.239 439.246L528.807 439.608C521.648 445.702 517.146 452.431 506.358 451.715C502.34 451.448 493.747 446.904 490.724 448.009L490.15 448.992C490.645 450.363 491.156 450.855 492.203 451.805C499.299 456.041 506.312 458.054 514.605 455.889C520.76 454.281 526.545 449.985 529.71 444.439C530.507 443.045 531.139 441.708 530.908 440.073C529.932 439.263 530.487 439.542 529.239 439.246Z"/><path fill="#FEFEFE" d="M718.407 335.642C722.967 326.976 726.067 317.86 729.737 308.819L730.153 309.205C731.486 312.891 728.559 323.426 728.036 327.821L728.681 328.588C730.094 330.237 731.659 331.583 733.994 331.515C740.528 331.327 745.528 318.344 749.368 313.76L749.899 313.135C748.789 317.911 746.418 322.625 745.754 327.444C745.516 329.177 745.545 331.397 746.877 332.719C747.76 333.595 748.903 333.916 750.107 333.956C751.155 333.99 752.016 333.834 752.873 333.189C756.432 330.509 760.418 324.55 764.074 321.181C762.214 326.405 757.232 335.536 759.531 340.985C760.013 342.127 760.703 343.064 761.962 343.401C765.057 344.23 768.619 341.857 771.07 340.246C768.455 348.925 760.671 373.57 754.912 379.962C751.027 378.141 746.975 377.035 742.867 375.847C731.709 372.547 719.789 372.547 708.236 371.942C706.241 369.081 704.527 366.035 703.118 362.845C699.996 355.6 697.865 344.113 701.482 336.665C702.115 335.361 702.746 335.089 704.046 334.59C705.171 334.724 706.005 334.919 706.998 335.49C715.152 340.177 721.068 350.112 724.169 358.7C724.848 360.581 724.951 362.925 725.718 364.672C726.249 365.881 727.37 366.263 728.507 366.72C729.98 366.691 730.599 366.719 731.825 365.79C732.293 364.919 732.545 364.316 732.603 363.308C732.694 361.733 732.079 359.77 731.722 358.235C729.629 349.22 724.579 342.368 718.407 335.642Z"/><path fill="#FEFEFE" d="M308.759 334.597C313.354 337.659 321.06 348.76 325.099 348.945C325.976 348.986 326.685 348.966 327.356 348.373C330.418 345.664 328.477 335.235 328.523 331.193C328.681 331.295 328.848 331.383 328.997 331.498C334.029 335.375 338.904 352.647 339.882 358.862C339.037 359.718 338.271 360.619 337.513 361.553C333.184 366.889 326.08 377.891 326.804 385.068C327.423 385.973 327.669 386.247 328.738 386.672C329.948 387.153 331.259 386.936 332.11 385.923C334.271 383.351 335.767 378.413 337.371 375.37C339.843 370.681 348.501 358.003 353.474 356.354C354.826 355.906 355.13 356.059 356.371 356.571C357.318 357.656 357.754 358.418 357.957 359.864C359.743 372.594 353.736 383.613 346.229 393.229C336.61 391.694 328.784 391.945 319.294 394.266C314.316 395.582 309.486 397.459 304.645 399.201C296.393 386.965 291.338 371.83 286.807 357.878C290.148 359.466 296.4 363.133 300.087 362.247C301.555 361.893 301.697 361.603 302.464 360.409C303.15 354.037 297.924 348.825 295.81 343.135L295.555 342.439C298.877 344.595 301.308 347.799 304.286 350.377C306.071 351.922 308.652 354.025 311.213 353.548C312.41 353.326 313.459 352.474 314.024 351.411C315.879 347.921 310.209 339.102 309.01 335.386L308.759 334.597Z"/><path d="M574.721 365.017C574.554 366.232 574.384 367.454 573.89 368.587C572.141 372.602 568.029 375.146 564.113 376.67C557.939 379.071 551.2 379.325 544.663 378.969C530.084 378.176 515.907 372.972 501.355 371.328C487.724 369.789 468.635 374.374 456.293 368.509C454.597 367.703 453.042 366.496 452.606 364.562C452.19 362.714 453.035 361.015 454.159 359.611C463.761 347.619 504.835 337.709 520.275 335.696C532.802 334.756 544.456 335.379 556.142 340.379C573.464 347.792 585.494 362.91 592.379 380.072C601.295 402.297 603.941 435.24 594.265 457.354C586.263 475.645 572.089 488.179 553.585 495.217C524.941 506.111 485.986 507.338 457.868 494.657C441.844 487.43 429.193 476.297 422.917 459.551C414.751 437.764 418.504 414.104 424.614 392.384C426.533 385.564 428.452 378.738 431.412 372.278C432.909 369.011 434.625 365.161 438.199 363.843C439.688 364.138 439.659 364.249 440.621 365.446C440.987 371.283 435.333 385.174 433.503 391.614C431.964 397.227 430.513 402.863 429.15 408.52C428.94 409.743 428.742 410.967 428.553 412.193C425.856 429.824 425.639 454.743 436.774 469.696C447.629 484.272 466.643 492.419 484.161 495.031C510.517 498.961 546.211 495.039 567.864 478.74C581.34 468.596 589.073 453.007 591.363 436.487C594.487 413.949 588.5 383.272 574.721 365.017Z"/><path d="M565.589 398.023C559.99 397.353 554.721 393.801 549.325 392.112C545.212 390.824 540.613 390.903 536.736 389.47C535.947 388.527 535.938 388.407 535.819 387.177C536.413 385.577 536.738 385.105 538.135 384.125C546.539 383.707 557.371 386.885 564.494 391.323C566.187 392.377 567.014 393.211 567.498 395.158C567.066 396.604 566.666 397.049 565.589 398.023Z"/><path d="M456.624 403.211L454.463 403.809C453.223 403.342 453.105 403.211 452.303 402.148C452.23 400.729 452.219 399.966 453.117 398.794C457.509 393.06 472.469 389.253 479.399 388.17C479.67 388.135 479.941 388.098 480.212 388.066C481.97 387.859 482.854 388.093 484.204 389.176C484.606 390.214 484.758 391.151 484.31 392.23C483.828 393.39 482.929 393.692 481.873 394.165C478.606 395.627 474.686 396.358 471.253 397.444C466.239 399.029 461.425 401.083 456.624 403.211Z"/><path d="M552.942 417.969C549.509 418.31 546.288 419.627 542.845 419.755C541.798 418.984 541.759 418.68 541.281 417.448C541.441 416.267 541.437 415.713 542.226 414.766C545.201 411.195 553.431 410.538 557.796 410.235C559.95 410.247 562.17 410.194 564.311 410.423C566.518 410.658 569.275 411.317 570.695 413.126L570.521 414.326C567.131 418.027 557.841 417.572 552.942 417.969Z"/><path d="M468.132 422.092C464.11 422.447 458.046 423.602 454.313 421.547C453.33 421.006 453.242 420.825 452.934 419.816C453.237 419.223 453.256 419.114 453.743 418.549C456.843 414.957 465.763 415.036 470.271 414.693C473.385 414.431 478.313 414.593 481.281 415.606C482.72 416.098 483.693 416.706 484.333 418.141C484.343 419.489 484.099 420.025 483.379 421.157C480.193 423.366 471.996 422.103 468.132 422.092Z"/><path d="M508.44 438.025C505.871 438.177 504.139 437.252 502.004 435.935C498.387 433.702 491.149 428.959 490.553 424.456C490.38 423.152 490.57 422.11 491.472 421.106C493.751 418.571 499.004 418.064 502.263 417.765C507.187 417.593 517.363 416.438 520.863 420.437C521.757 421.459 521.908 422.599 521.695 423.898C520.902 428.732 512.266 435.37 508.44 438.025Z"/><path d="M567.125 430.402C562.331 430.537 549.835 432.158 546.138 429.174C545.515 428.672 545.066 428.044 545.011 427.245C544.923 425.943 545.499 424.618 546.402 423.678C548.003 422.011 551.289 422.365 553.446 422.312C558.686 421.703 565.86 421.546 570.897 423.3C572.683 423.921 574.809 424.989 575.536 426.853C575.833 427.614 575.586 427.777 575.307 428.469C572.904 430.657 570.157 430.411 567.125 430.402Z"/><path d="M467.875 434.031C463.808 434.153 459.525 434.51 455.47 434.126C453.347 433.925 451.66 433.661 450.283 431.952C450.333 430.823 450.402 430.263 451.221 429.356C453.371 426.973 457.653 427.021 460.616 426.769C465.171 427.085 470.455 425.775 474.851 427.186C476.32 427.657 477.52 428.495 478.071 430.003C478.525 431.242 478.234 432.04 477.666 433.133C474.888 434.773 471.002 434.117 467.875 434.031Z"/><path d="M492.203 451.805C491.156 450.855 490.645 450.363 490.15 448.992L490.724 448.009C493.747 446.904 502.34 451.448 506.358 451.715C517.146 452.431 521.648 445.702 528.807 439.608L529.239 439.246C530.487 439.542 529.932 439.263 530.908 440.073C531.139 441.708 530.507 443.045 529.71 444.439C526.545 449.985 520.76 454.281 514.605 455.889C506.312 458.054 499.299 456.041 492.203 451.805Z"/><path fill="#FEFEFE" d="M865.85 503.357C868.728 493.581 874.722 484.871 878.401 475.381C883.007 475.716 887.634 476.361 892.227 476.873C892.475 487.752 893.988 498.567 894.076 509.426C890.145 507.734 886.43 505.731 882.677 503.684C880.662 502.543 879.048 500.63 876.774 499.92C874.678 499.264 872.96 499.779 871.088 500.789C869.364 501.719 867.63 502.543 865.85 503.357Z"/><path fill="#FEFEFE" d="M505.721 576.016C504.827 576.615 504.038 577.229 502.947 577.391C502.181 577.505 502.096 577.19 501.547 576.744C500.317 571.257 504.445 557.44 502.638 547.864C501.109 539.757 498.351 531.184 494.667 523.809C493.273 521.018 490.446 517.623 489.645 514.714C489.501 514.191 489.709 513.021 489.731 512.434C490.57 512.913 490.503 512.852 491.223 513.339C500.86 519.859 506.855 534.808 508.85 545.888C510.326 554.082 510.653 568.891 505.721 576.016Z"/><path fill="#FEFEFE" d="M539.102 574.193C534.236 569.125 532.02 553.108 531.461 546.193C530.549 534.91 532.974 521.559 540.465 512.797C541.485 513.036 542.195 513.291 543.088 513.84C543.37 516.992 540.807 522.582 539.945 525.798C538.564 530.945 536.824 537.781 536.769 543.112C536.665 553.268 542.415 563.38 542.005 572.385C541.201 573.59 540.427 573.665 539.102 574.193Z"/><path d="M867.143 609.827C868.625 594.552 873.742 529.015 880.937 520.849C882.514 521.077 883.031 521.046 884.305 522.064C886.393 527.201 880.869 554.564 879.949 561.503C874.907 599.501 869.621 638.093 871.535 676.498C881.181 682.994 888.782 692.1 893.449 702.752C900.005 717.708 897.963 732.216 892.139 746.889C895.127 750.722 896.222 755.74 897.769 760.284C909.625 756.844 921.356 752.432 933.043 748.439C938.842 746.458 944.82 743.99 950.863 742.926C953.526 742.457 956.254 742.164 958.772 743.362C961.469 744.645 963.743 746.958 964.59 749.859C965.793 753.978 964.228 758.326 962.354 761.986C953.693 778.906 938.686 794.585 922.954 805.135C919.64 807.357 916.283 809.647 912.45 810.86C921.545 836.362 926.783 862.139 925.853 889.249C925.132 910.235 917.658 934.088 901.864 948.641C895.942 954.098 887.658 958.484 879.392 957.947C864.053 956.949 861.484 933.961 859.82 922.058C859.529 919.974 859.454 915.321 858.104 913.806C856.104 912.87 853.469 913.335 851.321 913.633C829.916 916.603 827.492 926.217 824.635 945.096C824.036 949.056 823.387 953.059 820.812 956.29C818.28 959.467 814.433 960.753 810.512 961.159C801.126 962.13 792.581 958.264 785.562 952.297C766.734 936.291 762.717 907.101 760.918 883.878C759.967 877.029 759.787 867.334 761.704 860.699C762.526 857.852 764.161 855.107 765.519 852.484C758.977 857.839 750.504 866.571 744.528 872.791C741.657 875.779 738.873 879.347 735.656 881.947C733.322 883.833 729.885 885.197 726.853 884.682C724.175 884.227 722.225 882.44 720.797 880.219C712.924 867.969 716.769 847.826 719.535 834.498C716.095 835.074 685.169 834.439 681.595 833.757C679.729 833.401 677.903 832.449 676.851 830.827C676.366 830.079 676.592 829.971 676.78 829.18C678.18 827.914 679.706 827.515 681.539 827.242C686.126 826.559 691.31 827.117 695.948 827.218C704.839 827.442 713.732 827.583 722.626 827.638C723.55 824.61 724.503 821.595 725.715 818.667C733.223 800.514 752.417 772.22 771.081 764.392C767.893 756.849 764.812 749.583 763.235 741.5C759.442 722.055 764.389 707.88 775.071 691.877C772.919 687.946 770.809 683.922 769.065 679.792C760.286 659.007 754.153 622.623 763.065 601.223C765.071 596.406 768.158 591.436 773.244 589.491C777.252 587.958 781.732 588.484 785.548 590.32C805.52 599.932 810.459 647.048 817.346 667.007L817.589 667.701C816.7 643.418 815.221 615.138 827.733 593.291C830.835 587.875 836.46 580.096 842.825 578.612C846.146 577.838 849.794 578.798 852.644 580.564C861.708 586.183 865.089 600.174 867.143 609.827ZM844.934 585.94C837.112 589.786 833.076 596.475 830.332 604.52C823.833 623.58 824.063 644.586 824.583 664.476L832.113 664.061C831.938 651.933 831.022 623.937 839.758 615.221C840.943 614.038 842.304 613.382 844.003 613.357C846.405 613.323 848.019 614.648 849.648 616.227C855.787 629.743 855.574 652.805 855.034 667.64C857.842 668.591 860.643 669.563 863.436 670.556C865.706 652.279 863.612 604.711 852.172 590.118C850.581 588.089 848.575 586.344 845.933 586.035C845.601 585.996 845.267 585.972 844.934 585.94ZM777.052 595.982C771.93 598.982 769.935 603.533 768.483 609.086C763.525 628.041 767.077 650.043 772.858 668.376C774.279 672.882 775.697 677.504 778.114 681.592C778.931 682.973 779.736 684.507 781.031 685.484C781.971 685.022 782.346 684.917 782.747 683.859C784.866 678.264 771.175 635.45 779.202 622.308C780.613 621.559 781.53 621.054 783.183 621.475C787.606 622.603 790.736 628.325 792.638 632.145C798.56 644.043 800.135 657.618 802.889 670.471L809.922 668.145C804.989 650.461 799.662 621.613 791.365 606.362C789.547 603.021 787.089 599.733 783.774 597.761C781.785 596.577 779.357 595.997 777.052 595.982ZM844.06 622.27C838.272 630.411 839.441 654.345 839.804 664.352C841.832 664.672 843.885 664.94 845.887 665.393L847.719 665.804C850.005 661.562 847.051 630.142 845.526 624.937C845.202 623.833 844.887 623.102 844.06 622.27ZM784.484 632.792C784.041 648.423 788.075 663.077 790.207 678.396L794.716 675.049C795.325 674.522 795.954 674.322 795.969 673.46C796.018 670.43 794.709 666.638 794.064 663.652C792.19 654.981 790.188 639.383 784.484 632.792ZM834.487 671.224C814.694 672.005 796.686 678.672 783.057 693.51C774.094 703.268 768.995 717.122 769.631 730.396C769.854 735.04 770.975 739.849 773.097 743.995C791.524 752.898 805.416 754.63 825.73 754.108C845.152 753.674 871.709 752.86 886.204 738.004C889.973 734.141 890.313 728.148 890.186 722.997C889.858 709.676 883.195 696.388 873.556 687.347C862.664 677.131 849.334 671.451 834.487 671.224ZM953.858 749.62C935.199 755.239 916.616 761.803 898.358 768.61C886.256 773.122 874.696 778.409 862.097 781.508C839.175 787.147 805.264 787.935 784.108 776.557C780.397 774.562 777.036 772.169 773.685 769.627L773.248 770.047C766.736 776.229 759.759 781.44 753.629 788.132C737.733 805.488 725.223 832.264 724.406 855.986C724.244 860.669 723.941 871.969 727.364 875.529C728.245 876.444 728.794 876.443 729.948 876.451C734.197 872.981 737.789 868.526 741.624 864.601C751.185 854.816 760.912 846.114 768.427 834.471C772.745 827.781 775.999 820.207 779.555 813.09C780.426 811.347 781.111 809.225 782.152 807.599C782.901 806.43 783.786 806.1 785.043 805.652C786.454 805.838 786.626 805.901 787.718 806.811C789.125 810.3 787.176 814.309 785.787 817.547C782.785 824.671 779.179 831.525 775.008 838.034C772.561 841.864 768.616 846.25 766.915 850.386C764.99 855.071 767.762 863.158 768.184 868.21C769.214 880.523 769.08 892.305 771.135 904.644C773.854 919.701 780.104 939.74 793.476 948.86C797.908 951.883 805.008 954.611 810.414 953.671C812.393 953.328 814.255 952.369 815.387 950.664C817.108 948.075 817.17 943.539 817.525 940.518C819.6 922.9 825.587 911.661 843.71 907.085C852.374 904.898 867.594 903.551 875.542 908.408C876.175 908.794 876.545 909.209 876.932 909.833C876.111 911.56 874.456 912.277 872.726 912.905C869.979 913.901 866.853 913.651 863.988 914.102C865.306 916.691 866.445 919.202 867.214 922.01C869.164 929.135 871.022 947.949 878.837 950.201C882.753 951.329 887.207 949.265 890.53 947.289C903.77 939.415 911.353 922.386 914.87 908.043C921.849 879.583 916.631 850.897 908.125 823.443C905.888 816.223 903.745 809.047 900.848 802.053C899.637 799.13 892.618 785.844 893.71 783.472C893.975 782.897 894.459 782.451 894.834 781.94C896.01 781.489 896.28 781.381 897.522 781.906C901.778 783.708 908.164 799.349 910.199 803.971C926.425 794.879 938.896 782.32 949.932 767.508C952.675 763.826 955.925 759.764 957.279 755.324C957.741 753.811 957.791 752.702 957.355 751.162C956.249 749.88 955.48 749.976 953.858 749.62Z"/><path fill="#FEFEFE" d="M126.51 526.47C132.178 526.6 137.763 526.728 143.355 525.667C144.027 525.46 143.61 525.502 144.592 525.901C145.93 529.416 146.667 533.096 147.695 536.704C151.397 549.689 154.51 562.752 157.63 575.888C161.892 593.832 166.835 611.779 170.121 629.926C167.981 626.017 166.256 621.802 164.395 617.75C153.682 595.196 143.773 572.268 134.689 549.01C131.868 541.611 128.604 534.107 126.51 526.47Z"/><path fill="#FEFEFE" d="M824.583 664.476C824.063 644.586 823.833 623.58 830.332 604.52C833.076 596.475 837.112 589.786 844.934 585.94C845.267 585.972 845.601 585.996 845.933 586.035C848.575 586.344 850.581 588.089 852.172 590.118C863.612 604.711 865.706 652.279 863.436 670.556C860.643 669.563 857.842 668.591 855.034 667.64C855.574 652.805 855.787 629.743 849.648 616.227C848.019 614.648 846.405 613.323 844.003 613.357C842.304 613.382 840.943 614.038 839.758 615.221C831.022 623.937 831.938 651.933 832.113 664.061L824.583 664.476Z"/><path fill="#FEFEFE" d="M779.202 622.308C771.175 635.45 784.866 678.264 782.747 683.859C782.346 684.917 781.971 685.022 781.031 685.484C779.736 684.507 778.931 682.973 778.114 681.592C775.697 677.504 774.279 672.882 772.858 668.376C767.077 650.043 763.525 628.041 768.483 609.086C769.935 603.533 771.93 598.982 777.052 595.982C779.357 595.997 781.785 596.577 783.774 597.761C787.089 599.733 789.547 603.021 791.365 606.362C799.662 621.613 804.989 650.461 809.922 668.145L802.889 670.471C800.135 657.618 798.56 644.043 792.638 632.145C790.736 628.325 787.606 622.603 783.183 621.475C781.53 621.054 780.613 621.559 779.202 622.308Z"/><path fill="#FEFEFE" d="M839.804 664.352C839.441 654.345 838.272 630.411 844.06 622.27C844.887 623.102 845.202 623.833 845.526 624.937C847.051 630.142 850.005 661.562 847.719 665.804L845.887 665.393C843.885 664.94 841.832 664.672 839.804 664.352Z"/><path fill="#FEFEFE" d="M790.207 678.396C788.075 663.077 784.041 648.423 784.484 632.792C790.188 639.383 792.19 654.981 794.064 663.652C794.709 666.638 796.018 670.43 795.969 673.46C795.954 674.322 795.325 674.522 794.716 675.049L790.207 678.396Z"/><path d="M187.837 677.071C186.906 676.636 185.59 676.132 184.998 675.255C183.193 672.58 179.383 658.156 179.937 655.158C181.021 654.361 182.059 653.595 182.95 652.576C183.159 652.338 183.363 652.095 183.569 651.854C184.388 652.174 184.937 652.412 185.527 653.097C187.898 655.853 191.14 669.559 190.596 673.432C190.32 675.392 189.303 675.976 187.837 677.071Z"/><path fill="#FEFEFE" d="M773.097 743.995C770.975 739.849 769.854 735.04 769.631 730.396C768.995 717.122 774.094 703.268 783.057 693.51C796.686 678.672 814.694 672.005 834.487 671.224C849.334 671.451 862.664 677.131 873.556 687.347C883.195 696.388 889.858 709.676 890.186 722.997C890.313 728.148 889.973 734.141 886.204 738.004C871.709 752.86 845.152 753.674 825.73 754.108C805.416 754.63 791.524 752.898 773.097 743.995ZM842.714 685.463C839.756 686.862 837.513 688.145 836.468 691.442C835.959 693.047 835.944 694.652 836.82 696.151C837.982 698.14 839.964 698.886 842.141 699.192C842.347 699.221 842.555 699.232 842.762 699.252C845.028 698.73 846.712 698.459 848.053 696.389C849.143 694.707 849.641 692.495 849.182 690.526C848.798 688.876 847.777 687.333 846.33 686.43C845.177 685.71 844.038 685.594 842.714 685.463ZM808.91 689.859C805.509 691.088 803.723 694.819 804.9 698.239C806.076 701.659 809.779 703.502 813.217 702.378C815.488 701.636 817.183 699.727 817.652 697.384C818.121 695.041 817.29 692.627 815.479 691.068C813.668 689.509 811.158 689.047 808.91 689.859ZM858.148 698.125C849.044 699.816 844.7 706.654 839.202 713.374C837.766 713.93 836.345 714.684 834.774 714.502C834.937 710.309 840.888 708.15 837.684 703.33C833.825 701.085 828.106 702.104 823.944 703.204C821.128 703.947 818.771 704.783 816.862 707.052C816.583 708.336 816.46 708.87 817.285 709.973C818.878 712.101 821.328 714.052 823.276 715.876C821.147 715.545 819.359 715.234 817.212 715.739C816.176 716.537 815.611 716.966 815.539 718.361C815.47 719.702 815.89 721.328 816.211 722.617C818.097 728.514 820.409 734.885 826.19 738.048C828.99 739.581 833.044 740.751 836.165 739.584C839.31 738.408 841.146 734.929 842.348 732.012C846.276 722.476 843.295 710.358 854.908 705.221C858.016 703.846 864.809 704.431 866.339 701.453C865.986 700.209 865.325 699.387 864.21 698.727C862.366 697.636 860.201 697.956 858.148 698.125ZM789.753 703.163L788.827 704.138C789.032 705.366 789.109 705.853 790.159 706.693C791.075 707.426 792.238 707.757 793.349 708.058C796.9 709.021 800.555 709.639 804.072 710.71C807.094 711.63 810.001 713.026 813.035 713.84C813.862 712.622 814.325 712.05 814.343 710.522C813.068 707.784 810.124 706.557 807.427 705.575C801.48 703.41 796.042 702.894 789.753 703.163ZM851.65 713.199C850.445 714.463 849.994 714.687 849.717 716.457C850.407 718.813 851.49 719.885 853.653 721.05C856.003 722.316 858.036 722.755 860.688 722.55C861.522 721.318 862.12 720.505 862.21 718.962C861.512 717.387 860.84 716.575 859.215 715.895C856.751 714.862 854.126 714.224 851.65 713.199ZM804.32 718.244C801.276 718.391 798.348 718.594 796.408 721.352C795.653 722.426 795.78 722.771 796.065 723.927C797.241 724.83 798.154 725.028 799.62 725.121C802.415 724.546 806.004 724.213 807.51 721.371C808.061 720.33 807.756 719.729 807.415 718.724C806.137 718.111 805.756 718.163 804.32 718.244Z"/><path d="M239.012 685.772C243.761 680.936 247.308 677.524 253.949 675.585C255.96 675.523 257.735 675.685 259.517 676.711C261.374 677.78 262.47 679.529 262.973 681.578C264.692 688.57 260.892 696.563 257.482 702.495C270.35 722.421 270.717 737.185 271.119 760.055C284.293 768.765 299.616 774.575 314.895 778.403C319.622 779.587 324.423 780.65 329.234 781.43C338.566 782.944 350.076 782.972 357.911 788.887C360.275 790.671 362.108 793.14 362.355 796.169C362.604 799.217 361.188 801.916 359.143 804.088C355.584 807.869 350.839 809.834 346.134 811.764C326.035 820.011 305.26 820.803 283.912 821.162C284.546 827.652 285.183 834.213 285.398 840.73C285.874 855.179 285.301 870.53 287.766 884.785C290.9 902.914 305.664 921.674 302.874 940.64C302.237 944.97 300.209 948.832 296.529 951.311C290.987 955.044 282.726 955.277 276.315 954.111C253.07 949.882 235.519 927.169 222.756 908.842C219.397 909.695 216.023 910.898 213.127 912.836C198.989 922.299 205.871 942.711 203.05 956.877C202.106 961.621 200.305 966.773 196.024 969.484C190.81 972.787 184.324 970.868 178.763 969.701C166.869 966.483 156.743 959.903 148.366 950.948C130.05 931.369 119.577 904.253 117.675 877.68C117.021 868.534 117.484 859.398 117.82 850.249C97.8874 849.76 77.9662 849.988 58.0409 849.427C49.4002 849.183 40.4723 849.231 31.9074 848.067C29.2632 847.708 26.5887 847.201 24.3465 845.695C23.8596 844.481 23.9373 844.277 24.1899 842.976C28.5421 838.094 46.4365 841.962 52.8804 841.332C53.1031 841.163 53.4462 841.085 53.5484 840.824C53.6512 840.563 52.2173 837.794 52.0674 837.215C51.7767 836.09 51.8864 834.764 52.1446 833.645C55.572 818.784 105.615 789.065 118.45 781.755C123.777 778.721 129.464 776.369 134.744 773.259L135.302 772.925C135.936 761.368 137.476 750.056 139.449 738.66C134.662 735.613 129.908 730.382 126.824 725.635C125.227 723.176 123.781 720.001 124.584 717.015C125.029 715.363 126.165 714.063 127.635 713.221C133.45 709.889 143.351 712.455 149.377 714.152C156.614 704.144 165.094 696.198 176.231 690.627C197.163 680.155 216.845 678.346 239.012 685.772ZM230.985 696.553C228.03 697.927 225.795 699.73 224.563 702.842C223.561 705.359 223.624 708.176 224.739 710.645C225.934 713.261 228.315 715.419 231.074 716.29C232.639 716.785 234.488 716.59 236.109 716.506C238.936 715.378 241.121 713.771 242.383 710.916C243.617 708.125 243.51 704.825 242.243 702.062C241.19 699.766 239.089 697.619 236.671 696.782C234.931 696.18 232.797 696.397 230.985 696.553ZM181.061 710.651C177.418 711.224 174.885 712.729 172.752 715.833C170.919 718.499 170.151 721.83 170.937 724.998C171.557 727.495 173.311 729.619 175.582 730.805C177.101 731.598 178.709 731.841 180.393 731.992C184.119 731.146 186.953 729.738 189.087 726.432C190.742 723.869 191.346 720.775 190.599 717.8C189.941 715.268 188.285 713.11 186.01 711.818C184.481 710.936 182.784 710.779 181.061 710.651ZM211.892 717.655C207.461 718.376 202.234 719.099 199.419 723.028C198.158 724.788 197.789 726.957 198.246 729.059C199.003 732.54 201.878 735.184 204.816 736.942C206.411 737.886 208.07 738.719 209.78 739.435C212.211 739.916 213.773 739.891 215.918 738.495C219.081 736.438 221.165 732.911 221.74 729.206C222.16 726.494 221.655 723.472 220.018 721.22C218.741 719.463 216.285 717.826 214.096 717.618C213.362 717.548 212.625 717.6 211.892 717.655ZM219.338 739.554C215.066 740.6 204.743 741.89 202.43 745.835C202.15 746.313 202.091 746.76 201.98 747.279L202.441 748.267C205.092 749.166 207.33 747.9 209.696 746.757C211.476 745.752 213.233 744.692 215.115 743.889C218.778 744.475 222.03 745.435 225.515 743.765L226.204 742.812C225.932 741.693 225.764 741.387 224.69 740.742C223.499 740.026 220.729 739.51 219.338 739.554Z"/><path d="M842.762 699.252C842.555 699.232 842.347 699.221 842.141 699.192C839.964 698.886 837.982 698.14 836.82 696.151C835.944 694.652 835.959 693.047 836.468 691.442C837.513 688.145 839.756 686.862 842.714 685.463C844.038 685.594 845.177 685.71 846.33 686.43C847.777 687.333 848.798 688.876 849.182 690.526C849.641 692.495 849.143 694.707 848.053 696.389C846.712 698.459 845.028 698.73 842.762 699.252Z"/><path fill="#FEFEFE" d="M664.024 692.563C663.435 691.859 663.602 691.668 663.585 690.784C664.643 688.804 666.624 687.446 668.318 686.016L668.668 686.342C667.594 688.668 665.662 690.611 664.024 692.563Z"/><path d="M813.217 702.378C809.779 703.502 806.076 701.659 804.9 698.239C803.723 694.819 805.509 691.088 808.91 689.859C811.158 689.047 813.668 689.509 815.479 691.068C817.29 692.627 818.121 695.041 817.652 697.384C817.183 699.727 815.488 701.636 813.217 702.378Z"/><path fill="#FEFEFE" d="M374.966 697.265L373.793 697.303C371.606 695.998 370.23 693.28 368.739 691.251C370.378 691.785 372.76 692.881 373.979 694.14C375.205 695.407 375.076 695.578 374.966 697.265Z"/><path fill="#FEFEFE" d="M236.109 716.506C234.488 716.59 232.639 716.785 231.074 716.29C228.315 715.419 225.934 713.261 224.739 710.645C223.624 708.176 223.561 705.359 224.563 702.842C225.795 699.73 228.03 697.927 230.985 696.553C232.797 696.397 234.931 696.18 236.671 696.782C239.089 697.619 241.19 699.766 242.243 702.062C243.51 704.825 243.617 708.125 242.383 710.916C241.121 713.771 238.936 715.378 236.109 716.506Z"/><path fill="#FEFEFE" d="M637.658 705.975C642.316 703.086 647.254 700.587 652.092 698.015L652.43 698.365C652.73 699.787 652.768 700.583 652.467 702.047C649.472 706.576 642.22 709.592 637.558 711.987C636.754 710.899 637.526 707.433 637.658 705.975Z"/><path d="M839.202 713.374C844.7 706.654 849.044 699.816 858.148 698.125C860.201 697.956 862.366 697.636 864.21 698.727C865.325 699.387 865.986 700.209 866.339 701.453C864.809 704.431 858.016 703.846 854.908 705.221C843.295 710.358 846.276 722.476 842.348 732.012C841.146 734.929 839.31 738.408 836.165 739.584C833.044 740.751 828.99 739.581 826.19 738.048C820.409 734.885 818.097 728.514 816.211 722.617C815.89 721.328 815.47 719.702 815.539 718.361C815.611 716.966 816.176 716.537 817.212 715.739C819.359 715.234 821.147 715.545 823.276 715.876C821.328 714.052 818.878 712.101 817.285 709.973C816.46 708.87 816.583 708.336 816.862 707.052C818.771 704.783 821.128 703.947 823.944 703.204C828.106 702.104 833.825 701.085 837.684 703.33C840.888 708.15 834.937 710.309 834.774 714.502C836.345 714.684 837.766 713.93 839.202 713.374ZM837.909 722.022L837.323 722.326C833.879 724.077 831.691 724.405 827.851 724.285C826.636 724.247 825.426 723.905 824.497 724.716C824.994 726.44 825.981 727.771 826.972 729.249C828.345 730.806 829.569 732.369 831.816 732.495C833.416 732.584 834.685 731.752 835.676 730.582C837.127 728.867 838.157 724.735 837.987 722.484C837.975 722.328 837.935 722.176 837.909 722.022Z"/><path fill="#FEFEFE" d="M395.603 712.81C391.765 710.786 386.722 708.23 383.846 704.928C382.976 703.93 383.177 703.551 383.227 702.278C386.279 702.471 393.274 705.605 395.116 708.229C396.141 709.688 395.711 711.139 395.603 712.81Z"/><path d="M813.035 713.84C810.001 713.026 807.094 711.63 804.072 710.71C800.555 709.639 796.9 709.021 793.349 708.058C792.238 707.757 791.075 707.426 790.159 706.693C789.109 705.853 789.032 705.366 788.827 704.138L789.753 703.163C796.042 702.894 801.48 703.41 807.427 705.575C810.124 706.557 813.068 707.784 814.343 710.522C814.325 712.05 813.862 712.622 813.035 713.84Z"/><path fill="#FEFEFE" d="M180.393 731.992C178.709 731.841 177.101 731.598 175.582 730.805C173.311 729.619 171.557 727.495 170.937 724.998C170.151 721.83 170.919 718.499 172.752 715.833C174.885 712.729 177.418 711.224 181.061 710.651C182.784 710.779 184.481 710.936 186.01 711.818C188.285 713.11 189.941 715.268 190.599 717.8C191.346 720.775 190.742 723.869 189.087 726.432C186.953 729.738 184.119 731.146 180.393 731.992Z"/><path fill="#FEFEFE" d="M605.769 718.079C612.058 716.137 618.11 713.524 624.404 711.558C625.371 711.478 624.84 711.431 625.976 711.855C626.64 713.497 626.098 715.557 625.859 717.283C619.82 719.485 613.738 721.257 607.533 722.91C607.04 722.98 606.584 722.871 606.095 722.803C605.284 721.579 605.684 719.52 605.769 718.079Z"/><path fill="#FEFEFE" d="M405.696 717.525L405.182 712.419C410.37 714.74 415.742 716.527 420.981 718.716C421.758 720.187 421.513 722.221 421.508 723.867C416.193 721.831 410.891 719.863 405.696 717.525Z"/><path d="M860.688 722.55C858.036 722.755 856.003 722.316 853.653 721.05C851.49 719.885 850.407 718.813 849.717 716.457C849.994 714.687 850.445 714.463 851.65 713.199C854.126 714.224 856.751 714.862 859.215 715.895C860.84 716.575 861.512 717.387 862.21 718.962C862.12 720.505 861.522 721.318 860.688 722.55Z"/><path fill="#FEFEFE" d="M209.78 739.435C208.07 738.719 206.411 737.886 204.816 736.942C201.878 735.184 199.003 732.54 198.246 729.059C197.789 726.957 198.158 724.788 199.419 723.028C202.234 719.099 207.461 718.376 211.892 717.655C212.625 717.6 213.362 717.548 214.096 717.618C216.285 717.826 218.741 719.463 220.018 721.22C221.655 723.472 222.16 726.494 221.74 729.206C221.165 732.911 219.081 736.438 215.918 738.495C213.773 739.891 212.211 739.916 209.78 739.435ZM214.331 721.321C210.403 721.538 204.773 721.911 201.966 725.079C201.354 725.77 201.372 726.207 201.167 727.079C201.617 728.424 202.07 729.348 203.37 730.003C204.802 730.726 206.477 731.213 207.991 731.743L212.047 733.989C213.994 731.479 218.65 727.043 218.114 723.672C217.987 722.878 217.8 722.269 217.088 721.889C216.263 721.448 215.267 721.185 214.331 721.321Z"/><path d="M799.62 725.121C798.154 725.028 797.241 724.83 796.065 723.927C795.78 722.771 795.653 722.426 796.408 721.352C798.348 718.594 801.276 718.391 804.32 718.244C805.756 718.163 806.137 718.111 807.415 718.724C807.756 719.729 808.061 720.33 807.51 721.371C806.004 724.213 802.415 724.546 799.62 725.121Z"/><path d="M207.991 731.743C206.477 731.213 204.802 730.726 203.37 730.003C202.07 729.348 201.617 728.424 201.167 727.079C201.372 726.207 201.354 725.77 201.966 725.079C204.773 721.911 210.403 721.538 214.331 721.321C215.267 721.185 216.263 721.448 217.088 721.889C217.8 722.269 217.987 722.878 218.114 723.672C218.65 727.043 213.994 731.479 212.047 733.989L207.991 731.743Z"/><path fill="#FEFEFE" d="M569.114 731.971L567.002 731.994L566.516 731.3C566.475 729.894 566.356 728.779 567.047 727.494C570.69 726.059 574.949 725.64 578.786 724.833C583.464 723.85 588.115 722.696 592.765 721.586C594.072 721.373 593.454 721.299 594.624 721.755C595.01 723.385 594.987 724.944 594.991 726.612C586.468 728.863 577.83 730.652 569.114 731.971Z"/><path fill="#FEFEFE" d="M826.972 729.249C825.981 727.771 824.994 726.44 824.497 724.716C825.426 723.905 826.636 724.247 827.851 724.285C831.691 724.405 833.879 724.077 837.323 722.326L837.909 722.022C837.935 722.176 837.975 722.328 837.987 722.484C838.157 724.735 837.127 728.867 835.676 730.582C834.685 731.752 833.416 732.584 831.816 732.495C829.569 732.369 828.345 730.806 826.972 729.249Z"/><path fill="#FEFEFE" d="M449.217 731.29C443.894 729.85 437.514 729.81 432.92 726.593C432.064 725.003 432.4 724.354 432.639 722.601C438.104 723.814 444.486 724.633 449.541 726.949C449.96 728.479 449.515 729.761 449.217 731.29Z"/><path fill="#FEFEFE" d="M481.868 736.007C475.773 735.764 466.301 735.898 460.806 733.344C460.055 731.831 460.47 729.983 460.629 728.354C467.293 729.173 475.021 729.347 481.412 731.231C482.167 732.684 481.904 734.414 481.868 736.007Z"/><path fill="#FEFEFE" d="M533.301 735.952C531.498 736.022 529.833 736.025 528.042 735.795L527.596 735.027C527.566 733.466 527.588 732.422 528.242 730.952C532.665 729.506 545.811 729.501 551.681 728.685C552.589 728.565 553.579 728.295 554.459 728.66C554.966 728.87 555.729 730.014 555.904 730.572C556.305 731.853 556.154 732.213 555.562 733.298C550.856 735.724 538.999 735.527 533.301 735.952Z"/><path fill="#FEFEFE" d="M516.99 736.309C509.133 736.436 500.338 737.385 492.612 736.274C491.755 734.795 491.997 732.602 491.978 730.909L516.418 731L516.99 736.309Z"/><path fill="#FEFEFE" d="M209.696 746.757C207.33 747.9 205.092 749.166 202.441 748.267L201.98 747.279C202.091 746.76 202.15 746.313 202.43 745.835C204.743 741.89 215.066 740.6 219.338 739.554C220.729 739.51 223.499 740.026 224.69 740.742C225.764 741.387 225.932 741.693 226.204 742.812L225.515 743.765C222.03 745.435 218.778 744.475 215.115 743.889C213.233 744.692 211.476 745.752 209.696 746.757Z"/><path fill="#FEFEFE" d="M773.685 769.627C777.036 772.169 780.397 774.562 784.108 776.557C805.264 787.935 839.175 787.147 862.097 781.508C874.696 778.409 886.256 773.122 898.358 768.61C916.616 761.803 935.199 755.239 953.858 749.62C955.48 749.976 956.249 749.88 957.355 751.162C957.791 752.702 957.741 753.811 957.279 755.324C955.925 759.764 952.675 763.826 949.932 767.508C938.896 782.32 926.425 794.879 910.199 803.971C908.164 799.349 901.778 783.708 897.522 781.906C896.28 781.381 896.01 781.489 894.834 781.94C894.459 782.451 893.975 782.897 893.71 783.472C892.618 785.844 899.637 799.13 900.848 802.053C903.745 809.047 905.888 816.223 908.125 823.443C916.631 850.897 921.849 879.583 914.87 908.043C911.353 922.386 903.77 939.415 890.53 947.289C887.207 949.265 882.753 951.329 878.837 950.201C871.022 947.949 869.164 929.135 867.214 922.01C866.445 919.202 865.306 916.691 863.988 914.102C866.853 913.651 869.979 913.901 872.726 912.905C874.456 912.277 876.111 911.56 876.932 909.833C876.545 909.209 876.175 908.794 875.542 908.408C867.594 903.551 852.374 904.898 843.71 907.085C825.587 911.661 819.6 922.9 817.525 940.518C817.17 943.539 817.108 948.075 815.387 950.664C814.255 952.369 812.393 953.328 810.414 953.671C805.008 954.611 797.908 951.883 793.476 948.86C780.104 939.74 773.854 919.701 771.135 904.644C769.08 892.305 769.214 880.523 768.184 868.21C767.762 863.158 764.99 855.071 766.915 850.386C768.616 846.25 772.561 841.864 775.008 838.034C779.179 831.525 782.785 824.671 785.787 817.547C787.176 814.309 789.125 810.3 787.718 806.811C786.626 805.901 786.454 805.838 785.043 805.652C783.786 806.1 782.901 806.43 782.152 807.599C781.111 809.225 780.426 811.347 779.555 813.09C775.999 820.207 772.745 827.781 768.427 834.471C760.912 846.114 751.185 854.816 741.624 864.601C737.789 868.526 734.197 872.981 729.948 876.451C728.794 876.443 728.245 876.444 727.364 875.529C723.941 871.969 724.244 860.669 724.406 855.986C725.223 832.264 737.733 805.488 753.629 788.132C759.759 781.44 766.736 776.229 773.248 770.047L773.685 769.627Z"/><path d="M544.102 778.685C543.429 778.887 542.756 779.065 542.081 779.256C540.33 779.753 538.68 780.1 536.864 780.265C530.558 780.837 505.798 782.677 501.637 778.114C500.754 777.146 500.369 776.27 500.501 774.938C500.656 773.378 502.026 772.153 503.054 771.092C511.196 771.762 519.59 771.631 527.75 771.322C532.538 771.141 537.712 770.544 542.467 771.001C544.648 771.21 546.617 771.715 548.37 773.051C548.637 773.732 548.96 774.074 548.708 774.813C548.003 776.887 545.914 777.78 544.102 778.685Z"/><path d="M947.888 821.547C944.598 821.939 941.016 822.488 937.704 822.228C935.774 822.076 934.223 821.746 932.918 820.234C932.546 819.003 932.553 818.524 932.974 817.309C933.833 816.354 934.67 816.12 935.88 815.836C943.773 813.98 952.438 813.703 960.516 812.919L1005.26 808.701C1008.87 808.096 1012.88 808.305 1016.33 809.48C1017.93 810.026 1018.95 810.516 1019.73 812.03C1019.56 812.436 1019.48 812.719 1019.15 813.058C1017.78 814.449 1014.83 815.157 1013 815.521C1005.97 816.914 998.371 817.271 991.231 817.925L947.888 821.547Z"/><path d="M358.758 844.422C349.077 845.151 307.931 847.584 300.922 843.33C300.51 842.61 300.085 842.302 300.28 841.441C300.738 839.414 302.757 838.564 304.404 837.613L342.725 837.405C347.868 837.368 355.869 836.431 360.67 837.642C361.881 837.948 362.483 838.424 363.05 839.548C363.652 840.742 363.377 841.813 363.013 842.997C361.816 844.1 360.301 844.161 358.758 844.422Z"/><path fill="#FEFEFE" d="M593.105 878.995C601.775 877.361 610.639 876.461 619.362 875.069C631.775 873.089 644.11 870.692 656.53 868.731C658.172 871.236 656.681 879.904 656.426 883.123C648.203 883.741 600.144 889.287 596.499 887.743L593.105 878.995Z"/><path fill="#FEFEFE" d="M397.797 890.434C396.846 886.476 395.796 882.516 395.247 878.478C417.013 881.047 439.461 877.98 461.212 881.497C459.689 884.269 458.43 886.886 457.442 889.893C457.071 890.778 456.61 891.486 456.104 892.301C453.884 893.497 403.792 890.651 397.797 890.434Z"/><path fill="#FEFEFE" d="M599 898.459C605.739 897.436 612.677 897.076 619.474 896.417C630.763 895.341 642.035 894.103 653.288 892.704C658.884 891.439 668.464 894.17 673.732 896.282C666.579 897.385 659.477 898.615 652.5 900.573C648.581 901.672 640.351 903.388 638.23 907.164C638.031 908.578 637.986 909.217 638.532 910.591C643.371 915.551 653.201 907.109 659.043 908.945C659.732 911.549 657.452 914.654 657.809 917.65C658.565 918.842 658.969 919.409 660.395 919.769C665.315 921.013 665.378 915.882 668.657 913.92C671.529 912.201 674.807 913.271 677.84 913.903C676.47 916.221 674.299 919.058 674.141 921.764C674.921 924.294 676.418 926.469 678.198 928.41C679.43 929.754 680.962 931.572 682.911 931.661C686.219 930.282 686.699 924.599 688.425 921.703C689.141 920.501 690.084 919.631 691.476 919.317C697.515 917.957 719.437 929.953 725.25 933.437C726.28 933.934 726.918 934.251 727.621 935.167L727.168 935.921C720.591 938.574 712.231 939.655 705.246 940.473C690.237 942.232 674.077 942.698 659.035 941.688C638.892 940.336 618.762 937.043 598.603 936.342C598.447 923.679 598.931 911.105 599 898.459Z"/><path fill="#FEFEFE" d="M388.174 902.214C391.867 902.123 395.063 901.601 398.622 900.67C410.63 899.695 423.229 900.855 435.264 901.281C441.966 901.518 448.695 901.261 455.349 902.193C455.658 914.487 456.803 927.098 455.424 939.33C438.443 940.437 421.573 943.939 404.691 945.995C383.811 948.371 362.689 947.493 342.079 943.392C338.038 942.613 333.985 941.898 329.921 941.248C336.488 936.568 354.994 929.773 363.71 925.936C365.391 929.964 368.479 933.478 372.566 935.208C374.342 935.96 375.804 936.181 377.622 935.445C378.347 934.537 378.626 934.265 378.684 933.051C378.87 929.108 374.65 925.505 372.222 922.907C375.828 921.713 379.409 920.434 382.999 919.193C384.316 922.035 386.239 927.196 389.762 927.98C390.901 928.233 391.779 928.085 392.626 927.241C394.697 925.174 393.974 920.962 393.794 918.326L400.825 915.908C403.075 916.523 405.858 917.569 408.194 917.376C409.63 917.257 411.267 916.525 412.068 915.252C412.677 914.284 413.06 913.427 412.714 912.279C410.937 906.39 394.141 904.576 388.803 902.468L388.174 902.214Z"/><path fill="#FEFEFE" d="M601.587 947.463L600.539 946.703C599.977 945.394 599.705 944.74 599.845 943.277C600.78 942.545 601.802 942.832 602.964 942.952C607.701 943.441 612.441 944.461 617.158 945.148C627.682 946.682 638.471 948.072 649.075 948.844C672.944 950.58 710.694 952.074 732.689 941.919C733.742 942.473 733.74 942.475 734.195 943.576C733.751 944.775 733.559 945.145 732.501 945.948C720.769 954.849 674.963 955.743 659.807 954.765C652.139 954.27 644.404 952.801 636.771 951.836C625.048 950.353 613.279 949.17 601.587 947.463Z"/><path fill="#FEFEFE" d="M327.099 953.477C326.205 952.252 325.507 951.28 325.088 949.789L325.566 949.034C329.971 948.657 335.575 950.46 339.979 951.175C348.124 952.496 356.447 953.828 364.665 954.533C394.527 957.096 424.179 951.585 453.352 945.603C453.982 945.503 454.213 945.647 454.796 945.867C454.923 946.343 455.222 947.201 455.183 947.722C455.083 949.042 454.778 949.501 453.95 950.423C445.122 952.328 435.962 953.189 427.011 954.455C395.687 958.887 377.58 960.793 345.7 957.149C339.754 956.469 332.481 956.065 327.099 953.477Z"/></svg>