<?xml version="1.0" encoding="utf-8" ?><svg xmlns="http://www.w3.org/2000/svg" xmlns:xlink="http://www.w3.org/1999/xlink" width="1024" height="1024" viewBox="0 0 1024 1024"><path fill="#FEFEFE" d="M0 0L1024 0L1024 1024L0 1024L0 0ZM559.389 96.1511C557.605 98.8082 557.633 102.781 557.204 105.941C555.849 115.918 553.059 128.935 541.394 131.161C536.813 132.036 531.14 131.654 527.157 134.272L526.804 135.218C527.781 136.408 528.768 137.034 530.358 137.239C537.29 138.133 543.473 136.945 548.603 143.119C555.753 151.724 555.637 170.877 557.297 181.875C558.668 182.574 559.032 182.932 560.595 182.75C565.38 177.852 560.269 151.067 568.007 142.584C573.894 136.131 582.779 137.324 588.366 132.185L588.342 131.339C581.642 127.944 567.295 131.324 564.372 122.439C562.453 116.607 563.308 99.5287 561.259 96.99L559.389 96.1511ZM291.359 135.842C289.666 140.283 290.129 146.045 289.526 150.779C287.688 165.202 281.798 182.138 267.596 188.54C264.222 190.06 257.748 190.697 255.268 192.492L254.928 193.589C255.85 194.877 256.717 195.279 258.279 195.572C266.9 197.189 280.195 193.846 286.311 201.892C291.974 209.341 293.024 236.154 291.838 245.794C292.779 247.41 292.982 247.748 294.665 248.739C295.816 248.762 296.315 248.833 297.197 247.929C300.205 244.85 298.989 210.099 304.658 200.726C310.69 190.753 322.443 190.718 325.481 187.035C325.31 186.299 325.446 185.981 324.723 185.578C322.809 184.511 319.917 184.362 317.745 184.03C308.54 182.624 300.549 179.703 297.108 170.165C295.518 165.759 294.846 160.893 294.666 156.23C294.48 151.425 296.322 140.128 294.265 136.413C293.25 136.016 292.445 135.907 291.359 135.842ZM719.368 143.679C717.229 147.467 717.443 153.413 716.865 157.717C715.987 164.255 714.703 170.806 713.452 177.286C710.71 191.485 707.582 207.396 691.551 211.801C688.258 212.706 679.459 213.681 677.456 216.041C677.406 217.111 677.209 216.809 677.849 217.507C679.634 219.453 683.62 220.363 686.102 221.238C707.27 228.699 713.58 237.491 714.267 260.28C714.417 265.267 712.542 277.926 714.043 281.907C715.358 282.722 716.47 282.882 717.962 283.097C719.614 279.567 719.737 274.688 720.12 270.798C721.368 258.133 721.545 239.548 731.296 230.066C734.5 226.951 738.511 225.138 742.647 223.615C746.034 222.367 757.5 220.061 759.083 217.111C758.927 216.42 759.012 216.01 758.387 215.571C755.325 213.422 749.626 214.754 746.015 214.101C736.25 212.337 727.376 203.887 725 194.426C722.299 183.671 722.229 170.95 722.39 159.937C722.455 155.433 722.897 150.593 722.527 146.121C722.424 144.878 722.429 144.776 721.496 144.037L719.368 143.679ZM422.514 198.757C408.434 199.049 396.374 203.782 386.553 214.036C379.755 221.133 375.464 230.735 375.787 240.647C376.229 254.225 382.842 265.06 392.143 274.497C386.736 280.052 384.152 286.218 380.952 293.171C369.69 317.647 362.982 343.016 359.933 369.746C359.38 374.595 358.514 379.509 358.417 384.39C341.232 384.509 327.267 393.032 315.501 404.901C306.8 413.679 300.181 423.313 293.792 433.801C267.956 476.214 256.788 525.32 250.965 574.17C249.115 589.685 247.432 605.458 247.547 621.108C247.706 642.926 252.087 665.759 268.299 681.606C275.579 688.722 283.523 693.805 293.444 696.325C294.075 708.038 294.306 719.884 295.507 731.549C297.423 750.139 300.824 768.495 303.636 786.947C307.153 810.021 309.97 835.091 319.465 856.569C325.128 869.379 333.425 880.274 343.808 889.624C370.066 913.266 405.882 921.604 440.527 919.793C459.976 918.777 498.558 915.622 512.353 900.326C520.86 890.894 520.141 872.509 519.431 860.62C518.939 852.37 518.401 843.972 517.355 835.774L517.638 836.33C520.193 841.446 522.159 846.842 524.519 852.049C530.373 864.967 538.229 877.973 549.078 887.312C565.696 898.108 582.52 900.632 601.941 900.631C610.983 900.631 619.842 900.174 628.725 898.318C642.823 895.372 660.77 889.564 668.982 876.751C679.061 861.026 677.417 838.054 676.568 820.194C676.158 811.559 675.785 803.222 674.583 794.636C672.85 782.248 670.198 770.163 667.756 757.911C666.445 751.337 665.383 744.702 663.913 738.161C662.817 733.285 661.503 728.468 660.58 723.553C664.191 721.785 666.334 720.479 667.606 716.457C669.901 709.2 667.696 693.755 666.712 686.041C682.168 685.586 697.928 682.071 709.009 670.452C720.703 658.19 723.394 636.165 722.917 620.023C722.656 611.299 721.32 602.641 718.939 594.245C717.108 587.95 714.423 581.885 711.957 575.819C703.565 555.173 693.557 535.953 682.647 516.549C675.86 504.477 668.941 491.934 660.848 480.679C654.082 471.331 646.42 462.664 637.972 454.802C634.626 451.678 631.063 448.78 627.543 445.855C642.582 403.795 650.998 357.087 643.614 312.607C641.881 302.17 639.585 291.877 634.991 282.274C632.709 277.505 629.848 273.573 626.403 269.603C632.192 255.342 637.442 242.419 631.114 227.208C627.955 219.612 621.704 212.804 614.005 209.754C606.328 206.712 598.432 207.481 590.985 210.776C582.521 214.521 576.702 221.617 573.504 230.19C572.183 233.73 571.297 237.533 570.688 241.258C545.358 236.077 519.082 233.472 493.331 236.693C484.158 237.841 475.616 239.812 466.621 241.76C465.707 241.957 464.389 242.678 463.871 241.775C461.893 238.326 461.294 233.194 459.89 229.373C455.242 216.723 445.746 204.689 432.593 200.49C429.302 199.439 425.973 198.784 422.514 198.757ZM190.133 236.58C187.753 240.247 188.507 246.927 188.331 251.165C187.1 280.687 177.991 297.198 148.07 303.58C144.352 304.373 138.972 304.358 135.722 306.181L135.333 307.128C135.916 308.284 136.274 308.621 137.542 309.009C141.88 310.334 147.552 309.286 152.114 309.802C162.029 310.924 175.522 320.607 180.749 328.97C188.067 340.679 186.999 360.839 187.032 374.372C187.04 377.46 186.49 382.784 187.925 385.516C188.652 386.899 191.085 387.502 192.476 387.888C195.094 383.622 194.519 375.482 194.677 370.539C195.169 355.15 195.985 332.408 204.257 319.261C209.393 311.1 220.225 304.631 229.474 302.46C234.234 301.344 241.161 301.159 245.084 298.144L245.604 296.915C245.367 296.349 245.323 295.753 244.718 295.499C242.44 294.542 238.35 295.067 235.902 295.224C222.275 296.1 204.896 298.271 197.766 283.146C191.819 270.529 195.741 241.503 193.256 237.296C192.19 236.924 191.254 236.715 190.133 236.58ZM884.931 621.575C880.129 622.615 873.721 626.251 870.952 630.537C870.392 631.404 870.251 631.906 870.181 632.909L870.918 634.069C877.317 634.214 883.178 620.485 891.681 628.935C894.145 631.384 895.479 635.052 895.479 638.496C895.479 641.194 894.638 643.792 892.647 645.668C890.604 647.593 886.873 649.44 886.61 652.549C886.451 654.431 886.974 656.592 887.192 658.467C887.796 663.648 888.332 668.828 887.802 674.033C887.82 674.168 887.84 674.302 887.855 674.436C888.358 678.734 886.939 683.615 889.094 687.557C890.303 688.305 890.268 688.233 891.673 687.953C894.891 684.412 893.974 676.532 893.759 672.003C893.439 665.257 892.056 658.613 890.884 651.973C894.878 650.269 897.55 648.082 899.28 643.998C901.047 639.827 900.644 635.194 898.944 631.071C897.288 627.054 894.27 623.722 890.142 622.191C888.436 621.558 886.724 621.511 884.931 621.575ZM815.83 626.057C811.375 627.322 808.239 628.974 805.933 633.197C803.545 637.57 803.278 642.927 804.717 647.647C806.076 652.102 808.927 656.243 813.17 658.348C813.497 658.509 813.827 658.662 814.16 658.809C811.89 668.54 810.187 678.945 807.266 688.472C797.941 687.468 786.867 688.286 779.22 694.335C777.379 695.792 775.459 697.792 775.142 700.23C774.829 702.633 776.225 704.752 777.736 706.48C781.286 710.539 786.222 713.762 790.958 716.262C794.805 718.294 807.236 722.131 809.096 725.065C809.016 725.308 808.93 725.548 808.857 725.793C808.111 728.294 808.797 732.095 808.915 734.771C809.471 747.345 810.52 768.194 817.122 779.119C818.557 781.493 821.038 784.526 823.961 785.021C826.28 785.414 828.231 784.55 830.032 783.146C836.216 778.324 837.601 769.561 838.929 762.316C850.043 763.145 859.051 762.981 870.17 762.31C872.488 768.76 875.533 775.805 882.161 778.877C884.49 779.956 887.236 780.365 889.664 779.374C892.947 778.034 894.926 774.666 896.175 771.519C901.299 758.61 898.235 738.512 894.168 725.571C898.419 723.489 903.658 721.577 905.467 716.765C907.411 711.594 905.626 704.416 903.168 699.643C902.455 698.257 901.799 697.277 900.579 696.31L899.523 696.358C897.963 698.646 898.85 700.915 899.335 703.479C900.055 707.287 900.741 710.774 900.621 714.677C893.587 722.217 883.641 724.111 873.649 724.426C869.865 724.546 865.121 724.644 862.182 721.969C861.628 720.317 861.639 719.561 862.474 718.004C867.131 709.31 888.737 699.738 889.001 693.126L888.377 692.317C884.839 692.257 880.136 697.474 876.883 699.434C869.995 704.544 858.645 709.943 857.366 719.433C857.118 721.273 857.503 723.043 858.74 724.468C861.802 727.994 867.806 729.074 872.254 729.24C878.341 729.466 884.453 728.249 890.261 726.511C893.156 737.088 895.844 762.903 890.149 772.477C889.4 773.736 888.233 775.12 886.719 775.401C884.875 775.743 883.118 774.612 881.772 773.487C876.746 769.286 876.211 762.405 872.743 757.133C864.976 758.617 855.646 758.578 847.771 758.085C844.001 757.848 839.226 756.76 835.583 757.414C834.204 763.265 832.956 776.128 827.424 779.441C826.427 780.038 825.308 780.323 824.152 780.092C822.647 779.79 821.594 778.507 820.952 777.196C817.01 769.152 810.484 732.195 814.031 724.389C814.5 723.356 815.169 722.445 815.849 721.544C807.917 718.124 784.342 710.485 781.467 702.539C781.092 701.501 781.029 700.708 781.267 699.619C784.838 695.037 791.996 694.037 797.446 693.355C801.469 692.852 809.258 693.617 812.277 690.985C812.615 688.752 812.782 686.444 813.241 684.239C813.975 680.714 819.693 660.796 819.223 658.61C819.209 658.545 818.643 657.736 818.535 657.604C813.15 651.005 808.186 651.103 808.835 640.8C809.02 637.861 810.031 634.76 812.293 632.76C814.128 631.139 816.595 630.527 819.004 630.69C823.031 630.963 825.957 633.636 828.428 636.585C829.915 638.359 830.984 640.451 832.484 642.202C840.827 638.91 847.194 637.747 856.112 639.056C858.491 639.405 861.392 640.31 863.507 638.959C863.01 637.455 862.036 636.731 860.598 636.023C853.174 632.373 841.453 634.644 834.062 637.34C830.83 632.644 827.338 627.414 821.36 626.108C819.621 625.727 817.6 625.963 815.83 626.057ZM885.628 633.08C883.724 633.601 881.96 634.018 880.92 635.884C880.427 636.77 880.325 637.283 880.276 638.268C880.838 639.243 880.956 639.799 882.177 640.007C882.942 640.137 883.992 639.945 884.774 639.877C886.336 639.45 888.239 639.13 889.187 637.666C889.941 636.501 889.891 636.05 889.607 634.807C888.393 633.425 887.407 633.308 885.628 633.08ZM815.249 637.859C814.401 638.968 813.634 639.648 813.744 641.183C813.856 642.733 815.132 643.831 816.362 644.582C817.952 645.551 819.604 645.873 821.412 646.2C822.288 645.063 822.74 644.229 822.558 642.735C822.346 641.003 820.833 639.623 819.381 638.814C818.133 638.118 816.644 638.018 815.249 637.859ZM867.011 652.443C865.334 653.645 864.02 654.823 863.739 656.99C863.567 658.318 864.078 659.406 864.995 660.325C866.745 662.08 868.901 661.955 871.214 662.032C872.621 660.582 873.867 659.356 873.821 657.167C873.791 655.741 873.237 654.809 872.217 653.859C870.726 652.47 868.917 652.433 867.011 652.443ZM831.624 652.906C829.99 653.984 828.665 654.886 828.205 656.891C827.865 658.37 827.899 660.156 828.796 661.444C829.509 662.469 830.856 663.243 832.083 663.394C832.667 663.466 832.967 663.398 833.551 663.334C835.407 661.753 837.02 660.356 837.249 657.786C837.346 656.7 837.118 655.671 836.411 654.816C835.135 653.273 833.509 652.955 831.624 652.906ZM843.957 661.578C841.946 662.464 839.749 663.952 839.045 666.155C838.708 667.211 839.297 668.47 839.905 669.306C842.508 672.89 847.11 672.022 846.742 677.297L846.698 677.874C845.488 678.805 842.55 678.7 840.976 678.514C837.759 678.135 834.923 676.155 832.703 673.916L831.718 667.95C830.172 670.309 828.907 672.239 829.414 675.183C829.717 676.945 830.756 678.224 832.226 679.19C837.246 682.486 844.02 682.254 849.774 681.919C850.755 681.862 851.447 682.128 852.369 682.426C856.783 682.818 861.512 681.754 864.951 678.831C866.808 677.253 868.694 674.529 868.718 671.99C868.726 671.209 868.669 671.088 868.527 670.403L867.692 669.686C866.573 669.993 866.209 670.091 865.513 671.13C864.859 672.105 864.359 673.402 863.859 674.461C861.184 676.093 855.719 679.942 852.432 678.967C851.814 678.784 851.949 678.661 851.596 678C851.782 675.546 852.84 673.998 854.651 672.413C856.088 671.157 858.973 669.455 859.066 667.329C859.142 665.62 858.187 664.417 856.999 663.322C856.297 662.675 855.523 662.137 854.742 661.591C851.146 661.465 847.548 661.251 843.957 661.578ZM151.541 666.127C147.419 667.152 144.646 670.061 142.508 673.629C140.437 677.086 139.064 680.874 137.739 684.663C124.898 686.241 116.272 692.294 107.045 700.884C101.046 697.184 94.157 693.868 86.9157 695.611C83.4551 696.444 80.5354 698.485 78.6857 701.541C76.1742 705.691 76.0745 710.14 76.5446 714.798C79.8647 720.144 82.6513 722.402 88.8733 723.912C91.0295 724.436 92.7982 724.412 94.7639 723.222C94.9343 723.119 95.0827 722.983 95.2421 722.863C93.5763 720.791 86.2846 718.576 83.4449 716.391C82.3068 712.506 81.3254 707.074 83.5243 703.376C84.5192 701.703 85.9921 700.742 87.8644 700.295C94.7629 698.645 102.62 702.245 108.558 705.494C111.318 703.63 113.486 701.167 115.974 698.975C120.308 695.156 125.951 692.104 131.426 690.313C134.802 689.532 138.168 689.215 141.612 688.894C143.582 683.38 145.795 674.534 151.601 671.985C154.009 670.927 156.554 671.313 158.9 672.353C162.687 674.03 165.126 677.39 166.482 681.226C166.721 681.919 166.938 682.62 167.133 683.327C166.119 686.408 164.892 691.993 162.696 694.332C160.706 694.818 159.092 694.047 157.22 693.353L156.575 693.677C156.599 694.491 156.391 694.993 157.003 695.603C158.241 696.838 160.006 697.637 161.448 698.635C164.445 700.749 167.058 703.36 169.176 706.354C173.77 712.725 180.699 732.373 184.897 735.006L185.858 734.609C186.928 725.828 176.085 707.949 170.738 701.105C169.202 699.147 167.652 697.2 166.088 695.265C168.646 692.064 170.22 688.813 171.688 685.004C170.804 678.881 169.59 672.701 164.199 668.84C160.285 666.038 156.166 665.695 151.541 666.127ZM154.294 676.948C153.075 678.579 152.966 679.361 153.221 681.376C153.648 684.741 154.813 687.819 156.004 690.978C156.378 691.163 156.817 691.441 157.221 691.536C158.922 688.945 159.259 686.026 158.632 682.988C158.194 680.865 157.23 678.613 155.335 677.418C154.913 677.152 154.723 677.104 154.294 676.948ZM148.368 704.21C147.356 705.449 146.471 706.042 146.538 707.742C146.572 708.616 146.832 709.574 147.001 710.436C143.923 711.517 137.878 712.833 136.125 715.777C135.494 716.837 135.487 718.041 135.935 719.171C136.038 719.431 136.195 719.667 136.307 719.923C136.819 721.092 136.706 722.173 136.659 723.417C137.393 724.732 138.182 725.421 139.659 725.854C143.306 726.92 146.674 725.398 150.269 725.287C149.931 726.496 148.545 728.498 147.359 729.056C146.32 729.545 144.257 729.324 143.101 729.271C141.813 728.403 141.88 728.255 140.377 728.546L140.017 729.41C140.632 730.773 141.516 731.564 142.917 732.058C145.124 732.837 148.41 732.815 150.469 731.614C152.091 730.669 152.962 729.022 153.319 727.235C154.082 723.403 152.343 718.953 151.415 715.217C153.042 713.788 154.914 712.588 154.836 710.187C154.781 708.506 153.804 707.323 152.543 706.339C151.345 705.405 149.802 704.692 148.368 704.21ZM90.0763 705.941C89.1203 707.536 88.3286 709.027 88.8951 710.955C89.3289 712.432 90.5853 713.517 91.9637 714.106C92.9554 714.529 94.0752 714.546 95.1366 714.612C96.0285 712.916 97.1612 710.968 96.5169 708.979C96.0979 707.685 95.0285 706.93 93.8377 706.417C92.7113 705.932 91.2828 705.972 90.0763 705.941ZM163.095 713.934C161.717 715.036 160.488 716.393 160.449 718.286C160.429 719.25 160.94 720.002 161.4 720.8C162.567 721.628 163.373 721.81 164.743 722.088C166.328 721.115 167.332 720.288 167.719 718.323C167.983 716.981 167.642 716.032 166.765 715.022C165.852 713.97 164.399 713.987 163.095 713.934ZM126.995 720.52C126.123 721.859 125.745 722.545 125.967 724.231C126.194 725.957 127.235 727.579 128.675 728.536C129.839 729.309 130.174 729.3 131.515 729.254C132.738 727.713 133.8 726.072 133.612 724.003C133.501 722.788 132.813 721.833 131.815 721.172C130.338 720.194 128.663 720.393 126.995 720.52ZM97.1439 720.863L96.3916 722.149C100.159 733.17 103.68 742.565 110.839 751.936C100.112 753.348 83.5795 755.492 76.6328 764.999C75.3178 766.799 74.5368 768.988 74.9904 771.221C75.6282 774.36 78.3735 776.659 80.987 778.225C91.185 784.335 104.871 785.118 116.429 784.96C114.214 800.36 107.784 824.158 117.566 837.875C119.37 840.404 121.921 842.385 125.055 842.85C128.527 843.365 131.821 842.149 134.537 840.017C140.249 835.534 143.391 827.929 145.027 821.049C153.419 821.042 162.433 820.091 170.429 817.422C173.011 823.865 175.839 832.175 182.749 835.099C185.443 836.24 188.898 836.301 191.596 835.14C194.5 833.89 196.352 831.337 197.432 828.446C202.52 814.836 195.884 786.755 192.556 772.362C199.366 769.969 204.791 768.248 208.15 761.311L208.413 760.755C207.126 755.162 205.343 747.245 200.084 744.043C198.849 743.291 197.766 743.153 196.336 743.213C195.465 743.754 195.104 743.705 194.803 744.726C198.031 749.435 203.561 754.29 202.383 760.625C201.965 762.874 200.532 764.466 198.604 765.599C189.885 770.722 174.706 770.301 165.29 767.488C162.67 766.706 160.38 765.633 158.184 763.987C157.628 762.793 157.2 761.94 157.691 760.592C158.775 757.617 163.02 756.124 165.763 755.168C171.089 753.313 180.353 751.938 184.486 748.202L184.864 747.073C184.488 746.407 184.546 746.137 183.731 745.921C179.464 744.789 162.02 751.351 158.081 753.984C155.684 755.586 153.034 757.953 152.51 760.936C152.175 762.841 152.473 764.564 153.714 766.102C157.803 771.17 168.017 773.256 174.203 773.708C178.55 774.026 182.864 773.76 187.197 773.376C190.09 785.687 197.698 818.087 190.913 828.738C190.304 829.694 189.403 830.479 188.29 830.778C186.34 831.301 183.978 830.086 182.476 828.92C178.713 825.997 176.793 820.033 175.712 815.568C175.299 813.862 174.325 813.275 172.884 812.396C166.882 814.169 160.811 815.508 154.534 815.713C150.81 815.835 146.705 815.459 143.038 816.067C141.873 816.26 141.908 816.368 141.369 817.361C137.348 824.776 138.207 831.088 130.447 837.07C128.505 837.363 126.561 837.694 124.608 837.903C118.378 831.495 117.481 823.342 117.631 814.813C117.752 807.865 122.71 785.645 120.746 781.31C117.064 780.162 112.228 780.768 108.333 780.532C102.2 780.161 84.4982 777.909 81.2295 771.908C80.6117 770.774 80.309 769.64 80.7095 768.368C81.9777 764.339 88.7123 761.609 92.3773 760.165C95.4165 758.967 109.583 754.63 112.415 755.57C114.272 756.187 115.309 757.557 117.458 757.375C118.361 756.81 118.904 756.536 119.326 755.53C116.65 750.097 111.716 745.782 108.677 740.471C105.902 735.622 102.484 724.869 99.5399 721.366L97.1439 720.863ZM122.727 735.888C121.893 737.126 121.063 738.498 121.324 740.079C121.531 741.34 122.001 742.133 123.095 742.832C125.149 744.143 127.388 743.469 129.515 742.853C130.654 741.53 130.758 741.517 130.817 739.789C129.921 737.926 128.321 736.993 126.387 736.389C125.215 736.023 123.946 735.967 122.727 735.888Z"/><path d="M557.297 181.875C555.637 170.877 555.753 151.724 548.603 143.119C543.473 136.945 537.29 138.133 530.358 137.239C528.768 137.034 527.781 136.408 526.804 135.218L527.157 134.272C531.14 131.654 536.813 132.036 541.394 131.161C553.059 128.935 555.849 115.918 557.204 105.941C557.633 102.781 557.605 98.8082 559.389 96.1511L561.259 96.99C563.308 99.5287 562.453 116.607 564.372 122.439C567.295 131.324 581.642 127.944 588.342 131.339L588.366 132.185C582.779 137.324 573.894 136.131 568.007 142.584C560.269 151.067 565.38 177.852 560.595 182.75C559.032 182.932 558.668 182.574 557.297 181.875ZM559.336 115.607C557.058 122.764 554.903 129.457 547.754 133.198C546.335 133.93 544.893 134.616 543.429 135.255C548.342 136.974 552.085 138.87 554.532 143.774C557.24 149.198 556.589 155.653 559.236 160.899C559.576 152.275 559.822 144.573 566.778 138.299C569.41 135.926 572.194 134.371 575.445 133.025C570.411 132.069 565.295 130.906 562.326 126.28C560.435 123.334 559.571 119.085 559.336 115.607Z"/><path fill="#FEFEFE" d="M543.429 135.255C544.893 134.616 546.335 133.93 547.754 133.198C554.903 129.457 557.058 122.764 559.336 115.607C559.571 119.085 560.435 123.334 562.326 126.28C565.295 130.906 570.411 132.069 575.445 133.025C572.194 134.371 569.41 135.926 566.778 138.299C559.822 144.573 559.576 152.275 559.236 160.899C556.589 155.653 557.24 149.198 554.532 143.774C552.085 138.87 548.342 136.974 543.429 135.255Z"/><path d="M291.838 245.794C293.024 236.154 291.974 209.341 286.311 201.892C280.195 193.846 266.9 197.189 258.279 195.572C256.717 195.279 255.85 194.877 254.928 193.589L255.268 192.492C257.748 190.697 264.222 190.06 267.596 188.54C281.798 182.138 287.688 165.202 289.526 150.779C290.129 146.045 289.666 140.283 291.359 135.842C292.445 135.907 293.25 136.016 294.265 136.413C296.322 140.128 294.48 151.425 294.666 156.23C294.846 160.893 295.518 165.759 297.108 170.165C300.549 179.703 308.54 182.624 317.745 184.03C319.917 184.362 322.809 184.511 324.723 185.578C325.446 185.981 325.31 186.299 325.481 187.035C322.443 190.718 310.69 190.753 304.658 200.726C298.989 210.099 300.205 244.85 297.197 247.929C296.315 248.833 295.816 248.762 294.665 248.739C292.982 247.748 292.779 247.41 291.838 245.794ZM290.721 165.369C287.233 177.264 281.451 184.697 271.237 191.518C278.439 192.443 285.121 193.682 289.839 199.828C293.402 204.47 294.362 210.445 295.179 216.086L295.876 216.004C296.807 213.931 296.789 211.394 297.292 209.156C299.584 198.957 304.401 192.794 313.221 187.413C306.453 186.132 300.893 183.717 296.868 177.794C294.185 173.847 292.99 169.419 290.721 165.369Z"/><path d="M717.962 283.097C716.47 282.882 715.358 282.722 714.043 281.907C712.542 277.926 714.417 265.267 714.267 260.28C713.58 237.491 707.27 228.699 686.102 221.238C683.62 220.363 679.634 219.453 677.849 217.507C677.209 216.809 677.406 217.111 677.456 216.041C679.459 213.681 688.258 212.706 691.551 211.801C707.582 207.396 710.71 191.485 713.452 177.286C714.703 170.806 715.987 164.255 716.865 157.717C717.443 153.413 717.229 147.467 719.368 143.679L721.496 144.037C722.429 144.776 722.424 144.878 722.527 146.121C722.897 150.593 722.455 155.433 722.39 159.937C722.229 170.95 722.299 183.671 725 194.426C727.376 203.887 736.25 212.337 746.015 214.101C749.626 214.754 755.325 213.422 758.387 215.571C759.012 216.01 758.927 216.42 759.083 217.111C757.5 220.061 746.034 222.367 742.647 223.615C738.511 225.138 734.5 226.951 731.296 230.066C721.545 239.548 721.368 258.133 720.12 270.798C719.737 274.688 719.614 279.567 717.962 283.097ZM717.761 174.305C715.802 187.751 713.508 203.124 701.62 211.693C697.185 214.891 691.631 216.651 686.247 217.356C696.702 220.922 707.776 225.074 712.94 235.648C715.435 240.756 715.69 246.293 717.716 251.384L718.276 252.106C719.73 241.696 722.091 231.227 731.097 224.593C735.753 221.164 741.549 219.589 747.028 218.006C738.777 216.942 731.291 212.632 726.228 206.03C720.949 199.162 719.523 190.561 718.658 182.152C718.406 179.71 718.536 176.608 717.761 174.305Z"/><path fill="#FEFEFE" d="M271.237 191.518C281.451 184.697 287.233 177.264 290.721 165.369C292.99 169.419 294.185 173.847 296.868 177.794C300.893 183.717 306.453 186.132 313.221 187.413C304.401 192.794 299.584 198.957 297.292 209.156C296.789 211.394 296.807 213.931 295.876 216.004L295.179 216.086C294.362 210.445 293.402 204.47 289.839 199.828C285.121 193.682 278.439 192.443 271.237 191.518Z"/><path fill="#FEFEFE" d="M686.247 217.356C691.631 216.651 697.185 214.891 701.62 211.693C713.508 203.124 715.802 187.751 717.761 174.305C718.536 176.608 718.406 179.71 718.658 182.152C719.523 190.561 720.949 199.162 726.228 206.03C731.291 212.632 738.777 216.942 747.028 218.006C741.549 219.589 735.753 221.164 731.097 224.593C722.091 231.227 719.73 241.696 718.276 252.106L717.716 251.384C715.69 246.293 715.435 240.756 712.94 235.648C707.776 225.074 696.702 220.922 686.247 217.356Z"/><path d="M392.143 274.497C382.842 265.06 376.229 254.225 375.787 240.647C375.464 230.735 379.755 221.133 386.553 214.036C396.374 203.782 408.434 199.049 422.514 198.757C425.973 198.784 429.302 199.439 432.593 200.49C445.746 204.689 455.242 216.723 459.89 229.373C461.294 233.194 461.893 238.326 463.871 241.775C464.389 242.678 465.707 241.957 466.621 241.76C475.616 239.812 484.158 237.841 493.331 236.693C519.082 233.472 545.358 236.077 570.688 241.258C571.297 237.533 572.183 233.73 573.504 230.19C576.702 221.617 582.521 214.521 590.985 210.776C598.432 207.481 606.328 206.712 614.005 209.754C621.704 212.804 627.955 219.612 631.114 227.208C637.442 242.419 632.192 255.342 626.403 269.603C629.848 273.573 632.709 277.505 634.991 282.274C639.585 291.877 641.881 302.17 643.614 312.607C650.998 357.087 642.582 403.795 627.543 445.855C631.063 448.78 634.626 451.678 637.972 454.802C646.42 462.664 654.082 471.331 660.848 480.679C668.941 491.934 675.86 504.477 682.647 516.549C693.557 535.953 703.565 555.173 711.957 575.819C714.423 581.885 717.108 587.95 718.939 594.245C721.32 602.641 722.656 611.299 722.917 620.023C723.394 636.165 720.703 658.19 709.009 670.452C697.928 682.071 682.168 685.586 666.712 686.041C667.696 693.755 669.901 709.2 667.606 716.457C666.334 720.479 664.191 721.785 660.58 723.553C661.503 728.468 662.817 733.285 663.913 738.161C665.383 744.702 666.445 751.337 667.756 757.911C670.198 770.163 672.85 782.248 674.583 794.636C675.785 803.222 676.158 811.559 676.568 820.194C677.417 838.054 679.061 861.026 668.982 876.751C660.77 889.564 642.823 895.372 628.725 898.318C619.842 900.174 610.983 900.631 601.941 900.631C582.52 900.632 565.696 898.108 549.078 887.312C538.229 877.973 530.373 864.967 524.519 852.049C522.159 846.842 520.193 841.446 517.638 836.33L517.355 835.774C518.401 843.972 518.939 852.37 519.431 860.62C520.141 872.509 520.86 890.894 512.353 900.326C498.558 915.622 459.976 918.777 440.527 919.793C405.882 921.604 370.066 913.266 343.808 889.624C333.425 880.274 325.128 869.379 319.465 856.569C309.97 835.091 307.153 810.021 303.636 786.947C300.824 768.495 297.423 750.139 295.507 731.549C294.306 719.884 294.075 708.038 293.444 696.325C283.523 693.805 275.579 688.722 268.299 681.606C252.087 665.759 247.706 642.926 247.547 621.108C247.432 605.458 249.115 589.685 250.965 574.17C256.788 525.32 267.956 476.214 293.792 433.801C300.181 423.313 306.8 413.679 315.501 404.901C327.267 393.032 341.232 384.509 358.417 384.39C358.514 379.509 359.38 374.595 359.933 369.746C362.982 343.016 369.69 317.647 380.952 293.171C384.152 286.218 386.736 280.052 392.143 274.497ZM416.031 204.635C406.158 206.621 397.523 209.098 391.533 217.962C386.011 226.132 384.392 235.903 386.295 245.517C388.935 258.853 396.035 266.95 406.49 275.199L406.132 275.774C405.306 277.076 404.764 278.125 403.326 278.826C401.158 279.041 397.671 277.799 396.253 279.579C393.628 282.876 391.993 288.446 390.33 292.387C380.079 316.68 373.206 337.896 368.872 363.935C367.52 372.06 367.125 388.162 363.42 394.742C378.041 405.276 393.51 414.243 408.423 424.271C415.654 429.133 422.229 435.91 429.824 440.103C435.599 443.291 450.015 447.921 456.881 450.261C468.68 454.283 486.764 454.5 497.434 459.82C497.798 462.848 498.603 467.953 497.473 470.748C491.469 472.688 457.304 464.737 450.405 461.696C460.08 476.255 471.771 498.54 473.718 516.109C474.772 525.615 473.661 535.992 471.774 545.328C470.946 549.422 469.923 553.481 468.076 557.247C473.228 560.718 478.978 562.763 484.886 564.588C484.26 557.973 481.857 547.298 484.406 541.108C485.513 540.159 485.477 540.222 486.942 540.284C488.344 541.101 489.091 542.029 490.073 543.305C491.803 537.319 496.837 521.565 502.687 518.622C509.838 515.024 542.512 525.739 551.319 529.102C563.771 533.858 578.846 541.769 587.92 551.669L589.507 551.927C590.9 550.839 595.114 538.238 596.592 535.329C599.619 529.373 603.312 523.155 608.022 518.382C610.613 515.756 616.111 511.964 617.917 509.141C618.404 508.38 618.515 507.01 618.611 506.139C619.082 501.862 618.641 497.303 618.514 492.999C618.21 482.675 617.512 472.239 617.562 461.92C614.937 465.449 611.942 468.07 608.632 470.928C607.679 478.994 609.159 492.87 602.219 498.391C599.025 500.932 594.617 501.084 590.745 500.538C582.716 499.406 575.527 494.523 570.165 488.613L571.883 481.181C573.907 482.205 575.809 483.485 578.148 482.736C578.948 482.479 578.978 482.077 579.387 481.402C579.209 479.419 578.393 477.428 576.846 476.1C575.465 474.914 573.659 474.093 572.096 473.171C572.093 471.116 571.98 468.88 572.339 466.855C573.572 459.902 580.205 451.526 585.085 446.693C588.996 442.82 593.087 440.402 598.529 439.277C602.237 440.969 604.248 442.528 605.639 446.482C607.666 452.25 607.46 459.455 608.093 465.524C612.05 460.884 615.849 456.194 618.73 450.793C636.328 417.796 642.082 358.127 639.093 320.994C637.538 301.687 632.331 279.34 616.852 266.263C605.554 256.718 592.059 252.882 578.034 249.165C552.545 242.41 528.013 238.723 501.613 241.164C492.119 242.041 482.179 244.338 472.95 246.687C469.408 247.588 465.748 248.96 462.156 249.552C460.909 249.757 459.914 249.884 458.677 249.521C455.832 246.637 455.331 240.704 454.185 236.832C449.156 219.845 439.11 204.481 419.727 204.338C418.47 204.329 417.27 204.438 416.031 204.635ZM601.672 213.6C593.11 217.232 587.53 222.642 584.055 231.241C582.39 235.362 581.256 239.53 580.874 243.961C593.035 247.971 604.553 252.3 614.749 260.262L622.707 265.672C628.117 255.602 630.735 242.848 627.329 231.686C625.316 225.089 621.18 218.875 614.945 215.632C610.536 213.34 606.478 213.258 601.672 213.6ZM338.921 395.094C308.145 410.673 292.548 444.937 282.386 476.296C274.38 500.552 267.404 525.137 261.477 549.983C259.873 556.9 257.42 564.656 257.633 571.756L258.167 572.333C272.877 571.205 283.377 567.338 293.152 555.894C300.196 547.649 304.086 535.694 307.157 525.432C311.734 510.137 313.919 493.649 316.637 477.932C319.064 464.06 322.006 450.284 325.455 436.63C327.949 426.885 330.862 416.796 334.354 407.362C335.499 404.268 339.075 398.258 339.078 395.188L338.921 395.094ZM357.188 397.9C351.976 401.298 347.205 409.339 346.048 415.485C345.768 416.968 345.718 419.113 346.542 420.455C347.679 422.309 373.056 433.035 377.188 435.234C408.512 451.906 443.833 483.405 452.63 518.937C454.568 526.764 454.882 534.714 454.234 542.728C454.07 544.719 453.832 546.703 453.521 548.676L458.662 551.861C459.975 552.892 461.299 553.904 462.538 555.024C471.3 534.606 466.844 510.451 458.865 490.591C455.115 481.258 450.062 471.371 443.882 463.446C431.999 448.209 412.69 434.811 396.663 424.28C391.54 420.914 386.163 417.935 381.119 414.455C377.546 411.99 360.415 398.823 357.893 398.005C357.667 397.931 357.423 397.935 357.188 397.9ZM341.028 426.389C340.981 426.557 340.936 426.726 340.887 426.893C339.537 431.494 337.272 435.907 335.431 440.333C332.774 446.72 330.764 453.173 329.288 459.927C327.059 470.131 325.209 480.511 324.176 490.909C320.487 528.048 321.906 598.666 339.345 631.398C363.195 676.163 404.981 697.051 451.648 711.076C486.061 721.418 526.825 724.932 559.491 707.171C573.482 699.563 582.282 690.59 586.852 675.123C586.968 674.731 587.077 674.337 587.181 673.941C582.238 675.594 578.01 677.337 572.918 675.036L572.099 674.046C572.494 672.725 573.25 671.932 574.49 671.286C576.227 670.382 578.468 670.016 580.37 669.565C582.788 668.785 586.046 667.048 588.472 668.07C590.423 665.742 590.545 657.216 590.325 654.163C590.27 653.409 590.116 652.897 589.756 652.238C583.957 653.555 573.813 656.655 568.33 653.476C567.68 652.372 567.601 652.368 567.81 651.118C572.699 647.921 588.354 650.107 589.448 645.051C590.725 639.15 583.904 621.111 580.547 616.236C570.311 601.369 551.268 592.005 534.325 587.429C527.295 585.531 520.084 584.471 513.03 582.704C497.758 578.879 481.931 574.533 467.494 568.173C452.356 561.504 439.675 552.201 428.071 540.487C425.512 537.902 416.299 528.628 415.917 525.222C416.26 524.191 416.385 523.652 417.534 523.235C418.635 522.835 420.276 522.894 421.252 523.6C424.1 525.66 426.752 528.857 429.309 531.311C434.274 536.076 439.499 540.446 445.189 544.323C448.818 526.777 442.702 508.514 433.117 493.807C418.336 471.13 392.973 450.135 368.845 438.225C363.394 435.534 357.849 432.759 352.195 430.52C348.542 429.073 344.584 428.018 341.028 426.389ZM626.103 448.912C624.524 451.704 622.928 454.486 621.315 457.26C621.97 468.792 622.351 480.339 622.46 491.889C622.535 500.343 621.91 509.359 623.197 517.712C625.087 514.676 627.334 509.776 630.776 508.483L631.931 508.765C632.416 511.132 629.769 514.676 628.47 516.658C626.273 520.008 623.972 523.157 622.121 526.724C621.298 529.253 620.858 531.643 620.49 534.265C624.928 529.712 630.96 525.681 634.774 520.737C634.698 514.626 635.365 508.589 635.164 502.454C634.76 490.124 632.036 458.681 626.103 448.912ZM633.853 458.228C637.114 470.903 644.466 512.462 638.656 523.317C636.602 527.156 628.885 531.509 625.417 535.103C631.185 533.474 647.84 528.222 652.941 530.904C654.545 531.748 655.28 533.801 655.686 535.468C657.827 544.278 657.725 557.764 657.294 566.817C657.078 571.345 656.506 575.971 656.748 580.491C659.059 577.741 668.154 565.296 670.502 564.344C671.88 564.402 671.991 564.398 673.075 565.237C673.592 566.856 673.38 567.935 672.633 569.411C667.941 578.677 636.36 607.48 639.117 616.754C639.336 617.49 640.039 617.731 640.736 617.923C643.531 618.695 646.599 617.67 649.331 618.969C649.977 620.047 649.936 620.118 649.798 621.377C648.692 622.48 647.9 622.774 646.32 622.771C643.167 622.765 639.772 621.601 636.729 620.838C635.386 625.978 634.624 631.251 633.758 636.488C638.491 636.445 645.564 635.694 649.718 638.313C650.299 639.28 650.67 639.756 650.223 640.941C649.858 641.909 649.024 642.337 648.095 642.606C643.926 643.814 637.743 638.859 634.24 641.458C633.157 645.272 634.902 651.02 635.086 655.02C635.129 655.948 636.355 656.849 637.113 657.278C639.102 658.406 642.569 657.51 644.845 657.463C647.942 657.475 651.046 657.333 653.941 658.621L654.097 659.646C649.065 662.222 642.787 661.255 637.343 660.863C639.835 668.25 641.791 673.598 649.266 677.244C652.397 678.771 655.826 679.846 659.101 681.028C665.61 683.377 685.294 678.418 691.579 675.44C699.063 671.893 704.646 666.349 707.456 658.439C711.786 646.253 712.01 619.917 710.046 607.097C708.891 599.556 706.482 591.901 705.705 584.396C705.388 581.337 703.311 578.055 702.205 575.154C697.559 562.969 692.551 551.398 686.473 539.824C682.867 532.957 678.784 526.334 675.144 519.476C664.731 499.86 657.612 484.853 642.969 467.474C640.693 464.772 638 461.116 635.215 459.02C634.551 458.52 634.497 458.528 633.853 458.228ZM618.359 513.942C609.006 521.658 595.455 541.083 593.567 552.948L594.076 553.594C595.71 549.734 597.548 545.669 600.144 542.352C606.053 534.801 621.452 525.021 618.749 514.344L618.359 513.942ZM505.965 521.429C503.028 524.148 501.542 526.737 500.05 530.366C520.113 532.673 538.421 533.88 558.041 539.426C559.299 539.704 560.33 540.096 561.602 539.767C544.338 531.374 524.981 524.474 505.965 521.429ZM616.857 531.389C615.133 533.151 607.575 541.576 607.452 543.352L607.676 543.523C610.83 540.81 613.752 538.481 617.554 536.701C617.511 534.983 617.819 532.804 616.857 531.389ZM497.308 534.464C495.36 537.507 494.554 541.154 493.41 544.555C508.448 548.409 523.852 551.287 539.117 554.098C548.195 555.769 557.458 557.818 566.665 558.555C571.153 558.915 575.679 558.665 580.167 558.449C568.497 555.181 554.771 554.512 543.943 550.858C540.45 550.673 521.49 547.472 518.655 546.236L518.09 545.547C518.998 544.81 520.11 545.084 521.261 545.189C526.342 545.655 531.646 544.72 536.862 544.988C545.64 545.44 554.41 547.096 563.189 547.137C547.536 541.223 514.032 533.991 497.308 534.464ZM630.953 543.032C625.887 545.31 619.552 546.928 615.293 550.526L615.367 551.217C616.146 551.061 616.921 550.92 617.687 550.71C618.892 550.138 619.849 549.606 620.895 548.779C623.854 546.44 630.762 547.063 632.949 544.318L632.881 543.641C632.153 543.294 631.769 543.121 630.953 543.032ZM631.96 548.967C620.349 560.272 594.88 563.872 579.261 563.544C577.628 563.507 575.998 563.416 574.372 563.272C573.442 575.472 573.342 589.599 575.255 601.726C588.263 612.691 594.444 629.8 595.898 646.392C597.488 664.531 594.439 682.777 582.444 696.975C581.384 698.229 580.287 699.477 579.149 700.661C578.136 714.985 579.755 729.516 580.2 743.858C585.772 746.914 591.856 749.617 598.338 747.759C603.685 746.225 606.361 742.354 609.221 737.955C605.848 708.606 603.815 679.118 603.129 649.584C602.986 643.281 601.867 636.354 602.48 630.125C602.409 620.303 601.039 578.977 604.106 572.495L604.689 572.771C607.331 580.358 607.775 597.843 608.371 606.637C610.156 630.733 611.553 654.856 612.562 678.996C613.159 692.907 613.988 706.651 615.359 720.515C615.877 725.745 616.084 731.29 617.364 736.378C623.565 734.797 629.067 733.517 634.145 729.311C631.066 704.848 629.127 680.255 628.334 655.611C628.095 648.826 627.456 642.077 627.455 635.28C627.453 618.479 628.503 601.589 629.559 584.825C629.928 578.97 632.925 552.817 631.96 548.967ZM315.78 559.848C306.603 581.394 303.494 627.499 302.193 652.384L309.33 645.656C314.867 640.13 326.24 630.489 329.372 623.909C320.132 607.687 316.708 579.049 316.282 560.415L315.78 559.848ZM340.686 645.842C331.219 656.772 313.105 671.927 300.634 679.25C301.175 687.36 301.245 695.5 301.83 703.6C305.234 750.722 312.289 805.817 327.206 850.569C329.862 858.538 332.028 867.101 336.348 874.36C339.083 878.955 343.36 882.781 347.356 886.259C360.687 897.86 375.921 904.378 392.785 909.163C395.947 900.229 399.138 893.132 408.267 888.811C416.472 884.928 426.823 884.729 434.296 879.437C434.066 879.422 433.836 879.405 433.606 879.394C425.994 879.018 416.529 884.347 410.252 883.141L409.791 882.418C410.465 880.04 412.208 879.037 414.236 877.859C418.243 875.531 423.016 874.18 427.423 872.847C446.157 867.183 466.373 865.296 485.399 870.658C492.905 872.774 502.687 878.008 509.902 878.993C511.287 868.989 510.922 858.588 510.643 848.515C510.321 836.882 510.175 825.027 509.259 813.431C508.732 806.758 507.696 800.136 507.121 793.467C506.956 793.404 506.793 793.339 506.628 793.279C501.681 791.484 496.187 791.046 491.067 789.81C485.317 788.423 462.938 781.647 459.969 776.745C459.672 776.253 459.637 775.883 459.534 775.355C459.809 774.735 459.797 774.23 460.515 774.024C461.622 773.706 462.732 773.97 463.807 774.297C466.826 775.215 469.545 776.718 472.468 777.845C477.441 779.762 482.805 781.194 487.96 782.551C505.191 787.084 522.523 787.895 540.254 787.686C547.314 787.603 556.274 785.373 563.036 787.304L563.635 788.008C563.277 789.264 562.954 789.659 561.758 790.257C556.515 792.879 546.127 793.2 540.119 793.935C531.158 794.595 522.804 794.231 513.864 793.341C515.062 799.277 516.112 805.187 516.926 811.189C517.541 815.719 517.814 820.551 518.983 824.964C520.334 830.066 522.861 834.993 525.003 839.811C531.048 853.405 541.14 876.916 553.234 885.234C556.04 887.164 559.416 888.672 562.556 889.965C561.032 883.678 562.064 877.043 565.424 871.515C572.178 860.567 592.935 853.959 604.935 851.316C623.283 847.275 650.011 847.988 667.209 855.871C667.984 847.552 668.737 839.323 668.739 830.959C668.747 797.651 661.81 758.579 655.661 725.527C651.238 727.691 646.511 728.937 642.097 731.015C630.175 736.629 629.022 740.803 614.053 739.338C611.571 745.272 608.502 749.072 602.379 751.703C597.338 753.87 591.677 754.357 586.551 752.17C582.917 750.62 579.299 748.304 575.337 747.844C569.73 747.193 563.494 748.227 557.832 748.389C546.272 748.72 509.367 748.35 499.753 743.959C497.178 742.783 495.434 740.926 494.484 738.252C493.286 734.878 493.493 731.099 493.15 727.573C475.652 726.874 457.717 725.206 440.724 720.752C412.694 713.405 383.477 696.069 363.728 674.794C358.852 669.542 354.013 663.864 349.592 658.222C347.223 655.198 343.23 647.761 340.686 645.842ZM621.998 858.674C616.937 859.115 610.42 860.173 606.772 864.064C605.969 864.92 605.871 865.745 605.783 866.866L606.169 867.572C607.151 867.829 607.63 867.902 608.609 867.61C613.274 866.141 620.783 865.403 624.373 862.105C624.606 861.381 624.925 861.1 624.518 860.387C624.039 859.546 623.446 859.238 622.654 858.736L621.998 858.674ZM647.022 864.653C643.185 865.03 638.719 865.478 635.955 868.528C635.432 869.104 635.591 869.422 635.58 870.143C637.16 871.743 639.002 871.636 641.103 871.666C644.148 870.762 649.499 869.861 651.328 867.194C651.34 865.887 651.326 865.837 650.547 864.788C649.213 864.456 648.359 864.499 647.022 864.653ZM584.567 868.395C582.231 869.415 578.304 870.938 577.335 873.488C577.084 874.147 577.026 874.677 577.056 875.368C577.682 875.743 578 876.008 578.742 876.061C581.41 874.631 585.008 873.01 586.496 870.254L586.362 869.189C585.689 868.759 585.368 868.533 584.567 868.395ZM608.849 871.032C605.9 872.463 604.489 873.316 602.844 876.267L602.802 877.425C604.039 878.052 604.395 877.618 605.646 877.211C607.851 876.209 610.489 875.351 612.168 873.567L612.329 872.62C611.349 871.53 611.129 871.307 609.753 870.836L608.849 871.032ZM648.952 876.664C647.768 876.941 646.638 877.158 645.43 877.303C643.412 877.547 640.893 878.712 639.634 880.364C638.914 881.309 638.89 881.541 639.097 882.664C640.451 883.469 641.212 883.479 642.733 883.072C643.365 882.903 643.991 882.702 644.614 882.505C647.432 882.874 650.776 882.642 653.15 880.902C654.132 880.182 654.652 879.565 655.072 878.401C654.725 877.389 654.561 876.923 653.393 876.588C652.086 876.213 650.277 876.516 648.952 876.664ZM628.64 879.698C625.027 880.339 619.706 881.587 617.783 885.1C617.549 885.528 617.567 885.757 617.533 886.192C618.35 887.075 618.533 887.178 619.686 887.531C622.555 886.32 628.805 884.45 630.139 881.66C629.763 880.588 629.522 880.441 628.64 879.698ZM483.98 883.219C476.218 883.584 449.353 886.971 443.897 892.32L443.901 893.266C445.231 894.099 446.196 894.303 447.711 893.952C450.947 893.2 454.163 892.192 457.372 891.321L457.98 891.188C466.449 889.4 475.246 888.734 483.876 888.389C487.963 888.226 492.333 888.368 496.37 887.89C497.522 887.753 497.611 887.818 498.365 886.951C498.114 885.669 497.674 885.147 496.599 884.378C493.673 882.284 487.428 882.953 483.98 883.219ZM471.135 896.649C466.825 897.23 463 898.05 460.072 901.594C459.87 902.669 459.776 902.215 460.131 902.983L461.635 903.384L461.368 903.469C462.941 903.569 464.208 903.523 465.755 903.208C469.007 902.501 475.24 902.545 477.37 900.107C477.348 898.879 477.248 898.412 476.204 897.552C475.007 896.565 472.62 896.706 471.135 896.649ZM422.966 897.005C420.429 898.322 415.753 900.224 414.793 903.144L415.275 903.855C416.786 904.06 417.664 903.875 419.105 903.495C421.636 902.827 426.172 902.129 427.698 899.82C427.785 899.689 427.834 899.536 427.901 899.394C427.367 898.291 426.968 897.901 425.756 897.535C424.865 897.265 423.885 897.151 422.966 897.005ZM443.448 899.693C442.341 900.456 441.031 901.079 440.629 902.438C441.242 903.238 441.461 903.23 442.451 903.308C444.045 903.433 445.828 903.017 447.405 902.771C448.884 902.354 449.606 902.333 450.661 901.183C449.933 900.044 448.881 899.603 447.508 899.394C446.629 899.259 445.656 899.453 444.779 899.55C444.502 899.58 444.224 899.601 443.946 899.631C443.78 899.649 443.614 899.673 443.448 899.693Z"/><path fill="#FEFEFE" d="M406.49 275.199C396.035 266.95 388.935 258.853 386.295 245.517C384.392 235.903 386.011 226.132 391.533 217.962C397.523 209.098 406.158 206.621 416.031 204.635C417.27 204.438 418.47 204.329 419.727 204.338C439.11 204.481 449.156 219.845 454.185 236.832C455.331 240.704 455.832 246.637 458.677 249.521C459.914 249.884 460.909 249.757 462.156 249.552C465.748 248.96 469.408 247.588 472.95 246.687C482.179 244.338 492.119 242.041 501.613 241.164C528.013 238.723 552.545 242.41 578.034 249.165C592.059 252.882 605.554 256.718 616.852 266.263C632.331 279.34 637.538 301.687 639.093 320.994C642.082 358.127 636.328 417.796 618.73 450.793C615.849 456.194 612.05 460.884 608.093 465.524C607.46 459.455 607.666 452.25 605.639 446.482C604.248 442.528 602.237 440.969 598.529 439.277C593.087 440.402 588.996 442.82 585.085 446.693C580.205 451.526 573.572 459.902 572.339 466.855C571.98 468.88 572.093 471.116 572.096 473.171C573.659 474.093 575.465 474.914 576.846 476.1C578.393 477.428 579.209 479.419 579.387 481.402C578.978 482.077 578.948 482.479 578.148 482.736C575.809 483.485 573.907 482.205 571.883 481.181L570.165 488.613C575.527 494.523 582.716 499.406 590.745 500.538C594.617 501.084 599.025 500.932 602.219 498.391C609.159 492.87 607.679 478.994 608.632 470.928C611.942 468.07 614.937 465.449 617.562 461.92C617.512 472.239 618.21 482.675 618.514 492.999C618.641 497.303 619.082 501.862 618.611 506.139C618.515 507.01 618.404 508.38 617.917 509.141C616.111 511.964 610.613 515.756 608.022 518.382C603.312 523.155 599.619 529.373 596.592 535.329C595.114 538.238 590.9 550.839 589.507 551.927L587.92 551.669C578.846 541.769 563.771 533.858 551.319 529.102C542.512 525.739 509.838 515.024 502.687 518.622C496.837 521.565 491.803 537.319 490.073 543.305C489.091 542.029 488.344 541.101 486.942 540.284C485.477 540.222 485.513 540.159 484.406 541.108C481.857 547.298 484.26 557.973 484.886 564.588C478.978 562.763 473.228 560.718 468.076 557.247C469.923 553.481 470.946 549.422 471.774 545.328C473.661 535.992 474.772 525.615 473.718 516.109C471.771 498.54 460.08 476.255 450.405 461.696C457.304 464.737 491.469 472.688 497.473 470.748C498.603 467.953 497.798 462.848 497.434 459.82C486.764 454.5 468.68 454.283 456.881 450.261C450.015 447.921 435.599 443.291 429.824 440.103C422.229 435.91 415.654 429.133 408.423 424.271C393.51 414.243 378.041 405.276 363.42 394.742C367.125 388.162 367.52 372.06 368.872 363.935C373.206 337.896 380.079 316.68 390.33 292.387C391.993 288.446 393.628 282.876 396.253 279.579C397.671 277.799 401.158 279.041 403.326 278.826C404.764 278.125 405.306 277.076 406.132 275.774L406.49 275.199ZM396.915 220.577C395.593 221.089 395.131 221.051 394.409 222.313C394.877 223.346 394.857 223.338 395.861 223.723C398.002 224.544 400.509 224.621 402.733 225.358C411.848 228.377 417.776 234.901 421.918 243.314C424.439 248.436 425.931 257.4 428.159 261.096C428.662 261.93 429.536 262.565 430.304 263.14C431.459 262.085 432.441 261.479 432.591 259.79C433.434 250.308 426.823 236.939 420.341 230.193C415.711 225.374 408.246 220.619 401.419 220.443C399.924 220.405 398.408 220.496 396.915 220.577ZM597.875 300.542C595.629 301.343 593.61 302.157 591.533 303.352C590.455 305.388 588.172 308.622 588.935 310.982C589.166 311.697 589.702 311.914 590.397 312.131C593.555 313.112 596.697 310.864 600.005 311.577C600.152 311.575 600.299 311.571 600.445 311.57C603.789 311.556 605.605 313.156 608.758 311.177C609.436 309.958 609.668 309.641 609.354 308.193C608.767 305.486 605.105 302.09 602.672 300.985C601.214 300.323 599.441 300.457 597.875 300.542ZM509.255 301.577C504.789 302.359 500.79 304.049 498.123 307.915C497.041 309.483 496.144 311.6 496.563 313.542C496.767 314.489 497.418 315.335 498.33 315.678C500.234 316.395 502.017 315.723 503.728 314.854C503.806 314.814 503.881 314.77 503.958 314.728C504.104 314.586 504.248 314.444 504.396 314.304C509.032 309.906 516.171 311.884 517.462 306.652C516.968 304.883 515.979 303.296 514.298 302.417C512.88 301.676 510.833 301.477 509.255 301.577ZM567.275 323.199C557.515 324.085 548.678 327.417 542.228 335.1C533.15 345.913 531.413 360.389 532.65 373.981C533.41 382.321 536.758 390.209 543.383 395.582C550.958 401.724 561.196 404.129 570.783 403.04C572.488 402.846 574.169 402.617 575.841 402.227C588.613 398.975 598.652 390.569 605.354 379.293C609.909 371.629 612.059 362.441 609.64 353.69C608.412 349.246 606.281 345.684 602.824 342.649C602.269 340.755 601.803 338.955 601.464 337.008C600.839 333.421 599.483 331.145 596.476 329.03C589.105 323.847 576.002 322.548 567.275 323.199ZM612.43 348.813C612.362 352.532 614.239 364.019 616.863 366.651C617.392 367.182 617.807 367.351 618.511 367.307C620.126 363.529 620.151 357.767 618.698 353.881C618.084 352.237 616.973 350.007 615.273 349.258C614.436 348.89 613.324 348.879 612.43 348.813ZM624.379 349.182C623.037 351.15 623.072 352.096 623.484 354.452C623.847 356.523 626.231 367.602 627.722 368.614C627.955 368.772 628.232 368.857 628.487 368.979C629.618 367.966 630.471 367.428 630.607 365.779C630.939 361.772 629.208 353.036 626.091 350.128C625.606 349.676 624.986 349.416 624.379 349.182ZM489.923 353.173C487.429 358.232 489.069 365.671 490.809 370.832C491.863 373.957 493.257 377.118 496.039 379.025C497.063 377.778 497.373 377.397 497.15 375.764C496.525 371.206 493.844 356.483 491.107 353.639L489.923 353.173ZM504.218 356.762C502.667 361.834 503.595 368.25 506.049 372.923C507.086 374.898 508.828 377.572 511.099 378.153C511.314 378.208 511.535 378.235 511.753 378.276C511.949 377.766 512.323 377.293 512.341 376.747C512.361 376.115 507.865 359.723 507.323 357.405C506.263 356.757 505.426 356.811 504.218 356.762ZM514.715 358.731C514.182 364.634 515.992 369.986 519.803 374.592C520.546 375.49 521.154 376.036 522.245 376.501L524.305 376.512C525.069 373.502 520.382 363.513 518.541 360.765C517.516 359.236 516.461 359.043 514.715 358.731ZM513.039 444.019C509.629 444.906 506.635 446.008 504.758 449.205C500.565 456.345 502.371 482.943 504.749 490.983C506.238 496.018 509.03 501.017 513.864 503.49C518.366 505.792 523.213 505.492 527.881 503.868C530.299 503.027 532.525 501.978 534.768 500.751C537.762 498.669 540.274 496.628 542.389 493.595C542.562 489.831 542.503 486.067 542.66 482.311C540.897 481.479 538.084 480.539 537.192 478.686C536.621 477.5 536.809 477.11 537.238 475.98C539.031 474.214 541.085 473.717 543.454 473.058C543.596 470.187 543.702 467.378 543.557 464.504C536.554 455.815 524.608 445.354 513.039 444.019ZM554.411 461.429C550.563 463.377 548.828 464.921 547.491 469.159C545.845 474.379 545.242 483.436 546.983 488.61C548.167 489.706 548.849 490.027 550.491 489.938C552.169 489.847 556.685 488.779 558.104 489.423C560.279 489.576 561.743 489.786 563.54 488.306C566.25 486.075 566.958 482.722 567.159 479.374C567.46 474.362 566.636 469.188 565.443 464.332C561.571 461.095 559.263 461.36 554.411 461.429Z"/><path fill="#FEFEFE" d="M580.874 243.961C581.256 239.53 582.39 235.362 584.055 231.241C587.53 222.642 593.11 217.232 601.672 213.6C606.478 213.258 610.536 213.34 614.945 215.632C621.18 218.875 625.316 225.089 627.329 231.686C630.735 242.848 628.117 255.602 622.707 265.672L614.749 260.262C604.553 252.3 593.035 247.971 580.874 243.961Z"/><path d="M430.304 263.14C429.536 262.565 428.662 261.93 428.159 261.096C425.931 257.4 424.439 248.436 421.918 243.314C417.776 234.901 411.848 228.377 402.733 225.358C400.509 224.621 398.002 224.544 395.861 223.723C394.857 223.338 394.877 223.346 394.409 222.313C395.131 221.051 395.593 221.089 396.915 220.577C398.408 220.496 399.924 220.405 401.419 220.443C408.246 220.619 415.711 225.374 420.341 230.193C426.823 236.939 433.434 250.308 432.591 259.79C432.441 261.479 431.459 262.085 430.304 263.14Z"/><path d="M192.476 387.888C191.085 387.502 188.652 386.899 187.925 385.516C186.49 382.784 187.04 377.46 187.032 374.372C186.999 360.839 188.067 340.679 180.749 328.97C175.522 320.607 162.029 310.924 152.114 309.802C147.552 309.286 141.88 310.334 137.542 309.009C136.274 308.621 135.916 308.284 135.333 307.128L135.722 306.181C138.972 304.358 144.352 304.373 148.07 303.58C177.991 297.198 187.1 280.687 188.331 251.165C188.507 246.927 187.753 240.247 190.133 236.58C191.254 236.715 192.19 236.924 193.256 237.296C195.741 241.503 191.819 270.529 197.766 283.146C204.896 298.271 222.275 296.1 235.902 295.224C238.35 295.067 242.44 294.542 244.718 295.499C245.323 295.753 245.367 296.349 245.604 296.915L245.084 298.144C241.161 301.159 234.234 301.344 229.474 302.46C220.225 304.631 209.393 311.1 204.257 319.261C195.985 332.408 195.169 355.15 194.677 370.539C194.519 375.482 195.094 383.622 192.476 387.888ZM189.706 271.863C185.57 285.008 179.546 295.183 166.908 301.704C163.497 303.464 159.876 304.98 156.19 306.064C167.88 310.859 181.564 319.062 186.616 331.264C188.548 335.931 190.654 342.655 190.445 347.643L190.484 348.494L190.999 348.597C192.318 343.46 192.86 338.192 194.027 333.037C196.84 320.608 203.735 310.854 214.687 304.331C216.768 303.11 218.886 301.954 221.039 300.865C210.665 299.143 202.289 296.599 195.827 287.724C191.61 281.932 192.411 277.334 189.706 271.863Z"/><path fill="#FEFEFE" d="M156.19 306.064C159.876 304.98 163.497 303.464 166.908 301.704C179.546 295.183 185.57 285.008 189.706 271.863C192.411 277.334 191.61 281.932 195.827 287.724C202.289 296.599 210.665 299.143 221.039 300.865C218.886 301.954 216.768 303.11 214.687 304.331C203.735 310.854 196.84 320.608 194.027 333.037C192.86 338.192 192.318 343.46 190.999 348.597L190.484 348.494L190.445 347.643C190.654 342.655 188.548 335.931 186.616 331.264C181.564 319.062 167.88 310.859 156.19 306.064Z"/><path d="M591.533 303.352C593.61 302.157 595.629 301.343 597.875 300.542C599.441 300.457 601.214 300.323 602.672 300.985C605.105 302.09 608.767 305.486 609.354 308.193C609.668 309.641 609.436 309.958 608.758 311.177C605.605 313.156 603.789 311.556 600.445 311.57C600.299 311.571 600.152 311.575 600.005 311.577C596.697 310.864 593.555 313.112 590.397 312.131C589.702 311.914 589.166 311.697 588.935 310.982C588.172 308.622 590.455 305.388 591.533 303.352Z"/><path d="M503.958 314.728C503.881 314.77 503.806 314.814 503.728 314.854C502.017 315.723 500.234 316.395 498.33 315.678C497.418 315.335 496.767 314.489 496.563 313.542C496.144 311.6 497.041 309.483 498.123 307.915C500.79 304.049 504.789 302.359 509.255 301.577C510.833 301.477 512.88 301.676 514.298 302.417C515.979 303.296 516.968 304.883 517.462 306.652C516.171 311.884 509.032 309.906 504.396 314.304C504.248 314.444 504.104 314.586 503.958 314.728Z"/><path d="M575.841 402.227C574.169 402.617 572.488 402.846 570.783 403.04C561.196 404.129 550.958 401.724 543.383 395.582C536.758 390.209 533.41 382.321 532.65 373.981C531.413 360.389 533.15 345.913 542.228 335.1C548.678 327.417 557.515 324.085 567.275 323.199C576.002 322.548 589.105 323.847 596.476 329.03C599.483 331.145 600.839 333.421 601.464 337.008C601.803 338.955 602.269 340.755 602.824 342.649C606.281 345.684 608.412 349.246 609.64 353.69C612.059 362.441 609.909 371.629 605.354 379.293C598.652 390.569 588.613 398.975 575.841 402.227ZM568.627 327.184C559.994 328.004 552.649 329.998 546.859 337.017C538.314 347.379 537.353 360.572 538.705 373.388C539.521 381.119 541.433 387.079 547.679 392.16C553.242 396.685 561.965 399.956 569.189 399.118C579.956 397.87 589.41 391.307 595.861 382.837C602.445 374.193 605.898 365.472 604.266 354.519C603.971 352.534 603.528 349.39 601.921 348.097C601.21 348.689 600.945 348.918 600.511 349.765C597.472 356.454 594.172 359.245 587.487 362.034C587.923 370.831 586.674 383.218 580.683 390.198C580.048 390.937 579.982 391.127 578.98 391.202C576.614 385.681 586.784 365.777 580.891 362.887C578.797 361.86 576.174 361.411 573.967 360.549C569.536 358.819 555.173 352.489 553.423 348.316C552.878 347.015 552.868 346.035 553.398 344.728C554.478 342.063 558.626 340.54 561.114 339.772C566.945 337.972 577.847 335.715 584.155 334.504C586.435 334.066 591.407 334.129 593.279 333.179C593.523 333.055 593.666 332.791 593.86 332.597C592.915 330.82 590.671 330.386 588.818 329.825C583.159 328.113 574.514 326.136 568.627 327.184ZM565.282 343.62C563.268 343.947 561.232 344.031 559.608 345.364C559.121 346.383 558.679 346.934 559.216 348.08C560.499 350.814 565.137 352.632 567.868 353.137C569.01 353.349 569.352 353.058 570.36 352.546C573.142 351.167 575.683 350.059 577.23 347.204C577.302 345.709 577.313 345.7 576.419 344.504C572.836 342.596 569.195 343.353 565.282 343.62Z"/><path fill="#FEFEFE" d="M600.511 349.765C600.945 348.918 601.21 348.689 601.921 348.097C603.528 349.39 603.971 352.534 604.266 354.519C605.898 365.472 602.445 374.193 595.861 382.837C589.41 391.307 579.956 397.87 569.189 399.118C561.965 399.956 553.242 396.685 547.679 392.16C541.433 387.079 539.521 381.119 538.705 373.388C537.353 360.572 538.314 347.379 546.859 337.017C552.649 329.998 559.994 328.004 568.627 327.184C574.514 326.136 583.159 328.113 588.818 329.825C590.671 330.386 592.915 330.82 593.86 332.597C593.666 332.791 593.523 333.055 593.279 333.179C591.407 334.129 586.435 334.066 584.155 334.504C577.847 335.715 566.945 337.972 561.114 339.772C558.626 340.54 554.478 342.063 553.398 344.728C552.868 346.035 552.878 347.015 553.423 348.316C555.173 352.489 569.536 358.819 573.967 360.549C576.174 361.411 578.797 361.86 580.891 362.887C586.784 365.777 576.614 385.681 578.98 391.202C579.982 391.127 580.048 390.937 580.683 390.198C586.674 383.218 587.923 370.831 587.487 362.034C594.172 359.245 597.472 356.454 600.511 349.765Z"/><path fill="#FEFEFE" d="M570.36 352.546C569.352 353.058 569.01 353.349 567.868 353.137C565.137 352.632 560.499 350.814 559.216 348.08C558.679 346.934 559.121 346.383 559.608 345.364C561.232 344.031 563.268 343.947 565.282 343.62C569.195 343.353 572.836 342.596 576.419 344.504C577.313 345.7 577.302 345.709 577.23 347.204C575.683 350.059 573.142 351.167 570.36 352.546Z"/><path d="M618.511 367.307C617.807 367.351 617.392 367.182 616.863 366.651C614.239 364.019 612.362 352.532 612.43 348.813C613.324 348.879 614.436 348.89 615.273 349.258C616.973 350.007 618.084 352.237 618.698 353.881C620.151 357.767 620.126 363.529 618.511 367.307Z"/><path d="M628.487 368.979C628.232 368.857 627.955 368.772 627.722 368.614C626.231 367.602 623.847 356.523 623.484 354.452C623.072 352.096 623.037 351.15 624.379 349.182C624.986 349.416 625.606 349.676 626.091 350.128C629.208 353.036 630.939 361.772 630.607 365.779C630.471 367.428 629.618 367.966 628.487 368.979Z"/><path d="M496.039 379.025C493.257 377.118 491.863 373.957 490.809 370.832C489.069 365.671 487.429 358.232 489.923 353.173L491.107 353.639C493.844 356.483 496.525 371.206 497.15 375.764C497.373 377.397 497.063 377.778 496.039 379.025Z"/><path d="M511.753 378.276C511.535 378.235 511.314 378.208 511.099 378.153C508.828 377.572 507.086 374.898 506.049 372.923C503.595 368.25 502.667 361.834 504.218 356.762C505.426 356.811 506.263 356.757 507.323 357.405C507.865 359.723 512.361 376.115 512.341 376.747C512.323 377.293 511.949 377.766 511.753 378.276Z"/><path d="M524.305 376.512L522.245 376.501C521.154 376.036 520.546 375.49 519.803 374.592C515.992 369.986 514.182 364.634 514.715 358.731C516.461 359.043 517.516 359.236 518.541 360.765C520.382 363.513 525.069 373.502 524.305 376.512Z"/><path fill="#FEFEFE" d="M258.167 572.333L257.633 571.756C257.42 564.656 259.873 556.9 261.477 549.983C267.404 525.137 274.38 500.552 282.386 476.296C292.548 444.937 308.145 410.673 338.921 395.094L339.078 395.188C339.075 398.258 335.499 404.268 334.354 407.362C330.862 416.796 327.949 426.885 325.455 436.63C322.006 450.284 319.064 464.06 316.637 477.932C313.919 493.649 311.734 510.137 307.157 525.432C304.086 535.694 300.196 547.649 293.152 555.894C283.377 567.338 272.877 571.205 258.167 572.333Z"/><path fill="#FEFEFE" d="M453.521 548.676C453.832 546.703 454.07 544.719 454.234 542.728C454.882 534.714 454.568 526.764 452.63 518.937C443.833 483.405 408.512 451.906 377.188 435.234C373.056 433.035 347.679 422.309 346.542 420.455C345.718 419.113 345.768 416.968 346.048 415.485C347.205 409.339 351.976 401.298 357.188 397.9C357.423 397.935 357.667 397.931 357.893 398.005C360.415 398.823 377.546 411.99 381.119 414.455C386.163 417.935 391.54 420.914 396.663 424.28C412.69 434.811 431.999 448.209 443.882 463.446C450.062 471.371 455.115 481.258 458.865 490.591C466.844 510.451 471.3 534.606 462.538 555.024C461.299 553.904 459.975 552.892 458.662 551.861L453.521 548.676Z"/><path fill="#FEFEFE" d="M587.181 673.941C587.077 674.337 586.968 674.731 586.852 675.123C582.282 690.59 573.482 699.563 559.491 707.171C526.825 724.932 486.061 721.418 451.648 711.076C404.981 697.051 363.195 676.163 339.345 631.398C321.906 598.666 320.487 528.048 324.176 490.909C325.209 480.511 327.059 470.131 329.288 459.927C330.764 453.173 332.774 446.72 335.431 440.333C337.272 435.907 339.537 431.494 340.887 426.893C340.936 426.726 340.981 426.557 341.028 426.389C344.584 428.018 348.542 429.073 352.195 430.52C357.849 432.759 363.394 435.534 368.845 438.225C392.973 450.135 418.336 471.13 433.117 493.807C442.702 508.514 448.818 526.777 445.189 544.323C439.499 540.446 434.274 536.076 429.309 531.311C426.752 528.857 424.1 525.66 421.252 523.6C420.276 522.894 418.635 522.835 417.534 523.235C416.385 523.652 416.26 524.191 415.917 525.222C416.299 528.628 425.512 537.902 428.071 540.487C439.675 552.201 452.356 561.504 467.494 568.173C481.931 574.533 497.758 578.879 513.03 582.704C520.084 584.471 527.295 585.531 534.325 587.429C551.268 592.005 570.311 601.369 580.547 616.236C583.904 621.111 590.725 639.15 589.448 645.051C588.354 650.107 572.699 647.921 567.81 651.118C567.601 652.368 567.68 652.372 568.33 653.476C573.813 656.655 583.957 653.555 589.756 652.238C590.116 652.897 590.27 653.409 590.325 654.163C590.545 657.216 590.423 665.742 588.472 668.07C586.046 667.048 582.788 668.785 580.37 669.565C578.468 670.016 576.227 670.382 574.49 671.286C573.25 671.932 572.494 672.725 572.099 674.046L572.918 675.036C578.01 677.337 582.238 675.594 587.181 673.941ZM580.779 627.616C576.531 628.456 567.652 629.051 564.761 632.004C564.565 633.454 564.703 633.485 565.484 634.747C566.955 635.446 567.554 635.291 569.149 635.182C573.825 634.529 582.011 633.568 585.022 629.399C585.338 628.962 585.419 628.726 585.622 628.268C583.823 627.13 582.867 627.497 580.779 627.616Z"/><path d="M534.768 500.751C532.525 501.978 530.299 503.027 527.881 503.868C523.213 505.492 518.366 505.792 513.864 503.49C509.03 501.017 506.238 496.018 504.749 490.983C502.371 482.943 500.565 456.345 504.758 449.205C506.635 446.008 509.629 444.906 513.039 444.019C524.608 445.354 536.554 455.815 543.557 464.504C543.702 467.378 543.596 470.187 543.454 473.058C541.085 473.717 539.031 474.214 537.238 475.98C536.809 477.11 536.621 477.5 537.192 478.686C538.084 480.539 540.897 481.479 542.66 482.311C542.503 486.067 542.562 489.831 542.389 493.595C540.274 496.628 537.762 498.669 534.768 500.751Z"/><path fill="#FEFEFE" d="M621.315 457.26C622.928 454.486 624.524 451.704 626.103 448.912C632.036 458.681 634.76 490.124 635.164 502.454C635.365 508.589 634.698 514.626 634.774 520.737C630.96 525.681 624.928 529.712 620.49 534.265C620.858 531.643 621.298 529.253 622.121 526.724C623.972 523.157 626.273 520.008 628.47 516.658C629.769 514.676 632.416 511.132 631.931 508.765L630.776 508.483C627.334 509.776 625.087 514.676 623.197 517.712C621.91 509.359 622.535 500.343 622.46 491.889C622.351 480.339 621.97 468.792 621.315 457.26Z"/><path fill="#FEFEFE" d="M625.417 535.103C628.885 531.509 636.602 527.156 638.656 523.317C644.466 512.462 637.114 470.903 633.853 458.228C634.497 458.528 634.551 458.52 635.215 459.02C638 461.116 640.693 464.772 642.969 467.474C657.612 484.853 664.731 499.86 675.144 519.476C678.784 526.334 682.867 532.957 686.473 539.824C692.551 551.398 697.559 562.969 702.205 575.154C703.311 578.055 705.388 581.337 705.705 584.396C706.482 591.901 708.891 599.556 710.046 607.097C712.01 619.917 711.786 646.253 707.456 658.439C704.646 666.349 699.063 671.893 691.579 675.44C685.294 678.418 665.61 683.377 659.101 681.028C655.826 679.846 652.397 678.771 649.266 677.244C641.791 673.598 639.835 668.25 637.343 660.863C642.787 661.255 649.065 662.222 654.097 659.646L653.941 658.621C651.046 657.333 647.942 657.475 644.845 657.463C642.569 657.51 639.102 658.406 637.113 657.278C636.355 656.849 635.129 655.948 635.086 655.02C634.902 651.02 633.157 645.272 634.24 641.458C637.743 638.859 643.926 643.814 648.095 642.606C649.024 642.337 649.858 641.909 650.223 640.941C650.67 639.756 650.299 639.28 649.718 638.313C645.564 635.694 638.491 636.445 633.758 636.488C634.624 631.251 635.386 625.978 636.729 620.838C639.772 621.601 643.167 622.765 646.32 622.771C647.9 622.774 648.692 622.48 649.798 621.377C649.936 620.118 649.977 620.047 649.331 618.969C646.599 617.67 643.531 618.695 640.736 617.923C640.039 617.731 639.336 617.49 639.117 616.754C636.36 607.48 667.941 578.677 672.633 569.411C673.38 567.935 673.592 566.856 673.075 565.237C671.991 564.398 671.88 564.402 670.502 564.344C668.154 565.296 659.059 577.741 656.748 580.491C656.506 575.971 657.078 571.345 657.294 566.817C657.725 557.764 657.827 544.278 655.686 535.468C655.28 533.801 654.545 531.748 652.941 530.904C647.84 528.222 631.185 533.474 625.417 535.103Z"/><path d="M558.104 489.423C556.685 488.779 552.169 489.847 550.491 489.938C548.849 490.027 548.167 489.706 546.983 488.61C545.242 483.436 545.845 474.379 547.491 469.159C548.828 464.921 550.563 463.377 554.411 461.429C559.263 461.36 561.571 461.095 565.443 464.332C566.636 469.188 567.46 474.362 567.159 479.374C566.958 482.722 566.25 486.075 563.54 488.306C561.743 489.786 560.279 489.576 558.104 489.423Z"/><path fill="#FEFEFE" d="M594.076 553.594L593.567 552.948C595.455 541.083 609.006 521.658 618.359 513.942L618.749 514.344C621.452 525.021 606.053 534.801 600.144 542.352C597.548 545.669 595.71 549.734 594.076 553.594Z"/><path fill="#FEFEFE" d="M500.05 530.366C501.542 526.737 503.028 524.148 505.965 521.429C524.981 524.474 544.338 531.374 561.602 539.767C560.33 540.096 559.299 539.704 558.041 539.426C538.421 533.88 520.113 532.673 500.05 530.366Z"/><path fill="#FEFEFE" d="M607.676 543.523L607.452 543.352C607.575 541.576 615.133 533.151 616.857 531.389C617.819 532.804 617.511 534.983 617.554 536.701C613.752 538.481 610.83 540.81 607.676 543.523Z"/><path fill="#FEFEFE" d="M493.41 544.555C494.554 541.154 495.36 537.507 497.308 534.464C514.032 533.991 547.536 541.223 563.189 547.137C554.41 547.096 545.64 545.44 536.862 544.988C531.646 544.72 526.342 545.655 521.261 545.189C520.11 545.084 518.998 544.81 518.09 545.547L518.655 546.236C521.49 547.472 540.45 550.673 543.943 550.858C554.771 554.512 568.497 555.181 580.167 558.449C575.679 558.665 571.153 558.915 566.665 558.555C557.458 557.818 548.195 555.769 539.117 554.098C523.852 551.287 508.448 548.409 493.41 544.555Z"/><path fill="#FEFEFE" d="M617.687 550.71C616.921 550.92 616.146 551.061 615.367 551.217L615.293 550.526C619.552 546.928 625.887 545.31 630.953 543.032C631.769 543.121 632.153 543.294 632.881 543.641L632.949 544.318C630.762 547.063 623.854 546.44 620.895 548.779C619.849 549.606 618.892 550.138 617.687 550.71Z"/><path fill="#FEFEFE" d="M574.372 563.272C575.998 563.416 577.628 563.507 579.261 563.544C594.88 563.872 620.349 560.272 631.96 548.967C632.925 552.817 629.928 578.97 629.559 584.825C628.503 601.589 627.453 618.479 627.455 635.28C627.456 642.077 628.095 648.826 628.334 655.611C629.127 680.255 631.066 704.848 634.145 729.311C629.067 733.517 623.565 734.797 617.364 736.378C616.084 731.29 615.877 725.745 615.359 720.515C613.988 706.651 613.159 692.907 612.562 678.996C611.553 654.856 610.156 630.733 608.371 606.637C607.775 597.843 607.331 580.358 604.689 572.771L604.106 572.495C601.039 578.977 602.409 620.303 602.48 630.125C601.867 636.354 602.986 643.281 603.129 649.584C603.815 679.118 605.848 708.606 609.221 737.955C606.361 742.354 603.685 746.225 598.338 747.759C591.856 749.617 585.772 746.914 580.2 743.858C579.755 729.516 578.136 714.985 579.149 700.661C580.287 699.477 581.384 698.229 582.444 696.975C594.439 682.777 597.488 664.531 595.898 646.392C594.444 629.8 588.263 612.691 575.255 601.726C573.342 589.599 573.442 575.472 574.372 563.272Z"/><path fill="#FEFEFE" d="M302.193 652.384C303.494 627.499 306.603 581.394 315.78 559.848L316.282 560.415C316.708 579.049 320.132 607.687 329.372 623.909C326.24 630.489 314.867 640.13 309.33 645.656L302.193 652.384Z"/><path d="M887.802 674.033C888.332 668.828 887.796 663.648 887.192 658.467C886.974 656.592 886.451 654.431 886.61 652.549C886.873 649.44 890.604 647.593 892.647 645.668C894.638 643.792 895.479 641.194 895.479 638.496C895.479 635.052 894.145 631.384 891.681 628.935C883.178 620.485 877.317 634.214 870.918 634.069L870.181 632.909C870.251 631.906 870.392 631.404 870.952 630.537C873.721 626.251 880.129 622.615 884.931 621.575C886.724 621.511 888.436 621.558 890.142 622.191C894.27 623.722 897.288 627.054 898.944 631.071C900.644 635.194 901.047 639.827 899.28 643.998C897.55 648.082 894.878 650.269 890.884 651.973C892.056 658.613 893.439 665.257 893.759 672.003C893.974 676.532 894.891 684.412 891.673 687.953C890.268 688.233 890.303 688.305 889.094 687.557C886.939 683.615 888.358 678.734 887.855 674.436C887.84 674.302 887.82 674.168 887.802 674.033Z"/><path d="M814.16 658.809C813.827 658.662 813.497 658.509 813.17 658.348C808.927 656.243 806.076 652.102 804.717 647.647C803.278 642.927 803.545 637.57 805.933 633.197C808.239 628.974 811.375 627.322 815.83 626.057C817.6 625.963 819.621 625.727 821.36 626.108C827.338 627.414 830.83 632.644 834.062 637.34C841.453 634.644 853.174 632.373 860.598 636.023C862.036 636.731 863.01 637.455 863.507 638.959C861.392 640.31 858.491 639.405 856.112 639.056C847.194 637.747 840.827 638.91 832.484 642.202C830.984 640.451 829.915 638.359 828.428 636.585C825.957 633.636 823.031 630.963 819.004 630.69C816.595 630.527 814.128 631.139 812.293 632.76C810.031 634.76 809.02 637.861 808.835 640.8C808.186 651.103 813.15 651.005 818.535 657.604C818.643 657.736 819.209 658.545 819.223 658.61C819.693 660.796 813.975 680.714 813.241 684.239C812.782 686.444 812.615 688.752 812.277 690.985C809.258 693.617 801.469 692.852 797.446 693.355C791.996 694.037 784.838 695.037 781.267 699.619C781.029 700.708 781.092 701.501 781.467 702.539C784.342 710.485 807.917 718.124 815.849 721.544C815.169 722.445 814.5 723.356 814.031 724.389C810.484 732.195 817.01 769.152 820.952 777.196C821.594 778.507 822.647 779.79 824.152 780.092C825.308 780.323 826.427 780.038 827.424 779.441C832.956 776.128 834.204 763.265 835.583 757.414C839.226 756.76 844.001 757.848 847.771 758.085C855.646 758.578 864.976 758.617 872.743 757.133C876.211 762.405 876.746 769.286 881.772 773.487C883.118 774.612 884.875 775.743 886.719 775.401C888.233 775.12 889.4 773.736 890.149 772.477C895.844 762.903 893.156 737.088 890.261 726.511C884.453 728.249 878.341 729.466 872.254 729.24C867.806 729.074 861.802 727.994 858.74 724.468C857.503 723.043 857.118 721.273 857.366 719.433C858.645 709.943 869.995 704.544 876.883 699.434C880.136 697.474 884.839 692.257 888.377 692.317L889.001 693.126C888.737 699.738 867.131 709.31 862.474 718.004C861.639 719.561 861.628 720.317 862.182 721.969C865.121 724.644 869.865 724.546 873.649 724.426C883.641 724.111 893.587 722.217 900.621 714.677C900.741 710.774 900.055 707.287 899.335 703.479C898.85 700.915 897.963 698.646 899.523 696.358L900.579 696.31C901.799 697.277 902.455 698.257 903.168 699.643C905.626 704.416 907.411 711.594 905.467 716.765C903.658 721.577 898.419 723.489 894.168 725.571C898.235 738.512 901.299 758.61 896.175 771.519C894.926 774.666 892.947 778.034 889.664 779.374C887.236 780.365 884.49 779.956 882.161 778.877C875.533 775.805 872.488 768.76 870.17 762.31C859.051 762.981 850.043 763.145 838.929 762.316C837.601 769.561 836.216 778.324 830.032 783.146C828.231 784.55 826.28 785.414 823.961 785.021C821.038 784.526 818.557 781.493 817.122 779.119C810.52 768.194 809.471 747.345 808.915 734.771C808.797 732.095 808.111 728.294 808.857 725.793C808.93 725.548 809.016 725.308 809.096 725.065C807.236 722.131 794.805 718.294 790.958 716.262C786.222 713.762 781.286 710.539 777.736 706.48C776.225 704.752 774.829 702.633 775.142 700.23C775.459 697.792 777.379 695.792 779.22 694.335C786.867 688.286 797.941 687.468 807.266 688.472C810.187 678.945 811.89 668.54 814.16 658.809Z"/><path d="M569.149 635.182C567.554 635.291 566.955 635.446 565.484 634.747C564.703 633.485 564.565 633.454 564.761 632.004C567.652 629.051 576.531 628.456 580.779 627.616C582.867 627.497 583.823 627.13 585.622 628.268C585.419 628.726 585.338 628.962 585.022 629.399C582.011 633.568 573.825 634.529 569.149 635.182Z"/><path d="M884.774 639.877C883.992 639.945 882.942 640.137 882.177 640.007C880.956 639.799 880.838 639.243 880.276 638.268C880.325 637.283 880.427 636.77 880.92 635.884C881.96 634.018 883.724 633.601 885.628 633.08C887.407 633.308 888.393 633.425 889.607 634.807C889.891 636.05 889.941 636.501 889.187 637.666C888.239 639.13 886.336 639.45 884.774 639.877Z"/><path d="M821.412 646.2C819.604 645.873 817.952 645.551 816.362 644.582C815.132 643.831 813.856 642.733 813.744 641.183C813.634 639.648 814.401 638.968 815.249 637.859C816.644 638.018 818.133 638.118 819.381 638.814C820.833 639.623 822.346 641.003 822.558 642.735C822.74 644.229 822.288 645.063 821.412 646.2Z"/><path fill="#FEFEFE" d="M300.634 679.25C313.105 671.927 331.219 656.772 340.686 645.842C343.23 647.761 347.223 655.198 349.592 658.222C354.013 663.864 358.852 669.542 363.728 674.794C383.477 696.069 412.694 713.405 440.724 720.752C457.717 725.206 475.652 726.874 493.15 727.573C493.493 731.099 493.286 734.878 494.484 738.252C495.434 740.926 497.178 742.783 499.753 743.959C509.367 748.35 546.272 748.72 557.832 748.389C563.494 748.227 569.73 747.193 575.337 747.844C579.299 748.304 582.917 750.62 586.551 752.17C591.677 754.357 597.338 753.87 602.379 751.703C608.502 749.072 611.571 745.272 614.053 739.338C629.022 740.803 630.175 736.629 642.097 731.015C646.511 728.937 651.238 727.691 655.661 725.527C661.81 758.579 668.747 797.651 668.739 830.959C668.737 839.323 667.984 847.552 667.209 855.871C650.011 847.988 623.283 847.275 604.935 851.316C592.935 853.959 572.178 860.567 565.424 871.515C562.064 877.043 561.032 883.678 562.556 889.965C559.416 888.672 556.04 887.164 553.234 885.234C541.14 876.916 531.048 853.405 525.003 839.811C522.861 834.993 520.334 830.066 518.983 824.964C517.814 820.551 517.541 815.719 516.926 811.189C516.112 805.187 515.062 799.277 513.864 793.341C522.804 794.231 531.158 794.595 540.119 793.935C546.127 793.2 556.515 792.879 561.758 790.257C562.954 789.659 563.277 789.264 563.635 788.008L563.036 787.304C556.274 785.373 547.314 787.603 540.254 787.686C522.523 787.895 505.191 787.084 487.96 782.551C482.805 781.194 477.441 779.762 472.468 777.845C469.545 776.718 466.826 775.215 463.807 774.297C462.732 773.97 461.622 773.706 460.515 774.024C459.797 774.23 459.809 774.735 459.534 775.355C459.637 775.883 459.672 776.253 459.969 776.745C462.938 781.647 485.317 788.423 491.067 789.81C496.187 791.046 501.681 791.484 506.628 793.279C506.793 793.339 506.956 793.404 507.121 793.467C507.696 800.136 508.732 806.758 509.259 813.431C510.175 825.027 510.321 836.882 510.643 848.515C510.922 858.588 511.287 868.989 509.902 878.993C502.687 878.008 492.905 872.774 485.399 870.658C466.373 865.296 446.157 867.183 427.423 872.847C423.016 874.18 418.243 875.531 414.236 877.859C412.208 879.037 410.465 880.04 409.791 882.418L410.252 883.141C416.529 884.347 425.994 879.018 433.606 879.394C433.836 879.405 434.066 879.422 434.296 879.437C426.823 884.729 416.472 884.928 408.267 888.811C399.138 893.132 395.947 900.229 392.785 909.163C375.921 904.378 360.687 897.86 347.356 886.259C343.36 882.781 339.083 878.955 336.348 874.36C332.028 867.101 329.862 858.538 327.206 850.569C312.289 805.817 305.234 750.722 301.83 703.6C301.245 695.5 301.175 687.36 300.634 679.25ZM614.825 824.663C611.048 825.214 605.969 825.528 603.428 828.786C602.86 829.514 602.908 829.75 602.761 830.613C603.646 831.731 604.643 832.121 606.076 832.237C607.967 832.39 609.921 831.7 611.716 831.177C615.396 830.467 619.584 830.088 622.902 828.307L623.521 827.356C622.866 826.004 622.007 825.217 620.514 824.746C618.857 824.223 616.514 824.354 614.825 824.663ZM617.64 835.774C611.457 836.187 595.937 836.896 591.635 841.221C590.619 842.243 590.64 842.615 590.563 843.967C590.972 844.707 590.985 845.273 591.872 845.465C592.973 845.704 594.001 845.544 595.104 845.419C599.299 844.4 603.505 843.314 607.745 842.498C611.694 841.738 618.155 841.72 621.669 840.081C622.096 838.69 622.221 838.102 621.848 836.636C620.437 836.122 619.118 835.948 617.64 835.774ZM463.85 853.233C460.515 853.438 454.812 853.508 452.384 856.046C451.857 856.596 452 857.034 451.955 857.746C452.599 858.699 452.862 859.443 454.037 859.773C457.765 860.821 462.491 859.248 466.376 859.793C470.214 859.854 474.745 860.508 478.048 858.248L478.401 857.224C477.533 855.517 475.825 854.839 474.08 854.275C470.834 853.226 467.23 853.186 463.85 853.233Z"/><path d="M871.214 662.032C868.901 661.955 866.745 662.08 864.995 660.325C864.078 659.406 863.567 658.318 863.739 656.99C864.02 654.823 865.334 653.645 867.011 652.443C868.917 652.433 870.726 652.47 872.217 653.859C873.237 654.809 873.791 655.741 873.821 657.167C873.867 659.356 872.621 660.582 871.214 662.032Z"/><path d="M833.551 663.334C832.967 663.398 832.667 663.466 832.083 663.394C830.856 663.243 829.509 662.469 828.796 661.444C827.899 660.156 827.865 658.37 828.205 656.891C828.665 654.886 829.99 653.984 831.624 652.906C833.509 652.955 835.135 653.273 836.411 654.816C837.118 655.671 837.346 656.7 837.249 657.786C837.02 660.356 835.407 661.753 833.551 663.334Z"/><path d="M832.703 673.916C834.923 676.155 837.759 678.135 840.976 678.514C842.55 678.7 845.488 678.805 846.698 677.874L846.742 677.297C847.11 672.022 842.508 672.89 839.905 669.306C839.297 668.47 838.708 667.211 839.045 666.155C839.749 663.952 841.946 662.464 843.957 661.578C847.548 661.251 851.146 661.465 854.742 661.591C855.523 662.137 856.297 662.675 856.999 663.322C858.187 664.417 859.142 665.62 859.066 667.329C858.973 669.455 856.088 671.157 854.651 672.413C852.84 673.998 851.782 675.546 851.596 678C851.949 678.661 851.814 678.784 852.432 678.967C855.719 679.942 861.184 676.093 863.859 674.461C864.359 673.402 864.859 672.105 865.513 671.13C866.209 670.091 866.573 669.993 867.692 669.686L868.527 670.403C868.669 671.088 868.726 671.209 868.718 671.99C868.694 674.529 866.808 677.253 864.951 678.831C861.512 681.754 856.783 682.818 852.369 682.426C851.447 682.128 850.755 681.862 849.774 681.919C844.02 682.254 837.246 682.486 832.226 679.19C830.756 678.224 829.717 676.945 829.414 675.183C828.907 672.239 830.172 670.309 831.718 667.95L832.703 673.916Z"/><path d="M137.739 684.663C139.064 680.874 140.437 677.086 142.508 673.629C144.646 670.061 147.419 667.152 151.541 666.127C156.166 665.695 160.285 666.038 164.199 668.84C169.59 672.701 170.804 678.881 171.688 685.004C170.22 688.813 168.646 692.064 166.088 695.265C167.652 697.2 169.202 699.147 170.738 701.105C176.085 707.949 186.928 725.828 185.858 734.609L184.897 735.006C180.699 732.373 173.77 712.725 169.176 706.354C167.058 703.36 164.445 700.749 161.448 698.635C160.006 697.637 158.241 696.838 157.003 695.603C156.391 694.993 156.599 694.491 156.575 693.677L157.22 693.353C159.092 694.047 160.706 694.818 162.696 694.332C164.892 691.993 166.119 686.408 167.133 683.327C166.938 682.62 166.721 681.919 166.482 681.226C165.126 677.39 162.687 674.03 158.9 672.353C156.554 671.313 154.009 670.927 151.601 671.985C145.795 674.534 143.582 683.38 141.612 688.894C138.168 689.215 134.802 689.532 131.426 690.313C125.951 692.104 120.308 695.156 115.974 698.975C113.486 701.167 111.318 703.63 108.558 705.494C102.62 702.245 94.7629 698.645 87.8644 700.295C85.9921 700.742 84.5192 701.703 83.5243 703.376C81.3254 707.074 82.3068 712.506 83.4449 716.391C86.2846 718.576 93.5763 720.791 95.2421 722.863C95.0827 722.983 94.9343 723.119 94.7639 723.222C92.7982 724.412 91.0295 724.436 88.8733 723.912C82.6513 722.402 79.8647 720.144 76.5446 714.798C76.0745 710.14 76.1742 705.691 78.6857 701.541C80.5354 698.485 83.4551 696.444 86.9157 695.611C94.157 693.868 101.046 697.184 107.045 700.884C116.272 692.294 124.898 686.241 137.739 684.663Z"/><path d="M157.221 691.536C156.817 691.441 156.378 691.163 156.004 690.978C154.813 687.819 153.648 684.741 153.221 681.376C152.966 679.361 153.075 678.579 154.294 676.948C154.723 677.104 154.913 677.152 155.335 677.418C157.23 678.613 158.194 680.865 158.632 682.988C159.259 686.026 158.922 688.945 157.221 691.536Z"/><path d="M143.101 729.271C144.257 729.324 146.32 729.545 147.359 729.056C148.545 728.498 149.931 726.496 150.269 725.287C146.674 725.398 143.306 726.92 139.659 725.854C138.182 725.421 137.393 724.732 136.659 723.417C136.706 722.173 136.819 721.092 136.307 719.923C136.195 719.667 136.038 719.431 135.935 719.171C135.487 718.041 135.494 716.837 136.125 715.777C137.878 712.833 143.923 711.517 147.001 710.436C146.832 709.574 146.572 708.616 146.538 707.742C146.471 706.042 147.356 705.449 148.368 704.21C149.802 704.692 151.345 705.405 152.543 706.339C153.804 707.323 154.781 708.506 154.836 710.187C154.914 712.588 153.042 713.788 151.415 715.217C152.343 718.953 154.082 723.403 153.319 727.235C152.962 729.022 152.091 730.669 150.469 731.614C148.41 732.815 145.124 732.837 142.917 732.058C141.516 731.564 140.632 730.773 140.017 729.41L140.377 728.546C141.88 728.255 141.813 728.403 143.101 729.271Z"/><path d="M95.1366 714.612C94.0752 714.546 92.9554 714.529 91.9637 714.106C90.5853 713.517 89.3289 712.432 88.8951 710.955C88.3286 709.027 89.1203 707.536 90.0763 705.941C91.2828 705.972 92.7113 705.932 93.8377 706.417C95.0285 706.93 96.0979 707.685 96.5169 708.979C97.1612 710.968 96.0285 712.916 95.1366 714.612Z"/><path d="M164.743 722.088C163.373 721.81 162.567 721.628 161.4 720.8C160.94 720.002 160.429 719.25 160.449 718.286C160.488 716.393 161.717 715.036 163.095 713.934C164.399 713.987 165.852 713.97 166.765 715.022C167.642 716.032 167.983 716.981 167.719 718.323C167.332 720.288 166.328 721.115 164.743 722.088Z"/><path d="M131.515 729.254C130.174 729.3 129.839 729.309 128.675 728.536C127.235 727.579 126.194 725.957 125.967 724.231C125.745 722.545 126.123 721.859 126.995 720.52C128.663 720.393 130.338 720.194 131.815 721.172C132.813 721.833 133.501 722.788 133.612 724.003C133.8 726.072 132.738 727.713 131.515 729.254Z"/><path d="M110.839 751.936C103.68 742.565 100.159 733.17 96.3916 722.149L97.1439 720.863L99.5399 721.366C102.484 724.869 105.902 735.622 108.677 740.471C111.716 745.782 116.65 750.097 119.326 755.53C118.904 756.536 118.361 756.81 117.458 757.375C115.309 757.557 114.272 756.187 112.415 755.57C109.583 754.63 95.4165 758.967 92.3773 760.165C88.7123 761.609 81.9777 764.339 80.7095 768.368C80.309 769.64 80.6117 770.774 81.2295 771.908C84.4982 777.909 102.2 780.161 108.333 780.532C112.228 780.768 117.064 780.162 120.746 781.31C122.71 785.645 117.752 807.865 117.631 814.813C117.481 823.342 118.378 831.495 124.608 837.903C126.561 837.694 128.505 837.363 130.447 837.07C138.207 831.088 137.348 824.776 141.369 817.361C141.908 816.368 141.873 816.26 143.038 816.067C146.705 815.459 150.81 815.835 154.534 815.713C160.811 815.508 166.882 814.169 172.884 812.396C174.325 813.275 175.299 813.862 175.712 815.568C176.793 820.033 178.713 825.997 182.476 828.92C183.978 830.086 186.34 831.301 188.29 830.778C189.403 830.479 190.304 829.694 190.913 828.738C197.698 818.087 190.09 785.687 187.197 773.376C182.864 773.76 178.55 774.026 174.203 773.708C168.017 773.256 157.803 771.17 153.714 766.102C152.473 764.564 152.175 762.841 152.51 760.936C153.034 757.953 155.684 755.586 158.081 753.984C162.02 751.351 179.464 744.789 183.731 745.921C184.546 746.137 184.488 746.407 184.864 747.073L184.486 748.202C180.353 751.938 171.089 753.313 165.763 755.168C163.02 756.124 158.775 757.617 157.691 760.592C157.2 761.94 157.628 762.793 158.184 763.987C160.38 765.633 162.67 766.706 165.29 767.488C174.706 770.301 189.885 770.722 198.604 765.599C200.532 764.466 201.965 762.874 202.383 760.625C203.561 754.29 198.031 749.435 194.803 744.726C195.104 743.705 195.465 743.754 196.336 743.213C197.766 743.153 198.849 743.291 200.084 744.043C205.343 747.245 207.126 755.162 208.413 760.755L208.15 761.311C204.791 768.248 199.366 769.969 192.556 772.362C195.884 786.755 202.52 814.836 197.432 828.446C196.352 831.337 194.5 833.89 191.596 835.14C188.898 836.301 185.443 836.24 182.749 835.099C175.839 832.175 173.011 823.865 170.429 817.422C162.433 820.091 153.419 821.042 145.027 821.049C143.391 827.929 140.249 835.534 134.537 840.017C131.821 842.149 128.527 843.365 125.055 842.85C121.921 842.385 119.37 840.404 117.566 837.875C107.784 824.158 114.214 800.36 116.429 784.96C104.871 785.118 91.185 784.335 80.987 778.225C78.3735 776.659 75.6282 774.36 74.9904 771.221C74.5368 768.988 75.3178 766.799 76.6328 764.999C83.5795 755.492 100.112 753.348 110.839 751.936Z"/><path d="M129.515 742.853C127.388 743.469 125.149 744.143 123.095 742.832C122.001 742.133 121.531 741.34 121.324 740.079C121.063 738.498 121.893 737.126 122.727 735.888C123.946 735.967 125.215 736.023 126.387 736.389C128.321 736.993 129.921 737.926 130.817 739.789C130.758 741.517 130.654 741.53 129.515 742.853Z"/><path d="M611.716 831.177C609.921 831.7 607.967 832.39 606.076 832.237C604.643 832.121 603.646 831.731 602.761 830.613C602.908 829.75 602.86 829.514 603.428 828.786C605.969 825.528 611.048 825.214 614.825 824.663C616.514 824.354 618.857 824.223 620.514 824.746C622.007 825.217 622.866 826.004 623.521 827.356L622.902 828.307C619.584 830.088 615.396 830.467 611.716 831.177Z"/><path d="M595.104 845.419C594.001 845.544 592.973 845.704 591.872 845.465C590.985 845.273 590.972 844.707 590.563 843.967C590.64 842.615 590.619 842.243 591.635 841.221C595.937 836.896 611.457 836.187 617.64 835.774C619.118 835.948 620.437 836.122 621.848 836.636C622.221 838.102 622.096 838.69 621.669 840.081C618.155 841.72 611.694 841.738 607.745 842.498C603.505 843.314 599.299 844.4 595.104 845.419Z"/><path d="M466.376 859.793C462.491 859.248 457.765 860.821 454.037 859.773C452.862 859.443 452.599 858.699 451.955 857.746C452 857.034 451.857 856.596 452.384 856.046C454.812 853.508 460.515 853.438 463.85 853.233C467.23 853.186 470.834 853.226 474.08 854.275C475.825 854.839 477.533 855.517 478.401 857.224L478.048 858.248C474.745 860.508 470.214 859.854 466.376 859.793Z"/><path fill="#FEFEFE" d="M608.609 867.61C607.63 867.902 607.151 867.829 606.169 867.572L605.783 866.866C605.871 865.745 605.969 864.92 606.772 864.064C610.42 860.173 616.937 859.115 621.998 858.674L622.654 858.736C623.446 859.238 624.039 859.546 624.518 860.387C624.925 861.1 624.606 861.381 624.373 862.105C620.783 865.403 613.274 866.141 608.609 867.61Z"/><path fill="#FEFEFE" d="M641.103 871.666C639.002 871.636 637.16 871.743 635.58 870.143C635.591 869.422 635.432 869.104 635.955 868.528C638.719 865.478 643.185 865.03 647.022 864.653C648.359 864.499 649.213 864.456 650.547 864.788C651.326 865.837 651.34 865.887 651.328 867.194C649.499 869.861 644.148 870.762 641.103 871.666Z"/><path fill="#FEFEFE" d="M578.742 876.061C578 876.008 577.682 875.743 577.056 875.368C577.026 874.677 577.084 874.147 577.335 873.488C578.304 870.938 582.231 869.415 584.567 868.395C585.368 868.533 585.689 868.759 586.362 869.189L586.496 870.254C585.008 873.01 581.41 874.631 578.742 876.061Z"/><path fill="#FEFEFE" d="M605.646 877.211C604.395 877.618 604.039 878.052 602.802 877.425L602.844 876.267C604.489 873.316 605.9 872.463 608.849 871.032L609.753 870.836C611.129 871.307 611.349 871.53 612.329 872.62L612.168 873.567C610.489 875.351 607.851 876.209 605.646 877.211Z"/><path fill="#FEFEFE" d="M644.614 882.505C643.991 882.702 643.365 882.903 642.733 883.072C641.212 883.479 640.451 883.469 639.097 882.664C638.89 881.541 638.914 881.309 639.634 880.364C640.893 878.712 643.412 877.547 645.43 877.303C646.638 877.158 647.768 876.941 648.952 876.664C650.277 876.516 652.086 876.213 653.393 876.588C654.561 876.923 654.725 877.389 655.072 878.401C654.652 879.565 654.132 880.182 653.15 880.902C650.776 882.642 647.432 882.874 644.614 882.505Z"/><path fill="#FEFEFE" d="M619.686 887.531C618.533 887.178 618.35 887.075 617.533 886.192C617.567 885.757 617.549 885.528 617.783 885.1C619.706 881.587 625.027 880.339 628.64 879.698C629.522 880.441 629.763 880.588 630.139 881.66C628.805 884.45 622.555 886.32 619.686 887.531Z"/><path fill="#FEFEFE" d="M457.372 891.321C454.163 892.192 450.947 893.2 447.711 893.952C446.196 894.303 445.231 894.099 443.901 893.266L443.897 892.32C449.353 886.971 476.218 883.584 483.98 883.219C487.428 882.953 493.673 882.284 496.599 884.378C497.674 885.147 498.114 885.669 498.365 886.951C497.611 887.818 497.522 887.753 496.37 887.89C492.333 888.368 487.963 888.226 483.876 888.389C475.246 888.734 466.449 889.4 457.98 891.188L457.372 891.321Z"/><path fill="#FEFEFE" d="M465.755 903.208C464.208 903.523 462.941 903.569 461.368 903.469L461.635 903.384L460.131 902.983C459.776 902.215 459.87 902.669 460.072 901.594C463 898.05 466.825 897.23 471.135 896.649C472.62 896.706 475.007 896.565 476.204 897.552C477.248 898.412 477.348 898.879 477.37 900.107C475.24 902.545 469.007 902.501 465.755 903.208Z"/><path fill="#FEFEFE" d="M419.105 903.495C417.664 903.875 416.786 904.06 415.275 903.855L414.793 903.144C415.753 900.224 420.429 898.322 422.966 897.005C423.885 897.151 424.865 897.265 425.756 897.535C426.968 897.901 427.367 898.291 427.901 899.394C427.834 899.536 427.785 899.689 427.698 899.82C426.172 902.129 421.636 902.827 419.105 903.495Z"/><path fill="#FEFEFE" d="M447.405 902.771C445.828 903.017 444.045 903.433 442.451 903.308C441.461 903.23 441.242 903.238 440.629 902.438C441.031 901.079 442.341 900.456 443.448 899.693C443.614 899.673 443.78 899.649 443.946 899.631C444.224 899.601 444.502 899.58 444.779 899.55C445.656 899.453 446.629 899.259 447.508 899.394C448.881 899.603 449.933 900.044 450.661 901.183C449.606 902.333 448.884 902.354 447.405 902.771Z"/></svg>