<?xml version="1.0" encoding="utf-8" ?><svg xmlns="http://www.w3.org/2000/svg" xmlns:xlink="http://www.w3.org/1999/xlink" width="1024" height="1024" viewBox="0 0 1024 1024"><path fill="#FEFEFE" d="M0 0L1024 0L1024 1024L0 1024L0 604.756C21.0608 604.17 42.2079 604.546 63.2776 604.543C116.244 604.534 169.348 605.127 222.293 603.998C224.04 609.04 225.76 612.955 229.071 617.174C228.177 631.769 231.61 644.061 237.524 657.26C233.678 657.652 229.844 658.466 226.088 659.374C157.494 675.945 80.3927 699.726 24.2513 744.043C20.9668 746.636 8.42283 755.935 6.97386 759.273C6.51136 760.339 6.72019 760.603 7.13957 761.591C8.43241 761.695 9.13841 761.433 10.2528 760.749C15.201 757.714 19.6916 753.753 24.4914 750.469C35.7177 742.787 47.4806 735.429 59.3012 728.703C106.833 701.656 159.702 682.315 212.765 669.496C221.663 667.347 231.385 663.987 240.533 663.818C241.748 664.536 241.707 665.155 242.188 666.419C240.947 672.032 227.251 669.916 222.722 673.693C221.132 675.019 220.5 676.639 220.435 678.66C220.258 684.206 220.888 692.435 224.973 696.543C231.639 703.246 255.355 702.534 264.71 702.799C262.682 710.912 262.063 719.461 261.148 727.757C259.35 744.051 258.094 760.383 256.371 776.674C255.952 780.635 254.055 784.25 253.533 788.135C253.349 789.502 253.381 789.986 254.288 791.044C257.384 794.658 266.762 795.476 271.234 795.836C276.928 796.293 294.753 796.516 298.604 792.113C299.42 791.179 299.727 790.407 299.452 789.161C299.121 787.662 297.633 786.69 296.507 785.809L295.981 785.404C294.455 772.681 295.027 759.644 294.224 746.862C293.631 737.996 292.964 729.136 292.225 720.282C291.825 715.522 290.547 709.891 291.224 705.215L291.8 705.22C298.767 716.641 293.595 739.785 299.51 747.655C299.606 747.784 299.706 747.909 299.804 748.035C297.904 751.38 296.949 754.977 296.542 758.786C296.018 763.686 296.423 769.495 299.789 773.381C307.773 782.598 332.886 787.362 344.797 788.286C352.253 788.864 363.68 789.094 369.562 783.724C371.825 781.658 372.953 778.877 372.944 775.832C372.921 768.232 364.504 757.407 359.298 752.045C364.221 742.119 367.594 730.57 370.073 719.8C370.838 726.207 371.987 732.442 374.389 738.448C371.223 745.749 369.395 752.957 368.415 760.853C375.274 768.534 392.409 773.969 402.436 776.843C411.722 779.504 428.457 783.587 437.447 778.19C439.52 776.946 440.961 775.101 441.492 772.729C443.947 761.75 434.552 759.35 430.496 752.178C430.422 752.047 430.356 751.911 430.285 751.778C430.835 747.775 431.235 745.37 428.713 741.978C435.091 726.752 442.385 704.122 443.042 687.765C443.483 676.773 439.35 665.598 432.812 656.855C430.336 653.545 427.247 650.585 424.961 647.157C422.233 643.066 423.565 642.268 419.22 637.536C424.395 634.753 428.646 631.469 433.08 627.619C448.787 625.756 464.844 625.111 480.635 624.183C498.686 623.121 516.796 621.845 534.88 621.52C538.773 638.752 540.07 658.205 542.43 675.855L538.547 679.015C537.239 675.604 537.164 671.895 535.483 668.626C534.363 667.705 533.788 667.395 532.348 667.193C530.997 667.559 530.213 668.013 529.439 669.186C527.467 672.178 526.126 678.415 527.113 681.894C527.471 683.158 527.936 683.532 529.031 684.166C529.654 684.063 530.282 684.096 530.779 683.66C532.422 682.221 532.533 678.32 532.82 676.241C533.676 679.455 534.402 684.638 536.411 687.238C538.718 687.199 541.737 684.31 543.65 682.898C544.534 682.818 545.636 682.82 546.479 682.568C548.89 681.846 548.987 670.918 550.252 668.109C550.868 666.739 551.695 665.741 553.117 665.173L553.748 666.536L554.299 666.571C556.706 664.621 558.056 662.261 559.682 659.675C561.28 661.265 550.053 677.058 551.88 683.089C552.282 684.415 552.565 684.497 553.719 685.075C557.888 684.988 561.677 681.176 565.056 678.895C564.355 680.938 563.49 683.062 562.986 685.155C562.62 686.68 562.655 688.255 563.459 689.622L564.415 689.724C566.4 688.593 567.688 686.845 568.73 684.833C569.961 682.457 571.546 678.019 570.291 675.381C569.784 674.316 568.955 673.886 567.854 673.612C564.861 672.869 560.923 675.223 558.38 676.583C560.571 672.743 563.247 669.046 564.857 664.907C565.802 662.476 566.979 657.976 565.394 655.557C564.911 654.819 564.353 654.429 563.542 654.163C561.093 653.358 559.042 654.186 556.848 655.268L551.181 621.797C558.918 621.28 566.782 621.447 574.54 621.311C598.404 620.891 622.146 621.328 646 621.403C694.952 621.165 743.905 621.508 792.849 622.43C782.478 640.663 770.259 658.018 758.338 675.269C749.649 687.843 736.812 699.553 732.433 714.542C731.463 717.864 730.988 721.3 730.812 724.75C730.577 729.387 730.937 751.767 733.715 755.261C734.868 756.711 738.021 757.198 739.714 757.414C750.09 758.739 802.516 760.873 810.987 759.025C817.842 757.53 824.058 753.81 829.545 749.567C829.449 752.223 829.061 755.394 829.823 757.953C830.501 760.229 831.572 763.382 833.845 764.504C834.604 764.878 835.014 764.713 835.775 764.38C837.5 763.625 838.16 761.708 838.805 760.099C840.234 761.557 842.362 764.185 844.446 764.518C848.344 765.14 849.704 760.618 852.226 758.781C852.948 760.035 853.896 761.823 855.328 762.361C856.809 762.916 858.102 762.244 859.409 761.609C860.428 761.114 861.327 760.69 862.43 760.393C862.913 760.967 863.413 761.527 863.929 762.071C866.166 764.39 869.257 765.087 872.397 765.041C875.136 765.001 879.258 764.791 881.213 762.838C881.429 761.341 881.512 761.036 880.933 759.662C878.295 757.528 872.951 758.709 869.687 758.583C869.318 757.27 868.946 755.921 868.432 754.656C867.805 753.112 867.039 752.628 865.541 752.019C862.435 752.288 860.513 754.476 858.347 756.493C853.165 749.168 856.162 738.759 857.18 730.413C872.735 722.907 887.645 713.722 902.511 704.946C920.215 694.348 938.107 684.068 956.179 674.111C963.997 669.782 971.766 665.139 979.846 661.322C980.719 665.036 981.938 668.831 982.248 672.635C980.82 672.842 979.496 672.247 978.181 672.712C976.524 673.296 975.496 674.609 974.883 676.206C973.87 678.848 974.064 682.284 975.422 684.775C976.067 685.958 976.761 686.659 978.065 687.068C981.718 685.434 979.314 680.794 981.663 678.449C983.925 679.226 985.152 682.095 987.017 683.613C988.11 684.502 988.833 684.545 990.18 684.453C992.172 683.28 993.503 681.208 994.919 679.415L996.653 685.771C999.453 683.692 1001.3 680.218 1003.89 678.387C1004.11 678.229 1004.81 677.869 1005.16 677.947C1005.56 679.449 1005.81 680.563 1006.92 681.728C1007.73 681.894 1008.23 681.953 1009.06 681.82C1009.29 681.784 1009.51 681.731 1009.73 681.687C1008.9 683.312 1007.54 685.511 1008.06 687.368L1009.1 687.874C1010.03 687.804 1010.86 687.656 1011.73 687.316C1013.61 686.584 1014.98 685.161 1015.7 683.275C1016.33 681.611 1016.48 679.393 1015.6 677.778C1014.77 676.251 1013.96 675.565 1012.35 675.057C1012.24 675.024 1011.35 674.785 1011.23 674.698C1010.06 673.898 1009.9 668.441 1009.06 666.802C1008.46 665.63 1007.84 665.364 1006.66 664.913C1004.06 665.261 1002.75 666.633 1001.1 668.542C998.918 629.784 993.188 591.141 988.642 552.607C981.625 493.115 974.612 431.934 962.724 373.272C958.781 353.816 955.149 333.261 947.306 314.909C945.639 311.008 942.803 307.759 939.811 304.818C928.395 300.753 833.578 304.698 816.028 305.214L753.083 306.725C751.821 305.798 750.418 305.096 749.045 304.349C748.385 304.339 747.73 304.344 747.07 304.346C741.792 304.366 736.962 306.762 731.566 307.043C720.121 307.638 708.592 307.605 697.13 307.984C688.614 308.265 679.519 309.207 671.059 308.633C667.197 308.371 663.749 306.579 660.138 306.286C657.092 306.039 653.63 307.671 651.25 309.443C630.762 309.927 610.277 310.517 589.796 311.212C589.62 311.084 589.45 310.948 589.269 310.828C587.254 309.487 585.094 308.589 582.643 308.672C578.121 308.825 573.905 311.32 569.291 311.451L509.866 312.909C500.26 313.144 489.375 312.403 479.996 314.211C471.439 321.544 466.474 334.829 462.371 345.081C450.104 320.522 427.517 299.883 402.183 289.469C367.866 275.364 330.974 275.976 296.869 290.408C277.899 298.436 259.191 312.164 247.09 328.965C245.034 331.819 242.756 334.964 241.545 338.296C241.106 339.504 240.706 340.339 241.315 341.531C242.507 341.222 243.172 340.548 244.015 339.695C246.361 337.323 248.273 334.346 250.452 331.794C254.087 327.616 257.912 323.608 261.916 319.782C269.816 312.267 279.347 305.701 288.901 300.467C317.541 284.776 353.968 280.34 385.326 289.685C418.59 299.599 443.455 321.144 459.782 351.51C454.128 362.601 450.407 374.592 446.257 386.305C439.25 406.083 433.414 426.015 427.514 446.144C422.453 462.798 417.721 479.551 413.321 496.392C410.711 506.749 407.984 517.099 405.475 527.479C404.262 532.5 403.708 537.79 402.026 542.683C401.253 544.933 400.509 546.624 398.286 547.695C397.258 547.719 397.02 547.881 396.121 547.313C396.563 543.04 399.733 538.831 399.519 534.572C399.506 534.315 399.475 534.058 399.458 533.801C398.932 525.928 396.889 517.577 392.79 510.772L392.45 510.22C395.959 492.274 394.319 477.209 384.382 461.58C385.877 459.988 387.378 458.399 388.305 456.395C389.914 452.901 390.022 448.901 388.603 445.326C387.209 441.742 384.348 438.711 380.761 437.274C377.632 435.996 374.107 436.111 371.068 437.591C366.833 439.645 364.724 443.522 363.258 447.77C344.441 441.654 327.033 442.094 308.21 447.414C305.344 444.456 302.774 441.635 299.053 439.743C294.526 437.438 289.234 437.162 284.491 438.982C280.32 440.539 276.936 443.688 275.084 447.738C273.373 451.536 273.139 456.037 274.714 459.921C276.559 464.467 279.794 466.517 284.097 468.293C279.58 475.685 276.68 482.582 274.403 490.943C270.857 492.577 267.332 494.475 264.74 497.465C261.339 501.388 260.091 506.816 260.439 511.899C257.183 514.844 253.464 517.43 250.552 520.734C248.549 523.008 246.908 525.813 247.282 528.949C247.715 532.592 250.25 534.725 253.024 536.779C246.621 541.493 240.362 548.683 235.408 554.871C224.457 568.552 219.507 581.88 221.399 599.4C209.429 599.582 197.457 599.641 185.486 599.576C185.566 594.706 185.088 590.427 184.062 585.655C185.603 582.425 188.728 578.827 188.381 575.059C188.239 573.52 186 570.786 185.08 569.486C174.185 554.087 162.629 539.148 151.725 523.749C144.998 514.247 135.405 497.899 127.511 490.284C126.819 481.441 129.548 462.995 125.944 455.911C124.281 454.481 121.359 454.382 119.233 454.242C107.658 453.481 95.5802 454.368 83.9433 454.412C55.9604 454.453 27.9784 454.726 1.42109e-14 455.231L0 0ZM341.082 228.618C338.819 233.843 335.286 251.376 337.19 256.627C337.913 257.216 338.387 257.559 339.253 257.947C342.038 252.862 344.556 236.186 342.819 230.378C342.65 229.811 342.362 229.207 341.818 228.907C341.587 228.78 341.327 228.714 341.082 228.618ZM280.471 231.142C280.321 235.729 280.993 251.268 283.59 254.481C284.088 255.097 284.652 254.966 285.382 255.064C285.725 250.059 285.765 236.29 282.395 232.317C281.774 231.584 281.356 231.443 280.471 231.142ZM238.67 244.125C238.177 249.469 245.266 272.963 248.313 276.467C248.927 277.174 249.773 277.009 250.65 277.111C251.947 270.816 245.263 252.103 241.701 246.427C240.776 244.953 240.312 244.683 238.67 244.125ZM419.167 253.819C415.595 257.478 410.746 266.082 410.672 271.252C410.651 272.694 411.085 273.169 412.021 274.129C415.894 271.223 419.829 261.609 420.401 256.831C420.498 256.021 420.385 255.338 420.174 254.559L419.167 253.819ZM145.702 259.585L145.02 261.029C145.524 262.101 145.679 262.334 146.744 262.943C148.987 264.227 151.572 265.069 153.899 266.233C160.395 269.432 166.612 273.169 172.485 277.405C180.646 283.39 188.686 290.66 194.849 298.72C212.043 321.203 220.454 354.204 210.415 381.466C209.471 384.032 208.395 386.55 207.351 389.076C205.276 394.1 199.92 398.966 199.165 404.331L199.661 405.243C201.056 405.238 201.472 404.752 202.614 403.993C216.092 389.885 221.157 372.124 220.657 352.89C219.91 326.383 208.741 301.24 189.572 282.917C177.777 271.803 162.143 261.531 145.702 259.585ZM481.101 293.389C476.613 295.497 469.05 298.715 466.355 302.92L466.427 304.021C467.174 304.43 467.752 304.694 468.574 304.961C473.125 303.114 479.753 299.579 482.717 295.567L482.836 294.376C482.165 293.769 482.013 293.619 481.101 293.389ZM825.248 759.101C823.845 759.938 823.59 760.08 822.827 761.507C822.999 763.078 823.38 764.105 824.626 765.155C825.665 766.031 826.728 766.357 828.017 766.706C829.072 765.746 830.247 764.739 830.368 763.201C830.465 761.972 830.015 761.034 829.101 760.235C828.039 759.305 826.581 759.22 825.248 759.101Z"/><path d="M339.253 257.947C338.387 257.559 337.913 257.216 337.19 256.627C335.286 251.376 338.819 233.843 341.082 228.618C341.327 228.714 341.587 228.78 341.818 228.907C342.362 229.207 342.65 229.811 342.819 230.378C344.556 236.186 342.038 252.862 339.253 257.947Z"/><path d="M285.382 255.064C284.652 254.966 284.088 255.097 283.59 254.481C280.993 251.268 280.321 235.729 280.471 231.142C281.356 231.443 281.774 231.584 282.395 232.317C285.765 236.29 285.725 250.059 285.382 255.064Z"/><path d="M250.65 277.111C249.773 277.009 248.927 277.174 248.313 276.467C245.266 272.963 238.177 249.469 238.67 244.125C240.312 244.683 240.776 244.953 241.701 246.427C245.263 252.103 251.947 270.816 250.65 277.111Z"/><path d="M412.021 274.129C411.085 273.169 410.651 272.694 410.672 271.252C410.746 266.082 415.595 257.478 419.167 253.819L420.174 254.559C420.385 255.338 420.498 256.021 420.401 256.831C419.829 261.609 415.894 271.223 412.021 274.129Z"/><path d="M202.614 403.993C201.472 404.752 201.056 405.238 199.661 405.243L199.165 404.331C199.92 398.966 205.276 394.1 207.351 389.076C208.395 386.55 209.471 384.032 210.415 381.466C220.454 354.204 212.043 321.203 194.849 298.72C188.686 290.66 180.646 283.39 172.485 277.405C166.612 273.169 160.395 269.432 153.899 266.233C151.572 265.069 148.987 264.227 146.744 262.943C145.679 262.334 145.524 262.101 145.02 261.029L145.702 259.585C162.143 261.531 177.777 271.803 189.572 282.917C208.741 301.24 219.91 326.383 220.657 352.89C221.157 372.124 216.092 389.885 202.614 403.993Z"/><path d="M1.42109e-14 455.231C27.9784 454.726 55.9604 454.453 83.9433 454.412C95.5802 454.368 107.658 453.481 119.233 454.242C121.359 454.382 124.281 454.481 125.944 455.911C129.548 462.995 126.819 481.441 127.511 490.284C135.405 497.899 144.998 514.247 151.725 523.749C162.629 539.148 174.185 554.087 185.08 569.486C186 570.786 188.239 573.52 188.381 575.059C188.728 578.827 185.603 582.425 184.062 585.655C185.088 590.427 185.566 594.706 185.486 599.576C197.457 599.641 209.429 599.582 221.399 599.4C219.507 581.88 224.457 568.552 235.408 554.871C240.362 548.683 246.621 541.493 253.024 536.779C250.25 534.725 247.715 532.592 247.282 528.949C246.908 525.813 248.549 523.008 250.552 520.734C253.464 517.43 257.183 514.844 260.439 511.899C260.091 506.816 261.339 501.388 264.74 497.465C267.332 494.475 270.857 492.577 274.403 490.943C276.68 482.582 279.58 475.685 284.097 468.293C279.794 466.517 276.559 464.467 274.714 459.921C273.139 456.037 273.373 451.536 275.084 447.738C276.936 443.688 280.32 440.539 284.491 438.982C289.234 437.162 294.526 437.438 299.053 439.743C302.774 441.635 305.344 444.456 308.21 447.414C327.033 442.094 344.441 441.654 363.258 447.77C364.724 443.522 366.833 439.645 371.068 437.591C374.107 436.111 377.632 435.996 380.761 437.274C384.348 438.711 387.209 441.742 388.603 445.326C390.022 448.901 389.914 452.901 388.305 456.395C387.378 458.399 385.877 459.988 384.382 461.58C394.319 477.209 395.959 492.274 392.45 510.22L392.79 510.772C396.889 517.577 398.932 525.928 399.458 533.801C399.475 534.058 399.506 534.315 399.519 534.572C399.733 538.831 396.563 543.04 396.121 547.313C397.02 547.881 397.258 547.719 398.286 547.695C400.509 546.624 401.253 544.933 402.026 542.683C403.708 537.79 404.262 532.5 405.475 527.479C407.984 517.099 410.711 506.749 413.321 496.392C417.721 479.551 422.453 462.798 427.514 446.144C433.414 426.015 439.25 406.083 446.257 386.305C450.407 374.592 454.128 362.601 459.782 351.51C443.455 321.144 418.59 299.599 385.326 289.685C353.968 280.34 317.541 284.776 288.901 300.467C279.347 305.701 269.816 312.267 261.916 319.782C257.912 323.608 254.087 327.616 250.452 331.794C248.273 334.346 246.361 337.323 244.015 339.695C243.172 340.548 242.507 341.222 241.315 341.531C240.706 340.339 241.106 339.504 241.545 338.296C242.756 334.964 245.034 331.819 247.09 328.965C259.191 312.164 277.899 298.436 296.869 290.408C330.974 275.976 367.866 275.364 402.183 289.469C427.517 299.883 450.104 320.522 462.371 345.081C466.474 334.829 471.439 321.544 479.996 314.211C489.375 312.403 500.26 313.144 509.866 312.909L569.291 311.451C573.905 311.32 578.121 308.825 582.643 308.672C585.094 308.589 587.254 309.487 589.269 310.828C589.45 310.948 589.62 311.084 589.796 311.212C610.277 310.517 630.762 309.927 651.25 309.443C653.63 307.671 657.092 306.039 660.138 306.286C663.749 306.579 667.197 308.371 671.059 308.633C679.519 309.207 688.614 308.265 697.13 307.984C708.592 307.605 720.121 307.638 731.566 307.043C736.962 306.762 741.792 304.366 747.07 304.346C747.73 304.344 748.385 304.339 749.045 304.349C750.418 305.096 751.821 305.798 753.083 306.725L816.028 305.214C833.578 304.698 928.395 300.753 939.811 304.818C942.803 307.759 945.639 311.008 947.306 314.909C955.149 333.261 958.781 353.816 962.724 373.272C974.612 431.934 981.625 493.115 988.642 552.607C993.188 591.141 998.918 629.784 1001.1 668.542C1002.75 666.633 1004.06 665.261 1006.66 664.913C1007.84 665.364 1008.46 665.63 1009.06 666.802C1009.9 668.441 1010.06 673.898 1011.23 674.698C1011.35 674.785 1012.24 675.024 1012.35 675.057C1013.96 675.565 1014.77 676.251 1015.6 677.778C1016.48 679.393 1016.33 681.611 1015.7 683.275C1014.98 685.161 1013.61 686.584 1011.73 687.316C1010.86 687.656 1010.03 687.804 1009.1 687.874L1008.06 687.368C1007.54 685.511 1008.9 683.312 1009.73 681.687C1009.51 681.731 1009.29 681.784 1009.06 681.82C1008.23 681.953 1007.73 681.894 1006.92 681.728C1005.81 680.563 1005.56 679.449 1005.16 677.947C1004.81 677.869 1004.11 678.229 1003.89 678.387C1001.3 680.218 999.453 683.692 996.653 685.771L994.919 679.415C993.503 681.208 992.172 683.28 990.18 684.453C988.833 684.545 988.11 684.502 987.017 683.613C985.152 682.095 983.925 679.226 981.663 678.449C979.314 680.794 981.718 685.434 978.065 687.068C976.761 686.659 976.067 685.958 975.422 684.775C974.064 682.284 973.87 678.848 974.883 676.206C975.496 674.609 976.524 673.296 978.181 672.712C979.496 672.247 980.82 672.842 982.248 672.635C981.938 668.831 980.719 665.036 979.846 661.322C971.766 665.139 963.997 669.782 956.179 674.111C938.107 684.068 920.215 694.348 902.511 704.946C887.645 713.722 872.735 722.907 857.18 730.413C856.162 738.759 853.165 749.168 858.347 756.493C860.513 754.476 862.435 752.288 865.541 752.019C867.039 752.628 867.805 753.112 868.432 754.656C868.946 755.921 869.318 757.27 869.687 758.583C872.951 758.709 878.295 757.528 880.933 759.662C881.512 761.036 881.429 761.341 881.213 762.838C879.258 764.791 875.136 765.001 872.397 765.041C869.257 765.087 866.166 764.39 863.929 762.071C863.413 761.527 862.913 760.967 862.43 760.393C861.327 760.69 860.428 761.114 859.409 761.609C858.102 762.244 856.809 762.916 855.328 762.361C853.896 761.823 852.948 760.035 852.226 758.781C849.704 760.618 848.344 765.14 844.446 764.518C842.362 764.185 840.234 761.557 838.805 760.099C838.16 761.708 837.5 763.625 835.775 764.38C835.014 764.713 834.604 764.878 833.845 764.504C831.572 763.382 830.501 760.229 829.823 757.953C829.061 755.394 829.449 752.223 829.545 749.567C824.058 753.81 817.842 757.53 810.987 759.025C802.516 760.873 750.09 758.739 739.714 757.414C738.021 757.198 734.868 756.711 733.715 755.261C730.937 751.767 730.577 729.387 730.812 724.75C730.988 721.3 731.463 717.864 732.433 714.542C736.812 699.553 749.649 687.843 758.338 675.269C770.259 658.018 782.478 640.663 792.849 622.43C743.905 621.508 694.952 621.165 646 621.403C622.146 621.328 598.404 620.891 574.54 621.311C566.782 621.447 558.918 621.28 551.181 621.797L556.848 655.268C559.042 654.186 561.093 653.358 563.542 654.163C564.353 654.429 564.911 654.819 565.394 655.557C566.979 657.976 565.802 662.476 564.857 664.907C563.247 669.046 560.571 672.743 558.38 676.583C560.923 675.223 564.861 672.869 567.854 673.612C568.955 673.886 569.784 674.316 570.291 675.381C571.546 678.019 569.961 682.457 568.73 684.833C567.688 686.845 566.4 688.593 564.415 689.724L563.459 689.622C562.655 688.255 562.62 686.68 562.986 685.155C563.49 683.062 564.355 680.938 565.056 678.895C561.677 681.176 557.888 684.988 553.719 685.075C552.565 684.497 552.282 684.415 551.88 683.089C550.053 677.058 561.28 661.265 559.682 659.675C558.056 662.261 556.706 664.621 554.299 666.571L553.748 666.536L553.117 665.173C551.695 665.741 550.868 666.739 550.252 668.109C548.987 670.918 548.89 681.846 546.479 682.568C545.636 682.82 544.534 682.818 543.65 682.898C541.737 684.31 538.718 687.199 536.411 687.238C534.402 684.638 533.676 679.455 532.82 676.241C532.533 678.32 532.422 682.221 530.779 683.66C530.282 684.096 529.654 684.063 529.031 684.166C527.936 683.532 527.471 683.158 527.113 681.894C526.126 678.415 527.467 672.178 529.439 669.186C530.213 668.013 530.997 667.559 532.348 667.193C533.788 667.395 534.363 667.705 535.483 668.626C537.164 671.895 537.239 675.604 538.547 679.015L542.43 675.855C540.07 658.205 538.773 638.752 534.88 621.52C516.796 621.845 498.686 623.121 480.635 624.183C464.844 625.111 448.787 625.756 433.08 627.619C428.646 631.469 424.395 634.753 419.22 637.536C423.565 642.268 422.233 643.066 424.961 647.157C427.247 650.585 430.336 653.545 432.812 656.855C439.35 665.598 443.483 676.773 443.042 687.765C442.385 704.122 435.091 726.752 428.713 741.978C431.235 745.37 430.835 747.775 430.285 751.778C430.356 751.911 430.422 752.047 430.496 752.178C434.552 759.35 443.947 761.75 441.492 772.729C440.961 775.101 439.52 776.946 437.447 778.19C428.457 783.587 411.722 779.504 402.436 776.843C392.409 773.969 375.274 768.534 368.415 760.853C369.395 752.957 371.223 745.749 374.389 738.448C371.987 732.442 370.838 726.207 370.073 719.8C367.594 730.57 364.221 742.119 359.298 752.045C364.504 757.407 372.921 768.232 372.944 775.832C372.953 778.877 371.825 781.658 369.562 783.724C363.68 789.094 352.253 788.864 344.797 788.286C332.886 787.362 307.773 782.598 299.789 773.381C296.423 769.495 296.018 763.686 296.542 758.786C296.949 754.977 297.904 751.38 299.804 748.035C299.706 747.909 299.606 747.784 299.51 747.655C293.595 739.785 298.767 716.641 291.8 705.22L291.224 705.215C290.547 709.891 291.825 715.522 292.225 720.282C292.964 729.136 293.631 737.996 294.224 746.862C295.027 759.644 294.455 772.681 295.981 785.404L296.507 785.809C297.633 786.69 299.121 787.662 299.452 789.161C299.727 790.407 299.42 791.179 298.604 792.113C294.753 796.516 276.928 796.293 271.234 795.836C266.762 795.476 257.384 794.658 254.288 791.044C253.381 789.986 253.349 789.502 253.533 788.135C254.055 784.25 255.952 780.635 256.371 776.674C258.094 760.383 259.35 744.051 261.148 727.757C262.063 719.461 262.682 710.912 264.71 702.799C255.355 702.534 231.639 703.246 224.973 696.543C220.888 692.435 220.258 684.206 220.435 678.66C220.5 676.639 221.132 675.019 222.722 673.693C227.251 669.916 240.947 672.032 242.188 666.419C241.707 665.155 241.748 664.536 240.533 663.818C231.385 663.987 221.663 667.347 212.765 669.496C159.702 682.315 106.833 701.656 59.3012 728.703C47.4806 735.429 35.7177 742.787 24.4914 750.469C19.6916 753.753 15.201 757.714 10.2528 760.749C9.13841 761.433 8.43241 761.695 7.13957 761.591C6.72019 760.603 6.51136 760.339 6.97386 759.273C8.42283 755.935 20.9668 746.636 24.2513 744.043C80.3927 699.726 157.494 675.945 226.088 659.374C229.844 658.466 233.678 657.652 237.524 657.26C231.61 644.061 228.177 631.769 229.071 617.174C225.76 612.955 224.04 609.04 222.293 603.998C169.348 605.127 116.244 604.534 63.2776 604.543C42.2079 604.546 21.0608 604.17 0 604.756L0 599.605C34.1602 599.355 68.3326 599.9 102.489 599.465C102.585 591.043 102.712 582.56 103.372 574.163C68.8805 574.767 34.5115 576.112 0 575.872L0 570.639C5.66546 570.659 11.3395 570.534 17.0052 570.473C18.5844 533.556 19.0705 496.601 18.463 459.655C12.309 459.747 6.15406 459.75 0 459.665L0 455.231L1.42109e-14 455.231ZM899.009 309.728L754.017 312.8L754.056 319.451C762.952 319.33 771.814 318.778 780.702 318.538C827.112 317.188 873.539 316.476 919.969 316.403L926.2 309.656C917.137 309.624 908.069 309.835 899.009 309.728ZM743.444 310.396C742.794 314.389 741.205 322.164 743.519 325.766C744.117 326.697 744.852 327.182 745.955 327.268C748.087 327.435 750.505 326.173 752.828 326.191L753.088 325.74C751.429 325.657 750.876 325.76 749.47 324.808C748.378 321.773 749.382 311.978 746.374 310.778C745.352 310.369 744.527 310.411 743.444 310.396ZM657.556 311.919C656.658 316.288 655.585 323.018 658.036 326.995C658.797 328.23 659.99 329.427 661.511 329.549C662.722 329.646 664.11 329.365 665.315 329.201L665.563 328C663.972 326.612 662.409 328.073 662.077 325.057C661.599 320.724 664.342 316.826 661.566 312.777C660.295 311.832 659.065 311.949 657.556 311.919ZM934.065 311.977C928.973 315.293 925.257 319.881 922.256 325.132C917.457 333.53 914.333 343.166 911.139 352.27C906.368 365.866 901.785 379.521 898.159 393.476C894.954 405.813 892.598 418.443 889.778 430.879C886.164 446.817 882.193 462.706 878.827 478.697C864.254 549.579 852.482 621.008 843.539 692.818C841.661 706.933 839.59 720.964 838.023 735.126C837.425 740.528 836.281 746.448 836.624 751.866C837.449 752.795 836.959 752.534 837.834 752.763C839.555 753.212 840.433 753.628 841.757 754.807L845.061 756.966C846.147 755.277 847.461 753.436 847.923 751.461C849.913 742.944 850.229 733.292 851.233 724.546C853.209 705.782 855.487 687.05 858.065 668.359C864.458 620.633 872.069 573.078 880.89 525.74C891.548 466.999 903.411 408.634 921.139 351.563C924.432 340.962 929.181 321.558 935.631 313.082C935.043 312.083 935.083 312.296 934.065 311.977ZM729.077 313.25L668.501 315.052L668.535 322.887L675.4 322.646C695.689 322.345 716.465 322.626 736.66 320.694L736.839 313.135L729.077 313.25ZM580.526 314.169C578.58 318.245 577.797 324.021 579.295 328.407C579.792 329.862 580.696 331.365 582.178 331.986C583.494 332.537 584.968 332.034 586.262 331.664L587.485 330.88L587.602 330.153C586.232 329.185 585.159 328.785 584.9 326.955C584.346 323.042 586.007 318.357 583.531 314.983C582.456 314.351 581.763 314.248 580.526 314.169ZM636.864 315.723C621.242 316.392 605.605 316.683 589.994 317.559C590.05 319.881 590.048 322.221 590.18 324.54C595.474 324.591 600.768 324.564 606.061 324.458C620.982 323.984 636.185 324.231 651.045 323.035L651.224 315.504C646.446 315.539 641.634 315.456 636.864 315.723ZM557.921 318.272C533.689 318.812 507.044 318.419 483.133 320.587C481.765 321.893 480.437 322.904 479.921 324.775C480.139 325.478 480.069 325.889 480.767 326.271C483.75 327.903 490.374 326.807 493.807 326.646C520.345 326.349 546.879 325.795 573.406 324.984L573.145 318.079C568.071 318.092 562.991 318.051 557.921 318.272ZM940.369 318.7C939.928 319.632 939.526 320.591 939.547 321.641C939.704 329.364 942.249 338.248 943.693 345.841C946.188 358.601 948.442 371.407 950.452 384.252C958.052 430.754 963.513 477.58 969.336 524.32L974.669 567.137C975.361 572.336 976.552 577.447 977.189 582.66C980.874 612.837 983.203 643.612 988.638 673.511C989.705 672.393 990.748 671.195 991.915 670.185C993.362 669.948 994.636 670.01 995.773 669.049C995.743 661.351 994.101 653.266 993.232 645.588C991.262 627.744 989.137 609.918 986.856 592.111C980.246 537.366 972.966 482.703 965.018 428.136C962.304 409.619 959.054 391.185 955.273 372.856C952.455 358.604 949.744 344.746 945.416 330.845C944.364 327.466 943.03 321.377 940.649 318.94C940.563 318.852 940.462 318.78 940.369 318.7ZM895.871 322.275C849.803 323.297 803.73 324.064 757.653 324.577C756.376 328.569 755.332 329.847 751.646 331.744L750.744 332.2C750.716 364.385 749.817 396.566 749.587 428.75C749.362 473.79 749.766 518.831 750.799 563.86C744.838 567.417 733.541 574.342 727.134 575.865C721.904 577.109 669.872 576.877 665.233 575.632C664.36 575.397 664.157 575.296 663.777 574.494C662.104 570.969 662.598 565.701 661.466 561.716C666.377 556.848 679.865 550.517 686.637 549.307C693 548.17 700.24 548.512 706.713 548.5L733.161 548.513C737.028 548.53 740.909 548.513 744.774 548.64C745.364 522.438 744.512 496.236 744.588 470.034C744.534 434.964 744.883 399.894 745.637 364.831C745.882 353.919 746.515 343.016 746.808 332.104C744.453 331.922 742.508 331.997 740.725 330.228C739.544 329.056 738.639 326.87 737.843 325.4C715.419 326.334 692.978 326.627 670.563 327.61C670.024 329.913 669.82 331.866 667.771 333.306C666.631 334.107 664.794 334.352 663.453 334.656C663.73 356.744 663.088 378.793 662.975 400.875C662.408 453.579 662.222 506.286 662.417 558.993C657.824 562.91 636.801 570.202 629.327 574.091C629.165 574.061 629.003 574.03 628.84 574.002C617.376 572.038 604.646 572.507 592.999 572.142C588.93 572.015 584.53 572.24 580.546 571.406C578.992 571.081 577.504 570.659 576.624 569.248C574.61 566.018 575.383 558.89 575.276 555.094C578.558 552.361 582.759 549.819 586.576 547.887C586.588 539.957 586.284 532.03 585.664 524.124C584.558 495.616 581.792 466.931 581.994 438.42C582.239 418.554 582.611 398.69 583.111 378.828C583.441 365.104 584.256 350.855 582.925 337.178C579.984 336.457 577.41 336.021 575.631 333.251C574.892 332.1 574.282 330.821 573.654 329.605C560.409 329.578 547.166 330.19 533.924 330.421C521.225 330.643 508.389 330.401 495.727 331.488C499.2 343.672 501.798 356.041 504.527 368.406C508.72 386.855 512.62 405.369 516.226 423.941C528.872 487.686 540.53 551.623 551.197 615.729C612.436 614.058 673.555 615.189 734.793 615.082C748.006 615.106 761.218 615.254 774.428 615.527C781.998 615.648 789.684 616.039 797.241 615.586C808.531 594.809 823.657 564.538 839.127 547.218C845.4 540.195 853.675 533.172 862.689 530.056C874.176 470.71 884.854 410.495 904.736 353.228C908.443 342.552 913.141 332.417 917.34 321.945C910.182 321.94 903.025 322.05 895.871 322.275ZM634.788 328.258C627.281 328.376 597.849 327.955 592.918 329.392C592.952 330.348 593.082 330.949 593.34 331.854C592.566 334.106 591.84 335.592 589.56 336.62C588.654 337.029 587.669 337.237 586.7 337.442C588.796 366.165 587.309 395.228 587.252 424.014C587.2 450.25 588.477 476.272 589.734 502.467C590.382 515.988 590.127 530.378 592.062 543.727C597.997 542.943 603.844 542.41 609.838 542.377C625.361 541.942 641.104 541.028 656.619 541.494C657.549 528.639 657.001 515.638 657.128 502.751C657.61 478.212 657.841 453.668 657.821 429.124C657.908 397.684 659.614 366.203 659.507 334.79C655.128 333.523 653.907 331.699 651.647 327.895C646.027 327.974 640.407 328.096 634.788 328.258ZM475.876 329.408C472.01 335.846 469.481 343.483 466.473 350.386C452.158 383.234 442.008 417.236 432.127 451.614C425.895 473.3 419.587 494.725 414.09 516.629C412.576 522.664 408.861 532.103 408.624 538.052C409.988 536.104 411.268 534.644 413.135 533.166C417.019 516.466 422.017 500.133 426.661 483.638C436.695 448.204 447.302 412.934 458.476 377.843C461.599 368.165 464.969 358.568 468.581 349.063C470.752 343.499 473.331 337.979 475.302 332.353C475.641 331.386 475.91 330.438 475.876 329.408ZM481.007 331.709C474.158 344.086 467.917 366.159 463.494 380.008C454.583 407.911 445.601 435.954 437.751 464.17C431.769 485.669 426.149 510.785 418.709 531.494C424.844 530.864 435.945 529.987 440.957 534.248C442.484 535.547 443.161 537.275 443.213 539.255C443.238 540.2 443.017 541.179 442.306 541.834C441.303 542.759 440.059 543.242 438.833 543.799C440.685 548.843 441.397 554.469 443.544 559.309C444.749 562.025 447.854 563.988 448.604 566.776C448.93 567.99 445.496 603.748 445.092 604.747C444.097 607.211 441.642 608.868 439.55 610.317C439.469 613.741 439.04 616.87 438.196 620.196C444.051 619.881 449.981 619.708 455.811 619.088C481.597 617.513 507.549 615.679 533.384 615.491C529.728 592.336 525.256 569.393 521.231 546.312C517.512 524.986 514.273 503.586 510.355 482.293C508.061 469.828 505.355 457.438 503.114 444.968L490.074 370.659C488.317 361.009 486.888 351.271 484.73 341.699C484.108 338.943 483.361 333.46 481.007 331.709ZM489.071 332.381C494.218 363.738 500.909 394.837 506.866 426.05C515.589 472.138 523.971 518.289 532.011 564.501L543.769 635.769C544.762 641.874 545.868 656.308 547.744 660.948C548.6 660.742 549.453 660.54 550.3 660.299C551.131 654.071 547.473 637.052 546.38 630.003C532.491 541.513 516.165 453.422 497.421 365.832C496.228 360.254 491.582 335.34 489.569 332.833C489.408 332.633 489.255 332.522 489.071 332.381ZM933.322 333.913C925.65 357.503 918.693 381.319 912.459 405.329C902.317 445.585 894.457 486.793 887.31 527.683C897.915 530.832 906.455 537.42 917.723 538.469C935.122 538.501 947.867 531.898 963.652 531.205C959.209 505.18 939.137 340.356 933.322 333.913ZM375.207 440.973C372.45 442.489 370.645 443.77 369.131 446.557L369.489 447.298C372.593 447.914 378.985 446.351 380.816 449.394C381.475 450.489 381.408 451.754 381.027 452.922C380.816 453.568 380.517 454.209 380.212 454.817L379.493 455.244C380.155 456.501 380.177 456.671 381.432 457.297C382.878 456.69 383.584 455.895 384.231 454.453C385.318 452.029 385.317 449.465 384.235 447.033C383.183 444.672 381.108 442.353 378.626 441.473C377.494 441.072 376.396 440.991 375.207 440.973ZM288.568 443.14C284.878 444.51 281.422 446.067 279.791 449.959C278.633 452.724 278.982 455.692 280.258 458.349C281.623 461.193 283.906 462.988 286.411 464.785C287.784 463.439 289.631 462.166 290.172 460.317C289.141 458.648 287.11 458.055 285.684 456.743C284.806 455.223 284.371 454.19 284.173 452.439C284.62 451.23 284.755 450.688 286.036 450.107C289.994 448.31 296.133 450.697 299.939 452.162C301.348 451.244 302.805 450.359 304.149 449.35C299.721 445.461 296.067 442.668 289.854 443.04C289.425 443.067 288.996 443.1 288.568 443.14ZM328.285 448.185C312.963 450 300.658 454.438 290.879 467.015C281.677 478.851 278.958 492.808 278.709 507.487C287.852 522.268 320.789 541.028 335.585 550.835C343.167 555.862 352.757 561.122 357.067 569.415C357.169 569.612 357.278 569.807 357.381 570.003L357.565 570.359C366.998 562.8 373.65 551.562 380.935 541.995C384.985 535.721 392.099 523.815 390.082 516.004C389.933 515.427 389.696 514.929 389.44 514.394L388.886 514.359C387.908 517.345 387.958 520.639 387.429 523.734C385.911 532.609 381.617 542.55 373.224 546.851C370.3 548.35 364.875 550.34 361.723 549.298C360.591 548.923 360.428 548.586 359.783 547.648L359.817 546.389C361.715 544.698 365.285 544.126 367.695 543.298C378.926 539.439 383.214 528.69 383.677 517.502C383.796 514.607 381.779 508.677 383.498 506.621C384.403 506.721 385.052 506.848 385.879 507.235C389.135 501.77 388.075 483.932 386.446 477.466C384.144 468.322 377.551 460.691 369.476 456.019C358.045 449.405 341.306 446.677 328.285 448.185ZM89.6251 458.742L77.1159 459.105C77.8905 479.606 77.5119 500.152 77.8677 520.666C78.1489 536.877 79.3411 553.492 78.7742 569.671L90.375 569.442L98.9068 569.31C99.27 532.482 103.136 495.666 103.53 458.847C98.9006 458.792 94.2539 458.651 89.6251 458.742ZM108.624 458.721C108.47 484.143 106.901 509.614 105.74 535.009C105.223 546.321 104.481 557.678 104.502 569.002C109.206 568.75 113.914 568.58 118.625 568.49L120.134 568.299C122.574 563.938 122.5 473.297 122.451 458.605C117.848 458.626 113.224 458.557 108.624 458.721ZM52.8085 459.248L51.0004 459.483C48.4692 463.136 52.9583 557.897 53.0748 570.005C58.9655 569.93 64.8925 569.982 70.7767 569.738L72.4321 569.479C73.1536 568.447 73.2187 567.514 73.2527 566.288C73.3393 563.166 72.9518 559.972 72.8762 556.84C72.7051 549.001 72.5888 541.161 72.5273 533.321C72.5393 508.641 72.4069 483.961 72.1301 459.282C65.6899 459.207 59.249 459.196 52.8085 459.248ZM23.4795 459.603C23.4872 488.248 24.0046 516.961 23.0705 545.594C22.8018 553.829 22.9299 562.304 22.179 570.496C30.2652 570.421 38.3662 570.248 46.4511 570.418L47.2613 569.885C47.8794 565.963 47.3017 561.668 47.171 557.693L46.576 536.1C45.8282 510.534 45.4527 484.959 45.4494 459.382C38.1257 459.411 30.8023 459.484 23.4795 459.603ZM127.492 495.826C127.459 503.691 127.264 511.591 127.433 519.452C138.956 535.742 151.342 551.181 164.185 566.441C169.269 572.482 174.296 579.267 180.145 584.542C180.594 583.383 180.667 582.543 180.719 581.321C181.575 579.508 182.578 577.913 183.715 576.263C171.019 557.442 157.008 539.504 144.116 520.822C139.766 514.519 131.958 500.296 127.492 495.826ZM273.165 497.39C269.334 500.543 266.071 503.65 265.509 508.87C264.964 513.929 266.57 522.736 269.977 526.586C277.42 535 322.358 552.393 335.557 559.546L341.223 562.505C337.764 559.031 333.258 556.304 329.238 553.516C314.224 543.107 275.981 521.376 273.865 502.259C273.691 500.691 273.623 498.887 273.165 497.39ZM261.893 518.363C258.381 520.69 254.616 523.142 253.641 527.563C253.254 529.321 253.516 531.158 254.554 532.658C256.627 535.655 260.82 536.952 264.252 537.402C267.614 537.844 271.023 537.941 274.38 538.387L282.147 539.231C277.211 536.292 271.79 532.97 268.152 528.407C266.059 525.781 264.506 520.133 261.893 518.363ZM127.107 525.902C127.248 533.103 126.891 540.247 126.561 547.437C139.655 565.017 154.575 581.302 166.714 599.631L181.571 599.47C181.464 596.863 181.541 594.659 180.068 592.396C173.907 582.926 164.052 574.559 156.907 565.583C149.511 556.291 142.558 546.592 135.444 537.081C132.806 533.555 130.102 529.019 127.107 525.902ZM392.868 527.972C390.337 537.213 385.568 545.349 379.801 552.943C377.782 555.601 374.573 558.698 373.321 561.725L373.636 561.988C382.106 556.535 389.777 551.27 392.13 540.803C392.985 537.001 393.71 532.201 393.166 528.351L392.868 527.972ZM886.063 534.094C879.868 566.523 875.336 599.144 869.9 631.686C875.072 622.001 878.862 611.534 884.035 601.916C896.876 576.113 906.01 563.188 927.881 544.484C915.162 545.127 908.726 543.882 897.176 538.673C893.506 537.018 889.917 535.288 886.063 534.094ZM423.051 535.655C419.945 536.178 417.007 536.35 414.668 538.669L414.683 539.527C418.307 541.797 426.8 540.603 431.125 540.479C433.244 540.256 435.574 540.282 437.423 539.143L437.714 538.299C436.035 536.379 432.132 535.753 429.702 535.57C427.487 535.41 425.262 535.438 423.051 535.655ZM861.009 537.581C853.712 542.429 847.18 547.57 841.914 554.647C825.508 576.694 813.38 601.262 799.729 624.988C793.071 636.561 785.469 648.093 777.957 659.136C773.139 666.218 768.524 673.557 763.481 680.47C754.433 692.876 742.092 704.231 738.946 719.862C738.012 724.504 737.08 736.905 738.999 740.745C740.334 741.654 742.06 741.497 743.622 741.57C754.179 742.554 764.649 743.378 775.242 743.854C785.421 744.311 795.804 744.383 805.915 745.668C809.199 721.028 822.148 705.826 837.574 687.506C841.745 654.768 846.411 622.095 851.571 589.498C853.375 578.453 855.385 567.354 857.528 556.371C858.621 550.774 861.463 543.189 861.009 537.581ZM960.735 537.656C936.873 541.358 920.539 555.517 906.646 574.479C892.636 593.6 882.923 616.891 874.082 638.771C870.924 646.589 867.441 654.613 865.534 662.84C863.896 669.909 863.428 677.507 862.567 684.706C861.754 691.497 860.602 698.232 859.541 704.987C861.221 702.613 862.986 700.268 864.513 697.792C876.19 680.236 890.524 663.928 903.733 647.511C914.248 634.441 924.812 621.504 935.678 608.718C941.387 602 946.976 595.013 953.245 588.804C958.067 584.028 963.84 578.714 970.159 576.048C969.188 571.046 965.374 538.726 964.543 537.505C963.16 537.368 962.109 537.436 960.735 537.656ZM258.447 540.865C246.2 547.842 232.283 566.287 228.606 580.023C226.176 589.099 226.388 600.126 231.254 608.397C238.432 620.601 254.801 626.305 267.753 629.45C273.934 630.951 296.797 635.252 301.92 632.418L301.162 631.932C299.947 631.144 299.577 630.966 299.185 629.484C297.646 623.673 303.907 606.817 306.361 601.245C299.615 598.022 279.597 588.977 276.677 582.976C276.63 581.524 276.427 581.22 277.301 580.089C280.426 579.845 283.148 583.107 285.666 584.599C286.753 580.773 287.623 577.292 290.174 574.137L291.185 573.679C292.128 574.793 292.061 576.047 291.896 577.464C291.548 580.447 290.438 583.694 289.412 586.51C301.362 594.617 324.215 603.263 327.491 618.762C328.314 622.657 327.395 626.247 325.108 629.475C321.826 634.108 316.833 636.107 311.39 636.87C285.957 640.435 253.828 636.528 232.954 620.832C233.456 628.759 234.283 635.981 237.238 643.438C258.439 649.831 282.321 647.082 304.004 644.712C309.508 644.11 315.359 643.866 320.774 642.816C349.104 639.251 377.262 635.648 405.693 632.869C394.022 615.422 393.6 581.355 385.823 560.46L380.662 563.233C382.271 570.494 389.87 613.731 387.939 619.056L386.977 619.774C385.804 619.487 385.311 619.405 384.665 618.245C382.676 614.67 380.953 593.027 380.078 587.253C378.939 579.846 377.627 572.467 376.143 565.121C370.924 567.942 365.632 570.673 360.599 573.818C362.17 579.404 366.147 588.765 364.732 594.325C363.833 595.338 363.801 595.267 362.445 595.439C361.104 594.808 360.848 594.405 360.301 593.023C358.02 587.26 357.114 580.582 355.265 574.611C349.001 571.255 342.74 567.806 336.099 565.239C337.767 571.987 344.152 616.249 342.158 619.842C341.889 620.326 341.55 620.623 341.172 621L340.15 621.125C336.88 618.438 334.431 585.566 333.846 579.496C333.338 574.226 332.902 568.905 332.937 563.609C304.696 549.15 290.501 544.097 258.447 540.865ZM414.975 546.217C414.565 548.907 413.069 554.294 413.918 556.751C414.366 556.747 414.81 556.787 415.243 556.664C416.481 554.495 418.287 550.511 417.512 547.983C417.308 547.318 417.275 547.334 416.939 546.843L414.975 546.217ZM642.285 547.261C626.324 547.462 610.068 546.922 594.165 548.177C592.426 549.502 589.417 551.297 588.958 553.54C589.956 554.343 590.639 554.077 591.875 554.066C599.865 553.956 607.857 553.983 615.847 554.149C621.189 554.221 626.971 554.817 632.225 553.821C636.949 552.925 642.401 550.663 646.012 547.461C644.782 547.007 643.567 547.184 642.285 547.261ZM425.277 548.886C427.796 550.376 429.622 551.855 430.624 554.698C431.275 554.789 431.751 554.848 432.411 554.778C432.47 553.189 432.693 552.534 431.505 551.31C430.147 549.911 427.164 549.05 425.277 548.886ZM656.399 548.955C650.851 551.827 639.323 556.169 635.683 560.607C635.272 561.997 635.19 562.957 635.238 564.408C642.331 561.679 649.52 558.973 656.43 555.812C656.563 553.609 656.967 551.098 656.399 548.955ZM126.417 554.288L126.385 567.464C133.89 577.531 141.413 588.64 147.704 599.524L161.084 599.409C155.205 590.644 148.479 582.559 141.997 574.245C136.837 567.626 131.957 560.593 126.417 554.288ZM394.13 554.514C393.272 555.432 392.165 556.1 392.344 557.483C393.089 563.236 396.453 572.628 397.891 578.93C400.925 592.235 402.329 606.626 406.956 619.46C408.567 623.929 410.986 627.824 413.905 631.544C418.475 629.739 422.532 628.07 426.394 624.972C429.173 622.113 433.804 617.913 433.988 613.72C433.392 612.445 433.284 612.162 431.935 611.54C424.872 608.287 412.996 614.166 407.192 602C402.005 591.13 411.461 559.38 401.022 554.954C398.93 554.067 396.333 554.207 394.13 554.514ZM693.262 554.69C687.168 555.303 682.473 556.76 677.029 559.539C692.663 559.383 708.298 559.364 723.933 559.484C729.394 559.56 733.161 556.35 738.161 554.702C729.674 554.223 721.109 554.456 712.608 554.479C706.21 554.495 699.635 554.224 693.262 554.69ZM744.842 558.014C741.282 559.584 730.217 563.322 728.878 566.673L728.957 568.05L729.54 568.562C733.246 566.724 743.221 563.137 745.444 559.99C745.392 558.951 745.594 558.8 744.842 558.014ZM427.846 559.377C427.686 559.42 427.527 559.465 427.366 559.506C423.472 560.51 420.153 558.639 416.673 561.04L416.498 561.868C420.086 564.41 427.371 563.673 431.625 563.518L440.958 563.185C440.194 561.689 440.02 560.899 438.552 560.031C437.064 560.081 435.745 560.178 434.288 560.483C432.476 560.862 429.368 560.406 427.846 559.377ZM580.884 558.822C580.9 561.549 580.864 564.291 580.956 567.016C590.673 567.347 600.392 567.614 610.113 567.817C616.088 567.943 622.419 568.39 628.348 567.656C628.616 564.959 628.939 562.257 629.113 559.552C613.423 559.281 596.417 559.84 580.884 558.822ZM412.552 563.778C411.378 569.937 412.525 598.744 415.555 603.895C415.967 604.596 416.027 604.607 416.518 605.104L417.623 605.14C419.027 603.405 418.807 601.407 418.619 599.258L416.253 597.711C416.121 597.073 415.87 596.739 416.272 596.149C417.393 594.5 420.716 593.55 422.603 593.359C423.323 593.286 424.048 593.258 424.772 593.231L426.961 592.555C424.118 591.92 420.384 594.248 418.263 591.248C415.933 587.952 418.609 582.459 417.75 580.72C417.075 579.354 415.222 579.759 414.657 577.762C416.204 573.832 420.866 575.032 422.008 570.43C423.773 568.554 426.609 568.037 428.982 567.167C422.686 567 418.07 567.448 412.552 563.778ZM685.481 564.767C681.274 564.766 672.953 563.769 669.372 565.927C668.972 567.187 669.131 568.381 669.219 569.675L669.637 570.327C674.324 571.153 679.481 570.78 684.258 570.822L707.625 571.127C712.934 571.161 718.244 571.082 723.55 570.888C723.351 568.83 723.128 566.894 722.607 564.89C715.619 563.694 693.699 564.466 685.481 564.767ZM436.859 566.879C438.266 569.441 439.446 571.077 442.386 571.863C443.161 572.07 443.717 571.991 444.472 571.77C444.339 570.241 444.276 569.117 443.435 567.774C441.494 566.371 439.141 566.788 436.859 566.879ZM111.47 573.764C110.077 573.866 109.261 573.721 108.128 574.573C107.023 582.681 107.501 591.43 107.423 599.632L117.271 599.755C118.609 599.734 119.187 600.006 120.227 599.072C121.557 590.981 120.449 581.723 120.524 573.499L111.47 573.764ZM125.606 574.844L125.515 599.828L142.249 599.498C139.044 594.707 128.539 577.264 125.606 574.844ZM442.01 575.068C438.287 576.489 434.599 577.852 431.101 579.784C434.099 579.772 437.327 579.274 439.619 581.61C440.292 582.296 440.874 583.389 440.827 584.357C440.747 586.013 439.749 587.443 438.474 588.451C436.98 589.632 434.928 590.196 433.137 590.755L431.859 591.367C435.36 593.337 438.196 593.005 441.468 596.052C441.661 592.653 443.251 576.92 442.01 575.068ZM422.963 582.712C422.348 584.137 422.036 584.602 422.203 586.177C424.736 587.975 428.887 586.488 431.854 586.321L432.304 585.799L429.545 585.36C427.048 584.972 424.991 584.233 422.963 582.712ZM962.338 588.457C959.84 590.607 957.83 592.121 957.654 595.643C957.382 601.064 958.666 606.82 959.477 612.165C960.966 621.993 962.73 631.853 963.858 641.724L968.375 641.967C970.016 642.049 972.029 642.397 973.509 641.622C972.594 636.662 963.222 589.54 962.338 588.457ZM440.717 596.343C437.414 600.602 434.899 602.6 429.968 604.829L430.62 605.32C433.344 604.986 438.794 605.159 440.634 602.99C441.858 601.547 441.536 599.246 441.455 597.493C441.246 597.146 441.004 596.622 440.717 596.343ZM434.645 597.744C430.918 597.889 426.321 597.511 422.75 598.503L422.219 599.177L423.029 600.086C427.068 600.172 431.418 600.382 435.098 598.445L435.268 597.727L434.645 597.744ZM951.278 599.381C946.286 604.757 942.12 610.929 937.456 616.597C930.633 624.888 923.322 632.781 916.506 641.078L925.125 641.21C936.226 641.59 947.195 640.597 958.347 641.169C956.653 633.199 955.332 625.154 954.388 617.061C953.755 612.044 953.45 606.654 952.378 601.722C952.179 600.808 951.914 600.08 951.278 599.381ZM311.725 606.217C308.7 614.478 306.977 623.006 305.155 631.588C308.623 631.342 312.309 631.317 315.713 630.647C318.555 629.311 320.957 627.742 322.002 624.612C323.001 621.621 322.172 618.465 320.714 615.781C318.632 611.946 315.203 608.795 311.725 606.217ZM406.276 636.703C387.067 638.936 367.821 640.684 348.65 643.239C314.354 647.81 272.586 657.355 238.666 649.339C240.379 654.799 241.581 661.625 246.861 664.706C260.718 666.602 283.84 661.273 298.092 658.709C325.557 653.766 352.882 649.263 380.589 645.948C392.469 644.527 404.825 642.457 416.79 643.143C414.086 640.212 411.673 638.194 407.975 636.526L406.276 636.703ZM409.208 647.711C393.535 648.978 377.64 650.788 362.174 653.644C364.695 656.985 367.332 660.318 369.277 664.037C374.296 673.63 376.092 685.212 375.656 695.945C375.475 700.405 374.827 704.889 374.861 709.35C374.928 718.03 376.897 729.04 380.109 737.076C383.135 738.174 386.277 739.094 389.495 739.402C400.892 741.044 412.466 740.888 423.893 739.617C429.489 724.525 437.414 699.42 436.34 683.407C436.029 678.766 434.766 674.368 432.812 670.157C429.135 662.236 421.633 651.258 413.177 648.024C411.877 647.527 410.57 647.524 409.208 647.711ZM348.708 655.667C332.344 658.216 315.977 661.08 299.658 663.915C283.872 666.657 268.102 669.916 251.997 669.661C257.928 678.314 265.97 684.747 275.044 689.972C280.578 693.158 294.194 696.679 297.32 702.018C300.466 707.392 300.375 715.827 300.707 721.859C301.166 728.756 301.351 735.838 302.447 742.659C314.788 750.022 334.067 752.707 347.972 749.145C349.832 748.669 351.675 748.103 353.507 747.528C360.538 735.19 367.516 707.649 368.035 693.564C368.248 687.729 367.56 681.897 365.995 676.273C364.127 669.492 358.612 658.318 351.745 655.593C350.854 655.24 349.627 655.521 348.708 655.667ZM246.757 668.63C245.307 669.452 244.764 670.13 243.924 671.557C240.789 673.093 228.883 674.433 227.802 677.406C229.574 679.568 234.243 679.875 236.907 680.36C242.522 681.229 248.176 681.836 253.848 682.18C251.906 679.355 247.314 673.067 247.54 669.615C247.549 669.467 247.595 669.324 247.623 669.178L246.757 668.63ZM225.342 682.541C225.602 685.531 225.652 690.614 228.149 692.672C232.861 696.557 269.084 698.055 275.981 697.339C270.119 694.724 264.382 689.016 260.296 687.534C255.077 685.641 248.366 686.051 242.832 685.678C236.853 685.275 231.053 684.37 225.342 682.541ZM835.182 700.866C824.452 714.158 811.713 730.817 813.227 748.964C813.305 749.901 813.456 750.83 813.624 751.755C819.061 748.926 823.451 744.502 828.998 741.913C829.268 741.787 829.534 741.655 829.804 741.531C829.967 741.456 830.132 741.388 830.296 741.317C831.2 734.827 836.199 704.081 835.182 700.866ZM378.453 742.891C376.782 745.601 376.023 748.458 375.308 751.535C382.001 750.674 388.658 751.628 395.366 751.449C401.105 751.295 406.626 749.821 412.113 748.252C414.128 747.729 416.73 747.389 418.454 746.243L417.999 745.736C414.831 745.689 411.61 746.305 408.422 746.435C397.969 746.86 388.455 745.938 378.453 742.891ZM738.893 746.257C738.906 747.863 738.672 749.596 739.603 750.979C747.855 752.832 798.352 754.58 807.087 753.399C804.643 750.737 800.47 751.334 796.995 751.187C780.812 750.502 753.451 751.096 738.893 746.257ZM304.438 750.093C303.889 751.788 303.531 752.208 304.111 753.938C309.226 759.153 321.6 761.63 328.746 761.622C332.374 761.618 335.247 759.767 338.335 758.093L343.72 755.906C330.171 756.496 317.137 755.212 304.438 750.093ZM374.25 755.017L373.767 757.402L374.297 758.012C377.24 758.078 380.378 757.09 383.228 757.389C392.245 758.333 405.438 765.113 414.882 767.503L415.834 767.005C416.099 765.435 415.582 764.194 414.675 762.922C412.489 759.857 408.879 757.547 405.835 755.394C395.253 755.656 384.815 755.67 374.25 755.017ZM300.838 757.772C300.956 759.936 301.271 761.05 302.889 762.54C309.762 768.872 322.703 770.139 331.47 772.519C333.579 773.092 337.563 774.853 339.647 774.814C339.94 774.809 340.226 774.721 340.516 774.675C338.884 771.858 337.276 769.318 334.926 767.017C324.199 767.745 315.672 766.16 306.091 761.14C304.253 760.177 302.657 758.623 300.838 757.772ZM348.006 757.923C346.188 758.774 344.373 759.516 342.822 760.815L343.42 761.101L344.115 760.753C345.558 760.217 348.88 759.465 349.7 758.281L348.006 757.923ZM376.113 761.186C381.069 763.124 386.224 764.653 391.267 766.355C402.739 770.225 414.874 775.346 427.199 774.326C423.301 773.788 419.435 773.23 415.644 772.151C403.242 768.621 388.963 761.41 376.113 761.186ZM427.419 761.136C424.771 761.983 422.364 763.449 420.785 765.775C420.612 767.273 420.664 767.29 421.473 768.573C423.666 770.066 426.215 769.866 428.784 769.969C430.815 769.97 433.374 770.32 434.854 768.689C435.374 768.115 435.524 767.449 435.514 766.674C435.486 764.694 433.971 762.572 433.017 760.879L427.419 761.136ZM300.566 765.836C302.545 770.463 306.434 772.286 310.91 774.066C323.834 779.206 341.053 784.734 354.919 782.253C345.012 780.86 336.028 778.416 326.395 775.79C320.904 774.293 315.427 773.126 310.15 770.922C306.729 769.494 303.766 767.678 300.566 765.836ZM358.362 768.123C352.93 769.754 349.058 772.194 344.459 775.464C347.755 776.515 350.99 777.458 354.478 777.577C358.103 777.52 363.845 777.99 366.648 775.281C367.363 774.589 367.412 774.109 367.732 773.198C367.415 771.378 366.655 770.438 365.158 769.412C362.781 767.782 361.131 767.84 358.362 768.123Z"/><path d="M468.574 304.961C467.752 304.694 467.174 304.43 466.427 304.021L466.355 302.92C469.05 298.715 476.613 295.497 481.101 293.389C482.013 293.619 482.165 293.769 482.836 294.376L482.717 295.567C479.753 299.579 473.125 303.114 468.574 304.961Z"/><path fill="#FEFEFE" d="M754.017 312.8L899.009 309.728C908.069 309.835 917.137 309.624 926.2 309.656L919.969 316.403C873.539 316.476 827.112 317.188 780.702 318.538C771.814 318.778 762.952 319.33 754.056 319.451L754.017 312.8Z"/><path fill="#FEFEFE" d="M752.828 326.191C750.505 326.173 748.087 327.435 745.955 327.268C744.852 327.182 744.117 326.697 743.519 325.766C741.205 322.164 742.794 314.389 743.444 310.396C744.527 310.411 745.352 310.369 746.374 310.778C749.382 311.978 748.378 321.773 749.47 324.808C750.876 325.76 751.429 325.657 753.088 325.74L752.828 326.191Z"/><path fill="#FEFEFE" d="M665.315 329.201C664.11 329.365 662.722 329.646 661.511 329.549C659.99 329.427 658.797 328.23 658.036 326.995C655.585 323.018 656.658 316.288 657.556 311.919C659.065 311.949 660.295 311.832 661.566 312.777C664.342 316.826 661.599 320.724 662.077 325.057C662.409 328.073 663.972 326.612 665.563 328L665.315 329.201Z"/><path fill="#FEFEFE" d="M841.757 754.807C840.433 753.628 839.555 753.212 837.834 752.763C836.959 752.534 837.449 752.795 836.624 751.866C836.281 746.448 837.425 740.528 838.023 735.126C839.59 720.964 841.661 706.933 843.539 692.818C852.482 621.008 864.254 549.579 878.827 478.697C882.193 462.706 886.164 446.817 889.778 430.879C892.598 418.443 894.954 405.813 898.159 393.476C901.785 379.521 906.368 365.866 911.139 352.27C914.333 343.166 917.457 333.53 922.256 325.132C925.257 319.881 928.973 315.293 934.065 311.977C935.083 312.296 935.043 312.083 935.631 313.082C929.181 321.558 924.432 340.962 921.139 351.563C903.411 408.634 891.548 466.999 880.89 525.74C872.069 573.078 864.458 620.633 858.065 668.359C855.487 687.05 853.209 705.782 851.233 724.546C850.229 733.292 849.913 742.944 847.923 751.461C847.461 753.436 846.147 755.277 845.061 756.966L841.757 754.807Z"/><path fill="#FEFEFE" d="M668.501 315.052L729.077 313.25L736.839 313.135L736.66 320.694C716.465 322.626 695.689 322.345 675.4 322.646L668.535 322.887L668.501 315.052Z"/><path fill="#FEFEFE" d="M586.262 331.664C584.968 332.034 583.494 332.537 582.178 331.986C580.696 331.365 579.792 329.862 579.295 328.407C577.797 324.021 578.58 318.245 580.526 314.169C581.763 314.248 582.456 314.351 583.531 314.983C586.007 318.357 584.346 323.042 584.9 326.955C585.159 328.785 586.232 329.185 587.602 330.153L587.485 330.88L586.262 331.664Z"/><path fill="#FEFEFE" d="M589.994 317.559C605.605 316.683 621.242 316.392 636.864 315.723C641.634 315.456 646.446 315.539 651.224 315.504L651.045 323.035C636.185 324.231 620.982 323.984 606.061 324.458C600.768 324.564 595.474 324.591 590.18 324.54C590.048 322.221 590.05 319.881 589.994 317.559Z"/><path fill="#FEFEFE" d="M483.133 320.587C507.044 318.419 533.689 318.812 557.921 318.272C562.991 318.051 568.071 318.092 573.145 318.079L573.406 324.984C546.879 325.795 520.345 326.349 493.807 326.646C490.374 326.807 483.75 327.903 480.767 326.271C480.069 325.889 480.139 325.478 479.921 324.775C480.437 322.904 481.765 321.893 483.133 320.587Z"/><path fill="#FEFEFE" d="M988.638 673.511C983.203 643.612 980.874 612.837 977.189 582.66C976.552 577.447 975.361 572.336 974.669 567.137L969.336 524.32C963.513 477.58 958.052 430.754 950.452 384.252C948.442 371.407 946.188 358.601 943.693 345.841C942.249 338.248 939.704 329.364 939.547 321.641C939.526 320.591 939.928 319.632 940.369 318.7C940.462 318.78 940.563 318.852 940.649 318.94C943.03 321.377 944.364 327.466 945.416 330.845C949.744 344.746 952.455 358.604 955.273 372.856C959.054 391.185 962.304 409.619 965.018 428.136C972.966 482.703 980.246 537.366 986.856 592.111C989.137 609.918 991.262 627.744 993.232 645.588C994.101 653.266 995.743 661.351 995.773 669.049C994.636 670.01 993.362 669.948 991.915 670.185C990.748 671.195 989.705 672.393 988.638 673.511Z"/><path fill="#FEFEFE" d="M757.653 324.577C803.73 324.064 849.803 323.297 895.871 322.275C903.025 322.05 910.182 321.94 917.34 321.945C913.141 332.417 908.443 342.552 904.736 353.228C884.854 410.495 874.176 470.71 862.689 530.056C853.675 533.172 845.4 540.195 839.127 547.218C823.657 564.538 808.531 594.809 797.241 615.586C789.684 616.039 781.998 615.648 774.428 615.527C761.218 615.254 748.006 615.106 734.793 615.082C673.555 615.189 612.436 614.058 551.197 615.729C540.53 551.623 528.872 487.686 516.226 423.941C512.62 405.369 508.72 386.855 504.527 368.406C501.798 356.041 499.2 343.672 495.727 331.488C508.389 330.401 521.225 330.643 533.924 330.421C547.166 330.19 560.409 329.578 573.654 329.605C574.282 330.821 574.892 332.1 575.631 333.251C577.41 336.021 579.984 336.457 582.925 337.178C584.256 350.855 583.441 365.104 583.111 378.828C582.611 398.69 582.239 418.554 581.994 438.42C581.792 466.931 584.558 495.616 585.664 524.124C586.284 532.03 586.588 539.957 586.576 547.887C582.759 549.819 578.558 552.361 575.276 555.094C575.383 558.89 574.61 566.018 576.624 569.248C577.504 570.659 578.992 571.081 580.546 571.406C584.53 572.24 588.93 572.015 592.999 572.142C604.646 572.507 617.376 572.038 628.84 574.002C629.003 574.03 629.165 574.061 629.327 574.091C636.801 570.202 657.824 562.91 662.417 558.993C662.222 506.286 662.408 453.579 662.975 400.875C663.088 378.793 663.73 356.744 663.453 334.656C664.794 334.352 666.631 334.107 667.771 333.306C669.82 331.866 670.024 329.913 670.563 327.61C692.978 326.627 715.419 326.334 737.843 325.4C738.639 326.87 739.544 329.056 740.725 330.228C742.508 331.997 744.453 331.922 746.808 332.104C746.515 343.016 745.882 353.919 745.637 364.831C744.883 399.894 744.534 434.964 744.588 470.034C744.512 496.236 745.364 522.438 744.774 548.64C740.909 548.513 737.028 548.53 733.161 548.513L706.713 548.5C700.24 548.512 693 548.17 686.637 549.307C679.865 550.517 666.377 556.848 661.466 561.716C662.598 565.701 662.104 570.969 663.777 574.494C664.157 575.296 664.36 575.397 665.233 575.632C669.872 576.877 721.904 577.109 727.134 575.865C733.541 574.342 744.838 567.417 750.799 563.86C749.766 518.831 749.362 473.79 749.587 428.75C749.817 396.566 750.716 364.385 750.744 332.2L751.646 331.744C755.332 329.847 756.376 328.569 757.653 324.577Z"/><path fill="#FEFEFE" d="M586.7 337.442C587.669 337.237 588.654 337.029 589.56 336.62C591.84 335.592 592.566 334.106 593.34 331.854C593.082 330.949 592.952 330.348 592.918 329.392C597.849 327.955 627.281 328.376 634.788 328.258C640.407 328.096 646.027 327.974 651.647 327.895C653.907 331.699 655.128 333.523 659.507 334.79C659.614 366.203 657.908 397.684 657.821 429.124C657.841 453.668 657.61 478.212 657.128 502.751C657.001 515.638 657.549 528.639 656.619 541.494C641.104 541.028 625.361 541.942 609.838 542.377C603.844 542.41 597.997 542.943 592.062 543.727C590.127 530.378 590.382 515.988 589.734 502.467C588.477 476.272 587.2 450.25 587.252 424.014C587.309 395.228 588.796 366.165 586.7 337.442Z"/><path fill="#FEFEFE" d="M408.624 538.052C408.861 532.103 412.576 522.664 414.09 516.629C419.587 494.725 425.895 473.3 432.127 451.614C442.008 417.236 452.158 383.234 466.473 350.386C469.481 343.483 472.01 335.846 475.876 329.408C475.91 330.438 475.641 331.386 475.302 332.353C473.331 337.979 470.752 343.499 468.581 349.063C464.969 358.568 461.599 368.165 458.476 377.843C447.302 412.934 436.695 448.204 426.661 483.638C422.017 500.133 417.019 516.466 413.135 533.166C411.268 534.644 409.988 536.104 408.624 538.052Z"/><path fill="#FEFEFE" d="M418.709 531.494C426.149 510.785 431.769 485.669 437.751 464.17C445.601 435.954 454.583 407.911 463.494 380.008C467.917 366.159 474.158 344.086 481.007 331.709C483.361 333.46 484.108 338.943 484.73 341.699C486.888 351.271 488.317 361.009 490.074 370.659L503.114 444.968C505.355 457.438 508.061 469.828 510.355 482.293C514.273 503.586 517.512 524.986 521.231 546.312C525.256 569.393 529.728 592.336 533.384 615.491C507.549 615.679 481.597 617.513 455.811 619.088C449.981 619.708 444.051 619.881 438.196 620.196C439.04 616.87 439.469 613.741 439.55 610.317C441.642 608.868 444.097 607.211 445.092 604.747C445.496 603.748 448.93 567.99 448.604 566.776C447.854 563.988 444.749 562.025 443.544 559.309C441.397 554.469 440.685 548.843 438.833 543.799C440.059 543.242 441.303 542.759 442.306 541.834C443.017 541.179 443.238 540.2 443.213 539.255C443.161 537.275 442.484 535.547 440.957 534.248C435.945 529.987 424.844 530.864 418.709 531.494Z"/><path fill="#FEFEFE" d="M550.3 660.299C549.453 660.54 548.6 660.742 547.744 660.948C545.868 656.308 544.762 641.874 543.769 635.769L532.011 564.501C523.971 518.289 515.589 472.138 506.866 426.05C500.909 394.837 494.218 363.738 489.071 332.381C489.255 332.522 489.408 332.633 489.569 332.833C491.582 335.34 496.228 360.254 497.421 365.832C516.165 453.422 532.491 541.513 546.38 630.003C547.473 637.052 551.131 654.071 550.3 660.299Z"/><path fill="#FEFEFE" d="M887.31 527.683C894.457 486.793 902.317 445.585 912.459 405.329C918.693 381.319 925.65 357.503 933.322 333.913C939.137 340.356 959.209 505.18 963.652 531.205C947.867 531.898 935.122 538.501 917.723 538.469C906.455 537.42 897.915 530.832 887.31 527.683Z"/><path fill="#FEFEFE" d="M380.212 454.817C380.517 454.209 380.816 453.568 381.027 452.922C381.408 451.754 381.475 450.489 380.816 449.394C378.985 446.351 372.593 447.914 369.489 447.298L369.131 446.557C370.645 443.77 372.45 442.489 375.207 440.973C376.396 440.991 377.494 441.072 378.626 441.473C381.108 442.353 383.183 444.672 384.235 447.033C385.317 449.465 385.318 452.029 384.231 454.453C383.584 455.895 382.878 456.69 381.432 457.297C380.177 456.671 380.155 456.501 379.493 455.244L380.212 454.817Z"/><path fill="#FEFEFE" d="M286.411 464.785C283.906 462.988 281.623 461.193 280.258 458.349C278.982 455.692 278.633 452.724 279.791 449.959C281.422 446.067 284.878 444.51 288.568 443.14C288.996 443.1 289.425 443.067 289.854 443.04C296.067 442.668 299.721 445.461 304.149 449.35C302.805 450.359 301.348 451.244 299.939 452.162C296.133 450.697 289.994 448.31 286.036 450.107C284.755 450.688 284.62 451.23 284.173 452.439C284.371 454.19 284.806 455.223 285.684 456.743C287.11 458.055 289.141 458.648 290.172 460.317C289.631 462.166 287.784 463.439 286.411 464.785Z"/><path fill="#FEFEFE" d="M278.709 507.487C278.958 492.808 281.677 478.851 290.879 467.015C300.658 454.438 312.963 450 328.285 448.185C341.306 446.677 358.045 449.405 369.476 456.019C377.551 460.691 384.144 468.322 386.446 477.466C388.075 483.932 389.135 501.77 385.879 507.235C385.052 506.848 384.403 506.721 383.498 506.621C381.779 508.677 383.796 514.607 383.677 517.502C383.214 528.69 378.926 539.439 367.695 543.298C365.285 544.126 361.715 544.698 359.817 546.389L359.783 547.648C360.428 548.586 360.591 548.923 361.723 549.298C364.875 550.34 370.3 548.35 373.224 546.851C381.617 542.55 385.911 532.609 387.429 523.734C387.958 520.639 387.908 517.345 388.886 514.359L389.44 514.394C389.696 514.929 389.933 515.427 390.082 516.004C392.099 523.815 384.985 535.721 380.935 541.995C373.65 551.562 366.998 562.8 357.565 570.359L357.381 570.003C357.278 569.807 357.169 569.612 357.067 569.415C352.757 561.122 343.167 555.862 335.585 550.835C320.789 541.028 287.852 522.268 278.709 507.487ZM382.508 491.213C380.771 491.276 379.416 492.738 379.483 494.474C379.551 496.211 381.015 497.563 382.751 497.492C384.482 497.421 385.829 495.962 385.762 494.231C385.695 492.5 384.239 491.15 382.508 491.213ZM345.96 493.76C344.409 494.742 343.92 496.778 344.855 498.357C345.791 499.936 347.812 500.485 349.417 499.597C350.499 498.998 351.17 497.859 351.168 496.623C351.166 495.387 350.492 494.249 349.409 493.654C348.326 493.058 347.004 493.099 345.96 493.76ZM367.63 497.071C363.373 499.156 359.557 502.306 358.055 506.986C357.412 508.991 357.408 511.312 358.499 513.165C359.808 515.39 362.019 516.553 364.483 517.061C365.343 517.239 366.217 517.351 367.088 517.46C370.64 516.682 373.224 515.52 375.23 512.359C377.048 509.516 377.591 506.042 376.726 502.78C376.106 500.523 374.655 498.723 372.585 497.624C370.931 496.747 369.434 496.85 367.63 497.071ZM345.11 508.048C341.64 509.054 334.929 510.452 332.92 513.647L333.024 514.764C334.219 515.498 334.934 515.473 336.291 515.5C340.146 514.315 345.394 513.212 348.212 510.106L348.399 508.934C347.268 508.096 346.557 508.011 345.11 508.048ZM372.356 521.194C371.446 523.156 370.783 524.666 371.666 526.808C372.553 528.962 374.521 530.061 376.595 530.836C377.65 528.89 378.095 527.381 377.479 525.191C377.117 523.904 376.165 522.609 375.035 521.887C374.185 521.344 373.328 521.298 372.356 521.194Z"/><path fill="#FEFEFE" d="M77.1159 459.105L89.6251 458.742C94.2539 458.651 98.9006 458.792 103.53 458.847C103.136 495.666 99.27 532.482 98.9068 569.31L90.375 569.442L78.7742 569.671C79.3411 553.492 78.1489 536.877 77.8677 520.666C77.5119 500.152 77.8905 479.606 77.1159 459.105Z"/><path fill="#FEFEFE" d="M104.502 569.002C104.481 557.678 105.223 546.321 105.74 535.009C106.901 509.614 108.47 484.143 108.624 458.721C113.224 458.557 117.848 458.626 122.451 458.605C122.5 473.297 122.574 563.938 120.134 568.299L118.625 568.49C113.914 568.58 109.206 568.75 104.502 569.002Z"/><path fill="#FEFEFE" d="M53.0748 570.005C52.9583 557.897 48.4692 463.136 51.0004 459.483L52.8085 459.248C59.249 459.196 65.6899 459.207 72.1301 459.282C72.4069 483.961 72.5393 508.641 72.5273 533.321C72.5888 541.161 72.7051 549.001 72.8762 556.84C72.9518 559.972 73.3393 563.166 73.2527 566.288C73.2187 567.514 73.1536 568.447 72.4321 569.479L70.7767 569.738C64.8925 569.982 58.9655 569.93 53.0748 570.005Z"/><path fill="#FEFEFE" d="M0 459.665C6.15406 459.75 12.309 459.747 18.463 459.655C19.0705 496.601 18.5844 533.556 17.0052 570.473C11.3395 570.534 5.66546 570.659 0 570.639L0 459.665Z"/><path fill="#FEFEFE" d="M22.179 570.496C22.9299 562.304 22.8018 553.829 23.0705 545.594C24.0046 516.961 23.4872 488.248 23.4795 459.603C30.8023 459.484 38.1257 459.411 45.4494 459.382C45.4527 484.959 45.8282 510.534 46.576 536.1L47.171 557.693C47.3017 561.668 47.8794 565.963 47.2613 569.885L46.4511 570.418C38.3662 570.248 30.2652 570.421 22.179 570.496Z"/><path d="M382.751 497.492C381.015 497.563 379.551 496.211 379.483 494.474C379.416 492.738 380.771 491.276 382.508 491.213C384.239 491.15 385.695 492.5 385.762 494.231C385.829 495.962 384.482 497.421 382.751 497.492Z"/><path d="M349.417 499.597C347.812 500.485 345.791 499.936 344.855 498.357C343.92 496.778 344.409 494.742 345.96 493.76C347.004 493.099 348.326 493.058 349.409 493.654C350.492 494.249 351.166 495.387 351.168 496.623C351.17 497.859 350.499 498.998 349.417 499.597Z"/><path fill="#FEFEFE" d="M127.433 519.452C127.264 511.591 127.459 503.691 127.492 495.826C131.958 500.296 139.766 514.519 144.116 520.822C157.008 539.504 171.019 557.442 183.715 576.263C182.578 577.913 181.575 579.508 180.719 581.321C180.667 582.543 180.594 583.383 180.145 584.542C174.296 579.267 169.269 572.482 164.185 566.441C151.342 551.181 138.956 535.742 127.433 519.452Z"/><path d="M367.088 517.46C366.217 517.351 365.343 517.239 364.483 517.061C362.019 516.553 359.808 515.39 358.499 513.165C357.408 511.312 357.412 508.991 358.055 506.986C359.557 502.306 363.373 499.156 367.63 497.071C369.434 496.85 370.931 496.747 372.585 497.624C374.655 498.723 376.106 500.523 376.726 502.78C377.591 506.042 377.048 509.516 375.23 512.359C373.224 515.52 370.64 516.682 367.088 517.46Z"/><path fill="#FEFEFE" d="M335.557 559.546C322.358 552.393 277.42 535 269.977 526.586C266.57 522.736 264.964 513.929 265.509 508.87C266.071 503.65 269.334 500.543 273.165 497.39C273.623 498.887 273.691 500.691 273.865 502.259C275.981 521.376 314.224 543.107 329.238 553.516C333.258 556.304 337.764 559.031 341.223 562.505L335.557 559.546Z"/><path d="M336.291 515.5C334.934 515.473 334.219 515.498 333.024 514.764L332.92 513.647C334.929 510.452 341.64 509.054 345.11 508.048C346.557 508.011 347.268 508.096 348.399 508.934L348.212 510.106C345.394 513.212 340.146 514.315 336.291 515.5Z"/><path fill="#FEFEFE" d="M274.38 538.387C271.023 537.941 267.614 537.844 264.252 537.402C260.82 536.952 256.627 535.655 254.554 532.658C253.516 531.158 253.254 529.321 253.641 527.563C254.616 523.142 258.381 520.69 261.893 518.363C264.506 520.133 266.059 525.781 268.152 528.407C271.79 532.97 277.211 536.292 282.147 539.231L274.38 538.387Z"/><path d="M376.595 530.836C374.521 530.061 372.553 528.962 371.666 526.808C370.783 524.666 371.446 523.156 372.356 521.194C373.328 521.298 374.185 521.344 375.035 521.887C376.165 522.609 377.117 523.904 377.479 525.191C378.095 527.381 377.65 528.89 376.595 530.836Z"/><path fill="#FEFEFE" d="M126.561 547.437C126.891 540.247 127.248 533.103 127.107 525.902C130.102 529.019 132.806 533.555 135.444 537.081C142.558 546.592 149.511 556.291 156.907 565.583C164.052 574.559 173.907 582.926 180.068 592.396C181.541 594.659 181.464 596.863 181.571 599.47L166.714 599.631C154.575 581.302 139.655 565.017 126.561 547.437Z"/><path fill="#FEFEFE" d="M373.636 561.988L373.321 561.725C374.573 558.698 377.782 555.601 379.801 552.943C385.568 545.349 390.337 537.213 392.868 527.972L393.166 528.351C393.71 532.201 392.985 537.001 392.13 540.803C389.777 551.27 382.106 556.535 373.636 561.988Z"/><path fill="#FEFEFE" d="M869.9 631.686C875.336 599.144 879.868 566.523 886.063 534.094C889.917 535.288 893.506 537.018 897.176 538.673C908.726 543.882 915.162 545.127 927.881 544.484C906.01 563.188 896.876 576.113 884.035 601.916C878.862 611.534 875.072 622.001 869.9 631.686Z"/><path fill="#FEFEFE" d="M431.125 540.479C426.8 540.603 418.307 541.797 414.683 539.527L414.668 538.669C417.007 536.35 419.945 536.178 423.051 535.655C425.262 535.438 427.487 535.41 429.702 535.57C432.132 535.753 436.035 536.379 437.714 538.299L437.423 539.143C435.574 540.282 433.244 540.256 431.125 540.479Z"/><path fill="#FEFEFE" d="M743.622 741.57C742.06 741.497 740.334 741.654 738.999 740.745C737.08 736.905 738.012 724.504 738.946 719.862C742.092 704.231 754.433 692.876 763.481 680.47C768.524 673.557 773.139 666.218 777.957 659.136C785.469 648.093 793.071 636.561 799.729 624.988C813.38 601.262 825.508 576.694 841.914 554.647C847.18 547.57 853.712 542.429 861.009 537.581C861.463 543.189 858.621 550.774 857.528 556.371C855.385 567.354 853.375 578.453 851.571 589.498C846.411 622.095 841.745 654.768 837.574 687.506C822.148 705.826 809.199 721.028 805.915 745.668C795.804 744.383 785.421 744.311 775.242 743.854C764.649 743.378 754.179 742.554 743.622 741.57Z"/><path fill="#FEFEFE" d="M859.541 704.987C860.602 698.232 861.754 691.497 862.567 684.706C863.428 677.507 863.896 669.909 865.534 662.84C867.441 654.613 870.924 646.589 874.082 638.771C882.923 616.891 892.636 593.6 906.646 574.479C920.539 555.517 936.873 541.358 960.735 537.656C962.109 537.436 963.16 537.368 964.543 537.505C965.374 538.726 969.188 571.046 970.159 576.048C963.84 578.714 958.067 584.028 953.245 588.804C946.976 595.013 941.387 602 935.678 608.718C924.812 621.504 914.248 634.441 903.733 647.511C890.524 663.928 876.19 680.236 864.513 697.792C862.986 700.268 861.221 702.613 859.541 704.987Z"/><path fill="#FEFEFE" d="M306.361 601.245C303.907 606.817 297.646 623.673 299.185 629.484C299.577 630.966 299.947 631.144 301.162 631.932L301.92 632.418C296.797 635.252 273.934 630.951 267.753 629.45C254.801 626.305 238.432 620.601 231.254 608.397C226.388 600.126 226.176 589.099 228.606 580.023C232.283 566.287 246.2 547.842 258.447 540.865C290.501 544.097 304.696 549.15 332.937 563.609C332.902 568.905 333.338 574.226 333.846 579.496C334.431 585.566 336.88 618.438 340.15 621.125L341.172 621C341.55 620.623 341.889 620.326 342.158 619.842C344.152 616.249 337.767 571.987 336.099 565.239C342.74 567.806 349.001 571.255 355.265 574.611C357.114 580.582 358.02 587.26 360.301 593.023C360.848 594.405 361.104 594.808 362.445 595.439C363.801 595.267 363.833 595.338 364.732 594.325C366.147 588.765 362.17 579.404 360.599 573.818C365.632 570.673 370.924 567.942 376.143 565.121C377.627 572.467 378.939 579.846 380.078 587.253C380.953 593.027 382.676 614.67 384.665 618.245C385.311 619.405 385.804 619.487 386.977 619.774L387.939 619.056C389.87 613.731 382.271 570.494 380.662 563.233L385.823 560.46C393.6 581.355 394.022 615.422 405.693 632.869C377.262 635.648 349.104 639.251 320.774 642.816C315.359 643.866 309.508 644.11 304.004 644.712C282.321 647.082 258.439 649.831 237.238 643.438C234.283 635.981 233.456 628.759 232.954 620.832C253.828 636.528 285.957 640.435 311.39 636.87C316.833 636.107 321.826 634.108 325.108 629.475C327.395 626.247 328.314 622.657 327.491 618.762C324.215 603.263 301.362 594.617 289.412 586.51C290.438 583.694 291.548 580.447 291.896 577.464C292.061 576.047 292.128 574.793 291.185 573.679L290.174 574.137C287.623 577.292 286.753 580.773 285.666 584.599C283.148 583.107 280.426 579.845 277.301 580.089C276.427 581.22 276.63 581.524 276.677 582.976C279.597 588.977 299.615 598.022 306.361 601.245Z"/><path fill="#FEFEFE" d="M415.243 556.664C414.81 556.787 414.366 556.747 413.918 556.751C413.069 554.294 414.565 548.907 414.975 546.217L416.939 546.843C417.275 547.334 417.308 547.318 417.512 547.983C418.287 550.511 416.481 554.495 415.243 556.664Z"/><path fill="#FEFEFE" d="M594.165 548.177C610.068 546.922 626.324 547.462 642.285 547.261C643.567 547.184 644.782 547.007 646.012 547.461C642.401 550.663 636.949 552.925 632.225 553.821C626.971 554.817 621.189 554.221 615.847 554.149C607.857 553.983 599.865 553.956 591.875 554.066C590.639 554.077 589.956 554.343 588.958 553.54C589.417 551.297 592.426 549.502 594.165 548.177Z"/><path fill="#FEFEFE" d="M432.411 554.778C431.751 554.848 431.275 554.789 430.624 554.698C429.622 551.855 427.796 550.376 425.277 548.886C427.164 549.05 430.147 549.911 431.505 551.31C432.693 552.534 432.47 553.189 432.411 554.778Z"/><path fill="#FEFEFE" d="M635.238 564.408C635.19 562.957 635.272 561.997 635.683 560.607C639.323 556.169 650.851 551.827 656.399 548.955C656.967 551.098 656.563 553.609 656.43 555.812C649.52 558.973 642.331 561.679 635.238 564.408Z"/><path fill="#FEFEFE" d="M126.385 567.464L126.417 554.288C131.957 560.593 136.837 567.626 141.997 574.245C148.479 582.559 155.205 590.644 161.084 599.409L147.704 599.524C141.413 588.64 133.89 577.531 126.385 567.464Z"/><path fill="#FEFEFE" d="M413.905 631.544C410.986 627.824 408.567 623.929 406.956 619.46C402.329 606.626 400.925 592.235 397.891 578.93C396.453 572.628 393.089 563.236 392.344 557.483C392.165 556.1 393.272 555.432 394.13 554.514C396.333 554.207 398.93 554.067 401.022 554.954C411.461 559.38 402.005 591.13 407.192 602C412.996 614.166 424.872 608.287 431.935 611.54C433.284 612.162 433.392 612.445 433.988 613.72C433.804 617.913 429.173 622.113 426.394 624.972C422.532 628.07 418.475 629.739 413.905 631.544Z"/><path fill="#FEFEFE" d="M677.029 559.539C682.473 556.76 687.168 555.303 693.262 554.69C699.635 554.224 706.21 554.495 712.608 554.479C721.109 554.456 729.674 554.223 738.161 554.702C733.161 556.35 729.394 559.56 723.933 559.484C708.298 559.364 692.663 559.383 677.029 559.539Z"/><path fill="#FEFEFE" d="M729.54 568.562L728.957 568.05L728.878 566.673C730.217 563.322 741.282 559.584 744.842 558.014C745.594 558.8 745.392 558.951 745.444 559.99C743.221 563.137 733.246 566.724 729.54 568.562Z"/><path fill="#FEFEFE" d="M431.625 563.518C427.371 563.673 420.086 564.41 416.498 561.868L416.673 561.04C420.153 558.639 423.472 560.51 427.366 559.506C427.527 559.465 427.686 559.42 427.846 559.377C429.368 560.406 432.476 560.862 434.288 560.483C435.745 560.178 437.064 560.081 438.552 560.031C440.02 560.899 440.194 561.689 440.958 563.185L431.625 563.518Z"/><path fill="#FEFEFE" d="M580.956 567.016C580.864 564.291 580.9 561.549 580.884 558.822C596.417 559.84 613.423 559.281 629.113 559.552C628.939 562.257 628.616 564.959 628.348 567.656C622.419 568.39 616.088 567.943 610.113 567.817C600.392 567.614 590.673 567.347 580.956 567.016Z"/><path fill="#FEFEFE" d="M424.772 593.231C424.048 593.258 423.323 593.286 422.603 593.359C420.716 593.55 417.393 594.5 416.272 596.149C415.87 596.739 416.121 597.073 416.253 597.711L418.619 599.258C418.807 601.407 419.027 603.405 417.623 605.14L416.518 605.104C416.027 604.607 415.967 604.596 415.555 603.895C412.525 598.744 411.378 569.937 412.552 563.778C418.07 567.448 422.686 567 428.982 567.167C426.609 568.037 423.773 568.554 422.008 570.43C420.866 575.032 416.204 573.832 414.657 577.762C415.222 579.759 417.075 579.354 417.75 580.72C418.609 582.459 415.933 587.952 418.263 591.248C420.384 594.248 424.118 591.92 426.961 592.555L424.772 593.231Z"/><path fill="#FEFEFE" d="M707.625 571.127L684.258 570.822C679.481 570.78 674.324 571.153 669.637 570.327L669.219 569.675C669.131 568.381 668.972 567.187 669.372 565.927C672.953 563.769 681.274 564.766 685.481 564.767C693.699 564.466 715.619 563.694 722.607 564.89C723.128 566.894 723.351 568.83 723.55 570.888C718.244 571.082 712.934 571.161 707.625 571.127Z"/><path fill="#FEFEFE" d="M444.472 571.77C443.717 571.991 443.161 572.07 442.386 571.863C439.446 571.077 438.266 569.441 436.859 566.879C439.141 566.788 441.494 566.371 443.435 567.774C444.276 569.117 444.339 570.241 444.472 571.77Z"/><path fill="#FEFEFE" d="M107.423 599.632C107.501 591.43 107.023 582.681 108.128 574.573C109.261 573.721 110.077 573.866 111.47 573.764L120.524 573.499C120.449 581.723 121.557 590.981 120.227 599.072C119.187 600.006 118.609 599.734 117.271 599.755L107.423 599.632Z"/><path fill="#FEFEFE" d="M0 575.872C34.5115 576.112 68.8805 574.767 103.372 574.163C102.712 582.56 102.585 591.043 102.489 599.465C68.3326 599.9 34.1602 599.355 0 599.605L0 575.872Z"/><path fill="#FEFEFE" d="M125.515 599.828L125.606 574.844C128.539 577.264 139.044 594.707 142.249 599.498L125.515 599.828Z"/><path fill="#FEFEFE" d="M431.101 579.784C434.599 577.852 438.287 576.489 442.01 575.068C443.251 576.92 441.661 592.653 441.468 596.052C438.196 593.005 435.36 593.337 431.859 591.367L433.137 590.755C434.928 590.196 436.98 589.632 438.474 588.451C439.749 587.443 440.747 586.013 440.827 584.357C440.874 583.389 440.292 582.296 439.619 581.61C437.327 579.274 434.099 579.772 431.101 579.784Z"/><path fill="#FEFEFE" d="M431.854 586.321C428.887 586.488 424.736 587.975 422.203 586.177C422.036 584.602 422.348 584.137 422.963 582.712C424.991 584.233 427.048 584.972 429.545 585.36L432.304 585.799L431.854 586.321Z"/><path fill="#FEFEFE" d="M963.858 641.724C962.73 631.853 960.966 621.993 959.477 612.165C958.666 606.82 957.382 601.064 957.654 595.643C957.83 592.121 959.84 590.607 962.338 588.457C963.222 589.54 972.594 636.662 973.509 641.622C972.029 642.397 970.016 642.049 968.375 641.967L963.858 641.724Z"/><path fill="#FEFEFE" d="M430.62 605.32L429.968 604.829C434.899 602.6 437.414 600.602 440.717 596.343C441.004 596.622 441.246 597.146 441.455 597.493C441.536 599.246 441.858 601.547 440.634 602.99C438.794 605.159 433.344 604.986 430.62 605.32Z"/><path fill="#FEFEFE" d="M423.029 600.086L422.219 599.177L422.75 598.503C426.321 597.511 430.918 597.889 434.645 597.744L435.268 597.727L435.098 598.445C431.418 600.382 427.068 600.172 423.029 600.086Z"/><path fill="#FEFEFE" d="M916.506 641.078C923.322 632.781 930.633 624.888 937.456 616.597C942.12 610.929 946.286 604.757 951.278 599.381C951.914 600.08 952.179 600.808 952.378 601.722C953.45 606.654 953.755 612.044 954.388 617.061C955.332 625.154 956.653 633.199 958.347 641.169C947.195 640.597 936.226 641.59 925.125 641.21L916.506 641.078Z"/><path fill="#FEFEFE" d="M305.155 631.588C306.977 623.006 308.7 614.478 311.725 606.217C315.203 608.795 318.632 611.946 320.714 615.781C322.172 618.465 323.001 621.621 322.002 624.612C320.957 627.742 318.555 629.311 315.713 630.647C312.309 631.317 308.623 631.342 305.155 631.588Z"/><path fill="#FEFEFE" d="M238.666 649.339C272.586 657.355 314.354 647.81 348.65 643.239C367.821 640.684 387.067 638.936 406.276 636.703L407.975 636.526C411.673 638.194 414.086 640.212 416.79 643.143C404.825 642.457 392.469 644.527 380.589 645.948C352.882 649.263 325.557 653.766 298.092 658.709C283.84 661.273 260.718 666.602 246.861 664.706C241.581 661.625 240.379 654.799 238.666 649.339Z"/><path fill="#FEFEFE" d="M362.174 653.644C377.64 650.788 393.535 648.978 409.208 647.711C410.57 647.524 411.877 647.527 413.177 648.024C421.633 651.258 429.135 662.236 432.812 670.157C434.766 674.368 436.029 678.766 436.34 683.407C437.414 699.42 429.489 724.525 423.893 739.617C412.466 740.888 400.892 741.044 389.495 739.402C386.277 739.094 383.135 738.174 380.109 737.076C376.897 729.04 374.928 718.03 374.861 709.35C374.827 704.889 375.475 700.405 375.656 695.945C376.092 685.212 374.296 673.63 369.277 664.037C367.332 660.318 364.695 656.985 362.174 653.644Z"/><path fill="#FEFEFE" d="M251.997 669.661C268.102 669.916 283.872 666.657 299.658 663.915C315.977 661.08 332.344 658.216 348.708 655.667C349.627 655.521 350.854 655.24 351.745 655.593C358.612 658.318 364.127 669.492 365.995 676.273C367.56 681.897 368.248 687.729 368.035 693.564C367.516 707.649 360.538 735.19 353.507 747.528C351.675 748.103 349.832 748.669 347.972 749.145C334.067 752.707 314.788 750.022 302.447 742.659C301.351 735.838 301.166 728.756 300.707 721.859C300.375 715.827 300.466 707.392 297.32 702.018C294.194 696.679 280.578 693.158 275.044 689.972C265.97 684.747 257.928 678.314 251.997 669.661Z"/><path fill="#FEFEFE" d="M236.907 680.36C234.243 679.875 229.574 679.568 227.802 677.406C228.883 674.433 240.789 673.093 243.924 671.557C244.764 670.13 245.307 669.452 246.757 668.63L247.623 669.178C247.595 669.324 247.549 669.467 247.54 669.615C247.314 673.067 251.906 679.355 253.848 682.18C248.176 681.836 242.522 681.229 236.907 680.36Z"/><path fill="#FEFEFE" d="M275.981 697.339C269.084 698.055 232.861 696.557 228.149 692.672C225.652 690.614 225.602 685.531 225.342 682.541C231.053 684.37 236.853 685.275 242.832 685.678C248.366 686.051 255.077 685.641 260.296 687.534C264.382 689.016 270.119 694.724 275.981 697.339Z"/><path fill="#FEFEFE" d="M813.624 751.755C813.456 750.83 813.305 749.901 813.227 748.964C811.713 730.817 824.452 714.158 835.182 700.866C836.199 704.081 831.2 734.827 830.296 741.317C830.132 741.388 829.967 741.456 829.804 741.531C829.534 741.655 829.268 741.787 828.998 741.913C823.451 744.502 819.061 748.926 813.624 751.755Z"/><path fill="#FEFEFE" d="M375.308 751.535C376.023 748.458 376.782 745.601 378.453 742.891C388.455 745.938 397.969 746.86 408.422 746.435C411.61 746.305 414.831 745.689 417.999 745.736L418.454 746.243C416.73 747.389 414.128 747.729 412.113 748.252C406.626 749.821 401.105 751.295 395.366 751.449C388.658 751.628 382.001 750.674 375.308 751.535Z"/><path fill="#FEFEFE" d="M807.087 753.399C798.352 754.58 747.855 752.832 739.603 750.979C738.672 749.596 738.906 747.863 738.893 746.257C753.451 751.096 780.812 750.502 796.995 751.187C800.47 751.334 804.643 750.737 807.087 753.399Z"/><path fill="#FEFEFE" d="M338.335 758.093C335.247 759.767 332.374 761.618 328.746 761.622C321.6 761.63 309.226 759.153 304.111 753.938C303.531 752.208 303.889 751.788 304.438 750.093C317.137 755.212 330.171 756.496 343.72 755.906L338.335 758.093Z"/><path fill="#FEFEFE" d="M414.882 767.503C405.438 765.113 392.245 758.333 383.228 757.389C380.378 757.09 377.24 758.078 374.297 758.012L373.767 757.402L374.25 755.017C384.815 755.67 395.253 755.656 405.835 755.394C408.879 757.547 412.489 759.857 414.675 762.922C415.582 764.194 416.099 765.435 415.834 767.005L414.882 767.503Z"/><path fill="#FEFEFE" d="M340.516 774.675C340.226 774.721 339.94 774.809 339.647 774.814C337.563 774.853 333.579 773.092 331.47 772.519C322.703 770.139 309.762 768.872 302.889 762.54C301.271 761.05 300.956 759.936 300.838 757.772C302.657 758.623 304.253 760.177 306.091 761.14C315.672 766.16 324.199 767.745 334.926 767.017C337.276 769.318 338.884 771.858 340.516 774.675Z"/><path fill="#9B9B9B" d="M344.115 760.753L343.42 761.101L342.822 760.815C344.373 759.516 346.188 758.774 348.006 757.923L349.7 758.281C348.88 759.465 345.558 760.217 344.115 760.753Z"/><path d="M828.017 766.706C826.728 766.357 825.665 766.031 824.626 765.155C823.38 764.105 822.999 763.078 822.827 761.507C823.59 760.08 823.845 759.938 825.248 759.101C826.581 759.22 828.039 759.305 829.101 760.235C830.015 761.034 830.465 761.972 830.368 763.201C830.247 764.739 829.072 765.746 828.017 766.706Z"/><path fill="#FEFEFE" d="M427.199 774.326C414.874 775.346 402.739 770.225 391.267 766.355C386.224 764.653 381.069 763.124 376.113 761.186C388.963 761.41 403.242 768.621 415.644 772.151C419.435 773.23 423.301 773.788 427.199 774.326Z"/><path fill="#FEFEFE" d="M428.784 769.969C426.215 769.866 423.666 770.066 421.473 768.573C420.664 767.29 420.612 767.273 420.785 765.775C422.364 763.449 424.771 761.983 427.419 761.136L433.017 760.879C433.971 762.572 435.486 764.694 435.514 766.674C435.524 767.449 435.374 768.115 434.854 768.689C433.374 770.32 430.815 769.97 428.784 769.969Z"/><path fill="#FEFEFE" d="M354.919 782.253C341.053 784.734 323.834 779.206 310.91 774.066C306.434 772.286 302.545 770.463 300.566 765.836C303.766 767.678 306.729 769.494 310.15 770.922C315.427 773.126 320.904 774.293 326.395 775.79C336.028 778.416 345.012 780.86 354.919 782.253Z"/><path fill="#FEFEFE" d="M344.459 775.464C349.058 772.194 352.93 769.754 358.362 768.123C361.131 767.84 362.781 767.782 365.158 769.412C366.655 770.438 367.415 771.378 367.732 773.198C367.412 774.109 367.363 774.589 366.648 775.281C363.845 777.99 358.103 777.52 354.478 777.577C350.99 777.458 347.755 776.515 344.459 775.464Z"/></svg>