<?xml version="1.0" encoding="utf-8" ?><svg xmlns="http://www.w3.org/2000/svg" xmlns:xlink="http://www.w3.org/1999/xlink" width="1024" height="1024" viewBox="0 0 1024 1024"><path fill="white" d="M0 0L1024 0L1024 1024L0 1024L0 0ZM836.262 69.2179C788.546 74.2716 740.565 77.5055 692.721 81.2068L382.478 103.157L271.593 110.566L241.253 112.638C235.628 113.001 229.822 113.1 224.235 113.8C220.385 114.282 217.685 115.5 215.255 118.604C213.984 120.227 212.95 122.231 212.711 124.296C211.922 131.121 212.511 138.597 212.545 145.489L212.769 187.411L213.247 330.956C201.281 328.527 190.778 327.72 180.209 334.829C172.343 340.12 166.522 348.704 164.823 358.063C163.167 367.189 165.005 376.45 170.327 384.068C173.403 388.472 177.19 391.581 181.685 394.447C169.176 426.897 169.943 456.572 175.12 490.359C167.887 497.017 159.563 503.687 153.727 511.632C130.514 543.237 108.552 613.68 106.91 652.935C106.421 664.625 106.887 677.907 115.211 687.059C121.327 693.782 129.43 697.334 137.881 700.159L137.981 701.099C138.897 710.145 138.566 719.429 138.927 728.53C139.594 746.715 140.653 764.884 142.104 783.024C144.101 806.691 146.429 830.33 149.086 853.932C150.485 865.533 152.761 877.005 153.866 888.647C154.643 896.835 154.537 905.002 154.415 913.213C154.321 919.532 153.752 926.264 155.045 932.479C155.706 935.657 157.54 938.269 160.009 940.337C163.778 943.492 168.664 944.598 173.48 944.074C178.485 943.53 183.4 941.855 188.419 941.551C194.388 941.19 200.55 941.784 206.514 942.163C219.543 942.991 232.489 944.283 245.47 945.65C256.837 947.154 268.246 948.522 279.583 950.231C293.801 952.375 332.569 961.379 343.798 952.177C344.767 951.383 345.673 950.496 346.572 949.626C355.03 950.72 363.483 951.893 372.009 952.282C380.619 952.675 436.079 952.303 440.358 947.792C442.244 945.803 442.522 923.036 443.033 918.615C444.378 906.975 446.486 895.506 448.836 884.033L835.258 952.559C860.471 938.102 887.715 927.168 912.825 912.583L916.869 84.6032C904.466 82.0926 891.981 80.0489 879.564 77.6202C872.167 76.1734 840.409 68.6755 836.262 69.2179Z"/><path d="M213.247 330.956L212.769 187.411L212.545 145.489C212.511 138.597 211.922 131.121 212.711 124.296C212.95 122.231 213.984 120.227 215.255 118.604C217.685 115.5 220.385 114.282 224.235 113.8C229.822 113.1 235.628 113.001 241.253 112.638L271.593 110.566L382.478 103.157L692.721 81.2068C740.565 77.5055 788.546 74.2716 836.262 69.2179C840.409 68.6755 872.167 76.1734 879.564 77.6202C891.981 80.0489 904.466 82.0926 916.869 84.6032L912.825 912.583C887.715 927.168 860.471 938.102 835.258 952.559L448.836 884.033C446.486 895.506 444.378 906.975 443.033 918.615C442.522 923.036 442.244 945.803 440.358 947.792C436.079 952.303 380.619 952.675 372.009 952.282C363.483 951.893 355.03 950.72 346.572 949.626C345.673 950.496 344.767 951.383 343.798 952.177C332.569 961.379 293.801 952.375 279.583 950.231C268.246 948.522 256.837 947.154 245.47 945.65C232.489 944.283 219.543 942.991 206.514 942.163C200.55 941.784 194.388 941.19 188.419 941.551C183.4 941.855 178.485 943.53 173.48 944.074C168.664 944.598 163.778 943.492 160.009 940.337C157.54 938.269 155.706 935.657 155.045 932.479C153.752 926.264 154.321 919.532 154.415 913.213C154.537 905.002 154.643 896.835 153.866 888.647C152.761 877.005 150.485 865.533 149.086 853.932C146.429 830.33 144.101 806.691 142.104 783.024C140.653 764.884 139.594 746.715 138.927 728.53C138.566 719.429 138.897 710.145 137.981 701.099L137.881 700.159C129.43 697.334 121.327 693.782 115.211 687.059C106.887 677.907 106.421 664.625 106.91 652.935C108.552 613.68 130.514 543.237 153.727 511.632C159.563 503.687 167.887 497.017 175.12 490.359C169.943 456.572 169.176 426.897 181.685 394.447C177.19 391.581 173.403 388.472 170.327 384.068C165.005 376.45 163.167 367.189 164.823 358.063C166.522 348.704 172.343 340.12 180.209 334.829C190.778 327.72 201.281 328.527 213.247 330.956ZM298.862 449.933C288.788 456.72 276.736 462.507 264.267 460.072C257.012 458.722 250.606 454.506 246.498 448.375C241.168 440.383 239.047 430.336 237.659 420.986C237.407 419.284 237.367 415.506 236.663 414.074C236.473 413.688 234.512 412.879 234.072 412.67C232.395 409.956 232.851 402.839 233.513 399.761C233.779 398.522 234.128 398.074 235.165 397.336C239.33 394.372 248.122 394.982 253.206 394.361C257.328 393.858 261.377 392.167 265.424 391.228C274.291 389.171 284.905 390.206 293.656 392.385C302.358 394.552 310.048 398.667 318.368 401.804C326.389 399.967 333.297 396.996 340.807 393.811C357.792 386.608 369.989 385.321 388.1 388.623C382.195 368.179 371.269 350.69 352.295 340.107C324.316 324.501 288.492 324.305 258.241 332.938C230.056 340.982 207.637 358.919 193.382 384.486C191.909 387.127 190.419 389.84 189.245 392.627C174.217 425.774 177.615 454.554 180.792 489.425C202.928 498.916 225.358 506.269 248.931 511.258C256.783 512.92 264.742 514.85 272.698 515.908C302.393 519.65 332.551 515.746 360.314 504.564C368.868 501.134 377.033 497.222 384.934 492.458C389.628 489.627 394.303 486.037 399.203 483.664C403.832 466.953 405.855 447.323 403.746 430.01C400.03 441.005 394.497 449.964 383.72 455.243C374.852 459.587 364.116 459.887 354.834 456.692C344.745 453.219 337.166 445.479 332.629 435.973C330.452 431.412 328.165 422.14 324.081 419.224C321.924 418.552 319.315 418.879 317.367 420.068C313.744 422.282 310.83 434.691 308.165 439.162C305.742 443.227 302.391 446.806 298.862 449.933ZM832.189 76.7227C630.777 93.0565 429.221 107.561 227.547 120.235C225.452 120.385 222.111 120.567 220.885 122.651C219.722 124.628 219.764 129.32 219.713 131.628C219.452 143.377 219.931 155.239 220.007 166.998L220.318 236.366C220.519 268.906 219.722 301.59 220.604 334.103L227.138 339.509C229.68 338.353 232.237 337.234 234.667 335.852L234.27 196.193L234.133 155.969C234.109 149.802 233.434 142.692 234.414 136.62C242.726 133.466 256.18 133.831 265.203 133.218L320.758 129.715C366.04 126.469 411.341 123.518 456.661 120.862C475.873 119.721 495.225 117.56 514.456 117.32C516.011 130.519 515.169 144.644 515.286 157.957L515.48 244.63L515.583 504.127C518.091 503.327 520.61 502.121 523.185 503.27C524.237 503.739 525.147 504.804 525.927 505.625C527.868 512.514 515.952 559.297 515.576 572.478C514.742 601.713 515.169 631.175 515.225 660.426L515.153 764.306C515.177 777.228 516.552 866.798 514.392 871.704C512.761 872.25 511.219 872.167 509.53 871.993C498.002 870.802 486.08 868.032 474.676 865.877C467.652 864.55 460.386 863.749 453.455 862.063C452.191 867.107 451.11 872.108 450.207 877.232C468.761 879.978 487.254 883.78 505.747 886.977C551.597 894.659 597.391 902.666 643.127 910.998L754.098 930.381C780.348 934.931 806.924 939.124 832.947 944.805C833.612 924.172 833.324 903.503 833.401 882.861L833.597 754.847C833.802 692.002 836.919 81.137 834.509 76.8367C833.608 76.5951 833.105 76.5274 832.189 76.7227ZM507.579 137.1C499.747 138.98 483.836 142.507 478.381 147.963C477.644 149.959 477.702 152.472 477.661 154.59C477.241 176.504 478.036 198.585 478.316 220.51C478.453 231.288 477.474 243.685 478.685 254.235L508.473 253.19C508.477 240.555 508.962 139.118 508.168 137.7C508.031 137.455 507.775 137.3 507.579 137.1ZM262.664 140.287C255.357 140.624 248.057 141.076 240.765 141.643L241.393 210.626C241.438 230.004 240.861 249.605 241.66 268.962C243.17 266.821 244.335 264.997 246.742 263.749L252.433 262.873C256.61 253.28 260.865 243.72 265.198 234.195C267.935 228.262 271.749 221.731 273.439 215.456C275.147 209.113 274.098 148.634 273.339 140.004C269.752 139.944 266.242 140.037 262.664 140.287ZM444.606 143.178C440.226 143.782 429.482 144.19 426.446 147.455C425.037 148.97 425.204 246.189 425.66 256.115L432.883 255.933C438.919 255.62 445.004 255.452 451.006 254.722C451.287 231.38 451.078 208.014 451.088 184.668C451.093 170.831 451.866 156.47 450.793 142.723C448.758 142.845 446.611 142.831 444.606 143.178ZM404.305 146.69C400.286 147.154 396.39 147.772 392.493 148.887L392.525 220.05C392.526 231.258 391.491 247.227 392.965 257.698C397.773 257.627 402.578 257.436 407.376 257.125C411.377 256.802 415.383 256.555 419.394 256.384C419.443 246.565 420.143 149.617 418.588 148.168C415.978 145.735 408.363 146.273 405.029 146.591C404.787 146.614 404.546 146.657 404.305 146.69ZM377.373 148.705C370.37 149.408 363.148 149.663 356.483 152.078C356.343 176.518 356.325 200.959 356.43 225.4C356.444 234.141 355.538 250.523 356.881 258.089C359.243 259.827 363.598 259.075 366.41 258.935C372.911 258.613 379.588 258.745 386.045 258.061C386.076 247.796 387.187 153.943 384.921 149.699C382.707 148.052 380.169 148.403 377.552 148.671C377.491 148.677 377.432 148.693 377.373 148.705ZM315.941 157.969C309.709 177.515 303.36 197.025 296.896 216.496C291.897 231.389 286.612 246.358 282.541 261.534C292.388 261.454 302.526 261.402 312.334 260.569C317.716 246.804 321.93 232.482 326.756 218.504C332.609 201.552 339.159 184.682 343.986 167.407C344.599 165.21 345.321 162.646 345.066 160.372C341.201 157.971 321.207 157.672 315.941 157.969ZM501.524 261.279L364.878 266.066C325.87 267.527 286.638 269.491 247.603 269.513C247.498 272.837 246.486 279.207 249.025 281.611C250.395 282.907 253.125 282.491 254.883 282.449C339.552 279.226 424.255 277.72 508.92 274.028L508.804 261.002L501.524 261.279ZM486.29 283.227C485.382 283.86 485.202 283.892 485.03 285.05C484.632 287.728 485.063 290.848 485.056 293.581L484.963 315.762C484.849 341.812 484.59 367.901 484.923 393.949C492.324 394.275 499.997 394.865 507.383 394.133C508.338 392.925 508.36 392.662 508.509 391.14C509.507 380.931 508.694 367.146 508.711 356.486L508.709 283.545C501.252 283.301 493.746 282.89 486.29 283.227ZM468.021 283.728L435.185 284.549C435.101 304.501 435.556 324.478 435.582 344.437C435.601 359.425 435.031 374.652 435.682 389.607C435.749 391.16 435.63 392.696 436.633 393.918C439.892 394.789 443.396 394.501 446.75 394.495C457.378 394.502 468.157 394.823 478.761 394.115C479.08 357.319 478.022 320.528 478.18 283.735C474.796 283.716 471.404 283.653 468.021 283.728ZM413.86 285.289C406.168 285.696 375.619 286.074 370.793 287.889C368.771 292.37 369.259 317.776 369.943 323.41C380.963 323.028 389.961 324.088 398.425 331.907C406.156 339.048 411.144 349.845 411.405 360.39C411.554 366.424 409.808 371.956 406.546 376.988L406.162 377.533C403.287 381.533 395.583 386.129 394.697 387.759L394.915 388.749C397.466 389.894 400.638 390.026 403.39 390.614C414.192 392.921 416.652 394.371 428.332 393.949C428.74 382.027 429.318 289.584 427.599 285.711C423.931 284.015 417.896 285.059 413.86 285.289ZM350.232 287.794C336.622 288.723 322.565 287.79 309.068 289.42C308.767 300.1 308.539 311.231 309.418 321.88C316.29 322.752 323 323.787 329.735 325.455C336.893 327.403 343.449 329.814 350.19 332.964C354.368 329.514 358.368 327.153 363.251 324.847C363.555 318.679 364.575 292.544 362.793 288.455C359.363 286.491 354.07 287.523 350.232 287.794ZM242.686 289.626C241.437 302.855 242.228 318.95 242.43 332.378C251.767 329.183 261.277 326.101 271.057 324.597C273.826 324.164 276.599 323.681 279.378 323.321C279.379 318.188 280.698 297.579 278.679 293.941C273.647 291.538 248.88 289.325 242.686 289.626ZM372.966 328.66C366.518 329.519 360.991 331.857 355.559 335.383C358.325 337.26 361.069 339.25 363.964 340.921C369.394 338.358 374.476 336.342 380.533 338.368C386.317 340.303 390.377 345.191 392.853 350.587C396.489 358.514 396.19 366.3 394.219 374.616C393.524 376.534 392.62 378.346 392.959 380.416L393.741 381.211C396.015 381.097 397.912 378.946 399.356 377.372C403.94 372.373 406.076 366.875 405.743 360.053C405.319 351.38 400.891 342.148 394.368 336.426C388.515 331.291 380.796 328.305 372.966 328.66ZM193.973 335.584C185.435 337.884 178.708 342.689 174.236 350.393C170.409 356.988 169.089 364.957 171.089 372.375C172.452 377.43 177.493 384.855 182.268 387.304C183.051 387.706 183.494 387.837 184.351 387.828C185.508 386.932 185.446 386.503 185.821 385.126C184.997 383.332 183.361 382.202 182.146 380.689C179.449 377.333 178.067 373.025 177.106 368.896C176.237 362.471 176.798 356.301 180.731 350.885C184.466 345.743 190.749 342.635 196.965 341.838C204.34 340.893 211.17 343.294 217.714 346.403C219.449 345.215 221.247 344.084 222.812 342.673C214.504 336.731 204.037 334.62 193.973 335.584ZM372.404 342.556C370.953 343.006 369.668 343.212 368.547 344.28C370.414 346.896 372.904 348.98 375.011 351.401C380.721 357.963 385.756 365.596 389.102 373.643L389.764 373.432C392.031 365.906 392.226 357.969 388.251 350.909C386.128 347.137 382.673 344.007 378.417 342.905C376.446 342.395 374.418 342.429 372.404 342.556ZM198.099 346.619C192.78 347.549 188.046 349.259 184.706 353.784C181.829 357.682 181.01 362.634 181.806 367.355C182.661 372.417 185.194 376.701 188.742 380.337C190.132 378.484 191.561 376.65 192.857 374.731C198.842 366.085 205.203 358.661 212.433 351.017C211.847 349.553 211.056 349.057 209.595 348.48C206.14 347.115 201.81 346.572 198.099 346.619ZM366.26 395.684C357.864 396.599 346.15 399.367 340.584 406.268C337.486 410.109 338.576 419.172 339.226 423.78C340.381 431.976 343.794 439.486 350.594 444.541C356.37 448.835 362.195 449.816 369.175 449.994C377.426 449.118 384.371 445.786 389.662 439.292C395.701 431.878 396.585 423.034 395.553 413.884C394.996 408.95 393.574 403.764 389.574 400.499C383.682 395.69 373.544 395.147 366.26 395.684ZM271.595 399.161C264.397 400.245 253.636 402.824 249.035 408.985C245.636 413.537 246.776 422.126 247.754 427.399C249.198 435.182 252.499 444.494 259.237 449.213C264.006 452.552 269.809 453.179 275.425 452.07C277.211 451.718 278.975 451.177 280.721 450.666C291.04 446.591 298.487 438.861 302.932 428.732C305.202 423.558 307.669 416.041 305.703 410.503C304.462 407.009 300.59 405.003 297.388 403.633C289.615 400.306 280.087 397.995 271.595 399.161ZM423.561 400.782L414.92 400.857C414.109 405.666 412.68 409.772 410.577 414.163C438.657 414.068 466.806 414.351 494.875 413.648C499.5 413.559 504.161 413.589 508.779 413.339C508.891 409.09 508.905 404.84 508.821 400.59C492.483 400.394 476.176 400.636 459.844 400.596C447.785 400.566 435.6 400.076 423.561 400.782ZM410.18 430.206C410.318 440.481 410.278 450.737 409.143 460.964C407.985 471.397 405.867 481.486 405.437 492.026C413.619 501.176 421.183 510.861 428.078 521.017C428.708 521.867 429.153 522.958 430.213 523.155C431.67 518.263 429.357 434.47 428.054 431.568C424.132 428.576 415.014 429.81 410.18 430.206ZM451.864 430.118C450.391 431.022 449.659 431.294 448.803 432.826C448.376 445.712 449.532 458.977 449.886 471.882C450.27 485.868 449.907 500.223 450.938 514.143C455.911 511.633 461.037 509.075 465.735 506.074C467.038 504.68 468.271 500.668 470.126 500.543C471.653 500.44 473.572 501.578 474.798 500.834C476.037 492.473 474.884 482.722 474.727 474.216C474.459 459.703 474.62 445.094 473.881 430.6C466.591 430.185 459.161 429.594 451.864 430.118ZM487.456 430.247C485.547 430.356 483.827 430.31 482.119 431.243C480.223 433.763 481.912 491.3 482.03 498.121C484.972 499.922 494.182 508.88 496.539 508.688L496.778 508.45C499.218 506.846 501.598 505.616 504.271 504.448C504.328 497.158 505.538 433.487 503.259 431.369C500.708 428.998 491.059 430.143 487.456 430.247ZM397.611 490.37C390.44 495.315 382.814 500.514 374.665 503.66C385.641 516.233 390.652 530.415 397.248 545.374C399.117 544.339 401.072 543.367 402.872 542.22C411.09 537.479 419.331 532.782 427.598 528.128C423.601 522.693 402.281 492.267 398.116 490.376L397.611 490.37ZM179.341 495.951C171.315 501.898 164.161 509.635 158.592 517.916C140.273 545.16 121.341 600.178 116.537 632.522C114.466 646.462 111.122 669.594 119.884 681.393C127.296 691.373 143.042 695.439 154.705 696.873C163.011 697.829 171.368 698.257 179.728 698.155C170.646 685.129 169.583 669.027 172.37 653.644C173.223 648.934 174.66 644.572 176.485 640.159C177.53 638.017 178.59 635.881 179.664 633.753C175.204 632.145 170.025 630.581 167.791 625.961C165.549 621.324 166.994 609.87 169.073 605.079C169.395 604.338 169.87 603.823 170.428 603.255C171.541 603.049 171.533 603.007 172.5 603.581C175.484 610.603 166.004 623.113 176.193 627.462C178.888 628.613 181.882 629.265 184.682 630.149C184.028 622.499 182.663 614.882 181.553 607.287C178.676 587.604 175.19 567.163 174.315 547.281C178.902 548.09 183.578 548.749 188.111 549.809C189.62 544.213 191.368 538.739 193.204 533.244C207.977 534.115 222.271 537.811 236.557 541.454C239.298 533.411 241.892 525.353 245.073 517.468C222.207 512.72 200.901 504.787 179.341 495.951ZM481.821 504.453C462.977 514.58 444.625 525.558 426.014 536.089L390.641 556.44C384.23 560.213 376.576 563.944 371.116 569.044C367.067 572.827 364.891 578.376 362.893 583.439C365.46 582.288 368.043 581.19 370.477 579.773C399.208 562.912 428.867 547.625 457.985 531.455C469.276 525.184 480.932 519.247 491.779 512.229C488.849 509.851 485.207 506.04 481.821 504.453ZM369.598 506.598C366.223 507.758 362.784 508.835 359.459 510.127C367.047 526.088 371.106 540.811 375.313 557.91L381.227 554.502C385 552.448 388.806 550.454 392.643 548.523C388.584 539.38 377.505 511.318 369.598 506.598ZM354.379 511.598C324.222 520.85 305.297 524.245 273.699 521.711C278.213 532.53 281.832 543.967 286.636 554.599C293.517 556.888 300.466 558.968 307.474 560.834C324.113 566.124 342.49 571.884 358.265 579.25C361.236 572.226 364.122 566.982 370.165 562.152C368.335 552.976 360.602 516.843 354.379 511.598ZM250.533 518.477C248.205 526.707 246.093 534.998 243.599 543.181C252.684 545.783 261.996 547.415 271.121 549.839L277.803 551.46C274.553 541.42 271.055 529.819 265.365 520.915C260.424 519.943 255.533 519.107 250.533 518.477ZM196.666 539.157C195.809 543.06 194.843 546.971 194.138 550.903C237.595 559.949 280.912 569.658 324.074 580.026C332.848 582.084 348.46 583.588 355.763 586.989L356.75 586.619L356.732 585.701C353.021 582.477 345.93 580.793 341.231 579.024C293.482 561.043 245.957 551.049 196.666 539.157ZM352.368 593.62C351.978 612.644 356.755 806.023 358.928 810.76C360.27 811.707 361.457 811.741 363.037 811.504C363.451 811.442 363.86 811.346 364.269 811.257C365.372 786.844 364.319 762.172 364.153 737.733L362.806 595.058C358.535 595.941 356.243 595.509 352.368 593.62ZM508.079 611.849C505.563 623.896 503.531 636.073 501.281 648.175C498.287 664.277 495.175 680.279 492.8 696.493C491.767 703.546 489.754 711.707 489.873 718.752C490.679 719.544 490.235 719.352 491.109 719.516C496.689 720.473 502.358 720.805 507.996 721.258L508.175 647.564C508.239 640.111 509.395 617.966 508.079 611.849ZM185.583 635.79C177.489 649.256 176.325 669.351 180.1 684.33C181.318 689.161 183.693 693.915 188.14 696.494C189.229 697.116 190.335 697.71 191.455 698.277L196.774 699.497C195.506 689.582 188.46 642.323 185.583 635.79ZM144.464 701.651C144.88 713.97 145.892 726.317 146.672 738.62C148.977 777.381 152.362 816.07 156.822 854.642C157.987 865.663 160.627 876.467 161.617 887.514C162.349 895.678 162.443 903.768 162.372 911.958C162.32 918.042 161.237 926.398 162.68 932.25C162.911 933.184 163.709 934.181 164.447 934.782C169.14 938.607 180.871 935.185 186.441 934.749C191.111 934.381 195.802 934.346 200.477 934.643C216.465 935.63 232.622 936.847 248.501 938.965C261.321 940.684 274.132 942.47 286.933 944.323C301.435 946.46 317.941 950.487 332.525 948.371C335.203 947.983 338.614 947.199 340.393 944.95C340.703 944.557 340.75 944.333 340.897 943.905C342.911 923.422 343.556 902.801 344.599 882.252C345.683 860.92 347.138 839.574 347.834 818.227C345.94 815.68 345.127 813.038 343.934 810.152C329.53 804.458 313.476 801.405 298.434 797.61C278.862 792.708 259.206 788.147 239.475 783.93C230.323 781.95 221.077 779.616 211.841 778.116C205.828 754.234 202.866 729.36 197.983 705.203C179.925 702.74 163.708 705.315 144.464 701.651ZM488.673 725.411L486.768 738.31C493.453 739.292 500.159 740.128 506.88 740.82L507.747 740.632C508.893 737.07 508.125 731.595 508.051 727.804C501.586 727.083 495.096 726.457 488.673 725.411ZM486.212 744.144C485.055 755.625 485.991 767.797 485.899 779.377L485.444 860.631C492.902 862.094 500.378 863.731 507.908 864.768C508.412 850.815 507.993 836.736 507.981 822.767L508.014 747.5C500.791 746.25 493.512 744.863 486.212 744.144ZM478.229 753.441C474.835 755.433 471.278 757.315 468.016 759.51C468.699 784.391 464.512 808.747 459.484 833.02C458.693 836.841 454.305 852.812 455.219 855.149C456.164 855.597 457.061 856.03 458.062 856.341C465.027 857.595 472.014 858.718 479.021 859.709C479.422 833.776 479.528 807.84 479.341 781.904C479.346 776.833 480.259 757.439 479.029 753.894L478.229 753.441ZM461.485 763.493C454.143 767.362 447.158 771.772 439.989 775.938L407.104 794.888C399.357 799.417 391.045 803.246 383.46 807.99C378.638 811.006 376.677 817.002 371.491 819.316C366.718 821.446 359.681 821.631 354.505 821.381C353.472 849.959 352.238 878.529 350.803 907.089C350.43 914.589 349.975 922.085 349.437 929.574C349.158 933.634 348.384 938.263 348.811 942.295C349.629 942.996 350.251 943.111 351.294 943.318C378.652 946.955 407.101 945.695 434.48 942.861C434.115 891.885 453.871 841.514 459.663 790.92C460.645 782.347 462.499 772.112 461.485 763.493Z"/><path fill="white" d="M220.604 334.103C219.722 301.59 220.519 268.906 220.318 236.366L220.007 166.998C219.931 155.239 219.452 143.377 219.713 131.628C219.764 129.32 219.722 124.628 220.885 122.651C222.111 120.567 225.452 120.385 227.547 120.235C429.221 107.561 630.777 93.0565 832.189 76.7227C833.105 76.5274 833.608 76.5951 834.509 76.8367C836.919 81.137 833.802 692.002 833.597 754.847L833.401 882.861C833.324 903.503 833.612 924.172 832.947 944.805C806.924 939.124 780.348 934.931 754.098 930.381L643.127 910.998C597.391 902.666 551.597 894.659 505.747 886.977C487.254 883.78 468.761 879.978 450.207 877.232C451.11 872.108 452.191 867.107 453.455 862.063C460.386 863.749 467.652 864.55 474.676 865.877C486.08 868.032 498.002 870.802 509.53 871.993C511.219 872.167 512.761 872.25 514.392 871.704C516.552 866.798 515.177 777.228 515.153 764.306L515.225 660.426C515.169 631.175 514.742 601.713 515.576 572.478C515.952 559.297 527.868 512.514 525.927 505.625C525.147 504.804 524.237 503.739 523.185 503.27C520.61 502.121 518.091 503.327 515.583 504.127L515.48 244.63L515.286 157.957C515.169 144.644 516.011 130.519 514.456 117.32C495.225 117.56 475.873 119.721 456.661 120.862C411.341 123.518 366.04 126.469 320.758 129.715L265.203 133.218C256.18 133.831 242.726 133.466 234.414 136.62C233.434 142.692 234.109 149.802 234.133 155.969L234.27 196.193L234.667 335.852C232.237 337.234 229.68 338.353 227.138 339.509L220.604 334.103ZM815.827 95.7477L653.069 107.538C625.038 109.426 597.017 111.476 569.009 113.687C555.939 114.688 542.608 115.184 529.593 116.651C528.621 145.461 529.489 174.596 529.502 203.438L529.941 390.752C530.018 521.128 527.761 651.537 528.645 781.915L528.695 841.884C528.685 851.28 528.241 860.885 528.681 870.259C528.757 871.874 528.677 873.298 529.653 874.623C536.444 877.801 562.6 880.991 571.613 882.504L746.584 912.393C763.42 915.136 780.139 918.43 796.998 921.049C803.161 922.007 809.455 923.303 815.661 923.794C814.681 914.485 814.901 905.21 814.951 895.866C814.988 883.992 815.106 872.119 815.307 860.247L815.875 773.947L818.003 222.298C818.009 206.334 819.266 100.326 817.069 95.8026L815.827 95.7477Z"/><path d="M529.593 116.651C542.608 115.184 555.939 114.688 569.009 113.687C597.017 111.476 625.038 109.426 653.069 107.538L815.827 95.7477L817.069 95.8026C819.266 100.326 818.009 206.334 818.003 222.298L815.875 773.947L815.307 860.247C815.106 872.119 814.988 883.992 814.951 895.866C814.901 905.21 814.681 914.485 815.661 923.794C809.455 923.303 803.161 922.007 796.998 921.049C780.139 918.43 763.42 915.136 746.584 912.393L571.613 882.504C562.6 880.991 536.444 877.801 529.653 874.623C528.677 873.298 528.757 871.874 528.681 870.259C528.241 860.885 528.685 851.28 528.695 841.884L528.645 781.915C527.761 651.537 530.018 521.128 529.941 390.752L529.502 203.438C529.489 174.596 528.621 145.461 529.593 116.651ZM583.359 119.717C567.57 120.868 551.753 121.872 535.982 123.246L536.185 202.603C536.169 213.533 536.232 224.462 536.372 235.391C536.428 241.075 536.1 247.106 536.767 252.73C538.415 253.086 539.834 252.901 541.497 252.711C548.18 252.255 554.895 252.139 561.591 251.934C561.523 230.281 561.326 208.63 560.999 186.98C560.839 175.276 560.118 163.326 560.609 151.652C560.685 149.843 560.759 146.621 562.017 145.274C565.272 141.786 581.41 138.052 586.514 136.711C586.61 132.327 587.892 123.39 585.844 119.827C584.934 119.585 584.291 119.615 583.359 119.717ZM790.479 122.541C783.846 124.872 777.187 127.129 770.504 129.312C770.535 140.407 770.321 239.513 771.611 241.533L772.376 241.769L792.645 240.943C792.611 227.047 793.677 127.283 791.886 123.568L790.479 122.541ZM743.887 129.644C736.321 131.251 728.78 132.979 721.268 134.826L721.43 210.768L721.51 233.289C721.501 235.788 721.161 238.349 721.244 240.829C721.292 242.273 721.422 243.098 722.277 244.26L724.124 244.243C731.873 243.789 739.631 243.478 747.392 243.309L747.324 152.468C747.314 148.849 747.919 132.884 747.137 130.468C747.02 130.109 746.711 129.844 746.499 129.532C745.578 129.509 744.805 129.516 743.887 129.644ZM646.32 133.077C637.142 135.315 610.843 141.446 604.638 147.408C604.418 174.135 604.45 200.864 604.736 227.591C604.767 231.535 604.224 245.371 604.835 247.894C604.988 248.525 605.112 248.627 605.44 249.091C606.544 249.507 607.321 249.506 608.492 249.454C622.327 248.884 636.333 248.715 650.124 247.486L650.051 172.406C650.061 166.541 651.018 137.54 649.579 133.46C648.272 132.746 647.774 132.949 646.32 133.077ZM711.416 136.629C701.178 138.921 689.891 141.389 680.135 145.194C679.11 152.905 678.752 241.696 679.971 246.013C680.959 246.491 681.561 246.354 682.623 246.198C693.491 245.687 704.356 245.11 715.217 244.466L715.016 179.495C715.011 172.574 715.948 141.701 714.232 136.647C713.035 136.242 712.625 136.397 711.416 136.629ZM588.048 143.087C580.741 144.881 573.566 147.204 566.38 149.423L567.053 214.874C567.068 222.912 566.229 244.46 567.614 251.065L568.081 251.494L589.435 250.147C589.451 237.709 590.206 145.708 588.972 143.21L588.048 143.087ZM806.249 247.225C773.842 248.278 741.448 249.698 709.074 251.484L629.005 255.235L567.202 258.002C556.999 258.439 546.497 258.333 536.357 259.378C536.304 262.514 535.217 269.381 537.166 271.916C537.688 272.594 538.713 272.563 539.509 272.563C540.012 272.563 540.515 272.54 541.018 272.524C582.558 272.122 624.248 268.983 665.761 267.234C698.497 265.937 731.222 264.382 763.934 262.57C779.463 261.747 795.175 261.394 810.652 260.016C810.695 255.734 810.705 251.451 810.681 247.169L806.249 247.225ZM579.513 277.729C565.301 278.14 550.478 277.797 536.375 279.392C536.147 317.5 536.164 355.609 536.424 393.716L545.125 393.997C552.899 394.324 560.696 394.793 568.475 394.899C568.494 373.015 568.321 351.13 567.955 329.249C567.827 318.817 567.22 308.177 567.7 297.771C567.789 295.822 567.771 292.625 569.068 291.087C572.471 287.048 584.862 287.36 584.623 280.87C584.573 279.511 583.908 278.788 582.965 277.925C581.723 277.63 580.771 277.659 579.513 277.729ZM657.382 281.102C649.307 283.173 640.968 285.785 633.576 289.691C633.291 300.764 633.761 394.968 634.604 397.027C634.738 397.354 635.05 397.575 635.273 397.85L637.375 397.941L660.782 398.721L660.374 322.126L660.21 292.453C660.175 289.752 660.497 286.989 660.324 284.304C660.247 283.117 660.102 282.209 659.419 281.205C658.613 281.045 658.216 280.99 657.382 281.102ZM767.786 283.705C754.736 284.781 742.475 287.249 729.942 290.979L729.869 358.294C729.84 372.81 729.382 387.527 730.083 402.028C733.508 402.18 736.949 402.41 740.375 402.465C752.39 402.767 764.434 403.506 776.45 403.52L776.953 324.144C777.069 310.672 778.101 296.546 776.974 283.167C773.961 283.337 770.765 283.298 767.786 283.705ZM601.871 284.645C595.963 285.583 577.572 291.031 574.24 295.568C572.378 303.24 573.652 318.924 573.701 327.248C573.832 349.835 573.644 372.437 574.539 395.012C578.436 395.253 582.331 395.528 586.237 395.538C594.839 396.134 603.455 396.489 612.077 396.602L611.522 326.629C611.478 312.588 611.863 298.419 611.325 284.394C608.159 284.365 605.025 284.306 601.871 284.645ZM809.169 288.451C805.944 289.686 802.985 290.906 800.105 292.853C799.167 315.331 799.7 338.017 799.819 360.519C799.894 374.747 799.247 389.32 800.123 403.491C801.014 404.311 801.216 404.069 802.376 404.089L810.656 404.459C811.076 378.654 811.248 352.846 811.172 327.037L811.223 300.801C811.24 297.709 811.614 294.556 811.485 291.482C811.437 290.346 811.415 289.405 810.686 288.485L809.169 288.451ZM722.298 293.115C717.561 294.104 696.346 297.87 693.568 300.786C693.317 301.519 693.137 302.76 692.447 303.142C688.634 305.257 671.545 307.752 666.212 308.785C665.782 327.563 666.4 346.468 666.462 365.258C666.493 374.801 665.639 389.803 666.796 398.799C667.895 399.43 668.623 399.433 669.875 399.442C687.912 399.956 706.01 401.595 724.049 401.548L723.974 327.85C723.96 317.458 724.555 306.756 724.124 296.41C724.065 295 724.208 294.106 723.244 293.05L722.298 293.115ZM536.316 399.428C536.209 403.4 536.111 407.352 536.257 411.324C553.939 411.816 571.598 412.883 589.27 413.626L728.805 419.919C747.235 420.892 765.674 421.704 784.118 422.353C792.838 422.699 801.671 423.368 810.39 423.318L810.402 411.053C775.958 409.008 741.37 408.64 706.89 407.109C650.053 404.099 593.193 401.539 536.316 399.428ZM536.175 417.366C535.958 447.864 535.911 478.363 536.032 508.862C536.04 523.647 535.447 538.604 535.982 553.367C545.118 554.683 554.363 554.971 563.513 556.141L563.502 534.375L563.491 473.756C563.505 462.684 563.075 451.381 563.809 440.343C569.529 436.43 576.874 435.382 583.533 433.869C583.688 429.088 583.861 424.325 583.688 419.541C567.945 418.679 551.932 417.142 536.175 417.366ZM593.091 438.668C585.321 440.137 577.595 441.643 570.005 443.898C569.826 456.389 569.015 552.783 570.23 555.851C571.332 556.686 571.828 556.678 573.218 556.882C580.067 557.412 586.912 557.99 593.753 558.618C593.894 530.059 593.884 501.501 593.721 472.943C593.696 464.669 594.652 445.95 593.551 439.047L593.091 438.668ZM646.564 438.945L646.459 562.458C653.641 563.072 660.87 563.815 668.077 564.04C669.471 542.941 668.498 518.994 668.503 497.561L668.505 460.59C668.503 453.709 668.8 446.653 668.353 439.792C661.124 439.313 653.81 438.877 646.564 438.945ZM744.123 441.487C743.19 460.747 743.479 480.057 743.454 499.337C743.344 522.784 743.353 546.232 743.48 569.679C750.411 570.341 757.537 571.406 764.485 571.579C764.526 528.743 765.521 485.84 764.837 443.014C758.029 442.305 750.967 441.362 744.123 441.487ZM703.66 446.656C693.984 448.259 684.075 450.286 674.593 452.787L674.555 564.385C677.826 564.749 681.096 565.148 684.378 565.389C692.978 566.153 701.681 567.224 710.299 567.59L711.223 482.118C711.31 470.284 711.955 458.345 711.692 446.526C709.019 446.486 706.318 446.34 703.66 446.656ZM803.401 452.115C792.506 454.994 782.547 461.511 771.22 462.712L770.821 572.403C773.751 572.635 776.689 572.929 779.622 573.092L808.685 575.643C809.15 544.126 809.423 512.608 809.505 481.088C809.517 474.897 810.411 457.541 809.229 452.843C807.605 451.869 805.254 451.924 803.401 452.115ZM535.9 559.533C535.647 564.012 535.613 568.438 535.697 572.922C558.76 575.353 581.853 577.493 604.969 579.343L704.817 587.802L775.404 594.056C786.34 594.974 797.53 596.415 808.484 596.62L808.606 582.172C758.664 577.529 708.687 573.285 658.677 569.442C628.577 567.527 598.5 565.256 568.453 562.632C557.615 561.654 546.691 560.919 535.9 559.533ZM535.602 579.454C535.006 600.938 535.409 622.495 535.449 643.99L535.491 718.264C540.892 719.232 577.487 724.866 579.965 723.587L580.186 722.875C581.4 691.029 581.417 659.032 581.556 627.163C581.619 612.652 582.095 598.133 582.005 583.625C566.632 582.287 550.998 579.925 535.602 579.454ZM633.258 606.551C623.334 609.178 613.38 611.686 603.396 614.074L603.451 727.327C607.434 727.746 611.411 728.218 615.382 728.744C622.744 729.772 630.116 730.734 637.496 731.63L639.763 646.282C640.033 635.97 641.522 616.887 640.164 607.448C638.277 606.183 635.452 606.423 633.258 606.551ZM701.314 610.061C691.754 612.534 682.112 615.723 672.502 617.834L670.883 736.329L691.987 738.647C699.989 739.631 707.986 740.656 715.978 741.721L717.406 611.347C712.395 610.793 706.295 609.485 701.314 610.061ZM807.618 621.502C800.033 624.421 792.466 627.292 785.021 630.559C785.054 648.795 784.902 667.031 784.567 685.265C784.464 696.755 784.668 708.281 784.321 719.763C784.17 724.775 781.405 745.59 783.018 748.931C784.51 749.471 785.798 749.605 787.377 749.702L807.423 752.15L808.286 669.627C808.441 653.912 809.01 637.935 808.402 622.241C808.148 621.987 807.945 621.651 807.618 621.502ZM745.288 628.702C737.924 629.357 730.527 630.195 723.147 630.59L722.405 742.326L731.618 743.628C737.896 744.476 744.169 745.374 750.479 745.96C751.098 706.766 751.428 667.568 751.468 628.369C749.477 628.454 747.235 628.337 745.288 628.702ZM535.72 724.978C535.709 729.328 535.647 733.682 535.844 738.029C595.435 746.51 655.107 754.408 714.852 761.723L777.418 769.475C787.505 770.641 797.795 772.274 807.932 772.664C807.912 768.014 807.955 763.355 807.866 758.707C791.982 756.47 775.968 754.909 760.038 753.02L665.598 741.616C622.322 736.228 579.127 729.261 535.72 724.978ZM535.796 744.704C535.152 749.437 535.457 754.508 535.468 759.28L535.536 784.414C535.503 812.703 535.118 841.03 535.55 869.315C547.849 872.013 560.401 874.09 572.851 875.951L573.294 792.012C573.33 777.966 573.88 763.703 573.285 749.686C560.812 747.85 548.315 746.189 535.796 744.704ZM607.254 764.124C596.486 766.324 590.45 769.04 579.516 765.614C579.516 775.924 579.008 875.94 579.551 876.902C580.432 877.264 581.181 877.531 582.125 877.668C589.908 879.119 597.71 880.468 605.528 881.715C607.06 860.629 606.882 839.192 607.357 818.054L608.035 783.268C608.15 778.04 608.631 772.695 608.515 767.485C608.485 766.158 608.611 765.309 607.852 764.169L607.254 764.124ZM709.925 772.665C697.47 774.931 685.181 777.878 672.642 779.741C672.476 817.24 671.091 854.723 671.098 892.219C674.195 892.886 677.283 893.543 680.405 894.082L711.212 899.515L712.087 820.597C712.267 804.824 713.108 788.757 712.37 773.013L711.759 772.487L709.925 772.665ZM644.366 773.698C640.737 774.194 637.222 774.844 633.654 775.672L633.123 840.284C632.94 854.008 632.142 868.14 633.015 881.82C633.115 883.387 633.106 884.411 633.985 885.704L636.368 886.229L641.852 886.984C641.967 858.789 642.681 830.6 643.995 802.436C644.261 796.214 644.409 789.95 644.865 783.739C645.091 780.655 646.291 777.022 645.859 774.039C644.841 773.5 645.348 773.565 644.366 773.698ZM743.254 786.633C735.076 788.246 726.671 789.613 718.612 791.732C718.44 827.853 718.311 864.12 717.271 900.222L724.109 901.583C730.658 902.835 737.189 904.18 743.7 905.618C744.25 877.178 744.606 848.734 744.767 820.288C744.883 810.427 745.467 800.482 745.482 790.646C745.484 789.343 745.555 787.879 744.898 786.715C744.299 786.622 743.856 786.512 743.254 786.633ZM805.785 788.059C795.326 790.491 784.173 794.491 774.362 798.87C772.886 835.885 773.736 872.982 773.066 910.017L780.907 911.615C789.42 913.109 797.936 914.753 806.486 916.007L807.199 822.164C807.256 815.154 808.374 793.536 807.093 788.338C806.673 788.227 806.221 788.05 805.785 788.059Z"/><path fill="white" d="M535.982 123.246C551.753 121.872 567.57 120.868 583.359 119.717C584.291 119.615 584.934 119.585 585.844 119.827C587.892 123.39 586.61 132.327 586.514 136.711C581.41 138.052 565.272 141.786 562.017 145.274C560.759 146.621 560.685 149.843 560.609 151.652C560.118 163.326 560.839 175.276 560.999 186.98C561.326 208.63 561.523 230.281 561.591 251.934C554.895 252.139 548.18 252.255 541.497 252.711C539.834 252.901 538.415 253.086 536.767 252.73C536.1 247.106 536.428 241.075 536.372 235.391C536.232 224.462 536.169 213.533 536.185 202.603L535.982 123.246Z"/><path fill="white" d="M770.504 129.312C777.187 127.129 783.846 124.872 790.479 122.541L791.886 123.568C793.677 127.283 792.611 227.047 792.645 240.943L772.376 241.769L771.611 241.533C770.321 239.513 770.535 140.407 770.504 129.312Z"/><path fill="white" d="M721.268 134.826C728.78 132.979 736.321 131.251 743.887 129.644C744.805 129.516 745.578 129.509 746.499 129.532C746.711 129.844 747.02 130.109 747.137 130.468C747.919 132.884 747.314 148.849 747.324 152.468L747.392 243.309C739.631 243.478 731.873 243.789 724.124 244.243L722.277 244.26C721.422 243.098 721.292 242.273 721.244 240.829C721.161 238.349 721.501 235.788 721.51 233.289L721.43 210.768L721.268 134.826Z"/><path fill="white" d="M604.638 147.408C610.843 141.446 637.142 135.315 646.32 133.077C647.774 132.949 648.272 132.746 649.579 133.46C651.018 137.54 650.061 166.541 650.051 172.406L650.124 247.486C636.333 248.715 622.327 248.884 608.492 249.454C607.321 249.506 606.544 249.507 605.44 249.091C605.112 248.627 604.988 248.525 604.835 247.894C604.224 245.371 604.767 231.535 604.736 227.591C604.45 200.864 604.418 174.135 604.638 147.408Z"/><path fill="white" d="M680.135 145.194C689.891 141.389 701.178 138.921 711.416 136.629C712.625 136.397 713.035 136.242 714.232 136.647C715.948 141.701 715.011 172.574 715.016 179.495L715.217 244.466C704.356 245.11 693.491 245.687 682.623 246.198C681.561 246.354 680.959 246.491 679.971 246.013C678.752 241.696 679.11 152.905 680.135 145.194Z"/><path fill="white" d="M478.685 254.235C477.474 243.685 478.453 231.288 478.316 220.51C478.036 198.585 477.241 176.504 477.661 154.59C477.702 152.472 477.644 149.959 478.381 147.963C483.836 142.507 499.747 138.98 507.579 137.1C507.775 137.3 508.031 137.455 508.168 137.7C508.962 139.118 508.477 240.555 508.473 253.19L478.685 254.235Z"/><path fill="white" d="M240.765 141.643C248.057 141.076 255.357 140.624 262.664 140.287C266.242 140.037 269.752 139.944 273.339 140.004C274.098 148.634 275.147 209.113 273.439 215.456C271.749 221.731 267.935 228.262 265.198 234.195C260.865 243.72 256.61 253.28 252.433 262.873L246.742 263.749C244.335 264.997 243.17 266.821 241.66 268.962C240.861 249.605 241.438 230.004 241.393 210.626L240.765 141.643Z"/><path fill="white" d="M425.66 256.115C425.204 246.189 425.037 148.97 426.446 147.455C429.482 144.19 440.226 143.782 444.606 143.178C446.611 142.831 448.758 142.845 450.793 142.723C451.866 156.47 451.093 170.831 451.088 184.668C451.078 208.014 451.287 231.38 451.006 254.722C445.004 255.452 438.919 255.62 432.883 255.933L425.66 256.115Z"/><path fill="white" d="M566.38 149.423C573.566 147.204 580.741 144.881 588.048 143.087L588.972 143.21C590.206 145.708 589.451 237.709 589.435 250.147L568.081 251.494L567.614 251.065C566.229 244.46 567.068 222.912 567.053 214.874L566.38 149.423Z"/><path fill="white" d="M392.493 148.887C396.39 147.772 400.286 147.154 404.305 146.69C404.546 146.657 404.787 146.614 405.029 146.591C408.363 146.273 415.978 145.735 418.588 148.168C420.143 149.617 419.443 246.565 419.394 256.384C415.383 256.555 411.377 256.802 407.376 257.125C402.578 257.436 397.773 257.627 392.965 257.698C391.491 247.227 392.526 231.258 392.525 220.05L392.493 148.887Z"/><path fill="white" d="M356.483 152.078C363.148 149.663 370.37 149.408 377.373 148.705C377.432 148.693 377.491 148.677 377.552 148.671C380.169 148.403 382.707 148.052 384.921 149.699C387.187 153.943 386.076 247.796 386.045 258.061C379.588 258.745 372.911 258.613 366.41 258.935C363.598 259.075 359.243 259.827 356.881 258.089C355.538 250.523 356.444 234.141 356.43 225.4C356.325 200.959 356.343 176.518 356.483 152.078Z"/><path fill="white" d="M282.541 261.534C286.612 246.358 291.897 231.389 296.896 216.496C303.36 197.025 309.709 177.515 315.941 157.969C321.207 157.672 341.201 157.971 345.066 160.372C345.321 162.646 344.599 165.21 343.986 167.407C339.159 184.682 332.609 201.552 326.756 218.504C321.93 232.482 317.716 246.804 312.334 260.569C302.526 261.402 292.388 261.454 282.541 261.534Z"/><path fill="white" d="M536.357 259.378C546.497 258.333 556.999 258.439 567.202 258.002L629.005 255.235L709.074 251.484C741.448 249.698 773.842 248.278 806.249 247.225L810.681 247.169C810.705 251.451 810.695 255.734 810.652 260.016C795.175 261.394 779.463 261.747 763.934 262.57C731.222 264.382 698.497 265.937 665.761 267.234C624.248 268.983 582.558 272.122 541.018 272.524C540.515 272.54 540.012 272.563 539.509 272.563C538.713 272.563 537.688 272.594 537.166 271.916C535.217 269.381 536.304 262.514 536.357 259.378Z"/><path fill="white" d="M247.603 269.513C286.638 269.491 325.87 267.527 364.878 266.066L501.524 261.279L508.804 261.002L508.92 274.028C424.255 277.72 339.552 279.226 254.883 282.449C253.125 282.491 250.395 282.907 249.025 281.611C246.486 279.207 247.498 272.837 247.603 269.513Z"/><path fill="white" d="M536.375 279.392C550.478 277.797 565.301 278.14 579.513 277.729C580.771 277.659 581.723 277.63 582.965 277.925C583.908 278.788 584.573 279.511 584.623 280.87C584.862 287.36 572.471 287.048 569.068 291.087C567.771 292.625 567.789 295.822 567.7 297.771C567.22 308.177 567.827 318.817 567.955 329.249C568.321 351.13 568.494 373.015 568.475 394.899C560.696 394.793 552.899 394.324 545.125 393.997L536.424 393.716C536.164 355.609 536.147 317.5 536.375 279.392Z"/><path fill="white" d="M633.576 289.691C640.968 285.785 649.307 283.173 657.382 281.102C658.216 280.99 658.613 281.045 659.419 281.205C660.102 282.209 660.247 283.117 660.324 284.304C660.497 286.989 660.175 289.752 660.21 292.453L660.374 322.126L660.782 398.721L637.375 397.941L635.273 397.85C635.05 397.575 634.738 397.354 634.604 397.027C633.761 394.968 633.291 300.764 633.576 289.691Z"/><path fill="white" d="M484.923 393.949C484.59 367.901 484.849 341.812 484.963 315.762L485.056 293.581C485.063 290.848 484.632 287.728 485.03 285.05C485.202 283.892 485.382 283.86 486.29 283.227C493.746 282.89 501.252 283.301 508.709 283.545L508.711 356.486C508.694 367.146 509.507 380.931 508.509 391.14C508.36 392.662 508.338 392.925 507.383 394.133C499.997 394.865 492.324 394.275 484.923 393.949Z"/><path fill="white" d="M435.185 284.549L468.021 283.728C471.404 283.653 474.796 283.716 478.18 283.735C478.022 320.528 479.08 357.319 478.761 394.115C468.157 394.823 457.378 394.502 446.75 394.495C443.396 394.501 439.892 394.789 436.633 393.918C435.63 392.696 435.749 391.16 435.682 389.607C435.031 374.652 435.601 359.425 435.582 344.437C435.556 324.478 435.101 304.501 435.185 284.549Z"/><path fill="white" d="M729.942 290.979C742.475 287.249 754.736 284.781 767.786 283.705C770.765 283.298 773.961 283.337 776.974 283.167C778.101 296.546 777.069 310.672 776.953 324.144L776.45 403.52C764.434 403.506 752.39 402.767 740.375 402.465C736.949 402.41 733.508 402.18 730.083 402.028C729.382 387.527 729.84 372.81 729.869 358.294L729.942 290.979Z"/><path fill="white" d="M574.539 395.012C573.644 372.437 573.832 349.835 573.701 327.248C573.652 318.924 572.378 303.24 574.24 295.568C577.572 291.031 595.963 285.583 601.871 284.645C605.025 284.306 608.159 284.365 611.325 284.394C611.863 298.419 611.478 312.588 611.522 326.629L612.077 396.602C603.455 396.489 594.839 396.134 586.237 395.538C582.331 395.528 578.436 395.253 574.539 395.012Z"/><path fill="white" d="M369.943 323.41C369.259 317.776 368.771 292.37 370.793 287.889C375.619 286.074 406.168 285.696 413.86 285.289C417.896 285.059 423.931 284.015 427.599 285.711C429.318 289.584 428.74 382.027 428.332 393.949C416.652 394.371 414.192 392.921 403.39 390.614C400.638 390.026 397.466 389.894 394.915 388.749L394.697 387.759C395.583 386.129 403.287 381.533 406.162 377.533L406.546 376.988C409.808 371.956 411.554 366.424 411.405 360.39C411.144 349.845 406.156 339.048 398.425 331.907C389.961 324.088 380.963 323.028 369.943 323.41Z"/><path fill="white" d="M309.068 289.42C322.565 287.79 336.622 288.723 350.232 287.794C354.07 287.523 359.363 286.491 362.793 288.455C364.575 292.544 363.555 318.679 363.251 324.847C358.368 327.153 354.368 329.514 350.19 332.964C343.449 329.814 336.893 327.403 329.735 325.455C323 323.787 316.29 322.752 309.418 321.88C308.539 311.231 308.767 300.1 309.068 289.42Z"/><path fill="white" d="M800.105 292.853C802.985 290.906 805.944 289.686 809.169 288.451L810.686 288.485C811.415 289.405 811.437 290.346 811.485 291.482C811.614 294.556 811.24 297.709 811.223 300.801L811.172 327.037C811.248 352.846 811.076 378.654 810.656 404.459L802.376 404.089C801.216 404.069 801.014 404.311 800.123 403.491C799.247 389.32 799.894 374.747 799.819 360.519C799.7 338.017 799.167 315.331 800.105 292.853Z"/><path fill="white" d="M242.43 332.378C242.228 318.95 241.437 302.855 242.686 289.626C248.88 289.325 273.647 291.538 278.679 293.941C280.698 297.579 279.379 318.188 279.378 323.321C276.599 323.681 273.826 324.164 271.057 324.597C261.277 326.101 251.767 329.183 242.43 332.378Z"/><path fill="white" d="M666.212 308.785C671.545 307.752 688.634 305.257 692.447 303.142C693.137 302.76 693.317 301.519 693.568 300.786C696.346 297.87 717.561 294.104 722.298 293.115L723.244 293.05C724.208 294.106 724.065 295 724.124 296.41C724.555 306.756 723.96 317.458 723.974 327.85L724.049 401.548C706.01 401.595 687.912 399.956 669.875 399.442C668.623 399.433 667.895 399.43 666.796 398.799C665.639 389.803 666.493 374.801 666.462 365.258C666.4 346.468 665.782 327.563 666.212 308.785Z"/><path fill="white" d="M318.368 401.804C310.048 398.667 302.358 394.552 293.656 392.385C284.905 390.206 274.291 389.171 265.424 391.228C261.377 392.167 257.328 393.858 253.206 394.361C248.122 394.982 239.33 394.372 235.165 397.336C234.128 398.074 233.779 398.522 233.513 399.761C232.851 402.839 232.395 409.956 234.072 412.67C234.512 412.879 236.473 413.688 236.663 414.074C237.367 415.506 237.407 419.284 237.659 420.986C239.047 430.336 241.168 440.383 246.498 448.375C250.606 454.506 257.012 458.722 264.267 460.072C276.736 462.507 288.788 456.72 298.862 449.933C298.602 450.416 298.47 450.63 298.258 451.175C297.533 453.033 297.766 454.579 298.635 456.324C301.895 462.868 311.323 466.304 317.834 468.389C317.929 472.459 317.998 476.488 317.761 480.553C311.8 481.174 305.846 481.849 299.898 482.578C297.181 482.927 293.003 483.067 291.219 485.36C290.952 486.772 290.907 486.752 291.638 487.98C293.664 489.058 298.665 487.54 301.106 487.156C311.851 485.467 322.292 484.75 333.16 484.938C336.772 485.221 339.42 485.346 343.003 484.536L343.084 482.691C336.597 480.235 329.566 480.604 322.745 480.532C322.503 476.287 322.579 471.994 322.533 467.741C328.749 466.365 333.982 464.167 338.227 459.203C339.637 457.555 341.186 455.288 340.735 452.989C340.414 451.355 339.097 450.012 337.733 449.159C328.554 443.413 308.898 447.519 298.862 449.933C302.391 446.806 305.742 443.227 308.165 439.162C310.83 434.691 313.744 422.282 317.367 420.068C319.315 418.879 321.924 418.552 324.081 419.224C328.165 422.14 330.452 431.412 332.629 435.973C337.166 445.479 344.745 453.219 354.834 456.692C364.116 459.887 374.852 459.587 383.72 455.243C394.497 449.964 400.03 441.005 403.746 430.01C405.855 447.323 403.832 466.953 399.203 483.664C394.303 486.037 389.628 489.627 384.934 492.458C377.033 497.222 368.868 501.134 360.314 504.564C332.551 515.746 302.393 519.65 272.698 515.908C264.742 514.85 256.783 512.92 248.931 511.258C225.358 506.269 202.928 498.916 180.792 489.425C177.615 454.554 174.217 425.774 189.245 392.627C190.419 389.84 191.909 387.127 193.382 384.486C207.637 358.919 230.056 340.982 258.241 332.938C288.492 324.305 324.316 324.501 352.295 340.107C371.269 350.69 382.195 368.179 388.1 388.623C369.989 385.321 357.792 386.608 340.807 393.811C333.297 396.996 326.389 399.967 318.368 401.804Z"/><path fill="white" d="M355.559 335.383C360.991 331.857 366.518 329.519 372.966 328.66C380.796 328.305 388.515 331.291 394.368 336.426C400.891 342.148 405.319 351.38 405.743 360.053C406.076 366.875 403.94 372.373 399.356 377.372C397.912 378.946 396.015 381.097 393.741 381.211L392.959 380.416C392.62 378.346 393.524 376.534 394.219 374.616C396.19 366.3 396.489 358.514 392.853 350.587C390.377 345.191 386.317 340.303 380.533 338.368C374.476 336.342 369.394 338.358 363.964 340.921C361.069 339.25 358.325 337.26 355.559 335.383Z"/><path fill="white" d="M177.106 368.896C178.067 373.025 179.449 377.333 182.146 380.689C183.361 382.202 184.997 383.332 185.821 385.126C185.446 386.503 185.508 386.932 184.351 387.828C183.494 387.837 183.051 387.706 182.268 387.304C177.493 384.855 172.452 377.43 171.089 372.375C169.089 364.957 170.409 356.988 174.236 350.393C178.708 342.689 185.435 337.884 193.973 335.584C204.037 334.62 214.504 336.731 222.812 342.673C221.247 344.084 219.449 345.215 217.714 346.403C211.17 343.294 204.34 340.893 196.965 341.838C190.749 342.635 184.466 345.743 180.731 350.885C176.798 356.301 176.237 362.471 177.106 368.896Z"/><path fill="white" d="M389.102 373.643C385.756 365.596 380.721 357.963 375.011 351.401C372.904 348.98 370.414 346.896 368.547 344.28C369.668 343.212 370.953 343.006 372.404 342.556C374.418 342.429 376.446 342.395 378.417 342.905C382.673 344.007 386.128 347.137 388.251 350.909C392.226 357.969 392.031 365.906 389.764 373.432L389.102 373.643Z"/><path fill="white" d="M188.742 380.337C185.194 376.701 182.661 372.417 181.806 367.355C181.01 362.634 181.829 357.682 184.706 353.784C188.046 349.259 192.78 347.549 198.099 346.619C201.81 346.572 206.14 347.115 209.595 348.48C211.056 349.057 211.847 349.553 212.433 351.017C205.203 358.661 198.842 366.085 192.857 374.731C191.561 376.65 190.132 378.484 188.742 380.337Z"/><path fill="white" d="M369.175 449.994C362.195 449.816 356.37 448.835 350.594 444.541C343.794 439.486 340.381 431.976 339.226 423.78C338.576 419.172 337.486 410.109 340.584 406.268C346.15 399.367 357.864 396.599 366.26 395.684C373.544 395.147 383.682 395.69 389.574 400.499C393.574 403.764 394.996 408.95 395.553 413.884C396.585 423.034 395.701 431.878 389.662 439.292C384.371 445.786 377.426 449.118 369.175 449.994ZM377.043 419.415C372.512 421.583 368.277 423.556 363.269 424.293C359.264 424.883 349.248 423.127 346.664 425.662C346.356 427.089 346.45 427.378 346.899 428.784C347.608 429.485 348.11 429.947 349.04 430.326C357.099 431.345 370.453 431.6 377.282 426.357C378.212 425.642 379.15 424.66 379.39 423.47C379.611 422.371 379.45 421.212 378.615 420.393C378.278 420.063 377.471 419.65 377.043 419.415Z"/><path fill="white" d="M280.721 450.666C278.975 451.177 277.211 451.718 275.425 452.07C269.809 453.179 264.006 452.552 259.237 449.213C252.499 444.494 249.198 435.182 247.754 427.399C246.776 422.126 245.636 413.537 249.035 408.985C253.636 402.824 264.397 400.245 271.595 399.161C280.087 397.995 289.615 400.306 297.388 403.633C300.59 405.003 304.462 407.009 305.703 410.503C307.669 416.041 305.202 423.558 302.932 428.732C298.487 438.861 291.04 446.591 280.721 450.666ZM266.173 422.925C265.226 424.071 264.697 424.701 264.575 426.256C265.054 427.927 265.87 428.734 267.339 429.569C275.094 433.98 288.421 434.042 296.781 431.643C297.879 430.762 298.731 430.36 298.823 428.811C298.893 427.627 298.309 426.763 297.394 426.08C295.824 424.909 291.666 425.817 289.792 426.041C277.206 427.544 276.62 424.065 266.173 422.925Z"/><path fill="white" d="M536.257 411.324C536.111 407.352 536.209 403.4 536.316 399.428C593.193 401.539 650.053 404.099 706.89 407.109C741.37 408.64 775.958 409.008 810.402 411.053L810.39 423.318C801.671 423.368 792.838 422.699 784.118 422.353C765.674 421.704 747.235 420.892 728.805 419.919L589.27 413.626C571.598 412.883 553.939 411.816 536.257 411.324Z"/><path fill="white" d="M414.92 400.857L423.561 400.782C435.6 400.076 447.785 400.566 459.844 400.596C476.176 400.636 492.483 400.394 508.821 400.59C508.905 404.84 508.891 409.09 508.779 413.339C504.161 413.589 499.5 413.559 494.875 413.648C466.806 414.351 438.657 414.068 410.577 414.163C412.68 409.772 414.109 405.666 414.92 400.857Z"/><path fill="white" d="M535.982 553.367C535.447 538.604 536.04 523.647 536.032 508.862C535.911 478.363 535.958 447.864 536.175 417.366C551.932 417.142 567.945 418.679 583.688 419.541C583.861 424.325 583.688 429.088 583.533 433.869C576.874 435.382 569.529 436.43 563.809 440.343C563.075 451.381 563.505 462.684 563.491 473.756L563.502 534.375L563.513 556.141C554.363 554.971 545.118 554.683 535.982 553.367Z"/><path d="M349.04 430.326C348.11 429.947 347.608 429.485 346.899 428.784C346.45 427.378 346.356 427.089 346.664 425.662C349.248 423.127 359.264 424.883 363.269 424.293C368.277 423.556 372.512 421.583 377.043 419.415C377.471 419.65 378.278 420.063 378.615 420.393C379.45 421.212 379.611 422.371 379.39 423.47C379.15 424.66 378.212 425.642 377.282 426.357C370.453 431.6 357.099 431.345 349.04 430.326Z"/><path d="M296.781 431.643C288.421 434.042 275.094 433.98 267.339 429.569C265.87 428.734 265.054 427.927 264.575 426.256C264.697 424.701 265.226 424.071 266.173 422.925C276.62 424.065 277.206 427.544 289.792 426.041C291.666 425.817 295.824 424.909 297.394 426.08C298.309 426.763 298.893 427.627 298.823 428.811C298.731 430.36 297.879 430.762 296.781 431.643Z"/><path fill="white" d="M405.437 492.026C405.867 481.486 407.985 471.397 409.143 460.964C410.278 450.737 410.318 440.481 410.18 430.206C415.014 429.81 424.132 428.576 428.054 431.568C429.357 434.47 431.67 518.263 430.213 523.155C429.153 522.958 428.708 521.867 428.078 521.017C421.183 510.861 413.619 501.176 405.437 492.026Z"/><path fill="white" d="M450.938 514.143C449.907 500.223 450.27 485.868 449.886 471.882C449.532 458.977 448.376 445.712 448.803 432.826C449.659 431.294 450.391 431.022 451.864 430.118C459.161 429.594 466.591 430.185 473.881 430.6C474.62 445.094 474.459 459.703 474.727 474.216C474.884 482.722 476.037 492.473 474.798 500.834C473.572 501.578 471.653 500.44 470.126 500.543C468.271 500.668 467.038 504.68 465.735 506.074C461.037 509.075 455.911 511.633 450.938 514.143Z"/><path fill="white" d="M482.03 498.121C481.912 491.3 480.223 433.763 482.119 431.243C483.827 430.31 485.547 430.356 487.456 430.247C491.059 430.143 500.708 428.998 503.259 431.369C505.538 433.487 504.328 497.158 504.271 504.448C501.598 505.616 499.218 506.846 496.778 508.45L496.539 508.688C494.182 508.88 484.972 499.922 482.03 498.121Z"/><path fill="white" d="M570.005 443.898C577.595 441.643 585.321 440.137 593.091 438.668L593.551 439.047C594.652 445.95 593.696 464.669 593.721 472.943C593.884 501.501 593.894 530.059 593.753 558.618C586.912 557.99 580.067 557.412 573.218 556.882C571.828 556.678 571.332 556.686 570.23 555.851C569.015 552.783 569.826 456.389 570.005 443.898Z"/><path fill="white" d="M646.459 562.458L646.564 438.945C653.81 438.877 661.124 439.313 668.353 439.792C668.8 446.653 668.503 453.709 668.505 460.59L668.503 497.561C668.498 518.994 669.471 542.941 668.077 564.04C660.87 563.815 653.641 563.072 646.459 562.458Z"/><path fill="white" d="M743.48 569.679C743.353 546.232 743.344 522.784 743.454 499.337C743.479 480.057 743.19 460.747 744.123 441.487C750.967 441.362 758.029 442.305 764.837 443.014C765.521 485.84 764.526 528.743 764.485 571.579C757.537 571.406 750.411 570.341 743.48 569.679Z"/><path d="M298.862 449.933C308.898 447.519 328.554 443.413 337.733 449.159C339.097 450.012 340.414 451.355 340.735 452.989C341.186 455.288 339.637 457.555 338.227 459.203C333.982 464.167 328.749 466.365 322.533 467.741C322.579 471.994 322.503 476.287 322.745 480.532C329.566 480.604 336.597 480.235 343.084 482.691L343.003 484.536C339.42 485.346 336.772 485.221 333.16 484.938C322.292 484.75 311.851 485.467 301.106 487.156C298.665 487.54 293.664 489.058 291.638 487.98C290.907 486.752 290.952 486.772 291.219 485.36C293.003 483.067 297.181 482.927 299.898 482.578C305.846 481.849 311.8 481.174 317.761 480.553C317.998 476.488 317.929 472.459 317.834 468.389C311.323 466.304 301.895 462.868 298.635 456.324C297.766 454.579 297.533 453.033 298.258 451.175C298.47 450.63 298.602 450.416 298.862 449.933ZM314.435 454.206L313.247 454.873C314.349 456.045 316.206 456.019 317.769 456.075C320.857 456.187 323.863 456.003 326.894 455.353L328.03 454.679C325.621 453 317.341 453.915 314.435 454.206Z"/><path fill="white" d="M674.593 452.787C684.075 450.286 693.984 448.259 703.66 446.656C706.318 446.34 709.019 446.486 711.692 446.526C711.955 458.345 711.31 470.284 711.223 482.118L710.299 567.59C701.681 567.224 692.978 566.153 684.378 565.389C681.096 565.148 677.826 564.749 674.555 564.385L674.593 452.787Z"/><path fill="white" d="M771.22 462.712C782.547 461.511 792.506 454.994 803.401 452.115C805.254 451.924 807.605 451.869 809.229 452.843C810.411 457.541 809.517 474.897 809.505 481.088C809.423 512.608 809.15 544.126 808.685 575.643L779.622 573.092C776.689 572.929 773.751 572.635 770.821 572.403L771.22 462.712Z"/><path fill="white" d="M326.894 455.353C323.863 456.003 320.857 456.187 317.769 456.075C316.206 456.019 314.349 456.045 313.247 454.873L314.435 454.206C317.341 453.915 325.621 453 328.03 454.679L326.894 455.353Z"/><path fill="white" d="M374.665 503.66C382.814 500.514 390.44 495.315 397.611 490.37L398.116 490.376C402.281 492.267 423.601 522.693 427.598 528.128C419.331 532.782 411.09 537.479 402.872 542.22C401.072 543.367 399.117 544.339 397.248 545.374C390.652 530.415 385.641 516.233 374.665 503.66Z"/><path fill="white" d="M179.728 698.155C171.368 698.257 163.011 697.829 154.705 696.873C143.042 695.439 127.296 691.373 119.884 681.393C111.122 669.594 114.466 646.462 116.537 632.522C121.341 600.178 140.273 545.16 158.592 517.916C164.161 509.635 171.315 501.898 179.341 495.951C200.901 504.787 222.207 512.72 245.073 517.468C241.892 525.353 239.298 533.411 236.557 541.454C222.271 537.811 207.977 534.115 193.204 533.244C191.368 538.739 189.62 544.213 188.111 549.809C183.578 548.749 178.902 548.09 174.315 547.281C175.19 567.163 178.676 587.604 181.553 607.287C182.663 614.882 184.028 622.499 184.682 630.149C181.882 629.265 178.888 628.613 176.193 627.462C166.004 623.113 175.484 610.603 172.5 603.581C171.533 603.007 171.541 603.049 170.428 603.255C169.87 603.823 169.395 604.338 169.073 605.079C166.994 609.87 165.549 621.324 167.791 625.961C170.025 630.581 175.204 632.145 179.664 633.753C178.59 635.881 177.53 638.017 176.485 640.159C174.66 644.572 173.223 648.934 172.37 653.644C169.583 669.027 170.646 685.129 179.728 698.155Z"/><path fill="white" d="M362.893 583.439C364.891 578.376 367.067 572.827 371.116 569.044C376.576 563.944 384.23 560.213 390.641 556.44L426.014 536.089C444.625 525.558 462.977 514.58 481.821 504.453C485.207 506.04 488.849 509.851 491.779 512.229C480.932 519.247 469.276 525.184 457.985 531.455C428.867 547.625 399.208 562.912 370.477 579.773C368.043 581.19 365.46 582.288 362.893 583.439Z"/><path fill="white" d="M359.459 510.127C362.784 508.835 366.223 507.758 369.598 506.598C377.505 511.318 388.584 539.38 392.643 548.523C388.806 550.454 385 552.448 381.227 554.502L375.313 557.91C371.106 540.811 367.047 526.088 359.459 510.127Z"/><path fill="white" d="M273.699 521.711C305.297 524.245 324.222 520.85 354.379 511.598C360.602 516.843 368.335 552.976 370.165 562.152C364.122 566.982 361.236 572.226 358.265 579.25C342.49 571.884 324.113 566.124 307.474 560.834C300.466 558.968 293.517 556.888 286.636 554.599C281.832 543.967 278.213 532.53 273.699 521.711ZM340.986 517.478C332.525 520.512 324.623 524.879 316.393 528.451C309.508 527.067 295.821 522.707 289.396 526.683C287.908 527.604 287.039 528.958 286.689 530.661C285.426 536.814 290.017 550.011 292.54 555.773L297.538 554.005C304.981 550.738 312.091 545.94 319.048 541.726C326.046 543.923 338.185 549.058 345.161 547.961C347.165 546.627 347.726 544.777 348.201 542.498C349.557 535.989 349.217 525.331 345.565 519.655C344.943 518.689 344.174 517.835 343.018 517.536C342.436 517.386 341.561 517.466 340.986 517.478Z"/><path d="M316.393 528.451C324.623 524.879 332.525 520.512 340.986 517.478C341.561 517.466 342.436 517.386 343.018 517.536C344.174 517.835 344.943 518.689 345.565 519.655C349.217 525.331 349.557 535.989 348.201 542.498C347.726 544.777 347.165 546.627 345.161 547.961C338.185 549.058 326.046 543.923 319.048 541.726C312.091 545.94 304.981 550.738 297.538 554.005L292.54 555.773C290.017 550.011 285.426 536.814 286.689 530.661C287.039 528.958 287.908 527.604 289.396 526.683C295.821 522.707 309.508 527.067 316.393 528.451Z"/><path fill="white" d="M243.599 543.181C246.093 534.998 248.205 526.707 250.533 518.477C255.533 519.107 260.424 519.943 265.365 520.915C271.055 529.819 274.553 541.42 277.803 551.46L271.121 549.839C261.996 547.415 252.684 545.783 243.599 543.181Z"/><path fill="white" d="M194.138 550.903C194.843 546.971 195.809 543.06 196.666 539.157C245.957 551.049 293.482 561.043 341.231 579.024C345.93 580.793 353.021 582.477 356.732 585.701L356.75 586.619L355.763 586.989C348.46 583.588 332.848 582.084 324.074 580.026C280.912 569.658 237.595 559.949 194.138 550.903Z"/><path fill="white" d="M535.697 572.922C535.613 568.438 535.647 564.012 535.9 559.533C546.691 560.919 557.615 561.654 568.453 562.632C598.5 565.256 628.577 567.527 658.677 569.442C708.687 573.285 758.664 577.529 808.606 582.172L808.484 596.62C797.53 596.415 786.34 594.974 775.404 594.056L704.817 587.802L604.969 579.343C581.853 577.493 558.76 575.353 535.697 572.922Z"/><path fill="white" d="M535.491 718.264L535.449 643.99C535.409 622.495 535.006 600.938 535.602 579.454C550.998 579.925 566.632 582.287 582.005 583.625C582.095 598.133 581.619 612.652 581.556 627.163C581.417 659.032 581.4 691.029 580.186 722.875L579.965 723.587C577.487 724.866 540.892 719.232 535.491 718.264Z"/><path fill="white" d="M364.269 811.257C363.86 811.346 363.451 811.442 363.037 811.504C361.457 811.741 360.27 811.707 358.928 810.76C356.755 806.023 351.978 612.644 352.368 593.62C356.243 595.509 358.535 595.941 362.806 595.058L364.153 737.733C364.319 762.172 365.372 786.844 364.269 811.257Z"/><path fill="white" d="M603.396 614.074C613.38 611.686 623.334 609.178 633.258 606.551C635.452 606.423 638.277 606.183 640.164 607.448C641.522 616.887 640.033 635.97 639.763 646.282L637.496 731.63C630.116 730.734 622.744 729.772 615.382 728.744C611.411 728.218 607.434 727.746 603.451 727.327L603.396 614.074Z"/><path fill="white" d="M672.502 617.834C682.112 615.723 691.754 612.534 701.314 610.061C706.295 609.485 712.395 610.793 717.406 611.347L715.978 741.721C707.986 740.656 699.989 739.631 691.987 738.647L670.883 736.329L672.502 617.834Z"/><path fill="white" d="M491.109 719.516C490.235 719.352 490.679 719.544 489.873 718.752C489.754 711.707 491.767 703.546 492.8 696.493C495.175 680.279 498.287 664.277 501.281 648.175C503.531 636.073 505.563 623.896 508.079 611.849C509.395 617.966 508.239 640.111 508.175 647.564L507.996 721.258C502.358 720.805 496.689 720.473 491.109 719.516Z"/><path fill="white" d="M785.021 630.559C792.466 627.292 800.033 624.421 807.618 621.502C807.945 621.651 808.148 621.987 808.402 622.241C809.01 637.935 808.441 653.912 808.286 669.627L807.423 752.15L787.377 749.702C785.798 749.605 784.51 749.471 783.018 748.931C781.405 745.59 784.17 724.775 784.321 719.763C784.668 708.281 784.464 696.755 784.567 685.265C784.902 667.031 785.054 648.795 785.021 630.559Z"/><path fill="white" d="M723.147 630.59C730.527 630.195 737.924 629.357 745.288 628.702C747.235 628.337 749.477 628.454 751.468 628.369C751.428 667.568 751.098 706.766 750.479 745.96C744.169 745.374 737.896 744.476 731.618 743.628L722.405 742.326L723.147 630.59Z"/><path fill="white" d="M191.455 698.277C190.335 697.71 189.229 697.116 188.14 696.494C183.693 693.915 181.318 689.161 180.1 684.33C176.325 669.351 177.489 649.256 185.583 635.79C188.46 642.323 195.506 689.582 196.774 699.497L191.455 698.277Z"/><path fill="white" d="M340.897 943.905C340.75 944.333 340.703 944.557 340.393 944.95C338.614 947.199 335.203 947.983 332.525 948.371C317.941 950.487 301.435 946.46 286.933 944.323C274.132 942.47 261.321 940.684 248.501 938.965C232.622 936.847 216.465 935.63 200.477 934.643C195.802 934.346 191.111 934.381 186.441 934.749C180.871 935.185 169.14 938.607 164.447 934.782C163.709 934.181 162.911 933.184 162.68 932.25C161.237 926.398 162.32 918.042 162.372 911.958C162.443 903.768 162.349 895.678 161.617 887.514C160.627 876.467 157.987 865.663 156.822 854.642C152.362 816.07 148.977 777.381 146.672 738.62C145.892 726.317 144.88 713.97 144.464 701.651C163.708 705.315 179.925 702.74 197.983 705.203C202.866 729.36 205.828 754.234 211.841 778.116C221.077 779.616 230.323 781.95 239.475 783.93C259.206 788.147 278.862 792.708 298.434 797.61C313.476 801.405 329.53 804.458 343.934 810.152C345.127 813.038 345.94 815.68 347.834 818.227C347.138 839.574 345.683 860.92 344.599 882.252C343.556 902.801 342.911 923.422 340.897 943.905Z"/><path fill="white" d="M535.844 738.029C535.647 733.682 535.709 729.328 535.72 724.978C579.127 729.261 622.322 736.228 665.598 741.616L760.038 753.02C775.968 754.909 791.982 756.47 807.866 758.707C807.955 763.355 807.912 768.014 807.932 772.664C797.795 772.274 787.505 770.641 777.418 769.475L714.852 761.723C655.107 754.408 595.435 746.51 535.844 738.029Z"/><path fill="white" d="M486.768 738.31L488.673 725.411C495.096 726.457 501.586 727.083 508.051 727.804C508.125 731.595 508.893 737.07 507.747 740.632L506.88 740.82C500.159 740.128 493.453 739.292 486.768 738.31Z"/><path fill="white" d="M485.444 860.631L485.899 779.377C485.991 767.797 485.055 755.625 486.212 744.144C493.512 744.863 500.791 746.25 508.014 747.5L507.981 822.767C507.993 836.736 508.412 850.815 507.908 864.768C500.378 863.731 492.902 862.094 485.444 860.631Z"/><path fill="white" d="M535.55 869.315C535.118 841.03 535.503 812.703 535.536 784.414L535.468 759.28C535.457 754.508 535.152 749.437 535.796 744.704C548.315 746.189 560.812 747.85 573.285 749.686C573.88 763.703 573.33 777.966 573.294 792.012L572.851 875.951C560.401 874.09 547.849 872.013 535.55 869.315Z"/><path fill="white" d="M468.016 759.51C471.278 757.315 474.835 755.433 478.229 753.441L479.029 753.894C480.259 757.439 479.346 776.833 479.341 781.904C479.528 807.84 479.422 833.776 479.021 859.709C472.014 858.718 465.027 857.595 458.062 856.341C457.061 856.03 456.164 855.597 455.219 855.149C454.305 852.812 458.693 836.841 459.484 833.02C464.512 808.747 468.699 784.391 468.016 759.51Z"/><path fill="white" d="M354.505 821.381C359.681 821.631 366.718 821.446 371.491 819.316C376.677 817.002 378.638 811.006 383.46 807.99C391.045 803.246 399.357 799.417 407.104 794.888L439.989 775.938C447.158 771.772 454.143 767.362 461.485 763.493C462.499 772.112 460.645 782.347 459.663 790.92C453.871 841.514 434.115 891.885 434.48 942.861C407.101 945.695 378.652 946.955 351.294 943.318C350.251 943.111 349.629 942.996 348.811 942.295C348.384 938.263 349.158 933.634 349.437 929.574C349.975 922.085 350.43 914.589 350.803 907.089C352.238 878.529 353.472 849.959 354.505 821.381Z"/><path fill="white" d="M579.516 765.614C590.45 769.04 596.486 766.324 607.254 764.124L607.852 764.169C608.611 765.309 608.485 766.158 608.515 767.485C608.631 772.695 608.15 778.04 608.035 783.268L607.357 818.054C606.882 839.192 607.06 860.629 605.528 881.715C597.71 880.468 589.908 879.119 582.125 877.668C581.181 877.531 580.432 877.264 579.551 876.902C579.008 875.94 579.516 775.924 579.516 765.614Z"/><path fill="white" d="M672.642 779.741C685.181 777.878 697.47 774.931 709.925 772.665L711.759 772.487L712.37 773.013C713.108 788.757 712.267 804.824 712.087 820.597L711.212 899.515L680.405 894.082C677.283 893.543 674.195 892.886 671.098 892.219C671.091 854.723 672.476 817.24 672.642 779.741Z"/><path fill="white" d="M633.654 775.672C637.222 774.844 640.737 774.194 644.366 773.698C645.348 773.565 644.841 773.5 645.859 774.039C646.291 777.022 645.091 780.655 644.865 783.739C644.409 789.95 644.261 796.214 643.995 802.436C642.681 830.6 641.967 858.789 641.852 886.984L636.368 886.229L633.985 885.704C633.106 884.411 633.115 883.387 633.015 881.82C632.142 868.14 632.94 854.008 633.123 840.284L633.654 775.672Z"/><path fill="white" d="M718.612 791.732C726.671 789.613 735.076 788.246 743.254 786.633C743.856 786.512 744.299 786.622 744.898 786.715C745.555 787.879 745.484 789.343 745.482 790.646C745.467 800.482 744.883 810.427 744.767 820.288C744.606 848.734 744.25 877.178 743.7 905.618C737.189 904.18 730.658 902.835 724.109 901.583L717.271 900.222C718.311 864.12 718.44 827.853 718.612 791.732Z"/><path fill="white" d="M774.362 798.87C784.173 794.491 795.326 790.491 805.785 788.059C806.221 788.05 806.673 788.227 807.093 788.338C808.374 793.536 807.256 815.154 807.199 822.164L806.486 916.007C797.936 914.753 789.42 913.109 780.907 911.615L773.066 910.017C773.736 872.982 772.886 835.885 774.362 798.87Z"/></svg>