<?xml version="1.0" encoding="utf-8" ?><svg xmlns="http://www.w3.org/2000/svg" xmlns:xlink="http://www.w3.org/1999/xlink" width="1024" height="1024" viewBox="0 0 1024 1024"><path fill="#FEFEFE" d="M0 0L1024 0L1024 1024L0 1024L0 0ZM937.255 84.2157L178.78 123.217C176.923 123.322 175.06 124.549 173.569 125.586C173.118 141.632 172.968 157.81 173.275 173.859C173.4 180.399 173.946 186.921 174.006 193.464L174.532 291.42L174.774 580.449L174.98 646.371C175.121 660.467 175.751 674.531 175.493 688.639C175.278 700.398 174.089 712.175 173.679 723.94C173.041 742.277 173.435 760.89 171.086 779.104C170.09 786.823 168.228 796.677 162.259 802.267C151.263 812.562 124.386 804.693 110.187 807.754C102.409 809.43 99.4975 815.921 92.9121 818.993C84.7679 822.793 76.5157 819.035 65.9797 826.88C63.5747 828.671 61.6269 830.964 61.3937 834.065C61.1894 836.783 62.1876 839.874 63.9812 841.926C72.8768 852.1 100.309 848.749 113.253 855.354C121.748 859.689 126.246 868.41 136.833 868.651C145.517 868.849 155.001 866.61 163.544 865.157C177.778 862.736 191.743 860.779 206.208 861.252C210.496 861.392 215.124 861.284 219.277 862.486C225.376 864.252 230.793 869.619 236.432 872.583C250.737 880.102 266.592 886.261 282.129 890.658C303.908 896.31 326.308 900.078 348.511 903.696C363.233 906.094 378.08 908.168 392.573 911.757C410.727 916.252 428.931 921.906 446.659 927.862C460.178 932.404 474.086 938.554 488.315 940.327C499.155 941.677 509.789 939.866 519.298 934.311C528.621 928.864 535.761 918.638 538.421 908.246C541.522 896.13 539.284 884.399 532.956 873.751C524.55 859.609 511.971 851.322 497.299 844.624C505.623 846.804 513.714 849.927 521.968 852.391C539.729 857.764 557.675 862.504 575.773 866.604C596.018 871.398 619.419 878.064 640.346 875.543C646.967 874.745 652.784 872.431 658.512 869.075L664.049 865.807C668.355 866.804 674.057 868.334 678.31 866.753C679.215 865.795 679.286 865.861 679.287 864.558C676.45 863.168 670.058 864.173 666.672 863.888L671.528 859.117C674.719 859.684 681.902 861.632 684.786 859.643C684.907 859.56 685.002 859.443 685.11 859.343C684.566 858.251 683.383 858.004 682.233 857.66C679.726 856.911 676.447 857.111 673.825 857.011L676.046 852.756C678.737 852.718 684.345 853.31 686.339 851.341C686.438 851.243 686.507 851.118 686.591 851.006C684.908 849.196 681.972 849.425 679.653 849.342L678.647 849.308C682.664 839.922 685.349 830.136 685.682 819.884C703.287 824.713 721.926 827.312 739.879 830.771L862.296 853.457C880.338 856.578 898.357 859.832 916.351 863.217C923.937 864.643 931.789 865.725 939.269 867.591C942.538 868.407 945.546 869.847 948.763 870.736C952.651 869.811 955.503 868.851 957.703 865.233C958.731 863.542 959.195 861.771 959.345 859.809C959.723 854.845 959.493 849.69 959.515 844.707L959.544 814.376C959.434 788.874 959.523 763.372 959.81 737.872L960.292 236.64L960.44 148.019C960.474 135.524 962.036 102.61 958.932 92.2256C957.774 88.3533 954.793 86.1568 951.561 84.0231C946.764 83.8841 942.044 83.9907 937.255 84.2157ZM578.155 889.688C573.616 890.207 566.01 890.789 562.905 894.565C562.184 895.441 562.223 895.755 562.204 896.836C563.149 898.075 564.537 898.346 566.022 898.511C569.282 898.872 572.96 898.166 576.122 897.413C580.608 896.285 588.888 895.265 592.255 892.103L592.244 891.197C589.022 888.614 582.106 889.255 578.155 889.688ZM207.559 902.597C206.873 904.029 206.577 904.279 206.881 905.887C208.383 907.604 210.352 907.674 212.466 907.808C213.993 907.905 215.439 907.926 216.962 907.753C217.788 906.397 218.072 906.189 217.955 904.555C216.857 903.115 215.713 902.747 213.988 902.51C211.793 902.209 209.749 902.36 207.559 902.597ZM274.124 909.587C272.538 910.094 271.407 910.461 270.17 911.6L269.982 912.626C271.314 914.244 273.67 914.876 275.742 915.068C277.605 915.241 279.505 915.261 281.376 915.322C282.69 915.259 283.369 915.197 284.477 914.465C284.703 913.343 284.699 913.016 283.944 912.019C282.203 909.72 277.973 909.431 275.406 909.523C274.978 909.54 274.551 909.561 274.124 909.587ZM384.71 925.635C383.212 926.063 381.981 926.346 380.783 927.409L380.413 928.404C381.726 930.304 384.031 930.691 386.234 931.069C389.261 931.589 392.552 931.534 395.625 931.534C397.03 931.132 397.237 931.098 398.187 930.007C398.264 929.275 398.47 929.029 397.963 928.402C396.176 926.194 391.01 925.624 388.315 925.528C387.112 925.485 385.911 925.548 384.71 925.635Z"/><path fill="#020304" d="M173.569 125.586C175.06 124.549 176.923 123.322 178.78 123.217L937.255 84.2157C942.044 83.9907 946.764 83.8841 951.561 84.0231C954.793 86.1568 957.774 88.3533 958.932 92.2256C962.036 102.61 960.474 135.524 960.44 148.019L960.292 236.64L959.81 737.872C959.523 763.372 959.434 788.874 959.544 814.376L959.515 844.707C959.493 849.69 959.723 854.845 959.345 859.809C959.195 861.771 958.731 863.542 957.703 865.233C955.503 868.851 952.651 869.811 948.763 870.736C945.546 869.847 942.538 868.407 939.269 867.591C931.789 865.725 923.937 864.643 916.351 863.217C898.357 859.832 880.338 856.578 862.296 853.457L739.879 830.771C721.926 827.312 703.287 824.713 685.682 819.884C685.349 830.136 682.664 839.922 678.647 849.308L679.653 849.342C681.972 849.425 684.908 849.196 686.591 851.006C686.507 851.118 686.438 851.243 686.339 851.341C684.345 853.31 678.737 852.718 676.046 852.756L673.825 857.011C676.447 857.111 679.726 856.911 682.233 857.66C683.383 858.004 684.566 858.251 685.11 859.343C685.002 859.443 684.907 859.56 684.786 859.643C681.902 861.632 674.719 859.684 671.528 859.117L666.672 863.888C670.058 864.173 676.45 863.168 679.287 864.558C679.286 865.861 679.215 865.795 678.31 866.753C674.057 868.334 668.355 866.804 664.049 865.807L658.512 869.075C652.784 872.431 646.967 874.745 640.346 875.543C619.419 878.064 596.018 871.398 575.773 866.604C557.675 862.504 539.729 857.764 521.968 852.391C513.714 849.927 505.623 846.804 497.299 844.624C511.971 851.322 524.55 859.609 532.956 873.751C539.284 884.399 541.522 896.13 538.421 908.246C535.761 918.638 528.621 928.864 519.298 934.311C509.789 939.866 499.155 941.677 488.315 940.327C474.086 938.554 460.178 932.404 446.659 927.862C428.931 921.906 410.727 916.252 392.573 911.757C378.08 908.168 363.233 906.094 348.511 903.696C326.308 900.078 303.908 896.31 282.129 890.658C266.592 886.261 250.737 880.102 236.432 872.583C230.793 869.619 225.376 864.252 219.277 862.486C215.124 861.284 210.496 861.392 206.208 861.252C191.743 860.779 177.778 862.736 163.544 865.157C155.001 866.61 145.517 868.849 136.833 868.651C126.246 868.41 121.748 859.689 113.253 855.354C100.309 848.749 72.8768 852.1 63.9812 841.926C62.1876 839.874 61.1894 836.783 61.3937 834.065C61.6269 830.964 63.5747 828.671 65.9797 826.88C76.5157 819.035 84.7679 822.793 92.9121 818.993C99.4975 815.921 102.409 809.43 110.187 807.754C124.386 804.693 151.263 812.562 162.259 802.267C168.228 796.677 170.09 786.823 171.086 779.104C173.435 760.89 173.041 742.277 173.679 723.94C174.089 712.175 175.278 700.398 175.493 688.639C175.751 674.531 175.121 660.467 174.98 646.371L174.774 580.449L174.532 291.42L174.006 193.464C173.946 186.921 173.4 180.399 173.275 173.859C172.968 157.81 173.118 141.632 173.569 125.586ZM948.338 89.2284C948.88 116.158 948.677 143.072 949.022 170C949.113 177.081 949.803 184.146 949.923 191.23L950.888 322.487C950.79 360.485 949.27 398.431 949.386 436.453C949.447 456.267 949.132 476.159 949.619 495.963C950.077 514.616 951.527 533.103 951.539 551.8C951.546 563.651 950.816 575.415 950.537 587.251C949.95 610.483 949.722 633.723 949.852 656.963C950.021 678.125 952.063 699.209 952.031 720.348C952.008 735.306 950.359 750.153 950.015 765.082C949.262 797.77 949.623 830.751 949.798 863.459C951.441 863.423 952.011 863.564 953.408 862.636C955.593 857.938 953.692 735.445 953.742 721.392L955.058 315.489L954.996 189.788C955.036 161.125 955.53 132.385 955.004 103.731C954.946 100.568 954.914 95.3991 953.628 92.5013C953.174 91.4769 952.321 90.2093 951.259 89.7374C950.419 89.3642 949.235 89.3223 948.338 89.2284ZM915.757 90.7072L425.376 117.277L257.168 126.593C238.926 127.515 220.693 128.589 202.469 129.813C195.872 130.272 189.04 130.291 182.506 131.163L184.513 495.451L184.888 617.365L185.035 647.531C185.143 654.994 185.591 662.363 185.221 669.832C189.593 655.35 193.616 641.204 201.631 628.19C198.114 624.843 194.681 620.685 194.557 615.585C194.324 606.055 208.396 582.905 213.517 573.732C213.133 550.268 213.834 526.675 213.872 503.195L213.719 357.956L213.628 230.049C213.602 208.715 212.969 187.224 213.523 165.908C213.577 163.841 213.745 161.955 214.582 160.047C217.306 157.828 228.711 160.254 232.352 160.375C239.209 160.604 246.066 159.841 252.894 159.34L277.353 157.753L456.114 146.706L507.038 143.631C514.958 143.131 523.565 141.78 531.454 142.208C532.922 144.147 532.781 147.734 532.854 150.155C533.353 166.72 532.952 183.423 532.947 200.003L532.779 301.552L532.985 573.602C533.041 591.21 532.982 608.818 532.808 626.425C532.661 636.456 531.473 647.418 532.591 657.357C533.265 663.349 537.326 669.39 539.869 674.797C542.42 680.279 544.843 685.82 547.135 691.416C550.733 700.431 554.945 710.374 556.897 719.848C557.762 724.043 556.982 728.509 558.088 732.55L558.674 732.524C560.611 727.646 560.373 665.78 560.491 655.202L561.196 311.9L561.183 187.688C561.314 172.036 560.602 156.339 561.587 140.69L633.459 136.24C649.393 135.173 665.548 133.504 681.504 133.403C695.852 132.267 710.258 131.76 724.624 130.838C763.43 128.099 802.261 125.706 841.11 123.657L878.239 121.305C886.572 120.749 895.995 119.196 904.216 120.476C907.651 124.902 906.711 138.877 906.802 144.74C907.504 217.193 907.747 289.65 907.531 362.106C907.99 425.492 908.001 488.88 907.565 552.266C907.551 557.011 908.728 561.705 908.686 566.431C908.639 571.709 907.922 577.024 907.737 582.311C907.427 591.146 907.56 600.015 907.551 608.855C907.512 646.631 906.888 684.513 907.523 722.279C907.702 732.927 908.529 743.613 908.556 754.251C908.585 765.466 907.596 776.708 907.47 787.929C907.376 796.232 908.448 805.121 907.415 813.333C907.15 815.443 906.812 818.242 905.043 819.621C903.02 821.197 900.99 820.985 898.602 820.597C877.67 817.195 856.901 812.963 836.05 809.125L712.588 786.203L635.316 771.404C613.7 767.687 592.148 763.609 570.668 759.169C565.837 758.195 560.912 757.536 556.11 756.445C554.822 756.153 553.685 755.659 552.838 754.59C552.061 753.608 552.108 753.129 552.237 751.991C553.329 750.864 554.612 750.735 556.11 750.725C563.309 750.68 579.15 754.896 587.072 756.335C618.58 762.013 650.034 767.988 681.429 774.262L816.63 799.305C845.029 804.488 873.753 809.265 901.889 815.726C902.11 812.198 902.441 808.637 902.269 805.103L696.896 764.917L608.04 747.636C590.885 744.352 573.536 740.442 556.243 738.106C553.458 747.011 549.318 753.545 543.298 760.59C554.693 764.779 569.245 776.214 578.983 778.271C590.755 780.757 606.617 782.256 618.554 782.053C642.029 781.654 669.299 773.482 681.8 800.31C682.948 802.774 684.028 805.404 684.892 807.983L844.863 839.248C864.85 843.27 884.874 847.107 904.932 850.759C916.099 852.902 927.243 855.391 938.467 857.197C939.171 828.551 940.66 800.032 940.437 771.36C940.341 758.915 939.189 746.543 938.673 734.118C938.343 726.166 938.515 718.157 938.548 710.197C938.606 695.889 939.466 681.733 939.944 667.447C940.42 653.229 940.477 638.844 940.349 624.617C940.163 604.116 938.38 583.602 938.276 563.127C938.028 514.262 939.596 465.411 939.647 416.554L938.564 274.752C938.456 268.038 937.338 261.37 937.211 254.654C936.99 243.02 938.382 231.581 938.61 220.002C939.015 199.392 938.193 178.83 938.139 158.229C938.097 142.182 939.055 125.833 938.061 109.825C937.687 103.802 936.571 97.0852 932.239 92.558C931.456 91.7402 930.603 90.9854 929.756 90.2362C925.168 90.3683 920.299 90.165 915.757 90.7072ZM894.616 125.701L709.348 137.289C661.801 140.331 614.206 143.967 566.61 146.093C567.317 167.315 566.468 188.501 566.439 209.729L566.45 337.472L566.396 733.78C587.838 738.008 609.586 741.382 630.904 746.123C653.98 751.164 677.23 755.207 700.428 759.627L815.67 781.787C834.697 785.288 853.652 789.178 872.52 793.454C882.411 795.625 892.641 797.377 902.216 800.718C902.477 778.841 900.961 756.987 901.099 735.076C902.331 610.048 902.609 485.012 901.934 359.979L901.454 196.333C901.35 172.737 901.687 149.05 901.093 125.465L894.616 125.701ZM526.955 147.779C430.988 155.471 334.649 158.736 238.662 166.194C238.828 175.071 238.486 183.925 238.529 192.8L238.804 267.229L239.16 434.151C239.18 453.172 239.101 472.192 238.921 491.212C238.829 502.722 238.362 514.401 239.099 525.889C249.193 495.698 255.397 477.132 277.112 452.559C271.426 449.255 267.272 444.097 265.599 437.656C264.084 431.821 265.485 425.959 268.609 420.901C273.218 413.438 282.22 407.76 290.76 406.058C296.679 404.878 302.499 405.652 307.484 409.191C312.855 413.004 315.176 418.238 317.414 424.164C335.255 415.994 354.565 408.902 374.427 408.434C390.563 408.124 406.869 410.444 420.606 419.623C425.768 413.956 432.033 408.232 440.135 407.756C444.952 407.473 449.667 409.376 453.181 412.634C457.08 416.274 459.284 421.376 459.26 426.71C459.277 434.631 454.455 439.401 449.539 444.852C454.032 450.957 459.293 456.716 462.849 463.438C474.942 463.655 488.114 469.991 496.492 478.57C503.88 486.136 509.437 497.337 509.263 508.067C509.065 520.257 503.291 532.46 494.454 540.776C492.962 542.18 491.311 543.39 489.655 544.59C490.771 549.783 491.393 554.974 491.931 560.251C492.162 562.521 492.042 565.367 492.642 567.506C498.618 568.313 509.283 568.21 513.235 573.429C513.635 573.966 514.018 574.515 514.384 575.076C515.693 593.905 514.499 612.817 515.166 631.668C519.425 638.123 523.684 644.561 527.482 651.302C527.624 603.7 528.615 149.652 526.955 147.779ZM219.944 165.289L220.263 463.456C220.452 492.316 219.692 521.315 220.4 550.154C223.81 548.583 226.827 547.19 230.594 546.726L231.792 546.72C232.661 545.569 232.52 543.815 232.552 542.413C232.81 531.111 232.447 519.671 232.454 508.353L232.465 433.226L232.572 294.888C232.545 288.656 232.129 282.434 232.07 276.201L231.959 213.161C231.878 197.637 231.461 182.158 231.558 166.622C227.638 166.393 223.823 165.888 219.944 165.289ZM292.881 411.605C285.562 413.354 277.981 416.902 273.755 423.444C271.333 427.152 270.494 431.674 271.423 436.005C272.724 441.843 276.792 445.121 281.453 448.322L285.363 445.064C290.228 441.435 295.07 437.718 300.068 434.274C303.103 432.184 307.189 430.179 309.797 427.662C310.179 427.294 310.233 427.201 310.307 426.674C310.782 423.262 308.792 418.29 306.571 415.737C304.109 412.908 300.944 411.584 297.235 411.393C295.763 411.318 294.339 411.415 292.881 411.605ZM439.724 413.125C433.838 414.575 429.781 418.249 425.19 421.976C431.273 427.085 436.804 432.549 442.412 438.169L445.313 440.144C449.485 435.925 453.79 431.398 453.601 425.008C453.512 421.998 452.296 419.098 450.081 417.037C447.154 414.314 443.568 413.501 439.724 413.125ZM370.104 415.297C337.32 417.812 299.028 436.019 277.452 461.104C256.079 485.954 247.868 518.915 240.486 550.02C304.247 575.975 366.294 587.984 435.297 581.857C452.004 580.374 470.884 578.071 486.59 572.078C485.562 564.308 485.101 556.488 484.146 548.718C469.035 555.66 460.344 554.82 444.443 551.189C441.355 556.737 437.328 561.117 430.984 562.873C424.655 564.626 416.957 563.234 411.376 559.808C409.068 558.391 406.653 556.266 405.949 553.54C405.594 552.169 405.777 550.755 406.521 549.555C408.375 546.563 411.941 545.956 415.137 545.35C415.551 545.272 415.966 545.196 416.381 545.122C422.207 544.423 428.046 543.846 433.895 543.391C422.651 531.131 417.495 519.574 416.509 503.022C413.327 503.051 410.247 503.099 407.093 503.573C407.133 518.804 403.519 532.565 392.466 543.684C382.827 553.381 368.688 558.59 355.111 558.505C342.862 558.43 330.229 552.892 321.657 544.156C313.551 535.895 308.561 523.223 308.672 511.668C308.683 510.498 308.738 509.33 308.835 508.165C304.948 509.005 298.483 510.976 294.809 508.944C292.662 505.61 292.388 499.588 293.148 495.713C293.396 494.445 293.671 493.484 294.88 492.857C298.511 490.975 308.79 491.565 313.155 491.467C317.584 480.812 329.452 470.88 339.967 466.591C352.808 461.353 367.249 461.121 380.005 466.69C391.421 471.674 398.459 480.202 404.589 490.758C409.81 490.41 414.841 490.024 420.052 490.838C424.638 480.125 433.391 472.209 444.146 467.9C447.95 466.376 451.854 465.313 455.815 464.291C452.773 459.117 448.748 454.506 444.806 449.997C432.368 435.771 417.883 422.245 399.138 417.302C389.976 414.886 379.527 414.37 370.104 415.297ZM357.504 473.271C337.143 473.651 320.934 490.447 321.28 510.81C321.625 531.172 338.394 547.409 358.757 547.098C379.168 546.786 395.452 529.968 395.106 509.557C394.76 489.147 377.915 472.891 357.504 473.271ZM460.95 474.674C450.439 476.341 441.462 479.845 435.018 488.752C429.918 495.801 428.225 504.354 429.711 512.864C431.383 522.443 436.793 531.372 444.796 536.949C447.158 538.595 449.625 539.614 452.286 540.646C461.083 542.879 470.349 541.901 478.181 537.199C479.846 536.199 481.298 535.104 482.699 533.764C478.973 512.808 472.559 493.773 462.004 475.243C461.73 475.084 461.253 474.737 460.95 474.674ZM468.794 475.436C477.291 493.165 484.257 510.009 487.435 529.559C488.708 527.829 490.053 526.121 491.219 524.318C495.4 516.537 496.965 508.474 494.426 499.848C491.913 491.307 485.61 483.265 477.765 479.014C474.931 477.478 471.861 476.402 468.794 475.436ZM251.529 580.488C252.021 582.978 253.8 584.042 255.824 585.391C260.871 588.757 269.975 593.823 276.1 593.954C276.254 593.084 276.669 592.228 276.185 591.427C274.459 588.571 256.939 581.116 253.698 580.55C252.944 580.418 252.286 580.428 251.529 580.488ZM216.733 586.325C216.586 589.615 218.537 591.661 220.664 594.006C234.14 608.864 271.117 633.815 290.482 634.598C291.3 634.628 292.119 634.638 292.938 634.626C292.945 633.32 293.265 632.183 292.279 631.173C290.42 629.269 269.156 622.025 264.194 619.361C254.969 614.407 245.989 609.162 237.533 602.97C232.228 599.085 221.903 588.346 216.733 586.325ZM345.903 595.433C346.212 596.673 346.102 597.279 347.267 597.956C350.913 600.075 368.44 603.273 373.307 603.515C373.305 601.837 373.475 601.255 372.54 599.821C366.683 597.082 352.594 595.534 345.903 595.433ZM398.229 610.687C398.809 611.707 398.835 611.871 400.01 612.225C407.643 614.529 420.564 615.577 428.575 615.736C428.194 614.349 428.269 613.596 426.859 612.876C423.123 610.969 403.097 610.327 398.229 610.687ZM485.452 610.7C481.198 611.162 471.528 610.479 468.217 612.468L467.916 613.271C468.846 614.482 469.772 614.573 471.253 614.764C471.959 614.85 472.666 614.927 473.374 614.995C478.423 615.152 487.222 616.045 491.451 612.86L491.598 611.529C489.368 610.448 487.881 610.361 485.452 610.7ZM315.146 614.92C319.479 621.634 335.798 628.71 343.513 630.29C345.054 630.605 346.072 630.526 347.579 630.113C347.432 628.597 347.486 627.979 346.23 627.022C343.688 625.085 317.834 614.99 315.146 614.92ZM206.392 630.653C202.454 642.452 197.239 653.668 193.75 665.646C180.481 711.193 173.148 775.729 195.052 819.687C212.635 854.973 240.072 870.391 275.895 882.202C289.164 886.576 302.563 889.089 316.274 891.613C341.996 896.348 367.946 899.538 393.608 904.516C394.4 898.747 395.032 892.852 396.346 887.175C400.741 868.185 410.751 849.676 426.426 837.686C436.426 830.038 445.82 828.488 458.158 830.258C474.81 832.647 491.562 836.4 507.722 841.058C520.549 844.755 533.158 849.096 546.089 852.44C540.624 835.42 541.708 821.778 550.013 805.802C554.731 796.727 562.714 788.483 571.738 783.668C560.924 777.786 548.529 768.522 537.009 764.893C534.111 766.402 531.486 767.452 528.283 768.18C528.268 772.361 529.423 779.573 526.173 782.652C525.976 782.838 525.772 783.016 525.572 783.199C512.656 792.28 494.503 800.035 484.303 811.916C460.162 810.901 436.06 810.874 411.911 809.519C404.86 809.124 396.304 809.51 389.575 807.417C389.097 799.135 388.916 790.781 388.238 782.52C345.007 786.237 274.989 777.408 240.834 748.965C239.038 747.47 237.611 745.892 236.579 743.792L236.706 742.6C237.445 742.231 237.489 742.013 238.337 742.256C240.016 742.736 241.705 744.406 243.045 745.531C249.373 750.846 257.485 754.7 265.07 757.867C299.206 772.123 336.099 778.2 373.026 777.485C381.6 777.32 392.767 777.298 400.547 773.406C403.778 771.789 406.006 769.33 407.076 765.859C408.426 761.483 408.379 755.187 406.069 751.198C400.566 741.693 378.75 735.237 368.712 730.391C361.893 727.132 355.33 723.364 349.077 719.119C331.694 707.121 315.943 691.655 300.732 677.062C294.49 671.073 288.097 662.475 280.608 658.236C272.056 653.395 260.441 652.206 251.053 649.302C235.406 644.46 220.833 638.363 206.392 630.653ZM399.829 634.536C409.387 641.393 431.678 641.692 443.112 639.789C443.647 639.7 444.18 639.594 444.71 639.474C444.554 638.072 444.144 637.967 443.231 636.951C439.49 635.492 426.923 636.495 421.979 636.238C414.812 635.865 406.885 634.008 399.829 634.536ZM514.374 643.525C500.698 660.606 456.465 668.718 435.026 671.109C388.309 676.32 337.092 672.934 291.889 659.556C300.265 668.1 308.871 676.416 317.697 684.495C338.24 703.658 359.636 722.763 386.769 731.998C386.504 723.131 385.492 714.227 385.438 705.381C387.933 701.434 389.636 700.325 394.124 699.232C396.787 698.804 400.573 698.677 402.363 696.395C402.993 695.592 403.208 694.634 403.467 693.673C404.999 692.122 407.356 691.996 409.433 692.013C424.8 692.138 447.296 699.95 462.177 704.646L461.783 704.286C453.083 696.431 434.742 692.483 423.288 689.997C420.371 689.364 416.975 689.322 414.194 688.382C412.592 687.84 410.781 686.744 410.171 685.119C410.853 683.951 411.428 683.728 412.757 683.445C420.155 681.869 450.558 692.075 458.087 695.994C463.685 698.907 468.379 703.124 473.819 706.191C477.215 692.074 487.004 681.465 499.322 673.988C500.522 673.259 501.805 672.686 503.097 672.142C504.962 673.693 506.799 675.316 508.754 676.752C511.13 675.166 512.568 674.166 515.493 674.687C516.621 675.438 517.258 676.101 517.58 677.476C517.892 678.812 517.308 680.662 517.016 681.992C520.203 680.655 524.709 678.166 528.158 679.943C529.635 680.704 530.262 682.216 530.548 683.761C531.614 689.516 530.295 697.036 530.396 702.997C533.672 699.962 535.833 697.037 540.491 696.643L541.014 695.931C538.778 687.862 519.555 649.568 514.374 643.525ZM501.967 677.898C495.906 681.969 478.645 696.393 478.08 704.077C478.023 704.861 478.077 704.974 478.195 705.664L479.061 706.249C482.621 700.144 486.195 694.561 491.237 689.528C493.924 686.846 501.104 681.727 502.737 678.979C502.267 678.039 502.574 678.357 501.967 677.898ZM511.559 679.972C501.342 685.801 492.04 693.413 485.591 703.313L485.986 703.727C490.896 698.721 496.091 694.288 501.659 690.036C504.538 687.838 507.755 685.773 510.451 683.381C511.487 682.461 511.896 681.929 512.037 680.562L511.559 679.972ZM524.662 687.431C511.538 694.791 497.614 702.264 485.562 711.285L485.551 768.155C485.543 779.67 485.076 791.439 486.074 802.911C487.441 801.838 488.787 800.724 490.222 799.742C500.907 793.31 512.276 786.897 522.035 779.105C521.996 774.142 522.052 769.178 522.205 764.217C515.525 752.294 515.615 740.21 519.222 727.202C520.759 721.659 523.466 716.358 524.791 710.797C526.39 704.083 525.65 694.7 525.43 687.758L524.662 687.431ZM406.67 696.696C408.441 698.392 425.431 700.912 429.046 701.718C436.26 703.327 443.758 706.074 451.066 706.914C442.741 702.318 415.751 695.717 406.67 696.696ZM541.534 700.475C530.91 708.219 525.813 722.77 523.891 735.332C522.892 741.862 522.184 753.887 526.108 759.54C526.871 760.639 527.642 761.191 528.805 761.815C530.047 761.785 530.802 761.55 531.937 761.05C540.722 755.851 547.502 748.107 550.044 738.051C553.017 726.295 549.235 712.16 542.823 702.128C542.429 701.513 542.015 701.022 541.534 700.475ZM390.332 707.769C391.33 716.432 391.488 725.07 392.081 733.759C401.112 738.181 410.049 742.225 413.563 752.507C415.497 758.166 415.123 764.869 412.27 770.157C409.338 775.595 404.184 779.286 398.299 780.928C396.661 781.37 395.019 781.797 393.374 782.208C393.705 788.89 394.377 795.717 393.42 802.368C415.968 805.032 438.46 805.032 461.125 805.084C467.719 805.18 474.277 805.35 480.859 805.769L481.084 713.984C450.703 713.744 420.573 710.216 390.332 707.769ZM580.127 785.178C578.704 787.609 576.187 788.518 573.715 789.77C578.071 790.838 584.711 792.697 587.557 796.322L587.666 797.5C586.501 798.447 585.469 798.555 583.979 798.358C579.374 797.748 576.069 794.6 572.688 791.716C562.779 798.354 557.57 810.536 555.342 821.92C553.184 832.944 554.08 845.013 558.727 855.298C568.213 857.797 577.781 859.902 587.329 862.144C602.955 865.814 617.839 869.846 634.121 868.933C647.152 867.51 659.557 861.568 667.837 851.224C675.868 841.191 679.41 826.911 677.911 814.226C676.933 805.947 673.646 798.278 666.981 793.004C663.029 789.878 658.416 788.098 653.429 787.521C640.088 785.976 626.122 789.497 612.622 788.911C607.112 788.673 601.588 788.021 596.136 787.215C591.684 786.556 585.087 784.57 580.746 785.056C580.537 785.08 580.333 785.137 580.127 785.178ZM148.474 816.958C148.339 817.768 147.947 818.524 148.461 819.238C150.845 822.546 160.921 826.582 164.812 827.286C165.022 826.401 165.495 825.49 165.021 824.664C162.684 820.585 155.772 818.416 151.387 817.46C150.425 817.244 149.453 817.076 148.474 816.958ZM100.574 827.288C100.176 828.542 99.7007 829.151 100.19 830.422C106.813 834.311 114.799 837.722 122.125 839.922C122.277 838.451 122.648 837.646 121.571 836.42C118.948 833.431 104.577 827.848 100.574 827.288ZM442.402 839.466C426.96 846.419 414.14 861.014 408.168 876.801C404.5 886.5 403.236 896.83 403.641 907.152C417.145 910.594 430.743 915.133 443.898 919.737C459.848 925.32 476.633 933.62 493.764 933.623C504.832 933.312 515.17 929.61 522.842 921.362C529.419 914.291 532.825 905.185 532.339 895.531C531.683 882.497 523.801 871.138 514.301 862.706C499.838 849.866 461.655 838.318 442.402 839.466ZM161.827 842.675C162.127 844.328 162.136 845 163.53 846.003C166.485 848.128 172.435 850.618 176.029 850.72L177.291 850.181C177.165 848.879 177.267 848.621 176.186 847.768C172.745 845.055 166.142 843.187 161.827 842.675Z"/><path fill="#FEFEFE" d="M949.798 863.459C949.623 830.751 949.262 797.77 950.015 765.082C950.359 750.153 952.008 735.306 952.031 720.348C952.063 699.209 950.021 678.125 949.852 656.963C949.722 633.723 949.95 610.483 950.537 587.251C950.816 575.415 951.546 563.651 951.539 551.8C951.527 533.103 950.077 514.616 949.619 495.963C949.132 476.159 949.447 456.267 949.386 436.453C949.27 398.431 950.79 360.485 950.888 322.487L949.923 191.23C949.803 184.146 949.113 177.081 949.022 170C948.677 143.072 948.88 116.158 948.338 89.2284C949.235 89.3223 950.419 89.3642 951.259 89.7374C952.321 90.2093 953.174 91.4769 953.628 92.5013C954.914 95.3991 954.946 100.568 955.004 103.731C955.53 132.385 955.036 161.125 954.996 189.788L955.058 315.489L953.742 721.392C953.692 735.445 955.593 857.938 953.408 862.636C952.011 863.564 951.441 863.423 949.798 863.459Z"/><path fill="#FEFEFE" d="M182.506 131.163C189.04 130.291 195.872 130.272 202.469 129.813C220.693 128.589 238.926 127.515 257.168 126.593L425.376 117.277L915.757 90.7072C920.299 90.165 925.168 90.3683 929.756 90.2362C930.603 90.9854 931.456 91.7402 932.239 92.558C936.571 97.0852 937.687 103.802 938.061 109.825C939.055 125.833 938.097 142.182 938.139 158.229C938.193 178.83 939.015 199.392 938.61 220.002C938.382 231.581 936.99 243.02 937.211 254.654C937.338 261.37 938.456 268.038 938.564 274.752L939.647 416.554C939.596 465.411 938.028 514.262 938.276 563.127C938.38 583.602 940.163 604.116 940.349 624.617C940.477 638.844 940.42 653.229 939.944 667.447C939.466 681.733 938.606 695.889 938.548 710.197C938.515 718.157 938.343 726.166 938.673 734.118C939.189 746.543 940.341 758.915 940.437 771.36C940.66 800.032 939.171 828.551 938.467 857.197C927.243 855.391 916.099 852.902 904.932 850.759C884.874 847.107 864.85 843.27 844.863 839.248L684.892 807.983C684.028 805.404 682.948 802.774 681.8 800.31C669.299 773.482 642.029 781.654 618.554 782.053C606.617 782.256 590.755 780.757 578.983 778.271C569.245 776.214 554.693 764.779 543.298 760.59C549.318 753.545 553.458 747.011 556.243 738.106C573.536 740.442 590.885 744.352 608.04 747.636L696.896 764.917L902.269 805.103C902.441 808.637 902.11 812.198 901.889 815.726C873.753 809.265 845.029 804.488 816.63 799.305L681.429 774.262C650.034 767.988 618.58 762.013 587.072 756.335C579.15 754.896 563.309 750.68 556.11 750.725C554.612 750.735 553.329 750.864 552.237 751.991C552.108 753.129 552.061 753.608 552.838 754.59C553.685 755.659 554.822 756.153 556.11 756.445C560.912 757.536 565.837 758.195 570.668 759.169C592.148 763.609 613.7 767.687 635.316 771.404L712.588 786.203L836.05 809.125C856.901 812.963 877.67 817.195 898.602 820.597C900.99 820.985 903.02 821.197 905.043 819.621C906.812 818.242 907.15 815.443 907.415 813.333C908.448 805.121 907.376 796.232 907.47 787.929C907.596 776.708 908.585 765.466 908.556 754.251C908.529 743.613 907.702 732.927 907.523 722.279C906.888 684.513 907.512 646.631 907.551 608.855C907.56 600.015 907.427 591.146 907.737 582.311C907.922 577.024 908.639 571.709 908.686 566.431C908.728 561.705 907.551 557.011 907.565 552.266C908.001 488.88 907.99 425.492 907.531 362.106C907.747 289.65 907.504 217.193 906.802 144.74C906.711 138.877 907.651 124.902 904.216 120.476C895.995 119.196 886.572 120.749 878.239 121.305L841.11 123.657C802.261 125.706 763.43 128.099 724.624 130.838C710.258 131.76 695.852 132.267 681.504 133.403C665.548 133.504 649.393 135.173 633.459 136.24L561.587 140.69C560.602 156.339 561.314 172.036 561.183 187.688L561.196 311.9L560.491 655.202C560.373 665.78 560.611 727.646 558.674 732.524L558.088 732.55C556.982 728.509 557.762 724.043 556.897 719.848C554.945 710.374 550.733 700.431 547.135 691.416C544.843 685.82 542.42 680.279 539.869 674.797C537.326 669.39 533.265 663.349 532.591 657.357C531.473 647.418 532.661 636.456 532.808 626.425C532.982 608.818 533.041 591.21 532.985 573.602L532.779 301.552L532.947 200.003C532.952 183.423 533.353 166.72 532.854 150.155C532.781 147.734 532.922 144.147 531.454 142.208C523.565 141.78 514.958 143.131 507.038 143.631L456.114 146.706L277.353 157.753L252.894 159.34C246.066 159.841 239.209 160.604 232.352 160.375C228.711 160.254 217.306 157.828 214.582 160.047C213.745 161.955 213.577 163.841 213.523 165.908C212.969 187.224 213.602 208.715 213.628 230.049L213.719 357.956L213.872 503.195C213.834 526.675 213.133 550.268 213.517 573.732C208.396 582.905 194.324 606.055 194.557 615.585C194.681 620.685 198.114 624.843 201.631 628.19C193.616 641.204 189.593 655.35 185.221 669.832C185.591 662.363 185.143 654.994 185.035 647.531L184.888 617.365L184.513 495.451L182.506 131.163Z"/><path fill="#FEFEFE" d="M566.61 146.093C614.206 143.967 661.801 140.331 709.348 137.289L894.616 125.701L901.093 125.465C901.687 149.05 901.35 172.737 901.454 196.333L901.934 359.979C902.609 485.012 902.331 610.048 901.099 735.076C900.961 756.987 902.477 778.841 902.216 800.718C892.641 797.377 882.411 795.625 872.52 793.454C853.652 789.178 834.697 785.288 815.67 781.787L700.428 759.627C677.23 755.207 653.98 751.164 630.904 746.123C609.586 741.382 587.838 738.008 566.396 733.78L566.45 337.472L566.439 209.729C566.468 188.501 567.317 167.315 566.61 146.093ZM739.455 142.858C734.63 145.895 730.43 151.407 726.553 155.623C705.036 179.025 685.466 204.339 665.721 229.243C652.844 245.483 639.449 261.634 627.227 278.365C617.055 292.29 607.803 306.823 598.406 321.267C596.387 324.37 591.243 330.238 590.413 333.528L591.094 333.73L591.391 333.556C603.559 320.093 615.768 306.597 627.179 292.48C635.836 281.77 643.825 270.597 652.186 259.669C664.713 243.366 677.427 227.207 690.326 211.196C698.84 200.612 707.16 189.84 715.766 179.337C721.869 171.888 738.55 153.26 742.091 145.685C741.789 144.282 741.823 144.114 740.534 143.352C740.213 143.163 739.803 143.003 739.455 142.858ZM881.968 159.947C872.836 167.552 865.27 176.657 857.65 185.723C834.832 212.871 813.496 241.428 791.474 269.233L762.253 305.435C755.628 313.78 749.391 322.422 742.797 330.791C723.696 355.038 591.692 520.899 588.038 537.502C587.928 537.998 587.988 538.146 588.065 538.586C597.182 529.709 606.082 519.811 614.235 510.033C631.998 488.731 647.971 466.1 665.181 444.369C676.788 429.714 689.207 415.722 700.871 401.099C726.729 368.68 751.488 335.453 776.891 302.682C789.447 286.483 881.687 172.057 882.021 160.444C882.026 160.278 881.985 160.112 881.968 159.947ZM814.873 169.973C812.21 173.838 812.443 181.806 813.194 186.402C813.478 188.142 813.831 190.106 815.361 191.181C816.441 191.939 818.08 191.558 819.284 191.282C822.081 187.571 821.494 181.224 820.817 176.78C820.489 174.63 820 171.622 818.037 170.32C817.264 169.808 815.796 170.001 814.873 169.973ZM602.286 195.792C601.247 199.16 599.457 205.603 601.642 208.765C602.225 209.608 603.007 210.176 604.041 210.249C604.568 210.286 605.49 210 605.971 209.893C607.572 207.319 608.139 203.448 607.404 200.488C607.051 199.068 606.418 197.598 605.18 196.729C604.304 196.113 603.309 195.982 602.286 195.792ZM752.018 201.305C749.75 203.722 748.708 206.927 748.826 210.264C748.883 211.864 749.393 213.726 750.544 214.883C751.211 215.554 752.684 215.67 753.625 215.808C756.019 213.46 756.931 210.348 756.859 206.994C756.814 204.881 756.248 203.214 754.67 201.781C753.767 201.546 752.953 201.348 752.018 201.305ZM868.245 221.785C866.743 224.42 866.338 228.386 867.08 231.355C867.402 232.64 868.123 234.562 869.383 235.192C870.436 235.717 871.466 235.637 872.609 235.63C874.243 233.228 874.751 229.848 874.258 226.975C874.001 225.473 873.191 223.536 871.858 222.675C870.655 221.899 869.639 221.898 868.245 221.785ZM629.985 232.2C628.346 234.712 627.588 238.436 628.229 241.402C628.556 242.915 629.327 244.674 630.735 245.466C631.62 245.963 632.718 246.009 633.7 246.113C635.499 243.749 636.093 240.741 635.726 237.785C635.527 236.174 634.837 234.237 633.494 233.222C632.375 232.377 631.35 232.192 629.985 232.2ZM713.59 287.318C711.263 290.038 710.592 292.621 710.805 296.246C710.915 298.129 711.795 301.017 713.389 302.179C714.321 302.859 715.549 303.006 716.656 303.157C718.734 301.448 718.914 300.475 719.167 297.807C719.428 295.048 719.411 291.32 717.571 289.038C716.678 287.93 715.863 287.461 714.459 287.361C714.17 287.341 713.879 287.333 713.59 287.318ZM863.322 289.234C860.867 292.114 860.984 297.034 861.251 300.701C861.43 303.169 861.715 305.687 863.468 307.543C864.523 307.975 865.163 308.004 866.295 307.926C868.286 306.185 868.486 305.229 868.693 302.634C868.961 299.271 868.841 292.741 866.218 290.279C865.515 289.619 864.237 289.432 863.322 289.234ZM801.002 314.302C798.282 317.709 797.977 322.209 798.419 326.485C798.651 328.733 799.078 330.412 800.57 332.128C801.596 332.67 802.238 332.703 803.389 332.697C805.846 329.026 806.579 323.736 805.808 319.389C805.501 317.659 804.836 315.749 803.221 314.815C802.512 314.404 801.794 314.362 801.002 314.302ZM629.84 326.306C627.461 328.961 627.285 332.143 627.416 335.597C627.509 338.049 628.07 340.666 629.498 342.684C630.321 343.165 630.972 343.536 631.91 343.729C634.461 341.131 635.052 337.714 634.926 334.132C634.855 332.107 634.248 329.241 632.745 327.778C631.971 327.025 630.838 326.652 629.84 326.306ZM825.767 391.483C824.127 395.432 824.359 404.011 826.15 407.985C826.72 409.251 827.548 409.812 828.762 410.429C829.684 410.418 830.528 410.4 831.432 410.212C833.261 406.611 832.959 398.881 831.667 395.139C831.217 393.836 830.398 392.056 829.02 391.495C828.102 391.122 826.734 391.383 825.767 391.483ZM617.069 402.202C615.623 404.204 614.075 406.609 614.633 409.23C614.914 410.548 615.738 411.92 616.941 412.621C617.609 413.011 617.803 413.047 618.476 413.279C620.287 411.475 621.024 409 620.931 406.437C620.879 404.996 620.436 403.974 619.558 402.836C618.697 402.515 617.989 402.266 617.069 402.202ZM745.914 408.261C744.349 411.405 743.269 415.895 744.52 419.327C744.842 420.213 745.569 421.4 746.433 421.808C747.429 422.279 748.272 422.175 749.347 422.16C750.996 419.742 751.472 416.035 750.961 413.158C750.716 411.779 750.091 409.728 748.851 408.947C747.832 408.305 747.081 408.339 745.914 408.261ZM882.33 423.372C875.962 427.068 866.626 440.625 862.033 446.854C849.783 463.469 838.946 481.261 827.312 498.326C819.641 509.454 812.043 520.632 804.518 531.86C799.873 538.808 795.031 545.7 791.112 553.096C791.315 553.928 791.101 553.685 791.461 554C802.945 541.844 813.688 529.794 824.001 516.603C833.323 504.681 881.97 434.804 883.028 424.069L882.33 423.372ZM764.349 463.866C759.977 466.379 756.59 470.579 753.332 474.358C739.959 489.873 727.84 506.252 715.474 522.55L675.782 574.486C665.952 587.351 655.6 599.798 645.711 612.61C631.396 631.285 617.473 650.257 603.952 669.515C599.81 675.401 589.978 688.053 588.004 694.402C587.776 695.135 587.756 695.578 587.889 696.332C600.321 684.214 610.814 669.81 621.42 656.101L661.953 603.588C687.065 571.031 714.11 539.908 738.383 506.715C743.773 499.343 764.387 472.391 764.515 465.178C764.523 464.73 764.439 464.303 764.349 463.866ZM881.496 482.222C880.122 483.765 878.859 485.963 878.877 488.108C878.886 489.14 879.117 490.614 879.92 491.325C880.545 491.879 881.081 492.061 881.853 492.329C883.484 490.688 884.019 489.106 883.946 486.777C883.902 485.344 883.495 483.531 882.278 482.652C882.037 482.478 881.757 482.365 881.496 482.222ZM776.098 505.768C774.559 508.099 773.288 510.966 773.834 513.829C774.086 515.146 774.679 515.906 775.534 516.905C776.197 517.193 776.878 517.532 777.562 517.766C779.067 515.147 780.696 511.064 779.768 508.007C779.513 507.165 779.05 506.707 778.439 506.121C777.553 505.869 777.044 505.777 776.098 505.768ZM652.078 531.158C649.407 533.687 649.41 536.204 649.296 539.679C649.158 543.854 649.011 549.935 651.89 553.215C652.764 553.505 653.414 553.649 654.337 553.648C657.507 549.496 657.376 544.437 656.699 539.41C656.383 537.068 655.721 533.346 653.581 531.884C652.945 531.45 652.739 531.409 652.078 531.158ZM861.562 545.624C860.584 549.086 858.537 554.372 860.369 557.795C860.948 558.876 861.913 559.441 863.062 559.81C864.332 558.072 864.594 556.884 864.775 554.766C864.797 554.501 864.826 554.236 864.847 553.971C865.029 551.625 864.954 548.401 863.512 546.45C862.866 546.158 862.236 545.847 861.562 545.624ZM826.727 572.918C818.411 575.856 796.734 610.743 790.789 619.054C780.782 633.043 770.279 646.673 760.305 660.684C750.946 673.978 741.919 687.502 733.23 701.243C726.807 711.303 719.796 721.443 714.641 732.221C713.686 734.217 712.527 736.209 712.529 738.463C712.851 739.076 713.143 739.708 713.54 740.276C719.876 735.873 733.755 713.206 739.012 705.605L795.439 623.015C802.62 612.643 810.895 603.042 817.763 592.452C821.11 587.291 826.211 580.463 827.187 574.3C827.225 574.056 827.252 573.81 827.285 573.566L826.727 572.918ZM598.522 595.858C596.166 597.225 595.205 598.347 594.436 600.986C593.718 603.453 593.74 606.156 594.999 608.453C595.638 609.619 596.528 610.392 597.775 610.86C600.669 609.254 601.654 607.496 602.521 604.306C603.014 602.493 603.101 599.877 602.13 598.193C601.225 596.624 600.206 596.279 598.522 595.858ZM720.899 604.691C717.536 608.806 716.88 616.019 717.339 621.205C717.509 623.122 717.943 625.786 719.413 627.184C720.178 627.912 721.236 628.095 722.229 628.291C725.269 623.318 726.785 614.765 725.292 609.084C724.879 607.509 724.233 606.467 723.132 605.293C722.383 605.06 721.671 604.84 720.899 604.691ZM885.73 606.368C872.254 620.392 858.94 640.708 847.333 656.785L821.4 693.246C813.688 704.104 805.861 714.812 798.861 726.16C794.898 732.586 789.41 741.124 787.784 748.543L788.103 749.662L789.375 749.889C796.864 742.228 802.79 733.053 810.253 725.342C811.81 723.733 818.223 719.539 818.081 717.441C818.001 716.265 817.33 715.187 816.809 714.152C816.893 711.392 828.293 697.53 830.886 694.099C836.847 686.213 842.509 678.109 848.374 670.152C861.224 652.718 875.771 634.057 884.003 613.881C884.802 611.922 886.555 608.676 886.017 606.638L885.73 606.368ZM804.404 645.306C801.867 648.45 802.075 653.338 802.546 657.208C802.78 659.138 802.964 661.158 804.473 662.532C805.707 662.744 805.831 662.805 806.948 662.271C809.145 658.6 810.936 654.587 809.872 650.182C809.451 648.439 808.478 646.627 806.812 645.796C806.035 645.408 805.25 645.363 804.404 645.306ZM671.435 698.323C669.094 700.421 667.582 702.792 667.537 706.052C667.516 707.581 668.075 708.947 669.196 709.978C669.923 710.646 670.556 710.578 671.491 710.747C673.818 708.848 675.4 706.456 675.652 703.379C675.749 702.194 675.554 700.818 674.85 699.826C673.94 698.545 672.834 698.591 671.435 698.323ZM863.352 723.399C862.279 725.675 861.624 728.296 862.623 730.736C863.132 731.977 863.931 732.914 865.184 733.461C865.639 733.659 865.913 733.703 866.371 733.807C867.527 731.477 868.847 728.577 868.096 725.914C867.729 724.613 866.843 724.111 865.77 723.459L863.352 723.399Z"/><path fill="#020304" d="M591.391 333.556L591.094 333.73L590.413 333.528C591.243 330.238 596.387 324.37 598.406 321.267C607.803 306.823 617.055 292.29 627.227 278.365C639.449 261.634 652.844 245.483 665.721 229.243C685.466 204.339 705.036 179.025 726.553 155.623C730.43 151.407 734.63 145.895 739.455 142.858C739.803 143.003 740.213 143.163 740.534 143.352C741.823 144.114 741.789 144.282 742.091 145.685C738.55 153.26 721.869 171.888 715.766 179.337C707.16 189.84 698.84 200.612 690.326 211.196C677.427 227.207 664.713 243.366 652.186 259.669C643.825 270.597 635.836 281.77 627.179 292.48C615.768 306.597 603.559 320.093 591.391 333.556Z"/><path fill="#FEFEFE" d="M238.662 166.194C334.649 158.736 430.988 155.471 526.955 147.779C528.615 149.652 527.624 603.7 527.482 651.302C523.684 644.561 519.425 638.123 515.166 631.668C514.499 612.817 515.693 593.905 514.384 575.076C514.018 574.515 513.635 573.966 513.235 573.429C509.283 568.21 498.618 568.313 492.642 567.506C492.042 565.367 492.162 562.521 491.931 560.251C491.393 554.974 490.771 549.783 489.655 544.59C491.311 543.39 492.962 542.18 494.454 540.776C503.291 532.46 509.065 520.257 509.263 508.067C509.437 497.337 503.88 486.136 496.492 478.57C488.114 469.991 474.942 463.655 462.849 463.438C459.293 456.716 454.032 450.957 449.539 444.852C454.455 439.401 459.277 434.631 459.26 426.71C459.284 421.376 457.08 416.274 453.181 412.634C449.667 409.376 444.952 407.473 440.135 407.756C432.033 408.232 425.768 413.956 420.606 419.623C406.869 410.444 390.563 408.124 374.427 408.434C354.565 408.902 335.255 415.994 317.414 424.164C315.176 418.238 312.855 413.004 307.484 409.191C302.499 405.652 296.679 404.878 290.76 406.058C282.22 407.76 273.218 413.438 268.609 420.901C265.485 425.959 264.084 431.821 265.599 437.656C267.272 444.097 271.426 449.255 277.112 452.559C255.397 477.132 249.193 495.698 239.099 525.889C238.362 514.401 238.829 502.722 238.921 491.212C239.101 472.192 239.18 453.172 239.16 434.151L238.804 267.229L238.529 192.8C238.486 183.925 238.828 175.071 238.662 166.194ZM438.429 172.464C431.54 176.221 425.696 181.692 420.429 187.452C403.284 206.203 275.16 366.77 272.762 378.4C272.602 379.174 272.638 379.618 272.861 380.356C284.931 369.445 294.522 356.112 304.282 343.189C312.783 331.932 321.403 320.664 330.255 309.684C346.699 288.916 363.402 268.356 380.363 248.008C394.66 230.87 409.61 213.971 423.247 196.31C427.87 190.323 436.61 180.162 438.55 173.194L438.429 172.464ZM322.985 189.526C313.608 196.395 274.259 243.034 269.6 253.026C269.862 253.727 269.637 253.574 269.984 253.749C279.221 244.923 322.52 199.754 323.205 189.938L322.985 189.526ZM447.254 204.684C446.484 206.868 445.665 209.751 446.798 211.958C447.288 212.914 448.166 213.648 449.235 213.851C449.776 213.953 450.458 213.937 451.013 213.942C451.988 212.166 452.478 209.834 451.727 207.854C451.337 206.829 450.566 205.527 449.51 205.113C448.728 204.807 448.08 204.748 447.254 204.684ZM341.682 211.162C339.381 215.535 337.812 222.4 339.332 227.199C339.722 228.433 340.316 229.617 341.511 230.243C342.15 230.577 342.861 230.697 343.56 230.82C346.19 227.647 346.185 222.687 345.797 218.715C345.611 216.813 345.25 213.596 343.837 212.154C343.216 211.521 342.506 211.378 341.682 211.162ZM493.661 219.858C487.041 224.581 465.82 246.565 464.554 255.003C464.303 256.679 464.538 257.697 465.612 258.978C465.847 259.259 466.098 259.527 466.347 259.796C472.348 256.657 492.371 228.095 494.37 221.515C494.541 220.953 494.515 220.775 494.52 220.256L493.661 219.858ZM409.025 257.596C408.276 259.443 407.711 260.857 407.714 262.866C408.252 264 408.447 264.586 409.707 265.084C410.084 265.233 410.665 265.277 411.074 265.324C412.043 263.643 412.834 262.011 412.145 260.045C411.724 258.843 410.876 258.122 409.687 257.752C409.47 257.685 409.245 257.648 409.025 257.596ZM451.09 270.788C441.521 277.951 365.695 371.405 361.743 381.379L361.937 381.88L363.139 381.175C367.926 376.413 372.83 371.701 377.341 366.675C395.388 346.564 412.324 325.43 429.458 304.542C434.599 298.274 450.972 279.956 453.464 273.517C453.052 272.202 452.786 271.791 451.569 270.989C451.424 270.894 451.25 270.855 451.09 270.788ZM295.841 289.235C293.994 292.9 292.69 298.954 294.062 302.897C294.475 304.083 295.062 304.723 296.014 305.499C296.771 305.692 297.545 305.939 298.314 306.067C299.213 304.544 300.124 303.06 300.813 301.429C300.462 297.845 300.578 292.486 298.157 289.672C297.331 289.439 296.708 289.305 295.841 289.235ZM490.735 302.726C489.555 304.804 488.597 307.396 489.243 309.818C489.588 311.111 490.193 311.742 491.256 312.474L493.062 312.764C494.501 310.613 495.464 308.249 494.813 305.628C494.535 304.507 493.655 303.339 492.53 302.988C491.982 302.817 491.306 302.779 490.735 302.726ZM353.778 321.902C352.507 324.127 351.169 326.913 351.802 329.552C352.096 330.778 352.799 331.962 353.977 332.517C354.507 332.767 355.138 332.892 355.705 333.028C357.18 330.916 358.486 328.356 357.996 325.683C357.771 324.455 357.121 323.151 356.001 322.526C355.391 322.186 354.463 322.049 353.778 321.902ZM457.365 355.896C455.672 358.783 454.422 362.914 455.307 366.265C455.656 367.585 456.43 368.856 457.72 369.429C458.177 369.632 458.582 369.706 459.058 369.817C461.234 367.291 461.979 364.922 461.6 361.516C461.441 360.096 460.803 357.647 459.636 356.727C459.024 356.244 458.103 356.08 457.365 355.896ZM253.923 380.294C252.004 382.291 251.135 384.751 251.128 387.537C251.123 389.318 251.684 391.565 253.049 392.803C253.812 393.496 254.693 393.716 255.65 394.002C257.55 391.634 258.657 389.306 258.216 386.179C257.918 384.073 256.782 382.099 255.028 380.881C254.59 380.578 254.372 380.498 253.923 380.294ZM329.445 390.822C328.657 392.221 328.36 392.615 328.342 394.263C329.053 395.582 329.543 396.045 330.741 396.857C331.669 395.62 332.011 395.048 332.201 393.454C331.758 392.27 331.658 391.85 330.494 391.202C330.185 391.03 329.785 390.924 329.445 390.822ZM484.92 403.631C484.255 405.151 483.866 406.126 483.983 407.798C484.61 408.766 484.831 409.226 486.012 409.57C486.379 409.677 486.972 409.707 487.365 409.738C487.925 408.185 488.051 407.403 487.867 405.763C486.914 404.352 486.614 404.015 484.92 403.631Z"/><path fill="#020304" d="M588.065 538.586C587.988 538.146 587.928 537.998 588.038 537.502C591.692 520.899 723.696 355.038 742.797 330.791C749.391 322.422 755.628 313.78 762.253 305.435L791.474 269.233C813.496 241.428 834.832 212.871 857.65 185.723C865.27 176.657 872.836 167.552 881.968 159.947C881.985 160.112 882.026 160.278 882.021 160.444C881.687 172.057 789.447 286.483 776.891 302.682C751.488 335.453 726.729 368.68 700.871 401.099C689.207 415.722 676.788 429.714 665.181 444.369C647.971 466.1 631.998 488.731 614.235 510.033C606.082 519.811 597.182 529.709 588.065 538.586Z"/><path fill="#FEFEFE" d="M220.4 550.154C219.692 521.315 220.452 492.316 220.263 463.456L219.944 165.289C223.823 165.888 227.638 166.393 231.558 166.622C231.461 182.158 231.878 197.637 231.959 213.161L232.07 276.201C232.129 282.434 232.545 288.656 232.572 294.888L232.465 433.226L232.454 508.353C232.447 519.671 232.81 531.111 232.552 542.413C232.52 543.815 232.661 545.569 231.792 546.72L230.594 546.726C226.827 547.19 223.81 548.583 220.4 550.154Z"/><path fill="#020304" d="M819.284 191.282C818.08 191.558 816.441 191.939 815.361 191.181C813.831 190.106 813.478 188.142 813.194 186.402C812.443 181.806 812.21 173.838 814.873 169.973C815.796 170.001 817.264 169.808 818.037 170.32C820 171.622 820.489 174.63 820.817 176.78C821.494 181.224 822.081 187.571 819.284 191.282Z"/><path fill="#020304" d="M272.861 380.356C272.638 379.618 272.602 379.174 272.762 378.4C275.16 366.77 403.284 206.203 420.429 187.452C425.696 181.692 431.54 176.221 438.429 172.464L438.55 173.194C436.61 180.162 427.87 190.323 423.247 196.31C409.61 213.971 394.66 230.87 380.363 248.008C363.402 268.356 346.699 288.916 330.255 309.684C321.403 320.664 312.783 331.932 304.282 343.189C294.522 356.112 284.931 369.445 272.861 380.356Z"/><path fill="#020304" d="M269.984 253.749C269.637 253.574 269.862 253.727 269.6 253.026C274.259 243.034 313.608 196.395 322.985 189.526L323.205 189.938C322.52 199.754 279.221 244.923 269.984 253.749Z"/><path fill="#020304" d="M605.971 209.893C605.49 210 604.568 210.286 604.041 210.249C603.007 210.176 602.225 209.608 601.642 208.765C599.457 205.603 601.247 199.16 602.286 195.792C603.309 195.982 604.304 196.113 605.18 196.729C606.418 197.598 607.051 199.068 607.404 200.488C608.139 203.448 607.572 207.319 605.971 209.893Z"/><path fill="#020304" d="M753.625 215.808C752.684 215.67 751.211 215.554 750.544 214.883C749.393 213.726 748.883 211.864 748.826 210.264C748.708 206.927 749.75 203.722 752.018 201.305C752.953 201.348 753.767 201.546 754.67 201.781C756.248 203.214 756.814 204.881 756.859 206.994C756.931 210.348 756.019 213.46 753.625 215.808Z"/><path fill="#020304" d="M451.013 213.942C450.458 213.937 449.776 213.953 449.235 213.851C448.166 213.648 447.288 212.914 446.798 211.958C445.665 209.751 446.484 206.868 447.254 204.684C448.08 204.748 448.728 204.807 449.51 205.113C450.566 205.527 451.337 206.829 451.727 207.854C452.478 209.834 451.988 212.166 451.013 213.942Z"/><path fill="#020304" d="M343.56 230.82C342.861 230.697 342.15 230.577 341.511 230.243C340.316 229.617 339.722 228.433 339.332 227.199C337.812 222.4 339.381 215.535 341.682 211.162C342.506 211.378 343.216 211.521 343.837 212.154C345.25 213.596 345.611 216.813 345.797 218.715C346.185 222.687 346.19 227.647 343.56 230.82Z"/><path fill="#020304" d="M466.347 259.796C466.098 259.527 465.847 259.259 465.612 258.978C464.538 257.697 464.303 256.679 464.554 255.003C465.82 246.565 487.041 224.581 493.661 219.858L494.52 220.256C494.515 220.775 494.541 220.953 494.37 221.515C492.371 228.095 472.348 256.657 466.347 259.796Z"/><path fill="#020304" d="M872.609 235.63C871.466 235.637 870.436 235.717 869.383 235.192C868.123 234.562 867.402 232.64 867.08 231.355C866.338 228.386 866.743 224.42 868.245 221.785C869.639 221.898 870.655 221.899 871.858 222.675C873.191 223.536 874.001 225.473 874.258 226.975C874.751 229.848 874.243 233.228 872.609 235.63Z"/><path fill="#020304" d="M633.7 246.113C632.718 246.009 631.62 245.963 630.735 245.466C629.327 244.674 628.556 242.915 628.229 241.402C627.588 238.436 628.346 234.712 629.985 232.2C631.35 232.192 632.375 232.377 633.494 233.222C634.837 234.237 635.527 236.174 635.726 237.785C636.093 240.741 635.499 243.749 633.7 246.113Z"/><path fill="#020304" d="M411.074 265.324C410.665 265.277 410.084 265.233 409.707 265.084C408.447 264.586 408.252 264 407.714 262.866C407.711 260.857 408.276 259.443 409.025 257.596C409.245 257.648 409.47 257.685 409.687 257.752C410.876 258.122 411.724 258.843 412.145 260.045C412.834 262.011 412.043 263.643 411.074 265.324Z"/><path fill="#020304" d="M363.139 381.175L361.937 381.88L361.743 381.379C365.695 371.405 441.521 277.951 451.09 270.788C451.25 270.855 451.424 270.894 451.569 270.989C452.786 271.791 453.052 272.202 453.464 273.517C450.972 279.956 434.599 298.274 429.458 304.542C412.324 325.43 395.388 346.564 377.341 366.675C372.83 371.701 367.926 376.413 363.139 381.175Z"/><path fill="#020304" d="M716.656 303.157C715.549 303.006 714.321 302.859 713.389 302.179C711.795 301.017 710.915 298.129 710.805 296.246C710.592 292.621 711.263 290.038 713.59 287.318C713.879 287.333 714.17 287.341 714.459 287.361C715.863 287.461 716.678 287.93 717.571 289.038C719.411 291.32 719.428 295.048 719.167 297.807C718.914 300.475 718.734 301.448 716.656 303.157Z"/><path fill="#020304" d="M298.314 306.067C297.545 305.939 296.771 305.692 296.014 305.499C295.062 304.723 294.475 304.083 294.062 302.897C292.69 298.954 293.994 292.9 295.841 289.235C296.708 289.305 297.331 289.439 298.157 289.672C300.578 292.486 300.462 297.845 300.813 301.429C300.124 303.06 299.213 304.544 298.314 306.067Z"/><path fill="#020304" d="M866.295 307.926C865.163 308.004 864.523 307.975 863.468 307.543C861.715 305.687 861.43 303.169 861.251 300.701C860.984 297.034 860.867 292.114 863.322 289.234C864.237 289.432 865.515 289.619 866.218 290.279C868.841 292.741 868.961 299.271 868.693 302.634C868.486 305.229 868.286 306.185 866.295 307.926Z"/><path fill="#020304" d="M493.062 312.764L491.256 312.474C490.193 311.742 489.588 311.111 489.243 309.818C488.597 307.396 489.555 304.804 490.735 302.726C491.306 302.779 491.982 302.817 492.53 302.988C493.655 303.339 494.535 304.507 494.813 305.628C495.464 308.249 494.501 310.613 493.062 312.764Z"/><path fill="#020304" d="M803.389 332.697C802.238 332.703 801.596 332.67 800.57 332.128C799.078 330.412 798.651 328.733 798.419 326.485C797.977 322.209 798.282 317.709 801.002 314.302C801.794 314.362 802.512 314.404 803.221 314.815C804.836 315.749 805.501 317.659 805.808 319.389C806.579 323.736 805.846 329.026 803.389 332.697Z"/><path fill="#020304" d="M355.705 333.028C355.138 332.892 354.507 332.767 353.977 332.517C352.799 331.962 352.096 330.778 351.802 329.552C351.169 326.913 352.507 324.127 353.778 321.902C354.463 322.049 355.391 322.186 356.001 322.526C357.121 323.151 357.771 324.455 357.996 325.683C358.486 328.356 357.18 330.916 355.705 333.028Z"/><path fill="#020304" d="M631.91 343.729C630.972 343.536 630.321 343.165 629.498 342.684C628.07 340.666 627.509 338.049 627.416 335.597C627.285 332.143 627.461 328.961 629.84 326.306C630.838 326.652 631.971 327.025 632.745 327.778C634.248 329.241 634.855 332.107 634.926 334.132C635.052 337.714 634.461 341.131 631.91 343.729Z"/><path fill="#020304" d="M459.058 369.817C458.582 369.706 458.177 369.632 457.72 369.429C456.43 368.856 455.656 367.585 455.307 366.265C454.422 362.914 455.672 358.783 457.365 355.896C458.103 356.08 459.024 356.244 459.636 356.727C460.803 357.647 461.441 360.096 461.6 361.516C461.979 364.922 461.234 367.291 459.058 369.817Z"/><path fill="#020304" d="M255.65 394.002C254.693 393.716 253.812 393.496 253.049 392.803C251.684 391.565 251.123 389.318 251.128 387.537C251.135 384.751 252.004 382.291 253.923 380.294C254.372 380.498 254.59 380.578 255.028 380.881C256.782 382.099 257.918 384.073 258.216 386.179C258.657 389.306 257.55 391.634 255.65 394.002Z"/><path fill="#020304" d="M330.741 396.857C329.543 396.045 329.053 395.582 328.342 394.263C328.36 392.615 328.657 392.221 329.445 390.822C329.785 390.924 330.185 391.03 330.494 391.202C331.658 391.85 331.758 392.27 332.201 393.454C332.011 395.048 331.669 395.62 330.741 396.857Z"/><path fill="#020304" d="M831.432 410.212C830.528 410.4 829.684 410.418 828.762 410.429C827.548 409.812 826.72 409.251 826.15 407.985C824.359 404.011 824.127 395.432 825.767 391.483C826.734 391.383 828.102 391.122 829.02 391.495C830.398 392.056 831.217 393.836 831.667 395.139C832.959 398.881 833.261 406.611 831.432 410.212Z"/><path fill="#020304" d="M618.476 413.279C617.803 413.047 617.609 413.011 616.941 412.621C615.738 411.92 614.914 410.548 614.633 409.23C614.075 406.609 615.623 404.204 617.069 402.202C617.989 402.266 618.697 402.515 619.558 402.836C620.436 403.974 620.879 404.996 620.931 406.437C621.024 409 620.287 411.475 618.476 413.279Z"/><path fill="#020304" d="M487.365 409.738C486.972 409.707 486.379 409.677 486.012 409.57C484.831 409.226 484.61 408.766 483.983 407.798C483.866 406.126 484.255 405.151 484.92 403.631C486.614 404.015 486.914 404.352 487.867 405.763C488.051 407.403 487.925 408.185 487.365 409.738Z"/><path fill="#020304" d="M749.347 422.16C748.272 422.175 747.429 422.279 746.433 421.808C745.569 421.4 744.842 420.213 744.52 419.327C743.269 415.895 744.349 411.405 745.914 408.261C747.081 408.339 747.832 408.305 748.851 408.947C750.091 409.728 750.716 411.779 750.961 413.158C751.472 416.035 750.996 419.742 749.347 422.16Z"/><path fill="#FEFEFE" d="M281.453 448.322C276.792 445.121 272.724 441.843 271.423 436.005C270.494 431.674 271.333 427.152 273.755 423.444C277.981 416.902 285.562 413.354 292.881 411.605C294.339 411.415 295.763 411.318 297.235 411.393C300.944 411.584 304.109 412.908 306.571 415.737C308.792 418.29 310.782 423.262 310.307 426.674C310.233 427.201 310.179 427.294 309.797 427.662C307.189 430.179 303.103 432.184 300.068 434.274C295.07 437.718 290.228 441.435 285.363 445.064L281.453 448.322Z"/><path fill="#FEFEFE" d="M425.19 421.976C429.781 418.249 433.838 414.575 439.724 413.125C443.568 413.501 447.154 414.314 450.081 417.037C452.296 419.098 453.512 421.998 453.601 425.008C453.79 431.398 449.485 435.925 445.313 440.144L442.412 438.169C436.804 432.549 431.273 427.085 425.19 421.976Z"/><path fill="#FEFEFE" d="M240.486 550.02C247.868 518.915 256.079 485.954 277.452 461.104C299.028 436.019 337.32 417.812 370.104 415.297C379.527 414.37 389.976 414.886 399.138 417.302C417.883 422.245 432.368 435.771 444.806 449.997C448.748 454.506 452.773 459.117 455.815 464.291C451.854 465.313 447.95 466.376 444.146 467.9C433.391 472.209 424.638 480.125 420.052 490.838C414.841 490.024 409.81 490.41 404.589 490.758C398.459 480.202 391.421 471.674 380.005 466.69C367.249 461.121 352.808 461.353 339.967 466.591C329.452 470.88 317.584 480.812 313.155 491.467C308.79 491.565 298.511 490.975 294.88 492.857C293.671 493.484 293.396 494.445 293.148 495.713C292.388 499.588 292.662 505.61 294.809 508.944C298.483 510.976 304.948 509.005 308.835 508.165C308.738 509.33 308.683 510.498 308.672 511.668C308.561 523.223 313.551 535.895 321.657 544.156C330.229 552.892 342.862 558.43 355.111 558.505C368.688 558.59 382.827 553.381 392.466 543.684C403.519 532.565 407.133 518.804 407.093 503.573C410.247 503.099 413.327 503.051 416.509 503.022C417.495 519.574 422.651 531.131 433.895 543.391C428.046 543.846 422.207 544.423 416.381 545.122C415.966 545.196 415.551 545.272 415.137 545.35C411.941 545.956 408.375 546.563 406.521 549.555C405.777 550.755 405.594 552.169 405.949 553.54C406.653 556.266 409.068 558.391 411.376 559.808C416.957 563.234 424.655 564.626 430.984 562.873C437.328 561.117 441.355 556.737 444.443 551.189C460.344 554.82 469.035 555.66 484.146 548.718C485.101 556.488 485.562 564.308 486.59 572.078C470.884 578.071 452.004 580.374 435.297 581.857C366.294 587.984 304.247 575.975 240.486 550.02Z"/><path fill="#020304" d="M791.461 554C791.101 553.685 791.315 553.928 791.112 553.096C795.031 545.7 799.873 538.808 804.518 531.86C812.043 520.632 819.641 509.454 827.312 498.326C838.946 481.261 849.783 463.469 862.033 446.854C866.626 440.625 875.962 427.068 882.33 423.372L883.028 424.069C881.97 434.804 833.323 504.681 824.001 516.603C813.688 529.794 802.945 541.844 791.461 554Z"/><path fill="#020304" d="M587.889 696.332C587.756 695.578 587.776 695.135 588.004 694.402C589.978 688.053 599.81 675.401 603.952 669.515C617.473 650.257 631.396 631.285 645.711 612.61C655.6 599.798 665.952 587.351 675.782 574.486L715.474 522.55C727.84 506.252 739.959 489.873 753.332 474.358C756.59 470.579 759.977 466.379 764.349 463.866C764.439 464.303 764.523 464.73 764.515 465.178C764.387 472.391 743.773 499.343 738.383 506.715C714.11 539.908 687.065 571.031 661.953 603.588L621.42 656.101C610.814 669.81 600.321 684.214 587.889 696.332Z"/><path fill="#FEFEFE" d="M358.757 547.098C338.394 547.409 321.625 531.172 321.28 510.81C320.934 490.447 337.143 473.651 357.504 473.271C377.915 472.891 394.76 489.147 395.106 509.557C395.452 529.968 379.168 546.786 358.757 547.098ZM346.655 513.638C346.523 515.194 346.22 516.242 347.227 517.589C350.782 522.347 361.184 523.968 366.767 524.394C371.353 524.743 375.904 524.662 380.172 522.754C380.844 521.497 380.841 521.397 380.658 519.979C379.154 518.603 378.07 518.593 376.06 518.679C373.1 518.806 370.017 519.315 367.066 519.152C359.865 518.753 353.451 515.451 346.655 513.638Z"/><path fill="#FEFEFE" d="M452.286 540.646C449.625 539.614 447.158 538.595 444.796 536.949C436.793 531.372 431.383 522.443 429.711 512.864C428.225 504.354 429.918 495.801 435.018 488.752C441.462 479.845 450.439 476.341 460.95 474.674C461.253 474.737 461.73 475.084 462.004 475.243C472.559 493.773 478.973 512.808 482.699 533.764C481.298 535.104 479.846 536.199 478.181 537.199C470.349 541.901 461.083 542.879 452.286 540.646ZM434.226 510.23C433.741 511.48 433.221 512.532 433.772 513.879C434.887 516.607 438.385 518.086 440.987 518.914C447.697 521.046 455.411 521.526 462.235 519.713C463.08 518.579 463.501 518.203 463.675 516.773C462.861 515.782 462.421 515.447 461.105 515.31C456.307 514.813 451.232 516.066 446.5 515.03C442.37 514.125 438.135 510.66 434.226 510.23Z"/><path fill="#FEFEFE" d="M487.435 529.559C484.257 510.009 477.291 493.165 468.794 475.436C471.861 476.402 474.931 477.478 477.765 479.014C485.61 483.265 491.913 491.307 494.426 499.848C496.965 508.474 495.4 516.537 491.219 524.318C490.053 526.121 488.708 527.829 487.435 529.559Z"/><path fill="#020304" d="M881.853 492.329C881.081 492.061 880.545 491.879 879.92 491.325C879.117 490.614 878.886 489.14 878.877 488.108C878.859 485.963 880.122 483.765 881.496 482.222C881.757 482.365 882.037 482.478 882.278 482.652C883.495 483.531 883.902 485.344 883.946 486.777C884.019 489.106 883.484 490.688 881.853 492.329Z"/><path fill="#020304" d="M777.562 517.766C776.878 517.532 776.197 517.193 775.534 516.905C774.679 515.906 774.086 515.146 773.834 513.829C773.288 510.966 774.559 508.099 776.098 505.768C777.044 505.777 777.553 505.869 778.439 506.121C779.05 506.707 779.513 507.165 779.768 508.007C780.696 511.064 779.067 515.147 777.562 517.766Z"/><path fill="#020304" d="M462.235 519.713C455.411 521.526 447.697 521.046 440.987 518.914C438.385 518.086 434.887 516.607 433.772 513.879C433.221 512.532 433.741 511.48 434.226 510.23C438.135 510.66 442.37 514.125 446.5 515.03C451.232 516.066 456.307 514.813 461.105 515.31C462.421 515.447 462.861 515.782 463.675 516.773C463.501 518.203 463.08 518.579 462.235 519.713Z"/><path fill="#020304" d="M380.172 522.754C375.904 524.662 371.353 524.743 366.767 524.394C361.184 523.968 350.782 522.347 347.227 517.589C346.22 516.242 346.523 515.194 346.655 513.638C353.451 515.451 359.865 518.753 367.066 519.152C370.017 519.315 373.1 518.806 376.06 518.679C378.07 518.593 379.154 518.603 380.658 519.979C380.841 521.397 380.844 521.497 380.172 522.754Z"/><path fill="#020304" d="M654.337 553.648C653.414 553.649 652.764 553.505 651.89 553.215C649.011 549.935 649.158 543.854 649.296 539.679C649.41 536.204 649.407 533.687 652.078 531.158C652.739 531.409 652.945 531.45 653.581 531.884C655.721 533.346 656.383 537.068 656.699 539.41C657.376 544.437 657.507 549.496 654.337 553.648Z"/><path fill="#020304" d="M863.062 559.81C861.913 559.441 860.948 558.876 860.369 557.795C858.537 554.372 860.584 549.086 861.562 545.624C862.236 545.847 862.866 546.158 863.512 546.45C864.954 548.401 865.029 551.625 864.847 553.971C864.826 554.236 864.797 554.501 864.775 554.766C864.594 556.884 864.332 558.072 863.062 559.81Z"/><path fill="#020304" d="M713.54 740.276C713.143 739.708 712.851 739.076 712.529 738.463C712.527 736.209 713.686 734.217 714.641 732.221C719.796 721.443 726.807 711.303 733.23 701.243C741.919 687.502 750.946 673.978 760.305 660.684C770.279 646.673 780.782 633.043 790.789 619.054C796.734 610.743 818.411 575.856 826.727 572.918L827.285 573.566C827.252 573.81 827.225 574.056 827.187 574.3C826.211 580.463 821.11 587.291 817.763 592.452C810.895 603.042 802.62 612.643 795.439 623.015L739.012 705.605C733.755 713.206 719.876 735.873 713.54 740.276Z"/><path fill="#FEFEFE" d="M276.1 593.954C269.975 593.823 260.871 588.757 255.824 585.391C253.8 584.042 252.021 582.978 251.529 580.488C252.286 580.428 252.944 580.418 253.698 580.55C256.939 581.116 274.459 588.571 276.185 591.427C276.669 592.228 276.254 593.084 276.1 593.954Z"/><path fill="#FEFEFE" d="M292.938 634.626C292.119 634.638 291.3 634.628 290.482 634.598C271.117 633.815 234.14 608.864 220.664 594.006C218.537 591.661 216.586 589.615 216.733 586.325C221.903 588.346 232.228 599.085 237.533 602.97C245.989 609.162 254.969 614.407 264.194 619.361C269.156 622.025 290.42 629.269 292.279 631.173C293.265 632.183 292.945 633.32 292.938 634.626Z"/><path fill="#FEFEFE" d="M373.307 603.515C368.44 603.273 350.913 600.075 347.267 597.956C346.102 597.279 346.212 596.673 345.903 595.433C352.594 595.534 366.683 597.082 372.54 599.821C373.475 601.255 373.305 601.837 373.307 603.515Z"/><path fill="#020304" d="M597.775 610.86C596.528 610.392 595.638 609.619 594.999 608.453C593.74 606.156 593.718 603.453 594.436 600.986C595.205 598.347 596.166 597.225 598.522 595.858C600.206 596.279 601.225 596.624 602.13 598.193C603.101 599.877 603.014 602.493 602.521 604.306C601.654 607.496 600.669 609.254 597.775 610.86Z"/><path fill="#020304" d="M722.229 628.291C721.236 628.095 720.178 627.912 719.413 627.184C717.943 625.786 717.509 623.122 717.339 621.205C716.88 616.019 717.536 608.806 720.899 604.691C721.671 604.84 722.383 605.06 723.132 605.293C724.233 606.467 724.879 607.509 725.292 609.084C726.785 614.765 725.269 623.318 722.229 628.291Z"/><path fill="#020304" d="M789.375 749.889L788.103 749.662L787.784 748.543C789.41 741.124 794.898 732.586 798.861 726.16C805.861 714.812 813.688 704.104 821.4 693.246L847.333 656.785C858.94 640.708 872.254 620.392 885.73 606.368L886.017 606.638C886.555 608.676 884.802 611.922 884.003 613.881C875.771 634.057 861.224 652.718 848.374 670.152C842.509 678.109 836.847 686.213 830.886 694.099C828.293 697.53 816.893 711.392 816.809 714.152C817.33 715.187 818.001 716.265 818.081 717.441C818.223 719.539 811.81 723.733 810.253 725.342C802.79 733.053 796.864 742.228 789.375 749.889Z"/><path fill="#FEFEFE" d="M428.575 615.736C420.564 615.577 407.643 614.529 400.01 612.225C398.835 611.871 398.809 611.707 398.229 610.687C403.097 610.327 423.123 610.969 426.859 612.876C428.269 613.596 428.194 614.349 428.575 615.736Z"/><path fill="#FEFEFE" d="M473.374 614.995C472.666 614.927 471.959 614.85 471.253 614.764C469.772 614.573 468.846 614.482 467.916 613.271L468.217 612.468C471.528 610.479 481.198 611.162 485.452 610.7C487.881 610.361 489.368 610.448 491.598 611.529L491.451 612.86C487.222 616.045 478.423 615.152 473.374 614.995Z"/><path fill="#FEFEFE" d="M347.579 630.113C346.072 630.526 345.054 630.605 343.513 630.29C335.798 628.71 319.479 621.634 315.146 614.92C317.834 614.99 343.688 625.085 346.23 627.022C347.486 627.979 347.432 628.597 347.579 630.113Z"/><path fill="#FEFEFE" d="M393.608 904.516C367.946 899.538 341.996 896.348 316.274 891.613C302.563 889.089 289.164 886.576 275.895 882.202C240.072 870.391 212.635 854.973 195.052 819.687C173.148 775.729 180.481 711.193 193.75 665.646C197.239 653.668 202.454 642.452 206.392 630.653C220.833 638.363 235.406 644.46 251.053 649.302C260.441 652.206 272.056 653.395 280.608 658.236C288.097 662.475 294.49 671.073 300.732 677.062C315.943 691.655 331.694 707.121 349.077 719.119C355.33 723.364 361.893 727.132 368.712 730.391C378.75 735.237 400.566 741.693 406.069 751.198C408.379 755.187 408.426 761.483 407.076 765.859C406.006 769.33 403.778 771.789 400.547 773.406C392.767 777.298 381.6 777.32 373.026 777.485C336.099 778.2 299.206 772.123 265.07 757.867C257.485 754.7 249.373 750.846 243.045 745.531C241.705 744.406 240.016 742.736 238.337 742.256C237.489 742.013 237.445 742.231 236.706 742.6L236.579 743.792C237.611 745.892 239.038 747.47 240.834 748.965C274.989 777.408 345.007 786.237 388.238 782.52C388.916 790.781 389.097 799.135 389.575 807.417C396.304 809.51 404.86 809.124 411.911 809.519C436.06 810.874 460.162 810.901 484.303 811.916C494.503 800.035 512.656 792.28 525.572 783.199C525.772 783.016 525.976 782.838 526.173 782.652C529.423 779.573 528.268 772.361 528.283 768.18C531.486 767.452 534.111 766.402 537.009 764.893C548.529 768.522 560.924 777.786 571.738 783.668C562.714 788.483 554.731 796.727 550.013 805.802C541.708 821.778 540.624 835.42 546.089 852.44C533.158 849.096 520.549 844.755 507.722 841.058C491.562 836.4 474.81 832.647 458.158 830.258C445.82 828.488 436.426 830.038 426.426 837.686C410.751 849.676 400.741 868.185 396.346 887.175C395.032 892.852 394.4 898.747 393.608 904.516Z"/><path fill="#FEFEFE" d="M444.71 639.474C444.18 639.594 443.647 639.7 443.112 639.789C431.678 641.692 409.387 641.393 399.829 634.536C406.885 634.008 414.812 635.865 421.979 636.238C426.923 636.495 439.49 635.492 443.231 636.951C444.144 637.967 444.554 638.072 444.71 639.474Z"/><path fill="#FEFEFE" d="M291.889 659.556C337.092 672.934 388.309 676.32 435.026 671.109C456.465 668.718 500.698 660.606 514.374 643.525C519.555 649.568 538.778 687.862 541.014 695.931L540.491 696.643C535.833 697.037 533.672 699.962 530.396 702.997C530.295 697.036 531.614 689.516 530.548 683.761C530.262 682.216 529.635 680.704 528.158 679.943C524.709 678.166 520.203 680.655 517.016 681.992C517.308 680.662 517.892 678.812 517.58 677.476C517.258 676.101 516.621 675.438 515.493 674.687C512.568 674.166 511.13 675.166 508.754 676.752C506.799 675.316 504.962 673.693 503.097 672.142C501.805 672.686 500.522 673.259 499.322 673.988C487.004 681.465 477.215 692.074 473.819 706.191C468.379 703.124 463.685 698.907 458.087 695.994C450.558 692.075 420.155 681.869 412.757 683.445C411.428 683.728 410.853 683.951 410.171 685.119C410.781 686.744 412.592 687.84 414.194 688.382C416.975 689.322 420.371 689.364 423.288 689.997C434.742 692.483 453.083 696.431 461.783 704.286L462.177 704.646C447.296 699.95 424.8 692.138 409.433 692.013C407.356 691.996 404.999 692.122 403.467 693.673C403.208 694.634 402.993 695.592 402.363 696.395C400.573 698.677 396.787 698.804 394.124 699.232C389.636 700.325 387.933 701.434 385.438 705.381C385.492 714.227 386.504 723.131 386.769 731.998C359.636 722.763 338.24 703.658 317.697 684.495C308.871 676.416 300.265 668.1 291.889 659.556Z"/><path fill="#020304" d="M806.948 662.271C805.831 662.805 805.707 662.744 804.473 662.532C802.964 661.158 802.78 659.138 802.546 657.208C802.075 653.338 801.867 648.45 804.404 645.306C805.25 645.363 806.035 645.408 806.812 645.796C808.478 646.627 809.451 648.439 809.872 650.182C810.936 654.587 809.145 658.6 806.948 662.271Z"/><path fill="#FEFEFE" d="M479.061 706.249L478.195 705.664C478.077 704.974 478.023 704.861 478.08 704.077C478.645 696.393 495.906 681.969 501.967 677.898C502.574 678.357 502.267 678.039 502.737 678.979C501.104 681.727 493.924 686.846 491.237 689.528C486.195 694.561 482.621 700.144 479.061 706.249Z"/><path fill="#FEFEFE" d="M485.986 703.727L485.591 703.313C492.04 693.413 501.342 685.801 511.559 679.972L512.037 680.562C511.896 681.929 511.487 682.461 510.451 683.381C507.755 685.773 504.538 687.838 501.659 690.036C496.091 694.288 490.896 698.721 485.986 703.727Z"/><path fill="#FEFEFE" d="M485.562 711.285C497.614 702.264 511.538 694.791 524.662 687.431L525.43 687.758C525.65 694.7 526.39 704.083 524.791 710.797C523.466 716.358 520.759 721.659 519.222 727.202C515.615 740.21 515.525 752.294 522.205 764.217C522.052 769.178 521.996 774.142 522.035 779.105C512.276 786.897 500.907 793.31 490.222 799.742C488.787 800.724 487.441 801.838 486.074 802.911C485.076 791.439 485.543 779.67 485.551 768.155L485.562 711.285Z"/><path fill="#FEFEFE" d="M451.066 706.914C443.758 706.074 436.26 703.327 429.046 701.718C425.431 700.912 408.441 698.392 406.67 696.696C415.751 695.717 442.741 702.318 451.066 706.914Z"/><path fill="#020304" d="M671.491 710.747C670.556 710.578 669.923 710.646 669.196 709.978C668.075 708.947 667.516 707.581 667.537 706.052C667.582 702.792 669.094 700.421 671.435 698.323C672.834 698.591 673.94 698.545 674.85 699.826C675.554 700.818 675.749 702.194 675.652 703.379C675.4 706.456 673.818 708.848 671.491 710.747Z"/><path fill="#FEFEFE" d="M531.937 761.05C530.802 761.55 530.047 761.785 528.805 761.815C527.642 761.191 526.871 760.639 526.108 759.54C522.184 753.887 522.892 741.862 523.891 735.332C525.813 722.77 530.91 708.219 541.534 700.475C542.015 701.022 542.429 701.513 542.823 702.128C549.235 712.16 553.017 726.295 550.044 738.051C547.502 748.107 540.722 755.851 531.937 761.05Z"/><path fill="#FEFEFE" d="M392.081 733.759C391.488 725.07 391.33 716.432 390.332 707.769C420.573 710.216 450.703 713.744 481.084 713.984L480.859 805.769C474.277 805.35 467.719 805.18 461.125 805.084C438.46 805.032 415.968 805.032 393.42 802.368C394.377 795.717 393.705 788.89 393.374 782.208C395.019 781.797 396.661 781.37 398.299 780.928C404.184 779.286 409.338 775.595 412.27 770.157C415.123 764.869 415.497 758.166 413.563 752.507C410.049 742.225 401.112 738.181 392.081 733.759Z"/><path fill="#020304" d="M866.371 733.807C865.913 733.703 865.639 733.659 865.184 733.461C863.931 732.914 863.132 731.977 862.623 730.736C861.624 728.296 862.279 725.675 863.352 723.399L865.77 723.459C866.843 724.111 867.729 724.613 868.096 725.914C868.847 728.577 867.527 731.477 866.371 733.807Z"/><path fill="#FEFEFE" d="M573.715 789.77C576.187 788.518 578.704 787.609 580.127 785.178C580.333 785.137 580.537 785.08 580.746 785.056C585.087 784.57 591.684 786.556 596.136 787.215C601.588 788.021 607.112 788.673 612.622 788.911C626.122 789.497 640.088 785.976 653.429 787.521C658.416 788.098 663.029 789.878 666.981 793.004C673.646 798.278 676.933 805.947 677.911 814.226C679.41 826.911 675.868 841.191 667.837 851.224C659.557 861.568 647.152 867.51 634.121 868.933C617.839 869.846 602.955 865.814 587.329 862.144C577.781 859.902 568.213 857.797 558.727 855.298C554.08 845.013 553.184 832.944 555.342 821.92C557.57 810.536 562.779 798.354 572.688 791.716C576.069 794.6 579.374 797.748 583.979 798.358C585.469 798.555 586.501 798.447 587.666 797.5L587.557 796.322C584.711 792.697 578.071 790.838 573.715 789.77ZM601.486 801.526C601.619 803.114 601.499 803.891 602.682 805.142C604.538 807.104 609.22 806.918 611.636 806.7C611.829 806.683 612.02 806.652 612.212 806.628C612.533 805.023 612.683 804.593 612.157 802.993C609.514 800.58 604.85 801.381 601.486 801.526ZM570.813 802.978C569.645 804.186 569.027 804.887 568.662 806.545C569.006 807.995 569.397 808.832 570.703 809.644C572.948 811.039 575.841 811.564 578.433 811.813C579.424 810.765 579.735 810.131 580.094 808.737C579.921 807.339 579.668 806.679 578.593 805.718C576.504 803.85 573.523 803.156 570.813 802.978ZM599.219 815.427C597.933 816.382 597.618 816.601 596.964 818.042C597.27 819.31 597.551 819.922 598.697 820.65C599.89 821.407 601.234 821.5 602.599 821.487C603.733 820.62 604.585 820.08 605.042 818.655C604.754 817.438 604.521 816.872 603.335 816.289C602.13 815.696 600.543 815.54 599.219 815.427ZM565.087 817.434C564.457 819.155 563.885 820.832 564.867 822.579C565.929 824.47 568.311 825.178 570.308 825.48C572.821 825.86 575.311 825.668 577.807 825.259C578.589 823.853 578.69 823.574 578.671 821.971C577.676 820.03 575.959 819.297 573.956 818.705C571.145 817.876 568.015 817.347 565.087 817.434ZM565.673 830.994C564.762 832.333 564.303 833.053 564.309 834.749C564.911 836.351 565.756 837.142 567.307 837.789C570.023 838.923 573.011 839.157 575.918 838.996C576.861 837.734 577.058 837.499 577.222 835.949C576.598 834.264 575.687 833.583 574.075 832.888C571.609 831.826 568.354 831.069 565.673 830.994ZM597.681 833.453C596.543 834.393 596.097 834.643 595.559 836.052C595.941 837.309 596.331 837.887 597.517 838.549C598.6 839.153 600.072 839.272 601.271 839.371C602.5 838.293 602.892 838.02 603.471 836.44C603.098 835.26 602.909 834.793 601.718 834.161C600.491 833.51 599.03 833.485 597.681 833.453ZM565.064 848.603C565.086 850.272 564.868 851.094 566.035 852.459C568.049 854.815 573.15 854.626 575.9 854.46L576.347 854.43C576.372 852.992 576.44 851.766 575.361 850.64C573.061 848.237 568.123 848.7 565.064 848.603Z"/><path fill="#020304" d="M612.212 806.628C612.02 806.652 611.829 806.683 611.636 806.7C609.22 806.918 604.538 807.104 602.682 805.142C601.499 803.891 601.619 803.114 601.486 801.526C604.85 801.381 609.514 800.58 612.157 802.993C612.683 804.593 612.533 805.023 612.212 806.628Z"/><path fill="#020304" d="M578.433 811.813C575.841 811.564 572.948 811.039 570.703 809.644C569.397 808.832 569.006 807.995 568.662 806.545C569.027 804.887 569.645 804.186 570.813 802.978C573.523 803.156 576.504 803.85 578.593 805.718C579.668 806.679 579.921 807.339 580.094 808.737C579.735 810.131 579.424 810.765 578.433 811.813Z"/><path fill="#020304" d="M602.599 821.487C601.234 821.5 599.89 821.407 598.697 820.65C597.551 819.922 597.27 819.31 596.964 818.042C597.618 816.601 597.933 816.382 599.219 815.427C600.543 815.54 602.13 815.696 603.335 816.289C604.521 816.872 604.754 817.438 605.042 818.655C604.585 820.08 603.733 820.62 602.599 821.487Z"/><path fill="#FEFEFE" d="M164.812 827.286C160.921 826.582 150.845 822.546 148.461 819.238C147.947 818.524 148.339 817.768 148.474 816.958C149.453 817.076 150.425 817.244 151.387 817.46C155.772 818.416 162.684 820.585 165.021 824.664C165.495 825.49 165.022 826.401 164.812 827.286Z"/><path fill="#020304" d="M577.807 825.259C575.311 825.668 572.821 825.86 570.308 825.48C568.311 825.178 565.929 824.47 564.867 822.579C563.885 820.832 564.457 819.155 565.087 817.434C568.015 817.347 571.145 817.876 573.956 818.705C575.959 819.297 577.676 820.03 578.671 821.971C578.69 823.574 578.589 823.853 577.807 825.259Z"/><path fill="#FEFEFE" d="M122.125 839.922C114.799 837.722 106.813 834.311 100.19 830.422C99.7007 829.151 100.176 828.542 100.574 827.288C104.577 827.848 118.948 833.431 121.571 836.42C122.648 837.646 122.277 838.451 122.125 839.922Z"/><path fill="#020304" d="M575.918 838.996C573.011 839.157 570.023 838.923 567.307 837.789C565.756 837.142 564.911 836.351 564.309 834.749C564.303 833.053 564.762 832.333 565.673 830.994C568.354 831.069 571.609 831.826 574.075 832.888C575.687 833.583 576.598 834.264 577.222 835.949C577.058 837.499 576.861 837.734 575.918 838.996Z"/><path fill="#020304" d="M601.271 839.371C600.072 839.272 598.6 839.153 597.517 838.549C596.331 837.887 595.941 837.309 595.559 836.052C596.097 834.643 596.543 834.393 597.681 833.453C599.03 833.485 600.491 833.51 601.718 834.161C602.909 834.793 603.098 835.26 603.471 836.44C602.892 838.02 602.5 838.293 601.271 839.371Z"/><path fill="#FEFEFE" d="M403.641 907.152C403.236 896.83 404.5 886.5 408.168 876.801C414.14 861.014 426.96 846.419 442.402 839.466C461.655 838.318 499.838 849.866 514.301 862.706C523.801 871.138 531.683 882.497 532.339 895.531C532.825 905.185 529.419 914.291 522.842 921.362C515.17 929.61 504.832 933.312 493.764 933.623C476.633 933.62 459.848 925.32 443.898 919.737C430.743 915.133 417.145 910.594 403.641 907.152ZM448.096 843.403C446.618 844.242 445.538 844.717 444.84 846.368C444.91 847.732 444.936 848.492 445.945 849.503C447.788 851.349 449.982 851.727 452.475 851.8C453.628 851.075 454.977 850.315 455.425 848.931C455.791 847.801 455.535 846.842 454.819 845.913C453.333 843.984 450.342 843.549 448.096 843.403ZM434.244 852.509C433.118 853.491 432.084 854.356 431.933 855.957C431.812 857.23 432.324 858.343 433.222 859.212C435.001 860.934 438.365 861.949 440.796 861.755C441.749 861.68 442.698 861.504 443.637 861.329C444.88 860.573 445.318 860.195 445.902 858.853C445.542 856.961 444.814 856.063 443.209 855.006C440.272 853.07 437.726 852.318 434.244 852.509ZM461.622 854.806C458.869 856.558 456.464 858.143 455.408 861.414C455.621 862.449 455.623 862.992 456.735 863.442C456.922 863.517 457.133 863.504 457.332 863.534C459.446 861.727 463.245 859.156 463.607 856.251C462.954 855.13 462.872 855.214 461.622 854.806ZM423.641 865.962C422.701 867.149 421.938 867.907 422.135 869.57C422.342 871.31 423.238 872.539 424.639 873.501C427.529 875.486 429.94 875.806 433.313 875.102C434.381 873.872 434.981 873.159 435.234 871.478C434.864 869.855 434.231 868.962 432.826 868.109C429.955 866.365 426.923 865.991 423.641 865.962ZM450.398 867.891C448.383 869.145 446.066 870.836 445.51 873.291C445.229 874.532 445.504 875.569 446.246 876.583C446.509 876.942 447.019 877.433 447.345 877.759C449.104 876.228 452.398 873.516 452.58 870.964C452.669 869.714 452.352 869.05 451.355 868.329C451.081 868.131 450.714 868.01 450.398 867.891ZM416.281 880.071C415.061 880.764 413.678 881.487 413.073 882.838C412.62 883.849 412.843 884.673 413.422 885.572C415.05 888.104 420.053 889.005 422.783 889.314C423.886 888.613 425.216 887.878 425.56 886.505C425.86 885.305 425.557 884.233 424.81 883.277C423.273 881.31 420.426 880.226 418.009 880.097C417.433 880.066 416.857 880.062 416.281 880.071ZM440.084 883.759C438.068 885.816 436.059 888.467 436.183 891.522C436.228 892.628 436.635 893.774 437.504 894.506C437.933 894.866 438.489 895.094 438.99 895.33C440.793 893.112 442.951 889.772 442.809 886.77C442.747 885.474 442.384 884.954 441.507 884.057L440.084 883.759ZM412.088 894.534C410.957 895.654 410.519 896.164 410.113 897.766C410.476 899.335 410.895 900.195 412.296 901.08C414.887 902.715 418.45 903.532 421.499 903.275C422.725 902.084 423.389 901.318 423.93 899.683C423.765 898.367 423.674 897.699 422.57 896.849C420.089 894.937 415.157 894.545 412.088 894.534ZM434.535 898.702C433.378 900.807 431.799 903.872 432.683 906.357C433.083 907.482 433.808 908.191 434.896 908.632C435.213 908.76 435.579 908.784 435.915 908.822C437.192 906.783 438.748 903.658 438.008 901.182C437.683 900.096 437.116 899.365 436.039 898.964C435.652 898.82 434.958 898.754 434.535 898.702Z"/><path fill="#FEFEFE" d="M177.291 850.181L176.029 850.72C172.435 850.618 166.485 848.128 163.53 846.003C162.136 845 162.127 844.328 161.827 842.675C166.142 843.187 172.745 845.055 176.186 847.768C177.267 848.621 177.165 848.879 177.291 850.181Z"/><path fill="#020304" d="M452.475 851.8C449.982 851.727 447.788 851.349 445.945 849.503C444.936 848.492 444.91 847.732 444.84 846.368C445.538 844.717 446.618 844.242 448.096 843.403C450.342 843.549 453.333 843.984 454.819 845.913C455.535 846.842 455.791 847.801 455.425 848.931C454.977 850.315 453.628 851.075 452.475 851.8Z"/><path fill="#020304" d="M576.347 854.43L575.9 854.46C573.15 854.626 568.049 854.815 566.035 852.459C564.868 851.094 565.086 850.272 565.064 848.603C568.123 848.7 573.061 848.237 575.361 850.64C576.44 851.766 576.372 852.992 576.347 854.43Z"/><path fill="#020304" d="M443.637 861.329C442.698 861.504 441.749 861.68 440.796 861.755C438.365 861.949 435.001 860.934 433.222 859.212C432.324 858.343 431.812 857.23 431.933 855.957C432.084 854.356 433.118 853.491 434.244 852.509C437.726 852.318 440.272 853.07 443.209 855.006C444.814 856.063 445.542 856.961 445.902 858.853C445.318 860.195 444.88 860.573 443.637 861.329Z"/><path fill="#020304" d="M457.332 863.534C457.133 863.504 456.922 863.517 456.735 863.442C455.623 862.992 455.621 862.449 455.408 861.414C456.464 858.143 458.869 856.558 461.622 854.806C462.872 855.214 462.954 855.13 463.607 856.251C463.245 859.156 459.446 861.727 457.332 863.534Z"/><path fill="#020304" d="M433.313 875.102C429.94 875.806 427.529 875.486 424.639 873.501C423.238 872.539 422.342 871.31 422.135 869.57C421.938 867.907 422.701 867.149 423.641 865.962C426.923 865.991 429.955 866.365 432.826 868.109C434.231 868.962 434.864 869.855 435.234 871.478C434.981 873.159 434.381 873.872 433.313 875.102Z"/><path fill="#020304" d="M447.345 877.759C447.019 877.433 446.509 876.942 446.246 876.583C445.504 875.569 445.229 874.532 445.51 873.291C446.066 870.836 448.383 869.145 450.398 867.891C450.714 868.01 451.081 868.131 451.355 868.329C452.352 869.05 452.669 869.714 452.58 870.964C452.398 873.516 449.104 876.228 447.345 877.759Z"/><path fill="#020304" d="M422.783 889.314C420.053 889.005 415.05 888.104 413.422 885.572C412.843 884.673 412.62 883.849 413.073 882.838C413.678 881.487 415.061 880.764 416.281 880.071C416.857 880.062 417.433 880.066 418.009 880.097C420.426 880.226 423.273 881.31 424.81 883.277C425.557 884.233 425.86 885.305 425.56 886.505C425.216 887.878 423.886 888.613 422.783 889.314Z"/><path fill="#020304" d="M438.99 895.33C438.489 895.094 437.933 894.866 437.504 894.506C436.635 893.774 436.228 892.628 436.183 891.522C436.059 888.467 438.068 885.816 440.084 883.759L441.507 884.057C442.384 884.954 442.747 885.474 442.809 886.77C442.951 889.772 440.793 893.112 438.99 895.33Z"/><path fill="#020304" d="M576.122 897.413C572.96 898.166 569.282 898.872 566.022 898.511C564.537 898.346 563.149 898.075 562.204 896.836C562.223 895.755 562.184 895.441 562.905 894.565C566.01 890.789 573.616 890.207 578.155 889.688C582.106 889.255 589.022 888.614 592.244 891.197L592.255 892.103C588.888 895.265 580.608 896.285 576.122 897.413Z"/><path fill="#020304" d="M421.499 903.275C418.45 903.532 414.887 902.715 412.296 901.08C410.895 900.195 410.476 899.335 410.113 897.766C410.519 896.164 410.957 895.654 412.088 894.534C415.157 894.545 420.089 894.937 422.57 896.849C423.674 897.699 423.765 898.367 423.93 899.683C423.389 901.318 422.725 902.084 421.499 903.275Z"/><path fill="#020304" d="M435.915 908.822C435.579 908.784 435.213 908.76 434.896 908.632C433.808 908.191 433.083 907.482 432.683 906.357C431.799 903.872 433.378 900.807 434.535 898.702C434.958 898.754 435.652 898.82 436.039 898.964C437.116 899.365 437.683 900.096 438.008 901.182C438.748 903.658 437.192 906.783 435.915 908.822Z"/><path fill="#020304" d="M216.962 907.753C215.439 907.926 213.993 907.905 212.466 907.808C210.352 907.674 208.383 907.604 206.881 905.887C206.577 904.279 206.873 904.029 207.559 902.597C209.749 902.36 211.793 902.209 213.988 902.51C215.713 902.747 216.857 903.115 217.955 904.555C218.072 906.189 217.788 906.397 216.962 907.753Z"/><path fill="#020304" d="M281.376 915.322C279.505 915.261 277.605 915.241 275.742 915.068C273.67 914.876 271.314 914.244 269.982 912.626L270.17 911.6C271.407 910.461 272.538 910.094 274.124 909.587C274.551 909.561 274.978 909.54 275.406 909.523C277.973 909.431 282.203 909.72 283.944 912.019C284.699 913.016 284.703 913.343 284.477 914.465C283.369 915.197 282.69 915.259 281.376 915.322Z"/><path fill="#020304" d="M395.625 931.534C392.552 931.534 389.261 931.589 386.234 931.069C384.031 930.691 381.726 930.304 380.413 928.404L380.783 927.409C381.981 926.346 383.212 926.063 384.71 925.635C385.911 925.548 387.112 925.485 388.315 925.528C391.01 925.624 396.176 926.194 397.963 928.402C398.47 929.029 398.264 929.275 398.187 930.007C397.237 931.098 397.03 931.132 395.625 931.534Z"/></svg>